<svg width="25" height="25" viewBox="0 0 25 25" fill="none" xmlns="http://www.w3.org/2000/svg">
<g clip-path="url(#clip0_3770_7734)">
<path d="M18.8927 0.00496741C15.3418 -0.0783384 12.4959 2.96961 12.4959 6.5226V9.89649C12.4959 11.3346 13.6611 12.4998 15.0992 12.4998H18.4731C22.025 12.4998 25.074 9.65386 24.9907 6.10295C24.9116 2.77488 22.2197 0.0830666 18.8927 0.00496741ZM21.3471 7.29214H19.7851V8.85412C19.7851 9.42893 19.3186 9.89545 18.7438 9.89545C18.169 9.89545 17.7025 9.42893 17.7025 8.85412V7.29214H16.1405C15.5657 7.29214 15.0992 6.82563 15.0992 6.25082C15.0992 5.67601 15.5657 5.2095 16.1405 5.2095H17.7025V3.64751C17.7025 3.0727 18.169 2.60619 18.7438 2.60619C19.3186 2.60619 19.7851 3.0727 19.7851 3.64751V5.2095H21.3471C21.9219 5.2095 22.3884 5.67601 22.3884 6.25082C22.3884 6.82563 21.9219 7.29214 21.3471 7.29214ZM21.5096 15.4728C20.2652 14.2836 18.2929 14.2846 17.0506 15.4801L15.0669 17.1524C11.7367 15.7393 9.36669 13.3641 7.84845 9.91835L9.5156 7.94297C10.709 6.70171 10.71 4.73049 9.52185 3.48507C9.52185 3.48507 7.59332 0.978604 7.56104 0.946323C6.30521 -0.311594 4.25797 -0.310553 3.05524 0.897381L1.85772 1.94287C0.660198 3.13935 0 4.75652 0 6.49865C0 14.4502 10.5444 24.9946 18.496 24.9946C20.2381 24.9946 21.8563 24.3355 23.0997 23.0859L24.0493 21.9925C25.3041 20.7356 25.3041 18.6915 24.0493 17.4357C24.0181 17.4034 21.5106 15.4749 21.5106 15.4749L21.5096 15.4728Z" fill="white"/>
</g>
<defs>
<clipPath id="clip0_3770_7734">
<rect width="24.9917" height="24.9917" fill="white" transform="translate(0 0.00292969)"/>
</clipPath>
</defs>
</svg>
