<svg width="26" height="25" viewBox="0 0 26 25" fill="none" xmlns="http://www.w3.org/2000/svg">
<g clip-path="url(#clip0_4757_398)">
<path d="M19.4229 -0.000327388C15.872 -0.0836332 13.026 2.96432 13.026 6.51731V9.89119C13.026 11.3293 14.1913 12.4945 15.6293 12.4945H19.0032C22.5552 12.4945 25.6041 9.64856 25.5208 6.09766C25.4417 2.76959 22.7499 0.0777718 19.4229 -0.000327388ZM21.8773 7.28685H20.3153V8.84883C20.3153 9.42364 19.8488 9.89015 19.274 9.89015C18.6991 9.89015 18.2326 9.42364 18.2326 8.84883V7.28685H16.6706C16.0958 7.28685 15.6293 6.82033 15.6293 6.24552C15.6293 5.67071 16.0958 5.2042 16.6706 5.2042H18.2326V3.64222C18.2326 3.06741 18.6991 2.6009 19.274 2.6009C19.8488 2.6009 20.3153 3.06741 20.3153 3.64222V5.2042H21.8773C22.4521 5.2042 22.9186 5.67071 22.9186 6.24552C22.9186 6.82033 22.4521 7.28685 21.8773 7.28685ZM22.0397 15.4675C20.7953 14.2783 18.8231 14.2793 17.5808 15.4748L15.597 17.1471C12.2669 15.7341 9.89684 13.3588 8.3786 9.91306L10.0458 7.93767C11.2391 6.69642 11.2402 4.72519 10.052 3.47977C10.052 3.47977 8.12347 0.973309 8.09119 0.941028C6.83536 -0.316889 4.78812 -0.315848 3.58539 0.892086L2.38787 1.93757C1.19035 3.13405 0.530151 4.75123 0.530151 6.49336C0.530151 14.4449 11.0746 24.9893 19.0261 24.9893C20.7682 24.9893 22.3865 24.3302 23.6298 23.0806L24.5795 21.9872C25.8343 20.7303 25.8343 18.6862 24.5795 17.4304C24.5482 17.3981 22.0407 15.4696 22.0407 15.4696L22.0397 15.4675Z" fill="url(#paint0_linear_4757_398)"/>
</g>
<defs>
<linearGradient id="paint0_linear_4757_398" x1="25.5225" y1="24.9893" x2="0.524966" y2="-0.00303787" gradientUnits="userSpaceOnUse">
<stop stop-color="#54BE95"/>
<stop offset="0.288462" stop-color="#2E7B9A"/>
<stop offset="1" stop-color="#224075"/>
</linearGradient>
<clipPath id="clip0_4757_398">
<rect width="24.9917" height="24.9917" fill="white" transform="translate(0.530151 -0.00263977)"/>
</clipPath>
</defs>
</svg>
