<?xml version="1.0" encoding="UTF-8"?>
<svg id="Layer_2" data-name="Layer 2" xmlns="http://www.w3.org/2000/svg" viewBox="0 0 289.43 55">
  <defs>
    <style>
      .cls-1 {
        fill: #27bcb8;
      }

      .cls-2 {
        fill: #213c73;
      }
    </style>
  </defs>
  <g id="Layer_1-2" data-name="Layer 1">
    <g>
      <g>
        <path class="cls-2" d="m14.83,0c3.96,0,7.17,3.21,7.17,7.17h0v9.33h-11s0,11,0,11h11v11s5.5,0,5.5,0v16.5S0,49,0,25V0h14.83Z"/>
        <path class="cls-1" d="m40.17,0c-3.96,0-7.17,3.21-7.17,7.17h0v9.33h11v11h-11s0,11,0,11h-5.5v16.5s27.5-6,27.5-30V0h-14.83Z"/>
      </g>
      <g>
        <g>
          <path class="cls-2" d="m99.35,29.2h-22.18V.01h8.8v22.2h13.37v6.99Z"/>
          <path class="cls-2" d="m125.17,18.46c0,2.13-.46,4.04-1.39,5.71-.93,1.67-2.31,2.99-4.16,3.96-1.85.97-4.1,1.45-6.75,1.45s-4.9-.48-6.75-1.45c-1.85-.97-3.23-2.29-4.15-3.96-.92-1.67-1.38-3.57-1.38-5.71,0-1.61.26-3.08.77-4.4.51-1.32,1.29-2.49,2.34-3.51,1.05-1.02,2.33-1.8,3.86-2.35,1.53-.55,3.3-.82,5.31-.82s3.81.28,5.36.83c1.55.55,2.84,1.33,3.85,2.33,1.02,1,1.79,2.16,2.31,3.5.52,1.33.78,2.81.78,4.42Zm-7.98,0c0-1.7-.37-3.03-1.11-3.99-.74-.96-1.81-1.44-3.21-1.44s-2.45.48-3.19,1.44c-.74.96-1.11,2.29-1.11,3.99s.37,3.02,1.12,4c.74.98,1.8,1.47,3.18,1.47s2.47-.49,3.21-1.46c.74-.98,1.11-2.31,1.11-4.01Z"/>
          <path class="cls-2" d="m152.87,29.2h-9.62l-8.23-10.17v10.17h-7.67V.01h7.67v17.12l7.52-9.37h9.1l-8.38,10,9.62,11.44Z"/>
          <path class="cls-2" d="m191.77,29.2h-7.58v-11.44c0-1.52-.25-2.65-.75-3.4-.5-.75-1.29-1.13-2.37-1.13s-1.92.32-2.59.96-1.35,1.44-2.02,2.41v12.59h-7.58v-11.44c0-1.45-.23-2.56-.69-3.35-.46-.79-1.29-1.18-2.46-1.18-.56,0-1.08.11-1.55.34-.47.22-.85.48-1.15.76-.3.28-.65.7-1.07,1.24-.42.55-.69.89-.8,1.03v12.59h-7.58V7.76h7.58v3.08c1.14-1.21,2.3-2.09,3.48-2.63,1.18-.55,2.54-.82,4.09-.82.73,0,1.42.07,2.09.2.66.13,1.31.36,1.95.68.64.32,1.22.77,1.74,1.33.52.56.93,1.21,1.24,1.96,1.22-1.38,2.49-2.41,3.8-3.12,1.31-.7,2.83-1.05,4.54-1.05s3.15.34,4.31,1.03,2.01,1.68,2.57,2.98c.55,1.3.83,2.87.83,4.73v13.08Z"/>
          <path class="cls-2" d="m216.79,28.13c-1.11.44-2.13.79-3.08,1.05-.94.27-2.07.4-3.39.4-1.25,0-2.12-.22-2.61-.66s-.84-.98-1.05-1.61c-.81.66-1.72,1.2-2.72,1.63-1,.43-2.3.64-3.92.64s-2.82-.27-3.78-.81c-.96-.54-1.64-1.22-2.02-2.04-.39-.82-.58-1.67-.58-2.54,0-1.32.33-2.41,1-3.28.67-.86,1.56-1.57,2.69-2.12,1.12-.55,2.61-1.12,4.46-1.71,1.05-.34,1.85-.59,2.39-.77.54-.18.94-.31,1.21-.41.27-.1.55-.22.84-.38,0-1.04-.21-1.85-.63-2.44-.42-.59-1.33-.88-2.74-.88-1.66,0-3.19.37-4.61,1.1-1.42.73-2.72,1.67-3.9,2.82v-5.81c.94-.67,1.96-1.22,3.05-1.65s2.24-.75,3.43-.96,2.4-.32,3.62-.32c3.1,0,5.44.6,7,1.8,1.57,1.2,2.35,2.85,2.35,4.96v8.28c0,.79.07,1.37.22,1.76.15.39.42.58.81.58.48,0,1.12-.2,1.94-.61v3.98Zm-10.55-4.11v-5.08c-1.8.73-3.11,1.39-3.94,1.97-.83.58-1.24,1.37-1.24,2.37,0,.72.21,1.26.62,1.64.41.38.9.57,1.44.57.52,0,1.04-.14,1.55-.43.51-.29,1.04-.64,1.57-1.04Z"/>
          <path class="cls-2" d="m240.95,29.2h-7.58v-11.56c0-1.18-.19-2.21-.58-3.09-.39-.88-1.23-1.32-2.54-1.32-.62,0-1.16.12-1.63.35-.47.23-.89.53-1.26.89s-.68.72-.94,1.05-.51.7-.78,1.07v12.59h-7.58V7.76h7.58v3.08c1.19-1.28,2.39-2.17,3.59-2.69,1.2-.51,2.54-.77,4.01-.77,5.14,0,7.71,3.08,7.71,9.22v12.59Z"/>
          <path class="cls-2" d="m266.75,7.76l-14.57,31.19h-7.67l5.9-12.55-8.49-18.64h8.15l4.36,10.66,4.95-10.66h7.37Z"/>
          <path class="cls-2" d="m289.43,28.13c-1.11.44-2.13.79-3.08,1.05-.94.27-2.07.4-3.39.4-1.25,0-2.12-.22-2.61-.66s-.84-.98-1.05-1.61c-.81.66-1.72,1.2-2.72,1.63-1,.43-2.3.64-3.92.64s-2.82-.27-3.78-.81c-.96-.54-1.64-1.22-2.02-2.04-.39-.82-.58-1.67-.58-2.54,0-1.32.33-2.41,1-3.28.67-.86,1.56-1.57,2.69-2.12,1.12-.55,2.61-1.12,4.46-1.71,1.05-.34,1.85-.59,2.39-.77.54-.18.94-.31,1.21-.41.27-.1.55-.22.84-.38,0-1.04-.21-1.85-.63-2.44-.42-.59-1.33-.88-2.74-.88-1.66,0-3.19.37-4.61,1.1-1.42.73-2.72,1.67-3.9,2.82v-5.81c.94-.67,1.96-1.22,3.05-1.65,1.1-.43,2.24-.75,3.43-.96s2.4-.32,3.62-.32c3.1,0,5.44.6,7,1.8,1.57,1.2,2.35,2.85,2.35,4.96v8.28c0,.79.07,1.37.22,1.76.15.39.42.58.81.58.48,0,1.12-.2,1.94-.61v3.98Zm-10.55-4.11v-5.08c-1.8.73-3.11,1.39-3.94,1.97-.83.58-1.24,1.37-1.24,2.37,0,.72.21,1.26.62,1.64s.9.57,1.44.57c.52,0,1.04-.14,1.55-.43.51-.29,1.04-.64,1.57-1.04Z"/>
        </g>
        <g>
          <path class="cls-2" d="m78.65,46.46h-.04v4.58h-1.44v-7.57h1.46l2.48,5.58,2.48-5.58h1.45v7.57h-1.44v-4.58h-.03l-1.96,4.58h-.99l-1.96-4.58Z"/>
          <path class="cls-2" d="m89.75,43.48v4.76c0,.97.52,1.69,1.69,1.69.97,0,1.56-.53,1.56-1.65v-4.79h1.45v4.98c0,1.68-1.13,2.69-3.03,2.69s-3.11-1.05-3.11-2.76v-4.92h1.45Z"/>
          <path class="cls-2" d="m99.15,43.48v6.45h3.95v1.11h-5.38v-7.57h1.44Z"/>
          <path class="cls-2" d="m106.81,44.67h-2.41v-1.19h6.27v1.19h-2.42v6.38h-1.44v-6.38Z"/>
          <path class="cls-2" d="m113.42,43.48h1.36v7.57h-1.36v-7.57Z"/>
          <path class="cls-2" d="m117.98,47.75h3.97v1.22h-3.97v-1.22Z"/>
          <path class="cls-2" d="m127.95,51.24c-1.58,0-2.76-.7-3.18-1.72l1.25-.7c.28.69.98,1.22,2.05,1.22.97,0,1.68-.48,1.68-1.09,0-1.57-4.89-.1-4.93-3.07-.02-1.47,1.19-2.51,3.03-2.51,1.43,0,2.57.64,3.1,1.65l-1.16.67c-.34-.58-1.12-1.14-2.13-1.14s-1.5.51-1.5,1.06c0,1.63,4.88.13,4.88,3.14,0,1.49-1.2,2.49-3.09,2.49Z"/>
          <path class="cls-2" d="m135.51,47.96v3.08h-1.44v-7.57h3.71c1.66,0,2.54.76,2.54,2.21s-.92,2.28-2.69,2.28h-2.12Zm0-1.1h2.18c.52,0,1.16-.36,1.16-1.2,0-.75-.45-1.08-1.21-1.08h-2.13v2.28Z"/>
          <path class="cls-2" d="m143.17,43.48h5.49v1.11h-4.05v1.99h3.74v1.11h-3.74v2.24h4.05v1.11h-5.49v-7.57Z"/>
          <path class="cls-2" d="m151.22,47.27c0-2.46,1.48-3.9,3.83-3.9,2.05,0,3.42,1.22,3.51,2.93h-1.35c-.14-1.07-.97-1.73-2.1-1.73-1.51,0-2.41.99-2.41,2.71s.92,2.76,2.42,2.76c1.08,0,1.91-.64,2.05-1.73h1.35c-.09,1.6-1.43,2.93-3.5,2.93-2.35,0-3.81-1.51-3.81-3.97Z"/>
          <path class="cls-2" d="m161.51,43.48h1.36v7.57h-1.36v-7.57Z"/>
          <path class="cls-2" d="m170.6,43.48l3.03,7.57h-1.64l-2.15-6.01h-.05l-2.15,6.01h-1.64l3.03-7.57h1.59Zm1.09,5.91h-3.77l.43-1.15h2.92l.42,1.15Z"/>
          <path class="cls-2" d="m178.07,43.48v6.45h3.95v1.11h-5.38v-7.57h1.44Z"/>
          <path class="cls-2" d="m184.89,43.48h1.36v7.57h-1.36v-7.57Z"/>
          <path class="cls-2" d="m191.72,44.67h-2.41v-1.19h6.27v1.19h-2.42v6.38h-1.44v-6.38Z"/>
          <path class="cls-2" d="m201.23,48l-3.12-4.52h1.72l2,2.96h.03l1.99-2.96h1.72l-3.12,4.52v3.05h-1.21v-3.05Z"/>
          <path class="cls-2" d="m213.65,43.48h1.44v3.2h3.68v-3.2h1.44v7.57h-1.44v-3.13h-3.68v3.13h-1.44v-7.57Z"/>
          <path class="cls-2" d="m227.17,43.26c2.26,0,3.96,1.33,3.96,4s-1.7,4.01-3.96,4.01-3.95-1.35-3.95-4.01,1.7-4,3.95-4Zm0,6.81c1.39,0,2.46-.85,2.46-2.82s-1.07-2.8-2.46-2.8-2.46.86-2.46,2.8,1.07,2.82,2.46,2.82Z"/>
          <path class="cls-2" d="m237,51.24c-1.58,0-2.76-.7-3.18-1.72l1.25-.7c.28.69.98,1.22,2.05,1.22.97,0,1.68-.48,1.68-1.09,0-1.57-4.89-.1-4.93-3.07-.02-1.47,1.19-2.51,3.03-2.51,1.43,0,2.57.64,3.1,1.65l-1.16.67c-.34-.58-1.12-1.14-2.13-1.14s-1.5.51-1.5,1.06c0,1.63,4.88.13,4.88,3.14,0,1.49-1.2,2.49-3.09,2.49Z"/>
          <path class="cls-2" d="m244.55,47.96v3.08h-1.44v-7.57h3.71c1.66,0,2.54.76,2.54,2.21s-.92,2.28-2.69,2.28h-2.12Zm0-1.1h2.18c.52,0,1.16-.36,1.16-1.2,0-.75-.45-1.08-1.21-1.08h-2.13v2.28Z"/>
          <path class="cls-2" d="m252.21,43.48h1.36v7.57h-1.36v-7.57Z"/>
          <path class="cls-2" d="m259.04,44.67h-2.41v-1.19h6.27v1.19h-2.42v6.38h-1.44v-6.38Z"/>
          <path class="cls-2" d="m268.92,43.48l3.03,7.57h-1.64l-2.15-6.01h-.05l-2.15,6.01h-1.64l3.03-7.57h1.59Zm1.09,5.91h-3.77l.43-1.15h2.92l.42,1.15Z"/>
          <path class="cls-2" d="m276.39,43.48v6.45h3.95v1.11h-5.38v-7.57h1.44Z"/>
          <path class="cls-2" d="m285.98,51.24c-1.58,0-2.76-.7-3.18-1.72l1.25-.7c.28.69.98,1.22,2.05,1.22.97,0,1.68-.48,1.68-1.09,0-1.57-4.89-.1-4.93-3.07-.02-1.47,1.19-2.51,3.03-2.51,1.43,0,2.57.64,3.1,1.65l-1.16.67c-.34-.58-1.12-1.14-2.13-1.14s-1.5.51-1.5,1.06c0,1.63,4.88.13,4.88,3.14,0,1.49-1.2,2.49-3.09,2.49Z"/>
        </g>
      </g>
    </g>
  </g>
</svg>