<svg width="51" height="52" viewBox="0 0 51 52" fill="none" xmlns="http://www.w3.org/2000/svg">
<path d="M8.64193 26.1621C10.7438 26.1621 12.454 24.4465 12.454 22.3381C12.454 20.2359 10.7438 18.5257 8.64193 18.5257C6.5331 18.5257 4.81763 20.2359 4.81763 22.3381C4.81763 24.4465 6.5331 26.1621 8.64193 26.1621ZM8.64193 19.7449C10.0717 19.7449 11.2349 20.9082 11.2349 22.3382C11.2349 23.7746 10.0717 24.9433 8.64193 24.9433C7.20516 24.9433 6.03674 23.7747 6.03674 22.3382C6.03674 20.9081 7.20516 19.7449 8.64193 19.7449ZM45.998 37.921H44.7076V36.1883C44.7076 36.1379 44.6996 36.0895 44.6881 36.0424C44.6848 36.0293 44.6803 36.017 44.6762 36.0043C44.665 35.969 44.6508 35.9354 44.6337 35.903C44.6275 35.8914 44.6219 35.88 44.615 35.8689C44.5896 35.8282 44.5612 35.7897 44.5273 35.7559C44.5251 35.7536 44.5219 35.7518 44.5194 35.7494C44.487 35.7182 44.4503 35.6914 44.4115 35.668C44.406 35.6648 44.4022 35.6603 44.3967 35.6571C43.4769 35.1402 42.8319 32.4879 42.5219 31.2133C42.4203 30.7965 42.3329 30.4365 42.2537 30.186C42.0218 29.447 41.6114 28.4254 40.7298 28.0875C40.1456 27.8636 39.4927 27.9727 38.7373 28.4194C38.0114 28.8406 37.4801 29.3259 37.075 29.9337C37.0116 30.0235 36.9395 30.1439 36.8652 30.2691C36.8196 30.3454 36.7537 30.4569 36.6985 30.5389C36.4237 30.5675 35.7498 30.5018 35.2563 30.4123C34.1429 30.2328 33.0251 30.1102 32.0794 30.0135C31.7484 29.9791 31.4061 29.9461 31.0555 29.9121C28.7408 29.6881 26.1172 29.4348 24.1563 28.5786C22.972 28.0657 21.9197 27.4847 20.9017 26.9226C20.6415 26.7791 20.3849 26.6373 20.1202 26.4939C19.4092 26.1238 18.6616 26.1266 17.8957 26.4972C15.9743 25.6207 13.7191 25.0392 10.4177 26.2466C9.97649 26.4067 9.66322 26.7529 9.52795 27.2513C9.42565 27.7222 9.55136 28.1755 9.88864 28.5341L15.4098 34.2343C15.5073 34.3349 15.6367 34.399 15.7759 34.4155L16.2302 34.4693V35.3997H15.9269L6.61826 25.7744C6.16584 25.3066 5.55842 25.044 4.90767 25.0358C4.24686 25.0184 3.66146 25.2687 3.21083 25.7121C2.26265 26.6289 2.23316 28.1555 3.14887 29.1192L11.662 37.921H7.67382C7.33724 37.921 7.06422 38.194 7.06422 38.5305V40.8731C7.06422 41.2095 7.33724 41.4825 7.67382 41.4825H20.6397V42.1875C20.6397 43.0637 21.3582 43.777 22.2412 43.777H23.3646V45.9877H20.0423C19.1659 45.9877 18.4529 46.7009 18.4529 47.5771V50.2779C18.4529 50.6141 18.7258 50.8873 19.0625 50.8873H34.6213C34.958 50.8873 35.231 50.6141 35.231 50.2779V47.5771C35.231 46.7009 34.5181 45.9877 33.6417 45.9877H30.3193V43.777H31.4427C32.3191 43.777 33.032 43.0638 33.032 42.1875V41.4825H45.9979C46.3344 41.4825 46.6075 41.2095 46.6075 40.8731V38.5305C46.6076 38.194 46.3345 37.921 45.998 37.921ZM10.7708 27.6926C10.7161 27.6345 10.7026 27.5867 10.7119 27.5411C10.741 27.4341 10.7899 27.408 10.8348 27.3918C13.4493 26.4357 15.2828 26.7034 17.1089 27.4831C16.9232 27.8953 16.7725 28.23 16.6495 28.5035L15.9323 27.7863C15.6939 27.5485 15.3086 27.5485 15.0702 27.7863C14.8323 28.0246 14.8323 28.4103 15.0702 28.6485L16.3569 29.935C16.3933 29.9831 16.4346 30.0275 16.4854 30.0637L17.7591 31.3373C17.8428 31.4208 17.9492 31.4785 18.0652 31.5029L23.3341 32.6063C23.6607 32.7253 23.8783 33.0281 23.8783 33.3679C23.8783 33.6813 23.6948 33.9663 23.4208 34.0956L16.1347 33.2305L10.7708 27.6926ZM23.424 35.3237C23.4479 35.3265 23.4719 35.3279 23.496 35.3279C23.5561 35.3279 23.6163 35.3189 23.6741 35.3011C24.5122 35.0448 25.0972 34.2501 25.0972 33.3679C25.0972 32.4898 24.5298 31.7139 23.685 31.4384C23.664 31.4314 23.6424 31.4257 23.6207 31.4211L18.4927 30.347L17.5714 29.4257C17.7321 29.0679 18.0019 28.4677 18.3879 27.6118C18.9402 27.3319 19.2999 27.4411 19.5485 27.5702C19.8006 27.7072 20.0551 27.8477 20.3126 27.9897C21.3556 28.5654 22.4341 29.161 23.6701 29.6962C25.8071 30.6289 28.533 30.8927 30.9382 31.1253C31.2858 31.1588 31.6255 31.1917 31.9544 31.2258C32.884 31.3208 33.9798 31.4414 35.0505 31.6137C37.0541 31.9773 37.4032 31.592 37.5298 31.4527C37.669 31.3025 37.7932 31.0935 37.9133 30.8911C37.9696 30.7963 38.0232 30.7042 38.0801 30.623C38.3871 30.163 38.7902 29.7978 39.3533 29.4711C39.6374 29.3032 40.0312 29.1247 40.2933 29.2255C40.491 29.3014 40.79 29.593 41.0911 30.5521C41.158 30.7646 41.2412 31.1059 41.3374 31.5013C41.6383 32.7379 42.0472 34.4154 42.7381 35.5788H29.3994C29.0626 35.5788 28.7897 35.8518 28.7897 36.1882C28.7897 36.5249 29.0626 36.7978 29.3994 36.7978H43.4886V37.9209H17.4493V34.6141L23.424 35.3237ZM4.02872 28.2758C3.5757 27.7991 3.58884 27.0419 4.06169 26.585C4.28252 26.3677 4.57209 26.232 4.89223 26.2547C5.21527 26.2588 5.51698 26.3891 5.742 26.6217L15.2305 36.4327C15.3453 36.5515 15.5033 36.6188 15.6685 36.6188H16.2302V37.9211H13.3575L4.02872 28.2758ZM34.0119 47.5769V49.6681H19.672V47.5769C19.672 47.3761 19.8416 47.2067 20.0424 47.2067H33.6417C33.8424 47.2067 34.0119 47.3762 34.0119 47.5769ZM29.1005 45.9875H24.5836V43.7768H29.1005V45.9875ZM31.8131 42.1874C31.8131 42.3883 31.6435 42.5578 31.4428 42.5578H22.2412C22.0301 42.5578 21.8587 42.3917 21.8587 42.1874V41.4824H31.8131V42.1874ZM45.3886 40.2633H8.28323V39.14H45.3886V40.2633ZM45.4365 6.65928C45.3987 6.65928 45.3619 6.66367 45.3246 6.66506L40.3776 1.70671C39.5672 0.913716 38.2604 0.915709 37.4648 1.71129C36.664 2.51225 36.664 3.81574 37.4648 4.61689L42.3649 9.51668C42.3612 9.56778 42.3581 9.61987 42.3567 9.67167L35.6792 12.1338C35.5143 12.1941 35.365 12.2799 35.2238 12.3766C33.0871 11.3497 30.5637 11.3818 28.4656 12.4639L27.889 12.1312C27.679 12.0091 27.4403 11.9448 27.1986 11.9448C26.7143 11.9448 26.2583 12.2033 26.001 12.6329L25.6456 13.2606C25.4603 13.5798 25.4088 13.9504 25.5008 14.3041C25.5935 14.6604 25.8212 14.959 26.143 15.146L38.3186 22.1719C38.5287 22.294 38.7674 22.3584 39.009 22.3584C39.4934 22.3584 39.9494 22.0998 40.2024 21.6777L40.5816 21.0294C40.9481 20.3608 40.7214 19.5386 40.0648 19.1573L39.4833 18.8219C39.4278 17.6366 39.1003 16.4965 38.5221 15.4695L45.7733 12.8065C47.3153 12.638 48.5196 11.3287 48.5196 9.74229C48.5197 8.04236 47.1366 6.65928 45.4365 6.65928ZM38.327 3.75478C38.1704 3.59839 38.0841 3.38821 38.0841 3.16399C38.0841 2.93957 38.1704 2.7296 38.327 2.57311C38.6522 2.24719 39.1901 2.24998 39.5198 2.57251L43.9686 7.03152C43.4699 7.30276 43.0566 7.70907 42.7717 8.19925L38.327 3.75478ZM42.5769 10.8896C42.8037 11.4528 43.1911 11.9338 43.683 12.2756L36.675 14.8494C36.4693 14.928 36.2435 14.9209 36.0397 14.8282C35.8334 14.7346 35.6768 14.568 35.6003 14.3614C35.4404 13.9228 35.6631 13.4372 36.0991 13.278L42.5769 10.8896ZM39.5211 20.4292L39.1538 21.0565C39.0949 21.1546 38.9991 21.1575 38.9295 21.1173L26.7539 14.0909C26.706 14.0635 26.6875 14.0249 26.6807 13.9974C26.673 13.9684 26.6703 13.9238 26.7031 13.867L27.054 13.2469C27.0905 13.1855 27.1527 13.1637 27.1987 13.1637C27.2263 13.1637 27.2519 13.1708 27.2782 13.1861L39.4539 20.2123C39.5344 20.2588 39.5595 20.3585 39.5211 20.4292ZM38.1773 18.0682L29.7754 13.22C31.2857 12.6776 32.9716 12.7271 34.4616 13.3699C34.2967 13.826 34.2872 14.3189 34.4566 14.7825C34.6481 15.299 35.0314 15.7094 35.5363 15.9385C35.8081 16.0619 36.0967 16.1234 36.3845 16.1234C36.6278 16.1234 36.8705 16.0792 37.1022 15.991L37.3637 15.8951C37.7694 16.5663 38.0419 17.301 38.1773 18.0682ZM45.4365 11.6068C44.4085 11.6068 43.5724 10.7704 43.5724 9.74239C43.5724 8.71443 44.4085 7.8783 45.4365 7.8783C46.4644 7.8783 47.3007 8.71443 47.3007 9.74239C47.3007 10.7704 46.4645 11.6068 45.4365 11.6068ZM8.10404 16.1479H21.7988C22.4579 16.1479 22.9938 15.6173 22.9938 14.9649V6.63548C22.9938 5.97646 22.4579 5.44036 21.7988 5.44036H8.10404C7.44492 5.44036 6.90892 5.97646 6.90892 6.63548V14.9649C6.90892 15.6173 7.44492 16.1479 8.10404 16.1479ZM21.775 6.63548V14.9289H8.12794L8.10414 6.65948L21.775 6.63548ZM12.0716 10.4836C12.0716 10.1471 12.3445 9.87398 12.681 9.87398H13.5714L14.6097 8.29597C14.7267 8.11806 14.9234 8.01467 15.1405 8.02204C15.3529 8.02961 15.5463 8.14745 15.6503 8.33292L16.5153 9.87408H16.9473C17.1983 9.87408 17.4234 10.0279 17.5146 10.2616L18.0108 11.5291L18.7087 10.2715C18.8161 10.078 19.02 9.95785 19.2417 9.95785H20.3531C20.6895 9.95785 20.9624 10.2308 20.9624 10.5674C20.9624 10.9039 20.6895 11.1768 20.3531 11.1768H19.6004L18.4481 13.2532C18.3401 13.4476 18.1356 13.5669 17.9152 13.5669C17.9016 13.5669 17.8881 13.5665 17.8742 13.5654C17.6388 13.5499 17.4336 13.3994 17.3475 13.1794L16.5311 11.0932H16.1584C15.938 11.0932 15.7347 10.9743 15.627 10.7819L15.0775 9.80296L14.4088 10.8188C14.2963 10.99 14.1048 11.0932 13.8998 11.0932H12.681C12.3445 11.0931 12.0716 10.8201 12.0716 10.4836ZM8.85669 8.10531C8.85669 7.76883 9.12971 7.4959 9.4663 7.4959H10.4224C10.759 7.4959 11.0319 7.76883 11.0319 8.10531C11.0319 8.44189 10.759 8.71492 10.4224 8.71492H9.4663C9.12971 8.71492 8.85669 8.44199 8.85669 8.10531ZM8.85669 9.57535C8.85669 9.23877 9.12971 8.96584 9.4663 8.96584H10.4224C10.759 8.96584 11.0319 9.23877 11.0319 9.57535C11.0319 9.91193 10.759 10.1849 10.4224 10.1849H9.4663C9.12971 10.1849 8.85669 9.91193 8.85669 9.57535Z" fill="#134A85"/>
</svg>
