<svg width="51" height="51" viewBox="0 0 51 51" fill="none" xmlns="http://www.w3.org/2000/svg">
<path d="M8.64193 25.6621C10.7438 25.6621 12.454 23.9465 12.454 21.8381C12.454 19.7359 10.7438 18.0257 8.64193 18.0257C6.5331 18.0257 4.81763 19.7359 4.81763 21.8381C4.81763 23.9465 6.5331 25.6621 8.64193 25.6621ZM8.64193 19.2449C10.0717 19.2449 11.2349 20.4082 11.2349 21.8382C11.2349 23.2746 10.0717 24.4433 8.64193 24.4433C7.20516 24.4433 6.03674 23.2747 6.03674 21.8382C6.03674 20.4081 7.20516 19.2449 8.64193 19.2449ZM45.998 37.421H44.7076V35.6883C44.7076 35.6379 44.6996 35.5895 44.6881 35.5424C44.6848 35.5293 44.6803 35.517 44.6762 35.5043C44.665 35.469 44.6508 35.4354 44.6337 35.403C44.6275 35.3914 44.6219 35.38 44.615 35.3689C44.5896 35.3282 44.5612 35.2897 44.5273 35.2559C44.5251 35.2536 44.5219 35.2518 44.5194 35.2494C44.487 35.2182 44.4503 35.1914 44.4115 35.168C44.406 35.1648 44.4022 35.1603 44.3967 35.1571C43.4769 34.6402 42.8319 31.9879 42.5219 30.7133C42.4203 30.2965 42.3329 29.9365 42.2537 29.686C42.0218 28.947 41.6114 27.9254 40.7298 27.5875C40.1456 27.3636 39.4927 27.4727 38.7373 27.9194C38.0114 28.3406 37.4801 28.8259 37.075 29.4337C37.0116 29.5235 36.9395 29.6439 36.8652 29.7691C36.8196 29.8454 36.7537 29.9569 36.6985 30.0389C36.4237 30.0675 35.7498 30.0018 35.2563 29.9123C34.1429 29.7328 33.0251 29.6102 32.0794 29.5135C31.7484 29.4791 31.4061 29.4461 31.0555 29.4121C28.7408 29.1881 26.1172 28.9348 24.1563 28.0786C22.972 27.5657 21.9197 26.9847 20.9017 26.4226C20.6415 26.2791 20.3849 26.1373 20.1202 25.9939C19.4092 25.6238 18.6616 25.6266 17.8957 25.9972C15.9743 25.1207 13.7191 24.5392 10.4177 25.7466C9.97649 25.9067 9.66322 26.2529 9.52795 26.7513C9.42565 27.2222 9.55136 27.6755 9.88864 28.0341L15.4098 33.7343C15.5073 33.8349 15.6367 33.899 15.7759 33.9155L16.2302 33.9693V34.8997H15.9269L6.61826 25.2744C6.16584 24.8066 5.55842 24.544 4.90767 24.5358C4.24686 24.5184 3.66146 24.7687 3.21083 25.2121C2.26265 26.1289 2.23316 27.6555 3.14887 28.6192L11.662 37.421H7.67382C7.33724 37.421 7.06422 37.694 7.06422 38.0305V40.3731C7.06422 40.7095 7.33724 40.9825 7.67382 40.9825H20.6397V41.6875C20.6397 42.5637 21.3582 43.277 22.2412 43.277H23.3646V45.4877H20.0423C19.1659 45.4877 18.4529 46.2009 18.4529 47.0771V49.7779C18.4529 50.1141 18.7258 50.3873 19.0625 50.3873H34.6213C34.958 50.3873 35.231 50.1141 35.231 49.7779V47.0771C35.231 46.2009 34.5181 45.4877 33.6417 45.4877H30.3193V43.277H31.4427C32.3191 43.277 33.032 42.5638 33.032 41.6875V40.9825H45.9979C46.3344 40.9825 46.6075 40.7095 46.6075 40.3731V38.0305C46.6076 37.694 46.3345 37.421 45.998 37.421ZM10.7708 27.1926C10.7161 27.1345 10.7026 27.0867 10.7119 27.0411C10.741 26.9341 10.7899 26.908 10.8348 26.8918C13.4493 25.9357 15.2828 26.2034 17.1089 26.9831C16.9232 27.3953 16.7725 27.73 16.6495 28.0035L15.9323 27.2863C15.6939 27.0485 15.3086 27.0485 15.0702 27.2863C14.8323 27.5246 14.8323 27.9103 15.0702 28.1485L16.3569 29.435C16.3933 29.4831 16.4346 29.5275 16.4854 29.5637L17.7591 30.8373C17.8428 30.9208 17.9492 30.9785 18.0652 31.0029L23.3341 32.1063C23.6607 32.2253 23.8783 32.5281 23.8783 32.8679C23.8783 33.1813 23.6948 33.4663 23.4208 33.5956L16.1347 32.7305L10.7708 27.1926ZM23.424 34.8237C23.4479 34.8265 23.4719 34.8279 23.496 34.8279C23.5561 34.8279 23.6163 34.8189 23.6741 34.8011C24.5122 34.5448 25.0972 33.7501 25.0972 32.8679C25.0972 31.9898 24.5298 31.2139 23.685 30.9384C23.664 30.9314 23.6424 30.9257 23.6207 30.9211L18.4927 29.847L17.5714 28.9257C17.7321 28.5679 18.0019 27.9677 18.3879 27.1118C18.9402 26.8319 19.2999 26.9411 19.5485 27.0702C19.8006 27.2072 20.0551 27.3477 20.3126 27.4897C21.3556 28.0654 22.4341 28.661 23.6701 29.1962C25.8071 30.1289 28.533 30.3927 30.9382 30.6253C31.2858 30.6588 31.6255 30.6917 31.9544 30.7258C32.884 30.8208 33.9798 30.9414 35.0505 31.1137C37.0541 31.4773 37.4032 31.092 37.5298 30.9527C37.669 30.8025 37.7932 30.5935 37.9133 30.3911C37.9696 30.2963 38.0232 30.2042 38.0801 30.123C38.3871 29.663 38.7902 29.2978 39.3533 28.9711C39.6374 28.8032 40.0312 28.6247 40.2933 28.7255C40.491 28.8014 40.79 29.093 41.0911 30.0521C41.158 30.2646 41.2412 30.6059 41.3374 31.0013C41.6383 32.2379 42.0472 33.9154 42.7381 35.0788H29.3994C29.0626 35.0788 28.7897 35.3518 28.7897 35.6882C28.7897 36.0249 29.0626 36.2978 29.3994 36.2978H43.4886V37.4209H17.4493V34.1141L23.424 34.8237ZM4.02872 27.7758C3.5757 27.2991 3.58884 26.5419 4.06169 26.085C4.28252 25.8677 4.57209 25.732 4.89223 25.7547C5.21527 25.7588 5.51698 25.8891 5.742 26.1217L15.2305 35.9327C15.3453 36.0515 15.5033 36.1188 15.6685 36.1188H16.2302V37.4211H13.3575L4.02872 27.7758ZM34.0119 47.0769V49.1681H19.672V47.0769C19.672 46.8761 19.8416 46.7067 20.0424 46.7067H33.6417C33.8424 46.7067 34.0119 46.8762 34.0119 47.0769ZM29.1005 45.4875H24.5836V43.2768H29.1005V45.4875ZM31.8131 41.6874C31.8131 41.8883 31.6435 42.0578 31.4428 42.0578H22.2412C22.0301 42.0578 21.8587 41.8917 21.8587 41.6874V40.9824H31.8131V41.6874ZM45.3886 39.7633H8.28323V38.64H45.3886V39.7633ZM45.4365 6.15928C45.3987 6.15928 45.3619 6.16367 45.3246 6.16506L40.3776 1.20671C39.5672 0.413716 38.2604 0.415709 37.4648 1.21129C36.664 2.01225 36.664 3.31574 37.4648 4.11689L42.3649 9.01668C42.3612 9.06778 42.3581 9.11987 42.3567 9.17167L35.6792 11.6338C35.5143 11.6941 35.365 11.7799 35.2238 11.8766C33.0871 10.8497 30.5637 10.8818 28.4656 11.9639L27.889 11.6312C27.679 11.5091 27.4403 11.4448 27.1986 11.4448C26.7143 11.4448 26.2583 11.7033 26.001 12.1329L25.6456 12.7606C25.4603 13.0798 25.4088 13.4504 25.5008 13.8041C25.5935 14.1604 25.8212 14.459 26.143 14.646L38.3186 21.6719C38.5287 21.794 38.7674 21.8584 39.009 21.8584C39.4934 21.8584 39.9494 21.5998 40.2024 21.1777L40.5816 20.5294C40.9481 19.8608 40.7214 19.0386 40.0648 18.6573L39.4833 18.3219C39.4278 17.1366 39.1003 15.9965 38.5221 14.9695L45.7733 12.3065C47.3153 12.138 48.5196 10.8287 48.5196 9.24229C48.5197 7.54236 47.1366 6.15928 45.4365 6.15928ZM38.327 3.25478C38.1704 3.09839 38.0841 2.88821 38.0841 2.66399C38.0841 2.43957 38.1704 2.2296 38.327 2.07311C38.6522 1.74719 39.1901 1.74998 39.5198 2.07251L43.9686 6.53152C43.4699 6.80276 43.0566 7.20907 42.7717 7.69925L38.327 3.25478ZM42.5769 10.3896C42.8037 10.9528 43.1911 11.4338 43.683 11.7756L36.675 14.3494C36.4693 14.428 36.2435 14.4209 36.0397 14.3282C35.8334 14.2346 35.6768 14.068 35.6003 13.8614C35.4404 13.4228 35.6631 12.9372 36.0991 12.778L42.5769 10.3896ZM39.5211 19.9292L39.1538 20.5565C39.0949 20.6546 38.9991 20.6575 38.9295 20.6173L26.7539 13.5909C26.706 13.5635 26.6875 13.5249 26.6807 13.4974C26.673 13.4684 26.6703 13.4238 26.7031 13.367L27.054 12.7469C27.0905 12.6855 27.1527 12.6637 27.1987 12.6637C27.2263 12.6637 27.2519 12.6708 27.2782 12.6861L39.4539 19.7123C39.5344 19.7588 39.5595 19.8585 39.5211 19.9292ZM38.1773 17.5682L29.7754 12.72C31.2857 12.1776 32.9716 12.2271 34.4616 12.8699C34.2967 13.326 34.2872 13.8189 34.4566 14.2825C34.6481 14.799 35.0314 15.2094 35.5363 15.4385C35.8081 15.5619 36.0967 15.6234 36.3845 15.6234C36.6278 15.6234 36.8705 15.5792 37.1022 15.491L37.3637 15.3951C37.7694 16.0663 38.0419 16.801 38.1773 17.5682ZM45.4365 11.1068C44.4085 11.1068 43.5724 10.2704 43.5724 9.24239C43.5724 8.21443 44.4085 7.3783 45.4365 7.3783C46.4644 7.3783 47.3007 8.21443 47.3007 9.24239C47.3007 10.2704 46.4645 11.1068 45.4365 11.1068ZM8.10404 15.6479H21.7988C22.4579 15.6479 22.9938 15.1173 22.9938 14.4649V6.13548C22.9938 5.47646 22.4579 4.94036 21.7988 4.94036H8.10404C7.44492 4.94036 6.90892 5.47646 6.90892 6.13548V14.4649C6.90892 15.1173 7.44492 15.6479 8.10404 15.6479ZM21.775 6.13548V14.4289H8.12794L8.10414 6.15948L21.775 6.13548ZM12.0716 9.98359C12.0716 9.64711 12.3445 9.37398 12.681 9.37398H13.5714L14.6097 7.79597C14.7267 7.61806 14.9234 7.51467 15.1405 7.52204C15.3529 7.52961 15.5463 7.64745 15.6503 7.83292L16.5153 9.37408H16.9473C17.1983 9.37408 17.4234 9.52787 17.5146 9.76156L18.0108 11.0291L18.7087 9.77152C18.8161 9.57798 19.02 9.45785 19.2417 9.45785H20.3531C20.6895 9.45785 20.9624 9.73078 20.9624 10.0674C20.9624 10.4039 20.6895 10.6768 20.3531 10.6768H19.6004L18.4481 12.7532C18.3401 12.9476 18.1356 13.0669 17.9152 13.0669C17.9016 13.0669 17.8881 13.0665 17.8742 13.0654C17.6388 13.0499 17.4336 12.8994 17.3475 12.6794L16.5311 10.5932H16.1584C15.938 10.5932 15.7347 10.4743 15.627 10.2819L15.0775 9.30296L14.4088 10.3188C14.2963 10.49 14.1048 10.5932 13.8998 10.5932H12.681C12.3445 10.5931 12.0716 10.3201 12.0716 9.98359ZM8.85669 7.60531C8.85669 7.26883 9.12971 6.9959 9.4663 6.9959H10.4224C10.759 6.9959 11.0319 7.26883 11.0319 7.60531C11.0319 7.94189 10.759 8.21492 10.4224 8.21492H9.4663C9.12971 8.21492 8.85669 7.94199 8.85669 7.60531ZM8.85669 9.07535C8.85669 8.73877 9.12971 8.46584 9.4663 8.46584H10.4224C10.759 8.46584 11.0319 8.73877 11.0319 9.07535C11.0319 9.41193 10.759 9.68486 10.4224 9.68486H9.4663C9.12971 9.68486 8.85669 9.41193 8.85669 9.07535Z" fill="#134A85"/>
</svg>
