<svg width="51" height="51" viewBox="0 0 51 51" fill="none" xmlns="http://www.w3.org/2000/svg">
<path d="M8.50002 15.7633C8.26821 16.0724 8.34548 16.5361 8.65457 16.8451C8.96366 17.077 15.3773 21.7906 19.9364 23.877C23.7228 25.577 22.3318 28.977 23.0273 34.5406C23.5682 38.7906 25.3455 47.9088 26.1182 49.377C26.2728 49.6088 26.5046 49.7633 26.8137 49.7633C26.8909 49.7633 27.0455 49.7633 27.1228 49.6861C27.5091 49.5315 27.6637 49.0679 27.5091 48.6815C26.8909 47.4451 25.1137 38.5588 24.5728 34.3088C23.9546 29.0542 25.3455 24.6497 20.6318 22.4861C16.2273 20.477 9.65911 15.6088 9.58184 15.6088C9.27275 15.2997 8.80911 15.377 8.50002 15.7633ZM41.1091 48.7588C41.1091 49.1451 41.4955 49.4542 41.8818 49.4542C41.8818 49.4542 41.8818 49.4542 41.9591 49.4542C42.3455 49.4542 42.6546 49.0679 42.6546 48.6815L41.1091 25.7315C39.95 14.6042 24.4182 1.46787 23.8 0.926962C23.4909 0.695144 23.0273 0.695144 22.7182 1.00423C22.4864 1.31333 22.4864 1.77696 22.7955 2.08605C22.95 2.2406 38.4818 15.377 39.5637 25.8861L41.1091 48.7588Z" fill="#134A85"/>
<path d="M16.6136 1.69922C16.3818 1.69922 16.2273 1.77649 16.0727 1.93104L12.9818 4.94467C12.8273 5.09922 12.75 5.33104 12.75 5.48558C12.75 5.7174 12.8273 5.87195 13.0591 6.02649C13.1364 6.10376 22.6409 13.831 25.3455 19.6265C26.0409 21.0947 25.7318 22.331 25.4227 23.4901C25.0364 24.881 24.5727 26.581 26.8909 27.6629C28.8227 28.8219 31.5273 28.5129 32.9955 25.9629C35.9318 21.0174 32.2227 17.3083 25.5 10.5856C23.0273 8.19013 20.2455 5.40831 17.1545 1.93104C17 1.77649 16.7682 1.69922 16.6136 1.69922ZM24.4182 11.6674C31.2182 18.4674 33.9227 21.4038 31.6818 25.1901C30.6773 26.8901 29.0545 27.1219 27.5864 26.3492C26.35 25.8083 26.5045 25.2674 26.8909 23.8765C27.2 22.6401 27.6636 20.9401 26.7364 18.931C24.2636 13.7538 16.8455 7.26286 14.6045 5.40831L16.5364 3.55376C19.4727 6.72195 22.1 9.34922 24.4182 11.6674Z" fill="#134A85"/>
<path d="M35.7 49.9949H38.5591C38.9455 49.9949 39.2546 49.6858 39.3319 49.2995C39.4864 45.8995 39.8728 29.2086 34.6955 28.2813C34.3864 28.204 33.9228 28.204 33.3046 28.204C29.6728 28.204 27.3546 29.3631 26.9682 31.4495C26.8137 32.2222 27.2 33.0722 28.2819 33.6131C28.591 33.7676 28.9773 33.9995 28.9773 34.5404C29.1319 37.8631 29.6728 45.9767 30.6 49.6858C30.6773 49.9949 30.9864 50.2267 31.2955 50.2267H33.4591C33.8455 50.2267 34.2319 49.9176 34.2319 49.454C34.2319 49.3767 34.2319 49.2995 34.2319 49.2222C34.0773 48.0631 33.2273 40.0267 32.841 35.854C33.5364 37.6313 34.3091 41.4176 34.9273 49.2995C35.0046 49.6858 35.3137 49.9949 35.7 49.9949ZM32.6864 33.6904C31.9137 33.6904 31.2182 34.3858 31.2955 35.1586C31.6819 38.6358 32.4546 46.2086 32.7637 48.7586H31.991C31.141 44.9722 30.6773 37.6313 30.5228 34.4631C30.4455 32.3767 28.3591 32.3767 28.4364 31.6813C28.7455 29.8267 32.2228 29.6722 33.3046 29.6722C34.1546 29.6722 34.3091 29.7495 34.3864 29.7495C37.1682 30.1358 38.0182 40.7222 37.7864 48.5267H36.3955C35.8546 41.1858 35.0046 36.5495 33.8455 34.3858C33.6137 33.9995 33.2273 33.6904 32.6864 33.6904ZM35.7 25.7313C36.0864 25.8858 36.55 25.654 36.6273 25.2677C37.8637 21.3267 35.3137 18.854 35.2364 18.7767C34.9273 18.4676 34.4637 18.4676 34.1546 18.7767C33.8455 19.0858 33.8455 19.5495 34.1546 19.8586C34.1546 19.8586 36.0864 21.7904 35.1591 24.8813C35.0819 25.1904 35.3137 25.5767 35.7 25.7313Z" fill="#134A85"/>
</svg>
