<svg width="51" height="51" viewBox="0 0 51 51" fill="none" xmlns="http://www.w3.org/2000/svg">
<path d="M29.4923 16.7344C29.4923 14.4848 31.4877 14.3485 31.883 14.3438H34.2513C34.2545 14.3438 34.2577 14.3453 34.2608 14.3453C35.0211 14.3453 35.4044 14.8067 36.0156 15.6211C36.6547 16.473 37.4499 17.5336 39.0437 17.5336C39.4844 17.5336 39.8406 17.1766 39.8406 16.7368C39.8406 16.2969 39.4844 15.9399 39.0437 15.9399C38.2843 15.9399 37.901 15.4793 37.2906 14.6649C37.2117 14.5605 37.1312 14.4521 37.0467 14.3438H37.4475C37.4491 14.3438 37.4499 14.3445 37.4515 14.3445C37.4547 14.3445 37.4579 14.3438 37.4611 14.3438H41.4391C41.8798 14.3438 42.236 13.9867 42.236 13.5469C42.236 13.107 41.8798 12.75 41.4391 12.75H40.2382C40.3219 12.6424 40.4024 12.5348 40.4805 12.4313C41.0917 11.6168 41.4742 11.1562 42.2336 11.1562C42.6743 11.1562 43.0305 10.7992 43.0305 10.3594C43.0305 9.9195 42.6743 9.5625 42.2336 9.5625C40.6398 9.5625 39.8446 10.6231 39.2055 11.475C38.5958 12.2878 38.2126 12.7476 37.4563 12.75H31.883C30.5052 12.75 27.8986 13.5827 27.8986 16.7344C27.8986 18.3943 29.2087 20.5052 30.7243 22.9508C32.3882 25.6331 34.2736 28.6724 34.2736 31.0781C34.2736 32.5986 33.7214 33.6943 32.6424 34.3628C32.346 31.1905 29.2589 28.6859 25.5 28.6859C21.7419 28.6859 18.6548 31.1897 18.3576 34.3612C17.2842 33.6943 16.7344 32.5986 16.7344 31.0781C16.7344 28.6724 18.6198 25.6331 20.2837 22.9508C21.7993 20.5052 23.1094 18.3943 23.1094 16.7344C23.1094 13.5827 20.5028 12.75 19.125 12.75H13.5429C12.7859 12.7476 12.4034 12.2878 11.7938 11.475C11.1547 10.6231 10.3594 9.5625 8.76563 9.5625C8.32575 9.5625 7.96875 9.9195 7.96875 10.3594C7.96875 10.7992 8.32575 11.1562 8.76563 11.1562C9.52584 11.1562 9.90834 11.6168 10.5188 12.4313C10.5968 12.5348 10.6773 12.6424 10.761 12.75H9.5625C9.12263 12.75 8.76563 13.107 8.76563 13.5469C8.76563 13.9867 9.12263 14.3438 9.5625 14.3438H13.5381C13.5413 14.3438 13.5445 14.3445 13.5477 14.3445C13.5493 14.3445 13.5501 14.3438 13.5517 14.3438H13.9525C13.868 14.4521 13.7867 14.5605 13.7086 14.6649C13.0974 15.4793 12.7149 15.9399 11.9555 15.9399C11.5156 15.9399 11.1586 16.2969 11.1586 16.7368C11.1586 17.1766 11.5156 17.5336 11.9555 17.5336C13.5493 17.5336 14.3445 16.473 14.9836 15.6211C15.5948 14.8067 15.9773 14.3453 16.7376 14.3453C16.7408 14.3453 16.7439 14.3438 16.7471 14.3438H19.121C19.521 14.3485 21.5156 14.4848 21.5156 16.7344C21.5156 17.94 20.2008 20.0597 18.929 22.1109C17.1535 24.9733 15.1406 28.2189 15.1406 31.0781C15.1406 34.2943 17.0475 35.637 18.466 36.1925C18.9545 38.807 20.7172 42.3284 23.1094 43.8568V48.6086C23.1094 49.0493 23.4664 49.4055 23.9063 49.4055C24.3461 49.4055 24.7031 49.0493 24.7031 48.6086V44.5373C24.9645 44.5915 25.2299 44.6242 25.5 44.6242C25.7701 44.6242 26.0355 44.5915 26.2969 44.5373V48.6086C26.2969 49.0493 26.6531 49.4055 27.0938 49.4055C27.5344 49.4055 27.8906 49.0493 27.8906 48.6086V43.8568C30.2836 42.3292 32.0455 38.8078 32.534 36.1933C33.9556 35.6362 35.8673 34.2935 35.8673 31.0781C35.8673 28.2189 33.8552 24.9733 32.079 22.1109C30.8072 20.0597 29.4923 17.94 29.4923 16.7344ZM25.5 43.0297C22.5611 43.0297 19.9219 37.4818 19.9219 34.8617C19.9219 32.3348 22.4241 30.2797 25.5 30.2797C28.5751 30.2797 31.0781 32.3348 31.0781 34.8617C31.0781 37.4818 28.4389 43.0297 25.5 43.0297ZM10.7578 25.5C6.14391 25.5 2.39062 20.1378 2.39062 13.5469C2.39062 6.95592 6.14391 1.59375 10.7578 1.59375C14.7541 1.59375 18.1185 5.47852 18.9409 11.0399C19.0055 11.475 18.7043 11.8806 18.2692 11.9444C17.8396 12.0113 17.4285 11.7085 17.3647 11.2726C16.6714 6.58777 13.8935 3.1875 10.7578 3.1875C7.02286 3.1875 3.98438 7.83487 3.98438 13.5469C3.98438 19.2589 7.02286 23.9062 10.7578 23.9062C13.8935 23.9062 16.6714 20.506 17.3647 15.8212C17.4293 15.3853 17.8396 15.088 18.2692 15.1494C18.7043 15.2139 19.0055 15.6187 18.9409 16.0538C18.1185 21.6152 14.7541 25.5 10.7578 25.5ZM48.6078 13.5469C48.6078 20.1378 44.8545 25.5 40.2406 25.5C36.2443 25.5 32.8791 21.6152 32.0567 16.0538C31.9921 15.6187 32.2934 15.2131 32.7285 15.1494C33.1643 15.0817 33.5692 15.3853 33.6337 15.8212C34.3262 20.506 37.1049 23.9062 40.2406 23.9062C43.9756 23.9062 47.014 19.2589 47.014 13.5469C47.014 7.83487 43.9756 3.1875 40.2406 3.1875C37.1041 3.1875 34.3262 6.58777 33.6337 11.2726C33.5692 11.7085 33.1643 12.0081 32.7285 11.9444C32.2934 11.8798 31.9921 11.475 32.0567 11.0399C32.8791 5.47852 36.2443 1.59375 40.2406 1.59375C44.8545 1.59375 48.6078 6.95592 48.6078 13.5469Z" fill="#134A85"/>
</svg>
