<svg width="51" height="51" viewBox="0 0 51 51" fill="none" xmlns="http://www.w3.org/2000/svg">
<g clip-path="url(#clip0_3039_6670)">
<path d="M17.4621 6.19206C13.4324 8.71674 10.2469 12.8577 9.47593 17.616C9.23367 19.1112 9.34944 19.216 9.69358 20.5859C10.0587 22.0393 9.19561 23.2763 8.50379 24.4855L5.53613 29.3602C5.41929 29.5589 5.21039 29.945 5.28112 30.1743C5.57436 31.1252 8.28178 31.0649 8.79345 32.6809C9.03121 33.4318 8.5934 34.0609 8.26633 34.6935C9.10929 35.845 10.7485 36.2865 8.83406 37.633C9.19371 37.9889 9.76169 38.2577 9.99235 38.7214C10.2987 39.337 9.62253 39.9256 9.45791 40.4799C9.20446 41.3332 9.7257 42.1876 10.5723 42.417C11.2173 42.5919 11.9831 42.4581 12.6358 42.3628L14.1719 42.1582C17.8499 41.7882 19.761 44.6019 19.8727 48.0842C19.9183 49.5075 18.6277 49.3226 18.3926 48.6361C18.2998 48.3649 18.3247 48.0017 18.2873 47.7132C18.1114 46.3573 17.5799 44.6087 16.2653 43.9512C14.3693 43.0028 11.7646 44.7035 9.65621 43.7937C7.86002 43.0186 7.5195 40.9419 8.24206 39.2802C7.66693 38.6503 6.88092 38.1282 7.21942 37.1508C7.32173 36.8554 7.51222 36.6955 7.78294 36.5641C6.97435 35.981 6.14904 34.7784 6.85534 33.8194C7.00595 33.6149 7.17706 33.4332 7.27995 33.1982C6.80366 32.6053 5.04599 32.4348 4.15381 31.3475C3.42053 30.4538 3.63549 29.6181 4.13974 28.6935L6.425 24.8998C7.05512 23.8494 7.8111 22.7745 8.14168 21.5821C8.2386 21.2325 8.17618 21.0217 8.06609 20.6869C7.54241 19.0944 7.77961 17.6653 8.19403 16.0502C9.96908 9.13194 16.0315 3.84529 22.8648 2.18931C24.2917 1.84353 25.7389 1.65779 27.2027 1.57245C27.6792 1.53043 28.1867 1.56256 28.6658 1.56203L29.8938 1.57496C39.2177 2.10122 47.5903 9.05467 48.2772 18.6865C48.6429 23.8132 46.6843 28.4744 44.0564 32.7834L41.9817 35.9318C39.8164 39.3924 39.1598 43.28 40.5331 47.2159C40.6528 47.559 40.8231 47.9044 40.9003 48.259C41.0471 48.934 40.22 49.4365 39.7047 49.0643C39.1911 48.6933 38.6388 46.4116 38.508 45.7538L38.29 44.4154C38.2181 44.0674 38.2268 43.6687 38.2251 43.3137C38.2061 39.3022 39.4277 36.9378 41.5169 33.7857L43.5668 30.5206C44.7622 28.4266 45.7623 26.1443 46.3017 23.7913C47.9444 16.6271 44.7356 9.61133 38.5614 5.85458C36.0417 4.32142 33.4667 3.52209 30.56 3.22066L29.7993 3.14163L26.8535 3.14729C23.494 3.35469 20.306 4.39532 17.4621 6.19206Z" fill="#134A85"/>
<path d="M26.5291 30.5691C24.3052 31.5321 21.6922 30.6314 20.1889 28.7959C19.9538 28.5089 19.7456 28.2145 19.6063 27.8692L19.3528 27.8081C16.758 27.15 14.8555 24.9224 14.8643 22.2225C14.8668 21.4736 15.0648 21.6365 14.5917 21.1788C12.4303 19.0874 12.46 16.1899 14.2483 13.8426C15.0651 12.7704 16.4894 11.7442 17.8701 11.5609C17.7746 10.55 19.0403 10.2521 19.5956 9.84196C20.1718 9.41634 20.2774 9.02372 21.1132 8.67872C21.3616 8.57618 21.3497 8.61372 21.4903 8.39234C22.4124 6.94163 24.0209 6.10246 25.729 6.12123C26.8796 6.13388 27.8148 6.62071 28.6683 7.386C29.4167 6.61631 30.3731 6.18276 31.4338 6.06108C32.8628 5.72459 34.9282 6.93268 35.6802 8.13322C36.0326 8.69585 35.8917 8.72684 36.5082 8.98042C37.603 9.43079 39.1906 10.5838 39.6296 11.6648C39.6475 11.709 39.998 11.7307 40.0816 11.7499C42.3533 12.2711 44.1953 14.7795 44.4359 17.0161C44.5629 18.1965 44.3463 19.5923 43.5847 20.5249C43.1778 21.0232 42.8091 21.0213 42.8218 21.6451L42.8364 22.6161C42.8432 24.7629 41.4279 26.683 39.4663 27.5034C39.3202 27.5645 38.0459 27.9952 38.0334 28.0108C37.9944 28.0593 37.9834 28.2572 37.9464 28.3326C37.7664 28.6995 37.4411 29.0083 37.1557 29.2948C35.1643 31.2938 31.926 31.539 29.7442 29.7085C29.3981 29.4181 29.0831 29.0784 28.763 28.7598C28.2534 29.5539 27.3924 30.2048 26.5291 30.5691ZM31.3954 7.67942C30.6654 7.77339 29.9306 8.13628 29.588 8.81568L29.5738 8.84261C29.5284 8.93473 29.5272 9.05068 29.5259 9.15187L29.5518 27.2156C30.207 28.1405 31.4097 29.1351 32.5187 29.3321C33.5606 29.5172 34.8395 29.2582 35.5797 28.4811C36.1015 27.9331 36.311 27.4571 37.145 27.6396C36.3067 26.7686 36.7265 26.838 36.3545 25.8987C35.9485 24.8736 34.863 24.1966 33.7794 24.1757L32.7273 24.1825C32.1517 24.2001 30.9488 24.3378 30.9525 23.4021C30.9553 22.6622 31.8761 22.6467 32.3997 22.6133C35.3669 22.4234 37.3619 23.3559 38.1281 26.2843L38.8308 26.0606C40.5021 25.3687 41.4845 23.7474 41.2453 21.9487C41.0361 20.3757 41.0434 21.0037 42.073 19.9035C43.9866 17.8588 42.3472 14.2215 39.9915 13.3142L39.6314 13.1912C39.6006 14.2418 39.2175 15.124 38.4511 15.8504C36.4589 17.7384 35.2549 15.081 37.1217 14.8772C37.9419 14.7877 38.2754 12.9367 38.1348 12.2461C38.0341 11.7528 37.5577 11.3123 37.1525 11.0507C36.0172 10.3182 34.1974 10.7497 33.4815 11.8901C33.1599 12.4024 32.9871 13.8145 31.8892 13.1258C31.2009 12.694 31.7379 11.6566 32.0655 11.164C32.6897 10.2251 33.5595 9.60104 34.6359 9.3147C33.8831 8.12389 32.7808 7.56415 31.3954 7.67942ZM25.3706 7.72995C24.3416 7.84546 23.2 8.30068 22.7938 9.32515C23.0915 9.46207 23.4032 9.58322 23.6881 9.74461C24.4221 10.1605 26.1852 11.8846 25.7657 12.8199C25.5796 13.2347 25.0234 13.4113 24.6223 13.2078C23.8107 12.7961 24.2695 11.2739 21.99 10.7396C21.2153 10.5581 20.8881 10.6247 20.24 11.0602C19.2715 11.711 18.9482 12.3758 19.3475 13.5443C19.8773 15.0943 21.1472 14.9816 21.3174 15.4476C21.6237 16.2857 20.5879 16.8128 19.7273 16.3417C18.6371 15.7448 17.7647 14.4958 17.6859 13.2398C14.8366 14.3515 13.3379 17.6444 15.6714 20.0657L16.1662 20.547C16.4964 20.8513 16.4924 20.8915 16.4731 21.3393L16.4357 22.4455C16.4432 23.8545 17.518 25.3011 18.7662 25.899L19.7105 26.2827C20.5873 23.3327 22.2198 22.6097 25.0044 22.627C25.3614 22.6292 25.753 22.6101 26.0993 22.7135C26.833 22.9326 26.9127 23.8583 26.1561 24.1393C25.8122 24.267 25.3465 24.1893 24.9801 24.1807C23.6638 24.1499 22.2096 24.3614 21.5545 25.6839C21.296 26.2057 21.2086 26.7673 21.0656 27.3252C21.711 28.2524 22.6596 29.1024 23.804 29.3062C25.7359 29.6504 26.8322 28.6793 27.9722 27.3099L27.9597 10.1679C27.9591 9.95176 27.971 9.72449 27.9391 9.51064C27.7706 8.37768 26.6876 7.69815 25.6022 7.71695L25.3706 7.72995Z" fill="#134A85"/>
<path d="M26.5747 17.5179C25.5083 17.6396 24.2567 16.5534 23.8485 15.6624C23.5369 14.9822 23.2829 14.1215 24.1375 13.7765C24.8656 13.6894 24.9059 14.254 25.1604 14.7963C25.6374 15.813 26.9169 16.0406 27.1085 16.5287C27.2621 16.9204 26.9247 17.3758 26.5747 17.5179ZM31.2358 17.4983C30.7356 17.5303 30.1544 17.1192 30.3843 16.5595C30.6301 15.9613 31.5455 15.8688 31.9681 15.4053C32.4015 14.9302 32.3923 14.0876 33.0281 13.8232C33.7879 13.7722 34.0813 14.347 33.9104 15.0161L33.8975 15.0654C33.5874 16.2981 32.5037 17.3242 31.2358 17.4983ZM24.3665 21.4997C23.6391 21.5637 23.5248 21.2148 23.2082 20.647C22.8513 20.0069 22.3005 19.7911 21.6555 19.5077C20.8705 19.1626 20.7879 18.231 21.6323 17.958C23.5652 17.8872 26.03 21.043 24.3665 21.4997ZM33.6674 21.4973C32.3272 21.7149 32.6857 20.2959 33.2487 19.5217C33.853 18.6906 34.7397 18.1249 35.7562 17.9625C36.4355 17.8624 36.8996 18.395 36.6048 19.0697C36.4316 19.4663 35.8729 19.5202 35.5126 19.6613C34.2267 20.1648 34.4012 21.2194 33.6674 21.4973ZM20.9295 22.0115C17.8741 23.8358 14.875 18.4804 17.138 18.1357C18.2888 18.0895 17.466 19.6938 18.8917 20.5673C19.5647 20.9798 20.0832 20.6368 20.7528 20.4452C21.6906 20.1768 22.0628 21.2946 20.9295 22.0115ZM36.9494 22.0824L36.7048 21.9565C35.6592 21.3383 36.001 20.0572 37.2054 20.4957C37.5616 20.6254 37.8096 20.8143 38.2055 20.7272C38.8576 20.5837 39.3921 19.895 39.5385 19.2655C39.6639 18.7264 39.5047 18.2883 40.1906 18.1599C42.4328 18.0495 40.3513 23.4949 36.9494 22.0824Z" fill="#134A85"/>
</g>
<defs>
<clipPath id="clip0_3039_6670">
<rect width="51" height="51" fill="white"/>
</clipPath>
</defs>
</svg>
