<svg width="51" height="51" viewBox="0 0 51 51" fill="none" xmlns="http://www.w3.org/2000/svg">
<path d="M31.5961 14.8617C31.5058 14.7876 31.4011 14.7331 31.2886 14.7016C31.1761 14.67 31.0583 14.6621 30.9427 14.6784C27.3402 15.292 23.6598 15.292 20.0573 14.6784C19.9417 14.6621 19.8239 14.67 19.7114 14.7016C19.5989 14.7331 19.4942 14.7876 19.4039 14.8617C19.3164 14.9365 19.2462 15.0294 19.1981 15.134C19.1499 15.2385 19.125 15.3522 19.125 15.4673V19.7705C19.1222 19.9603 19.1874 20.1449 19.3086 20.291C19.4299 20.4371 19.5993 20.5351 19.7864 20.5673C21.6744 20.885 23.5855 21.045 25.5 21.0455C27.4145 21.045 29.3256 20.885 31.2136 20.5673C31.4007 20.5351 31.5701 20.4371 31.6914 20.291C31.8126 20.1449 31.8778 19.9603 31.875 19.7705V15.4673C31.875 15.3522 31.8501 15.2385 31.8019 15.134C31.7538 15.0294 31.6836 14.9365 31.5961 14.8617ZM30.9427 30.6159C27.3402 31.2295 23.6598 31.2295 20.0573 30.6159C19.9417 30.5996 19.8239 30.6075 19.7114 30.6391C19.5989 30.6706 19.4942 30.7251 19.4039 30.7992C19.3164 30.874 19.2462 30.9669 19.1981 31.0715C19.1499 31.176 19.125 31.2897 19.125 31.4048V35.708C19.1222 35.8978 19.1874 36.0824 19.3086 36.2285C19.4299 36.3746 19.5993 36.4726 19.7864 36.5048C23.5688 37.1424 27.4312 37.1424 31.2136 36.5048C31.4007 36.4726 31.5701 36.3746 31.6914 36.2285C31.8126 36.0824 31.8778 35.8978 31.875 35.708V31.4048C31.875 31.2897 31.8501 31.176 31.8019 31.0715C31.7538 30.9669 31.6836 30.874 31.5961 30.7992C31.5058 30.7251 31.4011 30.6706 31.2886 30.6391C31.1761 30.6075 31.0583 30.5996 30.9427 30.6159ZM15.1406 7.17188H9.5625C9.06075 6.50287 8.36122 6.0087 7.56301 5.75936C6.7648 5.51002 5.90837 5.51814 5.11503 5.78259C4.32169 6.04704 3.63167 6.55439 3.14271 7.23279C2.65374 7.9112 2.39063 8.72625 2.39062 9.5625C2.39063 10.3988 2.65374 11.2138 3.14271 11.8922C3.63167 12.5706 4.32169 13.078 5.11503 13.3424C5.90837 13.6069 6.7648 13.615 7.56301 13.3656C8.36122 13.1163 9.06075 12.6221 9.5625 11.9531H15.1406C15.352 11.9531 15.5547 11.8692 15.7041 11.7197C15.8535 11.5703 15.9375 11.3676 15.9375 11.1562V7.96875C15.9375 7.75741 15.8535 7.55472 15.7041 7.40527C15.5547 7.25583 15.352 7.17188 15.1406 7.17188ZM15.1406 23.1094H9.5625C9.06075 22.4404 8.36122 21.9462 7.56301 21.6969C6.7648 21.4475 5.90837 21.4556 5.11503 21.7201C4.32169 21.9845 3.63167 22.4919 3.14271 23.1703C2.65374 23.8487 2.39062 24.6637 2.39062 25.5C2.39062 26.3363 2.65374 27.1513 3.14271 27.8297C3.63167 28.5081 4.32169 29.0155 5.11503 29.2799C5.90837 29.5444 6.7648 29.5525 7.56301 29.3031C8.36122 29.0538 9.06075 28.5596 9.5625 27.8906H15.1406C15.352 27.8906 15.5547 27.8067 15.7041 27.6572C15.8535 27.5078 15.9375 27.3051 15.9375 27.0938V23.9062C15.9375 23.6949 15.8535 23.4922 15.7041 23.3428C15.5547 23.1933 15.352 23.1094 15.1406 23.1094ZM15.1406 39.0469H9.5625C9.06075 38.3779 8.36122 37.8837 7.56301 37.6344C6.7648 37.385 5.90837 37.3931 5.11503 37.6576C4.32169 37.922 3.63167 38.4294 3.14271 39.1078C2.65374 39.7862 2.39062 40.6012 2.39062 41.4375C2.39062 42.2738 2.65374 43.0888 3.14271 43.7672C3.63167 44.4456 4.32169 44.953 5.11503 45.2174C5.90837 45.4819 6.7648 45.49 7.56301 45.2406C8.36122 44.9913 9.06075 44.4971 9.5625 43.8281H15.1406C15.352 43.8281 15.5547 43.7442 15.7041 43.5947C15.8535 43.4453 15.9375 43.2426 15.9375 43.0312V39.8438C15.9375 39.6324 15.8535 39.4297 15.7041 39.2803C15.5547 39.1308 15.352 39.0469 15.1406 39.0469ZM44.625 37.4531C44.0064 37.4531 43.3964 37.5971 42.8431 37.8738C42.2899 38.1504 41.8086 38.552 41.4375 39.0469H35.8594C35.648 39.0469 35.4453 39.1308 35.2959 39.2803C35.1465 39.4297 35.0625 39.6324 35.0625 39.8438V43.0312C35.0625 43.2426 35.1465 43.4453 35.2959 43.5947C35.4453 43.7442 35.648 43.8281 35.8594 43.8281H41.4375C41.845 44.3715 42.3846 44.8016 43.0051 45.0777C43.6256 45.3538 44.3064 45.4668 44.9828 45.4058C45.6592 45.3448 46.3088 45.1119 46.8699 44.7292C47.431 44.3466 47.885 43.8268 48.1887 43.2194C48.4925 42.6119 48.6359 41.9369 48.6053 41.2584C48.5748 40.5799 48.3714 39.9205 48.0143 39.3428C47.6573 38.7651 47.1584 38.2882 46.5653 37.9575C45.9721 37.6267 45.3042 37.4531 44.625 37.4531ZM44.625 21.5156C44.0064 21.5156 43.3964 21.6596 42.8431 21.9363C42.2899 22.2129 41.8086 22.6145 41.4375 23.1094H35.8594C35.648 23.1094 35.4453 23.1933 35.2959 23.3428C35.1465 23.4922 35.0625 23.6949 35.0625 23.9062V27.0938C35.0625 27.3051 35.1465 27.5078 35.2959 27.6572C35.4453 27.8067 35.648 27.8906 35.8594 27.8906H41.4375C41.845 28.434 42.3846 28.8641 43.0051 29.1402C43.6256 29.4163 44.3064 29.5293 44.9828 29.4683C45.6592 29.4073 46.3088 29.1744 46.8699 28.7917C47.431 28.4091 47.885 27.8893 48.1887 27.2819C48.4925 26.6744 48.6359 25.9994 48.6053 25.3209C48.5748 24.6424 48.3714 23.983 48.0143 23.4053C47.6573 22.8276 47.1584 22.3507 46.5653 22.02C45.9721 21.6892 45.3042 21.5156 44.625 21.5156ZM35.8594 11.9531H41.4375C41.9393 12.6221 42.6388 13.1163 43.437 13.3656C44.2352 13.615 45.0916 13.6069 45.885 13.3424C46.6783 13.078 47.3683 12.5706 47.8573 11.8922C48.3463 11.2138 48.6094 10.3988 48.6094 9.5625C48.6094 8.72625 48.3463 7.9112 47.8573 7.23279C47.3683 6.55439 46.6783 6.04704 45.885 5.78259C45.0916 5.51814 44.2352 5.51002 43.437 5.75936C42.6388 6.0087 41.9393 6.50287 41.4375 7.17188H35.8594C35.648 7.17188 35.4453 7.25583 35.2959 7.40527C35.1465 7.55472 35.0625 7.75741 35.0625 7.96875V11.1562C35.0625 11.3676 35.1465 11.5703 35.2959 11.7197C35.4453 11.8692 35.648 11.9531 35.8594 11.9531Z" fill="white"/>
<path d="M35.7157 2.89289C35.4332 2.66922 35.1027 2.51398 34.7502 2.43933C34.3977 2.36467 34.0326 2.37263 33.6837 2.46258C28.3159 3.84926 22.6837 3.84926 17.3159 2.46258C16.9666 2.37684 16.6025 2.37101 16.2507 2.44551C15.8989 2.52002 15.5684 2.67294 15.2838 2.89289C14.9883 3.123 14.7498 3.41809 14.5867 3.75529C14.4236 4.09249 14.3404 4.46272 14.3435 4.83726V13.053C14.3302 13.587 14.4931 14.1106 14.8071 14.5427C15.1211 14.9748 15.5687 15.2915 16.0807 15.4437C17.3478 15.7943 18.559 16.0652 19.7862 16.2405C21.6737 16.5639 23.5848 16.7292 25.4998 16.7346C27.4143 16.7341 29.3254 16.5742 31.2134 16.2565C32.4616 16.0557 33.6984 15.7897 34.9188 15.4596C35.4309 15.3074 35.8785 14.9908 36.1925 14.5586C36.5065 14.1265 36.6694 13.603 36.656 13.069V4.83726C36.6592 4.46272 36.576 4.09249 36.4129 3.75529C36.2498 3.41809 36.0113 3.123 35.7157 2.89289ZM35.7157 34.7679C35.4332 34.5442 35.1027 34.389 34.7502 34.3143C34.3977 34.2397 34.0326 34.2476 33.6837 34.3376C32.7912 34.5687 31.8668 34.7679 30.9424 34.9193C27.3399 35.5328 23.6596 35.5328 20.0571 34.9193C19.1328 34.7679 18.2084 34.5687 17.3159 34.3376C16.9666 34.2518 16.6025 34.246 16.2507 34.3205C15.8989 34.395 15.5684 34.5479 15.2838 34.7679C14.9883 34.998 14.7498 35.2931 14.5867 35.6303C14.4236 35.9675 14.3404 36.3377 14.3435 36.7123V44.928C14.3302 45.462 14.4931 45.9856 14.8071 46.4177C15.1211 46.8498 15.5687 47.1665 16.0807 47.3187C22.2377 49.0719 28.7618 49.0719 34.9188 47.3187C35.4309 47.1665 35.8785 46.8498 36.1925 46.4177C36.5065 45.9856 36.6694 45.462 36.656 44.928V36.7123C36.6592 36.3377 36.576 35.9675 36.4129 35.6303C36.2498 35.2931 36.0113 34.998 35.7157 34.7679ZM35.7157 18.8304C35.4312 18.6104 35.1007 18.4575 34.7489 18.383C34.3971 18.3085 34.033 18.3143 33.6837 18.4001C32.7912 18.6312 31.8668 18.8304 30.9424 18.9818C27.3399 19.5953 23.6596 19.5953 20.0571 18.9818C19.1328 18.8304 18.2084 18.6312 17.3159 18.4001C16.9666 18.3143 16.6025 18.3085 16.2507 18.383C15.8989 18.4575 15.5684 18.6104 15.2838 18.8304C14.9883 19.0605 14.7498 19.3556 14.5867 19.6928C14.4236 20.03 14.3404 20.4002 14.3435 20.7748V28.9905C14.3302 29.5245 14.4931 30.0481 14.8071 30.4802C15.1211 30.9123 15.5687 31.229 16.0807 31.3812C17.3478 31.7318 18.559 32.0027 19.7862 32.178C21.6737 32.5014 23.5848 32.6667 25.4998 32.6721C27.4143 32.6716 29.3254 32.5117 31.2134 32.194C32.4616 31.9932 33.6984 31.7272 34.9188 31.3971C35.4309 31.2449 35.8785 30.9283 36.1925 30.4961C36.5065 30.064 36.6694 29.5405 36.656 29.0065V20.7748C36.6592 20.4002 36.576 20.03 36.4129 19.6928C36.2498 19.3556 36.0113 19.0605 35.7157 18.8304Z" fill="white"/>
<path d="M25.4998 16.7346C23.5853 16.7344 21.6741 16.5745 19.7862 16.2565C18.559 16.0413 17.3478 15.7704 16.0807 15.4596C15.5687 15.3074 15.1211 14.9908 14.8071 14.5586C14.4931 14.1265 14.3302 13.603 14.3435 13.069V4.83726C14.3404 4.46272 14.4236 4.09249 14.5867 3.75529C14.7498 3.41809 14.9883 3.123 15.2838 2.89289C15.5684 2.67294 15.8989 2.52002 16.2507 2.44551C16.6025 2.37101 16.9666 2.37684 17.3159 2.46258C22.6837 3.84926 28.3159 3.84926 33.6837 2.46258C34.0326 2.37263 34.3977 2.36467 34.7502 2.43933C35.1027 2.51398 35.4332 2.66922 35.7157 2.89289C36.0113 3.123 36.2498 3.41809 36.4129 3.75529C36.576 4.09249 36.6592 4.46272 36.656 4.83726V13.053C36.6694 13.587 36.5065 14.1106 36.1925 14.5427C35.8785 14.9748 35.4309 15.2915 34.9188 15.4437C33.6984 15.7738 32.4616 16.0398 31.2134 16.2405C29.3259 16.5636 27.4147 16.7288 25.4998 16.7346ZM16.7342 3.98461C16.5628 3.98436 16.3967 4.04349 16.264 4.15195C16.1603 4.23318 16.0768 4.33733 16.0202 4.45624C15.9635 4.57514 15.9351 4.70556 15.9373 4.83726V13.053C15.932 13.2353 15.9846 13.4146 16.0878 13.5649C16.1909 13.7153 16.3391 13.8291 16.511 13.8898C17.6785 14.2164 18.8621 14.4824 20.0571 14.6866C23.6596 15.3002 27.3399 15.3002 30.9424 14.6866C32.1218 14.4874 33.2853 14.2245 34.4885 13.8898C34.6605 13.8291 34.8087 13.7153 34.9118 13.5649C35.0149 13.4146 35.0676 13.2353 35.0623 13.053V4.83726C35.0645 4.70556 35.0361 4.57514 34.9794 4.45624C34.9227 4.33733 34.8393 4.23318 34.7356 4.15195C34.6477 4.07435 34.5426 4.01872 34.429 3.98963C34.3154 3.96054 34.1965 3.95882 34.0821 3.98461C28.4525 5.43494 22.5471 5.43494 16.9174 3.98461H16.7342ZM25.4998 48.6096C22.3147 48.6049 19.1453 48.1625 16.0807 47.2948C15.5687 47.1426 15.1211 46.8259 14.8071 46.3938C14.4931 45.9617 14.3302 45.4381 14.3435 44.9041V36.7123C14.3404 36.3377 14.4236 35.9675 14.5867 35.6303C14.7498 35.2931 14.9883 34.998 15.2838 34.7679C15.5684 34.5479 15.8989 34.395 16.2507 34.3205C16.6025 34.246 16.9666 34.2518 17.3159 34.3376C18.2084 34.5687 19.1328 34.7679 20.0571 34.9193C23.6596 35.5328 27.3399 35.5328 30.9424 34.9193C31.8668 34.7679 32.7912 34.5687 33.6837 34.3376C34.0326 34.2476 34.3977 34.2397 34.7502 34.3143C35.1027 34.389 35.4332 34.5442 35.7157 34.7679C36.0113 34.998 36.2498 35.2931 36.4129 35.6303C36.576 35.9675 36.6592 36.3377 36.656 36.7123V44.928C36.6694 45.462 36.5065 45.9856 36.1925 46.4177C35.8785 46.8498 35.4309 47.1665 34.9188 47.3187C31.8531 48.1783 28.6838 48.6127 25.4998 48.6096ZM16.7342 35.8596C16.5628 35.8594 16.3967 35.9185 16.264 36.027C16.1603 36.1082 16.0768 36.2123 16.0202 36.3312C15.9635 36.4501 15.9351 36.5806 15.9373 36.7123V44.928C15.9403 45.1035 15.9968 45.2739 16.0994 45.4163C16.2019 45.5588 16.3456 45.6664 16.511 45.7249C22.3878 47.3904 28.6118 47.3904 34.4885 45.7249C34.654 45.6664 34.7977 45.5588 34.9002 45.4163C35.0028 45.2739 35.0593 45.1035 35.0623 44.928V36.7123C35.0645 36.5806 35.0361 36.4501 34.9794 36.3312C34.9227 36.2123 34.8393 36.1082 34.7356 36.027C34.6455 35.9535 34.5395 35.9022 34.426 35.8773C34.3124 35.8524 34.1947 35.8545 34.0821 35.8835C33.1418 36.1226 32.1776 36.3298 31.2134 36.4891C27.4313 37.1306 23.5683 37.1306 19.7862 36.4891C18.822 36.3218 17.8578 36.1146 16.9174 35.8755L16.7342 35.8596ZM25.4998 32.6721C23.5853 32.6719 21.6741 32.512 19.7862 32.194C18.559 31.9788 17.3478 31.7079 16.0807 31.3971C15.5687 31.2449 15.1211 30.9283 14.8071 30.4961C14.4931 30.064 14.3302 29.5405 14.3435 29.0065V20.7748C14.3404 20.4002 14.4236 20.03 14.5867 19.6928C14.7498 19.3556 14.9883 19.0605 15.2838 18.8304C15.5684 18.6104 15.8989 18.4575 16.2507 18.383C16.6025 18.3085 16.9666 18.3143 17.3159 18.4001C18.2084 18.6312 19.1328 18.8304 20.0571 18.9818C23.6596 19.5953 27.3399 19.5953 30.9424 18.9818C31.8668 18.8304 32.7912 18.6312 33.6837 18.4001C34.033 18.3143 34.3971 18.3085 34.7489 18.383C35.1007 18.4575 35.4312 18.6104 35.7157 18.8304C36.0113 19.0605 36.2498 19.3556 36.4129 19.6928C36.576 20.03 36.6592 20.4002 36.656 20.7748V28.9905C36.6694 29.5245 36.5065 30.0481 36.1925 30.4802C35.8785 30.9123 35.4309 31.229 34.9188 31.3812C33.6984 31.7113 32.4616 31.9773 31.2134 32.178C29.3259 32.5011 27.4147 32.6663 25.4998 32.6721ZM16.7342 19.9221C16.5628 19.9219 16.3967 19.981 16.264 20.0895C16.1603 20.1707 16.0768 20.2748 16.0202 20.3937C15.9635 20.5126 15.9351 20.6431 15.9373 20.7748V28.9905C15.9403 29.166 15.9968 29.3364 16.0994 29.4788C16.2019 29.6213 16.3456 29.7289 16.511 29.7874C17.6785 30.1141 18.8621 30.38 20.0571 30.5843C23.6596 31.1978 27.3399 31.1978 30.9424 30.5843C32.1218 30.3851 33.2853 30.1221 34.4885 29.7874C34.654 29.7289 34.7977 29.6213 34.9002 29.4788C35.0028 29.3364 35.0593 29.166 35.0623 28.9905V20.7748C35.0645 20.6431 35.0361 20.5126 34.9794 20.3937C34.9227 20.2748 34.8393 20.1707 34.7356 20.0895C34.6455 20.016 34.5395 19.9647 34.426 19.9398C34.3124 19.9149 34.1947 19.917 34.0821 19.946C33.1418 20.1851 32.1776 20.3923 31.2134 20.5516C27.4313 21.1931 23.5683 21.1931 19.7862 20.5516C18.822 20.3843 17.8578 20.1771 16.9174 19.938L16.7342 19.9221Z" fill="#134A85"/>
<path d="M25.5 21.0375C23.5855 21.037 21.6744 20.8771 19.7864 20.5594C19.5993 20.5271 19.4299 20.4291 19.3086 20.283C19.1874 20.1369 19.1222 19.9523 19.125 19.7625V15.4594C19.125 15.3443 19.1499 15.2305 19.1981 15.126C19.2462 15.0214 19.3164 14.9286 19.4039 14.8538C19.4942 14.7797 19.5989 14.7251 19.7114 14.6936C19.8239 14.6621 19.9417 14.6542 20.0573 14.6705C23.6598 15.284 27.3402 15.284 30.9427 14.6705C31.0583 14.6542 31.1761 14.6621 31.2886 14.6936C31.4011 14.7251 31.5058 14.7797 31.5961 14.8538C31.6836 14.9286 31.7538 15.0214 31.8019 15.126C31.8501 15.2305 31.875 15.3443 31.875 15.4594V19.7625C31.8778 19.9523 31.8126 20.1369 31.6914 20.283C31.5701 20.4291 31.4007 20.5271 31.2136 20.5594C29.3256 20.8771 27.4145 21.037 25.5 21.0375ZM20.7188 19.125C23.8889 19.5951 27.1111 19.5951 30.2812 19.125V16.3997C27.1094 16.8459 23.8906 16.8459 20.7188 16.3997V19.125ZM25.5 36.975C23.5855 36.9745 21.6744 36.8146 19.7864 36.4969C19.5993 36.4646 19.4299 36.3666 19.3086 36.2205C19.1874 36.0744 19.1222 35.8898 19.125 35.7V31.3969C19.125 31.2818 19.1499 31.168 19.1981 31.0635C19.2462 30.9589 19.3164 30.8661 19.4039 30.7913C19.4942 30.7172 19.5989 30.6626 19.7114 30.6311C19.8239 30.5996 19.9417 30.5917 20.0573 30.608C23.6598 31.2215 27.3402 31.2215 30.9427 30.608C31.0583 30.5917 31.1761 30.5996 31.2886 30.6311C31.4011 30.6626 31.5058 30.7172 31.5961 30.7913C31.6836 30.8661 31.7538 30.9589 31.8019 31.0635C31.8501 31.168 31.875 31.2818 31.875 31.3969V35.7C31.8778 35.8898 31.8126 36.0744 31.6914 36.2205C31.5701 36.3666 31.4007 36.4646 31.2136 36.4969C29.3256 36.8146 27.4145 36.9745 25.5 36.975ZM20.7188 35.0625C23.8889 35.5326 27.1111 35.5326 30.2812 35.0625V32.3372C27.1094 32.7834 23.8906 32.7834 20.7188 32.3372V35.0625ZM6.375 13.5469C5.69584 13.5469 5.02795 13.3733 4.43475 13.0425C3.84156 12.7118 3.34275 12.2349 2.98569 11.6572C2.62863 11.0795 2.42518 10.4201 2.39465 9.74159C2.36413 9.06311 2.50754 8.3881 2.81127 7.78063C3.115 7.17317 3.56897 6.65343 4.13006 6.27077C4.69116 5.8881 5.34076 5.65522 6.01718 5.59423C6.6936 5.53323 7.37438 5.64616 7.99488 5.92228C8.61538 6.1984 9.155 6.62855 9.5625 7.17188H15.1406C15.352 7.17188 15.5547 7.25583 15.7041 7.40528C15.8535 7.55472 15.9375 7.75741 15.9375 7.96875V11.1563C15.9375 11.3676 15.8535 11.5703 15.7041 11.7197C15.5547 11.8692 15.352 11.9531 15.1406 11.9531H9.5625C9.19137 12.448 8.71012 12.8496 8.15687 13.1262C7.60361 13.4029 6.99356 13.5469 6.375 13.5469ZM6.375 7.17188C5.74097 7.17188 5.1329 7.42374 4.68457 7.87207C4.23624 8.3204 3.98438 8.92847 3.98438 9.5625C3.98438 10.1965 4.23624 10.8046 4.68457 11.2529C5.1329 11.7013 5.74097 11.9531 6.375 11.9531C6.79355 11.952 7.20447 11.841 7.56666 11.6312C7.92886 11.4215 8.22963 11.1203 8.43891 10.7578C8.50911 10.6362 8.61021 10.5353 8.73195 10.4653C8.8537 10.3954 8.99177 10.3588 9.13219 10.3594H14.3438V8.76563H9.13219C8.99177 8.76618 8.8537 8.72963 8.73195 8.65966C8.61021 8.58969 8.50911 8.4888 8.43891 8.36719C8.22963 8.00471 7.92886 7.70353 7.56666 7.49377C7.20447 7.284 6.79355 7.173 6.375 7.17188ZM6.375 29.4844C5.69584 29.4844 5.02795 29.3108 4.43475 28.98C3.84156 28.6493 3.34275 28.1724 2.98569 27.5947C2.62863 27.017 2.42518 26.3576 2.39465 25.6791C2.36413 25.0006 2.50754 24.3256 2.81127 23.7181C3.115 23.1107 3.56897 22.5909 4.13006 22.2083C4.69116 21.8256 5.34076 21.5927 6.01718 21.5317C6.6936 21.4707 7.37438 21.5837 7.99488 21.8598C8.61538 22.1359 9.155 22.566 9.5625 23.1094H15.1406C15.352 23.1094 15.5547 23.1933 15.7041 23.3428C15.8535 23.4922 15.9375 23.6949 15.9375 23.9063V27.0938C15.9375 27.3051 15.8535 27.5078 15.7041 27.6572C15.5547 27.8067 15.352 27.8906 15.1406 27.8906H9.5625C9.19137 28.3855 8.71012 28.7871 8.15687 29.0637C7.60361 29.3404 6.99356 29.4844 6.375 29.4844ZM6.375 23.1094C5.74097 23.1094 5.1329 23.3612 4.68457 23.8096C4.23624 24.2579 3.98438 24.866 3.98438 25.5C3.98438 26.134 4.23624 26.7421 4.68457 27.1904C5.1329 27.6388 5.74097 27.8906 6.375 27.8906C6.79355 27.8895 7.20447 27.7785 7.56666 27.5687C7.92886 27.359 8.22963 27.0578 8.43891 26.6953C8.50911 26.5737 8.61021 26.4728 8.73195 26.4028C8.8537 26.3329 8.99177 26.2963 9.13219 26.2969H14.3438V24.7031H9.13219C8.99177 24.7037 8.8537 24.6671 8.73195 24.5972C8.61021 24.5272 8.50911 24.4263 8.43891 24.3047C8.22963 23.9422 7.92886 23.641 7.56666 23.4313C7.20447 23.2215 6.79355 23.1105 6.375 23.1094ZM6.375 45.4219C5.69584 45.4219 5.02795 45.2483 4.43475 44.9175C3.84156 44.5868 3.34275 44.1099 2.98569 43.5322C2.62863 42.9545 2.42518 42.2951 2.39465 41.6166C2.36413 40.9381 2.50754 40.2631 2.81127 39.6556C3.115 39.0482 3.56897 38.5284 4.13006 38.1458C4.69116 37.7631 5.34076 37.5302 6.01718 37.4692C6.6936 37.4082 7.37438 37.5212 7.99488 37.7973C8.61538 38.0734 9.155 38.5035 9.5625 39.0469H15.1406C15.352 39.0469 15.5547 39.1308 15.7041 39.2803C15.8535 39.4297 15.9375 39.6324 15.9375 39.8438V43.0312C15.9375 43.2426 15.8535 43.4453 15.7041 43.5947C15.5547 43.7442 15.352 43.8281 15.1406 43.8281H9.5625C9.19137 44.323 8.71012 44.7246 8.15687 45.0012C7.60361 45.2779 6.99356 45.4219 6.375 45.4219ZM6.375 39.0469C5.74097 39.0469 5.1329 39.2987 4.68457 39.7471C4.23624 40.1954 3.98438 40.8035 3.98438 41.4375C3.98438 42.0715 4.23624 42.6796 4.68457 43.1279C5.1329 43.5763 5.74097 43.8281 6.375 43.8281C6.79355 43.827 7.20447 43.716 7.56666 43.5062C7.92886 43.2965 8.22963 42.9953 8.43891 42.6328C8.50911 42.5112 8.61021 42.4103 8.73195 42.3403C8.8537 42.2704 8.99177 42.2338 9.13219 42.2344H14.3438V40.6406H9.13219C8.99177 40.6412 8.8537 40.6046 8.73195 40.5347C8.61021 40.4647 8.50911 40.3638 8.43891 40.2422C8.22963 39.8797 7.92886 39.5785 7.56666 39.3688C7.20447 39.159 6.79355 39.048 6.375 39.0469ZM44.625 45.4219C44.0064 45.4219 43.3964 45.2779 42.8431 45.0012C42.2899 44.7246 41.8086 44.323 41.4375 43.8281H35.8594C35.648 43.8281 35.4453 43.7442 35.2959 43.5947C35.1465 43.4453 35.0625 43.2426 35.0625 43.0312V39.8438C35.0625 39.6324 35.1465 39.4297 35.2959 39.2803C35.4453 39.1308 35.648 39.0469 35.8594 39.0469H41.4375C41.845 38.5035 42.3846 38.0734 43.0051 37.7973C43.6256 37.5212 44.3064 37.4082 44.9828 37.4692C45.6592 37.5302 46.3088 37.7631 46.8699 38.1458C47.431 38.5284 47.885 39.0482 48.1887 39.6556C48.4925 40.2631 48.6359 40.9381 48.6053 41.6166C48.5748 42.2951 48.3714 42.9545 48.0143 43.5322C47.6573 44.1099 47.1584 44.5868 46.5653 44.9175C45.9721 45.2483 45.3042 45.4219 44.625 45.4219ZM36.6562 42.2344H41.8678C42.0082 42.2338 42.1463 42.2704 42.268 42.3403C42.3898 42.4103 42.4909 42.5112 42.5611 42.6328C42.7704 42.9953 43.0711 43.2965 43.4333 43.5062C43.7955 43.716 44.2065 43.827 44.625 43.8281C45.259 43.8281 45.8671 43.5763 46.3154 43.1279C46.7638 42.6796 47.0156 42.0715 47.0156 41.4375C47.0156 40.8035 46.7638 40.1954 46.3154 39.7471C45.8671 39.2987 45.259 39.0469 44.625 39.0469C44.2065 39.048 43.7955 39.159 43.4333 39.3688C43.0711 39.5785 42.7704 39.8797 42.5611 40.2422C42.4909 40.3638 42.3898 40.4647 42.268 40.5347C42.1463 40.6046 42.0082 40.6412 41.8678 40.6406H36.6562V42.2344ZM44.625 29.4844C44.0064 29.4844 43.3964 29.3404 42.8431 29.0637C42.2899 28.7871 41.8086 28.3855 41.4375 27.8906H35.8594C35.648 27.8906 35.4453 27.8067 35.2959 27.6572C35.1465 27.5078 35.0625 27.3051 35.0625 27.0938V23.9063C35.0625 23.6949 35.1465 23.4922 35.2959 23.3428C35.4453 23.1933 35.648 23.1094 35.8594 23.1094H41.4375C41.845 22.566 42.3846 22.1359 43.0051 21.8598C43.6256 21.5837 44.3064 21.4707 44.9828 21.5317C45.6592 21.5927 46.3088 21.8256 46.8699 22.2083C47.431 22.5909 47.885 23.1107 48.1887 23.7181C48.4925 24.3256 48.6359 25.0006 48.6053 25.6791C48.5748 26.3576 48.3714 27.017 48.0143 27.5947C47.6573 28.1724 47.1584 28.6493 46.5653 28.98C45.9721 29.3108 45.3042 29.4844 44.625 29.4844ZM36.6562 26.2969H41.8678C42.0082 26.2963 42.1463 26.3329 42.268 26.4028C42.3898 26.4728 42.4909 26.5737 42.5611 26.6953C42.7704 27.0578 43.0711 27.359 43.4333 27.5687C43.7955 27.7785 44.2065 27.8895 44.625 27.8906C45.259 27.8906 45.8671 27.6388 46.3154 27.1904C46.7638 26.7421 47.0156 26.134 47.0156 25.5C47.0156 24.866 46.7638 24.2579 46.3154 23.8096C45.8671 23.3612 45.259 23.1094 44.625 23.1094C44.2065 23.1105 43.7955 23.2215 43.4333 23.4313C43.0711 23.641 42.7704 23.9422 42.5611 24.3047C42.4909 24.4263 42.3898 24.5272 42.268 24.5972C42.1463 24.6671 42.0082 24.7037 41.8678 24.7031H36.6562V26.2969ZM44.625 13.5469C44.0064 13.5469 43.3964 13.4029 42.8431 13.1262C42.2899 12.8496 41.8086 12.448 41.4375 11.9531H35.8594C35.648 11.9531 35.4453 11.8692 35.2959 11.7197C35.1465 11.5703 35.0625 11.3676 35.0625 11.1563V7.96875C35.0625 7.75741 35.1465 7.55472 35.2959 7.40528C35.4453 7.25583 35.648 7.17188 35.8594 7.17188H41.4375C41.845 6.62855 42.3846 6.1984 43.0051 5.92228C43.6256 5.64616 44.3064 5.53323 44.9828 5.59423C45.6592 5.65522 46.3088 5.8881 46.8699 6.27077C47.431 6.65343 47.885 7.17317 48.1887 7.78063C48.4925 8.3881 48.6359 9.06311 48.6053 9.74159C48.5748 10.4201 48.3714 11.0795 48.0143 11.6572C47.6573 12.2349 47.1584 12.7118 46.5653 13.0425C45.9721 13.3733 45.3042 13.5469 44.625 13.5469ZM36.6562 10.3594H41.8678C42.0082 10.3588 42.1463 10.3954 42.268 10.4653C42.3898 10.5353 42.4909 10.6362 42.5611 10.7578C42.7704 11.1203 43.0711 11.4215 43.4333 11.6312C43.7955 11.841 44.2065 11.952 44.625 11.9531C45.259 11.9531 45.8671 11.7013 46.3154 11.2529C46.7638 10.8046 47.0156 10.1965 47.0156 9.5625C47.0156 8.92847 46.7638 8.3204 46.3154 7.87207C45.8671 7.42374 45.259 7.17188 44.625 7.17188C44.2065 7.173 43.7955 7.284 43.4333 7.49377C43.0711 7.70353 42.7704 8.00471 42.5611 8.36719C42.4909 8.4888 42.3898 8.58969 42.268 8.65966C42.1463 8.72963 42.0082 8.76618 41.8678 8.76563H36.6562V10.3594Z" fill="#134A85"/>
</svg>
