<svg width="51" height="51" viewBox="0 0 51 51" fill="none" xmlns="http://www.w3.org/2000/svg">
<g clip-path="url(#clip0_3059_12358)">
<path d="M17.7662 43.826C17.439 43.5741 16.9699 43.6356 16.7185 43.9625C16.4669 44.2896 16.528 44.7587 16.855 45.0103C17.7458 45.6956 18.6708 46.8571 18.7772 50.2765C18.7897 50.681 19.1216 51.0004 19.5235 51.0004C19.5312 51.0004 19.5392 51.0003 19.5471 51C19.9595 50.9871 20.2834 50.6424 20.2706 50.23C20.145 46.1879 18.9341 44.7245 17.7662 43.826Z" fill="#134A85"/>
<path d="M13.7017 43.7333C13.3997 43.8211 13.0398 43.9194 12.6604 43.9826C10.8551 44.2833 8.7543 43.9755 8.27256 42.209C8.10063 41.5602 8.33203 41.0327 8.70349 40.4624C9.30028 39.418 9.04437 38.3364 8.46492 37.9333C8.23053 37.7814 8.09655 37.7206 7.696 37.5395C7.57616 37.4769 7.37494 37.3432 7.37435 37.1498C7.37395 37.0107 7.47954 36.8683 7.64978 36.7782C7.89074 36.6507 8.04126 36.4011 8.04554 36.1285C8.04973 35.8559 7.9033 35.6017 7.66641 35.4667C7.57676 35.4155 7.3078 35.2349 7.14334 35.0157C6.9745 34.7904 6.98765 34.7491 7.13727 34.6186C8.11398 33.7668 7.9533 32.3194 7.70457 31.5985C7.61342 31.3345 7.38261 31.1434 7.10609 31.1029L5.37171 30.85C5.0378 30.8014 4.71386 30.6755 4.43494 30.4861C4.1607 30.3001 3.99704 29.9911 3.99704 29.6598C3.99704 29.4162 4.0852 29.1823 4.24518 29.0014C5.44761 27.642 6.36526 26.0185 7.0503 24.0383C7.15918 23.7239 7.2569 23.3997 7.34088 23.0745C7.54319 22.2908 7.42316 21.4481 7.01155 20.7624C6.79001 20.3937 6.55183 19.8254 6.67446 19.2121C6.77288 18.72 6.93495 18.3824 7.12272 17.9915C7.40274 17.4085 7.71991 16.748 7.79402 15.5923C8.00669 12.2784 8.62589 10.7886 9.69405 9.19866C11.3421 6.74576 14.4938 3.55125 20.1498 2.26214C25.393 1.06718 35.2713 0.211492 42.5214 7.90766C44.7858 10.3115 46.2622 13.3632 46.7906 16.7327C46.8546 17.1403 47.2366 17.4187 47.6444 17.3549C48.0521 17.291 48.3307 16.9088 48.2667 16.5011C47.6915 12.833 46.0808 9.50706 43.6089 6.88313C40.4836 3.56549 36.5743 1.41712 31.9893 0.497484C28.2239 -0.257789 24.0151 -0.151401 19.818 0.805191C13.6846 2.20307 10.2529 5.68796 8.45406 8.36519C7.26846 10.1299 6.53639 11.8625 6.3032 15.4963C6.24751 16.3625 6.02906 16.8175 5.77604 17.3444C5.57393 17.7653 5.34481 18.2424 5.20944 18.919C4.99308 20.0006 5.3735 20.9368 5.73062 21.5315C5.93752 21.8761 5.99718 22.3023 5.89428 22.7009C5.82037 22.9873 5.7343 23.2728 5.63847 23.5496C5.01848 25.3416 4.19666 26.8011 3.12601 28.0114C2.72427 28.4658 2.50293 29.0512 2.50293 29.6598C2.50293 30.4868 2.91145 31.2578 3.59569 31.7223C4.06049 32.0379 4.6001 32.2475 5.15614 32.3287L6.38179 32.5074C6.42383 32.848 6.4063 33.2735 6.15527 33.4926C5.38984 34.1601 5.31244 35.0647 5.94807 35.9123C6.018 36.0056 6.09311 36.0922 6.16962 36.1716C5.98244 36.4662 5.87924 36.8045 5.88034 37.1546C5.88243 37.859 6.3029 38.4982 7.00498 38.8645C7.1292 38.9296 7.53383 39.1122 7.53383 39.1122C7.55724 39.211 7.56839 39.4376 7.40632 39.7212C7.04183 40.3423 6.47762 41.1942 6.83125 42.6024C7.34526 44.4875 9.10623 45.5796 11.4775 45.5795C11.9327 45.5794 12.4106 45.5393 12.9062 45.4567C13.3648 45.3803 13.7953 45.2625 14.1191 45.1683C14.5154 45.0532 14.7432 44.6386 14.6279 44.2423C14.5127 43.8461 14.098 43.6183 13.7017 43.7333Z" fill="#134A85"/>
<path d="M41.0843 39.4571C40.9591 37.6697 41.5413 35.919 42.7235 34.5277C46.319 30.2966 48.3693 25.1647 48.4969 20.0773C48.5073 19.6648 48.1813 19.3221 47.7688 19.3117C47.3583 19.3036 47.0135 19.6273 47.003 20.0398C46.8841 24.7869 44.9598 29.5884 41.5848 33.5602C40.1481 35.251 39.441 37.3822 39.5937 39.5617C39.8904 43.7984 41.1559 47.8585 42.1651 50.5184C42.2783 50.8168 42.5622 51.0006 42.8637 51.0006C42.9518 51.0006 43.0414 50.985 43.1287 50.9518C43.5144 50.8055 43.7084 50.3741 43.5621 49.9883C42.5885 47.4222 41.3684 43.5123 41.0843 39.4571Z" fill="#134A85"/>
<path d="M35.9119 30.503C35.9119 30.2782 35.89 30.058 35.8495 29.8442C36.5768 28.9993 37.1205 28.012 37.4421 26.9494C39.9419 26.2288 41.7111 23.9123 41.7111 21.2723C41.7111 20.1052 41.379 18.9969 40.7457 18.0358C41.3789 16.9748 41.7111 15.7714 41.7111 14.5239C41.7111 10.7339 38.6277 7.65059 34.8378 7.65059C34.482 7.65059 34.1267 7.67808 33.7758 7.73277C32.7175 5.61508 30.5197 4.23145 28.1215 4.23145C26.2295 4.23145 24.4463 5.08045 23.2512 6.52705C22.6587 6.37783 22.051 6.30242 21.4383 6.30242C20.4654 6.30242 19.5191 6.4878 18.6256 6.85348C18.2437 7.00977 18.0609 7.44598 18.217 7.8279C18.3733 8.20972 18.8094 8.39271 19.1915 8.23642C19.9045 7.94455 20.6604 7.79662 21.4383 7.79662C22.072 7.79662 22.6991 7.89763 23.3019 8.09686C23.6171 8.20096 23.9627 8.08491 24.1511 7.81206C25.0532 6.50573 26.5375 5.72575 28.1214 5.72575C30.1168 5.72575 31.9306 6.98049 32.6346 8.84805C32.7685 9.20347 33.1476 9.4022 33.5165 9.30886C33.9475 9.20008 34.392 9.1449 34.8378 9.1449C37.8038 9.1449 40.2169 11.558 40.2169 14.524C40.2169 15.6423 39.8757 16.7153 39.2302 17.6271C39.0379 17.8986 39.0484 18.2643 39.2558 18.5244C39.8846 19.3133 40.2169 20.2635 40.2169 21.2724C40.2169 23.3629 38.7326 25.1818 36.6876 25.5973C36.4031 25.6551 36.1777 25.8728 36.1099 26.1552C35.9242 26.9287 35.5954 27.661 35.1448 28.3151C34.672 27.727 34.0073 27.2929 33.2258 27.1092C32.8242 27.0149 32.4219 27.2638 32.3274 27.6654C32.233 28.067 32.482 28.4693 32.8837 28.5637C33.7868 28.776 34.4174 29.5736 34.4174 30.5032C34.4174 31.6017 33.5237 32.4955 32.4252 32.4955C31.3266 32.4955 30.4329 31.6017 30.4329 30.5032C30.4329 30.1616 30.5206 29.8249 30.6864 29.5296C30.8884 29.1699 30.7606 28.7143 30.4008 28.5124C30.0411 28.3104 29.5855 28.4383 29.3837 28.798C29.0925 29.3163 28.9387 29.906 28.9387 30.5032C28.9387 30.6985 28.9556 30.8899 28.9867 31.0767C27.9114 30.9431 26.8929 30.5445 26.0045 29.903C25.734 29.7077 25.3667 29.7154 25.1046 29.9219C24.6171 30.3061 24.0315 30.5092 23.411 30.5092C22.2874 30.5092 21.2602 29.8045 20.8552 28.7557C20.7457 28.4721 20.4754 28.2832 20.1714 28.2778C17.7811 28.236 15.8364 26.2571 15.8364 23.8664C15.8364 23.6467 15.8529 23.4243 15.8856 23.2058C15.9357 22.871 15.7544 22.5442 15.4435 22.4097C13.8263 21.7096 12.7812 20.1192 12.7812 18.3579C12.7812 16.7295 13.6737 15.2387 15.1104 14.467C15.3554 14.3354 15.5071 14.0785 15.504 13.8003C15.4748 12.56 15.9293 11.1219 16.76 10.0782C17.0143 9.75314 16.957 9.28356 16.6321 9.02945C16.3071 8.77493 15.8376 8.83241 15.5833 9.15735C14.6258 10.3812 14.0876 11.8337 14.0161 13.3778C12.322 14.4591 11.2871 16.3287 11.2871 18.3579C11.2871 20.5289 12.4732 22.506 14.3514 23.5368C14.3453 23.6468 14.3422 23.7569 14.3422 23.8664C14.3422 25.4261 14.9445 26.8972 16.0384 28.0086C17.0179 29.0038 18.292 29.6102 19.6668 29.7444C20.3925 31.113 21.8407 32.0034 23.411 32.0034C24.1828 32.0034 24.9198 31.8002 25.5709 31.4114C26.7979 32.1799 28.1978 32.5939 29.6569 32.6191C30.2946 33.4515 31.298 33.9897 32.4253 33.9897C34.3478 33.9895 35.9119 32.4255 35.9119 30.503Z" fill="#134A85"/>
<path d="M35.3155 34.3643C34.0797 34.3643 33.0742 35.3698 33.0742 36.6056C33.0742 37.8414 34.0797 38.8469 35.3155 38.8469C36.5513 38.8469 37.5568 37.8414 37.5568 36.6056C37.5568 35.3698 36.5513 34.3643 35.3155 34.3643ZM35.3155 37.3527C34.9035 37.3527 34.5684 37.0176 34.5684 36.6056C34.5684 36.1936 34.9035 35.8585 35.3155 35.8585C35.7275 35.8585 36.0626 36.1936 36.0626 36.6056C36.0626 37.0176 35.7274 37.3527 35.3155 37.3527Z" fill="#134A85"/>
<path d="M29.5962 13.5404C29.5285 12.2379 28.4534 11.1969 27.1483 11.1705C25.881 11.1424 24.7937 12.0711 24.6188 13.3242C24.6028 13.4387 24.5947 13.5559 24.5947 13.6724C24.5947 14.0851 24.9291 14.4196 25.3418 14.4196C25.7545 14.4196 26.0889 14.0851 26.0889 13.6724C26.0889 13.6247 26.0922 13.5772 26.0987 13.5308C26.1691 13.0266 26.6121 12.6537 27.1182 12.6644C27.6437 12.675 28.0768 13.0939 28.104 13.6178C28.1186 13.8979 28.0206 14.1636 27.8283 14.3664C27.6357 14.5691 27.3761 14.6807 27.0971 14.6807C26.6844 14.6807 26.35 15.0151 26.35 15.4278V17.2633C26.35 17.676 26.6844 18.0104 27.0971 18.0104C27.5098 18.0104 27.8442 17.676 27.8442 17.2633V16.0599C28.2473 15.9333 28.617 15.7057 28.9119 15.3952C29.3891 14.8924 29.6321 14.2338 29.5962 13.5404Z" fill="#134A85"/>
<path d="M27.1182 19.5557C26.7055 19.5557 26.3711 19.8901 26.3711 20.3027V20.3528C26.3711 20.7655 26.7055 21.0999 27.1182 21.0999C27.5308 21.0999 27.8652 20.7655 27.8652 20.3528V20.3027C27.8652 19.8902 27.5307 19.5557 27.1182 19.5557Z" fill="#134A85"/>
<path d="M22.8228 17.4251C22.7551 16.1226 21.6799 15.0817 20.3749 15.0553C20.3579 15.0549 20.3409 15.0547 20.324 15.0547C19.0787 15.0547 18.0179 15.9726 17.8454 17.2089C17.8294 17.3234 17.8213 17.4406 17.8213 17.5572C17.8213 17.9699 18.1557 18.3043 18.5684 18.3043C18.9811 18.3043 19.3155 17.9699 19.3155 17.5572C19.3155 17.5095 19.3188 17.462 19.3253 17.4155C19.3947 16.9182 19.8222 16.5489 20.3242 16.5489C20.3311 16.5489 20.3379 16.549 20.3448 16.5491C20.8703 16.5598 21.3034 16.9786 21.3306 17.5025C21.3451 17.7826 21.2472 18.0484 21.0549 18.2511C20.8623 18.4538 20.6027 18.5655 20.3237 18.5655C19.911 18.5655 19.5766 18.8999 19.5766 19.3126V21.1481C19.5766 21.5608 19.911 21.8952 20.3237 21.8952C20.7364 21.8952 21.0708 21.5608 21.0708 21.1481V19.9446C21.4738 19.818 21.8436 19.5904 22.1385 19.2799C22.6157 18.7772 22.8587 18.1185 22.8228 17.4251Z" fill="#134A85"/>
<path d="M20.3447 23.4414C19.932 23.4414 19.5977 23.7758 19.5977 24.1885V24.2386C19.5977 24.6513 19.932 24.9857 20.3447 24.9857C20.7574 24.9857 21.0918 24.6513 21.0918 24.2386V24.1885C21.0918 23.7759 20.7573 23.4414 20.3447 23.4414Z" fill="#134A85"/>
<path d="M36.3697 17.4251C36.3019 16.1226 35.2268 15.0817 33.9218 15.0553C33.9047 15.0549 33.8878 15.0547 33.8709 15.0547C32.6256 15.0547 31.5648 15.9726 31.3923 17.2089C31.3762 17.3234 31.3682 17.4406 31.3682 17.5572C31.3682 17.9699 31.7026 18.3043 32.1153 18.3043C32.528 18.3043 32.8624 17.9699 32.8624 17.5572C32.8624 17.5095 32.8657 17.462 32.8721 17.4155C32.9416 16.9182 33.3691 16.5489 33.8711 16.5489C33.8779 16.5489 33.8848 16.549 33.8917 16.5491C34.4171 16.5598 34.8503 16.9786 34.8775 17.5025C34.892 17.7826 34.7941 18.0484 34.6017 18.2511C34.4092 18.4538 34.1496 18.5655 33.8706 18.5655C33.4579 18.5655 33.1235 18.8999 33.1235 19.3126V21.1481C33.1235 21.5608 33.4579 21.8952 33.8706 21.8952C34.2833 21.8952 34.6177 21.5608 34.6177 21.1481V19.9446C35.0207 19.818 35.3905 19.5904 35.6853 19.2799C36.1626 18.7772 36.4055 18.1185 36.3697 17.4251Z" fill="#134A85"/>
<path d="M33.8926 23.4414C33.4799 23.4414 33.1455 23.7758 33.1455 24.1885V24.2386C33.1455 24.6513 33.4799 24.9857 33.8926 24.9857C34.3053 24.9857 34.6396 24.6513 34.6396 24.2386V24.1885C34.6396 23.7759 34.3052 23.4414 33.8926 23.4414Z" fill="#134A85"/>
</g>
<defs>
<clipPath id="clip0_3059_12358">
<rect width="51" height="51" fill="white"/>
</clipPath>
</defs>
</svg>
