<svg width="51" height="51" viewBox="0 0 51 51" fill="none" xmlns="http://www.w3.org/2000/svg">
<path d="M19.1647 17.6729C19.2561 17.6685 19.3458 17.6462 19.4287 17.6071C19.5115 17.568 19.5858 17.513 19.6473 17.4453C19.7089 17.3775 19.7565 17.2982 19.7875 17.2121C19.8184 17.1259 19.8321 17.0344 19.8277 16.943L19.7225 14.7388C19.7136 14.5539 19.6316 14.3801 19.4946 14.2556C19.3576 14.1311 19.1767 14.0661 18.9917 14.075C18.8068 14.0839 18.633 14.1659 18.5085 14.3029C18.384 14.44 18.3191 14.6208 18.328 14.8058L18.4335 17.0099C18.4422 17.1887 18.5193 17.3574 18.6489 17.4809C18.7785 17.6045 18.9506 17.6735 19.1296 17.6737L19.1647 17.6729Z" fill="#134A85"/>
<path d="M35.9859 45.1123C35.0694 44.472 34.0296 44.0293 32.9327 43.8126C31.0499 43.4256 29.2643 42.6637 27.6821 41.5722C27.9699 41.3185 28.1734 40.9831 28.2655 40.6108C28.3576 40.2384 28.3339 39.8468 28.1976 39.4882C28.0613 39.1297 27.8188 38.8212 27.5026 38.6041C27.1864 38.387 26.8114 38.2715 26.4278 38.2731H25.3321V34.374C25.7315 34.2656 26.0843 34.029 26.3362 33.7006C26.5882 33.3722 26.7253 32.9702 26.7266 32.5563V29.9832C27.4605 29.5142 28.0708 28.8756 28.5061 28.1213C28.9415 27.367 29.1891 26.5191 29.228 25.649L30.1895 5.56778C30.6139 5.42415 30.9734 5.13418 31.2037 4.74977C31.4339 4.36535 31.5199 3.91155 31.4462 3.46956C31.3725 3.02757 31.1439 2.62621 30.8014 2.33729C30.4589 2.04838 30.0248 1.89074 29.5767 1.89259H16.1067C15.659 1.89131 15.2255 2.04919 14.8834 2.33805C14.5414 2.6269 14.3132 3.02793 14.2396 3.4695C14.1659 3.91108 14.2517 4.36445 14.4814 4.74867C14.7112 5.13288 15.07 5.42292 15.4939 5.56698L16.4557 25.6482C16.4945 26.5184 16.7421 27.3665 17.1774 28.121C17.6127 28.8755 18.2231 29.5142 18.9571 29.9832V32.5563C18.9585 32.9702 19.0957 33.3722 19.3476 33.7005C19.5995 34.0289 19.9523 34.2655 20.3516 34.374V38.2731H19.2559C18.845 38.2722 18.445 38.4053 18.1167 38.6523C17.7883 38.8993 17.5494 39.2467 17.4364 39.6417C17.3233 40.0368 17.3422 40.4579 17.4901 40.8413C17.6381 41.2246 17.9071 41.5492 18.2563 41.7658C18.14 42.3469 17.9681 42.9154 17.7431 43.4636C17.399 44.2409 17.1923 45.072 17.1323 45.9199C17.1323 46.9559 17.1323 49.1074 20.1365 49.1074H34.0181C34.5805 49.1098 35.1308 48.944 35.5982 48.6312C36.0657 48.3185 36.429 47.8731 36.6414 47.3523C36.7366 47.1251 36.7861 46.8814 36.7872 46.6351C36.7865 46.3355 36.7132 46.0405 36.5737 45.7753C36.4341 45.5101 36.2325 45.2826 35.9859 45.1123ZM24.8341 33.0544H20.8497C20.7177 33.0542 20.5911 33.0016 20.4978 32.9083C20.4044 32.8149 20.3519 32.6884 20.3516 32.5563V30.6207C20.8629 30.7783 21.3945 30.8599 21.9295 30.863H23.7543C24.2892 30.8599 24.8208 30.7784 25.3321 30.6211V32.5563C25.332 32.6884 25.2795 32.815 25.1861 32.9084C25.0927 33.0018 24.9661 33.0543 24.8341 33.0544ZM16.1067 3.28713H29.5767C29.7088 3.28713 29.8354 3.3396 29.9288 3.433C30.0222 3.5264 30.0747 3.65308 30.0747 3.78517C30.0747 3.91726 30.0222 4.04394 29.9288 4.13734C29.8354 4.23075 29.7088 4.28322 29.5767 4.28322H16.1067C15.9746 4.28322 15.8479 4.23075 15.7545 4.13734C15.6611 4.04394 15.6086 3.91726 15.6086 3.78517C15.6086 3.65308 15.6611 3.5264 15.7545 3.433C15.8479 3.3396 15.9746 3.28713 16.1067 3.28713ZM17.8495 25.5825L16.8956 5.67775H28.7882L27.8351 25.5817C27.7828 26.6292 27.3302 27.6165 26.5708 28.3399C25.8113 29.0632 24.8031 29.4672 23.7543 29.4685H21.9295C20.881 29.4668 19.8732 29.0628 19.114 28.3397C18.3548 27.6166 17.9021 26.6296 17.8495 25.5825ZM21.7462 34.4489H23.9376V38.2739H21.7462V34.4489ZM19.2559 39.6685H21.0393H21.0489H21.0585H24.6253H24.6348H24.6444H26.4278C26.5599 39.6685 26.6866 39.7209 26.78 39.8143C26.8734 39.9077 26.9259 40.0344 26.9259 40.1665C26.9259 40.2986 26.8734 40.4253 26.78 40.5187C26.6866 40.6121 26.5599 40.6645 26.4278 40.6645H19.2559C19.1239 40.6645 18.9972 40.6121 18.9038 40.5187C18.8104 40.4253 18.7579 40.2986 18.7579 40.1665C18.7579 40.0344 18.8104 39.9077 18.9038 39.8143C18.9972 39.7209 19.1239 39.6685 19.2559 39.6685ZM35.3528 46.8208C35.2448 47.0857 35.06 47.3123 34.8223 47.4714C34.5845 47.6306 34.3046 47.7149 34.0184 47.7137H20.1365C18.6655 47.7137 18.5268 47.222 18.5268 45.9207C18.5939 45.2399 18.7707 44.5744 19.0503 43.9501C19.2987 43.3388 19.4895 42.7057 19.6205 42.0591H26.2565C27.2665 43.4935 31.0063 44.8669 32.6713 45.1832C33.5767 45.363 34.4347 45.7294 35.1907 46.259C35.2525 46.3011 35.3032 46.3575 35.3383 46.4235C35.3734 46.4896 35.3919 46.5631 35.3923 46.6379C35.3907 46.7006 35.3772 46.7624 35.3524 46.82L35.3528 46.8208Z" fill="#134A85"/>
</svg>
