<svg width="51" height="51" viewBox="0 0 51 51" fill="none" xmlns="http://www.w3.org/2000/svg">
<g clip-path="url(#clip0_3059_12810)">
<path d="M26.5859 19.5721C26.9466 19.677 27.3368 19.5327 27.5407 19.2113C30.8765 13.9565 34.7969 14.5009 36.7038 10.9256C37.6552 9.14154 37.7898 6.94014 37.1037 4.38271C36.982 3.92923 36.5156 3.65999 36.0625 3.78208C35.6091 3.90373 35.3401 4.36985 35.4618 4.82333C36.0325 6.95056 35.9457 8.7346 35.2037 10.1256C33.879 12.6095 30.8793 12.6564 27.6731 16.2281V0.85C27.6731 0.380587 27.2926 0 26.8231 0C26.3537 0 25.9731 0.380587 25.9731 0.85V18.7558C25.973 19.1339 26.2228 19.4666 26.5859 19.5721Z" fill="#134A85"/>
<path d="M46.8317 13.2944C46.4473 12.859 46.0224 12.4749 45.5658 12.1448C46.0716 11.2026 46.381 10.1614 46.4675 9.08914C46.5052 8.62121 46.1565 8.21119 45.6886 8.17358C45.2205 8.13438 44.8108 8.48458 44.773 8.95239C44.7063 9.77934 44.47 10.5826 44.0841 11.311C43.3701 11.0105 42.611 10.8225 41.8296 10.7565C42.2915 8.96004 42.1379 6.90623 41.3719 4.43369C41.2329 3.98521 40.7568 3.73424 40.3084 3.87333C39.86 4.0123 39.6091 4.48841 39.748 4.93678C41.835 11.6729 38.6061 13.346 34.2602 16.9489C30.6169 19.9661 26.6254 24.0662 26.0447 33.3446C26.0141 33.8332 26.4015 34.2478 26.8938 34.2478C27.3389 34.2478 27.7131 33.9013 27.7414 33.4509C28.2686 25.0294 31.7004 21.3077 35.1341 18.4331C37.0511 18.3454 37.4756 19.5121 38.0043 22.2604C38.3096 23.8477 38.6495 25.614 39.8007 26.7773C38.9009 28.1771 38.6663 29.8856 39.1691 31.5879C39.2783 31.9578 39.6168 32.1973 39.9839 32.1973C40.55 32.1973 40.9607 31.6523 40.7995 31.1064C40.4418 29.8948 40.6014 28.6858 41.2286 27.7005C42.3065 28.117 43.4773 28.0854 44.6028 27.8462C45.062 27.7487 45.3552 27.2973 45.2576 26.8382C45.1601 26.379 44.7086 26.0861 44.2495 26.1834C43.07 26.4339 42.1176 26.3414 41.4191 25.9084C39.9608 25.0044 39.8856 22.5515 39.3541 20.4299C40.4558 20.3364 41.5736 20.5445 42.5764 21.0416C42.9971 21.2503 43.5071 21.0783 43.7155 20.6577C43.924 20.2372 43.7522 19.7271 43.3315 19.5186C41.9159 18.8166 40.3196 18.564 38.7695 18.7855C38.3462 17.9585 37.7419 17.3443 36.8879 17.008C38.6228 15.6104 40.2315 14.2524 41.1858 12.4295C42.7838 12.4218 44.3577 13.061 45.5576 14.4196C45.7256 14.6099 45.9597 14.707 46.1951 14.707C46.921 14.707 47.3163 13.8432 46.8317 13.2944Z" fill="#134A85"/>
<path d="M4.99538 38.6845C7.78732 38.7802 10.7962 38.3121 12.7165 36.2801C15.9201 32.89 14.2914 28.6561 21.6383 25.3673C21.9441 25.2305 22.1409 24.9267 22.1409 24.5915V16.7221C22.1409 16.2527 21.7604 15.8721 21.2909 15.8721C20.8215 15.8721 20.4409 16.2527 20.4409 16.7221V24.0481C18.3803 25.0323 16.9833 26.1028 15.9789 27.1993C15.1386 26.4936 14.1766 26.1097 13.1116 26.179C12.9868 24.7441 12.3166 23.3918 11.1857 22.3543C10.8399 22.0369 10.3023 22.0599 9.98478 22.4059C9.66741 22.7519 9.69057 23.2895 10.0365 23.6069C10.929 24.4257 11.4234 25.5083 11.4343 26.635C10.1342 27.2217 9.12872 28.0752 7.83056 27.859C7.16618 27.7484 6.52209 27.3749 5.91625 26.7491C5.58975 26.4116 5.0517 26.4028 4.71435 26.7294C4.37701 27.0558 4.36819 27.594 4.6947 27.9313C5.50103 28.7644 6.39162 29.2899 7.34468 29.4962C7.14429 29.9803 6.81194 30.3644 6.34901 30.6419C5.94632 30.8832 5.81563 31.4054 6.05703 31.808C6.29886 32.2114 6.8215 32.3409 7.22313 32.1C8.20552 31.5111 8.85322 30.6207 9.125 29.5029C11.4976 29.0095 12.9069 26.772 14.9339 28.5402C13.3228 30.9886 13.1377 33.3591 11.4808 35.1125C10.2091 36.4581 8.04678 37.0884 5.0535 36.9855C4.58505 36.9692 4.19097 37.3367 4.17482 37.8059C4.15888 38.275 4.52618 38.6683 4.99538 38.6845Z" fill="#134A85"/>
<path d="M21.1349 30.5959C16.9462 31.379 17.2102 37.5028 13.4439 40.2815C11.5096 41.7086 8.73603 42.0525 4.96458 41.3328C4.50335 41.2445 4.05827 41.5473 3.97029 42.0085C3.88232 42.4696 4.18481 42.9147 4.64594 43.0026C7.20199 43.4903 10.0324 43.6485 12.4652 42.7237C12.4421 44.8325 11.1542 46.6702 9.07603 47.3976C8.63297 47.5527 8.39954 48.0375 8.55456 48.4806C8.70979 48.9243 9.19482 49.1569 9.63767 49.0021C10.5985 48.6658 11.4378 48.1524 12.1292 47.4886C13.5344 48.7372 15.2478 48.3982 16.2301 48.5368C16.2631 48.5441 16.296 48.5497 16.3294 48.553C16.8446 48.6524 17.0351 48.9337 17.1356 49.8175C17.1882 50.2797 17.6042 50.6188 18.0763 50.5662C18.5427 50.513 18.8778 50.092 18.8248 49.6255C18.6808 48.3588 18.2129 47.6649 17.6308 47.2811C18.018 46.4331 18.1994 45.5032 18.1578 44.5434C18.1374 44.0745 17.7418 43.7087 17.2716 43.7311C16.8026 43.7514 16.4389 44.1482 16.4592 44.6172C16.493 45.3954 16.3237 46.1448 15.9676 46.8112C14.9311 46.7469 13.9464 46.8822 13.1946 46.1578C13.9869 44.8479 14.2822 43.3389 14.1211 41.8759C18.5251 38.9497 18.4522 32.8268 21.4474 32.2666C21.9088 32.1803 22.213 31.7364 22.1267 31.2749C22.0403 30.8139 21.5964 30.5087 21.1349 30.5959Z" fill="#134A85"/>
<path d="M21.2909 36.1387C20.8215 36.1387 20.4409 36.5193 20.4409 36.9887V50.1496C20.4409 50.6191 20.8215 50.9997 21.2909 50.9997C21.7603 50.9997 22.1409 50.6191 22.1409 50.1496V36.9887C22.1409 36.5193 21.7603 36.1387 21.2909 36.1387Z" fill="#134A85"/>
<path d="M35.6824 30.665C34.7013 28.9658 32.248 28.9633 31.2656 30.665L24.4458 42.4774C23.5841 43.97 24.4228 45.7899 25.9729 46.2117V50.1496C25.9729 50.619 26.3535 50.9996 26.8229 50.9996C27.2923 50.9996 27.6729 50.619 27.6729 50.1496V46.3024H27.9471C28.4166 46.3024 28.7971 45.9218 28.7971 45.4524C28.7971 44.9829 28.4166 44.6024 27.9471 44.6024H26.6543C25.9989 44.6024 25.591 43.8939 25.9182 43.3274L32.7381 31.515C33.0657 30.9475 33.8832 30.9485 34.2103 31.515L41.0301 43.3274C41.3578 43.8948 40.9481 44.6024 40.294 44.6024H32.3341C31.8647 44.6024 31.4841 44.9829 31.4841 45.4524C31.4841 45.9218 31.8647 46.3024 32.3341 46.3024H40.2938C42.256 46.3024 43.4846 44.1791 42.5022 42.4774L35.6824 30.665Z" fill="#134A85"/>
<path d="M33.474 39.455C33.9434 39.455 34.324 39.0744 34.324 38.605V35.2221C34.324 34.7527 33.9434 34.3721 33.474 34.3721C33.0046 34.3721 32.624 34.7527 32.624 35.2221V38.605C32.624 39.0744 33.0046 39.455 33.474 39.455Z" fill="#134A85"/>
<path d="M32.624 42.2555C32.624 42.7249 33.0046 43.1055 33.474 43.1055C33.9434 43.1055 34.324 42.7249 34.324 42.2555V41.8305C34.324 41.3611 33.9434 40.9805 33.474 40.9805C33.0046 40.9805 32.624 41.3611 32.624 41.8305V42.2555Z" fill="#134A85"/>
<path d="M11.2134 13.8125C15.2651 14.936 17.7546 10.2117 20.6923 13.1253C21.2068 13.6335 22.0689 13.3086 22.1368 12.6042C22.1431 12.539 22.1409 13.2135 22.1409 0.85C22.1409 0.380588 21.7603 0 21.2909 0C20.8215 0 20.4409 0.380588 20.4409 0.85V10.8781C19.7497 10.5489 19.0336 10.418 18.2783 10.4724C18.1522 9.93395 17.9448 9.42916 17.6364 8.94604C18.5086 7.96854 18.8936 6.62809 18.6523 5.27627C18.5699 4.81398 18.1283 4.5067 17.6662 4.58873C17.204 4.67118 16.8963 5.11286 16.9788 5.57483C17.1156 6.34164 16.9272 7.09952 16.4805 7.67826C15.7335 7.08943 15.0072 6.82624 14.785 6.75495C14.338 6.61173 13.8595 6.85759 13.7159 7.30458C13.5724 7.75158 13.8186 8.23023 14.2656 8.37367C14.5379 8.46111 15.9251 8.97058 16.4885 10.422C16.5434 10.5632 16.5859 10.7086 16.6207 10.8561C14.8669 11.501 13.3716 12.6467 11.6678 12.1743C10.9407 11.9728 10.2659 11.5097 9.66219 10.7983C9.35842 10.4402 8.82196 10.3964 8.46411 10.7001C8.10616 11.0038 8.06227 11.5402 8.36594 11.8981C9.19394 12.8741 10.152 13.5182 11.2134 13.8125Z" fill="#134A85"/>
</g>
<defs>
<clipPath id="clip0_3059_12810">
<rect width="51" height="51" fill="white"/>
</clipPath>
</defs>
</svg>
