<svg width="51" height="51" viewBox="0 0 51 51" fill="none" xmlns="http://www.w3.org/2000/svg">
<path d="M38.4123 30.5118C36.2289 30.5118 34.2035 31.2011 32.5418 32.3731L29.2073 31.2832C28.662 31.1058 28.2812 30.6106 28.2812 30.0789V26.8089C30.4902 25.33 31.905 22.9728 32.1889 20.3645C34.3509 20.4249 36.2237 18.6096 36.2021 16.4095C36.2021 15.6567 35.8864 14.9768 35.3812 14.4935V10.9062C35.3812 9.59129 35.1497 8.30633 34.6932 7.08721C34.5486 6.70082 34.118 6.50509 33.7317 6.64952C33.3453 6.79426 33.1493 7.22477 33.294 7.61115C33.6876 8.66223 33.8871 9.77088 33.8871 10.9063V13.7787C33.7763 13.7645 33.6637 13.7564 33.5491 13.7564H32.2426C32.2426 11.943 31.6627 10.4217 30.5654 9.39844C29.4935 8.39886 27.996 7.91187 26.3488 8.02672C24.0033 8.19088 22.3165 7.64811 20.8794 6.26822C20.5048 5.90843 19.954 5.80762 19.4759 6.01123C18.9971 6.21523 18.6877 6.68329 18.6877 7.20375C18.6877 8.43432 17.973 9.57804 16.8669 10.1174C16.8168 10.1421 15.804 10.6353 15.7113 10.6812C14.6238 11.2444 13.9484 12.355 13.9484 13.5796V13.7563H12.6417C12.562 13.7563 12.4832 13.7604 12.4053 13.7673V9.09334C12.4053 7.50138 13.0256 6.00445 14.1517 4.87817C15.275 3.75487 16.7672 3.13501 18.3544 3.13172C19.1496 3.15762 19.9141 2.95212 20.5638 2.53725C21.0172 2.24788 21.5225 2.0143 22.0649 1.84337C22.8035 1.61168 23.6147 1.49414 24.476 1.49414C27.2479 1.49414 29.8659 2.70818 31.6584 4.82478C31.9252 5.13964 32.3966 5.17869 32.7113 4.91204C33.0262 4.64538 33.0653 4.17403 32.7987 3.85917C30.7216 1.40658 27.6881 0 24.476 0C23.4627 0 22.501 0.140549 21.6167 0.418061C20.9484 0.628734 20.3238 0.918 19.7598 1.27789C19.3628 1.53139 18.8903 1.65591 18.3938 1.63808C18.3849 1.63778 18.3758 1.63758 18.3669 1.63758C16.3759 1.63758 14.5037 2.41324 13.0951 3.82171C11.6867 5.23019 10.9111 7.10235 10.9111 9.09334V14.401C10.3468 14.8879 9.98861 15.6073 9.98861 16.4092C9.96161 18.5511 11.7905 20.4267 14.0022 20.3643C14.2879 22.9888 15.7179 25.3597 17.9506 26.8369L17.9634 26.8453V30.079C17.9634 30.6311 17.5928 31.123 17.0621 31.2754C17.0539 31.2773 14.322 32.1341 14.2826 32.1462C13.8889 32.2697 13.6698 32.6888 13.7931 33.0825C13.8932 33.4018 14.1879 33.6063 14.5058 33.6063C14.5798 33.6063 14.655 33.5953 14.7294 33.5719L16.8356 32.9119C17.7146 34.7047 19.0022 35.8831 20.6736 36.4179L22.3253 38.644V42.0329L21.6645 42.326C21.4377 42.4272 21.1966 42.4784 20.9477 42.4784H19.8849C19.4722 42.4784 19.1378 42.8129 19.1378 43.2255C19.1378 43.6381 19.4722 43.9726 19.8849 43.9726H20.9477C21.4075 43.9726 21.8534 43.8777 22.2716 43.6912L25.2308 42.3784C25.6431 42.1957 26.1245 42.2483 26.487 42.5149L26.968 42.8695C27.0963 42.9641 27.2515 43.0151 27.4109 43.0152L29.4995 43.0162C30.1925 43.0168 30.7558 43.5813 30.7552 44.275L30.7532 48.243C30.7525 48.9157 30.1423 49.5058 29.4473 49.5058H26.6582C25.184 49.5058 23.7109 49.0138 22.5109 48.121C21.9641 47.7132 21.2792 47.4887 20.5821 47.4887H15.1534V43.9725H16.3985C16.8112 43.9725 17.1455 43.638 17.1455 43.2254C17.1455 42.8128 16.8112 42.4783 16.3985 42.4783H15.1534V42.2841C15.1534 41.3229 14.3713 40.5409 13.4102 40.5409H11.1192C10.7065 40.5409 10.3721 40.8754 10.3721 41.288C10.3721 41.7006 10.7065 42.0351 11.1192 42.0351H13.4102C13.5476 42.0351 13.6592 42.1468 13.6592 42.2841V49.2567C13.6592 49.394 13.5476 49.5058 13.4102 49.5058H8.10898C6.64193 49.5058 5.30119 48.7639 4.52205 47.5211C3.7428 46.278 3.65943 44.7473 4.29593 43.4325L6.89155 38.1913C7.69869 36.5639 9.15508 35.3188 10.8875 34.7751L11.2431 34.6636C11.6367 34.54 11.8558 34.1208 11.7323 33.7271C11.6088 33.3336 11.1899 33.1143 10.7958 33.238L10.4402 33.3496C8.32135 34.0145 6.53993 35.5373 5.5529 37.5279L2.95419 42.7754C2.08899 44.5621 2.20184 46.633 3.25611 48.3147C4.31038 49.9961 6.12456 51 8.10928 51H13.4105C14.3716 51 15.1537 50.218 15.1537 49.2568V48.9829H20.5824C20.9598 48.9829 21.3274 49.1021 21.6186 49.3193C23.0753 50.4031 24.8652 51 26.6584 51H29.4475C30.7661 51 31.9073 50.0456 32.1835 48.8144C33.9586 50.1885 36.1223 50.9318 38.4123 50.9318C40.7294 50.9318 42.9136 50.1751 44.7292 48.7436C45.0532 48.4881 45.1088 48.0184 44.8533 47.6945C44.5978 47.3703 44.1279 47.315 43.8041 47.5704C42.2547 48.792 40.3904 49.4377 38.4123 49.4377C36.0757 49.4377 33.8943 48.5294 32.2482 46.8802L32.2495 44.2762C32.2508 42.838 31.1427 41.6539 29.7353 41.5331C29.7105 41.2638 29.6966 40.9925 29.6966 40.7218C29.6966 35.9159 33.6065 32.006 38.4124 32.006C43.2184 32.006 47.1283 35.9159 47.1283 40.7218C47.1283 42.2408 46.7319 43.736 45.982 45.0457C45.777 45.4038 45.9011 45.8603 46.2591 46.0653C46.3761 46.1323 46.5037 46.1642 46.6296 46.1642C46.8888 46.1642 47.1406 46.0292 47.2787 45.7881C48.1577 44.2528 48.6224 42.5009 48.6224 40.7218C48.6223 35.092 44.0422 30.5118 38.4123 30.5118ZM33.5492 15.2505C34.1882 15.2505 34.7081 15.7704 34.7081 16.4092C34.7374 17.7152 33.6012 18.8899 32.2429 18.8702L32.2428 15.2505H33.5492ZM11.4829 16.4409V16.4092C11.4829 15.7703 12.0028 15.2505 12.6418 15.2505H13.9485V18.8702C12.654 18.9022 11.4837 17.7865 11.4829 16.4409ZM15.4426 19.3899V13.5797C15.4426 12.9184 15.8058 12.3184 16.3912 12.0119L17.5219 11.4605C19.0073 10.736 20.0096 9.26546 20.1618 7.63615C21.8421 9.09981 23.8535 9.69867 26.4529 9.51728C27.6835 9.43141 28.7811 9.77736 29.5465 10.4912C30.333 11.2246 30.7486 12.3462 30.7486 13.7346L30.7488 19.3894C30.7489 21.8918 29.5029 24.2101 27.4158 25.5906L25.3352 26.9668C23.9744 27.8671 22.2159 27.867 20.8551 26.9667L18.7752 25.5907C16.6883 24.2102 15.4426 21.892 15.4426 19.3899ZM21.3087 35.0486C19.9676 34.675 18.9564 33.7919 18.2292 32.36C18.9781 31.8612 19.4577 31.0096 19.4577 30.079V27.8338L20.0306 28.2129C20.9616 28.8287 22.0284 29.1367 23.0953 29.1366C24.162 29.1366 25.2288 28.8287 26.1596 28.2131L26.7871 27.798V30.0788C26.7871 31.0044 27.2652 31.847 28.0283 32.3553C27.3233 33.8041 26.3172 34.6928 24.9634 35.0611C24.8008 35.1007 24.6522 35.1946 24.5459 35.3341L23.1193 37.2062L21.7253 35.3275C21.6209 35.187 21.4729 35.0902 21.3087 35.0486ZM28.2024 40.7218C28.2024 40.9884 28.2136 41.2556 28.2343 41.5216L27.6572 41.5213L27.3729 41.3117C26.5789 40.7279 25.5262 40.6132 24.6252 41.0126L23.8195 41.37V38.7521L25.5846 36.4359C27.2717 35.9088 28.5559 34.7276 29.4125 32.9222L31.1964 33.5053C29.3476 35.3542 28.2024 37.9067 28.2024 40.7218Z" fill="#134A85"/>
<path d="M43.1149 39.9433L41.9388 38.017C41.7905 37.7741 41.5159 37.6365 41.2337 37.6623C40.9503 37.6879 40.7062 37.8723 40.604 38.1379L38.423 43.8034L36.1433 35.7066C36.0537 35.3884 35.7654 35.1669 35.4348 35.1622C35.1042 35.1578 34.8098 35.3707 34.7111 35.6863L33.3809 39.9433H32.436C32.0234 39.9433 31.689 40.2778 31.689 40.6904C31.689 41.103 32.0234 41.4375 32.436 41.4375H33.9302C34.2569 41.4375 34.5458 41.2251 34.6432 40.9132L35.387 38.5332L37.5938 46.3713C37.6811 46.681 37.9569 46.9001 38.2782 46.9151C38.2899 46.9157 38.3015 46.9159 38.3132 46.9159C38.6209 46.9159 38.8988 46.7266 39.0102 46.4372L41.4537 40.0896L42.0581 41.0796C42.1938 41.3018 42.4353 41.4374 42.6957 41.4374H44.3891C44.8017 41.4374 45.1361 41.1029 45.1361 40.6903C45.1361 40.2777 44.8017 39.9432 44.3891 39.9432H43.1149V39.9433Z" fill="#134A85"/>
<path d="M27.8348 15.6416C27.2249 15.9238 26.4366 15.9238 25.8267 15.6416C25.4525 15.4682 25.0083 15.6313 24.8349 16.0057C24.6616 16.3802 24.8246 16.8242 25.199 16.9975C25.7024 17.2304 26.2666 17.347 26.8307 17.347C27.395 17.347 27.9592 17.2305 28.4624 16.9975C28.8369 16.8242 28.9999 16.3802 28.8266 16.0057C28.6532 15.6313 28.209 15.4683 27.8348 15.6416Z" fill="#134A85"/>
<path d="M21.4341 18.9023C21.2468 19.2699 21.393 19.7198 21.7607 19.907C22.1784 20.1199 22.6369 20.2264 23.0952 20.2264C23.5535 20.2264 24.012 20.1199 24.4298 19.907C24.7974 19.7197 24.9436 19.2698 24.7562 18.9022C24.5689 18.5346 24.1191 18.3885 23.7514 18.5757C23.3405 18.7852 22.8498 18.7852 22.4387 18.5757C22.0715 18.3884 21.6214 18.5346 21.4341 18.9023Z" fill="#134A85"/>
<path d="M24.7855 13.8958C25.4353 14.1053 26.133 14.2101 26.8307 14.2101C27.5283 14.2101 28.226 14.1053 28.8758 13.8958C29.2685 13.7692 29.4842 13.3481 29.3576 12.9555C29.231 12.5628 28.8098 12.3472 28.4173 12.4737C27.409 12.799 26.2524 12.799 25.2441 12.4737C24.8517 12.3471 24.4304 12.5628 24.3039 12.9555C24.1772 13.3481 24.3928 13.7691 24.7855 13.8958Z" fill="#134A85"/>
<path d="M21.0454 16.9976C21.4199 16.8243 21.5829 16.3803 21.4096 16.0058C21.2363 15.6315 20.7923 15.4681 20.4178 15.6416C19.8077 15.9239 19.0196 15.9239 18.4097 15.6416C18.0356 15.4683 17.5913 15.6314 17.4179 16.0058C17.2447 16.3802 17.4076 16.8243 17.782 16.9976C18.2854 17.2306 18.8495 17.347 19.4137 17.347C19.9778 17.3469 20.5422 17.2305 21.0454 16.9976Z" fill="#134A85"/>
<path d="M19.4136 14.2101C20.1113 14.2101 20.809 14.1053 21.4588 13.8958C21.8515 13.7692 22.0671 13.3481 21.9405 12.9555C21.8139 12.5628 21.3927 12.3472 21.0003 12.4737C19.992 12.799 18.8354 12.799 17.827 12.4737C17.4348 12.3471 17.0133 12.5628 16.8868 12.9555C16.7602 13.3481 16.9759 13.7691 17.3685 13.8958C18.0183 14.1053 18.716 14.2101 19.4136 14.2101Z" fill="#134A85"/>
<path d="M23.1221 21.3164C21.4805 21.3164 20.334 22.6476 20.334 24.5537C20.334 24.9663 20.6684 25.3008 21.0811 25.3008H25.163C25.5757 25.3008 25.9101 24.9663 25.9101 24.5537C25.9101 22.7081 24.7115 21.3164 23.1221 21.3164ZM21.9318 23.8066C22.094 23.2619 22.46 22.8105 23.1221 22.8105C23.7208 22.8105 24.1183 23.2461 24.3008 23.8066H21.9318Z" fill="#134A85"/>
</svg>
