<svg width="51" height="51" viewBox="0 0 51 51" fill="none" xmlns="http://www.w3.org/2000/svg">
<path d="M46.975 29.2334C46.6212 28.1656 43.4464 18.7473 41.1363 16.9073C39.5911 15.6786 34.7932 13.0106 30.333 12.1986C30.5275 11.1053 31.0797 7.31376 31.0797 6.34157C31.0797 3.6577 29.9633 1.89899 28.0875 1.61292C23.3747 -0.117099 20.9769 1.07104 18.9489 3.06721C17.1073 4.8817 17.0906 3.57721 16.2857 4.12148C15.1486 4.89843 16.7918 8.5792 18.2715 9.90121C18.203 10.6327 18.2166 12.036 19.0023 13.5493C15.8562 14.6004 13.1588 16.0164 11.8774 17.3241C9.51787 19.7402 5.1008 26.371 4.91433 26.6523C4.5143 27.254 5.03227 27.6986 5.5343 28.2469C4.47047 29.9705 3.98438 32.4297 3.98438 34.2657C3.98438 38.2867 12.2185 42.1914 14.7111 45.41C15.0809 45.8881 15.4761 46.3877 15.9375 46.8109V49.4063C15.9375 49.8462 16.2937 50.2032 16.7344 50.2032C17.175 50.2032 17.5312 49.8462 17.5312 49.4063V47.7066C17.7807 47.7679 18.0405 47.8125 18.3281 47.8125C19.5187 47.8125 21.5156 47.2954 21.5156 43.8282C21.5156 41.8471 15.1366 35.9272 11.412 33.8991L11.6463 33.3995C12.4854 33.7533 12.8114 32.7237 15.0546 31.2128C15.5622 33.017 15.9375 34.7701 15.9375 35.8594C15.9375 36.2993 16.2937 36.6563 16.7344 36.6563C17.175 36.6563 17.5312 36.2993 17.5312 35.8594C17.5312 34.3318 16.9583 31.9205 16.2618 29.6573C16.2562 29.635 16.2491 29.6143 16.2411 29.592C15.547 27.3456 14.7366 25.2538 14.2513 24.3318C14.0465 23.9429 13.5636 23.7931 13.1747 23.9979C12.7859 24.2027 12.6353 24.6848 12.8408 25.0745C13.2871 25.9232 13.9581 27.6691 14.5613 29.5665L11.9021 31.6918C9.43978 30.055 7.40456 27.9369 6.58059 27.0277C7.67311 25.4108 11.1252 20.3745 13.0154 18.4389C15.1884 16.2228 22.3069 13.5469 27.8906 13.5469C32.4264 13.5469 38.4946 16.8436 40.1442 18.1544C41.5379 19.2645 43.9461 25.2825 45.2776 29.1856C44.637 29.5705 43.0504 30.3211 39.678 31.0025C39.8254 28.8047 39.9202 26.3782 39.8438 23.8816C39.8286 23.4417 39.4549 23.0919 39.0222 23.1094C38.5823 23.123 38.2373 23.4911 38.25 23.9302C38.3831 28.215 37.999 32.3484 37.7177 35.3669C37.2404 40.5028 37.5647 37.5113 37.4531 49.4063C37.4531 49.8462 37.8093 50.2032 38.25 50.2032C38.6907 50.2032 39.0469 49.8462 39.0469 49.4063V43.1158C45.1063 38.2875 45.4219 37.7106 45.4219 32.6719C45.4219 31.6177 43.8281 31.6169 43.8281 32.6719C43.8281 36.842 43.8162 37.2468 39.0469 41.0766V39.0469C39.0469 37.8691 39.313 35.6658 39.5577 32.6488C41.3291 32.3085 47.54 30.9315 46.975 29.2334ZM10.2996 32.5181C10.2143 32.9644 8.89392 34.4936 10.0398 34.9956C13.707 36.6037 19.7266 42.687 19.9219 43.8282C19.9219 46.2188 18.8453 46.2188 18.3281 46.2188C16.8292 46.2188 16.1415 44.2999 14.6386 42.8974C13.2162 41.569 5.57812 36.8635 5.57812 34.2657C5.57812 32.8321 5.93273 30.8694 6.68738 29.4406C7.61494 30.357 8.86125 31.4838 10.2996 32.5181ZM17.6149 5.66742C20.5658 5.41162 20.6016 0.473385 27.603 3.13335C27.8707 3.23854 29.4852 3.15726 29.4852 6.34157C29.4852 8.58318 29.0827 8.87245 29.066 8.88281C27.222 10.0184 24.1039 9.78089 22.9205 9.63824C22.6058 8.8597 21.9212 7.96879 20.7188 7.96879C20.1546 7.96879 19.5697 8.27001 19.1521 8.54573C18.5058 7.86599 17.8532 6.62924 17.6149 5.66742ZM20.5713 13.0664C19.7832 11.73 19.8047 10.5005 19.8645 9.99524C21.7611 8.6039 21.0463 10.9483 22.177 11.1451C24.135 11.487 26.9846 11.479 28.9608 10.6997C28.8963 11.134 28.8254 11.5818 28.752 11.9898C26.2172 11.8026 23.0185 12.3787 20.5713 13.0664Z" fill="#134A85"/>
<path d="M39.7101 12.3959C40.5349 10.854 42.1517 9.61165 41.0831 8.90004C40.0177 8.18764 39.5221 10.1177 38.3841 11.5114C37.7936 12.3959 39.1372 13.2566 39.7101 12.3959Z" fill="#134A85"/>
<path d="M11.2906 12.3952C11.5336 12.761 12.0285 12.8606 12.3958 12.616C12.7624 12.3721 12.8612 11.8773 12.6166 11.5107L11.0228 9.12006C10.779 8.7535 10.2841 8.65389 9.91757 8.89933C9.551 9.14317 9.45219 9.63803 9.69683 10.0046L11.2906 12.3952Z" fill="#134A85"/>
<path d="M43.5947 14.9073C45.033 13.2004 46.9168 12.3215 45.9853 11.3899C45.0537 10.4584 44.1708 12.3454 42.4679 13.7805C41.7212 14.5272 42.8567 15.6452 43.5947 14.9073Z" fill="#134A85"/>
<path d="M7.40556 15.7042C8.14028 16.4389 9.28778 15.3321 8.53234 14.5774L6.14171 12.1868C5.83014 11.8752 5.32651 11.8752 5.01493 12.1868C4.70336 12.4984 4.70336 13.002 5.01493 13.3136L7.40556 15.7042Z" fill="#134A85"/>
<path d="M24.4698 33.7024C24.1583 33.3909 23.6546 33.3909 23.3431 33.7024L20.9524 36.0931C20.6409 36.4046 20.6409 36.9083 20.9524 37.2198C21.1078 37.3752 21.3118 37.4533 21.5158 37.4533C21.7198 37.4533 21.9238 37.3752 22.0792 37.2198L24.4698 34.8292C24.7814 34.5176 24.7814 34.014 24.4698 33.7024Z" fill="#134A85"/>
<path d="M27.5343 38.3342L24.3468 39.9279C23.9531 40.1248 23.7938 40.6037 23.9906 40.9973C24.13 41.277 24.4113 41.438 24.7038 41.438C24.8233 41.438 24.9453 41.4109 25.0592 41.3543L28.2467 39.7606C28.6404 39.5638 28.7997 39.0848 28.6029 38.6912C28.4053 38.2975 27.928 38.1374 27.5343 38.3342Z" fill="#134A85"/>
<path d="M28.0839 45.4459L24.8964 44.6491C24.4684 44.5391 24.0365 44.8021 23.9305 45.2292C23.823 45.6563 24.0827 46.089 24.5107 46.1958L27.6982 46.9927C27.7627 47.0094 27.8281 47.0166 27.8918 47.0166C28.2488 47.0166 28.5731 46.7751 28.664 46.4133C28.7708 45.9854 28.511 45.5527 28.0839 45.4459Z" fill="#134A85"/>
</svg>
