<svg width="51" height="51" viewBox="0 0 51 51" fill="none" xmlns="http://www.w3.org/2000/svg">
<g clip-path="url(#clip0_3029_6542)">
<path d="M50.8397 20.6559L50.1617 19.1743C49.9629 18.7391 49.6057 18.4093 49.1559 18.2459C48.7081 18.0832 48.2253 18.1067 47.7953 18.3119C47.2904 18.554 46.74 18.7951 46.1605 19.028C44.4731 19.7028 42.5785 20.2933 40.5311 20.7827C40.2583 20.847 39.9648 20.7701 39.7464 20.5756C38.8584 19.7864 37.8244 19.0887 36.6686 18.4921C37.5949 16.7371 38.1206 14.7391 38.1206 12.6204C38.1206 12.1768 38.0967 11.727 38.0497 11.2835C38.006 10.8733 37.6383 10.577 37.2279 10.6195C36.8176 10.6631 36.5202 11.0309 36.5638 11.4412C36.6053 11.8326 36.6263 12.2293 36.6263 12.6204C36.6263 18.7555 31.6351 23.7468 25.5 23.7468C19.3648 23.7468 14.3736 18.7555 14.3736 12.6204C14.3736 6.48527 19.3649 1.49414 25.5001 1.49414C29.9677 1.49414 33.9883 4.156 35.7429 8.27545C35.9046 8.65496 36.3435 8.83167 36.723 8.67C37.1026 8.50833 37.2792 8.06955 37.1175 7.68984C35.1278 3.01846 30.5677 0 25.5001 0C18.5411 0 12.8796 5.6616 12.8796 12.6205C12.8796 14.7392 13.4051 16.7372 14.3316 18.4922C13.1757 19.0887 12.1416 19.7865 11.2535 20.5759C11.0352 20.7699 10.7418 20.8475 10.4704 20.783C8.42164 20.2933 6.52707 19.7027 4.84078 19.0285C4.26006 18.795 3.70972 18.5539 3.2037 18.3114C2.77478 18.1065 2.29198 18.0834 1.84423 18.2459C1.3944 18.4094 1.0372 18.7391 0.838774 19.1737L0.160434 20.6559C-0.238203 21.5269 0.139915 22.5715 1.00492 22.9852C1.60626 23.2712 2.25124 23.5523 2.922 23.821C4.23535 24.3463 5.65937 24.8274 7.15391 25.2505C7.59269 25.3753 7.86233 25.8335 7.75525 26.2713C7.538 27.1563 7.42783 28.0929 7.42783 29.0552C7.42783 36.2322 13.4033 43.4617 21.0319 45.5138C21.5388 45.65 21.9135 46.101 21.9641 46.6352L22.2232 49.3993C22.31 50.3118 23.066 51 23.9819 51H27.018C27.9339 51 28.6901 50.3118 28.7768 49.3983L29.0357 46.636C29.0864 46.101 29.4611 45.6501 29.9684 45.5137C31.2985 45.1555 32.6001 44.6373 33.837 43.9734C34.2004 43.7782 34.337 43.3253 34.1419 42.9618C33.9466 42.5982 33.4938 42.4619 33.1302 42.6568C31.9941 43.2667 30.7997 43.7425 29.5804 44.0708C28.4742 44.3679 27.6575 45.3422 27.5481 46.4957L27.2892 49.2577C27.2758 49.3992 27.1592 49.5058 27.0179 49.5058H23.9818C23.8406 49.5058 23.7239 49.3992 23.7106 49.2587L23.4515 46.4949C23.3422 45.3422 22.5256 44.3679 21.4197 44.0709C17.9844 43.1467 14.8046 41.0596 12.4659 38.1938C10.1804 35.3934 8.92178 32.1479 8.92178 29.0551C8.92178 28.2127 9.0174 27.3959 9.20616 26.6268C9.50708 25.3966 8.78491 24.1608 7.56141 23.8129C6.11608 23.4038 4.74187 22.9397 3.47683 22.4336C2.83524 22.1768 2.21946 21.9085 1.6478 21.6365C1.51512 21.573 1.45725 21.412 1.51881 21.2776L2.19745 19.7948C2.23918 19.7032 2.31359 19.6649 2.35413 19.6501C2.39348 19.6358 2.47247 19.6181 2.55843 19.659C3.09234 19.915 3.67266 20.1693 4.28446 20.4152C6.03918 21.117 8.00348 21.7296 10.1242 22.2365C10.8711 22.4135 11.6641 22.2098 12.2459 21.6924C13.0638 20.9655 14.0251 20.3218 15.1072 19.7722C15.4507 20.2697 15.8288 20.7415 16.2383 21.1839C15.6652 21.4565 15.129 21.7569 14.6361 22.0824C14.1852 22.38 13.771 22.6985 13.4049 23.0286C13.0985 23.3048 13.0741 23.7773 13.3504 24.0837C13.4979 24.2473 13.7012 24.3305 13.9054 24.3305C14.0837 24.3305 14.2626 24.267 14.4055 24.1381C14.7162 23.858 15.0708 23.5859 15.4593 23.3293C16.041 22.9452 16.6952 22.5993 17.4074 22.297C19.6002 24.1336 22.423 25.241 25.5001 25.241C28.5771 25.241 31.3999 24.1336 33.5924 22.2971C34.3046 22.5994 34.9589 22.9453 35.5404 23.3293C37.7146 24.7655 38.8169 26.6919 38.8169 29.0551C38.8169 29.3445 38.8002 29.6376 38.7691 29.9328H12.2311C12.2 29.6377 12.1833 29.3446 12.1833 29.0551C12.1833 28.2139 12.322 27.4232 12.5956 26.7052C12.7425 26.3197 12.549 25.888 12.1634 25.7411C11.7778 25.5941 11.3462 25.7877 11.1992 26.1733C10.8608 27.0618 10.6891 28.0313 10.6891 29.0551C10.6891 32.2188 12.3061 35.7019 15.0147 38.3726C17.9412 41.2572 21.6649 42.846 25.5001 42.846C29.3352 42.846 33.0589 41.2573 35.9855 38.3726C38.694 35.7019 40.311 32.2189 40.311 29.0552C40.311 26.1586 38.983 23.8127 36.3638 22.0826C35.8709 21.7571 35.3346 21.4567 34.7615 21.1841C35.171 20.7417 35.5492 20.2699 35.8926 19.7724C36.9748 20.3219 37.936 20.9656 38.7537 21.6923C39.3357 22.2101 40.1289 22.4136 40.8772 22.2364C42.9963 21.7298 44.9606 21.1172 46.7167 20.4149C47.3272 20.1695 47.9075 19.9152 48.4404 19.6597C48.5274 19.6181 48.6064 19.636 48.6458 19.6503C48.6864 19.6651 48.7607 19.7034 48.8028 19.7956L49.4811 21.2778C49.5427 21.4122 49.4848 21.5732 49.3534 21.6361C48.7805 21.9086 48.1646 22.177 47.5232 22.4337C46.2581 22.9398 44.8837 23.4039 43.4377 23.8134C42.215 24.1609 41.4928 25.3968 41.7939 26.6276C41.9825 27.3961 42.0782 28.2129 42.0782 29.0553C42.0782 33.2171 39.7187 37.717 35.9207 40.7988C35.6004 41.0588 35.5513 41.5292 35.8113 41.8497C35.959 42.0317 36.1745 42.126 36.3919 42.126C36.5572 42.126 36.7238 42.0713 36.8621 41.9591C38.8816 40.3204 40.5687 38.2776 41.7411 36.0515C42.9391 33.7766 43.5723 31.3574 43.5723 29.0553C43.5723 28.093 43.4621 27.1564 43.2451 26.272C43.1378 25.8336 43.4075 25.3754 43.8455 25.2509C45.3408 24.8275 46.7649 24.3465 48.0783 23.8211C48.749 23.5526 49.394 23.2714 49.9966 22.9848C50.8601 22.5716 51.2383 21.5269 50.8397 20.6559ZM34.9366 37.3085C32.2914 39.9159 28.9402 41.3518 25.5001 41.3518C22.06 41.3518 18.7087 39.9159 16.0637 37.3086C14.3118 35.5813 13.0693 33.4954 12.5121 31.427H38.488C37.9309 33.4954 36.6883 35.5813 34.9366 37.3085Z" fill="#134A85"/>
<path d="M33.1248 14.4499L33.8808 14.6524C33.9455 14.6698 34.0106 14.6781 34.0746 14.6781C34.4044 14.6781 34.7063 14.458 34.7958 14.1242C34.9026 13.7257 34.666 13.316 34.2675 13.2092L33.5106 13.0064C33.4916 12.6859 33.4084 12.3778 33.2677 12.0965L33.821 11.5432C34.1128 11.2514 34.1128 10.7784 33.821 10.4867C33.5293 10.195 33.0562 10.195 32.7646 10.4867L32.2111 11.0401C31.9299 10.8993 31.6218 10.8163 31.3015 10.7972L31.0987 10.0404C30.9919 9.64187 30.5822 9.40479 30.1837 9.51217C29.7851 9.61886 29.5487 10.0286 29.6554 10.4272L29.8579 11.183C29.7276 11.2696 29.6048 11.3697 29.4916 11.4828L28.8815 12.093L28.4136 11.6251C28.1219 11.3334 27.6488 11.3334 27.3572 11.6251C27.0654 11.9169 27.0654 12.3899 27.3572 12.6816L27.8249 13.1494L26.6047 14.3696L26.1369 13.9018C25.8451 13.6101 25.3721 13.6101 25.0804 13.9018C24.7886 14.1936 24.7886 14.6666 25.0804 14.9583L25.5482 15.4261L24.9381 16.0362C24.8249 16.1493 24.7248 16.2722 24.6381 16.4026L23.8823 16.2C23.4844 16.0931 23.0742 16.3297 22.9673 16.7283C22.8605 17.1268 23.0971 17.5365 23.4956 17.6433L24.2524 17.8461C24.2715 18.1665 24.3546 18.4745 24.4954 18.7558L23.9421 19.3092C23.6503 19.601 23.6503 20.074 23.9421 20.3657C24.0879 20.5115 24.2791 20.5845 24.4703 20.5845C24.6614 20.5845 24.8527 20.5115 24.9985 20.3657L25.5536 19.8106C25.8397 19.9529 26.1484 20.0329 26.4608 20.0519L26.6645 20.8121C26.7539 21.1459 27.0557 21.366 27.3857 21.366C27.4497 21.366 27.5148 21.3577 27.5795 21.3403C27.978 21.2336 28.2145 20.8238 28.1078 20.4253L27.9051 19.6688C28.0346 19.5832 28.1575 19.4835 28.2716 19.3695L28.8817 18.7594L29.3496 19.2273C29.4954 19.3731 29.6866 19.446 29.8778 19.446C30.0689 19.446 30.2602 19.3731 30.406 19.2273C30.6978 18.9354 30.6978 18.4625 30.406 18.1707L29.9382 17.703L31.1585 16.4827L31.6262 16.9505C31.7721 17.0964 31.9633 17.1693 32.1545 17.1693C32.3456 17.1693 32.5369 17.0964 32.6827 16.9506C32.9744 16.6588 32.9744 16.1858 32.6827 15.8941L32.2148 15.4263L32.8249 14.8162C32.9381 14.703 33.0382 14.5802 33.1248 14.4499ZM27.2149 18.3132C26.8785 18.6495 26.331 18.6495 25.9946 18.3132C25.6582 17.9768 25.6582 17.4294 25.9946 17.093L30.5482 12.5394C30.8845 12.2029 31.4321 12.2028 31.7684 12.5393C31.9314 12.7024 32.0212 12.919 32.0212 13.1495C32.0212 13.38 31.9314 13.5967 31.7685 13.7596L27.2149 18.3132Z" fill="#134A85"/>
<path d="M22.36 13.4669C22.4776 13.5348 22.6061 13.5671 22.7328 13.5671C22.991 13.5671 23.2421 13.4331 23.3805 13.1934C23.5868 12.8361 23.4644 12.3792 23.1071 12.1729L22.6193 11.8913C22.6749 11.6734 22.7045 11.4451 22.7045 11.21C22.7045 10.9749 22.6749 10.7467 22.6193 10.5287L23.1071 10.2471C23.4644 10.0408 23.5868 9.58388 23.3805 9.22659C23.1742 8.86919 22.7173 8.74697 22.36 8.95316L21.8703 9.23585C21.5449 8.9184 21.1416 8.68073 20.692 8.55412V7.99023C20.692 7.57755 20.3575 7.24316 19.945 7.24316C19.5324 7.24316 19.1979 7.57755 19.1979 7.99023V8.55412C18.7484 8.68073 18.3451 8.9184 18.0197 9.23585L17.5301 8.95316C17.1728 8.74687 16.7159 8.86919 16.5096 9.22659C16.3033 9.58388 16.4258 10.0408 16.7831 10.2471L17.2708 10.5287C17.2153 10.7467 17.1856 10.9749 17.1856 11.21C17.1856 11.4451 17.2153 11.6733 17.2708 11.8913L16.7831 12.1729C16.4258 12.3792 16.3033 12.8361 16.5096 13.1934C16.648 13.4331 16.8991 13.5671 17.1573 13.5671C17.284 13.5671 17.4125 13.5348 17.5301 13.4669L18.0197 13.1842C18.3451 13.5016 18.7485 13.7392 19.1979 13.8659V14.4299C19.1979 14.8426 19.5324 15.177 19.945 15.177C20.3575 15.177 20.692 14.8426 20.692 14.4299V13.8659C21.1416 13.7393 21.5448 13.5016 21.8703 13.1842L22.36 13.4669ZM19.9451 12.4753C19.2474 12.4753 18.6797 11.9078 18.6797 11.21C18.6797 10.5122 19.2473 9.94467 19.9451 9.94467C20.6428 9.94467 21.2104 10.5122 21.2104 11.21C21.2104 11.9078 20.6428 12.4753 19.9451 12.4753Z" fill="#134A85"/>
<path d="M27.2036 8.27651C28.5032 8.27651 29.5607 7.21916 29.5607 5.91956C29.5607 4.61985 28.5033 3.5625 27.2036 3.5625C25.9039 3.5625 24.8467 4.61985 24.8467 5.91956C24.8467 7.21916 25.904 8.27651 27.2036 8.27651ZM27.2036 5.05664C27.6794 5.05664 28.0666 5.44382 28.0666 5.91956C28.0666 6.39529 27.6795 6.78237 27.2036 6.78237C26.7278 6.78237 26.3408 6.39529 26.3408 5.91956C26.3408 5.44382 26.7279 5.05664 27.2036 5.05664Z" fill="#134A85"/>
<path d="M32.2966 8.43652C32.7092 8.43652 33.0437 8.10205 33.0437 7.68945C33.0437 7.27686 32.7092 6.94238 32.2966 6.94238C31.884 6.94238 31.5496 7.27686 31.5496 7.68945C31.5496 8.10205 31.884 8.43652 32.2966 8.43652Z" fill="#134A85"/>
<path d="M22.2109 5.90527C22.6235 5.90527 22.958 5.5708 22.958 5.1582C22.958 4.74561 22.6235 4.41113 22.2109 4.41113C21.7983 4.41113 21.4639 4.74561 21.4639 5.1582C21.4639 5.5708 21.7983 5.90527 22.2109 5.90527Z" fill="#134A85"/>
<path d="M20.6108 19.4463C21.0234 19.4463 21.3579 19.1118 21.3579 18.6992C21.3579 18.2866 21.0234 17.9521 20.6108 17.9521C20.1982 17.9521 19.8638 18.2866 19.8638 18.6992C19.8638 19.1118 20.1982 19.4463 20.6108 19.4463Z" fill="#134A85"/>
</g>
<defs>
<clipPath id="clip0_3029_6542">
<rect width="51" height="51" fill="white"/>
</clipPath>
</defs>
</svg>
