<svg width="51" height="51" viewBox="0 0 51 51" fill="none" xmlns="http://www.w3.org/2000/svg">
<path d="M50.0129 43.7218C49.1747 42.6431 47.5424 40.5466 45.7457 38.2626L49.427 32.938C49.4353 32.9259 49.4433 32.9136 49.4511 32.901C49.4818 32.8513 50.2034 31.6602 50.2766 29.872C50.343 28.2509 49.8798 25.7911 47.2965 23.278C47.2961 23.2776 47.2958 23.2771 47.2953 23.2767C47.2408 23.2236 45.9371 21.9669 43.9013 21.3333C41.9996 20.7416 39.0891 20.591 36.0113 23.2252C36.0094 23.2268 36.0076 23.2283 36.0058 23.2299C36.0012 23.2338 35.9967 23.2373 35.9921 23.2413C35.9872 23.2455 35.983 23.2502 35.9783 23.2545C35.9703 23.2616 35.9621 23.2684 35.9544 23.2758C33.3691 25.7897 32.9055 28.2504 32.972 29.8721C33.0452 31.6604 33.7668 32.8514 33.7976 32.9012C33.8052 32.9137 33.8133 32.926 33.8216 32.9381L35.6936 35.6456C35.8551 35.879 36.1145 36.0043 36.3784 36.0043C36.5416 36.0043 36.7063 35.9563 36.8507 35.8566C37.2284 35.5954 37.323 35.0774 37.0617 34.6995L35.2067 32.0166C35.0602 31.7621 33.7349 29.285 35.659 26.2344C35.7769 26.9309 36.0103 27.7474 36.4333 28.6624C36.4411 28.6813 36.45 28.6999 36.4592 28.7184C36.9059 29.6713 37.5585 30.7296 38.5014 31.8703C38.5105 31.8815 38.5199 31.8922 38.5296 31.9029L38.8641 32.2671C39.1748 32.6054 39.7009 32.6281 40.0392 32.3174C40.3776 32.0067 40.4001 31.4806 40.0895 31.1422L39.7698 30.794C39.0834 29.9617 38.5768 29.1928 38.2025 28.495C38.7323 27.9853 39.8329 27.1151 41.2684 26.999C42.5167 26.8984 43.7951 27.3858 45.0734 28.4461C44.6944 29.1612 44.1746 29.9525 43.4654 30.8104C40.4979 34.4 35.3226 41.0357 33.2354 43.722C32.5621 44.5883 32.5718 45.7913 33.2591 46.6476L36.155 50.2548C36.3132 50.4517 36.5519 50.5658 36.8035 50.5658C36.8135 50.5658 36.8234 50.5656 36.8334 50.5653C37.0958 50.5558 37.3384 50.4231 37.4876 50.2071L41.6245 44.2237L45.7612 50.2071C45.9106 50.4231 46.1531 50.5559 46.4154 50.5653C46.4254 50.5656 46.4354 50.5658 46.4454 50.5658C46.697 50.5658 46.9356 50.4518 47.0938 50.2548L49.9898 46.6476C50.6766 45.7915 50.6862 44.5883 50.0129 43.7218ZM41.113 25.343C39.539 25.4761 38.3011 26.236 37.5129 26.8826C37.1076 25.5924 37.1966 24.7093 37.2702 24.3403C41.4803 20.8998 45.1642 23.6319 45.975 24.3251C46.0486 24.6825 46.1451 25.5628 45.7435 26.8569C44.2351 25.7207 42.6805 25.2106 41.113 25.343ZM36.7537 48.3438L34.556 45.6063C34.353 45.3534 34.35 44.9982 34.5486 44.7425C36.6313 42.0621 41.7942 35.4422 44.7473 31.87C46.618 29.607 47.3471 27.6672 47.5897 26.2342C49.5215 29.2967 48.1784 31.7808 48.0429 32.0153L36.7537 48.3438ZM48.6924 45.6064L46.4948 48.3439L42.6353 42.7615L44.7557 39.6946C46.4229 41.8163 47.9122 43.729 48.6996 44.7424C48.8983 44.9982 48.8954 45.3535 48.6924 45.6064Z" fill="#134A85"/>
<path d="M9.76793 19.3564C9.30864 19.3564 8.93628 19.7287 8.93628 20.1881C8.93628 23.5733 11.9421 28.1323 17.8704 33.7382C18.0312 33.8903 18.2367 33.9657 18.4417 33.9657C18.6624 33.9657 18.8826 33.8784 19.0461 33.7054C19.3617 33.3717 19.347 32.8453 19.0133 32.5297C13.5876 27.3989 10.5997 23.016 10.5997 20.188C10.5996 19.7288 10.2272 19.3564 9.76793 19.3564Z" fill="#134A85"/>
<path d="M33.7596 7.85408C33.9237 7.42518 33.709 6.94438 33.28 6.78016C30.3669 5.66566 27.0055 5.10059 23.2893 5.10059C19.3496 5.10059 15.68 5.76767 12.6771 7.02954C12.2537 7.2074 12.0547 7.69496 12.2327 8.11832C12.3664 8.43656 12.6749 8.62806 12.9997 8.62806C13.107 8.62806 13.2162 8.60721 13.3215 8.56286C16.1221 7.38604 19.5689 6.76386 23.2893 6.76386C26.7521 6.76386 30.0013 7.30675 32.6857 8.33366C33.115 8.49777 33.5955 8.2831 33.7596 7.85408Z" fill="#134A85"/>
<path d="M35.4852 9.56119C38.7648 11.4862 40.7726 14.3326 41.2912 17.7927C41.353 18.2051 41.7078 18.5012 42.1125 18.5012C42.1535 18.5012 42.1951 18.4982 42.2369 18.4919C42.6911 18.4238 43.0041 18.0003 42.9361 17.5461C42.3848 13.8695 40.3878 10.8065 37.1398 8.63596L40.1252 4.91776C40.4127 4.55972 40.3555 4.03623 39.9973 3.74859C39.6392 3.46107 39.1158 3.51828 38.8282 3.87644L35.2577 8.32338C35.1065 8.51177 35.0446 8.75661 35.0883 8.99434C35.1319 9.23208 35.2768 9.43899 35.4852 9.56119Z" fill="#134A85"/>
<path d="M31.1856 35.5873C30.6935 36.0728 30.1812 36.5671 29.6628 37.0566C28.2929 38.3502 26.5855 39.168 24.7251 39.4215C24.313 39.4777 24.0057 39.8297 24.0057 40.2456V49.687C24.0057 50.1464 24.3781 50.5186 24.8374 50.5186C25.2967 50.5186 25.669 50.1464 25.669 49.687V40.9467C27.5957 40.5495 29.359 39.6314 30.8047 38.2661C31.332 37.7683 31.8532 37.2654 32.3538 36.7714C32.6807 36.4489 32.6843 35.9223 32.3617 35.5954C32.039 35.2682 31.5124 35.2647 31.1856 35.5873Z" fill="#134A85"/>
<path d="M22.0751 39.4216C20.2146 39.1681 18.5072 38.3503 17.1373 37.0567C9.54802 29.89 5.36837 23.7372 5.36837 19.7317C5.36837 15.5579 7.25522 12.1449 10.8249 9.86162C11.0252 9.73355 11.1611 9.52575 11.1982 9.2909C11.2353 9.05604 11.1702 8.81653 11.0191 8.63279L7.10186 3.86884C6.81023 3.51401 6.28607 3.46311 5.93123 3.75474C5.57651 4.04648 5.52539 4.57052 5.81713 4.92535L9.15659 8.98652C5.58571 11.5768 3.70508 15.2735 3.70508 19.7317C3.70508 22.3629 5.10469 25.5938 7.86498 29.3346C9.88977 32.0787 12.6253 35.0836 15.9954 38.2662C17.4411 39.6314 19.2045 40.5496 21.1312 40.9468V49.6871C21.1312 50.1465 21.5036 50.5187 21.9629 50.5187C22.4222 50.5187 22.7945 50.1465 22.7945 49.6871V40.2457C22.7945 39.8297 22.4872 39.4778 22.0751 39.4216Z" fill="#134A85"/>
</svg>
