<svg width="51" height="51" viewBox="0 0 51 51" fill="none" xmlns="http://www.w3.org/2000/svg">
<g clip-path="url(#clip0_3020_6624)">
<path d="M50.8396 20.6559L50.1615 19.1743C49.9628 18.7391 49.6056 18.4093 49.1558 18.2459C48.7079 18.0832 48.2252 18.1067 47.7952 18.3119C47.2903 18.554 46.7398 18.7951 46.1604 19.028C44.4729 19.7028 42.5784 20.2933 40.531 20.7827C40.2582 20.847 39.9647 20.7701 39.7463 20.5756C38.8583 19.7864 37.8243 19.0887 36.6684 18.4921C37.5948 16.7371 38.1205 14.7391 38.1205 12.6204C38.1205 12.1768 38.0965 11.727 38.0495 11.2835C38.0059 10.8733 37.6381 10.577 37.2278 10.6195C36.8175 10.6631 36.5201 11.0309 36.5637 11.4412C36.6052 11.8326 36.6262 12.2293 36.6262 12.6204C36.6262 18.7555 31.635 23.7468 25.4998 23.7468C19.3647 23.7468 14.3735 18.7555 14.3735 12.6204C14.3735 6.48527 19.3648 1.49414 25.4999 1.49414C29.9676 1.49414 33.9882 4.156 35.7428 8.27545C35.9044 8.65496 36.3434 8.83167 36.7228 8.67C37.1024 8.50833 37.279 8.06955 37.1174 7.68984C35.1277 3.01846 30.5676 0 25.4999 0C18.5409 0 12.8794 5.6616 12.8794 12.6205C12.8794 14.7392 13.405 16.7372 14.3314 18.4922C13.1756 19.0887 12.1415 19.7865 11.2534 20.5759C11.0351 20.7699 10.7417 20.8475 10.4703 20.783C8.42151 20.2933 6.52694 19.7027 4.84066 19.0285C4.25993 18.795 3.70959 18.5539 3.20358 18.3114C2.77466 18.1065 2.29185 18.0834 1.84411 18.2459C1.39427 18.4094 1.03707 18.7391 0.838652 19.1737L0.160312 20.6559C-0.238325 21.5269 0.139793 22.5715 1.0048 22.9852C1.60614 23.2712 2.25111 23.5523 2.92188 23.821C4.23523 24.3463 5.65925 24.8274 7.15379 25.2505C7.59257 25.3753 7.86221 25.8335 7.75513 26.2713C7.53788 27.1563 7.42771 28.0929 7.42771 29.0552C7.42771 36.2322 13.4032 43.4617 21.0318 45.5138C21.5387 45.65 21.9134 46.101 21.964 46.6352L22.2231 49.3993C22.3099 50.3118 23.0659 51 23.9818 51H27.0179C27.9338 51 28.6899 50.3118 28.7767 49.3983L29.0356 46.636C29.0863 46.101 29.461 45.6501 29.9683 45.5137C31.2984 45.1555 32.6 44.6373 33.8368 43.9734C34.2003 43.7782 34.3369 43.3253 34.1418 42.9618C33.9465 42.5982 33.4937 42.4619 33.1301 42.6568C31.994 43.2667 30.7996 43.7425 29.5802 44.0708C28.4741 44.3679 27.6574 45.3422 27.548 46.4957L27.2891 49.2577C27.2757 49.3992 27.159 49.5058 27.0178 49.5058H23.9817C23.8404 49.5058 23.7238 49.3992 23.7105 49.2587L23.4514 46.4949C23.3421 45.3422 22.5255 44.3679 21.4195 44.0709C17.9843 43.1467 14.8045 41.0596 12.4658 38.1938C10.1803 35.3934 8.92165 32.1479 8.92165 29.0551C8.92165 28.2127 9.01728 27.3959 9.20604 26.6268C9.50696 25.3966 8.78479 24.1608 7.56129 23.8129C6.11596 23.4038 4.74175 22.9397 3.47671 22.4336C2.83512 22.1768 2.21934 21.9085 1.64768 21.6365C1.515 21.573 1.45713 21.412 1.51869 21.2776L2.19732 19.7948C2.23906 19.7032 2.31347 19.6649 2.35401 19.6501C2.39336 19.6358 2.47235 19.6181 2.55831 19.659C3.09221 19.915 3.67254 20.1693 4.28434 20.4152C6.03906 21.117 8.00336 21.7296 10.124 22.2365C10.871 22.4135 11.664 22.2098 12.2458 21.6924C13.0637 20.9655 14.0249 20.3218 15.1071 19.7722C15.4506 20.2697 15.8287 20.7415 16.2382 21.1839C15.6651 21.4565 15.1289 21.7569 14.6359 22.0824C14.1851 22.38 13.7708 22.6985 13.4048 23.0286C13.0984 23.3048 13.074 23.7773 13.3503 24.0837C13.4978 24.2473 13.7011 24.3305 13.9053 24.3305C14.0836 24.3305 14.2625 24.267 14.4053 24.1381C14.716 23.858 15.0706 23.5859 15.4592 23.3293C16.0408 22.9452 16.6951 22.5993 17.4073 22.297C19.6001 24.1336 22.4229 25.241 25.4999 25.241C28.577 25.241 31.3998 24.1336 33.5923 22.2971C34.3045 22.5994 34.9587 22.9453 35.5403 23.3293C37.7144 24.7655 38.8168 26.6919 38.8168 29.0551C38.8168 29.3445 38.8001 29.6376 38.769 29.9328H12.231C12.1999 29.6377 12.1832 29.3446 12.1832 29.0551C12.1832 28.2139 12.3219 27.4232 12.5954 26.7052C12.7424 26.3197 12.5488 25.888 12.1632 25.7411C11.7777 25.5941 11.346 25.7877 11.1991 26.1733C10.8607 27.0618 10.689 28.0313 10.689 29.0551C10.689 32.2188 12.306 35.7019 15.0146 38.3726C17.9411 41.2572 21.6648 42.846 25.4999 42.846C29.3351 42.846 33.0588 41.2573 35.9854 38.3726C38.6939 35.7019 40.3109 32.2189 40.3109 29.0552C40.3109 26.1586 38.9829 23.8127 36.3636 22.0826C35.8708 21.7571 35.3345 21.4567 34.7614 21.1841C35.1709 20.7417 35.549 20.2699 35.8925 19.7724C36.9746 20.3219 37.9359 20.9656 38.7536 21.6923C39.3356 22.2101 40.1288 22.4136 40.877 22.2364C42.9962 21.7298 44.9605 21.1172 46.7165 20.4149C47.327 20.1695 47.9074 19.9152 48.4403 19.6597C48.5272 19.6181 48.6063 19.636 48.6457 19.6503C48.6863 19.6651 48.7606 19.7034 48.8027 19.7956L49.481 21.2778C49.5426 21.4122 49.4847 21.5732 49.3533 21.6361C48.7803 21.9086 48.1645 22.177 47.5231 22.4337C46.2579 22.9398 44.8836 23.4039 43.4376 23.8134C42.2149 24.1609 41.4927 25.3968 41.7937 26.6276C41.9824 27.3961 42.078 28.2129 42.078 29.0553C42.078 33.2171 39.7186 37.717 35.9206 40.7988C35.6002 41.0588 35.5512 41.5292 35.8112 41.8497C35.9588 42.0317 36.1744 42.126 36.3917 42.126C36.5571 42.126 36.7236 42.0713 36.862 41.9591C38.8815 40.3204 40.5686 38.2776 41.741 36.0515C42.939 33.7766 43.5722 31.3574 43.5722 29.0553C43.5722 28.093 43.462 27.1564 43.245 26.272C43.1377 25.8336 43.4074 25.3754 43.8454 25.2509C45.3406 24.8275 46.7648 24.3465 48.0782 23.8211C48.7489 23.5526 49.3938 23.2714 49.9965 22.9848C50.86 22.5716 51.2382 21.5269 50.8396 20.6559ZM34.9364 37.3085C32.2913 39.9159 28.9401 41.3518 25.4999 41.3518C22.0598 41.3518 18.7086 39.9159 16.0635 37.3086C14.3117 35.5813 13.0692 33.4954 12.512 31.427H38.4879C37.9308 33.4954 36.6882 35.5813 34.9364 37.3085Z" fill="#134A85"/>
<path d="M33.1246 14.4499L33.8805 14.6524C33.9453 14.6698 34.0103 14.6781 34.0744 14.6781C34.4042 14.6781 34.7061 14.458 34.7956 14.1242C34.9023 13.7257 34.6658 13.316 34.2672 13.2092L33.5104 13.0064C33.4914 12.6859 33.4082 12.3778 33.2674 12.0965L33.8208 11.5432C34.1125 11.2514 34.1125 10.7784 33.8208 10.4867C33.529 10.195 33.056 10.195 32.7643 10.4867L32.2109 11.0401C31.9297 10.8993 31.6216 10.8163 31.3013 10.7972L31.0985 10.0404C30.9917 9.64187 30.582 9.40479 30.1834 9.51217C29.7849 9.61886 29.5484 10.0286 29.6551 10.4272L29.8576 11.183C29.7273 11.2696 29.6045 11.3697 29.4914 11.4828L28.8812 12.093L28.4134 11.6251C28.1216 11.3334 27.6486 11.3334 27.3569 11.6251C27.0652 11.9169 27.0652 12.3899 27.3569 12.6816L27.8247 13.1494L26.6045 14.3696L26.1366 13.9018C25.8449 13.6101 25.3718 13.6101 25.0802 13.9018C24.7884 14.1936 24.7884 14.6666 25.0802 14.9583L25.5479 15.4261L24.9378 16.0362C24.8247 16.1493 24.7245 16.2722 24.6379 16.4026L23.8821 16.2C23.4841 16.0931 23.0739 16.3297 22.967 16.7283C22.8603 17.1268 23.0968 17.5365 23.4954 17.6433L24.2522 17.8461C24.2712 18.1665 24.3544 18.4745 24.4951 18.7558L23.9418 19.3092C23.6501 19.601 23.6501 20.074 23.9418 20.3657C24.0876 20.5115 24.2789 20.5845 24.47 20.5845C24.6612 20.5845 24.8524 20.5115 24.9983 20.3657L25.5534 19.8106C25.8395 19.9529 26.1482 20.0329 26.4605 20.0519L26.6642 20.8121C26.7537 21.1459 27.0555 21.366 27.3854 21.366C27.4495 21.366 27.5145 21.3577 27.5793 21.3403C27.9778 21.2336 28.2143 20.8238 28.1076 20.4253L27.9049 19.6688C28.0344 19.5832 28.1573 19.4835 28.2713 19.3695L28.8814 18.7594L29.3493 19.2273C29.4951 19.3731 29.6864 19.446 29.8775 19.446C30.0687 19.446 30.2599 19.3731 30.4058 19.2273C30.6975 18.9354 30.6975 18.4625 30.4058 18.1707L29.938 17.703L31.1582 16.4827L31.626 16.9505C31.7718 17.0964 31.9631 17.1693 32.1542 17.1693C32.3454 17.1693 32.5366 17.0964 32.6824 16.9506C32.9742 16.6588 32.9742 16.1858 32.6824 15.8941L32.2146 15.4263L32.8247 14.8162C32.9378 14.703 33.0379 14.5802 33.1246 14.4499ZM27.2147 18.3132C26.8783 18.6495 26.3307 18.6495 25.9944 18.3132C25.658 17.9768 25.658 17.4294 25.9944 17.093L30.5479 12.5394C30.8843 12.2029 31.4318 12.2028 31.7681 12.5393C31.9312 12.7024 32.0209 12.919 32.0209 13.1495C32.0209 13.38 31.9312 13.5967 31.7682 13.7596L27.2147 18.3132Z" fill="#134A85"/>
<path d="M22.36 13.4669C22.4776 13.5348 22.6061 13.5671 22.7328 13.5671C22.991 13.5671 23.2421 13.4331 23.3805 13.1934C23.5868 12.8361 23.4644 12.3792 23.1071 12.1729L22.6193 11.8913C22.6749 11.6734 22.7045 11.4451 22.7045 11.21C22.7045 10.9749 22.6749 10.7467 22.6193 10.5287L23.1071 10.2471C23.4644 10.0408 23.5868 9.58388 23.3805 9.22659C23.1742 8.86919 22.7173 8.74697 22.36 8.95316L21.8703 9.23585C21.5449 8.9184 21.1416 8.68073 20.692 8.55412V7.99023C20.692 7.57755 20.3575 7.24316 19.945 7.24316C19.5324 7.24316 19.1979 7.57755 19.1979 7.99023V8.55412C18.7484 8.68073 18.3451 8.9184 18.0197 9.23585L17.5301 8.95316C17.1728 8.74687 16.7159 8.86919 16.5096 9.22659C16.3033 9.58388 16.4258 10.0408 16.7831 10.2471L17.2708 10.5287C17.2153 10.7467 17.1856 10.9749 17.1856 11.21C17.1856 11.4451 17.2153 11.6733 17.2708 11.8913L16.7831 12.1729C16.4258 12.3792 16.3033 12.8361 16.5096 13.1934C16.648 13.4331 16.8991 13.5671 17.1573 13.5671C17.284 13.5671 17.4125 13.5348 17.5301 13.4669L18.0197 13.1842C18.3451 13.5016 18.7485 13.7392 19.1979 13.8659V14.4299C19.1979 14.8426 19.5324 15.177 19.945 15.177C20.3575 15.177 20.692 14.8426 20.692 14.4299V13.8659C21.1416 13.7393 21.5448 13.5016 21.8703 13.1842L22.36 13.4669ZM19.9451 12.4753C19.2474 12.4753 18.6797 11.9078 18.6797 11.21C18.6797 10.5122 19.2473 9.94467 19.9451 9.94467C20.6428 9.94467 21.2104 10.5122 21.2104 11.21C21.2104 11.9078 20.6428 12.4753 19.9451 12.4753Z" fill="#134A85"/>
<path d="M27.2034 8.27651C28.503 8.27651 29.5605 7.21916 29.5605 5.91956C29.5605 4.61985 28.5031 3.5625 27.2034 3.5625C25.9037 3.5625 24.8464 4.61985 24.8464 5.91956C24.8464 7.21916 25.9038 8.27651 27.2034 8.27651ZM27.2034 5.05664C27.6791 5.05664 28.0663 5.44382 28.0663 5.91956C28.0663 6.39529 27.6792 6.78237 27.2034 6.78237C26.7276 6.78237 26.3406 6.39529 26.3406 5.91956C26.3406 5.44382 26.7277 5.05664 27.2034 5.05664Z" fill="#134A85"/>
<path d="M32.2965 8.43652C32.7091 8.43652 33.0436 8.10205 33.0436 7.68945C33.0436 7.27686 32.7091 6.94238 32.2965 6.94238C31.8839 6.94238 31.5494 7.27686 31.5494 7.68945C31.5494 8.10205 31.8839 8.43652 32.2965 8.43652Z" fill="#134A85"/>
<path d="M22.2107 5.90527C22.6233 5.90527 22.9578 5.5708 22.9578 5.1582C22.9578 4.74561 22.6233 4.41113 22.2107 4.41113C21.7981 4.41113 21.4636 4.74561 21.4636 5.1582C21.4636 5.5708 21.7981 5.90527 22.2107 5.90527Z" fill="#134A85"/>
<path d="M20.6108 19.4463C21.0234 19.4463 21.3579 19.1118 21.3579 18.6992C21.3579 18.2866 21.0234 17.9521 20.6108 17.9521C20.1982 17.9521 19.8638 18.2866 19.8638 18.6992C19.8638 19.1118 20.1982 19.4463 20.6108 19.4463Z" fill="#134A85"/>
</g>
<defs>
<clipPath id="clip0_3020_6624">
<rect width="51" height="51" fill="white"/>
</clipPath>
</defs>
</svg>
