<svg width="51" height="51" viewBox="0 0 51 51" fill="none" xmlns="http://www.w3.org/2000/svg">
<g clip-path="url(#clip0_3064_12986)">
<path d="M0.973633 8.41689C0.973633 9.39077 1.59818 10.2212 2.46777 10.5296V13.6464H3.96191V10.6581H14.4209V26.3466H3.96191V15.1405H2.46777V44.2763C2.46777 47.9837 5.48404 50.9999 9.19141 50.9999C12.8988 50.9999 15.915 47.9837 15.915 44.2763V10.5296C16.7845 10.2212 17.4092 9.39087 17.4092 8.41689V0H0.973633V8.41689ZM8.44434 9.16396H6.20312V1.49414H8.44434V9.16396ZM9.93848 1.49414H12.1797V9.16396H9.93848V1.49414ZM9.19141 49.5058C6.30781 49.5058 3.96191 47.1599 3.96191 44.2763V27.8407H14.4209V44.2763C14.4209 47.1599 12.075 49.5058 9.19141 49.5058ZM15.9149 8.41689C15.9149 8.82878 15.5799 9.16396 15.1679 9.16396H13.6737V1.49414H15.9149V8.41689ZM2.46777 1.49414H4.70898V9.16396H3.21484C2.80296 9.16396 2.46777 8.82878 2.46777 8.41689V1.49414Z" fill="#134A85"/>
<path d="M11.4326 29.335H12.9268V30.8291H11.4326V29.335Z" fill="#134A85"/>
<path d="M11.4326 32.3232H12.9268V33.8174H11.4326V32.3232Z" fill="#134A85"/>
<path d="M34.3379 0C25.6872 0 18.6494 7.0378 18.6494 15.6885C18.6494 18.9645 19.6449 22.0926 21.5311 24.7513V28.4952H25.2749C27.9343 30.3815 31.0623 31.377 34.3379 31.377C38.2273 31.377 41.9584 29.9432 44.8438 27.3399L43.8428 26.2305C41.2324 28.5858 37.8569 29.8828 34.3379 29.8828C31.2996 29.8828 28.4018 28.9363 25.9578 27.1455L25.7606 27.0011H23.0254V24.2658L22.8808 24.0687C21.0901 21.6252 20.1437 18.7274 20.1437 15.6886C20.1437 7.86177 26.5112 1.49424 34.338 1.49424C42.1648 1.49424 48.5323 7.86177 48.5323 15.6886C48.5323 19.2076 47.2353 22.5831 44.8801 25.1936L45.9895 26.1945C48.5928 23.3091 50.0265 19.578 50.0265 15.6886C50.0264 7.0378 42.9885 0 34.3379 0Z" fill="#134A85"/>
<path d="M28.9335 24.9892L30.2372 26.9833L34.338 21.742L38.4387 26.9833L39.7424 24.9892L42.1306 24.035L37.3373 17.9084L39.9034 14.6285C40.2581 14.2325 41.7416 12.4112 41.3623 10.0455C41.0556 8.13257 39.6264 6.44319 37.1144 5.02436L36.9433 4.92773H31.7326L31.5615 5.02436C29.0495 6.44329 27.6204 8.13257 27.3136 10.0456C26.9343 12.4111 28.4177 14.2324 28.7725 14.6285L31.3386 17.9085L26.5454 24.0351L28.9335 24.9892ZM39.7261 23.3867L38.7499 23.7768L38.3296 24.4195L35.2863 20.5297L36.3885 19.1209L39.7261 23.3867ZM30.9073 8.62374C31.0333 7.60284 31.8406 6.75706 32.2055 6.42188H36.4701C36.8362 6.75816 37.6426 7.60354 37.7684 8.62374C37.7895 8.79467 37.7898 8.96311 37.7706 9.12986C37.3778 8.76688 36.8442 8.531 36.1941 8.531H32.4816C31.8315 8.531 31.2979 8.76688 30.9051 9.12986C30.8859 8.96311 30.8862 8.79467 30.9073 8.62374ZM37.0066 10.6637L34.3379 14.0748L31.6691 10.6637C31.7422 10.3908 31.9572 10.025 32.4815 10.025H36.1941C36.7185 10.025 36.9335 10.3908 37.0066 10.6637ZM29.9331 13.6871L29.8971 13.6445C29.7538 13.487 28.5046 12.0552 28.789 10.282C28.8715 9.76736 29.075 9.26682 29.3979 8.78182C29.3699 9.67791 29.6729 10.5369 30.3014 11.3404L33.3894 15.2873L32.2872 16.6961L29.9331 13.6871ZM38.3744 11.3404C39.003 10.537 39.306 9.67791 39.2779 8.78182C39.6008 9.26672 39.8043 9.76736 39.8868 10.282C40.1711 12.0552 38.922 13.487 38.7787 13.6445L38.7599 13.6652L30.3461 24.4195L29.9259 23.7768L28.9496 23.3867L38.3744 11.3404Z" fill="#134A85"/>
</g>
<defs>
<clipPath id="clip0_3064_12986">
<rect width="51" height="51" fill="white"/>
</clipPath>
</defs>
</svg>
