<svg width="51" height="51" viewBox="0 0 51 51" fill="none" xmlns="http://www.w3.org/2000/svg">
<path d="M28.7897 22.8047C27.7092 22.8047 27.1796 23.7367 26.8632 24.2936C26.7928 24.4176 26.6909 24.597 26.6274 24.6814C26.3509 24.7539 26.0677 24.7975 25.7822 24.8113C25.0216 24.8796 24.0749 24.9646 23.5691 25.8005C23.2456 26.3352 23.2376 26.9823 23.5451 27.7241C24.2516 29.4284 24.7907 29.8776 25.6621 30.1913C25.9052 30.2787 26.1347 30.3614 26.659 31.0474C28.2786 33.1663 32.0787 38.4033 32.1169 38.456C32.2725 38.6707 32.4942 38.8285 32.7481 38.9053C33.0019 38.9821 33.274 38.9736 33.5226 38.8812L35.3338 38.2085C35.5051 38.1448 35.6598 38.0434 35.7864 37.9117C35.913 37.78 36.0083 37.6214 36.0651 37.4478C36.1219 37.2742 36.1388 37.09 36.1146 36.9089C36.0903 36.7278 36.0255 36.5546 35.925 36.402C35.1251 35.1882 31.1173 29.1098 30.7712 28.6516C30.5299 28.3613 30.3459 28.0279 30.2288 27.6691C30.4791 27.5745 30.7075 27.4299 30.9001 27.2441C31.0926 27.0582 31.2452 26.8351 31.3486 26.5883C31.6492 25.8339 31.4467 24.979 30.7468 24.0472C30.3461 23.5138 29.7073 22.8047 28.7897 22.8047ZM29.6223 26.5868C28.4416 27.2274 29.1953 28.5797 29.8023 29.3834C30.1424 29.8338 34.911 37.0702 34.911 37.0702L33.0998 37.7429C33.0998 37.7429 29.2713 32.4655 27.6238 30.31C25.9763 28.1545 25.8039 30.0019 24.6668 27.2591C23.9582 25.55 26.2895 26.3527 27.3252 25.682C27.8715 25.3282 28.1428 24.019 28.7897 24.019C29.046 24.019 29.3613 24.2246 29.7759 24.7765C30.9646 26.359 29.6223 26.5868 29.6223 26.5868Z" fill="#134A85"/>
<path d="M25.1936 24.0168C26.6234 23.2103 27.4345 21.8979 27.31 20.592C27.1997 19.4375 26.3901 18.5251 25.088 18.0886C20.9774 16.7108 18.1012 15.3443 16.9891 14.2407C16.9326 14.1846 16.8655 14.1401 16.7917 14.1098C16.7179 14.0796 16.6389 14.0642 16.5592 14.0645C16.4794 14.0647 16.4005 14.0807 16.327 14.1115C16.2534 14.1423 16.1866 14.1873 16.1305 14.2439C16.0743 14.3004 16.0298 14.3675 15.9996 14.4413C15.9693 14.5151 15.9539 14.5941 15.9542 14.6738C15.9545 14.7536 15.9705 14.8325 16.0012 14.906C16.032 14.9796 16.077 15.0464 16.1336 15.1025C17.725 16.6819 21.6717 18.2242 24.7021 19.24C25.5407 19.5211 26.0376 20.0422 26.101 20.7072C26.1781 21.5164 25.5879 22.4003 24.5971 22.9591C24.2427 23.158 23.8243 23.2097 23.4321 23.1031C23.0399 22.9965 22.7053 22.7401 22.5003 22.3891C22.3562 22.1524 22.2272 21.9307 22.1054 21.7215C21.514 20.7041 21.0465 19.9004 19.8766 19.1662C18.271 18.1939 16.5288 17.4676 14.7079 17.0116C14.6301 16.9936 14.5496 16.9911 14.4709 17.0042C14.3921 17.0174 14.3168 17.046 14.2491 17.0883C14.1814 17.1306 14.1227 17.1859 14.0764 17.2509C14.0301 17.3159 13.9971 17.3895 13.9792 17.4673C13.9614 17.5451 13.9591 17.6256 13.9724 17.7043C13.9857 17.783 14.0144 17.8583 14.0569 17.9259C14.0993 17.9935 14.1547 18.0521 14.2198 18.0983C14.2849 18.1445 14.3585 18.1773 14.4364 18.195C16.1238 18.6235 17.7392 19.2972 19.231 20.1946C20.1473 20.7698 20.5087 21.3913 21.0556 22.3319C21.1813 22.5478 21.3144 22.7768 21.4633 23.0209C21.7103 23.4306 22.0572 23.7709 22.4715 24.0102C22.8858 24.2494 23.3539 24.3796 23.8322 24.3887C24.3106 24.3852 24.7798 24.257 25.1936 24.0168Z" fill="#134A85"/>
<path d="M13.09 22.2909C13.0141 22.266 12.9341 22.2564 12.8545 22.2625C12.7749 22.2687 12.6973 22.2904 12.6261 22.3266C12.5549 22.3627 12.4915 22.4126 12.4397 22.4733C12.3878 22.5339 12.3484 22.6042 12.3237 22.6802C12.299 22.7561 12.2895 22.8361 12.2958 22.9157C12.3021 22.9953 12.3241 23.0729 12.3604 23.144C12.3967 23.2151 12.4467 23.2783 12.5075 23.3301C12.5683 23.3818 12.6387 23.4211 12.7146 23.4456C15.828 24.4574 18.0055 25.4822 18.846 26.3311C18.9021 26.3878 18.9688 26.4329 19.0423 26.4638C19.1158 26.4947 19.1947 26.5108 19.2744 26.5112C19.3542 26.5117 19.4332 26.4963 19.5071 26.4662C19.5809 26.436 19.6481 26.3916 19.7047 26.3355C19.7614 26.2794 19.8064 26.2127 19.8373 26.1391C19.8682 26.0656 19.8842 25.9867 19.8846 25.907C19.885 25.8272 19.8696 25.7482 19.8394 25.6744C19.8092 25.6005 19.7648 25.5334 19.7087 25.4768C18.4603 24.2156 15.4204 23.0482 13.09 22.2909Z" fill="#134A85"/>
<path d="M19.885 22.7364C18.8692 22.4369 17.9148 21.9588 17.0666 21.3247C16.9389 21.2267 16.7775 21.1834 16.618 21.2044C16.4584 21.2254 16.3137 21.3088 16.2156 21.4364C16.1175 21.564 16.0741 21.7254 16.095 21.885C16.1158 22.0446 16.1991 22.1894 16.3267 22.2875C17.3038 23.0213 18.406 23.5715 19.5797 23.9115C19.6569 23.9317 19.7373 23.9365 19.8163 23.9255C19.8954 23.9146 19.9715 23.8882 20.0403 23.8478C20.1091 23.8074 20.1693 23.7539 20.2174 23.6902C20.2655 23.6266 20.3006 23.5541 20.3207 23.4768C20.3408 23.3996 20.3454 23.3192 20.3344 23.2402C20.3233 23.1611 20.2968 23.0851 20.2564 23.0163C20.2159 22.9475 20.1623 22.8874 20.0986 22.8394C20.0348 22.7913 19.9623 22.7563 19.885 22.7364Z" fill="#134A85"/>
<path d="M29.7507 10.4219C29.5897 10.4219 29.4353 10.4859 29.3214 10.5997C29.2075 10.7136 29.1436 10.868 29.1436 11.029V15.279C29.1436 15.44 29.2075 15.5945 29.3214 15.7083C29.4352 15.8222 29.5897 15.8862 29.7507 15.8862C29.9117 15.8862 30.0662 15.8222 30.18 15.7083C30.2939 15.5945 30.3578 15.44 30.3578 15.279V11.029C30.3578 10.868 30.2939 10.7136 30.18 10.5997C30.0661 10.4859 29.9117 10.4219 29.7507 10.4219Z" fill="#134A85"/>
<path d="M37.947 19.5293H33.697C33.536 19.5293 33.3815 19.5933 33.2677 19.7071C33.1538 19.821 33.0898 19.9754 33.0898 20.1364C33.0898 20.2975 33.1538 20.4519 33.2677 20.5658C33.3815 20.6796 33.536 20.7436 33.697 20.7436H37.947C38.108 20.7436 38.2624 20.6796 38.3763 20.5658C38.4902 20.4519 38.5541 20.2975 38.5541 20.1364C38.5541 19.9754 38.4902 19.821 38.3763 19.7071C38.2624 19.5933 38.108 19.5293 37.947 19.5293Z" fill="#134A85"/>
<path d="M34.7329 14.8507C34.6765 14.7943 34.6096 14.7496 34.536 14.7191C34.4623 14.6886 34.3834 14.6729 34.3036 14.6729C34.2239 14.6729 34.145 14.6886 34.0713 14.7191C33.9977 14.7496 33.9307 14.7943 33.8744 14.8507L32.0529 16.6722C31.9965 16.7285 31.9518 16.7954 31.9213 16.8691C31.8907 16.9428 31.875 17.0217 31.875 17.1015C31.875 17.1812 31.8907 17.2602 31.9212 17.3338C31.9517 17.4075 31.9964 17.4744 32.0528 17.5308C32.1092 17.5872 32.1761 17.6319 32.2498 17.6624C32.3235 17.693 32.4024 17.7086 32.4822 17.7086C32.5619 17.7086 32.6409 17.6929 32.7145 17.6624C32.7882 17.6318 32.8551 17.5871 32.9115 17.5307L34.7329 15.7093C34.7893 15.6529 34.834 15.586 34.8646 15.5123C34.8951 15.4387 34.9108 15.3597 34.9108 15.28C34.9108 15.2003 34.8951 15.1213 34.8646 15.0477C34.834 14.974 34.7893 14.9071 34.7329 14.8507Z" fill="#134A85"/>
<path d="M0.607143 45.7885C0.942459 45.7885 1.21429 45.5167 1.21429 45.1814C1.21429 44.846 0.942459 44.5742 0.607143 44.5742C0.271827 44.5742 0 44.846 0 45.1814C0 45.5167 0.271827 45.7885 0.607143 45.7885Z" fill="#134A85"/>
<path d="M3.33915 44.5742H2.42843C2.26741 44.5742 2.11298 44.6382 1.99912 44.752C1.88526 44.8659 1.82129 45.0203 1.82129 45.1814C1.82129 45.3424 1.88526 45.4968 1.99912 45.6107C2.11298 45.7245 2.26741 45.7885 2.42843 45.7885H3.33915C3.50017 45.7885 3.6546 45.7245 3.76846 45.6107C3.88232 45.4968 3.94629 45.3424 3.94629 45.1814C3.94629 45.0203 3.88232 44.8659 3.76846 44.752C3.6546 44.6382 3.50017 44.5742 3.33915 44.5742Z" fill="#134A85"/>
<path d="M48.5716 44.5742H47.6609C47.4998 44.5742 47.3454 44.6382 47.2315 44.752C47.1177 44.8659 47.0537 45.0203 47.0537 45.1814C47.0537 45.3424 47.1177 45.4968 47.2315 45.6107C47.3454 45.7245 47.4998 45.7885 47.6609 45.7885H48.5716C48.7326 45.7885 48.887 45.7245 49.0009 45.6107C49.1147 45.4968 49.1787 45.3424 49.1787 45.1814C49.1787 45.0203 49.1147 44.8659 49.0009 44.752C48.887 44.6382 48.7326 44.5742 48.5716 44.5742Z" fill="#134A85"/>
<path d="M50.3933 45.7885C50.7286 45.7885 51.0004 45.5167 51.0004 45.1814C51.0004 44.846 50.7286 44.5742 50.3933 44.5742C50.058 44.5742 49.7861 44.846 49.7861 45.1814C49.7861 45.5167 50.058 45.7885 50.3933 45.7885Z" fill="#134A85"/>
<path d="M35.8686 47.0029H33.3466C33.1939 47.0152 33.0515 47.0844 32.9477 47.1969C32.8438 47.3095 32.7861 47.457 32.7861 47.6101C32.7861 47.7632 32.8438 47.9107 32.9477 48.0232C33.0515 48.1357 33.1939 48.205 33.3466 48.2172H35.8686C36.0212 48.205 36.1636 48.1357 36.2675 48.0232C36.3713 47.9107 36.429 47.7632 36.429 47.6101C36.429 47.457 36.3713 47.3095 36.2675 47.1969C36.1636 47.0844 36.0212 47.0152 35.8686 47.0029Z" fill="#134A85"/>
<path d="M17.6537 47.0029H15.1317C14.9791 47.0152 14.8367 47.0844 14.7328 47.1969C14.629 47.3095 14.5713 47.457 14.5713 47.6101C14.5713 47.7632 14.629 47.9107 14.7328 48.0232C14.8367 48.1357 14.9791 48.205 15.1317 48.2172H17.6537C17.8064 48.205 17.9488 48.1357 18.0526 48.0232C18.1565 47.9107 18.2142 47.7632 18.2142 47.6101C18.2142 47.457 18.1565 47.3095 18.0526 47.1969C17.9488 47.0844 17.8064 47.0152 17.6537 47.0029Z" fill="#134A85"/>
<path d="M31.5713 47.0029H19.4284C19.2674 47.0029 19.113 47.0669 18.9991 47.1808C18.8853 47.2946 18.8213 47.449 18.8213 47.6101C18.8213 47.7711 18.8853 47.9255 18.9991 48.0394C19.113 48.1532 19.2674 48.2172 19.4284 48.2172H24.2674V48.8244H21.857C21.696 48.8244 21.5415 48.8883 21.4277 49.0022C21.3138 49.116 21.2499 49.2705 21.2499 49.4315C21.2499 49.5925 21.3138 49.747 21.4277 49.8608C21.5415 49.9747 21.696 50.0386 21.857 50.0386H29.4463C29.6073 50.0386 29.7617 49.9747 29.8756 49.8608C29.9895 49.747 30.0534 49.5925 30.0534 49.4315C30.0534 49.2705 29.9895 49.116 29.8756 49.0022C29.7617 48.8883 29.6073 48.8244 29.4463 48.8244H26.7324V48.2172H31.5713C31.7323 48.2172 31.8867 48.1532 32.0006 48.0394C32.1145 47.9255 32.1784 47.7711 32.1784 47.6101C32.1784 47.449 32.1145 47.2946 32.0006 47.1808C31.8867 47.0669 31.7323 47.0029 31.5713 47.0029Z" fill="#134A85"/>
<path d="M45.7547 44.5746H32.2581C36.5308 42.9893 40.1104 39.9525 42.3707 35.9952C44.631 32.0378 45.4282 27.4119 44.6229 22.9262C43.8176 18.4406 41.4611 14.3807 37.9654 11.4567C34.4697 8.53275 30.0574 6.93066 25.5 6.93066C20.9427 6.93066 16.5303 8.53275 13.0347 11.4567C9.53899 14.3807 7.18246 18.4406 6.37717 22.9262C5.57188 27.4119 6.3691 32.0378 8.6294 35.9952C10.8897 39.9525 14.4692 42.9893 18.742 44.5746H5.24534C5.15897 44.5633 5.07118 44.5706 4.98784 44.5959C4.9045 44.6213 4.82753 44.6641 4.76207 44.7216C4.69661 44.779 4.64416 44.8498 4.60823 44.9291C4.5723 45.0085 4.55371 45.0946 4.55371 45.1817C4.55371 45.2688 4.5723 45.3549 4.60823 45.4343C4.64416 45.5136 4.69661 45.5844 4.76207 45.6419C4.82753 45.6993 4.9045 45.7422 4.98784 45.7675C5.07118 45.7929 5.15897 45.8001 5.24534 45.7889H45.7547C45.8411 45.8001 45.9289 45.7929 46.0122 45.7675C46.0956 45.7422 46.1725 45.6993 46.238 45.6419C46.3035 45.5844 46.3559 45.5136 46.3918 45.4343C46.4278 45.3549 46.4463 45.2688 46.4463 45.1817C46.4463 45.0946 46.4278 45.0085 46.3918 44.9291C46.3559 44.8498 46.3035 44.779 46.238 44.7216C46.1725 44.6641 46.0956 44.6213 46.0122 44.5959C45.9289 44.5706 45.8411 44.5633 45.7547 44.5746ZM25.5 8.146C28.883 8.14417 32.1995 9.08501 35.0775 10.863C37.9555 12.6409 40.2812 15.1856 41.7937 18.2117C43.3061 21.2377 43.9454 24.6253 43.6399 27.9944C43.3344 31.3635 42.0962 34.5808 40.0642 37.2854L31.7218 20.6972C30.7497 18.773 29.1682 17.2245 27.2239 16.2932L15.8131 10.9467C18.7116 9.11436 22.0709 8.1431 25.5 8.146ZM14.6478 11.7417L26.7048 17.3908C28.4046 18.2058 29.787 19.5601 30.6367 21.2427L39.2233 38.3164C37.3442 40.473 34.9854 42.1588 32.3365 43.2383L25.5442 32.1415C24.5213 30.5489 23.0545 29.2907 21.3247 28.5222L7.69845 22.5127C8.6363 18.2002 11.1052 14.3736 14.6478 11.7417ZM7.28574 26.3603C7.28653 25.4841 7.35034 24.609 7.47666 23.742L20.8329 29.6324C22.3418 30.3023 23.6218 31.3988 24.5155 32.7869L31.1738 43.665C28.4389 44.5636 25.5298 44.8007 22.6854 44.357C19.841 43.9133 17.1423 42.8014 14.811 41.1126C12.4796 39.4237 10.582 37.2061 9.27383 34.6416C7.9657 32.0772 7.28436 29.2391 7.28574 26.3603Z" fill="#134A85"/>
</svg>
