<svg width="51" height="51" viewBox="0 0 51 51" fill="none" xmlns="http://www.w3.org/2000/svg">
<path d="M31.8057 48.1271H31.8054C31.512 48.1266 31.2745 47.8883 31.275 47.5948L31.2835 42.8427C31.2758 40.8166 31.2636 38.3407 31.2379 37.148L31.2379 37.148C31.2219 36.4034 31.232 35.5999 31.4248 34.8788C31.6378 34.0821 32.0527 33.459 32.6912 32.9818L32.6915 32.9816C33.583 32.3187 34.1219 31.1856 34.1219 29.9447C34.1219 27.9372 32.7193 26.3433 31.0407 26.3433C30.4466 26.3433 29.8673 26.5434 29.3648 26.9256C28.8741 27.3005 28.484 27.8286 28.2396 28.4546C28.133 28.7279 27.825 28.8632 27.5515 28.7564L31.8057 48.1271ZM31.8057 48.1271H31.8057H31.8057H31.8057H31.8057H31.8057H31.8058H31.8058H31.8058H31.8058H31.8058H31.8058H31.8059H31.8059H31.8059H31.8059H31.8059H31.8059H31.8059H31.806H31.806H31.806H31.806H31.806H31.806H31.806H31.8061H31.8061H31.8061H31.8061H31.8061H31.8061H31.8062H31.8062H31.8062H31.8062H31.8062H31.8062H31.8062H31.8063H31.8063H31.8063H31.8063H31.8063H31.8063H31.8063C32.0993 48.1271 32.3371 47.8898 32.3377 47.5967L32.3461 42.8434V42.8431L32.3461 42.841L32.3461 42.8404M31.8057 48.1271L32.3461 42.8404M28.7205 26.0806L28.7207 26.0805C29.4071 25.5581 30.2094 25.2807 31.0407 25.2807C32.163 25.2807 33.2121 25.7783 33.9946 26.6734C34.7634 27.5529 35.1845 28.7154 35.1845 29.9447C35.1845 31.51 34.4938 32.9655 33.3265 33.8336M28.7205 26.0806L33.3263 33.8338C33.3264 33.8337 33.3265 33.8337 33.3265 33.8336M28.7205 26.0806C28.0713 26.5766 27.5634 27.2645 27.2497 28.0683C27.1431 28.3417 27.2782 28.6497 27.5515 28.7564L28.7205 26.0806ZM33.3265 33.8336C32.4327 34.5017 32.2647 35.4647 32.3002 37.1251M33.3265 33.8336L32.3002 37.1251M32.3002 37.1251C32.3262 38.3274 32.3384 40.812 32.3461 42.8404M32.3002 37.1251L32.3461 42.8404" fill="#134A85" stroke="#134A85" stroke-width="0.3"/>
<path d="M25.6985 42.5662L25.6985 42.5661C25.7057 40.7441 25.718 38.3213 25.736 37.1285C25.7493 36.2371 25.7175 35.5817 25.5695 35.0632C25.424 34.5536 25.1651 34.1728 24.7096 33.8336L24.7095 33.8334C23.5448 32.9637 22.8559 31.5084 22.8559 29.9447C22.8559 28.7153 23.2761 27.5529 24.0435 26.6737M25.6985 42.5662L29.3148 26.0462L28.9897 25.8528C28.3746 25.4737 27.7031 25.2807 26.9955 25.2807C25.8733 25.2807 24.8249 25.7784 24.0435 26.6737M25.6985 42.5662L25.6839 47.5942C25.683 47.8873 25.9196 48.1256 26.2126 48.127L26.2129 48.127L26.2137 48.127L26.2152 48.1271C26.5079 48.127 26.7456 47.8902 26.7465 47.5973L26.761 42.5699C26.7682 40.7497 26.7806 38.3318 26.7985 37.1445L26.6485 37.1422L26.7985 37.1445C26.8237 35.4643 26.7431 34.023 25.3447 32.9816L25.2551 33.1019L25.3449 32.9817C24.4562 32.318 23.9185 31.1847 23.9185 29.9447C23.9185 27.937 25.3194 26.3433 26.9955 26.3433C27.5036 26.3433 27.9873 26.4825 28.4351 26.7592L28.4427 26.7638L28.4427 26.7638L28.4435 26.7643L28.7715 26.9594C28.7715 26.9594 28.7715 26.9594 28.7715 26.9594C29.0237 27.1095 29.3497 27.0266 29.4998 26.7745L25.6985 42.5662ZM24.0435 26.6737L24.1565 26.7724M24.0435 26.6737C24.0435 26.6737 24.0435 26.6737 24.0435 26.6737L24.1565 26.7724M24.1565 26.7724C23.4145 27.6225 23.0059 28.7492 23.0059 29.9447C23.0059 31.4658 23.6761 32.8745 24.7992 33.7133L24.1565 26.7724Z" fill="#134A85" stroke="#134A85" stroke-width="0.3"/>
<path d="M42.8229 13.6794L46.3461 10.3418C46.499 10.197 46.7403 10.2035 46.8851 10.3564M42.8229 13.6794L29.4899 23.6497C29.4905 23.6763 29.4939 23.7026 29.5 23.7284M42.8229 13.6794L42.8159 13.6862L42.8229 13.6794ZM46.8851 10.3564C47.03 10.5092 47.0234 10.7506 46.8706 10.8954M46.8851 10.3564L46.994 10.2532M46.8851 10.3564L46.994 10.2532L46.994 10.2532M46.8706 10.8954L43.3509 14.2297M46.8706 10.8954L46.9737 11.0043L43.4555 14.3373M46.8706 10.8954L46.9737 11.0043C47.1867 10.8025 47.1958 10.4662 46.994 10.2532M43.3509 14.2297C41.5604 16.0149 40.2709 17.2806 39.518 17.9917M43.3509 14.2297L43.4541 14.3386L43.4555 14.3373M43.3509 14.2297L43.4568 14.3359C43.4564 14.3363 43.4559 14.3368 43.4555 14.3373M39.518 17.9917C38.3752 19.0717 37.7013 19.9806 37.8731 21.1727M39.518 17.9917L39.621 18.1007M39.518 17.9917L39.621 18.1007C39.621 18.1007 39.621 18.1007 39.621 18.1007M37.8731 21.1727C38.0765 22.5585 37.5555 24.0289 36.4793 25.1051C35.6334 25.9509 34.5472 26.4585 33.4207 26.5342C33.3228 26.5407 33.2256 26.544 33.1292 26.544C32.0984 26.544 31.1619 26.1702 30.4671 25.4755C29.9917 25.0001 29.6573 24.396 29.5 23.7284M37.8731 21.1727L38.0216 21.1513C38.0215 21.1512 38.0215 21.151 38.0215 21.1509M37.8731 21.1727L38.0215 21.1509M29.5 23.7284L29.354 23.7628C29.3455 23.7269 29.3408 23.6902 29.3399 23.6532C29.3399 23.6532 29.3399 23.6532 29.3399 23.6532L29.3316 23.2911L29.3316 23.2911C29.3248 22.9977 29.5572 22.7544 29.8505 22.7477L29.8508 22.7477C30.1432 22.7414 30.3872 22.973 30.3939 23.2667L30.3939 23.2667L30.4009 23.5708C30.5242 24.0532 30.7698 24.4875 31.1125 24.8302C31.6808 25.3985 32.4767 25.683 33.3595 25.6236L33.3595 25.6236C34.2629 25.5629 35.1424 25.1514 35.8339 24.4597L35.94 24.5658L35.8339 24.4597C36.711 23.5827 37.131 22.4013 36.97 21.3042L36.97 21.3038C36.8564 20.5156 37.0127 19.7725 37.4408 19.0378L37.5669 19.1113L37.4408 19.0378C37.8301 18.3698 38.3979 17.7946 38.8912 17.3283L38.8912 17.3283C39.6381 16.6229 40.9225 15.3622 42.7098 13.5802C42.7099 13.5801 42.7099 13.5801 42.71 13.58L42.7191 13.5711L42.7197 13.5705L46.2429 10.2329L46.2429 10.2329C46.456 10.0311 46.7922 10.0402 46.994 10.2532V10.2532M29.5 23.7284L29.354 23.7628C29.5176 24.4569 29.8656 25.086 30.3611 25.5815C31.0857 26.3061 32.0612 26.694 33.1292 26.694C33.229 26.694 33.3296 26.6906 33.4308 26.6839L33.4308 26.6838C34.5958 26.6055 35.7155 26.081 36.5853 25.2111C37.6917 24.1048 38.2324 22.5881 38.0215 21.1509M38.0215 21.1509C37.8616 20.0404 38.4792 19.1798 39.621 18.1007M39.621 18.1007C40.3753 17.3882 41.6657 16.1218 43.4555 14.3373" fill="#134A85" stroke="#134A85" stroke-width="0.3"/>
<path d="M27.9744 16.5987L27.8683 16.4927C28.9747 15.3864 30.4913 14.8457 31.9292 15.0566C33.0485 15.2174 33.9405 14.569 34.9814 13.4586C35.5385 12.8613 36.8452 11.5287 38.5652 9.80375L43.9155 4.0205C44.1148 3.80512 44.4509 3.79202 44.6664 3.99131L44.6664 3.99131C44.8817 4.19058 44.8948 4.52674 44.6955 4.74213L39.3385 10.5326L39.3384 10.5327L27.9744 16.5987ZM27.9744 16.5987L27.8683 16.4927C26.9982 17.3628 26.4738 18.4828 26.3961 19.6481C26.3171 20.8334 26.7079 21.9269 27.5021 22.7211C28.1174 23.3364 28.9149 23.7111 29.8055 23.8059C29.9619 23.8234 30.1196 23.8321 30.2781 23.8321C30.8815 23.8321 31.4954 23.7064 32.078 23.4625C32.3487 23.3491 32.4762 23.0379 32.3629 22.7672C32.2496 22.4965 31.9383 22.369 31.6677 22.4823L31.6676 22.4823C31.0949 22.7221 30.4912 22.8136 29.9223 22.7497L29.9221 22.7497L29.9194 22.7494L29.9191 22.7493C29.2687 22.6803 28.6939 22.4101 28.2535 21.9697L28.1474 22.0758L27.9744 16.5987Z" fill="#134A85" stroke="#134A85" stroke-width="0.3"/>
<path d="M18.3817 25.7612L18.3817 25.7612C18.2138 24.1921 18.4117 22.5803 18.9542 21.0993C19.4965 19.6188 20.3861 18.2607 21.5272 17.1713L27.3538 11.6069L27.3539 11.6067L27.3541 11.6065L27.3548 11.6059L27.3567 11.604C27.6156 11.3606 27.8707 11.0949 28.1147 10.8143L28.1148 10.8141L32.1694 6.16128C32.8052 5.36358 33.222 4.83808 33.4804 4.51137C33.6097 4.34785 33.6993 4.23413 33.7568 4.16102L33.82 4.08067L33.8352 4.06118L33.8391 4.05624L33.8401 4.05492L33.8404 4.05456L33.8405 4.05444L33.8406 4.05436C34.0212 3.82306 34.355 3.78197 34.5863 3.96254M18.3817 25.7612L32.9932 6.83263C34.2677 5.23339 34.6695 4.7193 34.6782 4.70814C34.8587 4.47687 34.8176 4.14308 34.5863 3.96254M18.3817 25.7612L18.6212 27.9942C18.6504 28.2669 18.8808 28.4689 19.149 28.4689C19.1679 28.4689 19.1871 28.4679 19.2065 28.4658C19.498 28.4344 19.709 28.1726 19.6777 27.8809L19.4383 25.648C19.1336 22.8001 20.1889 19.918 22.261 17.9398L22.261 17.9398M18.3817 25.7612L22.261 17.9398M34.5863 3.96254L34.494 4.08077L34.5863 3.96254C34.5863 3.96254 34.5863 3.96254 34.5863 3.96254ZM32.9784 6.85042L32.9782 6.85062L28.9163 11.5118L32.9784 6.85042ZM32.9784 6.85042C32.9833 6.84477 32.9882 6.83886 32.9931 6.83269L32.9784 6.85042ZM22.261 17.9398L28.0857 12.3772C28.0858 12.3771 28.0859 12.377 28.0861 12.3768M22.261 17.9398L28.0861 12.3768M28.0861 12.3768C28.3706 12.1092 28.6499 11.8181 28.9162 11.5119L28.0861 12.3768Z" fill="#134A85" stroke="#134A85" stroke-width="0.3"/>
<path d="M38.029 47.5245L38.029 47.5244C38.0345 47.4842 38.5348 43.7978 38.5984 42.1686C38.7999 37.0145 37.729 32.1766 37.396 30.8171C37.0663 29.471 37.6944 28.0757 38.9223 27.4239M38.029 47.5245L38.9926 27.5564M38.029 47.5245C37.9894 47.8152 38.1929 48.083 38.4837 48.1226M38.029 47.5245L38.504 47.974M38.9223 27.4239L38.9926 27.5564M38.9223 27.4239C38.9223 27.4239 38.9223 27.4239 38.9223 27.4239L38.9926 27.5564M38.9223 27.4239C40.8742 26.3877 43.7303 24.6719 46.2628 22.3791M38.9926 27.5564C40.9503 26.5171 43.8182 24.7946 46.3635 22.4903M46.2628 22.3791L46.3635 22.4903M46.2628 22.3791C46.2628 22.3791 46.2628 22.3791 46.2628 22.3791L46.3635 22.4903M46.2628 22.3791C46.4803 22.1821 46.8163 22.1988 47.0133 22.4163L47.0133 22.4163C47.2102 22.6339 47.1935 22.9698 46.976 23.1668L46.8753 23.0556L46.976 23.1668C44.3598 25.5354 41.4223 27.2998 39.4205 28.3625C38.6219 28.7864 38.2144 29.692 38.4281 30.5643C38.7695 31.958 39.8672 36.9152 39.6603 42.2101C39.5944 43.894 39.1023 47.5179 39.0819 47.6679M46.3635 22.4903L38.9333 47.6477M39.0819 47.6679L38.9333 47.6477M39.0819 47.6679C39.0819 47.6679 39.0819 47.6679 39.0819 47.6679L38.9333 47.6477M39.0819 47.6679C39.0456 47.9345 38.8176 48.1276 38.5559 48.1276C38.5321 48.1276 38.508 48.126 38.4837 48.1226M38.9333 47.6477C38.9072 47.8389 38.7436 47.9776 38.5559 47.9776C38.5388 47.9776 38.5214 47.9764 38.504 47.974M38.4837 48.1226C38.4837 48.1226 38.4837 48.1227 38.4837 48.1227L38.504 47.974M38.4837 48.1226L38.504 47.974" fill="#134A85" stroke="#134A85" stroke-width="0.3"/>
<path d="M25.0667 20.7518L25.0667 20.7518C24.4914 21.2833 24.0325 21.9757 23.7377 22.7534C23.4321 23.5598 23.3088 24.4477 23.3807 25.3218C23.4035 25.5995 23.6359 25.8096 23.9098 25.8096C23.9244 25.8096 23.939 25.8089 23.9535 25.8078L23.9537 25.8078C24.2462 25.7837 24.4638 25.5271 24.4397 25.2347L24.2902 25.247L24.4397 25.2347C24.3218 23.8004 24.8298 22.4174 25.7878 21.5323L25.7878 21.5323C26.0033 21.3332 26.0166 20.997 25.8175 20.7815L25.8175 20.7815C25.6183 20.566 25.2822 20.5527 25.0667 20.7518Z" fill="#134A85" stroke="#134A85" stroke-width="0.3"/>
<path d="M13.1283 48.1306L13.1283 48.1306C13.158 48.1309 13.1875 48.131 13.2172 48.131C14.5734 48.131 15.9019 47.8663 17.1663 47.3441C18.4585 46.8105 19.6082 46.0393 20.5828 45.0522C21.5239 44.0991 22.2629 42.9857 22.779 41.7436C23.295 40.5014 23.5626 39.1922 23.574 37.8528C23.5858 36.4657 23.3211 35.1068 22.7875 33.8147C22.2539 32.5225 21.4827 31.3728 20.4956 30.3982C19.5424 29.4571 18.4291 28.7181 17.1869 28.2021C15.9448 27.686 14.6356 27.4184 13.2961 27.407L13.2961 27.407C11.9094 27.3955 10.5502 27.6599 9.25804 28.1935C7.96585 28.7271 6.81619 29.4983 5.84157 30.4854C4.90047 31.4386 4.16151 32.5519 3.64543 33.7941L3.78395 33.8516L3.64543 33.7941C3.12937 35.0362 2.86178 36.3454 2.85038 37.6849C2.83856 39.072 3.10328 40.4308 3.63691 41.723C4.17051 43.0151 4.94168 44.1648 5.92878 45.1394L6.03417 45.0327L5.92878 45.1394C6.88197 46.0805 7.99532 46.8195 9.23746 47.3356C10.4796 47.8517 11.7888 48.1192 13.1283 48.1306ZM9.66365 29.1757C10.8086 28.7029 12.0106 28.4667 13.2124 28.4667C14.4206 28.4667 15.6291 28.7055 16.7792 29.1833C19.0728 30.1362 20.8574 31.9247 21.8053 34.2202C22.7533 36.5158 22.7506 39.0423 21.7977 41.3359C20.8448 43.6294 19.0563 45.414 16.7608 46.3619C15.6158 46.8348 14.4138 47.071 13.2121 47.0709C12.0038 47.0709 10.7953 46.8321 9.64515 46.3543C7.35163 45.4014 5.56703 43.6129 4.61907 41.3174C3.6711 39.0218 3.67383 36.4953 4.62674 34.2018C5.57965 31.9082 7.36808 30.1236 9.66365 29.1757Z" fill="#134A85" stroke="#134A85" stroke-width="0.3"/>
<path d="M10.0757 40.829C10.9069 41.6602 12.0127 42.1182 13.1882 42.1182C14.3636 42.1182 15.4695 41.6602 16.3007 40.829C17.1318 39.9978 17.5899 38.892 17.5899 37.7165C17.5899 36.5411 17.1318 35.4352 16.3007 34.6041C15.4695 33.7729 14.3636 33.3148 13.1882 33.3148C12.0127 33.3148 10.9069 33.7729 10.0757 34.6041C9.24458 35.4352 8.78652 36.5411 8.78652 37.7165C8.78652 38.892 9.24458 39.9978 10.0757 40.829ZM9.84915 37.7165C9.84915 35.8755 11.3472 34.3775 13.1882 34.3775C15.0292 34.3775 16.5272 35.8755 16.5272 37.7165C16.5272 39.5576 15.0292 41.0556 13.1882 41.0556C11.3472 41.0556 9.84915 39.5576 9.84915 37.7165Z" fill="#134A85" stroke="#134A85" stroke-width="0.3"/>
<path d="M12.6557 33.8458C12.6557 34.1392 12.8935 34.3771 13.187 34.3771C13.4804 34.3771 13.7183 34.1392 13.7183 33.8458V31.6879C13.7183 31.3945 13.4804 31.1566 13.187 31.1566C12.8935 31.1566 12.6557 31.3945 12.6557 31.6879V33.8458Z" fill="#134A85" stroke="#134A85" stroke-width="0.3"/>
<path d="M12.2846 32.2193H14.0923C14.3857 32.2193 14.6236 31.9814 14.6236 31.6879C14.6236 31.3945 14.3857 31.1566 14.0923 31.1566H12.2846C11.9912 31.1566 11.7533 31.3945 11.7533 31.6879C11.7533 31.9814 11.9912 32.2193 12.2846 32.2193Z" fill="#134A85" stroke="#134A85" stroke-width="0.3"/>
<path d="M15.5486 35.3561L15.5486 35.3561C15.6523 35.4598 15.7885 35.5117 15.9243 35.5117C16.06 35.5117 16.1963 35.4598 16.3 35.3561L16.3 35.3561L17.8258 33.8303L17.8258 33.8302C18.0333 33.6227 18.0333 33.2864 17.8258 33.0789L17.8258 33.0789C17.6183 32.8714 17.2819 32.8714 17.0744 33.0789L15.5486 34.6047L15.5486 34.6047C15.3411 34.8122 15.3411 35.1486 15.5486 35.3561Z" fill="#134A85" stroke="#134A85" stroke-width="0.3"/>
<path d="M17.7135 34.4688L17.7135 34.4688C17.8172 34.5725 17.9535 34.6244 18.0892 34.6244C18.2249 34.6244 18.3612 34.5726 18.4649 34.4688L18.4649 34.4688C18.6724 34.2613 18.6724 33.9249 18.4649 33.7174L17.1867 32.4392L17.1867 32.4392C16.9792 32.2317 16.6428 32.2317 16.4353 32.4392L16.4353 32.4392C16.2278 32.6467 16.2278 32.9831 16.4353 33.1906L16.4353 33.1906L17.7135 34.4688Z" fill="#134A85" stroke="#134A85" stroke-width="0.3"/>
<path d="M17.0571 38.2466H19.2149C19.5083 38.2466 19.7462 38.0087 19.7462 37.7153C19.7462 37.4219 19.5083 37.184 19.2149 37.184H17.0571C16.7637 37.184 16.5258 37.4219 16.5258 37.7153C16.5258 38.0087 16.7637 38.2466 17.0571 38.2466Z" fill="#134A85" stroke="#134A85" stroke-width="0.3"/>
<path d="M19.7476 38.6206V38.6206V36.813C19.7476 36.5195 19.5097 36.2816 19.2163 36.2816C18.9228 36.2816 18.685 36.5195 18.685 36.813V38.6206C18.685 38.9141 18.9228 39.1519 19.2163 39.1519C19.5097 39.1519 19.7476 38.914 19.7476 38.6206Z" fill="#134A85" stroke="#134A85" stroke-width="0.3"/>
<path d="M17.0744 42.3541L17.0744 42.3541C17.1781 42.4578 17.3143 42.5097 17.4501 42.5097C17.5858 42.5097 17.7221 42.4578 17.8258 42.3541L17.8258 42.3541C18.0333 42.1466 18.0333 41.8102 17.8258 41.6027L16.3 40.0769L16.3 40.0769C16.0925 39.8694 15.7561 39.8694 15.5486 40.0769L15.5486 40.0769C15.3411 40.2844 15.3411 40.6208 15.5486 40.8283L17.0744 42.3541Z" fill="#134A85" stroke="#134A85" stroke-width="0.3"/>
<path d="M16.4353 42.9932L16.4353 42.9932C16.539 43.0969 16.6753 43.1488 16.811 43.1488C16.9468 43.1488 17.083 43.0969 17.1867 42.9932L17.1867 42.9932L18.4649 41.715L18.4649 41.715C18.6724 41.5075 18.6724 41.1711 18.4649 40.9636L18.4649 40.9636C18.2574 40.7561 17.921 40.7561 17.7135 40.9636L16.4353 42.2418L16.4353 42.2418C16.2278 42.4493 16.2278 42.7857 16.4353 42.9932Z" fill="#134A85" stroke="#134A85" stroke-width="0.3"/>
<path d="M12.6557 43.7432C12.6557 44.0366 12.8935 44.2745 13.187 44.2745C13.4804 44.2745 13.7183 44.0366 13.7183 43.7432V41.5854C13.7183 41.292 13.4804 41.0541 13.187 41.0541C12.8935 41.0541 12.6557 41.292 12.6557 41.5854V43.7432Z" fill="#134A85" stroke="#134A85" stroke-width="0.3"/>
<path d="M12.2846 44.2759H14.0923C14.3857 44.2759 14.6236 44.038 14.6236 43.7446C14.6236 43.4512 14.3857 43.2133 14.0923 43.2133H12.2846C11.9912 43.2133 11.7533 43.4512 11.7533 43.7446C11.7533 44.038 11.9912 44.2759 12.2846 44.2759Z" fill="#134A85" stroke="#134A85" stroke-width="0.3"/>
<path d="M8.55054 42.3541L8.55055 42.3541C8.65427 42.4578 8.79049 42.5097 8.92624 42.5097C9.06198 42.5097 9.19821 42.4578 9.30192 42.3541L9.30194 42.3541L10.8277 40.8283L10.8277 40.8283C11.0352 40.6208 11.0352 40.2844 10.8277 40.0769L10.8277 40.0769C10.6202 39.8694 10.2838 39.8694 10.0763 40.0769L8.55054 41.6027L8.55053 41.6027C8.34305 41.8102 8.34305 42.1466 8.55054 42.3541Z" fill="#134A85" stroke="#134A85" stroke-width="0.3"/>
<path d="M9.18911 42.9932L9.18912 42.9932C9.29283 43.0969 9.42905 43.1488 9.5648 43.1488C9.70055 43.1488 9.83678 43.0969 9.94049 42.9932L9.94051 42.9932C10.148 42.7857 10.148 42.4493 9.9405 42.2418L8.66229 40.9636L8.66228 40.9636C8.45478 40.7561 8.11839 40.7561 7.91089 40.9636L7.91089 40.9636C7.70341 41.1711 7.7034 41.5075 7.91089 41.715L9.18911 42.9932Z" fill="#134A85" stroke="#134A85" stroke-width="0.3"/>
<path d="M7.15963 38.2466H9.31744C9.61088 38.2466 9.84875 38.0087 9.84875 37.7153C9.84875 37.4219 9.61088 37.184 9.31744 37.184H7.15963C6.8662 37.184 6.62832 37.4219 6.62832 37.7153C6.62832 38.0087 6.8662 38.2466 7.15963 38.2466Z" fill="#134A85" stroke="#134A85" stroke-width="0.3"/>
<path d="M6.62832 38.6206C6.62832 38.9141 6.8662 39.1519 7.15963 39.1519C7.45307 39.1519 7.69094 38.914 7.69094 38.6206V36.813C7.69094 36.5195 7.45307 36.2816 7.15963 36.2816C6.8662 36.2816 6.62832 36.5195 6.62832 36.813V38.6206Z" fill="#134A85" stroke="#134A85" stroke-width="0.3"/>
<path d="M10.0763 35.3561L10.0764 35.3561C10.1801 35.4598 10.3163 35.5117 10.452 35.5117C10.5878 35.5117 10.724 35.4598 10.8277 35.3561L10.8277 35.3561C11.0352 35.1485 11.0352 34.8122 10.8277 34.6047L9.30194 33.0789L9.30193 33.0789C9.09443 32.8714 8.75803 32.8714 8.55054 33.0789L8.55053 33.0789C8.34305 33.2864 8.34305 33.6228 8.55054 33.8303L10.0763 35.3561Z" fill="#134A85" stroke="#134A85" stroke-width="0.3"/>
<path d="M7.91089 34.4688L7.9109 34.4688C8.01462 34.5725 8.15084 34.6244 8.28659 34.6244C8.42232 34.6244 8.55856 34.5726 8.66229 34.4688L9.9405 33.1906L9.94051 33.1906C10.148 32.9831 10.148 32.6467 9.9405 32.4392L9.94049 32.4392C9.73299 32.2317 9.3966 32.2317 9.18911 32.4392L9.29517 32.5453L9.18911 32.4392L7.91089 33.7174L7.91089 33.7174C7.70341 33.9249 7.7034 34.2613 7.91089 34.4688Z" fill="#134A85" stroke="#134A85" stroke-width="0.3"/>
</svg>
