<svg width="51" height="51" viewBox="0 0 51 51" fill="none" xmlns="http://www.w3.org/2000/svg">
<g clip-path="url(#clip0_3020_6520)">
<path d="M50.2529 0.969727C49.8402 0.969727 49.5058 1.30421 49.5058 1.7168V7.78799C49.5058 9.68744 48.9063 11.496 47.7724 13.0182C46.6351 14.5436 44.9612 15.6857 43.059 16.2344L41.3771 16.7203C40.3483 17.0167 39.5733 17.8565 39.3542 18.9123C39.182 19.7433 38.8348 20.5298 38.3217 21.2503L35.6046 25.0672C35.3655 25.4034 35.444 25.8699 35.78 26.109C35.9114 26.2026 36.0628 26.2476 36.2126 26.2476C36.4462 26.2476 36.6762 26.1384 36.822 25.9337L39.5389 22.1168C40.1728 21.2266 40.603 20.2504 40.8173 19.2155C40.9233 18.7045 41.2963 18.2985 41.7913 18.1558L43.4734 17.6698C45.6869 17.0314 47.639 15.6966 48.9705 13.911C50.2981 12.1288 51 10.0115 51 7.78799V1.7168C51 1.30421 50.6656 0.969727 50.2529 0.969727Z" fill="#134A85"/>
<path d="M30.0258 8.18684C29.8209 6.97389 29.0645 5.96565 28.0008 5.48652C26.8612 4.92413 25.5266 5.02045 24.4275 5.74531C23.5804 6.30392 23.0195 7.13376 22.8341 8.06202C21.2663 8.03393 19.7998 9.03112 19.29 10.5916C18.7234 12.3262 19.5358 14.2302 21.1796 15.0207C21.7572 15.2985 22.3831 15.4161 22.9995 15.3777L22.5657 16.4334C22.4088 16.815 22.5911 17.2515 22.9727 17.4084C23.0656 17.4465 23.1617 17.4647 23.2564 17.4647C23.5503 17.4647 23.829 17.29 23.9476 17.0014L24.3964 15.9093C24.8249 16.3753 25.3742 16.729 26.001 16.926C26.3603 17.0388 26.726 17.0928 27.0874 17.0928C28.4746 17.0927 29.7934 16.2973 30.4063 14.9871C30.9754 13.7708 30.82 12.3923 30.1063 11.3534L31.2646 11.1598C31.6715 11.0917 31.9463 10.7067 31.8782 10.2997C31.8101 9.89284 31.4258 9.61782 31.0181 9.68606L29.9322 9.86764C30.0873 9.33792 30.1232 8.76397 30.0258 8.18684ZM29.0532 14.3538C28.5963 15.3302 27.477 15.8232 26.4488 15.5004C25.7434 15.2788 25.2036 14.7226 25.0048 14.0127C24.8987 13.5993 24.3508 13.2917 23.898 13.5753C23.2675 13.9576 22.4933 13.9946 21.8273 13.6742C20.8556 13.2069 20.3754 12.0812 20.7104 11.0556C21.0682 9.96018 22.2176 9.33354 23.3265 9.62878C23.5583 9.69054 23.8053 9.63725 23.991 9.48564C24.1767 9.33414 24.2784 9.10264 24.2645 8.86338C24.2217 8.12707 24.59 7.42771 25.25 6.99262C25.9037 6.56161 26.688 6.50105 27.3483 6.83065C27.3584 6.83563 27.3684 6.84042 27.3787 6.845C27.9915 7.11743 28.4305 7.7121 28.5526 8.43566C28.675 9.16002 28.4566 9.86545 27.9686 10.3228C27.6312 10.626 27.6481 11.2868 28.1245 11.5253C29.1326 12.0695 29.5405 13.3118 29.0532 14.3538Z" fill="#134A85"/>
<path d="M35.8001 12.003C36.6619 12.3833 37.4255 12.963 38.0416 13.7112C38.5903 14.3782 39.4053 14.7472 40.253 14.7472C40.5251 14.7472 40.8006 14.7091 41.0718 14.6309L42.5991 14.1905C45.434 13.3719 47.4141 10.7391 47.4141 7.78799V1.7168C47.4141 1.30421 47.0797 0.969727 46.667 0.969727C46.2543 0.969727 45.9199 1.30421 45.9199 1.7168V7.78799C45.9199 10.0774 44.3838 12.1199 42.1848 12.7548L40.6574 13.1952C40.1145 13.3522 39.5409 13.182 39.1952 12.7616C38.2849 11.6561 37.1142 10.8463 35.7855 10.3958C35.3884 5.81363 31.9836 1.9959 27.3972 1.14374C26.9922 1.06804 26.6017 1.33599 26.5262 1.7417C26.4508 2.14731 26.7186 2.53728 27.1242 2.61268C31.2016 3.37031 34.1857 6.86989 34.324 10.9954C34.5156 15.9307 30.4647 20.142 25.4999 20.1251C20.6307 20.1251 16.6692 16.1636 16.6692 11.2944C16.6692 7.02638 19.7113 3.3732 23.9025 2.6078C24.3084 2.53369 24.5773 2.14462 24.5032 1.73871C24.4291 1.3328 24.0393 1.06396 23.6341 1.13797C19.0298 1.97877 15.6119 5.79919 15.2144 10.3958C13.8857 10.8463 12.7149 11.6562 11.8044 12.762C11.4591 13.182 10.8851 13.3521 10.3421 13.1951L8.81543 12.7549C6.61615 12.1199 5.08008 10.0774 5.08008 7.78799V1.7168C5.08008 1.30421 4.74559 0.969727 4.33301 0.969727C3.92043 0.969727 3.58594 1.30421 3.58594 1.7168V7.78799C3.58594 10.739 5.56597 13.3719 8.40125 14.1905L9.92777 14.6306C10.1992 14.709 10.4747 14.747 10.7471 14.747C11.5948 14.747 12.4097 14.378 12.9581 13.7114C13.5745 12.9629 14.3381 12.3832 15.1999 12.0029C15.5652 17.3668 20.045 21.6193 25.4999 21.6193C30.9549 21.6194 35.4347 17.3669 35.8001 12.003Z" fill="#134A85"/>
<path d="M18.5661 27.2501H18.549C18.046 27.2501 17.5606 27.326 17.103 27.4661L12.6784 21.2503C12.1647 20.5284 11.817 19.7402 11.6449 18.9076C11.426 17.8479 10.6475 17.0062 9.6129 16.7107L7.82173 16.2004C5.98214 15.6686 4.40224 14.5798 3.25274 13.0513C2.10216 11.5221 1.49414 9.70208 1.49414 7.78799V1.7168C1.49414 1.30421 1.15965 0.969727 0.74707 0.969727C0.334488 0.969727 0 1.30421 0 1.7168V7.78799C0 10.0287 0.711809 12.1593 2.05853 13.9495C3.40415 15.7388 5.2535 17.0134 7.40944 17.6367L9.20291 18.1476C9.70056 18.2897 10.0755 18.6968 10.1816 19.21C10.3958 20.2469 10.8263 21.2249 11.4611 22.1168L15.7399 28.1277C14.4483 29.0216 13.6001 30.5128 13.6001 32.1989C13.6001 33.0753 13.8337 33.9384 14.2757 34.6952L16.6465 38.7537C17.3047 39.8803 18.5243 40.5803 19.8291 40.5803C20.6493 40.5803 21.4076 40.3107 22.0205 39.8559V49.2843C22.0205 49.6968 22.355 50.0313 22.7676 50.0313C23.1802 50.0313 23.5147 49.6968 23.5147 49.2843L23.5149 32.199C23.515 29.4702 21.2949 27.2501 18.5661 27.2501ZM19.8291 39.0862C19.0532 39.0862 18.3281 38.67 17.9367 38L15.5659 33.9415C15.2573 33.4133 15.0942 32.8108 15.0942 32.199C15.0942 30.294 16.644 28.7443 18.5489 28.7443C20.4897 28.7244 22.1144 30.4078 22.0205 32.3845V36.9022C22.0165 38.1072 21.0351 39.0862 19.8291 39.0862Z" fill="#134A85"/>
<path d="M32.4511 27.2501C29.7735 27.2324 27.4734 29.4633 27.4852 32.1989L27.4853 49.2842C27.4853 49.6968 27.8196 50.0313 28.2323 50.0313C28.645 50.0313 28.9794 49.6968 28.9794 49.2842V39.8559C29.5924 40.3107 30.3507 40.5802 31.1709 40.5802C32.4758 40.5802 33.6952 39.8804 34.3534 38.7536L36.7243 34.695C37.1664 33.9383 37.4 33.0751 37.4 32.1988C37.4 29.4702 35.18 27.2501 32.4511 27.2501ZM35.4341 33.9416L33.0633 38C32.6718 38.67 31.9467 39.0862 31.1708 39.0862C29.9636 39.0862 28.9814 38.1051 28.9793 36.8984V32.3846C28.8718 30.4616 30.4764 28.726 32.4511 28.7443C34.356 28.7443 35.9058 30.2941 35.9058 32.199C35.9058 32.8107 35.7427 33.4132 35.4341 33.9416Z" fill="#134A85"/>
<path d="M21.2168 6.89844C21.6294 6.89844 21.9639 6.56396 21.9639 6.15137C21.9639 5.73877 21.6294 5.4043 21.2168 5.4043C20.8042 5.4043 20.4697 5.73877 20.4697 6.15137C20.4697 6.56396 20.8042 6.89844 21.2168 6.89844Z" fill="#134A85"/>
<path d="M22.7299 12.4951C23.1425 12.4951 23.4769 12.1606 23.4769 11.748C23.4769 11.3355 23.1425 11.001 22.7299 11.001C22.3173 11.001 21.9828 11.3355 21.9828 11.748C21.9828 12.1606 22.3173 12.4951 22.7299 12.4951Z" fill="#134A85"/>
<path d="M26.522 9.37793C26.9346 9.37793 27.269 9.04345 27.269 8.63086C27.269 8.21826 26.9346 7.88379 26.522 7.88379C26.1094 7.88379 25.7749 8.21826 25.7749 8.63086C25.7749 9.04345 26.1094 9.37793 26.522 9.37793Z" fill="#134A85"/>
<path d="M27.1685 14.332C27.5811 14.332 27.9155 13.9976 27.9155 13.585C27.9155 13.1724 27.5811 12.8379 27.1685 12.8379C26.7559 12.8379 26.4214 13.1724 26.4214 13.585C26.4214 13.9976 26.7559 14.332 27.1685 14.332Z" fill="#134A85"/>
</g>
<defs>
<clipPath id="clip0_3020_6520">
<rect width="51" height="51" fill="white"/>
</clipPath>
</defs>
</svg>
