<svg width="51" height="51" viewBox="0 0 51 51" fill="none" xmlns="http://www.w3.org/2000/svg">
<path d="M33.0544 11.2358C32.9986 10.7975 32.6001 10.4947 32.1619 10.5425C31.7236 10.5983 31.4128 10.9967 31.4686 11.435C31.5483 12.0884 31.5881 12.7578 31.5881 13.4272C31.5881 18.4953 24.99 25.3325 24.9103 25.4122L19.2445 31.5242L15.4275 27.6116L26.0817 15.7142C26.6076 15.1325 31.2136 9.93687 31.2136 7.10797C31.2136 4.48625 29.2772 2.22313 26.6236 1.71313C26.265 1.64141 25.8825 1.60156 25.492 1.60156C22.3364 1.60156 19.7704 4.07187 19.7704 7.10797C19.7704 8.47062 20.7905 10.5106 22.8065 13.1562C23.0695 13.5069 23.5715 13.5706 23.9222 13.3077C24.2728 13.0447 24.3365 12.5427 24.0736 12.192C23.3644 11.2597 22.7906 10.407 22.3444 9.65C22.958 9.33922 23.6592 9.11609 24.4003 9.00453C25.0936 8.89297 25.8745 8.89297 26.5678 9.00453C26.9981 9.07625 27.4125 8.78141 27.4842 8.34312C27.5559 7.91281 27.2611 7.49844 26.8228 7.42672C25.9622 7.28328 24.9979 7.29125 24.1533 7.42672C23.2528 7.56219 22.3922 7.83312 21.6272 8.22359C21.4519 7.78531 21.3483 7.40281 21.3483 7.10797C21.3483 4.94844 23.197 3.19531 25.4761 3.19531C25.755 3.19531 26.0339 3.21922 26.2969 3.275C28.2094 3.64156 29.6039 5.25125 29.6039 7.10797C29.6039 8.78141 26.7112 12.6223 24.8784 14.6464L13.7222 27.1016C13.4433 27.4123 13.4512 27.8905 13.7461 28.1933L18.6708 33.2375C18.8222 33.3889 19.0294 33.4766 19.2445 33.4766H19.2525C19.4676 33.4766 19.6748 33.3809 19.8262 33.2216L26.0419 26.5119C26.3287 26.217 33.1579 19.1488 33.1579 13.4272C33.1579 12.6941 33.1101 11.9609 33.0225 11.2437L33.0544 11.2358Z" fill="#134A85"/>
<path d="M19.4518 17.937C19.141 17.937 18.8382 17.7538 18.7107 17.443C18.113 15.9847 17.8022 14.63 17.8022 13.4188C17.8022 8.35064 19.8582 2.52548 24.3605 1.7047C24.7988 1.62501 25.2052 1.91189 25.2849 2.3422C25.3646 2.77251 25.0777 3.18689 24.6474 3.26658C21.1969 3.89611 19.396 8.8447 19.396 13.4188C19.396 14.4228 19.659 15.5703 20.1769 16.8374C20.3443 17.2438 20.153 17.7139 19.7466 17.8813C19.651 17.9211 19.5474 17.945 19.4438 17.945L19.4518 17.937Z" fill="#134A85"/>
<path d="M31.7314 33.4685H31.7234C31.5083 33.4685 31.3011 33.3729 31.1497 33.2135L27.0856 28.8307C26.7828 28.5119 26.8067 28.0019 27.1254 27.7071C27.4442 27.4043 27.9542 27.4282 28.249 27.7469L31.7394 31.5161L35.5564 27.6035L31.58 23.1729C31.2851 22.8461 31.317 22.3441 31.6437 22.0493C31.9704 21.7544 32.4725 21.7863 32.7673 22.113L37.2378 27.1015C37.5167 27.4122 37.5087 27.8904 37.2139 28.1932L32.2892 33.2374C32.1378 33.3888 31.9306 33.4765 31.7154 33.4765L31.7314 33.4685Z" fill="#134A85"/>
<path d="M17.8183 36.186L11.1325 29.5002C10.0488 28.4244 8.27969 28.4244 7.18797 29.5002C6.66203 30.0261 6.36719 30.7274 6.36719 31.4764C6.36719 32.2255 6.65406 32.9188 7.18797 33.4447L11.1405 37.3972C11.2998 37.5566 11.4991 37.6283 11.7062 37.6283C11.9134 37.6283 12.1127 37.5486 12.272 37.3972C12.5828 37.0864 12.5828 36.5844 12.272 36.2736L8.31953 32.3211C8.09641 32.098 7.96891 31.7952 7.96891 31.4764C7.96891 31.1577 8.09641 30.8549 8.31953 30.6318C8.78969 30.1775 9.54672 30.1775 10.0089 30.6318L16.6947 37.3175C17.7466 38.3694 18.3283 39.7719 18.3283 41.2621V48.6172C18.3283 49.0555 18.6869 49.4141 19.1252 49.4141C19.5634 49.4141 19.922 49.0555 19.922 48.6172V41.2621C19.922 39.3496 19.173 37.5486 17.8183 36.1939V36.186Z" fill="#134A85"/>
<path d="M5.25156 36.1217C4.43078 35.2372 3.98453 34.0817 3.98453 32.8784V21.9134C3.98453 21.5787 4.12797 21.252 4.375 21.0289C4.63 20.7978 4.95672 20.6942 5.29938 20.7261C5.89703 20.7898 6.36719 21.3556 6.36719 22.025V26.9816C6.36719 27.4198 6.72578 27.7784 7.16406 27.7784C7.60234 27.7784 7.96094 27.4198 7.96094 26.9816V22.025C7.96094 20.5428 6.86125 19.2758 5.45875 19.1403C4.67781 19.0606 3.88891 19.3156 3.29922 19.8495C2.7175 20.3755 2.38281 21.1325 2.38281 21.9214V32.8864C2.38281 34.4961 2.98047 36.0261 4.07219 37.2134L9.33953 42.927C9.475 43.0784 9.55469 43.2697 9.55469 43.4689V48.6247C9.55469 49.063 9.91328 49.4216 10.3516 49.4216C10.7898 49.4216 11.1484 49.063 11.1484 48.6247V43.4689C11.1484 42.8633 10.9253 42.2895 10.5109 41.8512L5.24359 36.1376L5.25156 36.1217Z" fill="#134A85"/>
<path d="M43.8041 33.4527C44.3301 32.9268 44.6249 32.2255 44.6249 31.4764C44.6249 30.7274 44.338 30.0341 43.8041 29.5002C42.7204 28.4244 40.9513 28.4244 39.8596 29.5002L33.1738 36.186C31.8191 37.5407 31.0701 39.3416 31.0701 41.2541V48.6093C31.0701 49.0475 31.4287 49.4061 31.8669 49.4061C32.3052 49.4061 32.6638 49.0475 32.6638 48.6093V41.2541C32.6638 39.7639 33.2455 38.3614 34.2974 37.3096L40.9752 30.6318C41.4454 30.1696 42.2024 30.1696 42.6646 30.6318C42.8877 30.8549 43.0152 31.1577 43.0152 31.4764C43.0152 31.7952 42.8877 32.098 42.6646 32.3211L38.7121 36.2736C38.4013 36.5844 38.4013 37.0864 38.7121 37.3972C38.8715 37.5566 39.0707 37.6283 39.2779 37.6283C39.4851 37.6283 39.6843 37.5486 39.8437 37.3972L43.7962 33.4447L43.8041 33.4527Z" fill="#134A85"/>
<path d="M47.6928 19.8422C47.1111 19.3163 46.3222 19.0613 45.5413 19.133C44.1388 19.2764 43.0391 20.5434 43.0391 22.0177V26.9742C43.0391 27.4125 43.3977 27.7711 43.8359 27.7711C44.2742 27.7711 44.6328 27.4125 44.6328 26.9742V22.0177C44.6328 21.3483 45.103 20.7745 45.7006 20.7188C46.0433 20.6869 46.378 20.7905 46.625 21.0216C46.872 21.2447 47.0155 21.5714 47.0155 21.9061V32.8711C47.0155 34.0744 46.5692 35.2299 45.7484 36.1144L40.4811 41.828C40.0747 42.2742 39.8516 42.848 39.8516 43.4456V48.6014C39.8516 49.0397 40.2102 49.3983 40.6484 49.3983C41.0867 49.3983 41.4453 49.0397 41.4453 48.6014V43.4456C41.4453 43.2464 41.517 43.0552 41.6605 42.9038L46.9278 37.1902C48.0195 36.0108 48.6172 34.4728 48.6172 32.8631V21.8981C48.6172 21.1092 48.2825 20.3602 47.7008 19.8263L47.6928 19.8422Z" fill="#134A85"/>
</svg>
