<svg width="51" height="51" viewBox="0 0 51 51" fill="none" xmlns="http://www.w3.org/2000/svg">
<path d="M16.6898 27.3776C17.0552 27.1858 17.1958 26.7341 17.0041 26.3687C16.8122 26.0034 16.3607 25.8628 15.9951 26.0544C14.1537 27.0212 12.8838 28.9471 12.5999 31.1149C11.2236 31.6863 10.0977 32.7633 9.39672 34.191C9.21483 34.5615 9.36773 35.0092 9.73818 35.191C10.1005 35.3713 10.5557 35.2237 10.7382 34.8495C11.1704 33.9691 11.8069 33.2646 12.5788 32.7969C12.7343 34.2911 13.3473 35.6729 14.3438 36.7486C14.6248 37.0519 15.0977 37.0689 15.3998 36.7889C15.7026 36.5084 15.7205 36.0357 15.4401 35.733C13.1464 33.4226 13.7918 28.7997 16.6898 27.3776Z" fill="#134A85"/>
<path d="M45.9368 29.1685C46.328 27.6743 44.9348 26.2042 43.4528 26.6408C42.6105 26.8659 41.6105 26.4558 41.1773 25.7098C40.4404 24.3391 38.3372 24.3599 37.6222 25.7329C37.2113 26.4432 36.1937 26.863 35.3954 26.6518C33.9184 26.1941 32.429 27.6565 32.8682 29.139C33.0901 29.9644 32.6716 30.984 31.9379 31.4101C30.5691 32.1469 30.5772 34.2552 31.9594 34.9663C32.6707 35.377 33.0897 36.4006 32.8769 37.1979C32.4242 38.6735 33.8853 40.1599 35.3653 39.7204C36.192 39.4992 37.2115 39.9172 37.6365 40.6502C38.3728 42.0224 40.4766 42.0041 41.1932 40.6282C41.6041 39.917 42.6248 39.4976 43.416 39.7091C44.8926 40.1695 46.3859 38.7079 45.9475 37.2253C45.7273 36.3994 46.1329 35.3859 46.8516 34.9631C48.202 34.2563 48.2338 32.1481 46.8833 31.366C46.4144 31.0944 45.6561 30.241 45.9368 29.1685ZM46.1026 33.6701C44.8057 34.4502 44.1081 36.1271 44.503 37.6081C44.6282 37.9645 44.232 38.4188 43.8119 38.268C42.3592 37.8792 40.6379 38.5916 39.8939 39.8899C39.7453 40.2442 39.1284 40.308 38.9309 39.9033C38.1627 38.5776 36.4617 37.879 34.9809 38.2763C34.6275 38.4019 34.1711 38.0074 34.3189 37.5903C34.7078 36.1339 33.9958 34.4104 32.6979 33.6669C32.3429 33.5193 32.2809 32.9017 32.6856 32.7041C34.0114 31.9341 34.7103 30.2345 34.3123 28.7542C34.1837 28.3976 34.5925 27.9381 35.0051 28.0944C36.4562 28.4828 38.1765 27.7703 38.9213 26.472C39.0701 26.1178 39.6857 26.0539 39.8837 26.4576C40.6527 27.7822 42.3529 28.4817 43.8355 28.0854C44.1833 27.9599 44.6414 28.3531 44.4988 28.7622C44.0862 30.1686 44.8008 31.9335 46.1557 32.6712C46.4214 32.816 46.5397 33.4073 46.1026 33.6701Z" fill="#134A85"/>
<path d="M39.9116 31.6406C39.9116 30.5158 38.9965 29.6006 37.8716 29.6006C36.7468 29.6006 35.8315 30.5157 35.8315 31.6406C35.8315 32.7655 36.7467 33.6807 37.8716 33.6807C38.9965 33.6806 39.9116 32.7655 39.9116 31.6406ZM37.8716 32.1861C37.5708 32.1861 37.326 31.9414 37.326 31.6405C37.326 31.3397 37.5708 31.0949 37.8716 31.0949C38.1725 31.0949 38.4172 31.3397 38.4172 31.6405C38.4172 31.9414 38.1726 32.1861 37.8716 32.1861Z" fill="#134A85"/>
<path d="M48.4309 25.9032C48.1717 25.5822 47.7013 25.5321 47.3801 25.7915C47.0591 26.0508 47.0091 26.5214 47.2685 26.8423C48.7111 28.6281 49.5056 30.8795 49.5056 33.1815C49.5056 38.7498 44.9755 43.28 39.4071 43.28C33.8383 43.28 29.3076 38.7498 29.3076 33.1815C29.278 27.5877 33.9576 23.0432 39.4071 23.082C41.4211 23.082 43.3652 23.6729 45.0289 24.7911C45.3716 25.0215 45.8358 24.9303 46.0658 24.5878C46.296 24.2452 46.205 23.7809 45.8625 23.5508C43.6639 22.0662 40.983 21.3892 38.3348 21.6368C38.1415 19.0732 36.6642 16.4382 33.9811 15.6761C34.9699 11.7589 31.3459 6.97164 27.2084 7.68743C27.3288 3.40991 21.562 1.26283 19.3045 5.02159C17.0455 1.26123 11.2786 3.412 11.3996 7.68843C9.96338 7.47367 8.48837 7.86215 7.22672 8.81192C6.89701 9.06015 6.83097 9.52861 7.07909 9.85832C7.32742 10.1879 7.79558 10.2539 8.12549 10.0059C9.74643 8.7413 11.8132 8.90625 13.3244 10.1199C13.6437 10.3774 14.1151 10.3292 14.375 10.0062C14.6337 9.6848 14.5829 9.21435 14.2613 8.95566C13.8397 8.61629 13.3824 8.33948 12.8972 8.1292C12.674 3.57526 18.5303 3.39128 18.5566 7.68614V14.116C16.8544 15.6135 14.392 15.5846 12.7136 14.005C12.4133 13.7222 11.9403 13.7364 11.6573 14.037C11.3745 14.3375 11.3889 14.8104 11.6894 15.0933C13.6155 16.9023 16.3265 17.2249 18.5565 15.9486V21.5389C18.5565 21.9516 18.891 22.2861 19.3038 22.2861H19.3043H19.3048C19.7175 22.2861 20.052 21.9516 20.052 21.5389V15.9489C22.2819 17.2251 24.9928 16.9022 26.9189 15.0933C27.2194 14.8104 27.2339 14.3375 26.951 14.037C26.6682 13.7364 26.1951 13.7224 25.8947 14.005C24.2162 15.5845 21.7539 15.6135 20.0519 14.1161V7.68594C20.0783 3.39068 25.9347 3.57526 25.7103 8.1294C25.2255 8.33958 24.7685 8.61629 24.3469 8.95546C24.0254 9.21415 23.9744 9.6845 24.2332 10.006C24.4931 10.329 24.9646 10.3772 25.2838 10.1197C31.074 5.99587 35.6738 15.7961 30.0001 18.9291C29.6373 19.1257 29.5027 19.5793 29.6993 19.9421C29.897 20.3083 30.3565 20.4376 30.7123 20.2429C31.9447 19.5749 32.9453 18.451 33.5273 17.1021C35.6129 17.6749 36.7417 19.8135 36.8529 21.8709C31.6846 23.0372 27.813 27.6657 27.813 33.1814C27.813 37.0627 29.7305 40.5046 32.668 42.6099C31.3678 43.4515 29.5333 43.7657 27.7648 42.3559C27.31 41.9686 26.5501 42.321 26.5521 42.9184C26.4072 47.6966 20.1497 47.63 20.0519 42.8647V24.7955C20.0519 24.3829 19.7174 24.0483 19.3047 24.0483C19.3045 24.0483 19.3044 24.0483 19.3042 24.0483C19.304 24.0483 19.3039 24.0483 19.3037 24.0483C18.8909 24.0483 18.5564 24.3828 18.5564 24.7955V42.8649C18.4864 47.4645 12.5382 47.7318 12.0767 43.2696C12.6922 42.7145 13.2084 42.0257 13.5822 41.2572C13.7628 40.8861 13.6083 40.4389 13.237 40.2585C12.8658 40.0777 12.4188 40.2324 12.2383 40.6037C8.20388 47.7855 -0.234127 39.0962 5.35137 34.0802C5.66444 33.8114 5.7004 33.3396 5.43156 33.0266C5.16271 32.7135 4.69086 32.6775 4.37789 32.9464C3.97377 33.2934 3.61438 33.6912 3.3048 34.1332C-0.0725598 32.6165 1.56093 26.4511 5.44779 27.8339C5.82073 27.9875 6.26608 27.8077 6.42068 27.4213C6.57537 27.0387 6.39059 26.6032 6.00809 26.4485C5.23672 26.1347 4.38127 26.0587 3.56936 26.2292C0.504577 23.5869 1.36102 18.4175 5.08103 17.1027C5.66295 18.4513 6.66342 19.5749 7.89579 20.2429C8.2516 20.4376 8.71119 20.3083 8.90882 19.9421C9.10545 19.5793 8.97078 19.1257 8.608 18.9291C6.38093 17.7374 5.35655 14.6422 6.389 12.2808C6.54618 11.8992 6.3643 11.4625 5.98269 11.3053C5.60089 11.1484 5.1643 11.3301 5.00722 11.7117C4.48307 12.9841 4.35458 14.3654 4.62761 15.6787C0.219295 16.7493 -1.19237 23.872 2.03378 26.8555C-0.981396 28.8338 -0.514328 34.078 2.57864 35.4415C0.201764 40.8769 5.73546 46.7482 10.7172 44.2099C11.4591 48.2828 17.1872 49.3379 19.3043 45.6676C21.421 49.337 27.1451 48.2819 27.8895 44.2127C30.1142 45.3601 32.4356 44.7604 34.0417 43.4565C35.6469 44.298 37.4724 44.7743 39.407 44.7743C45.7994 44.7744 51 39.5738 51 33.1815C51 30.5388 50.0876 27.954 48.4309 25.9032Z" fill="#134A85"/>
<path d="M39.3989 37.0355C38.9862 37.0355 38.6516 36.7009 38.6516 36.2882C38.6516 35.8755 38.9862 35.541 39.3989 35.541C39.8116 35.541 40.146 35.8756 40.146 36.2882C40.1461 36.701 39.8116 37.0355 39.3989 37.0355Z" fill="#134A85"/>
<path d="M42.4398 33.928C42.0271 33.928 41.6926 33.5934 41.6926 33.1808C41.6926 32.7681 42.0272 32.4336 42.4398 32.4336C42.8525 32.4336 43.1871 32.7682 43.1871 33.1808C43.1871 33.5934 42.8526 33.928 42.4398 33.928Z" fill="#134A85"/>
</svg>
