<svg width="51" height="51" viewBox="0 0 51 51" fill="none" xmlns="http://www.w3.org/2000/svg">
<g clip-path="url(#clip0_3059_12789)">
<mask id="path-1-inside-1_3059_12789" fill="white">
<path d="M42.45 37.2661C40.5826 34.8651 39.368 32.0043 38.9378 28.9929C38.3237 24.6934 36.2222 20.7093 33.0206 17.7744C31.4459 16.3309 29.6586 15.1819 27.7367 14.3549V13.4211H31.1168C32.7613 13.4211 34.0992 12.0832 34.0992 10.4387V7.05862C34.0992 5.41411 32.7613 4.07619 31.1168 4.07619H27.7367V3.08204C27.7367 1.43753 26.3988 0.0996094 24.7543 0.0996094H21.3742C19.7297 0.0996094 18.3918 1.43753 18.3918 3.08204V6.77976C17.8673 6.57547 17.2976 6.46213 16.7017 6.46213C16.1058 6.46213 15.5362 6.57547 15.0117 6.77976V5.46799C15.0117 3.82348 13.6738 2.48556 12.0292 2.48556H8.64905C7.00454 2.48556 5.66662 3.82348 5.66662 5.46799V18.3919H2.98243C1.33792 18.3919 0 19.7298 0 21.3743V24.7544C0 26.3989 1.33792 27.7368 2.98243 27.7368H4.87131V29.8245C4.87131 31.3822 5.35217 32.8293 6.17224 34.0268C6.68095 36.3352 7.55927 38.5298 8.78724 40.5532C10.7002 43.7054 13.4097 46.3274 16.6229 48.1359C19.8361 49.9444 23.4834 50.9004 27.1706 50.9004H37.7469C41.8749 50.9004 45.2336 47.5419 45.2336 43.4137C45.2336 41.757 44.6735 40.1248 43.6566 38.8174L42.45 37.2661ZM21.3741 3.08204H24.7542V5.5674C24.7542 6.39095 25.4219 7.05862 26.2454 7.05862H31.1167V10.4387H26.2454C25.4219 10.4387 24.7542 11.1064 24.7542 11.9299V13.3585C23.6517 13.0905 22.5209 12.9218 21.3741 12.8566V3.08204ZM15.0116 11.1346C15.0116 10.2027 15.7697 9.44457 16.7016 9.44457C17.6335 9.44457 18.3917 10.2027 18.3917 11.1346V12.8247H15.0116V11.1346ZM7.85374 29.8245V26.2456C7.85374 25.4221 7.18607 24.7544 6.36252 24.7544H2.98243L2.98054 21.3744C2.98054 21.3744 2.98114 21.3743 2.98243 21.3743H6.76018C9.22695 21.3743 11.2338 23.3812 11.2338 25.8479V29.4269C11.2338 30.2504 11.9015 30.9181 12.725 30.9181H19.187V34.2982H12.3274C9.86062 34.2982 7.85374 32.2913 7.85374 29.8245ZM37.7469 47.9179H27.1707C25.8501 47.9179 24.5456 47.7717 23.2763 47.4952L24.974 46.0805C25.7573 45.4278 26.3311 44.5832 26.6506 43.6431H31.0173C31.8408 43.6431 32.5085 42.9755 32.5085 42.1519C32.5085 41.3284 31.8408 40.6607 31.0173 40.6607H26.9413C26.9413 39.0936 28.1211 38.0759 29.4267 38.0759C30.2502 38.0759 30.9179 37.4083 30.9179 36.5847C30.9179 35.7612 30.2502 35.0935 29.4267 35.0935C26.4117 35.0935 23.9589 37.5463 23.9589 40.5613V41.88C23.9589 42.6198 23.633 43.3157 23.0646 43.7893L19.9103 46.4179C16.3989 44.914 13.3636 42.3452 11.3369 39.0057C10.9416 38.3543 10.5888 37.682 10.2784 36.992C10.9299 37.1785 11.6168 37.2806 12.3274 37.2806H19.187C20.8315 37.2806 22.1694 35.9427 22.1694 34.2982V30.9181C22.1694 29.2736 20.8315 27.9356 19.187 27.9356H14.2163V25.8479C14.2163 22.3891 11.8486 19.4734 8.64905 18.6349V5.46799H12.0291V14.3159C12.0291 15.1394 12.6968 15.8071 13.5204 15.8071H20.2957C23.2455 15.8071 26.1003 16.6224 28.5743 18.14L26.9916 20.7778H23.8595C23.0359 20.7778 22.3682 21.4455 22.3682 22.269C22.3682 23.0926 23.0359 23.7602 23.8595 23.7602H26.3448V26.2456C26.3448 27.0692 27.0125 27.7368 27.836 27.7368C28.6596 27.7368 29.3273 27.0692 29.3273 26.2456V22.6821L30.9711 19.9423C30.9824 19.9527 30.9939 19.9626 31.0053 19.973C33.6998 22.4431 35.4685 25.7963 35.9853 29.4147C36.4889 32.9391 37.9103 36.2872 40.0958 39.0972L41.3024 40.6485C41.9142 41.435 42.2512 42.4172 42.2512 43.4138C42.2511 45.8974 40.2305 47.9179 37.7469 47.9179Z"/>
</mask>
<path d="M42.45 37.2661C40.5826 34.8651 39.368 32.0043 38.9378 28.9929C38.3237 24.6934 36.2222 20.7093 33.0206 17.7744C31.4459 16.3309 29.6586 15.1819 27.7367 14.3549V13.4211H31.1168C32.7613 13.4211 34.0992 12.0832 34.0992 10.4387V7.05862C34.0992 5.41411 32.7613 4.07619 31.1168 4.07619H27.7367V3.08204C27.7367 1.43753 26.3988 0.0996094 24.7543 0.0996094H21.3742C19.7297 0.0996094 18.3918 1.43753 18.3918 3.08204V6.77976C17.8673 6.57547 17.2976 6.46213 16.7017 6.46213C16.1058 6.46213 15.5362 6.57547 15.0117 6.77976V5.46799C15.0117 3.82348 13.6738 2.48556 12.0292 2.48556H8.64905C7.00454 2.48556 5.66662 3.82348 5.66662 5.46799V18.3919H2.98243C1.33792 18.3919 0 19.7298 0 21.3743V24.7544C0 26.3989 1.33792 27.7368 2.98243 27.7368H4.87131V29.8245C4.87131 31.3822 5.35217 32.8293 6.17224 34.0268C6.68095 36.3352 7.55927 38.5298 8.78724 40.5532C10.7002 43.7054 13.4097 46.3274 16.6229 48.1359C19.8361 49.9444 23.4834 50.9004 27.1706 50.9004H37.7469C41.8749 50.9004 45.2336 47.5419 45.2336 43.4137C45.2336 41.757 44.6735 40.1248 43.6566 38.8174L42.45 37.2661ZM21.3741 3.08204H24.7542V5.5674C24.7542 6.39095 25.4219 7.05862 26.2454 7.05862H31.1167V10.4387H26.2454C25.4219 10.4387 24.7542 11.1064 24.7542 11.9299V13.3585C23.6517 13.0905 22.5209 12.9218 21.3741 12.8566V3.08204ZM15.0116 11.1346C15.0116 10.2027 15.7697 9.44457 16.7016 9.44457C17.6335 9.44457 18.3917 10.2027 18.3917 11.1346V12.8247H15.0116V11.1346ZM7.85374 29.8245V26.2456C7.85374 25.4221 7.18607 24.7544 6.36252 24.7544H2.98243L2.98054 21.3744C2.98054 21.3744 2.98114 21.3743 2.98243 21.3743H6.76018C9.22695 21.3743 11.2338 23.3812 11.2338 25.8479V29.4269C11.2338 30.2504 11.9015 30.9181 12.725 30.9181H19.187V34.2982H12.3274C9.86062 34.2982 7.85374 32.2913 7.85374 29.8245ZM37.7469 47.9179H27.1707C25.8501 47.9179 24.5456 47.7717 23.2763 47.4952L24.974 46.0805C25.7573 45.4278 26.3311 44.5832 26.6506 43.6431H31.0173C31.8408 43.6431 32.5085 42.9755 32.5085 42.1519C32.5085 41.3284 31.8408 40.6607 31.0173 40.6607H26.9413C26.9413 39.0936 28.1211 38.0759 29.4267 38.0759C30.2502 38.0759 30.9179 37.4083 30.9179 36.5847C30.9179 35.7612 30.2502 35.0935 29.4267 35.0935C26.4117 35.0935 23.9589 37.5463 23.9589 40.5613V41.88C23.9589 42.6198 23.633 43.3157 23.0646 43.7893L19.9103 46.4179C16.3989 44.914 13.3636 42.3452 11.3369 39.0057C10.9416 38.3543 10.5888 37.682 10.2784 36.992C10.9299 37.1785 11.6168 37.2806 12.3274 37.2806H19.187C20.8315 37.2806 22.1694 35.9427 22.1694 34.2982V30.9181C22.1694 29.2736 20.8315 27.9356 19.187 27.9356H14.2163V25.8479C14.2163 22.3891 11.8486 19.4734 8.64905 18.6349V5.46799H12.0291V14.3159C12.0291 15.1394 12.6968 15.8071 13.5204 15.8071H20.2957C23.2455 15.8071 26.1003 16.6224 28.5743 18.14L26.9916 20.7778H23.8595C23.0359 20.7778 22.3682 21.4455 22.3682 22.269C22.3682 23.0926 23.0359 23.7602 23.8595 23.7602H26.3448V26.2456C26.3448 27.0692 27.0125 27.7368 27.836 27.7368C28.6596 27.7368 29.3273 27.0692 29.3273 26.2456V22.6821L30.9711 19.9423C30.9824 19.9527 30.9939 19.9626 31.0053 19.973C33.6998 22.4431 35.4685 25.7963 35.9853 29.4147C36.4889 32.9391 37.9103 36.2872 40.0958 39.0972L41.3024 40.6485C41.9142 41.435 42.2512 42.4172 42.2512 43.4138C42.2511 45.8974 40.2305 47.9179 37.7469 47.9179Z" fill="#134A85" stroke="white" stroke-width="1.4" mask="url(#path-1-inside-1_3059_12789)"/>
<path d="M49.1021 21.2996L49.1021 21.2996L46.9487 22.1199L46.4741 22.3007V21.7928V20.7754C46.4741 20.3967 46.2863 20.0428 45.9726 19.8304L49.1021 21.2996ZM49.1021 21.2996C49.6911 21.0752 50.3505 21.3708 50.5748 21.9598C50.7992 22.5487 50.5035 23.2081 49.9146 23.4325L45.7392 25.0231C45.7392 25.0231 45.7392 25.0231 45.7392 25.0231C45.3882 25.1567 44.9944 25.1093 44.6853 24.8963L44.6853 24.8963C44.3762 24.6834 44.1917 24.3321 44.1917 23.9567V22.9779V22.4609L43.7117 22.653L41.7803 23.4256C41.1947 23.6597 40.5308 23.375 40.2968 22.7899L40.2968 22.7898M49.1021 21.2996L40.2968 22.7898M40.2968 22.7898C40.0627 22.2047 40.3473 21.5406 40.9325 21.3065C40.9325 21.3065 40.9325 21.3064 40.9325 21.3064L44.909 19.7158L40.2968 22.7898ZM44.909 19.7158C45.2608 19.5751 45.6591 19.6181 45.9726 19.8304L44.909 19.7158Z" fill="#134A85" stroke="white" stroke-width="0.7"/>
<path d="M42.3486 14.7651L42.3486 14.7651L43.1681 12.8529L43.3717 12.3778L43.7373 12.7433L44.4293 13.4353C44.697 13.7031 45.0796 13.8206 45.4521 13.749C45.8238 13.6774 46.1359 13.426 46.2851 13.0779C46.2851 13.0779 46.2851 13.0779 46.2851 13.0779L47.9723 9.1413L47.9723 9.14127C48.2206 8.56204 47.9522 7.89109 47.373 7.64283L42.3486 14.7651ZM42.3486 14.7651C42.1004 15.3443 41.4295 15.6127 40.8501 15.3644M42.3486 14.7651L40.8501 15.3644M45.8744 8.24215L45.8744 8.24217L45.0549 10.1542L44.8513 10.6294L44.4858 10.2638L43.7937 9.5718C43.526 9.30408 43.1432 9.18652 42.771 9.25811L45.8744 8.24215ZM45.8744 8.24215C46.1226 7.6629 46.7935 7.39462 47.3729 7.64281L45.8744 8.24215ZM40.8501 15.3644C40.2709 15.1162 40.0025 14.4454 40.2507 13.8658C40.2508 13.8658 40.2508 13.8658 40.2508 13.8658L41.9379 9.92925L40.8501 15.3644ZM41.9379 9.92923C42.0871 9.58112 42.3992 9.32971 42.7709 9.25812L41.9379 9.92923Z" fill="#134A85" stroke="white" stroke-width="0.7"/>
</g>
<defs>
<clipPath id="clip0_3059_12789">
<rect width="51" height="51" fill="white"/>
</clipPath>
</defs>
</svg>
