<svg width="51" height="51" viewBox="0 0 51 51" fill="none" xmlns="http://www.w3.org/2000/svg">
<g clip-path="url(#clip0_3065_7564)">
<path d="M11.9072 50.0488C11.9072 50.0488 14.1882 47.1537 16.3375 46.8905C18.4869 46.6273 21.2065 44.7411 21.9961 43.9516C22.7856 43.162 31.8656 35.7052 31.8656 35.7052L35.568 31.9269L41.0836 27.6831C41.0836 27.6831 43.9826 25.7512 45.4814 24.7769C45.8229 24.5549 48.7164 22.2767 46.8412 19.25" stroke="#134A85" stroke-width="1.59375" stroke-miterlimit="10"/>
<path d="M32.4316 28.3089L39.4061 22.8807L45.9642 19.4262C49.7365 17.233 48.3833 14.6309 48.2013 14.3379L47.5872 13.3291" stroke="#134A85" stroke-width="1.59375" stroke-miterlimit="10"/>
<path d="M26.1482 19.4254L33.1885 14.1946L36.6099 12.8457L39.911 13.7229C40.6567 14.0738 43.2447 14.2492 43.9726 10.9726L37.042 7.24414L31.1642 7.94597L20.6365 14.8764L16.8203 16.0607" stroke="#134A85" stroke-width="1.59375" stroke-miterlimit="10"/>
<path d="M0.579102 37.16C1.75842 35.5789 2.54749 33.7415 2.88198 31.7976C3.53995 28.3761 5.86842 19.1061 5.86842 19.1061L8.80368 15.48L13.4845 6.43409L14.2814 3.18682V2.4668H15.0471C18.0079 2.4668 19.3275 5.06577 19.3275 8.09243C19.2636 10.1732 18.5731 12.1862 17.3463 13.8681L16.2716 17.8157C15.7351 19.8383 15.7889 21.9722 16.4266 23.9652" stroke="#134A85" stroke-width="1.59375" stroke-miterlimit="10"/>
<path d="M41.7086 9.73164L49.0339 7.71387L49.4866 8.70932C50.2965 10.1785 49.3245 12.2955 47.8668 13.1258L36.9386 18.1757L29.5693 23.6369" stroke="#134A85" stroke-width="1.59375" stroke-miterlimit="10"/>
<path d="M4.49414 42.7314C6.04714 41.139 18.794 30.3616 23.6191 17.0267L31.6024 11.4121" stroke="#134A85" stroke-width="1.59375" stroke-miterlimit="10"/>
</g>
<defs>
<clipPath id="clip0_3065_7564">
<rect width="51" height="51" fill="white"/>
</clipPath>
</defs>
</svg>
