<svg width="51" height="51" viewBox="0 0 51 51" fill="none" xmlns="http://www.w3.org/2000/svg">
<path d="M13.6873 8.10698C13.9665 8.07255 14.2295 7.95732 14.4441 7.77544C14.5327 7.71956 14.6094 7.64677 14.6698 7.56122C14.7303 7.47568 14.7732 7.37906 14.7963 7.27689C14.8193 7.17473 14.822 7.06902 14.8042 6.96581C14.7864 6.8626 14.7483 6.76393 14.6923 6.67542C14.6363 6.58692 14.5634 6.51032 14.4778 6.45002C14.3922 6.38971 14.2955 6.34688 14.1933 6.32398C14.0911 6.30107 13.9854 6.29854 13.8822 6.31652C13.779 6.33451 13.6804 6.37266 13.592 6.4288C13.4766 6.50175 13.3621 6.57554 13.2486 6.65017C13.072 6.76631 12.9488 6.94784 12.9061 7.15482C12.8634 7.3618 12.9046 7.57727 13.0208 7.75384C13.0948 7.86248 13.1941 7.95143 13.3103 8.01296C13.4265 8.0745 13.5559 8.10677 13.6873 8.10698Z" fill="#134A85"/>
<path d="M4.78125 25.3442C4.78125 25.3442 4.78221 25.0747 4.78396 24.9621C4.78592 24.8573 4.7672 24.7532 4.72887 24.6557C4.69054 24.5582 4.63335 24.4692 4.56058 24.3938C4.48781 24.3184 4.40089 24.2581 4.30479 24.2164C4.20869 24.1746 4.1053 24.1522 4.00054 24.1505C3.89578 24.1488 3.7917 24.1677 3.69427 24.2062C3.59684 24.2448 3.50796 24.3021 3.43273 24.3751C3.3575 24.448 3.29739 24.535 3.25584 24.6312C3.2143 24.7274 3.19213 24.8309 3.19061 24.9356C3.18846 25.0572 3.1875 25.3442 3.1875 25.3442C3.1875 25.5555 3.27146 25.7582 3.4209 25.9077C3.57034 26.0571 3.77303 26.1411 3.98438 26.1411C4.19572 26.1411 4.39841 26.0571 4.54785 25.9077C4.69729 25.7582 4.78125 25.5555 4.78125 25.3442Z" fill="#134A85"/>
<path d="M4.87229 19.1131C5.07245 19.1792 5.29052 19.164 5.47961 19.0709C5.66869 18.9778 5.81368 18.8142 5.88337 18.6153C5.92425 18.4949 5.96627 18.3751 6.00944 18.2558C6.04526 18.1574 6.06132 18.0528 6.0567 17.9482C6.05208 17.8435 6.02688 17.7408 5.98252 17.6459C5.93817 17.551 5.87554 17.4658 5.79822 17.3952C5.7209 17.3245 5.6304 17.2698 5.53191 17.2341C5.43342 17.1984 5.32886 17.1826 5.22422 17.1874C5.11958 17.1922 5.01691 17.2175 4.92209 17.262C4.82727 17.3066 4.74216 17.3693 4.67163 17.4468C4.60109 17.5242 4.54652 17.6148 4.51103 17.7134C4.46433 17.8424 4.41881 17.9719 4.37445 18.1021C4.30642 18.3022 4.32065 18.5211 4.41401 18.7107C4.50737 18.9003 4.67222 19.0451 4.87229 19.1131Z" fill="#134A85"/>
<path d="M4.13841 22.59C4.34673 22.6219 4.55923 22.5708 4.73028 22.4477C4.90133 22.3246 5.01726 22.1393 5.05318 21.9316C5.07342 21.8067 5.09495 21.6821 5.11777 21.5579C5.1559 21.35 5.10989 21.1355 4.98985 20.9615C4.86982 20.7876 4.68559 20.6684 4.4777 20.6303C4.26981 20.5921 4.05529 20.6381 3.88133 20.7582C3.70736 20.8782 3.58821 21.0624 3.55008 21.2703C3.52537 21.405 3.50204 21.5399 3.48007 21.6752C3.44614 21.8838 3.49643 22.0974 3.61988 22.2689C3.74333 22.4404 3.92984 22.5559 4.13841 22.59Z" fill="#134A85"/>
<path d="M7.13308 14.0596C6.94891 13.9559 6.7311 13.9296 6.52753 13.9864C6.32397 14.0432 6.1513 14.1786 6.0475 14.3627C5.98036 14.482 5.91427 14.6019 5.84923 14.7224C5.7993 14.8145 5.76802 14.9156 5.75719 15.0198C5.74637 15.1241 5.75621 15.2294 5.78615 15.3298C5.81609 15.4302 5.86554 15.5238 5.93167 15.605C5.99781 15.6863 6.07932 15.7538 6.17156 15.8035C6.26379 15.8532 6.36492 15.8843 6.46917 15.8949C6.57342 15.9055 6.67874 15.8954 6.7791 15.8653C6.87945 15.8351 6.97287 15.7854 7.054 15.7191C7.13514 15.6528 7.2024 15.5712 7.25193 15.4788C7.31226 15.3671 7.37368 15.2559 7.43621 15.1452C7.53992 14.961 7.56625 14.7432 7.5094 14.5396C7.45256 14.336 7.3172 14.1634 7.13308 14.0596Z" fill="#134A85"/>
<path d="M7.11238 34.8572C7.01452 34.6701 6.84645 34.5296 6.64507 34.4663C6.44368 34.4031 6.22543 34.4223 6.03821 34.5198C5.85098 34.6173 5.71009 34.7851 5.64646 34.9863C5.58282 35.1876 5.60163 35.4059 5.69876 35.5933C5.7618 35.7143 5.82588 35.8346 5.89101 35.9542C5.99394 36.1379 6.16462 36.2741 6.36659 36.3336C6.56856 36.3931 6.78581 36.3714 6.97193 36.2729C7.06383 36.2228 7.14498 36.1552 7.21073 36.0738C7.27648 35.9924 7.32555 35.8988 7.35515 35.7984C7.38474 35.6981 7.39427 35.5928 7.38319 35.4888C7.37212 35.3847 7.34066 35.2839 7.2906 35.192C7.23008 35.0809 7.17067 34.9693 7.11238 34.8572Z" fill="#134A85"/>
<path d="M5.91016 32.0642C5.86892 31.9447 5.82878 31.8248 5.78975 31.7043C5.75755 31.6046 5.70603 31.5123 5.63813 31.4326C5.57023 31.3529 5.48728 31.2873 5.39403 31.2396C5.30078 31.192 5.19906 31.1632 5.09467 31.1549C4.99027 31.1465 4.88527 31.1589 4.78565 31.1912C4.68603 31.2235 4.59375 31.2751 4.51408 31.343C4.43442 31.411 4.36893 31.494 4.32135 31.5873C4.27378 31.6806 4.24506 31.7823 4.23684 31.8867C4.22861 31.9911 4.24104 32.0961 4.27341 32.1957C4.31581 32.326 4.35932 32.4559 4.40394 32.5852C4.47559 32.783 4.62154 32.9452 4.8108 33.0372C5.00007 33.1291 5.21773 33.1437 5.41757 33.0778C5.61729 33.0087 5.78139 32.8631 5.87377 32.673C5.96615 32.4829 5.97923 32.2639 5.91016 32.0642Z" fill="#134A85"/>
<path d="M8.93494 37.7476C8.80718 37.5804 8.61847 37.4705 8.41 37.442C8.20153 37.4134 7.99022 37.4684 7.82217 37.5951C7.65412 37.7217 7.54299 37.9097 7.51301 38.1179C7.48304 38.3262 7.53666 38.5379 7.66217 38.7068C7.74409 38.8155 7.82691 38.9235 7.91064 39.0307C8.04205 39.1953 8.23269 39.3019 8.44174 39.3277C8.65079 39.3535 8.86162 39.2964 9.02909 39.1686C9.19569 39.0386 9.30382 38.8477 9.32969 38.638C9.35556 38.4282 9.29705 38.2168 9.16703 38.0501C9.08882 37.95 9.01145 37.8491 8.93494 37.7476Z" fill="#134A85"/>
<path d="M4.41333 29.6692C4.51653 29.6519 4.61531 29.6145 4.70403 29.559C4.79275 29.5035 4.86967 29.4311 4.93039 29.3459C4.99111 29.2606 5.03445 29.1643 5.05792 29.0623C5.0814 28.9603 5.08456 28.8547 5.06721 28.7516C5.04637 28.6268 5.02665 28.5019 5.00804 28.3766C4.97713 28.1676 4.86443 27.9793 4.69474 27.8533C4.52505 27.7274 4.31226 27.674 4.10319 27.7049C3.89412 27.7358 3.70589 27.8485 3.57991 28.0182C3.45392 28.1879 3.40051 28.4006 3.43142 28.6097C3.45146 28.7451 3.47286 28.8803 3.49561 29.0154C3.53337 29.2224 3.65037 29.4065 3.82174 29.5286C3.99311 29.6507 4.20534 29.7012 4.41333 29.6692Z" fill="#134A85"/>
<path d="M45.5676 17.4836C45.4688 17.518 45.3776 17.5714 45.2994 17.641C45.2212 17.7105 45.1575 17.7948 45.1119 17.889C45.0663 17.9831 45.0397 18.0854 45.0336 18.1899C45.0275 18.2943 45.042 18.399 45.0764 18.4978C45.118 18.6177 45.1586 18.738 45.1982 18.8589C45.2662 19.0582 45.4094 19.2229 45.5972 19.3181C45.785 19.4132 46.0026 19.4311 46.2034 19.3681C46.3029 19.3355 46.3949 19.2837 46.4743 19.2155C46.5538 19.1474 46.619 19.0643 46.6662 18.9709C46.7135 18.8775 46.742 18.7758 46.7499 18.6715C46.7579 18.5671 46.7452 18.4622 46.7126 18.3628C46.6701 18.233 46.6266 18.1037 46.5818 17.9749C46.5475 17.876 46.494 17.7849 46.4245 17.7067C46.355 17.6285 46.2707 17.5647 46.1765 17.5191C46.0823 17.4735 45.9801 17.4469 45.8756 17.4408C45.7711 17.4347 45.6665 17.4493 45.5676 17.4836Z" fill="#134A85"/>
<path d="M46.5786 20.8903C46.4754 20.9078 46.3767 20.9454 46.2881 21.0011C46.1995 21.0567 46.1227 21.1292 46.0621 21.2146C46.0015 21.2999 45.9584 21.3963 45.9351 21.4983C45.9117 21.6003 45.9088 21.7059 45.9263 21.8091C45.9473 21.9338 45.9674 22.059 45.9864 22.1846C46.0206 22.3923 46.1344 22.5784 46.3038 22.7034C46.4731 22.8284 46.6845 22.8824 46.893 22.8539C46.9965 22.8383 47.0959 22.8025 47.1855 22.7485C47.2752 22.6945 47.3533 22.6234 47.4154 22.5392C47.4776 22.455 47.5225 22.3594 47.5477 22.2578C47.5729 22.1563 47.5779 22.0507 47.5623 21.9473C47.542 21.8118 47.5204 21.6769 47.4975 21.5426C47.4801 21.4394 47.4425 21.3406 47.3869 21.2519C47.3313 21.1632 47.2587 21.0864 47.1734 21.0258C47.088 20.9652 46.9915 20.9221 46.8895 20.8988C46.7874 20.8755 46.6818 20.8726 46.5786 20.8903Z" fill="#134A85"/>
<path d="M16.8022 6.41311C17.0319 6.36135 17.2562 6.28821 17.4723 6.19465C17.6671 6.11271 17.8214 5.95673 17.9012 5.76102C17.9811 5.56531 17.9799 5.34591 17.8979 5.15108C17.816 4.95624 17.66 4.80194 17.4643 4.72211C17.2686 4.64228 17.0492 4.64347 16.8544 4.72541C16.7285 4.77832 16.6033 4.83233 16.4789 4.88745C16.3118 4.96152 16.1753 5.09074 16.0921 5.25347C16.009 5.4162 15.9843 5.60256 16.0222 5.78133C16.0601 5.9601 16.1583 6.12042 16.3003 6.23543C16.4423 6.35045 16.6195 6.41318 16.8022 6.41311Z" fill="#134A85"/>
<path d="M45.282 14.97C45.2188 14.8486 45.1543 14.728 45.0884 14.6081C45.0383 14.5161 44.9705 14.4349 44.889 14.3691C44.8075 14.3033 44.7138 14.2542 44.6132 14.2247C44.5127 14.1952 44.4073 14.1857 44.3032 14.197C44.199 14.2082 44.0981 14.2399 44.0061 14.2902C43.9142 14.3405 43.8331 14.4084 43.7675 14.4901C43.7019 14.5718 43.653 14.6656 43.6237 14.7662C43.5943 14.8667 43.5851 14.9721 43.5966 15.0763C43.608 15.1804 43.6399 15.2813 43.6904 15.3731C43.7507 15.4836 43.81 15.5946 43.8684 15.7062C43.9678 15.8919 44.1359 16.0313 44.3368 16.0946C44.5377 16.1579 44.7554 16.1401 44.9433 16.0449C45.1307 15.9472 45.2717 15.7791 45.3352 15.5776C45.3987 15.376 45.3796 15.1575 45.282 14.97Z" fill="#134A85"/>
<path d="M23.6571 4.65965C23.6797 4.65965 23.978 4.6365 24.105 4.62814C24.2094 4.62119 24.3114 4.59374 24.4052 4.54736C24.499 4.50098 24.5828 4.43658 24.6517 4.35783C24.7206 4.27909 24.7734 4.18754 24.8069 4.08841C24.8405 3.98928 24.8541 3.88452 24.8472 3.7801C24.8402 3.67568 24.8128 3.57366 24.7664 3.47985C24.72 3.38604 24.6556 3.30228 24.5769 3.23336C24.4981 3.16444 24.4066 3.11171 24.3075 3.07817C24.2083 3.04463 24.1036 3.03094 23.9992 3.03789C23.8628 3.04703 23.7267 3.05735 23.5908 3.06883C23.3861 3.08619 23.1961 3.18192 23.0603 3.33605C22.9245 3.49017 22.8535 3.69078 22.862 3.89601C22.8706 4.10124 22.9581 4.29524 23.1062 4.43753C23.2544 4.57981 23.4517 4.65939 23.6571 4.65965Z" fill="#134A85"/>
<path d="M27.1476 4.64678C27.2743 4.6569 27.5788 4.68376 27.6044 4.68376C27.809 4.68352 28.0057 4.60458 28.1537 4.46328C28.3017 4.32199 28.3897 4.12917 28.3995 3.92478C28.4092 3.72039 28.3399 3.52008 28.206 3.36537C28.0721 3.21065 27.8838 3.11338 27.6801 3.0937C27.5443 3.08067 27.4083 3.0688 27.2721 3.0581C27.1678 3.04992 27.0629 3.06238 26.9634 3.09474C26.8639 3.12711 26.7717 3.17876 26.6922 3.24674C26.6127 3.31472 26.5473 3.3977 26.4998 3.49094C26.4523 3.58419 26.4237 3.68587 26.4155 3.79019C26.4073 3.8945 26.4198 3.9994 26.4522 4.09891C26.4845 4.19841 26.5362 4.29056 26.6042 4.3701C26.6721 4.44965 26.7551 4.51502 26.8484 4.56249C26.9416 4.60996 27.0433 4.63861 27.1476 4.64678Z" fill="#134A85"/>
<path d="M30.5226 5.19438C30.6461 5.2253 31.0302 5.31734 31.0985 5.31734C31.2917 5.31715 31.4783 5.24673 31.6236 5.1192C31.7688 4.99167 31.8627 4.81572 31.8879 4.6241C31.913 4.43247 31.8677 4.23824 31.7603 4.07756C31.6529 3.91687 31.4908 3.80069 31.3041 3.75063C31.1726 3.71522 31.0406 3.68105 30.9082 3.6481C30.8066 3.62254 30.7009 3.61727 30.5973 3.63259C30.4936 3.64791 30.394 3.68353 30.3042 3.73739C30.2143 3.79126 30.1359 3.86233 30.0735 3.94652C30.0112 4.03071 29.966 4.12638 29.9407 4.22804C29.9153 4.32971 29.9103 4.43537 29.9258 4.53899C29.9413 4.64261 29.9772 4.74215 30.0312 4.83191C30.0853 4.92167 30.1565 4.99989 30.2408 5.06208C30.3251 5.12428 30.4209 5.16924 30.5226 5.19438Z" fill="#134A85"/>
<path d="M20.1566 5.25068C20.2218 5.25068 20.5996 5.16429 20.723 5.13533C20.8248 5.11141 20.921 5.06766 21.006 5.00658C21.091 4.94549 21.1631 4.86827 21.2182 4.77931C21.2734 4.69036 21.3105 4.59141 21.3274 4.48813C21.3443 4.38484 21.3406 4.27924 21.3167 4.17735C21.2684 3.97158 21.1404 3.79342 20.9607 3.68206C20.8718 3.62693 20.7728 3.58985 20.6695 3.57296C20.5662 3.55606 20.4606 3.55967 20.3587 3.58358C20.2253 3.61491 20.0925 3.64753 19.9603 3.68144C19.7722 3.72943 19.6081 3.84442 19.4988 4.00482C19.3895 4.16522 19.3424 4.36001 19.3665 4.55262C19.3906 4.74524 19.4842 4.92243 19.6297 5.05096C19.7751 5.17949 19.9625 5.2505 20.1566 5.25068Z" fill="#134A85"/>
<path d="M33.8383 44.2733C33.7224 44.3241 33.6059 44.374 33.4889 44.4231C33.3191 44.4943 33.1792 44.6221 33.0929 44.7848C33.0066 44.9474 32.9793 45.1349 33.0157 45.3154C33.052 45.496 33.1497 45.6583 33.2922 45.7749C33.4347 45.8916 33.6131 45.9553 33.7973 45.9552C34.0374 45.9283 34.2695 45.8525 34.4792 45.7324C34.6727 45.6475 34.8245 45.4891 34.9012 45.2922C34.9779 45.0953 34.9733 44.8759 34.8883 44.6825C34.8033 44.489 34.6449 44.3372 34.448 44.2604C34.2511 44.1837 34.0318 44.1883 33.8383 44.2733Z" fill="#134A85"/>
<path d="M44.8073 34.8379C44.6213 34.7375 44.4031 34.7151 44.2006 34.7754C43.9981 34.8357 43.8278 34.9739 43.7271 35.1597C43.6668 35.2714 43.6054 35.3823 43.5429 35.4926C43.4913 35.5836 43.4582 35.6839 43.4454 35.7878C43.4326 35.8916 43.4404 35.997 43.4684 36.0978C43.4963 36.1987 43.5438 36.293 43.6082 36.3755C43.6726 36.458 43.7526 36.527 43.8437 36.5785C43.9347 36.6301 44.035 36.6632 44.1389 36.676C44.2427 36.6888 44.3481 36.681 44.4489 36.6531C44.5498 36.6251 44.6441 36.5776 44.7266 36.5132C44.8091 36.4488 44.8781 36.3688 44.9296 36.2778C44.9971 36.1585 45.0636 36.0386 45.129 35.9181C45.2296 35.7321 45.2522 35.5139 45.1918 35.3113C45.1315 35.1088 44.9931 34.9385 44.8073 34.8379Z" fill="#134A85"/>
<path d="M42.9727 37.8833C42.8902 37.8189 42.7958 37.7714 42.6949 37.7436C42.594 37.7157 42.4887 37.708 42.3848 37.7209C42.2809 37.7338 42.1806 37.7671 42.0896 37.8188C41.9986 37.8705 41.9187 37.9396 41.8545 38.0222C41.7766 38.122 41.6978 38.2212 41.6181 38.3199C41.5522 38.4012 41.503 38.4947 41.4733 38.595C41.4435 38.6953 41.4339 38.8006 41.4448 38.9046C41.4557 39.0087 41.487 39.1096 41.537 39.2016C41.5869 39.2936 41.6544 39.3748 41.7358 39.4407C41.8171 39.5065 41.9106 39.5557 42.0109 39.5855C42.1113 39.6152 42.2165 39.6249 42.3205 39.6139C42.4246 39.603 42.5255 39.5717 42.6175 39.5218C42.7095 39.4718 42.7907 39.4043 42.8566 39.323C42.9426 39.2167 43.0276 39.1096 43.1116 39.0015C43.176 38.919 43.2234 38.8246 43.2512 38.7237C43.279 38.6228 43.2867 38.5175 43.2738 38.4136C43.2609 38.3098 43.2277 38.2095 43.176 38.1185C43.1244 38.0275 43.0553 37.9476 42.9727 37.8833Z" fill="#134A85"/>
<path d="M36.8406 42.6429C36.7344 42.7126 36.6276 42.7812 36.52 42.8489C36.3413 42.9617 36.2147 43.1409 36.1681 43.3471C36.1214 43.5532 36.1586 43.7694 36.2714 43.9482C36.3856 44.1252 36.5647 44.2504 36.7702 44.2969C36.9758 44.3434 37.1913 44.3074 37.3706 44.1968C37.4858 44.1242 37.6002 44.0508 37.7138 43.9764C37.8906 43.8606 38.0142 43.6793 38.0574 43.4724C38.1005 43.2655 38.0597 43.0499 37.9439 42.8731C37.8282 42.6962 37.6469 42.5727 37.44 42.5295C37.2331 42.4863 37.0175 42.5271 36.8406 42.6429Z" fill="#134A85"/>
<path d="M39.537 40.539C39.444 40.6248 39.3501 40.7097 39.2553 40.7937C39.0972 40.934 39.0013 41.1313 38.9887 41.3423C38.9761 41.5533 39.0479 41.7607 39.1882 41.9188C39.3285 42.0769 39.5258 42.1728 39.7368 42.1853C39.9478 42.1979 40.1552 42.1262 40.3133 41.9859C40.4154 41.8952 40.5167 41.8036 40.6172 41.711C40.7726 41.5678 40.8647 41.3687 40.8733 41.1575C40.8819 40.9463 40.8063 40.7404 40.6631 40.585C40.5198 40.4295 40.3207 40.3374 40.1096 40.3288C39.8984 40.3202 39.6924 40.3958 39.537 40.539Z" fill="#134A85"/>
<path d="M47.0097 24.418C46.7984 24.4194 46.5962 24.5048 46.4478 24.6553C46.2994 24.8057 46.2168 25.009 46.2183 25.2203C46.2183 25.2203 46.2171 25.5553 46.215 25.682C46.2131 25.7866 46.2319 25.8906 46.2702 25.988C46.3085 26.0853 46.3656 26.1742 46.4383 26.2495C46.5109 26.3248 46.5977 26.385 46.6937 26.4268C46.7896 26.4685 46.8928 26.491 46.9975 26.4928C47.1045 26.5055 47.2131 26.4942 47.3153 26.4597C47.4174 26.4253 47.5107 26.3686 47.5883 26.2937C47.6659 26.2188 47.7259 26.1277 47.7639 26.0268C47.802 25.9259 47.8171 25.8178 47.8083 25.7104C47.8078 25.5742 47.812 25.2094 47.812 25.2094C47.8104 24.9981 47.725 24.7961 47.5745 24.6478C47.4241 24.4994 47.221 24.4167 47.0097 24.418Z" fill="#134A85"/>
<path d="M46.8557 28.0545C46.6472 28.0202 46.4337 28.07 46.2619 28.193C46.0901 28.3159 45.974 28.502 45.9392 28.7103C45.9184 28.836 45.8965 28.9613 45.8734 29.0862C45.8545 29.1891 45.8561 29.2948 45.8781 29.3971C45.9 29.4994 45.9419 29.5964 46.0013 29.6826C46.0608 29.7687 46.1366 29.8423 46.2245 29.8991C46.3123 29.9559 46.4105 29.9949 46.5135 30.0138C46.6164 30.0327 46.7221 30.0311 46.8244 30.0091C46.9267 29.9872 47.0237 29.9453 47.1098 29.8859C47.196 29.8264 47.2696 29.7506 47.3264 29.6628C47.3832 29.5749 47.4222 29.4767 47.4411 29.3737C47.4656 29.2399 47.4891 29.1057 47.5115 28.971C47.5461 28.7625 47.4964 28.5488 47.3734 28.377C47.2504 28.2051 47.0642 28.0891 46.8557 28.0545Z" fill="#134A85"/>
<path d="M46.1161 31.5298C46.0171 31.4957 45.9124 31.4814 45.8079 31.4878C45.7034 31.4942 45.6012 31.5212 45.5072 31.5671C45.4131 31.6131 45.329 31.6771 45.2598 31.7556C45.1905 31.8341 45.1374 31.9255 45.1034 32.0245C45.062 32.1451 45.0196 32.2653 44.9762 32.385C44.9044 32.5835 44.9143 32.8023 45.0038 32.9935C45.0932 33.1847 45.2548 33.3326 45.4532 33.4047C45.6515 33.4769 45.8704 33.4674 46.0617 33.3783C46.2531 33.2893 46.4013 33.1279 46.4738 32.9297C46.5207 32.8011 46.5664 32.672 46.6108 32.5424C46.6795 32.3425 46.6659 32.1235 46.5731 31.9336C46.4804 31.7437 46.3159 31.5984 46.1161 31.5298Z" fill="#134A85"/>
<path d="M30.6061 45.3865C30.4835 45.4174 30.3605 45.4473 30.2369 45.4762C30.0465 45.5206 29.8791 45.6335 29.7665 45.7934C29.6539 45.9532 29.604 46.1488 29.6263 46.3431C29.6485 46.5373 29.7414 46.7166 29.8873 46.8468C30.0331 46.977 30.2217 47.0491 30.4172 47.0493C30.4773 47.0493 30.8652 46.9649 30.9976 46.9312C31.2022 46.8791 31.3778 46.7479 31.4857 46.5664C31.5937 46.3849 31.6252 46.168 31.5733 45.9633C31.5214 45.7587 31.3904 45.5829 31.2091 45.4748C31.0277 45.3666 30.8108 45.3349 30.6061 45.3865Z" fill="#134A85"/>
<path d="M10.8911 10.2995C11.2147 10.2551 11.5091 10.0888 11.714 9.83454C11.7921 9.76484 11.8556 9.68045 11.9011 9.58619C11.9465 9.49193 11.9729 9.38964 11.9788 9.28517C11.9848 9.18069 11.97 9.07608 11.9355 8.9773C11.901 8.87851 11.8473 8.7875 11.7776 8.70945C11.7079 8.6314 11.6236 8.56784 11.5293 8.5224C11.435 8.47696 11.3327 8.45054 11.2283 8.44463C11.1238 8.43872 11.0192 8.45345 10.9204 8.48798C10.8216 8.5225 10.7306 8.57614 10.6525 8.64584C10.551 8.73652 10.4502 8.82803 10.3502 8.92036C10.232 9.02871 10.1494 9.1703 10.1132 9.3265C10.0771 9.48271 10.089 9.6462 10.1476 9.79547C10.2061 9.94474 10.3085 10.0728 10.4412 10.1628C10.5739 10.2527 10.7308 10.3004 10.8911 10.2995Z" fill="#134A85"/>
<path d="M11.21 40.303C11.057 40.1572 10.8523 40.0782 10.6411 40.0832C10.4298 40.0883 10.2291 40.1771 10.0833 40.3301C9.93751 40.4831 9.85844 40.6877 9.86351 40.899C9.86858 41.1103 9.95738 41.3109 10.1104 41.4568C10.2094 41.5511 10.3092 41.6446 10.4098 41.7371C10.5656 41.8795 10.7715 41.9542 10.9824 41.945C11.1933 41.9357 11.3918 41.8431 11.5346 41.6876C11.6773 41.5321 11.7525 41.3264 11.7437 41.1155C11.7349 40.9046 11.6428 40.7058 11.4876 40.5628C11.3942 40.4772 11.3017 40.3906 11.21 40.303Z" fill="#134A85"/>
<path d="M9.2354 11.1926C9.07075 11.0602 8.86021 10.9985 8.6501 11.0212C8.43999 11.044 8.24751 11.1492 8.11499 11.3138C8.02941 11.4203 7.94478 11.5273 7.86111 11.6351C7.79684 11.7177 7.7495 11.8122 7.72178 11.9132C7.69407 12.0142 7.68652 12.1196 7.69958 12.2235C7.71264 12.3274 7.74604 12.4277 7.79788 12.5187C7.84972 12.6097 7.91898 12.6895 8.00171 12.7537C8.08443 12.8179 8.17899 12.8651 8.27999 12.8928C8.38098 12.9204 8.48643 12.9278 8.59031 12.9147C8.69419 12.9015 8.79445 12.868 8.88538 12.8161C8.9763 12.7642 9.0561 12.6949 9.12021 12.6121C9.19807 12.5117 9.27687 12.412 9.35661 12.313C9.42222 12.2315 9.47114 12.1379 9.50056 12.0374C9.52998 11.937 9.53933 11.8318 9.52808 11.7277C9.51682 11.6237 9.48518 11.5229 9.43496 11.4311C9.38475 11.3393 9.31693 11.2582 9.2354 11.1926Z" fill="#134A85"/>
<path d="M13.8722 42.452C13.6974 42.3333 13.4825 42.2889 13.275 42.3287C13.0674 42.3684 12.8841 42.489 12.7654 42.6638C12.6468 42.8387 12.6024 43.0535 12.6421 43.2611C12.6819 43.4687 12.8024 43.652 12.9773 43.7706C13.0901 43.8473 13.2038 43.923 13.3182 43.9977C13.4778 44.1006 13.669 44.1429 13.8572 44.1171C14.0453 44.0913 14.218 43.9989 14.344 43.8568V42.7994C14.2989 42.7492 13.9773 42.5232 13.8722 42.452Z" fill="#134A85"/>
<path d="M27.2324 45.9481C27.1863 45.952 27.1398 45.9547 27.0938 45.9582V47.5564C27.1842 47.55 27.2747 47.5438 27.3648 47.5364C27.5754 47.5188 27.7704 47.4183 27.9069 47.257C28.0435 47.0956 28.1103 46.8867 28.0927 46.6761C28.0752 46.4654 27.9747 46.2704 27.8134 46.1339C27.652 45.9974 27.4431 45.9305 27.2324 45.9481Z" fill="#134A85"/>
<path d="M30.1174 33.383C29.2277 33.0809 28.2857 32.9636 27.3491 33.0383C26.9631 33.0445 26.5989 33.0505 26.2557 33.025C23.9968 32.8595 22.841 32.0646 22.8202 30.6621C22.8228 30.1275 22.8545 29.5935 22.9151 29.0625C23.0529 27.6129 23.2091 25.9701 22.1976 24.4407C20.8366 22.3824 18.244 22.069 16.2724 22.462C13.4011 23.0336 11.3001 25.3473 11.1636 28.0884C11.0445 30.4697 12.3995 32.086 13.71 33.649C14.8374 34.9935 15.9022 36.2635 15.9378 37.9322V48.4178C15.9378 48.6292 16.0218 48.8319 16.1712 48.9813C16.3206 49.1308 16.5233 49.2147 16.7347 49.2147C16.946 49.2147 17.1487 49.1308 17.2982 48.9813C17.4476 48.8319 17.5316 48.6292 17.5316 48.4178L17.5314 37.9153C17.4837 35.6692 16.1277 34.0519 14.9312 32.6248C13.767 31.2364 12.6674 29.9249 12.7554 28.1679C12.8556 26.1574 14.4298 24.4538 16.5837 24.025C18.0475 23.7334 19.9428 23.9199 20.8683 25.3197C21.5692 26.3796 21.4578 27.553 21.3286 28.9117C21.262 29.5007 21.2279 30.093 21.2264 30.6858C21.2609 32.9897 23.0056 34.3849 26.1392 34.6145C26.5534 34.6449 26.9709 34.6381 27.3746 34.6319C28.096 34.5672 28.8231 34.6442 29.515 34.8585C29.6954 34.9143 29.8583 35.0157 29.9879 35.1529C30.1176 35.2901 30.2096 35.4585 30.2551 35.6417C30.2894 35.9553 30.2507 36.2726 30.1421 36.5688C30.0335 36.865 29.8579 37.132 29.629 37.3491C29.1796 37.7679 28.6653 38.1111 28.1061 38.3655C27.4827 38.6622 26.9013 39.0399 26.3769 39.489C24.8482 40.8963 23.9478 42.6247 23.9066 44.2509V50.2034C23.9066 50.4147 23.9905 50.6174 24.14 50.7669C24.2894 50.9163 24.4921 51.0003 24.7034 51.0003C24.9148 51.0003 25.1175 50.9163 25.2669 50.7669C25.4164 50.6174 25.5003 50.4147 25.5003 50.2034L25.5001 44.2714C25.5301 43.0942 26.2431 41.7784 27.4563 40.6613C27.8817 40.3081 28.3502 40.0101 28.8504 39.7746C29.568 39.4433 30.2239 38.9923 30.7901 38.4409C31.1976 38.0367 31.5029 37.5412 31.6807 36.9955C31.8585 36.4497 31.9037 35.8695 31.8125 35.3028C31.7123 34.8669 31.5048 34.4629 31.2088 34.1276C30.9127 33.7923 30.5375 33.5364 30.1174 33.383Z" fill="#134A85"/>
<path d="M37.7277 28.7415C39.3669 26.5717 39.2998 24.085 39.2348 21.6802C39.1846 20.6942 39.2013 19.7058 39.2848 18.7221C39.3892 17.6719 39.7807 16.6707 40.4165 15.8283L46.055 8.45955C46.1189 8.37647 46.1658 8.28159 46.193 8.18035C46.2202 8.07911 46.2272 7.97349 46.2135 7.86955C46.1998 7.76561 46.1658 7.6654 46.1133 7.57464C46.0608 7.48389 45.9909 7.40438 45.9077 7.34068C45.8244 7.27698 45.7294 7.23033 45.6281 7.20341C45.5267 7.17649 45.4211 7.16982 45.3172 7.1838C45.2133 7.19777 45.1132 7.23211 45.0226 7.28484C44.932 7.33758 44.8527 7.40767 44.7892 7.49111L39.1691 14.8369C38.3442 15.9131 37.8358 17.198 37.7008 18.5472C37.6089 19.6033 37.5891 20.6644 37.6417 21.7232C37.7018 23.9517 37.7586 26.0566 36.4561 27.7807C35.4843 29.0666 33.5765 29.7213 31.7085 29.4088C30.0974 29.1396 28.9221 28.2174 28.4842 26.8787C28.2748 26.0146 28.2038 25.1227 28.2739 24.2364C28.307 22.3916 28.3447 20.3008 26.4648 18.9864C25.0745 18.0147 23.2962 17.8575 21.5948 17.7798C20.3507 17.7215 18.5795 17.225 17.6309 16.2733C17.2954 15.9306 17.0423 15.5161 16.8907 15.0611C16.7392 14.6061 16.6932 14.1226 16.7562 13.6472C16.8254 13.0407 17.0261 12.4567 17.3442 11.9358C17.6624 11.4148 18.0904 10.9696 18.5983 10.6311C20.2264 9.58056 22.137 9.936 24.1594 10.3126C24.8133 10.4343 25.4893 10.5601 26.1533 10.634C29.6994 11.029 32.2884 10.295 34.0812 8.37959L40.4358 1.3301C40.5768 1.17306 40.6498 0.96649 40.6386 0.755725C40.6275 0.544959 40.5332 0.347221 40.3764 0.205913C40.2196 0.0646043 40.0132 -0.00872873 39.8024 0.00200946C39.5916 0.0127477 39.3937 0.10668 39.2521 0.263189L32.9077 7.30142C31.4921 8.81345 29.3396 9.38504 26.3298 9.05004C25.7235 8.9825 25.1055 8.86751 24.4508 8.74575C22.3151 8.34807 19.895 7.89808 17.7344 9.29185C17.0248 9.75701 16.427 10.3735 15.9839 11.0971C15.5408 11.8206 15.2634 12.6333 15.1715 13.4768C15.081 14.1885 15.1538 14.9116 15.3843 15.591C15.6149 16.2704 15.9971 16.8884 16.5021 17.3981C17.8433 18.744 20.0435 19.3024 21.5211 19.3718C22.9899 19.439 24.5111 19.5652 25.5518 20.2927C26.736 21.1207 26.7101 22.5512 26.6803 24.2078C26.601 25.2719 26.6987 26.3419 26.9694 27.3741C27.5887 29.2676 29.2622 30.616 31.4458 30.9808C32.3655 31.1447 33.309 31.1194 34.2185 30.9063C35.1281 30.6933 35.9847 30.2969 36.7358 29.7415C37.1062 29.4502 37.4393 29.1143 37.7277 28.7415Z" fill="#134A85"/>
<path d="M11.6442 18.2608C11.4508 18.1758 11.2316 18.171 11.0347 18.2474C10.8378 18.3239 10.6794 18.4755 10.5941 18.6687C10.5089 18.862 10.5039 19.0812 10.5802 19.2782C10.6565 19.4751 10.8078 19.6338 11.001 19.7192L12.3465 20.3127C12.4423 20.355 12.5454 20.3779 12.65 20.3803C12.7547 20.3827 12.8587 20.3644 12.9563 20.3266C13.0539 20.2887 13.143 20.232 13.2187 20.1597C13.2944 20.0874 13.355 20.0009 13.3973 19.9052C13.4395 19.8094 13.4625 19.7063 13.4648 19.6016C13.4672 19.497 13.449 19.393 13.4111 19.2954C13.3733 19.1978 13.3166 19.1086 13.2443 19.033C13.172 18.9573 13.0855 18.8966 12.9897 18.8544L11.6442 18.2608Z" fill="#134A85"/>
<path d="M12.821 17.7026C12.9101 17.8934 13.0703 18.0418 13.2674 18.116C13.4645 18.1902 13.6828 18.1843 13.8756 18.0996C13.971 18.0565 14.0569 17.9949 14.1284 17.9186C14.1999 17.8422 14.2557 17.7525 14.2926 17.6546C14.3295 17.5566 14.3467 17.4524 14.3433 17.3478C14.3399 17.2432 14.3159 17.1403 14.2727 17.045L13.622 15.6082C13.5791 15.5124 13.5177 15.426 13.4414 15.354C13.3651 15.282 13.2752 15.2257 13.1771 15.1885C13.0789 15.1513 12.9744 15.1338 12.8695 15.1371C12.7646 15.1404 12.6614 15.1644 12.5657 15.2077C12.4701 15.251 12.384 15.3128 12.3123 15.3895C12.2407 15.4662 12.1849 15.5563 12.1481 15.6546C12.1113 15.7529 12.0944 15.8575 12.0982 15.9624C12.102 16.0673 12.1265 16.1704 12.1702 16.2658L12.821 17.7026Z" fill="#134A85"/>
<path d="M10.6316 23.0615L12.0605 22.5421C12.2592 22.4699 12.421 22.3217 12.5104 22.1302C12.5999 21.9387 12.6095 21.7195 12.5374 21.5209C12.4652 21.3222 12.317 21.1604 12.1255 21.0709C11.934 20.9815 11.7148 20.9718 11.5162 21.044L10.0872 21.5635C9.88859 21.6357 9.72679 21.7838 9.63737 21.9753C9.54795 22.1668 9.53823 22.386 9.61035 22.5847C9.68466 22.7817 9.83306 22.9419 10.0239 23.031C10.2147 23.1201 10.4328 23.131 10.6316 23.0615Z" fill="#134A85"/>
<path d="M34.823 36.2527L36.1685 36.8462C36.3619 36.9313 36.5811 36.9361 36.778 36.8596C36.9749 36.7831 37.1333 36.6316 37.2186 36.4383C37.3038 36.2451 37.3088 36.0259 37.2325 35.8289C37.1562 35.6319 37.0049 35.4733 36.8117 35.3879L35.4662 34.7943C35.2728 34.709 35.0535 34.7041 34.8564 34.7805C34.6593 34.8569 34.5007 35.0085 34.4154 35.2019C34.3301 35.3953 34.3252 35.6146 34.4016 35.8117C34.478 36.0087 34.6296 36.1674 34.823 36.2527Z" fill="#134A85"/>
<path d="M34.9913 37.4038C34.9032 37.2127 34.7431 37.0641 34.5459 36.9906C34.3487 36.9171 34.1305 36.9246 33.9388 37.0114C33.7471 37.0982 33.5975 37.2574 33.5227 37.4541C33.4479 37.6508 33.454 37.8691 33.5395 38.0613L34.1903 39.4981C34.2793 39.689 34.4395 39.8375 34.6367 39.9117C34.8338 39.9859 35.0522 39.98 35.245 39.8952C35.3403 39.852 35.4262 39.7905 35.4977 39.7141C35.5693 39.6377 35.6251 39.548 35.662 39.4501C35.6988 39.3521 35.716 39.2479 35.7126 39.1433C35.7092 39.0387 35.6852 38.9358 35.6421 38.8405L34.9913 37.4038Z" fill="#134A85"/>
<path d="M37.1812 32.046L35.7523 32.5654C35.5536 32.6376 35.3918 32.7858 35.3024 32.9773C35.213 33.1688 35.2033 33.3879 35.2754 33.5866C35.3497 33.7837 35.4981 33.9439 35.6889 34.033C35.8797 34.1221 36.0978 34.133 36.2966 34.0635L37.7256 33.544C37.8239 33.5083 37.9143 33.4535 37.9915 33.3828C38.0687 33.3122 38.1312 33.227 38.1755 33.1322C38.2198 33.0373 38.2449 32.9347 38.2495 32.8302C38.2542 32.7256 38.2381 32.6212 38.2024 32.5228C38.1667 32.4244 38.1119 32.3341 38.0412 32.2569C37.9706 32.1797 37.8854 32.1172 37.7906 32.0729C37.6957 32.0286 37.5931 32.0034 37.4886 31.9988C37.384 31.9942 37.2796 32.0102 37.1812 32.046Z" fill="#134A85"/>
</svg>
