<svg width="51" height="51" viewBox="0 0 51 51" fill="none" xmlns="http://www.w3.org/2000/svg">
<mask id="path-1-outside-1_3059_12601" maskUnits="userSpaceOnUse" x="1.39941" y="1.39941" width="48" height="48" fill="black">
<rect fill="white" x="1.39941" y="1.39941" width="48" height="48"/>
<path d="M25.4994 3.39941C13.2939 3.39941 3.39941 13.2939 3.39941 25.4994C3.39941 37.7049 13.2939 47.5994 25.4994 47.5994C37.7049 47.5994 47.5994 37.7049 47.5994 25.4994C47.5994 13.2939 37.7049 3.39941 25.4994 3.39941ZM21.8113 20.0422L12.7265 10.9574C16.1356 7.96062 20.6036 6.13958 25.4994 6.13958C36.1916 6.13958 44.8593 14.8073 44.8593 25.4994C44.8593 30.3952 43.0382 34.8632 40.0414 38.2723L36.0386 34.2695M33.5992 35.3683L38.2723 40.0414C34.8632 43.0382 30.3952 44.8593 25.4994 44.8593C14.8073 44.8593 6.13958 36.1916 6.13958 25.4994C6.13958 20.6036 7.96058 16.1356 10.9574 12.7265L21.796 23.5652"/>
</mask>
<path d="M20.9628 20.8908C21.4314 21.3594 22.1912 21.3594 22.6599 20.8908C23.1285 20.4221 23.1285 19.6623 22.6599 19.1937L20.9628 20.8908ZM12.7265 10.9574L11.9342 10.0561C11.6851 10.2751 11.5378 10.5874 11.5271 10.9188C11.5165 11.2503 11.6435 11.5714 11.878 11.8059L12.7265 10.9574ZM40.0414 38.2723L39.1929 39.1209C39.4274 39.3554 39.7485 39.4824 40.08 39.4717C40.4115 39.4611 40.7237 39.3137 40.9427 39.0646L40.0414 38.2723ZM36.8872 33.421C36.4185 32.9524 35.6587 32.9524 35.1901 33.421C34.7215 33.8896 34.7215 34.6494 35.1901 35.1181L36.8872 33.421ZM34.4477 34.5197C33.9791 34.0511 33.2193 34.0511 32.7506 34.5197C32.282 34.9884 32.282 35.7482 32.7506 36.2168L34.4477 34.5197ZM38.2723 40.0414L39.0646 40.9427C39.3137 40.7237 39.4611 40.4115 39.4717 40.08C39.4824 39.7485 39.3554 39.4274 39.1209 39.1929L38.2723 40.0414ZM10.9574 12.7265L11.8059 11.878C11.5714 11.6435 11.2503 11.5165 10.9188 11.5271C10.5873 11.5378 10.2751 11.6851 10.0561 11.9342L10.9574 12.7265ZM20.9475 24.4137C21.4161 24.8823 22.1759 24.8823 22.6446 24.4137C23.1132 23.9451 23.1132 23.1853 22.6446 22.7166L20.9475 24.4137ZM25.4994 2.19941C12.6312 2.19941 2.19941 12.6312 2.19941 25.4994H4.59941C4.59941 13.9567 13.9567 4.59941 25.4994 4.59941V2.19941ZM2.19941 25.4994C2.19941 38.3676 12.6312 48.7994 25.4994 48.7994V46.3994C13.9567 46.3994 4.59941 37.0422 4.59941 25.4994H2.19941ZM25.4994 48.7994C38.3676 48.7994 48.7994 38.3676 48.7994 25.4994H46.3994C46.3994 37.0422 37.0422 46.3994 25.4994 46.3994V48.7994ZM48.7994 25.4994C48.7994 12.6312 38.3676 2.19941 25.4994 2.19941V4.59941C37.0422 4.59941 46.3994 13.9567 46.3994 25.4994H48.7994ZM22.6599 19.1937L13.575 10.1089L11.878 11.8059L20.9628 20.8908L22.6599 19.1937ZM13.5188 11.8587C16.718 9.04644 20.9071 7.33958 25.4994 7.33958V4.93958C20.3001 4.93958 15.5533 6.87479 11.9342 10.0561L13.5188 11.8587ZM25.4994 7.33958C35.5288 7.33958 43.6593 15.47 43.6593 25.4994H46.0593C46.0593 14.1445 36.8543 4.93958 25.4994 4.93958V7.33958ZM43.6593 25.4994C43.6593 30.0917 41.9524 34.2809 39.1401 37.4801L40.9427 39.0646C44.124 35.4455 46.0593 30.6987 46.0593 25.4994H43.6593ZM40.8899 37.4238L36.8872 33.421L35.1901 35.1181L39.1929 39.1209L40.8899 37.4238ZM32.7506 36.2168L37.4238 40.8899L39.1209 39.1929L34.4477 34.5197L32.7506 36.2168ZM37.4801 39.1401C34.2809 41.9524 30.0917 43.6593 25.4994 43.6593V46.0593C30.6987 46.0593 35.4455 44.124 39.0646 40.9427L37.4801 39.1401ZM25.4994 43.6593C15.47 43.6593 7.33958 35.5288 7.33958 25.4994H4.93958C4.93958 36.8543 14.1445 46.0593 25.4994 46.0593V43.6593ZM7.33958 25.4994C7.33958 20.9071 9.04641 16.718 11.8587 13.5188L10.0561 11.9342C6.87475 15.5533 4.93958 20.3001 4.93958 25.4994H7.33958ZM10.1088 13.575L20.9475 24.4137L22.6446 22.7166L11.8059 11.878L10.1088 13.575Z" fill="#134A85" mask="url(#path-1-outside-1_3059_12601)"/>
<mask id="path-3-outside-2_3059_12601" maskUnits="userSpaceOnUse" x="19.0596" y="9.20996" width="22" height="22" fill="black">
<rect fill="white" x="19.0596" y="9.20996" width="22" height="22"/>
<path d="M36.7574 29.0456C37.1286 28.7934 37.378 28.4681 37.4438 28.1043L39.6361 15.9713C39.761 15.2804 39.1942 14.6507 38.3006 14.3342C37.2849 12.5297 34.0522 11.21 30.2186 11.21C26.2776 11.21 22.9704 12.6044 22.0554 14.4867C21.3736 14.8305 20.9695 15.378 21.0767 15.9713L22.4554 23.6011"/>
</mask>
<path d="M36.0831 28.0529C35.5349 28.4254 35.3923 29.1717 35.7647 29.7199C36.1372 30.2681 36.8835 30.4106 37.4317 30.0382L36.0831 28.0529ZM37.4438 28.1043L38.6246 28.3178L38.6246 28.3177L37.4438 28.1043ZM39.6361 15.9713L38.4552 15.7579L38.4552 15.7579L39.6361 15.9713ZM38.3006 14.3342L37.2548 14.9228C37.3972 15.1757 37.6264 15.3685 37.9 15.4654L38.3006 14.3342ZM22.0554 14.4867L22.5956 15.5583C22.8303 15.4399 23.0197 15.2478 23.1346 15.0114L22.0554 14.4867ZM21.0767 15.9713L22.2576 15.7579L22.2576 15.7579L21.0767 15.9713ZM21.2745 23.8145C21.3924 24.4667 22.0166 24.8998 22.6688 24.782C23.3209 24.6641 23.7541 24.0399 23.6363 23.3877L21.2745 23.8145ZM37.4317 30.0382C37.9775 29.6674 38.4844 29.0937 38.6246 28.3178L36.2629 27.8909C36.2668 27.8692 36.2723 27.8735 36.25 27.9037C36.2261 27.936 36.1757 27.99 36.0831 28.0529L37.4317 30.0382ZM38.6246 28.3177L40.817 16.1847L38.4552 15.7579L36.2629 27.8909L38.6246 28.3177ZM40.817 16.1847C41.104 14.5965 39.7752 13.5835 38.7012 13.2031L37.9 15.4654C38.1989 15.5712 38.3636 15.7034 38.4311 15.7838C38.4617 15.8203 38.4628 15.8342 38.4588 15.8212C38.4535 15.8042 38.4514 15.779 38.4552 15.7579L40.817 16.1847ZM39.3463 13.7456C38.6471 12.5034 37.2955 11.5835 35.755 10.9785C34.1835 10.3612 32.2656 10.01 30.2186 10.01V12.41C32.0052 12.41 33.6205 12.7186 34.8776 13.2123C36.1659 13.7183 36.9384 14.3606 37.2548 14.9228L39.3463 13.7456ZM30.2186 10.01C28.1149 10.01 26.1462 10.3809 24.5496 11.0311C22.9889 11.6667 21.6188 12.6401 20.9761 13.9621L23.1346 15.0114C23.407 14.4511 24.148 13.786 25.4548 13.2539C26.7258 12.7362 28.3812 12.41 30.2186 12.41V10.01ZM21.5151 13.4152C20.6206 13.8662 19.6506 14.828 19.8958 16.1847L22.2576 15.7579C22.2607 15.7751 22.2602 15.7972 22.2557 15.8161C22.2517 15.8327 22.2485 15.8307 22.2623 15.8105C22.2939 15.764 22.3889 15.6625 22.5956 15.5583L21.5151 13.4152ZM19.8958 16.1847L21.2745 23.8145L23.6363 23.3877L22.2576 15.7579L19.8958 16.1847Z" fill="#134A85" mask="url(#path-3-outside-2_3059_12601)"/>
<mask id="path-5-outside-3_3059_12601" maskUnits="userSpaceOnUse" x="21.6738" y="11.1807" width="17" height="18" fill="black">
<rect fill="white" x="21.6738" y="11.1807" width="17" height="18"/>
<path d="M35.1079 27.0496C35.2915 26.8697 35.4135 26.656 35.4513 26.4224L37.0272 16.6749C37.1211 16.0946 36.6714 15.5683 35.9779 15.3269C35.1831 14.0808 32.9059 13.1807 30.2189 13.1807C27.4093 13.1807 25.047 14.1646 24.3599 15.4994C23.888 15.7764 23.6106 16.208 23.6861 16.6749L24.8091 23.6206"/>
</mask>
<path d="M34.2683 26.1922C33.7948 26.6559 33.7868 27.4156 34.2505 27.8892C34.7142 28.3627 35.474 28.3706 35.9475 27.9069L34.2683 26.1922ZM35.4513 26.4224L36.6359 26.6141L36.6359 26.614L35.4513 26.4224ZM37.0272 16.6749L35.8426 16.4833L35.8426 16.4834L37.0272 16.6749ZM35.9779 15.3269L34.9661 15.9722C35.1112 16.1996 35.3286 16.3715 35.5834 16.4602L35.9779 15.3269ZM24.3599 15.4994L24.9674 16.5342C25.1635 16.4191 25.3228 16.2507 25.4268 16.0486L24.3599 15.4994ZM23.6861 16.6749L24.8708 16.4834L24.8708 16.4833L23.6861 16.6749ZM23.6245 23.8121C23.7303 24.4664 24.3464 24.911 25.0006 24.8052C25.6549 24.6994 26.0995 24.0833 25.9937 23.4291L23.6245 23.8121ZM35.9475 27.9069C36.2799 27.5814 36.5501 27.1443 36.6359 26.6141L34.2667 26.2308C34.2714 26.2018 34.2802 26.1826 34.2844 26.175C34.2881 26.1683 34.2856 26.1753 34.2683 26.1922L35.9475 27.9069ZM36.6359 26.614L38.2119 16.8664L35.8426 16.4834L34.2667 26.2309L36.6359 26.614ZM38.2118 16.8664C38.4404 15.453 37.3247 14.5251 36.3724 14.1936L35.5834 16.4602C35.7603 16.5218 35.8407 16.5984 35.8607 16.6233C35.8685 16.6331 35.8586 16.624 35.8496 16.5934C35.8397 16.5601 35.8367 16.5202 35.8426 16.4833L38.2118 16.8664ZM36.9896 14.6816C36.3984 13.7547 35.3628 13.0926 34.2333 12.6644C33.0769 12.226 31.6896 11.9807 30.2189 11.9807V14.3807C31.4352 14.3807 32.53 14.5854 33.3826 14.9086C34.2622 15.242 34.7625 15.653 34.9661 15.9722L36.9896 14.6816ZM30.2189 11.9807C28.682 11.9807 27.2345 12.2486 26.0461 12.726C24.8918 13.1897 23.8245 13.9175 23.293 14.9501L25.4268 16.0486C25.5824 15.7465 26.0397 15.315 26.9408 14.953C27.8078 14.6047 28.9461 14.3807 30.2189 14.3807V11.9807ZM23.7523 14.4645C23.0223 14.8931 22.3198 15.7426 22.5015 16.8665L24.8708 16.4833C24.8754 16.5121 24.8749 16.5446 24.8685 16.5753C24.8624 16.605 24.8532 16.6224 24.8504 16.6271C24.8481 16.6311 24.8527 16.6221 24.8719 16.6038C24.891 16.5856 24.9219 16.5609 24.9674 16.5342L23.7523 14.4645ZM22.5015 16.8664L23.6245 23.8121L25.9937 23.4291L24.8708 16.4834L22.5015 16.8664Z" fill="#134A85" mask="url(#path-5-outside-3_3059_12601)"/>
<path d="M23.0768 36.6208C26.098 36.6208 28.5092 36.5546 30.4253 36.3898C32.3351 36.2255 33.79 35.9607 34.8804 35.5459C35.9846 35.1258 36.7495 34.5379 37.2192 33.7177C37.6788 32.9152 37.8107 31.9658 37.8107 30.9148C37.8107 28.5535 35.9764 26.5647 33.3471 25.2019C30.6879 23.8235 27.0558 22.9889 23.0768 22.9889C19.0978 22.9889 15.4658 23.8235 12.8065 25.2019C10.1773 26.5647 8.34287 28.5535 8.34287 30.9148C8.34287 31.9758 8.49622 32.928 8.98386 33.731C9.47886 34.5462 10.2697 35.1295 11.3876 35.5471C13.5698 36.3625 17.2163 36.6208 23.0768 36.6208Z" stroke="#134A85" stroke-width="1.2" stroke-miterlimit="10" stroke-linecap="round" stroke-linejoin="round"/>
<path d="M18.1029 24.4451C18.2109 24.2386 18.1896 23.9883 18.0482 23.803C17.9068 23.6178 17.671 23.5311 17.4433 23.5808C15.4281 24.0205 14.5918 25.7255 14.2517 27.1278C14.0787 27.8411 14.02 28.5229 14.0036 29.0224C13.9954 29.2734 13.9977 29.4814 14.0023 29.6284C14.0045 29.702 14.0074 29.7604 14.0097 29.8015C14.0109 29.822 14.0119 29.8383 14.0127 29.8499L14.0137 29.8638L14.014 29.8682L14.0142 29.8696L14.0142 29.8702C14.0142 29.8704 14.0142 29.8707 14.6123 29.8229L14.0142 29.8707C14.0355 30.1371 14.2305 30.3574 14.4924 30.4108C14.7544 30.4642 15.0201 30.3379 15.144 30.1011L18.1029 24.4451Z" stroke="#134A85" stroke-width="1.2" stroke-miterlimit="10" stroke-linecap="round" stroke-linejoin="round"/>
<path d="M24.9626 23.9666C25.0831 23.79 25.1005 23.5627 25.0083 23.3698C24.9161 23.1769 24.7283 23.0477 24.5152 23.0305C23.3914 22.9399 22.5131 23.3198 21.8589 23.9451C21.2241 24.5517 20.8225 25.3659 20.5633 26.1349C20.3021 26.9101 20.1702 27.6861 20.1029 28.2617C20.0691 28.5512 20.0511 28.7939 20.0416 28.9657C20.0369 29.0517 20.0342 29.1201 20.0327 29.168C20.032 29.1919 20.0315 29.2107 20.0313 29.2241L20.031 29.2399L20.0309 29.2447L20.0309 29.2462L20.0309 29.2468C20.0309 29.247 20.0309 29.2472 20.6309 29.2531L20.0309 29.2472C20.0283 29.5115 20.199 29.7464 20.4512 29.8255C20.7034 29.9047 20.9776 29.8095 21.1265 29.5911L24.9626 23.9666Z" stroke="#134A85" stroke-width="1.2" stroke-miterlimit="10" stroke-linecap="round" stroke-linejoin="round"/>
<path d="M31.2599 25.0991C31.3657 24.9431 31.392 24.7466 31.3311 24.5683C31.2702 24.39 31.129 24.2507 30.95 24.1921C29.9357 23.8602 29.0918 24.0401 28.4569 24.5842C27.8671 25.0896 27.5282 25.85 27.3241 26.5523C27.1159 27.2686 27.0242 28.0093 26.9833 28.561C26.9627 28.839 26.9546 29.0741 26.9518 29.2409C26.9503 29.3243 26.9502 29.3909 26.9504 29.4375C26.9505 29.4607 26.9507 29.479 26.9509 29.4919L26.9511 29.5072L26.9512 29.5118L26.9513 29.5132L26.9513 29.5138C26.9513 29.514 26.9513 29.5142 27.5511 29.4998L26.9513 29.5142C26.9575 29.775 27.1316 30.0019 27.3819 30.0754C27.6322 30.149 27.9013 30.0525 28.0477 29.8365L31.2599 25.0991Z" stroke="#134A85" stroke-width="1.2" stroke-miterlimit="10" stroke-linecap="round" stroke-linejoin="round"/>
</svg>
