<svg width="51" height="51" viewBox="0 0 51 51" fill="none" xmlns="http://www.w3.org/2000/svg">
<path d="M43.857 44.9387C44.7453 43.4009 45.2541 41.6177 45.2541 39.7178C45.2541 37.818 44.7499 36.0505 43.8689 34.5174C43.8628 34.5055 43.8573 34.4933 43.8504 34.4815C43.8407 34.4646 43.83 34.4488 43.8192 34.4331C42.7244 32.5687 41.0698 31.0709 39.0874 30.1736V17.31C39.0874 15.2206 37.3888 13.5208 35.301 13.5208C33.2131 13.5208 31.5117 15.2206 31.5117 17.31V17.7254L31.0298 15.955C30.4226 13.7244 29.5005 12.0661 28.2893 11.0262C27.5042 10.3522 26.6196 9.95963 25.6874 9.86102L23.9908 8.26607L23.9215 7.15712C23.8626 3.68773 22.1007 2.19947 21.0545 1.62073C19.4297 0.72166 17.3253 0.779334 15.6941 1.76796C14.0517 2.76325 13.1379 4.50084 13.1869 6.53516C13.1893 6.63208 13.2118 6.72741 13.2529 6.81506L13.517 7.37666C12.9265 8.12174 12.7089 9.16047 13.2571 10.2339L13.9223 20.689C13.9344 20.8802 14.0247 21.0579 14.1719 21.1805C14.3191 21.3031 14.5104 21.3595 14.7005 21.3373L21.2922 20.5554L23.2055 27.5831L17.7875 27.7292C16.1834 27.7721 14.2281 28.0807 13.3377 30.1082L7.86276 42.7155C7.84901 42.7471 7.83766 42.7797 7.82869 42.813C7.5724 43.7706 7.68067 44.6567 8.09624 45.3396H6.45528C6.07009 45.3396 5.75781 45.6519 5.75781 46.0371C5.75781 46.4222 6.07009 46.7345 6.45528 46.7345H14.9056C15.1959 48.6859 16.8822 50.1878 18.9128 50.1878C21.1471 50.1878 22.9647 48.3701 22.9647 46.1359C22.9647 44.3743 21.8343 42.8724 20.2609 42.3155L22.6019 33.5823H23.9689C24.3762 34.1097 24.9204 34.5278 25.5532 34.7819C24.7632 36.2533 24.3143 37.934 24.3143 39.7177C24.3143 41.6176 24.8231 43.4009 25.7115 44.9386C25.7138 44.9427 25.7155 44.9471 25.7179 44.9513C25.7205 44.9558 25.7239 44.9597 25.7265 44.9642C27.5411 48.0848 30.9215 50.1876 34.7841 50.1876C38.6466 50.1876 42.0271 48.0848 43.8417 44.9642C43.8444 44.9597 43.8476 44.9559 43.8502 44.9513C43.8526 44.9471 43.8544 44.9427 43.8567 44.9386L43.857 44.9387ZM34.0868 38.5084L27.301 34.5901C28.8145 32.3884 31.2731 30.8843 34.0868 30.6694V38.5084ZM25.7093 39.7178C25.7093 38.3143 26.0297 36.9842 26.601 35.7967L33.3895 39.7165L26.5999 43.637C26.0292 42.45 25.7092 41.1206 25.7092 39.7179L25.7093 39.7178ZM43.8592 39.7178C43.8592 41.1205 43.5391 42.4499 42.9685 43.6369L36.1789 39.7164L42.9674 35.7966C43.5387 36.9842 43.8591 38.3142 43.8591 39.7177L43.8592 39.7178ZM42.2675 34.5902L35.4818 38.5085V30.6696C38.2956 30.8845 40.7541 32.3885 42.2675 34.5903V34.5902ZM16.417 2.96078C17.6285 2.22666 19.1838 2.17984 20.3794 2.84125C21.7328 3.58991 22.4955 5.13625 22.5272 7.19537C22.5273 7.20633 22.5277 7.21729 22.5284 7.22814L22.616 8.62865C22.6271 8.80566 22.7053 8.97181 22.8343 9.09333L23.8455 10.0439C22.5555 10.4389 21.434 11.3649 20.7366 12.5252L20.4308 12.1977C20.2578 12.0122 19.9974 11.9357 19.7516 11.997C19.3613 12.0948 19.0396 12.1822 18.7557 12.2595C18.5776 12.3079 18.3972 12.3567 18.2356 12.3971L18.2496 7.95768C18.25 7.83447 18.2178 7.71334 18.1562 7.60676C17.3408 6.1945 15.8076 5.99588 14.649 6.50558L14.5801 6.35885C14.5855 4.37175 15.7264 3.37934 16.4172 2.96078H16.417ZM18.2309 13.8291C18.4792 13.7801 18.7659 13.7023 19.1215 13.6055C19.2955 13.5581 19.4842 13.5069 19.6935 13.4519L20.1401 13.9303C20.0782 14.167 20.0327 14.4075 20.0073 14.6504L18.2267 15.1271L18.2308 13.8291H18.2309ZM22.48 19.6087C22.3893 19.2752 22.0696 19.0579 21.7249 19.0993L15.2675 19.8652L14.6394 9.99211C14.6326 9.88493 14.6011 9.78083 14.5474 9.6878C14.0572 8.83813 14.516 8.17145 15.0576 7.85877C15.4865 7.61124 16.3197 7.4176 16.8539 8.1583L16.8382 13.1431C16.8379 13.1518 16.8382 13.1604 16.8382 13.169L16.8291 16.0342C16.8284 16.2515 16.929 16.4565 17.101 16.589C17.2732 16.7215 17.4973 16.7661 17.7069 16.7102L20.8608 15.8659C21.1701 15.7831 21.3833 15.5002 21.3778 15.18C21.346 13.3546 22.9274 11.5239 24.7621 11.2624C24.9622 11.234 25.159 11.2242 25.3524 11.2319C25.3591 11.2322 25.3659 11.2327 25.3727 11.2328C27.2658 11.3217 28.8164 13.1338 29.684 16.3212L31.5118 23.036V23.5895C31.5118 25.7333 29.7677 27.4774 27.6238 27.4774H26.9687C26.8738 27.4774 26.7801 27.4821 26.6869 27.489L24.6408 27.5442L22.4802 19.6086L22.48 19.6087ZM21.5698 46.1358C21.5698 47.6008 20.3779 48.7927 18.9128 48.7927C17.4478 48.7927 16.2559 47.6008 16.2559 46.1358C16.2559 46.1068 16.2572 46.0781 16.2581 46.0494C16.2581 46.0452 16.2587 46.0411 16.2587 46.037C16.2587 46.0356 16.2585 46.0343 16.2585 46.0329C16.3128 44.6154 17.4822 43.479 18.9127 43.479C19.0465 43.479 19.178 43.4891 19.3066 43.5084C19.3112 43.509 19.3156 43.5098 19.3203 43.5103C20.5925 43.707 21.5697 44.8094 21.5697 46.1359L21.5698 46.1358ZM18.8787 42.0849C16.9323 42.1011 15.309 43.4962 14.94 45.3395H13.4371C13.6187 45.1321 13.787 44.8988 13.9376 44.6376C13.9455 44.6239 13.953 44.6099 13.9599 44.5957L19.348 33.5823H21.1577L18.8787 42.0849ZM18.9128 32.1874C18.6465 32.1874 18.4034 32.3391 18.2864 32.5783L12.718 43.9604C12.0034 45.1797 10.7459 45.4769 9.91999 45.1352C9.20619 44.8398 8.93206 44.1439 9.16376 43.2212L14.6158 30.6664C15.0818 29.6053 15.9815 29.1727 17.8248 29.1236L23.9671 28.9579C23.4737 29.5977 23.1793 30.3984 23.1793 31.2669C23.1793 31.5838 23.2189 31.8921 23.2926 32.1874H18.9128ZM24.9523 32.5567C24.9392 32.5321 24.9244 32.5086 24.9085 32.4858C24.6963 32.1275 24.5742 31.7106 24.5742 31.2669C24.5742 29.9467 25.6483 28.8726 26.9685 28.8726H27.6236C30.5365 28.8726 32.9065 26.5027 32.9065 23.5897V17.31C32.9065 15.9898 33.9806 14.9157 35.3009 14.9157C36.6211 14.9157 37.6924 15.9898 37.6924 17.31V29.6594C36.7687 29.3919 35.7929 29.248 34.7842 29.248C31.3072 29.248 28.2212 30.9521 26.316 33.5686C25.7427 33.4069 25.2623 33.0411 24.9523 32.5567ZM27.2995 44.8435L34.0867 40.9245V48.7663C31.2721 48.5513 28.8129 47.0465 27.2995 44.8435ZM35.4816 48.7663V40.9245L42.2688 44.8435C40.7556 47.0464 38.2963 48.5513 35.4816 48.7663Z" fill="#134A85"/>
</svg>
