<svg width="51" height="51" viewBox="0 0 51 51" fill="none" xmlns="http://www.w3.org/2000/svg">
<path d="M44.1358 29.6605C43.8062 26.9556 42.5969 24.4341 40.6938 22.4839C38.7908 20.5337 36.2996 19.263 33.6036 18.8674L31.0242 18.4929C34.2445 11.5372 28.7098 3.01104 20.9975 3.18826C18.5677 3.18517 16.2063 3.99246 14.2869 5.48238C12.3675 6.9723 10.9998 9.05975 10.4002 11.4144C10.3543 11.6169 10.3894 11.8294 10.4978 12.0065C10.6063 12.1836 10.7796 12.3113 10.9808 12.3626C11.182 12.4138 11.3953 12.3844 11.5753 12.2807C11.7552 12.1771 11.8875 12.0072 11.9441 11.8074C12.4569 9.79623 13.6256 8.01342 15.2654 6.74101C16.9052 5.46861 18.9224 4.77926 20.998 4.78201C33.3983 5.29847 33.3966 22.9577 20.998 23.4687C18.6281 23.4664 16.3474 22.5648 14.6166 20.9459C12.8857 19.3271 11.8338 17.1117 11.6732 14.7473C11.6596 14.5363 11.5628 14.3394 11.404 14.1999C11.2452 14.0604 11.0375 13.9897 10.8266 14.0033C10.6156 14.0169 10.4188 14.1138 10.2792 14.2726C10.1397 14.4313 10.069 14.639 10.0826 14.85C10.2588 17.529 11.4208 20.048 13.3444 21.921L10.2725 25.0238C8.84649 26.4624 7.89122 28.3003 7.53324 30.294L5.66792 40.6001C4.61421 45.8779 10.8708 49.8692 15.215 46.6929L24.6303 40.0456C25.5418 39.3961 26.1637 38.4164 26.3635 37.3151C26.5633 36.2138 26.3253 35.0781 25.7001 34.1497C25.0749 33.2214 24.112 32.5738 23.0164 32.3449C21.9208 32.116 20.7791 32.3239 19.8345 32.9244L14.4167 36.3936C14.2412 36.5086 14.1181 36.6882 14.0742 36.8934C14.0303 37.0986 14.0691 37.3128 14.1822 37.4896C14.2953 37.6663 14.4735 37.7914 14.6783 37.8375C14.883 37.8836 15.0976 37.8472 15.2756 37.736L20.6934 34.2668C21.2874 33.8842 22.0076 33.7496 22.6997 33.8919C23.3918 34.0343 24.0004 34.4422 24.3952 35.0283C24.7899 35.6143 24.9392 36.3316 24.811 37.0265C24.6828 37.7213 24.2874 38.3382 23.7096 38.7448L14.295 45.3908C13.5592 45.8987 12.6899 46.1783 11.7959 46.1944C10.902 46.2106 10.0231 45.9626 9.26946 45.4815C8.5158 45.0004 7.92084 44.3077 7.55911 43.49C7.19738 42.6723 7.08496 41.7661 7.23593 40.8848L9.10213 30.5769C9.40327 28.8998 10.2068 27.3539 11.4064 26.1438L14.5656 22.9532C15.7745 23.8264 17.1488 24.4438 18.6044 24.768C20.0601 25.0921 21.5665 25.116 23.0317 24.8384C24.4969 24.5607 25.8901 23.9872 27.1262 23.153C28.3623 22.3188 29.4154 21.2413 30.2211 19.9864L33.3749 20.445C35.7244 20.7898 37.8955 21.8973 39.5539 23.597C41.2123 25.2967 42.266 27.4944 42.5529 29.8517L43.8439 40.5827C43.8692 40.7926 43.9768 40.9838 44.1431 41.1144C44.3094 41.2449 44.5208 41.3041 44.7307 41.2788C44.9406 41.2535 45.1319 41.1458 45.2624 40.9795C45.393 40.8132 45.4521 40.6019 45.4268 40.392L44.1358 29.6605Z" fill="#134A85"/>
<path d="M35.1756 31.6787C35.1172 31.4773 34.9819 31.3071 34.799 31.2048C34.616 31.1025 34.4001 31.0765 34.1981 31.1323C33.996 31.1881 33.8241 31.3212 33.7195 31.5029C33.6149 31.6846 33.5862 31.9001 33.6394 32.1028L36.2907 41.7057C36.349 41.9071 36.4843 42.0773 36.6673 42.1796C36.8503 42.2819 37.0662 42.3079 37.2682 42.2522C37.4703 42.1964 37.6422 42.0632 37.7468 41.8815C37.8513 41.6999 37.8801 41.4843 37.8268 41.2816L35.1756 31.6787Z" fill="#134A85"/>
<path d="M19.4635 30.1832L20.1522 29.1588L20.7171 29.9698C20.7757 30.0585 20.8514 30.1347 20.9398 30.1938C21.0283 30.2528 21.1276 30.2936 21.2321 30.3136C21.3365 30.3337 21.4439 30.3327 21.5479 30.3106C21.652 30.2885 21.7505 30.2458 21.8378 30.185C21.925 30.1242 21.9993 30.0466 22.0561 29.9567C22.1129 29.8668 22.1511 29.7664 22.1685 29.6615C22.1859 29.5566 22.1821 29.4492 22.1574 29.3458C22.1327 29.2424 22.0875 29.1449 22.0245 29.0592L20.795 27.2931C20.7198 27.1886 20.6206 27.1036 20.5057 27.0453C20.3909 26.987 20.2637 26.957 20.1349 26.958C20.0061 26.959 19.8795 26.9909 19.7655 27.051C19.6516 27.111 19.5537 27.1975 19.4801 27.3033L18.3969 28.9129L16.1538 28.7665C16.0192 28.7587 15.8848 28.7851 15.763 28.8432C15.6413 28.9013 15.5363 28.9891 15.4576 29.0986C15.3789 29.2082 15.3291 29.3358 15.3129 29.4697C15.2967 29.6036 15.3146 29.7394 15.3649 29.8645L16.3212 32.1929C16.4015 32.3884 16.5561 32.544 16.7512 32.6254C16.9462 32.7068 17.1656 32.7075 17.3611 32.6272C17.5566 32.5469 17.7122 32.3922 17.7936 32.1972C17.875 32.0021 17.8757 31.7827 17.7954 31.5873L17.324 30.4399L18.7497 30.5333C18.8891 30.5439 19.0288 30.5171 19.1543 30.4555C19.2798 30.394 19.3866 30.3 19.4635 30.1832Z" fill="#134A85"/>
<path d="M30.6107 29.5717C30.5393 29.4743 30.4467 29.3945 30.3399 29.3381C30.2331 29.2818 30.1149 29.2504 29.9943 29.2464L28.2286 29.1876L26.964 27.169C26.8916 27.0562 26.7922 26.9633 26.6747 26.8989C26.5572 26.8344 26.4255 26.8003 26.2915 26.7998C26.1575 26.7993 26.0255 26.8324 25.9075 26.896C25.7896 26.9595 25.6894 27.0517 25.6162 27.1639L24.7267 28.56C24.6132 28.7383 24.5752 28.9544 24.621 29.1608C24.6668 29.3672 24.7928 29.5468 24.9711 29.6603C25.1494 29.7738 25.3655 29.8119 25.5719 29.766C25.7782 29.7202 25.9579 29.5943 26.0714 29.4159L26.2831 29.0841L27.1025 30.3933C27.4087 30.9487 28.3695 30.7372 28.9266 30.8059C28.8651 31.1661 28.4125 32.2038 28.6052 32.5583L29.0122 33.589L28.2294 33.9205C28.037 34.0044 27.8855 34.1607 27.8077 34.3556C27.7299 34.5505 27.7321 34.7683 27.8139 34.9615C27.8957 35.1548 28.0504 35.308 28.2444 35.3879C28.4385 35.4678 28.6562 35.4679 28.8504 35.3882L30.3492 34.7536C30.5408 34.6726 30.6932 34.5199 30.7736 34.3281C30.854 34.1362 30.8562 33.9205 30.7795 33.7271L30.1859 32.2218L30.7352 30.2576C30.7678 30.1413 30.7736 30.0191 30.752 29.9003C30.7304 29.7814 30.6821 29.6691 30.6107 29.5717Z" fill="#134A85"/>
<path d="M31.1031 38.3959L29.5322 37.8737C29.333 37.8119 29.1175 37.8306 28.9319 37.9259C28.7463 38.0212 28.6055 38.1854 28.5397 38.3834C28.4739 38.5813 28.4884 38.7972 28.58 38.9846C28.6715 39.172 28.8329 39.3161 29.0295 39.3858L29.4041 39.5103L28.3341 40.625C28.2437 40.7192 28.1778 40.8341 28.1422 40.9597C28.1067 41.0853 28.1025 41.2177 28.1302 41.3453L28.3792 42.4946C28.0126 42.5237 26.9012 42.3353 26.6011 42.6098L25.7006 43.2557L25.1877 42.5772C25.1256 42.4913 25.0469 42.4186 24.9564 42.3635C24.8658 42.3083 24.7651 42.2718 24.6603 42.2561C24.5554 42.2404 24.4484 42.2457 24.3457 42.2718C24.2429 42.298 24.1464 42.3443 24.0618 42.4082C23.9772 42.4721 23.9061 42.5523 23.8529 42.644C23.7996 42.7357 23.7652 42.8371 23.7517 42.9422C23.7381 43.0474 23.7457 43.1542 23.7739 43.2564C23.8022 43.3586 23.8505 43.4542 23.9162 43.5374L24.8975 44.8363C25.0228 45.0023 25.208 45.1127 25.4136 45.1439C25.6192 45.1752 25.8288 45.1249 25.9978 45.0037L27.3122 44.0605L29.3511 44.1142C29.4714 44.1163 29.5907 44.0913 29.7001 44.0411C29.8095 43.9909 29.9062 43.9167 29.983 43.824C30.0598 43.7313 30.1148 43.6225 30.1439 43.5057C30.173 43.3889 30.1755 43.2671 30.1511 43.1492L29.7776 41.4224L31.4271 39.7034C31.5187 39.6057 31.5843 39.4866 31.6181 39.357C31.6519 39.2275 31.6527 39.0915 31.6205 38.9616C31.5883 38.8316 31.5241 38.7117 31.4337 38.613C31.3433 38.5142 31.2297 38.4395 31.1031 38.3959Z" fill="#134A85"/>
</svg>
