<svg width="51" height="51" viewBox="0 0 51 51" fill="none" xmlns="http://www.w3.org/2000/svg">
<g clip-path="url(#clip0_3059_12467)">
<path d="M44.8734 14.1563C43.5552 10.8557 40.8181 8.45602 37.3639 7.5729C33.8847 6.68361 30.3024 7.48368 27.5389 9.76562L27.5205 9.78085L27.5204 9.78075C26.987 10.2228 26.2134 10.1749 25.7594 9.67172C24.3134 8.06898 23.2928 6.18444 22.7264 4.07019L21.8317 0.731371C21.7166 0.300813 21.3249 0 20.879 0H17.6265C16.9779 0 16.5058 0.614471 16.6739 1.24159C17.8956 5.80098 17.8166 5.51252 17.8942 5.77937C18.0095 6.17548 18.4241 6.40231 18.8201 6.2876C19.2161 6.17229 19.4437 5.75787 19.3283 5.36176C19.2534 5.10466 19.2791 5.19378 18.2876 1.49351H20.4897L21.2838 4.45673C21.9119 6.8012 23.0447 8.89246 24.6506 10.6722C25.6427 11.7715 27.3217 11.8851 28.4736 10.9308C28.4764 10.9284 28.4839 10.9223 28.4868 10.9199C30.8816 8.94254 33.9822 8.2499 36.9941 9.02001C39.9809 9.78354 42.3473 11.8576 43.4865 14.7103C46.606 22.5213 46.0139 30.1807 41.8195 36.2774C38.7538 40.7326 33.8811 43.5089 28.4511 43.894C23.4916 44.2458 18.6946 42.5716 15.0521 39.2659C14.4339 38.6844 14.0805 37.8608 14.0805 36.996C14.0805 36.5835 13.7463 36.2492 13.3337 36.2492C12.9212 36.2492 12.5869 36.5835 12.5869 36.996C12.5869 37.0652 12.5885 37.1342 12.5916 37.203C12.0509 36.9818 11.4575 36.8951 10.8525 36.9591C9.7193 37.0789 8.73691 37.7104 8.15719 38.6917C7.32604 40.0983 7.5706 41.9058 8.75184 43.0872L15.1713 49.5065H12.1633L7.20307 44.5462C5.38057 42.7236 5.00776 39.8919 6.29645 37.6601C7.08786 36.2892 8.36052 35.3358 9.87982 34.9754C11.3926 34.6164 13.009 34.8702 14.2028 35.6546C15.7863 36.6951 17.6824 37.0472 19.4048 36.62C21.206 36.1736 22.8153 35.1203 23.9362 33.6545C24.453 32.9786 24.9008 32.2332 25.2667 31.439C26.6094 28.5254 26.6966 25.3516 25.5187 22.2608C24.8 20.3749 24.6588 18.3569 25.1062 16.4046C26.1696 15.7579 27.0642 14.8532 27.6987 13.7812C27.9088 13.4264 27.7914 12.9682 27.4364 12.7582C27.0814 12.5481 26.6235 12.6656 26.4134 13.0205C26.0715 13.5981 25.6357 14.1152 25.1281 14.5499C24.9801 14.1049 24.7174 13.6965 24.3531 13.3685C22.8096 11.9787 21.5414 10.3394 20.5838 8.49595C20.3938 8.12982 19.9428 7.98733 19.5769 8.17751C19.2109 8.3676 19.0683 8.81847 19.2585 9.18441C20.2987 11.1872 21.6766 12.9684 23.3537 14.4784C23.7066 14.7961 23.8519 15.2769 23.7331 15.7332C23.1221 18.0787 23.2569 20.5198 24.1231 22.7928C25.1548 25.4998 25.0812 28.2734 23.9103 30.8139C23.5903 31.5083 23.1998 32.1588 22.7498 32.7474C21.8342 33.9448 20.5187 34.8054 19.0456 35.1704C17.7257 35.4976 16.2597 35.219 15.0231 34.4064C13.4923 33.4007 11.4405 33.0698 9.53519 33.5222C7.61172 33.9785 6.00221 35.1829 5.00308 36.9134C3.37704 39.7296 3.84753 43.3027 6.14699 45.6025L11.2558 50.7113C11.4421 50.8975 11.6898 51.0001 11.9532 51.0001H16.3961C16.7965 51.0001 17.1541 50.7611 17.3073 50.3913C17.4605 50.0215 17.3765 49.5996 17.0936 49.3164L9.80793 42.0308C9.10882 41.3317 8.95876 40.2709 9.44299 39.4513C9.78004 38.881 10.3509 38.5139 11.0094 38.4443C11.6782 38.3728 12.3253 38.6189 12.7843 39.1171C13.1889 39.5564 13.6104 39.9745 14.0471 40.371C14.0638 40.3865 14.0807 40.402 14.0978 40.4175C17.9089 43.8547 23.0475 45.7735 28.5566 45.3839C34.4424 44.9663 39.725 41.9557 43.0498 37.1241C47.5364 30.6027 48.184 22.446 44.8734 14.1563Z" fill="#134A85"/>
<path d="M27.9031 25.5939C27.5566 25.742 27.3354 26.0815 27.34 26.4587C27.3634 28.3902 26.9326 30.285 26.0681 32.0742C25.8885 32.4455 26.0441 32.8921 26.4153 33.0716C26.7866 33.2513 27.2332 33.0955 27.4127 32.7244C28.2942 30.902 28.7989 28.9156 28.8327 26.834C29.1134 26.7396 29.4335 26.6772 29.9273 26.6772C30.6937 26.6772 31.0374 26.8259 31.4727 27.0142C31.9709 27.2296 32.5356 27.4738 33.6111 27.4738C34.6867 27.4738 35.2513 27.2296 35.7495 27.0142C36.1848 26.8259 36.5286 26.6772 37.295 26.6772C38.0614 26.6772 38.4052 26.8259 38.8405 27.0142C39.3388 27.2296 39.9034 27.4738 40.979 27.4738C41.8255 27.4738 42.3555 27.3225 42.7858 27.1531C42.392 29.9352 41.3792 32.5262 39.7686 34.867C38.3117 36.9843 36.4263 38.64 34.1647 39.7881C32.0221 40.8759 29.6018 41.4507 27.1655 41.4507C24.5775 41.4507 22.1301 40.8475 19.8911 39.6578C19.7179 39.5657 19.7097 39.411 19.7202 39.3271C19.7309 39.2419 19.7777 39.0921 19.9739 39.0443L20.0038 39.0369C22.064 38.5263 23.9077 37.4277 25.3355 35.8597C25.6132 35.5548 25.5911 35.0823 25.2862 34.8047C24.9813 34.5269 24.5088 34.5489 24.2312 34.854C23.0132 36.1915 21.4331 37.1465 19.6179 37.5938C18.875 37.7746 18.3335 38.382 18.2383 39.1411C18.1433 39.8983 18.5169 40.6189 19.1903 40.9768C21.6474 42.2823 24.3306 42.9444 27.1656 42.9444C29.8357 42.9444 32.4899 42.3135 34.8408 41.12C37.3274 39.8577 39.3993 38.0389 40.9993 35.7137C42.9347 32.9009 44.0724 29.7538 44.3812 26.3604C44.4094 26.0511 44.2817 25.7498 44.0396 25.5545C43.7968 25.3587 43.474 25.2974 43.1769 25.3909C42.9273 25.4693 42.7136 25.5617 42.525 25.6432C42.0896 25.8315 41.7457 25.9802 40.9792 25.9802C40.2128 25.9802 39.869 25.8315 39.4337 25.6432C38.9354 25.4277 38.3708 25.1836 37.2952 25.1836C36.2196 25.1836 35.655 25.4277 35.1568 25.6432C34.7215 25.8315 34.3777 25.9802 33.6113 25.9802C32.8449 25.9802 32.5012 25.8315 32.0659 25.6432C31.5677 25.4277 31.003 25.1836 29.9275 25.1836C28.9469 25.1834 28.3899 25.3861 27.9031 25.5939Z" fill="#134A85"/>
<path d="M34.8616 31.3061C35.274 31.3061 35.6084 30.9718 35.6084 30.5593C35.6084 30.1469 35.274 29.8125 34.8616 29.8125C34.4491 29.8125 34.1147 30.1469 34.1147 30.5593C34.1147 30.9718 34.4491 31.3061 34.8616 31.3061Z" fill="#134A85"/>
<path d="M30.279 34.0629C30.6915 34.0629 31.0258 33.7286 31.0258 33.3161C31.0258 32.9037 30.6915 32.5693 30.279 32.5693C29.8666 32.5693 29.5322 32.9037 29.5322 33.3161C29.5322 33.7286 29.8666 34.0629 30.279 34.0629Z" fill="#134A85"/>
<path d="M34.8616 36.6479C35.274 36.6479 35.6084 36.3136 35.6084 35.9011C35.6084 35.4887 35.274 35.1543 34.8616 35.1543C34.4491 35.1543 34.1147 35.4887 34.1147 35.9011C34.1147 36.3136 34.4491 36.6479 34.8616 36.6479Z" fill="#134A85"/>
<path d="M27.2707 39.1762C27.6832 39.1762 28.0175 38.8419 28.0175 38.4294C28.0175 38.017 27.6832 37.6826 27.2707 37.6826C26.8583 37.6826 26.5239 38.017 26.5239 38.4294C26.5239 38.8419 26.8583 39.1762 27.2707 39.1762Z" fill="#134A85"/>
<path d="M39.613 31.1098C40.0255 31.1098 40.3598 30.7755 40.3598 30.363C40.3598 29.9506 40.0255 29.6162 39.613 29.6162C39.2006 29.6162 38.8662 29.9506 38.8662 30.363C38.8662 30.7755 39.2006 31.1098 39.613 31.1098Z" fill="#134A85"/>
<path d="M31.344 23.978C31.7564 23.978 32.0908 23.6436 32.0908 23.2312C32.0908 22.8187 31.7564 22.4844 31.344 22.4844C30.9315 22.4844 30.5972 22.8187 30.5972 23.2312C30.5972 23.6436 30.9315 23.978 31.344 23.978Z" fill="#134A85"/>
<path d="M40.8083 24.227C41.2208 24.227 41.5551 23.8927 41.5551 23.4802C41.5551 23.0678 41.2208 22.7334 40.8083 22.7334C40.3959 22.7334 40.0615 23.0678 40.0615 23.4802C40.0615 23.8927 40.3959 24.227 40.8083 24.227Z" fill="#134A85"/>
<path d="M36.3081 18.1692V18.7511C36.3081 19.1636 36.6424 19.4979 37.0549 19.4979C37.4629 19.4979 37.7945 19.1708 37.8016 18.7645H38.8585C39.2231 18.7645 39.5488 18.5469 39.6884 18.2102C39.8279 17.8734 39.7517 17.4892 39.4937 17.2309L36.4406 14.1779C36.0897 13.8264 35.5212 13.8261 35.1696 14.1774L32.1161 17.2309C31.8583 17.4888 31.7818 17.873 31.9214 18.21C32.0609 18.5469 32.3867 18.7645 32.7514 18.7645H33.808V22.9831C33.808 23.4785 34.2111 23.8813 34.7064 23.8813H36.9033C37.3987 23.8813 37.8015 23.4784 37.8015 22.9831V22.2362C37.8015 21.8236 37.4673 21.4894 37.0547 21.4894C36.6422 21.4894 36.3079 21.8236 36.3079 22.2362V22.3877H35.3015V18.1692C35.3015 17.6738 34.8986 17.2709 34.4033 17.2709H34.1883L35.8048 15.6544L37.4214 17.2709H37.2064C36.7111 17.2708 36.3081 17.6738 36.3081 18.1692Z" fill="#134A85"/>
</g>
<defs>
<clipPath id="clip0_3059_12467">
<rect width="51" height="51" fill="white"/>
</clipPath>
</defs>
</svg>
