<svg width="51" height="51" viewBox="0 0 51 51" fill="none" xmlns="http://www.w3.org/2000/svg">
<g clip-path="url(#clip0_3020_6605)">
<path d="M18.4065 23.0852C18.5847 22.611 18.7258 22.1152 18.83 21.6055H21.5011C22.677 21.6055 23.7166 20.9898 24.282 19.9588C24.8474 18.9277 24.8074 17.7203 24.1752 16.7288L15.0514 2.42141C14.466 1.50326 13.4663 0.955078 12.3774 0.955078C11.2885 0.955078 10.2889 1.50326 9.70332 2.42141L0.579582 16.7289C-0.0526747 17.7204 -0.0926203 18.9278 0.472794 19.9589C1.03811 20.99 2.07769 21.6056 3.25365 21.6056H17.2996C16.9371 23.0387 16.188 24.4245 15.6047 25.8628C15.5135 25.7146 15.4127 25.5642 15.3014 25.4139C14.4794 24.3036 12.9174 22.9804 10.1444 22.9804C9.73181 22.9804 9.3973 23.3148 9.3973 23.7275C9.3973 24.1402 9.73181 24.4746 10.1444 24.4746C13.7928 24.4746 14.7397 27.2991 14.9153 27.9822C14.64 29.1639 14.5005 30.5627 14.5961 32.4442C14.6884 34.2696 14.4655 36.2252 12.1134 36.8882C10.7051 37.2849 7.72228 37.168 5.27663 35.2206C2.57198 33.0669 1.2742 29.2186 1.52383 24.0923C1.53031 23.959 1.53778 23.8272 1.54615 23.6967C1.57264 23.2849 1.26015 22.9297 0.848443 22.9033C0.436435 22.876 0.0814071 23.1892 0.0550091 23.601C0.0461434 23.7388 0.0382738 23.8782 0.0314004 24.0193C-0.159562 27.9432 0.433845 33.2743 4.34593 36.3894C6.30974 37.9532 8.65716 38.5709 10.5775 38.5708C11.2992 38.5707 11.9609 38.4834 12.5187 38.3264C16.3353 37.2506 16.1496 33.576 16.0884 32.3684C16.0558 31.7256 16.0527 31.1475 16.0743 30.6186C16.773 30.8883 17.3821 31.2467 17.8894 31.6923C19.2928 32.9259 20.0043 34.9146 20.0043 37.6032V49.2979C20.0043 49.7107 20.3388 50.0451 20.7514 50.0451C21.164 50.0451 21.4985 49.7107 21.4985 49.2979V37.6032C21.4985 34.4661 20.6161 32.0997 18.8757 30.5699C18.1404 29.9239 17.2488 29.4278 16.2225 29.0857C16.296 28.6257 16.3921 28.204 16.5061 27.8046C17.7447 28.1997 18.8232 28.793 19.718 29.5752C21.7647 31.3633 22.8025 34.0643 22.8025 37.6033V49.298C22.8025 49.7108 23.137 50.0452 23.5496 50.0452C23.9622 50.0452 24.2967 49.7108 24.2967 49.298V37.6032C24.2967 33.614 23.087 30.5343 20.7012 28.4499C20.1802 27.9946 19.6083 27.5949 18.9897 27.2514C20.506 26.8169 22.1664 25.9019 22.8611 23.9816C23.0014 23.5935 22.8007 23.1652 22.4127 23.0249C22.0246 22.8843 21.5964 23.0852 21.456 23.4733C20.7591 25.3992 18.4988 25.9391 17.13 26.0877C17.4908 25.2429 17.9888 24.1953 18.4065 23.0852ZM1.78293 19.2405C1.48399 18.6952 1.50501 18.0566 1.83941 17.5323L10.9632 3.22491C11.2774 2.73211 11.7928 2.4495 12.3773 2.4495C12.9617 2.4495 13.4772 2.73211 13.7914 3.22491L22.9152 17.5323C23.2495 18.0567 23.2706 18.6953 22.9716 19.2405C22.6727 19.7859 22.1228 20.1113 21.501 20.1113H3.25365C2.63175 20.1113 2.08198 19.7857 1.78293 19.2405Z" fill="#134A85"/>
<path d="M30.2486 42.2334C29.836 42.2334 29.5015 42.5678 29.5015 42.9805V49.2984C29.5015 49.7111 29.836 50.0455 30.2486 50.0455C30.6612 50.0455 30.9957 49.7111 30.9957 49.2984V42.9805C30.9957 42.5678 30.6613 42.2334 30.2486 42.2334Z" fill="#134A85"/>
<path d="M50.9687 24.0193C50.6224 16.9112 47.7039 13.8976 45.3164 12.621C41.5869 10.6268 37.2868 11.6698 35.3065 12.8572C33.7515 13.7895 32.6449 15.4163 32.1906 17.4379C31.9321 18.5883 31.8965 19.8344 32.073 21.0431C30.3722 19.1356 30.4033 16.3272 30.4038 16.301C30.404 16.2941 30.4041 16.2871 30.4041 16.2802V5.85258C30.4041 5.43988 30.0695 5.10547 29.6569 5.10547C29.2443 5.10547 28.9098 5.43988 28.9098 5.85258V16.2793C28.907 16.5816 28.9292 20.2241 31.42 22.5068C31.811 22.8657 32.2508 23.1781 32.7296 23.439C32.9793 24.0746 33.23 24.6384 33.4738 25.1854C32.3426 24.7985 31.3519 24.2178 30.5183 23.4486C27.4855 20.649 27.6019 16.3942 27.6084 16.2144C27.6087 16.2055 27.6089 16.1966 27.6089 16.1876V5.85258C27.6089 5.43988 27.2743 5.10547 26.8617 5.10547C26.4491 5.10547 26.1146 5.43988 26.1146 5.85258V16.1759C26.1042 16.5382 26.0345 21.343 29.5049 24.5465C30.5507 25.5115 31.7959 26.2241 33.2186 26.6753C32.1217 27.1173 31.144 27.7109 30.2991 28.4495C27.9132 30.534 26.7035 33.6137 26.7035 37.603V49.2977C26.7035 49.7104 27.038 50.0448 27.4506 50.0448C27.8632 50.0448 28.1977 49.7104 28.1977 49.2977V37.6029C28.1977 34.064 29.2355 31.3628 31.2823 29.5745C32.177 28.7925 33.2553 28.1992 34.4939 27.8041C34.6081 28.2035 34.7042 28.6252 34.7777 29.0851C33.7514 29.4273 32.8597 29.9235 32.1243 30.5697C30.3839 32.0992 29.5015 34.4656 29.5015 37.6029V39.4577C29.5015 39.8704 29.836 40.2048 30.2487 40.2048C30.6613 40.2048 30.9958 39.8704 30.9958 39.4577V37.6029C30.9958 34.9143 31.7074 32.9256 33.1106 31.692C33.6179 31.2463 34.2272 30.8878 34.9261 30.6181C34.9477 31.1468 34.9446 31.7248 34.9119 32.3675C34.8506 33.5751 34.6637 37.2502 38.4814 38.3257C39.0397 38.483 39.7011 38.5703 40.4232 38.5702C42.3433 38.5702 44.6908 37.9525 46.6542 36.3892C50.5665 33.2744 51.1598 27.9432 50.9687 24.0193ZM45.7236 35.2205C43.2779 37.1679 40.295 37.2845 38.8867 36.8876C36.5339 36.2248 36.3115 34.2692 36.4044 32.4435C36.5 30.562 36.3603 29.1632 36.0849 27.9816C36.2605 27.2984 37.2075 24.4742 40.8558 24.4742C41.2684 24.4742 41.6029 24.1398 41.6029 23.7271C41.6029 23.3144 41.2684 22.98 40.8558 22.98C38.0828 22.98 36.5208 24.3033 35.6988 25.4135C35.5874 25.5639 35.4866 25.7144 35.3953 25.8627C34.9822 24.8533 34.4536 23.7823 33.9921 22.5596C32.6166 18.8951 33.971 15.4004 36.0749 14.139C37.0428 13.5586 38.7667 12.9992 40.6707 12.9992C41.9616 12.9992 43.3354 13.2565 44.6118 13.939C47.547 15.5084 49.229 19.0193 49.4761 24.0923C49.726 29.2187 48.4283 33.0668 45.7236 35.2205Z" fill="#134A85"/>
<path d="M12.3773 15.8555C11.9659 15.8555 11.6323 16.189 11.6323 16.6004C11.6323 17.0118 11.9658 17.3454 12.3773 17.3454C12.7887 17.3454 13.1223 17.0119 13.1223 16.6004C13.1222 16.189 12.7887 15.8555 12.3773 15.8555Z" fill="#134A85"/>
<path d="M12.3774 6.75391C11.9648 6.75391 11.6302 7.08831 11.6302 7.50102V13.0096C11.6302 13.4223 11.9648 13.7567 12.3774 13.7567C12.79 13.7567 13.1245 13.4223 13.1245 13.0096V7.50102C13.1245 7.08831 12.79 6.75391 12.3774 6.75391Z" fill="#134A85"/>
</g>
<defs>
<clipPath id="clip0_3020_6605">
<rect width="51" height="51" fill="white"/>
</clipPath>
</defs>
</svg>
