<svg width="51" height="52" viewBox="0 0 51 52" fill="none" xmlns="http://www.w3.org/2000/svg">
<path d="M43.3188 35.2681C43.2485 35.2682 43.1789 35.2544 43.114 35.2276C43.049 35.2007 42.99 35.1613 42.9403 35.1116L36.2964 28.4677H26.7988C26.6571 28.4676 26.5211 28.4113 26.4209 28.3111C26.3207 28.2108 26.2643 28.0749 26.2643 27.9332V11.8801C26.2643 11.7384 26.3207 11.6024 26.4209 11.5022C26.5211 11.402 26.6571 11.3457 26.7988 11.3457H46.8801C47.0217 11.3458 47.1575 11.4022 47.2577 11.5024C47.3578 11.6026 47.4141 11.7384 47.4141 11.8801V27.9332C47.4141 28.0749 47.3577 28.2109 47.2575 28.3111C47.1573 28.4113 47.0213 28.4677 46.8796 28.4677H43.8532V34.7337C43.8532 34.8754 43.7969 35.0113 43.6967 35.1116C43.5965 35.2118 43.4606 35.2681 43.3188 35.2681ZM27.3333 27.3989H36.5181C36.5883 27.3989 36.6578 27.4128 36.7226 27.4396C36.7875 27.4665 36.8464 27.5059 36.896 27.5555L42.7842 33.4436V27.9332C42.7842 27.863 42.798 27.7934 42.8249 27.7286C42.8517 27.6637 42.8911 27.6048 42.9407 27.5552C42.9904 27.5055 43.0493 27.4662 43.1142 27.4393C43.179 27.4125 43.2485 27.3986 43.3187 27.3986H46.3451V12.4146H27.3328L27.3333 27.3989ZM45.3422 15.9372C45.3422 15.7954 45.2859 15.6595 45.1856 15.5592C45.0854 15.459 44.9494 15.4027 44.8077 15.4027H28.8711C28.7293 15.4027 28.5934 15.459 28.4931 15.5592C28.3929 15.6595 28.3366 15.7954 28.3366 15.9372C28.3366 16.079 28.3929 16.2149 28.4931 16.3151C28.5934 16.4154 28.7293 16.4717 28.8711 16.4717H44.8072C44.8774 16.4718 44.947 16.458 45.0119 16.4312C45.0768 16.4044 45.1358 16.365 45.1855 16.3154C45.2352 16.2657 45.2746 16.2068 45.3015 16.1419C45.3284 16.077 45.3422 16.0074 45.3422 15.9372ZM45.3422 19.9066C45.3422 19.7649 45.2859 19.6289 45.1856 19.5287C45.0854 19.4284 44.9494 19.3721 44.8077 19.3721H28.8711C28.7293 19.3721 28.5934 19.4284 28.4931 19.5287C28.3929 19.6289 28.3366 19.7649 28.3366 19.9066C28.3366 20.0484 28.3929 20.1843 28.4931 20.2846C28.5934 20.3848 28.7293 20.4411 28.8711 20.4411H44.8072C44.8774 20.4412 44.947 20.4274 45.0119 20.4006C45.0768 20.3738 45.1358 20.3344 45.1855 20.2848C45.2352 20.2351 45.2746 20.1762 45.3015 20.1113C45.3284 20.0464 45.3422 19.9769 45.3422 19.9066ZM45.3422 23.8761C45.3422 23.7343 45.2859 23.5984 45.1856 23.4981C45.0854 23.3979 44.9494 23.3416 44.8077 23.3416H28.8711C28.7293 23.3416 28.5934 23.3979 28.4931 23.4981C28.3929 23.5984 28.3366 23.7343 28.3366 23.8761C28.3366 24.0178 28.3929 24.1538 28.4931 24.254C28.5934 24.3543 28.7293 24.4106 28.8711 24.4106H44.8072C44.8774 24.4106 44.947 24.3969 45.0119 24.3701C45.0768 24.3432 45.1358 24.3039 45.1855 24.2542C45.2352 24.2046 45.2746 24.1456 45.3015 24.0807C45.3284 24.0159 45.3422 23.9463 45.3422 23.8761ZM7.68118 40.6532C7.61099 40.6532 7.5415 40.6394 7.47665 40.6125C7.41181 40.5857 7.35289 40.5463 7.30327 40.4967C7.25364 40.4471 7.21428 40.3881 7.18743 40.3233C7.16057 40.2584 7.14676 40.189 7.14677 40.1188V33.8526H4.12044C4.05025 33.8527 3.98074 33.8388 3.91588 33.812C3.85103 33.7851 3.7921 33.7458 3.74246 33.6961C3.69283 33.6465 3.65345 33.5876 3.6266 33.5227C3.59974 33.4578 3.58592 33.3883 3.58594 33.3181V17.2652C3.58594 17.195 3.59976 17.1255 3.62663 17.0607C3.65349 16.9958 3.69286 16.9369 3.7425 16.8873C3.79213 16.8376 3.85105 16.7983 3.9159 16.7714C3.98075 16.7446 4.05025 16.7308 4.12044 16.7308H24.2017C24.3434 16.7308 24.4794 16.7871 24.5796 16.8873C24.6798 16.9875 24.7362 17.1234 24.7362 17.2652V33.3181C24.7362 33.4599 24.6799 33.5958 24.5796 33.6961C24.4794 33.7963 24.3435 33.8526 24.2017 33.8526H14.7033L8.05939 40.4966C8.00974 40.5463 7.95078 40.5857 7.88588 40.6125C7.82098 40.6394 7.75142 40.6532 7.68118 40.6532ZM4.65495 32.784H7.68128C7.82302 32.784 7.95896 32.8403 8.05919 32.9405C8.15943 33.0408 8.21575 33.1767 8.21578 33.3184V38.8287L14.104 32.9405C14.2042 32.8403 14.3402 32.784 14.4819 32.784H23.6672V17.7997H4.65495V32.784ZM22.6633 21.3226C22.6633 21.1808 22.607 21.0449 22.5068 20.9447C22.4066 20.8444 22.2707 20.7881 22.1289 20.7881H6.19281C6.05106 20.7881 5.9151 20.8444 5.81486 20.9446C5.71462 21.0449 5.65831 21.1808 5.65831 21.3226C5.65831 21.4643 5.71462 21.6003 5.81486 21.7005C5.9151 21.8008 6.05106 21.8571 6.19281 21.8571H22.1289C22.1991 21.8571 22.2687 21.8432 22.3335 21.8164C22.3984 21.7895 22.4573 21.7501 22.5069 21.7004C22.5566 21.6508 22.5959 21.5918 22.6228 21.5269C22.6496 21.462 22.6634 21.3925 22.6633 21.3223V21.3226ZM22.6633 25.292C22.6633 25.2218 22.6495 25.1523 22.6227 25.0875C22.5958 25.0226 22.5565 24.9637 22.5068 24.9141C22.4572 24.8644 22.3983 24.8251 22.3335 24.7982C22.2686 24.7713 22.1991 24.7575 22.1289 24.7575H6.19281C6.05106 24.7575 5.9151 24.8138 5.81486 24.9141C5.71462 25.0143 5.65831 25.1503 5.65831 25.292C5.65831 25.4338 5.71462 25.5697 5.81486 25.67C5.9151 25.7702 6.05106 25.8265 6.19281 25.8265H22.1289C22.2706 25.8265 22.4065 25.7702 22.5067 25.67C22.6069 25.5698 22.6633 25.4339 22.6633 25.2922V25.292ZM22.6633 29.2614C22.6633 29.1913 22.6495 29.1218 22.6227 29.0569C22.5958 28.9921 22.5565 28.9331 22.5068 28.8835C22.4572 28.8339 22.3983 28.7945 22.3335 28.7676C22.2686 28.7408 22.1991 28.7269 22.1289 28.7269H6.19281C6.12202 28.726 6.05173 28.7391 5.98604 28.7655C5.92035 28.7919 5.86056 28.8312 5.81015 28.8809C5.75975 28.9306 5.71972 28.9898 5.6924 29.0552C5.66508 29.1205 5.65101 29.1906 5.65101 29.2614C5.65101 29.3322 5.66508 29.4023 5.6924 29.4676C5.71972 29.5329 5.75975 29.5922 5.81015 29.6419C5.86056 29.6916 5.92035 29.7309 5.98604 29.7573C6.05173 29.7837 6.12202 29.7968 6.19281 29.7959H22.1289C22.1991 29.7959 22.2686 29.782 22.3335 29.7551C22.3984 29.7283 22.4573 29.6889 22.5069 29.6392C22.5565 29.5896 22.5959 29.5306 22.6227 29.4657C22.6496 29.4009 22.6634 29.3314 22.6633 29.2611V29.2614Z" fill="#134A85"/>
</svg>
