<svg width="51" height="52" viewBox="0 0 51 52" fill="none" xmlns="http://www.w3.org/2000/svg">
<path d="M28.6875 11.6543C28.6875 6.38248 24.3968 2.0918 19.125 2.0918C13.8532 2.0918 9.5625 6.38248 9.5625 11.6543C9.5625 11.9214 9.57184 12.1915 9.58894 12.4651C9.63572 13.5464 11.266 13.446 11.1796 12.367C11.1645 12.1242 11.1547 11.8861 11.1547 11.6542C11.1547 7.24376 14.713 3.68539 19.1235 3.68539C23.5339 3.68539 27.0922 7.2437 27.0922 11.6542C27.0922 12.6407 26.9573 13.7155 26.7031 14.8308C26.5697 14.8458 26.425 14.869 26.2938 14.9039V14.0448C26.2954 13.6046 25.9403 13.2464 25.5 13.2448H23.9063C22.1041 13.2448 21.4705 11.4036 21.4705 11.4036C21.3587 11.0636 21.0343 10.8406 20.6768 10.8573C20.3474 10.8723 20.0623 11.0904 19.9593 11.4036C19.9593 11.4036 19.323 13.2448 17.5297 13.2448H12.7469C12.3067 13.2464 11.9514 13.6046 11.9531 14.0448V14.8977C10.3597 14.5101 8.76563 15.6289 8.76563 17.2199C8.76563 19.5503 10.4058 21.0082 12.3539 21.1948C12.7575 22.3533 13.4505 23.3711 14.3438 24.1707V28.3901C14.3436 28.4756 14.3573 28.5609 14.3843 28.6422C15.1265 30.4736 16.8717 31.5775 19.1266 31.5775C21.3815 31.5775 23.1352 30.4665 23.8674 28.6422C23.8948 28.5609 23.9091 28.4756 23.9094 28.3901V24.1738C24.8027 23.3754 25.4976 22.3577 25.9 21.1995C27.7413 21.0125 29.4844 19.6044 29.4844 17.2191C29.4543 16.2991 28.9425 15.584 28.261 15.1841C28.5351 13.9802 28.6875 12.784 28.6875 11.6543ZM35.0609 6.0777V6.87147H34.2672C32.9566 6.87147 31.8734 7.9561 31.8734 9.26672V14.8418C31.8734 19.4158 35.3749 23.1649 39.8438 23.5669V34.7667C39.8438 36.1049 38.7944 37.1543 37.4562 37.1543H36.6158C36.2082 31.8033 31.7531 27.5917 26.2969 27.5917C25.2197 27.5767 25.2197 29.2003 26.2969 29.1855C30.8976 29.1855 34.6236 32.6637 35.022 37.1543H26.9786C26.6219 35.7872 25.3845 34.7667 23.9094 34.7667C22.1584 34.7667 20.7203 36.1971 20.7203 37.948C20.7203 39.699 22.1584 41.1371 23.9094 41.1371C25.3832 41.1371 26.619 40.1146 26.977 38.7481H37.4562C39.6498 38.7481 41.4391 36.9602 41.4391 34.7667V23.5669C45.9055 23.1619 49.4094 19.4136 49.4094 14.8418V9.26672C49.4094 7.9561 48.3247 6.87147 47.0141 6.87147H46.2203V6.0777C46.2203 4.9933 44.6266 4.99869 44.6266 6.0777V9.26672C44.6494 10.306 46.1973 10.306 46.2203 9.26672V8.4668H47.0141C47.4693 8.4668 47.8156 8.81152 47.8156 9.26672V14.8418C47.8156 18.8288 44.6245 22.0136 40.6375 22.0136C36.6505 22.0136 33.4672 18.8288 33.4672 14.8418V9.26672C33.4672 8.81152 33.8119 8.4668 34.2672 8.4668H35.0609V9.26672C35.0609 10.3303 36.6562 10.3303 36.6562 9.26672V6.0777C36.6562 5.02243 35.0609 4.98369 35.0609 6.0777ZM20.7203 13.2543C21.2269 13.9359 22.2488 14.8387 23.9078 14.8387H24.7016V18.8277C24.7015 21.9318 22.2291 24.4043 19.125 24.4043C16.0209 24.4043 13.5484 21.9318 13.5484 18.8277V14.8387H17.5312C19.1928 14.8387 20.1482 13.9719 20.7203 13.2543ZM26.2626 19.5063C26.326 18.5833 26.2953 17.6466 26.2953 16.6876C26.888 16.0758 27.8875 16.6012 27.8844 17.251C27.8787 18.4506 27.1537 19.2446 26.2626 19.5063ZM11.9889 19.5063C11.0979 19.2446 10.3672 18.4463 10.3672 17.251C10.3672 16.4645 11.4793 16.155 11.9547 16.6846C11.9491 17.6047 11.9408 18.6324 11.9889 19.5063ZM15.9375 25.254C16.8973 25.7298 17.9796 25.998 19.125 25.998C20.2714 25.998 21.3529 25.7293 22.3141 25.254V28.1956C22.3141 28.1956 21.6517 29.984 19.1266 29.984C16.6014 29.984 15.9375 28.1956 15.9375 28.1956V25.254ZM11.9531 27.5917C6.22781 27.5917 1.59375 32.2259 1.59375 37.9512V49.1074C1.5938 49.5475 1.95054 49.9043 2.39062 49.9043H7.99365H30.3062H35.8594C36.2995 49.9043 36.6562 49.5475 36.6562 49.1074V41.1386C36.6713 40.061 35.0473 40.061 35.0625 41.1386V43.5308H31.0797V41.1371C31.0797 40.0091 29.4859 40.0991 29.4859 41.1371V48.3105H8.76718V41.1371C8.76718 40.0619 7.17343 40.0595 7.17343 41.1371V43.5308H3.1875V37.9512C3.1875 33.0813 7.08319 29.1855 11.9531 29.1855C13.0303 29.2006 13.0303 27.577 11.9531 27.5917ZM23.9094 36.3543C24.799 36.3543 25.5031 37.0584 25.5031 37.948C25.5031 38.8377 24.799 39.5433 23.9094 39.5433C23.0197 39.5433 22.3141 38.8377 22.3141 37.948C22.3141 37.0584 23.0197 36.3543 23.9094 36.3543ZM3.1875 45.1261H7.17343V48.3105H3.1875V45.1261ZM31.0797 45.1261H35.0625V48.3105H31.0797V45.1261Z" fill="#134A85"/>
</svg>
