<svg width="51" height="52" viewBox="0 0 51 52" fill="none" xmlns="http://www.w3.org/2000/svg">
<path d="M28.3927 33.1719H27.0938V31.8809C27.0938 31.5907 26.979 31.3121 26.7745 31.1061C26.57 30.9001 26.2923 30.7834 26.002 30.7812H25.0059C24.7143 30.7812 24.4346 30.8971 24.2283 31.1033C24.0221 31.3096 23.9062 31.5893 23.9062 31.8809V33.1719H22.6153C22.3237 33.1719 22.0439 33.2877 21.8377 33.494C21.6315 33.7002 21.5156 33.9799 21.5156 34.2716V35.2677C21.5177 35.5579 21.6345 35.8356 21.8405 36.0401C22.0465 36.2446 22.325 36.3594 22.6153 36.3594H23.9062V37.6583C23.9084 37.9486 24.0251 38.2262 24.2311 38.4307C24.4371 38.6352 24.7157 38.75 25.0059 38.75H26.002C26.2909 38.7479 26.5674 38.6322 26.7717 38.4279C26.976 38.2237 27.0917 37.9472 27.0938 37.6583V36.3594H28.3927C28.6816 36.3573 28.958 36.2416 29.1623 36.0373C29.3666 35.833 29.4823 35.5566 29.4844 35.2677V34.2716C29.4844 33.9813 29.3696 33.7028 29.1651 33.4968C28.9606 33.2908 28.6829 33.174 28.3927 33.1719Z" fill="#134A85"/>
<path d="M25.5004 12.4531C26.1309 12.4531 26.7471 12.2662 27.2713 11.9159C27.7955 11.5657 28.204 11.0679 28.4453 10.4854C28.6866 9.90299 28.7497 9.26209 28.6267 8.64378C28.5037 8.02546 28.2001 7.4575 27.7543 7.01172C27.3086 6.56594 26.7406 6.26236 26.1223 6.13937C25.504 6.01638 24.8631 6.07951 24.2806 6.32076C23.6982 6.56201 23.2004 6.97056 22.8501 7.49475C22.4999 8.01893 22.3129 8.6352 22.3129 9.26563C22.3129 10.111 22.6488 10.9218 23.2465 11.5195C23.8443 12.1173 24.6551 12.4531 25.5004 12.4531ZM25.5004 7.67188C25.8156 7.67188 26.1238 7.76535 26.3859 7.94047C26.648 8.1156 26.8522 8.36451 26.9729 8.65572C27.0935 8.94694 27.1251 9.26739 27.0636 9.57655C27.0021 9.88571 26.8503 10.1697 26.6274 10.3926C26.4045 10.6155 26.1205 10.7673 25.8114 10.8288C25.5022 10.8902 25.1817 10.8587 24.8905 10.7381C24.5993 10.6174 24.3504 10.4132 24.1753 10.1511C24.0002 9.88898 23.9067 9.58084 23.9067 9.26563C23.9067 8.84294 24.0746 8.43756 24.3735 8.13868C24.6724 7.83979 25.0777 7.67188 25.5004 7.67188ZM17.6353 40.5191C17.4463 40.013 17.0679 39.6003 16.5801 39.3683C16.0923 39.1363 15.5333 39.1031 15.0215 39.2759H14.9418C14.732 37.8812 14.3986 36.5078 13.9457 35.172C13.5094 33.9434 12.8012 32.8293 11.8739 31.9128L9.48324 25.2669C9.34764 24.8787 9.12263 24.5278 8.82639 24.2427C8.53015 23.9575 8.171 23.746 7.77793 23.6253L9.45137 19.9517C9.64122 19.509 9.69967 19.021 9.61973 18.5459C9.53979 18.0709 9.32484 17.6288 9.00055 17.2726C8.67625 16.9164 8.2563 16.661 7.79082 16.537C7.32535 16.4129 6.834 16.4254 6.37543 16.573C6.07507 16.6769 5.79845 16.8396 5.56174 17.0517C5.32503 17.2638 5.13298 17.5209 4.99684 17.8081L2.12809 23.5616C2.08194 23.6647 2.05494 23.7754 2.0484 23.8883L1.59418 34.9489C1.58837 35.1258 1.64164 35.2997 1.74559 35.443L6.52684 42.1447L6.37543 42.1925C6.11564 42.2783 5.87585 42.4157 5.67046 42.5965C5.46506 42.7772 5.29828 42.9976 5.18012 43.2444C5.06501 43.4825 4.99866 43.7412 4.98498 44.0053C4.97129 44.2694 5.01055 44.5336 5.10043 44.7823L6.47106 48.5595C6.61806 48.9562 6.88342 49.2982 7.2312 49.539C7.57898 49.7799 7.99238 49.9081 8.41543 49.9062C8.64333 49.9081 8.86982 49.8703 9.0848 49.7947L17.7309 46.8781C17.9904 46.794 18.2301 46.6582 18.4356 46.4787C18.641 46.2993 18.808 46.08 18.9262 45.8342C19.0431 45.5967 19.1104 45.3378 19.1241 45.0734C19.1378 44.809 19.0976 44.5446 19.0059 44.2962L17.6353 40.5191ZM3.18793 34.7656L3.59434 24.1433L6.39137 18.5652C6.48753 18.3688 6.65606 18.2175 6.86152 18.1428C6.97291 18.1033 7.09125 18.0872 7.20916 18.0954C7.32706 18.1036 7.44201 18.136 7.54684 18.1906C7.74307 18.2932 7.89462 18.4645 7.97253 18.6718C8.05044 18.8791 8.04925 19.1078 7.96918 19.3142L5.94512 23.8325C5.66906 23.9724 5.42278 24.1645 5.21996 24.3983C4.9421 24.7241 4.75524 25.1174 4.67827 25.5386C4.60131 25.9598 4.63698 26.3939 4.78168 26.7969L7.17231 33.3631C7.24835 33.5561 7.39666 33.7119 7.58572 33.7972C7.77478 33.8826 7.98967 33.8909 8.18475 33.8204C8.37982 33.7498 8.53969 33.6059 8.63038 33.4194C8.72108 33.2328 8.73544 33.0182 8.67043 32.8213L6.27981 26.255C6.22515 26.1149 6.20888 25.9627 6.2327 25.8142C6.25651 25.6657 6.31954 25.5263 6.41527 25.4103C6.51862 25.3011 6.64724 25.219 6.78981 25.1713C6.91119 25.1351 7.03862 25.1239 7.16445 25.1383C7.29028 25.1526 7.41192 25.1922 7.52206 25.2548C7.6322 25.3173 7.72858 25.4014 7.80541 25.5021C7.88224 25.6027 7.93795 25.7179 7.96918 25.8406L10.4395 32.6619C10.4867 32.7785 10.5572 32.8842 10.6467 32.9727C11.4548 33.7441 12.0715 34.6937 12.4476 35.7458C12.904 37.0693 13.2218 38.4366 13.3959 39.8258L12.097 40.2641L8.11262 41.6108L3.18793 34.7656ZM17.5317 45.125C17.5052 45.1803 17.4674 45.2295 17.4207 45.2693C17.3741 45.3091 17.3196 45.3387 17.2607 45.3561L8.57481 48.3125C8.45731 48.3548 8.32803 48.3503 8.21379 48.2998C8.09955 48.2494 8.0091 48.1569 7.96121 48.0416L6.59059 44.2405C6.56951 44.1928 6.55862 44.1412 6.55862 44.0891C6.55862 44.0369 6.56951 43.9853 6.59059 43.9377C6.61822 43.8831 6.6564 43.8346 6.7029 43.795C6.74941 43.7553 6.80332 43.7253 6.86152 43.7066L8.02496 43.3081L10.5351 42.4634L15.4997 40.79C15.6172 40.7477 15.7464 40.7522 15.8607 40.8027C15.9749 40.8531 16.0654 40.9456 16.1132 41.0609L17.5317 44.8381C17.5689 44.9301 17.5689 45.033 17.5317 45.125ZM49.4067 34.9489L48.9843 23.8883C48.9778 23.7754 48.9508 23.6647 48.9047 23.5616L46.0439 17.8161C45.9041 17.5235 45.7063 17.2624 45.4624 17.0487C45.2186 16.835 44.9338 16.6732 44.6254 16.573C44.1627 16.4154 43.6641 16.3964 43.1907 16.5182C42.7174 16.64 42.2898 16.8973 41.9607 17.2587C41.6315 17.62 41.415 18.0696 41.3377 18.5522C41.2604 19.0349 41.3257 19.5296 41.5256 19.9756L43.199 23.6572C42.806 23.7779 42.4468 23.9894 42.1506 24.2746C41.8543 24.5597 41.6293 24.9106 41.4937 25.2988L39.1031 31.9447C38.1758 32.8612 37.4675 33.9753 37.0312 35.2039C36.5783 36.5397 36.245 37.913 36.0351 39.3078H35.9554C35.4446 39.1346 34.8865 39.1666 34.3989 39.397C33.9112 39.6275 33.5322 40.0384 33.3417 40.543L31.995 44.3281C31.9033 44.5765 31.8631 44.8409 31.8768 45.1053C31.8905 45.3697 31.9578 45.6285 32.0746 45.8661C32.1929 46.1119 32.3598 46.3312 32.5653 46.5106C32.7707 46.69 33.0105 46.8259 33.27 46.91L41.924 49.8266C42.1361 49.9029 42.3601 49.9407 42.5854 49.9381C43.0098 49.9416 43.425 49.8142 43.7744 49.5732C44.1237 49.3322 44.3903 48.9894 44.5378 48.5914L45.9084 44.8142C45.9983 44.5655 46.0375 44.3013 46.0238 44.0372C46.0102 43.7731 45.9438 43.5144 45.8287 43.2762C45.7131 43.0228 45.5467 42.7958 45.3397 42.6093C45.1327 42.4229 44.8896 42.281 44.6254 42.1925L44.474 42.1447L49.2553 35.443C49.3592 35.2997 49.4125 35.1258 49.4067 34.9489ZM44.4103 44.2405L43.0317 48.0177C42.9838 48.133 42.8933 48.2255 42.7791 48.2759C42.6649 48.3264 42.5356 48.3309 42.4181 48.2886L33.78 45.372C33.7211 45.3546 33.6666 45.3251 33.62 45.2852C33.5733 45.2454 33.5355 45.1963 33.509 45.1409C33.4884 45.0931 33.4778 45.0416 33.4778 44.9895C33.4778 44.9375 33.4884 44.8859 33.509 44.8381L34.8797 41.053C34.9156 40.9651 34.9777 40.8905 35.0575 40.8391C35.1374 40.7878 35.2311 40.7623 35.3259 40.7661C35.3814 40.7584 35.4377 40.7584 35.4932 40.7661L44.1393 43.6827C44.1975 43.7013 44.2514 43.7314 44.298 43.7711C44.3445 43.8107 44.3826 43.8592 44.4103 43.9137C44.435 43.9647 44.4478 44.0205 44.4478 44.0771C44.4478 44.1337 44.435 44.1895 44.4103 44.2405ZM42.9042 41.6108L41.167 41.0291L37.605 39.8258C37.7791 38.4366 38.0969 37.0693 38.5532 35.7458C38.9294 34.6937 39.5461 33.7441 40.3542 32.9727C40.4437 32.8842 40.5142 32.7785 40.5614 32.6619L43.0317 25.8406C43.0655 25.7211 43.1228 25.6095 43.2004 25.5124C43.2779 25.4153 43.3741 25.3347 43.4832 25.2753C43.5923 25.2159 43.7122 25.1789 43.8359 25.1665C43.9595 25.1541 44.0843 25.1666 44.2031 25.2031C44.311 25.2347 44.411 25.2887 44.4966 25.3617C44.5821 25.4347 44.6513 25.525 44.6994 25.6266C44.7476 25.7282 44.7737 25.8389 44.7761 25.9513C44.7784 26.0637 44.757 26.1754 44.7131 26.2789L42.3225 32.8531C42.2575 33.0501 42.2718 33.2647 42.3625 33.4513C42.4532 33.6378 42.6131 33.7817 42.8081 33.8522C43.0032 33.9228 43.2181 33.9145 43.4072 33.8291C43.5962 33.7437 43.7445 33.588 43.8206 33.395L46.2192 26.7969C46.3589 26.394 46.3912 25.9616 46.313 25.5424C46.2347 25.1232 46.0486 24.7316 45.7729 24.4063C45.571 24.179 45.3276 23.9924 45.0557 23.8564L43.0317 19.3063C42.9384 19.0911 42.9319 18.8482 43.0136 18.6284C43.0953 18.4086 43.2588 18.2289 43.47 18.1269C43.5762 18.0721 43.6924 18.0396 43.8117 18.0313C43.9309 18.0231 44.0505 18.0394 44.1632 18.0791C44.3737 18.1572 44.5453 18.3145 44.6414 18.5173L47.4304 24.0955L47.8129 34.7656L42.9042 41.6108Z" fill="#134A85"/>
<path d="M31.7552 29.8485C34.2045 28.3778 36.2347 26.3023 37.651 23.8213C39.0674 21.3402 39.8223 18.5368 39.8435 15.68V14.0385C39.8289 13.8576 39.753 13.6872 39.6284 13.5554C39.5038 13.4235 39.3379 13.3381 39.1582 13.3133C35.9707 12.883 33.9785 10.6597 33.9785 7.65549C34.056 6.66429 34.3267 5.69784 34.7754 4.81064C34.8359 4.68397 34.8619 4.54357 34.8507 4.40363C34.8395 4.2637 34.7915 4.12921 34.7116 4.01377C34.6321 3.90424 34.526 3.81676 34.4033 3.7596C34.2806 3.70244 34.1454 3.67747 34.0104 3.68705C33.8194 3.69391 33.6343 3.75469 33.4765 3.86236C32.8365 4.07458 32.1665 4.18221 31.4923 4.18111C29.5301 4.10342 27.6343 3.44931 26.0416 2.30049C25.8943 2.16383 25.7007 2.08789 25.4998 2.08789C25.2988 2.08789 25.1052 2.16383 24.9579 2.30049C23.3653 3.44931 21.4695 4.10342 19.5073 4.18111C18.8356 4.18248 18.1682 4.07483 17.531 3.86236C17.3703 3.75445 17.1826 3.69371 16.9891 3.68705C16.8565 3.68641 16.7259 3.71887 16.609 3.78149C16.4921 3.8441 16.3927 3.9349 16.3198 4.04564C16.2399 4.16108 16.1919 4.29558 16.1807 4.43551C16.1695 4.57544 16.1955 4.71585 16.256 4.84252C16.7047 5.72972 16.9754 6.69617 17.0529 7.68736C17.0529 10.6916 15.0209 12.9149 11.8732 13.3452C11.7756 13.3614 11.6813 13.3937 11.5943 13.4408L11.5226 13.4966C11.4694 13.5327 11.4212 13.5755 11.3791 13.6241L11.3154 13.7197C11.2821 13.7681 11.2578 13.8221 11.2437 13.8791C11.2391 13.9161 11.2391 13.9536 11.2437 13.9906V15.7119C11.2611 18.5549 12.0054 21.3462 13.4057 23.8205C14.8061 26.2948 16.8159 28.3699 19.2443 29.8485C18.3172 31.0232 17.7396 32.4354 17.5778 33.9231C17.4159 35.4109 17.6762 36.9142 18.329 38.2609C18.9818 39.6075 20.0006 40.7432 21.2687 41.5378C22.5369 42.3324 24.0032 42.7538 25.4998 42.7538C26.9963 42.7538 28.4626 42.3324 29.7308 41.5378C30.999 40.7432 32.0178 39.6075 32.6705 38.2609C33.3233 36.9142 33.5836 35.4109 33.4218 33.9231C33.2599 32.4354 32.6823 31.0232 31.7552 29.8485ZM12.7498 15.68V14.7716H12.9091C13.0845 14.7317 13.2518 14.6919 13.4191 14.6361L13.6502 14.5564C13.7881 14.5157 13.9238 14.4679 14.0566 14.413L14.2957 14.3094C14.4181 14.26 14.5378 14.2041 14.6543 14.1421L14.9013 14.0145L15.2201 13.8313L15.4591 13.6719L15.754 13.4727L15.9771 13.2974L16.2401 13.0742L16.4552 12.883L16.6943 12.6439L16.8855 12.4288L17.1007 12.1658L17.268 11.9427C17.3398 11.847 17.3955 11.7594 17.4593 11.6638C17.5144 11.5844 17.5649 11.5019 17.6107 11.4167L17.778 11.1219L17.9295 10.8589C17.9773 10.7553 18.0251 10.6438 18.0649 10.5402C18.1048 10.4366 18.1446 10.3649 18.1765 10.2772C18.2084 10.1896 18.2482 10.0461 18.288 9.93455C18.3279 9.82299 18.3438 9.75924 18.3677 9.67158C18.3916 9.58393 18.4235 9.41658 18.4554 9.28908C18.4873 9.16158 18.4952 9.12174 18.5032 9.03408C18.5322 8.88923 18.5535 8.74292 18.567 8.5958V8.37267C18.579 8.14706 18.579 7.92095 18.567 7.69533C18.5839 7.01796 18.5034 6.34166 18.3279 5.68721C18.7284 5.75135 19.1335 5.78332 19.5391 5.78283C21.6534 5.67833 23.7056 5.0336 25.4998 3.91017C27.3032 5.03879 29.3671 5.68374 31.4923 5.78283C31.8873 5.78164 32.2816 5.74967 32.6716 5.68721C32.3669 6.65121 32.273 7.66946 32.3962 8.67295C32.5195 9.67643 32.8571 10.6417 33.3862 11.5032C33.9152 12.3648 34.6233 13.1025 35.4624 13.6665C36.3016 14.2304 37.2522 14.6073 38.2498 14.7716V15.68C38.2234 18.3215 37.5064 20.9102 36.17 23.1888C34.8336 25.4674 32.9242 27.3567 30.6316 28.6691C29.827 27.988 28.8953 27.4734 27.8904 27.155C27.8975 27.0356 27.8975 26.9158 27.8904 26.7964V23.6089H29.4841C29.6955 23.6089 29.8982 23.525 30.0476 23.3755C30.1971 23.2261 30.281 23.0234 30.281 22.812V17.4252C30.281 15.1222 28.1374 13.2495 25.4998 13.2495C22.8621 13.2495 20.7185 15.1222 20.7185 17.4252V22.812C20.7185 23.0234 20.8025 23.2261 20.9519 23.3755C21.1014 23.525 21.304 23.6089 21.5154 23.6089H23.1091V26.7964C23.102 26.9158 23.102 27.0356 23.1091 27.155C22.0986 27.4715 21.1613 27.9862 20.352 28.6691C18.0623 27.3547 16.1562 25.4645 14.8226 23.186C13.4891 20.9075 12.7745 18.32 12.7498 15.68ZM24.7029 26.8363V22.812C24.7029 22.6007 24.6189 22.398 24.4695 22.2486C24.3201 22.0991 24.1174 22.0152 23.906 22.0152H22.3123V17.4252C22.3123 15.9988 23.7387 14.8433 25.4998 14.8433C27.2609 14.8433 28.6873 15.9988 28.6873 17.4252V22.0152H27.0935C26.8822 22.0152 26.6795 22.0991 26.53 22.2486C26.3806 22.398 26.2966 22.6007 26.2966 22.812V26.7964H25.4998C25.2288 26.7964 24.9659 26.7964 24.7029 26.8363ZM25.4998 41.18C24.2389 41.18 23.0064 40.8061 21.958 40.1056C20.9096 39.4051 20.0925 38.4095 19.61 37.2446C19.1275 36.0797 19.0013 34.7979 19.2473 33.5613C19.4932 32.3247 20.1004 31.1888 20.992 30.2972C21.8835 29.4057 23.0194 28.7985 24.2561 28.5525C25.4927 28.3065 26.7745 28.4328 27.9394 28.9153C29.1043 29.3978 30.0999 30.2149 30.8004 31.2633C31.5009 32.3116 31.8748 33.5442 31.8748 34.805C31.8642 36.4889 31.1879 38.1001 29.9935 39.2871C28.7991 40.474 27.1836 41.1402 25.4998 41.1402V41.18Z" fill="#134A85"/>
</svg>
