<svg width="51" height="51" viewBox="0 0 51 51" fill="none" xmlns="http://www.w3.org/2000/svg">
<path d="M8.64181 25.6621C10.7437 25.6621 12.4539 23.9465 12.4539 21.8381C12.4539 19.7359 10.7437 18.0257 8.64181 18.0257C6.53298 18.0257 4.8175 19.7359 4.8175 21.8381C4.8175 23.9465 6.53298 25.6621 8.64181 25.6621ZM8.64181 19.2449C10.0716 19.2449 11.2347 20.4082 11.2347 21.8382C11.2347 23.2746 10.0716 24.4433 8.64181 24.4433C7.20504 24.4433 6.03662 23.2747 6.03662 21.8382C6.03662 20.4081 7.20504 19.2449 8.64181 19.2449ZM45.9979 37.421H44.7075V35.6883C44.7075 35.6379 44.6995 35.5895 44.6879 35.5424C44.6847 35.5293 44.6802 35.517 44.6761 35.5043C44.6648 35.469 44.6507 35.4354 44.6336 35.403C44.6274 35.3914 44.6218 35.38 44.6148 35.3689C44.5894 35.3282 44.561 35.2897 44.5272 35.2559C44.525 35.2536 44.5218 35.2518 44.5193 35.2494C44.4868 35.2182 44.4502 35.1914 44.4113 35.168C44.4059 35.1648 44.4021 35.1603 44.3966 35.1571C43.4768 34.6402 42.8317 31.9879 42.5217 30.7133C42.4201 30.2965 42.3328 29.9365 42.2536 29.686C42.0217 28.947 41.6113 27.9254 40.7297 27.5875C40.1455 27.3636 39.4926 27.4727 38.7372 27.9194C38.0112 28.3406 37.48 28.8259 37.0749 29.4337C37.0115 29.5235 36.9393 29.6439 36.865 29.7691C36.8195 29.8454 36.7536 29.9569 36.6984 30.0389C36.4236 30.0675 35.7497 30.0018 35.2561 29.9123C34.1428 29.7328 33.025 29.6102 32.0793 29.5135C31.7483 29.4791 31.4059 29.4461 31.0554 29.4121C28.7407 29.1881 26.1171 28.9348 24.1562 28.0786C22.9719 27.5657 21.9195 26.9847 20.9015 26.4226C20.6413 26.2791 20.3848 26.1373 20.1201 25.9939C19.4091 25.6238 18.6615 25.6266 17.8956 25.9972C15.9742 25.1207 13.719 24.5392 10.4175 25.7466C9.97637 25.9067 9.6631 26.2529 9.52783 26.7513C9.42553 27.2222 9.55124 27.6755 9.88852 28.0341L15.4097 33.7343C15.5072 33.8349 15.6366 33.899 15.7757 33.9155L16.23 33.9693V34.8997H15.9267L6.61814 25.2744C6.16572 24.8066 5.5583 24.544 4.90755 24.5358C4.24674 24.5184 3.66134 24.7687 3.2107 25.2121C2.26252 26.1289 2.23304 27.6555 3.14875 28.6192L11.6619 37.421H7.6737C7.33712 37.421 7.06409 37.694 7.06409 38.0305V40.3731C7.06409 40.7095 7.33712 40.9825 7.6737 40.9825H20.6396V41.6875C20.6396 42.5637 21.358 43.277 22.2411 43.277H23.3645V45.4877H20.0422C19.1657 45.4877 18.4527 46.2009 18.4527 47.0771V49.7779C18.4527 50.1141 18.7257 50.3873 19.0623 50.3873H34.6212C34.9579 50.3873 35.2308 50.1141 35.2308 49.7779V47.0771C35.2308 46.2009 34.5179 45.4877 33.6416 45.4877H30.3192V43.277H31.4426C32.319 43.277 33.0319 42.5638 33.0319 41.6875V40.9825H45.9978C46.3343 40.9825 46.6074 40.7095 46.6074 40.3731V38.0305C46.6075 37.694 46.3344 37.421 45.9979 37.421ZM10.7707 27.1926C10.716 27.1345 10.7025 27.0867 10.7118 27.0411C10.7409 26.9341 10.7898 26.908 10.8347 26.8918C13.4492 25.9357 15.2827 26.2034 17.1088 26.9831C16.923 27.3953 16.7724 27.73 16.6494 28.0035L15.9322 27.2863C15.6938 27.0485 15.3085 27.0485 15.0701 27.2863C14.8321 27.5246 14.8321 27.9103 15.0701 28.1485L16.3568 29.435C16.3932 29.4831 16.4344 29.5275 16.4852 29.5637L17.759 30.8373C17.8427 30.9208 17.9491 30.9785 18.0651 31.0029L23.334 32.1063C23.6606 32.2253 23.8782 32.5281 23.8782 32.8679C23.8782 33.1813 23.6947 33.4663 23.4207 33.5956L16.1346 32.7305L10.7707 27.1926ZM23.4238 34.8237C23.4477 34.8265 23.4718 34.8279 23.4959 34.8279C23.556 34.8279 23.6162 34.8189 23.674 34.8011C24.5121 34.5448 25.0971 33.7501 25.0971 32.8679C25.0971 31.9898 24.5297 31.2139 23.6849 30.9384C23.6639 30.9314 23.6423 30.9257 23.6206 30.9211L18.4926 29.847L17.5713 28.9257C17.732 28.5679 18.0018 27.9677 18.3878 27.1118C18.9401 26.8319 19.2998 26.9411 19.5483 27.0702C19.8004 27.2072 20.055 27.3477 20.3124 27.4897C21.3554 28.0654 22.434 28.661 23.67 29.1962C25.807 30.1289 28.5329 30.3927 30.9381 30.6253C31.2857 30.6588 31.6254 30.6917 31.9543 30.7258C32.8838 30.8208 33.9796 30.9414 35.0503 31.1137C37.054 31.4773 37.4031 31.092 37.5297 30.9527C37.6689 30.8025 37.7931 30.5935 37.9132 30.3911C37.9695 30.2963 38.0231 30.2042 38.08 30.123C38.387 29.663 38.7901 29.2978 39.3532 28.9711C39.6373 28.8032 40.0311 28.6247 40.2932 28.7255C40.4909 28.8014 40.7898 29.093 41.091 30.0521C41.1579 30.2646 41.2411 30.6059 41.3373 31.0013C41.6382 32.2379 42.0471 33.9154 42.738 35.0788H29.3993C29.0625 35.0788 28.7896 35.3518 28.7896 35.6882C28.7896 36.0249 29.0625 36.2978 29.3993 36.2978H43.4885V37.4209H17.4492V34.1141L23.4238 34.8237ZM4.0286 27.7758C3.57557 27.2991 3.58872 26.5419 4.06157 26.085C4.2824 25.8677 4.57197 25.732 4.89211 25.7547C5.21514 25.7588 5.51686 25.8891 5.74188 26.1217L15.2304 35.9327C15.3452 36.0515 15.5032 36.1188 15.6684 36.1188H16.23V37.4211H13.3574L4.0286 27.7758ZM34.0118 47.0769V49.1681H19.6719V47.0769C19.6719 46.8761 19.8415 46.7067 20.0423 46.7067H33.6416C33.8423 46.7067 34.0118 46.8762 34.0118 47.0769ZM29.1004 45.4875H24.5835V43.2768H29.1004V45.4875ZM31.8129 41.6874C31.8129 41.8883 31.6434 42.0578 31.4427 42.0578H22.2411C22.03 42.0578 21.8586 41.8917 21.8586 41.6874V40.9824H31.8129V41.6874ZM45.3885 39.7633H8.28311V38.64H45.3885V39.7633ZM45.4364 6.15928C45.3986 6.15928 45.3618 6.16367 45.3245 6.16506L40.3775 1.20671C39.567 0.413716 38.2603 0.415709 37.4647 1.21129C36.6639 2.01225 36.6639 3.31574 37.4647 4.11689L42.3648 9.01668C42.3611 9.06778 42.358 9.11987 42.3566 9.17167L35.6791 11.6338C35.5142 11.6941 35.3649 11.7799 35.2237 11.8766C33.0869 10.8497 30.5635 10.8818 28.4655 11.9639L27.8889 11.6312C27.6789 11.5091 27.4402 11.4448 27.1984 11.4448C26.7141 11.4448 26.2582 11.7033 26.0008 12.1329L25.6455 12.7606C25.4602 13.0798 25.4087 13.4504 25.5007 13.8041C25.5933 14.1604 25.821 14.459 26.1429 14.646L38.3185 21.6719C38.5286 21.794 38.7673 21.8584 39.0089 21.8584C39.4933 21.8584 39.9492 21.5998 40.2022 21.1777L40.5815 20.5294C40.948 19.8608 40.7213 19.0386 40.0647 18.6573L39.4832 18.3219C39.4277 17.1366 39.1002 15.9965 38.522 14.9695L45.7732 12.3065C47.3151 12.138 48.5195 10.8287 48.5195 9.24229C48.5196 7.54236 47.1364 6.15928 45.4364 6.15928ZM38.3269 3.25478C38.1703 3.09839 38.0839 2.88821 38.0839 2.66399C38.0839 2.43957 38.1703 2.2296 38.3269 2.07311C38.6521 1.74719 39.19 1.74998 39.5197 2.07251L43.9685 6.53152C43.4698 6.80276 43.0564 7.20907 42.7716 7.69925L38.3269 3.25478ZM42.5768 10.3896C42.8035 10.9528 43.191 11.4338 43.6829 11.7756L36.6749 14.3494C36.4692 14.428 36.2434 14.4209 36.0396 14.3282C35.8333 14.2346 35.6767 14.068 35.6002 13.8614C35.4403 13.4228 35.6629 12.9372 36.0989 12.778L42.5768 10.3896ZM39.521 19.9292L39.1536 20.5565C39.0948 20.6546 38.999 20.6575 38.9293 20.6173L26.7538 13.5909C26.7059 13.5635 26.6873 13.5249 26.6806 13.4974C26.6729 13.4684 26.6702 13.4238 26.703 13.367L27.0539 12.7469C27.0904 12.6855 27.1526 12.6637 27.1985 12.6637C27.2262 12.6637 27.2518 12.6708 27.2781 12.6861L39.4538 19.7123C39.5343 19.7588 39.5594 19.8585 39.521 19.9292ZM38.1772 17.5682L29.7753 12.72C31.2856 12.1776 32.9715 12.2271 34.4615 12.8699C34.2966 13.326 34.287 13.8189 34.4565 14.2825C34.648 14.799 35.0313 15.2094 35.5361 15.4385C35.808 15.5619 36.0965 15.6234 36.3844 15.6234C36.6277 15.6234 36.8704 15.5792 37.1021 15.491L37.3636 15.3951C37.7693 16.0663 38.0418 16.801 38.1772 17.5682ZM45.4364 11.1068C44.4083 11.1068 43.5723 10.2704 43.5723 9.24239C43.5723 8.21443 44.4083 7.3783 45.4364 7.3783C46.4643 7.3783 47.3006 8.21443 47.3006 9.24239C47.3006 10.2704 46.4644 11.1068 45.4364 11.1068ZM8.10392 15.6479H21.7987C22.4578 15.6479 22.9937 15.1173 22.9937 14.4649V6.13548C22.9937 5.47646 22.4578 4.94036 21.7987 4.94036H8.10392C7.4448 4.94036 6.9088 5.47646 6.9088 6.13548V14.4649C6.9088 15.1173 7.4448 15.6479 8.10392 15.6479ZM21.7749 6.13548V14.4289H8.12782L8.10402 6.15948L21.7749 6.13548ZM12.0715 9.98359C12.0715 9.64711 12.3444 9.37398 12.6809 9.37398H13.5713L14.6096 7.79597C14.7265 7.61806 14.9233 7.51467 15.1404 7.52204C15.3528 7.52961 15.5461 7.64745 15.6502 7.83292L16.5151 9.37408H16.9471C17.1982 9.37408 17.4233 9.52787 17.5145 9.76156L18.0107 11.0291L18.7085 9.77152C18.816 9.57798 19.0199 9.45785 19.2415 9.45785H20.353C20.6894 9.45785 20.9623 9.73078 20.9623 10.0674C20.9623 10.4039 20.6894 10.6768 20.353 10.6768H19.6002L18.448 12.7532C18.34 12.9476 18.1355 13.0669 17.915 13.0669C17.9015 13.0669 17.8879 13.0665 17.8741 13.0654C17.6387 13.0499 17.4334 12.8994 17.3474 12.6794L16.531 10.5932H16.1582C15.9379 10.5932 15.7346 10.4743 15.6269 10.2819L15.0774 9.30296L14.4087 10.3188C14.2961 10.49 14.1047 10.5932 13.8997 10.5932H12.6809C12.3444 10.5931 12.0715 10.3201 12.0715 9.98359ZM8.85656 7.60531C8.85656 7.26883 9.12959 6.9959 9.46617 6.9959H10.4223C10.7589 6.9959 11.0317 7.26883 11.0317 7.60531C11.0317 7.94189 10.7589 8.21492 10.4223 8.21492H9.46617C9.12959 8.21492 8.85656 7.94199 8.85656 7.60531ZM8.85656 9.07535C8.85656 8.73877 9.12959 8.46584 9.46617 8.46584H10.4223C10.7589 8.46584 11.0317 8.73877 11.0317 9.07535C11.0317 9.41193 10.7589 9.68486 10.4223 9.68486H9.46617C9.12959 9.68486 8.85656 9.41193 8.85656 9.07535Z" fill="#134A85"/>
</svg>
