<svg width="51" height="51" viewBox="0 0 51 51" fill="none" xmlns="http://www.w3.org/2000/svg">
<g clip-path="url(#clip0_3059_12766)">
<path d="M37.5045 33.2518C37.1095 33.1326 36.6927 33.3563 36.5734 33.7513C35.7001 36.6466 34.2101 40.7888 32.0716 44.0803C29.7325 47.6802 27.1342 49.5055 24.349 49.5055C21.6759 49.5055 19.1714 47.8208 16.9054 44.4981C16.6729 44.1572 16.208 44.0693 15.8673 44.3018C15.5264 44.5343 15.4385 44.9991 15.6709 45.3399C18.2322 49.0954 21.1518 50.9996 24.349 50.9996C27.6724 50.9996 30.6922 48.9454 33.3244 44.8943C35.5589 41.4553 37.1025 37.1712 38.0039 34.1828C38.123 33.7878 37.8994 33.3709 37.5045 33.2518Z" fill="#134A85"/>
<path d="M39.9864 8.19623C40.3989 8.19623 40.7334 7.86176 40.7334 7.44919C40.7334 7.03662 40.3989 6.70215 39.9864 6.70215H35.8976C35.7271 6.70215 35.5617 6.76042 35.4289 6.86739L31.383 10.1265C31.2249 10.2538 31.1255 10.4398 31.1074 10.642C31.0894 10.8441 31.1545 11.0448 31.2875 11.1981L33.2328 13.4382C33.3805 13.6083 33.5882 13.6954 33.7972 13.6954C33.9708 13.6954 34.1453 13.6353 34.2867 13.5125C34.5981 13.2419 34.6314 12.7701 34.3609 12.4586L32.9239 10.8039L36.161 8.19633L39.9864 8.19623Z" fill="#134A85"/>
<path d="M45.2962 25.5565C45.9822 25.5565 46.5985 25.203 46.9448 24.6108C47.2912 24.0187 47.2972 23.3082 46.9608 22.7103L40.656 11.5014C40.3131 10.8919 39.6908 10.5279 38.9915 10.5279C38.2921 10.5279 37.6697 10.8919 37.3268 11.5014L35.3229 15.0641H27.1927C26.0255 15.0641 24.8893 15.4201 23.9333 16.0742L17.3816 11.0246L22.4509 8.41457L28.4603 8.08468C28.6068 8.07661 28.7477 8.02561 28.8655 7.93796L33.5326 4.46292C34.1543 4.00055 34.9228 3.74596 35.6965 3.74596H39.9865C40.3991 3.74596 40.7336 3.41149 40.7336 2.99892C40.7336 2.58636 40.3991 2.25188 39.9865 2.25188H35.6965C34.6038 2.25188 33.5186 2.61136 32.6407 3.26427L28.1537 6.60514L26.6971 6.68512V0.747041C26.6971 0.334475 26.3627 0 25.9501 0C25.5375 0 25.2031 0.334475 25.2031 0.747041V6.7673L22.9978 6.88832V0.747041C22.9978 0.334475 22.6633 0 22.2508 0C21.8382 0 21.5037 0.334475 21.5037 0.747041V5.91248C19.0043 3.89597 15.5405 2.8773 14.5194 2.60857L13.8571 1.64369C13.4225 1.01169 12.7053 0.634487 11.9384 0.634487C11.4564 0.634487 10.9934 0.781803 10.6002 1.06C9.60066 1.76551 9.31998 3.13478 9.96143 4.17755L10.0625 4.3418H9.15035C8.60321 4.3418 8.08875 4.55506 7.70188 4.94203C7.31472 5.32909 7.10156 5.84395 7.10156 6.39168C7.10156 7.3477 7.78067 8.18956 8.71587 8.39345C11.837 9.07665 13.6966 10.0956 14.644 10.7538L14.1025 11.0326C12.2737 11.9742 10.7865 13.4264 9.80177 15.2324C8.81707 17.0383 8.40191 19.0749 8.60112 21.1218L8.809 23.2636C8.83789 23.6427 9.16091 23.9538 9.55385 23.9517C9.9958 23.9558 10.3428 23.557 10.2974 23.1321L10.0882 20.9774C9.73922 17.3922 11.5834 14.0101 14.7864 12.361L15.9143 11.7804L22.7444 17.0447L9.61521 28.2561C9.40843 28.4316 9.31161 28.7202 9.37087 28.985C9.46899 29.4926 10.8182 36.2861 13.8407 42.2195C13.9726 42.4785 14.2349 42.6276 14.5069 42.6276C14.6211 42.6276 14.7368 42.6014 14.8454 42.5461C15.213 42.3588 15.3593 41.909 15.172 41.5414C12.6179 36.5273 11.2628 30.7006 10.9214 29.1054L24.4147 17.583C24.4149 17.5828 24.4152 17.5826 24.4154 17.5825C24.4162 17.5818 24.4171 17.5812 24.4179 17.5805C25.1911 16.9214 26.1763 16.5584 27.1925 16.5584H34.4823L32.8473 19.4652H29.8589C29.5609 19.4652 29.2914 19.6423 29.1731 19.9159L26.0582 27.125C26.0577 27.1261 26.0572 27.1272 26.0567 27.1282C26.0563 27.1292 26.0558 27.1301 26.0554 27.131C25.4433 28.5437 24.3686 29.7387 23.0283 30.4963C22.6691 30.6993 22.5425 31.1551 22.7455 31.5143C22.8829 31.7573 23.136 31.8939 23.3965 31.8939C23.521 31.8939 23.6473 31.8627 23.7635 31.7971C24.6062 31.3207 25.3611 30.7005 25.9969 29.9757V36.0252L21.907 40.7938H20.0341C19.6216 40.7938 19.2871 41.1283 19.2871 41.5409C19.2871 41.9534 19.6216 42.2879 20.0341 42.2879H21.5034V43.827C21.5034 44.2396 21.8379 44.5741 22.2505 44.5741C22.663 44.5741 22.9975 44.2396 22.9975 43.827V41.8174L26.786 37.4002L27.5054 38.1196C27.6513 38.2654 27.8425 38.3384 28.0337 38.3384C28.2248 38.3384 28.416 38.2655 28.5619 38.1196C28.8536 37.8279 28.8536 37.3548 28.5619 37.0632L27.491 35.9923V27.5758L30.35 20.9593H32.0069L31.0219 22.7104C30.6856 23.3083 30.6915 24.0188 31.0379 24.6109C31.3842 25.2031 32.0004 25.5566 32.6864 25.5566H37.8513C37.8486 26.9901 37.7319 28.4316 37.5037 29.8421C37.4378 30.2494 37.7146 30.633 38.1219 30.6989C38.1623 30.7054 38.2025 30.7086 38.2422 30.7086C38.6022 30.7086 38.9193 30.4476 38.9788 30.0808C39.2197 28.5916 39.3428 27.0698 39.3455 25.5566H45.2962V25.5565ZM9.03461 6.93374C8.78021 6.87826 8.59564 6.65036 8.59564 6.39168C8.59564 6.24307 8.65342 6.10343 8.7584 5.99854C8.86328 5.89366 9.00253 5.83589 9.15045 5.83589H11.3995C11.6702 5.83589 11.9197 5.68947 12.0517 5.4532C12.1836 5.21694 12.1776 4.92778 12.0357 4.69729L11.234 3.39455C11.0047 3.02183 11.1048 2.53257 11.4625 2.28017C11.6027 2.18096 11.7673 2.12857 11.9384 2.12857C12.2131 2.12857 12.47 2.26363 12.6253 2.48964L13.447 3.6869C13.5525 3.84059 13.7117 3.94926 13.8932 3.99169C13.9425 4.00314 18.4432 5.07619 21.0236 7.46912L16.1168 9.99541C15.2726 9.28831 13.1331 7.83078 9.03461 6.93374ZM32.3275 23.8565C32.2913 23.7947 32.2185 23.6304 32.3241 23.4427L38.6289 12.2339C38.7366 12.0426 38.9182 12.022 38.9914 12.022C39.0645 12.022 39.2461 12.0427 39.3537 12.2339L45.6586 23.4427C45.7641 23.6304 45.6913 23.7946 45.6552 23.8565C45.619 23.9185 45.5115 24.0624 45.2962 24.0624H32.6864C32.4712 24.0624 32.3637 23.9184 32.3275 23.8565Z" fill="#134A85"/>
<path d="M38.9912 19.372C39.4037 19.372 39.7382 19.0375 39.7382 18.6249V16.7549C39.7382 16.3423 39.4037 16.0078 38.9912 16.0078C38.5786 16.0078 38.2441 16.3423 38.2441 16.7549V18.6249C38.2441 19.0375 38.5786 19.372 38.9912 19.372Z" fill="#134A85"/>
<path d="M3.6664 39.8631C3.90715 39.9459 4.20905 40.0498 4.62032 40.0498C4.80698 40.0498 5.01606 40.0284 5.25222 39.9739C6.00882 39.7993 6.3674 39.441 6.62927 39.1794C6.83406 38.9748 6.94681 38.862 7.28616 38.7837C7.62572 38.7054 7.77632 38.7573 8.05004 38.8515C8.40005 38.9719 8.87945 39.1367 9.63596 38.9623C10.038 38.8695 10.2887 38.4685 10.1959 38.0664C10.1031 37.6644 9.702 37.4137 9.29999 37.5064C8.96063 37.5847 8.80983 37.5329 8.53621 37.4387C8.1862 37.3183 7.7069 37.1533 6.95029 37.3278C6.19379 37.5024 5.83521 37.8607 5.57335 38.1224C5.36856 38.3269 5.25581 38.4397 4.91645 38.518C4.57729 38.5964 4.42649 38.5444 4.15278 38.4502C3.80286 38.3297 3.32356 38.1648 2.56706 38.3393C2.16505 38.432 1.91434 38.8331 2.00707 39.2352C2.09991 39.6373 2.50112 39.888 2.90293 39.7951C3.24188 39.7169 3.39279 39.7689 3.6664 39.8631Z" fill="#134A85"/>
<path d="M7.38738 42.7356C7.51508 42.4758 7.5853 42.3327 7.88123 42.1489C8.17705 41.9651 8.33612 41.9651 8.62598 41.9661C8.99541 41.9672 9.503 41.9682 10.1625 41.5584C10.513 41.3407 10.6206 40.8801 10.4028 40.5297C10.1852 40.1792 9.72453 40.0716 9.37411 40.2894C9.07829 40.4731 8.91961 40.4733 8.62936 40.472C8.25923 40.4706 7.75224 40.4699 7.09275 40.8798C6.43316 41.2895 6.20965 41.7445 6.04639 42.0768C5.9187 42.3366 5.84838 42.4797 5.55255 42.6635C5.25682 42.8471 5.09775 42.8462 4.808 42.846C4.43787 42.8454 3.93097 42.8439 3.27139 43.2537C2.92097 43.4715 2.8133 43.932 3.03104 44.2825C3.17248 44.5102 3.41661 44.6354 3.66632 44.6354C3.80089 44.6354 3.93705 44.5991 4.05986 44.5229C4.35569 44.3391 4.51536 44.3395 4.80441 44.3402C5.17455 44.3413 5.68144 44.3423 6.34093 43.9326C7.00061 43.5228 7.22423 43.0678 7.38738 42.7356Z" fill="#134A85"/>
<path d="M12.2159 41.8292C11.8972 41.5671 11.4264 41.6132 11.1645 41.9319C10.9434 42.201 10.7923 42.2519 10.518 42.3442C10.1671 42.4622 9.68665 42.624 9.1937 43.2238C8.70065 43.8237 8.63511 44.3264 8.5872 44.6934C8.54975 44.9805 8.52913 45.1385 8.30801 45.4076C8.08688 45.6766 7.93578 45.7274 7.66157 45.8197C7.31076 45.9378 6.83036 46.0994 6.33741 46.6993C6.07545 47.018 6.12147 47.4887 6.44021 47.7507C6.57925 47.8649 6.74719 47.9206 6.91413 47.9206C7.12997 47.9206 7.34393 47.8276 7.49164 47.6479C7.71276 47.3789 7.86387 47.3281 8.13808 47.2357C8.48889 47.1177 8.96929 46.956 9.46224 46.3562C9.95528 45.7564 10.0208 45.2537 10.0687 44.8866C10.1062 44.5996 10.1268 44.4415 10.3479 44.1725C10.5691 43.9034 10.7202 43.8526 10.9946 43.7602C11.3454 43.6422 11.8259 43.4804 12.3188 42.8806C12.5807 42.5619 12.5347 42.0911 12.2159 41.8292Z" fill="#134A85"/>
<path d="M45.8055 30.0247C45.4597 30.028 45.3214 29.9437 45.0748 29.792C44.7594 29.5982 44.3258 29.3371 43.5512 29.338C42.7748 29.3435 42.3467 29.6149 42.0341 29.8132C41.7897 29.9683 41.655 30.0537 41.3068 30.0561C40.8943 30.059 40.5621 30.3957 40.565 30.8083C40.5678 31.2192 40.9017 31.5502 41.3119 31.5502H41.3172C42.0936 31.5448 42.5217 31.2733 42.8343 31.0749C43.0787 30.9199 43.2134 30.8345 43.5616 30.8321C43.9088 30.829 44.0457 30.9132 44.2923 31.0648C44.6077 31.2586 45.0421 31.5248 45.8159 31.5188C46.5922 31.5133 47.0203 31.2419 47.3329 31.0436C47.5773 30.8886 47.7119 30.8031 48.0601 30.8007C48.4726 30.7978 48.8048 30.4611 48.8019 30.0485C48.799 29.6376 48.4652 29.3066 48.055 29.3066C48.0532 29.3066 48.0514 29.3066 48.0497 29.3066C47.2734 29.3121 46.8453 29.5835 46.5327 29.7819C46.2883 29.9369 46.1537 30.0224 45.8055 30.0247Z" fill="#134A85"/>
<path d="M48.5025 34.2507C47.7661 34.005 47.2732 34.1234 46.9134 34.2101C46.632 34.2777 46.477 34.315 46.1467 34.2048C45.8163 34.0945 45.7148 33.9716 45.5305 33.7484C45.2947 33.463 44.9719 33.0722 44.2354 32.8263C43.4989 32.5805 43.006 32.699 42.6461 32.7856C42.3646 32.8533 42.2096 32.8906 41.8793 32.7803C41.4883 32.6497 41.0648 32.861 40.9342 33.2524C40.8035 33.6438 41.0149 34.0669 41.4063 34.1976C42.1428 34.4434 42.6357 34.3249 42.9955 34.2383C43.2769 34.1706 43.4319 34.1334 43.7624 34.2436C44.0926 34.3539 44.1942 34.4768 44.3786 34.7C44.6144 34.9854 44.9372 35.3762 45.6737 35.6221C46.0015 35.7314 46.2809 35.7687 46.5219 35.7687C46.8224 35.7687 47.0632 35.7107 47.2628 35.6627C47.5441 35.5951 47.6993 35.5578 48.0295 35.668C48.4207 35.7984 48.844 35.5872 48.9746 35.1959C49.1053 34.8045 48.8939 34.3814 48.5025 34.2507Z" fill="#134A85"/>
<path d="M46.3182 38.3121C45.6998 37.8427 45.1949 37.7967 44.8262 37.7632C44.538 37.7369 44.3792 37.7224 44.1019 37.512C43.8244 37.3015 43.7678 37.1525 43.6648 36.8819C43.5332 36.536 43.353 36.0622 42.7345 35.5928C42.116 35.1235 41.6112 35.0775 41.2425 35.0438C40.9542 35.0175 40.7954 35.0031 40.518 34.7926C40.1893 34.5432 39.7207 34.6074 39.4713 34.9361C39.2219 35.2648 39.2862 35.7334 39.6149 35.9828C40.2334 36.4521 40.7383 36.4982 41.1069 36.5318C41.3951 36.5581 41.5539 36.5726 41.8313 36.783C42.1088 36.9936 42.1655 37.1426 42.2684 37.4131C42.3999 37.7591 42.5802 38.2329 43.1988 38.7022C43.8172 39.1715 44.322 39.2175 44.6907 39.2511C44.9789 39.2774 45.1377 39.2918 45.415 39.5023C45.55 39.6048 45.7086 39.6543 45.866 39.6543C46.0917 39.6543 46.3147 39.5524 46.4616 39.3587C46.7112 39.0301 46.6469 38.5615 46.3182 38.3121Z" fill="#134A85"/>
<path d="M38.9912 21.9472C39.4038 21.9472 39.7382 21.6127 39.7382 21.2002C39.7382 20.7876 39.4038 20.4531 38.9912 20.4531C38.5786 20.4531 38.2441 20.7876 38.2441 21.2002C38.2441 21.6127 38.5786 21.9472 38.9912 21.9472Z" fill="#134A85"/>
</g>
<defs>
<clipPath id="clip0_3059_12766">
<rect width="51" height="51" fill="white"/>
</clipPath>
</defs>
</svg>
