<svg width="51" height="51" viewBox="0 0 51 51" fill="none" xmlns="http://www.w3.org/2000/svg">
<g clip-path="url(#clip0_3059_12689)">
<path d="M25.4473 47.2646H26.9414V51H25.4473V47.2646Z" fill="#134A85"/>
<path d="M48.1774 45.1863C46.9777 42.3606 45.7109 39.6191 43.485 37.1682C45.1769 34.2533 46.034 30.6536 46.034 26.4573V25.7103H41.5517V26.4573C41.5517 28.6198 41.288 30.5516 40.7687 32.2396C39.0678 31.2391 39.0757 28.286 39.0936 22.5158C39.0955 21.9314 39.0973 21.321 39.0973 20.6839H37.6032C37.6032 21.3193 37.6012 21.9282 37.5995 22.5111C37.5929 24.6175 37.5878 26.3626 37.6721 27.8197C36.7703 27.1773 35.8822 26.836 35.2592 26.5967L34.7236 27.9915C35.6414 28.344 36.8861 28.8247 37.9274 30.0783C37.9368 30.1275 37.9453 30.178 37.9552 30.2262C38.1898 31.3711 38.6839 32.8947 40.2482 33.6602C39.9596 34.3248 39.6236 34.943 39.2402 35.5134C37.7997 37.6568 35.6757 39.13 32.9179 39.9012V33.847C32.9179 33.4268 32.9203 33.0118 32.9227 32.6018C32.9373 30.0882 32.9511 27.714 32.3977 25.5105C31.7661 22.9957 30.4874 21.0388 28.3738 19.3519C25.9132 17.3881 25.498 15.7352 25.498 12.7729V0H24.0039V12.7729C24.0039 16.0911 24.5356 18.2003 27.4417 20.5196C31.4802 23.7427 31.4575 27.6484 31.4287 32.5931C31.4264 33.0059 31.4239 33.4238 31.4239 33.8469V41.7788L32.3278 41.5847C35.92 40.8133 38.6629 39.0511 40.4804 36.3469C42.0763 33.9721 42.9348 30.8991 43.0358 27.2043H44.5302C44.4301 31.0299 43.5534 34.2778 41.9208 36.8675L41.6079 37.364L42.0161 37.7856C44.1366 39.9757 45.3462 42.3961 46.5083 45.0833L45.1331 45.667C44.0564 43.1734 43.0149 41.0703 41.2357 39.1274L40.7039 38.5465L40.1519 39.1082C38.1015 41.1946 35.3714 42.5597 32.0373 43.1658L31.4239 43.2773V50.9998H32.918V44.515C35.9887 43.8631 38.5789 42.5876 40.6358 40.7154C41.2539 41.4686 41.7735 42.2611 42.2445 43.1036C42.5143 43.9403 42.3181 44.5354 41.9251 45.2484C41.4394 44.7846 40.891 44.3866 40.2649 44.0468L39.5521 45.3599C40.1739 45.6974 40.6994 46.1035 41.1501 46.5906C40.6518 47.5115 40.1892 48.6535 40.1892 50.2527H41.6834C41.6834 48.5896 42.2898 47.5709 42.8762 46.5859C43.0772 46.2483 43.2799 45.9072 43.4494 45.5482C43.6496 45.9972 43.8487 46.4595 44.0516 46.9377L44.3435 47.6254L48.4696 45.8738L48.1774 45.1863Z" fill="#134A85"/>
<path d="M25.4473 44.2764H26.9414V45.7705H25.4473V44.2764Z" fill="#134A85"/>
<path d="M24.6457 24.0231C20.9649 21.0856 19.5282 17.9412 19.5217 12.8085L19.5215 0H18.0274L18.0275 9.11007C15.7017 9.37663 13.6426 9.81591 11.5066 10.8562C10.8945 10.0233 10.3969 9.1549 9.95734 8.23341C10.0019 7.06051 10.5326 6.25079 11.2052 5.41576C12.1576 5.40759 13.4842 5.75294 14.3938 6.11114L14.9413 4.72089C14.2349 4.44278 13.2713 4.15421 12.3315 4.01177C12.9598 3.14586 13.4847 2.12566 13.4845 0.74707L11.9904 0.74717C11.9905 2.12656 11.2631 3.00243 10.4209 4.01655C9.93044 4.60723 9.4051 5.23995 9.02141 6.00684C8.81611 5.46417 8.6149 4.90317 8.40951 4.31936L8.16158 3.61462L3.93316 5.10229L4.18109 5.80703C5.10457 8.43173 6.08204 10.9886 7.80418 13.3767C6.20585 14.8657 4.95047 16.7131 4.06783 18.8775L5.45131 19.4417C6.33713 17.2699 7.63086 15.4557 9.29663 14.0495L9.84627 13.5856L9.40361 13.0188C7.71394 10.8555 6.72581 8.47556 5.84078 6.01501L7.24996 5.51916C8.16417 8.06756 9.06753 10.2256 10.7104 12.2717L11.0984 12.7548L11.6448 12.4629C13.7417 11.343 15.6894 10.8908 18.0275 10.614V12.1639C13.9247 12.8157 10.9229 14.2738 8.86472 16.611C6.73209 19.0328 5.63768 22.3619 5.52811 26.7727H4.03476C4.09274 24.5971 4.40601 22.5872 4.9679 20.7888L3.5419 20.3431C2.87093 22.4901 2.53076 24.9047 2.53076 27.5198V28.2668H7.01318V27.5198C7.01318 24.6355 7.42955 22.2345 8.29506 20.2756C10.2391 21.3689 11.7344 22.6377 12.333 27.4737C9.79766 28.8919 7.96246 30.5121 7.29259 35.8163L8.77507 36.0035C9.32093 31.6806 10.5586 30.274 12.4903 29.1066C12.574 30.2614 12.618 31.581 12.618 33.0969H14.1121C14.1121 28.0157 13.6524 24.7878 12.6214 22.6305C11.7262 20.7573 10.4528 19.7928 8.98744 18.9556C10.7457 16.1066 13.715 14.4036 18.0425 13.6755C18.2149 18.7637 19.8946 22.1429 23.7138 25.1908C25.6621 26.7457 25.5704 29.565 25.4818 32.2914C25.4641 32.8336 25.4475 33.3459 25.4475 33.8469V42.7822H26.9416V33.847C26.9416 33.3703 26.9579 32.8698 26.9751 32.3401C27.0662 29.5356 27.1796 26.0454 24.6457 24.0231Z" fill="#134A85"/>
<path d="M21.0156 2.98828H22.5098V4.48242H21.0156V2.98828Z" fill="#134A85"/>
<path d="M21.0156 5.97656H22.5098V7.4707H21.0156V5.97656Z" fill="#134A85"/>
</g>
<defs>
<clipPath id="clip0_3059_12689">
<rect width="51" height="51" fill="white"/>
</clipPath>
</defs>
</svg>
