<svg width="51" height="51" viewBox="0 0 51 51" fill="none" xmlns="http://www.w3.org/2000/svg">
<g clip-path="url(#clip0_3062_12874)">
<path d="M29.5317 35.4108C29.8549 35.6543 30.3135 35.5957 30.5654 35.2788C31.5961 33.9816 33.1349 33.2376 34.7871 33.2376C35.7847 33.2376 37.39 33.8538 38.4521 34.2615C39.6847 34.7348 40.1462 34.9118 40.5747 34.5436C40.7396 34.4018 40.8346 34.1951 40.8347 33.9777C40.8348 33.7603 40.7401 33.5534 40.5754 33.4115C39.3826 32.3839 38.6985 30.8949 38.6985 29.3262C38.6985 27.7572 39.3825 26.2686 40.5753 25.2422C40.7399 25.1004 40.8347 24.8938 40.8348 24.6764C40.8349 24.459 40.7402 24.2524 40.5756 24.1106C40.1192 23.7173 39.7341 23.2552 39.4311 22.7371C39.2228 22.3811 38.7655 22.2612 38.4096 22.4695C38.0537 22.6776 37.9338 23.1349 38.142 23.4909C38.3913 23.9173 38.6842 24.314 39.0169 24.6763C37.8574 25.9396 37.2053 27.5944 37.2053 29.3263C37.2053 30.4393 37.4747 31.5206 37.975 32.4869C36.9224 32.1063 35.7387 31.7445 34.7872 31.7445C32.9055 31.7445 31.1394 32.4996 29.8461 33.8371C29.0659 33.4008 28.1898 33.1822 27.2782 33.2C24.5385 33.2542 22.3096 35.5643 22.3096 38.3497V50.0727C22.3096 50.4851 22.6438 50.8194 23.0562 50.8194C23.4686 50.8194 23.8028 50.4851 23.8028 50.0727V38.3497C23.8028 36.3716 25.3751 34.7312 27.3077 34.6931C28.119 34.6754 28.8867 34.9251 29.5317 35.4108Z" fill="#134A85"/>
<path d="M49.5259 15.809C50.4613 14.2568 51 12.4399 51 10.4994C51 4.80966 46.3711 0.180664 40.6814 0.180664C37.2836 0.180664 34.2645 1.83181 32.3832 4.37353C31.5531 4.68353 30.79 5.15032 30.1369 5.74972C28.8733 4.59055 27.2183 3.93889 25.4861 3.93889C23.754 3.93889 22.099 4.59055 20.8353 5.74972C19.5722 4.59065 17.9174 3.93889 16.1851 3.93889C14.4802 3.93889 12.8447 4.57303 11.5882 5.70114C10.3184 4.51071 8.64399 3.84133 6.88414 3.84133C3.08888 3.84133 0.00121835 6.92899 0.00121835 10.7243C-0.0321311 12.3551 0.620721 14.1702 1.76794 15.4232C0.637147 16.6806 0.00121835 18.3186 0.00121835 20.0252C0.00121835 21.7571 0.652975 23.4123 1.81204 24.676C0.652876 25.9389 0.00121835 27.5938 0.00121835 29.3262C0.00121835 31.0578 0.652776 32.7127 1.81144 33.9763C0.551732 35.3438 -0.0971375 37.1483 0.0133635 39.039C0.215351 42.5038 2.98176 45.2801 6.4486 45.4967C7.08742 45.5362 7.71698 45.4897 8.33061 45.3575V46.185C8.33061 47.6842 9.5502 48.9037 11.0493 48.9037C11.7752 48.9037 12.4576 48.621 12.9717 48.1069C13.4846 47.5926 13.7672 46.91 13.7672 46.185V42.1128C13.7672 41.7005 13.433 41.3662 13.0205 41.3662C12.6081 41.3662 12.2739 41.7005 12.2739 42.1128V46.185C12.2739 46.5119 12.1463 46.8201 11.9151 47.0518C11.6839 47.2831 11.3764 47.4105 11.0494 47.4105C10.3738 47.4105 9.82396 46.8608 9.82396 46.185V44.3583C9.82396 44.1124 9.70291 43.8823 9.50032 43.743C9.29784 43.6039 9.0396 43.5731 8.81004 43.6611C8.08601 43.9388 7.32216 44.0548 6.54148 44.0063C3.82784 43.8366 1.66232 41.6638 1.50413 38.9519C1.43186 37.7154 1.77551 36.5271 2.4643 35.5449C2.63194 35.8992 2.8612 36.2257 3.14661 36.5111C3.29236 36.6569 3.48349 36.7298 3.67453 36.7298C3.86557 36.7298 4.05671 36.6569 4.20255 36.5111C4.49413 36.2195 4.49413 35.7468 4.20245 35.4553C3.83242 35.0852 3.62854 34.5932 3.62854 34.0698C3.62854 33.5465 3.83242 33.0545 4.20245 32.6844C4.49413 32.3928 4.49413 31.9201 4.20255 31.6286C3.91096 31.337 3.4382 31.337 3.14671 31.6286C2.89137 31.8838 2.68171 32.1724 2.52024 32.484C1.86022 31.5727 1.49467 30.4713 1.49467 29.3262C1.49467 27.7565 2.17839 26.268 3.3705 25.2421C3.53526 25.1003 3.63003 24.8937 3.63003 24.6763C3.63013 24.4589 3.53536 24.2524 3.3707 24.1105C2.17849 23.0835 1.49467 21.5945 1.49467 20.0252C1.49467 18.4803 2.16047 17.007 3.32162 15.9829C3.4823 15.8411 3.57438 15.6371 3.57428 15.4228C3.57428 15.2085 3.4821 15.0045 3.32133 14.8629C2.18217 13.879 1.46381 12.2758 1.49467 10.7242C1.49467 7.75227 3.91246 5.33449 6.88434 5.33449C8.47545 5.33449 9.97797 6.03383 11.0064 7.25333C11.1466 7.41948 11.3522 7.51634 11.5695 7.51853H11.5771C11.7917 7.51853 11.9961 7.42624 12.1379 7.26487C13.1621 6.10003 14.6373 5.43195 16.1853 5.43195C17.7548 5.43195 19.2434 6.11566 20.2694 7.30768C20.4113 7.47244 20.6177 7.56721 20.8352 7.56721H20.8353C21.0527 7.56721 21.2592 7.47254 21.4011 7.30788C22.4279 6.11566 23.917 5.43195 25.4863 5.43195C27.0557 5.43195 28.5447 6.11576 29.5716 7.30788C29.9541 7.69872 30.5222 7.63451 30.9654 7.02446C30.5758 8.11075 30.3628 9.28047 30.3628 10.4992C30.3628 12.4545 30.9095 14.2846 31.8582 15.8445C30.8156 15.75 29.7699 15.7413 28.7269 15.8186C27.6589 15.8042 26.7942 14.9298 26.7942 13.8556C26.7942 13.4433 26.46 13.109 26.0476 13.109C25.6352 13.109 25.301 13.4433 25.301 13.8556C25.301 14.7423 25.6363 15.5518 26.1861 16.1644C25.9536 16.1947 25.7195 16.2113 25.4863 16.2113C23.9175 16.2113 22.4285 15.5272 21.4011 14.3344C21.2592 14.1696 21.0527 14.0749 20.8351 14.075C20.6178 14.075 20.4113 14.1699 20.2694 14.3346C19.2428 15.5273 17.7543 16.2114 16.1853 16.2114C14.8014 16.2114 13.48 15.6783 12.4822 14.7337C12.7398 14.2506 12.8863 13.6997 12.8863 13.1151C12.8863 12.7027 12.5521 12.3684 12.1397 12.3684C11.7273 12.3684 11.3931 12.7027 11.3931 13.1151C11.3931 14.1954 10.5141 15.0743 9.43382 15.0743C9.02139 15.0743 8.68719 15.4086 8.68719 15.8209C8.68719 16.2333 9.02139 16.5676 9.43382 16.5676C10.0531 16.5676 10.6343 16.4028 11.1373 16.1162C12.675 19.4729 12.7116 22.0412 10.397 24.1105C10.2323 24.2524 10.1375 24.4589 10.1376 24.6763C10.1377 24.8938 10.2324 25.1003 10.3972 25.2421C11.5899 26.2686 12.274 27.7571 12.274 29.3262C12.274 30.8949 11.5899 32.3838 10.3971 33.4114C10.2324 33.5533 10.1377 33.7598 10.1377 33.9772C10.1377 34.1947 10.2325 34.4012 10.3973 34.543C11.59 35.5696 12.2741 37.0581 12.2741 38.6271C12.2741 39.0394 12.6083 39.3737 13.0207 39.3737C13.4332 39.3737 13.7674 39.0394 13.7674 38.6271C13.7674 36.8951 13.1153 35.2402 11.9556 33.9768C13.1152 32.7129 13.7674 31.0576 13.7674 29.3261C13.7674 27.5941 13.1153 25.9391 11.9556 24.6759C13.1152 23.4119 13.7674 21.7566 13.7674 20.0251C13.7674 19.104 13.4258 17.9718 13.0552 16.9503C14.0136 17.4407 15.0841 17.7045 16.1854 17.7045C17.9173 17.7045 19.5722 17.0525 20.8356 15.8928C22.0996 17.0524 23.7548 17.7045 25.4864 17.7045C26.442 17.7084 27.7109 17.367 28.8437 17.3073C30.2707 17.2021 31.7031 17.2726 33.1238 17.5164C35.0094 19.5457 37.6996 20.8179 40.6816 20.8179C43.8649 20.8179 46.7159 19.3686 48.6102 17.0955C49.1736 17.963 49.4781 18.976 49.4781 20.0251C49.4781 21.5944 48.7943 23.0833 47.6021 24.1104C47.4374 24.2523 47.3427 24.4588 47.3427 24.6763C47.3428 24.8937 47.4376 25.1002 47.6023 25.242C48.7944 26.268 49.4781 27.7565 49.4781 29.3261C49.4781 30.8953 48.7943 32.3843 47.6021 33.4113C47.4374 33.5532 47.3427 33.7597 47.3427 33.9771C47.3427 34.1946 47.4375 34.401 47.6023 34.5429C48.8414 35.6094 49.5242 37.1582 49.4753 38.792C49.391 41.635 47.0975 43.9288 44.2543 44.014C42.6212 44.0625 41.0708 43.38 40.0043 42.1409C39.8624 41.9761 39.6559 41.8814 39.4384 41.8814H39.4383C39.221 41.8814 39.0144 41.976 38.8726 42.1407C37.8457 43.3329 36.3568 44.0167 34.7873 44.0167C33.1348 44.0167 31.599 43.2664 30.5792 41.9887C30.9548 41.4362 31.1747 40.7697 31.1747 40.0527C31.1747 39.6404 30.8405 39.3061 30.428 39.3061C30.0156 39.3061 29.6814 39.6404 29.6814 40.0527C29.6814 40.5792 29.4715 41.057 29.1325 41.4094C29.1168 41.4237 29.1024 41.4391 29.0881 41.4547C28.7349 41.7989 28.2532 42.012 27.7222 42.012C27.3098 42.012 26.9756 42.3463 26.9756 42.7586C26.9756 43.1709 27.3098 43.5052 27.7222 43.5052C28.1316 43.5052 28.5244 43.4333 28.8891 43.3018V50.0725C28.8891 50.4848 29.2233 50.8191 29.6357 50.8191C30.0481 50.8191 30.3823 50.4848 30.3823 50.0725V43.9167C31.6021 44.9354 33.1505 45.5101 34.7874 45.5101C36.5192 45.5101 38.1743 44.8584 39.4379 43.6994C40.7541 44.9095 42.4865 45.5602 44.299 45.5067C47.9309 45.3978 50.8604 42.4678 50.9681 38.8365C51.0221 37.0236 50.3709 35.2926 49.1608 33.9767C50.3199 32.713 50.9715 31.058 50.9715 29.3262C50.9715 27.5938 50.3197 25.9389 49.1606 24.676C50.3198 23.4123 50.9715 21.7571 50.9715 20.0252C50.9711 18.4889 50.4609 17.0129 49.5259 15.809ZM40.6814 19.3247C35.815 19.3247 31.856 15.3656 31.856 10.4993C31.856 5.63294 35.8151 1.67382 40.6814 1.67382C45.5477 1.67382 49.5068 5.63294 49.5068 10.4993C49.5068 15.3656 45.5477 19.3247 40.6814 19.3247Z" fill="#134A85"/>
<path d="M47.0562 9.5045C46.9881 9.09783 46.6038 8.82317 46.1966 8.89117L45.1112 9.07265C45.266 8.54344 45.3019 7.96983 45.2044 7.39303C44.9997 6.18071 44.2439 5.17316 43.1808 4.69432C42.0417 4.13226 40.7082 4.22852 39.6095 4.95295C38.7628 5.51113 38.2023 6.34058 38.0171 7.26829C36.4508 7.24142 34.9845 8.23692 34.4752 9.79648C33.909 11.53 34.7209 13.4331 36.3638 14.223C36.9411 14.5005 37.5664 14.6181 38.1825 14.5798L37.7489 15.6348C37.5922 16.0162 37.7744 16.4524 38.1558 16.6092C38.2487 16.6473 38.3447 16.6655 38.4393 16.6655C38.7331 16.6655 39.0116 16.4909 39.1302 16.2025L39.5787 15.111C40.0069 15.5767 40.5558 15.9303 41.1823 16.127C41.5414 16.2398 41.9069 16.2937 42.2681 16.2937C43.6544 16.2936 44.9725 15.4987 45.585 14.1892C46.1538 12.9737 45.9984 11.5962 45.2852 10.5577L46.4429 10.3641C46.8496 10.2961 47.1242 9.91126 47.0562 9.5045ZM44.2326 13.5564C43.776 14.5323 42.6574 15.0249 41.6298 14.7023C40.9248 14.4808 40.3853 13.925 40.1867 13.2155C40.0731 12.7843 39.5117 12.5009 39.0805 12.7784C38.4504 13.1604 37.6767 13.1974 37.0109 12.8772C36.0398 12.4103 35.56 11.2852 35.8947 10.2601C36.2525 9.16523 37.4014 8.53886 38.5093 8.83412C38.7405 8.89565 38.9878 8.84259 39.1734 8.69107C39.3589 8.53965 39.4607 8.3083 39.4467 8.06918C39.4039 7.3333 39.7722 6.63436 40.4317 6.19952C41.085 5.76877 41.8688 5.70824 42.5287 6.03765C42.5388 6.04263 42.5488 6.04741 42.5591 6.05199C43.1715 6.32426 43.6101 6.91857 43.7322 7.64171C43.8545 8.36564 43.6362 9.07066 43.1485 9.52769C42.8114 9.83082 42.8283 10.4911 43.3043 10.7296C44.312 11.2735 44.7196 12.5152 44.2326 13.5564Z" fill="#134A85"/>
<path d="M36.4021 6.10556C36.8145 6.10556 37.1488 5.77128 37.1488 5.35893C37.1488 4.94658 36.8145 4.6123 36.4021 4.6123C35.9898 4.6123 35.6555 4.94658 35.6555 5.35893C35.6555 5.77128 35.9898 6.10556 36.4021 6.10556Z" fill="#134A85"/>
<path d="M37.9144 11.6993C38.3267 11.6993 38.661 11.365 38.661 10.9527C38.661 10.5403 38.3267 10.2061 37.9144 10.2061C37.502 10.2061 37.1677 10.5403 37.1677 10.9527C37.1677 11.365 37.502 11.6993 37.9144 11.6993Z" fill="#134A85"/>
<path d="M41.7041 8.58408C42.1165 8.58408 42.4508 8.2498 42.4508 7.83745C42.4508 7.4251 42.1165 7.09082 41.7041 7.09082C41.2918 7.09082 40.9575 7.4251 40.9575 7.83745C40.9575 8.2498 41.2918 8.58408 41.7041 8.58408Z" fill="#134A85"/>
<path d="M42.3504 13.5352C42.7627 13.5352 43.097 13.201 43.097 12.7886C43.097 12.3763 42.7627 12.042 42.3504 12.042C41.938 12.042 41.6038 12.3763 41.6038 12.7886C41.6038 13.201 41.938 13.5352 42.3504 13.5352Z" fill="#134A85"/>
</g>
<defs>
<clipPath id="clip0_3062_12874">
<rect width="51" height="51" fill="white"/>
</clipPath>
</defs>
</svg>
