<svg width="51" height="51" viewBox="0 0 51 51" fill="none" xmlns="http://www.w3.org/2000/svg">
<path d="M11.1232 28.4611H38.6226C39.1471 28.4611 39.5114 28.92 39.4348 29.418C39.3576 29.8894 38.7861 30.1219 38.3424 29.9287C37.2361 29.4466 36.4033 29.2022 35.8681 29.2022C35.1576 29.2022 34.4623 29.3928 33.858 29.7527C33.0272 30.2462 32.5566 30.0688 32.1328 30.1067C31.7702 30.1067 31.3864 29.9878 30.9906 29.7527C29.778 29.0322 28.1776 29.0329 26.9703 29.7527C26.1453 30.2453 25.668 30.0692 25.2498 30.1067C24.8858 30.1067 24.5014 29.9878 24.1082 29.7534C22.9003 29.0329 21.2973 29.0322 20.0893 29.7527C19.6955 29.9878 19.311 30.1067 18.9471 30.1067C18.8458 30.1263 16.0775 29.8712 13.7688 32.1799C12.3098 33.6309 11.5621 35.6476 11.7162 37.7122C11.9831 41.3745 15.1666 44.2439 18.9637 44.2439H25.6276C25.9576 44.2439 26.2259 44.5122 26.2259 44.8422V46.6923C26.2259 46.9739 26.4544 47.2023 26.7359 47.2023C27.0175 47.2023 27.2459 46.9739 27.2459 46.6923V44.8422C27.2459 43.9497 26.5201 43.2239 25.6276 43.2239H18.9637C15.6985 43.2239 12.9619 40.7702 12.7335 37.6371C12.4724 34.144 15.2178 31.1398 18.7599 31.1267C18.8773 31.1115 19.599 31.2327 20.6119 30.6286C21.5038 30.0967 22.6938 30.0974 23.5856 30.6293C24.6992 31.2929 25.4554 31.0897 25.8288 31.1267C26.3787 31.1267 26.9385 30.9593 27.4923 30.6293C28.3861 30.0967 29.5735 30.0967 30.4699 30.6293C31.5844 31.2927 32.3342 31.0889 32.7158 31.1267C34.144 31.1267 34.4386 30.2222 35.8681 30.2222C36.246 30.2222 36.999 30.456 37.9347 30.8637C38.456 31.0908 39.0689 31.0643 39.5709 30.79C41.1722 29.917 40.4819 27.4411 38.6226 27.4411H11.1232C7.83936 27.4411 5.10343 24.9682 4.89292 21.8119C4.70817 18.9553 6.50597 16.4548 9.10374 15.6235C9.35741 15.5418 9.60842 15.4163 9.87006 15.239C10.5873 14.7575 11.5707 14.6659 12.3835 15.0105C12.9088 15.235 13.3903 15.3439 13.8571 15.3439C15.0136 15.2899 15.5481 15.5082 16.7165 15.0119C17.3912 14.7237 18.1855 14.735 18.8548 15.0298C19.2891 15.2357 19.7805 15.3439 20.2759 15.3439C21.2825 15.2979 22.1028 15.4919 23.065 15.0358C23.7649 14.7277 24.5492 14.7243 25.2205 15.0125C25.7558 15.2357 26.2405 15.3439 26.7021 15.3439C27.7585 15.2959 28.469 15.496 29.5064 15.0285C30.1671 14.7323 30.9653 14.7237 31.64 15.0125C32.5958 15.411 33.2074 15.3342 33.3095 15.3439C34.2936 15.3439 35.1376 14.6154 35.2313 13.6851C35.3454 12.5514 34.4399 11.6584 33.3998 11.6584H19.997C17.9909 11.6584 16.3593 10.0268 16.3593 8.02063V4.30785C16.3593 4.02629 16.1308 3.79785 15.8493 3.79785C15.5677 3.79785 15.3393 4.02629 15.3393 4.30785V8.02063C15.3393 10.5892 17.4284 12.6784 19.997 12.6784H33.3998C33.8289 12.6784 34.2701 13.0519 34.2166 13.5828C34.1748 13.9985 33.7763 14.3239 33.3095 14.3239C33.1821 14.312 32.7922 14.3874 32.0371 14.0729C31.1108 13.6745 30.0064 13.6838 29.088 14.0988C28.756 14.2482 28.4107 14.3239 28.0621 14.3239C26.8141 14.2746 26.5415 14.4581 25.6183 14.0729C24.6973 13.6778 23.6241 13.6751 22.642 14.1081C21.9357 14.4401 21.3812 14.2838 20.2759 14.3239C19.9306 14.3239 19.5899 14.2489 19.2785 14.1021C18.3276 13.6831 17.2491 13.6771 16.3168 14.0729C15.9203 14.2416 15.5697 14.3239 15.2443 14.3239C14.0002 14.2743 13.6925 14.4599 12.7833 14.0722C11.6524 13.5921 10.303 13.7196 9.3003 14.3936C9.11901 14.5158 8.95299 14.6008 8.79229 14.652C5.73772 15.6309 3.6609 18.5643 3.87557 21.8789C4.12061 25.5698 7.30479 28.4611 11.1232 28.4611Z" fill="#134A85"/>
<path d="M38.6222 22.2189H10.9255C10.199 22.2189 9.87615 21.3358 10.2754 21.0748C10.58 20.8744 10.7307 21.2195 11.3405 21.2195C11.8797 21.2195 12.407 21.1033 12.9104 20.8716C13.8551 20.4292 14.2538 20.6179 15.0194 20.5734C15.378 20.5734 15.7612 20.671 16.1935 20.8736C17.1902 21.3318 18.3497 21.3278 19.3252 20.8736C19.7548 20.6743 20.134 20.5761 20.486 20.5734C21.0449 20.6014 21.6959 20.438 22.5446 20.8443C23.5646 21.3344 24.7559 21.3351 25.7533 20.8669C26.1816 20.6644 26.5622 20.5661 26.9168 20.5661C27.7039 20.6126 28.0741 20.4248 29.0106 20.8669C29.9947 21.3298 31.202 21.3258 32.1795 20.8669C32.6078 20.6644 32.9883 20.5661 33.3993 20.5661C37.5359 20.5661 40.7491 17.0621 40.4431 12.9679C40.1761 9.30559 36.9899 6.43617 33.1888 6.43617H22.1866C21.8566 6.43617 21.5877 6.16789 21.5877 5.83785V4.30785C21.5877 4.02629 21.3592 3.79785 21.0777 3.79785C20.7961 3.79785 20.5677 4.02629 20.5677 4.30785V5.83785C20.5677 6.73035 21.2941 7.45617 22.1866 7.45617H33.1888C36.458 7.45617 39.1973 9.90988 39.4257 13.0429C39.6821 16.4692 37.0415 19.5461 33.3429 19.5461C32.8349 19.5461 32.3116 19.6763 31.7445 19.9439C31.0386 20.2766 30.16 20.2805 29.4455 19.9439C28.8777 19.6763 28.3545 19.5461 27.8464 19.5461C27.1277 19.5938 26.5186 19.3775 25.3184 19.9439C24.5959 20.2845 23.7332 20.2845 22.9855 19.9246C22.4543 19.6703 21.9024 19.5574 21.421 19.5461C20.6808 19.599 20.091 19.3926 18.8949 19.9492C18.1897 20.2759 17.3456 20.2812 16.6231 19.9479C15.4203 19.3851 14.8024 19.6005 14.0811 19.5534C12.8383 19.5534 12.4302 20.1995 11.3405 20.1995C11.2495 20.1995 11.1758 20.1716 11.041 20.1119C10.6074 19.922 10.114 19.9631 9.71821 20.2201C8.43676 21.0566 9.21919 23.2389 10.9255 23.2389H38.6222C41.9591 23.2389 44.6738 25.951 44.6738 29.2839C44.6738 32.5868 42.0044 35.3295 38.6222 35.3295C38.1405 35.3531 37.9247 35.2637 37.7025 35.4438C36.8219 36.1589 35.4998 36.2858 34.499 35.7486C33.9797 35.4703 33.3635 35.3295 32.6669 35.3295C32.3856 35.3515 31.3485 35.2128 30.3486 35.7486C29.5398 36.1822 28.5278 36.2014 27.6937 35.7917C27.0682 35.4856 26.4884 35.3362 25.9213 35.3362C25.379 35.3786 24.6682 35.1629 23.3833 35.7924C22.5778 36.1882 21.6202 36.1888 20.812 35.7917C20.1865 35.4856 19.6074 35.3362 19.0403 35.3362H18.8438C17.8437 35.3362 16.9997 36.0786 16.9226 37.0269C16.8319 38.1421 17.7318 39.0217 18.7661 39.0217H27.8099C29.8161 39.0217 31.4477 40.6533 31.4477 42.6595V46.6923C31.4477 46.9739 31.6761 47.2023 31.9577 47.2023C32.2392 47.2023 32.4677 46.9739 32.4677 46.6923V42.6595C32.4677 40.0909 30.3785 38.0017 27.8099 38.0017H18.7661C18.3058 38.0017 17.899 37.6068 17.9386 37.1099C17.9732 36.6942 18.3789 36.3562 18.8438 36.3562C18.9845 36.3718 19.4711 36.2704 20.3625 36.7075C21.4522 37.2434 22.7458 37.2414 23.8329 36.7081C24.3156 36.4711 24.7479 36.3562 25.1557 36.3562C25.7594 36.3994 26.2229 36.2067 27.2441 36.7075C28.3691 37.2606 29.7364 37.2347 30.8307 36.6477C31.5625 36.2555 32.3697 36.3698 32.6669 36.3495C33.1935 36.3495 33.6477 36.4498 34.0169 36.6477C35.3152 37.3443 37.0132 37.2201 38.1979 36.3495H38.6222C40.5128 36.3495 42.2878 35.6151 43.6199 34.2823C44.9574 32.9449 45.6938 31.1698 45.6938 29.2839C45.6938 25.3885 42.5216 22.2189 38.6222 22.2189Z" fill="#134A85"/>
<path d="M12.3317 8.88858L11.8981 11.3469C11.8429 11.6576 12.0819 11.9453 12.4008 11.9453C12.6438 11.9453 12.859 11.7713 12.9021 11.5236L13.3358 9.06522C13.3849 8.7883 13.1996 8.52334 12.9221 8.47487C12.6451 8.42506 12.3802 8.611 12.3317 8.88858Z" fill="#134A85"/>
<path d="M6.12208 13.8432C6.30833 14.0552 6.6304 14.0752 6.84192 13.8897C7.05376 13.7031 7.07434 13.381 6.88841 13.1699L4.65649 10.6332C4.47056 10.4213 4.14849 10.4014 3.93665 10.5867C3.72481 10.7733 3.70423 11.0953 3.89017 11.3065L6.12208 13.8432Z" fill="#134A85"/>
<path d="M7.30907 5.91114C7.04079 5.99614 6.89204 6.28301 6.97704 6.55129L8.73681 12.1029C8.82378 12.3763 9.1163 12.5195 9.37697 12.4349C9.64525 12.3499 9.794 12.063 9.709 11.7947L7.94923 6.24317C7.86357 5.97489 7.57603 5.82481 7.30907 5.91114Z" fill="#134A85"/>
<path d="M12.1171 43.9275L11.1383 46.2245C10.9956 46.5596 11.2417 46.9344 11.6078 46.9344C11.8056 46.9344 11.9942 46.8182 12.0772 46.6243L13.0561 44.3273C13.1663 44.0683 13.0454 43.7688 12.7865 43.6579C12.5288 43.5504 12.228 43.6679 12.1171 43.9275Z" fill="#134A85"/>
<path d="M5.65929 40.5746L8.91386 39.6675C9.18546 39.5918 9.34417 39.3102 9.26847 39.0393C9.19277 38.7677 8.91187 38.6096 8.64027 38.6847L5.3857 39.5918C5.1141 39.6675 4.95539 39.949 5.03109 40.22C5.107 40.4917 5.38743 40.6494 5.65929 40.5746Z" fill="#134A85"/>
<path d="M10.5991 41.6407C10.4198 41.4223 10.099 41.3917 9.88122 41.5697L5.37688 45.2612C5.00675 45.5647 5.22364 46.1657 5.70028 46.1657C6.03737 46.1657 5.79737 46.1795 10.528 42.3586C10.7458 42.18 10.7777 41.8585 10.5991 41.6407Z" fill="#134A85"/>
<path d="M40.9572 17.7401L40.7148 19.4693C40.6731 19.7718 40.905 20.0504 41.2208 20.0504C41.4712 20.0504 41.6897 19.8657 41.7255 19.6114L41.9679 17.8822C42.0064 17.6033 41.8125 17.345 41.5336 17.3058C41.2534 17.2666 40.9964 17.4618 40.9572 17.7401Z" fill="#134A85"/>
<path d="M46.4667 20.5464L44.4347 21.7517C43.9897 22.0163 44.1783 22.7007 44.6957 22.7007C44.9438 22.7007 44.8984 22.6344 46.9874 21.4243C47.2298 21.2802 47.3094 20.9675 47.166 20.7251C47.0219 20.4834 46.7105 20.4037 46.4667 20.5464Z" fill="#134A85"/>
<path d="M43.6375 20.8638L46.0062 17.5515C46.1695 17.3224 46.1171 17.0036 45.888 16.8396C45.6569 16.6743 45.3395 16.73 45.1761 16.9578L42.8074 20.2702C42.644 20.4993 42.6965 20.818 42.9256 20.982C43.1545 21.1453 43.473 21.093 43.6375 20.8638Z" fill="#134A85"/>
<path d="M16.7705 26.7413C18.2 25.9631 17.6315 24.0717 15.6854 23.8653C14.5273 23.7398 13.5697 24.3374 13.4768 25.2146C13.3941 26.0006 14.0973 26.8619 15.3547 26.9957C15.8399 27.0455 16.3456 26.9725 16.7705 26.7413ZM15.5779 24.88C16.1569 24.9411 16.5753 25.2844 16.5481 25.5387C16.504 25.9685 15.3302 26.2274 14.6867 25.6768C14.1379 25.2073 14.8772 24.8021 15.5779 24.88Z" fill="#134A85"/>
<path d="M16.0544 17.333C15.9618 18.2146 16.8533 19.1187 18.212 19.1187C19.9881 19.1187 20.7151 17.5124 19.5713 16.5315C18.3955 15.5256 16.2015 15.9431 16.0544 17.333ZM18.028 18.0887C17.3383 18.0159 16.6977 17.4816 17.3301 17.1398C17.7836 16.8929 18.5196 16.9734 18.9079 17.3065C19.4556 17.7734 18.7061 18.1635 18.028 18.0887Z" fill="#134A85"/>
<path d="M33.5177 26.0167C34.0556 25.5682 34.8286 25.6235 35.2563 26.0227C36.3522 26.9512 38.0371 26.701 38.8004 25.4556C38.9471 25.2158 38.8721 24.9017 38.6317 24.7543C38.3913 24.6062 38.0779 24.6826 37.9304 24.923C37.5268 25.5809 36.6036 25.8078 35.913 25.2391C35.0325 24.4953 33.7488 24.4933 32.8643 25.2344C32.6478 25.4151 32.6193 25.7365 32.7999 25.9523C32.9812 26.1688 33.3026 26.1967 33.5177 26.0167Z" fill="#134A85"/>
<path d="M11.0618 17.7376C8.94144 17.361 7.2441 18.5132 6.74671 20.6654C6.68296 20.9397 6.85429 21.2139 7.12855 21.277C7.39177 21.3406 7.67498 21.1773 7.74015 20.8952C8.11136 19.2915 9.3173 18.47 10.8852 18.7416C11.1627 18.7934 11.427 18.6055 11.4755 18.3279C11.5246 18.0503 11.3394 17.786 11.0618 17.7376Z" fill="#134A85"/>
<path d="M30.6463 16.5685C30.5593 16.8128 30.3003 16.9516 30.0493 16.9005L28.6256 16.5864C27.8904 16.4323 27.1513 16.8175 26.8684 17.5141C26.7173 17.8466 26.3671 17.9205 26.1187 17.7704C25.8763 17.627 25.5636 17.706 25.4195 17.9477C25.2754 18.1901 25.355 18.5029 25.5968 18.647C26.4446 19.1515 27.5133 18.7259 27.8214 17.8787C27.9236 17.6542 28.166 17.532 28.4084 17.5832L29.8335 17.8973C30.5845 18.0606 31.3489 17.6343 31.6065 16.9124C31.7015 16.6468 31.5634 16.3553 31.2984 16.2603C31.0315 16.1634 30.7406 16.3028 30.6463 16.5685Z" fill="#134A85"/>
</svg>
