<svg width="51" height="51" viewBox="0 0 51 51" fill="none" xmlns="http://www.w3.org/2000/svg">
<path d="M34.5551 12.0109C34.8749 12.1284 35.1986 12.1872 35.5184 12.1872C36.0602 12.1872 36.5892 12.0189 37.0633 11.6882C37.8173 11.1622 38.2327 10.3663 38.2327 9.44695V7.32029C38.2327 6.4009 37.8173 5.60502 37.0633 5.07809C36.3093 4.55215 35.4188 4.4376 34.5561 4.75535L33.2114 5.25041C33.1696 3.76225 32.1595 2.45836 30.6913 2.0659C29.3316 1.70232 27.6462 1.49414 26.0664 1.49414C24.4866 1.49414 22.8012 1.70232 21.4426 2.0659C19.9743 2.45836 18.9643 3.76324 18.9224 5.25041L17.5777 4.75535C16.7151 4.4376 15.8246 4.55215 15.0696 5.07809C14.3155 5.60402 13.9001 6.3999 13.9001 7.3193V9.44496C13.9001 10.3106 14.2687 11.0666 14.9411 11.5915C13.6521 12.247 12.7676 13.5867 12.7676 15.1287C12.7676 17.1248 14.2498 18.7813 16.1712 19.0553C15.8455 19.6011 15.6662 20.2327 15.6662 20.8931C15.6662 21.2178 15.71 21.5326 15.7917 21.8324C15.5397 21.9161 15.2967 22.0376 15.0705 22.195C14.3165 22.7209 13.9011 23.5168 13.9011 24.4362V26.5618C13.9011 27.4812 14.3165 28.2771 15.0705 28.803C15.5447 29.1338 16.0736 29.3021 16.6155 29.3021C16.9342 29.3021 17.258 29.2433 17.5777 29.1258L18.9135 28.6337C18.9155 29.4107 19.1754 30.1328 19.6267 30.7096C19.1804 31.2036 18.9254 31.8481 18.9254 32.5304V35.3524C18.9254 36.1044 19.2452 36.8166 19.7781 37.3246C19.2591 37.9093 18.9463 38.6684 18.9234 39.4822L17.5787 38.9871C16.7161 38.6694 15.8256 38.7839 15.0705 39.3098C14.3165 39.8358 13.9011 40.6317 13.9011 41.5511V43.6767C13.9011 44.5961 14.3165 45.392 15.0705 45.9179C15.5457 46.2486 16.0736 46.417 16.6155 46.417C16.9342 46.417 17.258 46.3582 17.5777 46.2407L18.9135 45.7486C18.9175 47.3334 19.9942 48.6911 21.574 49.0437C23.1558 49.3963 24.9309 49.5128 26.0664 49.4999C26.1132 49.4999 26.1611 49.5009 26.2099 49.5009C27.3484 49.5009 29.0428 49.3813 30.5598 49.0437C32.1406 48.6911 33.2164 47.3334 33.2204 45.7486L34.5561 46.2407C34.8759 46.3582 35.1996 46.417 35.5184 46.417C36.0602 46.417 36.5892 46.2486 37.0633 45.9179C37.8173 45.392 38.2327 44.5961 38.2327 43.6767V41.5511C38.2327 40.6317 37.8173 39.8358 37.0633 39.3098C36.3093 38.7839 35.4188 38.6694 34.5561 38.9871L33.2114 39.4822C33.1885 38.6684 32.8757 37.9093 32.3568 37.3246C32.8897 36.8166 33.2094 36.1044 33.2094 35.3524V32.5324C33.2094 31.8501 32.9554 31.2056 32.5082 30.7116C32.9584 30.1358 33.2184 29.4137 33.2214 28.6357L34.5571 29.1278C34.8769 29.2453 35.2006 29.3041 35.5194 29.3041C36.0612 29.3041 36.5902 29.1357 37.0643 28.805C37.8183 28.2791 38.2337 27.4832 38.2337 26.5638V24.4382C38.2337 23.5188 37.8183 22.7229 37.0643 22.197C36.3103 21.671 35.4197 21.5565 34.5561 21.8742L33.2114 22.3693C33.1885 21.5555 32.8757 20.7964 32.3568 20.2117C32.8897 19.7037 33.2094 18.9915 33.2094 18.2395V15.4175C33.2094 14.7352 32.9554 14.0907 32.5082 13.5967C32.9584 13.0209 33.2184 12.2988 33.2214 11.5208L34.5551 12.0109ZM34.9685 5.87695C35.4606 5.69566 35.9487 5.75842 36.38 6.05824C36.8103 6.35807 37.0384 6.79436 37.0384 7.3193V9.44496C37.0384 9.9699 36.8113 10.4062 36.38 10.706C35.9497 11.0058 35.4616 11.0686 34.9685 10.8873L33.1357 10.2129C33.1028 9.62127 33.0859 9.00867 33.0859 8.38213C33.0859 7.75459 33.1038 7.14299 33.1367 6.55031L34.9685 5.87695ZM32.0121 15.4155V18.2375C32.0121 18.7196 31.778 19.1728 31.3975 19.4597C31.1764 19.3431 30.9393 19.2505 30.6893 19.1838C29.3316 18.8212 27.6462 18.612 26.0654 18.612C24.7944 18.612 23.4706 18.7445 22.2843 18.9865C22.1886 18.8341 22.0811 18.6877 21.9625 18.5503C22.0641 18.365 22.1538 18.1678 22.2315 17.9606L22.4606 17.9755C23.635 18.0542 24.1838 17.7096 24.6251 17.4326C24.9398 17.2354 25.148 17.1049 25.6252 17.1238C26.0136 17.1398 26.8404 17.6538 27.2847 17.9297C27.4181 18.0124 27.5377 18.0871 27.6373 18.1448C27.7319 18.2006 27.8355 18.2265 27.9381 18.2265C28.1433 18.2265 28.3435 18.1199 28.4551 17.9307C28.6214 17.6458 28.5258 17.2792 28.2409 17.1129C28.1493 17.0591 28.0397 16.9904 27.9162 16.9147C27.1054 16.4106 26.3234 15.9554 25.674 15.9295C24.8263 15.8967 24.3621 16.1865 23.9896 16.4196C23.62 16.6517 23.3272 16.834 22.5403 16.7822L22.5213 16.7812C22.5542 16.5342 22.5721 16.2831 22.5721 16.0291C22.5721 15.6715 22.5383 15.3229 22.4775 14.9872C23.7983 15.2044 25.143 15.2791 26.0634 15.2691C26.1103 15.2691 26.1591 15.2701 26.2079 15.2701C27.3464 15.2701 29.0398 15.1506 30.5558 14.8129C30.9403 14.7272 31.2949 14.5818 31.6107 14.3876C31.8677 14.6675 32.0121 15.0311 32.0121 15.4155ZM32.0151 28.4146C32.1157 29.5322 31.3935 30.5203 30.2988 30.7644C28.8137 31.0961 27.1432 31.2046 26.0724 31.1927C26.0684 31.1927 26.0644 31.1927 26.0605 31.1927C24.9906 31.2046 23.3192 31.0961 21.834 30.7644C20.7393 30.5203 20.0171 29.5322 20.1178 28.4146C20.2004 27.4942 20.2423 26.514 20.2423 25.5C20.2423 25.1115 20.2353 24.724 20.2233 24.3435C21.2254 24.0606 22.0502 23.3534 22.4904 22.428C23.2276 22.7079 23.7166 23.3873 23.7386 24.2021C23.7505 24.6623 23.9597 25.1016 24.3133 25.4084L25.0315 26.0319C25.143 26.1285 25.1919 26.2371 25.1919 26.3845V28.0271C25.1919 28.3568 25.4598 28.6247 25.7895 28.6247C26.1192 28.6247 26.3872 28.3568 26.3872 28.0271V26.3845C26.3872 25.8885 26.1889 25.4552 25.8144 25.1295L25.0962 24.5059C24.9946 24.4172 24.9359 24.2987 24.9329 24.1712C24.898 22.8434 24.0454 21.6999 22.8152 21.2756C22.8281 21.1501 22.8361 21.0236 22.8361 20.8951C22.8361 20.6301 22.8062 20.3691 22.7504 20.1151C23.7993 19.9169 24.9528 19.8083 26.0664 19.8083C27.5466 19.8083 29.1195 20.0016 30.3815 20.3392C31.4344 20.6211 32.1038 21.5754 32.0091 22.6611C31.9304 23.5586 31.8906 24.5149 31.8906 25.502C31.8906 26.515 31.9324 27.4952 32.0151 28.4146ZM32.0121 32.5324V35.3544C32.0121 35.8365 31.778 36.2897 31.3975 36.5766C31.1764 36.46 30.9393 36.3674 30.6893 36.3006C29.3316 35.9371 27.6462 35.7289 26.0654 35.7289C24.4846 35.7289 22.8002 35.9371 21.4416 36.3006C21.1915 36.3674 20.9545 36.461 20.7333 36.5766C20.3528 36.2897 20.1188 35.8365 20.1188 35.3544V32.5324C20.1188 32.1479 20.2632 31.7854 20.5172 31.5064C20.8339 31.6997 21.1876 31.8461 21.5721 31.9318C23.1538 32.2844 24.9319 32.4009 26.0644 32.388C26.1113 32.388 26.1601 32.389 26.2089 32.389C27.3474 32.389 29.0408 32.2695 30.5568 31.9318C30.9413 31.8461 31.2959 31.7007 31.6117 31.5064C31.8677 31.7854 32.0121 32.1479 32.0121 32.5324ZM21.7513 3.22037C23.0134 2.8827 24.5862 2.68945 26.0664 2.68945C27.5466 2.68945 29.1195 2.8827 30.3815 3.22037C31.4344 3.50227 32.1038 4.45652 32.0091 5.54227C31.9304 6.43975 31.8906 7.396 31.8906 8.38313C31.8906 9.39814 31.9324 10.3783 32.0151 11.2977C32.1157 12.4153 31.3935 13.4034 30.2988 13.6475C28.8137 13.9792 27.1432 14.0858 26.0724 14.0758C26.0684 14.0758 26.0644 14.0758 26.0605 14.0758C25.0444 14.0878 23.4875 13.9891 22.0601 13.6963C22.0532 13.6833 22.0482 13.6684 22.0412 13.6554C22.5084 13.253 22.857 12.741 23.0612 12.1693L23.5314 12.5129C23.9776 12.8387 24.4338 13.002 24.893 13.002C25.0514 13.002 25.2098 12.9821 25.3692 12.9442C26.0545 12.7769 26.5714 12.3207 26.8235 11.6613C27.0107 11.1702 27.4201 10.8275 27.9471 10.722C28.2708 10.6572 28.48 10.3414 28.4152 10.0177C28.3495 9.69398 28.0357 9.48481 27.711 9.54955C26.7747 9.73781 26.0445 10.3524 25.7078 11.2339C25.5973 11.5238 25.3881 11.7081 25.0863 11.7818C24.9169 11.8236 24.645 11.8436 24.2376 11.5467L23.2674 10.8395C23.2455 10.2289 23.0702 9.65713 22.7773 9.16207L23.9667 8.21977C24.4627 7.82631 24.7197 7.23861 24.6719 6.60709L24.6619 6.48059C24.646 6.26941 24.7078 6.10107 24.8562 5.95066L26.0933 4.70057C26.3254 4.46549 26.3234 4.08697 26.0883 3.85488C25.8533 3.62279 25.4747 3.62479 25.2427 3.85986L24.0055 5.10996C23.6121 5.5084 23.4258 6.01441 23.4696 6.57223L23.4796 6.69873C23.4975 6.93779 23.4118 7.13502 23.2246 7.28344L22.0063 8.24865C21.5113 7.83029 20.9017 7.54441 20.2313 7.4468C20.2144 6.79137 20.1795 6.15188 20.1257 5.54326C20.0291 4.45652 20.6985 3.50127 21.7513 3.22037ZM15.0955 7.32029C15.0955 6.79535 15.3226 6.35906 15.7539 6.05924C16.1842 5.75941 16.6723 5.69566 17.1653 5.87795L18.9971 6.5523C19.0141 6.85512 19.027 7.16191 19.035 7.47469C17.4134 7.78945 16.1822 9.20789 16.1573 10.9142C16.0188 10.8674 15.8834 10.7996 15.7539 10.708C15.3236 10.4082 15.0955 9.97189 15.0955 9.44695V7.32029ZM13.9619 15.1287C13.9619 13.6007 15.205 12.3575 16.733 12.3575C16.7679 12.3575 16.8038 12.3585 16.8386 12.3595C17.0319 12.3675 17.2121 12.2828 17.3307 12.1324C17.4492 11.983 17.4891 11.7848 17.4373 11.6015C17.3795 11.3953 17.3506 11.1812 17.3506 10.965C17.3506 9.66311 18.4104 8.60326 19.7123 8.60326C21.0142 8.60326 22.0741 9.66311 22.0741 10.965C22.0741 11.7957 21.6497 12.5498 20.9395 12.9831C20.7981 13.0687 20.6995 13.2102 20.6656 13.3716C20.6317 13.5339 20.6666 13.7023 20.7622 13.8377C21.1547 14.3946 21.3798 15.1934 21.3798 16.0301C21.3798 16.8977 21.1407 17.7155 20.7244 18.2743C20.5371 18.5254 20.576 18.879 20.813 19.0832C21.34 19.5384 21.6418 20.1978 21.6418 20.8921C21.6418 22.2099 20.57 23.2817 19.2521 23.2817C17.9343 23.2817 16.8625 22.2099 16.8625 20.8921C16.8625 20.0703 17.2769 19.3162 17.9712 18.874C18.2212 18.7146 18.3168 18.3969 18.1953 18.1259C18.0967 17.9068 17.8805 17.7723 17.6494 17.7723C17.5956 17.7723 17.5409 17.7793 17.4871 17.7952C17.243 17.8639 16.99 17.8988 16.734 17.8988C15.205 17.8998 13.9619 16.6567 13.9619 15.1287ZM17.1643 28.0062C16.6713 28.1875 16.1842 28.1247 15.7529 27.8249C15.3226 27.5241 15.0945 27.0888 15.0945 26.5638V24.4382C15.0945 23.9132 15.3216 23.4769 15.7529 23.1771C15.9272 23.0556 16.1105 22.9729 16.3007 22.9301C16.9093 23.8086 17.8995 24.4033 19.03 24.472C19.04 24.8117 19.046 25.1554 19.046 25.501C19.046 26.1285 19.027 26.7401 18.9942 27.3328L17.1643 28.0062ZM17.1643 45.123C16.6723 45.3043 16.1842 45.2416 15.7539 44.9418C15.3236 44.6409 15.0955 44.2056 15.0955 43.6807V41.555C15.0955 41.0301 15.3226 40.5938 15.7539 40.294C16.1842 39.9942 16.6723 39.9304 17.1653 40.1127L18.9971 40.7871C19.03 41.3797 19.0479 41.9913 19.0479 42.6189C19.0479 43.2464 19.029 43.858 18.9962 44.4507L17.1643 45.123ZM30.2988 47.8822C28.8137 48.2139 27.1412 48.3225 26.0724 48.3105C26.0704 48.3105 26.0684 48.3105 26.0664 48.3105C26.0644 48.3105 26.0624 48.3105 26.0605 48.3105C24.9916 48.3225 23.3192 48.2139 21.834 47.8822C20.7393 47.6382 20.0171 46.6501 20.1178 45.5324C20.2004 44.612 20.2423 43.6319 20.2423 42.6179C20.2423 41.6317 20.2024 40.6755 20.1237 39.777C20.0291 38.6913 20.6985 37.737 21.7513 37.4551C23.0134 37.1174 24.5862 36.9242 26.0664 36.9242C27.5466 36.9242 29.1195 37.1174 30.3815 37.4551C31.4344 37.737 32.1038 38.6913 32.0091 39.777C31.9304 40.6745 31.8906 41.6307 31.8906 42.6179C31.8906 43.6319 31.9324 44.613 32.0151 45.5324C32.1157 46.6491 31.3935 47.6382 30.2988 47.8822ZM34.9685 40.1117C35.4606 39.9304 35.9487 39.9932 36.38 40.293C36.8103 40.5928 37.0384 41.0291 37.0384 41.554V43.6797C37.0384 44.2047 36.8113 44.6409 36.38 44.9408C35.9497 45.2406 35.4616 45.3043 34.9685 45.1221L33.1357 44.4477C33.1028 43.856 33.0859 43.2434 33.0859 42.6169C33.0859 41.9893 33.1038 41.3777 33.1367 40.7851L34.9685 40.1117ZM34.9685 22.9938C35.4606 22.8125 35.9487 22.8753 36.38 23.1761C36.8103 23.4759 37.0384 23.9122 37.0384 24.4372V26.5628C37.0384 27.0878 36.8113 27.5241 36.38 27.8239C35.9497 28.1237 35.4616 28.1865 34.9685 28.0052L33.1357 27.3308C33.1028 26.7391 33.0859 26.1265 33.0859 25.5C33.0859 24.8725 33.1038 24.2609 33.1367 23.6682L34.9685 22.9938Z" fill="#134A85"/>
</svg>
