<svg width="51" height="51" viewBox="0 0 51 51" fill="none" xmlns="http://www.w3.org/2000/svg">
<path d="M18.7523 3.52448H6.97833C6.59394 3.52448 6.28226 3.83616 6.28226 4.22055V10.8515C6.28226 11.236 6.59394 11.5476 6.97833 11.5476H18.7523C19.1367 11.5476 19.4483 11.2359 19.4483 10.8515V4.22055C19.4483 3.83616 19.1367 3.52448 18.7523 3.52448ZM18.0562 10.1555H7.6744V4.91672H18.0562V10.1555ZM46.2991 0.0498047H26.8318C25.772 0.0498047 24.9099 0.912023 24.9099 1.97177V5.90395L22.9512 7.03431V3.38363C22.9512 1.54544 21.457 0.0498047 19.6203 0.0498047H6.11312C4.27483 0.0498047 2.7793 1.54544 2.7793 3.38363V18.1194C2.7793 21.6064 5.61617 24.4432 9.1031 24.4432H10.1373V27.9096H7.46582C5.59027 27.9096 4.06436 29.4355 4.06436 31.3109C4.06436 33.1881 5.59027 34.7153 7.46582 34.7153H11.1657C10.7518 35.2787 10.5066 35.9734 10.5066 36.7246C10.5066 38.265 11.5363 39.5688 12.9432 39.9858C12.4633 40.5728 12.1749 41.3223 12.1749 42.1381C12.1749 43.2404 12.7023 44.2215 13.5177 44.8434C12.7024 45.4654 12.1749 46.4465 12.1749 47.5488C12.1749 49.4244 13.7007 50.9502 15.5762 50.9502H23.9431H24.208H28.6802C30.583 50.9502 32.2461 50.3957 33.7646 49.2553L36.755 47.0133H46.7809C47.1654 47.0133 47.477 46.7017 47.477 46.3173V28.6056C47.477 28.2211 47.1653 27.9096 46.7809 27.9096H37.3538C33.23 27.7146 32.7562 25.5337 32.2549 23.2248C31.8438 21.3316 31.3779 19.1859 28.5856 18.967C27.0475 18.8461 25.6625 19.6283 24.9709 21.0114C24.3591 22.2445 24.0332 24.8426 24.0332 26.2441C24.0332 26.8034 24.0855 27.3608 24.1891 27.9096H15.593V24.4432H16.6301C20.1155 24.4432 22.9511 21.6064 22.9511 18.1194V11.0617L24.9097 12.192V16.1243C24.9097 17.1856 25.7719 18.0491 26.8316 18.0491H46.2989C47.3586 18.0491 48.2208 17.1856 48.2208 16.1243V1.97177C48.221 0.912023 47.3588 0.0498047 46.2991 0.0498047ZM11.8986 36.7245C11.8986 35.6165 12.8 34.7152 13.908 34.7152H23.6275C24.7354 34.7152 25.6369 35.6165 25.6369 36.7245C25.6369 37.8323 24.7355 38.7337 23.6275 38.7337H15.5762H13.9079C12.8001 38.7337 11.8986 37.8323 11.8986 36.7245ZM13.567 42.138C13.567 41.0285 14.4684 40.1258 15.5763 40.1258H23.6275H24.2081C25.316 40.1258 26.2174 41.0284 26.2174 42.138C26.2174 43.2459 25.316 44.1473 24.2081 44.1473H15.5762C14.4684 44.1473 13.567 43.2459 13.567 42.138ZM23.9432 49.558H15.5763C14.4685 49.558 13.567 48.6566 13.567 47.5487C13.567 46.4408 14.4684 45.5394 15.5763 45.5394H24.2082C25.3161 45.5394 26.2175 46.4408 26.2175 47.5487C26.2175 48.6566 25.3161 49.558 24.2082 49.558H23.9432ZM25.0733 29.3017C25.293 29.3017 25.4998 29.1979 25.6311 29.0219C25.7625 28.8458 25.803 28.618 25.7405 28.4074C25.5315 27.7036 25.4255 26.9757 25.4255 26.244C25.4255 24.9845 25.727 22.6199 26.2171 21.632C26.6489 20.7684 27.5147 20.2785 28.4765 20.3548C30.1588 20.4867 30.4625 21.5308 30.8944 23.5201C31.4023 25.8587 32.0976 29.0615 37.3056 29.3009C37.3162 29.3014 37.3268 29.3017 37.3376 29.3017H46.0849V45.6212H36.5231C36.3725 45.6212 36.226 45.67 36.1055 45.7604L32.9291 48.142C31.6426 49.1081 30.2925 49.5581 28.6803 49.5581H26.9503C27.3642 48.9947 27.6094 48.3 27.6094 47.5488C27.6094 46.4465 27.082 45.4654 26.2666 44.8434C27.082 44.2215 27.6094 43.2404 27.6094 42.1381C27.6094 40.8952 26.9402 39.8064 25.944 39.212C26.6107 38.5907 27.0289 37.7057 27.0289 36.7246C27.0289 35.0434 25.8026 33.6441 24.1978 33.3718C24.1188 33.3408 24.0331 33.3231 23.9431 33.3231H23.6275H13.908H7.46582C6.35786 33.3231 5.4565 32.4206 5.4565 31.311C5.4565 30.2032 6.35786 29.3018 7.46582 29.3018H10.1595C10.3279 30.6454 11.4767 31.6886 12.8652 31.6886C14.2539 31.6886 15.4027 30.6454 15.5711 29.3018H25.0733V29.3017ZM11.5295 28.9606V20.8192H14.2011V28.9606C14.2011 29.6971 13.6019 30.2963 12.8652 30.2963C12.1287 30.2963 11.5295 29.6971 11.5295 28.9606ZM21.5592 18.1194C21.5592 20.8387 19.348 23.051 16.6303 23.051H15.5932V20.1231C15.5932 19.7386 15.2816 19.427 14.8972 19.427H10.8334C10.449 19.427 10.1373 19.7387 10.1373 20.1231V23.051H9.1031C6.38376 23.051 4.17144 20.8387 4.17144 18.1194V3.38363C4.17144 2.31293 5.04252 1.44204 6.11312 1.44204H19.6203C20.6894 1.44204 21.5592 2.31303 21.5592 3.38363V7.83776L20.5067 8.44518C20.2912 8.56959 20.1585 8.79939 20.1585 9.04812C20.1585 9.29684 20.2912 9.52664 20.5067 9.65105L21.5592 10.2585V18.1194ZM46.8289 16.1243C46.8289 16.4179 46.5913 16.6569 46.2991 16.6569H26.8318C26.5396 16.6569 26.302 16.4179 26.302 16.1243V11.7901C26.302 11.5413 26.1693 11.3115 25.9538 11.1871L22.2472 9.04802L25.9538 6.90881C26.1693 6.78439 26.302 6.5546 26.302 6.30587V1.97177C26.302 1.68459 26.5446 1.44195 26.8318 1.44195H46.2991C46.5863 1.44195 46.8289 1.68459 46.8289 1.97177V16.1243ZM39.2063 2.34371C38.2091 2.34371 37.263 2.65987 36.4834 3.24478C35.703 2.66007 34.7563 2.34371 33.759 2.34371C32.5411 2.34371 31.3994 2.81546 30.5441 3.672C29.6876 4.52725 29.2159 5.66887 29.2159 6.88679C29.2159 8.10472 29.6876 9.24714 30.5442 10.1038L35.9916 15.5512C36.1221 15.6817 36.2992 15.7551 36.4838 15.7551C36.6685 15.7551 36.8455 15.6817 36.9761 15.5512L42.4237 10.1034C44.1952 8.32874 44.195 5.44365 42.4233 3.672C41.5667 2.81546 40.4243 2.34371 39.2063 2.34371ZM41.4388 9.11934L36.4837 14.0746L31.5286 9.11934C30.935 8.52577 30.6081 7.73287 30.6081 6.88689C30.6081 6.04111 30.9349 5.24911 31.5282 4.65684C31.5285 4.65654 31.5288 4.65624 31.5291 4.65594C32.1212 4.06267 32.9132 3.73585 33.759 3.73585C34.6051 3.73585 35.398 4.06277 35.9916 4.65644C36.1221 4.78693 36.2992 4.86034 36.4838 4.86034H36.4841C36.6689 4.86024 36.846 4.78673 36.9765 4.65594C37.5687 4.06267 38.3607 3.73585 39.2064 3.73585C40.0525 3.73585 40.8453 4.06277 41.4389 4.65644C42.6682 5.88572 42.668 7.88807 41.4388 9.11934ZM41.0829 8.52108C41.0829 8.90558 40.7712 9.21715 40.3868 9.21715H38.5939L38.0172 10.6493C37.911 10.9129 37.6553 11.0853 37.3714 11.0854C37.3698 11.0854 37.3682 11.0854 37.3664 11.0853C37.0806 11.0833 36.825 10.9067 36.7221 10.64L35.7041 8.00331L35.3578 8.7987C35.2473 9.0528 34.9966 9.21705 34.7196 9.21705H32.6089C32.2245 9.21705 31.9128 8.90538 31.9128 8.52098C31.9128 8.13659 32.2245 7.82491 32.6089 7.82491H34.2635L35.1044 5.89289C35.2171 5.63401 35.475 5.46915 35.7574 5.47473C36.0396 5.48061 36.2904 5.65662 36.392 5.91998L37.3852 8.4922L37.4782 8.261C37.5843 7.99754 37.8399 7.82491 38.124 7.82491H40.387C40.7712 7.82491 41.0829 8.13659 41.0829 8.52108ZM9.99649 15.4479C9.99649 15.8324 9.68482 16.144 9.30042 16.144H7.0375C6.65311 16.144 6.34143 15.8323 6.34143 15.4479C6.34143 15.0634 6.65311 14.7518 7.0375 14.7518H9.30042C9.68482 14.7518 9.99649 15.0634 9.99649 15.4479ZM19.392 15.4479C19.392 15.8324 19.0804 16.144 18.696 16.144H16.4302C16.0458 16.144 15.7341 15.8323 15.7341 15.4479C15.7341 15.0634 16.0458 14.7518 16.4302 14.7518H18.696C19.0804 14.7518 19.392 15.0634 19.392 15.4479Z" fill="#134A85"/>
</svg>
