<svg width="51" height="51" viewBox="0 0 51 51" fill="none" xmlns="http://www.w3.org/2000/svg">
<g clip-path="url(#clip0_3059_12657)">
<path d="M42.99 32.4197L39.8432 22.9783C39.8089 17.4783 37.5856 12.3751 33.5742 8.59947C29.534 4.79758 24.2467 2.88269 18.683 3.22455C8.92283 3.81663 0.923799 11.6021 0.0775181 21.3343C-0.0707007 23.0357 -0.00456003 24.7402 0.271956 26.4017C1.71749 35.0669 2.39085 42.1495 2.39085 48.6895V50.2027C2.39085 50.6434 2.74705 50.9996 3.18772 50.9996H24.7033C25.144 50.9996 25.5002 50.6434 25.5002 50.2027V47.8121H36.6565C37.0971 47.8121 37.4533 47.4559 37.4533 47.0152V43.8277C37.4533 43.387 37.0971 43.0308 36.6565 43.0308H32.6721C31.3541 43.0308 30.2815 41.9583 30.2815 40.6402C30.2815 39.3222 31.3541 38.2496 32.6721 38.2496H36.6565C37.0971 38.2496 37.4533 37.8934 37.4533 37.4527V35.0621H40.6408C40.8528 35.0621 41.0552 34.9784 41.2042 34.8286L42.798 33.2349C43.0116 33.0213 43.0857 32.7057 42.99 32.4197ZM40.3109 33.4683H36.6565C36.2158 33.4683 35.8596 33.8245 35.8596 34.2652V36.6558H32.6721C30.4751 36.6558 28.6877 38.4432 28.6877 40.6402C28.6877 42.8372 30.4751 44.6246 32.6721 44.6246H35.8596V46.2183H24.7033C24.2627 46.2183 23.9065 46.5745 23.9065 47.0152V49.4058H3.9846V48.6895C3.9846 42.0595 3.30406 34.894 1.84339 26.1403C1.58919 24.6111 1.52863 23.0404 1.6641 21.473C2.44344 12.5209 9.80178 5.36017 18.7794 4.81511C23.9097 4.50752 28.7642 6.26144 32.4808 9.76052C36.2015 13.262 38.2502 18.0026 38.2502 23.109C38.2502 23.1942 38.2646 23.2795 38.2917 23.3608L41.323 32.4555L40.3109 33.4683Z" fill="#134A85"/>
<path d="M11.9531 25.5V26.2969C11.9531 29.372 14.4561 31.875 17.5312 31.875V30.2812C15.3343 30.2812 13.5469 28.4939 13.5469 26.2969V25.5C13.5469 24.182 14.6195 23.1094 15.9375 23.1094H17.5312V21.5156H15.9375C13.7405 21.5156 11.9531 23.303 11.9531 25.5Z" fill="#134A85"/>
<path d="M26.5018 22.1475L25.375 23.2742C26.6181 24.5174 28.2501 25.1389 29.8829 25.1389C31.5157 25.1389 33.1485 24.5174 34.3908 23.2742L33.2641 22.1475C31.3994 24.0121 28.3665 24.0121 26.5018 22.1475Z" fill="#134A85"/>
<path d="M45.4219 0C42.3467 0 39.8438 2.50298 39.8438 5.57812V13.5469C39.8438 16.622 42.3467 19.125 45.4219 19.125C48.497 19.125 51 16.622 51 13.5469V5.57812C51 2.50298 48.497 0 45.4219 0ZM45.4219 1.59375C47.6189 1.59375 49.4062 3.38114 49.4062 5.57812V6.375H41.4375V5.57812C41.4375 3.38114 43.2249 1.59375 45.4219 1.59375ZM45.4219 17.5312C43.2249 17.5312 41.4375 15.7439 41.4375 13.5469V7.96875H49.4062V13.5469C49.4062 15.7439 47.6189 17.5312 45.4219 17.5312Z" fill="#134A85"/>
<path d="M44.625 20.7188H46.2188V22.3125H44.625V20.7188Z" fill="#134A85"/>
<path d="M44.625 23.9062H46.2188V25.5H44.625V23.9062Z" fill="#134A85"/>
<path d="M44.625 27.0938H46.2188V28.6875H44.625V27.0938Z" fill="#134A85"/>
<path d="M44.625 30.2812H46.2188V31.875H44.625V30.2812Z" fill="#134A85"/>
<path d="M44.625 33.4688H46.2188V35.0625H44.625V33.4688Z" fill="#134A85"/>
<path d="M44.625 36.6562H46.2188V38.25H44.625V36.6562Z" fill="#134A85"/>
<path d="M44.625 39.8438H46.2188V41.4375H44.625V39.8438Z" fill="#134A85"/>
<path d="M41.4375 39.8438H43.0312V41.4375H41.4375V39.8438Z" fill="#134A85"/>
<path d="M38.25 39.8438H39.8438V41.4375H38.25V39.8438Z" fill="#134A85"/>
<path d="M35.0625 39.8438H36.6562V41.4375H35.0625V39.8438Z" fill="#134A85"/>
<path d="M31.875 39.8438H33.4688V41.4375H31.875V39.8438Z" fill="#134A85"/>
</g>
<defs>
<clipPath id="clip0_3059_12657">
<rect width="51" height="51" fill="white"/>
</clipPath>
</defs>
</svg>
