<svg width="51" height="51" viewBox="0 0 51 51" fill="none" xmlns="http://www.w3.org/2000/svg">
<g clip-path="url(#clip0_3059_12339)">
<path d="M18.8818 19.0094L19.0292 18.9775L18.5591 20.1728C18.5183 20.2705 18.4974 20.3754 18.4976 20.4813C18.4978 20.5872 18.5191 20.692 18.5603 20.7896C18.6015 20.8871 18.6617 20.9755 18.7374 21.0495C18.8132 21.1236 18.9029 21.1818 19.0013 21.2207C19.0949 21.2592 19.195 21.2795 19.2962 21.2805C19.4562 21.2803 19.6125 21.232 19.7447 21.1417C19.8769 21.0514 19.9789 20.9235 20.0373 20.7745L21.0573 18.2085C21.1089 18.0764 21.1243 17.9328 21.1019 17.7928C21.0794 17.6527 21.02 17.5211 20.9298 17.4117C20.8383 17.3007 20.7186 17.2166 20.5832 17.1682C20.4478 17.1198 20.3018 17.1089 20.1608 17.1367L19.9217 17.1327L20.356 15.8737C20.3925 15.7741 20.4087 15.6682 20.4038 15.5623C20.3988 15.4563 20.3727 15.3524 20.3271 15.2567C20.2814 15.1609 20.2171 15.0753 20.138 15.0047C20.0588 14.9341 19.9663 14.8801 19.866 14.8457C19.7666 14.8113 19.6613 14.7968 19.5563 14.8032C19.4513 14.8097 19.3487 14.8368 19.2542 14.8831C19.1597 14.9294 19.0754 14.9939 19.006 15.073C18.9366 15.1521 18.8836 15.2441 18.8499 15.3438L17.9574 17.9376C17.909 18.0718 17.8975 18.2166 17.9242 18.3567C17.9508 18.4969 18.0146 18.6274 18.1088 18.7345C18.2006 18.8461 18.3211 18.9306 18.4572 18.979C18.5934 19.0275 18.7401 19.038 18.8818 19.0094Z" fill="#134A85"/>
<path d="M22.3126 22.4757C22.5063 22.4754 22.6933 22.4046 22.8385 22.2765L24.7749 20.5592C24.8827 20.4686 24.9646 20.3511 25.0122 20.2186C25.0597 20.0861 25.0714 19.9433 25.0459 19.8049C25.0204 19.6664 24.9586 19.5372 24.8669 19.4303C24.7753 19.3235 24.6569 19.2428 24.5239 19.1966L24.3247 19.1249L25.2531 18.2204C25.3303 18.1475 25.3921 18.06 25.435 17.9628C25.4779 17.8657 25.501 17.761 25.5028 17.6548C25.5047 17.5487 25.4853 17.4432 25.4458 17.3447C25.4064 17.2461 25.3476 17.1564 25.273 17.0809C25.2006 17.0052 25.1139 16.9445 25.018 16.9024C24.9221 16.8602 24.8189 16.8374 24.7142 16.8351C24.6094 16.8329 24.5053 16.8514 24.4077 16.8894C24.3101 16.9275 24.221 16.9844 24.1454 17.057L22.3126 18.8619C22.2135 18.9567 22.1405 19.0754 22.1007 19.2066C22.0609 19.3378 22.0557 19.4771 22.0855 19.611C22.1125 19.7443 22.1732 19.8684 22.2617 19.9717C22.3503 20.0749 22.4638 20.1537 22.5915 20.2006L22.723 20.2485L21.7986 21.0653C21.7182 21.1342 21.6523 21.2186 21.6048 21.3134C21.5574 21.4081 21.5293 21.5114 21.5223 21.6171C21.5152 21.7229 21.5293 21.829 21.5638 21.9292C21.5982 22.0294 21.6523 22.1217 21.7229 22.2008C21.7963 22.2855 21.8868 22.3538 21.9884 22.4012C22.09 22.4486 22.2005 22.474 22.3126 22.4757Z" fill="#134A85"/>
<path d="M3.27516 37.9116C3.38059 37.9112 3.48489 37.8898 3.58201 37.8488C3.67912 37.8077 3.76714 37.7478 3.84094 37.6725C3.91575 37.5971 3.97474 37.5075 4.01442 37.409C4.05411 37.3105 4.0737 37.205 4.07203 37.0988L4.04812 33.218C4.04838 33.0134 3.96992 32.8165 3.82898 32.6682C3.68805 32.5198 3.49546 32.4314 3.29109 32.4211C3.0942 32.4218 2.89945 32.3802 2.72003 32.2991C2.54062 32.218 2.38072 32.0993 2.25117 31.951C1.62563 31.2298 1.59375 29.8393 1.62164 29.3651C1.62164 29.3412 1.62164 29.3213 1.62164 29.2974V19.6871C1.62164 17.5833 2.95641 16.4318 4.37484 15.9298C3.98888 15.5293 3.66399 15.0742 3.41063 14.5791C2.39757 14.9903 1.53246 15.6981 0.928795 16.6096C0.325126 17.5212 0.0110912 18.5939 0.0278906 19.6871V29.2496C0 29.6201 -0.0876563 31.68 1.04391 32.9869C1.41524 33.4193 1.90587 33.7325 2.45438 33.8874V36.278H0.796875C0.585531 36.278 0.382842 36.362 0.233399 36.5114C0.0839562 36.6609 0 36.8635 0 37.0749C0 37.2862 0.0839562 37.4889 0.233399 37.6384C0.382842 37.7878 0.585531 37.8718 0.796875 37.8718L3.27516 37.9116Z" fill="#134A85"/>
<path d="M8.36724 16.0289C9.16687 16.0384 9.95126 15.8099 10.6207 15.3725C11.2901 14.935 11.8144 14.3084 12.1268 13.5723C12.4392 12.8362 12.5257 12.0238 12.3752 11.2384C12.2248 10.453 11.8442 9.73003 11.2818 9.16148C10.7194 8.59294 10.0007 8.20445 9.217 8.0454C8.43329 7.88635 7.61999 7.96393 6.88048 8.26828C6.14097 8.57262 5.50866 9.08998 5.06393 9.75459C4.6192 10.4192 4.38213 11.201 4.38286 12.0007C4.37756 13.0631 4.79425 14.0841 5.54135 14.8395C6.28846 15.5948 7.30486 16.0226 8.36724 16.0289ZM8.36724 9.5623C8.84672 9.55677 9.31703 9.6939 9.71841 9.95626C10.1198 10.2186 10.4341 10.5944 10.6214 11.0358C10.8088 11.4772 10.8607 11.9643 10.7705 12.4353C10.6804 12.9063 10.4523 13.3398 10.1152 13.6809C9.77807 14.0219 9.3472 14.255 8.87731 14.3506C8.40742 14.4462 7.91971 14.4 7.47616 14.2178C7.03261 14.0356 6.65323 13.7256 6.38622 13.3273C6.11922 12.929 5.97664 12.4603 5.97661 11.9808C5.97292 11.6645 6.03203 11.3507 6.15052 11.0574C6.26901 10.7641 6.44451 10.4973 6.66687 10.2723C6.88923 10.0474 7.15402 9.86878 7.4459 9.7469C7.73777 9.62502 8.05094 9.56228 8.36724 9.5623Z" fill="#134A85"/>
<path d="M19.2249 26.6232C18.5925 25.6834 17.6488 24.9967 16.56 24.684C15.4712 24.3714 14.3069 24.4528 13.2722 24.9139C12.7892 25.1353 12.3606 25.4597 12.0164 25.8645C11.6722 26.2692 11.4209 26.7445 11.28 27.2568C11.1405 27.7948 11.1196 28.3567 11.2187 28.9036C11.3177 29.4505 11.5344 29.9694 11.8538 30.4243C12.3016 31.0814 12.9028 31.6193 13.6055 31.9914C14.3081 32.3636 15.0909 32.5587 15.886 32.56C16.55 32.5634 17.2063 32.4177 17.8064 32.1336C18.2895 31.9123 18.7181 31.5878 19.0623 31.1831C19.4065 30.7783 19.6578 30.3031 19.7986 29.7908C19.9379 29.2528 19.9587 28.6909 19.8596 28.144C19.7606 27.5971 19.544 27.0783 19.2249 26.6232ZM18.2607 29.3645C18.1797 29.6525 18.0369 29.9194 17.8421 30.1465C17.6473 30.3735 17.4054 30.5554 17.1331 30.6793C16.4418 30.9655 15.6735 31.0069 14.9554 30.7968C14.2373 30.5866 13.6126 30.1375 13.1846 29.5239C12.9965 29.2614 12.8675 28.9613 12.8063 28.6443C12.7451 28.3272 12.7531 28.0007 12.83 27.6871C12.9096 27.4002 13.0506 27.134 13.2433 26.907C13.4359 26.68 13.6755 26.4975 13.9456 26.3722C14.3196 26.1971 14.7279 26.1073 15.1409 26.1093C15.678 26.109 16.2073 26.2377 16.6843 26.4845C17.1614 26.7313 17.5721 27.0891 17.8821 27.5277C18.0743 27.7883 18.2076 28.0874 18.273 28.4046C18.3383 28.7217 18.3341 29.0492 18.2607 29.3645Z" fill="#134A85"/>
<path d="M50.2036 38.5965H48.9246C49.2792 38.5447 49.6657 38.3017 49.853 37.5646L50.9208 33.8989C51.0632 33.297 50.9711 32.6634 50.6633 32.1268C50.3554 31.5903 49.8549 31.1911 49.2633 31.0103C47.9564 30.56 46.9404 31.4725 46.3587 32.3849L44.49 31.6318L48.6377 29.803C49.2784 29.4783 49.7958 28.9538 50.1119 28.3089C50.1713 28.169 50.202 28.0186 50.202 27.8666C50.202 27.7146 50.1713 27.5642 50.1119 27.4243L48.5182 23.8902C48.1835 23.1093 47.4703 21.5155 45.8208 22.2486C45.0848 22.6056 44.5142 23.2318 44.227 23.9978C44.0627 24.4125 44.0079 24.8626 44.0677 25.3046L31.5209 29.7552L30.4252 29.3568L31.0786 23.7707C31.1089 23.5158 31.0867 23.2574 31.0134 23.0114C30.9401 22.7654 30.8172 22.537 30.6523 22.3403C30.492 22.152 30.2938 21.9997 30.0707 21.8933C29.8476 21.7869 29.6045 21.7287 29.3573 21.7227L27.9947 21.6789C27.494 21.6727 27.0089 21.8528 26.6334 22.1841C26.258 22.5153 26.0189 22.9743 25.9627 23.4718L25.4487 27.6514L24.0143 27.1534C23.102 26.8707 22.1307 26.8377 21.2013 27.0578C21.3802 27.5712 21.4822 28.1083 21.5041 28.6515C21.7974 28.5701 22.1003 28.5286 22.4046 28.528C22.7865 28.5295 23.1663 28.5858 23.5322 28.6953L24.7514 29.1177L23.1178 29.4125C23.0132 29.4311 22.9132 29.4701 22.8236 29.5273C22.7341 29.5845 22.6566 29.6588 22.5958 29.7459C22.4728 29.9219 22.4249 30.1395 22.4624 30.3509C22.4999 30.5622 22.6198 30.75 22.7958 30.8729C22.9718 30.9958 23.1894 31.0438 23.4007 31.0063L26.1459 30.5082C26.3149 30.4775 26.4693 30.393 26.5864 30.2674C26.7034 30.1417 26.7767 29.9817 26.7954 29.811L27.5325 23.6591C27.5459 23.5605 27.5928 23.4694 27.6654 23.4012C27.7379 23.3331 27.8317 23.2919 27.9309 23.2846L29.2936 23.3284C29.3198 23.3278 29.3457 23.3329 29.3698 23.3432C29.3938 23.3535 29.4154 23.3688 29.433 23.3882C29.454 23.4157 29.4691 23.4472 29.4773 23.4808C29.4856 23.5144 29.4868 23.5493 29.4809 23.5834L28.4967 32.2016C28.4661 32.3563 28.3933 32.4996 28.2865 32.6156C28.1796 32.7316 28.0428 32.8158 27.8911 32.859L22.9624 33.7754C22.8578 33.7848 22.756 33.8148 22.6629 33.8635C22.5699 33.9123 22.4873 33.9789 22.42 34.0595C22.3526 34.1402 22.3018 34.2333 22.2705 34.3336C22.2391 34.4339 22.2278 34.5394 22.2373 34.644C22.2467 34.7487 22.2766 34.8504 22.3254 34.9435C22.3741 35.0366 22.4407 35.1192 22.5214 35.1865C22.602 35.2538 22.6952 35.3046 22.7954 35.336C22.8957 35.3673 23.0012 35.3786 23.1059 35.3692C23.1536 35.3735 23.2016 35.3735 23.2493 35.3692L28.178 34.4528C28.6671 34.3466 29.1116 34.0923 29.451 33.7244C29.7904 33.3565 30.0081 32.8929 30.0745 32.3968L30.2299 31.0222L33.1545 32.0382C33.2746 32.0799 33.4031 32.0922 33.529 32.0741C35.553 31.7793 38.8362 31.3051 39.2306 31.2772H39.2625L46.4344 34.1699C46.628 34.2467 46.844 34.2447 47.0361 34.1643C47.2282 34.0839 47.3812 33.9314 47.4623 33.7396C47.4623 33.7396 48.1118 32.3411 48.7612 32.5443C48.9638 32.5918 49.1417 32.7124 49.2608 32.883C49.3799 33.0536 49.4319 33.2621 49.4067 33.4686L48.4066 36.8952L38.4497 34.3691C38.0711 34.2664 37.6686 34.2973 37.3102 34.4568H37.2703L30.4969 38.1184C30.3086 38.1768 30.1087 38.1878 29.9152 38.1503L21.548 35.7596C20.965 35.5699 20.4435 35.2273 20.0377 34.7677C19.632 34.308 19.3569 33.748 19.241 33.1459C19.0059 33.3112 18.7581 33.4577 18.4999 33.5842C18.2661 33.6945 18.0252 33.789 17.7787 33.8671C18.0002 34.6736 18.4204 35.4117 19.001 36.0138C19.5815 36.616 20.3038 37.0628 21.1017 37.3136L25.5762 38.5965H15.938C15.938 36.8912 15.938 35.2895 15.938 34.1619H15.9141C15.3849 34.1625 14.8577 34.0983 14.3442 33.9707V41.4095C14.1848 41.4095 12.352 41.4095 12.2126 41.4095V34.6361C12.2178 34.4836 12.1923 34.3316 12.1376 34.1892C12.0828 34.0468 11.9999 33.9169 11.8938 33.8073C11.7381 33.6756 11.5569 33.5775 11.3615 33.5192C11.1661 33.4609 10.9607 33.4437 10.7583 33.4686H7.40742C7.19608 33.4686 6.99339 33.5526 6.84395 33.702C6.6945 33.8515 6.61055 34.0542 6.61055 34.2655V39.4452C6.59561 39.5555 6.53893 39.6558 6.45219 39.7255C6.36545 39.7952 6.25527 39.8289 6.14438 39.8197H1.07227C0.860921 39.8197 0.658233 39.9037 0.50879 40.0531C0.359347 40.2026 0.275391 40.4053 0.275391 40.6166C0.275391 40.8279 0.359347 41.0306 0.50879 41.1801C0.658233 41.3295 0.860921 41.4135 1.07227 41.4135H6.14438C6.68159 41.422 7.20023 41.217 7.58644 40.8435C7.97265 40.47 8.19486 39.9585 8.2043 39.4213V35.0823H10.6188V41.4095C10.6083 41.6228 10.6414 41.8359 10.716 42.036C10.7907 42.236 10.9054 42.4187 11.0531 42.5729C11.5432 43.055 12.2484 43.0351 12.9059 43.0232H13.6589H14.0255C14.2903 43.0503 14.558 43.0242 14.8126 42.9461C15.0671 42.8681 15.3035 42.7399 15.5077 42.5689C15.6537 42.4154 15.767 42.2338 15.841 42.0352C15.915 41.8366 15.9479 41.6251 15.938 41.4135C15.938 41.015 15.938 40.6166 15.938 40.2182H50.2036C50.4149 40.2182 50.6176 40.1342 50.7671 39.9848C50.9165 39.8353 51.0005 39.6326 51.0005 39.4213C51.0005 39.2099 50.9165 39.0073 50.7671 38.8578C50.6176 38.7084 50.4149 38.6244 50.2036 38.6244V38.5965ZM39.7207 29.7034C39.5584 29.6596 39.3908 29.6381 39.2227 29.6396C39.1549 29.6396 39.3223 29.5958 35.047 30.2174L45.3466 26.5637C45.4523 26.5273 45.549 26.4692 45.6307 26.393C45.7124 26.3168 45.7772 26.2243 45.8208 26.1214C45.8664 26.0193 45.8899 25.9086 45.8899 25.7967C45.8899 25.6848 45.8664 25.5742 45.8208 25.472L45.6973 25.2011C45.6314 24.9983 45.6427 24.7784 45.7291 24.5835C45.8675 24.2178 46.1356 23.9157 46.4822 23.7348C46.5539 23.7029 46.5937 23.695 46.5977 23.691C46.8039 23.9542 46.9691 24.247 47.0878 24.5596L48.566 27.8507C48.4121 28.0394 48.2275 28.201 48.0202 28.3288L42.442 30.7951L39.7207 29.7034ZM37.9716 35.927H38.0273L48.4584 38.5726L48.6059 38.6005H33.0309L37.9716 35.927Z" fill="#134A85"/>
<path d="M29.2696 20.1095C29.6178 20.0272 29.9822 20.0437 30.3215 20.1574C30.5145 20.2087 30.6844 20.3239 30.8036 20.4841C30.8589 20.5732 30.9313 20.6504 31.0166 20.7115C31.1019 20.7726 31.1983 20.8162 31.3005 20.8399C31.4027 20.8636 31.5085 20.8669 31.6119 20.8496C31.7154 20.8323 31.8144 20.7947 31.9033 20.7391C31.9937 20.6834 32.072 20.6102 32.1338 20.5238C32.1955 20.4375 32.2393 20.3396 32.2627 20.2361C32.2861 20.1325 32.2885 20.0253 32.2699 19.9208C32.2513 19.8163 32.212 19.7165 32.1543 19.6274C31.8458 19.1553 31.3844 18.8036 30.8474 18.6313C30.2227 18.4163 29.5498 18.3831 28.907 18.5357C28.8015 18.5589 28.7019 18.6033 28.6141 18.6662C28.5263 18.7291 28.4522 18.8092 28.3963 18.9016C28.3404 18.994 28.3038 19.0968 28.2889 19.2038C28.274 19.3108 28.2809 19.4196 28.3094 19.5238C28.3594 19.7286 28.4885 19.9052 28.6685 20.015C28.8485 20.1248 29.0646 20.1588 29.2696 20.1095Z" fill="#134A85"/>
<path d="M44.2269 21.6712C44.3362 21.6708 44.4442 21.648 44.5442 21.6041C44.6443 21.5603 44.7343 21.4963 44.8086 21.4162C45.0456 21.1533 45.3568 20.9685 45.7011 20.8863C45.8621 20.8414 46.0341 20.8585 46.1832 20.9341C46.2711 20.9912 46.3694 21.0305 46.4724 21.0496C46.5755 21.0688 46.6813 21.0674 46.7838 21.0455C46.8863 21.0237 46.9836 20.9819 47.0699 20.9224C47.1562 20.8629 47.2299 20.787 47.2869 20.699C47.3461 20.6109 47.3872 20.5119 47.4076 20.4078C47.4281 20.3037 47.4275 20.1965 47.406 20.0926C47.3845 19.9887 47.3424 19.8901 47.2823 19.8026C47.2221 19.7152 47.1451 19.6407 47.0558 19.5834C46.8094 19.4298 46.535 19.3265 46.2485 19.2793C45.962 19.2321 45.669 19.242 45.3863 19.3085C44.7152 19.4576 44.1069 19.8112 43.6452 20.3205C43.5713 20.3968 43.5134 20.4871 43.475 20.5861C43.4365 20.6851 43.4182 20.7908 43.4212 20.897C43.4242 21.0031 43.4483 21.1076 43.4923 21.2043C43.5362 21.301 43.599 21.3879 43.677 21.46C43.8266 21.598 44.0234 21.6736 44.2269 21.6712Z" fill="#134A85"/>
<path d="M11.4551 18.8703C11.4527 18.2111 11.3 17.5611 11.0089 16.9697C10.5344 17.2292 10.0242 17.4171 9.4948 17.5275C9.73047 17.9361 9.85673 18.3986 9.86136 18.8703V21.1693L9.06448 21.484L8.57042 20.6154C8.46538 20.4363 8.2946 20.3053 8.09442 20.2503C7.89424 20.1952 7.68048 20.2204 7.49862 20.3206C7.40625 20.3726 7.32519 20.4426 7.26019 20.5264C7.1952 20.6102 7.14757 20.7061 7.12012 20.8085C7.09266 20.9109 7.08591 21.0178 7.10028 21.1228C7.11465 21.2279 7.14983 21.329 7.20378 21.4203L8.0405 22.8905C8.13545 23.057 8.2872 23.1836 8.46795 23.2473C8.64869 23.311 8.84633 23.3074 9.02464 23.2371L14.802 20.9143C14.8656 20.8828 14.9353 20.8653 15.0063 20.8632C15.0772 20.8611 15.1478 20.8742 15.2132 20.9018C15.2786 20.9295 15.3373 20.9708 15.3853 21.0232C15.4333 21.0755 15.4694 21.1376 15.4913 21.2051C15.5176 21.2489 15.5345 21.2975 15.5411 21.3481C15.5477 21.3987 15.5437 21.4501 15.5295 21.4991C15.5153 21.5481 15.4911 21.5937 15.4585 21.6329C15.4258 21.6721 15.3855 21.7042 15.3399 21.7271L7.71776 24.8867V24.8628L5.07214 20.2967C4.96567 20.1147 4.79141 19.9823 4.58754 19.9285C4.38366 19.8748 4.16678 19.904 3.9844 20.0098C3.89128 20.0622 3.80964 20.1327 3.74433 20.2173C3.67903 20.3018 3.63139 20.3987 3.60425 20.502C3.57712 20.6053 3.57104 20.7131 3.58638 20.8188C3.60172 20.9245 3.63816 21.0261 3.69355 21.1175L6.31925 25.6596C6.52241 26.0156 6.84384 26.2891 7.22769 26.4326C7.36793 26.4844 7.51647 26.5101 7.66597 26.5083C7.8884 26.5057 8.10849 26.4625 8.31542 26.3808L15.9774 23.1933C16.4535 22.9759 16.8249 22.5798 17.0113 22.0907C17.1977 21.6016 17.1841 21.0587 16.9735 20.5796C16.8763 20.3188 16.7276 20.0802 16.5363 19.8781C16.3451 19.6759 16.1151 19.5142 15.8601 19.4027C15.6051 19.2912 15.3303 19.2321 15.052 19.2289C14.7737 19.2258 14.4977 19.2786 14.2402 19.3843L11.4511 20.5039C11.4551 19.8345 11.4551 19.2568 11.4551 18.8703Z" fill="#134A85"/>
</g>
<defs>
<clipPath id="clip0_3059_12339">
<rect width="51" height="51" fill="white"/>
</clipPath>
</defs>
</svg>
