<svg width="51" height="51" viewBox="0 0 51 51" fill="none" xmlns="http://www.w3.org/2000/svg">
<path d="M30.5839 39.7464C30.5839 44.9559 27.2285 48.4691 23.0894 48.4691C18.9503 48.4691 15.595 44.8287 15.595 39.6191" stroke="#134A85" stroke-width="1.99852" stroke-miterlimit="10" stroke-linecap="round"/>
<path d="M30.5838 39.7455C30.5838 29.1848 25.6176 28.5705 27.5354 20.2988" stroke="#134A85" stroke-width="1.99852" stroke-miterlimit="10" stroke-linecap="round"/>
<path d="M19.0137 23.4726L22.5887 21.0631L23.4802 20.4656C23.8169 20.2522 24.1489 20.0719 24.4916 19.8951C25.1853 19.5435 25.9098 19.2565 26.6562 19.0379C27.4548 18.8117 28.2857 18.7215 29.1143 18.771C30.0255 18.8326 30.8957 19.1729 31.6071 19.7457C32.8226 20.8831 33.5919 22.4172 33.7763 24.0717C34.3391 26.894 34.7595 29.7429 35.036 32.6075C35.3327 35.4586 35.5484 38.2989 35.692 41.1701L35.693 41.1909L35.6923 41.2487C35.6645 42.2628 35.806 43.2744 36.111 44.2419C36.2257 44.6339 36.4338 44.9922 36.7175 45.2861C36.834 45.3887 36.9709 45.4655 37.1192 45.5113C37.2674 45.5571 37.4238 45.571 37.5778 45.5521C38.5713 45.4863 39.5402 45.2149 40.4233 44.755C41.3064 44.2951 42.0842 43.6568 42.7077 42.8805C43.3195 42.0887 43.7698 41.1843 44.0328 40.2187C44.084 39.9876 44.1805 39.6929 44.1983 39.5144C44.2427 39.2318 44.2268 38.943 44.1516 38.667C44.0764 38.391 43.9437 38.1341 43.7621 37.913C43.4608 37.6099 43.0956 37.3776 42.6932 37.2333C42.2909 37.0889 41.8614 37.0361 41.436 37.0785C40.3678 37.0523 39.2992 37.1111 38.2402 37.2543L38.2312 37.2554C38.0462 37.2781 37.8592 37.2312 37.7067 37.124C37.5542 37.0167 37.4469 36.8566 37.4056 36.6748C37.3643 36.493 37.392 36.3023 37.4833 36.1397C37.5745 35.977 37.7229 35.8541 37.8996 35.7946C39.0459 35.3927 40.2487 35.1753 41.4632 35.1506C42.1312 35.1227 42.7995 35.1989 43.444 35.3766C44.3543 35.6668 45.1321 36.2704 45.6394 37.0801C46.1466 37.8897 46.3504 38.853 46.2144 39.7987C46.1605 40.1216 46.0901 40.4415 46.0034 40.7572C45.5166 42.6328 44.4429 44.3037 42.9391 45.5257C41.4353 46.7477 39.5801 47.4569 37.6445 47.5496C37.4556 47.5628 37.2658 47.5549 37.0787 47.526C36.8672 47.5138 36.6587 47.4706 36.4597 47.3979C36.0542 47.2638 35.6815 47.0458 35.3658 46.7582C34.8391 46.2459 34.4479 45.6108 34.2274 44.91C33.8364 43.7062 33.6563 42.4439 33.6951 41.1788L33.6954 41.257C33.5551 38.4499 33.3405 35.6187 33.0483 32.8149C32.7788 30.0192 32.3691 27.2387 31.8208 24.4841C31.6993 23.8503 31.5263 23.2274 31.3035 22.6218C31.18 22.3651 31.0429 22.1151 30.8928 21.873C30.7099 21.6866 30.582 21.423 30.3591 21.3066C29.8968 21.0004 29.3677 20.8094 28.8163 20.7497C28.265 20.6901 27.7073 20.7635 27.1902 20.9637C26.5724 21.1469 25.9724 21.3855 25.3975 21.6767C25.1087 21.8255 24.8157 21.9849 24.5521 22.1525L23.6727 22.7421L20.1753 25.0988L20.1302 25.1292C19.9105 25.2767 19.6412 25.331 19.3816 25.2801C19.1219 25.2293 18.893 25.0775 18.7451 24.8581C18.5973 24.6387 18.5425 24.3695 18.5928 24.1098C18.6432 23.85 18.7945 23.6208 19.0137 23.4726Z" fill="#134A85"/>
<path d="M35.2241 2.46805C35.2297 3.03904 35.394 3.59722 35.6984 4.08033C35.8484 4.31788 36.0313 4.53304 36.2416 4.71943C36.4813 4.92012 36.742 5.09423 37.0192 5.23871C38.4055 6.04076 39.6743 7.03049 40.7897 8.17982C43.013 10.5234 44.525 13.4503 45.1496 16.6197C45.6927 19.6463 46.0237 22.707 46.1403 25.7797C46.3861 28.8778 46.1238 31.9952 45.3639 35.0087C45.3108 35.1847 45.1947 35.335 45.0378 35.4309C44.881 35.5269 44.6943 35.5617 44.5134 35.5289C44.3325 35.496 44.17 35.3977 44.0569 35.2527C43.9438 35.1077 43.888 34.9262 43.9002 34.7427L43.9058 34.6615C44.1473 31.7346 44.2202 28.7962 44.1242 25.8609C43.9982 22.9041 43.6683 19.9596 43.1372 17.0482C42.5808 14.2621 41.2426 11.6921 39.2791 9.63867C38.289 8.6224 37.1732 7.73685 35.9586 7.00353C35.5728 6.78751 35.2105 6.5321 34.8774 6.24141C34.5266 5.92231 34.2228 5.55511 33.9751 5.15077C33.481 4.34345 33.2215 3.41451 33.2256 2.46801C33.2256 2.20299 33.3309 1.94882 33.5183 1.76143C33.7057 1.57403 33.9599 1.46875 34.2249 1.46875C34.4899 1.46875 34.7441 1.57403 34.9315 1.76143C35.1189 1.94882 35.2241 2.20303 35.2241 2.46805Z" fill="#134A85"/>
<path d="M15.595 39.6197C15.6267 35.983 16.1648 32.3685 17.1938 28.8803C17.2698 28.6201 17.2806 28.3452 17.2254 28.0798C17.1701 27.8144 17.0505 27.5666 16.877 27.3583C16.7035 27.15 16.4815 26.9875 16.2305 26.8851C15.9794 26.7828 15.7071 26.7437 15.4374 26.7713C12.6472 26.7713 8.20604 30.3516 5.2915 32.2253" stroke="#134A85" stroke-width="1.99852" stroke-miterlimit="10" stroke-linecap="round"/>
<path d="M8.574 16.3142C8.60383 16.6708 8.72256 17.0142 8.91934 17.313C9.11612 17.6118 9.38466 17.8565 9.70042 18.0248C10.4615 18.188 11.2537 18.1261 11.9802 17.8466C13.837 17.1729 15.6228 16.3175 17.3114 15.2928C19.1812 14.2571 21.1734 13.4595 23.2413 12.9185C25.3288 12.421 27.4737 12.2061 29.6184 12.2797C30.7768 12.2756 31.926 12.4867 33.0074 12.9023C34.1143 13.3639 35.0945 14.0839 35.8661 15.002C37.2226 16.7578 38.1669 18.7961 38.6291 20.9662C39.1198 23.0152 39.4398 25.1013 39.5859 27.2032C39.8078 29.2731 39.8024 31.3611 39.5695 33.4298C39.5438 33.6096 39.4544 33.7742 39.3174 33.8936C39.1805 34.0129 39.0052 34.079 38.8235 34.0799C38.6419 34.0807 38.466 34.0162 38.3279 33.8982C38.1899 33.7801 38.0989 33.6164 38.0715 33.4368L38.0706 33.4298C37.7641 31.3991 37.7579 29.3799 37.5741 27.374C37.4204 25.3862 37.1026 23.4146 36.6239 21.4792C36.2213 19.6273 35.4135 17.8876 34.2586 16.3851C33.7029 15.7298 32.9979 15.2176 32.2029 14.8918C31.361 14.5847 30.4702 14.4338 29.5741 14.4464C27.6175 14.3644 25.6586 14.5464 23.7506 14.9877C21.846 15.4758 20.0101 16.201 18.2861 17.1462C16.462 18.2358 14.5309 19.1354 12.5232 19.8309C11.9646 19.9805 11.3922 20.0725 10.8149 20.1054C10.4922 20.1258 10.1683 20.1198 9.84659 20.0873C9.47532 20.0351 9.11815 19.9096 8.79591 19.718C8.21657 19.3714 7.74739 18.8677 7.44281 18.2652C7.13823 17.6627 7.01073 16.9862 7.07511 16.3142C7.09319 16.1305 7.17817 15.9597 7.3139 15.8345C7.44962 15.7093 7.62663 15.6384 7.81126 15.6351C7.99589 15.6319 8.17526 15.6966 8.31529 15.817C8.45531 15.9374 8.54621 16.105 8.5707 16.2881L8.574 16.3142Z" fill="#134A85"/>
<path d="M23.0897 33.3105C21.4005 33.3105 19.5923 35.4437 19.5923 38.6191C19.5923 41.4315 21.0629 43.472 23.0897 43.472C25.1487 43.472 26.5871 41.5281 26.5871 38.746C26.5871 35.5433 24.7438 33.3105 23.0897 33.3105Z" stroke="#134A85" stroke-width="1.99852" stroke-miterlimit="10" stroke-linecap="round"/>
</svg>
