<svg width="51" height="51" viewBox="0 0 51 51" fill="none" xmlns="http://www.w3.org/2000/svg">
<path d="M21.8809 32.7905C18.6081 32.4661 15.4581 32.6606 12.2514 33.3833C11.8881 33.4654 11.6299 33.7881 11.6299 34.1611V38.5176C11.6299 38.5519 11.645 38.5805 11.649 38.614C11.7422 39.485 12.2379 40.2412 13.022 40.6731C13.4332 40.8995 13.8779 41.0126 14.3217 41.0126C14.7728 41.0126 15.2206 40.8891 15.6318 40.6572C15.6493 40.6476 15.6692 40.6468 15.686 40.6357C16.2239 40.2819 17.0765 39.885 18.0933 40.0149C18.6201 40.0811 19.0735 40.2803 19.2488 40.5217C19.3755 40.6971 19.4974 41.0963 19.3556 42.0063C19.1691 43.2096 18.7125 44.2463 18.2296 45.3436C17.9156 46.0568 17.5913 46.7939 17.3499 47.5781C17.2749 47.8195 17.3196 48.0825 17.4694 48.2865C17.6192 48.4905 17.8575 48.6084 18.1109 48.6084H26.0844C26.5251 48.6084 26.8813 48.2522 26.8813 47.8115V45.7476C26.8829 42.596 26.8837 39.3368 26.0015 36.2345C25.47 34.3651 23.8141 32.9817 21.8809 32.7905ZM25.2867 47.0147H19.2456C19.3843 46.6744 19.5341 46.3341 19.6887 45.9843C20.1915 44.8408 20.7111 43.6598 20.931 42.2494C21.0474 41.4987 21.1342 40.4062 20.5397 39.5846C19.9365 38.7519 18.8735 38.5056 18.2934 38.4323C17.1602 38.2881 16.0103 38.5694 14.956 39.2236C14.9393 39.2324 14.921 39.2332 14.905 39.2428C14.5616 39.4587 14.1456 39.4699 13.7918 39.2762C13.4364 39.081 13.2244 38.7224 13.2244 38.3168V34.805C16.0494 34.2304 18.836 34.091 21.7255 34.3762C22.9925 34.5013 24.1209 35.4441 24.4683 36.6696C25.2899 39.5583 25.2883 42.7044 25.2875 45.7476L25.2867 47.0147Z" fill="#134A85"/>
<path d="M28.8942 2.5734C23.9607 1.84904 18.954 3.2874 15.156 6.51554C11.3581 9.74447 9.13486 14.4556 9.05676 19.4401C9.05198 19.719 9.19462 19.9803 9.4313 20.1278C10.0688 20.527 10.4943 21.1828 10.5987 21.9287C10.7039 22.6738 10.4752 23.422 9.97237 23.9814C9.94528 24.0117 9.92058 24.0436 9.89826 24.0779L7.58653 27.6016C7.23511 28.1379 7.20483 28.8217 7.50923 29.3858C7.81444 29.9508 8.40173 30.3007 9.04322 30.3007H10.476L10.5876 31.5597C10.6266 31.9988 11.0083 32.3303 11.4514 32.2833C11.5111 32.2777 11.5693 32.2666 11.6251 32.2482L11.9789 32.1685C15.3194 31.4155 18.6001 31.2139 22.006 31.551C22.3032 31.5796 22.6068 31.6338 22.9065 31.7119C23.1941 31.7876 23.481 31.8856 23.7583 32.0052C24.0292 32.1215 24.2946 32.2586 24.544 32.4132C24.6699 32.4921 24.7935 32.5733 24.913 32.6594C25.0325 32.7455 25.1497 32.8371 25.2628 32.9319C25.376 33.0268 25.4859 33.1256 25.5903 33.226C25.6971 33.3288 25.7991 33.4356 25.8947 33.5415C25.9943 33.6531 26.09 33.7671 26.1824 33.8882C26.2725 34.0045 26.3593 34.1241 26.4398 34.2468C26.5227 34.3719 26.6016 34.501 26.6733 34.6285L26.8805 35.0349C26.9123 35.1042 26.9426 35.1735 26.9721 35.2445C27.0016 35.3146 27.0295 35.3855 27.0558 35.458C27.0821 35.5282 27.1068 35.5983 27.1323 35.6756C27.1562 35.7489 27.1785 35.823 27.1992 35.8939C27.2598 36.1075 27.3164 36.3211 27.3697 36.5346C27.4223 36.7514 27.4725 36.9689 27.5196 37.1873C27.612 37.6231 27.6917 38.063 27.7586 38.5037C27.8232 38.9316 27.8766 39.3611 27.9212 39.7898C27.9658 40.2225 28.0009 40.6568 28.028 41.0911C28.0543 41.5111 28.075 41.9319 28.0885 42.3534C28.1029 42.7765 28.1116 43.2005 28.1172 43.6244C28.1228 44.0324 28.1252 44.4404 28.126 44.8484V47.812C28.126 48.2527 28.4822 48.6089 28.9229 48.6089H36.8972C37.2024 48.6089 37.4797 48.4351 37.6128 48.161C37.7467 47.8869 37.7124 47.561 37.5251 47.3203C35.019 44.1161 34.2922 39.899 35.5815 36.0413C35.7847 35.4341 36.3545 34.9935 37.0135 34.4827C37.4821 34.1193 37.9666 33.744 38.3714 33.2618C40.6122 30.5923 42.0984 27.7865 43.0483 24.4301C44.4053 19.6329 43.6292 14.4819 40.9198 10.2975C38.2104 6.11312 33.826 3.29855 28.8942 2.5734ZM41.5143 23.9958C40.6274 27.1275 39.24 29.7468 37.1498 32.2379C36.855 32.5885 36.4573 32.8969 36.0366 33.2228C35.2819 33.8077 34.4261 34.4707 34.0691 35.5361C32.7773 39.4034 33.2746 43.5886 35.3752 47.0151H29.7189V44.8468C29.7181 44.4324 29.7157 44.0181 29.7102 43.6045C29.7046 43.1702 29.695 42.7343 29.6799 42.3016C29.6655 41.8641 29.6456 41.4266 29.6177 40.9915C29.589 40.5365 29.5524 40.0815 29.5062 39.6273C29.4584 39.1723 29.4018 38.7173 29.3325 38.2646C29.2607 37.7921 29.1771 37.3211 29.0774 36.855C29.0272 36.6199 28.9739 36.3872 28.9165 36.1537C28.8591 35.9194 28.7977 35.6867 28.7308 35.4525C28.7037 35.36 28.6758 35.2676 28.6479 35.1815C28.6177 35.0883 28.585 34.9951 28.5507 34.901C28.5165 34.8102 28.4806 34.7185 28.4431 34.6285C28.4057 34.5392 28.3658 34.4492 28.326 34.3623C28.2862 34.2771 28.2447 34.1918 28.2017 34.1065C28.1587 34.0229 28.1148 33.94 28.0662 33.8539C27.9738 33.6882 27.875 33.5264 27.7706 33.3678C27.667 33.2116 27.557 33.0578 27.4439 32.912C27.3291 32.7646 27.2104 32.6228 27.0837 32.4793C26.961 32.3423 26.8327 32.2092 26.698 32.0785C26.5641 31.9502 26.427 31.8267 26.2844 31.7079C26.1426 31.59 25.9967 31.4753 25.8445 31.3653C25.6947 31.2577 25.5417 31.1557 25.3823 31.0569C25.0644 30.8609 24.7297 30.6871 24.3878 30.5405C24.038 30.3907 23.6746 30.2648 23.3081 30.1692C22.9264 30.0704 22.5399 30.001 22.1622 29.9644C18.7404 29.6257 15.4445 29.8042 12.0952 30.5118L12.0004 29.4329C11.9638 29.0209 11.6195 28.7061 11.2067 28.7061H9.04401C8.98505 28.7061 8.94042 28.6798 8.91253 28.628C8.88464 28.5762 8.88703 28.5244 8.9197 28.4742L11.2004 24.9983C11.9893 24.093 12.3463 22.8969 12.1789 21.7056C12.0299 20.6505 11.4864 19.7046 10.6641 19.0488C10.8481 14.6771 12.8475 10.5708 16.1912 7.72838C19.6401 4.79588 24.1886 3.49458 28.6647 4.14882C33.1431 4.80624 37.1227 7.36261 39.5835 11.1629C42.0418 14.9632 42.7463 19.6401 41.5143 23.9958Z" fill="#134A85"/>
</svg>
