<svg width="51" height="51" viewBox="0 0 51 51" fill="none" xmlns="http://www.w3.org/2000/svg">
<path d="M38.9404 27.995C40.5152 27.4091 41.8511 26.7611 42.8291 26.1143" stroke="#134A85" stroke-width="0.997997" stroke-linecap="round" stroke-linejoin="round"/>
<path d="M12.1386 7.28613C7.71454 11.9671 7.58223 17.5567 8.89817 22.667C10.5743 29.1917 11.8897 37.9269 11.3068 41.5645C10.724 45.2062 13.8644 43.7503 15.9089 40.6943C17.2374 38.7065 18.5659 35.4153 21.3015 33.0604C22.7708 31.7943 24.6496 30.7961 27.1534 30.4167C27.6625 30.3383 28.1511 30.2328 28.635 30.1981C31.2095 30.0136 33.7506 29.5485 36.0227 28.9282" stroke="#134A85" stroke-width="0.997997" stroke-linecap="round" stroke-linejoin="round"/>
<path d="M14.3578 24.6709C13.8637 26.9838 13.8519 29.2437 14.0439 30.718C14.4059 33.4733 15.484 39.1906 11.5001 43.4013C11.2477 43.075 11.1585 42.4811 11.3064 41.5635C11.8901 37.9262 10.5749 29.1912 8.89774 22.666C7.58238 17.5556 7.71498 11.9659 12.1374 7.28613" stroke="#134A85" stroke-width="0.997997" stroke-linecap="round" stroke-linejoin="round"/>
<path d="M29.8571 7.28613C28.3198 9.21801 25.4185 12.5729 21.8735 15.2628" stroke="#134A85" stroke-width="0.997997" stroke-linecap="round" stroke-linejoin="round"/>
<path d="M40.4512 7.28613C36.004 19.6558 39.3982 26.3569 39.3982 33.1294" stroke="#134A85" stroke-width="0.997997" stroke-linecap="round" stroke-linejoin="round"/>
<path d="M36.4335 33.1296C36.4335 27.4354 34.3489 23.2356 31.726 21.2955C30.1763 22.282 27.4384 23.4565 21.9862 25.353C17.258 26.997 14.9308 25.8908 12.8229 22.9009C10.715 19.9137 11.0107 16.4344 13.8043 15.012C16.5953 13.5897 20.4187 15.2338 24.9277 16.5058C28.5573 17.5329 29.7095 17.5403 30.7417 17.8592C30.7493 17.8618 30.7595 17.8643 30.7697 17.8669C31.1571 17.9536 33.5505 18.4302 35.4087 21.5243C35.1487 19.0416 35.8716 12.0415 37.7528 7.28613" stroke="#134A85" stroke-width="0.997997" stroke-linecap="round" stroke-linejoin="round"/>
<path d="M15.1771 16.6087C14.1144 16.8985 13.3557 18.5321 13.6927 20.0497C14.057 21.6903 15.3842 23.2933 17.676 23.8422C19.5143 24.2826 22.5962 23.0497 24.0157 22.5644C25.8306 21.944 28.4607 21.1023 28.4308 19.9895C28.3848 18.2936 24.4544 18.4642 21.5871 17.7892C18.7197 17.1143 17.0325 16.1022 15.1771 16.6087Z" stroke="#134A85" stroke-width="0.997997" stroke-linecap="round" stroke-linejoin="round" stroke-dasharray="14.57 2 2 2"/>
<path d="M32.2197 20.9092C32.2197 20.9092 32.0594 21.0495 31.7266 21.2958" stroke="#134A85" stroke-width="0.997997" stroke-linecap="round" stroke-linejoin="round"/>
<path d="M32.9745 19.6558C33.0162 19.1836 32.8053 18.79 32.6201 18.6172" stroke="#134A85" stroke-width="0.997997" stroke-linecap="round" stroke-linejoin="round"/>
<path d="M22.4972 19.3135H21.2496L20.626 20.3939L21.2496 21.4743H22.4972L23.121 20.3939L22.4972 19.3135Z" stroke="#134A85" stroke-width="0.997997" stroke-linecap="round" stroke-linejoin="round"/>
<path d="M18.2242 18.5498H16.6024L15.7915 19.9543L16.6024 21.3589H18.2242L19.0351 19.9543L18.2242 18.5498Z" stroke="#134A85" stroke-width="0.997997" stroke-linecap="round" stroke-linejoin="round"/>
</svg>
