<svg width="51" height="51" viewBox="0 0 51 51" fill="none" xmlns="http://www.w3.org/2000/svg">
<g clip-path="url(#clip0_3062_12910)">
<path fill-rule="evenodd" clip-rule="evenodd" d="M10.2554 48.28C9.94999 48.28 9.68941 48.0469 9.66072 47.7367C9.58512 46.9116 9.01107 39.622 12.1231 37.7507C13.4009 36.9815 15.0426 37.2439 17.0042 38.528C19.0978 39.8993 21.3916 40.9843 23.821 41.7538C24.5708 41.9911 24.2101 43.1323 23.4604 42.8936C20.9266 42.0909 18.5342 40.9586 16.3491 39.5281C14.8045 38.5163 13.5897 38.2632 12.739 38.7751C10.6394 40.0376 10.6642 45.5932 10.851 47.6273C10.8829 47.9766 10.6059 48.2797 10.2554 48.2797V48.28ZM1.05982 48.28C0.729909 48.28 0.462158 48.0119 0.462158 47.6823V41.5405C0.462158 33.0585 7.81127 30.2985 12.1915 29.4077C20.5788 27.7035 25.9439 18.9047 17.8492 13.1905C13.4663 10.0941 12.6377 7.26265 12.7145 5.43262L12.7174 0.599351C12.7177 -0.188364 13.9128 -0.188065 13.9128 0.600247L13.9095 5.45802C13.8446 7.01581 14.5959 9.42856 18.5389 12.2139C27.3918 18.4643 22.0807 28.6176 12.43 30.5788C8.40683 31.3967 1.65748 33.9084 1.65748 41.5402V47.6817C1.65748 48.0119 1.39032 48.2794 1.05982 48.2794V48.28ZM40.8869 39.9498C40.3358 39.9498 40.0762 39.2586 40.4975 38.8982C45.5543 34.5724 47.8033 28.1565 48.6944 24.7176C51.0916 15.4622 46.8919 3.50965 35.9466 4.72409C32.7814 5.07522 24.7788 13.1648 22.8669 5.60564L22.8487 0.599948C22.8487 -0.186869 24.044 -0.186869 24.044 0.599948V5.38122C24.3467 6.52245 24.8117 7.21214 25.4637 7.48707C27.9288 8.52669 32.9144 3.85808 35.8155 3.53624C47.6563 2.22349 52.4576 14.9497 49.8512 25.0167C48.9257 28.5925 46.5796 35.2683 41.2751 39.8064C41.1627 39.9029 41.0247 39.9501 40.8872 39.9501L40.8869 39.9498Z" fill="#134A85"/>
<path fill-rule="evenodd" clip-rule="evenodd" d="M49.2727 25.3545H20.7754C19.9886 25.3545 19.9886 24.1592 20.7754 24.1592H49.2727C50.0595 24.1592 50.0592 25.3545 49.2727 25.3545Z" fill="#134A85"/>
<path fill-rule="evenodd" clip-rule="evenodd" d="M39.374 36.8772C38.8364 36.8772 38.5692 36.2135 38.9658 35.843C42.3602 32.6697 44.2234 27.7713 44.2416 27.7226C44.5168 26.9848 45.6368 27.4061 45.3607 28.1422C45.2815 28.3534 43.3783 33.3543 39.7816 36.7159C39.6668 36.8238 39.5204 36.8772 39.3737 36.8772H39.374Z" fill="#134A85"/>
<path fill-rule="evenodd" clip-rule="evenodd" d="M27.8904 22.4862C24.4527 22.4862 24.4524 17.2617 27.8904 17.2617C31.3288 17.2617 31.3291 22.4862 27.8904 22.4862ZM27.8904 18.4564C26.0254 18.4564 26.0254 21.2911 27.8904 21.2911C29.7554 21.2911 29.7554 18.4564 27.8904 18.4564Z" fill="#134A85"/>
<path fill-rule="evenodd" clip-rule="evenodd" d="M32.3987 14.0079C28.9601 14.0079 28.9604 8.7832 32.3987 8.7832C35.837 8.7832 35.837 14.0079 32.3987 14.0079ZM32.3987 9.97882C30.5337 9.97882 30.5337 12.8135 32.3987 12.8135C34.2637 12.8135 34.2637 9.97882 32.3987 9.97882Z" fill="#134A85"/>
<path fill-rule="evenodd" clip-rule="evenodd" d="M36.6719 21.0281C33.2332 21.0281 33.2335 15.8037 36.6719 15.8037C40.1105 15.8037 40.1108 21.0281 36.6719 21.0281ZM36.6719 16.999C34.8072 16.999 34.8072 19.8337 36.6719 19.8337C38.5375 19.8337 38.5375 16.999 36.6719 16.999Z" fill="#134A85"/>
<path fill-rule="evenodd" clip-rule="evenodd" d="M41.3115 13.5194C37.8732 13.5194 37.8729 8.29492 41.3115 8.29492C44.7502 8.29492 44.7502 13.5194 41.3115 13.5194ZM41.3115 9.49024C39.4468 9.49024 39.4468 12.3249 41.3115 12.3249C43.1765 12.3249 43.1765 9.49024 41.3115 9.49024Z" fill="#134A85"/>
<path fill-rule="evenodd" clip-rule="evenodd" d="M44.2416 21.3341C40.8032 21.3341 40.8026 16.1094 44.2416 16.1094C47.6805 16.1094 47.6802 21.3341 44.2416 21.3341ZM44.2416 17.3044C42.3766 17.3044 42.3766 20.1391 44.2416 20.1391C46.1072 20.1391 46.1072 17.3044 44.2416 17.3044Z" fill="#134A85"/>
<path fill-rule="evenodd" clip-rule="evenodd" d="M36.127 42.1143C35.5762 42.1143 35.3043 41.3986 35.7594 41.0445C37.0955 40.0046 36.3579 37.8506 34.6654 37.8506C33.352 37.8506 33.1739 39.1971 32.4376 38.6021C31.6012 37.9265 33.2456 36.6553 34.6654 36.6553C37.5007 36.6553 38.7178 40.2651 36.493 41.9885C36.3839 42.0727 36.2546 42.114 36.1267 42.114L36.127 42.1143Z" fill="#134A85"/>
<path fill-rule="evenodd" clip-rule="evenodd" d="M28.727 41.1379C28.0035 41.1379 27.6736 39.7328 27.6736 39.1405C27.6736 35.9592 32.0233 35.0202 33.3564 37.8848C33.6609 38.5395 32.6548 38.7314 32.9198 40.0026C33.0731 40.7365 31.6869 41.3372 31.6869 39.6342C31.6869 39.0957 31.8345 38.5667 32.1091 38.1074C30.7354 36.1833 27.8275 38.2858 29.2105 40.1879C29.5012 40.5874 29.2012 41.1382 28.7273 41.1382L28.727 41.1379Z" fill="#134A85"/>
<path fill-rule="evenodd" clip-rule="evenodd" d="M34.3014 46.0269C32.6584 46.0269 31.3218 44.6903 31.3218 43.0473C31.3218 41.4043 32.6584 40.0674 34.3014 40.0674C35.9444 40.0674 37.2813 41.404 37.2813 43.0473C37.2813 44.6903 35.9447 46.0269 34.3014 46.0269ZM34.3014 41.263C31.9532 41.263 31.9532 44.831 34.3014 44.831C36.6496 44.831 36.6496 41.263 34.3014 41.263Z" fill="#134A85"/>
<path fill-rule="evenodd" clip-rule="evenodd" d="M31.9696 44.1309C30.9377 44.1309 29.449 42.579 30.4196 42.0594C29.4269 41.8081 30.2011 39.9553 31.6636 39.5869C33.1828 39.2041 34.8028 40.5736 33.964 41.2403C33.2307 41.8233 33.0493 40.4705 31.9568 40.746C30.9951 40.9887 31.3579 41.7322 30.8487 42.0062C31.3764 42.1416 31.2228 42.8053 32.0655 42.9427C32.7857 43.0605 32.6946 44.1309 31.9696 44.1309Z" fill="#134A85"/>
<path fill-rule="evenodd" clip-rule="evenodd" d="M29.0226 44.545C25.9772 44.545 25.9772 39.917 29.0226 39.917C32.0688 39.917 32.0688 44.545 29.0226 44.545ZM29.0226 41.1123C27.5505 41.1123 27.5505 43.3493 29.0226 43.3493C30.4952 43.3493 30.4952 41.1123 29.0226 41.1123Z" fill="#134A85"/>
<path fill-rule="evenodd" clip-rule="evenodd" d="M31.511 46.9493C28.5915 46.9493 28.3724 42.8759 29.7721 43.2689C30.4078 43.4473 30.1349 44.0874 30.1349 44.3779C30.1349 45.849 32.1463 46.2787 32.7592 44.9567C33.0904 44.2428 34.1736 44.7472 33.8428 45.4602C33.4232 46.3651 32.5076 46.9493 31.5107 46.9493H31.511Z" fill="#134A85"/>
<path fill-rule="evenodd" clip-rule="evenodd" d="M28.9686 38.0548C28.5783 38.0548 27.6869 37.1418 27.2043 36.7268C26.9536 36.5113 26.9255 36.1342 27.1407 35.8838C27.6869 35.2491 28.4755 36.2445 29.3586 37.0038C29.7802 37.3663 29.5184 38.0545 28.9686 38.0545V38.0548Z" fill="#134A85"/>
<path fill-rule="evenodd" clip-rule="evenodd" d="M35.7884 38.1316C35.342 38.1316 35.0473 37.652 35.2616 37.2519C35.7795 36.2851 36.1467 35.1143 36.8747 35.5064C37.605 35.8994 36.8352 36.8428 36.3153 37.8157C36.2077 38.0175 36.0015 38.1316 35.7881 38.1316H35.7884Z" fill="#134A85"/>
<path fill-rule="evenodd" clip-rule="evenodd" d="M37.2543 46.4891C36.8404 46.4891 36.0924 45.6019 35.6026 45.13C35.0358 44.5838 35.8656 43.7234 36.4319 44.2691C37.2271 45.0362 38.261 45.7101 37.6849 46.3059C37.5674 46.4273 37.4112 46.4891 37.2546 46.4891H37.2543Z" fill="#134A85"/>
<path fill-rule="evenodd" clip-rule="evenodd" d="M30.5917 48.7792C29.5499 48.7792 30.2053 47.2306 30.4656 46.1561C30.6505 45.3923 31.8115 45.6714 31.6271 46.4361L31.172 48.3214C31.1059 48.5954 30.8615 48.7792 30.5917 48.7792Z" fill="#134A85"/>
<path fill-rule="evenodd" clip-rule="evenodd" d="M25.9112 44.7346C25.3126 44.7346 25.0843 43.9421 25.5983 43.6274C26.6502 42.9832 27.6247 42.0927 28.0672 42.8149C28.5101 43.5378 27.2747 44.0004 26.2228 44.6465C26.1254 44.7065 26.0173 44.7346 25.9112 44.7346Z" fill="#134A85"/>
<path fill-rule="evenodd" clip-rule="evenodd" d="M32.3969 50.9985C27.2238 50.9985 23.0151 46.7895 23.0151 41.6164C23.0151 36.4434 27.2241 32.2344 32.3969 32.2344C37.5705 32.2344 41.7795 36.4434 41.7795 41.6164C41.7795 46.7895 37.5699 50.9985 32.3969 50.9985ZM32.3969 33.4294C27.8828 33.4294 24.2102 37.1017 24.2102 41.6161C24.2102 46.1305 27.8831 49.8028 32.3969 49.8028C36.9113 49.8028 40.5842 46.1305 40.5842 41.6161C40.5842 37.1017 36.911 33.4294 32.3969 33.4294Z" fill="#134A85"/>
</g>
<defs>
<clipPath id="clip0_3062_12910">
<rect width="51" height="51" fill="white"/>
</clipPath>
</defs>
</svg>
