<svg width="51" height="51" viewBox="0 0 51 51" fill="none" xmlns="http://www.w3.org/2000/svg">
<g clip-path="url(#clip0_3059_12642)">
<path d="M7.46556 11.3863C7.57854 11.3863 7.69331 11.3605 7.80101 11.3061C8.68152 10.8622 9.62902 10.6371 10.6175 10.6371H21.5562C22.2636 10.6371 22.8392 10.0616 22.8392 9.35409V0.746535C22.8392 0.334149 22.5051 0 22.0927 0C21.6803 0 21.3461 0.334149 21.3461 0.746535V9.14406H10.6175C9.39352 9.14406 8.21976 9.42297 7.12893 9.97281C6.76074 10.1585 6.61272 10.6074 6.79836 10.9755C6.92965 11.236 7.19263 11.3863 7.46556 11.3863Z" fill="#134A85"/>
<path d="M16.3024 34.9257H23.5928C24.0052 34.9257 24.3393 34.5915 24.3393 34.1792C24.3393 33.7668 24.0052 33.4326 23.5928 33.4326H16.3024C15.0546 33.4326 14.0396 34.4477 14.0396 35.6955C14.0396 36.9433 15.0546 37.9584 16.3024 37.9584H19.1664C21.1915 37.9584 22.8389 39.606 22.8389 41.631V50.2538C22.8389 50.6662 23.1731 51.0004 23.5854 51.0004C23.9978 51.0004 24.332 50.6662 24.332 50.2538V41.631C24.332 38.7826 22.0147 36.4653 19.1664 36.4653H16.3024C15.8779 36.4653 15.5326 36.1199 15.5326 35.6955C15.5326 35.2711 15.878 34.9257 16.3024 34.9257Z" fill="#134A85"/>
<path d="M14.2192 16.5267C14.2192 16.9391 14.5534 17.2732 14.9658 17.2732H29.5905C32.6881 17.2732 35.5521 19.0809 36.8867 21.8787C37.0148 22.147 37.2823 22.3039 37.561 22.3039C37.6688 22.3039 37.7783 22.2805 37.882 22.231C38.2541 22.0534 38.4119 21.6078 38.2344 21.2357C36.6532 17.9216 33.2603 15.7802 29.5905 15.7802H28.3645C29.5737 14.7019 30.337 13.1335 30.337 11.3897V0.746535C30.337 0.334149 30.0029 0 29.5905 0C29.1781 0 28.844 0.334149 28.844 0.746535V11.3897C28.844 13.8106 26.8744 15.7802 24.4535 15.7802H14.9659C14.5534 15.7802 14.2192 16.1144 14.2192 16.5267Z" fill="#134A85"/>
<path d="M18.8672 39.6926H11.8626C10.5257 39.6926 9.21151 39.3354 8.06204 38.6596C7.70699 38.4509 7.24912 38.5695 7.04009 38.9249C6.83116 39.2802 6.9499 39.7378 7.30535 39.9468C8.68396 40.7574 10.2598 41.1857 11.8625 41.1857H18.8671C19.1678 41.1857 19.4126 41.4303 19.4126 41.731V50.2536C19.4126 50.666 19.7467 51.0001 20.1591 51.0001C20.5715 51.0001 20.9056 50.666 20.9056 50.2536V41.731C20.9057 40.6071 19.9913 39.6926 18.8672 39.6926Z" fill="#134A85"/>
<path d="M11.8626 24.6665H26.3284C26.7408 24.6665 27.0749 24.3323 27.0749 23.9199C27.0749 23.5075 26.7408 23.1734 26.3284 23.1734H10.6175C7.16137 23.1734 4.34952 20.3615 4.34952 16.9053C4.34952 15.5307 4.78669 14.2256 5.61355 13.1312C5.8621 12.8022 5.7969 12.334 5.46793 12.0854C5.13875 11.8369 4.67073 11.9023 4.42218 12.2311C3.39783 13.5869 2.85645 15.2032 2.85645 16.9054C2.85645 20.1947 4.91429 23.0105 7.80946 24.1385C4.87388 25.6243 2.85645 28.6706 2.85645 32.1795C2.85645 34.1744 3.49697 36.0656 4.70855 37.6483C4.85557 37.8404 5.07734 37.9411 5.3019 37.941C5.46016 37.941 5.61972 37.8909 5.75509 37.7873C6.08247 37.5366 6.14478 37.0681 5.89405 36.7407C4.88364 35.4206 4.34942 33.8434 4.34942 32.1794C4.34952 28.0368 7.71997 24.6665 11.8626 24.6665Z" fill="#134A85"/>
<path d="M36.9761 23.7832C30.8189 23.7832 25.8096 28.7926 25.8096 34.9499C25.8096 41.1072 30.8188 46.1166 36.9761 46.1166C39.0846 46.1166 41.1384 45.5252 42.9162 44.4064C43.2652 44.1868 43.37 43.7258 43.1504 43.3769C42.9307 43.0279 42.4699 42.9232 42.1209 43.1427C40.5817 44.1114 38.8028 44.6234 36.9761 44.6234C31.6422 44.6234 27.3026 40.2838 27.3026 34.9498C27.3026 29.6157 31.6422 25.2762 36.9761 25.2762C42.3102 25.2762 46.6498 29.6157 46.6498 34.9498C46.6498 37.2371 45.8362 39.4568 44.3588 41.1999C44.0922 41.5144 44.1311 41.9855 44.4456 42.2521C44.7602 42.5187 45.2313 42.4797 45.4978 42.1653C47.2035 40.1527 48.1428 37.5902 48.1428 34.9498C48.1429 28.7926 43.1336 23.7832 36.9761 23.7832Z" fill="#134A85"/>
<path d="M40.4782 30.1468C40.4782 28.691 39.294 27.5068 37.8383 27.5068C36.3825 27.5068 35.1982 28.691 35.1982 30.1468C35.1982 31.6025 36.3825 32.7868 37.8383 32.7868C39.294 32.7868 40.4782 31.6025 40.4782 30.1468ZM37.8383 31.2939C37.2058 31.2939 36.6913 30.7793 36.6913 30.1469C36.6913 29.5144 37.2058 29 37.8383 29C38.4708 29 38.9852 29.5145 38.9852 30.1469C38.9852 30.7793 38.4707 31.2939 37.8383 31.2939Z" fill="#134A85"/>
<path d="M33.946 40.1265C35.9089 40.1265 37.5059 38.5296 37.5059 36.5667C37.5059 34.6038 35.9089 33.0068 33.946 33.0068C31.9831 33.0068 30.3862 34.6038 30.3862 36.5667C30.3862 38.5296 31.9831 40.1265 33.946 40.1265ZM33.946 34.5C35.0856 34.5 36.0128 35.4271 36.0128 36.5668C36.0128 37.7063 35.0857 38.6335 33.946 38.6335C32.8065 38.6335 31.8793 37.7064 31.8793 36.5668C31.8793 35.4271 32.8065 34.5 33.946 34.5Z" fill="#134A85"/>
<path d="M40.5498 34.3782C40.6334 34.7189 40.9384 34.947 41.2743 34.947C41.3332 34.947 41.3929 34.9401 41.4527 34.9253C41.8531 34.8271 42.098 34.4229 41.9999 34.0224L41.7593 33.0416C41.6612 32.6412 41.2569 32.3959 40.8564 32.4944C40.4561 32.5927 40.2111 32.9969 40.3092 33.3973L40.5498 34.3782Z" fill="#134A85"/>
<path d="M41.1383 38.4804C41.1643 38.4804 41.1906 38.479 41.2172 38.4762L42.4475 38.3468C42.8575 38.3036 43.1549 37.9363 43.1119 37.5263C43.0687 37.1162 42.7022 36.8171 42.2914 36.8619L41.0611 36.9913C40.6511 37.0345 40.3537 37.4018 40.3967 37.8118C40.437 38.1954 40.761 38.4804 41.1383 38.4804Z" fill="#134A85"/>
<path d="M37.8386 41.9689C38.0121 41.9689 38.1865 41.9088 38.3278 41.786L39.1682 41.0563C39.4795 40.786 39.5128 40.3146 39.2424 40.0032C38.972 39.6919 38.5005 39.6586 38.1893 39.929L37.3489 40.6587C37.0376 40.929 37.0043 41.4004 37.2747 41.7118C37.4223 41.8818 37.6298 41.9689 37.8386 41.9689Z" fill="#134A85"/>
<path d="M31.9625 30.8631C32.0325 30.8836 32.103 30.8933 32.1723 30.8933C32.4954 30.8933 32.7932 30.6819 32.8885 30.3562L33.1214 29.5599C33.2372 29.1641 33.0102 28.7496 32.6144 28.6338C32.2182 28.5178 31.804 28.7451 31.6883 29.1407L31.4554 29.9371C31.3399 30.3327 31.5668 30.7473 31.9625 30.8631Z" fill="#134A85"/>
</g>
<defs>
<clipPath id="clip0_3059_12642">
<rect width="51" height="51" fill="white"/>
</clipPath>
</defs>
</svg>
