<svg width="51" height="51" viewBox="0 0 51 51" fill="none" xmlns="http://www.w3.org/2000/svg">
<g clip-path="url(#clip0_3065_7592)">
<path d="M20.6627 43.257C20.223 43.2478 19.858 43.5955 19.8479 44.0356C19.7727 47.3372 19.5678 50.1165 19.5657 50.1442C19.533 50.5831 19.8623 50.9654 20.3012 50.9981C20.3213 50.9996 20.3414 51.0003 20.3612 51.0003C20.7744 51.0003 21.1239 50.6812 21.1551 50.2624C21.1572 50.2344 21.365 47.4164 21.4413 44.0718C21.4513 43.6318 21.1028 43.267 20.6627 43.257Z" fill="#134A85"/>
<path d="M50.3394 23.0159C50.1709 22.3253 50.0491 21.8264 50.0491 21.1341V14.115C50.0491 12.5228 48.7537 11.2274 47.1614 11.2274C46.6966 11.2274 46.2569 11.3377 45.8675 11.5339V10.3216C45.8675 8.72937 44.5721 7.43395 42.9798 7.43395C42.5148 7.43395 42.0749 7.54451 41.6853 7.74074C41.6545 6.17498 40.3713 4.91074 38.7982 4.91074H38.7205C38.2397 4.91074 37.786 5.02649 37.3854 5.23009C37.3342 3.28781 35.7394 1.72324 33.785 1.72324C32.6656 1.72324 31.6638 2.23653 31.0025 3.03998C29.9755 1.22699 28.0297 0 25.8014 0C22.507 0 19.8268 2.68019 19.8268 5.97447V9.79917L19.8018 12.1589C19.8018 12.7185 19.2868 13.1964 18.3765 13.9929C16.9692 15.2242 15.042 16.9106 14.4067 20.4636C13.6627 24.6241 15.5105 27.6716 17.4666 30.8978C17.9707 31.7292 18.4919 32.5888 18.9865 33.4929C19.2941 34.0551 19.8181 35.7571 19.8713 40.839C19.8758 41.2763 20.2317 41.6277 20.6679 41.6277H20.6764C21.1165 41.6231 21.4695 41.2626 21.4649 40.8225C21.421 36.624 21.0676 33.9763 20.3846 32.728C19.8729 31.7927 19.3424 30.9178 18.8293 30.0716C16.9556 26.9813 15.3373 24.3124 15.9754 20.7442C16.5123 17.7416 18.1278 16.3282 19.4259 15.1923C20.4387 14.3061 21.3955 13.469 21.3954 12.1674L21.4204 9.80764V5.97447C21.4204 3.55894 23.3856 1.59375 25.8012 1.59375C28.2168 1.59375 30.1819 3.55894 30.1819 5.97447V11.7978C30.1819 12.2379 30.5387 12.5947 30.9788 12.5947C31.4189 12.5947 31.7757 12.2379 31.7757 11.7978V5.32601C31.7757 4.21826 32.6769 3.31699 33.7847 3.31699C34.8924 3.31699 35.7937 4.21826 35.7937 5.32601V14.9854C35.7937 15.4255 36.1505 15.7823 36.5906 15.7823C37.0307 15.7823 37.3875 15.4255 37.3875 14.9854V7.79842C37.3875 7.09707 37.9978 6.50449 38.7201 6.50449H38.7978C39.5113 6.50449 40.0918 7.08492 40.0918 7.79842V16.4632C40.0918 16.9033 40.4486 17.2601 40.8886 17.2601C41.3287 17.2601 41.6855 16.9033 41.6855 16.4632V10.3217C41.6855 9.60822 42.266 9.0278 42.9794 9.0278C43.6928 9.0278 44.2734 9.60832 44.2734 10.3217V18.9061C44.2734 19.3461 44.6302 19.7029 45.0702 19.7029C45.5103 19.7029 45.8671 19.3461 45.8671 18.9061V14.1151C45.8671 13.4016 46.4476 12.8212 47.161 12.8212C47.8744 12.8212 48.455 13.4016 48.455 14.1151V21.1342C48.455 22.0181 48.6105 22.6556 48.7906 23.3939C49.0648 24.5175 49.4059 25.9159 49.4059 29.0748C49.4059 35.8616 46.0988 49.8785 46.0654 50.0192C45.9638 50.4475 46.2286 50.877 46.6568 50.9786C46.7187 50.9932 46.7805 51.0003 46.8415 51.0003C47.2023 51.0003 47.5292 50.7536 47.6161 50.3872C47.7543 49.805 50.9997 36.048 50.9997 29.0748C50.9997 25.7243 50.6178 24.1591 50.339 23.0161L50.3394 23.0159Z" fill="#134A85"/>
<path d="M7.07434 23.951C7.32725 23.951 7.56751 23.8305 7.71842 23.6231C7.88706 23.3915 7.91833 23.0872 7.8005 22.8261L7.00014 21.0539L11.3652 21.5447C11.8028 21.5938 12.197 21.2793 12.2462 20.8419C12.2954 20.4045 11.9807 20.0102 11.5433 19.9609L5.7866 19.3136C5.50201 19.2816 5.22191 19.4048 5.05337 19.6364C4.88473 19.868 4.85345 20.1723 4.97129 20.4334L5.77155 22.2056L0.886013 21.6562C0.449027 21.607 0.054275 21.9217 0.00506792 22.359C-0.0441391 22.7964 0.270527 23.1908 0.707912 23.24L6.98519 23.9459C7.01498 23.9493 7.04476 23.9509 7.07445 23.9509L7.07434 23.951Z" fill="#134A85"/>
<path d="M11.7616 24.9433L6.5776 27.5287C6.3212 27.6566 6.15326 27.9122 6.13762 28.1983C6.12189 28.4844 6.26104 28.7568 6.5019 28.9119L8.13688 29.9646L3.73734 32.1586C3.34348 32.3551 3.18341 32.8336 3.37984 33.2274C3.51929 33.5071 3.80099 33.6688 4.09364 33.6688C4.21307 33.6688 4.3344 33.6418 4.44865 33.5849L10.1015 30.7657C10.3579 30.6378 10.5258 30.3822 10.5415 30.0961C10.5572 29.8101 10.418 29.5376 10.1772 29.3825L8.54219 28.3299L12.473 26.3695C12.8668 26.1731 13.0269 25.6946 12.8305 25.3008C12.634 24.9071 12.1556 24.7468 11.7618 24.9433H11.7616Z" fill="#134A85"/>
<path d="M5.79966 15.1524C5.97796 15.3767 6.26324 15.488 6.54594 15.4438C6.82903 15.3998 7.06669 15.2072 7.16839 14.9393L7.85869 13.1214L10.5923 16.5596C10.7497 16.7576 10.9819 16.8607 11.2166 16.8607C11.3904 16.8607 11.5654 16.8041 11.712 16.6875C12.0564 16.4136 12.1137 15.9123 11.8399 15.5678L8.23461 11.0334C8.05631 10.8092 7.77163 10.698 7.48834 10.742C7.20525 10.786 6.96758 10.9786 6.86588 11.2465L6.17559 13.0644L3.11599 9.21605C2.84206 8.8716 2.34063 8.81422 1.99628 9.08825C1.65183 9.36217 1.59455 9.86341 1.86848 10.2079L5.79966 15.1523V15.1524Z" fill="#134A85"/>
<path d="M21.6176 28.6727C21.3866 28.6812 21.1497 28.6754 20.9197 28.6554C20.4826 28.6172 20.0949 28.9418 20.0567 29.3802C20.0187 29.8186 20.3432 30.205 20.7817 30.2432C20.9888 30.2611 21.2 30.2703 21.4095 30.2703C21.4987 30.2703 21.5874 30.2686 21.6757 30.2654C22.1156 30.2493 22.459 29.8798 22.443 29.44C22.4269 29.0001 22.0569 28.6554 21.6176 28.6727Z" fill="#134A85"/>
<path d="M27.7536 24.1209C27.3308 23.9977 26.8886 24.2404 26.7655 24.6628C26.7006 24.885 26.621 25.1053 26.529 25.3174C26.3538 25.7212 26.5389 26.1905 26.9427 26.3656C27.0461 26.4106 27.1536 26.4318 27.2595 26.4318C27.5673 26.4318 27.8606 26.2524 27.9908 25.952C28.1095 25.6787 28.2119 25.3951 28.2954 25.1091C28.4186 24.6865 28.176 24.2442 27.7535 24.1209H27.7536Z" fill="#134A85"/>
<path d="M28.1702 20.7017C28.0232 20.2868 27.5676 20.0699 27.1528 20.2169C26.7381 20.364 26.521 20.8194 26.6681 21.2343C26.7454 21.4522 26.8097 21.6776 26.8591 21.904C26.9404 22.2767 27.2704 22.5311 27.6369 22.5311C27.6932 22.5311 27.7503 22.5251 27.8076 22.5127C28.2376 22.4188 28.5101 21.9942 28.4163 21.5643C28.3526 21.2727 28.2699 20.9826 28.1703 20.7017H28.1702Z" fill="#134A85"/>
<path d="M22.1636 15.9664C21.9146 15.9403 21.6613 15.9272 21.4104 15.9272C21.3616 15.926 21.3168 15.9276 21.2701 15.9285C20.8301 15.9367 20.4801 16.3002 20.4884 16.7403C20.4968 17.1804 20.8561 17.5285 21.3002 17.5219C21.3367 17.5212 21.3717 17.5231 21.4102 17.5209C21.606 17.5209 21.8036 17.5313 21.9975 17.5515C22.0257 17.5545 22.0537 17.5559 22.0815 17.5559C22.4843 17.5559 22.8302 17.2514 22.8731 16.842C22.9189 16.4042 22.6013 16.0123 22.1636 15.9664Z" fill="#134A85"/>
<path d="M26.1937 17.7554C25.9718 17.5567 25.7355 17.37 25.4911 17.2005C25.1294 16.9499 24.6329 17.0399 24.3823 17.4016C24.1315 17.7632 24.2215 18.2598 24.5832 18.5105C24.7734 18.6423 24.9574 18.7876 25.13 18.9423C25.2821 19.0787 25.4722 19.1457 25.6615 19.1457C25.8801 19.1457 26.0978 19.0563 26.2552 18.8807C26.549 18.5528 26.5213 18.0491 26.1936 17.7554H26.1937Z" fill="#134A85"/>
<path d="M24.8379 27.4987C24.655 27.6415 24.4615 27.7739 24.2627 27.8925C23.8848 28.118 23.7612 28.6072 23.9866 28.9851C24.1358 29.2351 24.4003 29.3739 24.6717 29.3739C24.8106 29.3739 24.9513 29.3375 25.0792 29.2612C25.3347 29.1088 25.5835 28.9386 25.8183 28.7552C26.1653 28.4844 26.227 27.9836 25.9563 27.6367C25.6856 27.2897 25.1848 27.2281 24.8378 27.4987H24.8379Z" fill="#134A85"/>
</g>
<defs>
<clipPath id="clip0_3065_7592">
<rect width="51" height="51" fill="white"/>
</clipPath>
</defs>
</svg>
