<svg width="51" height="51" viewBox="0 0 51 51" fill="none" xmlns="http://www.w3.org/2000/svg">
<path fill-rule="evenodd" clip-rule="evenodd" d="M41.3249 31.8836C40.3229 31.8836 39.3497 32.0619 38.4283 32.4135L32.0792 29.48C31.883 28.4411 31.7037 27.448 31.7106 26.3184C31.7286 23.2464 32.7018 21.7095 33.6441 20.2223C33.8214 19.9424 33.9997 19.6595 34.173 19.3667C35.0655 20.0659 36.218 20.4873 37.4611 20.561C37.8944 21.1038 38.505 21.4903 39.2222 21.6686C39.526 21.7443 39.8408 21.7812 40.1595 21.7812C41.0231 21.7812 41.9216 21.5093 42.7274 20.9913C44.0791 20.1217 44.9039 18.7232 45.0075 17.3675C46.1211 15.7628 46.7347 13.7965 46.7347 11.8073C46.7347 9.54816 45.9279 7.28703 44.5204 5.60562C42.9914 3.77779 40.8926 2.77074 38.6106 2.77074C36.5487 2.77074 34.6332 3.61742 33.1729 5.09164C31.0323 3.6234 27.7014 2.75879 24.1144 2.75879C20.5285 2.75879 17.1966 3.62439 15.056 5.09164C13.5957 3.61742 11.6802 2.77074 9.61828 2.77074C7.33623 2.77074 5.23746 3.77779 3.70846 5.60562C2.30197 7.28803 1.49414 9.54816 1.49414 11.8073C1.49414 13.7965 2.10773 15.7628 3.22137 17.3675C3.32496 18.7232 4.14973 20.1217 5.50143 20.9913C6.30727 21.5093 7.20574 21.7812 8.06936 21.7812C8.3891 21.7812 8.70387 21.7443 9.00668 21.6686C9.72486 21.4903 10.3345 21.1029 10.7688 20.561C12.0129 20.4883 13.1644 20.0659 14.0569 19.3667C14.2292 19.6595 14.4085 19.9424 14.5858 20.2223C15.5281 21.7085 16.5013 23.2454 16.5192 26.3184C16.5262 27.5018 16.33 28.5347 16.1218 29.6294C15.9236 30.6753 15.7184 31.7561 15.6954 32.9942C15.6417 35.9446 16.3021 37.6788 16.9416 39.3553C17.5781 41.0247 18.2365 42.752 18.2365 45.8428C18.2365 46.3598 18.2225 46.8768 18.1946 47.3788C18.1857 47.5432 18.2445 47.7035 18.357 47.8221C18.4696 47.9416 18.627 48.0093 18.7913 48.0093H29.4326C29.5969 48.0093 29.7533 47.9416 29.8669 47.8221C29.9794 47.7025 30.0382 47.5422 30.0292 47.3788C30.0013 46.8768 29.9874 46.3598 29.9874 45.8428C29.9874 42.752 30.6458 41.0257 31.2823 39.3553C31.7266 38.1908 32.1808 36.9975 32.3989 35.3888L33.5016 37.6559C33.2626 38.4329 33.141 39.2417 33.141 40.0635C33.141 44.5728 36.8097 48.2424 41.32 48.2424C45.8293 48.2424 49.4979 44.5738 49.4979 40.0635C49.4979 35.5532 45.8343 31.8836 41.3249 31.8836ZM42.0959 13.8473C41.0948 13.7298 40.0141 13.9967 39.0618 14.6093C38.3486 15.0675 37.7828 15.6741 37.3914 16.3435C36.4501 16.0596 35.6811 15.4171 35.2767 14.5675C35.2219 14.2637 35.1422 13.9579 35.0366 13.6481C34.8374 13.0654 34.7368 12.4458 34.7368 11.8083C34.7368 9.50633 36.218 7.02107 38.6116 7.02107C41.0052 7.02107 42.4864 9.50633 42.4864 11.8083C42.4864 12.4866 42.3479 13.1949 42.0959 13.8473ZM35.1681 17.0617C35.2159 16.8764 35.2537 16.6941 35.2846 16.5129C35.7528 16.9242 36.3096 17.242 36.9222 17.4452C36.7509 18.0608 36.721 18.6903 36.8525 19.279C36.0417 19.1206 35.3016 18.773 34.7398 18.2809C34.9071 17.9044 35.0545 17.502 35.1681 17.0617ZM42.082 19.9862C41.2542 20.5191 40.3169 20.7094 39.5111 20.5092C38.9363 20.3657 38.4911 20.038 38.2231 19.5609C37.5428 18.3487 38.2092 16.5786 39.7083 15.6144C40.536 15.0815 41.4734 14.8912 42.2792 15.0914C42.8539 15.2349 43.2992 15.5626 43.5672 16.0397C44.2475 17.251 43.5811 19.022 42.082 19.9862ZM24.1164 3.9541C27.4115 3.9541 30.4446 4.71312 32.39 6.00406C32.0902 6.40549 31.8192 6.83879 31.5802 7.30197C29.5163 6.36664 26.8935 5.85564 24.1164 5.85564C21.3393 5.85564 18.7166 6.36664 16.6527 7.30197C16.4146 6.83879 16.1427 6.40549 15.8429 6.00406C17.7882 4.71312 20.8204 3.9541 24.1164 3.9541ZM9.62027 3.96605C12.3087 3.96605 14.6276 5.60164 15.8229 8.3409C15.8887 8.4923 16.0152 8.60984 16.1706 8.66563C16.326 8.72041 16.4983 8.70945 16.6447 8.63275C18.617 7.61275 21.2696 7.05096 24.1154 7.05096C26.9613 7.05096 29.6149 7.61275 31.5861 8.63275C31.7326 8.70846 31.9049 8.72041 32.0603 8.66563C32.2157 8.60984 32.3422 8.4933 32.4079 8.3409C33.6032 5.60164 35.9211 3.96605 38.6106 3.96605C42.8898 3.96605 45.5384 8.03609 45.5384 11.8073C45.5384 13.1182 45.2356 14.4171 44.6728 15.5775C44.6519 15.5357 44.631 15.4948 44.6081 15.454C44.2963 14.8992 43.8251 14.4609 43.2474 14.179C43.5303 13.417 43.6797 12.6092 43.6797 11.8073C43.6797 8.92959 41.7413 5.82477 38.6096 5.82477C35.8873 5.82477 34.0674 8.17156 33.6381 10.6747C28.6447 11.8222 25.0647 16.0118 25.0647 20.7871V28.2946C25.0647 29.8745 26.1903 31.2421 27.7422 31.5469C28.061 31.6096 28.2881 31.8477 28.3359 32.1685C28.3777 32.4523 28.3996 32.7462 28.3996 33.044C28.3996 34.2314 28.04 35.1986 27.5848 36.4228C26.8447 38.415 25.8307 41.1433 25.7869 46.5052C25.7859 46.6098 25.7869 46.7114 25.7879 46.813H22.442C22.443 46.7124 22.444 46.6098 22.443 46.5052C22.3992 41.1433 21.3851 38.415 20.645 36.4228C20.1898 35.1986 19.8302 34.2314 19.8302 33.044C19.8302 32.7462 19.8512 32.4513 19.894 32.1685C19.9418 31.8477 20.1689 31.6087 20.4877 31.5459C22.0386 31.2411 23.1652 29.8735 23.1652 28.2936V20.7861C23.1652 16.0108 19.5842 11.8213 14.5918 10.6738C14.1625 8.17057 12.3426 5.82377 9.62027 5.82377C6.48855 5.82377 4.55016 8.92959 4.55016 11.8063C4.55016 12.6082 4.69957 13.417 4.98246 14.178C4.40473 14.4599 3.93457 14.8972 3.6218 15.453C3.59889 15.4938 3.57797 15.5357 3.55705 15.5765C2.99426 14.4161 2.69145 13.1172 2.69145 11.8063C2.69244 8.03609 5.34105 3.96605 9.62027 3.96605ZM10.8405 16.3435C10.449 15.6741 9.88324 15.0675 9.17004 14.6093C8.21777 13.9967 7.13701 13.7308 6.13594 13.8473C5.88393 13.1959 5.74547 12.4866 5.74547 11.8073C5.74547 9.50533 7.22666 7.02008 9.62027 7.02008C12.0139 7.02008 13.4951 9.50533 13.4951 11.8073C13.4951 12.4448 13.3945 13.0644 13.1953 13.6471C13.0897 13.9579 13.01 14.2627 12.9552 14.5665C12.5508 15.4171 11.7818 16.0586 10.8405 16.3435ZM10.0087 19.5609C9.7408 20.038 9.29555 20.3657 8.7208 20.5092C7.91496 20.7094 6.97764 20.5191 6.14988 19.9862C4.65076 19.022 3.98438 17.252 4.66471 16.0397C4.93266 15.5626 5.37791 15.2349 5.95266 15.0914C6.16283 15.0396 6.38098 15.0137 6.6051 15.0137C7.23961 15.0137 7.91098 15.2209 8.52357 15.6144C10.0227 16.5786 10.6891 18.3487 10.0087 19.5609ZM11.3804 19.28C11.5119 18.6903 11.482 18.0618 11.3106 17.4462C11.9232 17.243 12.4791 16.9252 12.9482 16.5138C12.9791 16.6951 13.017 16.8774 13.0648 17.0617C13.1783 17.502 13.3257 17.9044 13.4941 18.2819C12.9313 18.774 12.1912 19.1216 11.3804 19.28ZM18.0622 38.9279C17.4356 37.2854 16.8439 35.7345 16.8938 33.0151C16.9147 31.8786 17.1009 30.8945 17.2992 29.8515C17.5083 28.7499 17.7245 27.6103 17.7175 26.3114C17.6976 22.8958 16.583 21.1357 15.5988 19.5828C15.035 18.6933 14.5031 17.8526 14.2222 16.7649C13.9802 15.8226 14.013 14.955 14.3268 14.0336C14.5549 13.3642 14.6754 12.657 14.6874 11.9308C18.9497 13.0684 21.9698 16.6862 21.9698 20.7881V28.2956C21.9698 29.3057 21.2497 30.1793 20.2576 30.3745C19.4408 30.5349 18.8341 31.1704 18.7116 31.9931C18.6608 32.3338 18.6349 32.6874 18.6349 33.044C18.6349 34.4465 19.0473 35.5552 19.5244 36.8401C20.2735 38.8552 21.2058 41.3644 21.2477 46.5162C21.2487 46.6168 21.2477 46.7154 21.2467 46.814H19.4188C19.4298 46.4923 19.4348 46.1676 19.4348 45.8428C19.4358 42.5298 18.7375 40.699 18.0622 38.9279ZM30.1707 38.9279C29.4953 40.699 28.7971 42.5298 28.7971 45.8408C28.7971 46.1656 28.8021 46.4903 28.813 46.812H26.9842C26.9832 46.7144 26.9822 46.6148 26.9832 46.5142C27.025 41.3624 27.9574 38.8542 28.7064 36.8391C29.1836 35.5552 29.5959 34.4455 29.5959 33.043C29.5959 32.6874 29.57 32.3338 29.5192 31.9921C29.3967 31.1694 28.7901 30.5339 27.9733 30.3735C26.9812 30.1783 26.261 29.3047 26.261 28.2946V20.7871C26.261 16.6852 29.2812 13.0674 33.5435 11.9298C33.5554 12.656 33.6759 13.3632 33.904 14.0326C34.2178 14.954 34.2517 15.8216 34.0086 16.7639C33.7287 17.8516 33.1958 18.6923 32.632 19.5818C31.6479 21.1347 30.5323 22.8948 30.5133 26.3104C30.5084 27.2278 30.6149 28.0645 30.7514 28.8664L30.3111 28.6632C30.082 28.5576 29.8101 28.6074 29.6338 28.7877C29.4565 28.968 29.4127 29.2399 29.5232 29.467L31.3381 33.2004C31.361 35.8052 30.7823 37.3232 30.1707 38.9279ZM41.3249 47.0451C37.474 47.0451 34.3413 43.9124 34.3413 40.0615C34.3413 39.2875 34.4668 38.5275 34.7149 37.8024C34.7657 37.653 34.7557 37.4896 34.687 37.3481L31.3331 30.4502L38.1604 33.6048C38.3128 33.6755 38.4881 33.6785 38.6425 33.6138C39.4891 33.2582 40.3926 33.0779 41.3249 33.0779C45.1758 33.0779 48.3076 36.2106 48.3076 40.0615C48.3076 43.9124 45.1748 47.0451 41.3249 47.0451ZM41.3249 34.1547C38.0677 34.1547 35.4181 36.8043 35.4181 40.0615C35.4181 43.3187 38.0677 45.9683 41.3249 45.9683C44.5822 45.9683 47.2318 43.3187 47.2318 40.0615C47.2318 36.8043 44.5812 34.1547 41.3249 34.1547ZM41.3249 44.773C38.7271 44.773 36.6134 42.6593 36.6134 40.0615C36.6134 37.4637 38.7271 35.35 41.3249 35.35C43.9228 35.35 46.0365 37.4637 46.0365 40.0615C46.0365 42.6593 43.9228 44.773 41.3249 44.773ZM42.841 37.7167L43.083 37.1878C43.2205 36.8879 43.089 36.5333 42.7882 36.3959C42.4884 36.2584 42.1338 36.3899 41.9963 36.6907L41.8718 36.9617C41.577 36.7365 41.2223 36.611 40.8508 36.611C40.0111 36.611 39.2829 37.2565 39.1176 38.145C39.1076 38.1978 39.0847 38.2267 39.0339 38.2456C38.1922 38.5674 37.6264 39.3901 37.6264 40.2916C37.6264 41.4341 38.4901 42.3665 39.6127 42.4701L39.3945 42.9283C39.2521 43.2261 39.3786 43.5827 39.6764 43.7251C39.7591 43.765 39.8467 43.7839 39.9334 43.7839C40.1565 43.7839 40.3707 43.6584 40.4733 43.4432L40.6914 42.987C40.9584 43.1255 41.2552 43.2002 41.56 43.2002C42.2902 43.2002 42.9645 42.7709 43.2773 42.1065C43.2982 42.0627 43.3191 42.0457 43.3659 42.0338C44.3421 41.7897 45.0244 40.9162 45.0244 39.9091C45.0224 38.7018 44.0443 37.7207 42.841 37.7167ZM43.0751 40.8713C42.6806 40.9699 42.3679 41.2269 42.1945 41.5945C42.078 41.8425 41.829 42.0019 41.559 42.0019C41.3857 42.0019 41.2194 41.9371 41.0899 41.8196C40.7203 41.4829 40.279 41.3016 39.779 41.2837C39.2421 41.2638 38.8218 40.8275 38.8218 40.2896C38.8218 39.8802 39.0788 39.5067 39.4613 39.3603C39.9035 39.1909 40.2073 38.8273 40.293 38.3612C40.3528 38.0384 40.5878 37.8044 40.8508 37.8044C41.0261 37.8044 41.1905 37.906 41.301 38.0823C41.6317 38.6092 42.1756 38.911 42.7892 38.911H42.8121H42.8261L42.831 38.3134V38.911C43.3799 38.911 43.8261 39.3573 43.8261 39.9061C43.8271 40.3643 43.5183 40.7608 43.0751 40.8713ZM42.1696 40.8903C42.1696 41.22 41.9017 41.4879 41.572 41.4879C41.2423 41.4879 40.9743 41.22 40.9743 40.8903C40.9743 40.5605 41.2423 40.2926 41.572 40.2926C41.9017 40.2926 42.1696 40.5605 42.1696 40.8903ZM40.6247 40.196C40.6247 40.5257 40.3567 40.7936 40.027 40.7936C39.6973 40.7936 39.4294 40.5257 39.4294 40.196C39.4294 39.8663 39.6973 39.5983 40.027 39.5983C40.3567 39.5983 40.6247 39.8653 40.6247 40.196Z" fill="#134A85"/>
</svg>
