<svg width="51" height="51" viewBox="0 0 51 51" fill="none" xmlns="http://www.w3.org/2000/svg">
<path d="M23.9746 25.041C23.7212 25.3667 23.7797 25.836 24.1053 26.0894C24.2416 26.1955 24.4032 26.2469 24.5637 26.2469C24.7862 26.2469 25.0064 26.1479 25.1538 25.9586C26.012 24.8559 26.4257 23.6784 26.598 22.6012C26.8708 23.5302 27.0094 24.4974 27.0003 25.475C26.943 31.6752 28.1857 36.4601 30.6939 39.6964C30.8411 39.8864 31.0618 39.9858 31.2849 39.9858C31.4448 39.9858 31.606 39.9347 31.742 39.8292C32.0681 39.5765 32.1277 39.1073 31.8749 38.7813C30.27 36.7103 29.232 33.9023 28.7701 30.4016C29.5433 31.5037 30.573 32.6135 31.849 33.2271C31.9534 33.2773 32.0636 33.3012 32.1722 33.3012C32.4503 33.3012 32.7174 33.1452 32.846 32.8776C33.0249 32.5059 32.8684 32.0594 32.4965 31.8806C30.208 30.78 28.768 27.4464 28.5034 26.7918C28.494 26.3652 28.4904 25.9315 28.4945 25.4889C28.5249 22.1873 27.0994 18.9929 24.5833 16.7245C24.2767 16.4481 23.8043 16.4726 23.5281 16.779C23.2519 17.0855 23.2763 17.5579 23.5827 17.8342C24.093 18.2943 24.5513 18.7981 24.9549 19.3358C25.1133 19.9103 25.7642 22.7415 23.9746 25.041Z" fill="#134A85"/>
<path d="M47.0114 28.657H40.3886C40.403 28.4117 40.4183 28.1708 40.4334 27.9341C40.486 27.1112 40.5357 26.3339 40.5357 25.4999C40.5357 21.9217 39.4785 18.6039 37.4783 15.9049C37.2327 15.5735 36.765 15.504 36.4333 15.7495C36.1018 15.9952 36.0323 16.463 36.2779 16.7945C38.086 19.2342 39.0416 22.2445 39.0416 25.4999C39.0416 26.2861 38.9934 27.0403 38.9423 27.8386C38.9253 28.1055 38.908 28.378 38.8921 28.6569H38.891C38.6114 28.6569 38.3553 28.8129 38.2271 29.0614L37.1909 31.0692C36.4919 28.0163 36.5101 25.537 36.5105 25.4999C36.5105 19.4765 33.131 14.2281 28.1686 11.55C30.332 12.0526 32.336 13.0233 34.0069 14.4019C34.1462 14.5168 34.3146 14.5728 34.4821 14.5728C34.6973 14.5728 34.9111 14.4801 35.0587 14.3011C35.3213 13.9829 35.2762 13.5119 34.9579 13.2493C32.1524 10.9348 28.5076 9.66012 24.695 9.66012C24.0192 9.66012 23.3453 9.70395 22.6887 9.78772C22.0276 9.70325 21.354 9.65972 20.6702 9.65972C20.2812 9.65972 19.8927 9.67596 19.5055 9.70454V5.92148H25.3995C25.8122 5.92148 26.1466 5.58709 26.1466 5.17441V0.74707C26.1466 0.334389 25.8122 0 25.3995 0H19.161C17.5503 0 16.0977 0.687205 15.0787 1.78281V0.74707C15.0787 0.334389 14.7443 0 14.3316 0H8.89792C8.48523 0 8.15085 0.334389 8.15085 0.74707V5.94847C8.15085 6.36115 8.48523 6.69554 8.89792 6.69554C9.3106 6.69554 9.64499 6.36115 9.64499 5.94847V1.49414H13.5845V5.55781C13.5845 5.56418 13.584 5.57055 13.584 5.57693H13.5845V11.331C13.5372 11.3547 13.4902 11.3789 13.4432 11.403H11.7776C11.0425 11.403 10.3234 11.5235 9.64499 11.7529V9.4348C9.64499 9.02212 9.3106 8.68773 8.89792 8.68773C8.48523 8.68773 8.15085 9.02212 8.15085 9.4348V12.4808C7.61266 12.8319 7.12158 13.2615 6.69794 13.7651C3.93607 17.0478 2.41504 21.2154 2.41504 25.5002C2.41504 26.7599 2.50309 28.0182 2.67671 29.2403C2.88988 30.7403 3.86007 31.9685 5.27223 32.5256C5.49466 32.6133 5.72048 32.6801 5.94759 32.7287C6.68669 35.0309 7.79922 37.2534 9.2588 39.3414C11.4178 42.4311 14.1574 44.997 17.4012 46.9679C17.5224 47.0415 17.6563 47.0766 17.7885 47.0766C18.0408 47.0766 18.287 46.9488 18.4276 46.7174C18.6418 46.3648 18.5296 45.9053 18.177 45.6909C15.1115 43.8284 12.523 41.4042 10.4835 38.4855C9.21228 36.6669 8.22217 34.7431 7.53197 32.7547C8.19248 32.634 8.82411 32.3487 9.37455 31.9054C9.51838 31.7895 9.66302 31.6768 9.80815 31.567C10.4267 33.4701 11.3483 35.3058 12.5578 37.0366C15.324 40.9934 19.2225 43.9525 23.832 45.5938C23.9147 45.6233 23.9994 45.6373 24.0826 45.6373C24.3897 45.6373 24.6774 45.4465 24.7863 45.1407C24.9248 44.7521 24.7219 44.3248 24.3331 44.1863C23.6324 43.9368 22.9497 43.6543 22.2859 43.3411C22.5801 43.2764 22.8799 43.1858 23.1808 43.0598C23.5613 42.9004 23.7406 42.4627 23.5813 42.0822C23.4219 41.7017 22.9843 41.5225 22.6037 41.6816C21.1507 42.2904 19.6486 41.7908 19.3897 41.6957C18.2213 40.9079 17.1356 40.0095 16.1446 39.0101C17.0919 39.2831 18.2351 39.4744 19.5824 39.4744C20.179 39.4744 20.8158 39.4369 21.4925 39.3526C21.9019 39.3016 22.1925 38.9283 22.1416 38.5189C22.0906 38.1095 21.7166 37.8198 21.308 37.8699C20.3492 37.9893 19.4894 38.0006 18.7257 37.9456C18.9473 37.7664 19.2136 37.6057 19.5215 37.5144C19.917 37.397 20.1425 36.9813 20.0253 36.5857C19.9079 36.1902 19.4925 35.9649 19.0966 36.0819C18.0387 36.3957 17.323 37.16 16.9436 37.6719C16.397 37.5391 15.9331 37.3784 15.5563 37.2195C14.4954 36.7722 13.8943 36.2606 13.7424 36.1219C12.5474 34.3993 11.6587 32.57 11.0955 30.6757C12.8391 29.5703 14.5543 28.864 15.8165 28.4377C17.7824 27.7735 19.1032 25.9392 19.1032 23.8732V16.216C19.1032 14.2745 17.9471 12.5991 16.2877 11.8388C17.6978 11.3881 19.1802 11.1538 20.6705 11.1538C28.5809 11.1538 35.0166 17.5894 35.0167 25.4904C35.0148 25.6397 34.9857 29.1063 36.1686 33.0504L35.0934 35.1337C34.9391 35.4326 35.0037 35.7979 35.2512 36.0258L37.1412 37.7665L35.0544 43.5601C34.9405 43.8763 35.0519 44.2299 35.3267 44.4236C35.4562 44.515 35.6068 44.5603 35.7572 44.5603C35.9258 44.5603 36.0942 44.5033 36.2315 44.3904L40.6108 40.793C40.9671 41.2119 41.2548 41.6823 41.4657 42.1974C41.7266 42.8377 41.8588 43.5145 41.8588 44.2086C41.8588 47.1295 39.4825 49.5059 36.5614 49.5059H31.8489C28.1427 49.5059 24.5535 48.7498 21.181 47.2587C20.8037 47.0916 20.3626 47.2625 20.1956 47.6398C20.0288 48.0172 20.1994 48.4584 20.5767 48.6252C24.1408 50.201 27.9334 51 31.8489 51H36.5614C40.3062 51 43.3529 47.9534 43.3529 44.2086C43.3529 43.3201 43.1836 42.4539 42.8489 41.6324C42.5806 40.9777 42.2165 40.3794 41.7651 39.8446L44.9204 37.2527C45.094 37.1102 45.1942 36.8971 45.1933 36.6724C45.1923 36.4478 45.0904 36.2354 44.9157 36.0943L43.1676 34.6825L47.5609 29.9101C47.7618 29.692 47.8146 29.3756 47.6955 29.104C47.5764 28.8324 47.3079 28.657 47.0114 28.657ZM15.0787 5.55781C15.089 3.3154 16.9162 1.49414 19.161 1.49414H24.6524V4.42734H19.3622C18.6173 4.42734 18.0114 5.03326 18.0114 5.77814V9.88623C17.0101 10.0564 16.0268 10.3209 15.0787 10.6775V5.55781ZM17.6089 16.2161V23.8733C17.6089 25.2979 16.6963 26.5634 15.3381 27.0222C13.5441 27.6282 10.8907 28.7653 8.43712 30.7417C7.69304 31.3412 6.71498 31.4885 5.82058 31.1356C4.91474 30.7783 4.29248 29.9912 4.15601 29.0301C3.99215 27.8774 3.90908 26.6897 3.90908 25.5001C3.90908 21.5668 5.3056 17.7408 7.84126 14.7269C8.81952 13.5641 10.2543 12.8972 11.7776 12.8972H14.2901C16.1201 12.8972 17.6089 14.3861 17.6089 16.2161ZM41.5287 34.2569C41.3888 34.4088 41.3181 34.6119 41.3332 34.8179C41.3484 35.0239 41.4482 35.2143 41.6088 35.3441L43.2633 36.6804L37.3795 41.5137L38.7149 37.8059C38.8167 37.5232 38.7392 37.2069 38.5181 37.0033L36.6823 35.3125L39.3461 30.1511H45.3081L41.5287 34.2569Z" fill="#134A85"/>
<path d="M44.6599 20.5824C44.0513 20.91 43.9291 21.4432 43.8561 21.7617C43.8416 21.8257 43.8201 21.9194 43.8034 21.9574C43.8026 21.9579 43.8018 21.9584 43.801 21.9588C43.4377 22.1544 43.3015 22.6074 43.497 22.9707C43.6319 23.2215 43.8894 23.3638 44.1556 23.3638C44.275 23.3638 44.3963 23.3352 44.5089 23.2746C45.1175 22.9471 45.2397 22.4139 45.3126 22.0953C45.3272 22.0314 45.3487 21.9376 45.3653 21.8997C45.3661 21.8992 45.367 21.8987 45.3678 21.8982C45.3686 21.8977 45.3696 21.8973 45.3703 21.8969C45.4111 21.904 45.5011 21.9376 45.5624 21.9606C45.8684 22.0753 46.3807 22.2671 46.9893 21.9397C47.5979 21.6122 47.7201 21.079 47.7931 20.7604C47.8076 20.6965 47.8292 20.6028 47.8458 20.5648C47.8466 20.5643 47.8475 20.5638 47.8483 20.5633C48.2116 20.3678 48.3477 19.9148 48.1522 19.5515C47.9567 19.1882 47.5036 19.0519 47.1404 19.2476C46.5317 19.5751 46.4096 20.1082 46.3366 20.4268C46.3221 20.4907 46.3006 20.5844 46.2839 20.6225C46.2831 20.623 46.2822 20.6235 46.2813 20.624C46.2804 20.6245 46.2795 20.6249 46.2788 20.6253C46.238 20.6182 46.1481 20.5845 46.0867 20.5615C45.7805 20.4468 45.2683 20.2548 44.6599 20.5824Z" fill="#134A85"/>
<path d="M41.969 20.4644C42.0885 20.4644 42.2098 20.4357 42.3224 20.3752C42.931 20.0477 43.0532 19.5144 43.1261 19.1959C43.1406 19.1319 43.1622 19.0382 43.1787 19.0002C43.1795 18.9998 43.1804 18.9993 43.1812 18.9988C43.182 18.9983 43.183 18.9979 43.1837 18.9974C43.2245 19.0045 43.3145 19.0382 43.3759 19.0613C43.6819 19.1759 44.1942 19.3676 44.8027 19.0404C45.4113 18.7129 45.5336 18.1797 45.6065 17.8611C45.621 17.7971 45.6425 17.7034 45.6592 17.6654C45.66 17.6649 45.6609 17.6644 45.6617 17.6639C46.0249 17.4684 46.1611 17.0153 45.9656 16.6521C45.7701 16.2888 45.3169 16.1525 44.9537 16.3482C44.3451 16.6757 44.2229 17.2089 44.15 17.5274C44.1354 17.5915 44.1139 17.6852 44.0973 17.7232C44.0965 17.7237 44.0957 17.7242 44.0949 17.7247C44.0939 17.7251 44.0931 17.7256 44.0924 17.726C44.0516 17.7189 43.9616 17.6851 43.9002 17.6621C43.5943 17.5476 43.082 17.3554 42.4732 17.683C41.8647 18.0105 41.7425 18.5438 41.6696 18.8623C41.6551 18.9263 41.6336 19.02 41.6169 19.0579C41.6161 19.0584 41.6152 19.0589 41.6144 19.0594C41.2512 19.255 41.115 19.708 41.3105 20.0713C41.4454 20.322 41.7029 20.4644 41.969 20.4644Z" fill="#134A85"/>
<path d="M49.0594 25.3263C48.3974 25.1274 47.934 25.4181 47.6572 25.5917C47.6016 25.6266 47.5202 25.6777 47.4815 25.6928C47.4806 25.6926 47.4796 25.6923 47.4786 25.6919C47.4776 25.6917 47.4767 25.6914 47.4759 25.6911C47.4521 25.6572 47.4122 25.5697 47.3852 25.5101C47.2498 25.2127 47.0233 24.7148 46.3613 24.5159C45.6997 24.3176 45.2362 24.608 44.9594 24.7818C44.9039 24.8166 44.8227 24.8676 44.784 24.8828C44.7832 24.8826 44.7823 24.8823 44.7814 24.882C44.3866 24.7634 43.9698 24.9876 43.851 25.3827C43.7325 25.7779 43.9566 26.1944 44.3518 26.3131C45.0133 26.5115 45.4769 26.2211 45.7537 26.0472C45.8092 26.0125 45.8903 25.9615 45.9291 25.9462C45.9299 25.9464 45.9308 25.9467 45.9316 25.947C45.9326 25.9472 45.9335 25.9475 45.9343 25.9478C45.9581 25.9818 45.998 26.0692 46.025 26.1288C46.1604 26.4262 46.3869 26.9242 47.0488 27.1229C47.2066 27.1703 47.353 27.1899 47.4884 27.1899C47.9211 27.1899 48.2402 26.9897 48.4511 26.8575C48.5067 26.8226 48.5881 26.7715 48.6268 26.7564C48.6277 26.7565 48.6286 26.7568 48.6296 26.7571C49.025 26.8764 49.4413 26.6518 49.56 26.2566C49.6787 25.8615 49.4546 25.4449 49.0594 25.3263Z" fill="#134A85"/>
<path d="M4.97354 40.9825C4.99615 40.921 5.02932 40.831 5.05054 40.7952C5.05134 40.7949 5.05213 40.7946 5.05293 40.7942C5.05393 40.7939 5.05492 40.7935 5.05572 40.7932C5.09526 40.8054 5.18043 40.8503 5.2384 40.881C5.52747 41.0337 6.01147 41.2893 6.65644 41.0417C7.04173 40.894 7.23427 40.4619 7.08655 40.0767C6.93883 39.6914 6.50693 39.4987 6.12154 39.6465C6.12054 39.6469 6.11955 39.6472 6.11875 39.6476C6.07921 39.6354 5.99414 39.5905 5.93617 39.5598C5.6472 39.4072 5.1636 39.1518 4.51813 39.3991C3.87276 39.6464 3.684 40.1598 3.57104 40.4665C3.54843 40.528 3.51526 40.6181 3.49404 40.6538C3.49325 40.6542 3.49235 40.6545 3.49155 40.6549C3.49056 40.6552 3.48956 40.6556 3.48876 40.6559C3.44922 40.6437 3.36405 40.5988 3.30608 40.5681C3.01711 40.4155 2.53311 40.1601 1.88804 40.4075C1.50275 40.5551 1.31021 40.9872 1.45793 41.3725C1.60565 41.7577 2.03775 41.9506 2.42284 41.8026C2.42384 41.8022 2.42484 41.8019 2.42563 41.8015C2.46518 41.8137 2.55024 41.8587 2.60822 41.8893C2.81042 41.9961 3.10796 42.1532 3.48956 42.1532C3.65332 42.1532 3.83252 42.1243 4.02636 42.05C4.67172 41.8026 4.86058 41.2892 4.97354 40.9825Z" fill="#134A85"/>
<path d="M7.00853 44.0551C7.04529 44.0358 7.13703 44.0074 7.19958 43.9881C7.51186 43.8918 8.03461 43.7305 8.31591 43.0993C8.48405 42.7225 8.31461 42.2808 7.93779 42.1129C7.56107 41.9446 7.1193 42.1143 6.95136 42.491C6.95086 42.4919 6.95056 42.4927 6.95016 42.4934C6.91341 42.5127 6.82167 42.5411 6.75911 42.5604C6.44684 42.6567 5.92408 42.818 5.64279 43.4491C5.36129 44.0803 5.59069 44.577 5.72775 44.8737C5.75525 44.9332 5.79559 45.0205 5.80565 45.0607C5.80535 45.0615 5.80495 45.0624 5.80455 45.0632C5.80406 45.0643 5.80366 45.0652 5.80326 45.066C5.7666 45.0853 5.67466 45.1137 5.61191 45.1331C5.29963 45.2295 4.77698 45.3909 4.49559 46.0222C4.32755 46.3992 4.49698 46.8408 4.8738 47.0088C4.97262 47.0528 5.07591 47.0736 5.17761 47.0736C5.46349 47.0736 5.73642 46.9086 5.86033 46.6305C5.86073 46.6295 5.86113 46.6286 5.86153 46.6279C5.89819 46.6085 5.99013 46.5801 6.05278 46.5607C6.36506 46.4643 6.88771 46.3029 7.1691 45.6716C7.4506 45.0404 7.2212 44.5437 7.08404 44.247C7.05664 44.1875 7.0163 44.1004 7.00624 44.0601C7.00654 44.0593 7.00694 44.0584 7.00734 44.0575C7.00783 44.0567 7.00813 44.0559 7.00853 44.0551Z" fill="#134A85"/>
<path d="M10.207 44.1475C9.79768 44.1004 9.42733 44.3963 9.38131 44.8066C9.38121 44.8076 9.38111 44.8085 9.38101 44.8093C9.35183 44.8389 9.27294 44.8937 9.21915 44.931C8.9508 45.1174 8.50146 45.4294 8.42436 46.1161C8.34727 46.8028 8.71632 47.2066 8.93676 47.4479C8.98088 47.4962 9.04583 47.5672 9.06754 47.6025C9.06744 47.6035 9.06734 47.6044 9.06724 47.6053C9.06714 47.6063 9.06694 47.6074 9.06685 47.6083C9.03776 47.6379 8.95877 47.6928 8.90488 47.7303C8.63653 47.9167 8.18729 48.2288 8.1102 48.9156C8.06418 49.3256 8.35932 49.6953 8.76931 49.7413C8.7976 49.7445 8.82559 49.7461 8.85348 49.7461C9.22881 49.746 9.55224 49.4639 9.59497 49.0822C9.59507 49.0811 9.59527 49.0801 9.59537 49.0792C9.62446 49.0496 9.70345 48.9947 9.75734 48.9572C10.0257 48.7708 10.4749 48.4587 10.552 47.7719C10.6291 47.0851 10.2601 46.6813 10.0396 46.44C9.9955 46.3917 9.93066 46.3208 9.90884 46.2854C9.90894 46.2845 9.90904 46.2836 9.90914 46.2826C9.90924 46.2816 9.90934 46.2807 9.90944 46.2799C9.93863 46.2504 10.0175 46.1956 10.0713 46.1582C10.3397 45.9719 10.789 45.6599 10.8661 44.9732C10.9121 44.5632 10.617 44.1935 10.207 44.1475Z" fill="#134A85"/>
</svg>
