<svg width="51" height="51" viewBox="0 0 51 51" fill="none" xmlns="http://www.w3.org/2000/svg">
<path d="M35.5406 10.7578C35.1422 10.5188 34.6641 10.6781 34.425 11.0766C34.1859 11.475 34.3453 11.9531 34.7437 12.1922C38.8875 14.5828 41.4375 18.9656 41.4375 23.7469V44.7047C41.4375 46.9359 39.6047 48.7687 37.3734 48.7687C34.7438 48.7687 32.1938 48.0516 30.0422 46.6172C29.5641 46.2984 18.8063 37.2141 18.8063 37.2141C16.0172 35.2219 13.9453 32.4328 12.6703 29.325L17.0531 26.2172C18.8062 25.0219 20.1609 23.4281 21.1172 21.675H23.5875C28.3687 21.675 31.9547 25.4203 31.9547 30.4406C31.9547 30.9188 32.2734 31.2375 32.7516 31.2375C33.2297 31.2375 33.5484 30.9188 33.5484 30.4406C33.5484 24.6234 29.1656 20.0813 23.5875 20.0813H21.9141C22.8703 17.7703 23.1891 15.3 22.7906 12.75L22.4719 10.3594H24.7828C25.2609 10.3594 25.5797 10.0406 25.5797 9.5625C25.5797 9.08438 25.2609 8.76562 24.7828 8.76562C24.7828 8.76562 22.5516 8.52656 20.0813 9.08437C19.6828 9.16406 19.3641 9.5625 19.4437 10.0406C19.5234 10.4391 19.8422 10.6781 20.2406 10.6781C20.3203 10.6781 20.7187 10.5984 20.9578 10.5984L21.2766 12.9094C21.9141 17.5312 20.0016 22.1531 16.1766 24.8625L12.1922 27.7312C11.6344 25.8984 11.3156 24.0656 11.3156 22.0734C11.3156 19.125 12.4313 16.2563 14.5031 14.1047C14.8219 13.7859 14.8219 13.3078 14.5031 12.9891C14.2641 12.75 13.8656 12.75 13.6266 12.8297L12.4313 11.2359C10.5188 8.925 9.5625 6.13594 9.5625 3.26719V1.59375C9.5625 1.11562 9.24375 0.796875 8.76562 0.796875C8.2875 0.796875 7.96875 1.11562 7.96875 1.59375V3.26719C7.96875 6.45469 9.00469 9.5625 10.9172 12.1125L12.2719 13.9453C10.5187 16.2563 9.5625 19.125 9.5625 21.9937C9.5625 28.4484 12.6703 34.5047 17.7703 38.3297C17.7703 38.3297 28.6078 47.4141 29.1656 47.8125C31.6359 49.4062 34.5047 50.2031 37.3734 50.2031C40.4813 50.2031 43.0312 47.6531 43.0312 44.5453V23.6672C43.0312 18.3281 40.1625 13.3875 35.5406 10.7578Z" fill="#134A85"/>
<path d="M21.5954 23.4283C19.5236 26.1376 16.3361 28.0501 16.3361 28.0501C16.0173 28.2892 15.8579 28.847 16.1767 29.1658C16.4954 29.5642 17.1329 29.4845 17.2923 29.3251C17.2923 29.3251 20.7189 27.2533 22.9501 24.3845C23.1892 24.0658 23.1095 23.5079 22.7907 23.2689C22.3126 23.0298 21.8345 23.1095 21.5954 23.4283Z" fill="#134A85"/>
<path d="M30.2812 15.9375V20.7188C30.2812 21.1969 30.6 21.5156 31.0781 21.5156C31.5562 21.5156 31.875 21.1969 31.875 20.7188V15.9375C31.875 11.0766 35.7797 7.17188 40.6406 7.17188C41.1187 7.17188 41.4375 6.85312 41.4375 6.375C41.4375 5.89687 41.1187 5.57812 40.6406 5.57812C34.9031 5.57812 30.2812 10.2 30.2812 15.9375Z" fill="#134A85"/>
<path d="M25.5 18.1687C25.5 18.6469 25.8187 18.9656 26.2969 18.9656C26.775 18.9656 27.0938 18.6469 27.0938 18.1687V15.2203C27.0938 8.12813 32.8312 2.39062 39.9234 2.39062C40.4016 2.39062 40.7203 2.07187 40.7203 1.59375C40.7203 1.11562 40.4016 0.796875 39.9234 0.796875C31.9547 0.796875 25.5 7.25156 25.5 15.2203V18.1687Z" fill="#134A85"/>
<path d="M17.2125 11.9531L18.5672 13.3078C18.7266 13.4672 19.2844 13.7063 19.6828 13.3078C20.0016 12.9891 20.0016 12.5109 19.6828 12.1922L18.3281 10.8375C16.6547 9.16406 15.4594 7.25156 14.9016 5.17969C14.5031 3.98438 14.3438 2.78906 14.3438 1.59375C14.3438 1.11562 14.025 0.796875 13.5469 0.796875C13.0687 0.796875 12.75 1.11562 12.75 1.59375C12.75 2.94844 12.9094 4.30312 13.3078 5.57812C13.9453 7.88906 15.3 10.1203 17.2125 11.9531Z" fill="#134A85"/>
<path d="M36.6562 45.4219C36.1781 45.4219 35.8594 45.7406 35.8594 46.2188C35.8594 46.6969 36.1781 47.0156 36.6562 47.0156C40.4016 47.2547 39.8438 43.0312 39.8438 43.0312C39.8438 42.5531 39.525 42.2344 39.0469 42.2344C38.5687 42.2344 38.25 42.5531 38.25 43.0312C38.25 43.0312 38.5688 45.5016 36.6562 45.4219Z" fill="#134A85"/>
<path d="M39.0469 40.6406C39.525 40.6406 39.8438 40.3219 39.8438 39.8438V38.25C39.8438 37.7719 39.525 37.4531 39.0469 37.4531C38.5687 37.4531 38.25 37.7719 38.25 38.25V39.8438C38.25 40.3219 38.5687 40.6406 39.0469 40.6406Z" fill="#134A85"/>
<path d="M22.7906 7.88906C23.1891 7.80937 23.5078 7.41094 23.4281 6.93281C23.1891 5.97656 23.1094 4.94063 23.1094 3.90469V1.59375C23.1094 1.11562 22.7906 0.796875 22.3125 0.796875C21.8344 0.796875 21.5156 1.11562 21.5156 1.59375V3.90469C21.5156 5.02031 21.675 6.13594 21.9141 7.25156C21.9938 7.65 22.3922 8.04844 22.7906 7.88906Z" fill="#134A85"/>
<path d="M16.8939 7.17188C17.2126 7.25156 17.7704 6.93281 17.8501 6.61406C18.1689 5.33906 18.3283 4.06406 18.3283 2.78906V1.59375C18.3283 1.11562 18.0095 0.796875 17.5314 0.796875C17.0533 0.796875 16.7345 1.11562 16.7345 1.59375V2.78906C16.7345 3.90469 16.5751 5.02031 16.3361 6.13594C16.2564 6.61406 16.4954 7.0125 16.8939 7.17188Z" fill="#134A85"/>
</svg>
