<svg width="51" height="51" viewBox="0 0 51 51" fill="none" xmlns="http://www.w3.org/2000/svg">
<path d="M12.6309 20.7568H14.9004" stroke="#134A85" stroke-width="1.49414" stroke-miterlimit="10" stroke-linecap="round" stroke-linejoin="round"/>
<path d="M12.6309 27.8789H14.9004" stroke="#134A85" stroke-width="1.49414" stroke-miterlimit="10" stroke-linecap="round" stroke-linejoin="round"/>
<path d="M34.694 20.9756L33.803 21.7295C33.4717 22.0098 31.4685 22.4237 31.1002 22.4237C30.4215 22.4237 29.8714 21.8736 29.8714 21.1949V20.6132C29.8714 19.2671 28.7801 18.1758 27.4339 18.1758H10.9813C10.2864 18.1758 9.68844 18.7098 9.65577 19.4039C9.6209 20.145 10.2114 20.7568 10.9448 20.7568H12.6306V27.8793H10.9813C10.2864 27.8793 9.68854 28.4133 9.65577 29.1074C9.6209 29.8485 10.2114 30.4603 10.9448 30.4603H27.4338C28.78 30.4603 29.8713 29.369 29.8713 28.0229V25.9061C29.8713 25.2274 30.4214 24.6773 31.1001 24.6773L34.0272 24.8184C34.6516 24.8184 35.1579 25.3246 35.1579 25.9491C35.1579 26.655 35.7301 27.2273 36.436 27.2273C37.142 27.2273 37.7142 26.655 37.7142 25.9491V22.3764C37.7142 21.363 36.8927 20.5414 35.8792 20.5414C35.4452 20.5414 35.0253 20.6952 34.694 20.9756Z" stroke="#134A85" stroke-width="1.49414" stroke-miterlimit="10" stroke-linecap="round" stroke-linejoin="round"/>
<path d="M12.6309 3.98242H14.9004" stroke="#134A85" stroke-width="1.49414" stroke-miterlimit="10" stroke-linecap="round" stroke-linejoin="round"/>
<path d="M12.6309 11.1045H14.9004" stroke="#134A85" stroke-width="1.49414" stroke-miterlimit="10" stroke-linecap="round" stroke-linejoin="round"/>
<path d="M34.6632 4.11702L33.7464 4.89278C33.4055 5.18124 31.4685 5.64931 31.1001 5.64931C30.4214 5.64931 29.8713 5.09917 29.8713 4.42053V3.83881C29.8713 2.49269 28.78 1.40137 27.4338 1.40137H10.9813C10.2864 1.40137 9.68844 1.93537 9.65577 2.62945C9.6209 3.37054 10.2114 3.98235 10.9448 3.98235H12.6306V11.1049H10.9813C10.2864 11.1049 9.68854 11.6389 9.65577 12.333C9.6209 13.0741 10.2114 13.6859 10.9448 13.6859H27.4338C28.78 13.6859 29.8713 12.5946 29.8713 11.2485V9.13155C29.8713 8.45291 30.4214 7.90277 31.1001 7.90277L33.9771 8.07091C34.6196 8.07091 35.1405 8.59177 35.1405 9.23435C35.1405 9.9607 35.7293 10.5495 36.4557 10.5495C37.182 10.5495 37.7708 9.9607 37.7708 9.23435V5.55837C37.7708 4.51565 36.9255 3.67027 35.8827 3.67027C35.4362 3.67027 35.0041 3.82855 34.6632 4.11702Z" stroke="#134A85" stroke-width="1.49414" stroke-miterlimit="10" stroke-linecap="round" stroke-linejoin="round"/>
<path d="M13.9414 39.8007L16.5955 39.251" stroke="#134A85" stroke-width="1.49414" stroke-miterlimit="10" stroke-linecap="round" stroke-linejoin="round"/>
<path d="M15.3857 46.7745L17.8049 46.2734" stroke="#134A85" stroke-width="1.49414" stroke-miterlimit="10" stroke-linecap="round" stroke-linejoin="round"/>
<path d="M36.0356 35.6239L35.3627 36.4834C35.1124 36.803 32.7255 37.6123 32.3647 37.687C31.7001 37.8246 31.0499 37.3975 30.9122 36.7329L30.7943 36.1633C30.5213 34.8451 29.2313 33.9978 27.9132 34.2709L11.8026 37.6077C11.1221 37.7486 10.6449 38.3928 10.7538 39.0791C10.8699 39.8118 11.5723 40.2912 12.2903 40.1424L13.9411 39.8006L15.3856 46.7751L13.7705 47.1096C13.0901 47.2506 12.613 47.8947 12.7217 48.5811C12.8378 49.3138 13.5401 49.7931 14.2582 49.6444L30.4046 46.3001C31.7228 46.0271 32.57 44.7371 32.297 43.419L31.8677 41.3462C31.73 40.6816 32.1571 40.0314 32.8217 39.8937L36.154 39.2699C36.7259 39.1514 37.2855 39.519 37.404 40.091C37.5378 40.7374 38.1706 41.153 38.817 41.0191C39.4635 40.8852 39.8791 40.2525 39.7452 39.6061L39.0674 36.3341C38.8752 35.4059 37.967 34.8094 37.0388 35.0016C36.6414 35.0837 36.2858 35.3042 36.0356 35.6239Z" stroke="#134A85" stroke-width="1.49414" stroke-miterlimit="10" stroke-linecap="round" stroke-linejoin="round"/>
<path d="M12.9418 30.46C12.9418 30.46 12.8834 30.8559 12.8869 31.5624C12.894 33.0473 14.194 34.1952 15.6685 34.0187L20.91 33.3913" stroke="#134A85" stroke-width="1.49414" stroke-miterlimit="10" stroke-linecap="round" stroke-linejoin="round"/>
<path d="M12.6309 13.6855V14.62C12.6309 15.3199 13.1982 15.8873 13.8982 15.8873H25.5867" stroke="#134A85" stroke-width="1.49414" stroke-miterlimit="10" stroke-linecap="round" stroke-linejoin="round"/>
<path d="M32.916 1.99902V5.25685" stroke="#134A85" stroke-width="1.49414" stroke-miterlimit="10" stroke-linecap="round" stroke-linejoin="round"/>
<path d="M32.916 10.4365V21.8529" stroke="#134A85" stroke-width="1.49414" stroke-miterlimit="10" stroke-linecap="round" stroke-linejoin="round"/>
<path d="M35.2959 41.6982C35.2959 41.6982 35.5425 44.0663 37.4186 47.889" stroke="#134A85" stroke-width="1.49414" stroke-miterlimit="10" stroke-linecap="round" stroke-linejoin="round"/>
<path d="M40.376 26.7228L42.7007 23.665" stroke="#134A85" stroke-width="1.49414" stroke-miterlimit="10" stroke-linecap="round" stroke-linejoin="round"/>
<path d="M40.376 32.7217L43.4337 35.0465" stroke="#134A85" stroke-width="1.49414" stroke-miterlimit="10" stroke-linecap="round" stroke-linejoin="round"/>
<path d="M41.9365 29.7627H45.0722" stroke="#134A85" stroke-width="1.49414" stroke-miterlimit="10" stroke-linecap="round" stroke-linejoin="round"/>
<path d="M34.6217 36.862C34.7133 36.4595 34.9386 36.096 35.2708 35.8508C36.5739 34.8889 37.4191 33.4421 37.4191 31.6982C37.4191 29.5766 36.168 27.747 34.3633 26.9072" stroke="#134A85" stroke-width="1.49414" stroke-miterlimit="10" stroke-linecap="round" stroke-linejoin="round"/>
<path d="M26.2383 34.6176L29.202 33.9777C30.0028 33.8048 30.8334 33.7886 31.6333 33.9656C31.8592 34.0156 32.0976 34.0326 32.343 34.0115C33.4746 33.914 34.3812 32.985 34.4539 31.8515C34.5404 30.5 33.4699 29.377 32.1371 29.377C31.7237 29.377 31.3356 29.4851 30.9994 29.6746C30.1256 30.1673 29.1538 30.4604 28.1508 30.4604H26.3635" stroke="#134A85" stroke-width="1.49414" stroke-miterlimit="10" stroke-linecap="round" stroke-linejoin="round"/>
</svg>
