<svg width="51" height="51" viewBox="0 0 51 51" fill="none" xmlns="http://www.w3.org/2000/svg">
<path d="M45.315 8.61042C45.2229 6.28036 44.2455 4.10858 42.563 2.49501C40.8852 0.886123 38.6833 0 36.3627 0C36.2434 0 36.1223 0.00229101 36.0028 0.00707225C33.61 0.101701 31.3975 1.1225 29.7725 2.88139C29.5135 3.16179 29.2767 3.45664 29.0582 3.76214C27.5433 2.13024 25.2087 1.51456 23.0633 2.23304L16.4691 4.43839C15.3987 4.79648 14.2387 4.65255 13.2868 4.04393L7.21062 0.157084C6.90402 -0.0389472 6.51485 -0.0521952 6.1956 0.12242C5.87636 0.297234 5.67773 0.632319 5.67773 0.996291V42.1029C5.67773 42.462 5.87098 42.7934 6.18365 42.97C6.49632 43.1468 6.87972 43.1416 7.18751 42.9563L11.7019 40.239L19.1863 43.9933C19.3269 44.0638 19.4799 44.099 19.6329 44.099C19.7904 44.099 19.9478 44.0616 20.0915 43.9871C20.3749 43.8401 20.5706 43.5663 20.6179 43.2506C20.8139 41.9429 21.1658 40.4997 21.6411 39.035C21.9634 39.075 22.2909 39.098 22.6238 39.098C24.1346 39.098 25.6208 38.6611 26.8909 37.855L30.5996 41.3907V50.0038C30.5996 50.5539 31.0457 50.9999 31.5957 50.9999H37.5771C37.5778 51 37.5786 51 37.5791 50.9999C38.1292 50.9999 38.5752 50.5539 38.5752 50.0038C38.5752 49.9823 38.5745 49.9609 38.5732 49.9397L38.5678 40.8991C40.8429 40.4371 42.5607 38.4168 42.5607 36.0016C42.5607 33.2465 40.3251 31.005 37.5771 31.005C36.0088 31.005 34.5369 31.7586 33.6049 32.9859L30.5869 31.5204C30.5943 31.3799 30.5981 31.2399 30.5981 31.1009C30.5981 29.3533 30.0347 27.7362 29.0826 26.4189C30.0731 25.4283 31.0951 24.5962 32.1292 23.9407C32.4257 23.7526 32.6014 23.4223 32.5915 23.0712C32.5816 22.7202 32.3875 22.4003 32.0807 22.2293L28.649 20.3167C27.1685 19.492 26.2487 17.9209 26.2487 16.2165C26.2487 15.2406 26.5496 14.3024 27.1197 13.502C27.3967 13.1119 27.7297 12.7712 28.1107 12.4839C28.5793 13.5826 29.2668 14.5862 30.1512 15.4344C31.829 17.0435 34.0309 17.9297 36.3512 17.9297C36.4706 17.9297 36.5917 17.9273 36.7114 17.9226C39.1041 17.828 41.3167 16.8072 42.9417 15.0484C44.567 13.2895 45.4097 11.0031 45.315 8.61042ZM7.66992 22.3752L12.8264 17.2019C13.1089 16.9184 13.4843 16.7623 13.8833 16.7623C14.2825 16.7623 14.6578 16.9184 14.9403 17.2019C15.5257 17.7891 15.5256 18.7448 14.9403 19.3321L7.66992 26.6262V22.3752ZM33.5444 35.1711C33.7832 35.2872 34.0582 35.3029 34.3085 35.2152C34.5589 35.1277 34.764 34.9437 34.8784 34.7043C35.3737 33.6673 36.4331 32.9971 37.5774 32.9971C39.2269 32.9971 40.5688 34.3449 40.5688 36.0016C40.5688 37.6559 39.2307 39.0021 37.5844 39.0061C37.5799 39.006 37.5754 39.006 37.5715 39.006C37.3072 39.006 37.0538 39.111 36.867 39.2979C36.6802 39.4849 36.5752 39.7384 36.5754 40.0027L36.5807 49.0077H32.5921V40.9641C32.5921 40.6916 32.4806 40.4312 32.2833 40.2431L27.6702 35.8454C27.3087 35.501 26.7481 35.4771 26.3589 35.79C25.2878 36.6509 23.9964 37.1059 22.6241 37.1059C19.3256 37.1059 16.6419 34.4121 16.6419 31.101C16.6419 27.7899 19.3255 25.096 22.6241 25.096C25.9227 25.096 28.6063 27.7899 28.6063 31.101C28.6063 31.3872 28.585 31.6799 28.5428 31.9715C28.4809 32.4006 28.7036 32.8203 29.0936 33.0098L33.5444 35.1711ZM27.2977 10.6216C26.5895 11.081 25.9832 11.6621 25.4966 12.3476C24.6855 13.4861 24.2568 14.8239 24.2568 16.2166C24.2568 18.6431 25.5685 20.8811 27.6796 22.0572L29.7255 23.1974C29.0467 23.721 28.3786 24.3102 27.725 24.9597C26.3414 23.8018 24.5627 23.1038 22.624 23.1038C18.227 23.1038 14.6496 26.6913 14.6496 31.1009C14.6496 34.4777 16.7485 37.3703 19.706 38.541C19.3678 39.5934 19.0939 40.6213 18.888 41.6147L12.1048 38.2122C11.7996 38.0592 11.4371 38.073 11.1445 38.2491L7.66992 40.3406V29.4483L16.3514 20.7384C17.7096 19.3756 17.7095 17.1583 16.3513 15.7957C15.6923 15.1344 14.8159 14.7702 13.8834 14.7702C12.951 14.7702 12.0743 15.1344 11.4153 15.7956L7.66992 19.5532V2.81595L12.2134 5.72245C13.6755 6.65708 15.457 6.87791 17.101 6.32777L23.6955 4.12233C25.2202 3.61173 26.8928 4.13607 27.8579 5.4279L28.025 5.65113C27.5669 6.80161 27.349 8.04494 27.3994 9.31933C27.4149 9.71209 27.4578 10.1 27.5227 10.4819C27.4466 10.5272 27.3714 10.5736 27.2977 10.6216ZM41.4788 13.6965C40.2149 15.0644 38.494 15.8584 36.633 15.932C32.7529 16.0845 29.5424 13.0892 29.3901 9.24054C29.3447 8.09325 29.5774 6.97782 30.0578 5.97018C30.0674 5.95125 30.0767 5.93203 30.085 5.9126C30.3804 5.30748 30.7658 4.7419 31.2358 4.23339C32.4997 2.86536 34.2205 2.07137 36.0814 1.99776C36.1754 1.99408 36.2695 1.99218 36.3626 1.99218C40.1178 1.99218 43.1757 4.93384 43.3243 8.68921C43.3981 10.5502 42.7426 12.3285 41.4788 13.6965Z" fill="#134A85"/>
<path d="M36.5537 7.62791L38.015 5.51012C38.3275 5.05729 38.2136 4.43693 37.7609 4.12455C37.308 3.81208 36.6876 3.92603 36.3753 4.37866L34.4897 7.11144C34.2383 7.47591 34.2575 7.9625 34.5369 8.30586L36.1612 10.3018L34.6997 12.4201C34.3873 12.8729 34.5012 13.4933 34.954 13.8057C35.1266 13.9248 35.3237 13.982 35.5188 13.982C35.8351 13.982 36.1463 13.8316 36.3396 13.5515L38.2253 10.8184C38.4766 10.454 38.4573 9.96744 38.1779 9.62409L36.5537 7.62791Z" fill="#134A85"/>
</svg>
