<svg width="51" height="51" viewBox="0 0 51 51" fill="none" xmlns="http://www.w3.org/2000/svg">
<g clip-path="url(#clip0_3056_10960)">
<path d="M34.7009 32.992C33.6575 32.8827 32.5322 33.1329 31.8784 33.4301C31.0684 33.8002 30.776 34.3338 30.6733 34.7162C30.5286 35.2557 30.661 35.8513 31.0467 36.394L32.5372 38.4874C33.0415 39.2355 33.6482 39.4129 34.0692 39.4296C34.0925 39.4305 34.1158 39.431 34.1391 39.431C34.7944 39.431 35.4425 39.0657 35.9715 38.3961C36.7815 37.3712 37.324 35.6764 36.7936 34.4201C36.4489 33.6033 35.7053 33.096 34.7009 32.992ZM34.7993 37.4697C34.7992 37.4698 34.7991 37.4698 34.7991 37.4699C34.5201 37.8231 34.2664 37.9413 34.1286 37.9367C33.9835 37.9309 33.8436 37.753 33.7731 37.6475C33.7689 37.6413 33.7647 37.6352 33.7604 37.6292L32.2642 35.528C32.1471 35.3632 32.0905 35.2005 32.1165 35.1035C32.1433 35.004 32.2863 34.8865 32.4983 34.7897C32.8817 34.6153 33.5593 34.4605 34.193 34.4605C34.313 34.4605 34.4315 34.4661 34.546 34.478C35.1557 34.5412 35.3352 34.8068 35.4171 35.0011C35.6686 35.5971 35.3858 36.7276 34.7993 37.4697Z" fill="#134A85"/>
<path d="M14.2052 34.4214C13.6758 35.6782 14.2194 37.3717 15.0302 38.3957C15.5573 39.0657 16.2052 39.4312 16.8618 39.4312C16.8846 39.4312 16.9074 39.4308 16.9302 39.4299C17.3522 39.4135 17.9603 39.2365 18.465 38.4873L19.953 36.3936C20.3383 35.8515 20.4706 35.2558 20.3259 34.7164C20.2233 34.334 19.9309 33.8004 19.1197 33.4298C18.4671 33.1331 17.3415 32.8825 16.2995 32.992C15.2933 33.0963 14.5496 33.6039 14.2052 34.4214ZM16.8065 34.4606C17.4395 34.4606 18.1173 34.6154 18.4998 34.7894C18.7129 34.8867 18.856 35.0042 18.8828 35.1036C18.9088 35.2007 18.8521 35.3632 18.735 35.5281L17.2413 37.6298C17.2371 37.6357 17.233 37.6416 17.2291 37.6476C17.1585 37.7531 17.0184 37.9312 16.8725 37.9367C16.737 37.9424 16.4807 37.8231 16.204 37.4712C16.2034 37.4705 16.2028 37.4697 16.2022 37.469C15.6149 36.7278 15.3309 35.5978 15.5821 35.0014C15.664 34.8071 15.8434 34.5413 16.4543 34.4781C16.5685 34.4661 16.6868 34.4606 16.8065 34.4606Z" fill="#134A85"/>
<path d="M50.5241 32.7436C49.9244 31.4701 48.8403 30.6274 47.3886 30.3065C46.9935 30.2193 46.5905 30.2197 46.1988 30.2201C45.6229 30.2198 45.182 30.2052 44.8214 30.0245C46.2151 26.224 47.4641 21.8956 48.6331 16.8125C49.6635 12.3358 48.5316 8.71709 45.6057 7.13233C44.1789 6.35947 42.4204 6.15697 40.6544 6.56217C38.8396 6.97843 37.1166 7.99155 35.6712 9.49234C35.3345 9.84256 34.997 10.2106 34.6708 10.5665C33.3298 12.0292 31.9601 13.5209 30.0502 14.4701V2.48223C30.0502 1.77043 29.4693 1.19141 28.7554 1.19141H22.2441C21.5301 1.19141 20.9493 1.77043 20.9493 2.48223V14.4701C19.0393 13.5209 17.6697 12.0292 16.3287 10.5665C16.0024 10.2106 15.665 9.84256 15.3278 9.49194C13.8828 7.99165 12.1598 6.97853 10.345 6.56217C8.57896 6.15697 6.82038 6.35947 5.39369 7.13233C2.4678 8.71709 1.33606 12.3358 2.3662 16.8123C3.5364 21.9009 4.78548 26.2294 6.1782 30.0253C5.81762 30.2064 5.37676 30.2212 4.80053 30.2201C4.41076 30.2192 4.00585 30.2192 3.61051 30.3065C2.15962 30.6276 1.07578 31.4705 0.476143 32.7446C-0.222308 34.2284 -0.147901 36.1429 0.67008 37.7405C0.904258 38.1984 1.12648 38.6151 1.34134 39.0182C1.57671 39.4597 1.79914 39.8767 2.00244 40.2838C2.18671 40.6529 2.63525 40.8026 3.00459 40.6184C3.37374 40.434 3.52355 39.9853 3.33918 39.6162C3.12691 39.1912 2.9001 38.7656 2.65985 38.3151C2.44788 37.9177 2.22875 37.5066 2.00025 37.0598C1.39762 35.8828 1.32998 34.4388 1.82802 33.3807C2.22327 32.5411 2.9512 31.9825 3.93324 31.7653C4.16831 31.7134 4.4754 31.7134 4.79903 31.7141C5.79143 31.7146 7.28545 31.7168 8.20045 29.9654C8.69779 29.0157 9.39365 28.5984 10.2691 28.7245C10.906 28.8144 11.4256 29.131 11.7719 29.6398C12.1851 30.2467 12.3164 31.09 12.1236 31.8954C12.0131 32.3553 11.7885 32.7645 11.4561 33.112C8.36749 35.8918 7.44791 43.3749 7.73657 48.3143H4.89406C4.89396 48.2631 4.89396 48.2117 4.89386 48.16C4.89256 46.9238 4.89117 45.5228 4.72861 44.1607C4.68877 43.8153 4.63338 43.4586 4.55957 43.0701C4.48248 42.6648 4.09152 42.3987 3.68601 42.4758C3.28071 42.5529 3.01465 42.944 3.09165 43.3493C3.15869 43.7018 3.20869 44.0233 3.24465 44.335C3.39705 45.6125 3.39844 46.9667 3.39974 48.1616C3.40004 48.4745 3.40043 48.7779 3.40322 49.0687C3.40731 49.4784 3.7406 49.8084 4.15028 49.8084H8.54101C8.75088 49.8084 8.95119 49.72 9.09273 49.565C9.23428 49.41 9.304 49.2025 9.28498 48.9934C8.98844 45.7455 9.30341 41.8026 10.1608 38.71C11.3618 40.726 13.1094 42.9786 15.5046 43.3543C15.7362 43.3906 15.9693 43.4087 16.2041 43.4087C17.7646 43.4087 19.3964 42.6078 21.0647 41.021C21.069 41.0169 21.0733 41.0127 21.0776 41.0085C21.3584 40.7283 21.6358 40.4276 21.9038 40.1369C23.0147 38.9327 24.064 37.7952 25.4997 37.7952C26.9353 37.7952 27.9845 38.9327 29.0955 40.1369C29.3636 40.4276 29.641 40.7283 29.9218 41.0085C29.926 41.0128 29.9304 41.017 29.9347 41.0211C31.8551 42.8467 33.7258 43.632 35.4956 43.3543C37.8878 42.9795 39.6359 40.7294 40.8395 38.7117C41.6963 41.8036 42.0109 45.7455 41.7144 48.9933C41.6953 49.2024 41.7651 49.4099 41.9066 49.5649C42.0481 49.72 42.2485 49.8083 42.4583 49.8083H46.8491C47.2587 49.8083 47.592 49.4783 47.5961 49.0686C47.5989 48.7775 47.5992 48.4738 47.5996 48.1606C47.6008 46.966 47.6021 45.612 47.7549 44.3322C47.7922 44.0094 47.8428 43.6898 47.9094 43.3552C47.9899 42.9506 47.727 42.5572 47.3223 42.4768C46.9177 42.3965 46.5242 42.6592 46.4438 43.0638C46.3694 43.4384 46.3128 43.797 46.271 44.1578C46.1082 45.5224 46.1069 46.9232 46.1056 48.1591C46.1055 48.2111 46.1055 48.2628 46.1054 48.3142H43.263C43.5515 43.3736 42.6326 35.8904 39.5442 33.1126C39.2104 32.7615 38.9858 32.3521 38.8761 31.8959C38.6831 31.09 38.8145 30.2466 39.2275 29.6398C39.574 29.131 40.0935 28.8145 40.732 28.7243C41.6067 28.5986 42.3017 29.0162 42.7986 29.9648C43.7139 31.7169 45.2104 31.7146 46.2004 31.7142C46.5235 31.7136 46.8311 31.7135 47.0662 31.7654C48.0488 31.9826 48.7771 32.5409 49.1722 33.38C49.6702 34.4377 49.6021 35.8821 48.999 37.0602C48.7707 37.5066 48.5516 37.9177 48.3396 38.3151C48.0993 38.7656 47.8725 39.1912 47.6603 39.6162C47.4759 39.9853 47.6257 40.434 47.9948 40.6184C48.3639 40.8026 48.8125 40.6528 48.997 40.2838C49.2003 39.8767 49.4226 39.4597 49.6581 39.0182C49.873 38.6151 50.0953 38.1984 50.3292 37.7408C51.1478 36.1419 51.2225 34.2271 50.5241 32.7436ZM22.4434 2.68553H28.556V5.95277H22.4434V2.68553ZM22.4434 7.44689H28.556V10.714H22.4434V7.44689ZM22.4434 12.2082H28.556V15.0577C27.6591 15.3229 26.6521 15.4754 25.4997 15.4754C24.3472 15.4754 23.3404 15.3229 22.4433 15.0577V12.2082H22.4434ZM24.7527 36.3674C23.0686 36.671 21.8747 37.9651 20.8057 39.1239C20.5382 39.4139 20.2855 39.6879 20.0287 39.9445C18.4658 41.4293 17.0219 42.0798 15.7362 41.8783C14.1189 41.6246 12.5946 40.0925 10.9368 37.0528C10.8905 36.969 10.8468 36.8889 10.8046 36.8105C11.2674 35.6908 11.8245 34.784 12.4711 34.2087C12.4846 34.1967 12.4975 34.1843 12.5101 34.1714C13.0416 33.6251 13.4004 32.9767 13.5764 32.244C13.87 31.0178 13.6625 29.7622 13.0069 28.7991C12.4258 27.9453 11.5277 27.3935 10.4801 27.2454C9.20509 27.0618 8.06687 27.5689 7.26941 28.647C6.02242 25.1189 4.89017 21.1212 3.82237 16.4775C2.93875 12.6379 3.77078 9.71058 6.10529 8.44616C8.48134 7.15912 11.8313 8.01525 14.2512 10.528C14.5758 10.8654 14.8923 11.2107 15.2275 11.5762C15.3793 11.7418 15.5325 11.9088 15.6876 12.0764C14.5482 13.0573 13.8878 14.2614 13.7685 15.6001C13.6363 17.0867 14.1461 18.6902 15.2853 20.368C15.4819 20.6561 15.6872 20.9215 15.8962 21.1733C15.1551 21.5664 14.6127 22.1963 14.3263 23.018C13.702 24.8099 14.4198 27.2909 16.1119 29.191C18.1258 31.4572 21.8292 32.6925 24.7527 32.8441V36.3674ZM16.9472 22.3454C17.3318 22.7602 17.6963 23.1614 18.0202 23.6068C19.3658 25.4547 19.5771 27.5064 19.5422 29.9219C18.6411 29.4559 17.8345 28.8803 17.228 28.1979C15.9058 26.7131 15.2926 24.7852 15.7371 23.5096C15.939 22.9306 16.3457 22.5407 16.9472 22.3454ZM25.5108 31.3653C25.5077 31.3653 25.5047 31.3653 25.5017 31.3653C25.5011 31.3653 25.5004 31.3652 25.4998 31.3652C25.4992 31.3652 25.4985 31.3653 25.4979 31.3653C25.4948 31.3653 25.4918 31.3653 25.4887 31.3653C24.168 31.3836 22.5465 31.1113 21.024 30.5642C21.0999 28.1431 21.0667 25.2523 19.2283 22.7277C18.8162 22.1611 18.3582 21.6681 17.9152 21.1915C17.4135 20.6515 16.9395 20.1414 16.5203 19.5273C15.5809 18.1436 15.1559 16.8669 15.2568 15.7326C15.3435 14.7573 15.837 13.8929 16.7228 13.1555C18.7444 15.1642 21.2711 16.9695 25.4997 16.9695C29.7284 16.9695 32.2551 15.1641 34.2767 13.1553C35.0588 13.8062 35.5363 14.5559 35.696 15.3912C35.9251 16.589 35.5044 18.0191 34.4794 19.5268C34.0602 20.143 33.5851 20.6537 33.0824 21.1945C32.64 21.6702 32.1825 22.1622 31.7712 22.7275C29.9326 25.2526 29.8995 28.1437 29.9755 30.5649C28.4526 31.1124 26.8307 31.3849 25.5108 31.3653ZM35.2621 23.5096C35.7066 24.7852 35.0935 26.7131 33.7706 28.1985C33.1644 28.8806 32.3581 29.4562 31.457 29.9223C31.4222 27.5066 31.6334 25.4548 32.9791 23.6066C33.3029 23.1616 33.6676 22.7605 34.0527 22.3456C34.654 22.541 35.0605 22.9308 35.2621 23.5096ZM40.5213 27.2451C39.4717 27.3934 38.5735 27.9452 37.9924 28.7991C37.3368 29.7621 37.1293 31.0177 37.4231 32.2445C37.5981 32.9723 37.9562 33.6201 38.4878 34.1697C38.5009 34.1833 38.5145 34.1963 38.5285 34.2088C39.1753 34.7837 39.7326 35.6905 40.1953 36.8103C40.1512 36.893 40.107 36.9752 40.0633 37.0564C38.4054 40.0927 36.8805 41.6249 35.2642 41.8782C33.9789 42.0793 32.5345 41.4292 30.9706 39.9443C30.7139 39.6877 30.4611 39.4138 30.1937 39.1238C29.1247 37.965 27.9308 36.6709 26.2467 36.3673V32.8433C29.1695 32.6915 32.8734 31.4572 34.8869 29.1914C36.5796 27.2907 37.2973 24.8098 36.6731 23.0178C36.3869 22.1963 35.8448 21.5666 35.1041 21.1735C35.3132 20.9213 35.5185 20.6554 35.715 20.3667C36.9858 18.4974 37.4731 16.729 37.1636 15.1103C36.9422 13.9532 36.3205 12.9353 35.3136 12.0743C35.4681 11.9074 35.6207 11.741 35.7719 11.5761C36.1071 11.2106 36.4237 10.8652 36.7478 10.5283C39.168 8.01525 42.5178 7.15892 44.8941 8.44606C47.2287 9.71048 48.0607 12.6378 47.177 16.4775C46.1106 21.1144 44.9789 25.1103 43.7318 28.6409C42.6781 27.1956 41.3017 27.1327 40.5213 27.2451Z" fill="#134A85"/>
</g>
<defs>
<clipPath id="clip0_3056_10960">
<rect width="51" height="51" fill="white"/>
</clipPath>
</defs>
</svg>
