<svg width="51" height="51" viewBox="0 0 51 51" fill="none" xmlns="http://www.w3.org/2000/svg">
<path d="M25.5 38.251C28.5807 38.251 31.0781 35.7536 31.0781 32.6729C31.0781 29.5921 28.5807 27.0947 25.5 27.0947C22.4193 27.0947 19.9219 29.5921 19.9219 32.6729C19.9219 35.7536 22.4193 38.251 25.5 38.251Z" fill="#134A85" fill-opacity="0.8"/>
<path d="M46.8723 25.8357L42.8879 20.2576C41.7882 9.2129 35.8595 3.069 25.7949 2.44743C23.0712 2.27164 20.3401 2.64679 17.7646 3.55044C15.1892 4.4541 12.8224 5.86772 10.8057 7.70681C8.93239 9.43256 7.43166 11.5231 6.39567 13.8499C5.35969 16.1768 4.81033 18.6909 4.78133 21.2377C4.72357 24.4863 5.49888 27.6955 7.03335 30.5593C8.56781 33.4232 10.8103 35.8463 13.547 37.5976C16.5591 39.542 19.1251 44.2196 19.1251 47.8135C19.1251 48.0249 19.209 48.2276 19.3585 48.377C19.5079 48.5264 19.7106 48.6104 19.922 48.6104H31.0782C31.2895 48.6104 31.4922 48.5264 31.6417 48.377C31.7911 48.2276 31.8751 48.0249 31.8751 47.8135V42.9526C31.8756 42.3188 32.1279 41.7111 32.5763 41.2632C33.0242 40.8148 33.6319 40.5625 34.2657 40.562C37.756 40.562 39.9873 40.5062 41.326 39.1674C42.9198 37.5737 42.9198 34.7209 42.9198 28.4335L44.0673 27.9873L46.4579 27.039C46.5711 26.9959 46.673 26.9276 46.7559 26.8392C46.8387 26.7509 46.9003 26.6448 46.936 26.529C46.9785 26.4161 46.9949 26.2951 46.9839 26.175C46.9728 26.0549 46.9347 25.9389 46.8723 25.8357ZM34.7518 38.9682H34.2657C33.209 38.9682 32.1955 39.388 31.4483 40.1352C30.7011 40.8824 30.2813 41.8959 30.2813 42.9526V47.0167H26.297V34.1551C26.2991 31.6492 27.2955 29.2465 29.0674 27.4746C30.8393 25.7027 33.242 24.7063 35.7479 24.7042H36.0507C38.3363 24.7101 40.5494 25.5069 42.3141 26.9593L41.836 27.1506C41.6877 27.2096 41.5606 27.3118 41.4711 27.444C41.3816 27.5761 41.3338 27.7321 41.334 27.8917V28.2502V31.876H39.047C38.8356 31.876 38.6329 31.96 38.4835 32.1094C38.334 32.2589 38.2501 32.4616 38.2501 32.6729C38.2501 32.8842 38.334 33.0869 38.4835 33.2364C38.6329 33.3858 38.8356 33.4698 39.047 33.4698H41.2782C41.1826 35.8604 40.9276 37.3346 40.2184 38.0438C39.5091 38.7531 37.5887 38.9682 34.7518 38.9682ZM43.9796 26.2979C41.8424 24.2591 39.0044 23.1182 36.0507 23.1104H35.7479C32.82 23.1146 30.0131 24.2796 27.9428 26.35C25.8724 28.4203 24.7074 31.2272 24.7032 34.1551V47.0167H20.7188C20.3921 43.0323 17.7066 38.3546 14.4554 36.2588C11.9388 34.6583 9.8746 32.4393 8.45997 29.8137C7.04534 27.1881 6.32752 24.2437 6.37508 21.2617C6.40261 18.9308 6.90591 16.6302 7.85414 14.5008C8.80237 12.3714 10.1755 10.4581 11.8895 8.87821C13.7457 7.18169 15.9263 5.87851 18.2996 5.04721C20.673 4.21591 23.1901 3.8737 25.6993 4.04118C35.0626 4.61493 40.3459 10.1851 41.3579 20.6082C41.3693 20.7453 41.416 20.877 41.4934 20.9907L44.9837 25.9234L43.9796 26.2979Z" fill="#134A85"/>
</svg>
