<svg width="51" height="52" viewBox="0 0 51 52" fill="none" xmlns="http://www.w3.org/2000/svg">
<path d="M29.608 45.5996L28.123 46.636L20.0561 34.5395L4.61053 11.3751H12.8167L26.0347 30.0613C26.2822 30.4093 26.7617 30.4944 27.1098 30.2469C27.4578 29.9994 27.5429 29.5199 27.2954 29.1718L25.7021 26.9134L36.2905 11.0348C36.2905 11.0348 36.2905 11.0193 36.3059 11.0115C36.3059 11.0038 36.3214 10.9961 36.3214 10.9883C36.3369 10.9651 36.3446 10.9342 36.3524 10.911C36.3678 10.8801 36.3833 10.8491 36.391 10.8182C36.3988 10.7795 36.4065 10.7486 36.4142 10.7099C36.4142 10.679 36.422 10.648 36.422 10.6171C36.422 10.5784 36.422 10.5475 36.4142 10.5088C36.4142 10.4779 36.4142 10.4469 36.3988 10.416C36.391 10.3773 36.3756 10.3464 36.3601 10.3155C36.3524 10.2923 36.3446 10.269 36.3292 10.2458C36.3292 10.2458 36.3214 10.2381 36.3214 10.2304V10.2149L31.6808 2.48055C31.5416 2.24852 31.2863 2.10156 31.0156 2.10156H7.80482C7.53412 2.10156 7.27889 2.24078 7.13967 2.48055L2.49905 10.2072V10.2226C2.49905 10.2226 2.49132 10.2304 2.49132 10.2381C2.47585 10.2613 2.47585 10.2845 2.46038 10.3155C2.44491 10.3464 2.42944 10.3851 2.42171 10.416C2.42171 10.4469 2.41397 10.4779 2.40624 10.5088C2.40624 10.5475 2.3985 10.5784 2.3985 10.6171C2.3985 10.648 2.3985 10.679 2.40624 10.7099C2.40624 10.7486 2.41397 10.7795 2.42944 10.8182C2.43718 10.8491 2.45264 10.8801 2.46811 10.911C2.47585 10.9342 2.48358 10.9651 2.49905 10.9883C2.49905 10.9961 2.51452 11.0038 2.51452 11.0115C2.51452 11.0193 2.51452 11.027 2.52999 11.0348L13.1183 26.9211L2.52999 41.8639C2.41397 42.0341 2.36757 42.2429 2.3985 42.444C2.42944 42.6451 2.54546 42.8307 2.71561 42.9467L10.45 48.3608C10.5815 48.4536 10.7361 48.5 10.8908 48.5C10.9372 48.5 10.9836 48.5 11.0301 48.4845C11.2311 48.4459 11.4168 48.3298 11.5328 48.152L19.3986 36.3571L27.2645 48.152C27.3805 48.3221 27.5584 48.4459 27.7672 48.4845C27.8136 48.4923 27.86 48.5 27.9142 48.5C28.0689 48.5 28.2235 48.4536 28.355 48.3608L30.4897 46.868C30.8378 46.6206 30.9228 46.141 30.6831 45.793C30.4433 45.4449 29.956 45.3598 29.608 45.5996ZM14.7116 11.3751H24.1011L19.4064 18.0111L14.7116 11.3751ZM24.7431 25.5599L20.35 19.3492L25.9883 11.3751H34.1945L24.7353 25.5599H24.7431ZM8.24568 3.6407H30.5748L34.2873 9.82819H4.53319L8.24568 3.6407ZM10.6975 46.636L4.24702 42.1192L14.031 28.2901L18.4782 34.9649L10.6975 46.636Z" fill="#134A85"/>
<path d="M37.1953 26.0703C31.6498 26.0703 27.1406 30.5794 27.1406 36.125C27.1406 41.6705 31.6498 46.1797 37.1953 46.1797C42.7408 46.1797 47.25 41.6705 47.25 36.125C47.25 30.5794 42.7408 26.0703 37.1953 26.0703ZM37.1953 44.6328C32.5005 44.6328 28.6875 40.8197 28.6875 36.125C28.6875 31.4302 32.5005 27.6172 37.1953 27.6172C41.8901 27.6172 45.7031 31.4302 45.7031 36.125C45.7031 40.8197 41.8901 44.6328 37.1953 44.6328Z" fill="#134A85"/>
<path d="M42.3047 34.2578H39.5234V31.4766C39.5234 31.0941 39.2105 30.7812 38.8281 30.7812H36.0469C35.6645 30.7812 35.3516 31.0941 35.3516 31.4766V34.2578H32.5703C32.1879 34.2578 31.875 34.5707 31.875 34.9531V37.7344C31.875 38.1168 32.1879 38.4297 32.5703 38.4297H35.3516V41.2109C35.3516 41.5934 35.6645 41.9062 36.0469 41.9062H38.8281C39.2105 41.9062 39.5234 41.5934 39.5234 41.2109V38.4297H42.3047C42.6871 38.4297 43 38.1168 43 37.7344V34.9531C43 34.5707 42.6871 34.2578 42.3047 34.2578ZM41.6094 37.0391H38.8281C38.4457 37.0391 38.1328 37.352 38.1328 37.7344V40.5156H36.7422V37.7344C36.7422 37.352 36.4293 37.0391 36.0469 37.0391H33.2656V35.6484H36.0469C36.4293 35.6484 36.7422 35.3355 36.7422 34.9531V32.1719H38.1328V34.9531C38.1328 35.3355 38.4457 35.6484 38.8281 35.6484H41.6094V37.0391Z" fill="#134A85"/>
</svg>
