<svg width="51" height="51" viewBox="0 0 51 51" fill="none" xmlns="http://www.w3.org/2000/svg">
<path d="M29.608 45.0996L28.123 46.136L20.0561 34.0395L4.61053 10.8751H12.8167L26.0347 29.5613C26.2822 29.9093 26.7617 29.9944 27.1098 29.7469C27.4578 29.4994 27.5429 29.0199 27.2954 28.6718L25.7021 26.4134L36.2905 10.5348C36.2905 10.5348 36.2905 10.5193 36.3059 10.5115C36.3059 10.5038 36.3214 10.4961 36.3214 10.4883C36.3369 10.4651 36.3446 10.4342 36.3524 10.411C36.3678 10.3801 36.3833 10.3491 36.391 10.3182C36.3988 10.2795 36.4065 10.2486 36.4142 10.2099C36.4142 10.179 36.422 10.148 36.422 10.1171C36.422 10.0784 36.422 10.0475 36.4142 10.0088C36.4142 9.97788 36.4142 9.94694 36.3988 9.916C36.391 9.87733 36.3756 9.84639 36.3601 9.81545C36.3524 9.79225 36.3446 9.76905 36.3292 9.74585C36.3292 9.74585 36.3214 9.73811 36.3214 9.73038V9.71491L31.6808 1.98055C31.5416 1.74852 31.2863 1.60156 31.0156 1.60156H7.80482C7.53412 1.60156 7.27889 1.74078 7.13967 1.98055L2.49905 9.70717V9.72264C2.49905 9.72264 2.49132 9.73038 2.49132 9.73811C2.47585 9.76131 2.47585 9.78452 2.46038 9.81545C2.44491 9.84639 2.42944 9.88506 2.42171 9.916C2.42171 9.94694 2.41397 9.97788 2.40624 10.0088C2.40624 10.0475 2.3985 10.0784 2.3985 10.1171C2.3985 10.148 2.3985 10.179 2.40624 10.2099C2.40624 10.2486 2.41397 10.2795 2.42944 10.3182C2.43718 10.3491 2.45264 10.3801 2.46811 10.411C2.47585 10.4342 2.48358 10.4651 2.49905 10.4883C2.49905 10.4961 2.51452 10.5038 2.51452 10.5115C2.51452 10.5193 2.51452 10.527 2.52999 10.5348L13.1183 26.4211L2.52999 41.3639C2.41397 41.5341 2.36757 41.7429 2.3985 41.944C2.42944 42.1451 2.54546 42.3307 2.71561 42.4467L10.45 47.8608C10.5815 47.9536 10.7361 48 10.8908 48C10.9372 48 10.9836 48 11.0301 47.9845C11.2311 47.9459 11.4168 47.8298 11.5328 47.652L19.3986 35.8571L27.2645 47.652C27.3805 47.8221 27.5584 47.9459 27.7672 47.9845C27.8136 47.9923 27.86 48 27.9142 48C28.0689 48 28.2235 47.9536 28.355 47.8608L30.4897 46.368C30.8378 46.1206 30.9228 45.641 30.6831 45.293C30.4433 44.9449 29.956 44.8598 29.608 45.0996ZM14.7116 10.8751H24.1011L19.4064 17.5111L14.7116 10.8751ZM24.7431 25.0599L20.35 18.8492L25.9883 10.8751H34.1945L24.7353 25.0599H24.7431ZM8.24568 3.1407H30.5748L34.2873 9.32819H4.53319L8.24568 3.1407ZM10.6975 46.136L4.24702 41.6192L14.031 27.7901L18.4782 34.4649L10.6975 46.136Z" fill="#134A85"/>
<path d="M37.1953 25.5703C31.6498 25.5703 27.1406 30.0794 27.1406 35.625C27.1406 41.1705 31.6498 45.6797 37.1953 45.6797C42.7408 45.6797 47.25 41.1705 47.25 35.625C47.25 30.0794 42.7408 25.5703 37.1953 25.5703ZM37.1953 44.1328C32.5005 44.1328 28.6875 40.3197 28.6875 35.625C28.6875 30.9302 32.5005 27.1172 37.1953 27.1172C41.8901 27.1172 45.7031 30.9302 45.7031 35.625C45.7031 40.3197 41.8901 44.1328 37.1953 44.1328Z" fill="#134A85"/>
<path d="M42.3047 33.7578H39.5234V30.9766C39.5234 30.5941 39.2105 30.2812 38.8281 30.2812H36.0469C35.6645 30.2812 35.3516 30.5941 35.3516 30.9766V33.7578H32.5703C32.1879 33.7578 31.875 34.0707 31.875 34.4531V37.2344C31.875 37.6168 32.1879 37.9297 32.5703 37.9297H35.3516V40.7109C35.3516 41.0934 35.6645 41.4062 36.0469 41.4062H38.8281C39.2105 41.4062 39.5234 41.0934 39.5234 40.7109V37.9297H42.3047C42.6871 37.9297 43 37.6168 43 37.2344V34.4531C43 34.0707 42.6871 33.7578 42.3047 33.7578ZM41.6094 36.5391H38.8281C38.4457 36.5391 38.1328 36.852 38.1328 37.2344V40.0156H36.7422V37.2344C36.7422 36.852 36.4293 36.5391 36.0469 36.5391H33.2656V35.1484H36.0469C36.4293 35.1484 36.7422 34.8355 36.7422 34.4531V31.6719H38.1328V34.4531C38.1328 34.8355 38.4457 35.1484 38.8281 35.1484H41.6094V36.5391Z" fill="#134A85"/>
</svg>
