<svg width="51" height="51" viewBox="0 0 51 51" fill="none" xmlns="http://www.w3.org/2000/svg">
<path d="M44.0912 4.16118V0.713993C44.0912 0.319643 43.7716 0 43.3773 0C42.9829 0 42.6633 0.319643 42.6633 0.713993V4.02134H30.4658V0.713993C30.4658 0.319643 30.1461 0 29.7518 0C29.3575 0 29.0378 0.319643 29.0378 0.713993V4.26471C27.7276 4.78042 26.7969 6.06128 26.7969 7.55704V7.93924H25.2488C24.8545 7.93924 24.5349 8.25888 24.5349 8.65323V9.54099H24.5225C22.5246 9.54099 20.8992 11.1687 20.8992 13.1694V26.9961C20.8992 28.2088 19.9139 29.1955 18.7028 29.1955H13.9688C12.7583 29.1955 11.7735 28.2088 11.7735 26.9961V18.3498H12.6585C13.0529 18.3498 13.3725 18.0301 13.3725 17.6358V16.0477H16.3198C17.0567 16.0477 17.6563 15.4468 17.6563 14.7082V1.53945C17.6563 0.800901 17.0567 0.200014 16.3198 0.200014H5.70125C4.96432 0.200014 4.36475 0.800901 4.36475 1.53945V14.7082C4.36475 15.4468 4.96432 16.0477 5.70125 16.0477H8.74549V17.6358C8.74549 18.0301 9.06513 18.3498 9.45947 18.3498H10.3455V26.9961C10.3455 28.9962 11.9709 30.6235 13.9688 30.6235H18.7028C20.7012 30.6235 22.3271 28.9962 22.3271 26.9961V13.1694C22.3271 11.9561 23.3119 10.969 24.5225 10.969H24.5349V11.8568C24.5349 12.2511 24.8545 12.5708 25.2488 12.5708H26.7969V13.3676C26.7969 15.0886 28.0286 16.5255 29.6536 16.839C29.6927 17.4011 29.7222 17.9775 29.7509 18.5398C29.7945 19.3936 29.8356 20.1999 29.9058 20.8407C29.9267 21.0308 29.9191 21.2991 29.7648 21.4961C27.9741 23.7784 24.3986 32.0391 22.9445 35.4847C22.8005 35.8258 22.4572 36.0431 22.09 36.0302C21.6514 36.0125 21.4153 35.973 21.2944 35.9429L21.1335 35.9025C20.3843 35.7136 19.5353 35.4993 18.6155 35.7816C17.8095 36.0291 17.089 36.6155 16.413 37.5741C16.0665 38.0653 15.9567 38.3022 15.8395 38.5833C15.767 38.7573 15.6985 38.9217 15.4441 39.3062C15.1218 39.7932 14.66 40.2306 14.171 40.6938C13.9562 40.8972 13.7345 41.1072 13.5243 41.3231L12.7946 41.9429C11.9842 42.6313 11.6629 43.676 11.8722 44.6471C11.4105 44.7584 10.6957 44.9296 9.60818 45.188C8.39224 45.477 7.39918 46.3065 6.9522 47.4059C6.93576 47.4462 6.92037 47.4865 6.90573 47.5272C6.58928 48.4087 6.76718 49.3627 7.3815 50.0791C7.89148 50.6738 8.60669 51 9.3618 51C9.53014 51 9.70046 50.9839 9.87089 50.9508L10.1675 50.8933C13.8468 50.1804 17.2224 49.494 18.1041 48.9319C19.3205 48.1565 27.411 41.438 27.8383 41.083C28.1069 40.8714 36.479 34.2763 40.3892 31.032C41.7353 29.9157 42.6151 28.3385 42.8667 26.5908C43.0618 25.2331 43.3062 23.0725 43.5647 20.7851C43.7146 19.4603 43.8689 18.0958 44.0251 16.7823C45.5265 16.3778 46.6355 15.0005 46.6355 13.3676V7.55704C46.6355 5.94825 45.5589 4.58794 44.0912 4.16118ZM5.79269 1.628H16.2284V14.6197H5.79269V1.628ZM10.1734 16.0477H11.9446V16.9218H10.1734V16.0477ZM33.0517 15.4753V5.44933H34.73V15.4753H33.0517ZM25.9628 11.1428V9.36722H26.7969V11.1428H25.9628ZM28.2248 13.3676V11.8607C28.2248 11.8594 28.225 11.8581 28.225 11.8568C28.225 11.8555 28.2248 11.8542 28.2248 11.8528V8.65718C28.2248 8.65585 28.225 8.65456 28.225 8.65323C28.225 8.6519 28.2248 8.65062 28.2248 8.64928V7.55704C28.2248 6.39486 29.1645 5.44933 30.3196 5.44933H31.6238V15.4753H30.3196C29.1645 15.4753 28.2248 14.5298 28.2248 13.3676ZM41.4533 26.3875C41.2523 27.7839 40.5507 29.043 39.4776 29.9329C35.5373 33.2022 27.0333 39.8994 26.9478 39.9667C26.9453 39.9687 26.9431 39.9709 26.9406 39.9729C26.9382 39.9749 26.9356 39.9765 26.9332 39.9785C24.5869 41.9281 18.289 47.1207 17.3365 47.7279C16.611 48.1903 11.9053 49.1021 9.89589 49.4913L9.59896 49.5489C9.1744 49.6312 8.75052 49.482 8.46545 49.1495C8.18551 48.8231 8.10687 48.4076 8.24956 48.0101C8.25728 47.9885 8.2655 47.9669 8.27461 47.9446C8.54852 47.271 9.17046 46.7599 9.93832 46.5774C11.3449 46.2431 12.1268 46.055 12.5476 45.953C13.0236 46.4851 13.692 46.8167 14.4072 46.8692C14.4743 46.8741 14.5413 46.8766 14.6082 46.8766C15.3102 46.8766 15.9931 46.6076 16.5072 46.1228L20.1986 42.6414C20.4854 42.3708 20.4987 41.9189 20.2282 41.632C19.9576 41.3453 19.5058 41.3319 19.2189 41.6024L15.5274 45.0839C15.251 45.3446 14.89 45.4725 14.5118 45.445C14.1331 45.4172 13.7948 45.2377 13.5589 44.9386L13.5327 44.9056C13.0781 44.3295 13.1599 43.5062 13.7189 43.0312L14.4748 42.3893C14.4926 42.3742 14.5096 42.3583 14.5258 42.3414C14.7216 42.139 14.9311 41.9406 15.1529 41.7306C15.6787 41.2325 16.2225 40.7175 16.6349 40.0941C16.9641 39.5965 17.0668 39.3502 17.1575 39.133C17.2355 38.9458 17.2972 38.7979 17.5799 38.397C18.0667 37.7068 18.5425 37.2978 19.0345 37.1467C19.5726 36.9814 20.1341 37.1231 20.7842 37.2871L20.9497 37.3286C21.2233 37.3967 21.5775 37.4387 22.0327 37.4569C22.9915 37.499 23.8859 36.926 24.26 36.04C25.3771 33.3929 29.1567 24.5845 30.8887 22.377C31.2457 21.9211 31.3967 21.3359 31.3253 20.685C31.2596 20.0855 31.2195 19.2994 31.177 18.4671C31.1507 17.9515 31.1231 17.4247 31.0886 16.9032H42.5729C42.428 18.1308 42.285 19.3946 42.1459 20.6246C41.8885 22.9011 41.6453 25.0512 41.4533 26.3875ZM45.2075 13.3676C45.2075 14.5298 44.2678 15.4753 43.1127 15.4753H36.1579V5.44933H43.1127C44.2678 5.44933 45.2075 6.39486 45.2075 7.55704V13.3676Z" fill="#134A85"/>
<path d="M14.3702 2.62891H7.39366C6.99932 2.62891 6.67969 2.94855 6.67969 3.3429V9.06799C6.67969 9.46234 6.99932 9.78198 7.39366 9.78198H14.3702C14.7645 9.78198 15.0841 9.46234 15.0841 9.06799V3.3429C15.0841 2.94855 14.7645 2.62891 14.3702 2.62891ZM13.6562 8.354H8.10763V4.05689H13.6562V8.354Z" fill="#134A85"/>
</svg>
