<svg width="51" height="51" viewBox="0 0 51 51" fill="none" xmlns="http://www.w3.org/2000/svg">
<path d="M42.1746 21.0576C40.541 18.2187 38.2301 15.7982 35.4709 14.0352C35.1422 13.826 34.7139 13.9256 34.5047 14.2443C34.2955 14.573 34.3951 15.0014 34.7139 15.2105C37.0646 16.7047 39.0568 18.7168 40.551 21.0676C38.25 21.2768 36.1881 22.3027 34.6441 23.8566C32.4428 20.8086 29.0262 18.926 25.2609 18.7168L25.3406 12.2621C26.4961 12.3119 27.6416 12.4613 28.7572 12.7203C29.1357 12.81 29.5043 12.5709 29.5939 12.1924C29.6836 11.8139 29.4445 11.4453 29.066 11.3557C27.6217 11.027 26.1375 10.8576 24.6533 10.8477C24.2748 10.8477 23.9561 11.1564 23.9561 11.535L23.9361 12.9793C22.6412 13.0191 21.3562 13.1984 20.1111 13.5172L19.7625 12.1326C19.7127 11.9533 19.5932 11.7939 19.4338 11.6943C19.2744 11.6047 19.0752 11.5748 18.8959 11.6246C13.4273 13.1984 8.83535 17.0434 6.29531 22.1633C6.13594 22.482 6.24551 22.8605 6.54434 23.0598L7.83926 23.9064C6.93281 25.9883 6.43477 28.1896 6.34512 30.4707H0.697266C0.308789 30.4707 0 30.7795 0 31.168C0 31.5564 0.308789 31.8652 0.697266 31.8652H21.4559C21.5654 32.0545 21.675 32.2438 21.7846 32.433C21.8045 32.4629 21.8244 32.4928 21.8443 32.5227C22.3424 33.5088 23.3684 34.1861 24.5437 34.1861C25.9682 34.1861 27.1635 33.19 27.4822 31.8652H31.9646C32.5922 36.527 36.6064 40.1428 41.4375 40.1428C43.9277 40.1428 46.2885 39.1865 48.0814 37.4533C48.3604 37.1844 48.3703 36.7461 48.1014 36.4672C47.8324 36.1883 47.3941 36.1783 47.1152 36.4473C45.5812 37.9314 43.5691 38.7383 41.4375 38.7383C36.9352 38.7383 33.2695 35.0727 33.2695 30.5703C33.2695 26.068 36.9352 22.4023 41.4375 22.4023C45.9398 22.4023 49.6055 26.068 49.6055 30.5703V30.7695C49.6055 31.158 49.9143 31.4668 50.3027 31.4668C50.6912 31.4668 51 31.158 51 30.7695V30.5703C51 25.5699 47.1053 21.4361 42.1746 21.0576ZM23.9361 14.3838L23.9062 16.5154C22.9102 16.5553 21.934 16.6947 20.9777 16.9338L20.4598 14.8719C21.5953 14.593 22.7607 14.4236 23.9361 14.3838ZM18.5971 13.1984L20.1709 19.4937C19.6131 19.7029 19.0752 19.952 18.5572 20.2309C17.9098 19.5436 17.2324 18.8164 16.5053 18.0395C16.1666 17.6809 15.6188 17.6012 15.2004 17.8502L15.1008 17.91C14.9912 17.9697 14.8617 18.0494 14.7023 18.149C14.2143 18.4379 14.0449 19.0854 14.3238 19.5734C14.6227 20.1014 15.1307 20.9879 15.8479 22.223C14.792 23.259 13.9154 24.4742 13.2779 25.799L7.83926 22.2529C10.1402 17.9697 14.0051 14.7125 18.5971 13.1984ZM21.8643 29.8033C18.6768 24.3447 16.6846 20.8883 15.7781 19.2945C19.7127 23.4881 22.432 26.4564 24.0158 28.2096C23.0695 28.3789 22.2826 28.9766 21.8643 29.8033ZM9.03457 24.6934L10.8574 25.8787C10.3195 27.2932 10.0107 28.8371 9.94102 30.4807H7.74961C7.8293 28.4785 8.26758 26.5361 9.03457 24.6934ZM11.3355 30.4807C11.3953 29.1061 11.6244 27.851 12.0527 26.6656L13.2082 27.4227C13.3277 27.5023 13.4572 27.5322 13.5867 27.5322C13.6564 27.5322 13.7262 27.5223 13.7959 27.5023C13.9951 27.4426 14.1545 27.2932 14.2342 27.0939C14.7621 25.7592 15.5689 24.524 16.575 23.4781C17.6109 25.2611 18.9557 27.592 20.649 30.4807H11.3355ZM24.5437 32.8016C23.6473 32.8016 22.9201 32.0744 22.9201 31.1779C22.9201 30.2814 23.6473 29.5543 24.5437 29.5543C25.4402 29.5543 26.1674 30.2814 26.1674 31.1779C26.1674 32.0744 25.4402 32.8016 24.5437 32.8016ZM31.875 30.4807H27.4723C27.3129 29.7934 26.9145 29.1957 26.3666 28.7773C26.3367 28.7275 26.3068 28.6877 26.277 28.6479C25.3805 27.6518 23.1691 25.1914 19.5334 21.2768C20.0713 21.0078 20.6291 20.7787 21.2068 20.5994C21.5555 20.4898 21.7646 20.1213 21.675 19.7627L21.3064 18.2885C22.1432 18.0793 23.0098 17.9498 23.8863 17.91L23.8664 19.3842C23.8664 19.5734 23.9361 19.7527 24.0656 19.8822C24.1951 20.0117 24.3744 20.0914 24.5637 20.0914C28.2691 20.1014 31.6559 21.9043 33.7178 24.9523C32.5822 26.5063 31.9049 28.4188 31.875 30.4807ZM39.8039 37.274C39.8836 37.3039 39.9633 37.3139 40.043 37.3139C40.282 37.3139 40.5211 37.1844 40.6506 36.9652L44.8342 29.7436C44.9637 29.5244 44.9637 29.2555 44.8242 29.0363C44.6947 28.8172 44.4557 28.6877 44.1967 28.6977L42.832 28.7475L43.4396 24.6535C43.4895 24.3248 43.3002 24.0061 42.9814 23.8965C42.6627 23.7869 42.3141 23.9064 42.1447 24.1953L38.0607 31.0783C37.9313 31.2975 37.9313 31.5664 38.0508 31.7756C38.1703 31.9947 38.4094 32.1242 38.6584 32.1242H40.0728L39.3557 36.4871C39.2959 36.8357 39.4852 37.1645 39.8039 37.274ZM39.8836 30.7496L41.5271 27.9805L41.318 29.385C41.2881 29.5941 41.3479 29.8033 41.4873 29.9527C41.6268 30.1021 41.826 30.1918 42.0352 30.1818L42.9814 30.142L41.3479 32.9609L41.577 31.5564C41.6068 31.3572 41.557 31.148 41.4176 30.9887C41.2881 30.8293 41.0889 30.7396 40.8896 30.7396H39.8836V30.7496Z" fill="#134A85"/>
</svg>
