<svg width="51" height="51" viewBox="0 0 51 51" fill="none" xmlns="http://www.w3.org/2000/svg">
<path d="M18.0547 31.7871C18.6415 31.7912 19.2769 31.9644 19.7418 32.3681C20.1667 32.7367 20.627 33.4343 20.4078 34.6629C20.3672 34.8908 20.335 35.2993 20.5722 35.4738C20.7179 35.5801 20.9477 35.5869 21.1326 35.4903C21.2238 35.4411 21.3239 35.4105 21.427 35.4003C21.5301 35.3901 21.6343 35.4005 21.7334 35.4308C21.8324 35.4612 21.9245 35.511 22.0042 35.5772C22.0839 35.6435 22.1496 35.7249 22.1976 35.8168C22.2455 35.9086 22.2748 36.0091 22.2836 36.1124C22.2924 36.2156 22.2806 36.3196 22.2489 36.4183C22.2171 36.5169 22.1661 36.6083 22.0988 36.6871C22.0315 36.7659 21.9492 36.8305 21.8567 36.8772C21.4415 37.0943 20.967 37.1705 20.5047 37.0943C20.1944 37.0434 19.9004 36.9205 19.6463 36.7353C18.9734 36.2413 18.6894 35.3858 18.8673 34.3883C18.9402 33.9819 18.8889 33.6998 18.7159 33.5497C18.4633 33.3311 17.9499 33.3132 17.6929 33.3975" stroke="#134A85" stroke-width="1.2" stroke-linecap="round" stroke-linejoin="round"/>
<path d="M28.5387 35.9252C28.5168 36.1073 28.5095 36.0264 28.478 36.2135C28.1866 37.9668 28.7695 39.72 28.1866 41.0349C27.8904 41.7024 27.6038 42.496 27.6038 43.5188C27.6038 43.5188 27.458 43.9571 27.1666 43.5188C26.749 42.969 25.8406 43.0826 25.5256 43.5188C25.2342 43.9571 25.0884 43.5188 25.0884 43.5188C25.0884 42.496 24.8011 41.7026 24.5056 41.0349C23.9227 39.72 24.5056 37.9668 24.2142 36.2135C24.0916 35.4998 24.0296 34.7769 24.0288 34.0527" stroke="#134A85" stroke-width="1.2" stroke-linecap="round" stroke-linejoin="round"/>
<path d="M10.7993 15.3975C10.4031 15.9646 10.1975 16.6432 10.2123 17.3349C10.2272 18.0266 10.4617 18.6957 10.8819 19.2453C10.6319 19.7182 10.5019 20.2453 10.5033 20.7802C10.5047 21.3151 10.6375 21.8415 10.89 22.3131C10.4615 22.8139 10.1863 23.4274 10.0972 24.0805C10.008 24.7335 10.1086 25.3983 10.3871 25.9957C9.90583 26.6293 9.63994 27.4002 9.62833 28.1958C9.61671 28.9914 9.85998 29.7697 10.3225 30.4171C10.1495 30.8682 10.0609 31.3474 10.0613 31.8305C10.0613 34.0093 11.8244 35.7753 13.9999 35.7753C16.1754 35.7753 17.938 34.0087 17.938 31.8301C17.9393 30.8638 17.5847 29.9309 16.942 29.2093C17.0752 28.7077 17.1023 28.184 17.0215 27.6714C16.9408 27.1588 16.754 26.6687 16.4731 26.2323C16.7791 25.6906 16.9321 25.0759 16.9158 24.4539C16.8994 23.832 16.7143 23.2262 16.3803 22.7012C16.7972 22.1329 17.0188 21.4447 17.0118 20.7399C17.0048 20.035 16.7696 19.3514 16.3416 18.7914C16.6005 18.3019 16.7306 17.7544 16.7195 17.2007C16.7085 16.647 16.5566 16.1052 16.2783 15.6264" stroke="#134A85" stroke-width="1.2" stroke-linecap="round" stroke-linejoin="round" stroke-dasharray="14.57 2 2 2 14.57 14.57 2 2"/>
<path d="M34.8647 16.973C34.8642 17.4455 34.9667 17.9125 35.165 18.3414C35.3632 18.7703 35.6525 19.1509 36.0128 19.4567C35.4352 19.9479 35.0469 20.6251 34.9146 21.3718C34.7824 22.1184 34.9144 22.8878 35.2882 23.5476C34.9328 24.175 34.7954 24.9024 34.8975 25.6162C34.9995 26.3299 35.3353 26.9897 35.8522 27.4924C35.3617 27.9697 35.0337 28.5892 34.9145 29.2633C34.7953 29.9373 34.8911 30.6317 35.1882 31.2483C34.7192 31.6313 34.3661 32.1373 34.1682 32.7095C33.7091 32.0886 33.0438 31.6514 32.2917 31.4765C31.5395 31.3015 30.7496 31.4001 30.0636 31.7547C29.7411 30.2933 28.4421 29.2004 26.8866 29.2004C25.0893 29.2004 23.6323 30.6598 23.6323 32.4598C23.6323 34.2598 25.0895 35.7191 26.8866 35.7191C27.4054 35.7196 27.9168 35.5952 28.3775 35.3566C28.6994 36.8175 29.9992 37.9107 31.5541 37.9107C31.8719 37.9107 32.1879 37.8642 32.4922 37.7725C32.7888 38.2195 33.1914 38.5862 33.6641 38.8397C34.1369 39.0933 34.665 39.2258 35.2015 39.2256C36.6943 39.2256 37.9515 38.2184 38.3343 36.8456C38.765 36.6914 39.1584 36.4483 39.489 36.1322C39.8197 35.8161 40.0802 35.434 40.2537 35.0107C40.4272 34.5875 40.5097 34.1325 40.496 33.6752C40.4824 33.218 40.3727 32.7687 40.1742 32.3566C40.5304 32.0658 40.821 31.7031 41.0271 31.2921C41.2332 30.8811 41.35 30.4311 41.3699 29.9718C41.3899 29.5125 41.3125 29.0541 41.1428 28.6268C40.9731 28.1995 40.715 27.8129 40.3854 27.4924C40.9023 26.9897 41.238 26.3299 41.3401 25.6162C41.4422 24.9024 41.3048 24.175 40.9494 23.5476C41.3231 22.8878 41.4552 22.1184 41.3229 21.3718C41.1907 20.6252 40.8024 19.948 40.2248 19.4567C40.5577 19.1735 40.8302 18.8263 41.0263 18.4357C41.2223 18.0451 41.3379 17.6192 41.3661 17.1831C41.3944 16.747 41.3347 16.3096 41.1906 15.897C41.0465 15.4844 40.821 15.105 40.5275 14.7813C41.0173 14.2409 41.312 13.5519 41.3646 12.8244C41.4171 12.0969 41.2245 11.3728 40.8174 10.7676" stroke="#134A85" stroke-width="1.2" stroke-linecap="round" stroke-linejoin="round"/>
<path d="M27.0081 18.7824C27.1965 18.6742 27.3704 18.5426 27.5257 18.3906C27.9468 18.6757 28.4438 18.8277 28.9523 18.8269C29.9027 18.8269 30.73 18.3055 31.1697 17.5338C31.7582 17.8293 32.4383 17.8851 33.0671 17.6894C33.6958 17.4937 34.2242 17.0619 34.5411 16.4847C34.5746 16.486 34.6076 16.4898 34.6414 16.4898C35.8492 16.4898 36.8587 15.6487 37.1239 14.52C37.6368 14.3985 38.0996 14.1213 38.4488 13.7264C38.798 13.3316 39.0165 12.8384 39.0744 12.3145C40.1739 12.0295 40.9869 11.0322 40.9869 9.842C40.9869 8.42989 39.844 7.28516 38.4342 7.28516C37.1192 7.28516 36.0373 8.28126 35.8976 9.56107C35.4481 9.6782 35.0391 9.91564 34.7145 10.2478C34.3899 10.58 34.162 10.9944 34.0553 11.4465C33.7088 11.5284 33.3832 11.6818 33.0994 11.8969C32.8156 12.112 32.5799 12.384 32.4074 12.6955C32.3739 12.6942 32.341 12.6904 32.3072 12.6904C31.3567 12.6904 30.5295 13.2118 30.0897 13.9835C29.616 13.7454 29.0797 13.6616 28.556 13.7437C28.0322 13.8258 27.5473 14.0698 27.1693 14.4415C26.6859 14.1149 26.105 13.9641 25.5238 14.0145C24.9425 14.0649 24.3962 14.3134 23.9763 14.7183C23.51 14.1079 22.7769 13.7129 21.95 13.7129C21.4184 13.7127 20.9002 13.8796 20.4686 14.19C20.0178 13.4658 19.2178 12.9823 18.303 12.9823C18.1254 12.9824 17.9484 13.001 17.7747 13.0378C17.4172 12.0805 16.5055 11.3958 15.4294 11.3767C14.9946 10.5923 13.6977 10.2851 12.6238 10.6118C11.2219 11.0383 9.39667 12.6397 10.7993 15.3974" stroke="#134A85" stroke-width="1.2" stroke-linecap="round" stroke-linejoin="round"/>
<path d="M16.7715 17.583C17.2042 17.9098 17.7301 18.0896 18.2722 18.0961C18.8144 18.1026 19.3445 17.9355 19.7849 17.6191C20.2356 18.3433 21.0357 18.8268 21.9505 18.8268C22.6096 18.827 23.2431 18.571 23.717 18.1128C23.8452 18.2809 23.9937 18.4326 24.1589 18.5645" stroke="#134A85" stroke-width="1.2" stroke-linecap="round" stroke-linejoin="round"/>
<path d="M10.3315 30.3927C10.4469 30.0951 10.5981 29.8127 10.7818 29.5518" stroke="#134A85" stroke-width="1.2" stroke-linecap="round" stroke-linejoin="round"/>
<path d="M16.2891 28.6455C16.5196 28.8117 16.7316 29.0022 16.9213 29.2138" stroke="#134A85" stroke-width="1.2" stroke-linecap="round" stroke-linejoin="round"/>
<path d="M13.6567 14.7001C14.2079 14.7001 14.6547 14.2533 14.6547 13.7021C14.6547 13.1509 14.2079 12.7041 13.6567 12.7041C13.1055 12.7041 12.6587 13.1509 12.6587 13.7021C12.6587 14.2533 13.1055 14.7001 13.6567 14.7001Z" stroke="#134A85" stroke-width="1.2" stroke-linecap="round" stroke-linejoin="round" stroke-dasharray="14.57 2 2 2 14.57 14.57 2 2"/>
<path d="M13.6567 21.4188C14.2079 21.4188 14.6547 20.972 14.6547 20.4208C14.6547 19.8697 14.2079 19.4229 13.6567 19.4229C13.1055 19.4229 12.6587 19.8697 12.6587 20.4208C12.6587 20.972 13.1055 21.4188 13.6567 21.4188Z" stroke="#134A85" stroke-width="1.2" stroke-linecap="round" stroke-linejoin="round" stroke-dasharray="14.57 2 2 2 14.57 14.57 2 2"/>
<path d="M35.2314 36.7724C35.7826 36.7724 36.2294 36.3255 36.2294 35.7744C36.2294 35.2232 35.7826 34.7764 35.2314 34.7764C34.6802 34.7764 34.2334 35.2232 34.2334 35.7744C34.2334 36.3255 34.6802 36.7724 35.2314 36.7724Z" stroke="#134A85" stroke-width="1.2" stroke-linecap="round" stroke-linejoin="round" stroke-dasharray="14.57 2 2 2 14.57 14.57 2 2"/>
<path d="M12.4233 17.21H13.0837" stroke="#134A85" stroke-width="1.2" stroke-linecap="round" stroke-linejoin="round"/>
<path d="M17.939 15.3975H18.5993" stroke="#134A85" stroke-width="1.2" stroke-linecap="round" stroke-linejoin="round"/>
<path d="M32.1724 15.0488H32.8329" stroke="#134A85" stroke-width="1.2" stroke-linecap="round" stroke-linejoin="round"/>
<path d="M31.6137 26.7464H19.3877L25.5007 16.4141L31.6137 26.7464Z" stroke="#134A85" stroke-width="1.2" stroke-linecap="round" stroke-linejoin="round"/>
<path d="M25.5005 24.6956V20.3027" stroke="#134A85" stroke-width="1.2" stroke-linecap="round" stroke-linejoin="round"/>
</svg>
