<svg width="51" height="51" viewBox="0 0 51 51" fill="none" xmlns="http://www.w3.org/2000/svg">
<g clip-path="url(#clip0_3056_11108)">
<path d="M6.24458 33.0608C6.49749 33.0608 6.73775 32.9403 6.88875 32.733C7.05729 32.5014 7.08867 32.1971 6.97073 31.936L6.35246 30.5666L9.95662 30.9719C10.3952 31.0213 10.7885 30.7064 10.8377 30.269C10.8868 29.8317 10.5722 29.4373 10.1348 29.3881L5.13902 28.8262C4.85403 28.7945 4.57423 28.9175 4.40569 29.149C4.23715 29.3806 4.20577 29.6849 4.32371 29.946L4.94199 31.3154L0.885994 30.8593C0.448609 30.8105 0.0542557 31.1248 0.00504865 31.5622C-0.0440588 31.9996 0.270607 32.3939 0.707992 32.4431L6.15543 33.0557C6.18531 33.0591 6.2151 33.0607 6.24468 33.0607L6.24458 33.0608Z" fill="#134A85"/>
<path d="M10.2657 33.7226L5.76672 35.9663C5.51033 36.0942 5.34229 36.3498 5.32665 36.6359C5.31101 36.922 5.45007 37.1944 5.69092 37.3495L6.95427 38.1629L3.30179 39.9845C2.90794 40.1809 2.74786 40.6594 2.94429 41.0532C3.08375 41.3329 3.36544 41.4947 3.65799 41.4947C3.77753 41.4947 3.89885 41.4677 4.013 41.4107L8.91876 38.9641C9.17516 38.8362 9.3432 38.5806 9.35884 38.2945C9.37448 38.0084 9.23542 37.736 8.99457 37.5809L7.73122 36.7675L10.9769 35.1488C11.3707 34.9524 11.5308 34.4739 11.3344 34.0801C11.1379 33.6862 10.6593 33.5262 10.2657 33.7226Z" fill="#134A85"/>
<path d="M5.0564 25.3858C5.2346 25.61 5.51938 25.7215 5.80267 25.6773C6.08576 25.6332 6.32343 25.4406 6.42503 25.1727L6.95844 23.7681L9.21569 26.607C9.37297 26.8048 9.60536 26.9079 9.83994 26.9079C10.0138 26.9079 10.1888 26.8514 10.3354 26.7347C10.6799 26.4608 10.7371 25.9596 10.4632 25.615L7.33436 21.6798C7.15616 21.4557 6.87158 21.3447 6.58809 21.3884C6.305 21.4324 6.06733 21.6251 5.96573 21.8929L5.43232 23.2975L2.89228 20.1027C2.61846 19.7582 2.11712 19.7011 1.77268 19.9748C1.42813 20.2488 1.37095 20.7501 1.64488 21.0945L5.0565 25.3855L5.0564 25.3858Z" fill="#134A85"/>
<path d="M20.552 41.8108C19.9759 38.7381 18.9082 36.7398 17.9661 34.9768C16.8043 32.8025 15.8009 30.9248 15.8237 27.4405C15.8461 24.0035 18.1416 17.1142 19.9859 11.5786L20.301 10.6325C22.9481 2.67151 23.4846 1.06491 23.4898 1.04957C23.6291 0.632106 23.4039 0.180677 22.9864 0.0412234C22.569 -0.0981301 22.1176 0.127286 21.9781 0.54455C21.9729 0.559889 21.4364 2.16639 18.7885 10.1295L18.4739 11.0747C16.5937 16.7173 14.2539 23.7398 14.2299 27.43C14.2045 31.319 15.3488 33.4606 16.5604 35.7279C17.4916 37.4706 18.4545 39.2728 18.9855 42.1045C19.5095 44.8989 20.1612 47.696 20.9226 50.418C21.021 50.7701 21.341 51.0004 21.6896 51.0004C21.7606 51.0004 21.8328 50.9908 21.9046 50.9707C22.3284 50.8522 22.5759 50.4125 22.4573 49.9886C21.7085 47.3112 21.0674 44.5597 20.5519 41.8107L20.552 41.8108Z" fill="#134A85"/>
<path d="M50.5992 0.10533C50.217 -0.113312 49.7302 0.0194671 49.5118 0.401469C49.4613 0.489623 44.4251 9.30884 40.6141 17.119C40.4211 17.5146 40.5852 17.9916 40.9809 18.1846C41.0933 18.2395 41.2124 18.2655 41.3297 18.2655C41.6248 18.2655 41.9084 18.101 42.0464 17.8179C45.8341 10.0555 50.845 1.28042 50.8952 1.19267C51.1136 0.810665 50.9812 0.323774 50.5992 0.10533Z" fill="#134A85"/>
<path d="M39.5014 35.0745C38.4932 33.1857 37.8271 31.9378 37.8271 28.7322C37.8271 27.8926 38.3228 25.8151 40.6837 20.6859C40.8678 20.2861 40.6929 19.8129 40.2931 19.6289C39.8936 19.4448 39.4201 19.6197 39.2361 20.0196C37.2156 24.4088 36.2334 27.2588 36.2334 28.7322C36.2334 32.3366 37.0551 33.876 38.0953 35.825C38.979 37.4808 40.0789 39.5415 41.0678 43.7231C41.46 45.3811 41.608 50.1787 41.6095 50.2269C41.6225 50.6586 41.9766 50.9999 42.4056 50.9999C42.4137 50.9999 42.4217 50.9999 42.4299 50.9996C42.8698 50.9863 43.2157 50.6191 43.2025 50.1792C43.1964 49.9756 43.048 45.1708 42.6189 43.3563C41.5824 38.9735 40.4285 36.8117 39.5014 35.0746V35.0745Z" fill="#134A85"/>
<path d="M19.4136 34.6339C19.5662 34.6471 19.722 34.6542 19.8768 34.6548H19.8804C20.3188 34.6548 20.6752 34.3003 20.6772 33.8614C20.6792 33.4213 20.3239 33.063 19.8838 33.061C19.7724 33.0605 19.6606 33.0554 19.5513 33.046C19.1118 33.008 18.7265 33.3326 18.6886 33.7709C18.6504 34.2094 18.9751 34.5957 19.4136 34.6338L19.4136 34.6339Z" fill="#134A85"/>
<path d="M24.1317 31.4428C23.7884 31.1675 23.2869 31.2226 23.0116 31.566C22.8623 31.7523 22.6951 31.9262 22.5148 32.0832C22.1829 32.3721 22.1481 32.8755 22.4371 33.2075C22.5946 33.3884 22.816 33.4812 23.0384 33.4812C23.224 33.4812 23.4103 33.4167 23.5613 33.2854C23.8131 33.0661 24.0465 32.8232 24.255 32.5631C24.5304 32.2197 24.4752 31.7182 24.1318 31.4429L24.1317 31.4428Z" fill="#134A85"/>
<path d="M24.3857 27.235C23.9565 27.3328 23.6879 27.7599 23.7857 28.189C23.8383 28.4203 23.8704 28.659 23.8809 28.8982C23.8996 29.326 24.2523 29.6602 24.6763 29.6602C24.688 29.6602 24.6998 29.66 24.7117 29.6594C25.1514 29.6402 25.4922 29.2682 25.473 28.8285C25.4585 28.4937 25.4134 28.1595 25.3395 27.835C25.2418 27.4059 24.8149 27.1371 24.3857 27.2349V27.235Z" fill="#134A85"/>
<path d="M23.1728 24.5587C22.9022 24.3625 22.6125 24.1898 22.3118 24.0454C21.915 23.855 21.439 24.0223 21.2486 24.419C21.0581 24.8157 21.2254 25.2918 21.6221 25.4822C21.8368 25.5853 22.0437 25.7085 22.237 25.8488C22.3784 25.9513 22.542 26.0006 22.7042 26.0006C22.9509 26.0006 23.1941 25.8864 23.3498 25.6715C23.6083 25.3152 23.5289 24.8169 23.1727 24.5585L23.1728 24.5587Z" fill="#134A85"/>
<path d="M19.3715 24.2573C19.2525 23.8337 18.8128 23.5866 18.3887 23.7057C18.2405 23.7474 18.0919 23.796 17.9469 23.8502C17.5346 24.0041 17.3253 24.4632 17.4793 24.8755C17.599 25.1959 17.903 25.3937 18.2259 25.3937C18.3186 25.3937 18.4128 25.3775 18.5047 25.3431C18.6082 25.3044 18.7143 25.2698 18.8201 25.24C19.2437 25.121 19.4906 24.6809 19.3715 24.2573Z" fill="#134A85"/>
</g>
<defs>
<clipPath id="clip0_3056_11108">
<rect width="51" height="51" fill="white"/>
</clipPath>
</defs>
</svg>
