<svg width="51" height="51" viewBox="0 0 51 51" fill="none" xmlns="http://www.w3.org/2000/svg">
<g clip-path="url(#clip0_3065_7584)">
<path d="M50.9742 21.0776C50.8327 20.0922 50.1458 19.326 49.1816 19.0783L47.2749 18.5882L49.4312 15.6377C49.8999 14.9963 49.9679 14.1962 49.6132 13.4977C49.2597 12.8014 48.5343 12.3516 47.7653 12.3516C47.3138 12.3516 46.8801 12.5012 46.511 12.7844L38.6785 18.7912C37.9379 19.3592 37.5936 20.2804 37.7802 21.1951C37.967 22.1098 38.6445 22.8223 39.5486 23.0546L40.4771 23.2933L38.1357 25.7425C37.5545 26.3504 37.3965 27.203 37.7234 27.9677C38.0528 28.7387 38.7973 29.2368 39.6198 29.2368C39.9879 29.2368 40.3551 29.1341 40.6814 28.9399L49.8171 23.5009C50.6723 22.9915 51.1158 22.0631 50.9742 21.0776ZM49.0527 22.217L39.9171 27.6559C39.8218 27.7126 39.719 27.7426 39.6198 27.7426C39.3963 27.7426 39.1913 27.6005 39.0972 27.3803C39.0081 27.1718 39.0523 26.9455 39.2155 26.7748L42.4384 23.4034C42.6218 23.2117 42.6896 22.9372 42.6168 22.6821C42.544 22.427 42.3413 22.2297 42.0845 22.1637L39.9203 21.6074C39.5746 21.5184 39.3154 21.2459 39.2439 20.8962C39.1725 20.5462 39.3042 20.1939 39.5876 19.9766L47.4201 13.9697C47.5276 13.8873 47.6436 13.8455 47.7652 13.8455C47.9739 13.8455 48.1812 13.9775 48.2809 14.174C48.3785 14.3664 48.3586 14.5731 48.2248 14.7561L45.4181 18.5965C45.272 18.7966 45.2345 19.0561 45.318 19.2893C45.4016 19.5225 45.5953 19.6991 45.8353 19.7608L48.8095 20.5252C49.184 20.6215 49.4404 20.9074 49.4952 21.29C49.5503 21.6728 49.3849 22.0193 49.0527 22.217Z" fill="#134A85"/>
<path d="M12.2614 18.0876L3.12595 12.6487C2.79963 12.4543 2.43237 12.3516 2.06411 12.3516C1.24164 12.3516 0.497259 12.8497 0.167751 13.6206C-0.159167 14.3854 -0.00118634 15.2381 0.579935 15.846L2.92135 18.2952L1.99289 18.5338C1.08874 18.7661 0.411196 19.4786 0.224429 20.3933C0.0377609 21.308 0.382011 22.2292 1.12271 22.7972L8.95519 28.804C9.32434 29.0872 9.75804 29.2368 10.2096 29.2368C10.9786 29.2368 11.7038 28.787 12.0574 28.0908C12.4121 27.3921 12.3441 26.592 11.8754 25.9507L9.7191 23.0003L11.6259 22.5102C12.59 22.2623 13.2769 21.4962 13.4185 20.5109C13.56 19.5255 13.1168 18.5968 12.2614 18.0876ZM11.9398 20.2982C11.8848 20.6809 11.6284 20.9668 11.2541 21.063L8.27984 21.8274C8.03988 21.8891 7.84614 22.0657 7.76257 22.299C7.679 22.5321 7.71645 22.7916 7.86267 22.9917L10.6695 26.8321C10.8032 27.0152 10.8232 27.2218 10.7254 27.4142C10.6257 27.6106 10.4185 27.7426 10.2098 27.7426C10.0881 27.7426 9.9721 27.7008 9.86462 27.6184L2.03204 21.6114C1.74865 21.3942 1.61707 21.0419 1.68849 20.6921C1.75991 20.3421 2.01909 20.0696 2.36493 19.9807L4.52905 19.4244C4.78594 19.3584 4.98855 19.1612 5.06146 18.9061C5.13437 18.651 5.06644 18.3764 4.88306 18.1847L1.6601 14.8134C1.49684 14.6427 1.45261 14.4163 1.54186 14.2078C1.63589 13.9877 1.84099 13.8455 2.06441 13.8455C2.16362 13.8455 2.26632 13.8755 2.36165 13.9323L11.4973 19.3712C11.8292 19.5691 11.9947 19.9156 11.9398 20.2982Z" fill="#134A85"/>
<path d="M32.409 12.8137C31.8264 12.6059 31.435 12.037 31.435 11.3982V8.42187C31.435 8.00929 31.1006 7.6748 30.6879 7.6748C30.2752 7.6748 29.9408 8.00919 29.9408 8.42187V11.3982C29.9408 12.6671 30.7309 13.8015 31.9069 14.2209C33.7776 14.8884 35.0344 16.6715 35.0344 18.6582C35.0344 21.2864 32.9761 23.3559 30.3483 23.3697C30.3398 23.3698 30.3314 23.3698 30.3229 23.3698C29.0588 23.3698 27.8727 22.8761 26.9813 21.9784C26.5861 21.5803 26.06 21.3611 25.5001 21.3611C24.9402 21.3611 24.4143 21.5804 24.0192 21.9783C23.1274 22.8762 21.9417 23.3698 20.6776 23.3698C20.6691 23.3698 20.6604 23.3698 20.6519 23.3697C18.0242 23.3557 15.9659 21.2863 15.9659 18.6582C15.9659 16.6716 17.2229 14.8884 19.0935 14.221C20.2694 13.8015 21.0595 12.6671 21.0595 11.3982V3.57498C21.0595 3.0592 21.4792 2.63965 21.9949 2.63965H29.0054C29.5212 2.63965 29.9407 3.0593 29.9407 3.57498V4.93574C29.9407 5.34833 30.2751 5.68281 30.6878 5.68281C31.1005 5.68281 31.4349 5.34843 31.4349 4.93574V3.57498C31.4349 2.23533 30.345 1.14551 29.0054 1.14551H21.9949C20.6552 1.14551 19.5654 2.23533 19.5654 3.57498V11.3982C19.5654 12.0371 19.1739 12.6059 18.5913 12.8138C16.1273 13.6928 14.4717 16.0415 14.4717 18.6581C14.4717 20.2268 15.0432 21.7028 16.0858 22.8451C15.4303 23.6635 15.0872 24.5694 15.0872 25.4999C15.0872 26.4313 15.4309 27.3383 16.0877 28.1573C15.1331 29.2046 14.5325 30.5828 14.4773 32.1109C14.4624 32.5231 14.7846 32.8695 15.1968 32.8843C15.206 32.8846 15.2152 32.8848 15.2242 32.8848C15.6243 32.8848 15.9557 32.5679 15.9703 32.1648C16.0617 29.6355 18.1181 27.6436 20.6517 27.6303C20.6603 27.6302 20.6688 27.6302 20.6774 27.6302C21.9415 27.6302 23.1274 28.1238 24.0188 29.0215C24.4141 29.4196 24.94 29.6389 25.4998 29.6389C26.0598 29.6389 26.5859 29.4196 26.981 29.0216C27.8726 28.1238 29.0585 27.6302 30.3226 27.6302C30.3311 27.6302 30.3396 27.6302 30.348 27.6303C32.9758 27.6441 35.0341 29.7136 35.0341 32.3418C35.0341 34.3284 33.7773 36.1116 31.9067 36.779C30.7306 37.1985 29.9405 38.3329 29.9405 39.6018V47.425C29.9405 47.9408 29.5209 48.3604 29.0052 48.3604H21.9947C21.4789 48.3604 21.0593 47.9407 21.0593 47.425V39.6018C21.0593 38.3329 20.2692 37.1985 19.0934 36.7791C18.1765 36.452 17.3929 35.8565 16.8275 35.057C16.5894 34.7199 16.1231 34.6401 15.7862 34.8784C15.4493 35.1167 15.3696 35.5828 15.6077 35.9196C16.3515 36.9716 17.3833 37.7553 18.5913 38.1863C19.1738 38.3941 19.5653 38.963 19.5653 39.6018V47.425C19.5653 48.7647 20.6551 49.8545 21.9948 49.8545H29.0053C30.3449 49.8545 31.4348 48.7647 31.4348 47.425V39.6018C31.4348 38.9629 31.8262 38.3941 32.4089 38.1862C34.8729 37.3072 36.5285 34.9585 36.5285 32.3419C36.5285 30.7732 35.9568 29.2972 34.9144 28.1549C35.5699 27.3365 35.913 26.4306 35.913 25.5001C35.913 24.5696 35.5698 23.6636 34.9144 22.8453C35.9568 21.703 36.5285 20.227 36.5285 18.6583C36.5287 16.0415 34.8731 13.6928 32.409 12.8137ZM30.3228 26.1362C28.6577 26.1362 27.0956 26.7864 25.9212 27.969C25.8085 28.0825 25.6591 28.1449 25.5003 28.1449C25.3416 28.1449 25.1921 28.0825 25.0795 27.9689C23.905 26.7863 22.3431 26.1362 20.678 26.1362C20.6668 26.1362 20.6553 26.1363 20.6442 26.1363C19.3761 26.143 18.1995 26.5267 17.2204 27.1819C16.7967 26.642 16.5815 26.0783 16.5815 25.5C16.5815 24.9228 16.7959 24.3602 17.2179 23.8212C18.2205 24.4928 19.4024 24.8571 20.6441 24.8636C20.6554 24.8636 20.6667 24.8637 20.678 24.8637C22.343 24.8636 23.9051 24.2135 25.0797 23.0309C25.1922 22.9174 25.3417 22.855 25.5003 22.855C25.6592 22.855 25.8086 22.9174 25.9212 23.0309C27.0956 24.2136 28.6575 24.8637 30.3228 24.8637C30.3339 24.8637 30.3451 24.8636 30.3563 24.8636C31.5981 24.8571 32.7801 24.4928 33.7828 23.8212C34.2049 24.3602 34.4192 24.9228 34.4192 25.5C34.4192 26.0772 34.2048 26.6398 33.7828 27.1788C32.7801 26.5072 31.5981 26.1429 30.3563 26.1364C30.3449 26.1363 30.3341 26.1362 30.3228 26.1362Z" fill="#134A85"/>
</g>
<defs>
<clipPath id="clip0_3065_7584">
<rect width="51" height="51" fill="white"/>
</clipPath>
</defs>
</svg>
