<svg width="51" height="51" viewBox="0 0 51 51" fill="none" xmlns="http://www.w3.org/2000/svg">
<path d="M37.0727 28.1474C37.2689 28.4417 37.5631 28.6378 37.9554 28.6378C38.4458 28.6378 38.8381 28.3436 38.9362 27.8532C39.7208 23.3417 38.5439 18.1436 35.4054 14.7109C35.1112 14.4167 34.7189 14.3186 34.3266 14.4167C33.9343 14.5147 33.7381 14.907 33.64 15.2994C33.3458 18.634 31.09 21.3801 28.2458 22.459C27.7554 22.6551 27.5593 23.1455 27.6573 23.6359C27.7554 24.1263 28.2458 24.4205 28.7362 24.3224C29.815 24.1263 30.8939 24.2244 32.0708 24.5186C34.1304 24.9109 35.8958 26.284 37.0727 28.1474ZM31.9727 22.3609C33.4439 21.0859 34.5227 19.5167 35.2093 17.6532C36.4843 19.8109 37.1708 22.557 37.1708 25.107C35.7977 23.734 34.0323 22.7532 31.9727 22.3609Z" fill="#134A85"/>
<path d="M29.6188 43.5455V48.057C29.6188 48.6455 30.0111 49.0378 30.5995 49.0378C31.188 49.0378 31.5803 48.6455 31.5803 48.057V43.5455C31.5803 40.6031 32.463 37.9551 34.0322 35.9935C35.1111 34.6205 35.5034 32.8551 35.1111 31.0897C34.6207 29.2262 33.1495 27.7551 31.2861 27.2647C30.0111 26.9705 28.7361 27.0685 27.5591 27.5589C26.3822 28.1474 25.0091 28.1474 23.7341 27.5589C22.5572 26.9705 21.2822 26.8724 20.0072 27.2647C18.1437 27.7551 16.6726 29.2262 16.1822 31.0897C15.7899 32.6589 16.0841 34.3262 16.9668 35.6012C18.7322 38.1512 19.713 40.7993 19.713 43.4474V48.057C19.713 48.6455 20.1053 49.0378 20.6938 49.0378C21.2822 49.0378 21.6745 48.6455 21.6745 48.057V43.4474C21.6745 40.407 20.5957 37.4647 18.6341 34.5224C18.0457 33.6397 17.8495 32.6589 18.1437 31.5801C18.438 30.4031 19.4187 29.5205 20.4976 29.2262C21.3803 29.0301 22.1649 29.0301 22.9495 29.4224C23.0476 29.4224 23.1457 29.5205 23.2438 29.5205C24.4207 30.0108 25.2053 30.6974 25.6957 31.5801C25.8918 32.0705 26.4803 32.2666 26.9707 32.0705C27.4611 31.8743 27.6572 31.2858 27.4611 30.7955C27.2649 30.5012 27.1668 30.207 26.8726 29.9128C27.363 29.8147 27.8534 29.6185 28.3438 29.4224C29.1284 29.0301 29.913 29.0301 30.7957 29.2262C31.9726 29.5205 32.8553 30.5012 33.1495 31.5801C33.4438 32.6589 33.2476 33.8358 32.463 34.7185C30.6976 36.9743 29.6188 40.1128 29.6188 43.5455Z" fill="#134A85"/>
<path d="M20.4978 31.9721C20.0074 32.2664 19.9093 32.8548 20.3016 33.3452C22.067 35.8952 23.2439 38.6414 23.5382 41.2895C23.6363 41.7798 24.0286 42.1721 24.5189 42.1721C25.1074 42.1721 25.5978 41.6818 25.4997 41.0933C25.1074 38.0529 23.8324 35.1106 21.8709 32.2664C21.5766 31.776 20.9882 31.6779 20.4978 31.9721Z" fill="#134A85"/>
<path d="M10.396 13.8282C12.4556 15.8879 13.7306 18.4379 14.0249 20.8898C14.221 22.6552 15.2018 24.1263 16.771 25.1071C18.4383 26.0879 20.4979 26.0879 22.1652 25.1071C23.3422 24.4206 24.1268 23.4398 24.6172 22.2629C25.1075 20.9879 25.9902 20.0071 27.2652 19.6148C28.4422 19.2225 29.521 18.3398 30.2075 17.1629C31.1883 15.4956 31.1883 13.4359 30.2075 11.7686C29.3249 10.3956 28.0499 9.41478 26.4806 9.12055C23.3422 8.53209 20.8902 7.35517 19.0268 5.49171L15.7902 2.25517C15.3979 1.86286 14.8095 1.86286 14.4172 2.25517C14.0248 2.64748 14.0248 3.23594 14.4172 3.62825L17.6537 6.86478C19.8114 9.02248 22.6556 10.3956 26.0883 10.984C27.0691 11.1802 27.9518 11.7686 28.4422 12.6513C29.0306 13.6321 29.0306 15.0052 28.4422 15.9859C28.0499 16.7706 27.3633 17.2609 26.5787 17.5552C26.4806 17.5552 26.3825 17.6532 26.2845 17.6532C25.4998 17.9475 24.2248 18.2417 23.0479 17.8494C22.5575 17.6532 21.9691 17.9475 21.7729 18.4379C21.5768 18.9282 21.871 19.5167 22.3614 19.7129C22.6556 19.8109 23.0479 19.909 23.4402 20.0071C23.0479 20.5956 22.7537 21.0859 22.5575 21.5763C22.2633 22.3609 21.7729 22.9494 20.9883 23.4398C20.0075 24.0282 18.6345 24.0282 17.6537 23.4398C16.6729 22.8513 15.9864 21.8706 15.8883 20.7917C15.5941 17.8494 14.1229 14.9071 11.671 12.4552L8.53254 9.21863C8.14023 8.82632 7.55177 8.82632 7.15947 9.21863C6.76716 9.61094 6.76716 10.1994 7.15947 10.5917L10.396 13.8282Z" fill="#134A85"/>
<path d="M33.3459 9.41512C33.8363 9.41512 34.2286 9.12089 34.3266 8.63051L35.1113 5.29589C35.2093 4.80551 34.9151 4.21704 34.4247 4.11897C33.8363 3.92281 33.3459 4.31512 33.2478 4.80551L32.3651 8.14012C32.267 8.82666 32.7574 9.41512 33.3459 9.41512Z" fill="#134A85"/>
<path d="M39.3285 7.45341L37.2688 9.51303C36.8765 9.90533 36.8765 10.4938 37.2688 10.8861C37.6611 11.2784 38.2496 11.2784 38.6419 10.8861L40.7996 8.82649C41.1919 8.43418 41.1919 7.84572 40.7996 7.45341C40.4073 7.0611 39.7208 7.0611 39.3285 7.45341Z" fill="#134A85"/>
<path d="M38.8381 15.103C38.9362 15.5934 39.5247 15.9857 40.0151 15.7895L43.3497 15.0049C43.8401 14.9068 44.2324 14.3184 44.0362 13.828C43.8401 13.3376 43.3497 12.9453 42.8593 13.1414L39.5247 13.926C39.0343 14.0241 38.7401 14.5145 38.8381 15.103Z" fill="#134A85"/>
</svg>
