<svg width="51" height="51" viewBox="0 0 51 51" fill="none" xmlns="http://www.w3.org/2000/svg">
<path d="M17.5253 8.24931C15.7692 8.16863 14.3308 8.9655 13.3716 10.5583C13.1733 10.888 12.745 10.9945 12.4143 10.7953C12.0846 10.5961 11.978 10.1678 12.1772 9.83808C13.3995 7.81003 15.3219 6.75019 17.59 6.85677C21.4559 7.03607 24.6802 8.57603 27.1744 11.4318C27.4274 11.7217 27.3976 12.162 27.1077 12.416C26.9752 12.5315 26.8119 12.5883 26.6495 12.5883C26.4553 12.5883 26.262 12.5076 26.1236 12.3492C23.8893 9.79027 20.9967 8.41068 17.5253 8.24931ZM21.2656 25.0574C23.466 24.9847 24.1214 23.634 24.6483 22.5492C25.2609 21.2862 25.746 20.2891 28.5441 20.566C28.9256 20.6039 29.2692 20.324 29.3071 19.9405C29.3449 19.557 29.065 19.2153 28.6815 19.1775C24.9153 18.8039 24.0716 20.5421 23.3933 21.9396C22.9032 22.9497 22.5785 23.618 21.2188 23.6629C20.8343 23.6758 20.5325 23.9985 20.5454 24.383C20.5584 24.7606 20.8672 25.0574 21.2417 25.0574C21.2497 25.0584 21.2576 25.0584 21.2656 25.0574ZM50.1035 35.9636C50.1035 43.0737 44.3182 48.8591 37.2081 48.8591C33.5196 48.8591 30.1876 47.3022 27.8358 44.8109C24.9023 46.9087 21.5296 48.0343 17.8002 48.1588C17.5552 48.1668 17.3121 48.1708 17.073 48.1708C12.7291 48.1708 9.49377 46.825 8.1351 44.4314C7.83029 43.8935 7.56135 43.3676 7.32627 42.8546L7.34022 48.1598C7.34022 48.3451 7.2675 48.5234 7.13602 48.6549C7.00553 48.7853 6.82822 48.8591 6.64295 48.8591C6.64195 48.8591 6.64096 48.8591 6.63996 48.8591L1.59076 48.8391C1.20627 48.8381 0.896484 48.5264 0.896484 48.1419V23.7874C0.896484 21.7314 2.56893 20.059 4.62486 20.059H11.0706C10.3106 19.8219 9.61928 19.4623 9.02959 19.0151C7.55039 17.8915 6.60908 16.2011 6.37799 14.2548C6.12398 12.1142 6.73459 9.74644 8.14406 7.40661C10.2687 3.87945 13.7929 1.96396 17.8092 2.15122C23.3584 2.40921 28.0819 4.86558 31.4706 9.25437C34.2905 12.908 36.0865 17.7999 36.5576 23.0831C36.7738 23.0722 36.9899 23.0672 37.2091 23.0672C44.3182 23.0682 50.1035 28.8535 50.1035 35.9636ZM26.9304 43.7441C25.2878 41.5796 24.3117 38.8842 24.3117 35.9646C24.3117 34.9147 24.4382 33.8947 24.6762 32.9176C24.2907 32.4554 24.0377 31.9394 23.8106 31.4732C23.3205 30.4632 22.9958 29.7948 21.6362 29.75C21.2517 29.737 20.9498 29.4143 20.9628 29.0298C20.9757 28.6453 21.2945 28.3405 21.683 28.3565C23.8833 28.4292 24.5388 29.7799 25.0657 30.8646C25.1195 30.9762 25.1733 31.0858 25.2271 31.1933C25.8118 29.7311 26.6575 28.3993 27.7054 27.2568C27.1446 27.3285 26.5877 27.447 26.0399 27.6094C25.9731 27.6293 25.9064 27.6383 25.8407 27.6383C25.5398 27.6383 25.2629 27.442 25.1723 27.1402C25.0627 26.7707 25.2729 26.3832 25.6414 26.2726C26.8378 25.916 28.0689 25.7527 29.3031 25.7826C30.9785 24.4797 32.9827 23.5802 35.1681 23.2316C34.3802 14.3633 29.3907 4.08863 17.7424 3.54675C14.2541 3.38538 11.1891 5.05484 9.33738 8.12878C6.4776 12.8742 7.83826 16.3615 9.87228 17.9064C11.8824 19.4335 15.4066 19.6367 18.3939 16.4741C18.6578 16.1942 19.0991 16.1812 19.38 16.4462C19.6599 16.7101 19.6729 17.1514 19.4079 17.4323C18.104 18.8129 16.7025 19.6486 15.3279 20.062H19.1658C19.5513 20.062 19.8631 20.3738 19.8631 20.7593C19.8631 21.1447 19.5513 21.4565 19.1658 21.4565H4.62486C3.33791 21.4545 2.29102 22.5014 2.29102 23.7884V47.4476L5.94369 47.4615L5.9148 36.2933C5.91182 35.0831 6.34312 34.0352 7.19678 33.1785C8.05043 32.3219 9.09633 31.8866 10.3066 31.8846L19.125 31.8697H19.126C19.5105 31.8697 19.8223 32.1815 19.8233 32.566C19.8243 32.9514 19.5125 33.2632 19.127 33.2642L14.1286 33.2722C15.7602 33.9117 17.0272 35.1658 17.589 36.7764C17.7155 37.14 17.5243 37.5375 17.1607 37.665C16.7971 37.7915 16.3997 37.6002 16.2722 37.2366C15.6028 35.3182 13.8049 34.4346 12.3456 34.2474C10.6174 34.0262 9.03457 34.6438 8.21777 35.862C7.04936 37.6022 7.45078 40.4012 9.34834 43.7441C11.0088 46.6696 15.7791 46.832 17.7534 46.7663C21.161 46.6517 24.2459 45.6357 26.9304 43.7441ZM48.709 35.9636C48.709 29.6215 43.5492 24.4627 37.2081 24.4627C30.867 24.4627 25.7072 29.6225 25.7072 35.9636C25.7072 42.3048 30.867 47.4645 37.2081 47.4645C43.5492 47.4645 48.709 42.3058 48.709 35.9636ZM34.9639 29.8217C34.9639 28.1333 36.3375 26.7597 38.0259 26.7597C39.7143 26.7597 41.0879 28.1333 41.0879 29.8217C41.0879 31.5101 39.7143 32.8837 38.0259 32.8837C36.3375 32.8837 34.9639 31.5101 34.9639 29.8217ZM36.3584 29.8217C36.3584 30.7411 37.1065 31.4892 38.0259 31.4892C38.9453 31.4892 39.6933 30.7411 39.6933 29.8217C39.6933 28.9023 38.9453 28.1542 38.0259 28.1542C37.1065 28.1533 36.3584 28.9013 36.3584 29.8217ZM45.2107 40.0566C45.2107 41.745 43.8371 43.1186 42.1487 43.1186C40.4603 43.1186 39.0867 41.745 39.0867 40.0566C39.0867 38.3682 40.4603 36.9946 42.1487 36.9946C43.8371 36.9946 45.2107 38.3682 45.2107 40.0566ZM43.8162 40.0566C43.8162 39.1372 43.0681 38.3891 42.1487 38.3891C41.2293 38.3891 40.4813 39.1372 40.4813 40.0566C40.4813 40.976 41.2293 41.724 42.1487 41.724C43.0681 41.724 43.8162 40.976 43.8162 40.0566ZM35.189 40.8385C35.189 42.5269 33.8154 43.9005 32.127 43.9005C30.4386 43.9005 29.065 42.5269 29.065 40.8385C29.065 39.1501 30.4386 37.7765 32.127 37.7765C33.8154 37.7765 35.189 39.1501 35.189 40.8385ZM33.7945 40.8385C33.7945 39.9191 33.0464 39.171 32.127 39.171C31.2076 39.171 30.4596 39.9191 30.4596 40.8385C30.4596 41.7579 31.2076 42.506 32.127 42.506C33.0464 42.506 33.7945 41.7579 33.7945 40.8385ZM38.6883 35.9686C38.6883 37.2077 37.6802 38.2158 36.4411 38.2158C35.202 38.2158 34.1949 37.2077 34.1949 35.9686C34.1949 34.7295 35.2029 33.7224 36.4411 33.7224C37.6802 33.7224 38.6883 34.7305 38.6883 35.9686ZM37.2938 35.9686C37.2938 35.4985 36.9113 35.1169 36.4411 35.1169C35.9709 35.1169 35.5894 35.4994 35.5894 35.9686C35.5894 36.4388 35.9719 36.8213 36.4411 36.8213C36.9113 36.8213 37.2938 36.4388 37.2938 35.9686ZM28.4454 33.1178C28.4454 31.8786 29.4535 30.8716 30.6926 30.8716C31.9318 30.8716 32.9398 31.8796 32.9398 33.1178C32.9398 34.3569 31.9318 35.365 30.6926 35.365C29.4535 35.365 28.4454 34.3569 28.4454 33.1178ZM29.84 33.1178C29.84 33.5879 30.2225 33.9704 30.6926 33.9704C31.1628 33.9704 31.5453 33.5879 31.5453 33.1178C31.5453 32.6476 31.1628 32.2661 30.6926 32.2661C30.2225 32.2661 29.84 32.6476 29.84 33.1178ZM46.2397 32.8957C46.2397 34.1348 45.2316 35.1418 43.9925 35.1418C42.7533 35.1418 41.7453 34.1338 41.7453 32.8957C41.7453 31.6565 42.7533 30.6485 43.9925 30.6485C45.2316 30.6485 46.2397 31.6565 46.2397 32.8957ZM44.8451 32.8957C44.8451 32.4255 44.4626 32.043 43.9925 32.043C43.5223 32.043 43.1398 32.4255 43.1398 32.8957C43.1398 33.3658 43.5223 33.7473 43.9925 33.7473C44.4626 33.7473 44.8451 33.3658 44.8451 32.8957Z" fill="#134A85"/>
</svg>
