<svg width="51" height="51" viewBox="0 0 51 51" fill="none" xmlns="http://www.w3.org/2000/svg">
<g clip-path="url(#clip0_3029_6535)">
<path d="M18.4064 23.0852C18.5846 22.611 18.7257 22.1152 18.8299 21.6055H21.501C22.6769 21.6055 23.7164 20.9898 24.2819 19.9588C24.8473 18.9277 24.8073 17.7203 24.1751 16.7288L15.0513 2.42141C14.4659 1.50326 13.4662 0.955078 12.3773 0.955078C11.2884 0.955078 10.2887 1.50326 9.7032 2.42141L0.57946 16.7289C-0.0527968 17.7204 -0.0927424 18.9278 0.472672 19.9589C1.03799 20.99 2.07757 21.6056 3.25353 21.6056H17.2994C16.9369 23.0387 16.1878 24.4245 15.6046 25.8628C15.5133 25.7146 15.4125 25.5642 15.3013 25.4139C14.4792 24.3036 12.9173 22.9804 10.1443 22.9804C9.73169 22.9804 9.39718 23.3148 9.39718 23.7275C9.39718 24.1402 9.73169 24.4746 10.1443 24.4746C13.7927 24.4746 14.7395 27.2991 14.9152 27.9822C14.6399 29.1639 14.5004 30.5627 14.596 32.4442C14.6882 34.2696 14.4654 36.2252 12.1133 36.8882C10.705 37.2849 7.72216 37.168 5.27651 35.2206C2.57186 33.0669 1.27408 29.2186 1.52371 24.0923C1.53019 23.959 1.53766 23.8272 1.54602 23.6967C1.57252 23.2849 1.26003 22.9297 0.848321 22.9033C0.436313 22.876 0.081285 23.1892 0.0548871 23.601C0.0460213 23.7388 0.0381517 23.8782 0.0312783 24.0193C-0.159684 27.9432 0.433723 33.2743 4.3458 36.3894C6.30961 37.9532 8.65704 38.5709 10.5774 38.5708C11.299 38.5707 11.9608 38.4834 12.5186 38.3264C16.3352 37.2506 16.1495 33.576 16.0883 32.3684C16.0556 31.7256 16.0526 31.1475 16.0742 30.6186C16.7729 30.8883 17.382 31.2467 17.8893 31.6923C19.2926 32.9259 20.0042 34.9146 20.0042 37.6032V49.2979C20.0042 49.7107 20.3387 50.0451 20.7513 50.0451C21.1639 50.0451 21.4984 49.7107 21.4984 49.2979V37.6032C21.4984 34.4661 20.616 32.0997 18.8755 30.5699C18.1403 29.9239 17.2486 29.4278 16.2224 29.0857C16.2959 28.6257 16.3919 28.204 16.506 27.8046C17.7446 28.1997 18.8231 28.793 19.7179 29.5752C21.7646 31.3633 22.8024 34.0643 22.8024 37.6033V49.298C22.8024 49.7108 23.1369 50.0452 23.5495 50.0452C23.9621 50.0452 24.2966 49.7108 24.2966 49.298V37.6032C24.2966 33.614 23.0869 30.5343 20.7011 28.4499C20.1801 27.9946 19.6082 27.5949 18.9896 27.2514C20.5058 26.8169 22.1662 25.9019 22.8609 23.9816C23.0013 23.5935 22.8006 23.1652 22.4126 23.0249C22.0245 22.8843 21.5962 23.0852 21.4559 23.4733C20.759 25.3992 18.4987 25.9391 17.1299 26.0877C17.4907 25.2429 17.9887 24.1953 18.4064 23.0852ZM1.78281 19.2405C1.48386 18.6952 1.50488 18.0566 1.83929 17.5323L10.963 3.22491C11.2773 2.73211 11.7927 2.4495 12.3772 2.4495C12.9616 2.4495 13.4771 2.73211 13.7913 3.22491L22.915 17.5323C23.2493 18.0567 23.2705 18.6953 22.9715 19.2405C22.6726 19.7859 22.1227 20.1113 21.5009 20.1113H3.25353C2.63163 20.1113 2.08185 19.7857 1.78281 19.2405Z" fill="#134A85"/>
<path d="M30.2486 42.2334C29.836 42.2334 29.5015 42.5678 29.5015 42.9805V49.2984C29.5015 49.7111 29.836 50.0455 30.2486 50.0455C30.6612 50.0455 30.9957 49.7111 30.9957 49.2984V42.9805C30.9957 42.5678 30.6613 42.2334 30.2486 42.2334Z" fill="#134A85"/>
<path d="M50.9684 24.0193C50.6222 16.9112 47.7036 13.8976 45.3162 12.621C41.5867 10.6268 37.2866 11.6698 35.3063 12.8572C33.7513 13.7895 32.6446 15.4163 32.1904 17.4379C31.9319 18.5883 31.8962 19.8344 32.0728 21.0431C30.3719 19.1356 30.403 16.3272 30.4035 16.301C30.4037 16.2941 30.4038 16.2871 30.4038 16.2802V5.85258C30.4038 5.43988 30.0693 5.10547 29.6567 5.10547C29.2441 5.10547 28.9096 5.43988 28.9096 5.85258V16.2793C28.9068 16.5816 28.9289 20.2241 31.4198 22.5068C31.8108 22.8657 32.2506 23.1781 32.7293 23.439C32.9791 24.0746 33.2298 24.6384 33.4735 25.1854C32.3423 24.7985 31.3516 24.2178 30.5181 23.4486C27.4853 20.649 27.6016 16.3942 27.6081 16.2144C27.6084 16.2055 27.6086 16.1966 27.6086 16.1876V5.85258C27.6086 5.43988 27.2741 5.10547 26.8615 5.10547C26.4489 5.10547 26.1144 5.43988 26.1144 5.85258V16.1759C26.1039 16.5382 26.0343 21.343 29.5047 24.5465C30.5504 25.5115 31.7956 26.2241 33.2183 26.6753C32.1215 27.1173 31.1437 27.7109 30.2988 28.4495C27.9129 30.534 26.7032 33.6137 26.7032 37.603V49.2977C26.7032 49.7104 27.0377 50.0448 27.4503 50.0448C27.8629 50.0448 28.1974 49.7104 28.1974 49.2977V37.6029C28.1974 34.064 29.2352 31.3628 31.282 29.5745C32.1768 28.7925 33.2551 28.1992 34.4937 27.8041C34.6079 28.2035 34.704 28.6252 34.7775 29.0851C33.7512 29.4273 32.8594 29.9235 32.1241 30.5697C30.3837 32.0992 29.5013 34.4656 29.5013 37.6029V39.4577C29.5013 39.8704 29.8358 40.2048 30.2484 40.2048C30.661 40.2048 30.9955 39.8704 30.9955 39.4577V37.6029C30.9955 34.9143 31.7072 32.9256 33.1103 31.692C33.6177 31.2463 34.2269 30.8878 34.9258 30.6181C34.9474 31.1468 34.9444 31.7248 34.9117 32.3675C34.8503 33.5751 34.6634 37.2502 38.4812 38.3257C39.0394 38.483 39.7009 38.5703 40.423 38.5702C42.3431 38.5702 44.6906 37.9525 46.654 36.3892C50.5663 33.2744 51.1596 27.9432 50.9684 24.0193ZM45.7234 35.2205C43.2777 37.1679 40.2948 37.2845 38.8864 36.8876C36.5336 36.2248 36.3113 34.2692 36.4041 32.4435C36.4998 30.562 36.3601 29.1632 36.0847 27.9816C36.2603 27.2984 37.2072 24.4742 40.8555 24.4742C41.2681 24.4742 41.6026 24.1398 41.6026 23.7271C41.6026 23.3144 41.2681 22.98 40.8555 22.98C38.0825 22.98 36.5206 24.3033 35.6985 25.4135C35.5872 25.5639 35.4864 25.7144 35.395 25.8627C34.9819 24.8533 34.4534 23.7823 33.9918 22.5596C32.6164 18.8951 33.9707 15.4004 36.0747 14.139C37.0426 13.5586 38.7665 12.9992 40.6704 12.9992C41.9613 12.9992 43.3351 13.2565 44.6116 13.939C47.5468 15.5084 49.2288 19.0193 49.4759 24.0923C49.7257 29.2187 48.428 33.0668 45.7234 35.2205Z" fill="#134A85"/>
<path d="M12.3773 15.8555C11.9659 15.8555 11.6323 16.189 11.6323 16.6004C11.6323 17.0118 11.9658 17.3454 12.3773 17.3454C12.7887 17.3454 13.1223 17.0119 13.1223 16.6004C13.1222 16.189 12.7887 15.8555 12.3773 15.8555Z" fill="#134A85"/>
<path d="M12.3772 6.75391C11.9646 6.75391 11.6301 7.08831 11.6301 7.50102V13.0096C11.6301 13.4223 11.9646 13.7567 12.3772 13.7567C12.7898 13.7567 13.1244 13.4223 13.1244 13.0096V7.50102C13.1244 7.08831 12.7898 6.75391 12.3772 6.75391Z" fill="#134A85"/>
</g>
<defs>
<clipPath id="clip0_3029_6535">
<rect width="51" height="51" fill="white"/>
</clipPath>
</defs>
</svg>
