<svg width="51" height="51" viewBox="0 0 51 51" fill="none" xmlns="http://www.w3.org/2000/svg">
<g clip-path="url(#clip0_3056_10967)">
<path d="M33.5502 41.2485C33.141 41.1803 32.7565 41.4582 32.6894 41.8663L31.4355 49.5015H28.1903V37.7593C30.7036 36.1142 31.052 34.0892 31.0281 32.9988C30.9955 31.5143 30.259 30.097 29.2371 29.5526C28.3124 29.0595 27.2671 29.2777 26.2561 29.4886C25.2294 29.7028 24.1676 29.9243 23.0588 29.536C21.7056 29.0626 20.3406 29.2648 19.314 30.0912C18.2698 30.9318 17.7511 32.2925 17.9266 33.7308C18.0627 34.8458 18.7516 35.919 19.9756 36.9247V49.5016H15.6729L15.5466 32.6168C15.53 30.3902 13.7048 28.5787 11.4781 28.5787H1.49842V23.2225H6.20178C6.61556 23.2225 6.95104 22.8871 6.95104 22.4732C6.95104 22.0593 6.61556 21.724 6.20178 21.724H1.49842V15.8602H14.9549C15.2387 15.8602 15.4983 15.6998 15.6251 15.4458C16.1617 14.3712 16.9989 13.8263 18.1135 13.8263C19.5648 13.8263 19.973 15.1339 20.3391 18.0648C20.4145 18.6683 20.4858 19.2385 20.5912 19.7691C20.6723 20.1774 20.8163 20.66 20.9687 21.1709C21.5834 23.2321 22.0031 24.9772 20.9097 25.453C19.9901 25.853 18.1106 25.1578 15.5931 22.0057C15.4509 21.8277 15.2355 21.7242 15.0076 21.7242H9.19584C8.78206 21.7242 8.44658 22.0595 8.44658 22.4734C8.44658 22.8873 8.78206 23.2227 9.19584 23.2227H14.6508C15.9992 24.8559 18.2182 27.0657 20.3519 27.0657C20.7419 27.0657 21.129 26.9919 21.5076 26.8271C22.2596 26.4998 23.143 25.7337 23.0803 23.9423C23.0433 22.8853 22.704 21.7471 22.4045 20.7428C22.2625 20.2666 22.1283 19.8166 22.0609 19.4773C21.966 18.9994 21.898 18.4554 21.826 17.8793C21.5334 15.5366 21.1325 12.3282 18.1135 12.3282C16.5863 12.3282 15.3239 13.0463 14.5146 14.3621H1.49842V6.64538L18.7308 8.56685C19.1417 8.61297 19.5126 8.31643 19.5585 7.90524C19.6043 7.49406 19.3082 7.12341 18.8969 7.07759L0.832236 5.06309C0.620766 5.03988 0.408498 5.10722 0.249621 5.24936C0.0907441 5.3915 0 5.59461 0 5.80777V29.3279C0 29.7418 0.335484 30.0772 0.749262 30.0772H11.4782C12.8849 30.0772 14.0377 31.2216 14.0483 32.6282L14.1802 50.2565C14.1833 50.668 14.5179 51.0001 14.9295 51.0001H32.0718C32.4388 51.0001 32.7517 50.7344 32.8111 50.3724L34.1681 42.1094C34.2351 41.7009 33.9585 41.3155 33.5502 41.2485ZM21.4741 49.5016V36.5621C21.4741 36.3281 21.3648 36.1076 21.1786 35.9659C20.4395 35.4033 19.5334 34.5273 19.4141 33.5493C19.3017 32.6285 19.6155 31.772 20.2536 31.2584C20.8771 30.7565 21.6975 30.6472 22.5637 30.9503C24.0657 31.476 25.4498 31.1874 26.562 30.9554C27.3803 30.7847 28.087 30.6375 28.5323 30.8748V30.8749C28.9201 31.0815 29.5053 31.9099 29.5299 33.0317C29.5694 34.8328 28.2086 36.0196 27.06 36.6979C26.8318 36.8328 26.6918 37.078 26.6918 37.3431V49.5016H21.4741Z" fill="#134A85"/>
<path d="M24.3941 7.69043L21.8685 7.40883C21.4579 7.36381 21.0867 7.65925 21.0408 8.07043C20.9949 8.48162 21.2911 8.85227 21.7024 8.89809L24.228 9.17968C27.2135 9.51258 29.9339 10.9522 31.8882 13.2337C33.8423 15.515 34.8473 18.4243 34.7177 21.4255L34.2438 32.4037L33.1752 38.9111C33.1081 39.3195 33.3848 39.7048 33.793 39.7718C33.8342 39.7787 33.8751 39.7819 33.9153 39.7819C34.2757 39.7819 34.5935 39.5212 34.6537 39.154L35.7297 32.6023C35.7346 32.5727 35.7377 32.5431 35.739 32.5132L36.2148 21.49C36.3607 18.1081 35.2284 14.8296 33.0262 12.2588C30.8241 9.68799 27.7584 8.06565 24.3941 7.69043Z" fill="#134A85"/>
<path d="M31.0288 20.4295C31.0288 17.7245 29.5787 15.6055 27.7273 15.6055C25.876 15.6055 24.4258 17.7245 24.4258 20.4295C24.4258 23.1344 25.876 25.2533 27.7273 25.2533C29.5786 25.2533 31.0288 23.1344 31.0288 20.4295ZM25.9242 20.4295C25.9242 18.4696 26.8745 17.1039 27.7273 17.1039C28.5802 17.1039 29.5304 18.4696 29.5304 20.4295C29.5304 22.3893 28.5802 23.7549 27.7273 23.7549C26.8745 23.7549 25.9242 22.3892 25.9242 20.4295Z" fill="#134A85"/>
<path d="M39.4174 19.7292L47.4002 16.3363C47.8957 16.1429 48.0136 15.4323 47.6074 15.0891L46.2445 13.8664L50.5726 11.8051C51.0368 11.5998 51.1455 10.9311 50.7704 10.5893L46.8964 6.85443C46.6009 6.56935 46.1311 6.57553 45.8431 6.86768L40.0183 12.7735C39.7104 13.0721 39.7396 13.6159 40.0777 13.8798L41.1512 14.757L38.5062 18.6162C38.0738 19.2036 38.7606 20.036 39.4174 19.7292ZM42.6325 14.0323L41.6628 13.24L46.3897 8.44719L48.9518 10.9173L44.5851 12.9969C44.1107 13.2064 44.0111 13.8961 44.407 14.2311L45.73 15.418L41.1931 17.3463L42.7765 15.0359C42.9966 14.7149 42.9341 14.2786 42.6325 14.0323Z" fill="#134A85"/>
<path d="M39.8802 4.73311C39.7346 4.52233 39.4907 4.39942 39.2352 4.41037L37.9614 4.45908L39.247 1.0112C39.4373 0.541546 39.0513 -0.0139758 38.5449 0.000268372H34.177C33.7659 0.000268372 33.4316 0.331569 33.4277 0.742657L33.3665 7.48551C33.3533 7.91423 33.7523 8.28438 34.1788 8.23896L35.171 8.15509L35.7863 11.771C35.8855 12.4917 36.9517 12.6177 37.2151 11.9368L39.9538 5.4505C40.0537 5.21442 40.0258 4.94388 39.8802 4.73311ZM36.8332 8.98952L36.5328 7.22474C36.4711 6.86206 36.1566 6.60118 35.7949 6.60118C35.7738 6.60118 35.7525 6.60208 35.7312 6.60377L34.8725 6.67649L34.9195 1.49869H37.4661L36.1647 4.9889C35.9693 5.46892 36.3788 6.0348 36.8953 5.99924L38.1154 5.95263L36.8332 8.98952Z" fill="#134A85"/>
<path d="M50.2575 22.118L43.5146 22.057C43.0861 22.0437 42.7157 22.4427 42.7612 22.8693L42.8451 23.8614L39.2291 24.4767C38.5075 24.5754 38.3839 25.6443 39.0634 25.9055L45.5496 28.6441C46.0322 28.8656 46.6262 28.456 46.5897 27.9252L46.541 26.6515L49.9887 27.9371C50.4584 28.1276 51.0139 27.7414 50.9997 27.2351V22.8671C50.9999 22.4561 50.6686 22.1217 50.2575 22.118ZM49.5015 26.1562L46.0112 24.8548C45.5306 24.6595 44.9661 25.0683 45.0009 25.5854L45.0475 26.8054L42.0108 25.5233L43.7754 25.2229C44.1593 25.1577 44.4291 24.8093 44.3964 24.4213L44.3238 23.5627L49.5015 23.6096V26.1562Z" fill="#134A85"/>
</g>
<defs>
<clipPath id="clip0_3056_10967">
<rect width="51" height="51" fill="white"/>
</clipPath>
</defs>
</svg>
