<svg width="51" height="51" viewBox="0 0 51 51" fill="none" xmlns="http://www.w3.org/2000/svg">
<g clip-path="url(#clip0_3065_7492)">
<path d="M11.8776 22.8599C9.45235 22.8564 7.11619 22.5654 4.93334 21.9945C4.52867 21.8887 4.11506 22.1311 4.00922 22.5358C3.90339 22.9405 4.14541 23.3545 4.55007 23.4603C6.85705 24.0638 9.322 24.3712 11.8757 24.3747H11.8768C12.2943 24.3747 12.6336 24.0362 12.634 23.6183C12.6348 23.2 12.2959 22.8603 11.8776 22.8599Z" fill="#134A85"/>
<path d="M45.2279 44.778C44.0151 43.8154 41.9629 44.006 41.0003 44.1648C38.5003 40.8535 36.0455 39.8613 34.7229 39.5656C34.9432 38.7952 35.2914 37.5446 35.6906 35.9878C35.7945 35.5824 35.5506 35.1699 35.1455 35.066C34.7397 34.9618 34.3276 35.2061 34.2233 35.6112C33.5521 38.2275 33.0296 39.9621 33.0241 39.9796C32.9537 40.2127 32.9957 40.466 33.144 40.6594C33.2926 40.8527 33.5233 40.9636 33.7646 40.9559C33.8895 40.957 36.8618 40.9784 40.0583 45.4406C40.2361 45.6893 40.5478 45.806 40.8451 45.7375C41.4797 45.5908 43.4738 45.3185 44.2874 45.9655C44.4384 46.0854 44.6388 46.3037 44.6388 46.8091C44.6388 47.8141 44.2275 48.6219 43.4804 49.0838C42.6026 49.6262 41.4054 49.6184 40.2692 49.0655C39.6614 48.6577 34.1755 45.1115 30.0495 47.092C28.2942 47.934 26.6616 48.0235 25.5709 47.3371C24.7028 46.7908 24.225 45.778 24.225 44.4842C24.225 43.1107 25.0997 42.0033 26.0262 40.8306C27.1215 39.4438 28.3631 37.8718 27.7888 35.8232C26.4507 31.0509 26.5748 27.1385 26.9145 24.6965C27.1985 22.6553 27.6643 21.3031 27.8705 20.7736C30.1623 19.6985 31.2199 18.5573 31.2654 18.5071C31.5475 18.1981 31.5257 17.7191 31.2168 17.437C30.9078 17.1553 30.4284 17.1771 30.1467 17.4861C30.137 17.4966 29.1397 18.5503 26.9756 19.5176C26.9631 19.523 26.8425 19.5829 26.7195 19.639C25.6398 20.1335 20.8496 22.1907 14.8204 22.7273C14.4037 22.7642 14.0959 23.1323 14.1329 23.5486C14.1683 23.9428 14.4986 24.2389 14.8866 24.2389C14.9091 24.2389 14.9317 24.2381 14.9547 24.2362C19.8414 23.8008 23.8849 22.4366 26.0106 21.5891C25.2958 24.1327 24.4067 29.3715 26.3304 36.2318C26.6966 37.538 25.8351 38.6286 24.8374 39.8917C23.8402 41.1539 22.7102 42.5842 22.7102 44.4842C22.7102 46.3173 23.4398 47.7857 24.7643 48.6192C26.3051 49.5888 28.4705 49.5297 30.7047 48.4573C34.1938 46.7826 39.4062 50.3098 39.4579 50.3456C39.4871 50.3655 39.5174 50.3834 39.5486 50.3989C40.3505 50.7997 41.1879 50.9997 41.9913 50.9997C42.8135 50.9997 43.6003 50.7904 44.2769 50.3721C45.4699 49.6348 46.1536 48.3359 46.1536 46.8091C46.1536 45.9609 45.8337 45.2585 45.2279 44.778Z" fill="#134A85"/>
<path d="M4.84663 7.5805C4.91667 7.57038 11.9536 6.60036 19.3687 6.48518C28.8043 6.33927 34.7969 7.65599 36.2393 10.1945C38.056 13.3913 37.5949 21.3811 34.9412 32.6919C34.8459 33.0993 35.0984 33.5067 35.5058 33.6024C35.5638 33.616 35.6222 33.6226 35.6794 33.6226C36.0229 33.6226 36.3342 33.3872 36.4163 33.0378C38.3552 24.7725 40.1272 13.9703 37.5564 9.44624C36.5296 7.63887 34.1736 6.40931 30.3537 5.68714C27.4732 5.14239 23.7647 4.90076 19.3321 4.9708C11.8252 5.08831 4.7085 6.07001 4.63729 6.08013C4.2229 6.13771 3.9338 6.5202 3.99177 6.93459C4.04975 7.34899 4.43185 7.6377 4.84663 7.5805Z" fill="#134A85"/>
<path d="M28.4516 40.2803C28.0563 40.1449 27.6252 40.3554 27.4894 40.7511C27.4376 40.9017 27.0053 42.2495 27.6971 43.2184C27.9707 43.6009 28.5205 44.0573 29.5878 44.0573C30.0061 44.0573 30.345 43.7184 30.345 43.3001C30.345 42.8818 30.0061 42.5425 29.5878 42.5425C29.3551 42.5425 29.0524 42.5071 28.931 42.339C28.7571 42.0986 28.8236 41.541 28.9236 41.2394C29.0571 40.8445 28.8462 40.4157 28.4516 40.2803Z" fill="#134A85"/>
<path d="M40.4213 7.13591C40.5559 7.397 40.8205 7.54641 41.0952 7.54641C41.212 7.54641 41.3306 7.51957 41.4415 7.46237L45.8216 5.20442C46.1932 5.01259 46.3395 4.55578 46.1477 4.1838C45.9559 3.81182 45.4987 3.6663 45.1275 3.85774L40.7474 6.11569C40.3758 6.30752 40.2295 6.76432 40.4213 7.13591Z" fill="#134A85"/>
<path d="M38.948 4.13343C39.0873 4.24394 39.2535 4.29763 39.4181 4.29763C39.6414 4.29763 39.8624 4.19919 40.0122 4.01087L42.2192 1.22802C42.4791 0.900393 42.4243 0.424134 42.0966 0.164214C41.7686 -0.0960942 41.2924 -0.0408418 41.0324 0.286781L38.8255 3.06924C38.5652 3.39686 38.62 3.87351 38.948 4.13343Z" fill="#134A85"/>
<path d="M47.0722 9.81589C47.0505 9.39838 46.6952 9.07621 46.2765 9.09877L42.7299 9.28282C42.312 9.30422 41.991 9.66063 42.0128 10.0781C42.0338 10.4828 42.368 10.7964 42.7684 10.7964C42.7816 10.7964 42.7949 10.796 42.8085 10.7956L46.3551 10.6116C46.773 10.5898 47.094 10.2338 47.0722 9.81589Z" fill="#134A85"/>
</g>
<defs>
<clipPath id="clip0_3065_7492">
<rect width="51" height="51" fill="white"/>
</clipPath>
</defs>
</svg>
