<svg width="51" height="51" viewBox="0 0 51 51" fill="none" xmlns="http://www.w3.org/2000/svg">
<path d="M47.2646 7.34961H45.9256C45.9975 7.1484 46.0412 6.93374 46.0518 6.70992C46.081 6.09075 45.8619 5.50325 45.4349 5.05571C45.014 4.61444 44.4229 4.36133 43.8132 4.36133H41.4315C39.5279 4.36133 37.7547 5.21438 36.5669 6.70185L35.9919 7.42193L35.4943 6.77865C34.3239 5.26508 32.4828 4.36133 30.5694 4.36133H26.8334C25.6108 4.36133 24.6088 5.29855 24.5525 6.49516C24.5386 6.7913 24.582 7.07987 24.6771 7.34961H20.6689C9.27204 7.34961 0 16.6216 0 28.0186V33.2917C0 33.7044 0.334488 34.0387 0.74707 34.0387C1.15965 34.0387 1.49414 33.7044 1.49414 33.2917V28.0186C1.49414 26.3436 1.71069 24.7184 2.1161 23.1688C2.78199 23.4356 3.49758 23.575 4.22055 23.575C5.72923 23.575 7.14787 22.9872 8.21518 21.9199C9.2825 20.8525 9.87039 19.4338 9.87039 17.9251C9.87039 17.7986 9.86611 17.6719 9.85754 17.5449C10.31 17.6599 10.7759 17.7179 11.249 17.7179C12.7577 17.7179 14.1763 17.1302 15.2436 16.0628C16.3109 14.9954 16.8988 13.5768 16.8988 12.0681C16.8988 11.1091 16.6641 10.1904 16.2138 9.3674C17.6441 9.02574 19.1357 8.84365 20.669 8.84365H26.7911H30.198C30.8869 8.84365 31.5496 9.16897 31.9709 9.71384L33.6385 11.8702C33.6721 11.9137 33.6906 11.9677 33.6906 12.0226V28.548C33.6906 28.6567 33.6212 28.752 33.5176 28.7851L27.4945 30.7141C25.6881 28.4037 22.876 26.9159 19.7227 26.9159C14.417 26.9159 10.0773 31.1279 9.86989 36.3837C8.47387 36.9815 7.27696 38.0192 6.49085 39.3195C6.00625 40.1212 5.12331 40.6191 4.18668 40.6191C2.702 40.6191 1.49414 39.4113 1.49414 37.9267V36.778C1.49414 36.3653 1.15965 36.0309 0.74707 36.0309C0.334488 36.0309 0 36.3653 0 36.778V37.9267C0 40.2352 1.87813 42.1133 4.18668 42.1133C5.64317 42.1133 7.01609 41.339 7.76953 40.0925C8.29497 39.2233 9.05121 38.501 9.93833 38.0103C10.547 42.8679 14.7027 46.6384 19.7227 46.6384C25.1602 46.6384 29.584 42.2147 29.584 36.7771C29.584 35.0485 29.1363 33.4227 28.3517 32.0085L29.3393 31.6928C29.6633 32.2923 30.1846 32.8189 30.8274 33.1736C31.368 33.4719 31.9385 33.6234 32.4966 33.6234C32.8278 33.6234 33.1546 33.57 33.468 33.4623L36.3241 32.4808C37.4299 32.1006 38.1729 31.0595 38.1729 29.8902V28.8692L40.6077 28.0909C43.9638 27.018 46.2188 23.9299 46.2188 20.4065C46.2188 19.6315 46.6103 18.9224 47.2661 18.5096L49.2542 17.2585C50.3474 16.5704 51 15.3887 51 14.097V11.085C51 9.02524 49.3244 7.34961 47.2646 7.34961ZM15.4046 12.0681C15.4046 13.1777 14.9722 14.2211 14.1871 15.0062C13.4019 15.7914 12.3584 16.2238 11.2489 16.2238C10.7591 16.2238 10.2804 16.1395 9.82577 15.9732C9.44247 15.8334 9.0265 15.9051 8.71323 16.1655C8.40235 16.4241 8.25104 16.8333 8.31957 17.24C8.35713 17.4653 8.37615 17.6958 8.37615 17.9251C8.37615 19.0347 7.94375 20.0781 7.15863 20.8633C6.37351 21.6484 5.3301 22.0808 4.22045 22.0808C3.64501 22.0808 3.07693 21.9594 2.55428 21.7307C4.51659 16.0937 9.03975 11.6465 14.7243 9.78835C15.1704 10.4648 15.4046 11.2461 15.4046 12.0681ZM19.7227 45.1444C15.1089 45.1444 11.3555 41.3908 11.3555 36.7772C11.3555 32.1636 15.1089 28.41 19.7227 28.41C24.3364 28.41 28.0898 32.1636 28.0898 36.7772C28.0898 41.3908 24.3364 45.1444 19.7227 45.1444ZM49.5059 14.097C49.5059 14.872 49.1143 15.5811 48.4585 15.9939L46.4704 17.2451C45.3773 17.9331 44.7246 19.1149 44.7246 20.4065C44.7246 23.2773 42.8873 25.7935 40.1527 26.6677L38.1729 27.3006V25.3115C38.1729 24.8988 37.8384 24.5644 37.4258 24.5644C37.0133 24.5644 36.6788 24.8988 36.6788 25.3115V29.8901C36.6788 30.4216 36.341 30.8949 35.8384 31.0676L32.9823 32.0491C32.3926 32.252 31.8313 32.021 31.5492 31.8653C31.2514 31.7011 30.9946 31.4758 30.8061 31.2232L33.9735 30.2079C34.6978 29.9758 35.1846 29.3087 35.1846 28.5479V12.0228C35.1846 11.6389 35.0553 11.2603 34.8204 10.9565L33.1529 8.80002C32.4506 7.89188 31.346 7.34961 30.1979 7.34961H26.791C26.5848 7.34961 26.3928 7.26743 26.2504 7.11812C26.1081 6.969 26.0351 6.77267 26.0449 6.56539C26.0633 6.17392 26.417 5.85547 26.8333 5.85547H30.5693C32.0235 5.85547 33.4227 6.54227 34.3122 7.69256L35.0035 8.58646C35.4659 9.21878 36.489 9.22685 36.9615 8.6019L37.7342 7.63429C38.637 6.50373 39.9846 5.85547 41.4314 5.85547H43.8131C44.0193 5.85547 44.2113 5.93765 44.3538 6.08696C44.496 6.23608 44.569 6.43241 44.5593 6.63959C44.5408 7.03116 44.1871 7.34961 43.7708 7.34961H41.7274C40.5851 7.34961 39.5212 7.8615 38.8086 8.754L37.0599 10.9437C36.8141 11.2514 36.6788 11.6377 36.6788 12.0315V21.8251C36.6788 22.2378 37.0133 22.5722 37.4258 22.5722C37.8384 22.5722 38.1729 22.2378 38.1729 21.8251V12.0315C38.1729 11.9754 38.1922 11.9202 38.2273 11.8762L39.9761 9.68635C40.4037 9.15085 41.042 8.84375 41.7274 8.84375H43.7708H47.2646C48.5005 8.84375 49.5059 9.84921 49.5059 11.085V14.097Z" fill="#134A85"/>
<path d="M24.8535 36.031H23.6583C23.5769 35.4229 23.3936 34.8895 23.1167 34.4409L24.5835 32.9742C24.8753 32.6823 24.8753 32.2094 24.5835 31.9176C24.2918 31.626 23.8188 31.6258 23.527 31.9176L22.0604 33.3843C21.6117 33.107 21.0784 32.9237 20.47 32.8421V31.6475C20.47 31.2348 20.1355 30.9004 19.723 30.9004C19.3104 30.9004 18.9759 31.2348 18.9759 31.6475V32.8421C18.3677 32.9237 17.8343 33.107 17.3855 33.3843L15.9189 31.9176C15.6271 31.6259 15.1541 31.6259 14.8624 31.9176C14.5707 32.2095 14.5707 32.6824 14.8624 32.9742L16.3292 34.4409C16.0522 34.8896 15.869 35.4229 15.7875 36.031H14.5923C14.1797 36.031 13.8452 36.3654 13.8452 36.778C13.8452 37.1907 14.1797 37.5251 14.5923 37.5251H15.7878C15.8694 38.133 16.0528 38.6661 16.3299 39.1147L14.8625 40.582C14.5708 40.8739 14.5708 41.3468 14.8625 41.6386C15.0084 41.7844 15.1996 41.8573 15.3908 41.8573C15.5819 41.8573 15.7732 41.7844 15.919 41.6386L17.3866 40.171C17.8352 40.4479 18.3682 40.6311 18.976 40.7126V41.9087C18.976 42.3214 19.3105 42.6558 19.7231 42.6558C20.1356 42.6558 20.4701 42.3214 20.4701 41.9087V40.7126C21.078 40.6311 21.611 40.4479 22.0595 40.171L23.5271 41.6386C23.673 41.7844 23.8642 41.8573 24.0554 41.8573C24.2465 41.8573 24.4378 41.7844 24.5836 41.6386C24.8754 41.3467 24.8754 40.8738 24.5836 40.582L23.1163 39.1147C23.3934 38.6661 23.5768 38.133 23.6583 37.5251H24.8538C25.2664 37.5251 25.6009 37.1907 25.6009 36.778C25.6009 36.3654 25.2661 36.031 24.8535 36.031ZM19.7229 39.2675C18.0472 39.2675 17.2326 38.4529 17.2326 36.7772C17.2326 35.1016 18.0472 34.287 19.7229 34.287C21.3954 34.287 22.2098 35.0988 22.2128 36.7682C22.2128 36.7715 22.2123 36.7747 22.2123 36.7779C22.2123 36.781 22.2127 36.784 22.2128 36.7871C22.2094 38.4559 21.3951 39.2675 19.7229 39.2675Z" fill="#134A85"/>
<path d="M19.7227 35.7812C19.1734 35.7812 18.7266 36.2281 18.7266 36.7773C18.7266 37.3266 19.1734 37.7734 19.7227 37.7734C20.2719 37.7734 20.7188 37.3266 20.7188 36.7773C20.7188 36.2281 20.2719 35.7812 19.7227 35.7812Z" fill="#134A85"/>
<path d="M16.0869 21.793C16.0869 20.5572 15.0816 19.5518 13.8457 19.5518C12.6098 19.5518 11.6045 20.5572 11.6045 21.793C11.6045 23.0287 12.6098 24.0342 13.8457 24.0342C15.0816 24.0342 16.0869 23.0287 16.0869 21.793ZM13.0986 21.793C13.0986 21.381 13.4337 21.0459 13.8457 21.0459C14.2577 21.0459 14.5928 21.381 14.5928 21.793C14.5928 22.205 14.2577 22.54 13.8457 22.54C13.4337 22.54 13.0986 22.205 13.0986 21.793Z" fill="#134A85"/>
<path d="M21.9141 16.8125C23.5618 16.8125 24.9023 15.472 24.9023 13.8242C24.9023 12.1765 23.5618 10.8359 21.9141 10.8359C20.2663 10.8359 18.9258 12.1765 18.9258 13.8242C18.9258 15.472 20.2663 16.8125 21.9141 16.8125ZM21.9141 12.3301C22.7379 12.3301 23.4082 13.0003 23.4082 13.8242C23.4082 14.6481 22.7379 15.3184 21.9141 15.3184C21.0902 15.3184 20.4199 14.6481 20.4199 13.8242C20.4199 13.0003 21.0902 12.3301 21.9141 12.3301Z" fill="#134A85"/>
</svg>
