<svg width="51" height="51" viewBox="0 0 51 51" fill="none" xmlns="http://www.w3.org/2000/svg">
<g clip-path="url(#clip0_3064_12952)">
<path d="M6.19778 30.237C5.97911 29.8871 5.51798 29.7807 5.16822 29.9994C4.81826 30.218 4.71187 30.679 4.93053 31.0289L5.95262 32.6643C6.09437 32.891 6.33784 33.0155 6.58689 33.0155C6.72207 33.0155 6.85904 32.9788 6.98217 32.9019C7.33213 32.6832 7.43853 32.2223 7.21986 31.8723L6.19778 30.237Z" fill="#134A85"/>
<path d="M9.14168 28.0996C9.47391 27.8548 9.54474 27.3871 9.29998 27.0549C9.05511 26.7227 8.5875 26.652 8.25528 26.8967L6.96073 27.8507C6.62851 28.0954 6.55768 28.5631 6.80244 28.8954C6.94898 29.0942 7.17521 29.1993 7.40453 29.1993C7.55845 29.1993 7.71375 29.1519 7.84714 29.0536L9.14168 28.0996Z" fill="#134A85"/>
<path d="M8.2585 30.4081C8.13427 30.8016 8.35254 31.2213 8.74603 31.3455L10.0407 31.7543C10.1156 31.778 10.1914 31.7892 10.2659 31.7892C10.5832 31.7892 10.8776 31.5855 10.9782 31.2668C11.1024 30.8733 10.8841 30.4536 10.4906 30.3294L9.19601 29.9206C8.80231 29.7964 8.38282 30.0146 8.2585 30.4081Z" fill="#134A85"/>
<path d="M47.3937 5.77539H34.3785C32.5762 5.77539 30.9912 6.71878 30.088 8.13685C29.8854 7.80213 29.6414 7.48933 29.3577 7.20522C28.4343 6.28315 27.2078 5.77539 25.9039 5.77539C22.1614 5.77539 18.5355 6.85516 15.4182 8.89803C12.3808 10.8885 9.97967 13.6818 8.47454 16.9758C8.30299 17.3512 8.46826 17.7944 8.84352 17.9659C9.21918 18.1375 9.66219 17.9721 9.83353 17.5968C11.2215 14.5595 13.4357 11.9837 16.2372 10.1478C19.1104 8.26496 22.453 7.26967 25.9038 7.26967C26.8089 7.26967 27.6606 7.62232 28.3009 8.26187C28.9412 8.90301 29.2938 9.75455 29.2938 10.6597V27.1236C29.2938 28.6287 28.3151 29.9354 26.858 30.3753C21.6237 31.9579 17.2962 35.4714 14.6729 40.2683L13.5882 42.2505C13.0884 43.1631 12.1317 43.73 11.0905 43.73C9.52113 43.73 8.24442 42.4537 8.24442 40.8849V38.1066C9.47939 37.8755 10.5188 37.0143 10.9758 35.852C12.4268 36.0695 13.9219 35.3861 14.6805 34.0721C15.4392 32.7581 15.2834 31.1214 14.3695 29.9738C15.2834 28.8262 15.4392 27.1897 14.6805 25.8754C13.9217 24.5614 12.4263 23.8782 10.9758 24.0956C10.5514 23.0162 9.62433 22.1966 8.50512 21.8997C8.59956 21.3545 8.718 20.8126 8.86275 20.2819C8.97123 19.8838 8.73643 19.4731 8.33836 19.3647C7.94088 19.2562 7.52965 19.4909 7.42097 19.8889C7.24803 20.5235 7.10777 21.1724 7.00118 21.825C5.73034 22.0325 4.65536 22.9078 4.18835 24.0956C2.7377 23.8779 1.24233 24.5613 0.483636 25.8755C-0.275059 27.1896 -0.119255 28.8262 0.794645 29.9738C-0.119255 31.1214 -0.275059 32.758 0.483636 34.0721C1.24233 35.3863 2.7375 36.0697 4.18835 35.8519C4.62438 36.9608 5.58988 37.7978 6.75014 38.0731V40.8848C6.75014 43.2776 8.69728 45.2242 11.0915 45.2242C12.6779 45.2242 14.1368 44.3597 14.8989 42.9679L15.9839 40.9854C18.4182 36.5342 22.4336 33.2741 27.2904 31.8056C28.7244 31.3727 29.8356 30.3524 30.393 29.055C30.514 29.2073 30.6433 29.3542 30.7828 29.4938C31.743 30.454 33.0199 30.9828 34.3784 30.9828C36.6136 30.9828 38.6159 29.4929 39.2479 27.3596C39.6305 26.0682 40.2253 24.8558 41.016 23.7562C41.2569 23.4212 41.1805 22.9543 40.8455 22.7134C40.5106 22.4727 40.0435 22.5489 39.8028 22.8839C38.9141 24.1197 38.2453 25.4828 37.8151 26.9352C37.3697 28.4385 35.9566 29.4884 34.3784 29.4884C33.4191 29.4884 32.5174 29.115 31.8396 28.4371C31.1616 27.7591 30.7882 26.8575 30.7882 25.8981V10.8597C30.7882 8.88 32.3988 7.26947 34.3784 7.26947H47.3935C48.5579 7.26947 49.5054 8.21644 49.5054 9.38039V9.42223C49.5054 11.3754 48.9838 13.3066 47.9969 15.0071C47.0167 16.6959 45.5998 18.1223 43.8987 19.1322C43.1985 19.5483 42.5343 20.0283 41.9249 20.559C41.6137 20.8299 41.5812 21.3019 41.8521 21.6131C42.1232 21.9244 42.5952 21.9568 42.9062 21.686C43.448 21.2142 44.0387 20.7872 44.6619 20.417C46.5814 19.2774 48.1815 17.666 49.2893 15.7573C50.4082 13.8292 50.9997 11.6386 50.9997 9.42232V9.38049C50.9999 7.3926 49.3822 5.77539 47.3937 5.77539ZM5.4548 34.8341C5.42232 34.6071 5.28734 34.4075 5.0887 34.2928C4.97374 34.2263 4.84474 34.1927 4.71513 34.1927C4.62099 34.1927 4.52645 34.2105 4.4369 34.2464C3.45197 34.6415 2.30915 34.2452 1.77788 33.3249C1.24651 32.4046 1.47504 31.2165 2.30944 30.5614C2.48985 30.4197 2.59515 30.203 2.59515 29.9737C2.59515 29.7444 2.48975 29.5277 2.30944 29.3861C1.47504 28.731 1.24661 27.5429 1.77788 26.6226C2.30924 25.7023 3.45247 25.3061 4.4369 25.7011C4.64978 25.7865 4.89006 25.7694 5.0887 25.6548C5.28734 25.5401 5.42232 25.3405 5.4548 25.1134C5.60492 24.0633 6.51952 23.2714 7.58215 23.2714C8.64498 23.2714 9.55958 24.0633 9.70961 25.1134C9.74208 25.3405 9.87706 25.54 10.0757 25.6548C10.2743 25.7695 10.5146 25.7866 10.7275 25.7011C11.7122 25.306 12.8552 25.7023 13.3865 26.6226C13.9179 27.5428 13.6894 28.731 12.855 29.3861C12.6746 29.5277 12.5693 29.7444 12.5693 29.9737C12.5693 30.203 12.6747 30.4197 12.855 30.5614C13.6894 31.2165 13.9179 32.4045 13.3865 33.3248C12.8551 34.2452 11.7117 34.6412 10.7275 34.2463C10.5147 34.1609 10.2742 34.1779 10.0757 34.2926C9.87706 34.4072 9.74208 34.6069 9.70961 34.8339C9.55948 35.8841 8.64488 36.676 7.58215 36.676C6.51942 36.6762 5.60492 35.8843 5.4548 34.8341Z" fill="#134A85"/>
</g>
<defs>
<clipPath id="clip0_3064_12952">
<rect width="51" height="51" fill="white"/>
</clipPath>
</defs>
</svg>
