<svg width="51" height="51" viewBox="0 0 51 51" fill="none" xmlns="http://www.w3.org/2000/svg">
<path d="M47.5753 22.9918C47.4254 22.6074 46.9923 22.4174 46.608 22.5673C46.2237 22.7172 46.0334 23.1504 46.1835 23.5346C46.9868 25.5946 47.826 27.8921 48.6778 30.3636C49.8613 33.7956 49.7297 37.5272 48.3072 40.8717L45.8573 46.6356C45.5776 47.2937 45.0216 47.7798 44.3315 47.9691C43.6427 48.1582 42.9175 48.0244 42.3423 47.6018C41.1829 46.7503 40.3549 46.1001 39.8807 45.6688C39.1947 45.046 38.0353 44.8177 36.6929 44.5534C36.0621 44.4292 35.4099 44.3008 34.7464 44.1235C32.2335 43.4516 30.6101 41.087 30.8863 38.5009L31.9986 28.1053L39.6501 37.5072V40.3007C39.6501 40.7132 39.9846 41.0477 40.3972 41.0477C40.8097 41.0477 41.1442 40.7132 41.1442 40.3007V37.9815H43.4551C43.8676 37.9815 44.2021 37.647 44.2021 37.2344C44.2021 36.8218 43.8676 36.4874 43.4551 36.4874H40.748L39.2122 34.5571C39.5722 34.4662 39.9109 34.2966 40.2056 34.0531C40.7284 33.6212 41.0518 33.0115 41.116 32.3364C41.1804 31.6613 40.9779 31.0016 40.5459 30.4788L39.0205 28.6325C39.8768 28.6799 41.087 28.3571 41.6424 28.0273C42.0042 27.8289 42.1368 27.3749 41.9386 27.0131C41.7403 26.6513 41.2861 26.5187 40.9244 26.7169C40.9184 26.7202 40.301 27.0482 39.4869 27.1261C38.4358 27.2265 37.5594 26.8626 36.8822 26.044L32.7534 21.0465L33.0086 18.662C34.8989 20.7644 37.6382 22.0889 40.6813 22.0889C46.3711 22.0889 51.0001 17.4599 51.0001 11.77C51.0001 6.08025 46.3711 1.45127 40.6812 1.45127C34.9915 1.45127 30.3625 6.08025 30.3625 11.77C30.3625 13.6141 30.8493 15.3466 31.7003 16.8463L31.4231 19.4363L28.7621 16.2155C28.287 15.6405 28.0254 14.913 28.0254 14.1671V2.19821C28.0254 1.78565 27.691 1.45117 27.2784 1.45117C26.8658 1.45117 26.5314 1.78565 26.5314 2.19821V4.78717H24.4417V2.19821C24.4417 1.78565 24.1072 1.45117 23.6947 1.45117C23.2821 1.45117 22.9476 1.78565 22.9476 2.19821V14.167C22.9476 14.913 22.6861 15.6404 22.211 16.2154L19.5501 19.4362L19.2562 16.6902C19.0282 14.5591 17.772 12.6621 15.8961 11.6155C14.0515 10.579 11.6963 10.4901 9.76473 11.5133C8.49864 12.1697 7.0177 14.5015 5.10428 18.8515C3.50112 22.4961 1.92387 26.8586 0.883088 29.8765C-0.421149 33.6587 -0.276323 37.7711 1.29107 41.456L3.74087 47.2198C4.20016 48.3008 5.11344 49.0989 6.24655 49.4098C6.58312 49.5021 6.92487 49.5476 7.26393 49.5476C8.06516 49.5476 8.85114 49.2938 9.51551 48.8059C10.7166 47.9238 11.5852 47.2403 12.097 46.7748C12.4752 46.4314 13.4922 46.2312 14.569 46.0192C15.1933 45.8963 15.901 45.757 16.6128 45.5667C18.1642 45.1519 19.519 44.1946 20.4278 42.8709C21.3366 41.5471 21.7432 39.9387 21.5727 38.3418L21.2198 35.0435C21.1759 34.6332 20.8076 34.3364 20.3975 34.3801C19.9873 34.424 19.6903 34.7922 19.7342 35.2024L20.0871 38.5006C20.3633 41.0868 18.7399 43.4515 16.2269 44.1233C15.5635 44.3007 14.9113 44.4291 14.2804 44.5532C12.938 44.8175 11.7787 45.0458 11.0923 45.669C10.6184 46.0999 9.79033 46.7501 8.63111 47.6016C8.05599 48.024 7.33086 48.158 6.64189 47.9689C5.95182 47.7797 5.39572 47.2936 5.11603 46.6353L2.66613 40.8713C1.24376 37.5271 1.11218 33.7954 2.2957 30.3635C3.32731 27.3722 4.88933 23.0511 6.47206 19.453C8.72773 14.325 9.93416 13.1085 10.452 12.8401C11.8462 12.0908 13.7218 12.0951 15.1684 12.9204C16.6215 13.731 17.5943 15.1996 17.7708 16.8492L18.2201 21.0464L14.0929 26.042C12.4832 27.9899 10.1469 26.7693 10.0463 26.7154C9.68504 26.5192 9.23263 26.6521 9.03482 27.0129C8.8365 27.3746 8.96908 27.8287 9.33094 28.0271C9.82539 28.3071 10.9332 28.6759 11.953 28.6323L10.4276 30.4786C9.99571 31.0014 9.79321 31.6612 9.85746 32.3362C9.92171 33.0113 10.245 33.621 10.7679 34.0529C11.0625 34.2963 11.4008 34.4669 11.7605 34.5578L10.2254 36.4872H7.51802C7.10545 36.4872 6.77098 36.8216 6.77098 37.2342C6.77098 37.6468 7.10545 37.9813 7.51802 37.9813H9.82887V40.3005C9.82887 40.713 10.1633 41.0475 10.5759 41.0475C10.9885 41.0475 11.323 40.713 11.323 40.3005V37.507L18.9746 28.1052L19.3624 31.7302C19.4035 32.1135 19.7274 32.3979 20.1043 32.3979C20.1309 32.3979 20.1577 32.3965 20.1847 32.3936C20.595 32.3496 20.8919 31.9815 20.8481 31.5713L20.3049 26.4949L25.4865 20.2231L30.6681 26.495L29.4005 38.342C29.23 39.9388 29.6366 41.5472 30.5454 42.871C31.4542 44.1947 32.809 45.1521 34.3604 45.5668C35.0721 45.7571 35.7797 45.8964 36.4042 46.0193C37.4809 46.2313 38.498 46.4315 38.8758 46.7745C39.388 47.2403 40.2566 47.9238 41.4577 48.806C42.122 49.294 42.9079 49.5477 43.7092 49.5477C44.0483 49.5477 44.3902 49.5022 44.7267 49.4099C45.8597 49.099 46.773 48.3008 47.2323 47.2199L49.6821 41.4563C51.2495 37.7712 51.3943 33.6588 50.0902 29.8767C49.2321 27.3865 48.3859 25.0702 47.5753 22.9918ZM40.6813 2.94526C45.5473 2.94526 49.506 6.90398 49.506 11.7699C49.506 16.636 45.5473 20.5947 40.6813 20.5947C35.8154 20.5947 31.8567 16.636 31.8567 11.7699C31.8567 6.90398 35.8154 2.94526 40.6813 2.94526ZM24.4417 9.51943H26.5314V11.2636H24.4417V9.51943ZM26.5314 6.28125V8.02535H24.4417V6.28125H26.5314ZM25.4866 18.3032C25.2638 18.3032 25.0526 18.4027 24.9107 18.5744L13.1901 32.7611C13.0124 32.9763 12.7615 33.1093 12.4837 33.1357C12.2056 33.1622 11.9343 33.0789 11.7192 32.9011C11.504 32.7234 11.371 32.4725 11.3445 32.1947C11.318 31.9168 11.4013 31.6453 11.5791 31.4302L23.3628 17.1671C24.0585 16.3249 24.4418 15.2595 24.4418 14.167V12.7577H26.5315V14.1669C26.5315 15.2593 26.9146 16.3248 27.6104 17.167L39.3941 31.4301C39.5719 31.6452 39.6553 31.9168 39.6288 32.1946C39.6023 32.4724 39.4692 32.7233 39.2541 32.901C39.0389 33.0788 38.7672 33.162 38.4896 33.1356C38.2117 33.1091 37.9609 32.9761 37.7832 32.761L26.0626 18.5743C25.9207 18.4026 25.7094 18.3032 25.4866 18.3032Z" fill="#134A85"/>
<path d="M36.3636 15.4939C36.9407 15.7714 37.5659 15.889 38.1819 15.8507L37.7486 16.9052C37.5917 17.2868 37.774 17.7232 38.1556 17.8801C38.2485 17.9183 38.3446 17.9364 38.4393 17.9364C38.7332 17.9364 39.0119 17.7618 39.1305 17.4731L39.5788 16.3822C40.007 16.8478 40.5559 17.2012 41.182 17.3979C41.5412 17.5108 41.9067 17.5647 42.2679 17.5647C43.6543 17.5646 44.9726 16.7696 45.5853 15.46C46.1539 14.2446 45.9987 12.867 45.2858 11.8287L46.4427 11.6352C46.8496 11.5672 47.1244 11.1821 47.0564 10.7752C46.9883 10.3683 46.6036 10.0938 46.1964 10.1616L45.1117 10.3429C45.2662 9.81384 45.3021 9.2405 45.2048 8.66389C45 7.45149 44.244 6.44378 43.1808 5.96477C42.0419 5.4028 40.7081 5.49902 39.6093 6.22345C38.7627 6.78164 38.2022 7.61106 38.0169 8.53868C36.4445 8.51328 34.9844 9.50755 34.475 11.067C33.9087 12.8007 34.7206 14.7039 36.3636 15.4939ZM35.8952 11.5308C36.2527 10.4364 37.4012 9.81045 38.5092 10.1053C38.741 10.167 38.988 10.1137 39.1737 9.96215C39.3593 9.81065 39.461 9.57916 39.4472 9.33991C39.4044 8.60422 39.7725 7.90549 40.4319 7.47071C41.085 7.04002 41.8687 6.97966 42.5284 7.30885C42.5383 7.31383 42.5485 7.31861 42.5587 7.3232C43.171 7.59532 43.6095 8.18957 43.7316 8.9126C43.8538 9.63644 43.6357 10.3412 43.1481 10.7981C42.81 11.1019 42.8289 11.7637 43.304 12.0007C44.3114 12.5443 44.7191 13.7857 44.232 14.8268C43.7755 15.8025 42.6568 16.2952 41.6298 15.9725C40.9249 15.751 40.3856 15.1953 40.187 14.4859C40.1278 14.1877 39.588 13.7696 39.0802 14.0486C38.4505 14.4305 37.6769 14.4675 37.0111 14.1474C36.0402 13.6805 35.5605 12.5557 35.8952 11.5308Z" fill="#134A85"/>
<path d="M36.4011 7.37598C36.8137 7.37598 37.1482 7.0415 37.1482 6.62891C37.1482 6.21631 36.8137 5.88184 36.4011 5.88184C35.9885 5.88184 35.6541 6.21631 35.6541 6.62891C35.6541 7.0415 35.9885 7.37598 36.4011 7.37598Z" fill="#134A85"/>
<path d="M37.9141 12.9727C38.3267 12.9727 38.6611 12.6382 38.6611 12.2256C38.6611 11.813 38.3267 11.4785 37.9141 11.4785C37.5015 11.4785 37.167 11.813 37.167 12.2256C37.167 12.6382 37.5015 12.9727 37.9141 12.9727Z" fill="#134A85"/>
<path d="M41.7061 9.85547C42.1187 9.85547 42.4531 9.52099 42.4531 9.1084C42.4531 8.6958 42.1187 8.36133 41.7061 8.36133C41.2935 8.36133 40.959 8.6958 40.959 9.1084C40.959 9.52099 41.2935 9.85547 41.7061 9.85547Z" fill="#134A85"/>
<path d="M42.3525 14.8096C42.7651 14.8096 43.0996 14.4751 43.0996 14.0625C43.0996 13.6499 42.7651 13.3154 42.3525 13.3154C41.9399 13.3154 41.6055 13.6499 41.6055 14.0625C41.6055 14.4751 41.9399 14.8096 42.3525 14.8096Z" fill="#134A85"/>
</svg>
