<svg width="51" height="51" viewBox="0 0 51 51" fill="none" xmlns="http://www.w3.org/2000/svg">
<path d="M32.5568 2.16211C23.5787 2.16211 16.2747 9.46608 16.2747 18.4441C16.2747 20.8931 16.8049 23.2473 17.8511 25.4421C18.0272 25.8114 18.469 25.9676 18.8376 25.7918C19.2066 25.616 19.3631 25.1742 19.1873 24.8052C18.2367 22.8111 17.7549 20.6711 17.7549 18.4441C17.7549 10.2824 24.395 3.64229 32.5568 3.64229C40.7186 3.64229 47.3588 10.2824 47.3588 18.4441C47.3588 26.6059 40.7186 33.246 32.5568 33.246C31.8452 33.246 31.1303 33.1949 30.4316 33.0947C30.0264 33.0366 29.6519 33.3174 29.5938 33.7219C29.5357 34.1263 29.8166 34.5016 30.2211 34.5597C30.9893 34.6699 31.7753 34.7262 32.5568 34.7262C41.535 34.7262 48.839 27.4222 48.839 18.4441C48.839 9.46608 41.535 2.16211 32.5568 2.16211Z" fill="#134A85"/>
<path d="M2.58263 49.1586L2.90235 49.1605C3.01003 49.1612 3.12179 49.1623 3.23687 49.1623C4.66786 49.1623 6.61875 49.0199 7.6845 46.901C8.26658 45.7438 8.14743 44.5497 8.03271 43.3948C7.88321 41.8917 7.75407 40.5939 9.02704 39.3209C10.4613 37.8867 11.8054 37.9455 13.3629 38.0132C14.728 38.0732 16.2574 38.1361 17.815 37.097C18.1983 37.4763 18.7057 37.6861 19.2456 37.6861C19.7888 37.6861 20.2998 37.4744 20.6836 37.0903L22.2422 35.532C24.1487 36.2377 26.1004 35.8222 27.5461 34.3757C28.2163 33.7055 29.0352 32.4884 29.745 31.0841C30.6646 31.288 31.6067 31.3964 32.5566 31.3964C39.6982 31.3964 45.5083 25.5863 45.5083 18.4448C45.5083 11.3033 39.6982 5.49316 32.5566 5.49316C25.415 5.49316 19.6049 11.3033 19.6049 18.4448C19.6049 20.7838 20.231 23.0459 21.413 25.0386C20.6636 25.5019 20.023 25.9786 19.586 26.4156C18.1399 27.8617 17.7243 29.8134 18.4296 31.7198L16.8713 33.2781C16.4869 33.6622 16.2756 34.1729 16.2756 34.7165C16.2756 35.1983 16.4502 35.649 16.7555 36.0138C15.6824 36.6303 14.6226 36.5863 13.4269 36.5341C11.7617 36.4612 9.87445 36.3791 7.9798 38.2741C6.21096 40.0429 6.40413 41.9823 6.55918 43.541C6.66168 44.5723 6.75049 45.4626 6.36157 46.2356C5.67513 47.6004 4.55018 47.6936 2.91419 47.6799L2.58263 47.6784C2.17409 47.6784 1.84253 48.01 1.84253 48.4185C1.84253 48.8271 2.17409 49.1586 2.58263 49.1586ZM21.0851 18.4448C21.0851 12.1196 26.2314 6.97335 32.5566 6.97335C38.8819 6.97335 44.0281 12.1196 44.0281 18.4448C44.0281 24.77 38.8819 29.9162 32.5566 29.9162C31.8221 29.9162 31.0927 29.8437 30.3778 29.7064C31.4017 27.2278 31.8946 24.542 30.6572 23.3046C29.3968 22.0439 26.849 22.6196 24.9336 23.325C24.1831 23.6014 23.4208 23.9415 22.7026 24.3115C21.6457 22.5405 21.0851 20.5274 21.0851 18.4448ZM17.9182 34.325L19.146 33.0971C19.3418 33.3762 19.5971 33.6948 19.932 34.03C20.0767 34.1747 20.2658 34.2465 20.4553 34.2465C20.6447 34.2465 20.8342 34.1743 20.9785 34.03C21.2675 33.741 21.2675 33.2725 20.9785 32.9832C20.2614 32.266 20.0031 31.6436 19.9946 31.6229C19.9901 31.6121 19.9835 31.6029 19.979 31.5922C19.9764 31.5862 19.9764 31.58 19.9738 31.5744C19.2681 30.0857 19.5083 28.5866 20.6329 27.4621C21.5288 26.5666 23.5526 25.4105 25.4454 24.7137C26.7742 24.2245 27.773 24.0432 28.4709 24.0432C29.0567 24.0432 29.4308 24.1709 29.611 24.3507C30.8396 25.5796 28.3477 31.4808 26.5 33.3284C25.3754 34.453 23.8767 34.6935 22.3877 33.9878C22.1049 33.8539 21.7686 33.912 21.5473 34.1333L19.6371 36.0434C19.428 36.2525 19.0631 36.2522 18.8541 36.0434L17.9186 35.108C17.8139 35.0033 17.7565 34.8645 17.7565 34.7165C17.7558 34.5684 17.8135 34.4293 17.9182 34.325Z" fill="#134A85"/>
<path d="M4.38011 32.3392C3.49125 32.6234 2.38517 32.9772 1.88042 34.4914C1.75128 34.8792 1.96073 35.2981 2.34854 35.4276C2.42625 35.4535 2.50544 35.4658 2.58278 35.4658C2.89251 35.4658 3.18152 35.2696 3.28476 34.9595C3.54046 34.1921 3.96713 34.0255 4.83083 33.7491C5.66344 33.483 6.6992 33.1515 7.45781 31.9226C8.23935 30.657 8.18014 29.6027 8.13241 28.7557C8.10465 28.2598 8.0806 27.8317 8.21012 27.3973C8.28154 27.1586 8.57868 26.8788 8.8799 26.6624C9.11045 26.8744 9.3495 27.0787 9.60557 27.2666C9.64369 27.2944 9.68402 27.3188 9.72621 27.3388C10.2158 27.5708 10.7224 27.6844 11.2182 27.6844C12.0645 27.6844 12.8783 27.3529 13.5174 26.7138C14.1783 26.0529 14.9458 24.7292 15.4283 23.4196C15.8783 22.1966 16.2339 20.5577 15.3709 19.6951C14.5084 18.8322 12.8694 19.1878 11.6464 19.6381C10.3368 20.1203 9.01275 20.8878 8.35221 21.5487C7.33865 22.5622 7.09923 24.015 7.72757 25.3398C7.74718 25.3813 7.7705 25.4205 7.79751 25.4575C7.82341 25.4934 7.85302 25.5263 7.87966 25.5615C7.45226 25.8908 6.97156 26.3733 6.79209 26.9743C6.58856 27.6567 6.62371 28.2846 6.6548 28.8386C6.69809 29.6094 6.73547 30.2755 6.19853 31.1447C5.72746 31.9085 5.10318 32.1083 4.38011 32.3392ZM9.39871 22.5955C9.83352 22.1607 10.9207 21.4828 12.1578 21.0273C13.5129 20.5285 14.2023 20.6199 14.3244 20.742C14.4466 20.8641 14.5376 21.5546 14.0391 22.9086C13.584 24.1457 12.9057 25.2329 12.4709 25.6677C11.9113 26.2276 11.1683 26.3582 10.4223 26.0299C9.88829 25.6296 9.42277 25.1644 9.03755 24.646C8.70857 23.8996 8.83883 23.1554 9.39871 22.5955Z" fill="#134A85"/>
<path d="M27.18 42.5234C26.374 42.4875 25.46 42.4475 24.7084 43.0177C23.4432 43.9784 23.3611 45.0623 23.3015 45.8538C23.2693 46.2827 23.2434 46.6216 23.0599 46.8973C22.8656 47.1889 22.1581 47.6781 19.6051 47.6781C19.1966 47.6781 18.865 48.0097 18.865 48.4182C18.865 48.8267 19.1966 49.1583 19.6051 49.1583C21.2048 49.1583 23.431 49.0092 24.2914 47.7184C24.6907 47.1197 24.7369 46.5065 24.7776 45.9652C24.8306 45.2625 24.869 44.7547 25.6032 44.1971C25.9292 43.9499 26.4784 43.9739 27.1149 44.0021C28.0133 44.0417 29.1927 44.0901 30.227 43.2797C30.3509 43.3826 30.476 43.4851 30.607 43.5813C30.6451 43.6091 30.6851 43.6331 30.7277 43.6531C31.1976 43.8759 31.6839 43.9851 32.1597 43.9851C32.9724 43.9851 33.7543 43.6668 34.3678 43.0529C35.4569 41.9639 37.6306 37.8438 36.1263 36.3395C34.6217 34.8353 30.5019 37.0093 29.4129 38.098C28.4396 39.0712 28.2095 40.4659 28.8127 41.7381C28.8323 41.7792 28.8556 41.8188 28.8822 41.8558C28.9718 41.979 29.0684 42.0971 29.1653 42.2147C28.5899 42.5804 27.9253 42.5563 27.18 42.5234ZM30.4597 39.1452C31.5895 38.0155 34.6524 36.9594 35.0798 37.3868C35.5072 37.8142 34.4507 40.877 33.3213 42.0064C32.8029 42.5248 32.1139 42.6462 31.4233 42.3439C30.9219 41.9676 30.4853 41.5313 30.123 41.0443C29.8199 40.353 29.9409 39.664 30.4597 39.1452Z" fill="#134A85"/>
<path d="M28.8562 18.9988C28.8562 19.6412 29.1064 20.2455 29.5608 20.6996C30.0148 21.154 30.6187 21.4041 31.2615 21.4041C31.9043 21.4041 32.5082 21.154 32.9623 20.6996L34.4069 19.2549L35.8516 20.6992C36.3057 21.154 36.9096 21.4041 37.5524 21.4041C38.1951 21.4041 38.7991 21.154 39.2531 20.6999C39.7075 20.2455 39.9577 19.6416 39.9577 18.9988C39.9577 18.3561 39.7075 17.7521 39.2531 17.2981L37.8084 15.8534L39.2527 14.4091C39.7072 13.9547 39.9573 13.3508 39.9573 12.708C39.9573 12.0653 39.7072 11.4613 39.2527 11.0073C38.7991 10.5529 38.1951 10.3027 37.5524 10.3027C36.9096 10.3027 36.3057 10.5529 35.8516 11.0073L34.4069 12.452L32.9623 11.0077C32.5082 10.5529 31.9043 10.3027 31.2615 10.3027C30.6187 10.3027 30.0148 10.5529 29.5608 11.0069C29.1064 11.4613 28.8562 12.0656 28.8562 12.708C28.8562 13.3504 29.1064 13.9547 29.5608 14.4088L31.0054 15.8534L29.5611 17.2977C29.1064 17.7521 28.8562 18.3564 28.8562 18.9988ZM30.6073 18.3446L32.5752 16.3767C32.8642 16.0877 32.8642 15.6192 32.5752 15.3302L30.6073 13.3623C30.4326 13.1872 30.3364 12.9552 30.3364 12.708C30.3364 12.4608 30.4326 12.2288 30.6076 12.0534C30.9566 11.7045 31.5661 11.7045 31.9158 12.0534L33.8837 14.0213C34.1723 14.3103 34.6416 14.3103 34.9302 14.0213L36.8985 12.0531C37.2474 11.7041 37.8569 11.7037 38.2066 12.0534C38.3813 12.2281 38.4775 12.4605 38.4775 12.7077C38.4775 12.9549 38.3813 13.1869 38.2066 13.3619L36.2387 15.3298C35.9497 15.6188 35.9497 16.0873 36.2387 16.3763L38.2066 18.3442C38.3813 18.5189 38.4775 18.7513 38.4775 18.9985C38.4775 19.2456 38.3813 19.4777 38.2062 19.6531C37.8573 20.002 37.2478 20.0024 36.8981 19.6531L34.9302 17.6852C34.7859 17.5405 34.5964 17.4683 34.4069 17.4683C34.2175 17.4683 34.028 17.5405 33.8837 17.6852L31.9154 19.6534C31.5664 20.0024 30.957 20.0028 30.6073 19.6531C30.4326 19.478 30.3364 19.246 30.3364 18.9988C30.3364 18.7516 30.4326 18.5196 30.6073 18.3446Z" fill="#134A85"/>
</svg>
