<svg width="51" height="51" viewBox="0 0 51 51" fill="none" xmlns="http://www.w3.org/2000/svg">
<g clip-path="url(#clip0_3059_12384)">
<path d="M45.8855 13.1392C45.0842 11.5148 43.9757 10.0431 42.5853 8.75082C42.8496 8.50986 43.0216 8.18403 43.0667 7.82016C43.1247 7.35298 42.9669 6.89417 42.6341 6.56127L39.3542 3.28138C38.8538 2.78114 38.0645 2.71031 37.4264 3.10537L35.0611 4.42014C32.046 3.39056 28.6838 2.84588 25.3122 2.84588C25.1295 2.84588 24.9464 2.84867 24.7634 2.85266L25.166 1.75833C25.1751 1.73363 25.1829 1.70853 25.1893 1.68303C25.2919 1.27592 25.2028 0.85247 24.9447 0.521164C24.6866 0.189858 24.2979 0 23.878 0H20.2282C19.5982 0 19.057 0.448448 18.9034 1.09383L18.0795 3.98005C14.8526 5.06113 12.1934 6.87136 10.3746 9.23602C10.1231 9.56305 10.1844 10.0321 10.5114 10.2837C10.6471 10.3881 10.8073 10.4387 10.9662 10.4387C11.1902 10.4387 11.4119 10.3384 11.559 10.1471C13.0099 8.26063 15.0721 6.76119 17.5722 5.75741L16.941 7.96897C16.9395 7.97405 16.9382 7.97923 16.9368 7.98441C16.8008 8.50249 16.9026 9.03282 17.2164 9.43943C17.5204 9.83359 17.9922 10.0596 18.5107 10.0596H21.3383L20.615 14.9774C20.5972 15.098 20.5935 15.2101 20.6036 15.3197C20.668 16.0248 21.2095 16.5366 21.891 16.5366C22.2461 16.5405 22.7936 16.2904 23.0696 15.7829C23.0974 15.7261 26.8381 8.37937 26.8653 8.3196C27.083 7.83022 27.0383 7.26512 26.7463 6.80791C26.442 6.33167 25.924 6.0423 25.3643 6.03383L23.606 5.99867L24.2065 4.36664C24.5735 4.34931 24.9436 4.34005 25.3123 4.34005C28.0362 4.34005 30.7507 4.7121 33.259 5.42192L29.4803 7.52242C29.4756 7.52501 29.4709 7.5276 29.4664 7.53039C28.9331 7.84187 28.5841 8.35586 28.5087 8.94048C28.4359 9.50507 28.6356 10.0706 29.057 10.4919L31.759 13.194C31.2095 13.5945 30.3043 14.2552 29.3791 14.9342C28.81 14.1719 28.1312 13.5044 27.3504 12.9458C27.0149 12.706 26.5481 12.7833 26.3081 13.119C26.0681 13.4545 26.1455 13.9212 26.4811 14.1612C27.1329 14.6273 27.7001 15.184 28.1759 15.8195C27.542 16.2877 26.9743 16.7101 26.5998 16.9954C26.2509 16.5327 25.8314 16.1194 25.3495 15.7747C25.0141 15.5347 24.5475 15.6121 24.3072 15.9477C24.0672 16.2833 24.1446 16.75 24.4802 16.9899C25.5728 17.7975 26.2488 19.0069 26.2753 20.4772C26.2753 21.9027 25.5691 23.2308 24.3861 24.03C24.0441 24.261 23.9543 24.7254 24.1852 25.0673C24.3295 25.281 24.5651 25.3962 24.805 25.3962C24.9488 25.3962 25.0942 25.3547 25.2224 25.268C26.8173 24.1905 27.7694 22.3996 27.7694 20.4771C27.7694 20.2183 27.7502 19.9618 27.7159 19.7085C27.7888 19.6919 29.471 19.1376 29.6 19.0977C29.6785 19.5426 29.7185 19.9952 29.7185 20.4507C29.7185 23.0218 28.4447 25.4172 26.3112 26.8586C25.9692 27.0896 25.8794 27.554 26.1103 27.8959C26.2546 28.1096 26.4902 28.2249 26.73 28.2249C26.8739 28.2249 27.0193 28.1833 27.1475 28.0968C29.693 26.3771 31.2126 23.5187 31.2126 20.4507C31.2126 19.8373 31.1514 19.2281 31.0319 18.6314L33.075 17.9661C33.4672 17.8384 33.6818 17.4168 33.5541 17.0244C33.4263 16.632 33.0046 16.4177 32.6124 16.5454L27.4488 18.2267C28.7764 17.2112 33.1201 14.0507 33.1706 14.014C33.3897 13.8509 33.5269 13.6011 33.5467 13.3286C33.5666 13.0562 33.4673 12.789 33.2742 12.5959L30.1134 9.43515C30.0181 9.33982 29.9768 9.23772 29.9904 9.13143C30.0059 9.0115 30.0875 8.89954 30.2144 8.82354L38.2909 4.33108L41.5968 7.63667L35.4657 10.4698C35.1905 10.597 34.9928 10.8508 34.9367 11.1488C34.8806 11.4467 34.9725 11.755 35.1825 11.9734L37.4697 14.3539C37.5704 14.4576 37.6115 14.6051 37.58 14.7484C37.562 14.8296 37.5145 14.9361 37.3897 14.9898L35.9277 15.4658C35.5354 15.5935 35.3209 16.0151 35.4486 16.4075C35.5765 16.7999 35.9981 17.0143 36.3903 16.8865L37.8758 16.4028C37.8882 16.3988 37.9004 16.3945 37.9125 16.3899C38.4842 16.1701 38.9055 15.6767 39.0391 15.0698C39.1789 14.435 38.993 13.7785 38.5445 13.3162L36.7992 11.4997L41.165 9.48246C44.3474 12.2347 45.9607 15.8403 45.9607 20.2073C45.9607 26.5862 45.1221 29.1997 39.5705 34.2238C38.4751 35.2153 38.2125 37.0369 38.7678 39.7928C38.8393 40.1475 39.151 40.3924 39.4995 40.3924C39.5484 40.3924 39.598 40.3876 39.6478 40.3776C40.0523 40.2961 40.3141 39.9021 40.2326 39.4977C39.8086 37.3937 39.9295 35.9142 40.5731 35.3318C46.4603 30.004 47.4549 26.8825 47.4549 20.2075C47.4551 17.6282 46.927 15.2502 45.8855 13.1392ZM25.3381 7.5276C25.4271 7.52899 25.4747 7.59274 25.4872 7.61227C25.5142 7.6546 25.5101 7.68419 25.5043 7.70162L22.2563 14.0861L22.9169 9.59433C22.955 9.33584 22.8788 9.07416 22.7079 8.87643C22.5371 8.6787 22.2894 8.56525 22.0281 8.56525H18.5107C18.4293 8.56525 18.4068 8.53616 18.3995 8.5267C18.3783 8.4992 18.3625 8.44362 18.3807 8.36901L20.3431 1.49416H23.6712L21.915 6.26732C21.8149 6.53936 21.8528 6.84467 22.0163 7.08413C22.1798 7.32349 22.4504 7.46992 22.7404 7.4758L25.3381 7.5276Z" fill="#134A85"/>
<path d="M41.1505 42.7838C41.0171 42.3931 40.5925 42.1848 40.2021 42.3179C39.8117 42.4511 39.6031 42.8758 39.7363 43.2662C39.8551 43.6148 39.9854 43.9801 40.1235 44.3525C40.2383 44.6621 40.2176 44.9934 40.065 45.2853C39.9132 45.5759 39.6547 45.7809 39.337 45.8628L25.3417 49.4704C24.7891 49.6129 24.2104 49.3221 23.9958 48.7938C23.157 46.7276 21.1914 41.8895 16.1868 42.5673C15.8374 42.6147 15.4891 42.6636 15.1458 42.7118C13.454 42.9494 11.705 43.1953 10.9225 43.0671C9.27065 42.7968 8.36448 42.1148 8.07063 40.9211C7.88685 40.1879 8.11307 39.6111 8.43879 39.0909C8.81851 38.4121 8.50215 37.6101 7.99124 37.2565C7.66781 37.0325 7.30861 36.8842 7.03906 36.7936C7.04334 36.6536 7.12433 36.4491 7.45085 36.2137C7.61481 36.0955 7.72379 35.916 7.75317 35.7162C7.78246 35.5164 7.72966 35.3131 7.60664 35.1528C7.60664 35.1259 7.04364 34.5022 6.28521 33.8849C6.88377 33.4533 7.96405 32.518 7.81921 31.4786C7.75696 31.032 7.45215 30.4287 6.35334 30.0908C5.04196 29.6875 5.04077 29.1585 5.04017 28.8742C5.03927 28.4829 5.22923 28.2293 5.92402 27.6944C6.93268 26.9179 8.08527 25.9076 8.98665 24.303C9.29266 23.7581 9.32922 23.0925 9.08437 22.5224C8.94103 22.1889 8.74271 21.8749 8.55105 21.5714C8.27603 21.1358 7.96435 20.6422 8.03079 20.3569C8.06814 20.1965 8.17104 19.9791 8.29017 19.7272C8.58293 19.1083 8.98396 18.2606 9.06824 16.9707C9.16087 15.5491 9.45771 14.2026 9.95059 12.9688C10.1036 12.5856 9.91712 12.151 9.53392 11.9979C9.15061 11.8448 8.71611 12.0313 8.56301 12.4145C8.01176 13.7945 7.68006 15.2949 7.57716 16.8735C7.51162 17.8791 7.2077 18.5214 6.93955 19.0882C6.79023 19.4038 6.64918 19.7021 6.57557 20.0179C6.36739 20.9116 6.85628 21.6859 7.28759 22.3691C7.45573 22.6354 7.61461 22.887 7.71144 23.1121C7.77389 23.2576 7.76353 23.4293 7.68384 23.5713C7.06337 24.6756 6.28949 25.5272 5.01248 26.5104C4.42736 26.9608 3.54312 27.6416 3.54591 28.8775C3.54869 30.1478 4.34538 31.0365 5.91406 31.5189C6.16796 31.597 6.28331 31.6711 6.32973 31.7087C6.25532 31.9494 5.73535 32.4675 5.22505 32.8005C5.14366 32.8533 5.07324 32.9214 5.01786 33.0012C4.69571 33.4651 4.53723 34.4109 5.42088 35.1155C5.64013 35.2903 5.82172 35.4506 5.96725 35.5876C5.34528 36.4154 5.51402 37.3302 5.85459 37.8294C5.96286 37.988 6.12802 38.0989 6.31589 38.139C6.32037 38.14 6.75089 38.2383 7.08538 38.4487C6.76125 39.0236 6.27783 39.8906 6.6195 41.2783C7.06167 43.0751 8.42814 44.173 10.6808 44.5417C11.6868 44.7062 13.3861 44.4677 15.3532 44.1914C15.6942 44.1436 16.0401 44.095 16.387 44.048C19.7767 43.5887 21.3815 46.3276 22.6109 49.3559C23.0211 50.3664 24.0082 51.0005 25.0601 51.0004C25.2768 51.0004 25.4965 50.9734 25.7141 50.9173L39.7095 47.3097C40.4313 47.1237 41.0433 46.6381 41.3886 45.9775C41.7346 45.3155 41.7839 44.5339 41.5238 43.833C41.3911 43.4729 41.2653 43.12 41.1505 42.7838Z" fill="#134A85"/>
<path d="M21.9914 22.7873C23.2439 22.7873 24.263 21.7683 24.263 20.5157C24.263 19.2631 23.244 18.2441 21.9914 18.2441C20.7388 18.2441 19.7197 19.2631 19.7197 20.5157C19.7197 21.7683 20.7387 22.7873 21.9914 22.7873ZM21.9914 19.7382C22.4201 19.7382 22.7689 20.0869 22.7689 20.5156C22.7689 20.9444 22.4201 21.2931 21.9914 21.2931C21.5627 21.2931 21.2139 20.9444 21.2139 20.5156C21.2139 20.0869 21.5627 19.7382 21.9914 19.7382Z" fill="#134A85"/>
<path d="M18.5491 15.8358C17.0862 16.9222 16.2129 18.6573 16.2129 20.4773C16.2129 22.3657 17.1389 24.1388 18.6899 25.2202C18.8201 25.3109 18.969 25.3544 19.1164 25.3544C19.3525 25.3544 19.5847 25.2429 19.73 25.0346C19.9659 24.6961 19.8829 24.2304 19.5444 23.9945C18.3939 23.1924 17.7071 21.8775 17.7071 20.4773C17.7071 19.1077 18.3387 17.8532 19.4399 17.0354C19.7711 16.7894 19.8403 16.3215 19.5943 15.9902C19.3483 15.659 18.8805 15.5898 18.5491 15.8358Z" fill="#134A85"/>
<path d="M17.5779 26.7944C16.8066 26.2567 16.1459 25.5909 15.6142 24.8158C15.3808 24.4755 14.9159 24.3889 14.5756 24.6223C14.2353 24.8557 14.1486 25.3206 14.3821 25.6609C15.016 26.5852 15.8037 27.3789 16.7234 28.02C16.8536 28.1108 17.0025 28.1543 17.15 28.1543C17.386 28.1543 17.6182 28.0428 17.7635 27.8345C17.9994 27.4959 17.9164 27.0302 17.5779 26.7944Z" fill="#134A85"/>
<path d="M16.4981 13.0428C14.1634 14.7767 12.7695 17.5459 12.7695 20.4504C12.7695 21.0282 12.8233 21.6064 12.9295 22.1693C12.9828 22.4518 13.3462 22.8503 13.8022 22.7649C14.2076 22.6884 14.4743 22.2977 14.3978 21.8922C14.3087 21.4204 14.2636 20.9353 14.2636 20.4503C14.2636 17.9801 15.4027 15.7173 17.3888 14.2423C17.72 13.9963 17.7892 13.5284 17.5432 13.197C17.2973 12.8659 16.8293 12.7969 16.4981 13.0428Z" fill="#134A85"/>
</g>
<defs>
<clipPath id="clip0_3059_12384">
<rect width="51" height="51" fill="white"/>
</clipPath>
</defs>
</svg>
