<svg width="51" height="52" viewBox="0 0 51 52" fill="none" xmlns="http://www.w3.org/2000/svg">
<mask id="path-1-outside-1_3126_7475" maskUnits="userSpaceOnUse" x="0.494141" y="3.99219" width="50" height="44" fill="black">
<rect fill="white" x="0.494141" y="3.99219" width="50" height="44"/>
<path d="M18.369 34.2838C18.2534 34.4562 18.0642 34.5488 17.8719 34.5488C17.7574 34.5488 17.6418 34.5159 17.5392 34.4472C16.9884 34.0776 16.324 33.7918 15.6178 33.6184C14.8976 33.4421 14.1505 33.3873 13.4582 33.4611C13.1305 33.4959 12.8357 33.2579 12.8008 32.9301C12.7659 32.6024 13.004 32.3076 13.3317 32.2727C14.1605 32.1841 15.049 32.2488 15.9026 32.458C16.7433 32.6642 17.5392 33.0088 18.2056 33.4551C18.4795 33.6384 18.5532 34.0089 18.369 34.2838ZM26.3088 32.9291C26.3437 32.6014 26.1056 32.3066 25.7779 32.2717C24.9492 32.1831 24.0606 32.2478 23.207 32.457C22.3663 32.6632 21.5704 33.0078 20.904 33.4541C20.6301 33.6384 20.5564 34.0089 20.7407 34.2838C20.8562 34.4562 21.0455 34.5488 21.2377 34.5488C21.3523 34.5488 21.4678 34.5159 21.5704 34.4472C22.1213 34.0776 22.7856 33.7918 23.4919 33.6184C24.2121 33.4421 24.9591 33.3873 25.6514 33.4611C25.9781 33.4959 26.274 33.2579 26.3088 32.9291ZM47.2079 21.9861C47.2079 23.7601 45.7645 25.2044 43.9895 25.2044C42.2145 25.2044 40.7711 23.7611 40.7711 21.9861C40.7711 20.211 42.2145 18.7677 43.9895 18.7677C45.7645 18.7677 47.2079 20.211 47.2079 21.9861ZM46.0126 21.9861C46.0126 20.8704 45.1051 19.963 43.9895 19.963C42.8739 19.963 41.9664 20.8704 41.9664 21.9861C41.9664 23.1017 42.8739 24.0091 43.9895 24.0091C45.1051 24.0091 46.0126 23.1007 46.0126 21.9861ZM49.5059 21.9861C49.5059 25.0271 47.0316 27.5014 43.9905 27.5014C43.8441 27.5014 43.6996 27.4945 43.5562 27.4825L36.8604 34.1782C37.3555 35.2042 37.6155 36.3368 37.6155 37.4803V46.4053C37.6155 46.735 37.3475 47.0029 37.0178 47.0029H2.0918C1.76209 47.0029 1.49414 46.735 1.49414 46.4053V37.4803C1.49414 33.2778 4.91373 29.8582 9.11625 29.8582H10.4809C12.6305 29.8582 14.3786 28.11 14.3786 25.9605V24.1745C12.2928 24.043 10.6363 22.3048 10.6363 20.1871V18.2378H9.93604C9.55752 18.2378 9.21486 18.0435 9.02062 17.7188C8.82639 17.3941 8.81742 17.0006 8.99672 16.6669L10.7299 13.4465C11.0138 11.3966 11.9133 9.50899 13.3367 7.98197C16.0022 5.12119 19.9179 4.23367 23.5556 5.66606C27.1934 7.09844 29.4535 10.4164 29.4535 14.3261V14.9506C29.4535 17.6052 28.299 20.1363 26.2869 21.8974C25.255 22.7999 24.731 23.9533 24.731 25.325V25.9615C24.731 28.111 26.4792 29.8592 28.6287 29.8592H29.9934C30.9486 29.8592 31.876 30.0335 32.7565 30.3791L38.9383 24.1974C38.6405 23.52 38.4741 22.773 38.4741 21.9871C38.4741 20.4481 39.1086 19.0546 40.1296 18.0525L39.3138 11.2701H38.3068C37.3744 11.2701 36.6164 10.5121 36.6164 9.57971V8.486C36.6164 8.15629 36.8844 7.88834 37.2141 7.88834H48.7558C49.0855 7.88834 49.3535 8.15629 49.3535 8.486V9.57871C49.3535 10.5111 48.5954 11.2691 47.6631 11.2691H46.8005L47.6043 17.8254C48.7678 18.8374 49.5059 20.3266 49.5059 21.9861ZM38.3068 10.0738H47.6631C47.936 10.0738 48.1581 9.85164 48.1581 9.57871V9.08365H37.8117V9.57871C37.8117 9.85164 38.0338 10.0738 38.3068 10.0738ZM41.2333 17.2118C42.0451 16.7406 42.9864 16.4697 43.9905 16.4697C44.8133 16.4697 45.5942 16.652 46.2974 16.9767L45.5982 11.2681H40.5191L41.2333 17.2118ZM35.955 35.0837L34.8095 36.2292L35.4789 36.8986C35.712 37.1317 35.712 37.5102 35.4789 37.7433L33.91 39.3121C33.7935 39.4287 33.6401 39.4874 33.4877 39.4874C33.3353 39.4874 33.1819 39.4287 33.0653 39.3121L32.9856 39.2324C32.3203 39.7683 31.5094 40.0363 30.6986 40.0363C29.9535 40.0363 29.2085 39.8092 28.5759 39.3559L26.7471 41.1848C26.6306 41.3013 26.4772 41.3601 26.3248 41.3601C26.1724 41.3601 26.019 41.3013 25.9024 41.1848C25.6693 40.9517 25.6693 40.5732 25.9024 40.3401L27.7312 38.5112C26.786 37.1914 26.8268 35.3785 27.8558 34.1015L27.7761 34.0219C27.543 33.7888 27.543 33.4103 27.7761 33.1772L29.3449 31.6083C29.578 31.3752 29.9565 31.3752 30.1896 31.6083L30.859 32.2777L31.8162 31.3205C31.2285 31.1451 30.6189 31.0545 29.9944 31.0545H28.6297C25.8217 31.0545 23.5367 28.7695 23.5367 25.9615V25.325C23.5367 23.6177 24.216 22.1215 25.501 20.9979C27.2541 19.4649 28.2592 17.2606 28.2592 14.9516V14.3271C28.2592 10.9195 26.2899 8.0268 23.1183 6.77869C19.9478 5.52959 16.5352 6.30256 14.2123 8.79578C12.9353 10.1664 12.1364 11.8647 11.9023 13.7085C11.8934 13.7812 11.8704 13.852 11.8356 13.9167L10.1532 17.0424H11.2339C11.5637 17.0424 11.8316 17.3104 11.8316 17.6401V20.1871C11.8316 21.7311 13.0877 22.9871 14.6316 22.9871H14.9763C15.306 22.9871 15.5739 23.2551 15.5739 23.5848V25.9605C15.5739 28.7685 13.2889 31.0535 10.4809 31.0535H9.11625C5.57314 31.0535 2.68945 33.9362 2.68945 37.4803V45.8076H7.58725V41.0443C7.58725 40.7146 7.8552 40.4467 8.1849 40.4467C8.51461 40.4467 8.78256 40.7146 8.78256 41.0443V45.8076H30.3271V41.0443C30.3271 40.7146 30.595 40.4467 30.9247 40.4467C31.2544 40.4467 31.5224 40.7146 31.5224 41.0443V45.8076H36.4202V37.4803C36.4202 36.6575 36.2608 35.8417 35.955 35.0837ZM29.7663 32.8754L29.0421 33.5995L33.4877 38.0451L34.2118 37.3209L29.7663 32.8754ZM32.131 38.3778L28.7094 34.9562C28.0191 35.9144 28.1018 37.2621 28.9634 38.1238C29.825 38.9854 31.1728 39.0681 32.131 38.3778ZM42.1597 27.1877C41.1128 26.8181 40.2093 26.1418 39.5589 25.2662L31.7027 33.1224L33.9638 35.3835L42.1597 27.1877ZM48.3105 21.9861C48.3105 19.6044 46.3721 17.666 43.9905 17.666C41.6088 17.666 39.6704 19.6044 39.6704 21.9861C39.6704 24.3687 41.6088 26.3061 43.9905 26.3061C46.3721 26.3061 48.3105 24.3677 48.3105 21.9861Z"/>
</mask>
<path d="M18.369 34.2838C18.2534 34.4562 18.0642 34.5488 17.8719 34.5488C17.7574 34.5488 17.6418 34.5159 17.5392 34.4472C16.9884 34.0776 16.324 33.7918 15.6178 33.6184C14.8976 33.4421 14.1505 33.3873 13.4582 33.4611C13.1305 33.4959 12.8357 33.2579 12.8008 32.9301C12.7659 32.6024 13.004 32.3076 13.3317 32.2727C14.1605 32.1841 15.049 32.2488 15.9026 32.458C16.7433 32.6642 17.5392 33.0088 18.2056 33.4551C18.4795 33.6384 18.5532 34.0089 18.369 34.2838ZM26.3088 32.9291C26.3437 32.6014 26.1056 32.3066 25.7779 32.2717C24.9492 32.1831 24.0606 32.2478 23.207 32.457C22.3663 32.6632 21.5704 33.0078 20.904 33.4541C20.6301 33.6384 20.5564 34.0089 20.7407 34.2838C20.8562 34.4562 21.0455 34.5488 21.2377 34.5488C21.3523 34.5488 21.4678 34.5159 21.5704 34.4472C22.1213 34.0776 22.7856 33.7918 23.4919 33.6184C24.2121 33.4421 24.9591 33.3873 25.6514 33.4611C25.9781 33.4959 26.274 33.2579 26.3088 32.9291ZM47.2079 21.9861C47.2079 23.7601 45.7645 25.2044 43.9895 25.2044C42.2145 25.2044 40.7711 23.7611 40.7711 21.9861C40.7711 20.211 42.2145 18.7677 43.9895 18.7677C45.7645 18.7677 47.2079 20.211 47.2079 21.9861ZM46.0126 21.9861C46.0126 20.8704 45.1051 19.963 43.9895 19.963C42.8739 19.963 41.9664 20.8704 41.9664 21.9861C41.9664 23.1017 42.8739 24.0091 43.9895 24.0091C45.1051 24.0091 46.0126 23.1007 46.0126 21.9861ZM49.5059 21.9861C49.5059 25.0271 47.0316 27.5014 43.9905 27.5014C43.8441 27.5014 43.6996 27.4945 43.5562 27.4825L36.8604 34.1782C37.3555 35.2042 37.6155 36.3368 37.6155 37.4803V46.4053C37.6155 46.735 37.3475 47.0029 37.0178 47.0029H2.0918C1.76209 47.0029 1.49414 46.735 1.49414 46.4053V37.4803C1.49414 33.2778 4.91373 29.8582 9.11625 29.8582H10.4809C12.6305 29.8582 14.3786 28.11 14.3786 25.9605V24.1745C12.2928 24.043 10.6363 22.3048 10.6363 20.1871V18.2378H9.93604C9.55752 18.2378 9.21486 18.0435 9.02062 17.7188C8.82639 17.3941 8.81742 17.0006 8.99672 16.6669L10.7299 13.4465C11.0138 11.3966 11.9133 9.50899 13.3367 7.98197C16.0022 5.12119 19.9179 4.23367 23.5556 5.66606C27.1934 7.09844 29.4535 10.4164 29.4535 14.3261V14.9506C29.4535 17.6052 28.299 20.1363 26.2869 21.8974C25.255 22.7999 24.731 23.9533 24.731 25.325V25.9615C24.731 28.111 26.4792 29.8592 28.6287 29.8592H29.9934C30.9486 29.8592 31.876 30.0335 32.7565 30.3791L38.9383 24.1974C38.6405 23.52 38.4741 22.773 38.4741 21.9871C38.4741 20.4481 39.1086 19.0546 40.1296 18.0525L39.3138 11.2701H38.3068C37.3744 11.2701 36.6164 10.5121 36.6164 9.57971V8.486C36.6164 8.15629 36.8844 7.88834 37.2141 7.88834H48.7558C49.0855 7.88834 49.3535 8.15629 49.3535 8.486V9.57871C49.3535 10.5111 48.5954 11.2691 47.6631 11.2691H46.8005L47.6043 17.8254C48.7678 18.8374 49.5059 20.3266 49.5059 21.9861ZM38.3068 10.0738H47.6631C47.936 10.0738 48.1581 9.85164 48.1581 9.57871V9.08365H37.8117V9.57871C37.8117 9.85164 38.0338 10.0738 38.3068 10.0738ZM41.2333 17.2118C42.0451 16.7406 42.9864 16.4697 43.9905 16.4697C44.8133 16.4697 45.5942 16.652 46.2974 16.9767L45.5982 11.2681H40.5191L41.2333 17.2118ZM35.955 35.0837L34.8095 36.2292L35.4789 36.8986C35.712 37.1317 35.712 37.5102 35.4789 37.7433L33.91 39.3121C33.7935 39.4287 33.6401 39.4874 33.4877 39.4874C33.3353 39.4874 33.1819 39.4287 33.0653 39.3121L32.9856 39.2324C32.3203 39.7683 31.5094 40.0363 30.6986 40.0363C29.9535 40.0363 29.2085 39.8092 28.5759 39.3559L26.7471 41.1848C26.6306 41.3013 26.4772 41.3601 26.3248 41.3601C26.1724 41.3601 26.019 41.3013 25.9024 41.1848C25.6693 40.9517 25.6693 40.5732 25.9024 40.3401L27.7312 38.5112C26.786 37.1914 26.8268 35.3785 27.8558 34.1015L27.7761 34.0219C27.543 33.7888 27.543 33.4103 27.7761 33.1772L29.3449 31.6083C29.578 31.3752 29.9565 31.3752 30.1896 31.6083L30.859 32.2777L31.8162 31.3205C31.2285 31.1451 30.6189 31.0545 29.9944 31.0545H28.6297C25.8217 31.0545 23.5367 28.7695 23.5367 25.9615V25.325C23.5367 23.6177 24.216 22.1215 25.501 20.9979C27.2541 19.4649 28.2592 17.2606 28.2592 14.9516V14.3271C28.2592 10.9195 26.2899 8.0268 23.1183 6.77869C19.9478 5.52959 16.5352 6.30256 14.2123 8.79578C12.9353 10.1664 12.1364 11.8647 11.9023 13.7085C11.8934 13.7812 11.8704 13.852 11.8356 13.9167L10.1532 17.0424H11.2339C11.5637 17.0424 11.8316 17.3104 11.8316 17.6401V20.1871C11.8316 21.7311 13.0877 22.9871 14.6316 22.9871H14.9763C15.306 22.9871 15.5739 23.2551 15.5739 23.5848V25.9605C15.5739 28.7685 13.2889 31.0535 10.4809 31.0535H9.11625C5.57314 31.0535 2.68945 33.9362 2.68945 37.4803V45.8076H7.58725V41.0443C7.58725 40.7146 7.8552 40.4467 8.1849 40.4467C8.51461 40.4467 8.78256 40.7146 8.78256 41.0443V45.8076H30.3271V41.0443C30.3271 40.7146 30.595 40.4467 30.9247 40.4467C31.2544 40.4467 31.5224 40.7146 31.5224 41.0443V45.8076H36.4202V37.4803C36.4202 36.6575 36.2608 35.8417 35.955 35.0837ZM29.7663 32.8754L29.0421 33.5995L33.4877 38.0451L34.2118 37.3209L29.7663 32.8754ZM32.131 38.3778L28.7094 34.9562C28.0191 35.9144 28.1018 37.2621 28.9634 38.1238C29.825 38.9854 31.1728 39.0681 32.131 38.3778ZM42.1597 27.1877C41.1128 26.8181 40.2093 26.1418 39.5589 25.2662L31.7027 33.1224L33.9638 35.3835L42.1597 27.1877ZM48.3105 21.9861C48.3105 19.6044 46.3721 17.666 43.9905 17.666C41.6088 17.666 39.6704 19.6044 39.6704 21.9861C39.6704 24.3687 41.6088 26.3061 43.9905 26.3061C46.3721 26.3061 48.3105 24.3677 48.3105 21.9861Z" fill="#134A85"/>
<path d="M18.369 34.2838C18.2534 34.4562 18.0642 34.5488 17.8719 34.5488C17.7574 34.5488 17.6418 34.5159 17.5392 34.4472C16.9884 34.0776 16.324 33.7918 15.6178 33.6184C14.8976 33.4421 14.1505 33.3873 13.4582 33.4611C13.1305 33.4959 12.8357 33.2579 12.8008 32.9301C12.7659 32.6024 13.004 32.3076 13.3317 32.2727C14.1605 32.1841 15.049 32.2488 15.9026 32.458C16.7433 32.6642 17.5392 33.0088 18.2056 33.4551C18.4795 33.6384 18.5532 34.0089 18.369 34.2838ZM26.3088 32.9291C26.3437 32.6014 26.1056 32.3066 25.7779 32.2717C24.9492 32.1831 24.0606 32.2478 23.207 32.457C22.3663 32.6632 21.5704 33.0078 20.904 33.4541C20.6301 33.6384 20.5564 34.0089 20.7407 34.2838C20.8562 34.4562 21.0455 34.5488 21.2377 34.5488C21.3523 34.5488 21.4678 34.5159 21.5704 34.4472C22.1213 34.0776 22.7856 33.7918 23.4919 33.6184C24.2121 33.4421 24.9591 33.3873 25.6514 33.4611C25.9781 33.4959 26.274 33.2579 26.3088 32.9291ZM47.2079 21.9861C47.2079 23.7601 45.7645 25.2044 43.9895 25.2044C42.2145 25.2044 40.7711 23.7611 40.7711 21.9861C40.7711 20.211 42.2145 18.7677 43.9895 18.7677C45.7645 18.7677 47.2079 20.211 47.2079 21.9861ZM46.0126 21.9861C46.0126 20.8704 45.1051 19.963 43.9895 19.963C42.8739 19.963 41.9664 20.8704 41.9664 21.9861C41.9664 23.1017 42.8739 24.0091 43.9895 24.0091C45.1051 24.0091 46.0126 23.1007 46.0126 21.9861ZM49.5059 21.9861C49.5059 25.0271 47.0316 27.5014 43.9905 27.5014C43.8441 27.5014 43.6996 27.4945 43.5562 27.4825L36.8604 34.1782C37.3555 35.2042 37.6155 36.3368 37.6155 37.4803V46.4053C37.6155 46.735 37.3475 47.0029 37.0178 47.0029H2.0918C1.76209 47.0029 1.49414 46.735 1.49414 46.4053V37.4803C1.49414 33.2778 4.91373 29.8582 9.11625 29.8582H10.4809C12.6305 29.8582 14.3786 28.11 14.3786 25.9605V24.1745C12.2928 24.043 10.6363 22.3048 10.6363 20.1871V18.2378H9.93604C9.55752 18.2378 9.21486 18.0435 9.02062 17.7188C8.82639 17.3941 8.81742 17.0006 8.99672 16.6669L10.7299 13.4465C11.0138 11.3966 11.9133 9.50899 13.3367 7.98197C16.0022 5.12119 19.9179 4.23367 23.5556 5.66606C27.1934 7.09844 29.4535 10.4164 29.4535 14.3261V14.9506C29.4535 17.6052 28.299 20.1363 26.2869 21.8974C25.255 22.7999 24.731 23.9533 24.731 25.325V25.9615C24.731 28.111 26.4792 29.8592 28.6287 29.8592H29.9934C30.9486 29.8592 31.876 30.0335 32.7565 30.3791L38.9383 24.1974C38.6405 23.52 38.4741 22.773 38.4741 21.9871C38.4741 20.4481 39.1086 19.0546 40.1296 18.0525L39.3138 11.2701H38.3068C37.3744 11.2701 36.6164 10.5121 36.6164 9.57971V8.486C36.6164 8.15629 36.8844 7.88834 37.2141 7.88834H48.7558C49.0855 7.88834 49.3535 8.15629 49.3535 8.486V9.57871C49.3535 10.5111 48.5954 11.2691 47.6631 11.2691H46.8005L47.6043 17.8254C48.7678 18.8374 49.5059 20.3266 49.5059 21.9861ZM38.3068 10.0738H47.6631C47.936 10.0738 48.1581 9.85164 48.1581 9.57871V9.08365H37.8117V9.57871C37.8117 9.85164 38.0338 10.0738 38.3068 10.0738ZM41.2333 17.2118C42.0451 16.7406 42.9864 16.4697 43.9905 16.4697C44.8133 16.4697 45.5942 16.652 46.2974 16.9767L45.5982 11.2681H40.5191L41.2333 17.2118ZM35.955 35.0837L34.8095 36.2292L35.4789 36.8986C35.712 37.1317 35.712 37.5102 35.4789 37.7433L33.91 39.3121C33.7935 39.4287 33.6401 39.4874 33.4877 39.4874C33.3353 39.4874 33.1819 39.4287 33.0653 39.3121L32.9856 39.2324C32.3203 39.7683 31.5094 40.0363 30.6986 40.0363C29.9535 40.0363 29.2085 39.8092 28.5759 39.3559L26.7471 41.1848C26.6306 41.3013 26.4772 41.3601 26.3248 41.3601C26.1724 41.3601 26.019 41.3013 25.9024 41.1848C25.6693 40.9517 25.6693 40.5732 25.9024 40.3401L27.7312 38.5112C26.786 37.1914 26.8268 35.3785 27.8558 34.1015L27.7761 34.0219C27.543 33.7888 27.543 33.4103 27.7761 33.1772L29.3449 31.6083C29.578 31.3752 29.9565 31.3752 30.1896 31.6083L30.859 32.2777L31.8162 31.3205C31.2285 31.1451 30.6189 31.0545 29.9944 31.0545H28.6297C25.8217 31.0545 23.5367 28.7695 23.5367 25.9615V25.325C23.5367 23.6177 24.216 22.1215 25.501 20.9979C27.2541 19.4649 28.2592 17.2606 28.2592 14.9516V14.3271C28.2592 10.9195 26.2899 8.0268 23.1183 6.77869C19.9478 5.52959 16.5352 6.30256 14.2123 8.79578C12.9353 10.1664 12.1364 11.8647 11.9023 13.7085C11.8934 13.7812 11.8704 13.852 11.8356 13.9167L10.1532 17.0424H11.2339C11.5637 17.0424 11.8316 17.3104 11.8316 17.6401V20.1871C11.8316 21.7311 13.0877 22.9871 14.6316 22.9871H14.9763C15.306 22.9871 15.5739 23.2551 15.5739 23.5848V25.9605C15.5739 28.7685 13.2889 31.0535 10.4809 31.0535H9.11625C5.57314 31.0535 2.68945 33.9362 2.68945 37.4803V45.8076H7.58725V41.0443C7.58725 40.7146 7.8552 40.4467 8.1849 40.4467C8.51461 40.4467 8.78256 40.7146 8.78256 41.0443V45.8076H30.3271V41.0443C30.3271 40.7146 30.595 40.4467 30.9247 40.4467C31.2544 40.4467 31.5224 40.7146 31.5224 41.0443V45.8076H36.4202V37.4803C36.4202 36.6575 36.2608 35.8417 35.955 35.0837ZM29.7663 32.8754L29.0421 33.5995L33.4877 38.0451L34.2118 37.3209L29.7663 32.8754ZM32.131 38.3778L28.7094 34.9562C28.0191 35.9144 28.1018 37.2621 28.9634 38.1238C29.825 38.9854 31.1728 39.0681 32.131 38.3778ZM42.1597 27.1877C41.1128 26.8181 40.2093 26.1418 39.5589 25.2662L31.7027 33.1224L33.9638 35.3835L42.1597 27.1877ZM48.3105 21.9861C48.3105 19.6044 46.3721 17.666 43.9905 17.666C41.6088 17.666 39.6704 19.6044 39.6704 21.9861C39.6704 24.3687 41.6088 26.3061 43.9905 26.3061C46.3721 26.3061 48.3105 24.3677 48.3105 21.9861Z" stroke="#134A85" stroke-width="0.4" mask="url(#path-1-outside-1_3126_7475)"/>
</svg>
