<svg width="51" height="51" viewBox="0 0 51 51" fill="none" xmlns="http://www.w3.org/2000/svg">
<path d="M25.5 2.83401C21.2212 2.82746 17.0292 4.04132 13.4159 6.33318C13.2839 6.4021 13.1676 6.49765 13.0744 6.6138C12.9812 6.72995 12.9131 6.86417 12.8744 7.00798C12.8358 7.15179 12.8273 7.30205 12.8497 7.44928C12.8721 7.59651 12.9247 7.7375 13.0043 7.86334C13.084 7.98918 13.1888 8.09713 13.3123 8.18037C13.4358 8.26361 13.5752 8.32033 13.7217 8.34694C13.8683 8.37355 14.0187 8.36948 14.1636 8.33498C14.3084 8.30048 14.4446 8.23631 14.5634 8.14651C18.022 5.95867 22.0588 4.86169 26.1491 4.99812C30.2393 5.13455 34.194 6.49807 37.4992 8.91151L20.2442 18.8282L10.9792 9.50651C10.8791 9.40543 10.7599 9.32518 10.6286 9.27042C10.4973 9.21566 10.3565 9.18746 10.2142 9.18746C10.0719 9.18746 9.93108 9.21566 9.79977 9.27042C9.66847 9.32518 9.54932 9.40543 9.44921 9.50651C5.53622 13.4566 3.2116 18.7072 2.9175 24.2595C2.62339 29.8118 4.38033 35.2786 7.85413 39.6199C11.3279 43.9613 16.2762 46.8744 21.7579 47.8052C27.2395 48.736 32.8721 47.6196 37.5842 44.6682C37.7059 44.5944 37.8115 44.4969 37.8948 44.3815C37.9781 44.2661 38.0374 44.1351 38.0691 43.9964C38.1008 43.8577 38.1043 43.714 38.0794 43.5738C38.0545 43.4337 38.0018 43.3 37.9242 43.1807C37.8479 43.0616 37.749 42.9587 37.6329 42.8779C37.5169 42.7971 37.3861 42.7399 37.2479 42.7097C37.1098 42.6794 36.9671 42.6766 36.8279 42.7016C36.6887 42.7265 36.5558 42.7786 36.4367 42.8548C33.3334 44.8105 29.7624 45.8983 26.0958 46.0048C22.4292 46.1113 18.8011 45.2327 15.5894 43.4606C12.3778 41.6884 9.7001 39.0874 7.8353 35.9286C5.97049 32.7699 4.9868 29.1688 4.98671 25.5007C4.98028 20.4739 6.83776 15.6233 10.2 11.8865L18.3034 19.9898L18.0767 20.1173C17.791 20.2823 17.5411 20.5025 17.3417 20.7653C17.1422 21.028 16.9971 21.3279 16.915 21.6473C16.8304 22.0108 16.8304 22.3889 16.915 22.7523L10.9367 26.1807C10.7408 26.2929 10.5857 26.4647 10.494 26.671C10.4023 26.8774 10.3788 27.1075 10.4267 27.3282L12.5517 37.7123C12.5855 37.8791 12.6583 38.0354 12.7642 38.1685C12.87 38.3017 13.0059 38.4079 13.1607 38.4783C13.3155 38.5488 13.4848 38.5816 13.6548 38.5741C13.8247 38.5665 13.9904 38.5188 14.1384 38.4348L22.9784 33.3207C23.4273 33.7184 24.0078 33.9355 24.6075 33.9298C25.0486 33.9297 25.4824 33.8175 25.8684 33.604L29.75 31.3798L39.6667 41.3815C39.9814 41.6213 40.3519 41.7773 40.7434 41.8348C40.8861 41.834 41.0273 41.8047 41.1586 41.7488C41.2899 41.6928 41.4088 41.6113 41.5084 41.509C44.6705 38.3392 46.8231 34.3038 47.6945 29.912C48.5659 25.5203 48.1171 20.9688 46.4047 16.8317C44.6923 12.6947 41.793 9.15753 38.0727 6.66636C34.3523 4.1752 29.9774 2.84167 25.5 2.83401ZM39.2984 10.3707C40.4338 11.4019 41.4506 12.5565 42.33 13.8132L29.92 20.9673C29.6721 21.1101 29.491 21.3456 29.4166 21.6219C29.3422 21.8982 29.3806 22.1927 29.5234 22.4407C29.6661 22.6887 29.9016 22.8698 30.1779 22.9441C30.4542 23.0185 30.7487 22.9801 30.9967 22.8373L43.4775 15.584C44.2146 16.9315 44.799 18.357 45.22 19.834L30.0617 28.589L21.8309 20.344L39.2984 10.3707ZM14.365 35.8707L12.75 27.654L17.8784 24.6932L21.1509 30.3598L21.8309 31.5357L14.365 35.8707ZM24.7917 31.734C24.7055 31.7694 24.6088 31.7694 24.5225 31.734C24.4286 31.7072 24.3479 31.6467 24.2959 31.564L19.0259 22.4548C18.9896 22.3639 18.9896 22.2625 19.0259 22.1715C19.0363 22.1255 19.057 22.0825 19.0865 22.0457C19.1159 22.0089 19.1533 21.9793 19.1959 21.959L19.9184 21.534L28.1209 29.7507L24.7917 31.734ZM40.6584 39.2848L31.6342 30.2607L45.7017 22.1432C45.8993 23.2517 46.0036 24.3748 46.0134 25.5007C46.0138 30.6032 44.1033 35.5208 40.6584 39.2848Z" fill="#134A85"/>
</svg>
