<svg width="51" height="51" viewBox="0 0 51 51" fill="none" xmlns="http://www.w3.org/2000/svg">
<path d="M44.4285 40.3307C43.5061 39.7159 42.2607 39.8823 41.5298 40.697C41.1327 40.8736 39.7534 41.1416 39.0413 41.1416C36.9739 41.1416 35.2724 40.1354 34.1061 39.1562C36.1088 36.4372 37.1231 33.7702 37.1231 31.2212C37.1231 26.9713 34.8753 24.2256 31.3968 24.2256C27.8876 24.2256 25.3405 27.1747 25.3405 31.2381C25.3405 33.6711 26.3946 36.602 28.1793 39.1727C26.5173 40.7939 25.0441 41.8228 25.0285 41.8337C24.0171 42.5324 23.7621 43.9243 24.4601 44.9364C24.8767 45.5404 25.564 45.9009 26.2984 45.9009C26.7519 45.9009 27.1896 45.7645 27.5638 45.5063C27.7509 45.3772 29.3367 44.2676 31.1682 42.4896C33.5678 44.5296 36.2781 45.6045 39.0413 45.6045C39.0869 45.6045 43.6106 45.5796 45.0472 43.4255C45.7297 42.4013 45.4524 41.0132 44.4285 40.3307ZM26.8402 44.4563C26.4185 44.747 25.7986 44.63 25.5101 44.2122C25.2111 43.7783 25.3204 43.182 25.7536 42.8827C25.7715 42.8702 27.5533 41.6332 29.468 39.6894C30.3133 38.8313 31.0538 37.9663 31.668 37.1184C31.6683 37.1177 31.6687 37.1171 31.669 37.1168C33.1732 35.0405 33.9362 33.0569 33.9362 31.2212C33.9362 28.8009 33.0109 27.4131 31.3974 27.4131C29.4157 27.4131 28.5287 29.3342 28.5287 31.2381C28.5287 32.8067 29.214 34.8263 30.3761 36.7126C29.9911 37.2172 29.563 37.7278 29.0887 38.2397C27.5322 35.9291 26.6162 33.3581 26.6162 31.2381C26.6162 27.9135 28.6268 25.5006 31.3974 25.5006C34.1431 25.5006 35.8487 27.6926 35.8487 31.2212C35.8487 33.629 34.8026 36.1959 32.739 38.8508C32.1372 39.625 31.4484 40.405 30.6917 41.1684C28.7655 43.1102 27.0315 44.3244 26.8402 44.4563ZM31.181 35.5667C30.3194 34.0332 29.8033 32.4347 29.8033 31.2378C29.8033 30.2908 30.139 28.6878 31.3971 28.6878C32.4968 28.6878 32.6609 30.2748 32.6609 31.2209C32.6609 32.5552 32.1637 34.0138 31.181 35.5667ZM43.9864 42.7179C43.1284 44.0047 40.0489 44.3199 39.0413 44.3291C36.0591 44.3291 33.6691 42.9193 32.0674 41.5771C32.5118 41.1079 32.9315 40.6342 33.322 40.1596C35.092 41.637 37.0571 42.4166 39.0417 42.4166C39.6683 42.4166 41.0259 42.2283 41.8393 41.9401C42.0459 41.9484 42.2492 41.8566 42.3787 41.6807C42.3825 41.6756 42.386 41.6701 42.3898 41.665C42.4485 41.6163 42.4982 41.557 42.5361 41.49C42.8539 41.1917 43.3489 41.1432 43.7216 41.3915C44.1602 41.6842 44.279 42.2789 43.9864 42.7179Z" fill="#134A85"/>
<path d="M22.4721 16.257C22.4721 14.851 21.3281 13.707 19.9221 13.707C18.5161 13.707 17.3721 14.851 17.3721 16.257C17.3721 17.663 18.5161 18.807 19.9221 18.807C21.3281 18.807 22.4721 17.663 22.4721 16.257ZM18.6471 16.257C18.6471 15.5539 19.2189 14.982 19.9221 14.982C20.6252 14.982 21.1971 15.5539 21.1971 16.257C21.1971 16.9602 20.6252 17.532 19.9221 17.532C19.2192 17.532 18.6471 16.9602 18.6471 16.257Z" fill="#134A85"/>
<path d="M21.8349 25.5328V23.3334C23.1016 22.9907 24.2332 22.3172 25.1305 21.4104L27.2807 23.5607C27.4054 23.6853 27.5683 23.7475 27.7315 23.7475C27.8947 23.7475 28.0579 23.6853 28.1822 23.5607C28.4311 23.3117 28.4311 22.9082 28.1822 22.6592L25.948 20.4251C26.6557 19.4051 27.1108 18.1983 27.2237 16.8943H31.5096L34.3155 19.4383C34.4376 19.5492 34.591 19.6037 34.7436 19.6037C34.9174 19.6037 35.0901 19.5333 35.216 19.3943C35.4525 19.1336 35.4328 18.7303 35.172 18.4938L33.4084 16.8943H35.1628C36.47 16.8943 37.6988 17.4034 38.6231 18.3278L40.6144 20.319L38.4532 25.9086C38.3264 26.2369 38.4896 26.606 38.8179 26.7329C38.8934 26.7622 38.9712 26.7759 39.0477 26.7759C39.3033 26.7759 39.5446 26.621 39.6425 26.3682L41.6003 21.3049L44.1949 23.8998C44.3195 24.0245 44.4824 24.0866 44.6456 24.0866C44.8088 24.0866 44.972 24.0245 45.0963 23.8998C45.3453 23.6509 45.3453 23.2473 45.0963 22.9984L39.5246 17.4266C38.3592 16.261 36.8104 15.6193 35.1625 15.6193H31.0241L34.2116 12.4318H39.421L40.9873 13.9982C41.1119 14.1228 41.2748 14.185 41.438 14.185C41.6012 14.185 41.7644 14.1228 41.8887 13.9982C42.1377 13.7492 42.1377 13.3457 41.8887 13.0967L40.6338 11.8415L41.8419 10.8531C42.1144 10.6303 42.1546 10.2286 41.9314 9.9561C41.7086 9.68389 41.307 9.64341 41.0345 9.86654L39.4573 11.1568H35.3072C35.8723 10.2815 36.1783 9.26346 36.1783 8.1966V5.73809C36.1783 5.38619 35.8927 5.10059 35.5408 5.10059C35.1889 5.10059 34.9033 5.38619 34.9033 5.73809V8.1966C34.9033 9.3186 34.4663 10.3737 33.673 11.1667L29.221 15.6193H27.2243C27.0557 13.6715 26.1224 11.9403 24.7266 10.7262L26.7707 8.70597C27.2511 8.23071 27.8876 7.96934 28.5631 7.96934H28.5831L30.4682 9.85442C30.5929 9.97905 30.7558 10.0412 30.919 10.0412C31.0822 10.0412 31.2454 9.97905 31.3697 9.85442C31.6186 9.60548 31.6186 9.20194 31.3697 8.953L30.3866 7.96934H31.0786C31.9574 7.96934 32.6724 7.25438 32.6724 6.37559V5.73809C32.6724 5.38619 32.3868 5.10059 32.0349 5.10059C31.683 5.10059 31.3974 5.38619 31.3974 5.73809V6.37559C31.3974 6.55122 31.2546 6.69434 31.0786 6.69434H28.5631C27.5498 6.69434 26.5948 7.08672 25.8741 7.7988L23.6817 9.96567C22.7539 9.40913 21.6934 9.05309 20.5599 8.95491V5.73809C20.5599 5.38619 20.2743 5.10059 19.9224 5.10059C19.5705 5.10059 19.2849 5.38619 19.2849 5.73809V8.95491C17.9809 9.06775 16.7741 9.52292 15.7541 10.2305L14.4491 8.92559L15.7516 7.62317C16.0005 7.37423 16.0005 6.97069 15.7516 6.72175C15.5026 6.4728 15.0991 6.4728 14.8498 6.72175L13.5474 8.02384L12.6361 7.11254C11.9552 6.43169 11.05 6.05684 10.087 6.05684H8.12865C7.77675 6.05684 7.49115 6.34244 7.49115 6.69434C7.49115 7.04624 7.77675 7.33184 8.12865 7.33184H10.087C10.7092 7.33184 11.2945 7.57409 11.7347 8.01428L14.7692 11.0488C13.5675 12.2377 12.7751 13.8385 12.6208 15.6193H11.0506L9.23025 13.8691C8.733 13.391 8.44771 12.7209 8.44771 12.0308V10.2006C8.44771 9.84869 8.16211 9.56309 7.81021 9.56309C7.45831 9.56309 7.17271 9.84869 7.17271 10.2006V12.0308C7.17271 13.0658 7.60048 14.0708 8.34667 14.788L9.49576 15.8931C9.13462 16.0522 8.80185 16.276 8.51433 16.5635C8.50445 16.5734 8.49489 16.5832 8.48565 16.5941L6.21487 19.1836C5.98282 19.4482 6.00896 19.8511 6.27384 20.0831C6.39496 20.1893 6.54478 20.2412 6.69395 20.2412C6.87118 20.2412 7.04745 20.1679 7.17335 20.0238L9.42946 17.4512C9.79603 17.092 10.2796 16.8943 10.7937 16.8943H12.6208C12.7062 17.8786 12.9864 18.8075 13.4234 19.6426L10.8941 22.1719C10.0016 23.0644 9.48652 24.2307 9.4148 25.4808L6.90592 27.7357C6.64391 27.9709 6.62255 28.3741 6.85779 28.6358C6.9837 28.7757 7.15741 28.8471 7.33209 28.8471C7.48381 28.8471 7.63618 28.7933 7.75794 28.6836L9.40014 27.2078V31.2209C9.40014 31.5728 9.68574 31.8584 10.0376 31.8584C10.3895 31.8584 10.6751 31.5728 10.6751 31.2209V25.7782C10.6751 24.7563 11.0729 23.7959 11.7955 23.0736L14.1285 20.7407C15.0937 21.9848 16.449 22.9111 18.0102 23.3334V25.5328C17.2838 25.6807 16.7352 26.3246 16.7352 27.0943C16.7352 27.2818 16.8178 27.4599 16.9609 27.5811L19.0328 29.3342C19.3015 29.5615 19.7037 29.528 19.9313 29.2593C20.1586 28.9906 20.1251 28.5883 19.8564 28.3607L18.0991 26.8738C18.1568 26.8132 18.2384 26.7756 18.3286 26.7756H21.5161C21.6921 26.7756 21.8349 26.9187 21.8349 27.0943V32.8318C21.8349 33.0075 21.6921 33.1506 21.5161 33.1506H18.3286C18.2384 33.1506 18.1568 33.113 18.0988 33.0524L19.8561 31.5654C20.1248 31.3382 20.1583 30.9356 19.931 30.6669C19.7034 30.3982 19.3012 30.3647 19.0324 30.592L16.9606 32.3451C16.8175 32.4662 16.7349 32.6441 16.7349 32.8318C16.7349 33.6016 17.2835 34.2455 18.0099 34.3934V37.0078C17.2835 37.1557 16.7349 37.7996 16.7349 38.5693V39.5256C16.7349 39.7315 16.8343 39.9247 17.002 40.0442L18.5068 41.1193L17.002 42.1945C16.8343 42.314 16.7349 42.5072 16.7349 42.7131V44.3068C16.7349 45.1856 17.4499 45.9006 18.3286 45.9006H21.5161C22.3949 45.9006 23.1099 45.1856 23.1099 44.3068C23.1099 43.9549 22.8243 43.6693 22.4724 43.6693C22.1205 43.6693 21.8349 43.9549 21.8349 44.3068C21.8349 44.4825 21.6921 44.6256 21.5161 44.6256H18.3286C18.1527 44.6256 18.0099 44.4825 18.0099 44.3068V43.0411L19.611 41.8974C19.8618 41.7183 20.0113 41.4272 20.0113 41.1193C20.0113 40.8114 19.8618 40.5204 19.611 40.3413L18.0099 39.1976V38.5693C18.0099 38.3937 18.1527 38.2506 18.3286 38.2506H21.5161C21.6921 38.2506 21.8349 38.3937 21.8349 38.5693V42.0756C21.8349 42.4275 22.1205 42.7131 22.4724 42.7131C22.8243 42.7131 23.1099 42.4275 23.1099 42.0756V38.5693C23.1099 37.7996 22.5613 37.1557 21.8349 37.0078V34.3934C22.5613 34.2455 23.1099 33.6016 23.1099 32.8318V27.0943C23.1099 26.3246 22.5613 25.6807 21.8349 25.5328ZM20.5599 34.4256V36.9756H19.2849V34.4256H20.5599ZM13.8661 16.2568C13.8661 12.9173 16.5829 10.2006 19.9224 10.2006C23.2619 10.2006 25.9786 12.9173 25.9786 16.2568C25.9786 19.5964 23.2619 22.3131 19.9224 22.3131C16.5829 22.3131 13.8661 19.5964 13.8661 16.2568ZM19.9224 23.5881C20.1372 23.5881 20.3495 23.5769 20.5599 23.5588V25.5006H19.2849V23.5588C19.4953 23.5769 19.7076 23.5881 19.9224 23.5881Z" fill="#134A85"/>
<path d="M11.9539 30.6002H14.5039C14.8558 30.6002 15.1414 30.3146 15.1414 29.9627C15.1414 29.6108 14.8558 29.3252 14.5039 29.3252H11.9539C11.602 29.3252 11.3164 29.6108 11.3164 29.9627C11.3164 30.3146 11.602 30.6002 11.9539 30.6002Z" fill="#134A85"/>
<path d="M14.1578 26.1652C13.9088 25.9163 13.5053 25.9163 13.256 26.1652C13.0071 26.4142 13.0071 26.8177 13.256 27.0666L14.8498 28.6604C14.9744 28.785 15.1373 28.8472 15.3005 28.8472C15.4637 28.8472 15.6269 28.785 15.7512 28.6604C16.0002 28.4115 16.0002 28.0079 15.7512 27.759L14.1578 26.1652Z" fill="#134A85"/>
<path d="M14.8498 31.2658L13.256 32.8596C13.0071 33.1085 13.0071 33.512 13.256 33.761C13.3807 33.8856 13.5436 33.9478 13.7068 33.9478C13.87 33.9478 14.0332 33.8856 14.1575 33.761L15.7512 32.1672C16.0002 31.9183 16.0002 31.5148 15.7512 31.2658C15.5023 31.0169 15.0987 31.0169 14.8498 31.2658Z" fill="#134A85"/>
<path d="M15.1414 41.1189C15.1414 40.767 14.8558 40.4814 14.5039 40.4814H11.9539C11.602 40.4814 11.3164 40.767 11.3164 41.1189C11.3164 41.4708 11.602 41.7564 11.9539 41.7564H14.5039C14.8561 41.7564 15.1414 41.4708 15.1414 41.1189Z" fill="#134A85"/>
<path d="M14.1578 37.3215C13.9088 37.0725 13.5053 37.0725 13.256 37.3215C13.0071 37.5704 13.0071 37.974 13.256 38.2229L14.8498 39.8166C14.9744 39.9413 15.1373 40.0034 15.3005 40.0034C15.4637 40.0034 15.6269 39.9413 15.7512 39.8166C16.0002 39.5677 16.0002 39.1642 15.7512 38.9152L14.1578 37.3215Z" fill="#134A85"/>
<path d="M14.8498 42.4221L13.256 44.0158C13.0071 44.2648 13.0071 44.6683 13.256 44.9172C13.3807 45.0419 13.5436 45.104 13.7068 45.104C13.87 45.104 14.0332 45.0419 14.1575 44.9172L15.7512 43.3235C16.0002 43.0745 16.0002 42.671 15.7512 42.4221C15.5023 42.1731 15.0987 42.1731 14.8498 42.4221Z" fill="#134A85"/>
</svg>
