<svg width="51" height="51" viewBox="0 0 51 51" fill="none" xmlns="http://www.w3.org/2000/svg">
<g clip-path="url(#clip0_3059_12780)">
<path d="M47.4783 21.155C47.1971 20.8534 46.7245 20.8364 46.4224 21.1178C46.1205 21.3991 46.1039 21.8717 46.3851 22.1737C48.3874 24.3224 49.4899 27.1241 49.4899 30.0628C49.4899 36.4454 44.2973 41.638 37.9147 41.638C31.5321 41.638 26.3395 36.4454 26.3395 30.0628C26.3395 23.6802 31.5321 18.4876 37.9147 18.4876C39.932 18.4876 41.9178 19.0141 43.6576 20.0103C44.0155 20.2153 44.4721 20.0912 44.6771 19.7332C44.8821 19.3751 44.758 18.9187 44.4 18.7137C42.4346 17.5883 40.192 16.9934 37.9147 16.9934C35.6745 16.9934 33.5644 17.5603 31.7196 18.5576C30.7166 17.9602 29.6862 17.4001 28.6397 16.8843C29.7276 16.3425 30.6243 15.5285 31.2591 14.5219L31.9191 14.7485C32.2318 14.856 32.5501 14.9069 32.8636 14.9069C34.0741 14.9069 35.208 14.1462 35.6229 12.9387C35.8757 12.2022 35.8268 11.4115 35.4849 10.7119C35.2886 10.3103 35.0089 9.96667 34.6671 9.69872C35.5936 9.33484 36.3616 8.58389 36.7095 7.57096C37.3391 5.73834 36.3603 3.73499 34.5277 3.10546L31.7784 2.16106C31.3888 2.02708 30.9631 2.23457 30.8292 2.62484C30.6951 3.01501 30.9027 3.44005 31.293 3.57402L34.0423 4.51842C35.0957 4.8804 35.6584 6.03189 35.2966 7.08546C34.9346 8.13893 33.7832 8.70123 32.7295 8.33974L28.7433 6.97031C27.9304 6.691 27.2388 6.17224 26.7434 5.46979L25.7836 4.10952C25.6493 3.91927 25.4339 3.80243 25.2011 3.79366C24.9657 3.78669 24.7449 3.8854 24.5967 4.0651C23.7833 5.05183 22.9224 5.22694 22.3427 5.20244L23.1892 2.7383C23.5192 1.77746 24.5694 1.26437 25.5304 1.59438L28.0384 2.456C28.4283 2.59008 28.8536 2.38249 28.9876 1.99222C29.1217 1.60205 28.9141 1.17702 28.5238 1.04304L26.0158 0.181419C24.2759 -0.416736 22.3739 0.513019 21.7763 2.253L20.9013 4.80002L20.3636 4.61534C19.6275 4.36233 18.8367 4.41114 18.1369 4.7532C17.4375 5.09506 16.9128 5.68883 16.6598 6.42515C16.4069 7.16166 16.4559 7.95236 16.7978 8.65192C17.1396 9.35138 17.7335 9.87602 18.4698 10.1288L19.1754 10.3712C19.0659 11.4728 19.2377 12.5848 19.6871 13.6188C17.9923 13.1973 16.2469 12.8634 14.4767 12.624C14.4737 12.6237 14.4707 12.6237 14.4677 12.6233C14.4613 12.6225 14.4552 12.621 14.4487 12.6203C10.5273 12.2388 6.76539 14.2222 4.86474 17.6717L0.679348 25.261C0.112769 26.2934 -0.0966101 27.4448 0.0736227 28.5908C0.128806 28.9617 0.447657 29.2281 0.81163 29.2281C0.848187 29.2281 0.885142 29.2254 0.922396 29.2199C1.3305 29.1592 1.61219 28.7792 1.55153 28.3711C1.42791 27.539 1.57504 26.7343 1.98852 25.9812L3.65578 22.9569L10.0988 24.6518C9.70756 24.7124 9.42836 25.0695 9.47039 25.4675C9.51372 25.8778 9.88028 26.1735 10.2918 26.1321L17.1373 25.4099C17.2469 25.3984 17.3524 25.3627 17.4465 25.3055L20.1646 23.6558C20.4866 23.4604 20.8768 23.4147 21.2354 23.531L24.6164 24.6269C25.1312 24.7937 25.4809 25.2694 25.4865 25.8106C25.4927 26.3966 25.0827 26.9175 24.5119 27.0495C24.4989 27.0525 24.486 27.0559 24.4732 27.0597L7.68091 31.9015C6.23159 32.5436 4.57807 32.3144 3.24977 31.2351C2.92913 30.9755 2.45867 31.0253 2.19909 31.3459C1.93961 31.6666 1.98921 32.137 2.30986 32.3966C3.63357 33.4587 5.17602 33.9183 6.75344 33.7044L4.61094 40.2174C3.6268 43.1415 3.7021 45.6481 4.83157 47.6617L6.45292 50.6117C6.58889 50.8591 6.84458 50.999 7.10825 50.999C7.22997 50.999 7.35329 50.9693 7.46734 50.9065C7.82892 50.7078 7.96091 50.2536 7.76219 49.892L6.13765 46.9364C5.22045 45.3011 5.1832 43.2008 6.02699 40.6938L6.85504 38.2331L22.8126 44.0479L24.5879 50.1441C24.7107 50.5653 24.7994 50.8696 25.2445 50.9579L25.3898 50.2252L26.1057 50.0118C26.0802 49.9254 24.8972 45.8627 24.2141 43.5167L26.8622 37.0304C27.9464 38.7439 29.4172 40.1895 31.1518 41.2427L27.9028 49.9923C27.7593 50.3791 27.9563 50.809 28.3432 50.9527C28.4289 50.9845 28.5167 50.9996 28.6031 50.9996C28.9064 50.9996 29.1917 50.8135 29.3036 50.5123L32.4834 41.9489C34.1383 42.708 35.9776 43.132 37.9143 43.132C45.1209 43.132 50.9837 37.2692 50.9837 30.0626C50.9841 26.7447 49.7391 23.5812 47.4783 21.155ZM34.2099 12.4532C34.0866 12.8121 33.8308 13.1016 33.4898 13.2682C33.1488 13.435 32.7633 13.4588 32.4045 13.3354L31.9123 13.1663C31.9163 13.1551 31.9209 13.1441 31.9248 13.1328L32.8042 10.4682L33.3276 10.648C34.0686 10.9024 34.4644 11.7123 34.2099 12.4532ZM25.0762 5.6984L25.5226 6.33112C26.2003 7.29185 27.1462 8.00147 28.258 8.38337L31.5462 9.51304L30.5089 12.656C30.0687 13.9374 29.1558 14.9707 27.9385 15.5654C26.7211 16.1603 25.3453 16.2453 24.0637 15.8052C22.7824 15.3649 21.7492 14.4521 21.1544 13.2348C20.5595 12.0174 20.4745 10.6414 20.9146 9.36004L21.8461 6.64867C22.7227 6.77946 23.9483 6.64309 25.0762 5.6984ZM18.9552 8.71557C18.2143 8.46117 17.8185 7.65124 18.073 6.91034C18.3276 6.16935 19.1378 5.7732 19.8783 6.0283L20.416 6.21298L19.5017 8.87455C19.4987 8.88321 19.4964 8.89188 19.4934 8.90054L18.9552 8.71557ZM6.17321 18.393C7.6308 15.7474 10.3786 14.1188 13.3503 14.0691L10.2876 23.1564L4.39987 21.6077L6.17321 18.393ZM25.0771 23.2055L21.6963 22.1096C20.9242 21.8595 20.0836 21.9574 19.3895 22.3784L16.8143 23.9415L11.3598 24.5168C11.5438 24.3592 14.7695 14.4067 14.8854 14.1926C16.9499 14.4986 18.974 14.9354 20.9135 15.4948C22.3009 17.0071 24.5041 17.8072 26.546 17.5225C27.7891 18.1543 29.0793 18.7348 30.2915 19.4535C28.6366 20.6459 27.271 22.2155 26.321 24.0352C25.9986 23.658 25.573 23.3661 25.0771 23.2055ZM23.0045 42.5276L7.32291 36.8134L8.47669 33.227L24.8696 28.5003C24.894 28.4944 24.9173 28.4863 24.9415 28.4797C24.8785 28.9988 24.8453 29.5269 24.8453 30.0627C24.8453 31.9304 25.2399 33.7072 25.9488 35.3157L23.0045 42.5276Z" fill="#134A85"/>
<path d="M31.7822 29.1082C31.9245 31.0835 32.5775 37.68 37.2683 38.2255C38.5209 38.2255 39.6695 37.5818 40.5899 36.3641C41.4111 35.2777 41.8922 33.9734 42.1511 33.0708C42.375 32.2915 42.4966 31.4854 42.5159 30.6716H42.9963C43.5854 30.6716 44.0649 30.1923 44.0649 29.6031V27.7016C44.0649 27.1124 43.5855 26.633 42.9963 26.633H41.4155L40.8563 25.8824H41.8896C42.4788 25.8824 42.9581 25.4031 42.9581 24.8139V22.969C42.9581 22.3798 42.4788 21.9004 41.8896 21.9004H39.6649C39.0375 21.9004 38.4363 22.133 37.9724 22.5551L36.7318 23.6839L35.9929 22.6231C35.757 22.2844 35.2913 22.2013 34.953 22.437C34.6144 22.6728 34.5311 23.1384 34.7669 23.4769L35.5043 24.5356L34.3679 25.1207L33.5254 23.9516C33.2839 23.617 32.8171 23.5413 32.4825 23.7824C32.1478 24.0236 32.072 24.4904 32.3131 24.8252L33.0819 25.8919C32.1577 26.6741 31.6609 27.8625 31.7822 29.1082ZM42.5706 29.1775H39.0099C38.7362 29.1775 38.4845 29.3271 38.3536 29.5674L37.3735 31.3687C37.1764 31.7312 37.3102 32.1848 37.6726 32.382C37.7861 32.4437 37.9084 32.4729 38.029 32.4729C38.2939 32.4729 38.5504 32.3318 38.6859 32.0829L39.4538 30.6716H41.0218C41.0029 31.3458 40.9005 32.0131 40.715 32.6584C39.6308 36.4376 37.8028 36.7314 37.2683 36.7314C35.3143 36.7314 34.0487 33.4662 33.5989 31.7632L37.6208 28.3288C37.7729 28.1988 37.967 28.1274 38.167 28.1274H42.5705V29.1775H42.5706ZM38.9778 23.6604C39.1662 23.489 39.4101 23.3946 39.6647 23.3946H41.4638V24.3883H40.5203C40.3318 24.3883 40.1504 24.4596 40.0122 24.5876L39.3307 25.2195C39.0509 25.479 39.0117 25.9076 39.2396 26.2136L39.5521 26.6331H38.167C37.6115 26.6331 37.073 26.8318 36.6505 27.1924L33.3695 29.9943L33.2693 28.9635C33.1793 28.04 33.6544 27.1686 34.4796 26.7438L36.947 25.4735C36.9764 25.4583 37.0047 25.4411 37.0319 25.4223C37.0591 25.4038 37.0831 25.3824 37.1078 25.3619L38.9778 23.6604Z" fill="#134A85"/>
<path d="M25.7316 11.8923C25.8229 11.9289 25.917 11.9462 26.0098 11.9462C26.3059 11.9462 26.5862 11.7689 26.7032 11.4773L27.2381 10.1447C27.3918 9.76181 27.2061 9.32681 26.8232 9.17311C26.4406 9.01942 26.0053 9.20519 25.8516 9.58809L25.3167 10.9207C25.163 11.3035 25.3487 11.7386 25.7316 11.8923Z" fill="#134A85"/>
<path d="M24.2435 13.6019C24.9923 13.4516 25.1984 13.7189 25.3452 14.0053C25.4773 14.2636 25.7392 14.4121 26.0108 14.4121C26.1253 14.4121 26.2415 14.3856 26.3506 14.3299C26.7179 14.1419 26.8632 13.6918 26.6751 13.3244C25.9749 11.9564 24.6671 11.9932 23.95 12.137C23.5454 12.2179 23.2832 12.6117 23.3643 13.0162C23.4453 13.4207 23.8391 13.683 24.2435 13.6019Z" fill="#134A85"/>
<path d="M21.4454 19.7893C20.114 19.1536 18.3174 19.757 17.6004 20.7211C17.354 21.0521 17.4229 21.5201 17.754 21.7663C17.8879 21.8659 18.0442 21.9139 18.1992 21.9139C18.4273 21.9139 18.6526 21.8098 18.7992 21.6127C19.0752 21.2417 20.0862 20.7963 20.8016 21.1375C21.1739 21.3153 21.6199 21.1577 21.7976 20.7853C21.9754 20.413 21.8177 19.967 21.4454 19.7893Z" fill="#134A85"/>
<path d="M23.7367 30.6532C23.4168 30.3928 22.9462 30.4406 22.6856 30.7606C22.0152 31.5838 19.9376 32.2975 18.5506 31.5585C18.1865 31.3645 17.7339 31.5025 17.54 31.8666C17.346 32.2308 17.484 32.6832 17.8481 32.8772C18.4566 33.2015 19.1647 33.3662 19.9156 33.3662C20.347 33.3662 20.7926 33.3118 21.2416 33.202C22.3229 32.9373 23.2959 32.3774 23.8442 31.7043C24.1048 31.3844 24.0566 30.9137 23.7367 30.6532Z" fill="#134A85"/>
</g>
<defs>
<clipPath id="clip0_3059_12780">
<rect width="51" height="51" fill="white"/>
</clipPath>
</defs>
</svg>
