<svg width="51" height="51" viewBox="0 0 51 51" fill="none" xmlns="http://www.w3.org/2000/svg">
<path d="M8.07354 41.4412C7.90321 41.9642 8.19009 42.527 8.71303 42.6973C8.81264 42.7292 8.91624 42.7461 9.02083 42.7461C9.45313 42.7461 9.83364 42.4692 9.96811 42.0578C10.0508 41.8048 10.0289 41.5349 9.90835 41.2978C9.78782 41.0607 9.58163 40.8844 9.32862 40.8027C9.22901 40.7699 9.12442 40.7529 9.02083 40.7529C8.58753 40.7529 8.20702 41.0298 8.07354 41.4412Z" fill="#134A85"/>
<path d="M48.0733 6.48019C48.2069 6.18365 48.1873 5.8407 48.0207 5.56129C47.8543 5.28189 47.562 5.10139 47.2377 5.07779C45.0587 4.91871 43.2748 4.11178 41.8414 3.46342C41.37 3.25025 40.9248 3.04884 40.5046 2.88688C40.0692 2.71874 39.5453 2.49621 38.9906 2.26063C36.7443 1.30658 33.6678 0 31.1221 0C23.0789 0 16.5353 6.54364 16.5353 14.5868C16.5353 16.9696 17.0527 19.4776 18.0033 21.7532C17.2322 22.1671 16.5385 22.7271 15.959 23.4177C14.058 25.6832 13.8492 28.8126 15.1937 31.2615C14.8549 31.4733 14.5207 31.7048 14.1926 31.9566C12.4863 33.2654 10.9862 35.0564 9.8536 37.1343C9.59163 37.6164 9.76993 38.223 10.253 38.485C10.3985 38.5647 10.5628 38.6065 10.7282 38.6065C11.0937 38.6065 11.4294 38.4073 11.6037 38.0865C12.5879 36.2756 13.9376 34.66 15.4048 33.5374C15.7324 33.2865 16.0655 33.0608 16.4021 32.8593C16.5352 32.9906 16.6728 33.1188 16.8184 33.241C18.1224 34.3352 19.7125 34.8694 21.2947 34.8693C22.8748 34.8692 24.4457 34.3343 25.7156 33.2941C26.3115 33.7201 26.8613 34.2279 27.3618 34.8204C29.0203 36.7946 29.9328 39.5687 29.9328 42.6327V49.0077H8.28764C8.39323 48.3911 8.57252 47.4219 8.82354 46.2963C8.88131 46.0374 8.8345 45.7704 8.69205 45.5453C8.54961 45.3212 8.32748 45.1658 8.0685 45.108C7.77764 45.0423 7.46586 45.115 7.23278 45.2993C7.05448 45.4407 6.92897 45.6409 6.87916 45.863C6.37514 48.1232 6.14504 49.7996 6.13508 49.8713C6.09623 50.1552 6.18289 50.4431 6.37215 50.6592C6.56141 50.8754 6.83534 50.9999 7.12221 50.9999H30.9288C31.1907 50.9999 31.4477 50.8933 31.6329 50.708C31.8182 50.5228 31.9248 50.2658 31.9248 50.0038V42.6327C31.9248 40.8838 31.6655 39.2144 31.1548 37.6721C34.2697 35.1363 35.8099 32.5267 36.3962 31.351H41.5232C42.927 31.351 43.9855 30.3407 43.9855 29.0012V23.3424H45.0205C46.1909 23.3424 47.2567 22.2765 47.2567 21.1061C47.2567 20.799 47.2567 20.6956 45.453 17.2194C44.7607 15.8852 44.0609 14.5593 43.8334 14.1292C43.7323 13.5293 43.6046 12.9496 43.455 12.3933C46.316 10.3133 47.9773 6.69345 48.0733 6.48019ZM18.5275 14.5868C18.5275 7.64213 24.1774 1.99219 31.1221 1.99219C33.2624 1.99219 36.1231 3.20712 38.2119 4.09424C38.7822 4.33649 39.3208 4.5652 39.7873 4.74549C40.1553 4.88733 40.5755 5.07739 41.0204 5.2786C42.2758 5.84647 43.7756 6.52471 45.6122 6.87115C44.5564 8.6707 42.2835 11.8426 39.3796 11.8426C37.9488 11.8426 36.7198 11.619 35.6355 11.4218L35.3899 11.3773C35.038 11.3138 34.6787 11.4438 34.4492 11.718L32.2087 14.394C31.6353 14.1253 31.0086 13.9861 30.358 13.9861C27.943 13.9861 25.9782 15.9508 25.9782 18.3659C25.9782 19.2884 26.2708 20.1815 26.8002 20.9187L25.6452 22.4488C24.2404 21.3276 22.4892 20.7958 20.6925 20.9534C20.4173 20.9775 20.1464 21.0192 19.8799 21.0741C19.0051 19.016 18.5275 16.7424 18.5275 14.5868ZM18.0989 31.715C15.9951 29.9498 15.7198 26.8021 17.4851 24.6983C18.3401 23.6793 19.5409 23.0542 20.8662 22.9382C21.0143 22.9253 21.162 22.9188 21.3088 22.9188C22.4766 22.9188 23.5964 23.3249 24.5017 24.0846C25.5208 24.9396 26.1458 26.1405 26.2618 27.4657C26.3777 28.791 25.9706 30.0821 25.1154 31.1012C23.3504 33.2048 20.2026 33.4801 18.0989 31.715ZM41.8934 14.6087C41.9106 14.7167 41.9454 14.821 41.9966 14.9177C43.3618 17.4944 44.8439 20.3575 45.224 21.1869C45.1704 21.263 45.0773 21.3421 45.0204 21.3503H42.9894C42.4393 21.3503 41.9933 21.7962 41.9933 22.3464V29.0013C41.9933 29.3124 41.6987 29.3589 41.5231 29.3589H35.7567C35.3447 29.3589 34.9753 29.6124 34.8273 29.9968C34.8153 30.0276 33.6928 32.8636 30.3489 35.7476C29.9366 34.9478 29.4484 34.2094 28.8877 33.5404C28.344 32.8882 27.7352 32.3134 27.0686 31.8173C27.9719 30.4926 28.3879 28.9105 28.2463 27.2919C28.1386 26.0617 27.716 24.9093 27.0286 23.9226L28.2138 22.3526L29.6783 23.7182C29.8703 23.8972 30.114 23.9858 30.3574 23.9858C30.6239 23.9858 30.89 23.8795 31.086 23.6691C31.4613 23.2668 31.4392 22.6364 31.0369 22.2613L28.7642 20.142C28.7631 20.141 28.7619 20.1401 28.7609 20.1391C28.758 20.1365 28.7556 20.1335 28.7527 20.131C28.2555 19.6817 27.9704 19.0383 27.9704 18.3659C27.9704 17.0493 29.0415 15.9782 30.358 15.9782C30.8921 15.9782 31.3957 16.1499 31.8145 16.4746C32.2379 16.8028 32.845 16.7376 33.1886 16.3269L35.605 13.4409C36.692 13.6363 37.9172 13.8347 39.3796 13.8347C40.1873 13.8347 40.9468 13.6715 41.6549 13.3947C41.747 13.787 41.8267 14.1926 41.8934 14.6087Z" fill="#134A85"/>
<path d="M23.221 25.6105C22.6095 25.0974 21.8346 24.8533 21.0397 24.9227C20.2445 24.9923 19.5241 25.3674 19.011 25.9789C18.4979 26.5903 18.2535 27.3649 18.3232 28.1601C18.3927 28.9553 18.7678 29.6758 19.3793 30.1888C19.9381 30.6577 20.6197 30.8866 21.2977 30.8866C22.1512 30.8866 22.999 30.5239 23.5892 29.8205C24.6484 28.5583 24.4832 26.6697 23.221 25.6105ZM22.0632 28.5399C21.8922 28.7437 21.652 28.8687 21.387 28.892C21.1221 28.915 20.8638 28.8338 20.6599 28.6627C20.4561 28.4916 20.3311 28.2515 20.3079 27.9864C20.2847 27.7213 20.3661 27.4632 20.5371 27.2594C20.7081 27.0556 20.9483 26.9305 21.2133 26.9073C21.2429 26.9048 21.2725 26.9035 21.3019 26.9035C21.5354 26.9035 21.7594 26.9846 21.9405 27.1365C22.1443 27.3076 22.2693 27.5477 22.2925 27.8128C22.3156 28.0778 22.2342 28.3361 22.0632 28.5399Z" fill="#134A85"/>
<path d="M6.36283 24.7214C6.42359 25.226 6.85251 25.5984 7.35066 25.5984C7.38283 25.5984 7.4152 25.5969 7.44787 25.5937L10.8593 25.263C11.4068 25.2099 11.8077 24.723 11.7546 24.1754C11.7015 23.6279 11.2147 23.2263 10.6671 23.2801L8.22423 23.5169L8.04274 22.0107C8.01057 21.7436 7.87171 21.5009 7.65775 21.3378C7.44379 21.1746 7.17305 21.105 6.9068 21.1447L3.68812 21.6248C3.14405 21.706 2.76872 22.2129 2.84991 22.757C2.93109 23.3011 3.4385 23.676 3.98207 23.5952L6.18742 23.2662L6.36283 24.7214Z" fill="#134A85"/>
<path d="M8.56701 18.2647C8.66513 18.5158 8.86086 18.7165 9.10939 18.8207C9.35801 18.9249 9.63821 18.9241 9.88614 18.8183L11.2812 18.2224L12.2975 20.4563C12.4644 20.8233 12.8263 21.0401 13.2047 21.0401C13.3427 21.0401 13.4828 21.0114 13.6166 20.9505C14.1173 20.7227 14.3386 20.1321 14.1108 19.6313L12.6915 16.5115C12.4675 16.019 11.8915 15.7956 11.3935 16.008L10.0486 16.5825L9.26209 14.5694C9.06187 14.0569 8.48404 13.8039 7.97175 14.0041C7.45936 14.2043 7.20625 14.7821 7.40646 15.2945L8.56701 18.2647Z" fill="#134A85"/>
</svg>
