<svg width="51" height="51" viewBox="0 0 51 51" fill="none" xmlns="http://www.w3.org/2000/svg">
<path d="M37.7634 48.967C37.3968 48.967 37.0701 48.712 36.9824 48.3375C35.3409 40.8548 37.3649 35.8983 39.3173 31.1091C41.0306 26.9095 42.6482 22.9411 41.7477 17.4108C40.2417 8.13516 35.0301 3.63281 25.8102 3.63281C17.4431 3.63281 10.6377 10.4381 10.6377 18.8053C10.6377 20.415 10.8848 21.9928 11.3788 23.5148C11.4346 23.6902 11.4267 23.8814 11.3629 24.0487L9.00416 30.0572C8.93244 30.2325 8.99619 30.368 9.044 30.4317C9.09181 30.4955 9.18744 30.615 9.37869 30.615L11.8251 30.6947C12.1917 30.7027 12.5024 30.9656 12.5742 31.3242L14.0324 38.01C14.3432 39.4205 15.6581 40.3608 17.0924 40.2014L25.627 39.2133C25.8899 39.1017 27.5713 38.2809 28.6073 34.8305C28.7348 34.4081 29.181 34.1691 29.6034 34.2966C30.0257 34.4241 30.2648 34.8703 30.1373 35.2927C28.7268 39.9623 26.129 40.7353 26.0174 40.7672C25.9776 40.7752 25.9377 40.7831 25.8979 40.7911L17.2757 41.7872C15.0206 42.0502 12.9567 40.568 12.4785 38.3527L11.1557 32.2725L9.33087 32.2087C8.67744 32.1848 8.07978 31.8502 7.72119 31.3083C7.36259 30.7664 7.29087 30.0811 7.52994 29.4755L9.78509 23.73C9.299 22.1363 9.05197 20.4788 9.05197 18.8053C9.05197 9.56156 16.5745 2.03906 25.8182 2.03906C35.811 2.03906 41.6999 7.12313 43.3335 17.1558C44.3057 23.1244 42.5207 27.4912 40.7995 31.7067C38.9348 36.2728 37.0063 40.9983 38.5443 47.9948C38.6399 48.4252 38.369 48.8475 37.9387 48.9431C37.8749 48.9591 37.8192 48.967 37.7634 48.967Z" fill="#134A85"/>
<path d="M23.2921 48.9674C23.1885 48.9674 23.0769 48.9435 22.9733 48.9037C22.5669 48.7284 22.3836 48.2582 22.559 47.8518C24.1049 44.3057 21.4513 41.0943 21.3397 40.9589C21.0529 40.6242 21.1007 40.1221 21.4354 39.8353C21.77 39.5484 22.2721 39.5882 22.559 39.9229C22.7024 40.0903 25.9775 44.0189 24.0252 48.4814C23.8897 48.7842 23.5949 48.9674 23.2921 48.9674Z" fill="#134A85"/>
<path d="M23.3721 24.074C21.6747 24.074 19.8499 23.7393 18.1366 23.038C14.9491 21.7391 13.0685 20.0816 12.5505 18.1134C12.0326 16.153 13.0924 14.639 13.2597 14.4159C13.4112 14.2007 14.5427 12.6707 16.4871 12.328C16.6704 10.4395 17.7701 8.94133 19.5949 8.0807C20.5432 7.63445 21.8979 7.45914 23.4677 7.52289C23.5235 7.26789 23.6032 7.02883 23.7147 6.79773C24.1371 5.92117 25.1571 4.87727 27.6354 4.86133H27.6752C29.9383 4.86133 31.0619 5.92914 31.6357 7.5468C31.9544 7.40336 32.2812 7.2918 32.6238 7.22008C34.9268 6.74992 36.8791 7.87352 37.8513 10.2163C38.3294 11.3718 38.5287 12.7424 38.4012 14.121C39.3335 15.2366 39.963 16.4399 40.2579 17.6751C40.9671 20.6554 40.1304 22.1296 39.3096 22.8388C38.3215 23.6915 36.8393 23.8349 35.3412 23.2373C34.4965 22.9026 33.5641 22.281 32.7672 21.3646C31.6915 21.6993 30.6476 21.7312 29.6435 21.5399C29.6037 21.5957 29.5638 21.6515 29.524 21.7073C28.3765 23.2532 26.0257 24.074 23.3721 24.074ZM14.5268 15.3721C14.4949 15.4199 13.7379 16.432 14.0885 17.7309C14.479 19.1573 16.0807 20.4801 18.7343 21.5638C22.5194 23.1098 26.4879 22.536 27.994 21.0459C27.0218 20.6474 26.0974 20.0737 25.2049 19.4202C24.6551 20.0737 24.0574 20.5438 23.3721 20.743C22.6549 20.9582 21.9138 20.8466 21.1807 20.4163C18.7024 18.966 16.9254 16.432 16.5269 13.9457C15.2918 14.2645 14.5587 15.3243 14.5507 15.3323C14.5507 15.3482 14.5427 15.3641 14.5268 15.3721ZM34.3132 20.6873C34.8391 21.1973 35.4129 21.5479 35.9388 21.763C36.8791 22.1376 37.7557 22.0898 38.2816 21.6355C38.9669 21.0379 39.1263 19.7709 38.7199 18.0496C38.5765 17.436 38.3215 16.8224 37.9708 16.2327C37.421 17.8504 36.3771 19.3565 34.7913 20.4004C34.624 20.496 34.4646 20.5996 34.3132 20.6873ZM30.2252 20.0179C30.7432 20.0816 31.2691 20.0657 31.803 19.9621C31.3647 19.1334 31.046 18.1612 30.9344 17.0455C30.791 15.6112 30.7432 14.2166 30.6954 12.9815C30.6635 12.1527 30.6316 11.4116 30.5838 10.7582C30.5121 10.7263 30.4324 10.7024 30.3607 10.6705C29.4443 11.834 28.6394 13.3799 27.8824 14.8541C28.1533 15.2287 28.4482 15.6191 28.759 16.0016C30.0738 17.6432 30.3527 18.9899 30.2252 20.0179ZM26.1293 18.1293C26.958 18.7349 27.7947 19.2529 28.6554 19.5955C28.6713 18.6712 28.1055 17.7229 27.5238 16.9898C27.3883 16.8224 27.2449 16.6312 27.0855 16.432C26.7588 17.0376 26.448 17.6113 26.1293 18.1293ZM32.2333 11.4913C32.2572 11.9615 32.2732 12.4476 32.2891 12.9257C32.3369 14.1927 32.3768 15.5076 32.5202 16.8862C32.6158 17.8743 32.9107 18.719 33.3171 19.4123C33.5083 19.3087 33.6996 19.1971 33.8988 19.0696C35.5005 18.0098 36.409 16.3363 36.7197 14.623C35.6041 13.4676 34.098 12.3998 32.2333 11.4913ZM18.1685 13.9855C18.5829 15.914 20.0491 17.8982 21.9935 19.0377C22.4477 19.3087 22.7505 19.2688 22.9258 19.213C23.2685 19.1174 23.6112 18.8385 23.9538 18.4401C23.2685 17.8663 22.6071 17.2766 21.9696 16.7109C21.348 16.153 20.7424 15.6112 20.1447 15.1171C19.4674 14.5513 18.806 14.1688 18.1685 13.9855ZM18.0808 12.328C19.1008 12.5113 20.1288 13.0293 21.1647 13.882C21.7783 14.392 22.3999 14.9498 23.0374 15.5235C23.643 16.0654 24.2487 16.6152 24.8702 17.1332C25.2607 16.4798 25.6512 15.7307 26.0416 14.9816C24.8941 13.2763 23.6749 11.077 23.4199 9.12461C22.0652 9.06883 20.9576 9.2043 20.2722 9.53102C19.0052 10.1207 18.2562 11.0849 18.0808 12.328ZM25.0535 9.27602C25.2766 10.3916 25.9062 11.8021 26.8704 13.348C27.4521 12.2245 28.0816 11.1009 28.7908 10.1207C27.4919 9.7143 26.2169 9.43539 25.0535 9.27602ZM32.0899 9.65852C32.329 9.76211 32.576 9.87367 32.8071 9.9932C34.353 10.7423 35.6918 11.587 36.7915 12.5193C36.7277 11.9137 36.5843 11.3399 36.3691 10.822C35.9787 9.87367 35.0065 8.35164 32.9346 8.77398C32.6158 8.83773 32.3051 8.96523 32.0102 9.13258C32.0421 9.30789 32.066 9.4832 32.0899 9.65852ZM25.0694 7.66633C26.5994 7.86555 28.2569 8.24805 29.8905 8.80586C30.0101 8.68633 30.1376 8.5668 30.2651 8.45523C29.8826 7.02883 29.1654 6.45508 27.6672 6.45508C27.6593 6.45508 27.6433 6.45508 27.6354 6.45508C26.3046 6.46305 25.4679 6.8057 25.1412 7.48305C25.1172 7.5468 25.0933 7.60258 25.0694 7.66633Z" fill="#134A85"/>
</svg>
