<svg width="51" height="51" viewBox="0 0 51 51" fill="none" xmlns="http://www.w3.org/2000/svg">
<path d="M15.6428 14.2302C15.422 14.3539 15.3451 14.6343 15.4681 14.8537C15.5918 15.0746 15.8722 15.1516 16.0917 15.0286L16.092 15.0284C16.5614 14.7639 17.0889 14.619 17.6155 14.6078C17.6721 14.6076 18.8257 14.6078 19.6693 15.2956C20.7204 16.1557 21.0504 17.8845 20.419 19.5145C20.3246 19.7519 20.4429 20.0176 20.6796 20.1084L20.6795 20.1085L20.6828 20.1096C20.7912 20.1484 20.9038 20.1513 21.0108 20.1043C21.114 20.0588 21.1947 19.9744 21.2586 19.8715L21.266 19.8597L21.271 19.8467C22.0314 17.885 21.6304 15.7164 20.2481 14.5865L20.2481 14.5865C19.125 13.6691 17.6626 13.6907 17.5975 13.6921L17.6007 13.842L17.5977 13.692C16.9196 13.7053 16.2439 13.8919 15.6428 14.2302ZM15.6428 14.2302C15.6428 14.2301 15.6428 14.2301 15.6429 14.2301L15.7162 14.3609L15.6427 14.2302C15.6427 14.2302 15.6427 14.2302 15.6428 14.2302ZM21.1311 19.7924C21.0228 19.9671 20.8902 20.0245 20.7333 19.9684L21.1311 19.7924ZM21.1311 19.7924C21.8745 17.8748 21.4728 15.7813 20.1532 14.7026L21.1311 19.7924ZM16.0184 14.8977C16.5093 14.621 17.0613 14.4693 17.6134 14.4578C17.6135 14.4578 17.6138 14.4578 17.6142 14.4578C17.6526 14.4576 18.8688 14.4492 19.7643 15.1795L16.0184 14.8977Z" fill="#134A85" stroke="#134A85" stroke-width="0.3"/>
<path d="M12.9533 21.5872C13.1535 21.6421 13.3601 21.6701 13.5692 21.6701H18.5952C18.9382 21.6701 19.2365 21.9136 19.3028 22.249L19.9034 25.2439L12.9533 21.5872ZM12.9533 21.5872L12.9137 21.7319C12.9138 21.7319 12.9139 21.7319 12.9139 21.732L12.9533 21.5872ZM19.9059 22.1304L20.053 22.1009L20.053 22.101C20.053 22.101 20.053 22.1011 20.053 22.1011L20.5796 24.728H22.5068L22.502 24.6838C22.502 24.6836 22.502 24.6834 22.5019 24.6832C22.4171 23.9552 22.8733 23.2817 23.5836 23.0849C24.6316 22.7921 25.4438 22.1113 25.8216 21.2225L25.8216 21.2224C26.028 20.738 26.0603 20.2225 26.0384 19.8213C26.0183 19.4541 25.9536 19.194 25.9445 19.1577C25.9436 19.1542 25.9433 19.1527 25.9435 19.1535L25.9415 19.1474L25.9416 19.1474C25.8676 18.8889 25.7584 18.64 25.6163 18.4081L12.1399 20.2982C12.1985 20.3849 12.5262 20.835 13.114 20.9956M19.9059 22.1304C19.7822 21.5082 19.2314 21.0556 18.5952 21.0556H13.5679C13.4136 21.0556 13.2606 21.0352 13.114 20.9956M19.9059 22.1304L20.4567 24.878L19.9059 22.1304ZM13.114 20.9956L13.1535 20.8509C13.1535 20.8509 13.1534 20.8509 13.1533 20.8509M13.114 20.9956L13.153 20.8508C13.1531 20.8508 13.1532 20.8508 13.1533 20.8509M13.1533 20.8509C12.6182 20.7045 12.3164 20.2914 12.2641 20.2142L12.264 20.214C12.2183 20.1466 11.8217 19.5141 12.0893 18.7937L12.0893 18.7934C12.2941 18.2394 12.8274 17.833 13.4513 17.7647M13.1533 20.8509L11.1408 19.827M11.1408 19.827C11.0602 19.4481 11.0454 18.9776 11.2317 18.4752C11.5582 17.5921 12.3922 16.9585 13.3528 16.8545L13.3533 16.8544C13.6041 16.828 13.8307 17.0076 13.8573 17.2608C13.8837 17.5114 13.7043 17.738 13.4513 17.7647M11.1408 19.827C10.0273 19.4052 9.25042 18.3678 9.26048 17.2115L9.26049 17.2114C9.2701 16.0228 10.1318 14.9314 11.3699 14.5682L11.3704 14.5681C11.6128 14.4961 11.7509 14.2424 11.6809 14.0001L11.6809 14.0001L11.6806 13.9991C11.6087 13.7567 11.3549 13.6186 11.1127 13.6886L11.1123 13.6887C10.797 13.7808 10.5014 13.91 10.2282 14.0698C10.1243 13.5636 10.0914 12.7885 10.5644 12.0426L10.5645 12.0426C11.343 10.8145 12.7748 10.7914 12.8322 10.7914C13.0178 10.7914 13.1907 10.673 13.2577 10.4992C13.4585 9.98245 13.9471 9.0427 14.9619 8.48953L14.9619 8.48952C16.1667 7.83246 17.7251 7.92876 19.0576 8.73207C18.9903 8.80988 18.9247 8.89363 18.8622 8.98365C18.1341 10.0308 18.3054 11.1638 18.3732 11.4846L18.3733 11.4847C18.4348 11.7743 18.7005 11.8761 18.9123 11.8369C19.0193 11.8171 19.1254 11.7607 19.1972 11.6643C19.2713 11.5648 19.2989 11.4357 19.2685 11.2934M11.1408 19.827L22.4327 8.78103C22.1916 8.66467 21.5523 8.42017 20.7996 8.64681L20.7994 8.64687C20.5766 8.71358 20.0119 8.933 19.6135 9.50673L19.6135 9.50675C19.0986 10.248 19.219 11.0603 19.2685 11.2934M13.4513 17.7647C13.4512 17.7648 13.4511 17.7648 13.451 17.7648L13.4353 17.6156M13.4513 17.7647C13.4514 17.7647 13.4515 17.7647 13.4516 17.7647L13.4353 17.6156M13.4353 17.6156C13.6049 17.5978 13.726 17.446 13.7081 17.2765C13.6903 17.1069 13.5386 16.9858 13.369 17.0036L11.9486 18.7414C12.1743 18.1307 12.7583 17.6896 13.4353 17.6156ZM19.2685 11.2934C19.2685 11.2934 19.2685 11.2935 19.2685 11.2936L19.1218 11.3248L19.2685 11.2934ZM12.5199 9.89733C12.8159 9.24899 13.4128 8.29171 14.525 7.68552C16.111 6.82106 18.1431 7.00239 19.7875 8.11146C20.0973 7.91918 20.3775 7.8175 20.537 7.76927L20.5372 7.76922C21.6011 7.44896 22.4968 7.79325 22.8326 7.95645L22.8332 7.95674C23.0597 8.06809 23.155 8.34069 23.0449 8.56845L23.0444 8.56936C22.9331 8.79581 22.6605 8.89111 22.4328 8.78105L12.5199 9.89733ZM12.5199 9.89733C11.9293 9.96944 10.603 10.2721 9.79339 11.5505L9.79339 11.5505C8.99589 12.8098 9.25343 14.0891 9.44283 14.672C8.76839 15.3415 8.355 16.242 8.34722 17.1999M12.5199 9.89733L11.6366 20.8935C9.76506 20.6131 8.33011 19.0332 8.34722 17.1999M8.34722 17.1999C8.34722 17.1999 8.34722 17.1999 8.34722 17.1998L8.49722 17.2012L8.34722 17.2C8.34722 17.2 8.34722 17.1999 8.34722 17.1999ZM23.4732 25.1339C23.4732 25.1337 23.4732 25.1335 23.4732 25.1333L23.3242 25.1509L23.4733 25.1344L23.4732 25.1339ZM26.4059 21.7747L26.3682 21.9198C26.4065 21.9298 26.4449 21.9388 26.4835 21.947C26.5025 21.9129 26.521 21.8784 26.539 21.8437L26.4059 21.7747ZM26.6774 18.9352L26.8216 18.8938C26.7248 18.5569 26.5817 18.2323 26.3977 17.9305C26.3976 17.9304 26.3976 17.9303 26.3975 17.9302L26.2694 18.0083L26.6774 18.9352ZM25.8461 17.9063L25.7685 17.778C25.7683 17.7781 25.7682 17.7781 25.7681 17.7782C25.7679 17.7783 25.7678 17.7784 25.7677 17.7785L25.8461 17.9063ZM19.4903 9.42118C19.9161 8.8079 20.5179 8.57458 20.7563 8.50318L19.4903 9.42118ZM25.7441 18.3296L25.6162 18.408L25.7441 18.3296ZM26.7922 21.2246C26.8069 21.1758 26.8204 21.127 26.8328 21.0784C26.7832 21.0728 26.7335 21.065 26.684 21.0549C26.6715 21.1031 26.6578 21.1513 26.643 21.1996C26.6926 21.2101 26.7424 21.2184 26.7922 21.2246ZM28.775 17.9219C28.7749 17.9218 28.7748 17.9217 28.7748 17.9216L28.6613 18.0198L28.775 17.9219ZM28.7633 21.2817C28.7633 21.2817 28.7633 21.2817 28.7634 21.2816L28.655 21.178L28.7633 21.2817Z" fill="#134A85" stroke="#134A85" stroke-width="0.3"/>
<path d="M25.8468 12.5698L25.8458 12.5699C25.6733 12.5943 25.4987 12.5197 25.4007 12.3736L25.5252 12.29M25.8468 12.5698L28.5954 7.30351C28.4488 7.21809 28.2601 7.26781 28.1747 7.41444L28.0452 7.33871L28.0451 7.33888C28.0451 7.33889 28.0451 7.33891 28.0451 7.33893L25.3857 11.8864L25.515 11.9624L25.3856 11.8866L25.3857 11.8865C25.2966 12.0382 25.3022 12.2278 25.4009 12.374L25.5252 12.29M25.8468 12.5698L29.0694 12.0939L27.1119 15.4426C27.0366 15.5713 27.0192 15.7045 27.0611 15.8244C27.1017 15.9406 27.1907 16.0234 27.2881 16.0708C27.4744 16.1615 27.7606 16.1471 27.9024 15.9053L27.9026 15.9051L30.3415 11.7336C30.3415 11.7336 30.3415 11.7335 30.3416 11.7335C30.4306 11.5818 30.4249 11.3921 30.3262 11.246C30.2275 11.0997 30.0534 11.0243 29.8811 11.0489L29.8804 11.049L26.6578 11.5248L28.8358 7.79998L28.836 7.79977C28.9626 7.58243 28.8913 7.30135 28.6707 7.17376L25.8468 12.5698ZM25.5252 12.29C25.5903 12.3869 25.7076 12.4379 25.8249 12.4214L25.5252 12.29Z" fill="#134A85" stroke="#134A85" stroke-width="0.3"/>
<path d="M27.8616 17.2229C30.9445 17.2229 33.4533 14.7141 33.4533 11.6312C33.4533 8.54824 30.9445 6.03945 27.8616 6.03945C24.7787 6.03945 22.2699 8.54824 22.2699 11.6312C22.2699 14.7141 24.7787 17.2229 27.8616 17.2229ZM27.8616 6.95528C30.4397 6.95528 32.5375 9.05307 32.5375 11.6312C32.5375 14.2092 30.4397 16.307 27.8616 16.307C25.2835 16.307 23.1857 14.2092 23.1857 11.6312C23.1857 9.05307 25.2835 6.95528 27.8616 6.95528Z" fill="#134A85" stroke="#134A85" stroke-width="0.3"/>
<path d="M42.0136 25.549L42.0142 25.5487C42.2456 25.4509 42.5152 25.5555 42.6147 25.7897C42.7153 26.0224 42.6059 26.2901 42.3769 26.3914L42.3752 26.3922L39.9039 27.4508L40.4546 29.593C40.491 29.7344 40.469 29.8649 40.3986 29.9675C40.3304 30.0669 40.2261 30.1268 40.1199 30.1503C39.9106 30.1967 39.6408 30.1057 39.5674 29.8209L39.5674 29.8209L39.0512 27.8149L38.6064 28.005C38.3265 28.224 38.0472 28.4434 37.7679 28.6628C37.6085 28.788 37.4491 28.9132 37.2897 29.0383C36.8396 29.3914 36.3895 29.7447 35.9381 30.0979C34.7445 31.0335 34.3954 32.6843 35.1059 34.0226L37.2925 38.1367L38.5397 39.4958L40.5335 38.9476L40.534 38.9475C40.7772 38.8815 41.0301 39.0228 41.0967 39.2684C41.1627 39.5116 41.0215 39.7642 40.7761 39.8311L40.7762 39.831L40.7365 39.6864L40.7757 39.8312L42.0136 25.549ZM42.0136 25.549L38.6122 27.0064L37.7705 25.0861L37.7703 25.0856M42.0136 25.549L37.7703 25.0856M37.7703 25.0856C37.6684 24.8554 37.3994 24.7482 37.1669 24.851C36.9368 24.9529 36.8296 25.2217 36.9323 25.4541C36.9323 25.4542 36.9323 25.4543 36.9324 25.4544L37.7679 27.3613C37.031 27.6327 36.0213 27.8375 34.8646 27.6215L34.8646 27.6215M37.7703 25.0856L34.8646 27.6215M34.8646 27.6215C33.3532 27.3394 31.9308 26.3625 31.2407 25.1462L31.2406 25.1462M34.8646 27.6215L31.2406 25.1462M31.2406 25.1462C30.9723 24.6736 30.7048 23.8786 30.5019 23.1868C30.4011 22.8433 30.3174 22.5294 30.2586 22.2999C30.2292 22.1852 30.206 22.0917 30.1901 22.0262L30.1717 21.9499L30.1668 21.9293C30.1658 21.9248 30.1653 21.9227 30.1652 21.9224L30.1649 21.9211M31.2406 25.1462L30.1649 21.9211M30.1649 21.9211C30.1173 21.7155 29.9364 21.5716 29.727 21.5678L30.1649 21.9211ZM29.7166 23.7507C29.9185 24.4035 30.1738 25.1188 30.4454 25.5988L30.4455 25.599C31.2814 27.0726 32.9109 28.1895 34.6985 28.5233C35.2906 28.6343 35.849 28.6507 36.3618 28.608C36.0338 28.8652 35.7057 29.1225 35.377 29.3797L35.3769 29.3798C33.8343 30.5887 33.3814 32.7234 34.3004 34.454L34.3004 34.4541L35.6652 37.0216C35.39 36.8387 35.1148 36.656 34.8397 36.4734C34.7039 36.3831 34.5683 36.2929 34.4327 36.2028C34.0283 35.9339 33.6245 35.6654 33.2207 35.3962L33.2206 35.3961C31.7772 34.4343 29.8485 34.6365 28.6353 35.8763L28.6351 35.8765L28.5347 35.9796L29.7166 23.7507ZM29.7166 23.7507C29.6245 24.0823 29.528 24.4298 29.4376 24.7551C29.3335 25.1296 29.2377 25.4746 29.1663 25.732L29.7166 23.7507ZM25.9909 38.5779L26.9942 34.7674L26.9943 34.7674L26.9952 34.7636C27.0015 34.7365 27.0072 34.7057 27.0091 34.6712L27.0091 34.6712L27.0092 34.669C27.0261 34.2553 27.0258 32.0966 25.2769 30.7176C24.376 30.0069 23.3974 29.8085 22.7382 29.7664C22.7381 29.7664 22.738 29.7664 22.7379 29.7664L22.7284 29.9161M25.9909 38.5779L29.2909 36.5196L29.1903 36.6228L29.1901 36.623L29.1438 36.6703C27.9219 37.9185 26.7012 39.1656 25.4768 40.4139L23.6797 43.5578C23.54 43.8022 23.2539 43.8192 23.0665 43.7296C22.9687 43.6828 22.8793 43.6007 22.8377 43.4849C22.7949 43.3654 22.811 43.2321 22.8851 43.1027L24.0778 41.0149L22.6705 41.5478C22.4043 41.6642 22.1448 41.5219 22.0427 41.3232C21.9896 41.2199 21.9732 41.0917 22.0252 40.9686C22.0774 40.8452 22.188 40.7508 22.3424 40.6924C22.3424 40.6924 22.3425 40.6923 22.3425 40.6923L24.7258 39.789L26.0965 34.5847C26.1024 34.2178 26.0546 32.4965 24.7112 31.4364C23.9971 30.8737 23.2142 30.7149 22.6807 30.6803C22.6806 30.6803 22.6805 30.6803 22.6804 30.6803L22.6901 30.5306M25.9909 38.5779C26.4472 38.1122 26.9029 37.6466 27.3586 37.1809C27.7504 36.7806 28.1421 36.3802 28.5344 35.9798L25.9909 38.5779ZM22.7284 29.9161C22.5588 29.9046 22.4122 30.0346 22.402 30.2042C22.3918 30.3738 22.5205 30.5204 22.6901 30.5306M22.7284 29.9161C23.3684 29.9569 24.3145 30.1494 25.184 30.8353L22.7284 29.9161ZM22.6901 30.5306C23.2422 30.5663 24.0582 30.7308 24.8041 31.3186L22.6901 30.5306ZM32.7151 36.1609C31.6366 35.4423 30.1969 35.5932 29.2911 36.5195L32.7151 36.1609ZM32.7151 36.1609C32.9848 36.3407 33.2548 36.5202 33.5247 36.6996L33.5249 36.6997L33.5257 36.7002C33.7954 36.8795 34.065 37.0587 34.3343 37.2383L34.3345 37.2384C35.0301 37.7008 35.7245 38.1633 36.4189 38.6259L35.8623 41.7524L35.8623 41.7526C35.837 41.8956 35.8694 42.0234 35.9465 42.1202C36.0212 42.214 36.1289 42.2672 36.2364 42.2838C36.45 42.3167 36.7116 42.2057 36.7634 41.9132L37.21 39.402L39.3471 41.7321C39.3471 41.7321 39.3471 41.7322 39.3471 41.7322C39.5287 41.9303 39.8136 41.8846 39.9765 41.7661C40.0637 41.7026 40.1384 41.6052 40.1553 41.481C40.1726 41.3529 40.1247 41.2255 40.0221 41.1138L32.7151 36.1609ZM29.277 21.9066L29.2774 21.9052C29.3324 21.7041 29.5192 21.5641 29.727 21.5678L29.277 21.9066ZM29.277 21.9066L29.277 21.9068L29.2769 21.9073L29.2764 21.909L29.2748 21.9148L29.2695 21.9342L29.2509 22.0014L29.1858 22.236L28.9716 23.0062L28.9716 23.0062M29.277 21.9066L28.9716 23.0062M28.9716 23.0062C28.7465 23.8156 28.4536 24.8722 28.2871 25.4728L28.2831 25.4875L28.283 25.4875M28.9716 23.0062L28.283 25.4875M28.283 25.4875C28.0692 26.2593 27.5397 26.9989 26.85 27.5658C26.1605 28.1325 25.3223 28.5173 24.5035 28.5924L24.5034 28.5924M28.283 25.4875L24.5034 28.5924M24.5034 28.5924C24.015 28.6375 23.5124 28.5732 23.0097 28.3987M24.5034 28.5924L24.5883 29.5044M24.5883 29.5044L24.5882 29.5044C23.9663 29.5613 23.3343 29.4791 22.71 29.2635C22.4708 29.1816 22.3442 28.92 22.4272 28.6814C22.5092 28.442 22.771 28.3154 23.0097 28.3987M24.5883 29.5044C25.5947 29.4119 26.6066 28.9414 27.4305 28.2628M24.5883 29.5044L27.4305 28.2628M23.0097 28.3987C23.0098 28.3987 23.0098 28.3987 23.0099 28.3987L22.9604 28.5403M23.0097 28.3987C23.0097 28.3987 23.0096 28.3987 23.0096 28.3986L22.9604 28.5403M22.9604 28.5403C23.4819 28.7214 24.0059 28.789 24.5172 28.7418L22.569 28.7303C22.6238 28.5697 22.7998 28.4842 22.9604 28.5403ZM27.4305 28.2628C28.2542 27.5843 28.9014 26.6884 29.1663 25.7321L27.4305 28.2628ZM29.4221 21.9448C29.4591 21.8096 29.5853 21.7153 29.7243 21.7178L29.4221 21.9448ZM29.4221 21.9448C29.4157 21.969 29.2857 22.4369 29.1161 23.0464L29.4221 21.9448ZM39.2343 40.2544L39.1204 40.1301L38.9578 40.1747L39.0717 40.299L39.2343 40.2544ZM39.0134 27.668L39.1529 27.6083L39.1907 27.7553L39.0134 27.668Z" fill="#134A85" stroke="#134A85" stroke-width="0.3"/>
<path d="M29.7722 29.3779L29.8101 29.523C29.9446 29.488 30.0798 29.4705 30.2146 29.4705C30.4914 29.4705 30.7649 29.5437 31.0111 29.6872C31.376 29.9005 31.6365 30.2426 31.7436 30.6514C31.8509 31.0605 31.7927 31.4863 31.5794 31.8509L31.5794 31.851C31.1393 32.6044 30.1678 32.8595 29.4144 32.4193C29.0496 32.206 28.789 31.864 28.6819 31.4539L28.6818 31.4536C28.5747 31.0474 28.6327 30.6217 28.8461 30.2555C29.0594 29.8906 29.4014 29.6302 29.8102 29.523L29.7722 29.3779ZM29.7722 29.3779C29.9188 29.3397 30.0667 29.3205 30.2146 29.3205C30.5181 29.3205 30.8177 29.4009 31.0867 29.5577L29.7722 29.3779ZM32.3688 32.3147L32.3689 32.3146C32.7051 31.7384 32.7974 31.0651 32.6279 30.4197C32.4585 29.7745 32.0486 29.2328 31.4722 28.8965C30.896 28.5602 30.2228 28.468 29.5776 28.636L29.5773 28.6361C28.9321 28.8056 28.3904 29.2155 28.054 29.7919L28.0538 29.7923C27.7191 30.3695 27.6267 31.0426 27.7962 31.6881C27.9657 32.3332 28.3756 32.8749 28.952 33.2113C29.3466 33.4419 29.7809 33.5518 30.2083 33.5518C31.0676 33.5518 31.9047 33.1086 32.3688 32.3147Z" fill="#134A85" stroke="#134A85" stroke-width="0.3"/>
<path d="M18.1143 40.3784L18.1144 40.3784L19.9052 38.5888C19.9052 38.5888 19.9053 38.5887 19.9054 38.5886C19.9735 38.5196 19.9734 38.4075 19.9053 38.3385C19.9053 38.3385 19.9052 38.3384 19.9052 38.3384L18.8258 37.259C18.7568 37.19 18.644 37.19 18.5751 37.259L16.6919 39.1421C16.6064 39.2276 16.4854 39.2779 16.364 39.2779H11.8696C11.3404 39.2779 10.9104 39.708 10.9104 40.2371V41.9456C10.9104 42.4697 11.3366 42.8971 11.8617 42.8972C11.8618 42.8972 11.8619 42.8972 11.862 42.8972L17.3363 42.8781L17.3368 42.8781L17.3381 42.8781C17.4604 42.8781 17.5792 42.9289 17.6648 43.0127L17.666 43.0138L17.666 43.0138L18.5389 43.8867C18.539 43.8868 18.5391 43.8869 18.5391 43.887C18.6503 43.997 18.8074 44.0547 18.9704 44.0426L18.9705 44.0426C19.1327 44.0306 19.2724 43.9525 19.3692 43.8206C19.5201 43.6134 19.4941 43.2951 19.2848 43.0858L18.1143 40.3784ZM18.1143 40.3784C17.9088 40.5839 17.7963 40.8567 17.7963 41.1475C17.7963 41.4369 17.9088 41.711 18.1143 41.9165L18.1144 41.9166L19.2848 43.0857L18.1143 40.3784ZM19.4715 36.6108L19.471 36.6104C19.0452 36.1876 18.3543 36.1878 17.9274 36.6102L17.9269 36.6108L16.1756 38.362H11.8696C10.8356 38.362 9.99453 39.2031 9.99453 40.2371V41.9456C9.99453 42.9759 10.8319 43.813 11.8632 43.813L11.8638 43.813L17.1512 43.7941L17.8925 44.5354C18.1672 44.8102 18.5384 44.9605 18.9255 44.9605C18.9636 44.9605 19.0017 44.9591 19.0398 44.9563L19.0402 44.9563C19.4665 44.9236 19.856 44.7061 20.1075 44.3608C20.5294 43.7816 20.449 42.9575 19.9318 42.4389L19.9316 42.4387L18.7612 41.2696L18.7612 41.2696C18.728 41.2364 18.7108 41.1942 18.7108 41.1487C18.7108 41.1023 18.7287 41.0598 18.7601 41.029L18.7601 41.029L18.7612 41.0279L20.5526 39.2378L20.5528 39.2376C20.9771 38.8117 20.9769 38.1205 20.553 37.6936L20.5527 37.6933L19.4715 36.6108Z" fill="#134A85" stroke="#134A85" stroke-width="0.3"/>
<path d="M11.1681 34.6938L11.1676 34.6938C10.6945 34.6701 10.258 34.4638 9.94049 34.1116C9.62315 33.7607 9.46143 33.3075 9.48508 32.8344L9.48509 32.8343L9.56541 31.2445L11.1681 34.6938ZM11.1681 34.6938L16.0795 34.9242L16.7261 35.6391L16.7263 35.6392M11.1681 34.6938L16.7263 35.6392M16.7263 35.6392C16.9909 35.9311 17.3655 36.0952 17.7605 36.0952H17.7949V36.0953M16.7263 35.6392L17.7949 36.0953M17.7949 36.0953L17.7991 36.0951M17.7949 36.0953L17.7991 36.0951M17.7991 36.0951C18.2058 36.0837 18.5875 35.8967 18.8436 35.5792M17.7991 36.0951L17.7339 32.597M17.7339 32.597L17.734 32.5972L18.7681 33.7408C18.7681 33.7408 18.7681 33.7408 18.7681 33.7409C19.2369 34.2593 19.2737 35.0482 18.8436 35.5792M17.7339 32.597C17.711 32.5717 17.6994 32.5394 17.7012 32.5053C17.703 32.4701 17.7177 32.4394 17.7427 32.4173L17.7438 32.4164M17.7339 32.597L17.7438 32.4164M18.8436 35.5792C18.8436 35.5792 18.8435 35.5793 18.8435 35.5794L18.7269 35.4849L18.8437 35.5791C18.8437 35.5791 18.8436 35.5791 18.8436 35.5792ZM17.7438 32.4164L19.4956 30.8328L19.4959 30.8325M17.7438 32.4164L19.4959 30.8325M19.4959 30.8325C19.9231 30.4441 19.9555 29.7811 19.5705 29.3515L19.57 29.351M19.4959 30.8325L19.57 29.351M19.57 29.351L18.6138 28.294L18.6135 28.2937M19.57 29.351L18.6135 28.2937M18.6135 28.2937C18.2251 27.8666 17.5621 27.8342 17.1325 28.2192L17.132 28.2196M18.6135 28.2937L17.132 28.2196M17.132 28.2196L15.4288 29.759L11.4313 29.5581L11.4312 29.5581M17.132 28.2196L11.4312 29.5581M11.4312 29.5581C10.9569 29.5344 10.501 29.6961 10.1488 30.0149M11.4312 29.5581L10.1488 30.0149M10.1488 30.0149C9.79689 30.3334 9.5891 30.7697 9.56541 31.2444L10.1488 30.0149ZM10.7641 30.6954L10.7644 30.6951C10.9352 30.5407 11.1563 30.4616 11.3866 30.4735L11.3869 30.4735L15.5701 30.6839L15.5706 30.6839C15.6909 30.6896 15.8137 30.647 15.9047 30.5655L15.9052 30.565L17.7461 28.9001C17.801 28.8506 17.8861 28.8552 17.935 28.9085C17.9351 28.9086 17.9351 28.9087 17.9352 28.9088L18.8896 29.9639C18.8897 29.9639 18.8897 29.964 18.8898 29.964C18.9391 30.0189 18.9344 30.1053 18.8811 30.1541C18.881 30.1541 18.8809 30.1542 18.8809 30.1542L17.1295 31.736L17.1293 31.7362C16.9229 31.9233 16.8004 32.1799 16.787 32.4585C16.7736 32.7363 16.8689 33.0045 17.0548 33.2112L17.0551 33.2115L18.0889 34.3549C18.2646 34.5501 18.273 34.8295 18.1323 35.0028L18.1321 35.0031C18.0427 35.1139 17.917 35.1755 17.7742 35.1794C17.6314 35.1833 17.4976 35.1258 17.4048 35.0245C17.4047 35.0244 17.4046 35.0243 17.4045 35.0242L16.6329 34.171C16.6328 34.171 16.6327 34.1709 16.6327 34.1708C16.5507 34.0794 16.4313 34.0237 16.3102 34.018L16.3102 34.018L11.2135 33.7796C11.2134 33.7796 11.2133 33.7796 11.2131 33.7796C10.9837 33.7675 10.7737 33.6678 10.6208 33.4986C10.4678 33.3294 10.3897 33.1107 10.4005 32.881C10.4005 32.881 10.4006 32.8809 10.4006 32.8808L10.4808 31.2916C10.4808 31.2915 10.4808 31.2915 10.4809 31.2915C10.4929 31.0605 10.5927 30.8495 10.7641 30.6954Z" fill="#134A85" stroke="#134A85" stroke-width="0.3"/>
<path d="M20.8161 26.7949L20.8164 26.7949C21.0598 26.735 21.311 26.8802 21.3679 27.1302C21.4807 27.5823 21.3707 28.0562 21.0691 28.3966L21.0688 28.3968C20.8033 28.6952 20.4247 28.8653 20.026 28.8653H20.0056H20.003V28.8653C19.5938 28.8582 19.2108 28.6755 18.9506 28.3624L18.9503 28.362L18.336 27.6183L13.4421 27.1638L13.4418 27.1638C12.9717 27.1193 12.5448 26.8949 12.2438 26.5299C11.9417 26.165 11.8009 25.7034 11.8468 25.2316C11.8468 25.2316 11.8468 25.2315 11.8468 25.2315L11.9985 23.6469L11.9985 23.6467C12.0444 23.175 12.2716 22.7472 12.6376 22.4452C13.0035 22.1433 13.4663 22.001 13.9396 22.0469C13.9396 22.0469 13.9396 22.0469 13.9397 22.0469L17.4527 22.3835C17.4528 22.3835 17.4529 22.3835 17.4531 22.3835L17.4534 22.3835L17.4391 22.5328C17.6074 22.5481 17.7323 22.6986 17.7157 22.8682L20.8161 26.7949ZM20.8161 26.7949C20.5709 26.8558 20.4217 27.1043 20.4822 27.3499L20.4823 27.3503C20.5237 27.5168 20.4839 27.6793 20.3868 27.7897L20.8161 26.7949ZM17.3659 23.2941C17.6164 23.3187 17.8419 23.1336 17.8651 22.8823L18.8097 26.9864C18.7574 26.9227 18.6809 26.8806 18.5955 26.8729L18.6094 26.7236L18.6092 26.7236C18.6091 26.7236 18.609 26.7235 18.6089 26.7235L13.5301 26.2519C13.5301 26.2519 13.53 26.2519 13.53 26.2518C13.3017 26.2301 13.0973 26.1218 12.9519 25.946C12.8066 25.7703 12.7382 25.5473 12.76 25.319C12.76 25.319 12.76 25.3189 12.76 25.3189L12.9117 23.7342L12.9117 23.734C12.9334 23.505 13.0438 23.2979 13.2213 23.1508C13.3997 23.004 13.6229 22.9358 13.8523 22.9576C13.8523 22.9576 13.8523 22.9576 13.8524 22.9576L17.3657 23.2941L17.3804 23.1448L17.3661 23.2942L17.3659 23.2941Z" fill="#134A85" stroke="#134A85" stroke-width="0.3"/>
</svg>
