<svg width="51" height="51" viewBox="0 0 51 51" fill="none" xmlns="http://www.w3.org/2000/svg">
<g clip-path="url(#clip0_3059_12403)">
<path d="M27.3838 1.9599C27.7662 1.9599 28.0762 1.65014 28.0762 1.26804C28.0762 0.885931 27.7662 0.576172 27.3838 0.576172C27.0014 0.576172 26.6914 0.885931 26.6914 1.26804C26.6914 1.65014 27.0014 1.9599 27.3838 1.9599Z" fill="#134A85"/>
<path d="M4.72167 38.4677C5.10406 38.4677 5.41405 38.158 5.41405 37.7758C5.41405 37.3937 5.10406 37.084 4.72167 37.084C4.33928 37.084 4.0293 37.3937 4.0293 37.7758C4.0293 38.158 4.33928 38.4677 4.72167 38.4677Z" fill="#134A85"/>
<path d="M41.2268 27.0598V24.0315C42.1095 23.7673 42.755 22.9492 42.755 21.9823C42.755 20.8026 41.7945 19.8428 40.6138 19.8428C39.4332 19.8428 38.4727 20.8026 38.4727 21.9823C38.4727 22.9492 39.1182 23.7673 40.0009 24.0315V27.0597C39.1182 27.3239 38.4727 28.142 38.4727 29.1089C38.4727 30.2886 39.4332 31.2484 40.6138 31.2484C41.7945 31.2484 42.755 30.2886 42.755 29.1089C42.755 28.142 42.1096 27.3239 41.2268 27.0598ZM39.6985 21.9823C39.6985 21.4779 40.1091 21.0676 40.6139 21.0676C41.1187 21.0676 41.5294 21.4779 41.5294 21.9823C41.5294 22.4867 41.1187 22.8971 40.6139 22.8971C40.1091 22.8971 39.6985 22.4867 39.6985 21.9823ZM40.6139 30.0237C40.1092 30.0237 39.6985 29.6134 39.6985 29.109C39.6985 28.6046 40.1091 28.1942 40.6139 28.1942C41.1187 28.1942 41.5294 28.6046 41.5294 29.109C41.5294 29.6134 41.1186 30.0237 40.6139 30.0237Z" fill="#134A85"/>
<path d="M18.5094 20.4083C18.2334 20.2124 17.8508 20.2767 17.6548 20.5524C15.9819 22.9033 11.927 21.2852 11.8863 21.2685C11.5734 21.1405 11.2157 21.2897 11.0872 21.6025C10.9585 21.9154 11.108 22.2732 11.4212 22.4017C11.5336 22.4478 13.0557 23.0587 14.7717 23.0587C15.2874 23.0587 15.8205 23.0034 16.3382 22.8611C15.8332 24.7231 14.1598 24.808 13.9414 24.8107C13.6044 24.8126 13.3318 25.086 13.3318 25.4231C13.3318 25.7614 13.6062 26.0355 13.9447 26.0355C15.1554 26.0355 17.433 25.2299 17.6853 22.2337C18.0398 21.983 18.3678 21.6642 18.6538 21.2623C18.8498 20.9866 18.7853 20.6043 18.5094 20.4083Z" fill="#134A85"/>
<path d="M10.8376 34.6633C11.2889 34.6633 11.6548 34.2977 11.6548 33.8468C11.6548 33.3958 11.2889 33.0303 10.8376 33.0303C10.3863 33.0303 10.0205 33.3958 10.0205 33.8468C10.0205 34.2977 10.3863 34.6633 10.8376 34.6633Z" fill="#134A85"/>
<path d="M18.4753 16.6106C18.9266 16.6106 19.2924 16.245 19.2924 15.794C19.2924 15.3431 18.9266 14.9775 18.4753 14.9775C18.024 14.9775 17.6582 15.3431 17.6582 15.794C17.6582 16.245 18.024 16.6106 18.4753 16.6106Z" fill="#134A85"/>
<path d="M17.5341 32.0677C17.0638 32.0677 16.7679 31.5381 17.0105 31.1378C17.0766 31.0287 18.6637 28.4685 21.4207 28.6793C21.7582 28.7052 22.0107 28.9997 21.9847 29.3369C21.9588 29.6742 21.6614 29.9251 21.3266 29.9006C19.3111 29.745 18.0712 31.7521 18.0588 31.7724C17.9437 31.9625 17.7413 32.0677 17.5341 32.0677Z" fill="#134A85"/>
<path d="M48.1431 20.3586C47.5408 17.1078 45.7098 14.4461 43.4119 13.4197C43.4551 12.7649 43.4162 12.1065 43.2958 11.4564C42.66 8.0243 39.9058 5.42299 36.5391 5.02672C35.2745 2.95959 33.5904 1.44223 31.5293 0.514239C31.2208 0.374907 30.8578 0.512505 30.7187 0.820953C30.5797 1.1293 30.7171 1.49191 31.0258 1.63093C32.938 2.49192 34.4908 3.93297 35.6412 5.91381C35.7426 6.08854 35.9238 6.20196 36.1255 6.21716C39.0827 6.4387 41.5356 8.68485 42.0904 11.6794C42.2171 12.363 42.2372 13.057 42.1499 13.7422C42.1133 14.0302 42.2839 14.3043 42.5587 14.3986C44.6242 15.108 46.384 17.5928 46.9379 20.5816C47.4544 23.3698 46.8299 26.1011 45.3471 27.54C45.1174 27.7628 45.0981 28.1248 45.3028 28.3708C46.1336 29.3692 46.7033 30.6014 46.9503 31.9342C47.507 34.9393 46.2944 37.8673 44.0013 39.0545C43.7848 39.1666 43.6553 39.3963 43.6718 39.6395C43.8632 42.4736 41.4403 45.0676 38.0359 45.6734C37.8341 45.7094 37.6634 45.8439 37.5815 46.0316C36.7794 47.8708 34.8468 49.2539 32.5377 49.6413C30.018 50.0642 27.4762 49.1978 26.1397 47.479V47.4777V40.5245H30.8552V42.8061C29.9725 43.0703 29.327 43.8884 29.327 44.8553C29.327 46.035 30.2875 46.9948 31.4681 46.9948C32.6488 46.9948 33.6093 46.035 33.6093 44.8553C33.6093 43.8884 32.9638 43.0703 32.0811 42.8061V39.912C32.0811 39.5738 31.8067 39.2996 31.4681 39.2996H29.1043V36.3723H34.5784C34.8428 37.2544 35.6616 37.8995 36.6291 37.8995C37.8098 37.8995 38.7703 36.9397 38.7703 35.7599C38.7703 34.5802 37.8098 33.6204 36.6291 33.6204C35.6616 33.6204 34.8428 34.2654 34.5784 35.1475H28.4915C28.153 35.1475 27.8786 35.4217 27.8786 35.7599V39.2996H26.1398V29.2242H27.4612V30.9185C27.4612 31.2567 27.7355 31.5309 28.0741 31.5309C28.4125 31.5309 28.687 31.2567 28.687 30.9185V29.2242H30.6336C30.972 29.2242 31.2465 28.95 31.2465 28.6118V27.583H33.0027C33.3412 27.583 33.6156 27.3088 33.6156 26.9706C33.6156 26.6324 33.3413 26.3582 33.0027 26.3582H31.2465V24.7324H33.0027C33.3412 24.7324 33.6156 24.4582 33.6156 24.12C33.6156 23.7818 33.3413 23.5076 33.0027 23.5076H31.2465V22.4788C31.2465 22.1406 30.9721 21.8664 30.6336 21.8664H28.687V20.0269C28.687 19.6887 28.4126 19.4145 28.0741 19.4145C27.7357 19.4145 27.4612 19.6887 27.4612 20.0269V21.8664H26.1398V11.791H27.8786V15.3307C27.8786 15.6689 28.1529 15.9431 28.4915 15.9431H34.5784C34.8428 16.8252 35.6616 17.4702 36.6291 17.4702C37.8098 17.4702 38.7703 16.5104 38.7703 15.3307C38.7703 14.1509 37.8098 13.1911 36.6291 13.1911C35.6616 13.1911 34.8428 13.8362 34.5784 14.7183H29.1043V11.791H31.4681C31.8066 11.791 32.0811 11.5168 32.0811 11.1785V8.2845C32.9638 8.02032 33.6093 7.20218 33.6093 6.23532C33.6093 5.05559 32.6488 4.09576 31.4681 4.09576C30.2875 4.09576 29.327 5.05559 29.327 6.23532C29.327 7.20218 29.9725 8.02032 30.8552 8.2845V10.5661H26.1397V4.48592C26.1397 1.14072 22.4821 -0.926206 19.5096 0.412545C17.4432 1.34299 15.755 2.86422 14.4873 4.93665C11.1124 5.33343 8.35126 7.94106 7.71397 11.3814C7.5931 12.0337 7.55413 12.6941 7.59759 13.3504C5.29392 14.3791 3.45812 17.0474 2.85418 20.3064C2.29828 23.3065 2.89865 26.1858 4.42355 27.9818C3.63682 29.0595 3.09337 30.3299 2.84183 31.688C2.6156 32.9089 2.63335 34.119 2.89457 35.2846C2.96852 35.6148 3.29665 35.8228 3.62652 35.7483C3.9568 35.6745 4.16457 35.347 4.09052 35.0169C3.86571 34.0135 3.85102 32.9685 4.04696 31.9109C4.27871 30.6597 4.79432 29.497 5.5429 28.5322C6.34992 28.4859 9.00559 28.5683 9.50121 31.5846C9.63055 32.3707 10.8406 32.1758 10.7108 31.3862C10.3091 28.9405 8.79751 27.9659 7.60034 27.5788C6.72895 27.2971 5.90571 27.2882 5.46721 27.3114C4.11632 25.8258 3.56389 23.204 4.05941 20.5294C4.24423 19.532 4.56349 18.5914 4.98292 17.753C5.56727 18.1052 6.41755 18.8729 6.04769 20.2399C5.8387 21.0121 7.02404 21.3246 7.2309 20.5597C7.76262 18.5946 6.62777 17.3161 5.60226 16.6952C6.38562 15.5466 7.37675 14.6982 8.45092 14.3292C8.7257 14.235 8.89645 13.9607 8.85973 13.6728C8.77222 12.9861 8.79231 12.2901 8.9193 11.6043C9.46551 8.65619 11.847 6.43279 14.7402 6.1426C15.2971 6.41718 17.205 7.57417 16.8843 10.4127C16.7943 11.2079 18.0127 11.3433 18.1023 10.5501C18.4201 7.73737 16.9389 6.04101 15.7204 5.28039C16.5886 3.94909 17.6564 2.89012 18.9084 2.11696C18.8986 2.8123 19.0607 3.78497 19.8498 4.61535C20.3909 5.18472 21.2897 4.35179 20.7387 3.77191C19.8558 2.843 20.1894 1.59921 20.2058 1.54097C20.2153 1.50802 20.2212 1.47498 20.2251 1.44193C21.2767 1.04668 22.4486 1.16979 23.4026 1.78597C24.3633 2.40624 24.9143 3.39043 24.9143 4.48602V14.03C23.8718 13.3415 22.2282 12.8094 20.2381 14.082C19.9531 14.2642 19.8698 14.6431 20.0523 14.928C20.2348 15.2126 20.6135 15.2959 20.8989 15.1137C22.8133 13.8895 24.2649 14.9426 24.9143 15.6085V38.4728C22.2639 38.5739 21.6829 36.6202 21.6557 36.5234C21.5686 36.1984 21.2354 36.004 20.909 36.0892C20.5815 36.1746 20.3852 36.5091 20.4707 36.8363C20.7462 37.8916 21.9765 39.7014 24.7173 39.7014C24.7819 39.7014 24.8478 39.7001 24.9142 39.6981V47.4778V47.4964C23.7625 48.9779 21.7174 49.8268 19.5618 49.7676C19.6973 49.0993 20.1173 48.0912 21.4188 47.9942C21.7563 47.9691 22.0095 47.6753 21.9844 47.338C21.9593 47.0005 21.6635 46.7476 21.3276 46.7728C19.3397 46.921 18.5551 48.4543 18.3389 49.6362C16.1554 49.2235 14.3286 47.9207 13.5073 46.1916C13.6051 45.5086 14.184 42.7413 17.1698 42.3617C17.5056 42.3189 17.743 42.0123 17.7004 41.6768C17.6575 41.3413 17.3501 41.104 17.015 41.1467C14.0026 41.5299 12.7369 43.9067 12.3738 45.5532C9.4394 44.7911 7.3075 42.455 7.32392 39.9158C7.32616 39.5775 7.05352 39.3016 6.71508 39.2994H6.711C6.3744 39.2994 6.10043 39.5711 6.09818 39.9079C6.07717 43.1719 8.73213 46.0406 12.4555 46.8314C13.4922 48.9018 15.6981 50.4374 18.295 50.8731C18.8039 50.9584 19.3106 51.0001 19.8096 51.0001C22.0644 51 24.1591 50.1506 25.5351 48.6571C26.9081 50.1358 28.9897 50.9761 31.23 50.976C31.7277 50.976 32.2336 50.9344 32.741 50.8493C35.3317 50.4146 37.5323 48.8829 38.5665 46.8178C42.27 46.0296 44.9096 43.1614 44.9084 39.9502C47.4542 38.4166 48.7824 35.0933 48.1557 31.7113C47.9048 30.3569 47.3628 29.0897 46.5786 28.015C48.0988 26.223 48.6976 23.351 48.1431 20.3586ZM32.3835 44.8553C32.3835 45.3597 31.9728 45.77 31.468 45.77C30.9633 45.77 30.5526 45.3597 30.5526 44.8553C30.5526 44.3509 30.9632 43.9405 31.468 43.9405C31.9728 43.9405 32.3835 44.3509 32.3835 44.8553ZM36.6289 34.8452C37.1336 34.8452 37.5444 35.2555 37.5444 35.7599C37.5444 36.2643 37.1337 36.6747 36.6289 36.6747C36.1242 36.6747 35.7135 36.2643 35.7135 35.7599C35.7136 35.2555 36.1242 34.8452 36.6289 34.8452ZM36.6289 14.4159C37.1336 14.4159 37.5444 14.8263 37.5444 15.3307C37.5444 15.835 37.1337 16.2454 36.6289 16.2454C36.1242 16.2454 35.7135 15.835 35.7135 15.3307C35.7136 14.8263 36.1242 14.4159 36.6289 14.4159ZM30.5526 6.23532C30.5526 5.73093 30.9632 5.32058 31.468 5.32058C31.9727 5.32058 32.3835 5.73093 32.3835 6.23532C32.3835 6.73971 31.9728 7.15005 31.468 7.15005C30.9633 7.15005 30.5526 6.73961 30.5526 6.23532ZM26.1397 23.0912H30.0205V27.9994H26.1397V23.0912Z" fill="#134A85"/>
</g>
<defs>
<clipPath id="clip0_3059_12403">
<rect width="51" height="51" fill="white"/>
</clipPath>
</defs>
</svg>
