<svg width="51" height="51" viewBox="0 0 51 51" fill="none" xmlns="http://www.w3.org/2000/svg">
<path d="M34.1607 47.9038L34.1605 47.9037C33.8101 47.8275 33.5882 47.4811 33.665 47.1306L34.1607 47.9038ZM34.1607 47.9038C34.5165 47.9807 34.8583 47.7538 34.9336 47.4082L39.1509 28.1085C39.3454 27.2194 39.6636 26.5818 40.0109 25.9853C40.0931 25.844 40.1777 25.704 40.2629 25.5629C40.5358 25.1113 40.8155 24.6482 41.0482 24.0947L41.0482 24.0947C42.3034 21.1066 41.5941 17.5512 39.2542 15.0339L39.1443 15.1361L39.2542 15.0339C34.6435 10.074 27.1745 5.94193 18.638 1.45186L18.6379 1.45181C18.3217 1.28571 17.9279 1.40647 17.7609 1.72407L17.8936 1.79389L17.761 1.72395C17.5934 2.04175 17.7159 2.43439 18.0331 2.6012M34.1607 47.9038L33.665 47.1306L37.8823 27.8314C37.8823 27.8314 37.8823 27.8314 37.8823 27.8313C38.107 26.8017 38.4609 26.0757 38.829 25.4373C38.9318 25.2591 39.0344 25.0895 39.1351 24.9231C39.3976 24.4894 39.6468 24.0777 39.8508 23.5914L39.8508 23.5913C40.9048 21.0827 40.3033 18.0699 38.3029 15.9181C33.8409 11.1183 26.4985 7.05378 18.0331 2.6012M18.0331 2.6012L18.1029 2.46845L18.0331 2.6012Z" fill="#134A85" stroke="#134A85" stroke-width="0.3"/>
<path d="M33.5603 32.4933L33.5603 32.4933C34.3381 32.3849 34.9782 31.8289 35.192 31.0777C35.4892 30.0324 34.8797 28.939 33.8332 28.6411C33.2953 28.4892 32.7327 28.5706 32.2673 28.8571C32.3327 29.2993 32.3105 29.7618 32.1802 30.2199C32.0802 30.5721 31.7136 30.7642 31.3775 30.6669C31.0329 30.5685 30.8325 30.2098 30.9308 29.8647M33.5603 32.4933L31.0751 29.9058M33.5603 32.4933C32.4626 32.6463 31.5532 33.4692 31.2371 34.5793C31.2371 34.5794 31.237 34.5794 31.237 34.5795L27.1384 48.7927C27.0387 49.1379 27.238 49.4973 27.5821 49.5969L27.5828 49.5971C27.9338 49.6969 28.2888 49.4917 28.3864 49.153C28.3864 49.153 28.3864 49.153 28.3864 49.153L32.4858 34.9373L32.4859 34.9368C32.6645 34.3094 33.1613 33.8608 33.7402 33.7796C35.0264 33.6002 36.0865 32.6794 36.4413 31.433L36.4413 31.433C36.9346 29.6984 35.9241 27.886 34.1882 27.3917L34.188 27.3916C33.3833 27.1638 32.5441 27.2506 31.8207 27.6182L33.5603 32.4933ZM30.9308 29.8647L31.0751 29.9058M30.9308 29.8647C30.9308 29.8647 30.9308 29.8647 30.9308 29.8647L31.0751 29.9058M30.9308 29.8647C31.2588 28.7129 30.4632 27.4868 29.208 27.3594M31.0751 29.9058C31.4284 28.6649 30.572 27.3471 29.2232 27.2101M29.208 27.3594C29.208 27.3594 29.2081 27.3594 29.2081 27.3594L29.2232 27.2101M29.208 27.3594C28.3964 27.2776 27.5864 27.7407 27.2463 28.4863L27.2463 28.4863C26.8049 29.4538 27.1978 30.3721 27.7863 30.855M29.208 27.3594L29.2232 27.2101M29.2232 27.2101L27.7863 30.855M27.7863 30.855C27.7863 30.855 27.7863 30.855 27.7863 30.855L27.6912 30.971M27.7863 30.855L27.1098 28.4241C26.6352 29.4644 27.06 30.453 27.6912 30.971M27.7863 30.855C28.6358 31.5514 28.9759 32.7147 28.6626 33.8146L28.6625 33.8151L24.5544 48.0624M27.7863 30.855L27.6912 30.971M27.6912 30.971C28.4915 31.627 28.8164 32.7273 28.5183 33.7735M24.4102 48.0209L28.5183 33.7735M24.4102 48.0209C24.3341 48.2852 24.06 48.4389 23.7918 48.3623C23.527 48.2857 23.3738 48.0092 23.4504 47.7438M24.4102 48.0209L24.5544 48.0624M24.4102 48.0209L24.5544 48.0625L24.5544 48.0624M28.5183 33.7735L23.4504 47.7438M28.5183 33.7735L24.5544 48.0624M23.4504 47.7438L23.3063 47.7022C23.3063 47.7022 23.3063 47.7022 23.3063 47.7023L23.4504 47.7438ZM27.4137 33.4574L27.558 33.4985L27.4139 33.4569L27.4138 33.4572C27.4138 33.4573 27.4137 33.4574 27.4137 33.4574Z" fill="#134A85" stroke="#134A85" stroke-width="0.3"/>
<path d="M11.4108 5.06742C11.2307 5.37826 11.3375 5.7752 11.6474 5.95465L11.6475 5.95466L24.4814 13.3812L24.4818 13.3815C25.4731 13.9512 26.6835 13.9017 27.5656 13.2465L27.5656 13.2465C28.1769 12.7921 29.1627 12.6325 29.9949 13.2937L11.4108 5.06742ZM11.4108 5.06742C11.5896 4.75775 11.9855 4.64897 12.2983 4.83088C12.2984 4.83092 12.2984 4.83095 12.2985 4.83098L25.1302 12.2562C25.1303 12.2562 25.1303 12.2562 25.1304 12.2563C25.6806 12.5715 26.3313 12.5456 26.79 12.2046C27.9825 11.3158 29.6329 11.3466 30.8031 12.2777C31.8756 13.1302 32.3003 14.6225 31.8366 15.9097C31.4796 16.9026 30.6714 17.6477 29.7326 17.9433C29.9148 18.7341 29.7962 19.57 29.3801 20.2948L29.3801 20.2948C28.4834 21.8563 26.4824 22.4045 24.9141 21.5052L24.9141 21.5051C23.7908 20.8604 23.1532 19.6087 23.2896 18.3175C23.3505 17.7358 23.0347 17.1453 22.4691 16.8205L22.4686 16.8202L9.66344 9.40971L9.66341 9.4097C9.35345 9.23025 9.2467 8.83327 9.42685 8.52243M11.4108 5.06742L29.9951 13.2937C30.6365 13.8045 30.8915 14.7006 30.6144 15.4694L30.6144 15.4696C30.1731 16.6982 28.7742 17.1139 27.7673 16.5363L27.7673 16.5363C27.4558 16.3577 27.0585 16.4645 26.8805 16.7765C26.702 17.0878 26.8099 17.4845 27.1206 17.6627L27.1206 17.6627C27.534 17.8998 27.9773 18.0306 28.4216 18.0737C28.5885 18.5953 28.5324 19.1625 28.2538 19.6477C27.7116 20.5915 26.5034 20.9191 25.561 20.3786C24.8837 19.9899 24.4989 19.2342 24.581 18.4529C24.6973 17.3504 24.1185 16.2694 23.1174 15.6951L10.3146 8.2861C10.3145 8.28605 10.3144 8.286 10.3143 8.28595C10.002 8.10398 9.60606 8.21235 9.42685 8.52243M9.42685 8.52243C9.42687 8.52239 9.4269 8.52236 9.42692 8.52232L9.55668 8.59756L9.4268 8.52252C9.42682 8.52249 9.42684 8.52246 9.42685 8.52243Z" fill="#134A85" stroke="#134A85" stroke-width="0.3"/>
<path d="M19.981 45.7563L19.981 45.7563L25.9014 24.1778L25.9519 24.0365L25.9519 24.0365L12.7921 19.3252C12.792 19.3251 12.7919 19.3251 12.7919 19.3251C12.4545 19.2033 12.0824 19.3794 11.9615 19.7176L12.1027 19.7681L11.9615 19.7175C11.8403 20.0551 12.0162 20.4267 12.354 20.5478L12.3541 20.5478L24.7856 24.9982C22.3241 29.4666 21.641 33.8357 21.213 37.3696C21.1705 37.7203 21.1305 38.0624 21.0917 38.3952C20.9321 39.7626 20.7906 40.974 20.565 41.9918C20.284 43.2588 19.8797 44.1876 19.1819 44.7326C18.8991 44.9533 18.8488 45.3616 19.0695 45.644C19.2902 45.927 19.6983 45.977 19.981 45.7563Z" fill="#134A85" stroke="#134A85" stroke-width="0.3"/>
<path d="M33.6484 25.6904C35.6314 25.6904 37.2442 24.0777 37.2442 22.0947C37.2442 20.1081 35.6317 18.4916 33.6484 18.4916C31.6652 18.4916 30.0521 20.1081 30.0521 22.0947C30.0521 24.0777 31.6655 25.6904 33.6484 25.6904ZM33.6484 19.7904C34.9142 19.7904 35.9453 20.8236 35.9453 22.0947C35.9453 23.3608 34.9146 24.3916 33.6484 24.3916C32.3818 24.3916 31.351 23.3608 31.351 22.0947C31.351 20.8237 32.3822 19.7904 33.6484 19.7904Z" fill="#134A85" stroke="#134A85" stroke-width="0.3"/>
</svg>
