<svg width="51" height="51" viewBox="0 0 51 51" fill="none" xmlns="http://www.w3.org/2000/svg">
<path d="M44.5645 12.6039C44.4831 12.1145 44.2138 11.7155 43.7888 11.4488C43.3754 11.1912 42.9263 10.8306 42.4914 10.4807C41.611 9.77478 40.9158 9.21557 40.2241 9.21557C39.9074 9.21557 39.6121 9.33547 39.4037 9.54484C39.3249 9.60747 38.9787 9.73094 38.5438 9.73094C38.2942 9.73094 38.1367 9.69068 38.0616 9.65936C38.0455 9.5162 38.058 9.24152 38.066 9.05094C38.1009 8.28594 38.1806 6.49289 36.3884 6.29336C35.0168 6.14126 32.5733 7.02347 31.5452 8.40584C30.9511 9.20394 30.9923 9.9242 31.1309 10.3877C31.4763 11.5392 31.6579 12.6209 31.7322 13.1265C30.3534 15.136 21.3157 28.1187 15.006 32.4197C14.4548 32.009 13.5198 31.4892 12.3173 31.4892C11.5094 31.4892 10.7023 31.7236 9.9212 32.1844C8.15141 33.2321 5.87341 34.8963 6.51941 37.2665C6.71268 37.9769 7.22804 39.8639 8.86362 39.8639C9.20899 39.8639 9.57136 39.7699 9.94089 39.5838C10.5019 39.3038 10.8678 39.1794 11.1282 39.1794C11.2463 39.1794 11.4933 39.1794 11.9442 39.7118C12.2323 40.0527 12.2198 40.0876 12.1187 40.3631C11.8923 40.9805 11.7313 41.7258 12.6859 42.7798C13.2818 43.4366 15.4963 44.7241 16.7633 44.7241C16.8858 44.7241 17.0039 44.7116 17.1131 44.6901C18.2279 44.4655 19.0189 43.2666 19.3079 42.7619C19.9109 41.7053 20.1695 40.6012 20.0353 39.7055L37.021 17.8909C37.3798 17.9088 37.9175 17.9312 38.508 17.9312C41.2424 17.9312 41.968 17.4838 42.3187 17.0472L42.4869 16.8396C43.6054 15.4689 44.7775 13.9004 44.5645 12.6039ZM27.1395 22.9578C27.4276 22.9247 27.7166 22.9337 27.9063 22.9614C27.5654 23.1994 26.9973 23.4947 26.5597 23.5421C26.523 23.5475 26.4899 23.5484 26.4577 23.5484C26.3477 23.5484 26.2555 23.5421 26.1938 23.3954C26.2663 23.3059 26.3351 23.2182 26.4067 23.1287C26.5803 23.0625 26.8183 22.9945 27.1395 22.9578ZM26.9105 27.6713C26.8944 27.4879 26.9096 27.3394 26.9337 27.2329C27.0429 27.3573 27.1619 27.5317 27.2523 27.7062L26.9883 28.0462C26.9543 27.9487 26.9239 27.8252 26.9105 27.6713ZM41.1887 15.7785L41.0384 15.9646C40.9489 16.0156 40.4281 16.2527 38.5107 16.2527C37.5426 16.2527 36.706 16.19 36.698 16.1883L36.2488 16.1552L27.9135 26.8607C27.6164 26.4321 27.2263 26.0832 26.8586 26.0832L26.8022 26.0858C26.464 26.1145 26.1821 26.3596 26.0291 26.756C25.9191 27.0387 25.877 27.3957 25.9084 27.759C25.9495 28.2368 26.1052 28.6332 26.3271 28.8971L24.6441 31.0588C24.2218 30.8521 23.6321 30.7438 23.0541 30.7215C22.9709 30.7179 22.8877 30.7161 22.8072 30.7161C22.2122 30.7161 20.8236 30.8083 20.7887 31.6654C20.7538 32.5646 21.2781 33.1015 22.2301 33.1408C22.2686 33.1426 22.307 33.1426 22.3473 33.1426C22.5254 33.1426 22.7884 33.1167 23.0837 33.0621L18.1877 39.3494L18.3371 39.7789C18.5026 40.2558 18.3031 41.1398 17.853 41.928C17.4289 42.668 16.9717 43.0062 16.7883 43.0429L16.7659 43.0447C16.0913 43.0447 14.3287 42.0882 13.9332 41.6507C13.5789 41.2597 13.5986 41.2051 13.697 40.9376C13.9135 40.3444 14.0746 39.6268 13.2281 38.6274C12.8193 38.1424 12.1563 37.5 11.1309 37.5C10.45 37.5 9.7691 37.7944 9.19199 38.0825C9.01662 38.171 8.91194 38.1836 8.86631 38.1836C8.80725 38.1836 8.4941 38.1183 8.14068 36.8218C8.04583 36.4728 7.75594 35.4135 10.7784 33.6267C11.2973 33.3198 11.8163 33.1641 12.32 33.1641C13.4993 33.1641 14.3099 34.0213 14.3144 34.0248L14.7832 34.5456L15.3782 34.1769C18.5107 32.2372 22.2739 28.184 25.5424 24.197C25.8484 24.503 26.243 24.5532 26.4586 24.5532C26.5257 24.5532 26.5973 24.5496 26.6734 24.5415C27.1216 24.4896 27.7014 24.2695 28.2257 23.9537C29.2234 23.347 29.1759 22.9265 29.1598 22.7878C29.0999 22.2492 28.4888 21.9262 27.5278 21.9262C27.4706 21.9262 27.4088 21.9352 27.3498 21.9369C30.6353 17.7424 33.094 14.1098 33.3016 13.8002L33.4743 13.5452L33.4403 13.2419C33.4331 13.1775 33.2586 11.6367 32.7388 9.90541C32.7218 9.84905 32.677 9.69694 32.8918 9.40705C33.4752 8.62505 35.1179 7.95399 36.0511 7.95399C36.1057 7.95399 36.1558 7.95578 36.205 7.96115C36.2927 7.97189 36.3276 7.98889 36.3294 7.98889C36.4296 8.11326 36.4036 8.69573 36.3911 8.97489C36.3687 9.46431 36.3464 9.96984 36.5387 10.3993C36.8268 11.0408 37.5578 11.4095 38.5438 11.4095C39.0995 11.4095 39.8099 11.286 40.3154 10.9549C40.6008 11.116 41.0947 11.5115 41.441 11.7906C41.9134 12.17 42.4019 12.561 42.9066 12.8697C42.9522 13.0003 42.9629 13.6016 41.1887 15.7785ZM23.8174 31.8292C23.4085 31.9822 22.8278 32.136 22.3464 32.136L22.2704 32.1343C21.8937 32.1199 21.8096 32.0162 21.7944 31.8632C21.9509 31.8014 22.2945 31.7227 22.8063 31.7227C22.8743 31.7227 22.9423 31.7245 23.013 31.7271C23.3351 31.7406 23.6062 31.7808 23.8174 31.8292Z" fill="#134A85"/>
<path d="M32.9054 17.2578C32.4965 17.2578 31.9615 17.4207 31.4398 17.7052C31.031 17.9271 30.674 18.2 30.4333 18.4729C29.9591 19.0133 30.062 19.4159 30.1657 19.6056C30.4646 20.1559 30.8645 20.435 31.3566 20.435C31.5911 20.435 31.8353 20.3688 32.0823 20.2337C32.4786 20.019 32.9341 19.5958 33.3009 19.1045C33.997 18.1687 33.7948 17.7955 33.7286 17.673C33.6445 17.5191 33.4253 17.2578 32.9054 17.2578ZM31.6027 19.3488C31.4801 19.4159 31.4014 19.4284 31.3575 19.4284C31.3056 19.4284 31.2269 19.407 31.1151 19.2334C31.2027 19.1045 31.4515 18.8442 31.9203 18.5892C32.1959 18.4389 32.442 18.3494 32.6316 18.3047C32.4053 18.6527 31.9892 19.1394 31.6027 19.3488Z" fill="#134A85"/>
<path d="M19.5717 32.8123C19.4509 32.7416 19.3104 32.7031 19.1664 32.7031C18.626 32.7031 18.1428 33.1952 17.8717 33.656C17.6865 33.971 17.572 34.3092 17.5487 34.6125C17.5147 35.0357 17.6641 35.3775 17.9567 35.5511C18.1652 35.6728 18.4828 35.8365 18.8353 35.8365C19.2192 35.8365 19.5449 35.6432 19.7507 35.2943C20.1229 34.6608 20.1748 33.1666 19.5717 32.8123ZM18.8828 34.7834C18.864 34.8174 18.8488 34.829 18.8488 34.829C18.8407 34.8308 18.7333 34.8281 18.549 34.7297C18.549 34.6331 18.5884 34.4228 18.7387 34.1678C18.8327 34.0077 18.932 33.8949 19.0125 33.8215C19.0429 34.1123 19.0152 34.5579 18.8828 34.7834Z" fill="#134A85"/>
</svg>
