<svg width="51" height="51" viewBox="0 0 51 51" fill="none" xmlns="http://www.w3.org/2000/svg">
<path d="M11.1582 1.43066L37.8867 11.9705C40.979 13.1899 42.8379 16.3643 42.3883 19.6578L38.281 49.7458" stroke="#134A85" stroke-width="1.49414" stroke-miterlimit="10" stroke-linecap="round" stroke-linejoin="round"/>
<path d="M4.73633 19.9023C4.73633 19.9023 15.5024 24.0955 26.9485 24.4355C26.9485 24.4355 22.1846 31.884 24.682 38.4807C27.6852 46.4136 26.1552 49.7455 26.1552 49.7455" stroke="#134A85" stroke-width="1.49414" stroke-miterlimit="10" stroke-linecap="round" stroke-linejoin="round"/>
<path d="M7.44621 6.73828L28.0012 14.009C29.4105 14.5111 30.9422 14.5566 32.3787 14.139L32.3885 14.1361C33.0434 13.9457 33.7501 14.1242 34.236 14.6029C34.9582 15.3145 34.9875 16.4703 34.3021 17.2176L34.2955 17.2248C33.9579 17.5928 33.4879 17.8118 32.9888 17.8333L32.3909 17.8591C31.7235 17.8879 31.156 18.3556 31.0004 19.0053L30.7631 19.9959C30.615 20.614 30.0752 21.059 29.4402 21.0864C28.9206 21.1088 28.4301 20.8462 28.1609 20.4012L27.2315 18.8654C26.9337 18.3733 26.4668 18.0065 25.9183 17.8336L6.70801 11.8629" stroke="#134A85" stroke-width="1.49414" stroke-miterlimit="10" stroke-linecap="round" stroke-linejoin="round"/>
<path d="M33.5508 22.045L36.1818 18.5376C36.6972 17.8504 37.7717 18.0178 38.0521 18.8297C38.3463 19.6816 38.5941 20.7872 38.5288 22.0004C38.496 22.6088 37.9588 23.0657 37.3525 23.0056L36.1326 22.8848" stroke="#134A85" stroke-width="1.49414" stroke-miterlimit="10" stroke-linecap="round" stroke-linejoin="round"/>
<path d="M33.5508 49.7453L35.1794 29.6688L36.5074 29.2364C37.2454 28.9962 37.7746 28.3462 37.8603 27.5747C37.9211 27.0267 37.7504 26.4782 37.3893 26.0616L37.3341 25.9979C36.7861 25.3655 35.8992 25.1467 35.1198 25.4516C34.1229 25.8415 33.0061 25.7809 32.0573 25.2852L32.0243 25.2679C31.0945 24.7822 29.9596 25.3306 29.7623 26.3608C29.6762 26.8105 29.7913 27.2754 30.0774 27.6329L31.5704 29.4992L30.0299 49.7451" stroke="#134A85" stroke-width="1.49414" stroke-miterlimit="10" stroke-linecap="round" stroke-linejoin="round"/>
</svg>
