<svg width="51" height="51" viewBox="0 0 51 51" fill="none" xmlns="http://www.w3.org/2000/svg">
<path d="M37.2298 29.1719C36.8218 29.1719 36.4648 29.5289 36.4648 29.9369C36.4648 30.3449 36.8218 30.7019 37.2298 30.7019C37.6378 30.7019 37.9948 30.3449 37.9948 29.9369C37.9948 29.5289 37.6888 29.1719 37.2298 29.1719Z" fill="#134A85"/>
<path d="M42.2789 26.1117C41.8199 24.8367 40.6469 23.9697 39.2189 23.9697C38.2499 23.9697 37.3829 24.3777 36.7709 25.0917C35.2409 24.5307 33.7619 25.2957 33.0479 26.4687C32.2829 27.6417 32.2319 29.2737 33.4049 30.4467C32.9459 31.6197 33.2519 32.8947 34.1189 33.8637C34.7819 34.5267 35.5979 34.8837 36.4649 34.8837C36.8729 34.8837 37.3319 34.7817 37.7399 34.6287C38.7089 35.0367 39.7289 34.9347 40.6469 34.4247C41.5139 33.9147 42.0749 33.0987 42.2279 32.1297C43.4009 31.6707 44.1149 30.5997 44.1659 29.2737C44.1659 27.8457 43.4519 26.6217 42.2789 26.1117ZM41.2589 30.7017C40.9019 30.8037 40.6469 31.1097 40.6469 31.4667C40.6469 32.0787 40.3409 32.6907 39.7799 32.9967C39.2189 33.3027 38.5559 33.3537 38.0459 32.9967C37.7909 32.8437 37.5359 32.8437 37.2809 32.9967C36.4139 33.5067 35.6489 33.1497 35.1899 32.6907C34.7309 32.2317 34.4249 31.4157 34.9349 30.5487C35.1389 30.1917 35.0369 29.7327 34.7309 29.5287C33.7109 28.8147 33.8639 27.8457 34.2719 27.1827C34.5779 26.7237 35.0879 26.3667 35.6999 26.3667C36.0059 26.3667 36.3119 26.4687 36.6179 26.6217C36.8219 26.7237 37.0259 26.7747 37.2299 26.7237C37.4339 26.6727 37.5869 26.5197 37.6889 26.3157C37.9949 25.7547 38.5559 25.3977 39.1679 25.3977C39.9839 25.3977 40.6469 25.9587 40.7999 26.7747C40.8509 27.0297 41.0549 27.2847 41.3099 27.3357C42.2279 27.6417 42.5339 28.4067 42.4829 29.0697C42.5339 29.7327 42.1769 30.4977 41.2589 30.7017Z" fill="#134A85"/>
<path d="M40.3918 19.4309C40.6978 19.1249 41.0548 18.8699 41.3608 18.6149C45.0328 15.8609 46.7668 12.1379 46.5118 7.5989C46.3078 4.3349 44.9308 3.4169 44.1148 3.1109C42.6358 2.6009 40.8508 3.4169 39.1678 5.30389C37.1278 7.6499 34.9858 9.2309 32.5378 10.3529C29.3758 11.7809 25.0918 12.6479 22.0828 12.4949C19.1248 12.3419 16.6768 13.2089 14.8918 14.1269C14.8918 13.6679 14.7388 13.2599 14.5348 12.8009C13.7698 11.4749 12.0358 10.9649 10.6588 11.7809C6.88475 13.9229 4.23275 17.4419 3.11075 21.6239C1.98875 25.8059 2.54975 30.1409 4.74275 33.9149C8.31276 40.1369 15.7078 43.2479 22.5928 41.5649V47.3279C22.5928 47.7359 22.9498 48.0929 23.3578 48.0929H27.4888C27.8968 48.0929 28.2538 47.7359 28.2538 47.3279V37.3829C28.2538 36.4139 27.7438 35.5469 26.9278 34.9859C27.6928 34.5269 28.4068 34.1189 29.0698 33.6599C30.7018 37.1279 34.2208 39.5249 38.2498 39.5249C43.8598 39.5249 48.3988 34.9859 48.3988 29.3759C48.4498 24.4799 44.9818 20.3999 40.3918 19.4309ZM26.0608 36.2609C26.4688 36.5159 26.7238 36.9239 26.7238 37.3829V46.5629H24.1228V40.4939C24.1228 40.2389 24.0208 40.0349 23.8168 39.8819C23.6128 39.7289 23.3578 39.6779 23.1538 39.7799C16.6258 41.8199 9.43475 39.0149 6.01776 33.1499C4.07976 29.7329 3.56975 25.8059 4.58976 21.9809C5.60976 18.2069 8.00675 15.0449 11.4238 13.0559C12.0358 12.6989 12.8518 12.9029 13.2088 13.5149C13.5658 14.1269 13.3618 14.9429 12.7498 15.2999C9.99576 16.9319 8.00675 19.4819 7.13975 22.5929C6.32375 25.7039 6.73175 28.9679 8.36375 31.7219C11.6788 37.4849 19.0738 39.4739 24.8368 36.1589C25.1938 36.0059 25.6528 36.0059 26.0608 36.2609ZM24.0208 34.9349C19.4818 37.5359 13.8208 36.4139 10.6078 32.4359H10.8118C13.2088 32.4359 15.0448 31.0079 16.6768 29.3759C18.2578 30.9569 20.1958 31.7219 22.7458 31.7219C23.1538 31.7219 23.5108 31.3649 23.5108 30.9569C23.5108 30.5489 23.1538 30.1919 22.7458 30.1919C20.6038 30.1919 19.0228 29.5799 17.7478 28.3049C17.7478 28.2539 17.7988 28.2539 17.7988 28.2029C20.2978 25.6019 22.6438 23.1539 26.7748 24.0209C27.1828 24.1229 27.5908 23.8169 27.6928 23.4089C27.7948 23.0009 27.4888 22.5929 27.0808 22.4909C25.9078 22.2359 24.8878 22.2359 23.9188 22.3889C23.9698 20.6549 24.6328 19.1249 26.0608 17.6459C26.3668 17.3399 26.3668 16.8809 26.0608 16.5749C25.7548 16.2689 25.2958 16.2689 24.9898 16.5749C23.1538 18.4619 22.3378 20.4509 22.4398 22.7459C20.0938 23.6129 18.3088 25.3979 16.6768 27.1319C14.4328 29.4779 12.4948 31.4669 9.43475 30.7019C8.15975 28.3559 7.85375 25.6529 8.56775 23.0519C9.28175 20.3489 11.0158 18.0539 13.4638 16.6769L13.7188 16.5239C15.1468 15.6569 18.1558 13.8209 21.9298 14.0759C25.1428 14.2799 29.7328 13.3109 33.0988 11.7809C35.8018 10.5569 38.0458 8.8229 40.2898 6.32389C41.5138 4.9469 42.7378 4.2839 43.6048 4.5389C44.3698 4.7939 44.8798 5.9159 44.9818 7.6499C45.2368 11.6789 43.7068 14.9429 40.4428 17.3909C39.7798 17.9009 39.1168 18.5129 38.5048 19.2269C38.4538 19.2269 38.3518 19.2269 38.3008 19.2269C32.6908 19.2269 28.1518 23.7659 28.1518 29.3759C28.1518 30.3449 28.3048 31.3139 28.5598 32.2319C27.2338 33.0479 25.7038 33.9149 24.0208 34.9349ZM38.3008 37.9949C33.5578 37.9949 29.6818 34.1189 29.6818 29.3759C29.6818 24.6329 33.5578 20.7569 38.3008 20.7569C43.0438 20.7569 46.9198 24.6329 46.9198 29.3759C46.9198 34.1189 43.0438 37.9949 38.3008 37.9949Z" fill="#134A85"/>
</svg>
