<svg width="51" height="51" viewBox="0 0 51 51" fill="none" xmlns="http://www.w3.org/2000/svg">
<g clip-path="url(#clip0_3059_12591)">
<path d="M4.94382 34.865C5.40529 34.865 5.86637 34.767 6.30216 34.5717C9.81415 32.9989 16.9198 32.2063 21.1556 28.9251C21.7672 28.4515 22.319 27.8189 22.8116 27.0325C22.9073 27.0302 23.0026 27.0271 23.0979 27.0239C22.7641 28.2301 22.5847 29.4998 22.5847 30.8106C22.5847 38.6447 28.9581 45.0185 36.7922 45.0185C44.6263 45.0185 51.0001 38.6451 51.0001 30.8106C51.0001 24.5026 46.8667 19.1424 41.1668 17.2934C43.8886 13.1312 44.7512 8.65659 43.8034 6.87414C43.489 6.28271 42.9618 5.95509 42.3548 5.97766C40.7828 6.0333 38.028 6.26637 34.1674 6.67064C33.7573 6.71344 33.4592 7.08075 33.502 7.49125C33.5452 7.90135 33.9137 8.20057 34.323 8.15621C38.1451 7.75622 40.863 7.52588 42.4108 7.47101C42.989 7.95427 42.8952 12.1865 39.6389 16.8899C33.1106 15.5568 26.552 18.9443 23.8263 25.0041C23.8224 25.0131 23.8189 25.0216 23.815 25.0306C23.7827 25.1026 23.7508 25.1749 23.7197 25.2473C25.5559 20.8245 25.9084 13.8689 25.7516 9.12351C26.7232 9.00717 28.6321 8.7811 30.8418 8.53364C31.2519 8.48811 31.5472 8.11847 31.5013 7.70836C31.4554 7.29864 31.0873 7.00215 30.676 7.04923C27.9504 7.35389 25.6827 7.62665 25.0578 7.70253C24.3524 7.46712 21.6556 6.66169 18.105 6.76247C14.3432 6.86791 8.88654 8.0566 4.252 13.1192C-2.11519 20.075 0.058308 28.478 1.92092 32.8674C2.46254 34.1444 3.69365 34.865 4.94382 34.865ZM37.1463 18.1023C43.9862 18.2899 49.506 23.9139 49.506 30.8106C49.506 37.821 43.8026 43.5244 36.7922 43.5244C29.7819 43.5244 24.0789 37.821 24.0789 30.8106C24.0789 23.5641 30.1165 17.9066 37.1463 18.1023ZM5.35431 14.1281C8.77759 10.3877 13.0627 8.41263 18.0906 8.25738C20.2711 8.18968 22.4913 8.4994 24.2512 9.0169C24.4135 13.8938 24.0862 24.7652 20.2408 27.7442C16.3078 30.7904 9.33712 31.5756 5.69127 33.2083C4.77417 33.6191 3.69287 33.2188 3.29638 32.2838C1.57384 28.2243 -0.448686 20.4673 5.35431 14.1281Z" fill="#134A85"/>
<path d="M36.6425 39.426C38.4226 39.426 39.8708 37.9778 39.8708 36.1981C39.8708 34.4179 38.4226 32.9697 36.6425 32.9697C34.8628 32.9697 33.4146 34.4179 33.4146 36.1981C33.4146 37.9778 34.8628 39.426 36.6425 39.426ZM36.6425 34.4635C37.5989 34.4635 38.3767 35.2417 38.3767 36.1977C38.3767 37.1541 37.5989 37.9319 36.6425 37.9319C35.6865 37.9319 34.9083 37.1541 34.9083 36.1977C34.9083 35.2417 35.6865 34.4635 36.6425 34.4635Z" fill="#134A85"/>
<path d="M42.6795 31.0009C42.6795 29.815 41.7145 28.8496 40.5282 28.8496C39.3418 28.8496 38.3765 29.8146 38.3765 31.0009C38.3765 32.1873 39.3418 33.1526 40.5282 33.1526C41.7145 33.1526 42.6795 32.1873 42.6795 31.0009ZM39.8706 31.0009C39.8706 30.6387 40.1655 30.3437 40.5282 30.3437C40.8908 30.3437 41.1857 30.6387 41.1857 31.0009C41.1857 31.3636 40.8908 31.6585 40.5282 31.6585C40.1655 31.6585 39.8706 31.3636 39.8706 31.0009Z" fill="#134A85"/>
<path d="M38.4219 28.0742C38.4219 26.1011 36.8165 24.4961 34.8438 24.4961C32.8707 24.4961 31.2656 26.1011 31.2656 28.0742C31.2656 30.0473 32.8707 31.6524 34.8438 31.6524C36.8165 31.6524 38.4219 30.0473 38.4219 28.0742ZM32.7598 28.0742C32.7598 26.9252 33.6948 25.9902 34.8438 25.9902C35.9928 25.9902 36.9278 26.9252 36.9278 28.0742C36.9278 29.2232 35.9928 30.1582 34.8438 30.1582C33.6948 30.1582 32.7598 29.2232 32.7598 28.0742Z" fill="#134A85"/>
<path d="M30.725 31.5645C29.655 31.5645 28.7842 32.4353 28.7842 33.5053C28.7842 34.5757 29.655 35.4461 30.725 35.4461C31.7954 35.4461 32.6658 34.5757 32.6658 33.5053C32.6658 32.4353 31.7954 31.5645 30.725 31.5645ZM30.725 33.952C30.4787 33.952 30.2783 33.7516 30.2783 33.5053C30.2783 33.259 30.4787 33.0586 30.725 33.0586C30.9713 33.0586 31.1717 33.259 31.1717 33.5053C31.1717 33.7516 30.9717 33.952 30.725 33.952Z" fill="#134A85"/>
<path d="M43.9485 25.5933C43.9485 24.291 42.8886 23.2314 41.5863 23.2314C40.284 23.2314 39.2241 24.291 39.2241 25.5933C39.2241 26.896 40.284 27.9555 41.5863 27.9555C42.8886 27.9555 43.9485 26.896 43.9485 25.5933ZM41.5863 26.4613C41.1077 26.4613 40.7183 26.0722 40.7183 25.5933C40.7183 25.1147 41.1077 24.7252 41.5863 24.7252C42.0649 24.7252 42.4544 25.1147 42.4544 25.5933C42.4544 26.0722 42.0649 26.4613 41.5863 26.4613Z" fill="#134A85"/>
<path d="M42.3955 35.6955L42.8752 35.2157C43.1671 34.9239 43.1671 34.4507 42.8752 34.1593C42.5834 33.8675 42.1103 33.8675 41.8188 34.1593L41.3387 34.6391C41.0473 34.9309 41.0473 35.4036 41.3387 35.6955C41.6305 35.9873 42.1037 35.9873 42.3955 35.6955Z" fill="#134A85"/>
<path d="M36.792 42.6781C42.6094 42.6781 47.6031 38.4241 48.5128 32.6709C48.577 32.2631 48.2992 31.8807 47.8914 31.8165C47.4844 31.7523 47.1015 32.0301 47.0369 32.4375C46.2486 37.4237 41.8444 41.184 36.792 41.184C31.0726 41.184 26.4194 36.5308 26.4194 30.811C26.4194 25.0917 31.0726 20.4385 36.792 20.4385C41.8444 20.4385 46.2486 24.1987 47.0369 29.1846C47.1011 29.5924 47.484 29.8706 47.8914 29.806C48.2992 29.7414 48.577 29.3589 48.5128 28.9515C47.6042 23.2069 42.6187 18.9443 36.792 18.9443C30.2485 18.9443 24.9253 24.268 24.9253 30.811C24.9253 37.3545 30.2485 42.6781 36.792 42.6781Z" fill="#134A85"/>
</g>
<defs>
<clipPath id="clip0_3059_12591">
<rect width="51" height="51" fill="white"/>
</clipPath>
</defs>
</svg>
