<svg width="51" height="51" viewBox="0 0 51 51" fill="none" xmlns="http://www.w3.org/2000/svg">
<g clip-path="url(#clip0_3059_12350)">
<path d="M29.8869 8.66154C31.7608 9.3696 34.0204 8.29258 34.6488 6.38789L35.1466 4.98072C35.8326 3.04101 34.8127 0.904776 32.8729 0.218702C30.9959 -0.489163 28.7405 0.587659 28.1109 2.49235L27.6131 3.89952C26.9273 5.83913 27.9472 7.97546 29.8869 8.66154ZM29.0203 4.39713L29.5181 2.98996C29.8958 1.84717 31.249 1.2011 32.3752 1.62587C33.539 2.03752 34.1511 3.31922 33.7395 4.48311L33.2417 5.89028C32.8641 7.03307 31.5106 7.67914 30.3846 7.25446C29.2208 6.84272 28.6089 5.56102 29.0203 4.39713Z" fill="#134A85"/>
<path d="M31.9864 23.1854L29.2601 20.994H34.0764C35.3109 20.994 36.3153 19.9897 36.3153 18.7552C36.3153 17.5206 35.3109 16.5164 34.0764 16.5164H29.4727L30.0043 15.2588C30.9888 13.0615 29.8201 10.2874 27.5644 9.45015C25.2783 8.49233 22.6414 9.56517 21.6872 11.8424L20.4731 14.74L21.8496 15.3168L23.0637 12.4192C23.7 10.9011 25.4603 10.1868 26.9875 10.8268C28.4949 11.3698 29.2859 13.214 28.6297 14.6778L27.5894 17.139L26.1297 16.4147L27.1968 13.8681L25.8203 13.2913L22.4946 21.2284L25.0073 23.2481L24.4141 24.6518L18.9627 22.2071L21.2243 16.8095L19.8478 16.2327L17.3048 22.3018C16.3026 24.6741 17.3399 27.42 19.6318 28.577V37.5494L13.4521 47.7416L20.2552 51.0003L20.9363 49.5783C21.5625 48.271 21.152 46.7303 20.0344 45.8917L24.3815 39.6017V50.9502H31.8474V49.3735C31.8474 47.783 30.6004 46.4783 29.0327 46.3857L29.371 43.473L27.8885 43.3009L27.3574 47.8731H28.8543C29.7142 47.8705 30.3981 48.602 30.3548 49.4577H25.874V36.4547L21.3819 27.8502L20.1482 27.1549C18.8749 26.4373 18.228 25.0079 18.4657 23.6201L24.251 26.2145L28.7833 35.5984L28.0634 41.7961L29.546 41.9683L30.3158 35.3398L25.6236 25.6244L26.217 24.2204L29.2167 26.6316C31.55 28.393 34.2048 25.087 31.9864 23.1854ZM24.4243 36.9139L17.845 46.4336L18.8849 46.9319C19.6614 47.3009 19.9624 48.2562 19.5536 49.0092L15.5821 47.1068L21.1241 37.9663V30.5814L24.4243 36.9139ZM34.0764 18.0088C34.488 18.0088 34.8227 18.3435 34.8227 18.7551C34.8227 19.1666 34.488 19.5014 34.0764 19.5014H28.2111L28.842 18.0088H34.0764ZM31.1619 25.3573C30.9265 25.664 30.4481 25.7163 30.1515 25.4681L24.3051 20.7687L25.5516 17.7938L27.0072 18.5161L26.2597 20.4206L31.0514 24.3485C31.3594 24.5963 31.409 25.0488 31.1619 25.3573Z" fill="#134A85"/>
<path d="M15.8126 21.9282C16.2674 20.9284 15.7873 20.6265 16.0457 19.8474C16.42 19.1249 16.9757 19.2554 17.3784 18.2323C17.8327 17.2335 17.3531 16.9301 17.6114 16.1517C17.9865 15.4283 18.5406 15.5609 18.9439 14.537C19.3977 13.5393 18.9191 13.2342 19.1767 12.4566C19.553 11.7318 20.1053 11.8668 20.5093 10.842L19.1349 10.2598C18.7613 10.9814 18.2049 10.852 17.8026 11.8744C17.3481 12.8735 17.8279 13.1762 17.5697 13.9548C17.195 14.6776 16.6401 14.5462 16.2373 15.5695C15.783 16.5678 16.2623 16.872 16.0042 17.6501C15.6285 18.3743 15.0753 18.2405 14.6715 19.2651C14.2178 20.2625 14.6963 20.5683 14.4385 21.3457L15.8126 21.9282Z" fill="#134A85"/>
<path d="M13.9088 43.2587C14.2604 42.6454 14.2529 42.1894 14.2473 41.8565C14.1933 41.4309 14.471 40.9463 14.8656 40.7777C15.6778 40.4244 16.3484 39.2518 16.2425 38.3745C16.1989 37.1691 17.3425 37.4113 17.8993 36.2949L16.6044 35.5527C16.1447 36.2263 15.6091 36.0309 15.0886 36.9969C14.5182 37.9346 14.9584 38.2924 14.6092 39.0346C14.1485 39.7091 13.6146 39.5122 13.0934 40.4788C12.5234 41.4157 12.9629 41.7751 12.6138 42.5167C12.1524 43.1922 11.6197 42.9935 11.098 43.9611C10.5283 44.8974 10.9671 45.2581 10.6182 45.9992L11.9133 46.7412C12.4836 45.8036 12.0435 45.445 12.393 44.703C12.854 44.0281 13.3875 44.2258 13.9088 43.2587Z" fill="#134A85"/>
<path d="M39.0867 18.6328C38.6272 19.3063 38.0914 19.111 37.5713 20.077C37.0005 21.0147 37.441 21.3725 37.0916 22.1148C36.6311 22.7892 36.0968 22.5923 35.576 23.5589C35.0059 24.4957 35.4453 24.8551 35.0964 25.5967C34.6346 26.2723 34.1023 26.0737 33.5804 27.0412C33.0107 27.9774 33.4495 28.3381 33.1006 29.0792L34.3957 29.8212C34.9665 28.8829 34.5258 28.5259 34.8753 27.7832C35.3356 27.1091 35.8705 27.3052 36.3914 26.3387C36.9616 25.4014 36.5217 25.0429 36.871 24.3009C37.3319 23.6261 37.8653 23.8238 38.3866 22.8567C38.9563 21.9203 38.5173 21.5603 38.8662 20.819C39.3282 20.1431 39.8598 20.3427 40.3818 19.3749L39.0867 18.6328Z" fill="#134A85"/>
</g>
<defs>
<clipPath id="clip0_3059_12350">
<rect width="51" height="51" fill="white"/>
</clipPath>
</defs>
</svg>
