<svg width="51" height="51" viewBox="0 0 51 51" fill="none" xmlns="http://www.w3.org/2000/svg">
<path d="M28.6875 11.1543C28.6875 5.88248 24.3968 1.5918 19.125 1.5918C13.8532 1.5918 9.5625 5.88248 9.5625 11.1543C9.5625 11.4214 9.57184 11.6915 9.58894 11.9651C9.63572 13.0464 11.266 12.946 11.1796 11.867C11.1645 11.6242 11.1547 11.3861 11.1547 11.1542C11.1547 6.74376 14.713 3.18539 19.1235 3.18539C23.5339 3.18539 27.0922 6.7437 27.0922 11.1542C27.0922 12.1407 26.9573 13.2155 26.7031 14.3308C26.5697 14.3458 26.425 14.369 26.2938 14.4039V13.5448C26.2954 13.1046 25.9403 12.7464 25.5 12.7448H23.9063C22.1041 12.7448 21.4705 10.9036 21.4705 10.9036C21.3587 10.5636 21.0343 10.3406 20.6768 10.3573C20.3474 10.3723 20.0623 10.5904 19.9593 10.9036C19.9593 10.9036 19.323 12.7448 17.5297 12.7448H12.7469C12.3067 12.7464 11.9514 13.1046 11.9531 13.5448V14.3977C10.3597 14.0101 8.76563 15.1289 8.76563 16.7199C8.76563 19.0503 10.4058 20.5082 12.3539 20.6948C12.7575 21.8533 13.4505 22.8711 14.3438 23.6707V27.8901C14.3436 27.9756 14.3573 28.0609 14.3843 28.1422C15.1265 29.9736 16.8717 31.0775 19.1266 31.0775C21.3815 31.0775 23.1352 29.9665 23.8674 28.1422C23.8948 28.0609 23.9091 27.9756 23.9094 27.8901V23.6738C24.8027 22.8754 25.4976 21.8577 25.9 20.6995C27.7413 20.5125 29.4844 19.1044 29.4844 16.7191C29.4543 15.7991 28.9425 15.084 28.261 14.6841C28.5351 13.4802 28.6875 12.284 28.6875 11.1543ZM35.0609 5.5777V6.37147H34.2672C32.9566 6.37147 31.8734 7.4561 31.8734 8.76672V14.3418C31.8734 18.9158 35.3749 22.6649 39.8438 23.0669V34.2667C39.8438 35.6049 38.7944 36.6543 37.4562 36.6543H36.6158C36.2082 31.3033 31.7531 27.0917 26.2969 27.0917C25.2197 27.0767 25.2197 28.7003 26.2969 28.6855C30.8976 28.6855 34.6236 32.1637 35.022 36.6543H26.9786C26.6219 35.2872 25.3845 34.2667 23.9094 34.2667C22.1584 34.2667 20.7203 35.6971 20.7203 37.448C20.7203 39.199 22.1584 40.6371 23.9094 40.6371C25.3832 40.6371 26.619 39.6146 26.977 38.2481H37.4562C39.6498 38.2481 41.4391 36.4602 41.4391 34.2667V23.0669C45.9055 22.6619 49.4094 18.9136 49.4094 14.3418V8.76672C49.4094 7.4561 48.3247 6.37147 47.0141 6.37147H46.2203V5.5777C46.2203 4.4933 44.6266 4.49869 44.6266 5.5777V8.76672C44.6494 9.80598 46.1973 9.80598 46.2203 8.76672V7.9668H47.0141C47.4693 7.9668 47.8156 8.31152 47.8156 8.76672V14.3418C47.8156 18.3288 44.6245 21.5136 40.6375 21.5136C36.6505 21.5136 33.4672 18.3288 33.4672 14.3418V8.76672C33.4672 8.31152 33.8119 7.9668 34.2672 7.9668H35.0609V8.76672C35.0609 9.83025 36.6562 9.83025 36.6562 8.76672V5.5777C36.6562 4.52243 35.0609 4.48369 35.0609 5.5777ZM20.7203 12.7543C21.2269 13.4359 22.2488 14.3387 23.9078 14.3387H24.7016V18.3277C24.7015 21.4318 22.2291 23.9043 19.125 23.9043C16.0209 23.9043 13.5484 21.4318 13.5484 18.3277V14.3387H17.5312C19.1928 14.3387 20.1482 13.4719 20.7203 12.7543ZM26.2626 19.0063C26.326 18.0833 26.2953 17.1466 26.2953 16.1876C26.888 15.5758 27.8875 16.1012 27.8844 16.751C27.8787 17.9506 27.1537 18.7446 26.2626 19.0063ZM11.9889 19.0063C11.0979 18.7446 10.3672 17.9463 10.3672 16.751C10.3672 15.9645 11.4793 15.655 11.9547 16.1846C11.9491 17.1047 11.9408 18.1324 11.9889 19.0063ZM15.9375 24.754C16.8973 25.2298 17.9796 25.498 19.125 25.498C20.2714 25.498 21.3529 25.2293 22.3141 24.754V27.6956C22.3141 27.6956 21.6517 29.484 19.1266 29.484C16.6014 29.484 15.9375 27.6956 15.9375 27.6956V24.754ZM11.9531 27.0917C6.22781 27.0917 1.59375 31.7259 1.59375 37.4512V48.6074C1.5938 49.0475 1.95054 49.4043 2.39062 49.4043H7.99365H30.3062H35.8594C36.2995 49.4043 36.6562 49.0475 36.6562 48.6074V40.6386C36.6713 39.561 35.0473 39.561 35.0625 40.6386V43.0308H31.0797V40.6371C31.0797 39.5091 29.4859 39.5991 29.4859 40.6371V47.8105H8.76718V40.6371C8.76718 39.5619 7.17343 39.5595 7.17343 40.6371V43.0308H3.1875V37.4512C3.1875 32.5813 7.08319 28.6855 11.9531 28.6855C13.0303 28.7006 13.0303 27.077 11.9531 27.0917ZM23.9094 35.8543C24.799 35.8543 25.5031 36.5584 25.5031 37.448C25.5031 38.3377 24.799 39.0433 23.9094 39.0433C23.0197 39.0433 22.3141 38.3377 22.3141 37.448C22.3141 36.5584 23.0197 35.8543 23.9094 35.8543ZM3.1875 44.6261H7.17343V47.8105H3.1875V44.6261ZM31.0797 44.6261H35.0625V47.8105H31.0797V44.6261Z" fill="#134A85"/>
</svg>
