<svg width="51" height="51" viewBox="0 0 51 51" fill="none" xmlns="http://www.w3.org/2000/svg">
<path d="M12.3402 16.0018C12.6191 16.0018 12.8866 15.8449 13.0149 15.5765C13.1927 15.2042 13.0351 14.7582 12.6627 14.5804C11.7382 14.1449 11.2663 13.1879 11.576 12.1266C11.6627 11.8296 11.8384 11.5727 12.1161 11.4365C12.3938 11.3002 12.7133 11.2985 12.9924 11.4319C13.3644 11.6097 13.8108 11.4521 13.9886 11.0798C14.1664 10.7075 14.0087 10.2614 13.6365 10.0836C12.9426 9.75207 12.1485 9.75625 11.4582 10.0948C10.7677 10.4334 10.3101 11.0663 10.1157 11.81C9.68358 13.4641 10.4694 15.1943 12.0188 15.9287C12.1226 15.9783 12.2323 16.0018 12.3402 16.0018Z" fill="#134A85"/>
<path d="M17.6906 14.6816H18.2464C18.5908 14.6816 18.9317 14.7705 19.2323 14.9388C19.3477 15.0033 19.4729 15.034 19.5963 15.034C19.8581 15.034 20.1123 14.8961 20.2491 14.6515C20.4505 14.2913 20.3218 13.8361 19.9617 13.6347C19.4387 13.3421 18.8455 13.1875 18.2463 13.1875H17.6905C17.2778 13.1875 16.9434 13.522 16.9434 13.9346C16.9434 14.3472 17.278 14.6816 17.6906 14.6816Z" fill="#134A85"/>
<path d="M47.2229 13.2642C46.3063 13.2642 45.4392 13.5871 44.7491 14.1784C44.3735 12.7372 43.056 11.7202 41.5676 11.7212C41.358 11.7212 41.1454 11.7419 40.935 11.7828C40.2159 11.9225 39.5564 12.3046 39.0777 12.8583C38.5989 13.4123 38.3153 14.1196 38.279 14.8503C38.2768 14.897 38.2548 14.9324 38.2138 14.9554C38.1724 14.9785 38.1304 14.9789 38.0902 14.957C36.6445 14.1616 35.076 13.6788 33.4335 13.5236C33.023 13.4857 32.6582 13.7864 32.6193 14.1971C32.5804 14.6079 32.8821 14.9724 33.2928 15.0113C34.7168 15.1458 36.0759 15.5611 37.3307 16.2446C37.8306 16.5353 38.4405 16.5427 38.9449 16.2584C39.4348 15.9836 39.7439 15.4846 39.7716 14.924C39.7913 14.525 39.9464 14.1384 40.2083 13.8355C40.469 13.5338 40.8283 13.3257 41.2199 13.2496C42.1574 13.0673 43.0519 13.6462 43.2984 14.5372C43.427 14.9903 43.4921 15.4553 43.4921 15.9192C43.4921 16.1341 43.4782 16.349 43.4504 16.5596C43.1785 18.6638 41.6024 20.3809 39.5284 20.8325L37.2745 21.3264C37.018 21.1153 36.7538 20.9121 36.4776 20.7221L33.7945 18.875C33.4547 18.6411 32.9893 18.7269 32.7554 19.0667C32.5214 19.4066 32.6072 19.8718 32.9471 20.1058L35.6303 21.9529C37.252 23.0693 38.4982 24.6086 39.2523 26.4193L34.0415 31.5862C32.6292 29.3321 30.3502 27.6744 27.6748 27.0834C28.0362 26.5438 28.3393 25.9668 28.5784 25.3564C29.7653 22.3588 28.9546 18.9021 26.643 16.6743C27.6413 16.0837 28.7869 15.5122 30.0541 15.2153C30.4558 15.1211 30.7052 14.7191 30.611 14.3173C30.517 13.9155 30.1145 13.6664 29.7132 13.7604C28.0422 14.152 26.6037 14.9337 25.3993 15.6811C24.7976 15.3908 24.1262 15.2857 23.4722 15.3722C23.3324 14.7985 23.3659 14.2052 23.5744 13.6506L23.8215 12.9931C25.367 8.88156 23.9267 4.26005 20.3188 1.7547C17.4348 -0.248484 13.6714 -0.560084 10.4969 0.941334C8.0264 2.08184 6.01565 4.0675 4.85203 6.52204C3.85497 8.62375 3.51069 10.986 3.85437 13.266C2.78817 13.2198 1.88804 14.0843 1.89063 15.1508V21.9706C1.89063 22.3832 2.22504 22.7177 2.63775 22.7177C3.05046 22.7177 3.38488 22.3832 3.38488 21.9706V15.1508C3.38488 14.9344 3.5614 14.7583 3.77836 14.7583C4.39568 14.7583 4.97665 14.9989 5.41317 15.4346C5.84998 15.8721 6.09046 16.4531 6.09046 17.0704V27.7282C6.0524 28.4881 6.30922 29.2611 6.86667 29.8676L13.0547 36.6013C13.2021 36.7616 13.4032 36.8429 13.605 36.8429C13.7856 36.8429 13.9668 36.7777 14.1104 36.6458C14.4142 36.3666 14.4341 35.894 14.1549 35.5902L7.96683 28.8565C7.43787 28.2805 7.45839 27.3928 8.01574 26.8428C8.57907 26.2868 9.49435 26.2879 10.0561 26.8451L16.2343 32.9712C15.7158 34.1839 15.4283 35.518 15.4283 36.9181C15.4283 38.222 15.6742 39.4907 16.1593 40.689C16.3141 41.0713 16.7495 41.256 17.1322 41.1012C17.5147 40.9464 17.6992 40.5108 17.5444 40.1283C17.1318 39.1091 16.9226 38.0289 16.9226 36.9181C16.9226 32.1882 20.7707 28.3401 25.5006 28.3401C30.2305 28.3401 34.0786 32.1882 34.0786 36.9181C34.0786 41.6475 30.2305 45.4951 25.5006 45.4951C23.1301 45.4951 20.9247 44.5497 19.2908 42.8332C19.0063 42.5344 18.5333 42.5228 18.2345 42.8072C17.9356 43.0916 17.924 43.5646 18.2084 43.8634C18.9675 44.6609 19.8318 45.3159 20.7714 45.8172V50.2527C20.7714 50.6654 21.1058 50.9999 21.5185 50.9999C21.9313 50.9999 22.2657 50.6654 22.2657 50.2527V46.463C23.2919 46.8092 24.3804 46.9893 25.5006 46.9893C26.6317 46.9893 27.7198 46.8018 28.7356 46.4565V50.2527C28.7356 50.6654 29.07 50.9999 29.4827 50.9999C29.8954 50.9999 30.2298 50.6654 30.2298 50.2527V45.8079C33.4062 44.1116 35.5729 40.7633 35.5729 36.9181C35.5729 35.518 35.2854 34.1838 34.7669 32.9711L40.945 26.845C41.507 26.2878 42.4222 26.2868 42.9855 26.8427C43.2577 27.1116 43.4014 27.4595 43.4166 27.8127V27.8739C43.4166 27.8793 43.4173 27.8845 43.4174 27.8898C43.4138 28.2355 43.2877 28.581 43.0344 28.8566L36.8463 35.5903C36.5671 35.8941 36.587 36.3667 36.8908 36.6459C37.0344 36.7778 37.2156 36.843 37.3962 36.843C37.5979 36.843 37.7992 36.7617 37.9465 36.6014L44.1346 29.8678C44.692 29.2613 44.9488 28.4883 44.9108 27.7283V17.0705C44.9089 16.4608 45.1569 15.8669 45.5871 15.4356C46.0246 14.9989 46.6055 14.7584 47.2229 14.7584C47.4398 14.7584 47.6163 14.9345 47.6163 15.1509V29.8274C47.6163 30.4265 47.4088 31.0133 47.032 31.48L44.6213 34.4675C44.3622 34.7887 44.4124 35.259 44.7335 35.5182C44.8718 35.6297 45.0376 35.6839 45.2022 35.6839C45.4203 35.6839 45.6366 35.5888 45.7842 35.4059L48.1947 32.4186C48.7853 31.6872 49.1106 30.767 49.1106 29.8274V15.1509C49.1107 14.1105 48.2638 13.2642 47.2229 13.2642ZM27.1872 24.8111C26.8952 25.5565 26.4903 26.2434 25.9824 26.8576C25.8227 26.8501 25.6622 26.8459 25.5006 26.8459C21.9037 26.8459 18.7416 28.7415 16.9595 31.5858L11.1082 25.7841C10.1558 24.8396 8.7035 24.683 7.5846 25.3136V17.0705C7.5846 16.0545 7.18903 15.0987 6.4698 14.3781C6.16547 14.0744 5.8187 13.8291 5.44325 13.6463C4.97814 11.4766 5.24382 9.1822 6.20203 7.16258C7.21801 5.01883 8.97644 3.28561 11.1359 2.29203C13.8279 1.01874 17.0203 1.28302 19.4664 2.98158C22.5115 5.09623 23.7272 8.99671 22.4229 12.467L22.1758 13.1245C21.8399 14.0165 21.8022 14.9781 22.0629 15.8947C20.8589 16.6658 20.2717 18.1628 20.6088 19.5512C18.5165 18.9771 16.3236 18.8141 14.1563 19.0847L11.7717 19.3824C11.3624 19.4335 11.0719 19.8069 11.1229 20.2164C11.174 20.6259 11.548 20.9155 11.9569 20.8652L14.3414 20.5675C17.0368 20.2309 19.7766 20.628 22.2652 21.7156L22.9531 22.0164C23.0506 22.059 23.1521 22.0791 23.252 22.0791C23.54 22.0791 23.8143 21.9117 23.9369 21.6311C24.1022 21.253 23.9297 20.8125 23.5516 20.6472L22.8637 20.3465C22.6584 20.2568 22.451 20.1728 22.2427 20.0916L22.0465 19.1213C21.9105 18.4395 22.156 17.7372 22.6869 17.2885C23.4646 16.6315 24.6186 16.6987 25.3145 17.4415C27.355 19.2882 28.235 22.2124 27.1872 24.8111ZM43.4165 25.3136C42.4891 24.7909 41.3331 24.8096 40.422 25.3691C39.9419 24.3456 39.3193 23.4059 38.5738 22.5702L39.8469 22.2923C41.2688 21.9826 42.5101 21.2139 43.4165 20.155V25.3136Z" fill="#134A85"/>
<path d="M43.4813 37.0691C43.1601 36.8098 42.6897 36.8602 42.4307 37.1813L38.6681 41.8432C37.457 43.3436 36.9359 45.2969 37.2385 47.2026L37.7426 50.3704C37.8012 50.7381 38.1186 51.0002 38.4796 51.0002C38.5186 51.0002 38.5581 50.9971 38.5979 50.9908C39.0054 50.926 39.2832 50.543 39.2184 50.1356L38.7144 46.968C38.4779 45.4795 38.8849 43.9537 39.8309 42.7818L43.5935 38.1198C43.8526 37.7987 43.8024 37.3283 43.4813 37.0691Z" fill="#134A85"/>
<path d="M3.96902 31.4797C3.59237 31.0132 3.38487 30.4263 3.38487 29.8273V25.4571C3.38487 25.0445 3.05046 24.71 2.63775 24.71C2.22504 24.71 1.89062 25.0445 1.89062 25.4571V29.8273C1.89062 30.7668 2.21597 31.687 2.8064 32.4183L11.1703 42.7815C12.1162 43.9534 12.5233 45.4791 12.2868 46.9674L11.7827 50.1353C11.718 50.5428 11.9957 50.9257 12.4032 50.9905C12.443 50.9967 12.4825 50.9998 12.5216 50.9998C12.8825 50.9998 13.2001 50.7377 13.2585 50.37L13.7626 47.202C14.0652 45.2966 13.5442 43.3432 12.333 41.843L3.96902 31.4797Z" fill="#134A85"/>
<path d="M27.2061 31.1514H23.7958C23.3831 31.1514 23.0487 31.4859 23.0487 31.8985V34.4657H20.4815C20.0688 34.4657 19.7344 34.8002 19.7344 35.2128V38.6231C19.7344 39.0357 20.0688 39.3702 20.4815 39.3702H23.0487V41.9373C23.0487 42.3499 23.3831 42.6845 23.7958 42.6845H27.2061C27.6188 42.6845 27.9532 42.3499 27.9532 41.9373V39.3702H30.5204C30.9331 39.3702 31.2676 39.0357 31.2676 38.6231V35.2128C31.2676 34.8002 30.9331 34.4657 30.5204 34.4657H27.9532V31.8985C27.9532 31.4859 27.6188 31.1514 27.2061 31.1514ZM29.7733 35.9598V37.8759H27.2061C26.7934 37.8759 26.459 38.2104 26.459 38.623V41.1901H24.543V38.623C24.543 38.2104 24.2085 37.8759 23.7958 37.8759H21.2286V35.9598H23.7958C24.2085 35.9598 24.543 35.6253 24.543 35.2127V32.6455H26.459V35.2127C26.459 35.6253 26.7934 35.9598 27.2061 35.9598H29.7733Z" fill="#134A85"/>
</svg>
