<svg width="51" height="51" viewBox="0 0 51 51" fill="none" xmlns="http://www.w3.org/2000/svg">
<path d="M43.2146 31.4792C41.2833 31.4791 39.4882 32.3057 38.2427 33.7313C37.9779 33.4301 37.6873 33.1577 37.3773 32.9125C39.3953 30.992 40.8377 28.7173 41.628 26.2445C42.9239 26.2203 44.1621 25.7415 45.0973 24.8851C46.0352 24.0264 46.5472 22.8968 46.539 21.7098C46.539 20.6506 46.1337 19.6399 45.3934 18.8298C45.3069 13.9167 43.1401 9.28768 39.2671 5.76549C38.9617 5.48788 38.4892 5.51039 38.2117 5.81559C37.9341 6.1208 37.9566 6.59334 38.2618 6.87095C41.6967 9.99461 43.6744 14.0517 43.8847 18.3671C43.1936 18.3287 42.5057 18.2387 41.8289 18.0978C40.6166 14.914 37.3671 11.1942 32.8065 10.1753C32.4118 10.0871 32.0189 10.3288 31.9195 10.7208C31.652 11.7749 31.1634 12.8803 30.5062 13.9175C29.564 15.4044 28.3825 16.6008 27.179 17.2866C26.1384 17.8798 25.2032 18.0054 24.6134 17.6319C23.9808 17.2309 23.7033 16.248 23.8523 14.9349C23.8857 14.6407 23.7422 14.3545 23.4863 14.2053C23.2305 14.0562 22.9105 14.0722 22.6711 14.2462C19.8611 16.287 17.0927 16.5388 16.2701 15.4938C15.5876 14.6269 16.0639 12.8748 17.4551 11.1339C17.638 10.9049 17.6702 10.5903 17.5375 10.3291C17.4047 10.0679 17.1322 9.90745 16.8387 9.92109C14.2617 10.0339 11.7817 11.0445 9.66656 12.8437C7.96483 14.2914 6.60088 16.1932 5.87603 18.115C5.25944 18.2557 4.59027 18.34 3.82616 18.3726C4.28118 8.99732 13.0911 1.49414 23.8554 1.49414C28.1005 1.49414 32.1578 2.64831 35.5885 4.83185C35.9367 5.05348 36.3983 4.95088 36.6199 4.60275C36.8414 4.25462 36.7388 3.79283 36.3908 3.57139C32.7199 1.23496 28.3852 0 23.8554 0C18.1184 0 12.7207 1.97924 8.65632 5.57324C4.64754 9.11804 2.40544 13.8155 2.31768 18.8297C1.57718 19.6398 1.17197 20.6501 1.17197 21.7045C1.16371 22.8967 1.6756 24.0261 2.61352 24.8849C3.55124 25.7436 4.79337 26.2228 6.09298 26.2447C7.54418 30.7398 11.1015 34.4506 15.7501 36.4765C12.1426 38.725 9.57801 42.4091 8.77087 46.6058C8.59656 47.5121 8.83373 48.4398 9.42132 49.1512C10.0086 49.8624 10.8744 50.2702 11.7965 50.2702H15.0251C15.4378 50.2702 15.7722 49.9358 15.7722 49.5231C15.7722 49.1104 15.4378 48.776 15.0251 48.776H11.7966C11.3217 48.776 10.8758 48.566 10.5733 48.1997C10.2705 47.833 10.1483 47.355 10.2382 46.8879C11.0405 42.716 13.7676 39.1045 17.5586 37.1678C17.4213 40.7191 20.3015 43.7058 23.8555 43.6981C25.3384 43.6981 26.7553 43.1771 27.8782 42.244C29.239 44.7162 31.5624 47.0489 33.8633 48.776H18.5116C18.0989 48.776 17.7645 49.1104 17.7645 49.5231C17.7645 49.9358 18.0989 50.2702 18.5116 50.2702H36.0958C36.294 50.3863 36.4894 50.4963 36.681 50.5996C37.1768 50.8666 37.7201 50.9999 38.2635 50.9999C38.8101 50.9999 39.3567 50.8648 39.8546 50.5948C44.0002 48.3461 49.8351 42.9776 49.8279 38.0826C49.8224 34.4393 46.8567 31.4792 43.2146 31.4792ZM44.3271 19.8776C44.7916 20.4046 45.0447 21.0463 45.0447 21.7149C45.0501 22.479 44.7104 23.2136 44.0884 23.7831C43.5246 24.2993 42.8017 24.6221 42.0264 24.7201C42.2276 23.7414 42.3314 22.7385 42.3314 21.7198C42.3314 21.04 42.2831 20.3581 42.1886 19.6819C42.8955 19.7968 43.6105 19.8625 44.3271 19.8776ZM3.62256 23.7829C3.0005 23.2134 2.66083 22.4789 2.66621 21.7098C2.66621 21.0466 2.91872 20.4061 3.38191 19.8796C4.16663 19.8676 4.86838 19.8106 5.51903 19.7052C5.42679 20.3737 5.37967 21.0478 5.37967 21.7198C5.37967 22.7446 5.48685 23.7476 5.68986 24.721C4.9125 24.6239 4.18765 24.3004 3.62256 23.7829ZM6.87371 21.7198C6.87371 20.7867 6.97412 19.849 7.17125 18.9318C8.21734 15.8304 11.3216 12.4826 15.3253 11.6179C14.2784 13.4854 14.1717 15.2437 15.0959 16.4178C16.399 18.0732 19.3778 17.9474 22.3544 16.2315C22.4854 17.4347 22.9891 18.3714 23.8136 18.8937C24.9014 19.5832 26.3592 19.4732 27.9185 18.5846C29.3304 17.78 30.6975 16.4065 31.768 14.717C32.3619 13.7799 32.8351 12.7875 33.1568 11.8097C36.9615 12.9464 39.6222 16.2133 40.5381 18.9254C40.7362 19.8445 40.837 20.7844 40.837 21.7197C40.8227 25.7246 39.1129 29.3139 36.0563 32.0999C35.2025 31.7063 34.2609 31.4938 33.2837 31.4938C33.2805 31.4938 33.2771 31.4938 33.2736 31.4938C30.2172 31.4984 27.6424 33.587 26.892 36.4102C25.893 36.5688 24.8738 36.6496 23.8551 36.6496C14.4917 36.6497 6.87371 29.9522 6.87371 21.7198ZM23.8554 42.2041C21.266 42.2041 19.1495 40.146 19.0527 37.5798C20.5848 37.9468 22.1946 38.1438 23.8554 38.1438C24.7991 38.1438 25.7435 38.0794 26.6743 37.9527C26.6458 38.9145 26.8503 39.8675 27.2165 40.8301C26.3209 41.7074 25.1195 42.2041 23.8554 42.2041ZM39.1421 49.2814C38.5937 49.579 37.9386 49.5799 37.3894 49.284C33.1561 46.8023 28.5749 42.8855 28.1644 38.115C28.1602 35.2921 30.4533 32.9922 33.2761 32.9879C35.0455 32.9847 36.6668 33.8825 37.6131 35.3763C37.75 35.5929 37.9883 35.7241 38.2445 35.7241C38.5022 35.7237 38.7405 35.5917 38.8771 35.3744C39.8201 33.8735 41.4387 32.9757 43.2068 32.9731H43.2146C46.0335 32.9731 48.3294 35.2647 48.3337 38.0847C48.3394 41.9181 43.5671 46.8814 39.1421 49.2814Z" fill="#134A85"/>
<path d="M40.8285 39.3485H40.5672V39.0872C40.5672 38.1845 39.8329 37.4502 38.9302 37.4502H37.5676C36.6649 37.4502 35.9306 38.1845 35.9306 39.0872V39.3485H35.6692C34.7665 39.3485 34.0322 40.0829 34.0322 40.9855V42.3482C34.0322 43.2508 34.7665 43.9852 35.6692 43.9852H35.9306V44.2465C35.9306 45.1492 36.6649 45.8835 37.5676 45.8835H38.9302C39.8329 45.8835 40.5672 45.1492 40.5672 44.2465V43.9852H40.8285C41.7311 43.9852 42.4656 43.2508 42.4656 42.3482V40.9855C42.4656 40.0829 41.7311 39.3485 40.8285 39.3485ZM40.9714 42.3482C40.9714 42.427 40.9073 42.4911 40.8284 42.4911H39.82C39.4073 42.4911 39.073 42.8255 39.073 43.2382V44.2466C39.073 44.3254 39.0088 44.3896 38.93 44.3896H37.5674C37.4886 44.3896 37.4244 44.3254 37.4244 44.2466V43.2382C37.4244 42.8255 37.09 42.4911 36.6774 42.4911H35.6689C35.5901 42.4911 35.526 42.427 35.526 42.3482V40.9855C35.526 40.9067 35.5901 40.8426 35.6689 40.8426H36.6774C37.09 40.8426 37.4244 40.5082 37.4244 40.0955V39.0872C37.4244 39.0084 37.4886 38.9442 37.5674 38.9442H38.93C39.0088 38.9442 39.073 39.0084 39.073 39.0872V40.0956C39.073 40.5083 39.4073 40.8427 39.82 40.8427H40.8284C40.9073 40.8427 40.9714 40.9068 40.9714 40.9856V42.3482Z" fill="#134A85"/>
<path d="M17.6348 21.9697C17.2221 21.9697 16.8877 22.3041 16.8877 22.7168V23.9121C16.8877 24.3248 17.2221 24.6592 17.6348 24.6592C18.0474 24.6592 18.3818 24.3248 18.3818 23.9121V22.7168C18.3818 22.3041 18.0473 21.9697 17.6348 21.9697Z" fill="#134A85"/>
<path d="M30.0762 24.6592C30.4889 24.6592 30.8232 24.3248 30.8232 23.9121V22.7168C30.8232 22.3041 30.4889 21.9697 30.0762 21.9697C29.6635 21.9697 29.3291 22.3041 29.3291 22.7168V23.9121C29.3291 24.3247 29.6635 24.6592 30.0762 24.6592Z" fill="#134A85"/>
<path d="M26.0589 24.3668C26.33 24.0558 26.2974 23.5838 25.9864 23.3128C25.6753 23.0417 25.2033 23.0741 24.9324 23.3853C24.6607 23.6972 24.2681 23.8761 23.8557 23.8761C23.4432 23.8761 23.0508 23.6972 22.779 23.3853C22.508 23.0741 22.0361 23.0419 21.7251 23.3128C21.414 23.5838 21.3815 24.0558 21.6526 24.3668C22.2082 25.0045 23.0111 25.3701 23.8557 25.3701C24.7003 25.3701 25.5033 25.0045 26.0589 24.3668Z" fill="#134A85"/>
</svg>
