<svg width="51" height="51" viewBox="0 0 51 51" fill="none" xmlns="http://www.w3.org/2000/svg">
<mask id="path-1-outside-1_3059_12800" maskUnits="userSpaceOnUse" x="6.6001" y="0.59375" width="37" height="50" fill="black">
<rect fill="white" x="6.6001" y="0.59375" width="37" height="50"/>
<path fill-rule="evenodd" clip-rule="evenodd" d="M13.6274 11.1008C13.7855 12.7258 13.5534 13.9432 12.5752 15.2635C11.4491 17.0596 10.0393 18.7298 8.06956 19.6308C7.69672 19.8644 7.61325 20.0281 7.6001 20.4355C7.61474 21.9357 8.88247 23.1875 10.348 23.3314C10.4137 23.3377 10.5063 23.3339 10.6132 23.2859C10.6907 23.2511 10.9462 23.0394 10.9925 23.0007C12.4748 22.1987 13.8191 21.0836 14.9735 19.7428C15.5087 25.3045 17.562 30.7942 17.1634 36.3891C16.8778 40.0797 16.0881 44.0578 13.7541 47.0389C13.504 47.512 13.4706 47.7664 13.9086 48.1552C16.1154 49.4304 19.0429 49.9753 21.2785 48.6049C22.5133 47.7616 22.8189 46.1459 22.9967 44.7747C23.4058 40.9827 23.4735 37.1035 23.267 33.2963C23.2557 33.17 23.1865 32.9141 23.1475 32.6994C31.7556 33.4583 31.6051 46.2049 41.0067 46.8299C41.2736 46.8637 41.5177 46.674 41.5511 46.4068C41.5845 46.1397 41.3948 45.8956 41.1276 45.8621C31.9432 45.2274 32.021 31.2841 22.4692 31.7889C21.8731 32.0432 22.2434 32.9829 22.2974 33.4058C22.4002 34.3168 22.3962 35.2406 22.3896 36.156C22.3113 39.5902 22.5165 43.1206 21.6571 46.4753C20.6875 49.2878 16.7348 48.57 14.6412 47.4646C17.0281 44.3907 17.8348 40.2532 18.1368 36.4584C18.5712 30.3607 16.1267 24.3849 15.8486 18.309C15.8358 17.8321 15.1584 17.6641 14.9334 18.0969C13.9601 19.7742 12.1529 21.2528 10.4544 22.1868C10.4286 22.2031 10.3405 22.2762 10.2697 22.3359C9.34964 22.1677 8.61263 21.4011 8.58733 20.4629C10.6667 19.4898 12.1941 17.7043 13.393 15.7961C14.1647 14.7126 14.6642 13.5137 14.6372 12.1616C16.1598 13.1658 18.0328 13.0643 20.0435 12.1787C20.0836 13.3629 19.675 14.6199 19.6183 15.7756C19.4446 19.3383 20.3507 26.2232 24.4278 27.9901C27.5079 29.2138 30.788 28.9618 32.5776 26.0475C33.3991 24.8216 33.9766 23.3313 34.7678 22.0633C36.1434 19.8586 38.8137 18.2685 41.4574 18.6727C42.0813 18.758 42.2489 17.8243 41.6049 17.7083C38.5832 17.2462 35.5124 19.0269 33.9401 21.5469C32.4179 23.9088 31.8076 27.2561 28.4696 27.6794C27.2306 27.7991 25.9612 27.533 24.8059 27.0909C21.1417 25.3888 20.4669 19.0303 20.5926 15.8281C20.7628 13.8589 21.7025 11.2571 20.0236 9.70982C18.3707 8.22594 15.4832 9.21227 13.834 10.0741C13.4429 10.2801 13.6155 10.7475 13.6274 11.1008ZM32.755 45.9304C31.1465 44.5812 29.8326 42.7545 28.8363 40.4192C28.7306 40.1716 28.8459 39.8848 29.0936 39.7791C29.3412 39.6734 29.628 39.7888 29.7337 40.0364C30.6399 42.1607 31.8208 43.8385 33.2696 45.0875L33.7348 44.3257L35.4702 47.0998L32.2096 46.8237L32.755 45.9304ZM33.6348 37.3761C34.2679 38.1061 34.904 38.8359 35.3957 39.6713C36.8206 42.0792 38.6583 44.7188 41.8881 44.3885C42.1561 44.3618 42.3517 44.1226 42.325 43.8547C42.2983 43.5868 42.0591 43.391 41.7912 43.4178C38.1538 43.7218 37.0072 39.8738 35.1095 37.5993C37.2652 37.8903 39.4422 37.3006 41.519 36.7964C41.7809 36.7337 41.9426 36.4704 41.88 36.2085C41.8173 35.9466 41.5539 35.7849 41.2921 35.8475C39.6793 36.2333 37.9834 36.7113 36.3104 36.6986C35.7434 36.6942 35.1493 36.6611 34.6025 36.5016C34.503 36.4725 34.1333 36.2954 33.9399 36.2492C33.4771 36.1383 33.1452 36.4686 33.218 36.8687C33.2353 36.9492 33.2773 37.0481 33.3631 37.1435C33.4232 37.2109 33.6122 37.3586 33.6348 37.3761ZM41.459 33.2261C37.7174 34.1456 33.4554 33.6929 30.2168 31.5123C33.2518 29.1686 37.6452 29.8264 40.9742 31.1404C41.2245 31.2392 41.5081 31.1161 41.607 30.8657C41.7059 30.6152 41.5828 30.3318 41.3324 30.2328C37.7724 28.767 31.5831 28.007 28.967 31.5157C28.9671 31.653 29.025 31.7839 29.1264 31.8762C32.5572 34.6517 37.512 35.1868 41.7087 34.1693C42.3241 33.9889 42.0876 33.0781 41.459 33.2261ZM35.022 27.5115C38.3254 26.9625 39.7794 27.8387 42.8183 28.538C43.0825 28.5897 43.339 28.4173 43.3907 28.1531C43.4424 27.8889 43.2707 27.6324 43.0062 27.5805C40.4765 27.006 38.1693 26.001 35.503 26.4764C37.0129 23.9438 39.6812 21.9212 42.7017 21.9368C42.9709 21.9382 43.1906 21.7207 43.192 21.4515C43.1935 21.1822 42.9761 20.9625 42.7067 20.9611C39.0021 20.9421 35.7427 23.636 34.1944 26.8517C34.0562 27.177 34.1864 27.4247 34.4598 27.5518C34.5246 27.5774 34.6266 27.6007 34.7554 27.5809C34.821 27.5709 34.996 27.5192 35.022 27.5115ZM33.614 16.8557L33.0687 15.9625L36.3293 15.6863L34.5938 18.4605L34.1288 17.6987C32.6799 18.9476 31.499 20.6255 30.5927 22.7497C30.4871 22.9974 30.2004 23.1126 29.9526 23.007C29.705 22.9014 29.5899 22.6146 29.6954 22.3669C30.6916 20.0315 32.0055 18.2049 33.614 16.8557ZM19.856 11.1926C19.0303 9.05748 16.0756 10.08 14.5796 10.7889C14.5819 10.8149 14.5842 10.8409 14.5865 10.867C15.9812 12.2426 17.8427 12.1343 19.856 11.1926ZM15.6588 5.13875C15.4479 4.18539 15.1054 3.24 14.6284 2.30277C14.5064 2.06291 14.6021 1.76896 14.842 1.64684C15.082 1.52472 15.3759 1.62045 15.498 1.86041C16.0399 2.92533 16.4204 4.00051 16.645 5.08496L17.69 5.02808L16.3879 8.03011L14.7675 5.18726L15.6588 5.13875Z"/>
</mask>
<path fill-rule="evenodd" clip-rule="evenodd" d="M13.6274 11.1008C13.7855 12.7258 13.5534 13.9432 12.5752 15.2635C11.4491 17.0596 10.0393 18.7298 8.06956 19.6308C7.69672 19.8644 7.61325 20.0281 7.6001 20.4355C7.61474 21.9357 8.88247 23.1875 10.348 23.3314C10.4137 23.3377 10.5063 23.3339 10.6132 23.2859C10.6907 23.2511 10.9462 23.0394 10.9925 23.0007C12.4748 22.1987 13.8191 21.0836 14.9735 19.7428C15.5087 25.3045 17.562 30.7942 17.1634 36.3891C16.8778 40.0797 16.0881 44.0578 13.7541 47.0389C13.504 47.512 13.4706 47.7664 13.9086 48.1552C16.1154 49.4304 19.0429 49.9753 21.2785 48.6049C22.5133 47.7616 22.8189 46.1459 22.9967 44.7747C23.4058 40.9827 23.4735 37.1035 23.267 33.2963C23.2557 33.17 23.1865 32.9141 23.1475 32.6994C31.7556 33.4583 31.6051 46.2049 41.0067 46.8299C41.2736 46.8637 41.5177 46.674 41.5511 46.4068C41.5845 46.1397 41.3948 45.8956 41.1276 45.8621C31.9432 45.2274 32.021 31.2841 22.4692 31.7889C21.8731 32.0432 22.2434 32.9829 22.2974 33.4058C22.4002 34.3168 22.3962 35.2406 22.3896 36.156C22.3113 39.5902 22.5165 43.1206 21.6571 46.4753C20.6875 49.2878 16.7348 48.57 14.6412 47.4646C17.0281 44.3907 17.8348 40.2532 18.1368 36.4584C18.5712 30.3607 16.1267 24.3849 15.8486 18.309C15.8358 17.8321 15.1584 17.6641 14.9334 18.0969C13.9601 19.7742 12.1529 21.2528 10.4544 22.1868C10.4286 22.2031 10.3405 22.2762 10.2697 22.3359C9.34964 22.1677 8.61263 21.4011 8.58733 20.4629C10.6667 19.4898 12.1941 17.7043 13.393 15.7961C14.1647 14.7126 14.6642 13.5137 14.6372 12.1616C16.1598 13.1658 18.0328 13.0643 20.0435 12.1787C20.0836 13.3629 19.675 14.6199 19.6183 15.7756C19.4446 19.3383 20.3507 26.2232 24.4278 27.9901C27.5079 29.2138 30.788 28.9618 32.5776 26.0475C33.3991 24.8216 33.9766 23.3313 34.7678 22.0633C36.1434 19.8586 38.8137 18.2685 41.4574 18.6727C42.0813 18.758 42.2489 17.8243 41.6049 17.7083C38.5832 17.2462 35.5124 19.0269 33.9401 21.5469C32.4179 23.9088 31.8076 27.2561 28.4696 27.6794C27.2306 27.7991 25.9612 27.533 24.8059 27.0909C21.1417 25.3888 20.4669 19.0303 20.5926 15.8281C20.7628 13.8589 21.7025 11.2571 20.0236 9.70982C18.3707 8.22594 15.4832 9.21227 13.834 10.0741C13.4429 10.2801 13.6155 10.7475 13.6274 11.1008ZM32.755 45.9304C31.1465 44.5812 29.8326 42.7545 28.8363 40.4192C28.7306 40.1716 28.8459 39.8848 29.0936 39.7791C29.3412 39.6734 29.628 39.7888 29.7337 40.0364C30.6399 42.1607 31.8208 43.8385 33.2696 45.0875L33.7348 44.3257L35.4702 47.0998L32.2096 46.8237L32.755 45.9304ZM33.6348 37.3761C34.2679 38.1061 34.904 38.8359 35.3957 39.6713C36.8206 42.0792 38.6583 44.7188 41.8881 44.3885C42.1561 44.3618 42.3517 44.1226 42.325 43.8547C42.2983 43.5868 42.0591 43.391 41.7912 43.4178C38.1538 43.7218 37.0072 39.8738 35.1095 37.5993C37.2652 37.8903 39.4422 37.3006 41.519 36.7964C41.7809 36.7337 41.9426 36.4704 41.88 36.2085C41.8173 35.9466 41.5539 35.7849 41.2921 35.8475C39.6793 36.2333 37.9834 36.7113 36.3104 36.6986C35.7434 36.6942 35.1493 36.6611 34.6025 36.5016C34.503 36.4725 34.1333 36.2954 33.9399 36.2492C33.4771 36.1383 33.1452 36.4686 33.218 36.8687C33.2353 36.9492 33.2773 37.0481 33.3631 37.1435C33.4232 37.2109 33.6122 37.3586 33.6348 37.3761ZM41.459 33.2261C37.7174 34.1456 33.4554 33.6929 30.2168 31.5123C33.2518 29.1686 37.6452 29.8264 40.9742 31.1404C41.2245 31.2392 41.5081 31.1161 41.607 30.8657C41.7059 30.6152 41.5828 30.3318 41.3324 30.2328C37.7724 28.767 31.5831 28.007 28.967 31.5157C28.9671 31.653 29.025 31.7839 29.1264 31.8762C32.5572 34.6517 37.512 35.1868 41.7087 34.1693C42.3241 33.9889 42.0876 33.0781 41.459 33.2261ZM35.022 27.5115C38.3254 26.9625 39.7794 27.8387 42.8183 28.538C43.0825 28.5897 43.339 28.4173 43.3907 28.1531C43.4424 27.8889 43.2707 27.6324 43.0062 27.5805C40.4765 27.006 38.1693 26.001 35.503 26.4764C37.0129 23.9438 39.6812 21.9212 42.7017 21.9368C42.9709 21.9382 43.1906 21.7207 43.192 21.4515C43.1935 21.1822 42.9761 20.9625 42.7067 20.9611C39.0021 20.9421 35.7427 23.636 34.1944 26.8517C34.0562 27.177 34.1864 27.4247 34.4598 27.5518C34.5246 27.5774 34.6266 27.6007 34.7554 27.5809C34.821 27.5709 34.996 27.5192 35.022 27.5115ZM33.614 16.8557L33.0687 15.9625L36.3293 15.6863L34.5938 18.4605L34.1288 17.6987C32.6799 18.9476 31.499 20.6255 30.5927 22.7497C30.4871 22.9974 30.2004 23.1126 29.9526 23.007C29.705 22.9014 29.5899 22.6146 29.6954 22.3669C30.6916 20.0315 32.0055 18.2049 33.614 16.8557ZM19.856 11.1926C19.0303 9.05748 16.0756 10.08 14.5796 10.7889C14.5819 10.8149 14.5842 10.8409 14.5865 10.867C15.9812 12.2426 17.8427 12.1343 19.856 11.1926ZM15.6588 5.13875C15.4479 4.18539 15.1054 3.24 14.6284 2.30277C14.5064 2.06291 14.6021 1.76896 14.842 1.64684C15.082 1.52472 15.3759 1.62045 15.498 1.86041C16.0399 2.92533 16.4204 4.00051 16.645 5.08496L17.69 5.02808L16.3879 8.03011L14.7675 5.18726L15.6588 5.13875Z" fill="#134A85"/>
<path fill-rule="evenodd" clip-rule="evenodd" d="M13.6274 11.1008C13.7855 12.7258 13.5534 13.9432 12.5752 15.2635C11.4491 17.0596 10.0393 18.7298 8.06956 19.6308C7.69672 19.8644 7.61325 20.0281 7.6001 20.4355C7.61474 21.9357 8.88247 23.1875 10.348 23.3314C10.4137 23.3377 10.5063 23.3339 10.6132 23.2859C10.6907 23.2511 10.9462 23.0394 10.9925 23.0007C12.4748 22.1987 13.8191 21.0836 14.9735 19.7428C15.5087 25.3045 17.562 30.7942 17.1634 36.3891C16.8778 40.0797 16.0881 44.0578 13.7541 47.0389C13.504 47.512 13.4706 47.7664 13.9086 48.1552C16.1154 49.4304 19.0429 49.9753 21.2785 48.6049C22.5133 47.7616 22.8189 46.1459 22.9967 44.7747C23.4058 40.9827 23.4735 37.1035 23.267 33.2963C23.2557 33.17 23.1865 32.9141 23.1475 32.6994C31.7556 33.4583 31.6051 46.2049 41.0067 46.8299C41.2736 46.8637 41.5177 46.674 41.5511 46.4068C41.5845 46.1397 41.3948 45.8956 41.1276 45.8621C31.9432 45.2274 32.021 31.2841 22.4692 31.7889C21.8731 32.0432 22.2434 32.9829 22.2974 33.4058C22.4002 34.3168 22.3962 35.2406 22.3896 36.156C22.3113 39.5902 22.5165 43.1206 21.6571 46.4753C20.6875 49.2878 16.7348 48.57 14.6412 47.4646C17.0281 44.3907 17.8348 40.2532 18.1368 36.4584C18.5712 30.3607 16.1267 24.3849 15.8486 18.309C15.8358 17.8321 15.1584 17.6641 14.9334 18.0969C13.9601 19.7742 12.1529 21.2528 10.4544 22.1868C10.4286 22.2031 10.3405 22.2762 10.2697 22.3359C9.34964 22.1677 8.61263 21.4011 8.58733 20.4629C10.6667 19.4898 12.1941 17.7043 13.393 15.7961C14.1647 14.7126 14.6642 13.5137 14.6372 12.1616C16.1598 13.1658 18.0328 13.0643 20.0435 12.1787C20.0836 13.3629 19.675 14.6199 19.6183 15.7756C19.4446 19.3383 20.3507 26.2232 24.4278 27.9901C27.5079 29.2138 30.788 28.9618 32.5776 26.0475C33.3991 24.8216 33.9766 23.3313 34.7678 22.0633C36.1434 19.8586 38.8137 18.2685 41.4574 18.6727C42.0813 18.758 42.2489 17.8243 41.6049 17.7083C38.5832 17.2462 35.5124 19.0269 33.9401 21.5469C32.4179 23.9088 31.8076 27.2561 28.4696 27.6794C27.2306 27.7991 25.9612 27.533 24.8059 27.0909C21.1417 25.3888 20.4669 19.0303 20.5926 15.8281C20.7628 13.8589 21.7025 11.2571 20.0236 9.70982C18.3707 8.22594 15.4832 9.21227 13.834 10.0741C13.4429 10.2801 13.6155 10.7475 13.6274 11.1008ZM32.755 45.9304C31.1465 44.5812 29.8326 42.7545 28.8363 40.4192C28.7306 40.1716 28.8459 39.8848 29.0936 39.7791C29.3412 39.6734 29.628 39.7888 29.7337 40.0364C30.6399 42.1607 31.8208 43.8385 33.2696 45.0875L33.7348 44.3257L35.4702 47.0998L32.2096 46.8237L32.755 45.9304ZM33.6348 37.3761C34.2679 38.1061 34.904 38.8359 35.3957 39.6713C36.8206 42.0792 38.6583 44.7188 41.8881 44.3885C42.1561 44.3618 42.3517 44.1226 42.325 43.8547C42.2983 43.5868 42.0591 43.391 41.7912 43.4178C38.1538 43.7218 37.0072 39.8738 35.1095 37.5993C37.2652 37.8903 39.4422 37.3006 41.519 36.7964C41.7809 36.7337 41.9426 36.4704 41.88 36.2085C41.8173 35.9466 41.5539 35.7849 41.2921 35.8475C39.6793 36.2333 37.9834 36.7113 36.3104 36.6986C35.7434 36.6942 35.1493 36.6611 34.6025 36.5016C34.503 36.4725 34.1333 36.2954 33.9399 36.2492C33.4771 36.1383 33.1452 36.4686 33.218 36.8687C33.2353 36.9492 33.2773 37.0481 33.3631 37.1435C33.4232 37.2109 33.6122 37.3586 33.6348 37.3761ZM41.459 33.2261C37.7174 34.1456 33.4554 33.6929 30.2168 31.5123C33.2518 29.1686 37.6452 29.8264 40.9742 31.1404C41.2245 31.2392 41.5081 31.1161 41.607 30.8657C41.7059 30.6152 41.5828 30.3318 41.3324 30.2328C37.7724 28.767 31.5831 28.007 28.967 31.5157C28.9671 31.653 29.025 31.7839 29.1264 31.8762C32.5572 34.6517 37.512 35.1868 41.7087 34.1693C42.3241 33.9889 42.0876 33.0781 41.459 33.2261ZM35.022 27.5115C38.3254 26.9625 39.7794 27.8387 42.8183 28.538C43.0825 28.5897 43.339 28.4173 43.3907 28.1531C43.4424 27.8889 43.2707 27.6324 43.0062 27.5805C40.4765 27.006 38.1693 26.001 35.503 26.4764C37.0129 23.9438 39.6812 21.9212 42.7017 21.9368C42.9709 21.9382 43.1906 21.7207 43.192 21.4515C43.1935 21.1822 42.9761 20.9625 42.7067 20.9611C39.0021 20.9421 35.7427 23.636 34.1944 26.8517C34.0562 27.177 34.1864 27.4247 34.4598 27.5518C34.5246 27.5774 34.6266 27.6007 34.7554 27.5809C34.821 27.5709 34.996 27.5192 35.022 27.5115ZM33.614 16.8557L33.0687 15.9625L36.3293 15.6863L34.5938 18.4605L34.1288 17.6987C32.6799 18.9476 31.499 20.6255 30.5927 22.7497C30.4871 22.9974 30.2004 23.1126 29.9526 23.007C29.705 22.9014 29.5899 22.6146 29.6954 22.3669C30.6916 20.0315 32.0055 18.2049 33.614 16.8557ZM19.856 11.1926C19.0303 9.05748 16.0756 10.08 14.5796 10.7889C14.5819 10.8149 14.5842 10.8409 14.5865 10.867C15.9812 12.2426 17.8427 12.1343 19.856 11.1926ZM15.6588 5.13875C15.4479 4.18539 15.1054 3.24 14.6284 2.30277C14.5064 2.06291 14.6021 1.76896 14.842 1.64684C15.082 1.52472 15.3759 1.62045 15.498 1.86041C16.0399 2.92533 16.4204 4.00051 16.645 5.08496L17.69 5.02808L16.3879 8.03011L14.7675 5.18726L15.6588 5.13875Z" stroke="#134A85" stroke-width="0.4" mask="url(#path-1-outside-1_3059_12800)"/>
</svg>
