<svg width="51" height="51" viewBox="0 0 51 51" fill="none" xmlns="http://www.w3.org/2000/svg">
<path d="M34.943 43.5885L29.6836 41.9549C28.807 41.676 28.3289 40.7994 28.5281 39.9229L33.3492 21.276C33.7078 19.8814 33.5086 18.3674 32.7516 17.1322L23.986 2.23066C23.8664 2.03145 23.6274 1.87207 23.3883 1.87207H6.09611C5.65783 1.87207 5.29923 2.31035 5.41877 2.74863C7.33127 10.2791 11.5149 13.5463 15.1805 16.4549C17.0133 17.8893 18.7664 19.2838 20.0414 21.0768C18.5672 24.6627 18.5274 29.3643 18.4875 33.5479C18.4477 36.8549 18.4477 40.0025 17.6508 41.5564C16.4555 43.8674 16.2961 46.0588 17.2125 47.533C17.85 48.5689 18.9656 49.1666 20.161 49.1268C22.8703 49.1268 23.5477 48.4494 25.8985 48.4096C27.0938 48.3697 28.2891 48.5291 29.4445 48.808C31.118 49.2064 32.3133 49.1268 32.4328 49.1268C34.1063 49.1268 35.5805 48.1307 36.2578 46.6166C36.8555 45.3814 36.218 43.9869 34.943 43.5885ZM35.0227 46.0189C34.5445 47.015 33.5485 47.6924 32.4328 47.6924C31.3969 47.6924 30.5602 47.6127 29.7633 47.4135C28.4883 47.0947 27.2133 46.9752 25.8985 46.9752C23.3086 46.9752 22.711 47.6525 20.161 47.6924C19.4438 47.7322 18.7664 47.3736 18.4078 46.776C17.7703 45.74 17.9297 43.9869 18.886 42.1541C19.8422 40.3213 19.8422 37.1736 19.882 33.508C19.9219 29.3244 19.9617 24.583 21.4758 21.2361C21.5555 21.0369 21.5555 20.758 21.436 20.5588C20.0414 18.4471 18.1289 16.933 16.0969 15.2994C12.5906 12.5104 8.92502 9.68145 7.05236 3.22676H22.9899L31.5563 17.7299C32.1141 18.6463 32.2735 19.7619 31.9945 20.8377L27.2133 39.5643C26.8149 41.158 27.7313 42.7916 29.2852 43.2697L34.5445 44.9033C35.0227 45.0627 35.2617 45.5807 35.0227 46.0189Z" fill="#134A85"/>
<path d="M11.0769 6.77302C10.8777 6.45427 10.4793 6.33474 10.1207 6.49411C9.80193 6.69333 9.6824 7.09177 9.84177 7.45036C10.1207 7.92849 10.5191 8.52615 10.9176 9.1238C11.1566 9.44255 11.5949 9.4824 11.9136 9.24333C12.1926 9.00427 12.2722 8.60583 12.073 8.28708C11.7144 7.80896 11.3957 7.29099 11.0769 6.77302Z" fill="#134A85"/>
<path d="M22.3121 17.6505C21.9535 18.6865 22.4714 19.8818 23.5472 20.2404C24.3042 20.5193 25.141 20.3201 25.6988 19.7224L26.2566 19.1247L27.0136 19.324C28.0894 19.6029 29.1652 18.9255 29.4441 17.8497C29.6832 16.8536 29.1652 15.8576 28.2089 15.499L26.8542 14.981L20.5988 5.41849C20.3996 5.09974 19.9613 4.98021 19.6425 5.17943C19.3238 5.37865 19.2042 5.81693 19.4433 6.17552L25.8183 15.9372C25.898 16.0568 26.0175 16.1365 26.1371 16.2161L27.7308 16.8536C27.9699 16.9333 28.1292 17.1724 28.1292 17.4115C28.1292 17.8099 27.7707 18.0888 27.3722 18.0091L26.2168 17.7302C25.9777 17.6904 25.6988 17.7302 25.5394 17.9294L24.7027 18.7661C24.4636 19.0052 24.0652 19.0451 23.8261 18.806C23.6269 18.6466 23.5871 18.3677 23.6667 18.1286L24.1847 16.7341C24.2644 16.4951 24.2246 16.256 24.0652 16.0568L18.3675 8.64583C18.1285 8.32708 17.6902 8.28724 17.3714 8.5263C17.0925 8.76536 17.0128 9.1638 17.2519 9.48255L22.7105 16.6146L22.3121 17.6505Z" fill="#134A85"/>
<path d="M29.285 23.8262C30.042 23.0293 30.042 21.7543 29.2451 20.9973C28.5279 20.2801 27.3725 20.2402 26.5756 20.8777L25.9779 21.3559L25.2209 21.0371C24.185 20.6387 22.9897 21.1168 22.5912 22.1527C22.2725 22.9098 22.4717 23.7465 23.0295 24.3441L23.8264 25.141L21.7944 37.9309C21.7545 38.3293 21.9936 38.648 22.392 38.7277C22.7506 38.7676 23.1092 38.5285 23.1889 38.1699L25.3006 25.0215C25.3404 24.8223 25.2608 24.5832 25.1014 24.4238L24.0654 23.348C23.8264 23.109 23.8264 22.7105 24.0654 22.4715C24.2647 22.3121 24.5037 22.2324 24.7428 22.352L25.8983 22.8301C26.1373 22.9098 26.3764 22.8699 26.5756 22.7504L27.492 22.0332C27.7709 21.834 28.1295 21.8738 28.3686 22.1527C28.5678 22.3918 28.5279 22.7504 28.3287 22.9496L27.1334 24.1848C27.0537 24.3043 26.974 24.4238 26.9342 24.5434L25.1811 35.6996C25.1014 36.098 25.3803 36.4566 25.7787 36.4965C26.1772 36.5762 26.5358 36.2973 26.5756 35.8988L28.3287 24.9816L29.285 23.8262Z" fill="#134A85"/>
<path d="M45.5816 21.3162C45.5019 20.9576 45.1034 20.7186 44.7448 20.7982L41.1589 21.635L40.6011 20.4397C40.4417 20.1607 40.123 20.0014 39.8042 20.0811L36.4972 20.8779C36.1386 20.9576 35.8995 21.3561 35.9792 21.7147C36.0589 22.0732 36.4573 22.3123 36.8159 22.2326L39.5652 21.5553L40.123 22.7506C40.2823 23.0295 40.6011 23.1889 40.9198 23.149L45.0636 22.1928C45.4222 22.0732 45.6613 21.6748 45.5816 21.3162Z" fill="#134A85"/>
<path d="M35.9392 16.3353C36.258 16.5744 36.6963 16.4947 36.9353 16.2158L38.6486 13.9447L39.8439 14.5025C40.1228 14.6619 40.4814 14.5424 40.6806 14.3033L43.3103 10.9564C43.5494 10.6775 43.5095 10.1994 43.2306 9.96032C42.9119 9.72126 42.4736 9.7611 42.2345 10.0799L39.9236 12.9884L38.7283 12.4306C38.4494 12.2713 38.0908 12.3908 37.8916 12.6299L35.8197 15.3392C35.5806 15.658 35.6205 16.0963 35.9392 16.3353Z" fill="#134A85"/>
<path d="M41.7563 16.0568L40.3219 17.4514L39.2062 16.7342C38.9273 16.535 38.5687 16.5748 38.3297 16.8139L37.0148 18.1686C36.7359 18.4475 36.7359 18.8857 37.0148 19.1646C37.2937 19.4436 37.732 19.4436 37.9711 19.1646L38.8875 18.2084L40.0031 18.9256C40.282 19.085 40.6406 19.085 40.8797 18.8459L42.7125 17.0529C42.9914 16.774 42.9914 16.3357 42.7523 16.0568C42.5133 15.7779 42.0352 15.7779 41.7563 16.0568Z" fill="#134A85"/>
</svg>
