<svg width="51" height="51" viewBox="0 0 51 51" fill="none" xmlns="http://www.w3.org/2000/svg">
<path d="M21.1612 41.7583V32.7411C21.1612 30.5801 19.4898 27.9936 17.3994 26.9565C14.4802 25.5081 11.4566 23.1569 9.14465 20.3658C4.39251 14.7129 3.2126 8.02144 10.6618 4.84975C11.5046 4.45392 10.9758 3.22061 10.1084 3.55768C1.92259 6.96589 2.55654 14.7865 8.06211 21.2625C9.99301 23.5935 12.3871 25.6664 14.8492 27.1678C14.0373 27.4531 13.2757 27.9442 12.6213 28.622C10.9257 30.378 10.2443 33.0902 10.7987 35.8772C11.5557 39.6843 13.8715 44.3177 17.7829 44.417C18.5444 44.4169 19.2029 44.2194 19.7556 43.8282V48.7971C19.7556 49.1853 20.0701 49.5 20.4584 49.5C20.8466 49.5 21.1612 49.1853 21.1612 48.7971V41.7757C21.1613 41.7699 21.1613 41.7641 21.1612 41.7583ZM17.7829 43.0111C15.3886 43.0111 13.0312 39.8955 12.1773 35.6029C11.7129 33.2677 12.2569 31.023 13.6324 29.5983C14.5704 28.627 15.7814 28.1641 16.9754 28.3126C18.6661 29.1312 19.7555 30.8622 19.7555 32.7411V41.6153C19.3123 42.5783 18.6997 43.0111 17.7829 43.0111Z" fill="#134A85"/>
<path d="M34.8113 18.4109C35.7376 17.1555 35.8765 15.5109 35.1738 14.119C34.4722 12.7295 33.0689 11.8662 31.5118 11.8662H13.5323C11.9755 11.8662 10.5725 12.7291 9.87088 14.1181C9.16796 15.5096 9.30636 17.1541 10.232 18.4098C13.2415 22.3245 18.5125 26.2145 22.5234 26.137C26.5387 26.2115 31.7878 22.3366 34.8113 18.4109ZM19.3412 24.02C17.0666 22.9538 13.6124 20.6264 11.3635 17.5758C10.7449 16.7369 10.656 15.6813 11.1255 14.7521C11.5936 13.8253 12.4934 13.272 13.5323 13.272H31.5118C32.5509 13.272 33.4508 13.8256 33.919 14.7526C34.3883 15.6822 34.2991 16.7378 33.6802 17.5765C31.4276 20.6295 27.9766 22.9558 25.7058 24.0201C23.6835 24.968 21.3635 24.9681 19.3412 24.02Z" fill="#134A85"/>
<path d="M44.3757 28.3443C41.2893 25.6841 36.3192 25.6742 33.2354 28.3438C33.0359 28.5166 32.8472 28.6986 32.6688 28.8889C31.9716 28.0811 31.1186 27.4937 30.1952 27.1693C36.6045 23.2483 44.7109 13.8167 39.4308 6.78543C34.1931 0.433241 19.7761 0.903475 12.9941 2.58444C12.6186 2.68264 12.3936 3.06657 12.4916 3.44216C12.5897 3.81775 12.9738 4.04255 13.3491 3.94463C19.058 2.35916 29.6427 2.59643 34.5163 4.90618C41.8413 8.1177 40.6105 14.7579 35.9027 20.3654C33.5599 23.1938 30.5083 25.6165 27.5301 27.0125C25.3165 28.0502 23.8861 30.2985 23.8861 32.7406V41.7559C23.886 41.763 23.886 41.7699 23.8861 41.7769V48.7966C23.8861 49.1847 24.2007 49.4994 24.5889 49.4994C24.9772 49.4994 25.2917 49.1847 25.2917 48.7966V43.8276C27.9027 45.441 30.8229 43.6186 32.5188 40.6196C32.941 41.2824 33.431 41.9417 33.9888 42.5967C32.6335 43.4508 31.622 43.9481 31.6105 43.9537C31.2617 44.1239 31.1169 44.5445 31.2871 44.8934L33.3379 49.1042C33.4987 49.4348 33.9477 49.5884 34.2762 49.4294C34.3628 49.3874 36.312 48.4378 38.6249 46.8324C40.746 48.4003 42.5153 49.3399 42.5941 49.3816C42.9371 49.5627 43.3614 49.4319 43.543 49.0896L45.7395 44.9519C45.9213 44.6095 45.7911 44.1844 45.449 44.0019C45.439 43.9965 44.5745 43.5334 43.3918 42.7402C44.179 41.8728 44.8456 40.989 45.3785 40.1052C45.579 39.7728 45.472 39.3409 45.1396 39.1405C44.8072 38.94 44.3754 39.047 44.1747 39.3794C43.5745 40.3747 42.7824 41.3766 41.8206 42.3572C39.5882 44.5408 37.0413 46.3743 34.2875 47.8432L32.85 44.8919C35.1373 43.6543 37.4074 42.1724 39.2302 40.3071C40.9971 38.5712 41.8131 37.0666 42.154 35.8816C42.3289 35.3899 43.2682 32.5905 42.8666 30.2436C42.7659 29.6551 42.5922 29.1185 42.3566 28.644C45.2772 30.1965 46.2798 33.7672 45.2895 36.9036C45.1785 37.2756 45.39 37.6671 45.762 37.7781C46.1339 37.8894 46.5255 37.6777 46.6364 37.3057C47.6334 34.1681 46.8825 30.417 44.3757 28.3443ZM44.1778 44.8959L42.6385 47.7958C42.0204 47.437 40.9917 46.8077 39.8136 45.9594C40.4451 45.4693 41.3939 44.6971 42.3896 43.7591C43.1151 44.2541 43.7456 44.6414 44.1778 44.8959ZM27.2643 43.0108C26.3476 43.0108 25.735 42.578 25.2917 41.6152V32.7407C25.2917 30.8606 26.3826 29.1285 28.0751 28.3107C29.4466 28.1413 30.8303 28.7904 31.787 30.0304C30.0864 32.7145 30.2628 36.2443 31.7006 39.1574C30.5328 41.5767 28.8897 43.0108 27.2643 43.0108ZM31.9703 34.4358C31.9651 31.9337 33.172 29.7853 35.2581 28.6388C35.0212 29.1147 34.8466 29.6532 34.7455 30.2437C34.313 32.7713 35.4365 35.8257 35.4846 35.9545C35.4855 35.9567 35.4866 35.9588 35.4874 35.961C35.7902 37.0059 36.4462 38.2977 37.756 39.784C37.0213 40.4749 36.1697 41.1472 35.1756 41.8206C33.0484 39.3695 31.9703 36.8875 31.9703 34.4358ZM40.8285 35.4134C40.3732 36.7071 39.6893 37.7771 38.7499 38.7866C32.5735 31.6233 42.1603 30.493 40.8285 35.4134ZM41.4813 30.4807C41.57 30.9985 41.5771 31.5541 41.5375 32.0999C40.1861 30.6574 37.4171 30.652 36.0747 32.1089C36.0347 31.561 36.0418 31.0023 36.131 30.4808C36.7351 26.9518 40.8798 26.9665 41.4813 30.4807Z" fill="#134A85"/>
</svg>
