<svg width="51" height="51" viewBox="0 0 51 51" fill="none" xmlns="http://www.w3.org/2000/svg">
<path d="M21.1612 41.7583V32.7411C21.1612 30.5801 19.4898 27.9936 17.3994 26.9565C14.4802 25.5081 11.4566 23.1569 9.14465 20.3658C4.39251 14.7129 3.2126 8.02144 10.6618 4.84975C11.5046 4.45392 10.9758 3.22061 10.1084 3.55768C1.92259 6.96589 2.55654 14.7865 8.06211 21.2625C9.99301 23.5935 12.3871 25.6664 14.8492 27.1678C14.0373 27.4531 13.2757 27.9442 12.6213 28.622C10.9257 30.378 10.2443 33.0902 10.7987 35.8772C11.5557 39.6843 13.8715 44.3177 17.7829 44.417C18.5444 44.4169 19.2029 44.2194 19.7556 43.8282V48.7971C19.7556 49.1853 20.0701 49.5 20.4584 49.5C20.8466 49.5 21.1612 49.1853 21.1612 48.7971V41.7757C21.1613 41.7699 21.1613 41.7641 21.1612 41.7583ZM17.7829 43.0111C15.3886 43.0111 13.0312 39.8955 12.1773 35.6029C11.7129 33.2677 12.2569 31.023 13.6324 29.5983C14.5704 28.627 15.7814 28.1641 16.9754 28.3126C18.6661 29.1312 19.7555 30.8622 19.7555 32.7411V41.6153C19.3123 42.5783 18.6997 43.0111 17.7829 43.0111Z" fill="#134A85"/>
<path d="M34.8112 18.4109C35.7375 17.1555 35.8764 15.5109 35.1736 14.119C34.472 12.7295 33.0688 11.8662 31.5116 11.8662H13.5322C11.9754 11.8662 10.5724 12.7291 9.87075 14.1181C9.16783 15.5096 9.30624 17.1541 10.2319 18.4098C13.2414 22.3245 18.5123 26.2145 22.5233 26.137C26.5385 26.2115 31.7877 22.3366 34.8112 18.4109ZM19.3411 24.02C17.0665 22.9538 13.6123 20.6264 11.3634 17.5758C10.7448 16.7369 10.6559 15.6813 11.1253 14.7521C11.5934 13.8253 12.4932 13.272 13.5322 13.272H31.5116C32.5508 13.272 33.4507 13.8256 33.9189 14.7526C34.3882 15.6822 34.299 16.7378 33.6801 17.5765C31.4275 20.6295 27.9765 22.9558 25.7056 24.0201C23.6834 24.968 21.3634 24.9681 19.3411 24.02Z" fill="#134A85"/>
<path d="M44.3755 28.3443C41.2892 25.6841 36.3191 25.6742 33.2353 28.3438C33.0357 28.5166 32.8471 28.6986 32.6687 28.8889C31.9715 28.0811 31.1184 27.4937 30.1951 27.1693C36.6044 23.2483 44.7108 13.8167 39.4307 6.78543C34.193 0.433241 19.7759 0.903475 12.994 2.58444C12.6184 2.68264 12.3934 3.06657 12.4915 3.44216C12.5896 3.81775 12.9737 4.04255 13.349 3.94463C19.0579 2.35916 29.6426 2.59643 34.5162 4.90618C41.8411 8.1177 40.6103 14.7579 35.9026 20.3654C33.5598 23.1938 30.5082 25.6165 27.53 27.0125C25.3164 28.0502 23.886 30.2985 23.886 32.7406V41.7559C23.8859 41.763 23.8859 41.7699 23.886 41.7769V48.7966C23.886 49.1847 24.2006 49.4994 24.5888 49.4994C24.977 49.4994 25.2916 49.1847 25.2916 48.7966V43.8276C27.9026 45.441 30.8228 43.6186 32.5187 40.6196C32.9409 41.2824 33.4308 41.9417 33.9887 42.5967C32.6334 43.4508 31.6218 43.9481 31.6104 43.9537C31.2616 44.1239 31.1167 44.5445 31.2869 44.8934L33.3378 49.1042C33.4986 49.4348 33.9475 49.5884 34.2761 49.4294C34.3627 49.3874 36.3119 48.4378 38.6248 46.8324C40.7459 48.4003 42.5152 49.3399 42.594 49.3816C42.937 49.5627 43.3613 49.4319 43.5429 49.0896L45.7394 44.9519C45.9212 44.6095 45.791 44.1844 45.4489 44.0019C45.4389 43.9965 44.5744 43.5334 43.3917 42.7402C44.1788 41.8728 44.8455 40.989 45.3784 40.1052C45.5789 39.7728 45.4719 39.3409 45.1395 39.1405C44.8071 38.94 44.3752 39.047 44.1746 39.3794C43.5744 40.3747 42.7823 41.3766 41.8205 42.3572C39.5881 44.5408 37.0412 46.3743 34.2873 47.8432L32.8499 44.8919C35.1372 43.6543 37.4072 42.1724 39.2301 40.3071C40.997 38.5712 41.8129 37.0666 42.1538 35.8816C42.3288 35.3899 43.2681 32.5905 42.8665 30.2436C42.7658 29.6551 42.592 29.1185 42.3565 28.644C45.2771 30.1965 46.2797 33.7672 45.2894 36.9036C45.1783 37.2756 45.3899 37.6671 45.7619 37.7781C46.1338 37.8894 46.5253 37.6777 46.6363 37.3057C47.6333 34.1681 46.8824 30.417 44.3755 28.3443ZM44.1777 44.8959L42.6383 47.7958C42.0203 47.437 40.9916 46.8077 39.8134 45.9594C40.4449 45.4693 41.3938 44.6971 42.3894 43.7591C43.1149 44.2541 43.7455 44.6414 44.1777 44.8959ZM27.2642 43.0108C26.3475 43.0108 25.7349 42.578 25.2916 41.6152V32.7407C25.2916 30.8606 26.3825 29.1285 28.075 28.3107C29.4465 28.1413 30.8302 28.7904 31.7869 30.0304C30.0863 32.7145 30.2627 36.2443 31.7005 39.1574C30.5327 41.5767 28.8895 43.0108 27.2642 43.0108ZM31.9702 34.4358C31.965 31.9337 33.1719 29.7853 35.258 28.6388C35.0211 29.1147 34.8465 29.6532 34.7454 30.2437C34.3129 32.7713 35.4364 35.8257 35.4845 35.9545C35.4853 35.9567 35.4865 35.9588 35.4873 35.961C35.7901 37.0059 36.446 38.2977 37.7558 39.784C37.0211 40.4749 36.1696 41.1472 35.1754 41.8206C33.0483 39.3695 31.9702 36.8875 31.9702 34.4358ZM40.8284 35.4134C40.3731 36.7071 39.6892 37.7771 38.7498 38.7866C32.5734 31.6233 42.1601 30.493 40.8284 35.4134ZM41.4812 30.4807C41.5698 30.9985 41.577 31.5541 41.5373 32.0999C40.186 30.6574 37.417 30.652 36.0746 32.1089C36.0346 31.561 36.0417 31.0023 36.1309 30.4808C36.735 26.9518 40.8797 26.9665 41.4812 30.4807Z" fill="#134A85"/>
</svg>
