<svg width="51" height="51" viewBox="0 0 51 51" fill="none" xmlns="http://www.w3.org/2000/svg">
<path d="M43.2148 31.4792C41.2835 31.4791 39.4885 32.3057 38.2429 33.7313C37.9782 33.4301 37.6875 33.1577 37.3775 32.9125C39.3955 30.992 40.838 28.7173 41.6283 26.2445C42.9242 26.2203 44.1623 25.7415 45.0976 24.8851C46.0355 24.0264 46.5475 22.8968 46.5392 21.7098C46.5392 20.6506 46.1339 19.6399 45.3936 18.8298C45.3071 13.9167 43.1403 9.28768 39.2673 5.76549C38.9619 5.48788 38.4895 5.51039 38.212 5.81559C37.9344 6.1208 37.9569 6.59334 38.2621 6.87095C41.6969 9.99461 43.6746 14.0517 43.8849 18.3671C43.1938 18.3287 42.5059 18.2387 41.8292 18.0978C40.6168 14.914 37.3674 11.1942 32.8068 10.1753C32.412 10.0871 32.0191 10.3288 31.9197 10.7208C31.6523 11.7749 31.1636 12.8803 30.5065 13.9175C29.5643 15.4044 28.3827 16.6008 27.1792 17.2866C26.1386 17.8798 25.2035 18.0054 24.6137 17.6319C23.9811 17.2309 23.7036 16.248 23.8526 14.9349C23.8859 14.6407 23.7424 14.3545 23.4865 14.2053C23.2307 14.0562 22.9108 14.0722 22.6713 14.2462C19.8613 16.287 17.093 16.5388 16.2703 15.4938C15.5879 14.6269 16.0641 12.8748 17.4554 11.1339C17.6382 10.9049 17.6704 10.5903 17.5377 10.3291C17.405 10.0679 17.1324 9.90745 16.839 9.92109C14.262 10.0339 11.7819 11.0445 9.66681 12.8437C7.96508 14.2914 6.60113 16.1932 5.87627 18.115C5.25969 18.2557 4.59051 18.34 3.82641 18.3726C4.28142 8.99732 13.0914 1.49414 23.8557 1.49414C28.1007 1.49414 32.158 2.64831 35.5888 4.83185C35.937 5.05348 36.3986 4.95088 36.6201 4.60275C36.8416 4.25462 36.739 3.79283 36.391 3.57139C32.7201 1.23496 28.3854 0 23.8557 0C18.1187 0 12.7209 1.97924 8.65657 5.57324C4.64779 9.11804 2.40568 13.8155 2.31792 18.8297C1.57743 19.6398 1.17222 20.6501 1.17222 21.7045C1.16395 22.8967 1.67584 24.0261 2.61376 24.8849C3.55149 25.7436 4.79362 26.2228 6.09322 26.2447C7.54443 30.7398 11.1018 34.4506 15.7503 36.4765C12.1428 38.725 9.57825 42.4091 8.77112 46.6058C8.5968 47.5121 8.83397 48.4398 9.42157 49.1512C10.0089 49.8624 10.8747 50.2702 11.7968 50.2702H15.0254C15.4381 50.2702 15.7725 49.9358 15.7725 49.5231C15.7725 49.1104 15.4381 48.776 15.0254 48.776H11.7969C11.3219 48.776 10.8761 48.566 10.5735 48.1997C10.2707 47.833 10.1485 47.355 10.2385 46.8879C11.0407 42.716 13.7678 39.1045 17.5589 37.1678C17.4215 40.7191 20.3017 43.7058 23.8558 43.6981C25.3386 43.6981 26.7556 43.1771 27.8785 42.244C29.2393 44.7162 31.5626 47.0489 33.8635 48.776H18.5118C18.0991 48.776 17.7647 49.1104 17.7647 49.5231C17.7647 49.9358 18.0991 50.2702 18.5118 50.2702H36.0961C36.2943 50.3863 36.4896 50.4963 36.6813 50.5996C37.177 50.8666 37.7204 50.9999 38.2638 50.9999C38.8103 50.9999 39.357 50.8648 39.8548 50.5948C44.0005 48.3461 49.8354 42.9776 49.8281 38.0826C49.8226 34.4393 46.857 31.4792 43.2148 31.4792ZM44.3274 19.8776C44.7919 20.4046 45.045 21.0463 45.045 21.7149C45.0503 22.479 44.7107 23.2136 44.0886 23.7831C43.5248 24.2993 42.802 24.6221 42.0266 24.7201C42.2278 23.7414 42.3316 22.7385 42.3316 21.7198C42.3316 21.04 42.2833 20.3581 42.1889 19.6819C42.8957 19.7968 43.6108 19.8625 44.3274 19.8776ZM3.62281 23.7829C3.00075 23.2134 2.66108 22.4789 2.66646 21.7098C2.66646 21.0466 2.91897 20.4061 3.38215 19.8796C4.16687 19.8676 4.86862 19.8106 5.51927 19.7052C5.42703 20.3737 5.37992 21.0478 5.37992 21.7198C5.37992 22.7446 5.4871 23.7476 5.6901 24.721C4.91275 24.6239 4.18789 24.3004 3.62281 23.7829ZM6.87396 21.7198C6.87396 20.7867 6.97436 19.849 7.17149 18.9318C8.21759 15.8304 11.3218 12.4826 15.3255 11.6179C14.2786 13.4854 14.1719 15.2437 15.0961 16.4178C16.3992 18.0732 19.378 17.9474 22.3546 16.2315C22.4856 17.4347 22.9894 18.3714 23.8138 18.8937C24.9017 19.5832 26.3594 19.4732 27.9187 18.5846C29.3307 17.78 30.6977 16.4065 31.7682 14.717C32.3621 13.7799 32.8353 12.7875 33.1571 11.8097C36.9618 12.9464 39.6224 16.2133 40.5383 18.9254C40.7365 19.8445 40.8373 20.7844 40.8373 21.7197C40.8229 25.7246 39.1131 29.3139 36.0565 32.0999C35.2028 31.7063 34.2612 31.4938 33.284 31.4938C33.2807 31.4938 33.2773 31.4938 33.2738 31.4938C30.2174 31.4984 27.6426 33.587 26.8923 36.4102C25.8933 36.5688 24.8741 36.6496 23.8554 36.6496C14.492 36.6497 6.87396 29.9522 6.87396 21.7198ZM23.8557 42.2041C21.2662 42.2041 19.1497 40.146 19.0529 37.5798C20.5851 37.9468 22.1949 38.1438 23.8557 38.1438C24.7994 38.1438 25.7438 38.0794 26.6745 37.9527C26.646 38.9145 26.8505 39.8675 27.2168 40.8301C26.3211 41.7074 25.1197 42.2041 23.8557 42.2041ZM39.1423 49.2814C38.594 49.579 37.9388 49.5799 37.3897 49.284C33.1564 46.8023 28.5752 42.8855 28.1647 38.115C28.1605 35.2921 30.4536 32.9922 33.2763 32.9879C35.0458 32.9847 36.667 33.8825 37.6133 35.3763C37.7503 35.5929 37.9885 35.7241 38.2447 35.7241C38.5024 35.7237 38.7408 35.5917 38.8774 35.3744C39.8204 33.8735 41.4389 32.9757 43.2071 32.9731H43.2148C46.0338 32.9731 48.3297 35.2647 48.334 38.0847C48.3396 41.9181 43.5674 46.8814 39.1423 49.2814Z" fill="#134A85"/>
<path d="M40.829 39.3485H40.5677V39.0872C40.5677 38.1845 39.8334 37.4502 38.9307 37.4502H37.5681C36.6654 37.4502 35.9311 38.1845 35.9311 39.0872V39.3485H35.6697C34.767 39.3485 34.0327 40.0829 34.0327 40.9855V42.3482C34.0327 43.2508 34.767 43.9852 35.6697 43.9852H35.9311V44.2465C35.9311 45.1492 36.6654 45.8835 37.5681 45.8835H38.9307C39.8334 45.8835 40.5677 45.1492 40.5677 44.2465V43.9852H40.829C41.7316 43.9852 42.466 43.2508 42.466 42.3482V40.9855C42.466 40.0829 41.7316 39.3485 40.829 39.3485ZM40.9719 42.3482C40.9719 42.427 40.9078 42.4911 40.8289 42.4911H39.8205C39.4078 42.4911 39.0734 42.8255 39.0734 43.2382V44.2466C39.0734 44.3254 39.0093 44.3896 38.9305 44.3896H37.5679C37.4891 44.3896 37.4249 44.3254 37.4249 44.2466V43.2382C37.4249 42.8255 37.0905 42.4911 36.6778 42.4911H35.6694C35.5906 42.4911 35.5265 42.427 35.5265 42.3482V40.9855C35.5265 40.9067 35.5906 40.8426 35.6694 40.8426H36.6778C37.0905 40.8426 37.4249 40.5082 37.4249 40.0955V39.0872C37.4249 39.0084 37.4891 38.9442 37.5679 38.9442H38.9305C39.0093 38.9442 39.0734 39.0084 39.0734 39.0872V40.0956C39.0734 40.5083 39.4078 40.8427 39.8205 40.8427H40.8289C40.9078 40.8427 40.9719 40.9068 40.9719 40.9856V42.3482Z" fill="#134A85"/>
<path d="M17.6353 21.9697C17.2226 21.9697 16.8882 22.3041 16.8882 22.7168V23.9121C16.8882 24.3248 17.2226 24.6592 17.6353 24.6592C18.0479 24.6592 18.3823 24.3248 18.3823 23.9121V22.7168C18.3823 22.3041 18.0478 21.9697 17.6353 21.9697Z" fill="#134A85"/>
<path d="M30.0762 24.6592C30.4889 24.6592 30.8232 24.3248 30.8232 23.9121V22.7168C30.8232 22.3041 30.4889 21.9697 30.0762 21.9697C29.6635 21.9697 29.3291 22.3041 29.3291 22.7168V23.9121C29.3291 24.3247 29.6635 24.6592 30.0762 24.6592Z" fill="#134A85"/>
<path d="M26.0589 24.3668C26.33 24.0558 26.2974 23.5838 25.9864 23.3128C25.6753 23.0417 25.2033 23.0741 24.9324 23.3853C24.6607 23.6972 24.2681 23.8761 23.8557 23.8761C23.4432 23.8761 23.0508 23.6972 22.779 23.3853C22.508 23.0741 22.0361 23.0419 21.7251 23.3128C21.414 23.5838 21.3815 24.0558 21.6526 24.3668C22.2082 25.0045 23.0111 25.3701 23.8557 25.3701C24.7003 25.3701 25.5033 25.0045 26.0589 24.3668Z" fill="#134A85"/>
</svg>
