<svg width="51" height="51" viewBox="0 0 51 51" fill="none" xmlns="http://www.w3.org/2000/svg">
<g clip-path="url(#clip0_3059_12834)">
<path d="M31.45 8.5C30.8756 8.49632 30.3035 8.57241 29.75 8.7261V4.25C29.75 1.90279 27.8472 0 25.5 0C23.1528 0 21.25 1.90279 21.25 4.25V8.7261C20.6965 8.57241 20.1244 8.49632 19.55 8.5C4.63335 8.5 0 34.3918 0 43.8243C0 46.7381 0.7548 48.7161 2.30605 49.8704C3.4944 50.6749 4.91304 51.0691 6.3461 50.9932C9.0661 50.9932 12.4857 50.0582 16.394 48.8886C24.8005 46.3666 24.724 41.9611 24.6619 38.0741C24.656 37.7247 24.65 37.3745 24.65 37.0243V20.4H26.35V37.0243C26.35 37.3745 26.3441 37.7247 26.3381 38.0741C26.2735 41.9611 26.1996 46.3666 34.6061 48.8886C38.5161 50.0607 41.9365 50.9932 44.6539 50.9932C46.0869 51.0689 47.5055 50.6746 48.694 49.8704C50.2452 48.7161 51 46.7381 51 43.8243C51 34.3918 46.3666 8.5 31.45 8.5ZM15.906 47.26C10.3462 48.9277 5.5607 50.173 3.32095 48.5061C2.2304 47.6952 1.7 46.1635 1.7 43.8243C1.7 35.2062 6.0945 10.2 19.55 10.2C20.4759 10.1119 21.3929 10.4417 22.0506 11.0994C22.7083 11.7571 23.0381 12.6741 22.95 13.6V37.0243C22.95 37.3839 22.9559 37.7434 22.9619 38.103C23.0248 41.8617 23.0784 45.1078 15.906 47.26ZM24.65 18.7V13.6C24.6957 12.0836 24.0743 10.6235 22.95 9.605V4.25C22.95 2.84167 24.0917 1.7 25.5 1.7C26.9083 1.7 28.05 2.84167 28.05 4.25V9.605C26.9257 10.6235 26.3043 12.0836 26.35 13.6V18.7H24.65ZM47.6791 48.5061C45.4384 50.1738 40.6538 48.9311 35.0939 47.26C27.9216 45.1078 27.9752 41.8617 28.0389 38.103C28.0449 37.7434 28.0508 37.3839 28.0508 37.0243V13.6C27.9628 12.6741 28.2926 11.7571 28.9503 11.0994C29.608 10.4417 30.5249 10.1119 31.4508 10.2C44.9063 10.2 49.3008 35.2062 49.3008 43.8243C49.3 46.1635 48.7696 47.6952 47.6791 48.5061Z" fill="#134A85"/>
<path d="M10.0998 36.9507C10.2478 36.6742 10.2314 36.3386 10.0573 36.0778L8.3573 33.5278C8.18876 33.2751 7.89823 33.1316 7.59515 33.1512C7.29207 33.1708 7.02249 33.3507 6.88795 33.6229C6.75341 33.8952 6.77436 34.2186 6.9429 34.4713L7.7623 35.6995H5.9501C5.48066 35.6995 5.1001 36.0801 5.1001 36.5495C5.1001 37.019 5.48066 37.3995 5.9501 37.3995H9.3501C9.66365 37.3996 9.9518 37.2271 10.0998 36.9507Z" fill="#134A85"/>
<path d="M19.5499 35.6996H17.7377L18.5571 34.4714C18.8177 34.0808 18.7123 33.553 18.3217 33.2924C17.9311 33.0319 17.4033 33.1373 17.1427 33.5279L15.4427 36.0779C15.2687 36.3387 15.2524 36.6741 15.4003 36.9506C15.5483 37.2271 15.8364 37.3997 16.1499 37.3996H19.5499C20.0194 37.3996 20.3999 37.0191 20.3999 36.5496C20.3999 36.0802 20.0194 35.6996 19.5499 35.6996Z" fill="#134A85"/>
<path d="M16.5298 40.0389C15.3468 39.472 14.0605 39.1524 12.7498 39.0996C11.4394 39.151 10.1532 39.4692 8.96985 40.0346C8.5497 40.2442 8.37902 40.7547 8.58862 41.1749C8.79823 41.595 9.30875 41.7657 9.7289 41.5561C10.6764 41.1079 11.7029 40.8508 12.7498 40.7996C13.7973 40.8535 14.8238 41.1135 15.7707 41.5646C16.1909 41.7742 16.7014 41.6035 16.911 41.1834C17.1206 40.7632 16.9499 40.2527 16.5298 40.0431V40.0389Z" fill="#134A85"/>
<path d="M35.5998 36.9508C35.7478 36.6743 35.7314 36.3387 35.5573 36.0779L33.8573 33.5279C33.5968 33.1373 33.0689 33.0319 32.6783 33.2924C32.2878 33.553 32.1824 34.0808 32.4429 34.4714L33.2623 35.6996H31.4501C30.9807 35.6996 30.6001 36.0802 30.6001 36.5496C30.6001 37.0191 30.9807 37.3996 31.4501 37.3996H34.8501C35.1636 37.3997 35.4518 37.2272 35.5998 36.9508Z" fill="#134A85"/>
<path d="M43.3498 33.1504C41.9415 33.1504 40.7998 34.2921 40.7998 35.7004C40.7998 37.1087 41.9415 38.2504 43.3498 38.2504C44.7581 38.2504 45.8998 37.1087 45.8998 35.7004C45.8998 34.2921 44.7581 33.1504 43.3498 33.1504ZM43.3498 36.5504C42.8804 36.5504 42.4998 36.1698 42.4998 35.7004C42.4998 35.2309 42.8804 34.8504 43.3498 34.8504C43.8192 34.8504 44.1998 35.2309 44.1998 35.7004C44.1998 36.1698 43.8192 36.5504 43.3498 36.5504Z" fill="#134A85"/>
<path d="M38.2499 38.2503C35.975 38.2218 34.0909 40.0095 33.9999 42.2827C33.9313 42.9109 34.1695 43.5336 34.6399 43.9555C35.2787 44.2823 36.0387 44.267 36.6638 43.9147C37.1693 43.7098 37.7052 43.5897 38.2499 43.5594C38.7946 43.5897 39.3305 43.7098 39.836 43.9147C40.2294 44.0757 40.6461 44.1721 41.0702 44.2003C41.3529 44.2056 41.6297 44.1197 41.8599 43.9555C42.3303 43.5336 42.5685 42.9109 42.4999 42.2827C42.4089 40.0095 40.5248 38.2218 38.2499 38.2503ZM40.7999 42.4417C40.6707 42.4026 40.5202 42.3507 40.3944 42.3074C39.7106 42.036 38.9852 41.8845 38.2499 41.8594C37.5161 41.885 36.7921 42.0365 36.1096 42.3074C35.9838 42.3507 35.8333 42.4026 35.7041 42.4417C35.7041 42.3958 35.6999 42.3431 35.6999 42.2827C35.8181 40.9625 36.9244 39.9508 38.2499 39.9508C39.5754 39.9508 40.6817 40.9625 40.7999 42.2827V42.4417Z" fill="#134A85"/>
<path d="M7.54959 29.3189C7.85042 29.4108 8.1774 29.3291 8.39959 29.1064L9.07959 28.4264L9.36944 29.8714C9.45017 30.2669 9.79793 30.5511 10.2016 30.5514C10.2587 30.5513 10.3156 30.5456 10.3716 30.5344C10.8319 30.4422 11.1302 29.9942 11.038 29.534L10.437 26.5292C10.3754 26.2221 10.1499 25.9737 9.85006 25.8829C9.55024 25.7921 9.22478 25.8735 9.00309 26.0949L8.32309 26.7749L8.03324 25.3299C7.93565 24.8755 7.49127 24.5838 7.03558 24.6748C6.57988 24.7659 6.28181 25.2061 6.36639 25.6631L6.96734 28.6687C7.02682 28.9761 7.25054 29.226 7.54959 29.3189Z" fill="#134A85"/>
<path d="M15.2998 28.05H16.262L15.4426 29.2783C15.1821 29.6688 15.2875 30.1967 15.6781 30.4572C16.0687 30.7177 16.5965 30.6123 16.857 30.2218L18.557 27.6718C18.7311 27.4109 18.7474 27.0755 18.5994 26.799C18.4515 26.5225 18.1634 26.35 17.8498 26.35H16.8876L17.707 25.1218C17.9676 24.7312 17.8622 24.2033 17.4716 23.9428C17.081 23.6823 16.5532 23.7877 16.2926 24.1783L14.5926 26.7283C14.4186 26.9891 14.4023 27.3245 14.5502 27.601C14.6982 27.8775 14.9863 28.05 15.2998 28.05Z" fill="#134A85"/>
<path d="M40.6302 30.5408C40.6862 30.552 40.7431 30.5577 40.8002 30.5578C41.2039 30.5575 41.5516 30.2733 41.6324 29.8778L41.9222 28.4328L42.6022 29.1128C42.8239 29.3346 43.1496 29.4164 43.4498 29.3255C43.7499 29.2346 43.9756 28.9859 44.037 28.6784L44.638 25.6728C44.7226 25.2159 44.4245 24.7757 43.9688 24.6846C43.5131 24.5935 43.0687 24.8853 42.9711 25.3396L42.6813 26.7846L42.0013 26.1046C41.7796 25.8833 41.4541 25.8018 41.1543 25.8927C40.8545 25.9835 40.6289 26.2318 40.5673 26.539L39.9664 29.5437C39.8761 30.002 40.1726 30.4473 40.6302 30.5408Z" fill="#134A85"/>
<path d="M34.1427 30.2218C34.3113 30.4744 34.6018 30.618 34.9049 30.5983C35.208 30.5787 35.4775 30.3989 35.6121 30.1266C35.7466 29.8543 35.7257 29.5309 35.5571 29.2783L34.7377 28.05H35.6999C36.0135 28.05 36.3016 27.8775 36.4495 27.601C36.5975 27.3245 36.5812 26.9891 36.4071 26.7283L34.7071 24.1783C34.4466 23.7877 33.9188 23.6823 33.5282 23.9428C33.1376 24.2033 33.0322 24.7312 33.2927 25.1218L34.1121 26.35H33.1499C32.8364 26.35 32.5483 26.5225 32.4003 26.799C32.2524 27.0755 32.2687 27.4109 32.4427 27.6718L34.1427 30.2218Z" fill="#134A85"/>
</g>
<defs>
<clipPath id="clip0_3059_12834">
<rect width="51" height="51" fill="white"/>
</clipPath>
</defs>
</svg>
