<svg width="51" height="64" viewBox="0 0 51 64" fill="none" xmlns="http://www.w3.org/2000/svg">
<g clip-path="url(#clip0_3055_10921)">
<path d="M16.5979 62.5789V58.0773C16.5979 58.0773 12.2676 51.082 10.8285 46.1701C10.6356 45.4947 10.2884 44.8734 9.81417 44.3552C8.92903 43.4007 7.55252 41.6363 7.46608 39.813C7.33751 37.1121 7.8518 34.7968 6.82291 32.739C5.79401 30.6812 0.134604 25.7936 0.649208 24.2501C1.16381 22.7066 9.2658 24.3786 10.6813 28.1088C12.0969 31.839 12.482 33.7682 13.1252 33.5108C13.7684 33.2533 12.2249 28.366 14.0255 25.7936C15.8261 23.2212 19.4278 19.6199 20.0706 15.7614C20.7135 11.903 19.9421 9.97344 20.7138 7.6585C21.4856 5.34356 24.8297 2.64227 26.2437 3.15626C27.6577 3.67024 25.0862 10.2303 25.0862 10.2303V18.076C25.0862 19.491 22.8996 26.8221 22.8996 26.8221C22.8996 26.8221 27.6586 15.7617 28.4301 9.84425C29.2015 3.92677 33.0603 -0.445349 35.6327 0.841006C38.2051 2.12736 33.5749 10.2303 33.5749 10.2303C33.5749 10.2303 33.0603 15.8897 32.9317 17.0462C32.8031 18.2028 30.1021 25.7923 30.4879 26.8212C30.8736 27.8501 35.7612 22.5767 37.6905 17.9466C39.6197 13.3164 41.0346 5.98488 43.8642 6.75663C46.6937 7.52838 43.8642 17.6894 43.8642 17.6894C43.8642 17.6894 42.8353 22.4485 42.4492 23.4774C42.0632 24.5063 37.1759 31.5803 37.1759 31.5803C37.1759 31.5803 42.8353 26.4355 43.6067 23.7345C44.3781 21.0336 46.1782 17.1748 47.7226 17.9466C49.267 18.7183 47.3369 27.979 46.6937 29.9082C46.0505 31.8374 42.8353 33.7667 42.5778 35.053C42.3203 36.3394 42.0632 38.3972 41.5489 39.8121C41.0346 41.227 36.2755 47.0147 35.6314 49.0728C34.9873 51.1309 35.6314 62.4494 35.6314 62.4494L16.5979 62.5789Z" fill="white"/>
<path d="M41.0529 25.8189C39.4836 28.2426 37.1768 31.5815 37.1768 31.5815C37.1768 31.5815 42.8362 26.4367 43.6076 23.7357C44.379 21.0348 46.1791 17.176 47.7235 17.9478C49.2679 18.7195 47.3378 27.9802 46.6946 29.9094C46.0514 31.8387 42.8362 33.7679 42.5787 35.0542C42.4003 35.9468 42.2218 37.2112 41.9572 38.3742" fill="white"/>
<path d="M41.0529 25.8189C39.4836 28.2426 37.1768 31.5815 37.1768 31.5815C37.1768 31.5815 42.8362 26.4367 43.6076 23.7357C44.379 21.0348 46.1791 17.176 47.7235 17.9478C49.2679 18.7195 47.3378 27.9802 46.6946 29.9094C46.0514 31.8387 42.8362 33.7679 42.5787 35.0542C42.4003 35.9468 42.2218 37.2112 41.9572 38.3742" stroke="#134A85" stroke-width="1.23183" stroke-linecap="round" stroke-linejoin="round"/>
<path d="M7.47068 37.2022C7.50786 35.5769 7.50321 34.1016 6.82193 32.739C5.79303 30.6812 0.133628 25.7936 0.648232 24.2501C1.16284 22.7066 9.26513 24.3786 10.6807 28.1088C12.0962 31.839 12.4813 33.7682 13.1245 33.5108C13.7677 33.2533 12.2242 28.366 14.0248 25.7936C15.8255 23.2212 19.4271 19.6199 20.07 15.7614C20.7128 11.903 19.9414 9.97344 20.7131 7.6585C21.4849 5.34356 24.829 2.64227 26.243 3.15626C27.657 3.67024 25.0856 10.2303 25.0856 10.2303V18.0761C25.0856 19.491 22.8989 26.8221 22.8989 26.8221C22.8989 26.8221 27.658 15.7617 28.4294 9.84425C29.2008 3.92677 33.0596 -0.445349 35.632 0.841006C38.2044 2.12736 33.5742 10.2303 33.5742 10.2303C33.5742 10.2303 33.0596 15.8897 32.931 17.0462C32.8025 18.2028 30.1015 25.7923 30.4872 26.8212C30.8729 27.8501 35.7606 22.5767 37.6898 17.9465C39.619 13.3164 41.0339 5.98488 43.8635 6.75663C46.693 7.52838 43.8635 17.6894 43.8635 17.6894C43.8635 17.6894 43.7851 18.0525 43.663 18.5999" stroke="#134A85" stroke-width="1.23183" stroke-linecap="round" stroke-linejoin="round"/>
<path d="M16.5972 62.5782V58.0765C16.5972 58.0765 12.2669 51.0812 10.8278 46.1694C10.6349 45.494 10.2877 44.8727 9.81348 44.3545" stroke="#134A85" stroke-width="1.23183" stroke-linecap="round" stroke-linejoin="round"/>
<path d="M26.393 32.1102C27.5269 32.1102 28.4461 31.191 28.4461 30.0571C28.4461 28.9231 27.5269 28.0039 26.393 28.0039C25.2591 28.0039 24.3398 28.9231 24.3398 30.0571C24.3398 31.191 25.2591 32.1102 26.393 32.1102Z" fill="white"/>
<path d="M26.3933 32.5211C27.754 32.5211 28.857 31.418 28.857 30.0574C28.857 28.6968 27.754 27.5938 26.3933 27.5938C25.0327 27.5938 23.9297 28.6968 23.9297 30.0574C23.9297 31.418 25.0327 32.5211 26.3933 32.5211Z" fill="white" stroke="#134A85" stroke-width="1.23183" stroke-linecap="round" stroke-linejoin="round"/>
<path d="M18.6322 33.2186C19.7662 33.2186 20.6854 32.2994 20.6854 31.1655C20.6854 30.0315 19.7662 29.1123 18.6322 29.1123C17.4983 29.1123 16.5791 30.0315 16.5791 31.1655C16.5791 32.2994 17.4983 33.2186 18.6322 33.2186Z" fill="white"/>
<path d="M18.6326 33.6295C19.9932 33.6295 21.0963 32.5264 21.0963 31.1658C21.0963 29.8052 19.9932 28.7021 18.6326 28.7021C17.272 28.7021 16.1689 29.8052 16.1689 31.1658C16.1689 32.5264 17.272 33.6295 18.6326 33.6295Z" fill="white" stroke="#134A85" stroke-width="1.23183" stroke-linecap="round" stroke-linejoin="round"/>
<path d="M32.6759 34.7589C33.6397 34.7589 34.421 33.9776 34.421 33.0137C34.421 32.0499 33.6397 31.2686 32.6759 31.2686C31.712 31.2686 30.9307 32.0499 30.9307 33.0137C30.9307 33.9776 31.712 34.7589 32.6759 34.7589Z" fill="white"/>
<path d="M32.6761 35.108C33.8326 35.108 34.7701 34.1705 34.7701 33.014C34.7701 31.8575 33.8326 30.9199 32.6761 30.9199C31.5196 30.9199 30.582 31.8575 30.582 33.014C30.582 34.1705 31.5196 35.108 32.6761 35.108Z" fill="white" stroke="#134A85" stroke-width="1.23183" stroke-linecap="round" stroke-linejoin="round"/>
<path d="M37.8503 38.27C38.6441 38.27 39.2876 37.6265 39.2876 36.8327C39.2876 36.039 38.6441 35.3955 37.8503 35.3955C37.0566 35.3955 36.4131 36.039 36.4131 36.8327C36.4131 37.6265 37.0566 38.27 37.8503 38.27Z" fill="white"/>
<path d="M37.8497 38.5569C38.8023 38.5569 39.5745 37.7847 39.5745 36.8322C39.5745 35.8796 38.8023 35.1074 37.8497 35.1074C36.8972 35.1074 36.125 35.8796 36.125 36.8322C36.125 37.7847 36.8972 38.5569 37.8497 38.5569Z" fill="white" stroke="#134A85" stroke-width="1.23183" stroke-linecap="round" stroke-linejoin="round"/>
<path d="M23.1905 20.3459C24.1543 20.3459 24.9357 19.5645 24.9357 18.6007C24.9357 17.6368 24.1543 16.8555 23.1905 16.8555C22.2267 16.8555 21.4453 17.6368 21.4453 18.6007C21.4453 19.5645 22.2267 20.3459 23.1905 20.3459Z" fill="white"/>
<path d="M23.1907 20.6949C24.3472 20.6949 25.2848 19.7574 25.2848 18.6009C25.2848 17.4444 24.3472 16.5068 23.1907 16.5068C22.0342 16.5068 21.0967 17.4444 21.0967 18.6009C21.0967 19.7574 22.0342 20.6949 23.1907 20.6949Z" fill="white" stroke="#134A85" stroke-width="1.23183" stroke-linecap="round" stroke-linejoin="round"/>
<path d="M41.0528 23.1789C42.0167 23.1789 42.798 22.3975 42.798 21.4337C42.798 20.4698 42.0167 19.6885 41.0528 19.6885C40.089 19.6885 39.3076 20.4698 39.3076 21.4337C39.3076 22.3975 40.089 23.1789 41.0528 23.1789Z" fill="white"/>
<path d="M41.053 23.5279C42.2095 23.5279 43.1471 22.5904 43.1471 21.4339C43.1471 20.2774 42.2095 19.3398 41.053 19.3398C39.8965 19.3398 38.959 20.2774 38.959 21.4339C38.959 22.5904 39.8965 23.5279 41.053 23.5279Z" fill="white" stroke="#134A85" stroke-width="1.23183" stroke-linecap="round" stroke-linejoin="round"/>
<path d="M9.76277 42.2736C10.7266 42.2736 11.508 41.4922 11.508 40.5284C11.508 39.5646 10.7266 38.7832 9.76277 38.7832C8.79893 38.7832 8.01758 39.5646 8.01758 40.5284C8.01758 41.4922 8.79893 42.2736 9.76277 42.2736Z" fill="white"/>
<path d="M9.76299 42.6217C10.9195 42.6217 11.857 41.6841 11.857 40.5276C11.857 39.3711 10.9195 38.4336 9.76299 38.4336C8.60648 38.4336 7.66895 39.3711 7.66895 40.5276C7.66895 41.6841 8.60648 42.6217 9.76299 42.6217Z" fill="white" stroke="#134A85" stroke-width="1.23183" stroke-linecap="round" stroke-linejoin="round"/>
<path d="M34.5486 57.5186C34.4453 57.4225 34.3387 57.3296 34.2288 57.2397C33.2325 56.4293 32.5707 55.0019 32.5707 53.376C32.5703 52.8647 32.6382 52.3556 32.7727 51.8623C32.6379 51.3675 32.5699 50.857 32.5707 50.3442C32.5707 50.3417 32.5707 50.3389 32.5707 50.3364C32.5714 49.7818 32.6524 49.2302 32.8111 48.6987C33.0627 47.8585 33.5163 47.0812 34.1895 46.5164C34.956 45.8735 35.5648 45.0603 35.9133 44.1237C36.2151 43.312 36.4158 42.4457 36.5481 41.6064C32.1509 42.9424 28.9502 47.0282 28.9502 51.8613C28.9502 56.7165 32.1788 60.8166 36.6061 62.1342C36.5001 61.3928 36.3402 60.6307 36.1038 59.9035C35.8039 58.9828 35.2546 58.1741 34.5486 57.5186Z" fill="white" stroke="#134A85" stroke-width="1.23183" stroke-linecap="round" stroke-linejoin="round"/>
<path d="M42.7275 41.5889C42.8335 42.3303 42.9934 43.0924 43.2297 43.8195C43.5705 44.8729 44.2435 45.7819 45.1035 46.4815C45.7566 47.0128 46.2659 47.8087 46.5392 48.7521C46.6871 49.2674 46.7619 49.801 46.7613 50.3371C46.7613 50.3396 46.7613 50.3424 46.7613 50.3449C46.7621 50.857 46.6944 51.3669 46.56 51.8611C46.6033 52.0194 46.6402 52.1799 46.6693 52.3416C46.731 52.6831 46.7621 53.0294 46.7623 53.3764C46.7623 54.5271 46.4305 55.5761 45.8839 56.3816C45.6029 56.7949 45.2761 57.145 44.9483 57.4867C44.3531 58.1064 43.7549 58.7015 43.4212 59.5997C43.1195 60.4114 42.9187 61.2773 42.7864 62.1169C47.1836 60.781 50.3843 56.6952 50.3843 51.862C50.3834 47.0066 47.1554 42.9056 42.7275 41.5889Z" fill="white" stroke="#134A85" stroke-width="1.23183" stroke-linecap="round" stroke-linejoin="round"/>
<path d="M34.1889 46.5151C33.5154 47.0799 33.0621 47.8572 32.8105 48.6974C34.2614 49.6637 36.7306 50.9346 39.6832 50.9346C42.8315 50.9346 45.2571 49.6334 46.54 48.7523C46.2668 47.8089 45.7574 47.0126 45.1043 46.4816C44.2446 45.782 43.5729 44.874 43.2306 43.8197C42.9942 43.0916 42.8343 42.3295 42.7284 41.589C40.7106 40.9905 38.5616 40.9966 36.5472 41.6064C36.4149 42.4456 36.2142 43.3103 35.9124 44.1236C35.5642 45.0602 34.9554 45.8722 34.1889 46.5151Z" fill="white"/>
<path d="M46.7618 50.3381C46.7623 49.802 46.6875 49.2684 46.5396 48.7531C45.2567 49.6348 42.8312 50.9354 39.6828 50.9354C36.7303 50.9354 34.261 49.6652 32.8102 48.6982C32.6518 49.2305 32.5713 49.7828 32.5713 50.3381C32.5713 50.3406 32.5713 50.3434 32.5713 50.3458C32.5705 50.8586 32.6385 51.3692 32.7733 51.8639C33.2613 53.6432 34.5814 54.9187 36.1348 54.919C36.8074 54.919 37.4964 54.6458 38.0188 54.2272C38.4215 53.9041 39.132 53.7207 39.6351 53.7207C40.0221 53.7207 40.8393 53.8071 41.1532 54.09C41.7322 54.6117 42.4371 54.919 43.198 54.919C44.7517 54.919 46.0724 53.6426 46.5601 51.8627C46.6945 51.3685 46.7623 50.8586 46.7615 50.3465C46.7618 50.3434 46.7618 50.3412 46.7618 50.3381Z" fill="white"/>
<path d="M46.6701 52.3419C46.641 52.1801 46.6041 52.0196 46.5608 51.8613C46.0731 53.6412 44.7524 54.9177 43.1986 54.9177C42.4374 54.9177 41.7326 54.6103 41.1539 54.0886C40.84 53.8057 40.0227 53.7193 39.6358 53.7193C39.1326 53.7193 38.4231 53.9027 38.0195 54.2258C37.4968 54.6444 36.8081 54.9177 36.1355 54.9177C34.582 54.9177 33.2619 53.6418 32.774 51.8626C32.6396 52.3559 32.5717 52.865 32.5723 53.3763C32.5723 55.0022 33.2337 56.4296 34.2304 57.24C34.3401 57.3293 34.4467 57.4222 34.5501 57.5189C35.2562 58.1747 35.8055 58.9831 36.1042 59.9026C36.3406 60.6307 36.5004 61.3928 36.6064 62.1333C38.6242 62.7317 40.7731 62.7257 42.7875 62.1159C42.9198 61.2766 43.1206 60.4119 43.4223 59.5987C43.756 58.7002 44.3542 58.1066 44.9494 57.4857C45.2772 57.1449 45.604 56.7939 45.885 56.3806C46.4316 55.5769 46.7634 54.5267 46.7634 53.3754C46.7631 53.0288 46.7319 52.6829 46.6701 52.3419Z" fill="white" stroke="#134A85" stroke-width="1.23183" stroke-linecap="round" stroke-linejoin="round"/>
<path d="M34.1889 46.5151C33.5154 47.0799 33.0621 47.8572 32.8105 48.6974C34.2614 49.6637 36.7306 50.9346 39.6832 50.9346C42.8315 50.9346 45.2571 49.6334 46.54 48.7523C46.2668 47.8089 45.7574 47.0126 45.1043 46.4816C44.2446 45.782 43.5729 44.874 43.2306 43.8197C42.9942 43.0916 42.8343 42.3295 42.7284 41.589C40.7106 40.9905 38.5616 40.9966 36.5472 41.6064C36.4149 42.4456 36.2142 43.3103 35.9124 44.1236C35.5642 45.0602 34.9554 45.8722 34.1889 46.5151Z" fill="white" stroke="#134A85" stroke-width="1.23183" stroke-linecap="round" stroke-linejoin="round"/>
<path d="M46.7613 50.3384C46.7505 50.1308 46.5351 48.7562 46.5392 48.7531C45.2562 49.6348 42.8307 50.9354 39.6823 50.9354C36.7298 50.9354 34.2606 49.6652 32.8097 48.6982C32.5037 49.7295 32.4908 50.8255 32.7725 51.8636C33.2605 53.6429 34.5806 54.9184 36.134 54.9187C36.8066 54.9187 37.4957 54.6455 38.018 54.2269C38.4208 53.9038 39.1312 53.7204 39.6343 53.7204C40.0213 53.7204 40.8386 53.8068 41.1524 54.0897C41.7315 54.6114 42.4363 54.9187 43.1972 54.9187C44.7509 54.9187 46.0717 53.6423 46.5593 51.8624C46.6932 51.3702 46.7611 50.8624 46.761 50.3524C46.7619 50.3483 46.7616 50.3437 46.7613 50.3384Z" fill="white" stroke="#134A85" stroke-width="1.23183" stroke-linecap="round" stroke-linejoin="round"/>
<path d="M17.2773 38.4336L21.4657 49.274H25.6541" fill="white"/>
<path d="M17.2773 38.4336L21.4657 49.274H25.6541" stroke="#134A85" stroke-width="1.23183" stroke-linecap="round" stroke-linejoin="round"/>
</g>
<defs>
<clipPath id="clip0_3055_10921">
<rect width="51" height="63.195" fill="white"/>
</clipPath>
</defs>
</svg>
