<svg width="51" height="52" viewBox="0 0 51 52" fill="none" xmlns="http://www.w3.org/2000/svg">
<path d="M8.76562 46.7188C10.1203 46.7188 11.1562 45.6828 11.1562 44.3281C11.1562 43.85 10.8375 43.5312 10.3594 43.5312C9.88125 43.5312 9.5625 43.85 9.5625 44.3281C9.5625 44.8063 9.24375 45.125 8.76562 45.125C8.2875 45.125 7.96875 44.8063 7.96875 44.3281C7.96875 43.85 8.2875 43.5312 8.76562 43.5312C9.24375 43.5312 9.5625 43.2125 9.5625 42.7344C9.5625 42.2562 9.24375 41.9375 8.76562 41.9375C7.41094 41.9375 6.375 42.9734 6.375 44.3281C6.375 45.6828 7.41094 46.7188 8.76562 46.7188ZM25.5 46.7188C26.8547 46.7188 27.8906 45.6828 27.8906 44.3281C27.8906 43.85 27.5719 43.5312 27.0938 43.5312C26.6156 43.5312 26.2969 43.85 26.2969 44.3281C26.2969 44.8063 25.9781 45.125 25.5 45.125C25.0219 45.125 24.7031 44.8063 24.7031 44.3281C24.7031 43.85 25.0219 43.5312 25.5 43.5312C25.9781 43.5312 26.2969 43.2125 26.2969 42.7344C26.2969 42.2562 25.9781 41.9375 25.5 41.9375C24.1453 41.9375 23.1094 42.9734 23.1094 44.3281C23.1094 45.6828 24.1453 46.7188 25.5 46.7188ZM42.2344 46.7188C43.5891 46.7188 44.625 45.6828 44.625 44.3281C44.625 43.85 44.3063 43.5312 43.8281 43.5312C43.35 43.5312 43.0312 43.85 43.0312 44.3281C43.0312 44.8063 42.7125 45.125 42.2344 45.125C41.7562 45.125 41.4375 44.8063 41.4375 44.3281C41.4375 43.85 41.7562 43.5312 42.2344 43.5312C42.7125 43.5312 43.0312 43.2125 43.0312 42.7344C43.0312 42.2562 42.7125 41.9375 42.2344 41.9375C40.8797 41.9375 39.8438 42.9734 39.8438 44.3281C39.8438 45.6828 40.8797 46.7188 42.2344 46.7188Z" fill="#134A85"/>
<path d="M46.3781 31.5773H41.4375V29.1866C43.4297 30.1429 45.3422 29.6648 45.9797 29.5054C46.2188 29.4257 46.4578 29.1866 46.5375 28.9476C46.6172 28.7085 46.5375 28.3898 46.2984 28.2304L43.5094 25.4413L44.0672 24.8835C44.3859 24.5648 44.3859 24.0866 44.0672 23.7679C43.7484 23.4491 43.2703 23.4491 42.9516 23.7679L42.3937 24.3257L39.6047 21.5366C39.3656 21.2179 39.0469 21.1382 38.8078 21.2179C38.5688 21.2976 38.3297 21.457 38.25 21.7757C37.2938 25.9991 39.8438 28.1507 39.8438 28.1507V31.5773H32.6719V30.5413C32.6719 29.5054 31.9547 28.7085 31.0781 28.4694V24.8038C31.0781 24.3257 30.7594 24.007 30.2812 24.007C29.8031 24.007 29.4844 24.3257 29.4844 24.8038V28.3898H27.8906V19.5445C28.1297 19.6241 29.2453 19.6241 29.4844 19.5445V21.5366C29.4844 22.0148 29.8031 22.3335 30.2812 22.3335C30.7594 22.3335 31.0781 22.0148 31.0781 21.5366V18.8273C32.8312 17.5523 32.6719 15.321 32.5922 15.082L38.0906 9.58351L41.0391 8.62726C41.4375 8.46789 41.7562 8.14914 41.9156 7.7507L42.9516 4.64289C43.1109 4.24445 42.8719 3.76633 42.4734 3.60695C42.075 3.44758 41.5969 3.68664 41.4375 4.08508L40.4016 7.1132L37.8516 7.98976L36.3375 6.39602L37.2141 3.84601L40.2422 2.81008C40.6406 2.6507 40.8797 2.25226 40.7203 1.77414C40.5609 1.3757 40.1625 1.13664 39.6844 1.29601L36.5766 2.33195C36.1781 2.49133 35.8594 2.81008 35.7 3.20851L34.7437 6.15695L29.2453 11.6554C29.0859 11.6554 25.1016 11.3366 24.7031 15.5601C24.5438 16.8351 25.3406 18.0304 26.2969 18.7476V28.4694C25.4203 28.7085 24.7031 29.5851 24.7031 30.5413V31.5773H13.5469V15.6398H17.5312C18.8859 15.6398 19.9219 14.6038 19.9219 13.2491V3.68664C19.9219 2.33195 18.8859 1.29601 17.5312 1.29601C17.0531 1.29601 16.7344 1.61476 16.7344 2.09289C16.7344 2.57102 17.1328 2.88976 17.5312 2.88976C17.9297 2.88976 18.3281 3.20851 18.3281 3.68664V12.6116C18.3281 13.7273 18.0094 14.046 17.5312 14.046H4.78125C4.30312 14.046 3.98438 13.7273 3.98438 13.2491V3.68664C3.98438 3.20851 4.30312 2.88976 4.78125 2.88976H14.5828C15.0609 2.88976 15.3797 2.57102 15.3797 2.09289C15.3797 1.61476 15.0609 1.29601 14.5828 1.29601H4.78125C3.42656 1.29601 2.39062 2.33195 2.39062 3.68664V13.2491C2.39062 14.6038 3.42656 15.6398 4.78125 15.6398H8.76562V26.4773C8.76562 26.9554 9.08438 27.2741 9.5625 27.2741C10.0406 27.2741 10.3594 26.9554 10.3594 26.4773V15.6398H11.9531V31.5773H10.3594V29.1866C10.3594 28.7085 10.0406 28.3898 9.5625 28.3898C9.08438 28.3898 8.76562 28.7085 8.76562 29.1866V31.5773H4.62188C2.47031 31.5773 0.796875 33.2507 0.796875 35.4023V44.2476C0.796875 44.7257 1.11562 45.0445 1.59375 45.0445H3.34687C3.42656 45.5226 3.50625 45.921 3.66562 46.3195C3.66562 46.3195 2.86875 46.7179 3.26719 47.5148C3.66562 48.232 4.4625 47.7538 4.4625 47.7538C4.70156 48.0726 5.02031 48.3913 5.41875 48.7101C5.41875 48.7101 4.78125 49.4273 5.65781 49.9054C6.45469 50.3038 6.85313 49.507 6.85313 49.507C7.25156 49.6663 7.65 49.746 8.12812 49.8257C8.12812 49.8257 8.04844 50.782 8.925 50.782C9.80156 50.782 9.72188 49.8257 9.72188 49.8257C10.2 49.746 10.5984 49.6663 10.9969 49.507C10.9969 49.507 11.3156 50.3835 12.1922 49.9054C13.0688 49.4273 12.4313 48.7101 12.4313 48.7101C12.75 48.471 13.0687 48.1523 13.3875 47.7538C13.3875 47.7538 14.1047 48.3116 14.5828 47.5148C15.0609 46.7179 14.1844 46.3195 14.1844 46.3195C14.3437 45.921 14.4234 45.5226 14.5031 45.0445H20.1609C20.2406 45.5226 20.3203 45.921 20.4797 46.3195C20.4797 46.3195 19.6828 46.7179 20.0813 47.5148C20.4797 48.232 21.2766 47.7538 21.2766 47.7538C21.5156 48.0726 21.8344 48.3913 22.2328 48.7101C22.2328 48.7101 21.675 49.507 22.4719 49.9054C23.1094 50.2241 23.6672 49.507 23.6672 49.507C24.0656 49.6663 24.4641 49.746 24.9422 49.8257C24.9422 49.8257 24.7828 50.782 25.7391 50.782C26.6156 50.782 26.5359 49.8257 26.5359 49.8257C27.0141 49.746 27.4125 49.6663 27.8109 49.507C27.8109 49.507 28.2891 50.3038 29.0063 49.9054C29.7234 49.507 29.2453 48.7101 29.2453 48.7101C29.5641 48.471 29.8828 48.1523 30.2016 47.7538C30.2016 47.7538 31.0781 48.3116 31.3969 47.5148C31.7156 46.7179 30.9984 46.3195 30.9984 46.3195C31.1578 45.921 31.2375 45.5226 31.3172 45.0445H36.6562C36.7359 45.5226 36.8156 45.921 36.975 46.3195C36.975 46.3195 36.1781 46.7179 36.5766 47.5148C36.8953 48.1523 37.7719 47.7538 37.7719 47.7538C38.0109 48.0726 38.3297 48.3913 38.7281 48.7101C38.7281 48.7101 38.1703 49.507 38.9672 49.9054C39.6047 50.3038 40.1625 49.507 40.1625 49.507C40.5609 49.6663 40.9594 49.746 41.4375 49.8257C41.4375 49.8257 41.3578 50.782 42.2344 50.782C43.1109 50.782 43.0312 49.8257 43.0312 49.8257C43.5094 49.746 43.9078 49.6663 44.3062 49.507C44.3062 49.507 44.7844 50.3835 45.4219 49.9054C46.0594 49.4273 45.6609 48.7101 45.6609 48.7101C45.9797 48.471 46.2984 48.1523 46.6172 47.7538C46.6172 47.7538 47.4938 48.232 47.8125 47.5148C48.2109 46.7179 47.4141 46.3195 47.4141 46.3195C47.5734 45.921 47.6531 45.5226 47.7328 45.0445H49.4062C49.8844 45.0445 50.2031 44.7257 50.2031 44.2476V42.2554C50.2031 41.7773 49.8844 41.4585 49.4062 41.4585C48.9281 41.4585 48.6094 41.7773 48.6094 42.2554V43.4507H47.6531C47.5734 42.9726 47.4938 42.5741 47.3344 42.1757C47.3344 42.1757 48.2109 41.7773 47.7328 40.9804C47.2547 40.2632 46.5375 40.7413 46.5375 40.7413C46.2984 40.4226 45.9797 40.1038 45.5812 39.7851C45.5812 39.7851 46.0594 38.9085 45.3422 38.5898C44.625 38.1913 44.2266 38.9882 44.2266 38.9882C43.8281 38.8288 43.4297 38.7491 42.9516 38.6695C42.9516 38.6695 42.9516 37.7132 42.1547 37.7132C41.2781 37.7132 41.3578 38.6695 41.3578 38.6695C40.8797 38.7491 40.4813 38.8288 40.0828 38.9882C40.0828 38.9882 39.6047 38.1913 38.8875 38.5898C38.0906 39.0679 38.6484 39.7851 38.6484 39.7851C38.3297 40.0241 38.0109 40.3429 37.6922 40.7413C37.6922 40.7413 36.975 40.1835 36.4969 40.9804C36.0187 41.7773 36.8953 42.1757 36.8953 42.1757C36.7359 42.5741 36.6562 42.9726 36.5766 43.4507H30.9187C30.8391 42.9726 30.7594 42.5741 30.6 42.1757C30.6 42.1757 31.4766 41.7773 30.9984 40.9804C30.5203 40.2632 29.8031 40.7413 29.8031 40.7413C29.5641 40.4226 29.2453 40.1038 28.8469 39.7851C28.8469 39.7851 29.4047 39.0679 28.6078 38.5898C27.8906 38.1116 27.4125 38.9882 27.4125 38.9882C27.0141 38.8288 26.6156 38.7491 26.1375 38.6695C26.1375 38.6695 26.2172 37.7929 25.3406 37.7132C24.5437 37.7132 24.5437 38.6695 24.5437 38.6695C24.0656 38.7491 23.6672 38.8288 23.2688 38.9882C23.2688 38.9882 22.7906 38.1913 22.0734 38.5898C21.3563 39.0679 21.8344 39.7851 21.8344 39.7851C21.5156 40.0241 21.1969 40.3429 20.8781 40.7413C20.8781 40.7413 20.1609 40.1835 19.6828 40.9804C19.2047 41.6976 20.0813 42.1757 20.0813 42.1757C19.9219 42.5741 19.8422 42.9726 19.7625 43.4507H14.3438C14.2641 42.9726 14.1844 42.5741 14.025 42.1757C14.025 42.1757 14.9813 41.7773 14.4234 40.9804C13.8656 40.2632 13.2281 40.7413 13.2281 40.7413C12.9891 40.4226 12.6703 40.1038 12.2719 39.7851C12.2719 39.7851 12.8297 38.9882 12.0328 38.5898C11.3156 38.1913 10.8375 38.9882 10.8375 38.9882C10.4391 38.8288 10.0406 38.7491 9.5625 38.6695C9.5625 38.6695 9.64219 37.7132 8.76562 37.7132C7.80937 37.7132 7.96875 38.6695 7.96875 38.6695C7.49062 38.7491 7.09219 38.8288 6.69375 38.9882C6.69375 38.9882 6.29531 38.1913 5.49844 38.5898C4.70156 38.9882 5.25938 39.7851 5.25938 39.7851C4.94062 40.0241 4.62188 40.3429 4.30313 40.7413C4.30313 40.7413 3.50625 40.1835 3.10781 40.9804C2.70938 41.6976 3.50625 42.1757 3.50625 42.1757C3.34688 42.5741 3.26719 42.9726 3.1875 43.4507H2.39062V35.4023C2.39062 34.207 3.42656 33.171 4.62188 33.171H46.3781C47.5734 33.171 48.6094 34.207 48.6094 35.4023V38.5898C48.6094 39.0679 48.9281 39.3866 49.4062 39.3866C49.8844 39.3866 50.2031 39.0679 50.2031 38.5898V35.4023C50.2031 33.2507 48.5297 31.5773 46.3781 31.5773ZM42.1547 40.2632C44.3063 40.2632 46.1391 42.0163 46.1391 44.2476C46.1391 46.3991 44.3063 48.232 42.1547 48.232C39.9234 48.232 38.1703 46.4788 38.1703 44.2476C38.1703 42.0163 40.0031 40.2632 42.1547 40.2632ZM25.5 40.2632C27.7313 40.2632 29.4844 42.0163 29.4844 44.2476C29.4844 46.4788 27.7313 48.232 25.5 48.232C23.2687 48.232 21.5156 46.4788 21.5156 44.2476C21.5156 42.0163 23.2687 40.2632 25.5 40.2632ZM8.84531 40.2632C11.0766 40.2632 12.8297 42.0163 12.8297 44.2476C12.8297 46.4788 11.0766 48.232 8.84531 48.232C6.61406 48.232 4.86094 46.4788 4.86094 44.2476C4.86094 42.0163 6.61406 40.2632 8.84531 40.2632ZM35.4609 7.7507L36.5766 8.86633L32.0344 13.4085C31.7156 12.9304 31.3172 12.6116 30.9187 12.2929L35.4609 7.7507ZM28.6875 13.2491C30.0422 13.2491 31.0781 14.2851 31.0781 15.6398C31.0781 16.9945 30.0422 18.0304 28.6875 18.0304C27.3328 18.0304 26.2969 16.9945 26.2969 15.6398C26.2969 14.2851 27.3328 13.2491 28.6875 13.2491ZM31.0781 31.5773H26.2969V30.5413C26.2969 30.2226 26.5359 29.9835 26.8547 29.9835H30.4406C30.7594 29.9835 30.9984 30.2226 30.9984 30.5413V31.5773H31.0781ZM39.525 23.6085L44.1469 28.2304C42.9516 28.2304 41.7562 27.7523 40.8797 26.8757C39.9234 25.9991 39.4453 24.8038 39.525 23.6085Z" fill="#134A85"/>
<path d="M8.76562 8.46875C8.76562 9.18594 8.925 9.82344 9.32344 10.4609C9.5625 10.8594 10.0406 10.9391 10.4391 10.7797C10.8375 10.5406 10.9172 10.0625 10.7578 9.66406C10.4391 9.26562 10.3594 8.86719 10.3594 8.46875C10.3594 7.11406 11.3953 6.07812 12.75 6.07812C14.1047 6.07812 15.1406 7.11406 15.1406 8.46875C15.1406 9.82344 14.1047 10.8594 12.75 10.8594C12.2719 10.8594 11.9531 11.1781 11.9531 11.6562C11.9531 12.1344 12.2719 12.4531 12.75 12.4531C14.9812 12.4531 16.7344 10.7 16.7344 8.46875C16.7344 6.2375 14.9812 4.48438 12.75 4.48438C10.5188 4.48438 8.76562 6.2375 8.76562 8.46875ZM7.17188 5.28125C7.17188 4.80312 6.85312 4.48438 6.375 4.48438C5.89687 4.48438 5.57812 4.80312 5.57812 5.28125V6.875C5.57812 7.35313 5.89687 7.67188 6.375 7.67188C6.85312 7.67188 7.17188 7.35313 7.17188 6.875V5.28125ZM6.375 9.26562C5.89687 9.26562 5.57812 9.58437 5.57812 10.0625V11.6562C5.57812 12.1344 5.89687 12.4531 6.375 12.4531C6.85312 12.4531 7.17188 12.1344 7.17188 11.6562V10.0625C7.17188 9.58437 6.85312 9.26562 6.375 9.26562ZM45.1828 24.8047C45.6609 25.2031 46.1391 24.9641 46.2984 24.8047C46.7766 24.3266 47.0156 23.7687 47.0156 23.1313C47.0156 22.4937 46.7766 21.8562 46.2984 21.4578C45.3422 20.5016 43.8281 20.5016 42.9516 21.4578C42.6328 21.7766 42.6328 22.2547 42.9516 22.5734C43.2703 22.8922 43.7484 22.8922 44.0672 22.5734C44.3859 22.2547 44.8641 22.2547 45.1828 22.5734C45.3422 22.7328 45.6609 23.2109 45.1828 23.6891C44.8641 23.9281 44.8641 24.4859 45.1828 24.8047Z" fill="#134A85"/>
<path d="M40.7203 20.2625C41.0391 20.5812 41.5172 20.5812 41.8359 20.2625C43.35 18.7484 45.9 18.7484 47.4937 20.2625C49.0078 21.7766 49.0078 24.3266 47.4937 25.9203C47.175 26.2391 47.175 26.7172 47.4937 27.0359C47.9719 27.4344 48.45 27.1953 48.6094 27.0359C50.7609 24.8844 50.7609 21.2984 48.6094 19.1469C46.4578 16.9953 42.8719 16.9953 40.7203 19.1469C40.4016 19.4656 40.4016 19.9437 40.7203 20.2625ZM20.9578 34.7656C20.4797 34.7656 20.1609 35.0844 20.1609 35.5625C20.1609 36.0406 20.4797 36.3594 20.9578 36.3594H46.2188C46.6969 36.3594 47.0156 36.0406 47.0156 35.5625C47.0156 35.0844 46.6969 34.7656 46.2188 34.7656H20.9578ZM15.9375 34.7656C15.4594 34.7656 15.1406 35.0844 15.1406 35.5625C15.1406 36.0406 15.4594 36.3594 15.9375 36.3594H17.5312C18.0094 36.3594 18.3281 36.0406 18.3281 35.5625C18.3281 35.0844 18.0094 34.7656 17.5312 34.7656H15.9375ZM4.78125 34.7656C4.30312 34.7656 3.98438 35.0844 3.98438 35.5625C3.98438 36.0406 4.30312 36.3594 4.78125 36.3594H12.9891C13.4672 36.3594 13.7859 36.0406 13.7859 35.5625C13.7859 35.0844 13.4672 34.7656 12.9891 34.7656H4.78125Z" fill="#134A85"/>
<path d="M12.75 9.26562C13.1901 9.26562 13.5469 8.90885 13.5469 8.46875C13.5469 8.02865 13.1901 7.67188 12.75 7.67188C12.3099 7.67188 11.9531 8.02865 11.9531 8.46875C11.9531 8.90885 12.3099 9.26562 12.75 9.26562Z" fill="#134A85"/>
<path d="M28.6875 16.4375C29.1276 16.4375 29.4844 16.0807 29.4844 15.6406C29.4844 15.2005 29.1276 14.8438 28.6875 14.8438C28.2474 14.8438 27.8906 15.2005 27.8906 15.6406C27.8906 16.0807 28.2474 16.4375 28.6875 16.4375Z" fill="#134A85"/>
</svg>
