<svg width="51" height="51" viewBox="0 0 51 51" fill="none" xmlns="http://www.w3.org/2000/svg">
<path d="M15.9375 45.4219H17.7823C18.304 45.4214 18.8077 45.2302 19.1984 44.8844C19.5891 44.5386 19.8399 44.0619 19.9038 43.544C19.9676 43.0262 19.84 42.5028 19.545 42.0725C19.25 41.6421 18.8079 41.3344 18.3018 41.2072L16.1311 40.6645C16.0136 40.6351 15.891 40.6328 15.7725 40.6579C15.654 40.683 15.5427 40.7348 15.4473 40.8093C15.3518 40.8838 15.2745 40.9791 15.2214 41.088C15.1682 41.1968 15.1406 41.3163 15.1406 41.4375V44.625C15.1406 44.8363 15.2246 45.039 15.374 45.1885C15.5235 45.3379 15.7262 45.4219 15.9375 45.4219ZM16.7344 42.4583L17.9145 42.7531C18.0434 42.7858 18.1559 42.8643 18.2309 42.974C18.306 43.0837 18.3384 43.217 18.3222 43.3489C18.306 43.4808 18.2422 43.6023 18.1428 43.6905C18.0434 43.7787 17.9152 43.8277 17.7823 43.8281H16.7344V42.4583Z" fill="#134A85"/>
<path d="M9.7738 40.043L11.1133 40.7131C11.3666 40.8391 11.5794 41.0334 11.7279 41.2741C11.8763 41.5148 11.9544 41.7922 11.9532 42.075C11.9519 42.4776 11.7922 42.8634 11.5086 43.1492L10.6209 44.0369C9.94643 44.7153 9.56625 45.6319 9.56262 46.5885C9.56262 47.547 9.94334 48.4663 10.621 49.1441C11.2987 49.822 12.2179 50.2029 13.1765 50.2031C15.6258 50.2048 18.0553 49.7645 20.3483 48.9034L21.1532 48.6014C23.9582 47.5543 27.0468 47.5543 29.8519 48.6014L30.6567 48.9034C32.9497 49.7645 35.3792 50.2048 37.8286 50.2031C38.7863 50.2016 39.7042 49.8202 40.3809 49.1425C41.0576 48.4647 41.4376 47.5462 41.4376 46.5885C41.4348 45.6308 41.0546 44.7129 40.3794 44.0337L39.4917 43.146C39.2089 42.861 39.0492 42.4765 39.047 42.075C39.0472 41.7934 39.1259 41.5175 39.2743 41.2782C39.4226 41.0389 39.6348 40.8457 39.8869 40.7203L41.2265 40.0501C42.208 39.5597 43.0716 38.8624 43.7576 38.006C44.4436 37.1497 44.9358 36.1548 45.2003 35.0899C45.4647 34.025 45.4951 32.9154 45.2893 31.8376C45.0835 30.7598 44.6465 29.7395 44.0083 28.8469L43.013 27.4531C42.009 26.0458 40.4898 25.0918 38.786 24.7989C37.0822 24.5059 35.3316 24.8977 33.9151 25.8889L30.2814 28.4317V21.5156H31.0782C31.2896 21.5156 31.4923 21.5996 31.6417 21.749C31.7912 21.8985 31.8751 22.1012 31.8751 22.3125C31.8751 22.5238 31.9591 22.7265 32.1085 22.876C32.258 23.0254 32.4607 23.1094 32.672 23.1094H35.8595C36.0708 23.1094 36.2735 23.0254 36.423 22.876C36.5724 22.7265 36.6564 22.5238 36.6564 22.3125C36.6547 20.8336 36.0665 19.4158 35.0207 18.37C33.975 17.3243 32.5571 16.7361 31.0782 16.7344H30.2814V13.5469H31.0782C31.2896 13.5469 31.4923 13.6308 31.6417 13.7803C31.7912 13.9297 31.8751 14.1324 31.8751 14.3438C31.8751 14.5551 31.9591 14.7578 32.1085 14.9072C32.258 15.0567 32.4607 15.1406 32.672 15.1406H35.8595C36.0708 15.1406 36.2735 15.0567 36.423 14.9072C36.5724 14.7578 36.6564 14.5551 36.6564 14.3438C36.6547 12.8649 36.0665 11.447 35.0207 10.4013C33.975 9.35555 32.5571 8.76731 31.0782 8.76562H30.2814V5.57812H31.0782C31.2896 5.57812 31.4923 5.66208 31.6417 5.81152C31.7912 5.96097 31.8751 6.16366 31.8751 6.375C31.8751 6.58634 31.9591 6.78903 32.1085 6.93848C32.258 7.08792 32.4607 7.17188 32.672 7.17188H35.8595C36.0708 7.17188 36.2735 7.08792 36.423 6.93848C36.5724 6.78903 36.6564 6.58634 36.6564 6.375C36.6547 4.89611 36.0665 3.47827 35.0207 2.43253C33.975 1.3868 32.5571 0.798562 31.0782 0.796875H19.922C18.4431 0.798562 17.0253 1.3868 15.9795 2.43253C14.9338 3.47827 14.3456 4.89611 14.3439 6.375C14.3439 6.58634 14.4278 6.78903 14.5773 6.93848C14.7267 7.08792 14.9294 7.17188 15.1407 7.17188H18.3282C18.5396 7.17188 18.7423 7.08792 18.8917 6.93848C19.0412 6.78903 19.1251 6.58634 19.1251 6.375C19.1251 6.16366 19.2091 5.96097 19.3585 5.81152C19.508 5.66208 19.7107 5.57812 19.922 5.57812H20.7189V8.76562H19.922C18.4431 8.76731 17.0253 9.35555 15.9795 10.4013C14.9338 11.447 14.3456 12.8649 14.3439 14.3438C14.3439 14.5551 14.4278 14.7578 14.5773 14.9072C14.7267 15.0567 14.9294 15.1406 15.1407 15.1406H18.3282C18.5396 15.1406 18.7423 15.0567 18.8917 14.9072C19.0412 14.7578 19.1251 14.5551 19.1251 14.3438C19.1251 14.1324 19.2091 13.9297 19.3585 13.7803C19.508 13.6308 19.7107 13.5469 19.922 13.5469H20.7189V16.7344H19.922C18.4431 16.7361 17.0253 17.3243 15.9795 18.37C14.9338 19.4158 14.3456 20.8336 14.3439 22.3125C14.3439 22.5238 14.4278 22.7265 14.5773 22.876C14.7267 23.0254 14.9294 23.1094 15.1407 23.1094H18.3282C18.5396 23.1094 18.7423 23.0254 18.8917 22.876C19.0412 22.7265 19.1251 22.5238 19.1251 22.3125C19.1251 22.1012 19.2091 21.8985 19.3585 21.749C19.508 21.5996 19.7107 21.5156 19.922 21.5156H20.7189V28.4317L17.0851 25.8889C15.6691 24.8973 13.9187 24.5051 12.215 24.7974C10.5112 25.0898 8.99173 26.0431 7.9872 27.45L6.9919 28.8469C6.35504 29.7393 5.91907 30.7591 5.71401 31.8361C5.50895 32.913 5.53967 34.0217 5.80404 35.0857C6.06841 36.1497 6.56016 37.1438 7.24545 37.9995C7.93075 38.8553 8.79331 39.5524 9.7738 40.043ZM22.3126 29.4676V24.7031H28.6876V29.4676C27.7029 29.9789 26.6096 30.2458 25.5001 30.2458C24.3906 30.2458 23.2973 29.9789 22.3126 29.4676ZM19.922 3.98438C19.4277 3.98498 18.9457 4.13847 18.5421 4.42381C18.1385 4.70914 17.8331 5.11235 17.6676 5.57812H16.0173C16.2021 4.67871 16.6914 3.87054 17.4027 3.28989C18.114 2.70924 19.0038 2.39163 19.922 2.39062H31.0782C31.9965 2.39163 32.8862 2.70924 33.5975 3.28989C34.3088 3.87054 34.7981 4.67871 34.9829 5.57812H33.3334C33.1679 5.11222 32.8624 4.70892 32.4586 4.42358C32.0548 4.13823 31.5727 3.98481 31.0782 3.98438H29.4845C29.2732 3.98438 29.0705 4.06833 28.921 4.21777C28.7716 4.36722 28.6876 4.56991 28.6876 4.78125V7.17188H22.3126V4.78125C22.3126 4.56991 22.2287 4.36722 22.0792 4.21777C21.9298 4.06833 21.7271 3.98438 21.5157 3.98438H19.922ZM19.922 11.9531C19.4277 11.9537 18.9457 12.1072 18.5421 12.3926C18.1385 12.6779 17.8331 13.0811 17.6676 13.5469H16.0173C16.2021 12.6475 16.6914 11.8393 17.4027 11.2586C18.114 10.678 19.0038 10.3604 19.922 10.3594H21.5157C21.7271 10.3594 21.9298 10.2754 22.0792 10.126C22.2287 9.97653 22.3126 9.77384 22.3126 9.5625V8.76562H28.6876V9.5625C28.6876 9.77384 28.7716 9.97653 28.921 10.126C29.0705 10.2754 29.2732 10.3594 29.4845 10.3594H31.0782C31.9965 10.3604 32.8862 10.678 33.5975 11.2586C34.3088 11.8393 34.7981 12.6475 34.9829 13.5469H33.3334C33.1679 13.081 32.8624 12.6777 32.4586 12.3923C32.0548 12.107 31.5727 11.9536 31.0782 11.9531H29.4845C29.2732 11.9531 29.0705 12.0371 28.921 12.1865C28.7716 12.336 28.6876 12.5387 28.6876 12.75V15.1406H22.3126V12.75C22.3126 12.5387 22.2287 12.336 22.0792 12.1865C21.9298 12.0371 21.7271 11.9531 21.5157 11.9531H19.922ZM19.922 19.9219C19.4277 19.9225 18.9457 20.076 18.5421 20.3613C18.1385 20.6466 17.8331 21.0498 17.6676 21.5156H16.0173C16.2021 20.6162 16.6914 19.808 17.4027 19.2274C18.114 18.6467 19.0038 18.3291 19.922 18.3281H21.5157C21.7271 18.3281 21.9298 18.2442 22.0792 18.0947C22.2287 17.9453 22.3126 17.7426 22.3126 17.5312V16.7344H28.6876V17.5312C28.6876 17.7426 28.7716 17.9453 28.921 18.0947C29.0705 18.2442 29.2732 18.3281 29.4845 18.3281H31.0782C31.9965 18.3291 32.8862 18.6467 33.5975 19.2274C34.3088 19.808 34.7981 20.6162 34.9829 21.5156H33.3334C33.1679 21.0497 32.8624 20.6464 32.4586 20.3611C32.0548 20.0757 31.5727 19.9223 31.0782 19.9219H29.4845C29.2732 19.9219 29.0705 20.0058 28.921 20.1553C28.7716 20.3047 28.6876 20.5074 28.6876 20.7188V23.1094H22.3126V20.7188C22.3126 20.5074 22.2287 20.3047 22.0792 20.1553C21.9298 20.0058 21.7271 19.9219 21.5157 19.9219H19.922ZM8.28762 29.7697L9.28292 28.3759C10.0436 27.3111 11.1938 26.5896 12.4835 26.3683C13.7733 26.147 15.0982 26.4438 16.1703 27.1942L20.6942 30.3609C22.1028 31.347 23.7807 31.8758 25.5001 31.8758C27.2196 31.8758 28.8974 31.347 30.3061 30.3609L34.8283 27.195C35.9004 26.4446 37.2254 26.1478 38.5151 26.3691C39.8049 26.5904 40.9551 27.3119 41.7157 28.3767L42.7118 29.7712C43.215 30.4763 43.5595 31.2819 43.7215 32.1328C43.8835 32.9837 43.8593 33.8596 43.6504 34.7002C43.4416 35.5408 43.053 36.3261 42.5116 37.0022C41.9702 37.6783 41.2887 38.229 40.514 38.6166L39.1737 39.2867C38.7327 39.5074 38.3503 39.8297 38.0583 40.2271C37.7662 40.6245 37.5727 41.0856 37.4937 41.5724C37.4147 42.0592 37.4525 42.5578 37.604 43.0272C37.7554 43.4965 38.0162 43.9232 38.3649 44.272L39.2526 45.1597C39.63 45.5399 39.8425 46.0535 39.8439 46.5893C39.8439 47.1251 39.631 47.6389 39.2522 48.0177C38.8734 48.3965 38.3596 48.6094 37.8238 48.6094C35.5651 48.6121 33.3245 48.2072 31.2097 47.4141L30.4049 47.112C27.24 45.9252 23.7523 45.9252 20.5874 47.112L19.7825 47.4141C17.6702 48.2063 15.4324 48.6112 13.1765 48.6094C12.9111 48.6094 12.6484 48.5571 12.4032 48.4555C12.1581 48.354 11.9354 48.2051 11.7478 48.0174C11.5602 47.8298 11.4114 47.607 11.3099 47.3618C11.2084 47.1166 11.1563 46.8538 11.1564 46.5885C11.1581 46.0533 11.3705 45.5403 11.7477 45.1605L12.6354 44.2728C12.9843 43.924 13.2454 43.4972 13.3971 43.0277C13.5487 42.5582 13.5866 42.0593 13.5076 41.5723C13.4286 41.0853 13.235 40.624 12.9427 40.2264C12.6505 39.8289 12.2679 39.5066 11.8265 39.2859L10.4862 38.6158C9.71152 38.2283 9.03001 37.6775 8.48859 37.0014C7.94716 36.3253 7.55868 35.5399 7.34988 34.6993C7.14108 33.8586 7.11693 32.9827 7.27909 32.1319C7.44125 31.281 7.78587 30.4754 8.28922 29.7705L8.28762 29.7697Z" fill="#134A85"/>
<path d="M31.0781 43.2822C31.0785 43.8496 31.3041 44.3935 31.7053 44.7947C32.1064 45.1959 32.6504 45.4214 33.2177 45.4219H35.0625C35.2738 45.4219 35.4765 45.3379 35.626 45.1885C35.7754 45.039 35.8594 44.8363 35.8594 44.625V41.4375C35.8594 41.3163 35.8318 41.1968 35.7786 41.088C35.7255 40.9791 35.6482 40.8838 35.5527 40.8093C35.4573 40.7348 35.346 40.683 35.2275 40.6579C35.109 40.6328 34.9864 40.6351 34.8689 40.6645L32.6982 41.2072C32.2351 41.3224 31.824 41.5893 31.5304 41.9654C31.2368 42.3415 31.0775 42.8051 31.0781 43.2822ZM33.0855 42.7531L34.2656 42.4583V43.8281H33.2177C33.0848 43.8277 32.9566 43.7787 32.8572 43.6905C32.7578 43.6023 32.694 43.4808 32.6778 43.3489C32.6616 43.217 32.694 43.0837 32.7691 42.974C32.8441 42.8643 32.9566 42.7858 33.0855 42.7531Z" fill="#134A85"/>
<path d="M22.3858 42.899C22.7159 43.4272 23.1749 43.8629 23.7197 44.1649C24.2644 44.4669 24.8771 44.6254 25.5 44.6254C26.1229 44.6254 26.7356 44.4669 27.2803 44.1649C27.8251 43.8629 28.2841 43.4272 28.6142 42.899L29.6438 41.2542C31.103 38.9197 31.8762 36.2218 31.875 33.4688C31.875 33.3208 31.8338 33.1757 31.756 33.0498C31.6782 32.9239 31.5669 32.8222 31.4345 32.756C31.3021 32.6898 31.154 32.6618 31.0066 32.6751C30.8592 32.6884 30.7184 32.7425 30.6 32.8313L29.325 33.7875C28.2215 34.6151 26.8794 35.0625 25.5 35.0625C24.1206 35.0625 22.7785 34.6151 21.675 33.7875L20.4 32.8313C20.2816 32.7425 20.1408 32.6884 19.9934 32.6751C19.846 32.6618 19.6979 32.6898 19.5655 32.756C19.4331 32.8222 19.3218 32.9239 19.244 33.0498C19.1662 33.1757 19.125 33.3208 19.125 33.4688C19.1238 36.2218 19.897 38.9197 21.3563 41.2542L22.3858 42.899ZM25.5 36.6563C27.1782 36.6529 28.813 36.1233 30.1745 35.1422C29.9332 37.0134 29.29 38.8103 28.2891 40.4095L27.2611 42.0543C27.0743 42.3533 26.8145 42.5999 26.5062 42.7709C26.1978 42.9419 25.851 43.0316 25.4984 43.0316C25.1458 43.0316 24.799 42.9419 24.4907 42.7709C24.1823 42.5999 23.9225 42.3533 23.7357 42.0543L22.7109 40.4095C21.71 38.8103 21.0668 37.0134 20.8255 35.1422C22.187 36.1233 23.8218 36.6529 25.5 36.6563Z" fill="#134A85"/>
</svg>
