<svg width="51" height="51" viewBox="0 0 51 51" fill="none" xmlns="http://www.w3.org/2000/svg">
<path d="M47.843 21.2616L42.8395 12.1022C40.9442 8.49778 37.7808 6.89197 33.5078 7.31238C32.4809 7.31238 31.5023 6.91265 30.7649 6.18211C30.0343 5.44467 29.6346 4.47981 29.6346 3.44603C29.6346 3.06697 29.3245 2.75684 28.9454 2.75684H22.0535C21.6745 2.75684 21.3643 3.06697 21.3643 3.44603C21.3643 4.47981 20.9646 5.44467 20.2409 6.17521C19.4966 6.90576 18.5249 7.31238 17.5669 7.31238C13.2319 6.88508 10.0616 8.49778 8.17324 12.0953L3.15594 21.2616C3.10081 21.3649 3.07324 21.4752 3.07324 21.5924V33.1776C3.07324 33.474 3.26622 33.7428 3.54878 33.8324C3.83135 33.922 4.14149 33.8255 4.32067 33.5774L12.7495 21.8749C12.97 24.101 13.3008 26.2444 13.6178 28.3395C14.6654 35.1832 15.5682 41.0964 12.5841 47.2578C12.4807 47.4714 12.4945 47.7195 12.6185 47.9263C12.7426 48.1262 12.9631 48.2502 13.2043 48.2502H25.3341H25.3409H25.3478H37.7946C38.0289 48.2502 38.2495 48.1262 38.3804 47.9263C38.5045 47.7264 38.5182 47.4714 38.4149 47.2578C35.4307 41.0895 36.3335 35.1832 37.3811 28.3395C37.6981 26.2513 38.0289 24.101 38.2495 21.8749L46.6782 33.5843C46.8505 33.8255 47.1676 33.9289 47.4501 33.8393C47.7327 33.7497 47.9257 33.4809 47.9257 33.1845V21.5924C47.9257 21.4752 47.8981 21.3649 47.843 21.2616ZM46.5473 31.0412L38.4218 19.7522C38.4907 18.7598 38.532 17.7329 38.532 16.6991C38.532 16.3201 38.2219 16.0099 37.8428 16.0099C37.4638 16.0099 37.1537 16.3201 37.1537 16.6991C37.1537 17.7881 36.4162 25.4863 36.0165 28.1259C35.0309 34.5629 34.1005 40.6553 36.7264 46.8649H26.0991C25.9681 46.8098 25.8234 46.7822 25.6786 46.8098C25.6855 46.6444 25.6304 46.479 25.5201 46.3481C25.3616 46.1551 25.1066 46.0655 24.8585 46.1068C24.6793 46.1413 24.5553 46.1482 24.4795 46.1482C24.4037 46.1482 24.3692 46.1413 24.3623 46.1482C24.3485 46.1137 24.3141 45.9552 24.4105 45.5348C24.5001 45.1626 24.2727 44.7905 23.9005 44.7009C23.5284 44.6113 23.1562 44.8387 23.0666 45.2109C22.9977 45.4866 22.8185 46.2585 23.1769 46.8581H14.2726C16.8915 40.6485 15.9611 34.556 14.9824 28.119C14.5827 25.4794 13.8453 17.7743 13.8453 16.6922C13.8453 16.3132 13.5351 16.0031 13.1561 16.0031C12.777 16.0031 12.4669 16.3132 12.4669 16.6922C12.4669 17.726 12.5082 18.746 12.5772 19.7453L4.45162 31.0412V21.7647L9.37932 12.7363C11.0127 9.63494 13.6385 8.30481 17.4911 8.67697C18.8832 8.67697 20.1996 8.13251 21.2058 7.14008C22.0328 6.31305 22.5497 5.26548 22.6945 4.12832H28.2976C28.4492 5.26548 28.9661 6.31994 29.7931 7.14697C30.7924 8.13251 32.1019 8.67697 33.5561 8.67697H33.5699C37.3535 8.30481 39.9793 9.63494 41.6196 12.7432L46.5404 21.7578V31.0412H46.5473Z" fill="#134A85"/>
<path d="M24.445 8.07713C24.4726 8.21497 24.5277 8.33902 24.6173 8.45618C24.8861 8.82145 25.3134 8.89726 25.6718 8.89726C25.8647 8.89726 26.037 8.86969 26.1473 8.85591C26.5263 8.80078 26.7882 8.45618 26.7331 8.07713C26.678 7.69807 26.3403 7.43618 25.9543 7.49132C25.9474 7.49132 25.9336 7.49132 25.9268 7.49821C25.9474 7.3328 25.9061 7.15361 25.8027 7.01578C25.658 6.80902 25.4168 6.69875 25.1686 6.72632C25.0722 6.7401 24.9895 6.7401 24.9205 6.7401C24.7276 6.7401 24.6655 6.70564 24.6449 6.71253C24.638 6.69186 24.5966 6.53334 24.7276 6.09915C24.8378 5.73388 24.6311 5.34794 24.2658 5.23767C23.9005 5.1274 23.5146 5.33415 23.4043 5.69942C23.3147 6.00267 23.0322 6.92618 23.5766 7.58091C23.7834 7.8428 24.0728 8.00821 24.445 8.07713Z" fill="#134A85"/>
<path d="M23.7351 10.8965C23.7627 11.0343 23.8178 11.1584 23.9074 11.2755C24.1693 11.6408 24.6035 11.7166 24.955 11.7166C25.1479 11.7166 25.3202 11.689 25.4305 11.6752C25.8096 11.6201 26.0714 11.2755 26.0163 10.8965C25.9612 10.5174 25.6235 10.2555 25.2375 10.3107C25.2306 10.3107 25.2169 10.3107 25.21 10.3175C25.2306 10.1521 25.1893 9.97295 25.0859 9.83511C24.9412 9.62836 24.7068 9.52498 24.4518 9.54565C24.3554 9.55944 24.2727 9.55944 24.2037 9.55944C24.0108 9.55944 23.9281 9.53187 23.9281 9.53187C23.9212 9.51119 23.8798 9.35268 24.0108 8.91849C24.121 8.55322 23.9143 8.16727 23.549 8.057C23.1837 7.94673 22.7978 8.15349 22.6875 8.51876C22.5979 8.822 22.3154 9.74552 22.8598 10.4002C23.0735 10.6552 23.3629 10.8207 23.7351 10.8965Z" fill="#134A85"/>
<path d="M23.4731 13.7222C23.5627 13.8187 23.6661 13.8945 23.7832 13.9565C23.9211 14.0186 24.0589 14.0461 24.1898 14.0461C24.6792 14.0461 25.134 13.6946 25.327 13.5361C25.6234 13.3018 25.6785 12.8676 25.4442 12.5713C25.2098 12.2749 24.7757 12.2198 24.4793 12.4541C24.4104 12.3094 24.3001 12.1922 24.1554 12.1233C23.928 12.013 23.6523 12.0337 23.4455 12.1853C23.163 12.3921 23.0182 12.4265 23.0044 12.4472C22.9769 12.4127 22.8873 12.2749 22.8184 11.8959C22.7494 11.5237 22.3911 11.2756 22.0189 11.3445C21.6467 11.4134 21.3986 11.7718 21.4676 12.144C21.5227 12.461 21.7019 13.4121 22.4876 13.7222C22.777 13.8463 23.1147 13.8463 23.4731 13.7222Z" fill="#134A85"/>
<path d="M24.5071 16.479C24.6035 16.5548 24.7138 16.6169 24.8379 16.6513C24.9344 16.6789 25.0239 16.6927 25.1135 16.6927C25.658 16.6927 26.106 16.224 26.3127 16.0035C26.5746 15.7278 26.5608 15.2936 26.2852 15.0317C26.0095 14.7698 25.5753 14.7836 25.3134 15.0593C25.2307 14.9284 25.0998 14.8319 24.9481 14.7836C24.7 14.7078 24.4312 14.7699 24.2521 14.949C24.0039 15.1971 23.8592 15.2592 23.8454 15.2799C23.811 15.2454 23.7076 15.1213 23.5904 14.7767C23.4733 14.4184 23.0804 14.2185 22.7221 14.3426C22.3637 14.4597 22.1638 14.8526 22.2879 15.2109C22.3912 15.5142 22.6945 16.4308 23.5146 16.6238C23.8799 16.7203 24.2176 16.6307 24.5071 16.479Z" fill="#134A85"/>
<path d="M24.5482 19.4142C24.8652 19.5038 25.2029 19.4762 25.5475 19.3108C25.644 19.4004 25.7474 19.4624 25.8714 19.5038C25.9817 19.5451 26.092 19.5589 26.1953 19.5589C26.7191 19.5589 27.1671 19.1385 27.3739 18.9318C27.6495 18.6699 27.6564 18.2357 27.3945 17.96C27.1326 17.6843 26.6916 17.6774 26.4228 17.9393C26.347 17.8084 26.2229 17.6981 26.0713 17.643C25.8301 17.5534 25.5613 17.6016 25.3683 17.7739C25.1064 18.0082 24.9617 18.0634 24.9479 18.0841C24.9134 18.0496 24.817 17.9255 24.7205 17.5603C24.6171 17.195 24.238 16.9813 23.8728 17.0778C23.5075 17.1812 23.2938 17.5603 23.3903 17.9255C23.473 18.2495 23.7349 19.1799 24.5482 19.4142Z" fill="#134A85"/>
<path d="M27.098 20.5176C27.0015 20.4005 26.8567 20.3109 26.6982 20.2833C26.4501 20.2282 26.1882 20.3247 26.0297 20.5245C25.8092 20.7933 25.6782 20.8691 25.6644 20.8898C25.63 20.8622 25.5128 20.752 25.3543 20.4143C25.1958 20.0697 24.7892 19.918 24.4377 20.0765C24.0931 20.2351 23.9415 20.6486 24.1 20.9932C24.2309 21.2826 24.6376 22.1579 25.4715 22.2613C25.5266 22.2682 25.5817 22.2751 25.63 22.2751C25.8988 22.2751 26.1744 22.1855 26.4363 22.0132C26.5397 22.0821 26.6638 22.1303 26.7878 22.1579C27.477 22.2888 27.987 21.6203 28.18 21.3653C28.4143 21.0621 28.3523 20.6279 28.049 20.4005C27.7665 20.1593 27.3323 20.2144 27.098 20.5176Z" fill="#134A85"/>
<path d="M27.801 28.7809C27.801 28.7877 27.7941 28.7877 27.7941 28.7946C27.6908 28.6913 27.546 28.6223 27.3944 28.6017C27.1394 28.5741 26.8844 28.6844 26.7397 28.898C26.5329 29.1944 26.402 29.2909 26.3951 29.3115C26.3537 29.284 26.2366 29.1806 26.0712 28.8773C25.8851 28.5465 25.4716 28.4225 25.1339 28.6086C24.8031 28.7946 24.679 29.2082 24.8651 29.5459C25.0167 29.8215 25.4785 30.6555 26.3124 30.6968H26.3744C26.7397 30.6968 27.0429 30.5383 27.291 30.3453C27.3944 30.4005 27.5116 30.4349 27.6287 30.4487C28.3317 30.5245 28.7797 29.8284 28.9658 29.5252C29.1725 29.2013 29.076 28.7809 28.759 28.5741C28.4282 28.3673 28.0009 28.4638 27.801 28.7809Z" fill="#134A85"/>
<path d="M25.4784 25.0659C25.5335 25.0728 25.5886 25.0797 25.6369 25.0797C25.9057 25.0797 26.1813 24.9901 26.4432 24.8178C26.5466 24.8867 26.6707 24.935 26.7947 24.9625C27.4839 25.0935 27.9939 24.425 28.1869 24.17C28.4212 23.8667 28.3592 23.4325 28.0559 23.2051C27.7527 22.9777 27.3185 23.0328 27.0911 23.336C26.9946 23.2189 26.8567 23.1293 26.6982 23.0948C26.4501 23.0397 26.1882 23.1362 26.0297 23.336C25.8092 23.6048 25.6782 23.6806 25.6644 23.7013C25.63 23.6737 25.5128 23.5635 25.3543 23.2258C25.1958 22.8812 24.7892 22.7296 24.4377 22.8881C24.0931 23.0466 23.9415 23.4601 24.1 23.8047C24.2378 24.0873 24.6444 24.9625 25.4784 25.0659Z" fill="#134A85"/>
<path d="M28.7521 31.3853C28.4351 31.1786 28.0078 31.275 27.801 31.599C27.801 31.6058 27.7941 31.6058 27.7941 31.6127C27.6908 31.5094 27.546 31.4404 27.3944 31.4198C27.1394 31.3922 26.8844 31.5025 26.7397 31.7161C26.5329 32.0125 26.402 32.109 26.3951 32.1296C26.3537 32.1021 26.2366 31.9987 26.0712 31.6954C25.8851 31.3646 25.4716 31.2406 25.1339 31.4267C24.8031 31.6127 24.679 32.0263 24.8651 32.364C25.0167 32.6396 25.4785 33.4736 26.3124 33.5149H26.3744C26.7397 33.5149 27.0429 33.3564 27.291 33.1634C27.3944 33.2186 27.5116 33.253 27.6287 33.2668C28.3248 33.3357 28.7728 32.6465 28.9658 32.3433C29.1656 32.0125 29.0691 31.5921 28.7521 31.3853Z" fill="#134A85"/>
<path d="M24.107 26.6094C24.2379 26.8989 24.6445 27.7742 25.4784 27.8775C25.5336 27.8844 25.5887 27.8844 25.637 27.8844C25.9057 27.8844 26.1814 27.7948 26.4433 27.6225C26.5467 27.6915 26.6707 27.7397 26.7948 27.7673C27.484 27.8982 27.994 27.2297 28.187 26.9747C28.4213 26.6715 28.3593 26.2373 28.056 26.0098C27.7528 25.7824 27.3186 25.8375 27.0911 26.1408C26.9947 26.0236 26.8568 25.934 26.6983 25.8996C26.4502 25.8513 26.1883 25.9409 26.0298 26.1408C25.8093 26.4096 25.6783 26.4854 25.6645 26.5061C25.6301 26.4785 25.5129 26.3682 25.3544 26.0236C25.1959 25.679 24.7893 25.5274 24.4378 25.6859C24.1001 25.8582 23.9484 26.2648 24.107 26.6094Z" fill="#134A85"/>
<path d="M28.7521 34.1978C28.4351 33.9911 28.0078 34.0875 27.801 34.4115C27.801 34.4184 27.7941 34.4184 27.7941 34.4252C27.6908 34.3219 27.546 34.2529 27.3944 34.2323C27.1394 34.1978 26.8844 34.315 26.7397 34.5286C26.5329 34.825 26.402 34.9215 26.3951 34.9421C26.3537 34.9146 26.2366 34.8112 26.0712 34.5079C25.8851 34.1771 25.4716 34.0531 25.1339 34.2392C24.8031 34.4252 24.679 34.8388 24.8651 35.1765C25.0167 35.4521 25.4785 36.2861 26.3124 36.3274H26.3744C26.7397 36.3274 27.0429 36.1689 27.291 35.9759C27.3944 36.0311 27.5116 36.0655 27.6287 36.0793C28.3248 36.1551 28.7728 35.459 28.9658 35.1558C29.1656 34.8319 29.0691 34.4046 28.7521 34.1978Z" fill="#134A85"/>
<path d="M28.4008 37.6778C28.325 37.5399 28.2009 37.4366 28.0493 37.3745C27.815 37.278 27.5393 37.3263 27.3463 37.4917C27.0775 37.7191 26.9397 37.7743 26.9259 37.788C26.8915 37.7536 26.8019 37.6226 26.7054 37.2574C26.6089 36.8921 26.2298 36.6716 25.8646 36.7612C25.4924 36.8576 25.2719 37.2298 25.3683 37.602C25.4511 37.9121 25.6923 38.8494 26.4986 39.0975C26.8156 39.194 27.1465 39.1664 27.4979 39.0148C27.5875 39.1044 27.6978 39.1733 27.8219 39.2147C27.939 39.256 28.0493 39.2767 28.1665 39.2767C28.6833 39.2767 29.1244 38.8701 29.3381 38.6771C29.6206 38.4221 29.6344 37.981 29.3794 37.7053C29.1175 37.4366 28.6833 37.4228 28.4008 37.6778Z" fill="#134A85"/>
<path d="M27.5671 40.9447C27.5327 40.7862 27.4431 40.6483 27.3121 40.5449C27.1054 40.3864 26.8366 40.3589 26.6023 40.4691C26.3128 40.607 26.1681 40.6139 26.1474 40.6345C26.1267 40.5863 26.0647 40.4347 26.0716 40.0418C26.0785 39.6628 25.7752 39.3458 25.3962 39.3389C25.3893 39.3389 25.3893 39.3389 25.3824 39.3389C25.0102 39.3389 24.7001 39.6352 24.6932 40.0143C24.6863 40.3382 24.6656 41.3237 25.3755 41.7924C25.6443 41.9647 25.9544 42.0336 26.3197 41.9922C26.3886 42.1094 26.4782 42.2128 26.5885 42.2955C26.7746 42.4333 26.9813 42.4816 27.1881 42.4816C27.5947 42.4816 27.9806 42.2817 28.1667 42.1921C28.5044 42.0198 28.6423 41.6063 28.47 41.2686C28.3046 40.924 27.9048 40.7862 27.5671 40.9447Z" fill="#134A85"/>
<path d="M26.6158 43.9976C26.6227 43.8322 26.5675 43.6668 26.4573 43.5358C26.2987 43.3428 26.0437 43.2532 25.7956 43.2946C25.6165 43.3291 25.4924 43.3359 25.4166 43.3359C25.3408 43.3359 25.3063 43.3291 25.2994 43.3359C25.2856 43.3015 25.2512 43.143 25.3477 42.7226C25.4373 42.3504 25.2098 41.9782 24.8377 41.8886C24.4655 41.7991 24.0933 42.0265 24.0037 42.3986C23.9279 42.7088 23.7005 43.6599 24.2863 44.2801C24.5069 44.5145 24.8032 44.6523 25.1685 44.6936C25.2029 44.8315 25.2719 44.9486 25.3614 45.0589C25.6096 45.3484 25.9542 45.4242 26.2712 45.4242C26.5331 45.4242 26.7743 45.3691 26.9121 45.3346C27.2843 45.2519 27.5186 44.8797 27.429 44.5076C27.3532 44.1492 26.981 43.9149 26.6158 43.9976Z" fill="#134A85"/>
<path d="M34.8378 21.0891C32.4188 21.0891 30.4477 19.118 30.4477 16.699C30.4477 16.3199 30.1376 16.0098 29.7585 16.0098C29.3795 16.0098 29.0693 16.3199 29.0693 16.699C29.0693 19.883 31.6538 22.4675 34.8378 22.4675C35.2169 22.4675 35.527 22.1573 35.527 21.7783C35.527 21.3992 35.2169 21.0891 34.8378 21.0891Z" fill="#134A85"/>
<path d="M20.282 15.9685C19.9167 16.0718 19.7031 16.4509 19.8065 16.8162C20.1235 17.9327 19.9788 19.1043 19.4067 20.1174C18.8278 21.1443 17.8698 21.8817 16.7189 22.1918C16.3536 22.2883 16.1331 22.6674 16.2365 23.0395C16.3192 23.3497 16.5948 23.5495 16.8981 23.5495C16.9601 23.5495 17.0152 23.5427 17.0773 23.522C18.5866 23.1154 19.8409 22.1436 20.6059 20.7928C21.364 19.4627 21.5501 17.912 21.1366 16.4371C21.0263 16.0787 20.6473 15.8651 20.282 15.9685Z" fill="#134A85"/>
</svg>
