<svg width="51" height="51" viewBox="0 0 51 51" fill="none" xmlns="http://www.w3.org/2000/svg">
<g clip-path="url(#clip0_3065_7576)">
<path d="M50.9512 37.9063C50.9462 37.6434 50.8406 37.3973 50.6534 37.2141C50.4611 37.0258 50.2081 36.9232 49.9373 36.9293C49.6713 36.9343 49.4233 37.0418 49.2379 37.2341C49.0536 37.4253 48.955 37.6773 48.96 37.9433C48.9919 39.6795 49.0078 41.4107 49.0078 43.088C49.0078 45.1031 48.9849 47.0944 48.9391 49.0079H42.575C42.3539 43.8889 42.0371 39.986 41.9626 39.1025C42.694 36.5817 45.0005 29.1269 45.0005 29.1269C45.0553 28.9555 45.0623 28.7722 45.0214 28.597L45.0205 28.5949C44.9139 28.1427 44.5164 27.8269 44.0522 27.8269C43.9754 27.8269 43.8988 27.8359 43.8231 27.8539C43.4665 27.9375 43.1846 28.2105 43.089 28.5641C42.9167 29.108 41.3638 34.0087 39.9981 38.7232C39.5399 40.2981 39.1425 41.7245 38.8158 42.9646C38.4393 44.3909 38.1813 45.4817 38.025 46.2985C37.8615 47.1532 37.756 48.0646 37.7121 49.0079H26.4961V28.8867C26.4961 28.3379 26.0488 27.8906 25.5 27.8906C24.9512 27.8906 24.5039 28.3379 24.5039 28.8867V49.0078H13.2878C13.2441 48.0645 13.1384 47.1531 12.975 46.2984C12.6834 44.7781 12.0382 42.3021 11.0031 38.7285C11.0026 38.7267 11.0023 38.7249 11.0018 38.7231C9.62914 33.9847 8.08121 29.1019 7.90988 28.5609C7.81316 28.2083 7.53236 27.9373 7.17676 27.8537C6.8849 27.7849 6.57013 27.8547 6.33406 28.0389C6.15476 28.1793 6.03224 28.3716 5.97945 28.5947L5.97836 28.5968C5.93752 28.7721 5.94449 28.9553 5.99927 29.1267C5.99927 29.1267 5.99927 29.1267 6.01023 29.1635C6.04211 29.262 6.13673 29.5599 6.27918 30.0131C6.75083 31.5154 7.9551 35.374 9.03686 39.1011C8.97779 39.8074 8.80119 41.9992 8.62687 45.0212C8.54818 46.3869 8.47955 47.7276 8.42476 49.0077H2.06162C2.0156 47.0947 1.99219 45.1088 1.99219 43.0879C1.99219 36.6322 2.23225 30.8469 2.43346 27.1295C2.54801 25.0238 2.66156 23.3494 2.73727 22.3155C2.77113 21.8492 2.98181 19.0592 3.18541 18.4005C4.27683 19.1097 5.57693 19.5234 6.97266 19.5234C10.8174 19.5234 13.9453 16.3955 13.9453 12.5508C13.9453 11.8076 13.8273 11.0917 13.6109 10.4194C14.1331 10.2019 14.6962 9.96821 15.308 9.7149C16.8838 9.06236 18.2544 7.99554 19.2724 6.6299C20.2835 5.27432 20.912 3.67051 21.0903 1.99209H29.9097C30.0701 3.49818 30.601 4.96045 31.4437 6.22051C33.3533 9.18428 36.2991 9.88593 38.8071 11.0084C43.8704 13.1915 48.2612 15.6464 48.174 21.15C48.2587 22.2027 48.4738 25.0766 48.6621 29.009C48.688 29.5569 49.155 29.9832 49.705 29.9564C50.2538 29.9294 50.6782 29.4613 50.6523 28.9134C50.4242 24.1592 50.1642 21.0114 50.1144 20.4287C49.6041 9.60583 35.1884 9.57077 33.1002 5.11295C32.2814 3.88975 31.8491 2.46533 31.8491 0.996094C31.8491 0.734121 31.7434 0.477129 31.5571 0.291855C31.372 0.106482 31.116 0 30.853 0H20.147C19.884 0 19.628 0.106482 19.4418 0.291855C19.2565 0.477129 19.1509 0.734121 19.1509 0.996094C19.1509 4.01615 17.343 6.71666 14.5461 7.87412C13.8911 8.14496 13.2893 8.39488 12.7328 8.62677C11.476 6.78788 9.36318 5.57812 6.97266 5.57812C3.12793 5.57812 0 8.70606 0 12.5508C0 14.2283 0.595664 15.7692 1.58638 16.9735C1.12588 18.0563 0.890807 19.2163 0.885428 20.4289C0.794783 21.4867 0 31.1139 0 43.0879C0 43.2652 0.036457 47.9506 0.0948281 50.0009C0.0948281 50.0019 0.0947285 50.0029 0.0947285 50.0039C0.0947285 50.0071 0.0951269 50.0102 0.0952266 50.0134C0.0954258 50.0194 0.0955254 50.0257 0.0957246 50.0318C0.0957246 50.0325 0.0962227 50.033 0.0962227 50.0337C0.11216 50.5687 0.551936 51 1.09072 51H1.09271H1.11861H9.38021C9.91801 51 10.3544 50.5797 10.3753 50.0428C10.4381 48.462 10.5168 46.8573 10.6153 45.136C10.6193 45.0653 10.6232 44.9936 10.6283 44.9238C10.7996 45.6251 10.9311 46.2127 11.0177 46.672C11.2149 47.7009 11.3165 48.8225 11.3205 50.0069C11.3216 50.2729 11.4252 50.5229 11.6134 50.7091C11.8006 50.8964 12.0506 51 12.3166 51H38.6832C38.9492 51 39.1993 50.8964 39.3865 50.7091C39.5748 50.5229 39.6784 50.2729 39.6793 50.0069C39.6823 48.8245 39.7839 47.7028 39.9811 46.672C40.0698 46.2118 40.2003 45.6231 40.3716 44.9228C40.4732 46.6451 40.5578 48.3672 40.6236 50.0436C40.6455 50.5796 41.0818 51 41.6186 51H49.9091C50.1691 51 50.4151 50.8994 50.6024 50.7171C50.7896 50.5358 50.8972 50.2917 50.9042 50.0318C50.9679 47.7935 50.9998 45.4576 50.9998 43.0879C51 41.3986 50.9831 39.6554 50.9512 37.9063ZM6.97266 7.57031C9.71889 7.57031 11.9531 9.80455 11.9531 12.5508C11.9531 15.297 9.71889 17.5312 6.97266 17.5312C4.22643 17.5312 1.99219 15.297 1.99219 12.5508C1.99219 9.80455 4.22643 7.57031 6.97266 7.57031Z" fill="#134A85"/>
<path d="M49.8055 32.447C49.2567 32.4649 48.8254 32.927 48.8433 33.4758C48.8523 33.7358 48.9599 33.9779 49.1471 34.1591C49.3334 34.3395 49.5795 34.4381 49.8384 34.4381H49.8723C50.1382 34.4291 50.3843 34.3175 50.5666 34.1233C50.7478 33.9281 50.8435 33.675 50.8345 33.4091C50.8255 33.1492 50.718 32.9061 50.5307 32.7259C50.3355 32.5375 50.0775 32.437 49.8055 32.447Z" fill="#134A85"/>
<path d="M6.97266 15.5391C8.62039 15.5391 9.96094 14.1985 9.96094 12.5508C9.96094 10.903 8.62039 9.5625 6.97266 9.5625C5.32492 9.5625 3.98438 10.903 3.98438 12.5508C3.98438 14.1985 5.32492 15.5391 6.97266 15.5391ZM6.97266 11.5547C7.5219 11.5547 7.96875 12.0015 7.96875 12.5508C7.96875 13.1 7.5219 13.5469 6.97266 13.5469C6.42341 13.5469 5.97656 13.1 5.97656 12.5508C5.97656 12.0015 6.42341 11.5547 6.97266 11.5547Z" fill="#134A85"/>
<path d="M19.937 19.18C20.1174 19.3319 20.3449 19.4142 20.5785 19.4142C20.6127 19.4142 20.6471 19.4124 20.6814 19.4088L23.71 19.0944C24.2571 19.0376 24.6546 18.5479 24.5978 18.0007C24.541 17.4537 24.0518 17.0548 23.5042 17.1129L21.5026 17.3207L21.4043 15.8663C21.3678 15.3265 20.9113 14.915 20.3664 14.9385L16.9423 15.0902C16.3927 15.1145 15.9669 15.5798 15.9912 16.1294C16.0156 16.679 16.4826 17.106 17.0304 17.0805L19.4823 16.9718L19.5846 18.4853C19.6031 18.755 19.7302 19.0058 19.937 19.18Z" fill="#134A85"/>
<path d="M18.5322 22.259C18.4473 22.0031 18.2624 21.7925 18.0196 21.6754C17.7767 21.5582 17.4969 21.5446 17.2438 21.6372L15.8194 22.1593L14.9214 19.8751C14.7201 19.3631 14.142 19.111 13.6299 19.3126C13.1179 19.514 12.8661 20.0921 13.0674 20.6042L14.3215 23.794C14.5195 24.2976 15.0836 24.5511 15.5913 24.3646L16.9645 23.8613L17.6446 25.9129C17.7832 26.331 18.1723 26.5958 18.5898 26.5958C18.6937 26.5958 18.7994 26.5793 18.9034 26.5449C19.4256 26.3718 19.7086 25.8082 19.5355 25.2859L18.5322 22.259Z" fill="#134A85"/>
</g>
<defs>
<clipPath id="clip0_3065_7576">
<rect width="51" height="51" fill="white"/>
</clipPath>
</defs>
</svg>
