<svg width="51" height="51" viewBox="0 0 51 51" fill="none" xmlns="http://www.w3.org/2000/svg">
<g clip-path="url(#clip0_3064_13002)">
<path d="M18.9353 12.7325C16.9734 9.65175 15.9224 6.91448 15.9224 5.57812C15.9224 2.39062 18.313 1.59375 20.7036 1.59375H20.7259C23.1165 1.59375 25.5072 2.39062 25.5072 5.57812C25.5072 8.76562 19.5155 19.9219 9.5625 24.7031C10.7614 25.9178 12.0987 26.9876 13.5469 27.8906C18.9465 24.0377 27.3328 14.9677 27.8763 8.60625C27.9108 8.2144 27.8147 7.82213 27.603 7.49062L24.9422 3.32058" stroke="#134A85" stroke-width="1.59375" stroke-linecap="round" stroke-linejoin="round"/>
<path d="M22.7637 23.4789C24.3527 25.0818 26.0657 26.5569 27.8868 27.8904C29.3364 26.9876 30.675 25.9178 31.8751 24.7029C29.5637 23.5731 27.4173 22.1331 25.4954 20.4229" stroke="#134A85" stroke-width="1.59375" stroke-linecap="round" stroke-linejoin="round"/>
<path d="M16.4953 3.32031L13.8305 7.49673C13.6187 7.82824 13.5226 8.22051 13.5572 8.61236C13.746 10.8117 14.8728 13.3346 16.4889 15.8544" stroke="#134A85" stroke-width="1.59375" stroke-linecap="round" stroke-linejoin="round"/>
<path d="M18.4961 5.87302C19.2144 5.66533 19.9598 5.56596 20.7074 5.57818H20.7297C21.478 5.56577 22.2239 5.66542 22.9427 5.87382" stroke="#134A85" stroke-width="1.59375" stroke-linecap="round" stroke-linejoin="round"/>
<path d="M10.3594 11.3953C9.85655 11.2479 9.57286 11.1658 9.5625 11.1562C8.03489 10.2398 1.59375 4.78125 1.59375 4.78125" stroke="#134A85" stroke-width="1.59375" stroke-linecap="round" stroke-linejoin="round"/>
<path d="M1.59375 23.9057C1.59375 23.9057 7.17188 27.0932 7.96875 28.687C8.76562 30.2807 10.7028 35.5776 11.9531 37.4526C13.4143 39.6739 15.0111 41.8029 16.7344 43.8276C18.3281 45.4214 19.125 49.4057 21.5156 49.4057C23.1094 49.4057 23.9062 47.812 23.1094 45.4214C22.6057 43.9073 18.2317 38.3459 19.9219 36.6557C21.5156 35.062 35.8594 48.6089 39.0469 48.6089C41.4375 48.6089 41.4375 47.0151 41.4375 46.2182C41.4375 45.4214 31.0781 36.6557 31.0781 36.6557C31.0781 36.6557 43.8281 43.8276 45.4219 43.8276C47.8125 43.8276 47.8125 42.2339 47.8125 41.437C47.685 40.1437 37.4531 35.062 33.4688 31.8745C33.4688 31.8745 45.4219 35.8589 47.0156 35.8589C49.4062 35.8589 49.4062 34.2651 49.4062 33.4682C49.4062 32.6714 41.0391 29.9851 35.0625 27.0932C40.6406 27.8901 45.4219 29.4839 47.0156 29.4839C49.4062 29.4839 49.4062 27.8901 49.4062 27.0932C49.4062 25.4995 40.6406 23.9057 34.2656 20.7182C32.4896 19.5956 30.6238 18.6214 28.6875 17.8057" stroke="#134A85" stroke-width="1.59375" stroke-linecap="round" stroke-linejoin="round"/>
</g>
<defs>
<clipPath id="clip0_3064_13002">
<rect width="51" height="51" fill="white"/>
</clipPath>
</defs>
</svg>
