<svg width="64" height="64" viewBox="0 0 64 64" fill="none" xmlns="http://www.w3.org/2000/svg">
<path d="M57 31C56.2046 31.0009 55.4421 31.3172 54.8796 31.8796C54.3172 32.4421 54.0009 33.2046 54 34V38H28C26.4248 38.0015 24.8723 38.3756 23.4694 39.092C22.0665 39.8083 20.853 40.8465 19.9282 42.1216C19.7593 41.0567 19.3078 40.0567 18.6207 39.2258C17.9336 38.395 17.0361 37.7638 16.0218 37.398C15.0076 37.0323 13.9138 36.9455 12.8546 37.1467C11.7953 37.3478 10.8095 37.8295 9.99994 38.5416L10 34C9.99065 33.2105 9.67046 32.4565 9.10886 31.9015C8.54726 31.3465 7.78953 31.0353 6.99997 31.0353C6.21041 31.0353 5.45269 31.3466 4.8911 31.9016C4.32951 32.4566 4.00933 33.2106 4 34.0001V56C3.99997 56.1313 4.02581 56.2614 4.07605 56.3827C4.12629 56.5041 4.19995 56.6143 4.29282 56.7072C4.38568 56.8 4.49594 56.8737 4.61728 56.924C4.73862 56.9742 4.86867 57 5 57H9C9.13133 57 9.26138 56.9742 9.38272 56.924C9.50407 56.8737 9.61432 56.8 9.70718 56.7072C9.80005 56.6143 9.87371 56.5041 9.92395 56.3827C9.97419 56.2614 10 56.1313 10 56V53.8213H54V56C54 56.1313 54.0258 56.2614 54.076 56.3827C54.1263 56.5041 54.2 56.6143 54.2928 56.7072C54.3857 56.8 54.4959 56.8737 54.6173 56.924C54.7386 56.9742 54.8687 57 55 57H59C59.1313 57 59.2614 56.9742 59.3827 56.924C59.5041 56.8737 59.6143 56.8 59.7072 56.7072C59.8 56.6143 59.8737 56.5041 59.924 56.3827C59.9742 56.2614 60 56.1313 60 56V34C59.9991 33.2046 59.6828 32.4421 59.1204 31.8796C58.5579 31.3172 57.7954 31.0009 57 31ZM8 55H6V34C6.00524 33.7382 6.11291 33.489 6.29988 33.3057C6.48685 33.1225 6.73822 33.0198 7.00003 33.0198C7.26184 33.0198 7.5132 33.1225 7.70016 33.3058C7.88712 33.489 7.99477 33.7383 8 34.0001C7.99994 38.823 8 50.3301 8 55ZM29 40H54V47H29V40ZM27 40.0695V47H20.0695C20.2937 45.2403 21.096 43.6048 22.3504 42.3504C23.6048 41.096 25.2403 40.2937 27 40.0695ZM14 39.001C15.0552 39.0107 16.0638 39.437 16.8061 40.187C17.5484 40.9371 17.9642 41.9501 17.9629 43.0053C17.9616 44.0606 17.5434 45.0725 16.7993 45.8208C16.0552 46.569 15.0455 46.9929 13.9903 47C12.9351 46.9903 11.9265 46.564 11.1842 45.814C10.4419 45.0639 10.0261 44.0509 10.0274 42.9957C10.0287 41.9404 10.4469 40.9285 11.191 40.1802C11.9351 39.432 12.9448 39.0081 14 39.001ZM54 51.8213H10V49H13.9807C14.0154 48.9984 53.9618 49.0011 54.0001 49L54 51.8213ZM58 55H56V34C56 33.7348 56.1054 33.4804 56.2929 33.2929C56.4804 33.1054 56.7348 33 57 33C57.2652 33 57.5196 33.1054 57.7071 33.2929C57.8946 33.4804 58 33.7348 58 34V55Z" fill="#134A85"/>
<path d="M45 19.9999C45 18.2928 44.6637 16.6023 44.0104 15.0251C43.3571 13.4478 42.3995 12.0147 41.1923 10.8076C39.9852 9.60041 38.5521 8.64285 36.9748 7.98954C35.3976 7.33624 33.7071 6.99999 31.9999 7C28.5521 7.00002 25.2455 8.36967 22.8076 10.8077C20.3696 13.2456 19 16.5522 19 20.0001C19.7115 37.2468 44.2911 37.2418 45 19.9999ZM43 20.0001C43 22.9175 41.8411 25.7154 39.7782 27.7783C37.7152 29.8412 34.9174 31.0001 32 31.0001C29.0826 31.0001 26.2847 29.8412 24.2218 27.7782C22.1589 25.7153 21 22.9174 21 20.0001C21.5976 5.40588 42.4047 5.41006 43 20.0001Z" fill="#134A85"/>
<path d="M28.8801 16.1996C28.8748 15.8372 28.727 15.4914 28.4688 15.2369C28.2106 14.9825 27.8626 14.8398 27.5001 14.8398C27.1376 14.8398 26.7896 14.9825 26.5314 15.2369C26.2732 15.4914 26.1255 15.8372 26.1201 16.1996C26.1255 16.5621 26.2732 16.9079 26.5314 17.1624C26.7896 17.4168 27.1376 17.5594 27.5001 17.5594C27.8626 17.5594 28.2106 17.4168 28.4688 17.1624C28.727 16.9079 28.8748 16.5621 28.8801 16.1996Z" fill="#134A85"/>
<path d="M37.8801 16.1996C37.8748 15.8372 37.727 15.4914 37.4688 15.2369C37.2106 14.9825 36.8626 14.8398 36.5001 14.8398C36.1376 14.8398 35.7896 14.9825 35.5314 15.2369C35.2732 15.4914 35.1255 15.8372 35.1201 16.1996C35.1255 16.5621 35.2732 16.9079 35.5314 17.1624C35.7896 17.4168 36.1376 17.5594 36.5001 17.5594C36.8626 17.5594 37.2106 17.4168 37.4688 17.1624C37.727 16.9079 37.8748 16.5621 37.8801 16.1996Z" fill="#134A85"/>
<path d="M26.7492 26.7856C26.9041 26.7859 27.0569 26.7501 27.1955 26.6812C27.3342 26.6122 27.4548 26.5119 27.548 26.3882C28.0679 25.6992 28.7405 25.1402 29.5131 24.7553C30.2856 24.3703 31.1369 24.17 32.0001 24.1699C32.8632 24.1699 33.7145 24.3702 34.4871 24.755C35.2597 25.1398 35.9324 25.6987 36.4523 26.3877C36.5314 26.4926 36.6304 26.5809 36.7436 26.6476C36.8568 26.7142 36.9821 26.7579 37.1122 26.7761C37.2423 26.7943 37.3747 26.7867 37.5019 26.7537C37.6291 26.7207 37.7485 26.663 37.8533 26.5838C37.9581 26.5046 38.0464 26.4056 38.1129 26.2923C38.1794 26.179 38.223 26.0537 38.2411 25.9236C38.2591 25.7934 38.2514 25.661 38.2183 25.5339C38.1852 25.4067 38.1273 25.2874 38.048 25.1826C37.3418 24.2467 36.428 23.4875 35.3785 22.9647C34.329 22.4419 33.1725 22.1699 32.0001 22.1699C30.8276 22.17 29.6711 22.4421 28.6217 22.965C27.5723 23.4879 26.6585 24.2472 25.9523 25.1831C25.8428 25.3321 25.7765 25.5084 25.7606 25.6926C25.7447 25.8768 25.7798 26.0618 25.8621 26.2274C25.9444 26.3929 26.0708 26.5326 26.2273 26.6311C26.3837 26.7296 26.5643 26.783 26.7492 26.7856Z" fill="#134A85"/>
</svg>
