<svg width="51" height="51" viewBox="0 0 51 51" fill="none" xmlns="http://www.w3.org/2000/svg">
<mask id="path-1-outside-1_3059_12393" maskUnits="userSpaceOnUse" x="30.9248" y="4.76953" width="17" height="41" fill="black">
<rect fill="white" x="30.9248" y="4.76953" width="17" height="41"/>
<path d="M46.1704 22.3803L45.6668 22.3038C45.7879 21.776 45.5877 21.1933 45.1338 20.8465L43.8116 19.8354C43.7543 19.7908 43.7173 19.727 43.7071 19.6556C43.6969 19.583 43.716 19.5116 43.7594 19.4529C43.7594 19.4529 45.3416 17.3186 45.3646 17.2765C45.3646 17.2765 45.5418 17.2637 45.5584 17.2599C45.9562 17.1732 46.2966 16.9348 46.5172 16.5867C46.7378 16.2399 46.8117 15.8268 46.7263 15.4226L46.0607 12.332C45.8797 11.502 45.065 10.9729 44.2451 11.1539L43.5821 11.2993C43.4814 11.21 43.3679 11.1335 43.2417 11.0749L41.7793 10.3991C41.6531 10.3405 41.597 10.19 41.6556 10.0625L42.6782 7.79304C42.9 7.29706 42.6833 6.70929 42.1949 6.48234L40.8434 5.85759C40.3551 5.63319 39.775 5.85249 39.5506 6.34719L38.537 8.59884L34.5832 10.0944C34.1484 10.2589 33.8029 10.5853 33.6104 11.0124C33.4178 11.4408 33.4013 11.9189 33.5632 12.3588L34.1433 13.9347C34.3052 14.3746 34.6253 14.7227 35.046 14.9177C35.2742 15.0236 35.5178 15.0771 35.7626 15.0771C35.9678 15.0771 36.1731 15.0401 36.3707 14.9649L41.2106 13.1136L42.1682 13.5573C42.5226 13.7205 42.9293 13.718 43.2863 13.5509C43.6408 13.3839 43.9047 13.0703 44.0105 12.689C44.0781 12.4442 44.0705 12.1918 44.0003 11.9572L44.3981 11.8705C44.8316 11.7749 45.2626 12.0541 45.3582 12.4927L46.0238 15.5807C46.0684 15.7937 46.0289 16.0117 45.9128 16.1953C45.8045 16.3661 45.6425 16.486 45.4526 16.5383C45.3977 16.3279 45.2766 16.1341 45.093 15.9926L43.8716 15.058C43.4342 14.7252 42.8095 14.8145 42.478 15.2569L40.9607 17.2969L36.65 17.9089C35.6784 18.0466 35.0001 18.9595 35.1353 19.9438L35.3724 21.6599C35.5076 22.6404 36.4052 23.3264 37.3742 23.1887L42.6539 22.4186L43.5235 23.0841C43.7606 23.2652 44.0488 23.3608 44.342 23.3608C44.4415 23.3608 44.5409 23.3493 44.6391 23.3276C44.8814 23.2728 45.1019 23.1542 45.2792 22.9859L46.0633 23.1058C46.5032 23.1734 46.8066 23.589 46.7403 24.034L46.2762 27.1577C46.2099 27.604 45.7981 27.9113 45.3557 27.8437C45.2256 27.8246 45.0968 27.8067 44.9668 27.7876C45.1338 27.4191 45.0866 26.969 44.8074 26.6426L43.7173 25.3727C43.3373 24.9329 42.6743 24.8857 42.237 25.2695L40.1651 27.0978L35.4425 26.765C34.3983 26.6911 33.4892 27.4931 33.4166 28.5513L33.2878 30.4268C33.2534 30.9381 33.4166 31.4328 33.7481 31.8191C34.0796 32.2055 34.5398 32.4375 35.046 32.4732L40.8332 32.8595L41.6174 33.7724C41.8928 34.0925 42.2918 34.2748 42.7139 34.2748H42.7266C43.1512 34.271 43.5503 34.081 43.8244 33.752C44.0832 33.4409 44.1878 33.038 44.1431 32.6453L45.3901 32.6696C45.7356 32.6785 46.0097 32.9705 45.9995 33.3198L45.909 36.8324C45.9001 37.1805 45.6158 37.4623 45.2728 37.4585L44.8814 37.4291C44.8852 37.1282 44.7755 36.8248 44.5499 36.5953L43.2226 35.2489C42.7789 34.8014 42.056 34.8014 41.611 35.2489L39.4001 37.4903H34.026C32.8683 37.4903 31.9248 38.4453 31.9248 39.6196V41.7463C31.9248 42.9155 32.8632 43.8666 34.0184 43.8666L40.5986 43.8424L41.5676 44.8254C41.866 45.1276 42.2714 45.2959 42.6935 45.2959C42.7355 45.2959 42.7776 45.2946 42.8197 45.2908C43.2838 45.2538 43.7084 45.0141 43.9838 44.6329C44.4415 43.9967 44.3573 43.0825 43.7874 42.5049L42.3505 41.0489C42.2727 40.9698 42.2294 40.8653 42.2294 40.7531C42.2294 40.6409 42.2727 40.5363 42.3505 40.4573C42.3505 40.4573 44.6034 38.1712 44.6276 38.1419C44.6276 38.1419 45.2447 38.1878 45.2511 38.1878H45.2753C46.0046 38.1878 46.609 37.5936 46.6294 36.8503L46.7199 33.3377C46.739 32.5854 46.1513 31.9581 45.4079 31.9377L43.8626 31.9135C43.8359 31.8765 42.5991 30.4319 42.5991 30.4319C42.543 30.3656 42.515 30.2815 42.5201 30.1948C42.5264 30.1081 42.5647 30.0278 42.6297 29.9704L44.3688 28.4366L44.6901 28.4825C44.8775 28.5092 45.065 28.536 45.2498 28.5628C45.3263 28.5743 45.4028 28.5806 45.4781 28.5806C46.2201 28.5806 46.8742 28.0298 46.9877 27.2636L47.4518 24.1398C47.578 23.297 47.003 22.5078 46.1704 22.3803ZM43.3144 12.4889C43.2647 12.6674 43.1461 12.8076 42.9803 12.8867C42.8146 12.9644 42.6272 12.9657 42.4652 12.8905L41.3726 12.3843C41.2948 12.3486 41.2004 12.3422 41.1176 12.3665C41.1086 12.369 41.101 12.3716 41.0921 12.3754L36.1157 14.279C35.8633 14.3746 35.5892 14.3644 35.3431 14.2509C35.0983 14.1374 34.9109 13.9334 34.8165 13.6772L34.2364 12.1013C34.142 11.8437 34.151 11.5632 34.2644 11.3133C34.3766 11.0634 34.5794 10.8722 34.8344 10.7753L38.9246 9.22741C39.0138 9.19299 39.0903 9.12159 39.1298 9.03361L40.2034 6.64809C40.262 6.51804 40.415 6.45939 40.5438 6.51804L41.894 7.14279C42.0228 7.20271 42.0802 7.35699 42.0215 7.48704L40.999 9.75526C40.7771 10.2487 40.9926 10.8352 41.4797 11.0596L42.9421 11.7353C43.2353 11.8743 43.396 12.1969 43.3144 12.4889ZM44.4836 22.6124C44.2974 22.6544 44.1049 22.6124 43.9557 22.4989L42.9612 21.739C42.8771 21.6816 42.7878 21.6599 42.6947 21.6727L37.2709 22.4632C36.6971 22.5448 36.1642 22.1368 36.0839 21.5554L35.8467 19.8392C35.7664 19.254 36.1706 18.7109 36.7481 18.628L41.203 17.9956C41.2935 17.9828 41.3802 17.9318 41.4376 17.8604C41.4401 17.8579 41.4427 17.8541 41.444 17.8515L43.0492 15.6942C43.141 15.5718 43.3144 15.5476 43.4342 15.6381L44.6544 16.5714C44.7755 16.6645 44.7998 16.8404 44.7092 16.9616L43.1843 19.013C43.025 19.2272 42.9574 19.4912 42.9944 19.7564C43.0313 20.0216 43.1678 20.2574 43.3781 20.4181L44.7003 21.4292C44.9693 21.6344 45.0611 22.0016 44.9132 22.2821C44.8227 22.453 44.6697 22.5703 44.4836 22.6124ZM44.0411 37.7122L41.8418 39.9409C41.6276 40.1576 41.5103 40.4458 41.509 40.7531C41.509 41.0603 41.6263 41.3485 41.8405 41.5652L43.2774 43.0213C43.5987 43.3464 43.651 43.8539 43.4011 44.2019C43.2481 44.4136 43.0224 44.5424 42.7636 44.5628C42.506 44.5832 42.2561 44.4901 42.0764 44.309L41.0041 43.2215C40.9671 43.1832 40.7937 43.1118 40.7414 43.1118L34.0158 43.136C33.2597 43.136 32.6439 42.5126 32.6439 41.745V39.6183C32.6439 38.8469 33.2636 38.2196 34.0235 38.2196H39.5442C39.6398 38.2196 39.7367 38.1788 39.8043 38.11L42.1172 35.7653C42.2804 35.5995 42.5468 35.5995 42.71 35.764L44.0373 37.1091C44.2031 37.2761 44.2031 37.5464 44.0411 37.7122ZM42.158 29.4196C41.9476 29.6045 41.8214 29.862 41.8022 30.1438C41.7831 30.4256 41.8736 30.6984 42.056 30.9113L43.2353 32.2858C43.4852 32.5765 43.5018 33.0049 43.2723 33.279C43.1333 33.4473 42.937 33.5404 42.7202 33.5417C42.5048 33.5429 42.3008 33.4511 42.1618 33.2892L41.282 32.2641C41.2234 32.1953 41.138 32.1494 41.0487 32.1392C41.0423 32.1379 41.036 32.1379 41.0296 32.1379L35.097 31.7414C34.7846 31.7197 34.5003 31.5756 34.295 31.3372C34.0898 31.0988 33.989 30.7928 34.0107 30.4753L34.1395 28.5998C34.1841 27.9431 34.7489 27.4446 35.3966 27.4905L40.2659 27.8335C40.3615 27.8399 40.4597 27.8067 40.5323 27.743L42.7139 25.819C42.8516 25.6991 43.0594 25.7132 43.1792 25.8509L44.2681 27.1195C44.3867 27.2585 44.3726 27.4701 44.2362 27.59L42.158 29.4196Z"/>
</mask>
<path d="M46.1704 22.3803L45.6668 22.3038C45.7879 21.776 45.5877 21.1933 45.1338 20.8465L43.8116 19.8354C43.7543 19.7908 43.7173 19.727 43.7071 19.6556C43.6969 19.583 43.716 19.5116 43.7594 19.4529C43.7594 19.4529 45.3416 17.3186 45.3646 17.2765C45.3646 17.2765 45.5418 17.2637 45.5584 17.2599C45.9562 17.1732 46.2966 16.9348 46.5172 16.5867C46.7378 16.2399 46.8117 15.8268 46.7263 15.4226L46.0607 12.332C45.8797 11.502 45.065 10.9729 44.2451 11.1539L43.5821 11.2993C43.4814 11.21 43.3679 11.1335 43.2417 11.0749L41.7793 10.3991C41.6531 10.3405 41.597 10.19 41.6556 10.0625L42.6782 7.79304C42.9 7.29706 42.6833 6.70929 42.1949 6.48234L40.8434 5.85759C40.3551 5.63319 39.775 5.85249 39.5506 6.34719L38.537 8.59884L34.5832 10.0944C34.1484 10.2589 33.8029 10.5853 33.6104 11.0124C33.4178 11.4408 33.4013 11.9189 33.5632 12.3588L34.1433 13.9347C34.3052 14.3746 34.6253 14.7227 35.046 14.9177C35.2742 15.0236 35.5178 15.0771 35.7626 15.0771C35.9678 15.0771 36.1731 15.0401 36.3707 14.9649L41.2106 13.1136L42.1682 13.5573C42.5226 13.7205 42.9293 13.718 43.2863 13.5509C43.6408 13.3839 43.9047 13.0703 44.0105 12.689C44.0781 12.4442 44.0705 12.1918 44.0003 11.9572L44.3981 11.8705C44.8316 11.7749 45.2626 12.0541 45.3582 12.4927L46.0238 15.5807C46.0684 15.7937 46.0289 16.0117 45.9128 16.1953C45.8045 16.3661 45.6425 16.486 45.4526 16.5383C45.3977 16.3279 45.2766 16.1341 45.093 15.9926L43.8716 15.058C43.4342 14.7252 42.8095 14.8145 42.478 15.2569L40.9607 17.2969L36.65 17.9089C35.6784 18.0466 35.0001 18.9595 35.1353 19.9438L35.3724 21.6599C35.5076 22.6404 36.4052 23.3264 37.3742 23.1887L42.6539 22.4186L43.5235 23.0841C43.7606 23.2652 44.0488 23.3608 44.342 23.3608C44.4415 23.3608 44.5409 23.3493 44.6391 23.3276C44.8814 23.2728 45.1019 23.1542 45.2792 22.9859L46.0633 23.1058C46.5032 23.1734 46.8066 23.589 46.7403 24.034L46.2762 27.1577C46.2099 27.604 45.7981 27.9113 45.3557 27.8437C45.2256 27.8246 45.0968 27.8067 44.9668 27.7876C45.1338 27.4191 45.0866 26.969 44.8074 26.6426L43.7173 25.3727C43.3373 24.9329 42.6743 24.8857 42.237 25.2695L40.1651 27.0978L35.4425 26.765C34.3983 26.6911 33.4892 27.4931 33.4166 28.5513L33.2878 30.4268C33.2534 30.9381 33.4166 31.4328 33.7481 31.8191C34.0796 32.2055 34.5398 32.4375 35.046 32.4732L40.8332 32.8595L41.6174 33.7724C41.8928 34.0925 42.2918 34.2748 42.7139 34.2748H42.7266C43.1512 34.271 43.5503 34.081 43.8244 33.752C44.0832 33.4409 44.1878 33.038 44.1431 32.6453L45.3901 32.6696C45.7356 32.6785 46.0097 32.9705 45.9995 33.3198L45.909 36.8324C45.9001 37.1805 45.6158 37.4623 45.2728 37.4585L44.8814 37.4291C44.8852 37.1282 44.7755 36.8248 44.5499 36.5953L43.2226 35.2489C42.7789 34.8014 42.056 34.8014 41.611 35.2489L39.4001 37.4903H34.026C32.8683 37.4903 31.9248 38.4453 31.9248 39.6196V41.7463C31.9248 42.9155 32.8632 43.8666 34.0184 43.8666L40.5986 43.8424L41.5676 44.8254C41.866 45.1276 42.2714 45.2959 42.6935 45.2959C42.7355 45.2959 42.7776 45.2946 42.8197 45.2908C43.2838 45.2538 43.7084 45.0141 43.9838 44.6329C44.4415 43.9967 44.3573 43.0825 43.7874 42.5049L42.3505 41.0489C42.2727 40.9698 42.2294 40.8653 42.2294 40.7531C42.2294 40.6409 42.2727 40.5363 42.3505 40.4573C42.3505 40.4573 44.6034 38.1712 44.6276 38.1419C44.6276 38.1419 45.2447 38.1878 45.2511 38.1878H45.2753C46.0046 38.1878 46.609 37.5936 46.6294 36.8503L46.7199 33.3377C46.739 32.5854 46.1513 31.9581 45.4079 31.9377L43.8626 31.9135C43.8359 31.8765 42.5991 30.4319 42.5991 30.4319C42.543 30.3656 42.515 30.2815 42.5201 30.1948C42.5264 30.1081 42.5647 30.0278 42.6297 29.9704L44.3688 28.4366L44.6901 28.4825C44.8775 28.5092 45.065 28.536 45.2498 28.5628C45.3263 28.5743 45.4028 28.5806 45.4781 28.5806C46.2201 28.5806 46.8742 28.0298 46.9877 27.2636L47.4518 24.1398C47.578 23.297 47.003 22.5078 46.1704 22.3803ZM43.3144 12.4889C43.2647 12.6674 43.1461 12.8076 42.9803 12.8867C42.8146 12.9644 42.6272 12.9657 42.4652 12.8905L41.3726 12.3843C41.2948 12.3486 41.2004 12.3422 41.1176 12.3665C41.1086 12.369 41.101 12.3716 41.0921 12.3754L36.1157 14.279C35.8633 14.3746 35.5892 14.3644 35.3431 14.2509C35.0983 14.1374 34.9109 13.9334 34.8165 13.6772L34.2364 12.1013C34.142 11.8437 34.151 11.5632 34.2644 11.3133C34.3766 11.0634 34.5794 10.8722 34.8344 10.7753L38.9246 9.22741C39.0138 9.19299 39.0903 9.12159 39.1298 9.03361L40.2034 6.64809C40.262 6.51804 40.415 6.45939 40.5438 6.51804L41.894 7.14279C42.0228 7.20271 42.0802 7.35699 42.0215 7.48704L40.999 9.75526C40.7771 10.2487 40.9926 10.8352 41.4797 11.0596L42.9421 11.7353C43.2353 11.8743 43.396 12.1969 43.3144 12.4889ZM44.4836 22.6124C44.2974 22.6544 44.1049 22.6124 43.9557 22.4989L42.9612 21.739C42.8771 21.6816 42.7878 21.6599 42.6947 21.6727L37.2709 22.4632C36.6971 22.5448 36.1642 22.1368 36.0839 21.5554L35.8467 19.8392C35.7664 19.254 36.1706 18.7109 36.7481 18.628L41.203 17.9956C41.2935 17.9828 41.3802 17.9318 41.4376 17.8604C41.4401 17.8579 41.4427 17.8541 41.444 17.8515L43.0492 15.6942C43.141 15.5718 43.3144 15.5476 43.4342 15.6381L44.6544 16.5714C44.7755 16.6645 44.7998 16.8404 44.7092 16.9616L43.1843 19.013C43.025 19.2272 42.9574 19.4912 42.9944 19.7564C43.0313 20.0216 43.1678 20.2574 43.3781 20.4181L44.7003 21.4292C44.9693 21.6344 45.0611 22.0016 44.9132 22.2821C44.8227 22.453 44.6697 22.5703 44.4836 22.6124ZM44.0411 37.7122L41.8418 39.9409C41.6276 40.1576 41.5103 40.4458 41.509 40.7531C41.509 41.0603 41.6263 41.3485 41.8405 41.5652L43.2774 43.0213C43.5987 43.3464 43.651 43.8539 43.4011 44.2019C43.2481 44.4136 43.0224 44.5424 42.7636 44.5628C42.506 44.5832 42.2561 44.4901 42.0764 44.309L41.0041 43.2215C40.9671 43.1832 40.7937 43.1118 40.7414 43.1118L34.0158 43.136C33.2597 43.136 32.6439 42.5126 32.6439 41.745V39.6183C32.6439 38.8469 33.2636 38.2196 34.0235 38.2196H39.5442C39.6398 38.2196 39.7367 38.1788 39.8043 38.11L42.1172 35.7653C42.2804 35.5995 42.5468 35.5995 42.71 35.764L44.0373 37.1091C44.2031 37.2761 44.2031 37.5464 44.0411 37.7122ZM42.158 29.4196C41.9476 29.6045 41.8214 29.862 41.8022 30.1438C41.7831 30.4256 41.8736 30.6984 42.056 30.9113L43.2353 32.2858C43.4852 32.5765 43.5018 33.0049 43.2723 33.279C43.1333 33.4473 42.937 33.5404 42.7202 33.5417C42.5048 33.5429 42.3008 33.4511 42.1618 33.2892L41.282 32.2641C41.2234 32.1953 41.138 32.1494 41.0487 32.1392C41.0423 32.1379 41.036 32.1379 41.0296 32.1379L35.097 31.7414C34.7846 31.7197 34.5003 31.5756 34.295 31.3372C34.0898 31.0988 33.989 30.7928 34.0107 30.4753L34.1395 28.5998C34.1841 27.9431 34.7489 27.4446 35.3966 27.4905L40.2659 27.8335C40.3615 27.8399 40.4597 27.8067 40.5323 27.743L42.7139 25.819C42.8516 25.6991 43.0594 25.7132 43.1792 25.8509L44.2681 27.1195C44.3867 27.2585 44.3726 27.4701 44.2362 27.59L42.158 29.4196Z" fill="#134A85"/>
<path d="M46.1704 22.3803L45.6668 22.3038C45.7879 21.776 45.5877 21.1933 45.1338 20.8465L43.8116 19.8354C43.7543 19.7908 43.7173 19.727 43.7071 19.6556C43.6969 19.583 43.716 19.5116 43.7594 19.4529C43.7594 19.4529 45.3416 17.3186 45.3646 17.2765C45.3646 17.2765 45.5418 17.2637 45.5584 17.2599C45.9562 17.1732 46.2966 16.9348 46.5172 16.5867C46.7378 16.2399 46.8117 15.8268 46.7263 15.4226L46.0607 12.332C45.8797 11.502 45.065 10.9729 44.2451 11.1539L43.5821 11.2993C43.4814 11.21 43.3679 11.1335 43.2417 11.0749L41.7793 10.3991C41.6531 10.3405 41.597 10.19 41.6556 10.0625L42.6782 7.79304C42.9 7.29706 42.6833 6.70929 42.1949 6.48234L40.8434 5.85759C40.3551 5.63319 39.775 5.85249 39.5506 6.34719L38.537 8.59884L34.5832 10.0944C34.1484 10.2589 33.8029 10.5853 33.6104 11.0124C33.4178 11.4408 33.4013 11.9189 33.5632 12.3588L34.1433 13.9347C34.3052 14.3746 34.6253 14.7227 35.046 14.9177C35.2742 15.0236 35.5178 15.0771 35.7626 15.0771C35.9678 15.0771 36.1731 15.0401 36.3707 14.9649L41.2106 13.1136L42.1682 13.5573C42.5226 13.7205 42.9293 13.718 43.2863 13.5509C43.6408 13.3839 43.9047 13.0703 44.0105 12.689C44.0781 12.4442 44.0705 12.1918 44.0003 11.9572L44.3981 11.8705C44.8316 11.7749 45.2626 12.0541 45.3582 12.4927L46.0238 15.5807C46.0684 15.7937 46.0289 16.0117 45.9128 16.1953C45.8045 16.3661 45.6425 16.486 45.4526 16.5383C45.3977 16.3279 45.2766 16.1341 45.093 15.9926L43.8716 15.058C43.4342 14.7252 42.8095 14.8145 42.478 15.2569L40.9607 17.2969L36.65 17.9089C35.6784 18.0466 35.0001 18.9595 35.1353 19.9438L35.3724 21.6599C35.5076 22.6404 36.4052 23.3264 37.3742 23.1887L42.6539 22.4186L43.5235 23.0841C43.7606 23.2652 44.0488 23.3608 44.342 23.3608C44.4415 23.3608 44.5409 23.3493 44.6391 23.3276C44.8814 23.2728 45.1019 23.1542 45.2792 22.9859L46.0633 23.1058C46.5032 23.1734 46.8066 23.589 46.7403 24.034L46.2762 27.1577C46.2099 27.604 45.7981 27.9113 45.3557 27.8437C45.2256 27.8246 45.0968 27.8067 44.9668 27.7876C45.1338 27.4191 45.0866 26.969 44.8074 26.6426L43.7173 25.3727C43.3373 24.9329 42.6743 24.8857 42.237 25.2695L40.1651 27.0978L35.4425 26.765C34.3983 26.6911 33.4892 27.4931 33.4166 28.5513L33.2878 30.4268C33.2534 30.9381 33.4166 31.4328 33.7481 31.8191C34.0796 32.2055 34.5398 32.4375 35.046 32.4732L40.8332 32.8595L41.6174 33.7724C41.8928 34.0925 42.2918 34.2748 42.7139 34.2748H42.7266C43.1512 34.271 43.5503 34.081 43.8244 33.752C44.0832 33.4409 44.1878 33.038 44.1431 32.6453L45.3901 32.6696C45.7356 32.6785 46.0097 32.9705 45.9995 33.3198L45.909 36.8324C45.9001 37.1805 45.6158 37.4623 45.2728 37.4585L44.8814 37.4291C44.8852 37.1282 44.7755 36.8248 44.5499 36.5953L43.2226 35.2489C42.7789 34.8014 42.056 34.8014 41.611 35.2489L39.4001 37.4903H34.026C32.8683 37.4903 31.9248 38.4453 31.9248 39.6196V41.7463C31.9248 42.9155 32.8632 43.8666 34.0184 43.8666L40.5986 43.8424L41.5676 44.8254C41.866 45.1276 42.2714 45.2959 42.6935 45.2959C42.7355 45.2959 42.7776 45.2946 42.8197 45.2908C43.2838 45.2538 43.7084 45.0141 43.9838 44.6329C44.4415 43.9967 44.3573 43.0825 43.7874 42.5049L42.3505 41.0489C42.2727 40.9698 42.2294 40.8653 42.2294 40.7531C42.2294 40.6409 42.2727 40.5363 42.3505 40.4573C42.3505 40.4573 44.6034 38.1712 44.6276 38.1419C44.6276 38.1419 45.2447 38.1878 45.2511 38.1878H45.2753C46.0046 38.1878 46.609 37.5936 46.6294 36.8503L46.7199 33.3377C46.739 32.5854 46.1513 31.9581 45.4079 31.9377L43.8626 31.9135C43.8359 31.8765 42.5991 30.4319 42.5991 30.4319C42.543 30.3656 42.515 30.2815 42.5201 30.1948C42.5264 30.1081 42.5647 30.0278 42.6297 29.9704L44.3688 28.4366L44.6901 28.4825C44.8775 28.5092 45.065 28.536 45.2498 28.5628C45.3263 28.5743 45.4028 28.5806 45.4781 28.5806C46.2201 28.5806 46.8742 28.0298 46.9877 27.2636L47.4518 24.1398C47.578 23.297 47.003 22.5078 46.1704 22.3803ZM43.3144 12.4889C43.2647 12.6674 43.1461 12.8076 42.9803 12.8867C42.8146 12.9644 42.6272 12.9657 42.4652 12.8905L41.3726 12.3843C41.2948 12.3486 41.2004 12.3422 41.1176 12.3665C41.1086 12.369 41.101 12.3716 41.0921 12.3754L36.1157 14.279C35.8633 14.3746 35.5892 14.3644 35.3431 14.2509C35.0983 14.1374 34.9109 13.9334 34.8165 13.6772L34.2364 12.1013C34.142 11.8437 34.151 11.5632 34.2644 11.3133C34.3766 11.0634 34.5794 10.8722 34.8344 10.7753L38.9246 9.22741C39.0138 9.19299 39.0903 9.12159 39.1298 9.03361L40.2034 6.64809C40.262 6.51804 40.415 6.45939 40.5438 6.51804L41.894 7.14279C42.0228 7.20271 42.0802 7.35699 42.0215 7.48704L40.999 9.75526C40.7771 10.2487 40.9926 10.8352 41.4797 11.0596L42.9421 11.7353C43.2353 11.8743 43.396 12.1969 43.3144 12.4889ZM44.4836 22.6124C44.2974 22.6544 44.1049 22.6124 43.9557 22.4989L42.9612 21.739C42.8771 21.6816 42.7878 21.6599 42.6947 21.6727L37.2709 22.4632C36.6971 22.5448 36.1642 22.1368 36.0839 21.5554L35.8467 19.8392C35.7664 19.254 36.1706 18.7109 36.7481 18.628L41.203 17.9956C41.2935 17.9828 41.3802 17.9318 41.4376 17.8604C41.4401 17.8579 41.4427 17.8541 41.444 17.8515L43.0492 15.6942C43.141 15.5718 43.3144 15.5476 43.4342 15.6381L44.6544 16.5714C44.7755 16.6645 44.7998 16.8404 44.7092 16.9616L43.1843 19.013C43.025 19.2272 42.9574 19.4912 42.9944 19.7564C43.0313 20.0216 43.1678 20.2574 43.3781 20.4181L44.7003 21.4292C44.9693 21.6344 45.0611 22.0016 44.9132 22.2821C44.8227 22.453 44.6697 22.5703 44.4836 22.6124ZM44.0411 37.7122L41.8418 39.9409C41.6276 40.1576 41.5103 40.4458 41.509 40.7531C41.509 41.0603 41.6263 41.3485 41.8405 41.5652L43.2774 43.0213C43.5987 43.3464 43.651 43.8539 43.4011 44.2019C43.2481 44.4136 43.0224 44.5424 42.7636 44.5628C42.506 44.5832 42.2561 44.4901 42.0764 44.309L41.0041 43.2215C40.9671 43.1832 40.7937 43.1118 40.7414 43.1118L34.0158 43.136C33.2597 43.136 32.6439 42.5126 32.6439 41.745V39.6183C32.6439 38.8469 33.2636 38.2196 34.0235 38.2196H39.5442C39.6398 38.2196 39.7367 38.1788 39.8043 38.11L42.1172 35.7653C42.2804 35.5995 42.5468 35.5995 42.71 35.764L44.0373 37.1091C44.2031 37.2761 44.2031 37.5464 44.0411 37.7122ZM42.158 29.4196C41.9476 29.6045 41.8214 29.862 41.8022 30.1438C41.7831 30.4256 41.8736 30.6984 42.056 30.9113L43.2353 32.2858C43.4852 32.5765 43.5018 33.0049 43.2723 33.279C43.1333 33.4473 42.937 33.5404 42.7202 33.5417C42.5048 33.5429 42.3008 33.4511 42.1618 33.2892L41.282 32.2641C41.2234 32.1953 41.138 32.1494 41.0487 32.1392C41.0423 32.1379 41.036 32.1379 41.0296 32.1379L35.097 31.7414C34.7846 31.7197 34.5003 31.5756 34.295 31.3372C34.0898 31.0988 33.989 30.7928 34.0107 30.4753L34.1395 28.5998C34.1841 27.9431 34.7489 27.4446 35.3966 27.4905L40.2659 27.8335C40.3615 27.8399 40.4597 27.8067 40.5323 27.743L42.7139 25.819C42.8516 25.6991 43.0594 25.7132 43.1792 25.8509L44.2681 27.1195C44.3867 27.2585 44.3726 27.4701 44.2362 27.59L42.158 29.4196Z" stroke="#134A85" stroke-width="0.6" mask="url(#path-1-outside-1_3059_12393)"/>
<path d="M33.665 24.0412L33.6649 24.0409C33.4572 23.0707 33.1875 22.1261 32.8635 21.2313C32.6165 20.5512 32.4892 20.3093 32.3921 20.1506L32.52 20.0723M33.665 24.0412L15.4768 5.55597L15.4873 5.7056L15.4767 5.55597C15.1935 5.57598 14.9841 5.8238 15.0036 6.10461M33.665 24.0412C33.7168 24.2807 33.9268 24.4476 34.1635 24.4476C34.1985 24.4476 34.2358 24.4442 34.2745 24.4347C34.5507 24.3722 34.7208 24.0983 34.6621 23.8227L34.6621 23.8226L33.665 24.0412ZM32.52 20.0723L32.3923 20.1509C31.9777 19.4768 31.3838 18.9419 30.6755 18.6012C29.6654 18.1187 28.6547 17.6375 27.6447 17.1567C27.2562 16.9718 26.8678 16.7869 26.4796 16.602C26.4796 16.602 26.4796 16.602 26.4796 16.602L25.3577 16.0678C24.203 15.5186 23.4591 14.3294 23.4591 13.0382C23.4591 13.0382 23.4591 13.0382 23.4591 13.0381L23.458 11.1511C22.6276 11.689 21.668 11.9985 20.6511 11.9985C19.684 11.9985 18.7694 11.7185 17.968 11.2279V13.0381C17.968 14.3293 17.2241 15.5186 16.0694 16.0678L16.005 15.9324L16.0694 16.0678L15.1795 16.4911C15.1795 16.4911 15.1795 16.4911 15.1794 16.4911C14.8958 16.6262 14.612 16.7613 14.3283 16.8964C13.1365 17.4639 11.9441 18.0317 10.7518 18.6011C9.69443 19.1101 8.9007 20.0561 8.57574 21.1984L8.57571 21.1985C7.49452 24.9877 6.41588 28.7732 5.33723 32.5612L5.19296 32.5201L5.33723 32.5612L4.38116 35.9176C4.38112 35.9178 4.38109 35.9179 4.38105 35.918C4.31792 36.1429 4.11422 36.2911 3.89119 36.2911C3.8472 36.2911 3.79767 36.2861 3.7473 36.2708C3.47565 36.1905 3.3235 35.9042 3.40005 35.6336L3.40014 35.6333L4.35765 32.2763C4.35766 32.2763 4.35766 32.2763 4.35767 32.2763C5.4363 28.4895 6.51495 24.7028 7.59615 20.9135C8.00175 19.4893 8.99294 18.3073 10.316 17.6714L10.3163 17.6713C11.3829 17.1619 12.4503 16.6538 13.5168 16.1462C13.9266 15.9511 14.3363 15.7561 14.7458 15.5611L14.7459 15.561L15.6358 15.1378C16.4319 14.7588 16.9489 13.9349 16.9489 13.0394V10.4332C15.8529 9.36301 15.1205 7.83044 15.0036 6.10461M32.52 20.0723C32.0904 19.3736 31.4745 18.819 30.7401 18.4658L33.0045 21.1803C32.7559 20.4956 32.6246 20.2431 32.52 20.0723ZM15.0036 6.10461L15.1533 6.09447L15.0036 6.10496C15.0036 6.10484 15.0036 6.10472 15.0036 6.10461ZM31.1121 17.6687L31.1124 17.6689C31.9977 18.0945 32.7397 18.7643 33.2583 19.6058C33.392 19.8219 33.5491 20.1243 33.8213 20.8767C33.8213 20.8767 33.8213 20.8768 33.8213 20.8768L33.6803 20.9278L31.1121 17.6687ZM31.1121 17.6687C29.7125 16.9995 28.3142 16.3342 26.9161 15.6689L26.9146 15.6682L26.9146 15.6682L25.7926 15.1339L25.7926 15.1339M31.1121 17.6687L25.7926 15.1339M25.7926 15.1339C24.9965 14.755 24.4794 13.931 24.4794 13.0356V13.0355M25.7926 15.1339L24.4794 13.0355M24.4794 13.0355L24.4782 10.3044M24.4794 13.0355L24.4782 10.3044M24.4782 10.3044C25.5049 9.24215 26.1867 7.76144 26.2998 6.10234C26.2998 6.10227 26.2998 6.10219 26.2998 6.10212L26.1501 6.09192C26.1642 5.89047 26.0137 5.7158 25.8161 5.70305L25.8266 5.55342C25.8265 5.55341 25.8264 5.5534 25.8262 5.55339L24.4782 10.3044Z" fill="#134A85" stroke="#134A85" stroke-width="0.3"/>
<path d="M12.4379 35.681L12.4379 35.6811C12.4202 37.9935 12.6208 40.3571 13.0362 42.7071L13.0362 42.7075C13.0845 42.9845 12.9026 43.2534 12.6233 43.3041L12.6226 43.3043C12.5899 43.31 12.5591 43.3116 12.5327 43.3116C12.2882 43.3116 12.0737 43.136 12.0305 42.8864M12.4379 35.681L11.5688 35.6761M12.4379 35.681C12.4455 34.6135 12.4956 33.8542 12.5487 33.0488L12.5498 33.0314L12.5498 33.0314L12.5519 33.0003C12.6023 32.2306 12.6548 31.4281 12.6674 30.3356L12.6674 30.3355C12.693 27.9835 12.5152 25.6136 12.1415 23.2899C12.0968 23.0109 11.836 22.8175 11.5553 22.8649C11.2761 22.9121 11.0905 23.1776 11.1351 23.456L11.1352 23.4562C11.2592 24.2255 11.3598 25.0013 11.4394 25.7798L8.24003 35.59C8.24003 35.59 8.24002 35.5901 8.24001 35.5901C8.15251 35.8581 8.2948 36.1495 8.56381 36.2401C8.61624 36.2582 8.67081 36.2673 8.72559 36.2673C8.94135 36.2673 9.1399 36.1294 9.20998 35.9124C9.21001 35.9123 9.21003 35.9122 9.21006 35.9121L11.6242 28.5025C11.6455 29.111 11.6532 29.7191 11.6471 30.326M12.4379 35.681L11.6471 30.326M12.0305 42.8864C12.0305 42.8864 12.0305 42.8863 12.0305 42.8863L12.1783 42.8607M12.0305 42.8864C12.0305 42.8865 12.0305 42.8866 12.0306 42.8867L12.1783 42.8607M12.0305 42.8864C11.607 40.477 11.4009 38.0507 11.4188 35.675M12.1783 42.8607C12.2089 43.038 12.3606 43.1616 12.5327 43.1616C12.5531 43.1616 12.5748 43.1604 12.5965 43.1565M12.1783 42.8607L12.5965 43.1565M11.4188 35.675L11.5688 35.6761M11.4188 35.675C11.4188 35.675 11.4188 35.675 11.4188 35.6751L11.5688 35.6761M11.4188 35.675C11.4265 34.5687 11.4803 33.7515 11.5326 32.9645M11.5688 35.6761C11.5765 34.5745 11.63 33.7611 11.6823 32.9744M11.5326 32.9645L11.6823 32.9744M11.5326 32.9645C11.5836 32.1961 11.6356 31.404 11.6471 30.326M11.5326 32.9645C11.5326 32.9645 11.5326 32.9644 11.5326 32.9644L11.6823 32.9744M11.6823 32.9744L11.6471 30.326M12.5965 43.1565C12.7928 43.1208 12.9229 42.9309 12.8885 42.7332C12.4715 40.3745 12.2701 38.0017 12.2879 35.6799L12.5965 43.1565Z" fill="#134A85" stroke="#134A85" stroke-width="0.3"/>
<path d="M29.3041 23.3553C29.3143 23.1538 29.4826 22.9983 29.6815 23.0072L29.3041 23.3553ZM29.3041 23.3553C29.197 25.6656 29.0223 27.9988 28.7864 30.2926C28.6857 31.273 28.5964 32.0215 28.5174 32.6819L29.3041 23.3553ZM30.1743 23.3963L30.1743 23.3966C30.1288 24.3812 30.0695 25.3694 30.0002 26.3574L32.5023 33.7403L32.5023 33.7405L32.3602 33.7886C32.4253 33.9799 32.3258 34.1877 32.1371 34.2527L30.1743 23.3963ZM30.1743 23.3963C30.1868 23.1145 29.9723 22.8719 29.6892 22.8574L29.6892 22.8574M30.1743 23.3963L29.6892 22.8574M29.6892 22.8574L29.6882 22.8574M29.6892 22.8574L29.6882 22.8574M29.6882 22.8574C29.4047 22.8446 29.1685 23.066 29.1543 23.3477L29.1542 23.3483M29.6882 22.8574L29.1542 23.3483M29.1542 23.3483C29.0473 25.6558 28.8728 27.9862 28.6372 30.2772L28.6372 30.2772M29.1542 23.3483L28.6372 30.2772M28.6372 30.2772C28.5366 31.2564 28.4475 32.0038 28.3685 32.6641L28.3685 32.6641M28.6372 30.2772L28.3685 32.6641M28.3685 32.6641C28.2397 33.7442 28.1384 34.5999 28.0693 35.7867L28.0693 35.7868M28.3685 32.6641L28.0693 35.7868M28.0693 35.7868C27.9349 38.1209 28.0002 40.4983 28.2625 42.8537M28.0693 35.7868L28.823 43.308M28.823 43.308L28.823 43.308L28.8194 43.3083C28.8073 43.3094 28.7888 43.3111 28.7686 43.3111C28.512 43.3111 28.2912 43.1156 28.2625 42.8537M28.823 43.308L28.8267 43.3076M28.823 43.308L28.8267 43.3076M28.2625 42.8537C28.2625 42.8537 28.2625 42.8537 28.2625 42.8536L28.4116 42.8373L28.2625 42.8539C28.2625 42.8538 28.2625 42.8538 28.2625 42.8537ZM28.8267 43.3076C29.1075 43.275 29.3079 43.0188 29.2759 42.7378M28.8267 43.3076L29.2759 42.7378M29.2759 42.7378C29.0193 40.4396 28.9558 38.1212 29.0879 35.8463L29.2759 42.7378ZM32.0162 34.4218C32.0748 34.4234 32.1322 34.4141 32.1874 34.394L29.0879 35.8462C29.1552 34.6922 29.249 33.8954 29.3816 32.7864L29.3816 32.7864C29.4607 32.1232 29.55 31.37 29.6522 30.3832L29.6522 30.3831C29.702 29.9 29.7489 29.4151 29.7929 28.9288L31.5359 34.0735L31.6781 34.0258L31.5361 34.0739L31.536 34.0738C31.6079 34.2873 31.8053 34.4208 32.0162 34.4218Z" fill="#134A85" stroke="#134A85" stroke-width="0.3"/>
<path d="M20.6127 29.6258L20.6114 29.6255C20.3363 29.5604 20.1664 29.2829 20.2308 29.0071M20.6127 29.6258L20.2308 29.0068C20.2308 29.0069 20.2308 29.007 20.2308 29.0071M20.6127 29.6258C20.6484 29.634 20.6867 29.6398 20.7288 29.6398C20.9617 29.6398 21.17 29.4783 21.2255 29.2423L21.2256 29.2416L21.2286 29.2286C21.626 27.5014 22.1228 25.3425 22.2302 22.626M20.6127 29.6258L21.2113 22.5848M20.2308 29.0071C20.6221 27.3093 21.1061 25.2074 21.2113 22.5848M20.2308 29.0071C20.2308 29.0071 20.2308 29.0072 20.2307 29.0073L21.2113 22.5848M21.2113 22.5848C21.3127 19.9975 21.0288 17.3265 20.3639 14.6454L20.3639 14.6452C20.296 14.3703 20.46 14.0909 20.7334 14.0203C21.009 13.9491 21.2858 14.121 21.3538 14.3946L21.3538 14.3947C22.0404 17.1692 22.3366 19.9386 22.2302 22.626M22.2302 22.626L22.0803 22.6201M22.2302 22.626C22.2302 22.626 22.2302 22.626 22.2302 22.626L22.0803 22.6201M22.0803 22.6201C22.1861 19.9477 21.8916 17.1924 21.2082 14.4308C21.1598 14.2357 20.9634 14.1158 20.7709 14.1655C20.5784 14.2153 20.4611 14.4129 20.5095 14.6093M22.0803 22.6201C21.9734 25.3226 21.4793 27.4702 21.0819 29.1973L20.5095 14.6093M20.5095 14.6093C21.1776 17.3033 21.4632 19.9885 21.3612 22.5908L20.5095 14.6093Z" fill="#134A85" stroke="#134A85" stroke-width="0.3"/>
<path d="M23.0785 36.4667L23.0787 36.4667C23.2735 36.4378 23.4675 36.5241 23.5751 36.6877C23.6843 36.8512 23.6913 37.0641 23.5927 37.2345L23.5927 37.2344L23.4628 37.1595L23.5926 37.2346L23.0785 36.4667ZM23.0785 36.4667L19.2524 37.0391M23.0785 36.4667L19.2524 37.0391M19.2524 37.0391L21.8307 32.5692L21.8307 32.5692C21.9722 32.3238 21.8904 32.0098 21.6489 31.8656L21.6485 31.8654C21.4036 31.7203 21.0906 31.8047 20.9486 32.0508C20.9486 32.0508 20.9486 32.0508 20.9486 32.0508L17.8365 37.4464C17.8365 37.4464 17.8364 37.4464 17.8364 37.4465L17.8363 37.4466L17.9663 37.5216C17.8962 37.6427 17.9013 37.7944 17.979 37.9104C18.0568 38.0265 18.1932 38.0877 18.3297 38.0673L22.2737 37.4772L22.1779 37.6432L22.3674 37.6149L22.4632 37.4489L19.2524 37.0391ZM20.7383 42.1834L20.6081 42.109L20.738 42.184L20.7382 42.1836C20.7382 42.1836 20.7383 42.1835 20.7383 42.1834ZM20.0389 42.3691C20.0389 42.3691 20.039 42.3691 20.039 42.3691L20.1159 42.2403L20.0388 42.369C20.0388 42.369 20.0389 42.369 20.0389 42.3691Z" fill="#134A85" stroke="#134A85" stroke-width="0.3"/>
<path d="M20.7143 30.5238C17.1182 30.5238 14.1957 33.4884 14.1957 37.1304C14.1957 40.7711 17.1182 43.737 20.7143 43.737C24.3104 43.737 27.233 40.7724 27.233 37.1304C27.233 33.4884 24.3104 30.5238 20.7143 30.5238ZM20.7143 42.7052C17.6843 42.7052 15.2161 40.2052 15.2161 37.1292C15.2161 34.0531 17.6843 31.5531 20.7143 31.5531C23.7444 31.5531 26.2126 34.0531 26.2126 37.1292C26.2126 40.2064 23.7444 42.7052 20.7143 42.7052Z" fill="#134A85" stroke="#134A85" stroke-width="0.3"/>
</svg>
