<svg width="51" height="51" viewBox="0 0 51 51" fill="none" xmlns="http://www.w3.org/2000/svg">
<path d="M32.4958 11.2282L38.5223 13.6677C40.3923 14.4242 41.6588 16.2177 41.7353 18.2322L42.3303 33.3282C42.3558 34.0422 42.4748 34.7562 42.6703 35.4362C42.8573 36.0907 42.9508 36.7622 42.9508 37.4337V45.0497C42.9508 45.5172 43.3333 45.8997 43.8008 45.8997C44.2683 45.8997 44.6508 45.5172 44.6508 45.0497V37.4422C44.6508 36.6092 44.5318 35.7762 44.3023 34.9772C44.1408 34.4162 44.0473 33.8467 44.0303 33.2602L43.4353 18.1642C43.3248 15.4782 41.6503 13.0982 39.1598 12.0867L33.1333 9.64722C32.1898 9.26472 31.5098 8.44022 31.3228 7.43722L31.0168 5.79672C30.9318 5.33772 30.4898 5.03172 30.0223 5.11672C29.5633 5.20172 29.2573 5.64372 29.3423 6.11122L29.6483 7.75172C29.9458 9.32422 31.0083 10.6247 32.4958 11.2282Z" fill="#134A85"/>
<path d="M7.19125 45.9C7.65875 45.9 8.04125 45.5175 8.04125 45.05V37.4425C8.04125 36.7625 8.13475 36.091 8.32175 35.445C8.51725 34.7565 8.62775 34.0425 8.66175 33.337L9.25675 18.241C9.33325 16.2265 10.5997 14.433 12.4697 13.6765L18.4962 11.237C19.9837 10.6335 21.0462 9.33301 21.3437 7.76051L21.6497 6.12001C21.7347 5.66101 21.4287 5.21901 20.9697 5.12551C20.5107 5.04051 20.0687 5.34651 19.9752 5.80551L19.6692 7.44601C19.4822 8.44901 18.8022 9.27351 17.8587 9.65601L11.8322 12.0955C9.35025 13.09 7.66725 15.4785 7.56525 18.1645L6.97025 33.2605C6.94475 33.8385 6.85125 34.4165 6.69825 34.9775C6.46875 35.7765 6.34975 36.6095 6.34975 37.4425V45.05C6.34125 45.5175 6.72375 45.9 7.19125 45.9Z" fill="#134A85"/>
<path d="M38.5818 26.46V20.765C38.5818 20.2975 38.1993 19.915 37.7318 19.915C37.2643 19.915 36.8818 20.2975 36.8818 20.765V26.46C36.8818 27.6415 36.7713 28.823 36.5503 29.9875L34.8843 38.8785C34.6463 40.145 34.5273 41.4285 34.5273 42.7205V45.0495C34.5273 45.517 34.9098 45.8995 35.3773 45.8995C35.8448 45.8995 36.2273 45.517 36.2273 45.0495V42.712C36.2273 41.5305 36.3378 40.349 36.5588 39.1845L36.6098 38.904L37.9868 45.228C38.0718 45.6275 38.4288 45.8995 38.8198 45.8995C38.8793 45.8995 38.9388 45.891 38.9983 45.8825C39.4573 45.7805 39.7463 45.33 39.6443 44.871L37.4088 34.6115L38.2163 30.302C38.4628 29.0355 38.5818 27.7435 38.5818 26.46Z" fill="#134A85"/>
<path d="M15.7246 45.9002C16.1921 45.9002 16.5746 45.5177 16.5746 45.0502V42.7127C16.5746 41.4292 16.4556 40.1372 16.2176 38.8707L14.5516 29.9797C14.3391 28.8237 14.2286 27.6337 14.2286 26.4522V20.7572C14.2286 20.2897 13.8461 19.9072 13.3786 19.9072C12.9111 19.9072 12.5286 20.2897 12.5286 20.7572V26.4522C12.5286 27.7357 12.6476 29.0277 12.8856 30.2857L13.6931 34.5952L11.4576 44.8547C11.3556 45.3137 11.6531 45.7642 12.1036 45.8662C12.1631 45.8832 12.2226 45.8832 12.2821 45.8832C12.6731 45.8832 13.0216 45.6112 13.1151 45.2117L14.4921 38.8877L14.5431 39.1682C14.7556 40.3242 14.8661 41.5142 14.8661 42.6957V45.0502C14.8746 45.5177 15.2571 45.9002 15.7246 45.9002Z" fill="#134A85"/>
<path d="M26.3329 15.5039C26.4519 15.5634 26.5879 15.5974 26.7154 15.5974C27.0299 15.5974 27.3274 15.4274 27.4804 15.1299L28.0499 13.9824C28.2624 13.5659 28.0924 13.0559 27.6674 12.8434C27.2424 12.6309 26.7409 12.8009 26.5284 13.2259L25.9589 14.3649C25.7464 14.7814 25.9164 15.2914 26.3329 15.5039Z" fill="#134A85"/>
<path d="M25.126 20.3239C25.16 20.3239 25.194 20.3324 25.2195 20.3324C25.6445 20.3324 26.01 20.0094 26.061 19.5759C26.146 18.8024 26.316 18.0374 26.5455 17.2979C26.69 16.8474 26.4435 16.3714 25.993 16.2269C25.5425 16.0824 25.0665 16.3289 24.922 16.7794C24.65 17.6209 24.463 18.4964 24.361 19.3804C24.3185 19.8479 24.6585 20.2644 25.126 20.3239Z" fill="#134A85"/>
<path d="M24.6417 24.5561C24.7012 24.9811 25.0667 25.2956 25.4832 25.2956C25.5172 25.2956 25.5597 25.2956 25.5937 25.2871C26.0612 25.2276 26.3842 24.8026 26.3247 24.3351L26.0782 22.4651C26.0527 22.2781 26.0357 22.0911 26.0187 21.8956C25.9847 21.4281 25.5682 21.0796 25.1007 21.1136C24.6332 21.1476 24.2847 21.5641 24.3187 22.0316C24.3357 22.2441 24.3612 22.4651 24.3867 22.6776L24.6417 24.5561Z" fill="#134A85"/>
<path d="M25.4662 40.0354C25.5682 40.0779 25.6787 40.0949 25.7807 40.0949C26.1207 40.0949 26.4352 39.8909 26.5712 39.5594C26.9027 38.7349 27.1492 37.8764 27.3107 37.0009C27.3957 36.5419 27.0897 36.0999 26.6307 36.0064C26.1717 35.9214 25.7297 36.2274 25.6362 36.6864C25.4917 37.4514 25.2792 38.1994 24.9902 38.9219C24.8202 39.3639 25.0327 39.8569 25.4662 40.0354Z" fill="#134A85"/>
<path d="M26.1286 30.251C26.1626 30.251 26.2051 30.251 26.2391 30.2425C26.7066 30.183 27.0296 29.758 26.9701 29.2905L26.6471 26.817C26.5876 26.3495 26.1626 26.018 25.6951 26.086C25.2276 26.1455 24.9046 26.5705 24.9641 27.038L25.2871 29.5115C25.3466 29.9365 25.7121 30.251 26.1286 30.251Z" fill="#134A85"/>
<path d="M27.4299 32.7418L27.3024 31.7643C27.2429 31.2968 26.8179 30.9653 26.3504 31.0333C25.8829 31.0928 25.5599 31.5178 25.6194 31.9853L25.7469 32.9628C25.8064 33.4218 25.8404 33.8978 25.8489 34.3738C25.8574 34.8413 26.2314 35.2153 26.6989 35.2153H26.7074C27.1749 35.2068 27.5489 34.8243 27.5489 34.3568C27.5319 33.8128 27.4979 33.2688 27.4299 32.7418Z" fill="#134A85"/>
<path d="M23.885 43.3502C24.1315 43.3502 24.378 43.2397 24.548 43.0272C24.8285 42.6702 25.1005 42.3047 25.347 41.9222C25.602 41.5312 25.4915 41.0042 25.092 40.7492C24.6925 40.4942 24.174 40.6047 23.919 41.0042C23.7065 41.3357 23.4685 41.6587 23.222 41.9732C22.933 42.3387 22.9925 42.8742 23.358 43.1717C23.511 43.2907 23.698 43.3502 23.885 43.3502Z" fill="#134A85"/>
</svg>
