<svg width="51" height="51" viewBox="0 0 51 51" fill="none" xmlns="http://www.w3.org/2000/svg">
<path d="M29.8942 13.7269C30.2535 13.6527 30.5429 13.3869 30.6474 13.0353C30.752 12.6837 30.6548 12.303 30.3945 12.0446C27.2734 8.94602 26.5575 5.45392 28.206 1.36884C28.3434 1.02827 28.2824 0.639698 28.0469 0.357803C27.8117 0.0760084 27.4407 -0.053683 27.0806 0.0206256L16.3487 2.23913C14.9271 2.53297 13.6594 3.25434 12.6923 4.28022C12.2157 2.56315 10.4928 1.44345 8.69558 1.77943C6.7505 2.1432 5.54194 4.08359 5.92992 5.97637L6.02017 6.41654L2.11588 7.22358C1.57779 7.33474 1.23135 7.86078 1.34181 8.39917L2.34618 13.2973C2.39927 13.5563 2.55326 13.7837 2.7741 13.9291C2.99503 14.0746 3.26457 14.1262 3.52356 14.0726L11.6122 12.4006C12.5759 14.1969 14.294 15.4869 16.2628 15.9257V19.7565C15.2358 20.0413 14.2956 20.5563 13.5077 21.256C13.1822 19.4757 11.5514 18.235 9.74795 18.4091C7.78216 18.5977 6.40187 20.4195 6.62181 22.344L6.67281 22.7897L2.71344 23.2459C2.16728 23.3089 1.77541 23.8025 1.83777 24.3486L2.40554 29.3168C2.468 29.8628 2.96156 30.2561 3.50922 30.1933L11.7137 29.2479C12.6838 31.5241 14.8125 33.1331 17.2589 33.4422V37.1651C16.3521 37.3617 15.4975 37.736 14.7431 38.2654C14.6214 36.4812 13.138 35.0406 11.332 35.0063C9.37551 34.9692 7.77847 36.5773 7.77847 38.5584V39.0062H3.7941C3.24406 39.0062 2.798 39.4523 2.798 40.0023V45.0031C2.798 45.5533 3.24406 45.9992 3.7941 45.9992H12.0514C12.9155 48.9422 15.6043 50.9999 18.7356 50.9999H29.6926C30.0597 50.9999 30.3969 50.7981 30.5704 50.4747C30.7438 50.1512 30.7255 49.7587 30.5225 49.4529C28.0875 45.7857 28.0875 42.2202 30.5225 38.5528C30.7255 38.2471 30.7439 37.8545 30.5704 37.531C30.3969 37.2076 30.0596 37.0058 29.6926 37.0058H27.2199V32.4948L29.8067 32.1967C30.1712 32.1547 30.4831 31.9157 30.6185 31.5747C30.7539 31.2337 30.6909 30.8459 30.4544 30.5652C27.6192 27.2008 27.2146 23.6586 29.2172 19.7365C29.3841 19.4095 29.3576 19.0171 29.1485 18.7156C28.939 18.4139 28.5799 18.2528 28.2161 18.294L26.224 18.5235V14.4857L29.8942 13.7269ZM13.1143 10.9065C12.9382 10.4495 12.4577 10.1911 11.9834 10.2895L4.09731 11.9197L3.49318 8.97312L7.39747 8.16608C7.93556 8.05482 8.282 7.52888 8.17153 6.99049L7.88147 5.57614C7.6944 4.66431 8.35143 3.71205 9.33616 3.71205C10.0398 3.71205 10.6542 4.21697 10.7968 4.91284L11.2355 7.05215C11.3239 7.48276 11.684 7.8047 12.1218 7.84414C12.5587 7.88379 12.9715 7.63148 13.1356 7.22348C13.7628 5.6624 15.1147 4.52835 16.752 4.18998L25.7833 2.323C24.8057 5.92208 25.48 9.2078 27.7949 12.1265C26.4941 12.3953 19.6125 13.8179 18.759 13.9944C16.3336 14.496 13.9679 13.1206 13.1143 10.9065ZM27.9586 49.0077H18.7356C16.2945 49.0077 14.2296 47.2544 13.8258 44.8388C13.7455 44.3587 13.33 44.0068 12.8433 44.0068H4.79029V40.9982H8.77467C9.32471 40.9982 9.77076 40.5523 9.77076 40.0021V38.5582C9.77076 37.7123 10.4559 36.9976 11.2668 36.9976L11.2942 36.9979C12.1018 37.0133 12.759 37.6879 12.759 38.5019V40.6863C12.759 41.1258 13.0472 41.5134 13.4681 41.6401C13.8894 41.7666 14.3433 41.6026 14.5858 41.2359C15.5133 39.8346 17.0647 38.9979 18.7356 38.9979H27.9586C26.2773 42.3257 26.2773 45.6801 27.9586 49.0077ZM25.2277 37.0058H19.2512V33.413L25.2277 32.7244V37.0058ZM27.8572 30.4159L18.6931 31.4719C16.2409 31.7547 14.0007 30.1853 13.3428 27.8929C13.219 27.462 12.8253 27.1716 12.386 27.1716C12.2774 27.1716 12.7856 27.1212 4.27172 28.0999L3.93007 25.111L7.88944 24.6548C8.4356 24.5919 8.82746 24.0984 8.7651 23.5522L8.60115 22.1177C8.50622 21.2868 9.0965 20.4728 9.9382 20.3921C10.7555 20.314 11.471 20.9087 11.5633 21.7179L11.8114 23.8879C11.8613 24.3247 12.1916 24.6771 12.6243 24.7551C13.0571 24.8327 13.4896 24.6183 13.6889 24.2264C14.4513 22.7276 15.8978 21.7186 17.5582 21.5274C18.6373 21.4031 25.7093 20.5882 26.7199 20.4717C25.4279 23.9698 25.8092 27.3024 27.8572 30.4159ZM24.2317 18.753L18.2551 19.4417V16.0697C18.5592 16.0473 18.8629 16.0072 19.1623 15.9454L24.2317 14.8974V18.753Z" fill="#134A85"/>
<path d="M49.6734 24.4557C49.5812 22.1257 48.6038 19.9541 46.9213 18.3405C43.3065 14.8738 37.5452 15.0308 34.1307 18.7268C30.8031 22.3283 30.9926 27.9073 34.5099 31.28C36.2759 32.9735 38.6231 33.8656 41.0701 33.7681C46.0094 33.5725 49.8687 29.395 49.6734 24.4557ZM40.9913 31.7775C37.1132 31.9298 33.9006 28.9345 33.7484 25.0859C33.592 21.1391 36.7398 17.8375 40.7212 17.8375C44.4762 17.8375 47.534 20.7791 47.6828 24.5344C47.8347 28.3761 44.8329 31.6253 40.9913 31.7775Z" fill="#134A85"/>
<path d="M40.9112 23.4725L42.3725 21.3548C42.685 20.902 42.5713 20.2817 42.1184 19.9692C41.6657 19.6569 41.0454 19.7706 40.7329 20.2233L38.8472 22.956C38.5957 23.3204 38.615 23.8071 38.8944 24.1504L40.5186 26.1465L39.0572 28.2647C38.7449 28.7175 38.8587 29.3378 39.3115 29.6503C39.7652 29.9633 40.3853 29.8478 40.6971 29.396L42.5827 26.6629C42.834 26.2985 42.8148 25.8119 42.5354 25.4686L40.9112 23.4725Z" fill="#134A85"/>
</svg>
