<svg width="51" height="51" viewBox="0 0 51 51" fill="none" xmlns="http://www.w3.org/2000/svg">
<path d="M21.4548 25.7275C21.0758 25.7275 20.7656 26.0377 20.7656 26.4167V47.5611C20.7656 47.9401 21.0758 48.2502 21.4548 48.2502C21.8339 48.2502 22.144 47.9401 22.144 47.5611V26.4167C22.144 26.0377 21.8339 25.7275 21.4548 25.7275Z" fill="#134A85"/>
<path d="M17.657 34.6875C17.2779 34.6875 16.9678 34.9976 16.9678 35.3767V36.0659C16.9678 36.4449 17.2779 36.7551 17.657 36.7551C18.036 36.7551 18.3462 36.4449 18.3462 36.0659V35.3767C18.3462 34.9976 18.036 34.6875 17.657 34.6875Z" fill="#134A85"/>
<path d="M17.657 42.958C17.2779 42.958 16.9678 43.2681 16.9678 43.6472V44.3364C16.9678 44.7154 17.2779 45.0256 17.657 45.0256C18.036 45.0256 18.3462 44.7154 18.3462 44.3364V43.6472C18.3462 43.2681 18.036 42.958 17.657 42.958Z" fill="#134A85"/>
<path d="M17.657 30.5527C17.2779 30.5527 16.9678 30.8629 16.9678 31.2419V31.9311C16.9678 32.3102 17.2779 32.6203 17.657 32.6203C18.036 32.6203 18.3462 32.3102 18.3462 31.9311V31.2419C18.3462 30.8629 18.036 30.5527 17.657 30.5527Z" fill="#134A85"/>
<path d="M17.657 38.8223C17.2779 38.8223 16.9678 39.1324 16.9678 39.5115V40.2006C16.9678 40.5797 17.2779 40.8898 17.657 40.8898C18.036 40.8898 18.3462 40.5797 18.3462 40.2006V39.5115C18.3462 39.1324 18.036 38.8223 17.657 38.8223Z" fill="#134A85"/>
<path d="M21.6682 20.1941L21.1514 20.6489C20.8688 20.9039 20.8412 21.3381 21.0893 21.6207C21.2272 21.7723 21.4132 21.855 21.6062 21.855C21.7716 21.855 21.9301 21.7999 22.0611 21.6827L22.578 21.2279C22.8605 20.9729 22.8881 20.5387 22.6331 20.2561C22.385 19.9666 21.9508 19.9391 21.6682 20.1941Z" fill="#134A85"/>
<path d="M18.5666 22.9849C18.3874 23.1572 18.2151 23.3295 18.0635 23.4949C17.8016 23.7706 17.8085 24.2048 18.0841 24.4667C18.2151 24.5976 18.3874 24.6597 18.5597 24.6597C18.7389 24.6597 18.9249 24.5907 19.0559 24.446C19.2006 24.2944 19.3591 24.1359 19.5245 23.9774C19.8002 23.7155 19.8071 23.2744 19.5383 23.0056C19.2764 22.723 18.8422 22.723 18.5666 22.9849Z" fill="#134A85"/>
<path d="M17.657 26.417C17.2779 26.417 16.9678 26.7271 16.9678 27.1062V27.7954C16.9678 28.1744 17.2779 28.4846 17.657 28.4846C18.036 28.4846 18.3462 28.1744 18.3462 27.7954V27.1062C18.3462 26.7271 18.036 26.417 17.657 26.417Z" fill="#134A85"/>
<path d="M35.321 5.05224C29.1873 -1.01262 19.1596 5.9413 22.6951 13.8049C21.1237 17.3681 13.4531 21.0759 13.5289 25.1077V47.5683C13.5151 48.4505 14.921 48.4712 14.9073 47.5683V25.1077C15.1554 21.7995 21.7647 18.2985 23.5152 15.1971C24.3491 16.3205 25.5966 17.3543 26.589 18.1468C24.3836 20.2971 24.4112 24.1359 26.6442 26.2586C27.354 26.9616 27.802 27.8989 27.9123 28.8913L29.966 47.651C30.0487 48.5332 31.4478 48.3954 31.3375 47.4994L29.2837 28.7397C29.139 27.4371 28.5463 26.2035 27.6159 25.2799C25.8516 23.6052 25.9205 20.5659 27.7331 18.9532C36.8235 25.342 40.0282 10.0695 35.321 5.05224ZM34.0598 18.1744C31.2479 20.6072 27.802 17.3405 27.802 17.3405C25.4656 15.5968 23.3223 13.6258 23.3636 10.5727C23.2947 7.11292 26.334 4.0736 29.7937 4.14252C36.7477 3.92887 37.6712 13.9152 34.0598 18.1744Z" fill="#134A85"/>
</svg>
