<svg width="51" height="51" viewBox="0 0 51 51" fill="none" xmlns="http://www.w3.org/2000/svg">
<g clip-path="url(#clip0_3059_12286)">
<path d="M41.4527 3.4671C40.2396 3.4179 39.1496 3.94971 38.4363 4.80655C38.2458 5.03525 37.9691 5.17451 37.6714 5.17451H37.0675C36.187 5.17451 35.4238 4.5653 35.2287 3.70666L34.8896 2.21491C34.6945 1.35638 33.9312 0.74707 33.0508 0.74707H17.9494C17.069 0.74707 16.3058 1.35628 16.1106 2.21491L15.7716 3.70666C15.5764 4.5652 14.8132 5.17451 13.9328 5.17451H13.3288C13.0312 5.17451 12.7544 5.03525 12.5639 4.80655C11.8506 3.94971 10.7606 3.4179 9.54757 3.4671C7.55289 3.54809 5.96064 5.227 5.97966 7.22317C5.99908 9.26268 7.65838 10.9099 9.70246 10.9099C10.8527 10.9099 11.8803 10.3879 12.5631 9.56818C12.7541 9.33888 13.0316 9.19932 13.33 9.19932H13.9327C14.8131 9.19932 15.5763 9.80853 15.7715 10.6672L16.1105 12.1589C16.3057 13.0175 17.0689 13.6268 17.9493 13.6268H33.0508C33.9312 13.6268 34.6945 13.0176 34.8896 12.1589L35.2287 10.6672C35.4238 9.80863 36.187 9.19932 37.0675 9.19932H37.6701C37.9685 9.19932 38.246 9.33888 38.437 9.56818C39.1197 10.3879 40.1475 10.9099 41.2977 10.9099C43.3417 10.9099 45.001 9.26258 45.0205 7.22317C45.0396 5.227 43.4473 3.54809 41.4527 3.4671Z" fill="white"/>
<path d="M42.0041 3.53125C42.595 4.19953 42.9517 5.07749 42.9426 6.02786C42.9232 8.06736 41.2639 9.7146 39.2198 9.7146C38.9748 9.7146 38.7357 9.6896 38.5039 9.64438C39.186 10.4194 40.1838 10.9097 41.2974 10.9097C43.3415 10.9097 45.0008 9.26238 45.0203 7.22297C45.0374 5.41476 43.7325 3.86693 42.0041 3.53125Z" fill="white"/>
<path d="M32.2734 2.21491L32.6124 3.70666C32.8076 4.5652 33.5708 5.17451 34.4512 5.17451H37.0674C36.1869 5.17451 35.4237 4.5653 35.2286 3.70666L34.8895 2.21491C34.6944 1.35638 33.9312 0.74707 33.0507 0.74707H30.4346C31.315 0.74707 32.0782 1.35628 32.2734 2.21491Z" fill="white"/>
<path d="M32.2734 12.1588L32.6124 10.6671C32.8076 9.80853 33.5708 9.19922 34.4512 9.19922H37.0674C36.1869 9.19922 35.4237 9.80843 35.2286 10.6671L34.8895 12.1588C34.6944 13.0173 33.9312 13.6267 33.0507 13.6267H30.4346C31.315 13.6267 32.0782 13.0173 32.2734 12.1588Z" fill="white"/>
<path d="M41.4526 21.7806C40.2395 21.7314 39.1495 22.2632 38.4362 23.12C38.2457 23.3487 37.969 23.488 37.6713 23.488H37.0674C36.1869 23.488 35.4237 22.8788 35.2286 22.0201L34.8895 20.5284C34.6944 19.6699 33.9312 19.0605 33.0507 19.0605H17.9493C17.0689 19.0605 16.3057 19.6698 16.1105 20.5284L15.7715 22.0201C15.5763 22.8787 14.8131 23.488 13.9327 23.488H13.3287C13.0311 23.488 12.7543 23.3487 12.5638 23.12C11.8505 22.2632 10.7605 21.7314 9.54747 21.7806C7.55279 21.8616 5.96064 23.5405 5.97966 25.5367C5.99908 27.5762 7.65838 29.2234 9.70246 29.2234C10.8527 29.2234 11.8803 28.7013 12.5631 27.8817C12.7541 27.6524 13.0316 27.5128 13.33 27.5128H13.9327C14.8131 27.5128 15.5763 28.122 15.7715 28.9806L16.1105 30.4724C16.3057 31.3309 17.0689 31.9402 17.9493 31.9402H33.0508C33.9312 31.9402 34.6945 31.331 34.8896 30.4724L35.2287 28.9806C35.4238 28.1221 36.187 27.5128 37.0674 27.5128H37.6701C37.9685 27.5128 38.246 27.6524 38.437 27.8817C39.1197 28.7013 40.1475 29.2234 41.2977 29.2234C43.3417 29.2234 45.001 27.5761 45.0205 25.5367C45.0395 23.5404 43.4472 21.8616 41.4526 21.7806Z" fill="white"/>
<path d="M42.0041 21.8438C42.595 22.512 42.9517 23.39 42.9426 24.3404C42.9232 26.3799 41.2639 28.0271 39.2198 28.0271C38.9748 28.0271 38.7357 28.0021 38.5039 27.9569C39.186 28.7319 40.1838 29.2222 41.2974 29.2222C43.3415 29.2222 45.0008 27.5749 45.0203 25.5355C45.0374 23.7272 43.7325 22.1794 42.0041 21.8438Z" fill="white"/>
<path d="M32.2734 20.5274L32.6124 22.0192C32.8076 22.8777 33.5708 23.487 34.4512 23.487H37.0674C36.1869 23.487 35.4237 22.8778 35.2286 22.0192L34.8895 20.5274C34.6944 19.6689 33.9312 19.0596 33.0507 19.0596H30.4346C31.315 19.0597 32.0782 19.6689 32.2734 20.5274Z" fill="white"/>
<path d="M32.2734 30.4713L32.6124 28.9796C32.8076 28.121 33.5708 27.5117 34.4512 27.5117H37.0674C36.1869 27.5117 35.4237 28.1209 35.2286 28.9796L34.8895 30.4713C34.6944 31.3298 33.9312 31.9392 33.0507 31.9392H30.4346C31.315 31.9391 32.0782 31.3298 32.2734 30.4713Z" fill="white"/>
<path d="M41.4526 40.0931C40.2395 40.0439 39.1495 40.5757 38.4362 41.4325C38.2457 41.6612 37.969 41.8005 37.6713 41.8005H37.0674C36.1869 41.8005 35.4237 41.1913 35.2286 40.3326L34.8895 38.8409C34.6944 37.9824 33.9312 37.373 33.0507 37.373H17.9493C17.0689 37.373 16.3057 37.9823 16.1105 38.8409L15.7715 40.3326C15.5763 41.1912 14.8131 41.8005 13.9327 41.8005H13.3287C13.0311 41.8005 12.7543 41.6612 12.5638 41.4325C11.8505 40.5757 10.7605 40.0439 9.54747 40.0931C7.55279 40.1741 5.96064 41.853 5.97966 43.8492C5.99908 45.8887 7.65838 47.5359 9.70246 47.5359C10.8527 47.5359 11.8803 47.0138 12.5631 46.1942C12.7541 45.9649 13.0316 45.8253 13.33 45.8253H13.9327C14.8131 45.8253 15.5763 46.4345 15.7715 47.2931L16.1105 48.7849C16.3057 49.6434 17.0689 50.2527 17.9493 50.2527H33.0508C33.9312 50.2527 34.6945 49.6435 34.8896 48.7849L35.2287 47.2931C35.4238 46.4346 36.187 45.8253 37.0674 45.8253H37.6701C37.9685 45.8253 38.246 45.9649 38.437 46.1942C39.1197 47.0138 40.1475 47.5359 41.2977 47.5359C43.3417 47.5359 45.001 45.8886 45.0205 43.8492C45.0395 41.853 43.4472 40.1741 41.4526 40.0931Z" fill="white"/>
<path d="M42.0041 40.1582C42.595 40.8265 42.9517 41.7044 42.9426 42.6548C42.9232 44.6943 41.2639 46.3416 39.2198 46.3416C38.9748 46.3416 38.7357 46.3166 38.5039 46.2713C39.186 47.0464 40.1838 47.5367 41.2974 47.5367C43.3415 47.5367 45.0008 45.8893 45.0203 43.8499C45.0374 42.0417 43.7325 40.4939 42.0041 40.1582Z" fill="white"/>
<path d="M32.2734 38.8409L32.6124 40.3326C32.8076 41.1912 33.5708 41.8005 34.4512 41.8005H37.0674C36.1869 41.8005 35.4237 41.1913 35.2286 40.3326L34.8895 38.8409C34.6944 37.9824 33.9312 37.373 33.0507 37.373H30.4346C31.315 37.373 32.0782 37.9824 32.2734 38.8409Z" fill="white"/>
<path d="M32.2734 48.7848L32.6124 47.293C32.8076 46.4345 33.5708 45.8252 34.4512 45.8252H37.0674C36.1869 45.8252 35.4237 46.4344 35.2286 47.293L34.8895 48.7848C34.6944 49.6433 33.9312 50.2526 33.0507 50.2526H30.4346C31.315 50.2526 32.0782 49.6434 32.2734 48.7848Z" fill="white"/>
<path d="M16.4443 16.3437C16.4443 17.8441 17.6607 19.0604 19.1611 19.0604H31.8395C33.3399 19.0604 34.5562 17.8441 34.5562 16.3437C34.5562 14.8433 33.3399 13.627 31.8395 13.627H19.1612C17.6607 13.627 16.4443 14.8433 16.4443 16.3437Z" fill="white"/>
<path d="M31.8388 13.627H29.2227C30.7231 13.627 31.9394 14.8433 31.9394 16.3437C31.9394 17.8441 30.7231 19.0604 29.2227 19.0604H31.8388C33.3392 19.0604 34.5555 17.8441 34.5555 16.3437C34.5556 14.8433 33.3392 13.627 31.8388 13.627Z" fill="white"/>
<path d="M16.4443 34.6572C16.4443 36.1576 17.6607 37.3739 19.1611 37.3739H31.8395C33.3399 37.3739 34.5562 36.1576 34.5562 34.6572C34.5562 33.1568 33.3399 31.9404 31.8395 31.9404H19.1612C17.6607 31.9403 16.4443 33.1568 16.4443 34.6572Z" fill="white"/>
<path d="M31.8388 31.9395H29.2227C30.7231 31.9395 31.9394 33.1558 31.9394 34.6562C31.9394 36.1566 30.7231 37.3729 29.2227 37.3729H31.8388C33.3392 37.3729 34.5555 36.1566 34.5555 34.6562C34.5556 33.1559 33.3392 31.9395 31.8388 31.9395Z" fill="white"/>
<path d="M35.6177 30.6375L35.9574 29.146C36.0762 28.6238 36.5327 28.2592 37.0677 28.2592H37.6703C37.7397 28.2592 37.8099 28.2956 37.8634 28.3599C38.7163 29.3834 39.9682 29.9704 41.2981 29.9704C43.7387 29.9704 45.7437 27.9844 45.7676 25.5431C45.7791 24.3763 45.3372 23.2655 44.5231 22.4153C44.2378 22.1173 43.7649 22.107 43.4669 22.3924C43.1688 22.6777 43.1586 23.1506 43.444 23.4486C43.9865 24.0153 44.2812 24.7539 44.2735 25.5284C44.2576 27.1538 42.9228 28.4761 41.2981 28.4761C40.413 28.4761 39.5794 28.0851 39.0119 27.4039C38.6743 26.9977 38.1853 26.7648 37.6703 26.7648H37.0677C35.8305 26.7648 34.7748 27.6076 34.5005 28.8142L34.1608 30.3057C34.042 30.8278 33.5855 31.1925 33.0505 31.1925H27.4684L29.0931 29.7537C30.2303 28.7467 30.9139 27.3267 30.9988 25.8186L31.8182 24.9992C32.5501 24.2672 32.9532 23.2942 32.9532 22.2591V21.8443C32.9532 21.4318 32.6187 21.0973 32.2061 21.0973C31.7936 21.0973 31.4591 21.4318 31.4591 21.8443V22.2591C31.4591 22.8851 31.2187 23.4737 30.7824 23.921C30.486 22.8975 29.9063 21.966 29.0932 21.2459L27.4685 19.8071H33.0505C33.5855 19.8071 34.0421 20.1718 34.1609 20.6942L34.5004 22.1851C34.7749 23.392 35.8305 24.2348 37.0677 24.2348H37.6713C38.1858 24.2348 38.6741 24.0022 39.0104 23.5973C39.4843 23.0281 40.1455 22.6579 40.8721 22.555C41.2806 22.497 41.5647 22.119 41.5069 21.7104C41.449 21.3019 41.071 21.0177 40.6623 21.0756C39.5683 21.2307 38.5739 21.7867 37.8617 22.6418C37.8096 22.7046 37.7401 22.7406 37.6713 22.7406H37.0677C36.5327 22.7406 36.0761 22.376 35.9573 21.8535L35.6178 20.3626C35.4518 19.6327 34.9988 19.0375 34.3939 18.6798C34.9583 18.0634 35.3032 17.2429 35.3032 16.3432C35.3032 15.4435 34.9582 14.6232 34.394 14.0067C34.9988 13.6492 35.4517 13.0544 35.6178 12.3249L35.9575 10.8326C36.0763 10.3105 36.5328 9.9458 37.0678 9.9458H37.6704C37.7398 9.9458 37.81 9.98225 37.8632 10.0462C38.7152 11.0699 39.9673 11.6571 41.2982 11.6571C43.7387 11.6571 45.7438 9.67107 45.7677 7.22955C45.7904 4.83982 43.8681 2.81725 41.4833 2.72073C40.0796 2.66346 38.7606 3.24896 37.8618 4.32863C37.8097 4.39138 37.7402 4.42744 37.6714 4.42744H37.0678C36.5328 4.42744 36.0762 4.06277 35.9574 3.54032L35.6179 2.04946C35.3433 0.842895 34.2877 0 33.0505 0H23.253C22.8404 0 22.5059 0.334488 22.5059 0.74707C22.5059 1.15965 22.8404 1.49414 23.253 1.49414H33.0505C33.5855 1.49414 34.0421 1.85881 34.1609 2.38126L34.5004 3.87202C34.7749 5.07888 35.8305 5.92178 37.0677 5.92178H37.6713C38.1858 5.92178 38.6741 5.68919 39.0105 5.28408C39.6086 4.5656 40.4871 4.17553 41.4222 4.21378C43.0095 4.27802 44.2885 5.62454 44.2734 7.2153C44.2575 8.84073 42.9227 10.163 41.298 10.163C40.4122 10.163 39.5787 9.77208 39.0118 9.09085C38.6742 8.68464 38.1852 8.45176 37.6702 8.45176H37.0676C35.8304 8.45176 34.7747 9.29455 34.5003 10.5012L34.1607 11.9934C34.0419 12.515 33.5853 12.8794 33.0503 12.8794H31.1642C31.174 12.7439 31.1808 12.6081 31.1808 12.4713V12.2121C31.1808 11.7129 31.3752 11.2435 31.7282 10.8904L33.2144 9.40432C33.8496 8.76901 34.1994 7.92452 34.1994 7.02615V6.67204C34.1994 6.25945 33.8649 5.92496 33.4524 5.92496C33.0398 5.92496 32.7053 6.25945 32.7053 6.67204V7.02615C32.7053 7.52539 32.5108 7.99475 32.1578 8.34786L31.1808 9.32483V5.85504C31.1808 5.44246 30.8463 5.10797 30.4337 5.10797C30.0211 5.10797 29.6866 5.44246 29.6866 5.85504V8.31878L28.9194 7.55159C28.431 7.0632 28.1621 6.41395 28.1621 5.72336V3.76573C28.1621 3.35315 27.8276 3.01866 27.415 3.01866C27.0024 3.01866 26.668 3.35315 26.668 3.76573V5.72326C26.668 6.81298 27.0923 7.83746 27.863 8.60804L28.9294 9.67446C29.4178 10.1628 29.6867 10.8122 29.6867 11.5028C29.6867 11.5028 29.6792 12.7444 29.6659 12.8795H21.3342C21.3209 12.7444 21.3134 11.5028 21.3134 11.5028C21.3134 10.8122 21.5823 10.1628 22.0707 9.67446L23.1371 8.60804C23.9077 7.83746 24.3321 6.81298 24.3321 5.72326V3.76573C24.3321 3.35315 23.9976 3.01866 23.585 3.01866C23.1725 3.01866 22.838 3.35315 22.838 3.76573V5.72326C22.838 6.41385 22.569 7.0632 22.0807 7.55149L21.3135 8.31868V5.85504C21.3135 5.44246 20.979 5.10797 20.5664 5.10797C20.1538 5.10797 19.8193 5.44246 19.8193 5.85504V9.32493L18.8422 8.34786C18.4892 7.99485 18.2948 7.52549 18.2948 7.02615V6.67204C18.2948 6.25945 17.9603 5.92496 17.5477 5.92496C17.1351 5.92496 16.8007 6.25945 16.8007 6.67204V7.02615C16.8007 7.92452 17.1505 8.76901 17.7857 9.40432L19.2718 10.8904C19.6248 11.2434 19.8192 11.7128 19.8192 12.2121V12.4713C19.8192 12.6081 19.826 12.7439 19.8358 12.8794H17.9497C17.4147 12.8794 16.9581 12.515 16.8394 11.9934L16.4997 10.5013C16.2254 9.29475 15.1697 8.45186 13.9325 8.45186H13.3299C12.8149 8.45186 12.3259 8.68474 11.9887 9.09055C11.4215 9.77218 10.588 10.1631 9.70209 10.1631C8.07736 10.1631 6.7426 8.84083 6.72666 7.2156C6.71162 5.62464 7.9906 4.27812 9.57828 4.21388C10.5119 4.17582 11.3915 4.5656 11.9891 5.28348C12.3261 5.68919 12.8144 5.92178 13.3289 5.92178H13.9325C15.1697 5.92178 16.2254 5.07888 16.4996 3.87241L16.8394 2.38096C16.9581 1.85881 17.4147 1.49414 17.9497 1.49414H19.7666C20.1792 1.49414 20.5137 1.15965 20.5137 0.74707C20.5137 0.334488 20.1792 0 19.7666 0H17.9497C16.7126 0 15.6568 0.842894 15.3826 2.04936L15.0428 3.54081C14.9241 4.06297 14.4676 4.42764 13.9326 4.42764H13.329C13.2602 4.42764 13.1908 4.39158 13.1381 4.32813C12.2398 3.24906 10.9208 2.66256 9.51762 2.72093C7.13217 2.81745 5.21001 4.84002 5.23262 7.22995C5.25643 9.67117 7.26146 11.6573 9.70209 11.6573C11.033 11.6573 12.2851 11.0701 13.1374 10.046C13.1902 9.98245 13.2603 9.946 13.3299 9.946H13.9325C14.4675 9.946 14.9241 10.3107 15.0428 10.8329L15.3825 12.3251C15.5486 13.0546 16.0015 13.6494 16.6063 14.0069C16.042 14.6234 15.6971 15.4437 15.6971 16.3434C15.6971 17.2431 16.042 18.0636 16.6064 18.68C16.0015 19.0376 15.5486 19.6327 15.3826 20.3625L15.0428 21.854C14.9241 22.3762 14.4676 22.7408 13.9326 22.7408H13.329C13.2601 22.7408 13.1908 22.7049 13.1381 22.6414C12.2398 21.5623 10.9208 20.9751 9.51762 21.0342C7.13217 21.1306 5.21001 23.1532 5.23262 25.5431C5.25643 27.9844 7.26146 29.9705 9.70209 29.9705C11.032 29.9705 12.2839 29.3835 13.1374 28.3592C13.1902 28.2956 13.2603 28.2592 13.3299 28.2592H13.9325C14.4675 28.2592 14.9241 28.6238 15.0428 29.1463L15.3824 30.6372C15.5484 31.3671 16.0014 31.9623 16.6063 32.32C16.0419 32.9364 15.697 33.7569 15.697 34.6566C15.697 35.5563 16.0419 36.3766 16.6062 36.9931C16.0014 37.3506 15.5485 37.9454 15.3824 38.6749L15.0426 40.1672C14.9239 40.6893 14.4674 41.054 13.9324 41.054H13.3288C13.2599 41.054 13.1906 41.018 13.1379 40.9546C12.2395 39.8755 10.9206 39.2888 9.51742 39.3473C7.13217 39.4437 5.21001 41.4664 5.23262 43.8563C5.25643 46.2975 7.26146 48.2837 9.70209 48.2837C11.032 48.2837 12.2839 47.6966 13.1374 46.6724C13.1902 46.6088 13.2604 46.5724 13.3299 46.5724H13.9325C14.4675 46.5724 14.9241 46.937 15.0428 47.4595L15.3824 48.9503C15.6569 50.1571 16.7126 51 17.9497 51H26.7751C27.1877 51 27.5222 50.6655 27.5222 50.2529C27.5222 49.8403 27.1877 49.5059 26.7751 49.5059H17.9497C17.4147 49.5059 16.9581 49.1412 16.8394 48.6187L16.4998 47.128C16.2254 45.9211 15.1698 45.0782 13.9326 45.0782H13.33C12.8151 45.0782 12.3261 45.3111 11.9891 45.7166C11.4209 46.3984 10.5873 46.7895 9.70229 46.7895C8.07756 46.7895 6.7428 45.4672 6.72686 43.842C6.71182 42.251 7.9908 40.9044 9.57848 40.8402C10.5121 40.8021 11.3916 41.192 11.9893 41.91C12.3262 42.3156 12.8146 42.5482 13.3291 42.5482H13.9327C15.1698 42.5482 16.2256 41.7054 16.4999 40.4988L16.8396 39.0066C16.9583 38.485 17.4149 38.1206 17.9499 38.1206H19.8361C19.8263 38.2561 19.8195 38.3919 19.8195 38.5287V38.7879C19.8195 39.2871 19.6251 39.7565 19.2721 40.1096L17.7859 41.5957C17.1507 42.231 16.8009 43.0755 16.8009 43.9739V44.328C16.8009 44.7405 17.1353 45.075 17.5479 45.075C17.9605 45.075 18.295 44.7405 18.295 44.328V43.9739C18.295 43.4746 18.4894 43.0053 18.8424 42.6521L19.8195 41.6752V45.1451C19.8195 45.5576 20.154 45.8921 20.5666 45.8921C20.9792 45.8921 21.3137 45.5576 21.3137 45.1451V42.6813L22.0808 43.4485C22.5692 43.9369 22.8382 44.5862 22.8382 45.2767V47.2343C22.8382 47.6469 23.1727 47.9813 23.5852 47.9813C23.9978 47.9813 24.3323 47.6469 24.3323 47.2343V45.2767C24.3323 44.187 23.908 43.1625 23.1373 42.392L22.0709 41.3255C21.5825 40.8372 21.3136 40.1878 21.3136 39.4972C21.3136 39.4972 21.3211 38.2556 21.3344 38.1205H29.6661C29.6793 38.2556 29.6869 39.4972 29.6869 39.4972C29.6869 40.1878 29.418 40.8372 28.9296 41.3255L27.8632 42.392C27.0926 43.1625 26.6682 44.187 26.6682 45.2767V47.2343C26.6682 47.6469 27.0026 47.9813 27.4152 47.9813C27.8278 47.9813 28.1623 47.6469 28.1623 47.2343V45.2767C28.1623 44.5862 28.4312 43.9368 28.9196 43.4485L29.6868 42.6813V45.1451C29.6868 45.5576 30.0213 45.8921 30.4339 45.8921C30.8465 45.8921 31.181 45.5576 31.181 45.1451V41.6752L32.158 42.6522C32.511 43.0053 32.7055 43.4746 32.7055 43.974V44.3281C32.7055 44.7406 33.04 45.0751 33.4526 45.0751C33.8651 45.0751 34.1996 44.7406 34.1996 44.3281V43.974C34.1996 43.0756 33.8498 42.2311 33.2146 41.5958L31.7285 40.1097C31.3755 39.7567 31.1811 39.2873 31.1811 38.788V38.5288C31.1811 38.392 31.1743 38.2562 31.1645 38.1207H33.0505C33.5855 38.1207 34.0421 38.4851 34.1609 39.0067L34.5005 40.4988C34.775 41.7055 35.8307 42.5484 37.0678 42.5484H37.6714C38.1859 42.5484 38.6742 42.3159 39.0106 41.9108C39.6087 41.1924 40.4872 40.8026 41.4223 40.8405C43.0096 40.9048 44.2886 42.2513 44.2735 43.8421C44.2576 45.4675 42.9228 46.7898 41.2981 46.7898C40.413 46.7898 39.5794 46.3987 39.0118 45.7175C38.6741 45.3114 38.1852 45.0784 37.6703 45.0784H37.0677C35.8305 45.0784 34.7748 45.9213 34.5005 47.1278L34.1608 48.6192C34.042 49.1414 33.5855 49.5061 33.0505 49.5061H30.2615C29.8489 49.5061 29.5144 49.8405 29.5144 50.2531C29.5144 50.6657 29.8489 51.0002 30.2615 51.0002H33.0505C34.2877 51.0002 35.3434 50.1573 35.6177 48.9508L35.9574 47.4594C36.0762 46.9372 36.5327 46.5726 37.0677 46.5726H37.6703C37.7397 46.5726 37.81 46.609 37.8634 46.6733C38.7163 47.6968 39.9682 48.2839 41.2981 48.2839C43.7386 48.2839 45.7437 46.2978 45.7676 43.8563C45.7903 41.4666 43.868 39.4439 41.4832 39.3475C40.0805 39.2907 38.7605 39.8757 37.8617 40.9554C37.8096 41.0181 37.7401 41.0542 37.6713 41.0542H37.0677C36.5327 41.0542 36.0761 40.6895 35.9573 40.1673L35.6177 38.6751C35.4516 37.9456 34.9987 37.3508 34.3939 36.9933C34.9582 36.3768 35.3031 35.5565 35.3031 34.6568C35.3031 33.7571 34.9581 32.9366 34.3938 32.3202C34.9988 31.9624 35.4517 31.3673 35.6177 30.6375ZM23.5275 32.6868L21.7344 34.2747C21.0079 34.9181 20.4682 35.7306 20.1496 36.6263H19.161C18.0749 36.6263 17.1913 35.7426 17.1913 34.6566C17.1913 33.5705 18.075 32.6869 19.161 32.6869H23.5275V32.6868ZM25.5001 32.9357L28.2754 35.3933C28.672 35.7445 28.9935 36.1641 29.2291 36.6263H21.7712C22.0068 36.1641 22.3283 35.7445 22.7249 35.3933L25.5001 32.9357ZM30.8507 36.6263C30.5321 35.7306 29.9923 34.9181 29.2659 34.2747L27.4728 32.6868H31.8393C32.9254 32.6868 33.809 33.5705 33.809 34.6565C33.809 35.7425 32.9253 36.6262 31.8393 36.6262H30.8507V36.6263ZM29.514 25.4998V25.5001C29.514 26.6982 28.9995 27.8409 28.1025 28.6353L27.9668 28.7555V27.0831C27.9668 26.6705 27.6323 26.336 27.2197 26.336C26.8071 26.336 26.4726 26.6705 26.4726 27.0831V29.0661C26.4726 29.7096 26.1964 30.3233 25.7147 30.7498L25.5001 30.94L22.8977 28.6354C22.0008 27.841 21.4864 26.6983 21.4863 25.5002C21.4863 25.5001 21.4863 25.5 21.4863 25.4999C21.4863 24.3018 22.0008 23.1591 22.8977 22.3647L23.0389 22.2398V23.9169C23.0389 24.3295 23.3734 24.664 23.786 24.664C24.1985 24.664 24.533 24.3295 24.533 23.9169V21.9339C24.533 21.2905 24.8093 20.6767 25.2911 20.2502L25.5029 20.0625L28.1026 22.3648C28.9995 23.159 29.514 24.3017 29.514 25.4998ZM27.4728 18.3132L29.2659 16.7253C29.9924 16.0819 30.5321 15.2694 30.8507 14.3737H31.8393C32.9254 14.3737 33.809 15.2574 33.809 16.3434C33.809 17.4294 32.9253 18.3131 31.8393 18.3131H27.4728V18.3132ZM25.5001 18.0643L22.7249 15.6067C22.3283 15.2555 22.0067 14.8359 21.7712 14.3737H29.2291C28.9934 14.8359 28.672 15.2555 28.2754 15.6067L25.5001 18.0643ZM20.1496 14.3737C20.4682 15.2694 21.008 16.0819 21.7344 16.7253L23.5275 18.3132H19.161C18.0749 18.3132 17.1913 17.4296 17.1913 16.3435C17.1913 15.2575 18.075 14.3738 19.161 14.3738H20.1496V14.3737ZM13.9325 26.765H13.3299C12.8149 26.765 12.3259 26.9979 11.989 27.4034C11.4208 28.0853 10.5872 28.4763 9.70219 28.4763C8.07746 28.4763 6.7427 27.154 6.72676 25.5288C6.71172 23.9378 7.9907 22.5913 9.57838 22.5271C10.512 22.4889 11.3916 22.8788 11.9892 23.5967C12.3261 24.0023 12.8145 24.235 13.329 24.235H13.9326C15.1698 24.235 16.2255 23.3922 16.4997 22.1856L16.8395 20.6941C16.9582 20.172 17.4147 19.8073 17.9497 19.8073H23.5318L21.9071 21.2461C20.7699 22.2531 20.0863 23.6731 20.0014 25.1812L19.182 26.0006C18.4501 26.7326 18.047 27.7057 18.047 28.7407V29.1555C18.047 29.568 18.3815 29.9025 18.794 29.9025C19.2066 29.9025 19.5411 29.568 19.5411 29.1555V28.7407C19.5411 28.1147 19.7815 27.5261 20.2178 27.0788C20.5142 28.1023 21.0939 29.0338 21.907 29.7539L23.5317 31.1927H17.9497C17.4147 31.1927 16.9581 30.828 16.8394 30.3056L16.4998 28.8147C16.2254 27.6079 15.1697 26.765 13.9325 26.765Z" fill="#134A85"/>
</g>
<defs>
<clipPath id="clip0_3059_12286">
<rect width="51" height="51" fill="white"/>
</clipPath>
</defs>
</svg>
