<svg width="51" height="51" viewBox="0 0 51 51" fill="none" xmlns="http://www.w3.org/2000/svg">
<path d="M39.9925 39.3473C38.5898 39.2904 37.2699 39.8756 36.3711 40.9553C36.319 41.0181 36.2495 41.0541 36.1808 41.0541H35.5771C35.0415 41.0541 34.585 40.6897 34.4667 40.1671L34.1271 38.6749C33.9612 37.9461 33.5089 37.3518 32.9049 36.9942C33.1887 36.6841 33.4161 36.3212 33.5726 35.9205C34.4888 36.1737 35.4532 36.3097 36.4487 36.3097C42.4093 36.3097 47.2585 31.4605 47.2585 25.5001C47.2585 23.5489 46.7325 21.6367 45.7373 19.9702C45.5259 19.6159 45.0671 19.5006 44.7128 19.7118C44.3586 19.9234 44.243 20.3821 44.4545 20.7363C45.3114 22.1711 45.7642 23.8184 45.7642 25.5C45.7642 30.6365 41.5853 34.8155 36.4487 34.8155C31.3122 34.8155 27.1332 30.6366 27.1332 25.5C27.1332 20.3634 31.3121 16.1845 36.4487 16.1845C38.5996 16.1845 40.6977 16.935 42.3565 18.2977C42.6751 18.5596 43.1462 18.5137 43.408 18.1947C43.6699 17.876 43.6238 17.4051 43.305 17.1433C41.3797 15.5615 38.9448 14.6904 36.4487 14.6904C35.4531 14.6904 34.4886 14.8264 33.5723 15.0796C33.4178 14.6859 33.1917 14.3207 32.9043 14.0062C33.5087 13.6487 33.9611 13.0542 34.1271 12.3252L34.467 10.832C34.5851 10.3104 35.0416 9.9459 35.5772 9.9459H36.1798C36.2489 9.9459 36.3184 9.98176 36.372 10.0467C37.225 11.0702 38.4769 11.6573 39.8066 11.6573C42.2477 11.6573 44.2531 9.67127 44.2771 7.22975C44.2998 4.84012 42.3776 2.81745 39.9927 2.72083C38.5892 2.66405 37.27 3.24916 36.3712 4.32882C36.3191 4.39168 36.2496 4.42764 36.1809 4.42764H35.5772C35.0416 4.42764 34.5851 4.06327 34.4668 3.54052L34.1273 2.04966C33.8526 0.842894 32.7969 0 31.5597 0H21.6655C21.2528 0 20.9185 0.334389 20.9185 0.74707C20.9185 1.15975 21.2528 1.49414 21.6655 1.49414H31.5597C32.0947 1.49414 32.5513 1.85881 32.6701 2.38126L33.0094 3.87132C33.2826 5.07858 34.3384 5.92178 35.5769 5.92178H36.1806C36.6951 5.92178 37.1833 5.68909 37.5196 5.28418C38.1179 4.5656 38.9952 4.17423 39.9315 4.21388C41.5188 4.27812 42.7978 5.62464 42.7826 7.2154C42.7668 8.84083 41.4316 10.1632 39.8063 10.1632C38.9213 10.1632 38.0877 9.77208 37.5212 9.09234C37.1846 8.68534 36.6956 8.45186 36.1795 8.45186H35.5769C34.3383 8.45186 33.2826 9.29505 33.0097 10.5013L32.6701 11.9935C32.5513 12.5151 32.0947 12.8795 31.5597 12.8795H16.458C15.923 12.8795 15.4664 12.5151 15.3478 11.994L15.0091 10.5015C14.7347 9.29475 13.6789 8.45186 12.4419 8.45186H11.8393C11.3243 8.45186 10.8354 8.68484 10.498 9.09055C9.93064 9.77228 9.09721 10.1632 8.21148 10.1632C6.58596 10.1632 5.25109 8.84103 5.23615 7.2156C5.22101 5.62464 6.49999 4.27812 8.08767 4.21388C9.0229 4.17423 9.90076 4.5656 10.4985 5.28348C10.8355 5.68909 11.3237 5.92178 11.8382 5.92178H12.4419C13.679 5.92178 14.7348 5.07888 15.0091 3.87192L15.3477 2.38106C15.4664 1.85881 15.923 1.49414 16.458 1.49414H18.1792C18.5919 1.49414 18.9263 1.15975 18.9263 0.74707C18.9263 0.334389 18.5919 0 18.1792 0H16.458C15.221 0 14.1651 0.842795 13.8907 2.04986L13.5521 3.54081C13.4335 4.06297 12.9769 4.42764 12.4419 4.42764H11.8382C11.7694 4.42764 11.7 4.39168 11.6473 4.32813C10.7489 3.24906 9.4313 2.66425 8.02671 2.72083C5.64146 2.81745 3.7193 4.84002 3.74191 7.22955C3.76462 9.67107 5.76946 11.6573 8.21138 11.6573C9.54216 11.6573 10.7943 11.0701 11.6466 10.0459C11.6994 9.98235 11.7696 9.9459 11.8392 9.9459H12.4418C12.9768 9.9459 13.4334 10.3106 13.552 10.8324L13.8908 12.3252C14.057 13.0548 14.5101 13.6496 15.1152 14.007C14.551 14.6234 14.2062 15.4437 14.2062 16.3432C14.2062 17.2427 14.551 18.0631 15.1152 18.6795C14.5098 19.0372 14.0566 19.6326 13.8906 20.3629L13.5525 21.8539C13.434 22.3759 12.9772 22.7403 12.4417 22.7403H11.838C11.7691 22.7403 11.6999 22.7047 11.6472 22.6409C10.7486 21.5623 9.4311 20.9767 8.02601 21.0333C5.64066 21.1308 3.7186 23.1539 3.74141 25.5429C3.76422 27.984 5.76946 29.9698 8.21148 29.9698C9.54057 29.9698 10.7924 29.383 11.646 28.3597C11.6992 28.2957 11.7694 28.2592 11.8389 28.2592H12.4416C12.9771 28.2592 13.4339 28.6237 13.5523 29.1453L13.8906 30.6369C14.0565 31.367 14.5096 31.9623 15.1149 32.3199C14.5506 32.9362 14.2058 33.7564 14.2058 34.6558C14.2058 35.5555 14.5507 36.376 15.115 36.9926C14.51 37.3501 14.0568 37.9451 13.8905 38.675L13.552 40.167C13.4334 40.6891 12.9768 41.0538 12.4418 41.0538H11.8381C11.7693 41.0538 11.6999 41.0178 11.6472 40.9543C10.7488 39.8752 9.42971 39.2895 8.02661 39.347C5.64136 39.4436 3.7192 41.4662 3.74181 43.8557C3.76452 46.2972 5.76936 48.2835 8.21128 48.2835C9.54117 48.2835 10.793 47.6964 11.6465 46.6722C11.6993 46.6085 11.7695 46.5721 11.8391 46.5721H12.4417C12.9767 46.5721 13.4333 46.9367 13.5519 47.4587L13.8905 48.9501C14.1652 50.1572 15.221 51 16.458 51H31.5597C32.7969 51 33.8526 50.1571 34.1269 48.9506L34.4668 47.4585C34.5849 46.9368 35.0414 46.5724 35.577 46.5724H36.1796C36.2487 46.5724 36.3182 46.6082 36.372 46.6735C37.2259 47.6968 38.4778 48.2838 39.8065 48.2838C42.2476 48.2838 44.253 46.2977 44.277 43.8562C44.2996 41.4665 42.3774 39.4438 39.9925 39.3473ZM28.3818 18.3132H17.67C16.5839 18.3132 15.7003 17.4296 15.7003 16.3435C15.7003 15.2575 16.5839 14.3738 17.67 14.3738H30.3483C30.8741 14.3738 31.3688 14.5788 31.7408 14.951C31.9213 15.1315 32.0627 15.3458 32.161 15.5782C30.709 16.2079 29.4213 17.1476 28.3818 18.3132ZM12.4417 26.7653H11.839C11.3249 26.7653 10.8363 26.9979 10.4986 27.403C9.92984 28.0849 9.09621 28.4759 8.21158 28.4759C6.58586 28.4759 5.25079 27.154 5.23565 25.529C5.22041 23.9382 6.4995 22.5914 8.08697 22.5265C9.0221 22.4868 9.90056 22.8788 10.4981 23.5961C10.8345 24.0018 11.3229 24.2346 11.838 24.2346H12.4417C13.6796 24.2346 14.7355 23.3917 15.0096 22.1846L15.3477 20.6936C15.4662 20.1718 15.923 19.8072 16.4585 19.8072H17.67H27.2636C26.2345 21.4615 25.639 23.4124 25.639 25.4999C25.639 27.5874 26.2345 29.5383 27.2636 31.1926H17.6703H16.4585C15.923 31.1926 15.4662 30.828 15.3478 30.3064L15.0095 28.8149C14.7355 27.6082 13.6796 26.7653 12.4417 26.7653ZM39.8064 46.7895C38.9221 46.7895 38.0884 46.3982 37.5213 45.7186C37.1847 45.3116 36.6957 45.0781 36.1796 45.0781H35.577C34.3384 45.0781 33.2827 45.9213 33.0098 47.1275L32.6701 48.6189C32.5514 49.1411 32.0948 49.5058 31.5598 49.5058H16.458C15.923 49.5058 15.4664 49.1411 15.3477 48.6191L15.0091 47.1278C14.7347 45.921 13.6789 45.0781 12.4419 45.0781H11.8393C11.3243 45.0781 10.8354 45.3111 10.4983 45.7164C9.93004 46.3984 9.09661 46.7894 8.21148 46.7894C6.58596 46.7894 5.25109 45.4672 5.23615 43.8418C5.22101 42.2508 6.49999 40.9043 8.08767 40.84C9.0225 40.8008 9.90076 41.1918 10.4985 41.9096C10.8355 42.3153 11.3237 42.5479 11.8382 42.5479H12.4419C13.679 42.5479 14.7348 41.7051 15.0092 40.498L15.3476 39.0063C15.4664 38.4847 15.923 38.1202 16.458 38.1202H20.8776C21.2903 38.1202 21.6247 37.7858 21.6247 37.3731C21.6247 36.9605 21.2903 36.6261 20.8776 36.6261H17.6703C16.5838 36.6261 15.7 35.7422 15.7 34.6558C15.7 33.57 16.5838 32.6865 17.6703 32.6865H28.3818C29.4219 33.8527 30.7103 34.7926 32.1633 35.4226C31.8636 36.1357 31.1587 36.6261 30.3486 36.6261H24.364C23.9514 36.6261 23.617 36.9605 23.617 37.3731C23.617 37.7858 23.9514 38.1202 24.364 38.1202H31.5598C32.0948 38.1202 32.5514 38.4845 32.6702 39.0062L33.0095 40.4975C33.2827 41.7048 34.3385 42.5479 35.577 42.5479H36.1807C36.6952 42.5479 37.1834 42.3153 37.5197 41.9103C38.1179 41.1918 38.9946 40.7997 39.9316 40.84C41.5189 40.9043 42.7978 42.2508 42.7827 43.8416C42.7669 45.4672 41.4317 46.7895 39.8064 46.7895Z" fill="#134A85"/>
<path d="M33.6166 32.1197C33.7827 32.2356 33.9723 32.2927 34.1608 32.2927C34.3952 32.2927 34.6279 32.2043 34.811 32.031L40.4309 26.7156C40.7597 26.4046 40.936 25.9668 40.9146 25.5147C40.8932 25.0626 40.6762 24.6434 40.3194 24.3647L38.3947 22.8619L39.6096 20.0326C39.789 19.6148 39.6538 19.1412 39.2809 18.8809C38.9078 18.6208 38.4166 18.6572 38.0866 18.9697L32.4669 24.2851C32.1381 24.5961 31.9618 25.0339 31.9832 25.4861C32.0046 25.9382 32.2215 26.3573 32.5784 26.636L34.503 28.1388L33.2883 30.9678C33.1086 31.3856 33.2437 31.8593 33.6166 32.1197ZM33.4979 25.4583C33.4921 25.4538 33.4769 25.442 33.4756 25.4154C33.4743 25.3887 33.4884 25.3755 33.4937 25.3706L37.1948 21.8698L36.7946 22.8015C36.6607 23.1134 36.7539 23.4762 37.0213 23.6851L39.3998 25.5423C39.4056 25.5468 39.4208 25.5587 39.4221 25.5853C39.4234 25.6119 39.4094 25.6251 39.4041 25.63L35.703 29.1307L36.1031 28.199C36.237 27.8871 36.1439 27.5243 35.8764 27.3154L33.4979 25.4583Z" fill="#134A85"/>
<path d="M8.71484 17.0908H9.7211C10.1338 17.0908 10.4682 16.7564 10.4682 16.3438C10.4682 15.9311 10.1338 15.5967 9.7211 15.5967H8.71484C8.30216 15.5967 7.96777 15.9311 7.96777 16.3438C7.96777 16.7564 8.30216 17.0908 8.71484 17.0908Z" fill="#134A85"/>
<path d="M11.5443 14.595C11.6902 14.7408 11.8814 14.8137 12.0726 14.8137C12.2637 14.8137 12.455 14.7408 12.6009 14.595C12.8927 14.3031 12.8927 13.8302 12.6009 13.5384L11.8213 12.7588C11.5294 12.4671 11.0565 12.4671 10.7647 12.7588C10.473 13.0506 10.473 13.5236 10.7647 13.8153L11.5443 14.595Z" fill="#134A85"/>
<path d="M10.7647 19.928C10.9106 20.0738 11.1019 20.1467 11.293 20.1467C11.4842 20.1467 11.6754 20.0738 11.8214 19.928L12.601 19.1483C12.8928 18.8565 12.8928 18.3835 12.601 18.0918C12.3091 17.8001 11.8362 17.8001 11.5444 18.0918L10.7648 18.8714C10.4729 19.1633 10.4729 19.6362 10.7647 19.928Z" fill="#134A85"/>
<path d="M8.71484 35.4033H9.7211C10.1338 35.4033 10.4682 35.0689 10.4682 34.6562C10.4682 34.2436 10.1338 33.9092 9.7211 33.9092H8.71484C8.30216 33.9092 7.96777 34.2436 7.96777 34.6562C7.96777 35.0689 8.30216 35.4033 8.71484 35.4033Z" fill="#134A85"/>
<path d="M11.5443 32.9085C11.6902 33.0543 11.8814 33.1272 12.0726 33.1272C12.2637 33.1272 12.455 33.0543 12.6009 32.9085C12.8927 32.6166 12.8927 32.1437 12.6009 31.8519L11.8213 31.0723C11.5294 30.7806 11.0565 30.7806 10.7647 31.0723C10.473 31.3641 10.473 31.8371 10.7647 32.1288L11.5443 32.9085Z" fill="#134A85"/>
<path d="M10.7647 38.2415C10.9106 38.3873 11.1019 38.4602 11.293 38.4602C11.4842 38.4602 11.6754 38.3873 11.8214 38.2415L12.601 37.4618C12.8928 37.17 12.8928 36.697 12.601 36.4053C12.3091 36.1136 11.8362 36.1136 11.5444 36.4053L10.7648 37.1849C10.4729 37.4767 10.4729 37.9496 10.7647 38.2415Z" fill="#134A85"/>
</svg>
