<svg width="51" height="51" viewBox="0 0 51 51" fill="none" xmlns="http://www.w3.org/2000/svg">
<g clip-path="url(#clip0_3056_10989)">
<path d="M50.3573 33.5775C49.8951 33.3118 49.3283 33.3565 48.913 33.6913L46.0789 35.9783L42.0924 35.9093C41.3081 34.9024 34.8878 26.5049 34.4744 26.0531C33.6356 25.1411 31.9406 24.7931 30.834 25.3019L29.9107 25.6797C29.9107 25.6797 23.392 20.9085 23.3303 20.8844L21.2882 20.067L21.8331 18.7976C22.0817 18.8494 22.3339 18.8755 22.5862 18.8755C23.0538 18.8755 23.5219 18.7864 23.9692 18.6078C24.8939 18.2385 25.6193 17.5313 26.0122 16.6164L27.1498 13.966C27.7592 12.6238 27.0781 10.9185 25.7119 10.3652L22.7878 9.10988C21.5736 8.5773 20.1175 8.80006 19.1149 9.66849C17.7862 9.03694 16.3217 8.79067 14.8499 8.95764L13.4075 9.12138C12.672 9.20492 12.028 9.6463 11.6849 10.3022C11.3418 10.958 11.3464 11.7387 11.6971 12.3905L13.1161 15.0275C14.0782 16.7206 16.1903 16.454 17.2008 14.9483C17.2013 14.9788 17.4172 16.3344 17.4273 16.402L16.5884 18.3565C15.6456 17.9864 14.546 18.1214 13.7305 18.7284L7.44394 23.3284C6.61838 23.9329 5.97755 24.7521 5.59085 25.6969L3.33492 31.1969C3.17632 31.5835 3.36125 32.0255 3.74785 32.1841C4.13455 32.3425 4.57643 32.1577 4.73503 31.771L6.99116 26.2706C7.27223 25.5839 7.73793 24.9888 8.3378 24.5495L10.0482 23.298L11.3981 25.4881L11.2549 25.8217L9.91527 26.7353C9.82175 26.7992 9.74376 26.8831 9.68696 26.9811L4.32714 36.229C4.19094 36.4631 3.99986 36.661 3.77287 36.8034L2.79335 37.2443C2.34542 37.4464 1.82494 37.2588 1.60844 36.8177C1.39456 36.3822 1.56021 35.858 1.98565 35.6244L3.25986 34.9248C3.62618 34.7238 3.76005 34.2637 3.55899 33.8974C3.35792 33.5311 2.89818 33.397 2.53155 33.5983L1.25735 34.2978C0.121261 34.9215 -0.321129 36.3214 0.250093 37.4847C0.671095 38.342 1.52208 38.8405 2.41543 38.8404C2.74937 38.8403 3.08926 38.7707 3.41472 38.6241L4.43701 38.1638C4.46303 38.1521 4.48846 38.1389 4.51297 38.1243C4.97534 37.8494 5.36345 37.457 5.63575 36.9885L9.25618 30.7418L8.41256 34.5323C7.45534 38.2946 10.6615 42.2924 14.5423 42.1749H26.3928C26.8107 42.1749 27.1495 41.8362 27.1495 41.4182V37.1485L35.7048 37.311V40.6616H29.9529C29.5351 40.6616 29.1963 41.0003 29.1963 41.4182C29.1963 41.8362 29.5351 42.1749 29.9529 42.1749H47.8977C49.0429 42.1749 49.9995 41.3531 50.1724 40.2203L50.9856 34.8822C51.066 34.3553 50.8194 33.8432 50.3573 33.5775ZM12.4713 26.8235L17.1811 23.6115C18.1604 22.9625 18.6646 21.7156 18.4324 20.57L21.2763 21.7089C21.6407 21.8655 21.865 22.2365 21.8346 22.6316L21.6288 25.2717C21.5777 25.9251 21.3535 26.5548 20.9805 27.0927L17.144 32.6266L11.0951 30.03L12.4713 26.8235ZM21.4645 29.0506L22.224 27.9551C22.4231 27.6679 22.5918 27.3623 22.7289 27.0433C22.9959 27.2449 23.7853 27.8414 24.0396 28.0335L21.4645 29.0506ZM23.1308 25.4501C23.1326 25.4299 23.1359 25.4098 23.1375 25.3895L23.3433 22.7487C23.3435 22.7456 23.3434 22.7424 23.3436 22.7393L25.3265 24.1941L23.9563 26.074L23.1308 25.4501ZM19.9111 31.2914L27.2897 28.3767L28.8721 32.7035L24.0273 35.5754L22.1743 35.5404C21.507 35.528 20.8758 35.3043 20.3489 34.8933L18.4434 33.4087L19.9111 31.2914ZM26.9027 35.6301L31.3147 33.0151L33.3059 35.7518L26.9027 35.6301ZM37.1281 31.9446C37.8808 32.9374 40.0389 35.7332 40.1429 35.8672L35.165 35.7719L33.8337 33.8632L37.1281 31.9446ZM31.4236 26.6958C31.436 26.6908 31.4481 26.6853 31.4602 26.6798C31.9704 26.4387 32.9647 26.6473 33.3594 27.0763C33.5966 27.3355 34.2901 28.1905 36.2099 30.7284L32.9352 32.6352L32.1013 31.5599C31.8674 31.2582 31.4456 31.178 31.1174 31.3728L30.1966 31.9186L28.6948 27.8123L31.4236 26.6958ZM27.4585 26.683C27.4576 26.6834 27.4566 26.6836 27.4557 26.6839L25.6881 27.3821L25.164 26.9862L26.5469 25.089L28.2682 26.3517L27.4585 26.683ZM21.7134 17.1808C21.712 17.1802 21.7106 17.1798 21.7092 17.1792C21.7078 17.1786 21.7065 17.1778 21.7051 17.1772C21.321 17.0125 20.8761 17.19 20.7113 17.5741L19.8974 19.4701L18.09 18.6941L18.8366 16.9548L21.4535 14.6462C22.2083 14.8246 23.0187 14.8982 23.8687 14.8661C24.3451 14.8486 24.7855 14.7999 25.1706 14.7399L24.6214 16.0195C24.1398 17.1415 22.8354 17.6623 21.7134 17.1808ZM20.4311 10.5865C20.9781 10.286 21.6197 10.2552 22.1907 10.5003L25.1118 11.7546C25.615 11.9617 25.9287 12.521 25.8455 13.0582C25.4287 13.1655 24.6877 13.3219 23.8123 13.354C22.9694 13.3862 22.1816 13.296 21.471 13.0857C21.2214 13.0121 20.9512 13.0717 20.7559 13.2439L18.7417 15.0207C18.6079 14.3288 18.6682 13.6104 18.9504 12.9625L19.5545 11.5536C19.733 11.1383 20.0363 10.8037 20.4311 10.5865ZM15.6063 14.4524C15.2953 14.8156 14.6623 14.7385 14.4486 14.3104L13.0297 11.6734C12.9154 11.4612 12.914 11.2171 13.0257 11.0035C13.1374 10.7902 13.3388 10.6521 13.5782 10.6249L15.0207 10.4612C16.107 10.3377 17.1887 10.4931 18.1863 10.91C18.1792 10.9257 18.1709 10.9406 18.164 10.9565L17.6101 12.2484L15.6063 14.4524ZM14.6241 19.9495C16.2125 18.7988 17.9447 21.2469 16.3286 22.3612L12.7517 24.8004L11.2732 22.4017L14.6241 19.9495ZM25.6361 40.6616H14.5421C11.5789 40.7397 9.17224 37.727 9.88954 34.861L10.6414 31.4827L17.0261 34.2232L19.4184 36.0869C20.1941 36.6919 21.1629 37.0351 22.1458 37.0535L25.6361 37.1197V40.6616ZM37.218 40.6616V37.3385L40.2832 37.3915L39.9257 37.9079C39.6878 38.2514 39.7736 38.7227 40.1172 38.9607C40.2486 39.0516 40.3987 39.0953 40.5472 39.0953C40.7871 39.0953 41.0231 38.9814 41.17 38.7692L42.1019 37.4231L45.5838 37.4833V40.6617H37.218V40.6616ZM48.6764 39.9922C48.6182 40.3738 48.2833 40.6616 47.8977 40.6616H47.097V37.1014L49.3998 35.2431L48.6764 39.9922Z" fill="#134A85"/>
<path d="M43.4976 31.2633C43.5495 31.274 43.6011 31.2793 43.6521 31.2793C44.0031 31.2793 44.318 31.0334 44.3922 30.676L45.0849 27.3371C45.1697 26.9279 44.9068 26.5275 44.4977 26.4425C44.0889 26.3582 43.6881 26.6205 43.6031 27.0297L42.9104 30.3686C42.8256 30.7778 43.0885 31.1784 43.4976 31.2633Z" fill="#134A85"/>
<path d="M46.1016 32.3936C46.2261 32.4713 46.3644 32.5083 46.5011 32.5083C46.7536 32.5083 47.0005 32.3819 47.1439 32.1519L48.1288 30.572C48.3498 30.2173 48.2416 29.7506 47.887 29.5296C47.5323 29.3087 47.0657 29.4169 46.8446 29.7713L45.8598 31.3512C45.6387 31.7059 45.747 32.1726 46.1016 32.3936Z" fill="#134A85"/>
<path d="M39.799 30.6277C39.8551 31.0031 40.1779 31.2727 40.5464 31.2727C40.5835 31.2727 40.6213 31.2699 40.6591 31.2643C41.0724 31.2025 41.3575 30.8174 41.2957 30.4041L41.0207 28.5628C40.959 28.1497 40.5744 27.8651 40.1606 27.9262C39.7473 27.988 39.4623 28.3732 39.524 28.7864L39.799 30.6277Z" fill="#134A85"/>
</g>
<defs>
<clipPath id="clip0_3056_10989">
<rect width="51" height="51" fill="white"/>
</clipPath>
</defs>
</svg>
