<svg width="51" height="51" viewBox="0 0 51 51" fill="none" xmlns="http://www.w3.org/2000/svg">
<g clip-path="url(#clip0_3059_12336)">
<mask id="path-1-outside-1_3059_12336" maskUnits="userSpaceOnUse" x="-0.572266" y="-0.986328" width="52" height="53" fill="black">
<rect fill="white" x="-0.572266" y="-0.986328" width="52" height="53"/>
<path d="M34.2758 6.84287L35.5807 6.99228C36.0887 7.05205 36.0389 7.81904 35.5309 7.81904C35.511 7.81904 35.501 7.81904 35.4811 7.81904L34.1762 7.66963C33.6383 7.5999 33.728 6.77314 34.2758 6.84287ZM36.8856 10.13C37.025 10.13 37.1545 10.0603 37.2342 9.95068C37.7522 9.39287 38.2801 8.86494 38.8479 8.32705C39.0172 8.16767 39.0172 7.90869 38.8678 7.73935C38.7084 7.57002 38.4494 7.57002 38.2801 7.71943C37.7024 8.26728 37.1645 8.80517 36.6366 9.37295C36.3278 9.62197 36.4971 10.1399 36.8856 10.13ZM36.0289 5.60771C36.258 5.60771 36.4473 5.41845 36.4473 5.18935V3.53584C36.4473 3.30674 36.258 3.11748 36.0289 3.11748C35.7998 3.11748 35.6106 3.30674 35.6106 3.53584V5.19931C35.6205 5.42841 35.7998 5.60771 36.0289 5.60771ZM37.1844 13.6661C37.8916 13.4769 38.5889 13.188 39.2961 12.9987C39.5153 12.929 39.6448 12.6999 39.575 12.4808C39.5153 12.2616 39.2862 12.1321 39.0571 12.2019C38.3797 12.4011 37.7024 12.6202 37.045 12.8593C36.6067 13.0087 36.7362 13.686 37.1844 13.6661ZM41.1987 12.4808C41.9159 12.3413 42.633 12.172 43.3203 12.0724C43.5494 12.0325 43.6989 11.8233 43.669 11.5942C43.6391 11.3651 43.42 11.2157 43.1909 11.2456C42.5135 11.3552 41.8063 11.4946 41.109 11.654C40.8899 11.7038 40.7504 11.9329 40.8002 12.152C40.8401 12.3513 41.0094 12.4808 41.1987 12.4808ZM45.3424 11.8233C46.0496 11.7735 46.7469 11.7436 47.4342 11.7436C47.6633 11.7237 47.8526 11.5644 47.8526 11.3353C47.8526 11.1061 47.6733 10.9169 47.4442 10.9169C46.7369 10.9069 46.0297 10.9368 45.3125 10.9966C44.7846 11.0364 44.8245 11.8233 45.3424 11.8233ZM35.0926 11.3751C34.6643 12.0624 34.2957 12.8095 33.9969 13.5765C33.9272 13.7558 34.0069 13.955 34.1563 14.0546C34.0866 14.0944 34.0467 14.1144 34.0467 14.1144C33.6582 14.2936 33.8176 14.9112 34.236 14.9013C34.5647 14.8515 34.5547 14.7519 35.4014 14.4132C35.8994 14.194 35.5707 13.437 35.0727 13.6462C34.993 13.686 34.9133 13.7159 34.8336 13.7458C35.1026 13.0784 35.4213 12.431 35.7998 11.8233C36.0787 11.3552 35.3815 10.9169 35.0926 11.3751ZM40.3221 6.83291C40.4217 6.83291 40.5313 6.79306 40.611 6.72334C41.2684 6.13564 41.8362 5.62763 42.3541 5.10966C42.7327 4.72119 42.145 4.14345 41.7664 4.53193C41.2684 5.03994 40.7006 5.54795 40.0432 6.12568C39.7543 6.35478 39.9635 6.85283 40.3221 6.83291ZM33.2797 5.57783C33.3893 5.61767 34.3555 6.10576 34.4651 6.07588C34.8934 6.0958 35.0428 5.44834 34.6344 5.279L33.6284 4.8208C33.4192 4.73115 33.1702 4.8208 33.0805 5.02998C32.9809 5.23916 33.0705 5.47822 33.2797 5.57783ZM18.936 20.0909C18.9858 20.1009 20.1412 20.4595 20.45 22.5214C20.4799 22.7306 20.6592 22.88 20.8584 22.88C21.1075 22.88 21.3067 22.6509 21.2668 22.4019C20.9879 20.5093 20.0616 19.7423 19.5336 19.4534C20.1612 17.3716 22.8307 15.987 22.8606 15.977C23.0698 15.8774 23.1495 15.6185 23.0399 15.4192C22.9403 15.2101 22.6912 15.1304 22.4821 15.2399C22.3426 15.3097 19.1352 16.9632 18.6371 19.6228C18.5973 19.822 18.7268 20.0311 18.936 20.0909ZM38.2403 25.2606C38.2303 25.3005 37.4832 29.6235 35.2121 31.805C34.9432 32.054 35.1424 32.5321 35.501 32.5222C35.6006 32.5222 35.7102 32.4823 35.7899 32.4026C38.2602 30.0319 39.0272 25.5894 39.0571 25.4001C39.1467 24.8622 38.3299 24.7228 38.2403 25.2606ZM26.9645 23.3681C26.0182 20.7085 27.3729 18.2581 27.5323 17.9692C27.8012 17.5011 27.094 17.0827 26.8151 17.5509C25.7293 19.3438 25.4305 21.9536 26.3868 24.1649V24.1749C26.9944 25.5694 28.1 26.8046 29.8432 27.5716C30.2616 27.5915 30.4209 26.964 30.0325 26.7847C29.3252 26.4261 28.0901 25.6192 27.2932 24.1251C31.4071 21.9237 33.8375 24.6829 34.3555 24.7526C34.7241 24.7626 34.9133 24.2745 34.6344 24.0354C34.6145 24.0056 31.2975 21.0472 26.9645 23.3681ZM41.119 21.3958C42.6032 22.5015 43.2407 24.5933 42.5036 26.3265C43.9578 28.986 43.3901 32.9903 40.9496 35.1519C40.4715 38.1102 37.9414 40.5407 34.8237 40.7399C34.5448 41.5866 33.7578 44.4354 34.3754 47.5233C34.7639 49.2466 33.3295 51.0296 31.5565 50.9897C30.6998 50.9897 29.883 50.6112 29.3352 49.9438C27.9805 48.3003 25.8489 45.1327 26.1676 41.7261C25.809 41.8157 25.3209 41.8954 24.783 41.8954C23.3985 41.9751 21.6354 41.0985 20.8983 39.7239C15.35 41.1384 10.3098 40.5606 10.1405 36.4567C7.27172 36.9349 4.70179 35.8192 4.86117 32.9206C0.229333 30.6296 -1.13532 25.0714 2.51039 21.8938C1.32504 17.9792 4.40297 14.0745 8.92523 14.0645C10.758 11.8034 14.7125 10.4288 17.92 11.7536C20.5297 9.44267 24.3946 10.0005 26.4067 11.7038C26.9246 11.3452 27.851 10.8472 29.0364 10.7476C29.0364 10.7376 29.0364 10.7276 29.0364 10.7077C29.3153 2.68916 36.1584 -0.966507 42.0752 0.238766C42.1151 0.238766 42.1549 0.228806 42.2047 0.238766C42.3541 0.268649 42.4936 0.318454 42.643 0.358298C42.7825 0.398141 42.9119 0.437985 43.0514 0.477829C43.1909 0.517673 43.3203 0.557516 43.4598 0.607321C46.8166 1.76279 49.6555 4.60166 50.4623 9.23349C51.3787 15.0706 46.8565 20.7085 41.119 21.3958ZM46.2887 3.23701C45.203 5.77705 43.0614 7.48037 40.9198 9.43271C43.9977 8.75537 46.8864 8.55615 49.5459 8.82509C49.0977 6.66357 47.9323 4.69131 46.2887 3.23701ZM30.2516 13.4569C30.2914 13.5964 30.3313 13.7358 30.3811 13.8753C30.3811 13.8853 30.3911 13.8952 30.3911 13.9151C30.5903 14.4929 30.8493 15.0507 31.1481 15.5786C31.5963 13.0585 32.6123 10.7874 34.1862 8.82509C34.3256 8.6458 34.5946 8.61592 34.7739 8.75537C34.9532 8.89482 34.983 9.16377 34.8436 9.34306C33.1801 11.4249 32.1741 13.8853 31.8453 16.6345C31.8952 16.7042 31.945 16.764 31.9948 16.8237C32.1641 17.0429 32.3334 17.252 32.5227 17.4513C32.5825 17.521 32.6422 17.5808 32.702 17.6405C32.8414 17.78 32.9909 17.9095 33.1303 18.0489C33.1602 17.3317 33.22 16.6245 33.3494 15.9372C33.3893 15.7081 33.6084 15.5587 33.8375 15.6085C34.0666 15.6483 34.216 15.8675 34.1662 16.0966C34.0268 16.8436 33.9571 17.6106 33.9471 18.3876C33.9471 18.4872 33.9073 18.5769 33.8475 18.6466C34.0069 18.7661 34.1563 18.8856 34.3157 18.9952C34.4551 19.0849 34.5946 19.1645 34.734 19.2442C34.8834 19.3339 35.0328 19.4235 35.1823 19.5032C35.242 19.5331 35.3018 19.553 35.3516 19.5829C35.0827 17.521 36.2879 15.4591 38.2602 14.7917C41.1289 13.8155 45.3424 12.7696 49.3866 13.2776C49.3866 13.2776 49.3866 13.2776 49.3866 13.2677C49.5061 12.8294 49.5758 12.3712 49.6356 11.913C49.3467 11.8731 49.0877 11.7735 49.1176 11.4249C49.1475 11.1958 49.3467 11.0364 49.5758 11.0663C49.6157 11.0763 49.6555 11.0763 49.6953 11.0763C49.7153 10.6081 49.7053 10.1399 49.6555 9.67177C46.6075 9.32314 43.2307 9.64189 39.6049 10.6081C39.2065 10.7276 38.8977 10.1897 39.2065 9.91084C41.5971 7.50029 44.4758 5.66748 45.6114 2.69912C45.5516 2.65927 45.4918 2.60947 45.4321 2.56963C45.2528 2.44013 45.0635 2.31064 44.8743 2.20107C44.8643 2.19111 44.8543 2.19111 44.8543 2.18115C44.7049 2.0915 44.5555 2.02177 44.4061 1.94209C44.2467 2.37041 44.0774 2.76884 43.8582 3.14736C43.7785 3.27685 43.6391 3.35654 43.4996 3.35654C43.1909 3.3665 42.9817 2.99795 43.1411 2.73896C43.3502 2.38037 43.5096 1.99189 43.659 1.58349C43.2407 1.4042 42.8123 1.24482 42.3741 1.13525C41.7963 2.68916 40.7703 3.60556 39.1467 5.0499C38.7782 5.37861 38.3996 5.71728 37.9912 6.08584C37.8219 6.24521 37.5629 6.22529 37.4035 6.05595C37.2442 5.88662 37.2641 5.62763 37.4334 5.46826C39.0272 3.99404 40.9198 2.58955 41.5672 0.926071C40.9895 0.826462 40.3918 0.776657 39.7842 0.776657C32.4032 0.896188 28.7077 7.75927 30.2516 13.4569ZM33.9571 40.7399C32.9709 40.6702 31.935 40.3813 30.8991 39.8136C30.1321 41.0886 28.2295 41.756 27.0243 41.6265C26.6258 44.804 28.6778 47.852 29.9727 49.4159C30.7397 50.3921 32.3633 50.4021 33.1303 49.4159C33.5287 48.9378 33.6782 48.3003 33.5586 47.6827C32.951 44.6347 33.6084 41.8755 33.9571 40.7399ZM39.336 21.4556C39.2762 21.4556 39.2264 21.4456 39.1666 21.4456C38.9375 21.4356 38.7084 21.4257 38.4793 21.3958C38.3399 21.3759 38.1905 21.356 38.051 21.336C37.8717 21.3061 37.6924 21.2763 37.5131 21.2464C37.3239 21.2065 37.1346 21.1567 36.9453 21.097C36.8159 21.0571 36.6864 21.0272 36.5569 20.9874C36.2979 20.9077 36.0588 20.8081 35.8098 20.7085C35.75 20.6886 35.6903 20.6686 35.6305 20.6388C35.4612 20.569 35.3018 20.4894 35.1424 20.4097C35.0926 20.3897 35.0428 20.3599 34.983 20.33C34.8735 20.2702 34.7539 20.2204 34.6444 20.1606C33.2299 19.4136 32.0047 18.288 31.0485 17.003C31.0286 16.9831 31.0285 16.9532 31.0086 16.9233C30.9688 16.8636 30.9289 16.8038 30.8891 16.744C30.8493 16.6843 30.8194 16.6345 30.7795 16.5747C30.6301 16.3556 30.4907 16.1265 30.3612 15.8874C30.3213 15.8077 30.2715 15.728 30.2317 15.6483C30.1221 15.4392 30.0125 15.23 29.9229 15.0108C29.8731 14.9013 29.8233 14.7917 29.7735 14.6722C29.7037 14.4929 29.634 14.3136 29.5743 14.1243C29.5244 13.9649 29.4647 13.8056 29.4248 13.6462C29.385 13.5167 29.3551 13.3872 29.3252 13.2577C29.2655 13.0286 29.2157 12.8095 29.1758 12.5804C29.1659 12.5405 29.1659 12.5007 29.1559 12.4608C29.1061 12.162 29.0662 11.8632 29.0463 11.5644C28.1598 11.654 27.4526 12.0026 27.0043 12.2815L27.7912 13.1282C28.0403 13.3772 27.8311 13.8354 27.4825 13.8255C27.3729 13.8255 27.2633 13.7757 27.1737 13.696L26.1278 12.5505C24.4145 10.9567 20.8186 10.2097 18.3284 12.5106C18.1889 12.7397 17.5414 13.9251 17.9698 15.0108C18.0793 15.2798 17.8702 15.5886 17.5813 15.5786C17.412 15.5786 17.2625 15.479 17.1928 15.3196C16.7545 14.204 17.1231 13.0784 17.412 12.4708C16.5752 12.1919 15.4098 11.9628 14.0452 12.162C12.0928 12.4509 10.7082 13.4868 9.94125 14.2438C10.5787 14.4132 11.545 14.7718 12.6506 15.4989C12.9893 15.7081 12.81 16.2759 12.4215 16.256C12.3418 16.256 12.2621 16.236 12.1924 16.1862C10.5389 15.0806 9.19418 14.9212 9.10453 14.9112C4.9309 14.8216 2.16175 18.4075 3.38695 21.9138V21.9337C3.39691 21.9536 3.94476 23.9856 5.72777 24.5634C6.17601 24.6929 6.05648 25.3901 5.59828 25.3702C4.05433 25.0017 3.18773 23.5972 2.80922 22.7704C-0.0993781 25.669 1.28519 30.4005 5.47875 32.313C5.64808 32.3927 5.73773 32.572 5.71781 32.7513C5.3891 35.3112 7.7598 36.1479 10.25 35.5802C10.4293 34.8829 11.0469 33.0302 12.4813 32.4624C12.6905 32.3827 12.9395 32.4823 13.0192 32.6915C13.0989 32.9007 12.9993 33.1497 12.7901 33.2294C11.545 33.7175 11.0668 35.7196 11.0071 35.9786C10.5688 39.953 16.0373 40.1722 21.0975 38.8274C21.2469 38.8274 21.3963 38.9171 21.4661 39.0565C22.6514 41.5169 25.5799 41.1882 26.5063 40.7599C26.576 40.73 26.6557 40.72 26.7354 40.7399C27.7414 41.0188 29.4448 40.481 30.2217 39.3155C29.903 38.9769 29.3551 38.2597 28.5383 36.7655C28.4287 36.5663 28.4985 36.3073 28.6977 36.1978C28.8969 36.0882 29.1559 36.1579 29.2655 36.3571C30.4209 38.4589 30.9887 38.8872 30.9987 38.8972C32.9809 40.1522 35.4811 40.2319 37.3836 39.0964C39.6049 37.7616 40.0731 35.3411 40.1528 34.8729C40.1627 34.7833 40.2125 34.6936 40.2823 34.6239C40.8899 34.0761 41.9557 32.8907 42.3442 31.0479C42.7924 28.9063 42.0254 27.1831 41.6768 26.5356C41.617 26.4161 41.6071 26.2767 41.6668 26.1571C42.5932 24.145 41.4078 22.0134 39.336 21.4556ZM49.1475 14.0745C45.3026 13.6362 41.2784 14.6224 38.5391 15.5686C37.0748 16.0767 36.0887 17.521 36.1584 19.0849C36.1286 19.3438 36.2182 19.6825 36.2481 19.9714C37.3239 20.3897 38.4594 20.6188 39.6248 20.6388C39.6348 20.6388 39.6448 20.6487 39.6547 20.6487C43.7387 20.6587 47.7629 18.0489 49.1475 14.0745ZM29.6838 30.5001C29.4946 30.3706 29.2356 30.4304 29.1061 30.6196C26.9744 33.8669 21.6155 31.8448 21.5657 31.8249C21.0577 31.6356 20.7588 32.4026 21.2668 32.6019C21.3963 32.6517 23.1395 33.319 25.1217 33.319C26.8051 33.319 28.6578 32.8409 29.8034 31.0878C29.9229 30.8786 29.8731 30.6196 29.6838 30.5001ZM8.83558 24.4438C8.60648 24.4538 8.42718 24.653 8.43715 24.8821C8.46703 25.5395 8.40726 26.3962 7.91918 26.7249C7.42113 27.0536 6.59437 26.7647 6.31547 26.6253C5.82738 26.3862 5.45883 27.1233 5.94691 27.3724C5.98675 27.3923 6.62426 27.711 7.3514 27.711C8.79574 27.6812 9.36351 26.5655 9.27386 24.8522C9.25394 24.6132 9.05472 24.4438 8.83558 24.4438ZM22.2629 27.5019C22.2032 27.2827 21.9741 27.1532 21.7549 27.203C20.6094 27.5118 19.8424 28.488 19.4938 29.0259C17.5614 27.9501 15.5194 27.7608 13.7264 28.1593C14.4037 26.0376 17.1032 25.2407 17.133 25.2308C17.651 25.0813 17.4319 24.2845 16.9039 24.4339C16.7545 24.4737 13.328 25.4798 12.81 28.4183C11.4952 28.8765 10.3696 29.6435 9.59261 30.5897C9.37347 30.8487 9.58265 31.277 9.92132 31.2671C10.4791 31.1774 10.9373 29.8925 13.308 29.1056C15.2305 28.478 17.3024 28.7569 19.4539 29.9423C19.5536 29.9921 19.6731 30.012 19.7727 29.9722C20.2209 29.8028 20.4301 28.488 21.9641 27.9999C22.1932 27.9501 22.3227 27.721 22.2629 27.5019ZM12.302 21.2065C12.302 21.9536 12.4514 22.7306 12.8598 23.4278C12.9395 23.5573 13.0789 23.627 13.2184 23.627C13.5272 23.637 13.7463 23.2685 13.577 22.9995C12.3418 20.9177 14.0352 17.7999 14.0551 17.77C14.3141 17.2919 13.5969 16.8935 13.328 17.3716C13.2782 17.4612 12.5709 18.7661 12.3618 20.3399C10.6286 19.553 9.96117 17.4811 9.95121 17.4513C9.88148 17.2321 9.65238 17.1126 9.43324 17.1724C9.2141 17.2421 9.09457 17.4712 9.15433 17.6903C9.16429 17.77 10.0807 20.4495 12.302 21.2065ZM19.0057 35.112C17.2924 37.1938 15.878 36.7157 15.101 34.8132C14.9118 34.3052 14.1348 34.594 14.3241 35.102C14.3141 35.2315 15.36 37.4229 16.894 37.3233C17.7705 37.3233 18.6969 36.7655 19.6332 35.6499C19.7827 35.4706 19.7627 35.2116 19.5834 35.0622C19.4141 34.9128 19.1551 34.9327 19.0057 35.112Z"/>
</mask>
<path d="M34.2758 6.84287L35.5807 6.99228C36.0887 7.05205 36.0389 7.81904 35.5309 7.81904C35.511 7.81904 35.501 7.81904 35.4811 7.81904L34.1762 7.66963C33.6383 7.5999 33.728 6.77314 34.2758 6.84287ZM36.8856 10.13C37.025 10.13 37.1545 10.0603 37.2342 9.95068C37.7522 9.39287 38.2801 8.86494 38.8479 8.32705C39.0172 8.16767 39.0172 7.90869 38.8678 7.73935C38.7084 7.57002 38.4494 7.57002 38.2801 7.71943C37.7024 8.26728 37.1645 8.80517 36.6366 9.37295C36.3278 9.62197 36.4971 10.1399 36.8856 10.13ZM36.0289 5.60771C36.258 5.60771 36.4473 5.41845 36.4473 5.18935V3.53584C36.4473 3.30674 36.258 3.11748 36.0289 3.11748C35.7998 3.11748 35.6106 3.30674 35.6106 3.53584V5.19931C35.6205 5.42841 35.7998 5.60771 36.0289 5.60771ZM37.1844 13.6661C37.8916 13.4769 38.5889 13.188 39.2961 12.9987C39.5153 12.929 39.6448 12.6999 39.575 12.4808C39.5153 12.2616 39.2862 12.1321 39.0571 12.2019C38.3797 12.4011 37.7024 12.6202 37.045 12.8593C36.6067 13.0087 36.7362 13.686 37.1844 13.6661ZM41.1987 12.4808C41.9159 12.3413 42.633 12.172 43.3203 12.0724C43.5494 12.0325 43.6989 11.8233 43.669 11.5942C43.6391 11.3651 43.42 11.2157 43.1909 11.2456C42.5135 11.3552 41.8063 11.4946 41.109 11.654C40.8899 11.7038 40.7504 11.9329 40.8002 12.152C40.8401 12.3513 41.0094 12.4808 41.1987 12.4808ZM45.3424 11.8233C46.0496 11.7735 46.7469 11.7436 47.4342 11.7436C47.6633 11.7237 47.8526 11.5644 47.8526 11.3353C47.8526 11.1061 47.6733 10.9169 47.4442 10.9169C46.7369 10.9069 46.0297 10.9368 45.3125 10.9966C44.7846 11.0364 44.8245 11.8233 45.3424 11.8233ZM35.0926 11.3751C34.6643 12.0624 34.2957 12.8095 33.9969 13.5765C33.9272 13.7558 34.0069 13.955 34.1563 14.0546C34.0866 14.0944 34.0467 14.1144 34.0467 14.1144C33.6582 14.2936 33.8176 14.9112 34.236 14.9013C34.5647 14.8515 34.5547 14.7519 35.4014 14.4132C35.8994 14.194 35.5707 13.437 35.0727 13.6462C34.993 13.686 34.9133 13.7159 34.8336 13.7458C35.1026 13.0784 35.4213 12.431 35.7998 11.8233C36.0787 11.3552 35.3815 10.9169 35.0926 11.3751ZM40.3221 6.83291C40.4217 6.83291 40.5313 6.79306 40.611 6.72334C41.2684 6.13564 41.8362 5.62763 42.3541 5.10966C42.7327 4.72119 42.145 4.14345 41.7664 4.53193C41.2684 5.03994 40.7006 5.54795 40.0432 6.12568C39.7543 6.35478 39.9635 6.85283 40.3221 6.83291ZM33.2797 5.57783C33.3893 5.61767 34.3555 6.10576 34.4651 6.07588C34.8934 6.0958 35.0428 5.44834 34.6344 5.279L33.6284 4.8208C33.4192 4.73115 33.1702 4.8208 33.0805 5.02998C32.9809 5.23916 33.0705 5.47822 33.2797 5.57783ZM18.936 20.0909C18.9858 20.1009 20.1412 20.4595 20.45 22.5214C20.4799 22.7306 20.6592 22.88 20.8584 22.88C21.1075 22.88 21.3067 22.6509 21.2668 22.4019C20.9879 20.5093 20.0616 19.7423 19.5336 19.4534C20.1612 17.3716 22.8307 15.987 22.8606 15.977C23.0698 15.8774 23.1495 15.6185 23.0399 15.4192C22.9403 15.2101 22.6912 15.1304 22.4821 15.2399C22.3426 15.3097 19.1352 16.9632 18.6371 19.6228C18.5973 19.822 18.7268 20.0311 18.936 20.0909ZM38.2403 25.2606C38.2303 25.3005 37.4832 29.6235 35.2121 31.805C34.9432 32.054 35.1424 32.5321 35.501 32.5222C35.6006 32.5222 35.7102 32.4823 35.7899 32.4026C38.2602 30.0319 39.0272 25.5894 39.0571 25.4001C39.1467 24.8622 38.3299 24.7228 38.2403 25.2606ZM26.9645 23.3681C26.0182 20.7085 27.3729 18.2581 27.5323 17.9692C27.8012 17.5011 27.094 17.0827 26.8151 17.5509C25.7293 19.3438 25.4305 21.9536 26.3868 24.1649V24.1749C26.9944 25.5694 28.1 26.8046 29.8432 27.5716C30.2616 27.5915 30.4209 26.964 30.0325 26.7847C29.3252 26.4261 28.0901 25.6192 27.2932 24.1251C31.4071 21.9237 33.8375 24.6829 34.3555 24.7526C34.7241 24.7626 34.9133 24.2745 34.6344 24.0354C34.6145 24.0056 31.2975 21.0472 26.9645 23.3681ZM41.119 21.3958C42.6032 22.5015 43.2407 24.5933 42.5036 26.3265C43.9578 28.986 43.3901 32.9903 40.9496 35.1519C40.4715 38.1102 37.9414 40.5407 34.8237 40.7399C34.5448 41.5866 33.7578 44.4354 34.3754 47.5233C34.7639 49.2466 33.3295 51.0296 31.5565 50.9897C30.6998 50.9897 29.883 50.6112 29.3352 49.9438C27.9805 48.3003 25.8489 45.1327 26.1676 41.7261C25.809 41.8157 25.3209 41.8954 24.783 41.8954C23.3985 41.9751 21.6354 41.0985 20.8983 39.7239C15.35 41.1384 10.3098 40.5606 10.1405 36.4567C7.27172 36.9349 4.70179 35.8192 4.86117 32.9206C0.229333 30.6296 -1.13532 25.0714 2.51039 21.8938C1.32504 17.9792 4.40297 14.0745 8.92523 14.0645C10.758 11.8034 14.7125 10.4288 17.92 11.7536C20.5297 9.44267 24.3946 10.0005 26.4067 11.7038C26.9246 11.3452 27.851 10.8472 29.0364 10.7476C29.0364 10.7376 29.0364 10.7276 29.0364 10.7077C29.3153 2.68916 36.1584 -0.966507 42.0752 0.238766C42.1151 0.238766 42.1549 0.228806 42.2047 0.238766C42.3541 0.268649 42.4936 0.318454 42.643 0.358298C42.7825 0.398141 42.9119 0.437985 43.0514 0.477829C43.1909 0.517673 43.3203 0.557516 43.4598 0.607321C46.8166 1.76279 49.6555 4.60166 50.4623 9.23349C51.3787 15.0706 46.8565 20.7085 41.119 21.3958ZM46.2887 3.23701C45.203 5.77705 43.0614 7.48037 40.9198 9.43271C43.9977 8.75537 46.8864 8.55615 49.5459 8.82509C49.0977 6.66357 47.9323 4.69131 46.2887 3.23701ZM30.2516 13.4569C30.2914 13.5964 30.3313 13.7358 30.3811 13.8753C30.3811 13.8853 30.3911 13.8952 30.3911 13.9151C30.5903 14.4929 30.8493 15.0507 31.1481 15.5786C31.5963 13.0585 32.6123 10.7874 34.1862 8.82509C34.3256 8.6458 34.5946 8.61592 34.7739 8.75537C34.9532 8.89482 34.983 9.16377 34.8436 9.34306C33.1801 11.4249 32.1741 13.8853 31.8453 16.6345C31.8952 16.7042 31.945 16.764 31.9948 16.8237C32.1641 17.0429 32.3334 17.252 32.5227 17.4513C32.5825 17.521 32.6422 17.5808 32.702 17.6405C32.8414 17.78 32.9909 17.9095 33.1303 18.0489C33.1602 17.3317 33.22 16.6245 33.3494 15.9372C33.3893 15.7081 33.6084 15.5587 33.8375 15.6085C34.0666 15.6483 34.216 15.8675 34.1662 16.0966C34.0268 16.8436 33.9571 17.6106 33.9471 18.3876C33.9471 18.4872 33.9073 18.5769 33.8475 18.6466C34.0069 18.7661 34.1563 18.8856 34.3157 18.9952C34.4551 19.0849 34.5946 19.1645 34.734 19.2442C34.8834 19.3339 35.0328 19.4235 35.1823 19.5032C35.242 19.5331 35.3018 19.553 35.3516 19.5829C35.0827 17.521 36.2879 15.4591 38.2602 14.7917C41.1289 13.8155 45.3424 12.7696 49.3866 13.2776C49.3866 13.2776 49.3866 13.2776 49.3866 13.2677C49.5061 12.8294 49.5758 12.3712 49.6356 11.913C49.3467 11.8731 49.0877 11.7735 49.1176 11.4249C49.1475 11.1958 49.3467 11.0364 49.5758 11.0663C49.6157 11.0763 49.6555 11.0763 49.6953 11.0763C49.7153 10.6081 49.7053 10.1399 49.6555 9.67177C46.6075 9.32314 43.2307 9.64189 39.6049 10.6081C39.2065 10.7276 38.8977 10.1897 39.2065 9.91084C41.5971 7.50029 44.4758 5.66748 45.6114 2.69912C45.5516 2.65927 45.4918 2.60947 45.4321 2.56963C45.2528 2.44013 45.0635 2.31064 44.8743 2.20107C44.8643 2.19111 44.8543 2.19111 44.8543 2.18115C44.7049 2.0915 44.5555 2.02177 44.4061 1.94209C44.2467 2.37041 44.0774 2.76884 43.8582 3.14736C43.7785 3.27685 43.6391 3.35654 43.4996 3.35654C43.1909 3.3665 42.9817 2.99795 43.1411 2.73896C43.3502 2.38037 43.5096 1.99189 43.659 1.58349C43.2407 1.4042 42.8123 1.24482 42.3741 1.13525C41.7963 2.68916 40.7703 3.60556 39.1467 5.0499C38.7782 5.37861 38.3996 5.71728 37.9912 6.08584C37.8219 6.24521 37.5629 6.22529 37.4035 6.05595C37.2442 5.88662 37.2641 5.62763 37.4334 5.46826C39.0272 3.99404 40.9198 2.58955 41.5672 0.926071C40.9895 0.826462 40.3918 0.776657 39.7842 0.776657C32.4032 0.896188 28.7077 7.75927 30.2516 13.4569ZM33.9571 40.7399C32.9709 40.6702 31.935 40.3813 30.8991 39.8136C30.1321 41.0886 28.2295 41.756 27.0243 41.6265C26.6258 44.804 28.6778 47.852 29.9727 49.4159C30.7397 50.3921 32.3633 50.4021 33.1303 49.4159C33.5287 48.9378 33.6782 48.3003 33.5586 47.6827C32.951 44.6347 33.6084 41.8755 33.9571 40.7399ZM39.336 21.4556C39.2762 21.4556 39.2264 21.4456 39.1666 21.4456C38.9375 21.4356 38.7084 21.4257 38.4793 21.3958C38.3399 21.3759 38.1905 21.356 38.051 21.336C37.8717 21.3061 37.6924 21.2763 37.5131 21.2464C37.3239 21.2065 37.1346 21.1567 36.9453 21.097C36.8159 21.0571 36.6864 21.0272 36.5569 20.9874C36.2979 20.9077 36.0588 20.8081 35.8098 20.7085C35.75 20.6886 35.6903 20.6686 35.6305 20.6388C35.4612 20.569 35.3018 20.4894 35.1424 20.4097C35.0926 20.3897 35.0428 20.3599 34.983 20.33C34.8735 20.2702 34.7539 20.2204 34.6444 20.1606C33.2299 19.4136 32.0047 18.288 31.0485 17.003C31.0286 16.9831 31.0285 16.9532 31.0086 16.9233C30.9688 16.8636 30.9289 16.8038 30.8891 16.744C30.8493 16.6843 30.8194 16.6345 30.7795 16.5747C30.6301 16.3556 30.4907 16.1265 30.3612 15.8874C30.3213 15.8077 30.2715 15.728 30.2317 15.6483C30.1221 15.4392 30.0125 15.23 29.9229 15.0108C29.8731 14.9013 29.8233 14.7917 29.7735 14.6722C29.7037 14.4929 29.634 14.3136 29.5743 14.1243C29.5244 13.9649 29.4647 13.8056 29.4248 13.6462C29.385 13.5167 29.3551 13.3872 29.3252 13.2577C29.2655 13.0286 29.2157 12.8095 29.1758 12.5804C29.1659 12.5405 29.1659 12.5007 29.1559 12.4608C29.1061 12.162 29.0662 11.8632 29.0463 11.5644C28.1598 11.654 27.4526 12.0026 27.0043 12.2815L27.7912 13.1282C28.0403 13.3772 27.8311 13.8354 27.4825 13.8255C27.3729 13.8255 27.2633 13.7757 27.1737 13.696L26.1278 12.5505C24.4145 10.9567 20.8186 10.2097 18.3284 12.5106C18.1889 12.7397 17.5414 13.9251 17.9698 15.0108C18.0793 15.2798 17.8702 15.5886 17.5813 15.5786C17.412 15.5786 17.2625 15.479 17.1928 15.3196C16.7545 14.204 17.1231 13.0784 17.412 12.4708C16.5752 12.1919 15.4098 11.9628 14.0452 12.162C12.0928 12.4509 10.7082 13.4868 9.94125 14.2438C10.5787 14.4132 11.545 14.7718 12.6506 15.4989C12.9893 15.7081 12.81 16.2759 12.4215 16.256C12.3418 16.256 12.2621 16.236 12.1924 16.1862C10.5389 15.0806 9.19418 14.9212 9.10453 14.9112C4.9309 14.8216 2.16175 18.4075 3.38695 21.9138V21.9337C3.39691 21.9536 3.94476 23.9856 5.72777 24.5634C6.17601 24.6929 6.05648 25.3901 5.59828 25.3702C4.05433 25.0017 3.18773 23.5972 2.80922 22.7704C-0.0993781 25.669 1.28519 30.4005 5.47875 32.313C5.64808 32.3927 5.73773 32.572 5.71781 32.7513C5.3891 35.3112 7.7598 36.1479 10.25 35.5802C10.4293 34.8829 11.0469 33.0302 12.4813 32.4624C12.6905 32.3827 12.9395 32.4823 13.0192 32.6915C13.0989 32.9007 12.9993 33.1497 12.7901 33.2294C11.545 33.7175 11.0668 35.7196 11.0071 35.9786C10.5688 39.953 16.0373 40.1722 21.0975 38.8274C21.2469 38.8274 21.3963 38.9171 21.4661 39.0565C22.6514 41.5169 25.5799 41.1882 26.5063 40.7599C26.576 40.73 26.6557 40.72 26.7354 40.7399C27.7414 41.0188 29.4448 40.481 30.2217 39.3155C29.903 38.9769 29.3551 38.2597 28.5383 36.7655C28.4287 36.5663 28.4985 36.3073 28.6977 36.1978C28.8969 36.0882 29.1559 36.1579 29.2655 36.3571C30.4209 38.4589 30.9887 38.8872 30.9987 38.8972C32.9809 40.1522 35.4811 40.2319 37.3836 39.0964C39.6049 37.7616 40.0731 35.3411 40.1528 34.8729C40.1627 34.7833 40.2125 34.6936 40.2823 34.6239C40.8899 34.0761 41.9557 32.8907 42.3442 31.0479C42.7924 28.9063 42.0254 27.1831 41.6768 26.5356C41.617 26.4161 41.6071 26.2767 41.6668 26.1571C42.5932 24.145 41.4078 22.0134 39.336 21.4556ZM49.1475 14.0745C45.3026 13.6362 41.2784 14.6224 38.5391 15.5686C37.0748 16.0767 36.0887 17.521 36.1584 19.0849C36.1286 19.3438 36.2182 19.6825 36.2481 19.9714C37.3239 20.3897 38.4594 20.6188 39.6248 20.6388C39.6348 20.6388 39.6448 20.6487 39.6547 20.6487C43.7387 20.6587 47.7629 18.0489 49.1475 14.0745ZM29.6838 30.5001C29.4946 30.3706 29.2356 30.4304 29.1061 30.6196C26.9744 33.8669 21.6155 31.8448 21.5657 31.8249C21.0577 31.6356 20.7588 32.4026 21.2668 32.6019C21.3963 32.6517 23.1395 33.319 25.1217 33.319C26.8051 33.319 28.6578 32.8409 29.8034 31.0878C29.9229 30.8786 29.8731 30.6196 29.6838 30.5001ZM8.83558 24.4438C8.60648 24.4538 8.42718 24.653 8.43715 24.8821C8.46703 25.5395 8.40726 26.3962 7.91918 26.7249C7.42113 27.0536 6.59437 26.7647 6.31547 26.6253C5.82738 26.3862 5.45883 27.1233 5.94691 27.3724C5.98675 27.3923 6.62426 27.711 7.3514 27.711C8.79574 27.6812 9.36351 26.5655 9.27386 24.8522C9.25394 24.6132 9.05472 24.4438 8.83558 24.4438ZM22.2629 27.5019C22.2032 27.2827 21.9741 27.1532 21.7549 27.203C20.6094 27.5118 19.8424 28.488 19.4938 29.0259C17.5614 27.9501 15.5194 27.7608 13.7264 28.1593C14.4037 26.0376 17.1032 25.2407 17.133 25.2308C17.651 25.0813 17.4319 24.2845 16.9039 24.4339C16.7545 24.4737 13.328 25.4798 12.81 28.4183C11.4952 28.8765 10.3696 29.6435 9.59261 30.5897C9.37347 30.8487 9.58265 31.277 9.92132 31.2671C10.4791 31.1774 10.9373 29.8925 13.308 29.1056C15.2305 28.478 17.3024 28.7569 19.4539 29.9423C19.5536 29.9921 19.6731 30.012 19.7727 29.9722C20.2209 29.8028 20.4301 28.488 21.9641 27.9999C22.1932 27.9501 22.3227 27.721 22.2629 27.5019ZM12.302 21.2065C12.302 21.9536 12.4514 22.7306 12.8598 23.4278C12.9395 23.5573 13.0789 23.627 13.2184 23.627C13.5272 23.637 13.7463 23.2685 13.577 22.9995C12.3418 20.9177 14.0352 17.7999 14.0551 17.77C14.3141 17.2919 13.5969 16.8935 13.328 17.3716C13.2782 17.4612 12.5709 18.7661 12.3618 20.3399C10.6286 19.553 9.96117 17.4811 9.95121 17.4513C9.88148 17.2321 9.65238 17.1126 9.43324 17.1724C9.2141 17.2421 9.09457 17.4712 9.15433 17.6903C9.16429 17.77 10.0807 20.4495 12.302 21.2065ZM19.0057 35.112C17.2924 37.1938 15.878 36.7157 15.101 34.8132C14.9118 34.3052 14.1348 34.594 14.3241 35.102C14.3141 35.2315 15.36 37.4229 16.894 37.3233C17.7705 37.3233 18.6969 36.7655 19.6332 35.6499C19.7827 35.4706 19.7627 35.2116 19.5834 35.0622C19.4141 34.9128 19.1551 34.9327 19.0057 35.112Z" fill="#134A85"/>
<path d="M34.2758 6.84287L35.5807 6.99228C36.0887 7.05205 36.0389 7.81904 35.5309 7.81904C35.511 7.81904 35.501 7.81904 35.4811 7.81904L34.1762 7.66963C33.6383 7.5999 33.728 6.77314 34.2758 6.84287ZM36.8856 10.13C37.025 10.13 37.1545 10.0603 37.2342 9.95068C37.7522 9.39287 38.2801 8.86494 38.8479 8.32705C39.0172 8.16767 39.0172 7.90869 38.8678 7.73935C38.7084 7.57002 38.4494 7.57002 38.2801 7.71943C37.7024 8.26728 37.1645 8.80517 36.6366 9.37295C36.3278 9.62197 36.4971 10.1399 36.8856 10.13ZM36.0289 5.60771C36.258 5.60771 36.4473 5.41845 36.4473 5.18935V3.53584C36.4473 3.30674 36.258 3.11748 36.0289 3.11748C35.7998 3.11748 35.6106 3.30674 35.6106 3.53584V5.19931C35.6205 5.42841 35.7998 5.60771 36.0289 5.60771ZM37.1844 13.6661C37.8916 13.4769 38.5889 13.188 39.2961 12.9987C39.5153 12.929 39.6448 12.6999 39.575 12.4808C39.5153 12.2616 39.2862 12.1321 39.0571 12.2019C38.3797 12.4011 37.7024 12.6202 37.045 12.8593C36.6067 13.0087 36.7362 13.686 37.1844 13.6661ZM41.1987 12.4808C41.9159 12.3413 42.633 12.172 43.3203 12.0724C43.5494 12.0325 43.6989 11.8233 43.669 11.5942C43.6391 11.3651 43.42 11.2157 43.1909 11.2456C42.5135 11.3552 41.8063 11.4946 41.109 11.654C40.8899 11.7038 40.7504 11.9329 40.8002 12.152C40.8401 12.3513 41.0094 12.4808 41.1987 12.4808ZM45.3424 11.8233C46.0496 11.7735 46.7469 11.7436 47.4342 11.7436C47.6633 11.7237 47.8526 11.5644 47.8526 11.3353C47.8526 11.1061 47.6733 10.9169 47.4442 10.9169C46.7369 10.9069 46.0297 10.9368 45.3125 10.9966C44.7846 11.0364 44.8245 11.8233 45.3424 11.8233ZM35.0926 11.3751C34.6643 12.0624 34.2957 12.8095 33.9969 13.5765C33.9272 13.7558 34.0069 13.955 34.1563 14.0546C34.0866 14.0944 34.0467 14.1144 34.0467 14.1144C33.6582 14.2936 33.8176 14.9112 34.236 14.9013C34.5647 14.8515 34.5547 14.7519 35.4014 14.4132C35.8994 14.194 35.5707 13.437 35.0727 13.6462C34.993 13.686 34.9133 13.7159 34.8336 13.7458C35.1026 13.0784 35.4213 12.431 35.7998 11.8233C36.0787 11.3552 35.3815 10.9169 35.0926 11.3751ZM40.3221 6.83291C40.4217 6.83291 40.5313 6.79306 40.611 6.72334C41.2684 6.13564 41.8362 5.62763 42.3541 5.10966C42.7327 4.72119 42.145 4.14345 41.7664 4.53193C41.2684 5.03994 40.7006 5.54795 40.0432 6.12568C39.7543 6.35478 39.9635 6.85283 40.3221 6.83291ZM33.2797 5.57783C33.3893 5.61767 34.3555 6.10576 34.4651 6.07588C34.8934 6.0958 35.0428 5.44834 34.6344 5.279L33.6284 4.8208C33.4192 4.73115 33.1702 4.8208 33.0805 5.02998C32.9809 5.23916 33.0705 5.47822 33.2797 5.57783ZM18.936 20.0909C18.9858 20.1009 20.1412 20.4595 20.45 22.5214C20.4799 22.7306 20.6592 22.88 20.8584 22.88C21.1075 22.88 21.3067 22.6509 21.2668 22.4019C20.9879 20.5093 20.0616 19.7423 19.5336 19.4534C20.1612 17.3716 22.8307 15.987 22.8606 15.977C23.0698 15.8774 23.1495 15.6185 23.0399 15.4192C22.9403 15.2101 22.6912 15.1304 22.4821 15.2399C22.3426 15.3097 19.1352 16.9632 18.6371 19.6228C18.5973 19.822 18.7268 20.0311 18.936 20.0909ZM38.2403 25.2606C38.2303 25.3005 37.4832 29.6235 35.2121 31.805C34.9432 32.054 35.1424 32.5321 35.501 32.5222C35.6006 32.5222 35.7102 32.4823 35.7899 32.4026C38.2602 30.0319 39.0272 25.5894 39.0571 25.4001C39.1467 24.8622 38.3299 24.7228 38.2403 25.2606ZM26.9645 23.3681C26.0182 20.7085 27.3729 18.2581 27.5323 17.9692C27.8012 17.5011 27.094 17.0827 26.8151 17.5509C25.7293 19.3438 25.4305 21.9536 26.3868 24.1649V24.1749C26.9944 25.5694 28.1 26.8046 29.8432 27.5716C30.2616 27.5915 30.4209 26.964 30.0325 26.7847C29.3252 26.4261 28.0901 25.6192 27.2932 24.1251C31.4071 21.9237 33.8375 24.6829 34.3555 24.7526C34.7241 24.7626 34.9133 24.2745 34.6344 24.0354C34.6145 24.0056 31.2975 21.0472 26.9645 23.3681ZM41.119 21.3958C42.6032 22.5015 43.2407 24.5933 42.5036 26.3265C43.9578 28.986 43.3901 32.9903 40.9496 35.1519C40.4715 38.1102 37.9414 40.5407 34.8237 40.7399C34.5448 41.5866 33.7578 44.4354 34.3754 47.5233C34.7639 49.2466 33.3295 51.0296 31.5565 50.9897C30.6998 50.9897 29.883 50.6112 29.3352 49.9438C27.9805 48.3003 25.8489 45.1327 26.1676 41.7261C25.809 41.8157 25.3209 41.8954 24.783 41.8954C23.3985 41.9751 21.6354 41.0985 20.8983 39.7239C15.35 41.1384 10.3098 40.5606 10.1405 36.4567C7.27172 36.9349 4.70179 35.8192 4.86117 32.9206C0.229333 30.6296 -1.13532 25.0714 2.51039 21.8938C1.32504 17.9792 4.40297 14.0745 8.92523 14.0645C10.758 11.8034 14.7125 10.4288 17.92 11.7536C20.5297 9.44267 24.3946 10.0005 26.4067 11.7038C26.9246 11.3452 27.851 10.8472 29.0364 10.7476C29.0364 10.7376 29.0364 10.7276 29.0364 10.7077C29.3153 2.68916 36.1584 -0.966507 42.0752 0.238766C42.1151 0.238766 42.1549 0.228806 42.2047 0.238766C42.3541 0.268649 42.4936 0.318454 42.643 0.358298C42.7825 0.398141 42.9119 0.437985 43.0514 0.477829C43.1909 0.517673 43.3203 0.557516 43.4598 0.607321C46.8166 1.76279 49.6555 4.60166 50.4623 9.23349C51.3787 15.0706 46.8565 20.7085 41.119 21.3958ZM46.2887 3.23701C45.203 5.77705 43.0614 7.48037 40.9198 9.43271C43.9977 8.75537 46.8864 8.55615 49.5459 8.82509C49.0977 6.66357 47.9323 4.69131 46.2887 3.23701ZM30.2516 13.4569C30.2914 13.5964 30.3313 13.7358 30.3811 13.8753C30.3811 13.8853 30.3911 13.8952 30.3911 13.9151C30.5903 14.4929 30.8493 15.0507 31.1481 15.5786C31.5963 13.0585 32.6123 10.7874 34.1862 8.82509C34.3256 8.6458 34.5946 8.61592 34.7739 8.75537C34.9532 8.89482 34.983 9.16377 34.8436 9.34306C33.1801 11.4249 32.1741 13.8853 31.8453 16.6345C31.8952 16.7042 31.945 16.764 31.9948 16.8237C32.1641 17.0429 32.3334 17.252 32.5227 17.4513C32.5825 17.521 32.6422 17.5808 32.702 17.6405C32.8414 17.78 32.9909 17.9095 33.1303 18.0489C33.1602 17.3317 33.22 16.6245 33.3494 15.9372C33.3893 15.7081 33.6084 15.5587 33.8375 15.6085C34.0666 15.6483 34.216 15.8675 34.1662 16.0966C34.0268 16.8436 33.9571 17.6106 33.9471 18.3876C33.9471 18.4872 33.9073 18.5769 33.8475 18.6466C34.0069 18.7661 34.1563 18.8856 34.3157 18.9952C34.4551 19.0849 34.5946 19.1645 34.734 19.2442C34.8834 19.3339 35.0328 19.4235 35.1823 19.5032C35.242 19.5331 35.3018 19.553 35.3516 19.5829C35.0827 17.521 36.2879 15.4591 38.2602 14.7917C41.1289 13.8155 45.3424 12.7696 49.3866 13.2776C49.3866 13.2776 49.3866 13.2776 49.3866 13.2677C49.5061 12.8294 49.5758 12.3712 49.6356 11.913C49.3467 11.8731 49.0877 11.7735 49.1176 11.4249C49.1475 11.1958 49.3467 11.0364 49.5758 11.0663C49.6157 11.0763 49.6555 11.0763 49.6953 11.0763C49.7153 10.6081 49.7053 10.1399 49.6555 9.67177C46.6075 9.32314 43.2307 9.64189 39.6049 10.6081C39.2065 10.7276 38.8977 10.1897 39.2065 9.91084C41.5971 7.50029 44.4758 5.66748 45.6114 2.69912C45.5516 2.65927 45.4918 2.60947 45.4321 2.56963C45.2528 2.44013 45.0635 2.31064 44.8743 2.20107C44.8643 2.19111 44.8543 2.19111 44.8543 2.18115C44.7049 2.0915 44.5555 2.02177 44.4061 1.94209C44.2467 2.37041 44.0774 2.76884 43.8582 3.14736C43.7785 3.27685 43.6391 3.35654 43.4996 3.35654C43.1909 3.3665 42.9817 2.99795 43.1411 2.73896C43.3502 2.38037 43.5096 1.99189 43.659 1.58349C43.2407 1.4042 42.8123 1.24482 42.3741 1.13525C41.7963 2.68916 40.7703 3.60556 39.1467 5.0499C38.7782 5.37861 38.3996 5.71728 37.9912 6.08584C37.8219 6.24521 37.5629 6.22529 37.4035 6.05595C37.2442 5.88662 37.2641 5.62763 37.4334 5.46826C39.0272 3.99404 40.9198 2.58955 41.5672 0.926071C40.9895 0.826462 40.3918 0.776657 39.7842 0.776657C32.4032 0.896188 28.7077 7.75927 30.2516 13.4569ZM33.9571 40.7399C32.9709 40.6702 31.935 40.3813 30.8991 39.8136C30.1321 41.0886 28.2295 41.756 27.0243 41.6265C26.6258 44.804 28.6778 47.852 29.9727 49.4159C30.7397 50.3921 32.3633 50.4021 33.1303 49.4159C33.5287 48.9378 33.6782 48.3003 33.5586 47.6827C32.951 44.6347 33.6084 41.8755 33.9571 40.7399ZM39.336 21.4556C39.2762 21.4556 39.2264 21.4456 39.1666 21.4456C38.9375 21.4356 38.7084 21.4257 38.4793 21.3958C38.3399 21.3759 38.1905 21.356 38.051 21.336C37.8717 21.3061 37.6924 21.2763 37.5131 21.2464C37.3239 21.2065 37.1346 21.1567 36.9453 21.097C36.8159 21.0571 36.6864 21.0272 36.5569 20.9874C36.2979 20.9077 36.0588 20.8081 35.8098 20.7085C35.75 20.6886 35.6903 20.6686 35.6305 20.6388C35.4612 20.569 35.3018 20.4894 35.1424 20.4097C35.0926 20.3897 35.0428 20.3599 34.983 20.33C34.8735 20.2702 34.7539 20.2204 34.6444 20.1606C33.2299 19.4136 32.0047 18.288 31.0485 17.003C31.0286 16.9831 31.0285 16.9532 31.0086 16.9233C30.9688 16.8636 30.9289 16.8038 30.8891 16.744C30.8493 16.6843 30.8194 16.6345 30.7795 16.5747C30.6301 16.3556 30.4907 16.1265 30.3612 15.8874C30.3213 15.8077 30.2715 15.728 30.2317 15.6483C30.1221 15.4392 30.0125 15.23 29.9229 15.0108C29.8731 14.9013 29.8233 14.7917 29.7735 14.6722C29.7037 14.4929 29.634 14.3136 29.5743 14.1243C29.5244 13.9649 29.4647 13.8056 29.4248 13.6462C29.385 13.5167 29.3551 13.3872 29.3252 13.2577C29.2655 13.0286 29.2157 12.8095 29.1758 12.5804C29.1659 12.5405 29.1659 12.5007 29.1559 12.4608C29.1061 12.162 29.0662 11.8632 29.0463 11.5644C28.1598 11.654 27.4526 12.0026 27.0043 12.2815L27.7912 13.1282C28.0403 13.3772 27.8311 13.8354 27.4825 13.8255C27.3729 13.8255 27.2633 13.7757 27.1737 13.696L26.1278 12.5505C24.4145 10.9567 20.8186 10.2097 18.3284 12.5106C18.1889 12.7397 17.5414 13.9251 17.9698 15.0108C18.0793 15.2798 17.8702 15.5886 17.5813 15.5786C17.412 15.5786 17.2625 15.479 17.1928 15.3196C16.7545 14.204 17.1231 13.0784 17.412 12.4708C16.5752 12.1919 15.4098 11.9628 14.0452 12.162C12.0928 12.4509 10.7082 13.4868 9.94125 14.2438C10.5787 14.4132 11.545 14.7718 12.6506 15.4989C12.9893 15.7081 12.81 16.2759 12.4215 16.256C12.3418 16.256 12.2621 16.236 12.1924 16.1862C10.5389 15.0806 9.19418 14.9212 9.10453 14.9112C4.9309 14.8216 2.16175 18.4075 3.38695 21.9138V21.9337C3.39691 21.9536 3.94476 23.9856 5.72777 24.5634C6.17601 24.6929 6.05648 25.3901 5.59828 25.3702C4.05433 25.0017 3.18773 23.5972 2.80922 22.7704C-0.0993781 25.669 1.28519 30.4005 5.47875 32.313C5.64808 32.3927 5.73773 32.572 5.71781 32.7513C5.3891 35.3112 7.7598 36.1479 10.25 35.5802C10.4293 34.8829 11.0469 33.0302 12.4813 32.4624C12.6905 32.3827 12.9395 32.4823 13.0192 32.6915C13.0989 32.9007 12.9993 33.1497 12.7901 33.2294C11.545 33.7175 11.0668 35.7196 11.0071 35.9786C10.5688 39.953 16.0373 40.1722 21.0975 38.8274C21.2469 38.8274 21.3963 38.9171 21.4661 39.0565C22.6514 41.5169 25.5799 41.1882 26.5063 40.7599C26.576 40.73 26.6557 40.72 26.7354 40.7399C27.7414 41.0188 29.4448 40.481 30.2217 39.3155C29.903 38.9769 29.3551 38.2597 28.5383 36.7655C28.4287 36.5663 28.4985 36.3073 28.6977 36.1978C28.8969 36.0882 29.1559 36.1579 29.2655 36.3571C30.4209 38.4589 30.9887 38.8872 30.9987 38.8972C32.9809 40.1522 35.4811 40.2319 37.3836 39.0964C39.6049 37.7616 40.0731 35.3411 40.1528 34.8729C40.1627 34.7833 40.2125 34.6936 40.2823 34.6239C40.8899 34.0761 41.9557 32.8907 42.3442 31.0479C42.7924 28.9063 42.0254 27.1831 41.6768 26.5356C41.617 26.4161 41.6071 26.2767 41.6668 26.1571C42.5932 24.145 41.4078 22.0134 39.336 21.4556ZM49.1475 14.0745C45.3026 13.6362 41.2784 14.6224 38.5391 15.5686C37.0748 16.0767 36.0887 17.521 36.1584 19.0849C36.1286 19.3438 36.2182 19.6825 36.2481 19.9714C37.3239 20.3897 38.4594 20.6188 39.6248 20.6388C39.6348 20.6388 39.6448 20.6487 39.6547 20.6487C43.7387 20.6587 47.7629 18.0489 49.1475 14.0745ZM29.6838 30.5001C29.4946 30.3706 29.2356 30.4304 29.1061 30.6196C26.9744 33.8669 21.6155 31.8448 21.5657 31.8249C21.0577 31.6356 20.7588 32.4026 21.2668 32.6019C21.3963 32.6517 23.1395 33.319 25.1217 33.319C26.8051 33.319 28.6578 32.8409 29.8034 31.0878C29.9229 30.8786 29.8731 30.6196 29.6838 30.5001ZM8.83558 24.4438C8.60648 24.4538 8.42718 24.653 8.43715 24.8821C8.46703 25.5395 8.40726 26.3962 7.91918 26.7249C7.42113 27.0536 6.59437 26.7647 6.31547 26.6253C5.82738 26.3862 5.45883 27.1233 5.94691 27.3724C5.98675 27.3923 6.62426 27.711 7.3514 27.711C8.79574 27.6812 9.36351 26.5655 9.27386 24.8522C9.25394 24.6132 9.05472 24.4438 8.83558 24.4438ZM22.2629 27.5019C22.2032 27.2827 21.9741 27.1532 21.7549 27.203C20.6094 27.5118 19.8424 28.488 19.4938 29.0259C17.5614 27.9501 15.5194 27.7608 13.7264 28.1593C14.4037 26.0376 17.1032 25.2407 17.133 25.2308C17.651 25.0813 17.4319 24.2845 16.9039 24.4339C16.7545 24.4737 13.328 25.4798 12.81 28.4183C11.4952 28.8765 10.3696 29.6435 9.59261 30.5897C9.37347 30.8487 9.58265 31.277 9.92132 31.2671C10.4791 31.1774 10.9373 29.8925 13.308 29.1056C15.2305 28.478 17.3024 28.7569 19.4539 29.9423C19.5536 29.9921 19.6731 30.012 19.7727 29.9722C20.2209 29.8028 20.4301 28.488 21.9641 27.9999C22.1932 27.9501 22.3227 27.721 22.2629 27.5019ZM12.302 21.2065C12.302 21.9536 12.4514 22.7306 12.8598 23.4278C12.9395 23.5573 13.0789 23.627 13.2184 23.627C13.5272 23.637 13.7463 23.2685 13.577 22.9995C12.3418 20.9177 14.0352 17.7999 14.0551 17.77C14.3141 17.2919 13.5969 16.8935 13.328 17.3716C13.2782 17.4612 12.5709 18.7661 12.3618 20.3399C10.6286 19.553 9.96117 17.4811 9.95121 17.4513C9.88148 17.2321 9.65238 17.1126 9.43324 17.1724C9.2141 17.2421 9.09457 17.4712 9.15433 17.6903C9.16429 17.77 10.0807 20.4495 12.302 21.2065ZM19.0057 35.112C17.2924 37.1938 15.878 36.7157 15.101 34.8132C14.9118 34.3052 14.1348 34.594 14.3241 35.102C14.3141 35.2315 15.36 37.4229 16.894 37.3233C17.7705 37.3233 18.6969 36.7655 19.6332 35.6499C19.7827 35.4706 19.7627 35.2116 19.5834 35.0622C19.4141 34.9128 19.1551 34.9327 19.0057 35.112Z" stroke="#134A85" stroke-width="0.6" mask="url(#path-1-outside-1_3059_12336)"/>
</g>
<defs>
<clipPath id="clip0_3059_12336">
<rect width="51" height="51" fill="white"/>
</clipPath>
</defs>
</svg>
