<svg width="51" height="51" viewBox="0 0 51 51" fill="none" xmlns="http://www.w3.org/2000/svg">
<path d="M34.2757 43.6344C34.6513 43.6344 34.9557 43.33 34.9557 42.9544C34.9557 42.5789 34.6513 42.2744 34.2757 42.2744C33.9001 42.2744 33.5957 42.5789 33.5957 42.9544C33.5957 43.33 33.9001 43.6344 34.2757 43.6344Z" fill="#134A85"/>
<path d="M37.4315 40.234C37.807 40.234 38.1115 39.9296 38.1115 39.554C38.1115 39.1785 37.807 38.874 37.4315 38.874C37.0559 38.874 36.7515 39.1785 36.7515 39.554C36.7515 39.9296 37.0559 40.234 37.4315 40.234Z" fill="#134A85"/>
<path d="M8.7453 14.6917C8.87807 14.8245 9.05215 14.8909 9.22606 14.8909C9.39997 14.8909 9.57405 14.8245 9.70682 14.6917C9.97236 14.4261 9.97236 13.9957 9.70682 13.7302L9.18526 13.2086L9.70682 12.687C9.97236 12.4215 9.97236 11.9911 9.70682 11.7255C9.44128 11.46 9.01084 11.46 8.7453 11.7255L8.22374 12.2471L7.70218 11.7255C7.43664 11.46 7.0062 11.46 6.74066 11.7255C6.47512 11.9911 6.47512 12.4215 6.74066 12.687L7.26222 13.2086L6.74066 13.7302C6.47512 13.9957 6.47512 14.4261 6.74066 14.6917C6.87343 14.8245 7.04751 14.8909 7.22142 14.8909C7.39533 14.8909 7.56941 14.8245 7.70218 14.6917L8.22374 14.1701L8.7453 14.6917Z" fill="#134A85"/>
<path d="M37.4316 5.32715C33.5568 5.32715 30.4045 8.47946 30.4045 12.3539C30.4045 14.0549 31.0128 15.6162 32.0224 16.8333L29.6466 19.7369C29.2317 19.4892 28.7949 19.3399 28.3878 19.2673C29.2193 17.5551 28.9211 14.8643 28.7038 13.5545C28.6771 13.3953 28.6049 13.259 28.5156 13.1359C28.269 12.6875 27.3943 12.3543 26.3441 12.3543C25.1029 12.3543 24.0967 12.8179 24.0967 13.3896C24.0967 13.482 24.1315 13.5701 24.1808 13.6554C24.1733 13.7671 24.1777 13.8802 24.2082 13.9922C24.3828 14.6433 24.4771 15.9346 23.1436 17.2678C22.5964 17.8153 21.7743 18.4906 20.7006 19.2753C19.5546 20.1127 18.6036 21.1637 17.8741 22.3554C17.5073 18.8636 16.3209 16.5475 15.7347 15.5917C15.7085 15.5492 15.6692 15.521 15.6392 15.4828C15.4097 14.858 14.2535 14.6685 13.0286 15.0641C11.7881 15.4646 10.9512 16.3115 11.1591 16.9557C11.1988 17.0784 11.2829 17.1795 11.3866 17.2688C11.4303 17.3436 11.4832 17.4138 11.5473 17.4764C13.8652 19.743 11.9423 25.0477 10.9308 27.3758C10.0647 28.0424 9.39574 28.873 8.94881 29.8801C6.3762 35.6754 11.9071 44.9536 12.1436 45.3458C12.2672 45.55 12.4875 45.6746 12.726 45.6746C19.9889 45.6746 24.9548 43.8471 27.4848 40.2426C29.9863 36.6782 29.3502 32.4512 28.8939 30.609L33.2362 30.6881C33.8225 30.6867 34.3499 30.4832 34.7582 30.0819C35.1665 29.6808 35.3918 29.1441 35.3918 28.5718V27.7127C35.3918 26.7458 34.7417 25.9034 33.8099 25.6641C33.2178 25.5123 32.3139 25.312 31.1709 25.1325C31.5255 23.1918 31.356 21.6874 30.6483 20.662L32.9931 17.7961C34.2042 18.7859 35.7495 19.3814 37.4318 19.3814C41.3066 19.3814 44.4589 16.2291 44.4589 12.3546C44.4589 8.48014 41.3064 5.32715 37.4316 5.32715ZM13.2785 17.5253C13.4438 17.4925 13.6116 17.4512 13.7817 17.3963C14.2079 17.2586 14.5811 17.0663 14.8861 16.8496C15.6324 18.2543 16.7734 21.1133 16.6126 25.2663C16.6117 25.2862 16.6207 25.3033 16.6218 25.3229C16.6131 25.3565 16.6041 25.3902 16.5956 25.424C15.9888 25.5226 15.3819 25.6284 14.7757 25.7464C14.0675 25.8841 13.4173 26.0728 12.8217 26.3087C13.8288 23.5545 14.6396 19.9539 13.2785 17.5253ZM27.9959 29.2317C27.9914 29.2317 27.9873 29.2317 27.9834 29.2317C27.7649 29.2317 27.559 29.3376 27.4309 29.5156C27.3006 29.6972 27.2682 29.9316 27.3431 30.1419C27.3624 30.1947 29.1953 35.4488 26.365 39.4693C24.1456 42.6219 19.6904 44.2502 13.1175 44.3119C12.1773 42.6391 8.15508 35.0159 10.1924 30.43C10.9686 28.6823 12.5982 27.5553 15.036 27.0812C17.1576 26.6681 19.2913 26.3764 21.3765 26.2133C21.751 26.1841 22.0306 25.8567 22.0014 25.4822C21.9722 25.108 21.6342 24.8297 21.2702 24.8573C20.2091 24.9402 19.1357 25.0562 18.0579 25.2032C18.6601 23.2654 19.8606 21.5725 21.5026 20.3728C22.6328 19.5471 23.5081 18.8258 24.1052 18.2293C25.5411 16.7936 25.7258 15.3231 25.6442 14.3684C25.8657 14.4021 26.0981 14.4249 26.3441 14.4249C26.7434 14.4249 27.1128 14.3728 27.4378 14.2889C27.7369 16.5131 27.5919 18.819 26.5895 19.3202C26.2847 19.4725 26.1399 19.8268 26.2502 20.1493C26.3611 20.4716 26.6919 20.6613 27.0271 20.5952C27.0383 20.5935 27.9696 20.4349 28.7698 20.8089L19.905 31.6435C19.6673 31.9344 19.7103 32.3626 20.0012 32.6004C20.1273 32.7036 20.2795 32.7541 20.4308 32.7541C20.628 32.7541 20.8233 32.6691 20.9581 32.5047L26.2259 26.0663C29.2754 26.1248 31.629 26.5477 32.9814 26.8619C32.8715 27.1859 32.8069 27.575 32.8069 27.9941C32.8069 28.5049 32.9056 28.9662 33.063 29.324L27.9959 29.2317ZM29.8246 24.9465C29.0618 24.8576 28.2168 24.7872 27.3074 24.7442L29.7206 21.7947C30.0433 22.5305 30.0778 23.6013 29.8246 24.9465ZM37.4316 18.0207C34.3065 18.0207 31.7645 15.4787 31.7645 12.3539C31.7645 9.22916 34.3065 6.68715 37.4316 6.68715C40.5567 6.68715 43.0988 9.22916 43.0988 12.3539C43.0988 15.4787 40.5566 18.0207 37.4316 18.0207Z" fill="#134A85"/>
<path d="M37.4315 13.8303C37.8073 13.8303 38.1115 13.5258 38.1115 13.1503V9.40266C38.1115 9.02713 37.8073 8.72266 37.4315 8.72266C37.0556 8.72266 36.7515 9.02713 36.7515 9.40266V13.1503C36.7515 13.5258 37.0556 13.8303 37.4315 13.8303Z" fill="#134A85"/>
<path d="M37.432 14.626C37.0245 14.6258 36.694 14.9561 36.6938 15.3638C36.6937 15.7713 37.024 16.1017 37.4316 16.1019C37.8393 16.1021 38.1696 15.7718 38.1698 15.3641C38.1698 14.9566 37.8395 14.626 37.432 14.626Z" fill="#134A85"/>
<path d="M20.4315 34.1135H18.3915V31.3935C18.3915 31.094 18.1957 30.8295 17.9087 30.7428C17.6225 30.6544 17.3117 30.7671 17.1458 31.0163L13.0658 37.1363C12.9271 37.3449 12.9136 37.6131 13.0319 37.8341C13.1503 38.0551 13.3806 38.1933 13.6315 38.1933H15.6715V41.5933C15.6715 41.8992 15.8754 42.1671 16.1703 42.2487C16.2302 42.2654 16.2912 42.2733 16.3515 42.2733C16.586 42.2733 16.8097 42.1518 16.9346 41.9434L21.0146 35.1434C21.1408 34.9333 21.1442 34.6716 21.0233 34.4584C20.9024 34.2453 20.6765 34.1135 20.4315 34.1135ZM17.0315 39.1385V37.5135C17.0315 37.138 16.7274 36.8335 16.3515 36.8335H14.9019L17.0315 33.6394V34.7935C17.0315 35.169 17.3357 35.4735 17.7115 35.4735H19.2303L17.0315 39.1385Z" fill="#134A85"/>
<path d="M40.0303 9.2134C39.8093 9.03065 39.4717 9.19606 39.4717 9.48285V15.2258C39.4717 15.5126 39.8093 15.6778 40.0303 15.4952C40.9344 14.7476 41.5117 13.6193 41.5117 12.3543C41.5117 11.0894 40.9344 9.96106 40.0303 9.2134Z" fill="#134A85"/>
<path d="M34.8329 9.2134C33.9289 9.96106 33.3516 11.0894 33.3516 12.3543C33.3516 13.6193 33.9289 14.7476 34.8329 15.4952C35.0539 15.678 35.3916 15.5126 35.3916 15.2258V9.48285C35.3917 9.19606 35.0539 9.03065 34.8329 9.2134Z" fill="#134A85"/>
</svg>
