<svg width="51" height="51" viewBox="0 0 51 51" fill="none" xmlns="http://www.w3.org/2000/svg">
<path fill-rule="evenodd" clip-rule="evenodd" d="M37.2608 24.7679C37.2608 23.5228 36.437 22.4579 35.2636 22.1322C34.9897 21.6989 34.5973 21.3493 34.1371 21.1271C33.908 19.8392 32.7933 18.881 31.4436 18.881C31.094 18.881 30.7563 18.9487 30.4435 19.0732C30.332 17.7793 29.6915 16.5989 28.6436 15.7891C27.1186 14.6097 26.3127 12.9671 26.3127 11.0387V2.0918C26.3127 1.76209 26.0448 1.49414 25.7151 1.49414H18.4854C18.1557 1.49414 17.8878 1.76209 17.8878 2.0918V11.0377C17.8878 12.9652 17.0819 14.6077 15.5569 15.7871C14.4005 16.6816 13.7381 18.0273 13.7381 19.4786V19.9816C13.7381 22.5546 15.8308 24.6473 18.4038 24.6473C19.863 24.6473 21.2267 23.9541 22.1013 22.8205C22.6382 23.5138 23.3653 24.0487 24.1831 24.3545C24.0227 24.6722 23.9331 25.0269 23.9331 25.3964C23.9331 25.8387 24.0596 26.253 24.2777 26.6067C23.4161 26.9035 22.6571 27.4494 22.0983 28.1775C21.2237 27.0449 19.861 26.3527 18.4028 26.3527C15.8299 26.3527 13.7371 28.4454 13.7371 31.0184V31.5214C13.7371 32.9727 14.4005 34.3184 15.5559 35.2119C17.0809 36.3913 17.8868 38.0338 17.8868 39.9623V48.9082C17.8868 49.2379 18.1547 49.5059 18.4844 49.5059H25.7141C26.0438 49.5059 26.3117 49.2379 26.3117 48.9082V39.9623C26.3117 38.0348 27.1176 36.3923 28.6426 35.2129C29.7991 34.3184 30.4615 32.9727 30.4615 31.5214V31.0184C30.4615 30.8401 30.4495 30.6628 30.4296 30.4854C30.574 30.3639 30.7075 30.2304 30.828 30.084C31.3281 30.4087 31.9168 30.5871 32.5194 30.5871C34.2297 30.5871 35.6212 29.1955 35.6212 27.4852C35.6212 27.4155 35.6192 27.3458 35.6143 27.277C36.5954 26.8497 37.2608 25.8705 37.2608 24.7679ZM22.6441 21.425C22.5465 21.2138 22.3343 21.0783 22.1013 21.0783C21.8682 21.0783 21.656 21.2138 21.5584 21.425C20.9896 22.6562 19.7515 23.452 18.4048 23.452C16.4913 23.452 14.9344 21.8951 14.9344 19.9816V19.4786C14.9344 18.3998 15.4284 17.3988 16.2891 16.7334C18.1169 15.3189 19.0831 13.3496 19.0831 11.0377V2.68945H25.1174V11.0377C25.1174 13.3487 26.0836 15.3189 27.9115 16.7334C28.7731 17.3998 29.2662 18.3998 29.2662 19.4786V19.9627C29.2223 20.0195 29.1795 20.0783 29.1407 20.139C28.6635 19.8153 28.0977 19.639 27.5011 19.639C25.8884 19.639 24.5766 20.9508 24.5766 22.5635C24.5766 22.7996 24.6054 23.0327 24.6602 23.2588C23.7837 22.948 23.0416 22.2856 22.6441 21.425ZM29.2682 31.5214C29.2682 32.6002 28.7741 33.6012 27.9135 34.2666C26.0856 35.6811 25.1194 37.6504 25.1194 39.9623V48.3105H19.0851V39.9623C19.0851 37.6513 18.1189 35.6811 16.291 34.2666C15.4294 33.6002 14.9364 32.6002 14.9364 31.5214V31.0184C14.9364 29.1049 16.4933 27.548 18.4067 27.548C19.7535 27.548 20.9916 28.3438 21.5604 29.575C21.658 29.7862 21.8702 29.9217 22.1033 29.9217C22.3363 29.9217 22.5485 29.7862 22.6461 29.575C23.1561 28.4713 24.1911 27.7203 25.3794 27.5749C25.3475 27.7542 25.3306 27.9354 25.3306 28.1207C25.3306 29.831 26.7221 31.2226 28.4324 31.2226C28.7193 31.2226 29.0002 31.1817 29.2701 31.106V31.5214H29.2682ZM34.8303 26.2789C34.67 26.3108 34.5295 26.4084 34.4419 26.5469C34.3542 26.6854 34.3283 26.8537 34.3692 27.0131C34.408 27.1665 34.4279 27.3258 34.4279 27.4862C34.4279 28.5371 33.5733 29.3927 32.5214 29.3927C31.9885 29.3927 31.4934 29.1776 31.1289 28.7881C30.9934 28.6437 30.7962 28.5749 30.6009 28.6058C30.4057 28.6357 30.2383 28.7612 30.1527 28.9395C29.8379 29.6009 29.1616 30.0272 28.4304 30.0272C27.3796 30.0272 26.5239 29.1726 26.5239 28.1207C26.5239 27.8528 26.5787 27.5928 26.6863 27.3507C26.765 27.1714 26.752 26.9653 26.6504 26.7979C26.5488 26.6306 26.3715 26.524 26.1763 26.512C25.5896 26.4752 25.1294 25.9861 25.1294 25.3974C25.1294 24.9561 25.3904 24.5557 25.7928 24.3764C25.9522 24.3057 26.0737 24.1682 26.1225 23.9999C26.1723 23.8325 26.1454 23.6513 26.0508 23.5048C25.8685 23.2249 25.7729 22.8992 25.7729 22.5645C25.7729 21.6112 26.5488 20.8353 27.5021 20.8353C28.0459 20.8353 28.548 21.0843 28.8787 21.5176C29.0201 21.7029 29.2552 21.7896 29.4823 21.7388C29.7094 21.6889 29.8867 21.5106 29.9375 21.2835C30.0919 20.5833 30.7244 20.0763 31.4426 20.0763C32.2803 20.0763 32.9567 20.7317 32.9836 21.5684C32.9916 21.8234 33.1609 22.0455 33.4039 22.1203C33.8093 22.2458 34.148 22.5366 34.3343 22.9201C34.419 23.0944 34.5833 23.217 34.7746 23.2478C35.5216 23.3704 36.0635 24.0098 36.0635 24.7689C36.0655 25.499 35.5455 26.1345 34.8303 26.2789ZM32.9836 26.7929C32.9836 27.1226 32.7156 27.3906 32.3859 27.3906C32.0562 27.3906 31.7883 27.1226 31.7883 26.7929C31.7883 26.4632 32.0562 26.1953 32.3859 26.1953C32.7156 26.1953 32.9836 26.4622 32.9836 26.7929ZM33.1191 23.7369C33.1191 24.0666 32.8511 24.3346 32.5214 24.3346C32.1917 24.3346 31.9237 24.0666 31.9237 23.7369C31.9237 23.4072 32.1917 23.1393 32.5214 23.1393C32.8511 23.1393 33.1191 23.4062 33.1191 23.7369ZM29.1855 25.7112C29.1855 26.0409 28.9175 26.3088 28.5878 26.3088C28.2581 26.3088 27.9902 26.0409 27.9902 25.7112C27.9902 25.3815 28.2581 25.1135 28.5878 25.1135C28.9175 25.1135 29.1855 25.3815 29.1855 25.7112Z" fill="#134A85"/>
</svg>
