<svg width="51" height="51" viewBox="0 0 51 51" fill="none" xmlns="http://www.w3.org/2000/svg">
<g clip-path="url(#clip0_3020_6647)">
<path d="M42.1267 26.8228C42.2167 27.2167 42.5669 27.4837 42.9546 27.4837C43.5019 27.4837 43.9053 26.9754 43.784 26.4443C42.0285 18.7574 35.624 15.5811 31.2938 2.32735C31.148 1.8809 30.6678 1.63791 30.2219 1.78336C29.7756 1.92913 29.5321 2.40905 29.6779 2.85529C34.0547 16.252 40.4943 19.6754 42.1267 26.8228Z" fill="#134A85"/>
<path d="M13.8586 32.7681L12.8488 34.1356C12.5699 34.5133 12.65 35.0454 13.0277 35.3243C13.4047 35.6026 13.9371 35.5238 14.2163 35.1453L15.2261 33.7778C15.505 33.4001 15.4248 32.868 15.0471 32.5891C14.6694 32.3102 14.1372 32.3904 13.8586 32.7681Z" fill="#134A85"/>
<path d="M25.2145 9.4199C25.4136 9.4199 25.6135 9.35041 25.7748 9.20879L27.0524 8.08735C27.4052 7.77764 27.4401 7.24056 27.1305 6.88782C26.8208 6.53508 26.2837 6.50023 25.931 6.80973L24.6534 7.93106C24.0613 8.45093 24.4374 9.4199 25.2145 9.4199Z" fill="#134A85"/>
<path d="M27.6524 32.6284L26.8494 34.1267C26.6276 34.5406 26.7834 35.0556 27.197 35.2775C27.6124 35.5 28.1268 35.342 28.3478 34.9297L29.1508 33.4314C29.3725 33.0176 29.2168 32.5025 28.8031 32.2807C28.3892 32.0588 27.8742 32.2147 27.6524 32.6284Z" fill="#134A85"/>
<path d="M20.0532 21.2749C20.4508 21.5244 20.9752 21.4048 21.2251 21.0072L22.1295 19.5678C22.3791 19.1703 22.2594 18.6456 21.8618 18.3959C21.4643 18.1463 20.9397 18.2661 20.6899 18.6635L19.7855 20.103C19.536 20.5004 19.6557 21.0251 20.0532 21.2749Z" fill="#134A85"/>
<path d="M30.1414 17.9748C31.9648 18.1828 31.8589 18.173 31.9278 18.173C32.3541 18.173 32.7217 17.8529 32.7711 17.4192C32.8244 16.9528 32.4895 16.5316 32.023 16.4785L30.3339 16.2859C29.8678 16.2325 29.4464 16.5676 29.3932 17.034C29.3401 17.5005 29.6749 17.9215 30.1414 17.9748Z" fill="#134A85"/>
<path d="M27.2682 26.6043C27.5076 27.0106 28.0298 27.1422 28.432 26.9047L29.8962 26.0412C30.3005 25.8028 30.4351 25.2818 30.1965 24.8774C29.9583 24.473 29.4372 24.3384 29.0327 24.577L27.5685 25.4405C27.1641 25.6789 27.0296 26.2 27.2682 26.6043Z" fill="#134A85"/>
<path d="M7.67501 28.6421C7.25321 28.848 7.07833 29.357 7.28424 29.7788L8.0302 31.3063C8.23547 31.7267 8.74375 31.9037 9.16693 31.6971C9.58873 31.4912 9.76361 30.9821 9.55771 30.5603L8.81175 29.0328C8.60584 28.6111 8.09692 28.436 7.67501 28.6421Z" fill="#134A85"/>
<path d="M11.482 21.2093C11.3676 20.754 10.9057 20.4779 10.4504 20.5922L8.80162 21.0068C8.34635 21.1213 8.07011 21.5832 8.18454 22.0384C8.28154 22.4241 8.6278 22.6813 9.00827 22.6813C9.15818 22.6813 9.09571 22.6859 10.8649 22.2408C11.3202 22.1264 11.5964 21.6646 11.482 21.2093Z" fill="#134A85"/>
<path d="M36.1895 24.4145C35.8234 24.7081 35.7646 25.2431 36.0582 25.6093L37.1216 26.9355C37.4144 27.3005 37.9492 27.3612 38.3165 27.0668C38.6826 26.7731 38.7415 26.2382 38.4478 25.872L37.3844 24.5458C37.0908 24.1795 36.556 24.1208 36.1895 24.4145Z" fill="#134A85"/>
<path d="M17.316 11.9868C17.6161 12.3495 18.1523 12.3983 18.5127 12.0997C18.8744 11.8005 18.925 11.2647 18.6256 10.9031L17.5419 9.59337C17.2428 9.23181 16.7069 9.18081 16.3453 9.48043C15.9836 9.77962 15.9329 10.3154 16.2323 10.6771L17.316 11.9868Z" fill="#134A85"/>
<path d="M41.2337 29.7252C35.8535 29.7252 31.6499 34.022 31.4707 39.1399C24.9773 38.9124 20.1481 34.1144 21.5557 25.8653C21.6346 25.4026 21.3235 24.9635 20.8608 24.8846C20.3985 24.8052 19.9589 25.1167 19.88 25.5794C19.1599 29.7996 19.9488 32.8197 21.0883 34.896C15.6338 42.7491 -0.856167 39.5225 2.04405 26.8229C3.67803 19.6689 10.112 16.2643 14.493 2.85532C14.6388 2.40908 14.3953 1.92916 13.949 1.78339C13.5033 1.63784 13.023 1.88103 12.8771 2.32738C8.54647 15.5826 2.14329 18.7536 0.386816 26.4443C-2.85786 40.6516 15.1782 45.0939 22.0841 36.4017C24.3476 39.2673 27.8851 40.7533 31.5607 40.8443C31.595 41.0887 31.6377 41.3327 31.6907 41.5763C31.93 42.6757 33.5907 42.3129 33.3518 41.215C32.2546 36.1718 36.101 31.4251 41.2338 31.4251C45.6816 31.4251 49.3001 35.0437 49.3001 39.4914C49.3001 43.9392 45.6816 47.5577 41.2338 47.5577C38.9951 47.5577 36.9143 46.662 35.3747 45.0355C34.6014 44.2185 33.367 45.3877 34.1402 46.2043C36.0041 48.1732 38.5233 49.2577 41.2338 49.2577C46.619 49.2577 51.0001 44.8766 51.0001 39.4914C51 34.1064 46.6189 29.7252 41.2337 29.7252Z" fill="#134A85"/>
<path d="M37.6111 44.4793C37.8629 44.8737 38.388 44.9917 38.785 44.7383C39.728 44.1363 40.5426 43.4921 41.2336 42.8295C41.9248 43.492 42.7394 44.1363 43.6824 44.7383C44.0784 44.9913 44.6038 44.875 44.8562 44.4793C45.1088 44.0835 44.9928 43.558 44.5972 43.3055C43.7246 42.7484 42.9901 42.1642 42.381 41.5782C45.6942 37.4261 44.1829 34.1104 41.2337 34.1104C38.2755 34.1104 36.7809 37.436 40.0866 41.5782C39.4774 42.1642 38.743 42.7484 37.8704 43.3055C37.4746 43.558 37.3586 44.0836 37.6111 44.4793ZM41.2336 35.8104C43.3868 35.8104 42.5461 38.5475 41.2336 40.2922C39.9217 38.5482 39.0881 35.8104 41.2336 35.8104Z" fill="#134A85"/>
</g>
<defs>
<clipPath id="clip0_3020_6647">
<rect width="51" height="51" fill="white"/>
</clipPath>
</defs>
</svg>
