<svg width="51" height="51" viewBox="0 0 51 51" fill="none" xmlns="http://www.w3.org/2000/svg">
<path d="M24.7059 16.7779C23.3949 16.7779 22.3284 17.8444 22.3284 19.1553C22.3284 20.4663 23.3949 21.5328 24.7059 21.5328C26.0168 21.5328 27.0834 20.4663 27.0834 19.1553C27.0834 17.8444 26.0168 16.7779 24.7059 16.7779ZM24.7059 20.1379C24.1641 20.1379 23.7233 19.6971 23.7233 19.1553C23.7233 18.6136 24.1641 18.1728 24.7059 18.1728C25.2477 18.1728 25.6884 18.6136 25.6884 19.1553C25.6884 19.6971 25.2477 20.1379 24.7059 20.1379ZM30.2693 21.3589L30.2318 19.1553L30.27 16.9167C31.8074 16.4877 32.9277 15.0928 32.9648 13.4504C32.9735 13.0654 32.6683 12.7462 32.2832 12.7375C32.2778 12.7375 32.2726 12.7373 32.2672 12.7373C31.8893 12.7373 31.5788 13.0393 31.5703 13.4191C31.5459 14.5031 30.762 15.4139 29.7147 15.6161L27.4689 14.3695L25.0648 12.9271C24.844 12.7946 24.5679 12.7946 24.3471 12.9271L21.9431 14.3694L19.4887 15.7303C19.4851 15.7323 19.482 15.7349 19.4785 15.7368C19.4722 15.7404 19.4657 15.7434 19.4596 15.7473C17.7634 16.7978 15.5726 16.6734 14.0072 15.4368C12.4412 14.2021 11.8109 12.1003 12.4388 10.2067C12.5601 9.84107 12.362 9.44641 11.9964 9.32519C11.6307 9.20347 11.2361 9.40209 11.1149 9.76755C10.3028 12.2167 11.118 14.9351 13.1431 16.5316C14.2513 17.407 15.6019 17.8515 16.9575 17.8514C17.6997 17.8514 18.4433 17.7172 19.1493 17.4485L19.1801 19.1551L19.1344 21.6937C18.2554 22.5884 17.049 23.0969 15.7864 23.0969C14.4386 23.0969 13.1554 22.519 12.2657 21.5116C12.0108 21.223 11.5701 21.1954 11.2813 21.4504C10.9926 21.7053 10.9652 22.146 11.2202 22.4348C12.3744 23.7421 14.0387 24.4918 15.7864 24.4918C17.342 24.4918 18.8311 23.8952 19.9538 22.8405L21.9432 23.9411L24.3466 25.3859C24.4572 25.4523 24.5815 25.4856 24.7059 25.4856C24.7352 25.4856 24.7646 25.4834 24.7936 25.4797C25.4402 26.079 25.8422 26.9089 25.905 27.7927C25.9752 28.7508 25.6416 29.7052 24.9898 30.4111C24.7284 30.6941 24.746 31.1354 25.029 31.3966C25.1631 31.5204 25.3328 31.5817 25.502 31.5817C25.6898 31.5817 25.8771 31.5062 26.0146 31.3574C26.9275 30.369 27.3945 29.0324 27.2962 27.6923C27.2195 26.6114 26.7794 25.5865 26.0645 24.7852L27.4689 23.9409L29.7347 22.686C30.9351 22.8196 31.9421 23.704 32.2175 24.8937C32.5052 26.144 31.9212 27.4467 30.7976 28.0617C30.4596 28.2466 30.3357 28.6704 30.5207 29.0083C30.6474 29.2399 30.8865 29.3711 31.133 29.3711C31.2462 29.3711 31.361 29.3435 31.4672 29.2853C33.1363 28.3719 34.0038 26.4374 33.5766 24.5803C33.1968 22.9398 31.8818 21.6893 30.2693 21.3589ZM28.8777 21.5662L26.7822 22.7268C26.775 22.7308 26.7678 22.735 26.7607 22.7392L24.7059 23.9745L22.6511 22.7392C22.6439 22.7349 22.6366 22.7307 22.6293 22.7266L20.5316 21.5662L20.5748 19.1679C20.575 19.1595 20.575 19.1512 20.5748 19.1428L20.5316 16.7468L22.6297 15.5834C22.6367 15.5797 22.6437 15.5757 22.6505 15.5716L24.7058 14.3383L26.7611 15.5716C26.7678 15.5756 26.7747 15.5796 26.7816 15.5833L28.8776 16.7468L28.8368 19.1435V19.1672L28.8776 21.5662H28.8777ZM48.8105 18.8173C49.1057 17.3379 48.8052 15.7882 47.9688 14.5231C47.1692 13.3177 45.9389 12.4598 44.5426 12.1186C44.2031 10.8045 43.3566 9.68558 42.1667 9.00106C41.0117 8.33826 39.6705 8.15777 38.4042 8.4798C37.1485 6.27784 35.0812 4.59763 32.65 3.82486C30.2382 3.06125 27.6001 3.23637 25.3139 4.29412C24.2241 2.79898 22.3719 2.04982 20.5084 2.40433C18.645 2.76282 17.1995 4.1456 16.7402 5.93897C14.2966 5.81804 11.8914 6.53603 9.90404 7.98863C7.8727 9.47341 6.44092 11.6076 5.83519 14.0371C4.11245 14.3954 2.64451 15.5168 1.84674 17.1093C1.03492 18.73 1.03253 20.6164 1.82363 22.2318C0.156763 25.4147 0.785497 29.3256 3.3607 31.8257C2.98318 33.6746 4.47264 35.7699 7.89113 38.2012C5.65092 41.0392 4.50959 44.555 4.66488 48.1861C4.68082 48.5592 4.98812 48.8537 5.36165 48.8537H9.964C10.3131 48.8537 10.6085 48.5955 10.6551 48.2496C10.9297 46.2169 12.3399 44.6052 14.9659 43.3239C18.112 42.5284 20.3268 39.8064 20.5246 36.6347C21.1621 36.8115 21.7704 36.9859 22.3648 37.1563C25.9188 38.1752 28.7258 38.9803 31.6103 38.4071C34.0776 37.9154 36.1705 36.3296 37.3144 34.1158C39.1615 34.53 41.0743 34.4378 42.883 33.8433C44.8797 33.1868 46.6154 31.9618 47.902 30.301C50.4842 26.9723 50.8296 22.4941 48.8105 18.8174V18.8173ZM46.7995 29.4464C44.8005 32.0267 41.6467 33.3055 38.4854 32.9063C39.325 31.9007 39.6812 30.533 39.3734 29.2052C38.9434 27.3474 37.315 25.9888 35.4138 25.9015C35.0313 25.8863 34.7029 26.1814 34.6852 26.5662C34.6674 26.9509 34.9651 27.2772 35.3498 27.2948C36.6291 27.3536 37.7248 28.2685 38.0146 29.52C38.3043 30.7696 37.7206 32.0717 36.5949 32.6865C36.5924 32.6879 36.5902 32.6895 36.5877 32.6909C36.5734 32.6989 36.5594 32.7076 36.5458 32.7167C36.5405 32.72 36.5351 32.7233 36.53 32.7269C36.5157 32.7369 36.5019 32.7476 36.4884 32.7587C36.4846 32.7618 36.4805 32.7647 36.4767 32.7679C36.4599 32.7822 36.4437 32.7972 36.4282 32.8133C36.4266 32.815 36.4252 32.8168 36.4236 32.8185C36.4103 32.8325 36.3973 32.8471 36.3851 32.8624C36.3797 32.8692 36.3749 32.8763 36.3698 32.8832C36.3619 32.8938 36.354 32.9041 36.3468 32.9152C36.3412 32.9237 36.3363 32.9327 36.331 32.9415C36.325 32.9514 36.319 32.9613 36.3136 32.9717C36.3084 32.9814 36.3039 32.9914 36.2992 33.0013C36.2955 33.0091 36.2915 33.0165 36.2881 33.0243C35.4016 35.0972 33.551 36.598 31.3383 37.0391C28.7861 37.546 26.2539 36.8203 22.7494 35.8155C21.8991 35.5717 21.0198 35.3197 20.064 35.0629C19.8464 34.9626 19.6268 34.8627 19.4052 34.7625C17.9271 34.0936 16.3987 33.4018 15.3648 32.3678C15.0925 32.0955 14.6508 32.0955 14.3785 32.3678C14.1062 32.6402 14.1062 33.0818 14.3785 33.3542C15.5921 34.5678 17.2383 35.3128 18.8301 36.0332C18.9353 36.0809 19.0384 36.1284 19.1429 36.1758C19.1398 38.925 17.2696 41.3317 14.5636 41.9865C14.5157 41.9981 14.469 42.0147 14.4245 42.0361C11.5963 43.4001 9.90354 45.2221 9.38358 47.4586H6.04587C6.0635 44.1673 7.25493 41.0159 9.43846 38.5211C9.57015 38.3706 9.63101 38.1709 9.60541 37.9725C9.57981 37.7743 9.47044 37.5965 9.30479 37.4844C5.84147 35.1381 4.28408 33.1918 4.80075 31.8558C4.90674 31.5818 4.82954 31.2707 4.60781 31.0779C2.16349 28.9532 1.57928 25.3841 3.21856 22.5915C3.34566 22.3749 3.34655 22.1068 3.22085 21.8893C2.47985 20.6078 2.43224 19.0543 3.09375 17.7337C3.75625 16.4114 5.02776 15.5169 6.49501 15.3411C6.79383 15.3053 7.03608 15.0817 7.09565 14.7868C8.05579 10.0335 12.4141 6.849 17.2349 7.37663C17.6172 7.41837 17.9608 7.14364 18.004 6.76164C18.1737 5.26033 19.2859 4.05964 20.7705 3.77406C22.2552 3.49127 23.7315 4.19551 24.4448 5.52678C24.4808 5.59492 24.5291 5.65747 24.5885 5.71236C24.5991 5.72232 24.6097 5.73238 24.621 5.74164C24.6214 5.74194 24.6217 5.74234 24.6222 5.74264C25.3694 6.34876 25.8369 7.24574 25.905 8.20558C25.9752 9.16372 25.6416 10.118 24.9898 10.8239C24.7284 11.1069 24.746 11.5482 25.029 11.8094C25.1631 11.9333 25.3328 11.9945 25.502 11.9945C25.6898 11.9945 25.8771 11.919 26.0146 11.7702C26.9275 10.7818 27.3945 9.44532 27.2962 8.10517C27.2262 7.11765 26.8523 6.17713 26.2432 5.41084C28.1334 4.63319 30.2673 4.53348 32.2283 5.15415C34.4911 5.87362 36.3892 7.50463 37.4358 9.6289C37.4383 9.63408 37.4414 9.63886 37.444 9.64394C37.4502 9.65569 37.4564 9.66725 37.4633 9.6787C37.469 9.68836 37.4753 9.69763 37.4815 9.70689C37.4875 9.71586 37.4932 9.72472 37.4997 9.73349C37.5084 9.74534 37.5177 9.7566 37.5271 9.76785C37.531 9.77253 37.5344 9.77752 37.5385 9.7821C38.3004 10.6455 38.3002 11.9496 37.5379 12.8156C37.2834 13.1047 37.3116 13.5453 37.6006 13.7999C37.7331 13.9166 37.8974 13.9739 38.0611 13.9739C38.2546 13.9739 38.4471 13.8938 38.585 13.7372C39.5688 12.6195 39.7617 11.0476 39.1656 9.75241C39.9541 9.64792 40.7614 9.80272 41.4717 10.2102C42.4373 10.7657 43.0911 11.7172 43.2654 12.8206C43.3128 13.12 43.548 13.3545 43.8475 13.4009C45.0539 13.5878 46.1324 14.2779 46.8059 15.2931C47.4789 16.311 47.6935 17.573 47.3949 18.7556C47.3502 18.9326 47.3766 19.1201 47.4686 19.2779C49.3508 22.5045 49.0885 26.4957 46.7996 29.4462L46.7995 29.4464Z" fill="#134A85"/>
</svg>
