<svg width="51" height="51" viewBox="0 0 51 51" fill="none" xmlns="http://www.w3.org/2000/svg">
<path d="M7.18752 37.3715L7.18791 37.3713C8.79431 36.3397 10.7727 35.7822 13.0676 35.7162M7.18752 37.3715L13.0705 35.8161M7.18752 37.3715C4.71452 38.9761 3.11974 41.4194 2.45929 44.6336C2.40681 44.8884 2.38437 45.1356 2.38437 45.3823C2.38437 47.4646 4.10653 49.1543 6.22195 49.1543C7.99356 49.1543 9.52092 47.9728 9.93282 46.2802L9.93285 46.2801C10.3141 44.7046 11.1169 43.5282 12.2401 42.8599C13.392 42.1774 14.8492 42.038 16.4689 42.4699C17.2427 42.6777 18.0343 43.0511 18.9532 43.6588L18.9533 43.6589C24.4646 47.299 29.631 48.3663 34.7513 46.8918L34.7514 46.8919L34.7561 46.8903C39.7188 45.191 43.3943 42.5859 45.8079 39.0215C48.2211 35.4575 49.3661 30.9441 49.2858 25.4398L49.2858 25.4397C49.2127 20.8808 48.2848 16.7568 46.5288 13.1863C45.0298 10.1371 43.2165 8.01075 41.1 6.83003C38.981 5.6479 36.5693 5.41987 33.8888 6.14692L33.8885 6.14698C32.5717 6.50745 31.2654 7.13202 29.773 8.10495L29.7728 8.10514C27.7867 9.40984 26.1011 9.80602 24.7528 9.34726C23.2536 8.83096 22 7.20861 21.0482 4.45491L21.048 4.45429M7.18752 37.3715L21.048 4.45429M13.0676 35.7162L13.0705 35.8161M13.0676 35.7162C13.0676 35.7162 13.0675 35.7162 13.0675 35.7162L13.0705 35.8161M13.0676 35.7162C16.2939 35.6182 18.773 34.8872 20.5409 33.5168C22.3065 32.1481 23.3747 30.1322 23.7617 27.438M13.0705 35.8161C19.5475 35.6194 23.0811 32.88 23.8607 27.4521M23.7617 27.438L23.8607 27.4521M23.7617 27.438C24.0799 25.2103 23.8412 22.932 23.0747 20.8421M23.7617 27.438C23.7617 27.438 23.7617 27.438 23.7617 27.4379L23.8607 27.4521M23.8607 27.4521L23.0747 20.8421M23.0747 20.8421C23.0746 20.842 23.0746 20.842 23.0746 20.842L23.1685 20.8076L23.0747 20.8421ZM21.048 4.45429C20.7789 3.69207 20.293 3.04154 19.6426 2.57058C18.9915 2.09911 18.2205 1.85215 17.4201 1.85215C16.1789 1.85215 15.0415 2.42825 14.3086 3.43022L21.048 4.45429ZM18.5911 14.3388L18.6587 14.265L18.5911 14.3387C18.5911 14.3387 18.5911 14.3388 18.5911 14.3388ZM15.0453 3.97127L15.0455 3.97104C15.6023 3.20992 16.4611 2.77343 17.4055 2.77343C18.0112 2.77343 18.5881 2.95631 19.0882 3.31548C19.5816 3.67506 19.9553 4.17555 20.1598 4.75364C21.205 7.78681 22.6039 9.58698 24.4403 10.2141L24.4407 10.2142C26.0998 10.7747 28.0637 10.3129 30.2686 8.86982L30.2687 8.86975C31.6834 7.94112 32.905 7.3564 34.1234 7.02478C36.6053 6.35285 38.7831 6.55513 40.6933 7.63642C42.6065 8.71942 44.2633 10.691 45.6864 13.5806C47.3838 17.0334 48.2773 21.0183 48.35 25.4427C48.4263 30.7395 47.3254 35.0638 45.0248 38.4677C42.7249 41.8705 39.2193 44.3633 34.4678 45.9863C29.6514 47.3668 24.7424 46.3576 19.4569 42.8654C18.4599 42.2056 17.5831 41.7849 16.7104 41.5482L16.71 41.5481C14.8609 41.0545 13.1492 41.2217 11.7665 42.0395L11.7663 42.0396C10.4128 42.8428 9.46659 44.2306 9.0317 46.0438L9.03163 46.0442C8.72937 47.3234 7.57607 48.2184 6.22923 48.2184C4.62123 48.2184 3.32023 46.9424 3.32023 45.375C3.32023 45.186 3.3412 44.9959 3.37665 44.8041C3.99136 41.8401 5.44215 39.5993 7.6968 38.1369C9.15742 37.2016 10.9748 36.6952 13.1027 36.6301C16.5147 36.524 19.2027 35.7119 21.1437 34.1928C23.0866 32.6722 24.27 30.4521 24.6882 27.5539L24.6882 27.5536C25.0257 25.1768 24.769 22.7413 23.9472 20.5107L23.9472 20.5107C23.0085 17.9661 21.4178 15.658 19.2071 13.6303L19.2061 13.6294C18.799 13.266 18.3871 12.8828 18.0265 12.4863C16.4692 10.7115 15.3252 8.69824 14.6228 6.51876L14.6228 6.51873C14.3414 5.64637 14.4958 4.71807 15.0453 3.97127Z" fill="#134A85" stroke="#134A85" stroke-width="0.2"/>
<path d="M20.8184 40.8103L20.818 40.81C20.8034 40.8003 20.7914 40.7907 20.7826 40.7837L20.7818 40.7831C20.7727 40.7757 20.7668 40.7711 20.7602 40.7667C20.1914 40.3974 19.8395 39.7301 19.8701 39.0105M20.8184 40.8103L21.0337 37.3317M20.8184 40.8103C24.1878 43.0322 27.2886 44.12 30.2793 44.12C31.4037 44.12 32.5569 43.9583 33.7241 43.6206L33.7241 43.6207L33.7289 43.6191C37.9873 42.1497 41.0607 40.0149 43.0505 37.0394C45.0398 34.0646 45.9381 30.2612 45.8687 25.4691C45.8541 24.4603 45.7883 23.4516 45.6787 22.4795L45.6787 22.4795L45.6783 22.4765C45.6602 22.35 45.5966 22.2395 45.5033 22.1649L45.5028 22.1644C44.0046 20.9844 42.3136 20.6055 40.5522 20.6212C38.7939 20.6368 36.9582 21.0457 35.1681 21.4459L35.168 21.446C32.598 22.0228 29.9691 22.6059 27.6053 22.0798L27.6053 22.0797L27.602 22.0791C27.4539 22.0513 27.2983 22.0974 27.1882 22.1984L27.1881 22.1983L27.185 22.2014C27.0774 22.309 27.0197 22.4649 27.048 22.6175M20.8184 40.8103L20.8734 40.7268C24.2322 42.9417 27.314 44.02 30.2793 44.02C31.394 44.02 32.5379 43.8597 33.6963 43.5245C42.1842 40.5957 45.9072 35.0294 45.7687 25.4705C45.7542 24.4651 45.6886 23.4597 45.5793 22.4907C45.5647 22.3887 45.5137 22.3012 45.4409 22.243C42.4902 19.9188 38.7744 20.7421 35.1899 21.5435C32.6253 22.1191 29.9733 22.7092 27.5836 22.1774C27.467 22.1555 27.3432 22.192 27.2557 22.2721C27.1683 22.3595 27.1246 22.4834 27.1464 22.6M19.8701 39.0105C19.9008 38.2603 20.3222 37.6025 20.9859 37.2438M19.8701 39.0105C19.8701 39.0105 19.8701 39.0106 19.8701 39.0106L19.97 39.0147L19.8701 39.0104C19.8701 39.0105 19.8701 39.0105 19.8701 39.0105ZM20.9859 37.2438C20.986 37.2438 20.9861 37.2437 20.9862 37.2437L21.0337 37.3317M20.9859 37.2438C20.9859 37.2438 20.9859 37.2438 20.9859 37.2438L21.0337 37.3317M20.9859 37.2438C25.2967 34.8971 26.7 30.8753 27.113 27.9048L27.1131 27.9038C27.3737 26.1518 27.3449 24.3704 27.048 22.6175M21.0337 37.3317C25.3833 34.9638 26.7967 30.9057 27.212 27.9185C27.4743 26.1554 27.4452 24.3631 27.1464 22.6M27.048 22.6175C27.048 22.6178 27.0481 22.6181 27.0482 22.6184L27.1464 22.6M27.048 22.6175C27.0479 22.6172 27.0479 22.6169 27.0479 22.6167L27.1464 22.6M21.4313 38.0606L21.4307 38.061C21.0532 38.2632 20.8189 38.6323 20.7985 39.0479C20.7853 39.4431 20.9654 39.7952 21.2989 40.0087L21.3005 40.0097C21.3016 40.0105 21.3027 40.0112 21.3039 40.012C21.3203 40.0229 21.3484 40.0415 21.3723 40.0696C24.562 42.1693 27.482 43.1914 30.272 43.1914C31.3105 43.1914 32.3788 43.0401 33.448 42.7441C37.4938 41.3467 40.3955 39.3199 42.2713 36.5066C44.148 33.692 45.0055 30.0785 44.9402 25.494L21.4313 38.0606ZM21.4313 38.0606C26.0815 35.5262 27.5927 31.2064 28.0323 28.042M21.4313 38.0606L28.0323 28.042M28.0323 28.042C28.2748 26.4084 28.2881 24.7608 28.0654 23.1195C30.4521 23.4611 32.9583 22.9051 35.3721 22.3624L35.4175 22.3523C37.1669 21.9656 38.8568 21.592 40.4387 21.5579C42.0171 21.5239 43.4798 21.8284 44.7777 22.7923C44.8694 23.672 44.9259 24.5794 44.9402 25.4938L28.0323 28.042Z" fill="#134A85" stroke="#134A85" stroke-width="0.2"/>
<path d="M28.6764 35.0642C29.1761 35.0642 29.5779 34.6624 29.5779 34.1628C29.5779 33.671 29.1767 33.2613 28.6764 33.2613C28.1768 33.2613 27.775 33.6631 27.775 34.1628C27.775 34.6545 28.1762 35.0642 28.6764 35.0642Z" fill="#134A85" stroke="#134A85" stroke-width="0.2"/>
<path d="M37.944 39.0711C38.4437 39.0711 38.8454 38.6694 38.8454 38.1697L37.944 37.3683V37.2683C37.9437 37.2683 37.9435 37.2683 37.9432 37.2683C37.4433 37.2687 37.0426 37.6782 37.0426 38.1697C37.0426 38.6615 37.4438 39.0711 37.944 39.0711Z" fill="#134A85" stroke="#134A85" stroke-width="0.2"/>
<path d="M30.3669 39.159C30.9113 39.159 31.3485 38.7124 31.3485 38.1701C31.3485 37.6273 30.9035 37.1812 30.3669 37.1812C29.8157 37.1812 29.378 37.6273 29.378 38.1701C29.378 38.7129 29.8157 39.159 30.3669 39.159Z" fill="#134A85" stroke="#134A85" stroke-width="0.2"/>
<path d="M33.6231 37.4692C34.3865 37.4692 34.9981 36.8401 34.9981 36.0796C34.9981 35.3188 34.3788 34.69 33.6231 34.69C32.8458 34.69 32.2335 35.3184 32.2335 36.0796C32.2335 36.8412 32.8535 37.4692 33.6231 37.4692Z" fill="#134A85" stroke="#134A85" stroke-width="0.2"/>
<path d="M31.882 27.9392C32.3817 27.9392 32.7834 27.5374 32.7834 27.0378C32.7834 26.5381 32.3817 26.1363 31.882 26.1363C31.3817 26.1363 30.9806 26.546 30.9806 27.0378C30.9806 27.5295 31.3817 27.9392 31.882 27.9392Z" fill="#134A85" stroke="#134A85" stroke-width="0.2"/>
<path d="M38.3883 33.5486C38.888 33.5486 39.2898 33.1468 39.2898 32.6471C39.2898 32.1554 38.8886 31.7457 38.3883 31.7457C37.8887 31.7457 37.4869 32.1475 37.4869 32.6471C37.4869 33.1389 37.8881 33.5486 38.3883 33.5486Z" fill="#134A85" stroke="#134A85" stroke-width="0.2"/>
<path d="M40.3552 30.3943C40.8996 30.3943 41.3367 29.9478 41.3367 29.4055C41.3367 28.8626 40.8918 28.4166 40.3552 28.4166C39.804 28.4166 39.3663 28.8626 39.3663 29.4055C39.3663 29.9483 39.804 30.3943 40.3552 30.3943Z" fill="#134A85" stroke="#134A85" stroke-width="0.2"/>
<path d="M33.5739 30.0484L33.5739 30.0484H33.5725C33.0213 30.0484 32.5836 30.4945 32.5836 31.0373C32.5836 31.5801 33.0213 32.0262 33.5725 32.0262C34.1169 32.0262 34.554 31.5796 34.554 31.0373C34.554 30.5015 34.1164 30.0565 33.5739 30.0484Z" fill="#134A85" stroke="#134A85" stroke-width="0.2"/>
<path d="M36.8302 26.1285V26.1285H36.8291C36.0519 26.1285 35.4396 26.7569 35.4396 27.5181C35.4396 28.2797 36.0595 28.9077 36.8291 28.9077C37.5925 28.9077 38.2041 28.2785 38.2041 27.5181C38.2041 26.7563 37.5842 26.1364 36.8302 26.1285Z" fill="#134A85" stroke="#134A85" stroke-width="0.2"/>
<path d="M10.0526 21.5656L10.0524 21.5651L8.55885 16.4578L8.55877 16.4575C8.30304 15.5741 8.80689 14.652 9.68996 14.3886L9.69073 14.3884L9.69074 14.3884C10.5742 14.1326 11.4963 14.6365 11.7597 15.5196L11.7598 15.5201L12.827 19.17L16.4457 18.459C17.2674 18.2962 18.0891 18.7765 18.3453 19.5755C18.3453 19.5756 18.3453 19.5757 18.3453 19.5758L20.3486 25.6803C20.3487 25.6804 20.3487 25.6804 20.3487 25.6805L20.3487 25.6805L10.0526 21.5656ZM10.0526 21.5656C10.3003 22.3939 11.1219 22.8984 11.9747 22.7279C11.9748 22.7279 11.9748 22.7279 11.9749 22.7279L15.6399 22.0091L17.186 26.719L10.0526 21.5656ZM18.0612 26.4242L18.061 26.4238L16.3929 21.3249C16.3353 21.1347 16.1488 21.0071 15.9551 21.0071C15.9335 21.0071 15.9142 21.0108 15.9 21.0136C15.8959 21.0144 15.892 21.0152 15.8882 21.016C15.877 21.0183 15.8659 21.0206 15.8512 21.0231L15.8512 21.023L15.8485 21.0236L11.7766 21.8175C11.7765 21.8176 11.7764 21.8176 11.7762 21.8176C11.3977 21.888 11.0387 21.6641 10.9292 21.2974C10.9291 21.2973 10.9291 21.2972 10.9291 21.2971L9.43566 16.1903L9.4356 16.1901C9.32017 15.7989 9.54451 15.3882 9.93606 15.2725C10.3346 15.1569 10.7382 15.3814 10.8539 15.773C10.8539 15.7731 10.8539 15.7731 10.8539 15.7731L12.0414 19.8238L12.0414 19.8238L12.0422 19.8262C12.1154 20.055 12.3456 20.1955 12.5794 20.1488C12.5795 20.1488 12.5795 20.1488 12.5796 20.1488L16.6154 19.362L16.6154 19.362L16.6169 19.3617C16.9801 19.2852 17.3397 19.5016 17.4556 19.8559L17.4557 19.856L19.4592 25.9615L19.4594 25.9619C19.5874 26.346 19.3762 26.7634 18.9908 26.8918C18.6065 27.0199 18.1826 26.8012 18.0612 26.4242Z" fill="#134A85" stroke="#134A85" stroke-width="0.2"/>
<path d="M7.72082 31.7614L7.72088 31.7613L10.8028 29.6474L14.0879 33.3548C14.088 33.3549 14.0881 33.355 14.0881 33.3551C14.4138 33.7271 14.8713 33.9209 15.3362 33.9209C15.5611 33.9209 15.7863 33.8743 16.0035 33.7737C16.1657 33.7041 16.3127 33.6112 16.4442 33.4951L16.4442 33.4951C16.7772 33.2008 16.9792 32.7897 17.0025 32.3471C17.0257 31.9058 16.8784 31.4794 16.5841 31.1464L16.584 31.1462L12.3222 26.3381C12.3222 26.338 12.3221 26.3379 12.322 26.3379C11.7711 25.7096 10.8257 25.5937 10.1359 26.0665L10.1358 26.0666L7.09282 28.1569L4.6667 25.2327L4.6665 25.2325C4.07792 24.5277 3.02436 24.4263 2.31846 25.0155C1.97764 25.2945 1.76037 25.6978 1.72155 26.1403C1.68288 26.5811 1.8144 27.0155 2.1014 27.3569C2.10148 27.357 2.10156 27.3571 2.10164 27.3572L5.49634 31.4513L5.49664 31.4516C6.0541 32.1175 7.00783 32.2496 7.72082 31.7614ZM11.2363 28.7274L11.2363 28.7274L11.2355 28.7264C11.1436 28.6255 11.0148 28.5699 10.8846 28.5699C10.7914 28.5699 10.6993 28.5979 10.6178 28.6522L10.6178 28.6522L10.6168 28.6529L7.19251 30.9989L7.19202 30.9993C6.87762 31.2174 6.45508 31.1597 6.21141 30.8647L6.21129 30.8646L2.81615 26.77L2.81599 26.7698C2.68727 26.6154 2.63001 26.4306 2.64928 26.2315C2.66864 26.0315 2.7581 25.8592 2.91209 25.7307C3.22801 25.4732 3.69626 25.5137 3.95128 25.8261L3.95128 25.8261L3.95178 25.8267L6.64749 29.0761L6.64749 29.0761L6.64826 29.077C6.80417 29.2605 7.07292 29.2998 7.26982 29.1599L10.6705 26.8369C10.6706 26.8368 10.6708 26.8367 10.6709 26.8366C10.9798 26.6311 11.3972 26.6834 11.6402 26.9584L11.6403 26.9585L15.9025 31.767L15.9025 31.7671L15.9035 31.7681C16.0379 31.9154 16.1017 32.0999 16.0888 32.299C16.076 32.4975 15.9869 32.6761 15.8404 32.8042C15.7751 32.8562 15.7101 32.8952 15.638 32.928C15.3429 33.056 15.0033 32.979 14.7915 32.7416C14.7915 32.7416 14.7915 32.7416 14.7915 32.7416L11.2363 28.7274ZM2.73917 26.8339L6.13432 30.9284L2.84846 25.6536C2.6736 25.7993 2.5716 25.996 2.54974 26.2219C2.52789 26.4477 2.59346 26.659 2.73917 26.8339Z" fill="#134A85" stroke="#134A85" stroke-width="0.2"/>
</svg>
