<svg width="51" height="51" viewBox="0 0 51 51" fill="none" xmlns="http://www.w3.org/2000/svg">
<path d="M43.407 32.7207V15.8827C43.407 13.8168 41.7256 12.1354 39.6597 12.1354H9.69821C7.63231 12.1354 5.95091 13.8168 5.95091 15.8827V42.1009C5.95091 44.1668 7.63231 45.8482 9.69821 45.8482H32.8205C34.4103 48.0615 37.0051 49.5059 39.9326 49.5059C44.7587 49.5059 48.6853 45.5793 48.6853 40.7532C48.6853 37.1613 46.5098 34.0684 43.407 32.7207ZM9.69821 44.6529C8.29073 44.6529 7.14622 43.5084 7.14622 42.1009V15.8827C7.14622 14.4752 8.29073 13.3307 9.69821 13.3307H39.6607C41.0682 13.3307 42.2127 14.4752 42.2127 15.8827V32.3023C41.8103 32.1938 41.3959 32.1131 40.9726 32.0623V16.6477C40.9726 15.5022 40.0412 14.5709 38.8957 14.5709H10.4632C9.3177 14.5709 8.38636 15.5022 8.38636 16.6477V41.3359C8.38636 42.4814 9.3177 43.4128 10.4632 43.4128H31.5933C31.7308 43.8411 31.9001 44.2554 32.0984 44.6529H9.69821ZM31.3025 42.2174H10.4632C9.97712 42.2174 9.58167 41.822 9.58167 41.3359V16.6477C9.58167 16.1616 9.97712 15.7662 10.4632 15.7662H38.8957C39.3818 15.7662 39.7773 16.1616 39.7773 16.6477V32.0025C35.0229 32.0862 31.18 35.9789 31.18 40.7532C31.18 41.2522 31.2218 41.7413 31.3025 42.2174ZM39.9326 48.3105C35.766 48.3105 32.3753 44.9198 32.3753 40.7532C32.3753 36.5865 35.766 33.1958 39.9326 33.1958C44.0993 33.1958 47.49 36.5865 47.49 40.7532C47.49 44.9198 44.0993 48.3105 39.9326 48.3105ZM31.9858 18.5821C29.7675 17.328 27.2414 16.6656 24.6785 16.6656C22.1155 16.6656 19.5894 17.328 17.3711 18.5821C16.5772 19.0304 16.0722 19.7754 15.9487 20.6789C15.8252 21.5824 16.1121 22.435 16.7555 23.0805L19.8165 26.1485C20.1761 26.509 20.6423 26.6983 21.1244 26.6983C21.3515 26.6983 21.5826 26.6555 21.8067 26.5688C22.7211 26.2142 23.6883 26.0339 24.6785 26.0339C25.6696 26.0339 26.6358 26.2142 27.5502 26.5688C28.2485 26.8397 29.0115 26.6784 29.5404 26.1485L32.6014 23.0805C33.2449 22.435 33.5317 21.5824 33.4082 20.6789C33.2847 19.7754 32.7797 19.0304 31.9858 18.5821ZM23.5718 24.9063C23.6415 24.3565 24.1107 23.9292 24.6795 23.9292C25.2482 23.9292 25.7174 24.3565 25.7871 24.9063C25.4216 24.8625 25.052 24.8376 24.6795 24.8376C24.3059 24.8376 23.9374 24.8625 23.5718 24.9063ZM31.7557 22.2358L28.6947 25.3038C28.4995 25.499 28.2405 25.5538 27.9835 25.4542C27.6578 25.3277 27.3251 25.2231 26.9884 25.1354C26.9894 25.1065 26.9924 25.0777 26.9924 25.0478C26.9924 23.7728 25.9545 22.7348 24.6795 22.7348C24.3697 22.7348 24.0748 22.7966 23.8039 22.9072L21.3675 20.9718C21.1085 20.7666 20.7329 20.8094 20.5277 21.0684C20.3225 21.3264 20.3654 21.7029 20.6244 21.9081L22.8307 23.6602C22.5399 24.0467 22.3665 24.5278 22.3665 25.0478C22.3665 25.0767 22.3685 25.1055 22.3705 25.1354C22.0338 25.2231 21.7021 25.3277 21.3754 25.4542C21.1184 25.5538 20.8584 25.499 20.6642 25.3038L17.6032 22.2358C17.2237 21.8553 17.0613 21.3732 17.1341 20.8403C17.2068 20.3084 17.4926 19.887 17.9598 19.6221C19.9988 18.4696 22.3217 17.86 24.6785 17.86C27.0352 17.86 29.3591 18.4696 31.3971 19.6221C31.8653 19.886 32.1502 20.3074 32.2229 20.8403C32.2966 21.3722 32.1352 21.8553 31.7557 22.2358ZM24.2183 9.55752C24.3318 9.69498 24.5002 9.77467 24.6785 9.77467C24.8568 9.77467 25.0251 9.69498 25.1387 9.55752L27.7225 6.43377C27.87 6.25547 27.9018 6.00744 27.8032 5.79826C27.7046 5.58908 27.4944 5.45461 27.2623 5.45461H26.5621V2.0918C26.5621 1.76209 26.2941 1.49414 25.9644 1.49414H23.3925C23.0628 1.49414 22.7949 1.76209 22.7949 2.0918V5.45561H22.0946C21.8635 5.45561 21.6523 5.58908 21.5537 5.79926C21.4551 6.00844 21.486 6.25646 21.6344 6.43477L24.2183 9.55752ZM23.3935 6.65092C23.7232 6.65092 23.9912 6.38297 23.9912 6.05326V2.68945H25.3678V6.05326C25.3678 6.38297 25.6357 6.65092 25.9654 6.65092H25.9933L24.6795 8.23869L23.3656 6.65092H23.3935ZM8.54075 8.47676C8.68817 8.29846 8.71905 8.05043 8.62144 7.84125C8.52282 7.63207 8.31265 7.4976 8.08056 7.4976H7.3803V4.13379C7.3803 3.80408 7.11235 3.53613 6.78265 3.53613H4.21073C3.88102 3.53613 3.61308 3.80408 3.61308 4.13379V7.4976H2.91282C2.68173 7.4976 2.47056 7.63107 2.37194 7.84125C2.27333 8.05043 2.30421 8.29846 2.45263 8.47676L5.03649 11.6005C5.15005 11.738 5.31839 11.8177 5.49669 11.8177C5.67499 11.8177 5.84333 11.738 5.95688 11.6005L8.54075 8.47676ZM5.49669 10.2817L4.18284 8.69291H4.21073C4.54044 8.69291 4.80839 8.42496 4.80839 8.09525V4.73145H6.18499V8.09525C6.18499 8.42496 6.45294 8.69291 6.78265 8.69291H6.81054L5.49669 10.2817ZM43.401 11.5995C43.5146 11.737 43.6829 11.8167 43.8612 11.8167C44.0395 11.8167 44.2079 11.737 44.3214 11.5995L46.9053 8.47576C47.0527 8.29746 47.0836 8.04943 46.986 7.84025C46.8874 7.63107 46.6772 7.4966 46.4451 7.4966H45.7449V4.13379C45.7449 3.80408 45.4769 3.53613 45.1472 3.53613H42.5753C42.2456 3.53613 41.9776 3.80408 41.9776 4.13379V7.4976H41.2774C41.0463 7.4976 40.8351 7.63107 40.7365 7.84125C40.6379 8.05043 40.6688 8.29846 40.8172 8.47676L43.401 11.5995ZM42.5753 8.69291C42.905 8.69291 43.1729 8.42496 43.1729 8.09525V4.73145H44.5495V8.09525C44.5495 8.42496 44.8175 8.69291 45.1472 8.69291H45.1751L43.8612 10.2807L42.5474 8.69291H42.5753ZM45.1372 37.6673C45.0426 37.5089 44.8812 37.4023 44.698 37.3794C44.5147 37.3565 44.3314 37.4193 44.2009 37.5497L36.7282 45.0224C36.5977 45.1529 36.535 45.3362 36.5579 45.5195C36.5808 45.7028 36.6874 45.8651 36.8457 45.9588C37.7771 46.5116 38.8439 46.8045 39.9316 46.8045C43.2676 46.8045 45.9819 44.0901 45.9819 40.7542C45.9829 39.6655 45.6911 38.5976 45.1372 37.6673ZM39.9326 45.6081C39.325 45.6081 38.7254 45.4946 38.1656 45.2764L44.4559 38.9861C44.674 39.5459 44.7876 40.1456 44.7876 40.7532C44.7876 43.4307 42.6091 45.6081 39.9326 45.6081ZM43.3064 35.9869C43.2835 35.8036 43.1769 35.6412 43.0185 35.5476C42.0872 34.9948 41.0204 34.7019 39.9326 34.7019C36.5967 34.7019 33.8824 37.4163 33.8824 40.7522C33.8824 41.8399 34.1742 42.9077 34.7281 43.8381C34.8227 43.9965 34.9841 44.103 35.1673 44.126C35.1922 44.1289 35.2171 44.1309 35.242 44.1309C35.3994 44.1309 35.5518 44.0682 35.6644 43.9556L43.1371 36.4829C43.2666 36.3534 43.3293 36.1702 43.3064 35.9869ZM35.4084 42.5203C35.1902 41.9604 35.0767 41.3608 35.0767 40.7532C35.0767 38.0757 37.2551 35.8982 39.9316 35.8982C40.5393 35.8982 41.1389 36.0118 41.6987 36.2299L35.4084 42.5203Z" fill="#134A85"/>
</svg>
