<svg width="51" height="51" viewBox="0 0 51 51" fill="none" xmlns="http://www.w3.org/2000/svg">
<path d="M28.6875 49.4062H22.3125C22.1011 49.4062 21.8984 49.3223 21.749 49.1728C21.5995 49.0234 21.5156 48.8207 21.5156 48.6093V43.5795C21.5156 38.8189 18.5863 36.814 15.4864 34.6911C12.2607 32.483 8.6062 29.98 8.6062 24.1182C8.6062 16.873 16.1861 10.9785 25.5 10.9785C34.8138 10.9785 42.3937 16.8754 42.3937 24.1182C42.3937 29.98 38.7376 32.4854 35.5119 34.6911C32.4136 36.8156 29.4843 38.8189 29.4843 43.5795V48.6093C29.4843 48.8207 29.4004 49.0234 29.2509 49.1728C29.1015 49.3223 28.8988 49.4062 28.6875 49.4062ZM23.1093 47.8125H27.8906V43.5795C27.8906 37.979 31.3084 35.6386 34.6138 33.3795C37.7957 31.1976 40.8 29.1393 40.8 24.1182C40.8 17.752 33.9357 12.5723 25.5 12.5723C17.0642 12.5723 10.2 17.752 10.2 24.1182C10.2 29.1385 13.2058 31.1976 16.3877 33.3763C19.6915 35.6386 23.1093 37.979 23.1093 43.5795V47.8125Z" fill="#134A85"/>
<path d="M9.19987 24.9149C4.9852 24.9149 3.49186 22.337 2.17383 20.0619C1.65442 19.0602 1.00375 18.1321 0.239014 17.3024L1.35464 16.166C2.22421 17.094 2.96333 18.136 3.55162 19.2635C4.81308 21.4405 5.9024 23.3212 9.19908 23.3212L9.19987 24.9149Z" fill="#134A85"/>
<path d="M41.8 24.9149V23.3212C45.0967 23.3212 46.1829 21.4405 47.4475 19.2635C48.036 18.136 48.7754 17.0939 49.6453 16.166L50.7609 17.3024C49.9959 18.1321 49.3449 19.0601 48.8253 20.0619C47.5081 22.337 46.0147 24.9149 41.8 24.9149Z" fill="#134A85"/>
<path d="M35.7375 15.096L34.6218 13.9597C37.4531 11.1746 37.4531 4.89998 37.4531 4.83703V2.39062H39.0469V4.83225C39.0469 5.11355 39.0469 11.844 35.7375 15.096Z" fill="#134A85"/>
<path d="M39.3026 17.4635L38.187 16.3264C41.6207 12.95 41.4375 4.93584 41.4375 4.85536V2.39062H43.0312V4.83225C43.0416 5.16694 43.2352 13.5987 39.3026 17.4635Z" fill="#134A85"/>
<path d="M15.2625 14.9366C11.9531 11.6854 11.9531 4.95417 11.9531 4.66889V2.39062H13.5469V4.67287C13.5469 4.73981 13.5532 11.0224 16.3806 13.7995L15.2625 14.9366Z" fill="#134A85"/>
<path d="M11.6973 17.3041C7.7647 13.4393 7.95834 5.00756 7.9687 4.65056V2.39062H9.56245V4.67287C9.56245 4.77647 9.37917 12.7906 12.8145 16.1678L11.6973 17.3041Z" fill="#134A85"/>
<path d="M28.6875 44.625H22.3125V46.2188H28.6875V44.625Z" fill="#134A85"/>
<path d="M25.5 35.0625C18.0301 35.0625 11.9531 30.4151 11.9531 24.7031C11.9531 18.9911 18.0301 14.3438 25.5 14.3438C32.9699 14.3438 39.0469 18.9911 39.0469 24.7031C39.0469 30.4151 32.9699 35.0625 25.5 35.0625ZM25.5 15.9375C18.909 15.9375 13.5469 19.8701 13.5469 24.7031C13.5469 29.5362 18.909 33.4688 25.5 33.4688C32.091 33.4688 37.4531 29.5362 37.4531 24.7031C37.4531 19.8701 32.091 15.9375 25.5 15.9375Z" fill="#134A85"/>
<path d="M37.4531 29.4844C32.5492 29.4844 28.6405 28.25 24.8625 27.0571C21.0287 25.8466 17.4085 24.7031 12.75 24.7031V23.1094C17.654 23.1094 21.5626 24.3437 25.3406 25.5367C29.1744 26.7471 32.7946 27.8906 37.4531 27.8906V29.4844Z" fill="#134A85"/>
<path d="M25.8418 27.2356L25.4434 25.6928C26.2785 25.4777 27.112 25.2522 27.9392 25.029C31.6 24.0417 35.0561 23.1094 38.2499 23.1094V24.7031C35.2672 24.7031 31.9108 25.6092 28.3567 26.5678C27.5224 26.7933 26.6833 27.0196 25.8418 27.2356Z" fill="#134A85"/>
</svg>
