<svg width="51" height="51" viewBox="0 0 51 51" fill="none" xmlns="http://www.w3.org/2000/svg">
<path fill-rule="evenodd" clip-rule="evenodd" d="M36.9421 19.2495L30.2425 14.8258C29.9976 14.6643 29.6842 14.6505 29.426 14.7892C29.1678 14.9283 29.0063 15.1977 29.0063 15.4909V29.3018C29.0063 29.7412 29.3633 30.0987 29.8032 30.0987C30.243 30.0987 30.6 29.7412 30.6 29.3018V16.9721L36.0645 20.5793C36.431 20.8215 36.9262 20.7206 37.1684 20.3535C37.4107 19.9864 37.3092 19.4918 36.9421 19.2495ZM21.9938 29.3018V15.4909C21.9938 15.1977 21.8323 14.9283 21.5741 14.7892C21.3159 14.6505 21.0025 14.6643 20.7576 14.8258L14.058 19.2495C13.6909 19.4918 13.5894 19.9864 13.8317 20.3535C14.0739 20.7206 14.569 20.8215 14.9356 20.5793L20.4 16.9721V29.3018C20.4 29.7412 20.757 30.0987 21.1969 30.0987C21.6368 30.0987 21.9938 29.7412 21.9938 29.3018ZM13.9624 15.7412L18.8052 12.5441C20.7958 11.2298 21.9938 9.00384 21.9938 6.61853C21.9938 4.69647 21.9938 2.67188 21.9938 2.67188C21.9938 2.23253 21.6368 1.875 21.1969 1.875C20.757 1.875 20.4 2.23253 20.4 2.67188V6.61853C20.4 8.46834 19.4709 10.1949 17.9271 11.2138L13.0842 14.4114C12.7171 14.6537 12.6162 15.1483 12.8584 15.5154C13.1007 15.8825 13.5953 15.9834 13.9624 15.7412ZM29.0063 2.67188V6.61853C29.0063 9.00384 30.2043 11.2298 32.1949 12.5441L37.0377 15.7412C37.4048 15.9834 37.8994 15.8825 38.1417 15.5154C38.3839 15.1483 38.283 14.6537 37.9159 14.4114L33.073 11.2138C31.5292 10.1949 30.6 8.46834 30.6 6.61853V2.67188C30.6 2.23253 30.243 1.875 29.8032 1.875C29.3633 1.875 29.0063 2.23253 29.0063 2.67188Z" fill="#134A85"/>
<path fill-rule="evenodd" clip-rule="evenodd" d="M24.7031 2.67188V28.9018C24.7031 29.3417 25.0601 29.6987 25.5 29.6987C25.9399 29.6987 26.2969 29.3417 26.2969 28.9018V2.67188C26.2969 2.23253 25.9399 1.875 25.5 1.875C25.0601 1.875 24.7031 2.23253 24.7031 2.67188Z" fill="#134A85"/>
<path fill-rule="evenodd" clip-rule="evenodd" d="M10.2893 30.2846C14.245 29.4713 16.7966 25.599 15.9832 21.6433C15.648 20.0134 14.7943 18.6226 13.6293 17.6069C14.2992 16.2139 14.535 14.5984 14.1998 12.9691C13.3865 9.01338 9.5142 6.46178 5.55852 7.27513C1.73033 8.06244 -0.847827 12.4522 0.756016 20.2536C2.44911 28.4879 6.46111 31.0714 10.2893 30.2846ZM9.96842 28.7233C6.74427 29.3863 3.74324 26.8671 2.31736 19.9327C1.61824 16.5327 1.7468 13.8552 2.49427 11.9422C3.17161 10.2087 4.36692 9.14725 5.87939 8.83647C8.97392 8.20003 12.0026 10.1959 12.6385 13.2899C12.9408 14.7594 12.6496 16.2134 11.9293 17.4034C11.7136 17.7599 11.8087 18.2221 12.1476 18.4643C13.2786 19.2734 14.1201 20.4953 14.4219 21.9642C15.0583 25.0587 13.0624 28.0874 9.96842 28.7233Z" fill="#134A85"/>
<path fill-rule="evenodd" clip-rule="evenodd" d="M40.7108 30.2846C44.539 31.0714 48.551 28.4879 50.244 20.2536C51.8479 12.4522 49.2697 8.06244 45.4415 7.27513C41.4859 6.46178 37.6136 9.01338 36.8002 12.9691C36.465 14.5984 36.7009 16.2139 37.3708 17.6069C36.2058 18.6226 35.352 20.0134 35.0168 21.6433C34.2035 25.599 36.7551 29.4713 40.7108 30.2846ZM41.0316 28.7233C37.9376 28.0874 35.9417 25.0587 36.5782 21.9642C36.8799 20.4953 37.7214 19.2734 38.8525 18.4643C39.1914 18.2221 39.2865 17.7599 39.0708 17.4034C38.3504 16.2134 38.0593 14.7594 38.3616 13.2899C38.9975 10.1959 42.0261 8.20003 45.1207 8.83647C46.6331 9.14725 47.8285 10.2087 48.5058 11.9422C49.2533 13.8552 49.3818 16.5327 48.6827 19.9327C47.2568 26.8671 44.2558 29.3863 41.0316 28.7233Z" fill="#134A85"/>
<path fill-rule="evenodd" clip-rule="evenodd" d="M8.20199 29.5461C7.87314 32.9678 8.08246 36.3126 8.99408 38.7564C9.66186 40.5477 10.7111 41.8727 12.1455 42.5133C13.6579 43.1886 15.6469 43.1269 18.1762 41.8727C18.5699 41.6772 18.7314 41.1985 18.5359 40.8043C18.3404 40.4107 17.8617 40.2492 17.4681 40.4447C15.5024 41.4195 13.9703 41.5826 12.7952 41.0577C11.7205 40.578 10.9879 39.5415 10.4874 38.1996C9.64646 35.9444 9.48496 32.8558 9.7883 29.6985C9.83027 29.2608 9.5094 28.8714 9.07111 28.8289C8.63336 28.7869 8.24396 29.1083 8.20199 29.5461Z" fill="#134A85"/>
<path fill-rule="evenodd" clip-rule="evenodd" d="M41.4349 29.6985C41.7435 32.9158 41.5709 36.0618 40.6874 38.326C40.1641 39.6669 39.3986 40.6874 38.2777 41.1204C37.0324 41.6017 35.4126 41.3483 33.3307 40.2247C32.9434 40.0159 32.4599 40.1604 32.2506 40.5472C32.0419 40.9345 32.1864 41.4184 32.5736 41.6272C35.2049 43.0478 37.2779 43.2151 38.852 42.6069C40.3623 42.0235 41.4668 40.7124 42.1723 38.9056C43.1312 36.4486 43.3564 33.0374 43.0212 29.5461C42.9792 29.1083 42.5893 28.7869 42.1515 28.8289C41.7138 28.8714 41.3924 29.2608 41.4349 29.6985Z" fill="#134A85"/>
<path fill-rule="evenodd" clip-rule="evenodd" d="M17.3952 30.722C15.3276 32.7986 15.1783 36.9509 17.2449 41.1047C18.6176 44.0489 22.1191 47.0218 25.0564 48.989C25.3247 49.1686 25.6753 49.1686 25.9436 48.989C28.883 47.0202 32.3871 44.0452 33.7609 41.092C35.8211 36.9466 35.6713 32.7976 33.6047 30.722C30.9687 28.0737 28.2423 28.1045 25.5 28.1045C22.7571 28.1045 20.0313 28.0737 17.3952 30.722ZM18.5247 31.8466C20.7835 29.5771 23.1497 29.6983 25.5 29.6983C27.8502 29.6983 30.2164 29.5771 32.4753 31.8466C33.1128 32.4868 33.4788 33.3904 33.6063 34.4402C33.8167 36.1737 33.3789 38.2838 32.3265 40.3971C32.3234 40.4035 32.3207 40.4104 32.3175 40.4168C31.119 42.9965 28.1185 45.5555 25.5 47.3634C22.8814 45.5555 19.8809 42.9965 18.6824 40.4168C18.6793 40.4104 18.6761 40.4035 18.6729 40.3971C17.621 38.2838 17.1833 36.1737 17.3936 34.4402C17.5211 33.3904 17.8872 32.4868 18.5247 31.8466Z" fill="#134A85"/>
</svg>
