<svg width="51" height="51" viewBox="0 0 51 51" fill="none" xmlns="http://www.w3.org/2000/svg">
<path d="M49.317 4.32544C49.3561 3.98463 49.3232 3.63942 49.2205 3.31211C49.1178 2.98481 48.9476 2.68268 48.7209 2.42524C48.4942 2.16781 48.216 1.96079 47.9043 1.81757C47.5925 1.67435 47.2543 1.5981 46.9113 1.59375H45.3366C44.7485 1.5943 44.1812 1.81161 43.7433 2.20414C43.3053 2.59667 43.0274 3.13686 42.9627 3.72141C42.601 6.18843 41.3792 8.44831 39.5131 10.102C35.4327 7.16076 30.5303 5.57804 25.5004 5.57804C20.4705 5.57804 15.5681 7.16076 11.4878 10.102C9.62097 8.44873 8.3988 6.1887 8.03731 3.72141C7.97261 3.13686 7.69472 2.59667 7.25676 2.20414C6.81881 1.81161 6.25153 1.5943 5.66342 1.59375H4.08879C3.74573 1.59784 3.40736 1.67392 3.09557 1.81707C2.78378 1.96022 2.50552 2.16725 2.27881 2.42476C2.05211 2.68226 1.882 2.98451 1.77951 3.31192C1.67701 3.63934 1.64441 3.98463 1.68382 4.32544C2.16996 8.32459 4.08066 12.0147 7.06592 14.7199C5.47056 17.0869 4.67598 19.903 4.79881 22.7548C5.08648 31.5658 14.637 38.6684 20.3044 42.1188C21.0614 42.5794 22.2041 43.2751 22.3173 47.1009C22.3415 47.7185 22.6031 48.3029 23.0476 48.7324C23.492 49.1618 24.0851 49.4032 24.7031 49.4062H26.2969C26.9158 49.4045 27.51 49.1636 27.9555 48.734C28.401 48.3044 28.6633 47.7193 28.6875 47.1009C28.8007 43.2759 29.9434 42.5786 30.7004 42.118C36.3686 38.6676 45.9207 31.565 46.206 22.7715C46.3301 19.9154 45.5358 17.0947 43.9397 14.7231C46.9233 12.016 48.8328 8.32485 49.317 4.32544ZM47.7328 4.14375C47.2535 7.98433 45.3345 11.4999 42.3635 13.9804C42.2105 14.1104 42.1123 14.2933 42.0883 14.4926C42.0644 14.6919 42.1166 14.8929 42.2344 15.0554C43.8825 17.2562 44.7215 19.958 44.6099 22.7054C44.3381 31.0662 34.2107 38.1161 29.8677 40.7594C28.2843 41.7228 27.2061 43.1627 27.0898 47.0547C27.0798 47.2585 26.992 47.4507 26.8445 47.5917C26.6969 47.7327 26.501 47.8117 26.2969 47.8125H24.7031C24.4981 47.8127 24.3009 47.7339 24.1525 47.5925C24.0041 47.4511 23.9159 47.2579 23.9063 47.0531C23.7899 43.1603 22.711 41.7204 21.1284 40.7578C16.791 38.1145 6.66429 31.0654 6.39176 22.6862C6.28237 19.9454 7.12071 17.2505 8.76565 15.0554C8.88259 14.8928 8.93408 14.6923 8.90986 14.4935C8.88565 14.2948 8.78751 14.1124 8.63496 13.9828C5.66374 11.5016 3.74524 7.98505 3.26721 4.14375C3.25173 4.0258 3.26129 3.90591 3.29526 3.7919C3.32924 3.6779 3.38687 3.57233 3.46439 3.4821C3.54192 3.39187 3.6376 3.31899 3.74518 3.26823C3.85277 3.21747 3.96985 3.18996 4.08879 3.1875H5.66342C5.86394 3.19205 6.05582 3.27002 6.20269 3.40661C6.34956 3.5432 6.44122 3.72893 6.46029 3.92859C6.91544 7.00933 8.52181 9.80289 10.9555 11.7459C11.096 11.8606 11.2715 11.9239 11.4529 11.9254C11.6343 11.9268 11.8108 11.8663 11.9531 11.7539C15.8442 8.78262 20.6042 7.17302 25.5 7.17302C30.3958 7.17302 35.1558 8.78262 39.0469 11.7539C39.1893 11.8665 39.366 11.9272 39.5475 11.9257C39.7291 11.9243 39.9048 11.8608 40.0454 11.7459C42.4805 9.8038 44.0886 7.0105 44.5453 3.92939C44.5642 3.72958 44.6558 3.54366 44.8027 3.40691C44.9496 3.27015 45.1416 3.19208 45.3422 3.1875H46.9168C47.0353 3.19085 47.1517 3.21901 47.2585 3.27014C47.3654 3.32128 47.4603 3.39427 47.5372 3.48438C47.6141 3.5745 47.6713 3.67975 47.705 3.79332C47.7387 3.9069 47.7482 4.02628 47.7328 4.14375Z" fill="#134A85"/>
<path d="M22.3125 32.6719C22.7526 32.6719 23.1094 32.3151 23.1094 31.875C23.1094 31.4349 22.7526 31.0781 22.3125 31.0781C21.8724 31.0781 21.5156 31.4349 21.5156 31.875C21.5156 32.3151 21.8724 32.6719 22.3125 32.6719Z" fill="#134A85"/>
<path d="M27.8906 35.0625C28.3307 35.0625 28.6875 34.7057 28.6875 34.2656C28.6875 33.8255 28.3307 33.4688 27.8906 33.4688C27.4505 33.4688 27.0938 33.8255 27.0938 34.2656C27.0938 34.7057 27.4505 35.0625 27.8906 35.0625Z" fill="#134A85"/>
<path d="M16.7344 29.4844C17.1745 29.4844 17.5312 29.1276 17.5312 28.6875C17.5312 28.2474 17.1745 27.8906 16.7344 27.8906C16.2943 27.8906 15.9375 28.2474 15.9375 28.6875C15.9375 29.1276 16.2943 29.4844 16.7344 29.4844Z" fill="#134A85"/>
<path d="M32.6719 31.0781C33.112 31.0781 33.4688 30.7214 33.4688 30.2812C33.4688 29.8411 33.112 29.4844 32.6719 29.4844C32.2318 29.4844 31.875 29.8411 31.875 30.2812C31.875 30.7214 32.2318 31.0781 32.6719 31.0781Z" fill="#134A85"/>
<path d="M25.5614 8.76563C17.2739 8.75846 7.84451 13.8983 7.98794 22.7038C8.80315 30.7171 17.1934 36.2108 23.3206 40.2231C23.9684 40.6472 24.7258 40.8731 25.5001 40.8731C26.2743 40.8731 27.0318 40.6472 27.6795 40.2231C33.8155 36.2076 42.2153 30.7092 43.0122 22.6368C43.1652 13.9605 33.7437 8.7728 25.5614 8.76563ZM26.8069 38.8875C26.4186 39.1419 25.9644 39.2774 25.5001 39.2774C25.0358 39.2774 24.5816 39.1419 24.1932 38.8875C18.6987 35.2888 13.5948 31.6543 11.1085 27.2531C12.5118 26.6726 14.0079 26.3487 15.5256 26.2969C17.1468 26.2571 18.7472 26.6693 20.1475 27.4874C21.7722 28.4261 23.6242 28.8987 25.5001 28.8533C27.3759 28.8986 29.2279 28.426 30.8527 27.4874C32.2382 26.6753 33.8218 26.2631 35.4275 26.2969C36.9482 26.3325 38.449 26.6506 39.8534 27.2348C37.0874 32.1475 31.3173 35.9391 26.8069 38.8875ZM40.5483 25.8108C38.9387 25.1405 37.2217 24.7653 35.4793 24.7031C33.604 24.6574 31.7523 25.13 30.1283 26.069C28.7261 26.8881 27.1235 27.3004 25.5001 27.2595C23.8788 27.2993 22.2785 26.887 20.8782 26.069C19.2405 25.1251 17.3737 24.6524 15.4841 24.7031H15.4738C13.7364 24.7808 12.0257 25.1602 10.4184 25.8243C9.98139 24.7993 9.69836 23.7152 9.57851 22.6074C9.51555 14.798 18.1146 10.3777 25.4841 10.3594C32.7891 10.3419 41.4336 14.7589 41.4216 22.5133C41.2963 23.6498 41.002 24.7613 40.5483 25.8108Z" fill="#134A85"/>
<path d="M29.3387 17.6617H28.6805V14.3818C28.6798 13.741 28.425 13.1266 27.9719 12.6734C27.5187 12.2203 26.9043 11.9655 26.2635 11.9648H24.6435C24.0027 11.9655 23.3883 12.2203 22.9352 12.6734C22.482 13.1266 22.2272 13.741 22.2266 14.3818V17.6617H21.5675C21.2604 17.6655 20.9608 17.7567 20.7036 17.9247C20.4465 18.0927 20.2426 18.3305 20.1157 18.6102C19.9889 18.8899 19.9443 19.2 19.9874 19.5041C20.0304 19.8082 20.1592 20.0937 20.3587 20.3273L24.2442 24.7666C24.396 24.9377 24.5822 25.0746 24.7907 25.1684C24.9992 25.2622 25.2253 25.3107 25.4539 25.3107C25.6825 25.3107 25.9086 25.2622 26.1171 25.1684C26.3256 25.0746 26.5119 24.9377 26.6636 24.7666L30.5483 20.3265C30.7476 20.0928 30.8762 19.8073 30.9191 19.5033C30.9619 19.1992 30.9173 18.8892 30.7904 18.6096C30.6635 18.33 30.4595 18.0924 30.2024 17.9245C29.9453 17.7566 29.6457 17.6655 29.3387 17.6617ZM25.4443 23.718L21.5675 19.2555H23.0234C23.2348 19.2555 23.4375 19.1715 23.5869 19.0221C23.7364 18.8726 23.8203 18.6699 23.8203 18.4586V14.3818C23.8205 14.1635 23.9073 13.9543 24.0616 13.7999C24.216 13.6456 24.4252 13.5588 24.6435 13.5586H26.2635C26.4818 13.5588 26.691 13.6456 26.8454 13.7999C26.9997 13.9543 27.0865 14.1635 27.0867 14.3818V18.4586C27.0867 18.6699 27.1707 18.8726 27.3201 19.0221C27.4695 19.1715 27.6722 19.2555 27.8836 19.2555L29.3482 19.277L25.4443 23.718Z" fill="#134A85"/>
<path d="M39.0469 39.8438C39.487 39.8438 39.8438 39.487 39.8438 39.0469C39.8438 38.6068 39.487 38.25 39.0469 38.25C38.6068 38.25 38.25 38.6068 38.25 39.0469C38.25 39.487 38.6068 39.8438 39.0469 39.8438Z" fill="#134A85"/>
<path d="M42.2455 38.25H42.2344C42.023 38.2485 41.8197 38.3311 41.6692 38.4795C41.5188 38.6279 41.4334 38.83 41.4319 39.0413C41.4304 39.2527 41.513 39.4559 41.6614 39.6064C41.8098 39.7569 42.0119 39.8423 42.2232 39.8438L47.8013 39.9179H47.8125C48.0238 39.9194 48.2271 39.8368 48.3776 39.6884C48.5281 39.54 48.6135 39.3379 48.6149 39.1266C48.6164 38.9152 48.5339 38.712 48.3855 38.5615C48.2371 38.411 48.035 38.3256 47.8236 38.3241L42.2455 38.25Z" fill="#134A85"/>
<path d="M39.0468 41.4375C38.8373 41.4375 38.6361 41.52 38.487 41.6672C38.3378 41.8144 38.2527 42.0145 38.25 42.224L38.1758 47.8021C38.1745 47.9068 38.1937 48.0107 38.2325 48.1079C38.2713 48.2051 38.3289 48.2937 38.4019 48.3687C38.4749 48.4436 38.562 48.5035 38.6582 48.5448C38.7544 48.5861 38.8577 48.608 38.9624 48.6094H38.9727C39.1823 48.6094 39.3834 48.5269 39.5326 48.3797C39.6817 48.2324 39.7669 48.0324 39.7696 47.8229L39.8437 42.2447C39.8465 42.0335 39.7653 41.8298 39.6179 41.6785C39.4706 41.5271 39.2692 41.4404 39.058 41.4375H39.0468Z" fill="#134A85"/>
<path d="M11.9531 39.8438C12.3932 39.8438 12.75 39.487 12.75 39.0469C12.75 38.6068 12.3932 38.25 11.9531 38.25C11.513 38.25 11.1562 38.6068 11.1562 39.0469C11.1562 39.487 11.513 39.8438 11.9531 39.8438Z" fill="#134A85"/>
<path d="M8.75445 38.25L3.17633 38.3241C2.96498 38.3256 2.76288 38.411 2.61448 38.5615C2.46609 38.712 2.38355 38.9152 2.38503 39.1266C2.38651 39.3379 2.47188 39.54 2.62237 39.6884C2.77286 39.8368 2.97614 39.9194 3.18748 39.9179H3.19864L8.77676 39.8438C8.98811 39.8423 9.19021 39.7569 9.33861 39.6064C9.487 39.4559 9.56954 39.2527 9.56806 39.0413C9.56658 38.83 9.48121 38.6279 9.33072 38.4795C9.18023 38.3311 8.97695 38.2485 8.76561 38.25H8.75445Z" fill="#134A85"/>
<path d="M11.2304 47.8229C11.2332 48.0324 11.3183 48.2324 11.4675 48.3797C11.6166 48.5269 11.8177 48.6094 12.0273 48.6094H12.0377C12.1423 48.608 12.2457 48.5861 12.3418 48.5448C12.438 48.5035 12.5251 48.4436 12.5981 48.3687C12.6712 48.2937 12.7287 48.2051 12.7675 48.1079C12.8063 48.0107 12.8255 47.9068 12.8242 47.8021L12.7501 42.224C12.7473 42.0145 12.6622 41.8144 12.513 41.6672C12.3639 41.52 12.1628 41.4375 11.9532 41.4375H11.942C11.7308 41.4404 11.5294 41.5271 11.3821 41.6785C11.2348 41.8298 11.1536 42.0335 11.1563 42.2447L11.2304 47.8229Z" fill="#134A85"/>
</svg>
