<svg width="51" height="51" viewBox="0 0 51 51" fill="none" xmlns="http://www.w3.org/2000/svg">
<g clip-path="url(#clip0_3020_6634)">
<path d="M18.1616 31.1279C18.0588 29.5727 16.7616 28.3387 15.1809 28.3387C10.423 28.3387 6.33389 31.5087 4.60583 36.0074C4.44408 35.1827 4.44408 34.2684 4.60265 33.2275C5.05961 30.2279 6.62323 27.0205 8.43365 23.3066L8.45288 23.2673C8.8946 22.3613 9.35127 21.4245 9.79449 20.4832C10.0496 19.9415 10.0783 19.3332 9.87576 18.7698C9.67317 18.2065 9.26332 17.7559 8.7218 17.5009C8.18017 17.2458 7.57172 17.217 7.00848 17.4197C6.44524 17.6224 5.99465 18.0321 5.73958 18.5737C5.38331 19.3303 5.09089 19.9294 4.75225 20.6231L4.5391 21.0597C2.58197 25.0745 0.733392 28.8666 0.171848 32.5524C-0.484814 36.8632 0.736579 40.2682 3.90246 42.953C4.11451 44.2624 4.51619 45.5317 5.09616 46.7003C5.60442 47.7243 6.6306 48.3604 7.7744 48.3604C8.13416 48.3604 8.48355 48.2962 8.81731 48.1709C10.5233 49.9739 12.8117 50.9975 15.1809 50.9975C20.261 50.9975 24.3939 46.4178 24.3939 40.7885C24.3939 36.4103 21.858 32.5263 18.1616 31.1279ZM1.64871 32.7775C2.1759 29.3167 3.97606 25.624 5.88191 21.7145L6.09465 21.2787C6.43578 20.5799 6.7304 19.9764 7.09115 19.2103C7.17611 19.0298 7.3263 18.8932 7.51415 18.8256C7.7018 18.7581 7.90458 18.7677 8.08516 18.8527C8.26573 18.9378 8.40238 19.088 8.46981 19.2757C8.53734 19.4635 8.52778 19.6662 8.44282 19.8467C8.00388 20.7789 7.54941 21.7111 7.10987 22.6126L7.09075 22.6521C5.22674 26.4757 3.61691 29.7779 3.12568 33.0026C2.80128 35.1323 3.06592 36.9136 3.93284 38.4372C3.80336 39.1704 3.73314 39.9261 3.72806 40.6984C1.84672 38.5619 1.16476 35.9544 1.64871 32.7775ZM15.1809 49.5037C13.2632 49.5037 11.4666 48.7267 10.0533 47.3016C10.7982 46.4188 10.9945 45.1425 10.4492 44.0436C10.0708 43.2812 9.82516 42.4114 9.73891 41.528C9.69887 41.1174 9.33344 40.8168 8.92289 40.8571C8.51224 40.8972 8.21195 41.2625 8.25198 41.6731C8.35706 42.7503 8.6461 43.7714 9.11093 44.7078C9.47716 45.4457 9.17478 46.344 8.43694 46.7102C8.22798 46.8139 8.00518 46.8665 7.7744 46.8665C7.2021 46.8665 6.68867 46.5483 6.43449 46.0362C5.64058 44.4367 5.22096 42.6222 5.22096 40.7886C5.22096 34.7475 9.68901 29.8326 15.1809 29.8326C16.0047 29.8326 16.6749 30.5028 16.6749 31.3266C16.6749 32.1504 16.0047 32.8206 15.1809 32.8206C12.1401 32.8206 9.47188 35.0436 8.54172 38.3522C8.43007 38.7493 8.66154 39.1618 9.05864 39.2735C9.45575 39.3851 9.86829 39.1537 9.97994 38.7565C10.7269 36.0997 12.817 34.3147 15.1809 34.3147C16.3654 34.3147 17.3911 33.622 17.8741 32.6204C20.8662 33.8771 22.8999 37.1262 22.8999 40.7887C22.8999 45.5942 19.4372 49.5037 15.1809 49.5037Z" fill="#134A85"/>
<path d="M8.67222 10.9941C8.37103 12.1925 9.1009 13.4125 10.2993 13.7138C10.4787 13.7589 10.6628 13.7817 10.8468 13.7817C11.875 13.7817 12.7682 13.0847 13.0191 12.0866C14.0385 8.03104 13.8797 4.52413 12.5335 1.36571C12.2989 0.815027 11.8637 0.38874 11.3084 0.165238C10.7529 -0.0583641 10.1437 -0.0520894 9.59342 0.182667C9.04274 0.417325 8.61635 0.852477 8.39295 1.40775C8.16944 1.96311 8.17572 2.57217 8.41038 3.12286C9.35857 5.34802 9.44422 7.92267 8.67222 10.9941ZM9.77888 1.9656C9.85338 1.78055 9.99541 1.63553 10.1793 1.55715C10.2733 1.51701 10.3725 1.49699 10.4718 1.49699C10.5661 1.49699 10.6605 1.51511 10.7507 1.55137C10.9358 1.62587 11.0808 1.768 11.1591 1.95156C12.3727 4.79882 12.5071 7.99498 11.5701 11.7226C11.4864 12.0554 11.189 12.2878 10.8468 12.2878C10.7856 12.2878 10.724 12.2802 10.6635 12.2649C10.2641 12.1645 10.0208 11.7579 10.1212 11.3584C10.9757 7.95883 10.8656 5.07342 9.78475 2.53731C9.70647 2.35375 9.70438 2.15076 9.77888 1.9656Z" fill="#134A85"/>
<path d="M3.78698 14.0069L5.62061 14.7853C5.71593 14.8257 5.81483 14.8449 5.91214 14.8449C6.20287 14.8449 6.47936 14.674 6.60008 14.3896C6.76133 14.0098 6.58404 13.5713 6.20437 13.4101L4.37073 12.6317C3.99116 12.4708 3.55242 12.6477 3.39127 13.0275C3.23002 13.4072 3.40721 13.8457 3.78698 14.0069Z" fill="#134A85"/>
<path d="M8.37145 15.9533L10.2051 16.7316C10.3004 16.7721 10.3993 16.7912 10.4966 16.7912C10.7873 16.7912 11.0638 16.6204 11.1846 16.3359C11.3458 15.9561 11.1686 15.5176 10.7888 15.3564L8.95521 14.5781C8.57553 14.417 8.13699 14.594 7.97574 14.9738C7.81449 15.3535 7.99168 15.792 8.37145 15.9533Z" fill="#134A85"/>
<path d="M12.5601 16.9191C12.3988 17.2988 12.5761 17.7374 12.9558 17.8986L14.7895 18.6769C14.8847 18.7173 14.9836 18.7364 15.0811 18.7364C15.3718 18.7364 15.6483 18.5656 15.769 18.2811C15.9302 17.9014 15.753 17.4629 15.3733 17.3016L13.5395 16.5233C13.16 16.3624 12.7213 16.5394 12.5601 16.9191Z" fill="#134A85"/>
<path d="M50.8282 32.5533C50.2666 28.8676 48.418 25.0754 46.4609 21.0607L46.2478 20.624C45.9091 19.9303 45.6167 19.3312 45.2604 18.5746C45.0054 18.033 44.5549 17.6232 43.9915 17.4205C43.4283 17.218 42.8198 17.2468 42.2782 17.5018C41.7367 17.7568 41.3268 18.2074 41.1242 18.7707C40.9217 19.3341 40.9504 19.9424 41.2055 20.484C41.6487 21.4254 42.1054 22.3621 42.5471 23.2681L42.5664 23.3075C44.3768 27.0214 45.9404 30.2288 46.3974 33.2283C46.5561 34.2705 46.5559 35.186 46.3935 36.0116C45.9201 34.7761 45.2631 33.6215 44.4383 32.5973C44.1796 32.276 43.7094 32.2253 43.3881 32.484C43.0667 32.7428 43.016 33.213 43.2748 33.5343C44.8897 35.5395 45.779 38.1162 45.779 40.7896C45.779 42.6231 45.3594 44.4377 44.5655 46.0372C44.3113 46.5493 43.7979 46.8674 43.2256 46.8674C42.9949 46.8674 42.772 46.8148 42.5632 46.7113C41.8252 46.3449 41.5228 45.4466 41.8891 44.7088C42.4792 43.52 42.7911 42.1647 42.7911 40.7896C42.7911 36.396 39.6634 32.8216 35.8191 32.8216C34.9953 32.8216 34.3251 32.1514 34.3251 31.3276C34.3251 30.5038 34.9953 29.8336 35.8191 29.8336C37.6755 29.8336 39.488 30.4021 41.0608 31.4778C41.4013 31.7107 41.8662 31.6234 42.099 31.2828C42.3319 30.9423 42.2446 30.4775 41.9041 30.2446C40.0819 28.9983 37.9778 28.3396 35.819 28.3396C34.2382 28.3396 32.9411 29.5736 32.8383 31.1288C29.1419 32.5271 26.6061 36.4111 26.6061 40.7896C26.6061 42.9777 27.2213 45.0639 28.3851 46.8226C28.5289 47.0397 28.7665 47.1575 29.0087 47.1575C29.1503 47.1575 29.2934 47.1173 29.4203 47.0333C29.7643 46.8056 29.8586 46.3421 29.6309 45.998C28.6293 44.4846 28.1 42.6835 28.1 40.7895C28.1 37.127 30.1337 33.8778 33.1258 32.6212C33.6088 33.6227 34.6345 34.3155 35.819 34.3155C38.8395 34.3155 41.297 37.2197 41.297 40.7895C41.297 41.9354 41.0389 43.0609 40.5508 44.0445C40.0054 45.1433 40.2018 46.4195 40.9466 47.3024C39.5334 48.7274 37.7369 49.5044 35.819 49.5044C34.2927 49.5044 32.8168 49.0018 31.5509 48.0508C31.221 47.803 30.7527 47.8695 30.505 48.1994C30.2572 48.5293 30.3237 48.9975 30.6536 49.2453C32.1804 50.3922 33.9665 50.9984 35.819 50.9984C38.1883 50.9984 40.4768 49.9748 42.1826 48.1719C42.5163 48.2972 42.8657 48.3613 43.2255 48.3613C44.3692 48.3613 45.3955 47.7252 45.9037 46.7013C46.4837 45.5327 46.8855 44.2634 47.0975 42.954C50.2635 40.2691 51.4848 36.8641 50.8282 32.5533ZM47.8742 33.0033C47.383 29.7787 45.7732 26.4765 43.9092 22.6528L43.89 22.6134C43.4505 21.7119 42.996 20.7796 42.5571 19.8475C42.4721 19.667 42.4625 19.4641 42.5301 19.2765C42.5976 19.0887 42.7342 18.9384 42.9148 18.8535C43.0952 18.7685 43.2981 18.7588 43.4858 18.8264C43.6735 18.8939 43.8238 19.0306 43.9088 19.211C44.2695 19.9772 44.5641 20.5806 44.9053 21.2794L45.118 21.7154C47.0238 25.6249 48.824 29.3175 49.3512 32.7783C49.8352 35.9552 49.1533 38.5627 47.272 40.6991C47.267 39.9361 47.1973 39.1801 47.0661 38.4399C47.9338 36.9157 48.1988 35.134 47.8742 33.0033Z" fill="#134A85"/>
<path d="M40.1532 13.7815C40.3371 13.7815 40.5213 13.7587 40.7007 13.7136C41.8991 13.4123 42.629 12.1923 42.3278 10.9939C41.5558 7.92247 41.6415 5.34782 42.5897 3.12286C42.8243 2.57217 42.8306 1.96302 42.6071 1.40775C42.3837 0.852379 41.9574 0.417327 41.4069 0.182769C40.8563 -0.0520874 40.2472 -0.0583622 39.6916 0.16514C39.1362 0.388642 38.7012 0.814929 38.4665 1.36562C37.1203 4.52403 36.9616 8.03084 37.981 12.0865C38.2319 13.0845 39.1252 13.7815 40.1532 13.7815ZM39.8409 1.95136C39.9192 1.7678 40.0642 1.62567 40.2494 1.55117C40.3395 1.51492 40.4338 1.49679 40.5281 1.49679C40.6275 1.49679 40.7268 1.51691 40.821 1.55705C41.0045 1.63523 41.1466 1.78025 41.2211 1.96541C41.2956 2.15046 41.2935 2.35355 41.2152 2.53711C40.1343 5.07322 40.0243 7.95863 40.8787 11.3581C40.9791 11.7576 40.7358 12.1642 40.3364 12.2646C40.276 12.2799 40.2144 12.2875 40.1532 12.2875C39.811 12.2875 39.5136 12.0552 39.4299 11.7223C38.4929 7.99478 38.6274 4.79862 39.8409 1.95136Z" fill="#134A85"/>
<path d="M45.0877 14.8449C45.185 14.8449 45.284 14.8258 45.3793 14.7853L47.2129 14.0069C47.5926 13.8457 47.7699 13.4073 47.6086 13.0275C47.4475 12.6478 47.0092 12.4707 46.6291 12.6318L44.7955 13.4101C44.4158 13.5714 44.2385 14.0098 44.3998 14.3896C44.5206 14.6741 44.797 14.8449 45.0877 14.8449Z" fill="#134A85"/>
<path d="M42.0447 14.5781L40.2111 15.3565C39.8313 15.5177 39.6541 15.9562 39.8153 16.3359C39.9362 16.6204 40.2125 16.7912 40.5033 16.7912C40.6006 16.7912 40.6996 16.7721 40.7948 16.7317L42.6284 15.9533C43.0082 15.792 43.1854 15.3536 43.0242 14.9738C42.863 14.5941 42.4245 14.417 42.0447 14.5781Z" fill="#134A85"/>
<path d="M35.9189 18.7365C36.0162 18.7365 36.1152 18.7174 36.2104 18.6769L38.0442 17.8986C38.4238 17.7374 38.6011 17.299 38.4399 16.9192C38.2787 16.5394 37.8402 16.3623 37.4604 16.5234L35.6267 17.3016C35.247 17.4629 35.0697 17.9013 35.231 18.2811C35.3517 18.5658 35.6282 18.7365 35.9189 18.7365Z" fill="#134A85"/>
</g>
<defs>
<clipPath id="clip0_3020_6634">
<rect width="51" height="51" fill="white"/>
</clipPath>
</defs>
</svg>
