<svg width="51" height="51" viewBox="0 0 51 51" fill="none" xmlns="http://www.w3.org/2000/svg">
<g clip-path="url(#clip0_3059_12279)">
<path d="M50.7639 30.4654L48.1251 15.1792C47.7721 13.1339 46.3305 11.453 44.3627 10.7924L31.859 6.59474C31.6478 6.52392 31.5059 6.32649 31.5059 6.10367V1.95215C31.5059 1.53957 31.1715 1.20508 30.7588 1.20508C30.3461 1.20508 30.0117 1.53957 30.0117 1.95215V6.10367C30.0117 6.96917 30.563 7.73577 31.3834 8.01119L43.8872 12.2088C45.3335 12.6944 46.3932 13.93 46.6527 15.4334L49.2976 30.7552C49.3027 30.7845 49.3079 30.8083 49.3164 30.8368C49.3299 30.8843 50.6084 35.7122 46.1871 47.0984C46.0377 47.483 46.2284 47.9159 46.613 48.0652C46.9959 48.2139 47.4299 48.0256 47.5798 47.6393C52.0338 36.17 50.9191 31.0545 50.7639 30.4654Z" fill="#134A85"/>
<path d="M41.1381 21.7544C40.9814 21.2172 40.4847 20.8727 39.9244 20.9143C39.3662 20.9569 38.9247 21.3742 38.8511 21.9292L38.6423 23.5013H31.0551V21.4088C31.0551 20.1565 30.0363 19.1377 28.784 19.1377C27.5317 19.1377 26.5129 20.1565 26.5129 21.4088V23.5013H24.4871V21.4088C24.4871 20.1565 23.4683 19.1377 22.216 19.1377C20.9637 19.1377 19.9449 20.1565 19.9449 21.4088V23.5013H12.3576L12.1488 21.9292C12.0752 21.3742 11.6338 20.9569 11.0756 20.9143C10.5167 20.8726 10.0187 21.2173 9.86191 21.7543C9.13277 24.2519 7.76125 28.8316 6.76765 31.4417C6.57869 31.9381 6.58008 32.482 6.77173 32.9732C7.65955 35.2489 7.69471 38.4248 7.72888 41.4961C7.7476 43.1888 7.76533 44.7875 7.92501 46.1962C7.97152 46.6062 8.34157 46.901 8.75147 46.8544C9.16136 46.808 9.4561 46.4379 9.40959 46.028C9.25848 44.6949 9.24125 43.1331 9.22292 41.4796C9.18736 38.2743 9.1505 34.9599 8.16367 32.4303C8.10699 32.2849 8.10709 32.1227 8.16387 31.9734C8.98057 29.828 10.0219 26.4757 10.8674 23.629L11.7417 30.212V49.0487C11.7417 49.4613 12.0761 49.7958 12.4888 49.7958C12.9015 49.7958 13.2359 49.4613 13.2359 49.0487V43.777L14.812 44.2833C15.883 44.6284 17.0704 44.3775 17.9119 43.628L19.5841 42.1381C19.7092 42.0268 19.8703 41.9655 20.0377 41.9655H30.9627C31.1301 41.9655 31.2912 42.0268 31.416 42.1378L33.0885 43.628C33.6802 44.1551 34.4434 44.4357 35.2165 44.4357C35.9971 44.4357 36.3808 44.1872 37.7646 43.7771V49.0486C37.7646 49.4612 38.099 49.7957 38.5117 49.7957C38.9243 49.7957 39.2587 49.4612 39.2587 49.0486V30.2121L40.133 23.6292C40.9785 26.4758 42.0197 29.828 42.8365 31.9735C42.8933 32.1228 42.8934 32.285 42.8367 32.4303C41.8499 34.9599 41.8131 38.2743 41.7775 41.4796C41.7591 43.1331 41.7419 44.695 41.5908 46.028C41.5443 46.438 41.839 46.808 42.2489 46.8544C42.6584 46.9011 43.0289 46.6062 43.0754 46.1962C43.235 44.7875 43.2527 43.1888 43.2715 41.4961C43.3057 38.4248 43.3408 35.249 44.2286 32.9732C44.4203 32.482 44.4217 31.9381 44.2328 31.4417C43.2387 28.8315 41.8673 24.2519 41.1381 21.7544ZM37.7642 38.933H35.7693C35.6072 38.933 35.4755 38.8012 35.4755 38.6391V31.0588C35.4755 29.8796 36.4349 28.9201 37.6141 28.9201H37.9227L37.7707 30.0643C37.7663 30.0969 37.7642 30.1298 37.7642 30.1627V38.933ZM26.5128 24.9954V40.4714H24.487V24.9954H26.5128ZM22.2159 20.6318C22.6444 20.6318 22.9929 20.9804 22.9929 21.4089V40.4715H21.4388V21.4089C21.4388 20.9805 21.7873 20.6318 22.2159 20.6318ZM13.2291 30.0643L13.0771 28.9201H13.3856C14.5649 28.9201 15.5242 29.8796 15.5242 31.0588V38.6391C15.5242 38.8011 15.3924 38.933 15.2304 38.933H13.2356V30.1627C13.2357 30.1298 13.2335 30.0969 13.2291 30.0643ZM18.5902 41.0224L16.9178 42.5124C16.4703 42.911 15.8392 43.0446 15.2695 42.861L13.2356 42.2076V40.427H15.2304C16.2162 40.427 17.0183 39.625 17.0183 38.6391V31.0588C17.0183 29.0557 15.3887 27.426 13.3856 27.426H12.8787L12.5558 24.9954H19.9447V40.4757C19.4442 40.497 18.9662 40.6877 18.5902 41.0224ZM35.7294 42.8613C35.1608 43.0447 34.5294 42.911 34.0819 42.5125L32.4092 41.0221C32.0334 40.6877 31.5554 40.497 31.0549 40.4757V32.705C31.0549 32.2924 30.7205 31.9579 30.3078 31.9579C29.8952 31.9579 29.5608 32.2924 29.5608 32.705V40.4714H28.0068V21.4089C28.0068 20.9805 28.3553 20.6318 28.7838 20.6318C29.2123 20.6318 29.5609 20.9804 29.5609 21.4089V29.2188C29.5609 29.6313 29.8953 29.9658 30.3079 29.9658C30.7206 29.9658 31.055 29.6313 31.055 29.2188V24.9954H38.4438L38.121 27.426H37.614C35.6108 27.426 33.9812 29.0557 33.9812 31.0588V38.6391C33.9812 39.625 34.7834 40.427 35.7692 40.427H37.7641V42.2078L35.7294 42.8613Z" fill="#134A85"/>
<path d="M1.70223 30.7552L4.34716 15.4333C4.60664 13.9299 5.66628 12.6945 7.11261 12.2089L12.0334 10.5569C12.4246 10.4257 12.6353 10.0021 12.504 9.61106C12.3727 9.21989 11.9491 9.00932 11.558 9.1406L6.63718 10.7925C4.66939 11.4531 3.22785 13.134 2.87483 15.1792L0.23608 30.4654C0.0808881 31.0544 -1.03374 36.1698 3.41989 47.6392C3.53464 47.935 3.81714 48.1161 4.11646 48.1161C4.63861 48.1161 5.00338 47.5894 4.81263 47.0983C0.391271 35.7121 1.66996 30.8842 1.68191 30.8419C1.69038 30.8135 1.69725 30.7845 1.70223 30.7552Z" fill="#134A85"/>
<path d="M15.1008 9.4865C15.1796 9.4865 15.2598 9.47395 15.3386 9.44745L19.6168 8.01129C20.4372 7.73587 20.9885 6.96927 20.9885 6.10377V1.95215C20.9885 1.53957 20.6541 1.20508 20.2414 1.20508C19.8287 1.20508 19.4943 1.53957 19.4943 1.95215V6.10367C19.4943 6.32649 19.3524 6.52382 19.1412 6.59474L14.8631 8.03101C14.4719 8.16229 14.2613 8.58583 14.3925 8.977C14.4974 9.28928 14.7886 9.4865 15.1008 9.4865Z" fill="#134A85"/>
</g>
<defs>
<clipPath id="clip0_3059_12279">
<rect width="51" height="51" fill="white"/>
</clipPath>
</defs>
</svg>
