<svg width="74" height="74" viewBox="0 0 74 74" fill="none" xmlns="http://www.w3.org/2000/svg">
<g filter="url(#filter0_d_5003_6203)">
<rect x="6" y="4" width="58" height="58" rx="29" fill="white"/>
<rect x="6.39726" y="4.39726" width="57.2055" height="57.2055" rx="28.6027" stroke="url(#paint0_linear_5003_6203)" stroke-width="0.794521"/>
<g clip-path="url(#clip0_5003_6203)">
<path d="M55.4856 31.5575L51.6261 31.806C51.2869 31.8278 51.0297 32.1204 51.0516 32.4594C51.0726 32.7851 51.3432 33.0352 51.665 33.0352C51.6782 33.0352 51.6917 33.0348 51.7051 33.0339L55.5646 32.7854C55.9037 32.7636 56.161 32.471 56.1391 32.132C56.1173 31.7929 55.8241 31.535 55.4856 31.5575Z" fill="#213C73"/>
<path d="M48.7619 31.9915L42.639 32.3861C42.3725 32.4033 42.1336 32.5811 42.0681 32.84C42.0034 33.0962 42.0958 33.3556 42.3169 33.4983C42.3661 33.5408 42.6897 33.8388 43.0837 34.6411C43.4804 35.4489 44.029 36.9418 44.3902 39.4675C45.1092 44.4994 41.1161 53.0364 41.0756 53.122C40.9306 53.4293 41.0621 53.796 41.3694 53.941C41.4542 53.9811 41.5436 54 41.6315 54C41.8621 54 42.0833 53.8698 42.1883 53.6474C42.3597 53.2842 46.3795 44.6912 45.6083 39.2933C45.1695 36.2252 44.4538 34.4888 43.8855 33.5387L48.841 33.2194C49.1801 33.1975 49.4373 32.905 49.4154 32.5658C49.3936 32.2269 49.1038 31.9696 48.7619 31.9915Z" fill="#213C73"/>
<path d="M28.8137 27.4874C28.7405 27.0129 28.7035 26.5301 28.7035 26.0527C28.7035 21.539 31.9233 17.6603 36.3594 16.8302L37.6358 16.5915C37.9698 16.529 38.19 16.2076 38.1274 15.8736C38.065 15.5396 37.7426 15.3193 37.4096 15.382L36.1332 15.6207C31.1152 16.5597 27.4731 20.947 27.4731 26.0527C27.4731 26.5927 27.5151 27.1383 27.5977 27.675L31.5868 53.4786C31.6339 53.7826 31.8959 53.9999 32.1941 53.9999C32.2253 53.9999 32.257 53.9975 32.2888 53.9926C32.6246 53.9406 32.8547 53.6263 32.8029 53.2905L28.8137 27.4874Z" fill="#213C73"/>
<path d="M56.1302 12.502C56.0676 12.1681 55.7463 11.9482 55.4122 12.0106L40.2316 14.8538C39.8976 14.9164 39.6775 15.2378 39.7401 15.5718C39.7956 15.8674 40.0538 16.0738 40.3441 16.0738C40.3817 16.0738 40.4198 16.0704 40.4581 16.0632L55.6388 13.22C55.9728 13.1575 56.1928 12.836 56.1302 12.502Z" fill="#213C73"/>
<path d="M17.815 28.368C17.815 28.5783 17.9224 28.7739 18.0997 28.8869C18.2001 28.9508 18.3149 28.9833 18.4302 28.9833C18.5188 28.9833 18.6076 28.9642 18.6903 28.9256L25.2224 25.8789C25.4839 25.757 25.6255 25.4698 25.563 25.1881C25.5005 24.9065 25.2508 24.7061 24.9624 24.7061H21.9033V22.2747C21.9033 22.0644 21.7959 21.8688 21.6186 21.7558C21.4414 21.6429 21.2184 21.6282 21.028 21.7171L14.4959 24.7637C14.2344 24.8856 14.0928 25.1728 14.1553 25.4545C14.2178 25.7361 14.4675 25.9365 14.7559 25.9365H17.815V28.368ZM17.5305 24.7061L20.6728 23.2404V25.3213C20.6728 25.6612 20.9482 25.9365 21.288 25.9365H22.1879L19.0456 27.4022V25.3213C19.0456 24.9814 18.7702 24.7061 18.4303 24.7061H17.5305Z" fill="#213C73"/>
<path d="M18.7545 15.2134L17.0352 16.9327C16.8865 17.0814 16.8241 17.2957 16.8695 17.501C16.9151 17.7063 17.0623 17.8741 17.2598 17.946L24.0331 20.4105C24.1021 20.4356 24.1731 20.4477 24.2432 20.4477C24.4488 20.4477 24.6468 20.3442 24.7623 20.1629C24.9173 19.9196 24.8824 19.6013 24.6785 19.3973L22.5153 17.2342L24.2347 15.5149C24.3834 15.3662 24.4458 15.1519 24.4003 14.9466C24.3548 14.7413 24.2076 14.5735 24.01 14.5016L17.2368 12.0371C16.9658 11.9386 16.6625 12.0414 16.5075 12.2847C16.3525 12.528 16.3874 12.8463 16.5913 13.0503L18.7545 15.2134ZM22.6816 15.3277L21.2102 16.7991C20.9699 17.0394 20.9699 17.4289 21.2102 17.6692L21.8465 18.3054L18.5882 17.1198L20.0596 15.6485C20.2998 15.4082 20.2998 15.0187 20.0596 14.7784L19.4233 14.1422L22.6816 15.3277Z" fill="#213C73"/>
<path d="M25.3008 31.1637L22.623 32.6422L21.4479 30.5132C21.3463 30.3292 21.1578 30.2097 20.9479 30.1965C20.7394 30.1834 20.5361 30.2781 20.4121 30.448L16.1654 36.2722C15.9956 36.5054 16.0103 36.8252 16.2011 37.0416C16.3918 37.2579 16.7077 37.3127 16.9599 37.1734L19.6386 35.6947L20.8137 37.8237C20.9153 38.0078 21.1039 38.1272 21.3137 38.1404C21.3267 38.1412 21.3395 38.1417 21.3524 38.1417C21.5483 38.1417 21.7333 38.0482 21.8496 37.8888L22.5599 36.9143C22.7601 36.6397 22.6998 36.2549 22.4252 36.0548C22.1507 35.8547 21.7658 35.9148 21.5656 36.1896L21.4242 36.3835L20.4185 34.5616C20.3396 34.4187 20.2073 34.313 20.0505 34.2677C19.8938 34.2227 19.7254 34.2413 19.5826 34.3202L18.7945 34.7552L20.8375 31.9535L21.8432 33.7756C21.9221 33.9185 22.0545 34.0242 22.2112 34.0695C22.3682 34.1147 22.5364 34.0957 22.6792 34.0169L23.466 33.5825L23.2571 33.8688C23.057 34.1434 23.1173 34.5283 23.3918 34.7284C23.6664 34.9284 24.0511 34.8684 24.2514 34.5937L26.0954 32.0647C26.2653 31.8316 26.2505 31.5117 26.0596 31.2953C25.8688 31.0788 25.5532 31.0241 25.3008 31.1637Z" fill="#213C73"/>
<path d="M36.8441 18.9794C36.6038 19.2199 36.604 19.6093 36.8444 19.8495C38.0694 21.0736 38.7439 22.7021 38.7439 24.4351C38.7439 28.0121 35.8339 30.9222 32.2568 30.9222C31.917 30.9222 31.6416 31.1976 31.6416 31.5374C31.6416 31.8773 31.917 32.1527 32.2568 32.1527C36.5123 32.1527 39.9744 28.6905 39.9744 24.4351C39.9744 22.3733 39.1717 20.4356 37.7141 18.9792C37.4738 18.7389 37.0842 18.7391 36.8441 18.9794Z" fill="#213C73"/>
<path d="M32.2568 29.5053C35.0529 29.5053 37.3276 27.2309 37.3276 24.4353C37.3276 23.0815 36.8001 21.8084 35.8423 20.8506C35.602 20.6104 35.2125 20.6104 34.9722 20.8506C34.732 21.0909 34.732 21.4804 34.9722 21.7207C35.6977 22.4461 36.0972 23.4102 36.0972 24.4353C36.0972 26.5524 34.3744 28.2748 32.2568 28.2748C31.917 28.2748 31.6416 28.5502 31.6416 28.89C31.6415 29.2298 31.917 29.5053 32.2568 29.5053Z" fill="#213C73"/>
<path d="M34.7979 24.5241C34.7979 23.1723 33.6981 22.0725 32.3462 22.0725C30.9943 22.0725 29.8945 23.1722 29.8945 24.5241C29.8945 25.876 30.9943 26.9758 32.3462 26.9758C33.6981 26.9758 34.7979 25.876 34.7979 24.5241ZM31.1251 24.5241C31.1251 23.8508 31.6729 23.303 32.3463 23.303C33.0197 23.303 33.5675 23.8508 33.5675 24.5241C33.5675 25.1975 33.0197 25.7453 32.3463 25.7453C31.6728 25.7453 31.1251 25.1975 31.1251 24.5241Z" fill="#213C73"/>
</g>
</g>
<defs>
<filter id="filter0_d_5003_6203" x="0" y="0" width="74" height="74" filterUnits="userSpaceOnUse" color-interpolation-filters="sRGB">
<feFlood flood-opacity="0" result="BackgroundImageFix"/>
<feColorMatrix in="SourceAlpha" type="matrix" values="0 0 0 0 0 0 0 0 0 0 0 0 0 0 0 0 0 0 127 0" result="hardAlpha"/>
<feOffset dx="2" dy="4"/>
<feGaussianBlur stdDeviation="4"/>
<feComposite in2="hardAlpha" operator="out"/>
<feColorMatrix type="matrix" values="0 0 0 0 0.129412 0 0 0 0 0.235294 0 0 0 0 0.45098 0 0 0 0.16 0"/>
<feBlend mode="normal" in2="BackgroundImageFix" result="effect1_dropShadow_5003_6203"/>
<feBlend mode="normal" in="SourceGraphic" in2="effect1_dropShadow_5003_6203" result="shape"/>
</filter>
<linearGradient id="paint0_linear_5003_6203" x1="64" y1="62" x2="6" y2="4" gradientUnits="userSpaceOnUse">
<stop stop-color="#54BE95"/>
<stop offset="0.288462" stop-color="#2E7B9A"/>
<stop offset="1" stop-color="#224075"/>
</linearGradient>
<clipPath id="clip0_5003_6203">
<rect width="42" height="42" fill="white" transform="translate(14.1406 12)"/>
</clipPath>
</defs>
</svg>
