<svg width="74" height="74" viewBox="0 0 74 74" fill="none" xmlns="http://www.w3.org/2000/svg">
<g filter="url(#filter0_d_5003_6423)">
<rect x="6" y="4" width="58" height="58" rx="29" fill="white"/>
<rect x="6.39726" y="4.39726" width="57.2055" height="57.2055" rx="28.6027" stroke="url(#paint0_linear_5003_6423)" stroke-width="0.794521"/>
<g clip-path="url(#clip0_5003_6423)">
<path d="M19.2832 39.2267C19.4915 39.2267 19.6894 39.1275 19.8137 38.9567C19.9525 38.766 19.9784 38.5154 19.8812 38.3004L19.3721 37.1727L22.3402 37.5064C22.7014 37.5471 23.0252 37.2878 23.0658 36.9276C23.1062 36.5674 22.8471 36.2427 22.487 36.2021L18.3728 35.7394C18.1381 35.7133 17.9076 35.8146 17.7688 36.0053C17.63 36.196 17.6042 36.4466 17.7013 36.6616L18.2105 37.7894L14.8703 37.4137C14.5101 37.3735 14.1853 37.6324 14.1448 37.9926C14.1043 38.3528 14.3635 38.6775 14.7237 38.718L19.2098 39.2225C19.2344 39.2253 19.2589 39.2266 19.2833 39.2266L19.2832 39.2267Z" fill="#213C73"/>
<path d="M22.5946 39.7715L18.8896 41.6193C18.6784 41.7246 18.54 41.9351 18.5272 42.1707C18.5143 42.4063 18.6288 42.6307 18.8272 42.7584L19.8676 43.4282L16.8596 44.9283C16.5353 45.0901 16.4035 45.4842 16.5652 45.8085C16.6801 46.0388 16.9121 46.172 17.153 46.172C17.2514 46.172 17.3513 46.1498 17.4453 46.1029L21.4854 44.088C21.6965 43.9827 21.8349 43.7722 21.8478 43.5366C21.8607 43.301 21.7462 43.0767 21.5478 42.9489L20.5074 42.2791L23.1803 40.9461C23.5047 40.7843 23.6365 40.3902 23.4747 40.0659C23.3129 39.7415 22.9188 39.6098 22.5946 39.7715Z" fill="#213C73"/>
<path d="M18.3047 32.9056C18.4514 33.0903 18.6859 33.1821 18.9192 33.1457C19.1524 33.1094 19.3481 32.9508 19.4318 32.7302L19.871 31.5734L21.73 33.9113C21.8595 34.0743 22.0509 34.1592 22.244 34.1592C22.3872 34.1592 22.5313 34.1126 22.6521 34.0165C22.9358 33.7909 22.9829 33.3781 22.7573 33.0944L20.1806 29.8537C20.0339 29.6691 19.7995 29.5776 19.5661 29.6136C19.3329 29.6499 19.1372 29.8086 19.0535 30.0291L18.6142 31.1859L16.5224 28.5549C16.2969 28.2711 15.8841 28.2241 15.6004 28.4495C15.3167 28.6751 15.2696 29.088 15.4952 29.3717L18.3047 32.9054L18.3047 32.9056Z" fill="#213C73"/>
<path d="M31.0662 46.4322C30.5917 43.9017 29.7124 42.2561 28.9365 40.8042C27.9798 39.0136 27.1535 37.4672 27.1722 34.5978C27.1907 31.7673 29.0811 26.0938 30.6 21.5351L30.8594 20.7559C33.0394 14.1998 33.4812 12.8767 33.4855 12.8641C33.6003 12.5203 33.4148 12.1485 33.0709 12.0337C32.7272 11.9189 32.3554 12.1046 32.2406 12.4482C32.2363 12.4608 31.7945 13.7838 29.6139 20.3417L29.3547 21.1201C27.8064 25.767 25.8795 31.5502 25.8597 34.5892C25.8388 37.7918 26.7812 39.5555 27.7789 41.4227C28.5458 42.8579 29.3388 44.342 29.7761 46.674C30.2076 48.9753 30.7444 51.2788 31.3713 53.5204C31.4524 53.8104 31.7159 54.0001 32.003 54.0001C32.0614 54.0001 32.1209 53.9922 32.1801 53.9756C32.5291 53.878 32.7329 53.5159 32.6353 53.1669C32.0185 50.962 31.4906 48.696 31.0661 46.4321L31.0662 46.4322Z" fill="#213C73"/>
<path d="M55.8101 12.0866C55.4954 11.9066 55.0945 12.0159 54.9147 12.3305C54.8731 12.4031 50.7256 19.666 47.5871 26.0979C47.4282 26.4236 47.5634 26.8165 47.8892 26.9755C47.9818 27.0207 48.0798 27.0421 48.1765 27.0421C48.4194 27.0421 48.6531 26.9066 48.7667 26.6734C51.8859 20.2809 56.0126 13.0543 56.0539 12.9821C56.2338 12.6675 56.1247 12.2665 55.8101 12.0866Z" fill="#213C73"/>
<path d="M46.6708 40.8851C45.8405 39.3296 45.292 38.3019 45.292 35.662C45.292 34.9706 45.7002 33.2597 47.6445 29.0357C47.7961 28.7064 47.652 28.3167 47.3228 28.1652C46.9938 28.0136 46.6038 28.1576 46.4523 28.4869C44.7884 32.1016 43.9795 34.4486 43.9795 35.662C43.9795 38.6303 44.6562 39.8981 45.5128 41.5031C46.2406 42.8667 47.1464 44.5638 47.9608 48.0075C48.2838 49.3729 48.4057 53.3238 48.4069 53.3635C48.4175 53.719 48.7092 54.0001 49.0625 54.0001C49.0691 54.0001 49.0758 54.0001 49.0825 53.9998C49.4447 53.9889 49.7296 53.6865 49.7187 53.3242C49.7137 53.1566 49.5915 49.1997 49.2381 47.7054C48.3846 44.096 47.4343 42.3157 46.6708 40.8852V40.8851Z" fill="#213C73"/>
<path d="M30.1284 40.5219C30.254 40.5328 30.3824 40.5387 30.5099 40.5392H30.5128C30.8738 40.5392 31.1673 40.2472 31.169 39.8858C31.1706 39.5234 30.878 39.2283 30.5156 39.2267C30.4239 39.2263 30.3318 39.2221 30.2418 39.2143C29.8799 39.183 29.5626 39.4503 29.5313 39.8113C29.4999 40.1724 29.7672 40.4905 30.1283 40.5219L30.1284 40.5219Z" fill="#213C73"/>
<path d="M34.0139 37.8944C33.7311 37.6677 33.3182 37.7131 33.0915 37.9959C32.9685 38.1493 32.8309 38.2925 32.6824 38.4218C32.4091 38.6598 32.3803 39.0743 32.6183 39.3477C32.7481 39.4967 32.9304 39.5731 33.1135 39.5731C33.2664 39.5731 33.4198 39.52 33.5442 39.4118C33.7515 39.2313 33.9438 39.0312 34.1155 38.817C34.3423 38.5342 34.2968 38.1212 34.014 37.8945L34.0139 37.8944Z" fill="#213C73"/>
<path d="M34.2235 34.4289C33.87 34.5093 33.6489 34.8611 33.7294 35.2145C33.7728 35.405 33.7992 35.6015 33.8078 35.7985C33.8232 36.1509 34.1137 36.4261 34.4629 36.4261C34.4725 36.4261 34.4822 36.4259 34.492 36.4254C34.8541 36.4096 35.1348 36.1032 35.119 35.7411C35.107 35.4654 35.0699 35.1902 35.0091 34.9229C34.9286 34.5695 34.577 34.3482 34.2235 34.4288V34.4289Z" fill="#213C73"/>
<path d="M33.2242 32.2247C33.0013 32.0631 32.7627 31.9208 32.5151 31.802C32.1883 31.6451 31.7963 31.7829 31.6395 32.1096C31.4826 32.4363 31.6204 32.8283 31.9471 32.9852C32.1239 33.0701 32.2943 33.1715 32.4535 33.287C32.5699 33.3715 32.7047 33.4121 32.8382 33.4121C33.0414 33.4121 33.2416 33.3181 33.3699 33.141C33.5828 32.8476 33.5174 32.4373 33.2241 32.2245L33.2242 32.2247Z" fill="#213C73"/>
<path d="M30.0936 31.9768C29.9956 31.628 29.6335 31.4245 29.2843 31.5226C29.1622 31.5569 29.0398 31.5969 28.9204 31.6415C28.5809 31.7683 28.4085 32.1464 28.5353 32.486C28.6339 32.7498 28.8842 32.9127 29.1502 32.9127C29.2265 32.9127 29.304 32.8993 29.3798 32.871C29.465 32.8392 29.5523 32.8106 29.6395 32.7861C29.9883 32.6881 30.1917 32.3257 30.0936 31.9768Z" fill="#213C73"/>
</g>
</g>
<defs>
<filter id="filter0_d_5003_6423" x="0" y="0" width="74" height="74" filterUnits="userSpaceOnUse" color-interpolation-filters="sRGB">
<feFlood flood-opacity="0" result="BackgroundImageFix"/>
<feColorMatrix in="SourceAlpha" type="matrix" values="0 0 0 0 0 0 0 0 0 0 0 0 0 0 0 0 0 0 127 0" result="hardAlpha"/>
<feOffset dx="2" dy="4"/>
<feGaussianBlur stdDeviation="4"/>
<feComposite in2="hardAlpha" operator="out"/>
<feColorMatrix type="matrix" values="0 0 0 0 0.129412 0 0 0 0 0.235294 0 0 0 0 0.45098 0 0 0 0.16 0"/>
<feBlend mode="normal" in2="BackgroundImageFix" result="effect1_dropShadow_5003_6423"/>
<feBlend mode="normal" in="SourceGraphic" in2="effect1_dropShadow_5003_6423" result="shape"/>
</filter>
<linearGradient id="paint0_linear_5003_6423" x1="64" y1="62" x2="6" y2="4" gradientUnits="userSpaceOnUse">
<stop stop-color="#54BE95"/>
<stop offset="0.288462" stop-color="#2E7B9A"/>
<stop offset="1" stop-color="#224075"/>
</linearGradient>
<clipPath id="clip0_5003_6423">
<rect width="42" height="42" fill="white" transform="translate(14.1406 12)"/>
</clipPath>
</defs>
</svg>
