<svg width="74" height="74" viewBox="0 0 74 74" fill="none" xmlns="http://www.w3.org/2000/svg">
<g filter="url(#filter0_d_5003_6161)">
<rect x="6" y="4" width="58" height="58" rx="29" fill="white"/>
<rect x="6.39726" y="4.39726" width="57.2055" height="57.2055" rx="28.6027" stroke="url(#paint0_linear_5003_6161)" stroke-width="0.794521"/>
<path d="M27.4644 25.9723C27.6439 25.4176 28.2388 25.1133 28.7935 25.2926C29.3483 25.4722 29.6527 26.0679 29.4731 26.6227L28.9302 28.2994L28.9185 28.3365L28.9233 28.3756L29.1069 29.775C29.1231 29.899 29.117 30.0248 29.0894 30.1461L29.0542 30.2662L28.4087 32.0748C28.2548 32.5064 27.8485 32.7759 27.4146 32.776C27.297 32.776 27.1767 32.7564 27.0591 32.7145C26.5101 32.5184 26.2235 31.914 26.4194 31.3649L26.9653 29.8356L26.98 29.7965L26.9741 29.7545L26.7935 28.3746C26.7732 28.2194 26.7882 28.0615 26.8364 27.9127L27.4644 25.9723Z" fill="#213C73" stroke="white" stroke-width="0.35"/>
<path d="M47.2002 22.0559C47.7792 21.9944 48.2996 22.4148 48.3613 22.9944C48.4229 23.5742 48.0028 24.0949 47.4229 24.1565L45.8643 24.3215C45.6671 24.3425 45.4752 24.4105 45.3086 24.5178L44.4453 25.0735C43.8964 25.4273 43.2635 25.6145 42.6113 25.6145C42.5974 25.6145 42.5832 25.6137 42.5693 25.6135L40.9082 25.594C40.3253 25.5868 39.8583 25.1085 39.8652 24.5256C39.8723 23.9427 40.348 23.4768 40.9336 23.4827L42.5947 23.5022C42.8459 23.5062 43.0912 23.4348 43.3018 23.2991L44.1641 22.7434C44.6067 22.458 45.1179 22.2775 45.6416 22.2219L47.2002 22.0559Z" fill="#213C73" stroke="white" stroke-width="0.35"/>
<path d="M38.7095 34.1212C38.9094 33.5735 39.5156 33.2917 40.063 33.4913L41.5356 34.0284C42.0302 34.2089 42.4827 34.5078 42.8433 34.8917L43.5464 35.6398C43.6754 35.777 43.8312 35.8835 44.0044 35.9523L44.1821 36.0079L45.7993 36.3898C46.3666 36.5241 46.7176 37.093 46.5835 37.6603C46.4687 38.1458 46.0356 38.4737 45.5571 38.4738C45.4768 38.4738 45.3948 38.4648 45.313 38.4454L43.6968 38.0626C43.0478 37.9092 42.4628 37.5712 42.0063 37.0851L41.3042 36.337C41.2024 36.2287 41.0814 36.1384 40.9487 36.0714L40.812 36.0128L39.3394 35.4747C38.826 35.2873 38.5457 34.7433 38.6772 34.2247L38.7095 34.1212Z" fill="#213C73" stroke="white" stroke-width="0.35"/>
<path d="M40.2822 28.3112C41.3344 27.8135 42.5675 28.0565 43.3525 28.9156L43.5713 29.1549C43.711 29.3077 43.9281 29.3638 44.125 29.2965L44.9297 29.0221C45.4813 28.8342 46.0812 29.1296 46.2695 29.6813C46.4576 30.2329 46.163 30.8327 45.6113 31.0211L44.8066 31.2955C44.528 31.3904 44.2412 31.4361 43.957 31.4362C43.2298 31.4362 42.5195 31.1347 42.0117 30.5787L41.7939 30.3405C41.6387 30.1705 41.3926 30.1219 41.1846 30.2203L40.8506 30.3785C40.3235 30.6279 39.6936 30.4028 39.4443 29.8756C39.195 29.3485 39.4203 28.7188 39.9473 28.4694L40.2822 28.3112Z" fill="#213C73" stroke="white" stroke-width="0.35"/>
<path d="M20.9697 12.1748C20.9749 12.5521 20.9933 13.502 21.0742 14.6543C21.1781 16.1331 21.383 17.9597 21.7871 19.3359C22.6417 22.2467 22.6936 23.4859 22.0889 24.9609C21.6613 26.0035 20.3392 29.2198 21.3486 32.8105C21.5507 33.529 21.7828 34.3149 22.0273 35.1455C22.5884 37.0509 23.1652 39.0099 23.4443 40.3584C23.6486 41.3451 23.7325 42.5233 23.6299 43.6602C23.527 44.7992 23.2381 45.8823 22.709 46.6895L22.708 46.6914C22.5995 46.8619 22.4711 47.181 22.3496 47.5635C22.2264 47.9515 22.1043 48.4213 22.0117 48.9033C21.9193 49.3845 21.8555 49.8829 21.8496 50.3271C21.8438 50.7651 21.8935 51.1777 22.0518 51.4668C22.0745 51.5083 22.116 51.5894 22.209 51.6445C22.2965 51.6964 22.4069 51.7127 22.542 51.7129H48.5488L48.5908 51.6885C48.7166 51.6126 48.8947 51.4368 49.041 51.1992C49.1898 50.9576 49.3154 50.636 49.3154 50.2637C49.3154 49.6611 49.1703 49.1779 48.8438 48.8721C48.6188 48.6615 48.3004 48.522 47.917 48.4424C47.5324 48.3626 47.0705 48.3404 46.5449 48.375C46.2475 48.3945 45.9525 48.4043 45.6621 48.4043C42.1062 48.4043 39.1446 47.0303 38.1113 46.5508C36.9435 46.0089 36.0793 45.7779 34.5791 45.6016C33.947 45.5272 33.5864 45.0866 33.3682 44.501C33.1484 43.9112 33.0902 43.215 33.0488 42.707C32.9619 41.639 32.945 40.1531 32.999 38.2891C33.1038 34.6747 33.4347 30.8453 33.5 30.1143C33.6013 28.9788 33.6631 27.8466 33.7178 26.8506C33.81 25.1704 33.889 23.7422 34.1152 22.7441C34.2788 22.0228 34.6363 21.4645 35 20.8994C35.5458 20.0516 36.0778 19.2246 36.1143 17.585C36.1281 16.9543 35.872 16.3081 35.5811 15.7852C35.2887 15.2597 34.9489 14.8364 34.7656 14.6465C34.5794 14.4536 34.4737 14.1969 34.4697 13.9287L34.4434 12.1748H36.5547L36.5742 13.4473L36.5752 13.5078L36.6133 13.5547C37.1959 14.269 38.2656 15.8352 38.2256 17.6328C38.1758 19.8677 37.3723 21.1148 36.7754 22.042V22.043C36.5013 22.4689 36.2585 22.842 36.1748 23.2109C35.9863 24.0427 35.9116 25.4111 35.8262 26.9658C35.7703 27.9823 35.7071 29.1313 35.6025 30.3018C35.547 30.9244 35.2636 34.1971 35.1377 37.5088C34.9943 41.2792 35.1494 42.8277 35.2656 43.4395L35.2891 43.5625L35.4121 43.5801C36.8074 43.7808 37.7954 44.0768 39 44.6357C40.7075 45.4282 43.349 46.4685 46.4062 46.2676C48.1316 46.1543 49.4255 46.5242 50.2871 47.3311C51.027 48.024 51.4268 49.0325 51.4268 50.2637C51.4267 51.1622 51.0707 52.0578 50.5312 52.7285C49.9896 53.4019 49.2841 53.8251 48.5967 53.8252H22.5381C21.4901 53.8234 20.6625 53.3394 20.1904 52.4639C19.6998 51.5537 19.6008 50.2295 19.9336 48.5029C20.1663 47.296 20.5861 46.075 20.9424 45.5312C21.261 45.0453 21.4563 44.29 21.5303 43.4541C21.6047 42.6132 21.5584 41.6677 21.376 40.7861C21.1137 39.5192 20.5461 37.5934 20.001 35.7422C19.754 34.9037 19.5217 34.1125 19.3164 33.3818C18.8027 31.5542 18.7289 29.6028 19.0996 27.5811C19.3968 25.9608 19.8939 24.7465 20.1348 24.1592C20.2901 23.7802 20.4094 23.4243 20.3779 22.8027C20.347 22.1934 20.1718 21.3306 19.7607 19.9307C18.9567 17.1924 18.8676 13.0831 18.8574 12.1748H20.9697Z" fill="#213C73" stroke="white" stroke-width="0.35"/>
</g>
<defs>
<filter id="filter0_d_5003_6161" x="0" y="0" width="74" height="74" filterUnits="userSpaceOnUse" color-interpolation-filters="sRGB">
<feFlood flood-opacity="0" result="BackgroundImageFix"/>
<feColorMatrix in="SourceAlpha" type="matrix" values="0 0 0 0 0 0 0 0 0 0 0 0 0 0 0 0 0 0 127 0" result="hardAlpha"/>
<feOffset dx="2" dy="4"/>
<feGaussianBlur stdDeviation="4"/>
<feComposite in2="hardAlpha" operator="out"/>
<feColorMatrix type="matrix" values="0 0 0 0 0.129412 0 0 0 0 0.235294 0 0 0 0 0.45098 0 0 0 0.16 0"/>
<feBlend mode="normal" in2="BackgroundImageFix" result="effect1_dropShadow_5003_6161"/>
<feBlend mode="normal" in="SourceGraphic" in2="effect1_dropShadow_5003_6161" result="shape"/>
</filter>
<linearGradient id="paint0_linear_5003_6161" x1="64" y1="62" x2="6" y2="4" gradientUnits="userSpaceOnUse">
<stop stop-color="#54BE95"/>
<stop offset="0.288462" stop-color="#2E7B9A"/>
<stop offset="1" stop-color="#224075"/>
</linearGradient>
</defs>
</svg>
