<svg width="74" height="74" viewBox="0 0 74 74" fill="none" xmlns="http://www.w3.org/2000/svg">
<g filter="url(#filter0_d_5003_6551)">
<rect x="6" y="4" width="58" height="58" rx="29" fill="white"/>
<rect x="6.39726" y="4.39726" width="57.2055" height="57.2055" rx="28.6027" stroke="url(#paint0_linear_5003_6551)" stroke-width="0.794521"/>
<g clip-path="url(#clip0_5003_6551)">
<path d="M33.8745 13.0081C33.5552 12.9557 33.2538 13.1718 33.2011 13.491L31.6902 22.6647C31.5187 23.7057 31.4738 24.7669 31.5566 25.8188L31.7621 28.4281C31.8485 29.5241 31.65 30.6307 31.1885 31.6284C30.4709 33.1794 30.2979 34.948 30.7011 36.6087C31.1829 38.5921 31.3021 40.625 31.0558 42.6509L29.8774 52.3435C29.8383 52.6647 30.0671 52.9568 30.3883 52.9959C30.4124 52.9988 30.4362 53.0003 30.4598 53.0003C30.7518 53.0003 31.0046 52.7821 31.0407 52.485L32.2192 42.7924C32.4825 40.6263 32.355 38.4528 31.84 36.3322C31.4989 34.9278 31.6453 33.4321 32.2521 32.1205C32.7979 30.9407 33.0325 29.6321 32.9305 28.3361L32.7249 25.7267C32.6495 24.769 32.6903 23.8029 32.8465 22.855L34.3574 13.6814C34.41 13.3621 34.1938 13.0607 33.8745 13.0081Z" fill="#213C73"/>
<path d="M22.8653 45.6131C21.8861 41.586 21.7603 37.4758 22.4914 33.3964L22.6874 32.3027C22.8398 31.4521 22.9171 30.5827 22.9171 29.7188V26.9863C22.9171 26.1405 22.7624 25.3117 22.4577 24.5227L21.6216 22.3588C21.4508 21.9168 21.336 21.454 21.2802 20.9834L21.1869 20.1949C21.1489 19.8736 20.8575 19.6439 20.5361 19.682C20.2148 19.72 19.9851 20.0114 20.0232 20.3328L20.1165 21.1212C20.1838 21.6892 20.3224 22.2477 20.5285 22.7812L21.3646 24.945C21.6171 25.5987 21.7452 26.2855 21.7452 26.9863V29.7188C21.7452 30.5136 21.6741 31.3134 21.5339 32.096L21.3378 33.1898C20.5778 37.4306 20.7086 41.7036 21.7267 45.89L23.3467 52.5526C23.4119 52.8205 23.6516 53.0002 23.9156 53.0002C23.9614 53.0002 24.0081 52.9948 24.0545 52.9835C24.369 52.907 24.5619 52.5901 24.4855 52.2757L22.8653 45.6131Z" fill="#213C73"/>
<path d="M20.3527 18.1319C20.674 18.0939 20.9037 17.8026 20.8657 17.4812L20.3964 13.5171C20.3583 13.1958 20.0669 12.966 19.7456 13.0041C19.4243 13.0422 19.1946 13.3335 19.2326 13.6549L19.7019 17.619C19.7372 17.9169 19.9902 18.1361 20.283 18.1361C20.3061 18.1361 20.3294 18.1348 20.3527 18.1319Z" fill="#213C73"/>
<path d="M37.2435 19.7952C37.5628 19.7426 37.7789 19.4411 37.7264 19.1218L36.7989 13.4908C36.7464 13.1715 36.4446 12.9554 36.1256 13.0079C35.8063 13.0604 35.5901 13.3619 35.6426 13.6812L36.5701 19.3122C36.6174 19.5993 36.8658 19.803 37.1475 19.803C37.1792 19.8031 37.2112 19.8005 37.2435 19.7952Z" fill="#213C73"/>
<path d="M38.9441 42.6507C38.6978 40.6248 38.8171 38.5919 39.2988 36.6086C39.7021 34.9479 39.529 33.1792 38.8115 31.6283C38.3499 30.6305 38.1515 29.5239 38.2378 28.4279L38.4433 25.8186C38.5261 24.7668 38.4812 23.7056 38.3097 22.6645L38.1686 21.8075C38.116 21.4882 37.8148 21.272 37.4952 21.3245C37.1759 21.3771 36.9598 21.6786 37.0123 21.9979L37.1534 22.8549C37.3095 23.8027 37.3505 24.7689 37.2751 25.7266L37.0695 28.3359C36.9675 29.6319 37.2021 30.9405 37.7479 32.1203C38.3547 33.4319 38.5011 34.9276 38.1601 36.3319C37.6451 38.4525 37.5175 40.626 37.7808 42.7921L38.9593 52.4847C38.9954 52.782 39.2482 53 39.5402 53C39.5638 53 39.5876 52.9985 39.6117 52.9957C39.9329 52.9566 40.1617 52.6645 40.1226 52.3432L38.9441 42.6507Z" fill="#213C73"/>
<path d="M47.9849 44.5071C47.6689 44.4378 47.3563 44.638 47.2871 44.9542C47.2392 45.1731 47.1879 45.3948 47.1349 45.6131L45.5148 52.2757C45.4383 52.5902 45.6313 52.907 45.9457 52.9835C45.9922 52.9949 46.0388 53.0002 46.0846 53.0002C46.3486 53.0002 46.5884 52.8206 46.6535 52.5526L48.2736 45.89C48.3288 45.6631 48.382 45.4326 48.4319 45.2049C48.501 44.8888 48.301 44.5763 47.9849 44.5071Z" fill="#213C73"/>
<path d="M50.2546 13.0041C49.9328 12.966 49.6418 13.1957 49.6038 13.5171L48.7199 20.9832C48.6642 21.4539 48.5492 21.9167 48.3785 22.3586L47.5424 24.5225C47.2376 25.3115 47.083 26.1403 47.083 26.9861V29.9268C47.083 30.6527 47.1479 31.3829 47.276 32.0974L47.5087 33.3962C48.0371 36.345 48.1152 39.3473 47.7406 42.3197C47.7001 42.6407 47.9276 42.9338 48.2487 42.9742C48.2735 42.9774 48.2982 42.9789 48.3227 42.9789C48.6136 42.9789 48.866 42.7623 48.9033 42.4662C49.2927 39.3761 49.2116 36.255 48.6622 33.1894L48.4295 31.8906C48.3137 31.2442 48.255 30.5835 48.255 29.9268V26.986C48.255 26.2852 48.383 25.5984 48.6356 24.9448L49.4717 22.7809C49.6778 22.2474 49.8164 21.6889 49.8836 21.1209L50.7675 13.6548C50.8056 13.3336 50.576 13.0422 50.2546 13.0041Z" fill="#213C73"/>
<path d="M28.9324 26.4356L30.6526 21.3484C30.7508 21.0581 30.7027 20.7362 30.524 20.4872C30.3455 20.2382 30.0558 20.0895 29.7494 20.0894L27.4348 20.089L27.0991 17.1046C27.0488 16.6573 26.701 16.3113 26.2534 16.2631C25.806 16.2153 25.3925 16.4792 25.2482 16.9056L23.2537 22.8011C23.1555 23.0914 23.2035 23.4134 23.3821 23.6625C23.5607 23.9115 23.8503 24.0602 24.1567 24.0603L26.4071 24.0607L26.3976 26.0885C25.0363 26.469 24.0625 27.715 24.0625 29.172C24.0625 30.9381 25.4995 32.3751 27.2656 32.3751C29.0318 32.3751 30.4687 30.9381 30.4687 29.172C30.4687 28.034 29.88 27.0096 28.9324 26.4356ZM24.4614 22.8885L26.0442 18.2098L26.3289 20.7403C26.3623 21.0366 26.6128 21.2607 26.9111 21.2608L29.4451 21.2612L27.5662 26.8179L27.582 23.4776C27.5827 23.3218 27.5213 23.1721 27.4113 23.0616C27.3014 22.9511 27.152 22.889 26.9961 22.889L24.4614 22.8885ZM27.2656 31.2032C26.1456 31.2032 25.2344 30.292 25.2344 29.172C25.2344 28.3678 25.7018 27.6649 26.3917 27.337L26.3878 28.1593C26.3856 28.637 26.7132 29.0257 27.1844 29.1043C27.2404 29.1137 27.2959 29.1182 27.3504 29.1182C27.7552 29.1182 28.1098 28.8681 28.2446 28.4692L28.542 27.5896C29.013 27.9678 29.2968 28.5426 29.2968 29.1719C29.2969 30.292 28.3857 31.2032 27.2656 31.2032Z" fill="#213C73"/>
<path d="M45.9486 29.0438C46.0256 28.7295 45.8332 28.4124 45.5189 28.3354C45.2044 28.2581 44.8873 28.4509 44.8104 28.7652L44.5282 29.918C44.4208 30.3563 44.0308 30.6624 43.5796 30.6624H41.945C41.4939 30.6624 41.1038 30.3563 40.9964 29.9181L40.7143 28.7652C40.6374 28.4509 40.32 28.2582 40.0058 28.3355C39.6915 28.4124 39.499 28.7296 39.5761 29.0439L39.8582 30.1967C40.0943 31.1609 40.9524 31.8342 41.945 31.8342H43.5796C44.5722 31.8342 45.4303 31.1609 45.6664 30.1967L45.9486 29.0438Z" fill="#213C73"/>
<path d="M41.1539 25.053C42.1611 24.5398 43.3636 24.5398 44.3709 25.053C44.456 25.0965 44.5469 25.117 44.6364 25.117C44.8497 25.117 45.0555 25 45.1589 24.7969C45.3058 24.5086 45.1912 24.1557 44.9028 24.0089C43.5626 23.326 41.9621 23.326 40.6218 24.0089C40.3335 24.1558 40.2189 24.5086 40.3657 24.7969C40.5127 25.0853 40.8656 25.1998 41.1539 25.053Z" fill="#213C73"/>
<path d="M27.0533 40.8609C26.73 40.8752 26.4794 41.1489 26.4937 41.4722L26.9787 52.44C26.9926 52.7545 27.2519 53.0001 27.5636 53.0001C27.5723 53.0001 27.5812 52.9999 27.5899 52.9995C27.9132 52.9852 28.1637 52.7115 28.1494 52.3883L27.6645 41.4204C27.6502 41.0971 27.3748 40.8469 27.0533 40.8609Z" fill="#213C73"/>
<path d="M28.1233 33.5452C26.9605 34.0335 26.2168 35.2081 26.2725 36.4681L26.3728 38.7391C26.3868 39.0536 26.6461 39.2991 26.9578 39.2991C26.9665 39.2991 26.9753 39.299 26.9841 39.2986C27.3074 39.2843 27.5579 39.0106 27.5436 38.6874L27.4432 36.4163C27.4091 35.6445 27.8648 34.9248 28.5771 34.6257C28.8755 34.5004 29.0158 34.157 28.8905 33.8586C28.7652 33.5603 28.4217 33.4199 28.1233 33.5452Z" fill="#213C73"/>
<path d="M42.0327 33.5452C41.7344 33.42 41.391 33.5602 41.2656 33.8586C41.1403 34.1569 41.2806 34.5004 41.5789 34.6257C42.2913 34.9248 42.747 35.6444 42.7128 36.4162L42.0067 52.3881C41.9924 52.7114 42.2428 52.985 42.5662 52.9993C42.575 52.9997 42.5838 52.9999 42.5925 52.9999C42.9042 52.9999 43.1635 52.7542 43.1775 52.4398L43.8836 36.4679C43.9393 35.2082 43.1955 34.0336 42.0327 33.5452Z" fill="#213C73"/>
</g>
</g>
<defs>
<filter id="filter0_d_5003_6551" x="0" y="0" width="74" height="74" filterUnits="userSpaceOnUse" color-interpolation-filters="sRGB">
<feFlood flood-opacity="0" result="BackgroundImageFix"/>
<feColorMatrix in="SourceAlpha" type="matrix" values="0 0 0 0 0 0 0 0 0 0 0 0 0 0 0 0 0 0 127 0" result="hardAlpha"/>
<feOffset dx="2" dy="4"/>
<feGaussianBlur stdDeviation="4"/>
<feComposite in2="hardAlpha" operator="out"/>
<feColorMatrix type="matrix" values="0 0 0 0 0.129412 0 0 0 0 0.235294 0 0 0 0 0.45098 0 0 0 0.16 0"/>
<feBlend mode="normal" in2="BackgroundImageFix" result="effect1_dropShadow_5003_6551"/>
<feBlend mode="normal" in="SourceGraphic" in2="effect1_dropShadow_5003_6551" result="shape"/>
</filter>
<linearGradient id="paint0_linear_5003_6551" x1="64" y1="62" x2="6" y2="4" gradientUnits="userSpaceOnUse">
<stop stop-color="#54BE95"/>
<stop offset="0.288462" stop-color="#2E7B9A"/>
<stop offset="1" stop-color="#224075"/>
</linearGradient>
<clipPath id="clip0_5003_6551">
<rect width="40" height="40" fill="white" transform="translate(15 13)"/>
</clipPath>
</defs>
</svg>
