<svg width="74" height="74" viewBox="0 0 74 74" fill="none" xmlns="http://www.w3.org/2000/svg">
<g filter="url(#filter0_d_5003_6314)">
<rect x="6" y="4" width="58" height="58" rx="29" fill="white"/>
<rect x="6.39726" y="4.39726" width="57.2055" height="57.2055" rx="28.6027" stroke="url(#paint0_linear_5003_6314)" stroke-width="0.794521"/>
<g clip-path="url(#clip0_5003_6314)">
<path d="M25.4123 18.6763C25.6422 18.6479 25.8588 18.553 26.0355 18.4032C26.1085 18.3572 26.1716 18.2973 26.2214 18.2268C26.2712 18.1564 26.3066 18.0768 26.3255 17.9927C26.3445 17.9085 26.3467 17.8215 26.3321 17.7365C26.3174 17.6515 26.2861 17.5702 26.2399 17.4973C26.1938 17.4244 26.1338 17.3614 26.0633 17.3117C25.9927 17.262 25.9131 17.2268 25.829 17.2079C25.7448 17.189 25.6577 17.187 25.5728 17.2018C25.4878 17.2166 25.4066 17.248 25.3338 17.2942C25.2387 17.3543 25.1445 17.4151 25.051 17.4765C24.9056 17.5722 24.8041 17.7217 24.7689 17.8921C24.7337 18.0626 24.7677 18.24 24.8634 18.3854C24.9243 18.4749 25.0061 18.5482 25.1018 18.5988C25.1974 18.6495 25.304 18.6761 25.4123 18.6763Z" fill="#213C73"/>
<path d="M18.0781 32.8717C18.0781 32.8717 18.0789 32.6498 18.0804 32.557C18.082 32.4707 18.0666 32.385 18.035 32.3047C18.0034 32.2244 17.9563 32.1511 17.8964 32.089C17.8365 32.0269 17.7649 31.9773 17.6857 31.9429C17.6066 31.9085 17.5215 31.8901 17.4352 31.8886C17.3489 31.8872 17.2632 31.9028 17.183 31.9345C17.1027 31.9663 17.0295 32.0135 16.9676 32.0736C16.9056 32.1336 16.8561 32.2053 16.8219 32.2845C16.7877 32.3637 16.7694 32.4489 16.7682 32.5352C16.7664 32.6354 16.7656 32.8717 16.7656 32.8717C16.7656 33.0457 16.8348 33.2126 16.9578 33.3357C17.0809 33.4588 17.2478 33.5279 17.4219 33.5279C17.5959 33.5279 17.7628 33.4588 17.8859 33.3357C18.009 33.2126 18.0781 33.0457 18.0781 32.8717Z" fill="#213C73"/>
<path d="M18.1529 27.7401C18.3178 27.7945 18.4974 27.782 18.6531 27.7053C18.8088 27.6286 18.9282 27.4939 18.9856 27.3301C19.0192 27.2309 19.0539 27.1322 19.0894 27.034C19.1189 26.953 19.1321 26.8669 19.1283 26.7807C19.1245 26.6945 19.1038 26.6099 19.0672 26.5318C19.0307 26.4536 18.9791 26.3834 18.9155 26.3253C18.8518 26.2671 18.7773 26.222 18.6961 26.1926C18.615 26.1633 18.5289 26.1502 18.4428 26.1541C18.3566 26.1581 18.272 26.179 18.1939 26.2156C18.1159 26.2523 18.0458 26.304 17.9877 26.3678C17.9296 26.4315 17.8846 26.5061 17.8554 26.5873C17.817 26.6936 17.7795 26.8003 17.7429 26.9074C17.6869 27.0722 17.6986 27.2525 17.7755 27.4086C17.8524 27.5648 17.9882 27.684 18.1529 27.7401Z" fill="#213C73"/>
<path d="M17.5492 30.6039C17.7208 30.6302 17.8958 30.5881 18.0366 30.4867C18.1775 30.3853 18.273 30.2327 18.3026 30.0617C18.3192 29.9589 18.337 29.8563 18.3557 29.7539C18.3872 29.5827 18.3493 29.4061 18.2504 29.2628C18.1515 29.1195 17.9998 29.0214 17.8286 28.99C17.6574 28.9586 17.4808 28.9965 17.3375 29.0954C17.1942 29.1942 17.0961 29.3459 17.0647 29.5171C17.0444 29.628 17.0251 29.7392 17.0071 29.8506C16.9791 30.0224 17.0205 30.1982 17.1222 30.3395C17.2239 30.4807 17.3774 30.5759 17.5492 30.6039Z" fill="#213C73"/>
<path d="M20.0155 23.5786C19.8638 23.4932 19.6845 23.4715 19.5168 23.5183C19.3492 23.5651 19.207 23.6766 19.1215 23.8282C19.0662 23.9264 19.0118 24.0252 18.9582 24.1245C18.9171 24.2003 18.8913 24.2836 18.8824 24.3694C18.8735 24.4552 18.8816 24.542 18.9063 24.6247C18.9309 24.7074 18.9716 24.7844 19.0261 24.8513C19.0806 24.9183 19.1477 24.9738 19.2237 25.0148C19.2996 25.0557 19.3829 25.0813 19.4688 25.09C19.5546 25.0988 19.6413 25.0905 19.724 25.0656C19.8066 25.0408 19.8836 24.9999 19.9504 24.9453C20.0172 24.8907 20.0726 24.8234 20.1134 24.7474C20.1631 24.6554 20.2136 24.5638 20.2651 24.4726C20.3505 24.3209 20.3722 24.1416 20.3254 23.9739C20.2786 23.8063 20.1671 23.6641 20.0155 23.5786Z" fill="#213C73"/>
<path d="M19.9975 40.7062C19.9169 40.5521 19.7785 40.4364 19.6127 40.3843C19.4468 40.3322 19.2671 40.348 19.1129 40.4283C18.9587 40.5086 18.8427 40.6468 18.7903 40.8125C18.7379 40.9783 18.7534 41.1581 18.8334 41.3124C18.8853 41.4121 18.9381 41.5111 18.9917 41.6096C19.0765 41.7609 19.217 41.873 19.3834 41.9221C19.5497 41.9711 19.7286 41.9531 19.8819 41.872C19.9576 41.8308 20.0244 41.7751 20.0785 41.7081C20.1327 41.641 20.1731 41.564 20.1975 41.4813C20.2218 41.3987 20.2297 41.312 20.2206 41.2263C20.2114 41.1406 20.1855 41.0576 20.1443 40.9819C20.0945 40.8904 20.0455 40.7985 19.9975 40.7062Z" fill="#213C73"/>
<path d="M19.008 38.4061C18.974 38.3077 18.941 38.2089 18.9088 38.1097C18.8823 38.0276 18.8399 37.9516 18.784 37.8859C18.728 37.8203 18.6597 37.7663 18.5829 37.727C18.5061 37.6878 18.4224 37.6641 18.3364 37.6572C18.2504 37.6504 18.164 37.6605 18.0819 37.6871C17.9999 37.7137 17.9239 37.7562 17.8583 37.8122C17.7927 37.8682 17.7387 37.9365 17.6996 38.0133C17.6604 38.0902 17.6367 38.174 17.63 38.2599C17.6232 38.3459 17.6334 38.4324 17.6601 38.5144C17.695 38.6217 17.7308 38.7286 17.7676 38.8351C17.8266 38.9981 17.9468 39.1316 18.1026 39.2074C18.2585 39.2831 18.4378 39.2951 18.6023 39.2408C18.7668 39.1839 18.9019 39.064 18.978 38.9075C19.0541 38.7509 19.0649 38.5706 19.008 38.4061Z" fill="#213C73"/>
<path d="M21.499 43.0865C21.3938 42.9488 21.2384 42.8584 21.0667 42.8348C20.895 42.8113 20.721 42.8566 20.5826 42.9609C20.4442 43.0652 20.3527 43.22 20.328 43.3915C20.3033 43.563 20.3475 43.7373 20.4508 43.8764C20.5183 43.966 20.5865 44.0549 20.6554 44.1432C20.7637 44.2788 20.9207 44.3666 21.0928 44.3878C21.265 44.409 21.4386 44.362 21.5765 44.2568C21.7137 44.1497 21.8028 43.9925 21.8241 43.8198C21.8454 43.647 21.7972 43.4729 21.6901 43.3357C21.6257 43.2532 21.562 43.1701 21.499 43.0865Z" fill="#213C73"/>
<path d="M17.7752 36.4334C17.8602 36.4191 17.9415 36.3883 18.0146 36.3426C18.0876 36.2969 18.151 36.2372 18.201 36.1671C18.251 36.0969 18.2867 36.0175 18.306 35.9336C18.3253 35.8496 18.3279 35.7626 18.3136 35.6776C18.2965 35.5749 18.2802 35.472 18.2649 35.3689C18.2395 35.1967 18.1467 35.0417 18.0069 34.9379C17.8672 34.8342 17.6919 34.7902 17.5198 34.8157C17.3476 34.8411 17.1926 34.9339 17.0888 35.0737C16.9851 35.2134 16.9411 35.3886 16.9665 35.5608C16.983 35.6723 17.0007 35.7837 17.0194 35.8949C17.0505 36.0654 17.1468 36.217 17.288 36.3175C17.4291 36.4181 17.6039 36.4597 17.7752 36.4334Z" fill="#213C73"/>
<path d="M51.6665 26.3981C51.5851 26.4263 51.51 26.4704 51.4456 26.5276C51.3813 26.5849 51.3288 26.6543 51.2912 26.7319C51.2536 26.8094 51.2317 26.8936 51.2267 26.9797C51.2217 27.0657 51.2337 27.1519 51.262 27.2333C51.2963 27.332 51.3297 27.4311 51.3623 27.5306C51.4182 27.6947 51.5362 27.8305 51.6908 27.9088C51.8455 27.9871 52.0247 28.0019 52.1901 27.95C52.272 27.9231 52.3478 27.8805 52.4132 27.8243C52.4786 27.7682 52.5323 27.6998 52.5713 27.6229C52.6102 27.546 52.6336 27.4622 52.6402 27.3763C52.6467 27.2904 52.6363 27.204 52.6094 27.1221C52.5745 27.0152 52.5386 26.9087 52.5017 26.8026C52.4735 26.7212 52.4294 26.6462 52.3722 26.5818C52.3149 26.5174 52.2455 26.4649 52.1679 26.4273C52.0904 26.3897 52.0062 26.3678 51.9201 26.3628C51.8341 26.3578 51.7479 26.3698 51.6665 26.3981Z" fill="#213C73"/>
<path d="M52.4991 29.2039C52.4141 29.2183 52.3328 29.2493 52.2599 29.2952C52.1869 29.341 52.1236 29.4007 52.0738 29.471C52.0239 29.5413 51.9883 29.6207 51.9691 29.7047C51.9499 29.7887 51.9475 29.8757 51.9619 29.9606C51.9792 30.0633 51.9957 30.1664 52.0114 30.2699C52.0396 30.4409 52.1333 30.5942 52.2728 30.6971C52.4122 30.8 52.5863 30.8445 52.758 30.821C52.8432 30.8082 52.9251 30.7787 52.9989 30.7342C53.0727 30.6898 53.1371 30.6312 53.1883 30.5619C53.2394 30.4925 53.2765 30.4138 53.2972 30.3302C53.318 30.2465 53.322 30.1596 53.3092 30.0744C53.2925 29.9629 53.2747 29.8518 53.2558 29.7412C53.2415 29.6561 53.2106 29.5748 53.1648 29.5018C53.119 29.4287 53.0592 29.3655 52.9889 29.3156C52.9186 29.2657 52.8392 29.2301 52.7551 29.211C52.6711 29.1918 52.5841 29.1894 52.4991 29.2039Z" fill="#213C73"/>
<path d="M27.9779 17.2812C28.1671 17.2385 28.3518 17.1783 28.5297 17.1013C28.6902 17.0338 28.8172 16.9053 28.883 16.7441C28.9487 16.583 28.9478 16.4023 28.8803 16.2418C28.8128 16.0814 28.6843 15.9543 28.5232 15.8886C28.362 15.8228 28.1813 15.8238 28.0209 15.8913C27.9172 15.9349 27.8141 15.9793 27.7116 16.0247C27.5741 16.0857 27.4616 16.1921 27.3932 16.3262C27.3247 16.4602 27.3044 16.6136 27.3356 16.7609C27.3668 16.9081 27.4476 17.0401 27.5645 17.1348C27.6815 17.2296 27.8274 17.2812 27.9779 17.2812Z" fill="#213C73"/>
<path d="M51.4315 24.3283C51.3794 24.2283 51.3263 24.129 51.2721 24.0303C51.2308 23.9545 51.175 23.8876 51.1078 23.8334C51.0407 23.7792 50.9635 23.7388 50.8807 23.7145C50.7979 23.6902 50.7112 23.6824 50.6254 23.6917C50.5396 23.7009 50.4565 23.727 50.3808 23.7684C50.3051 23.8098 50.2383 23.8658 50.1842 23.933C50.1302 24.0003 50.0899 24.0775 50.0658 24.1604C50.0416 24.2432 50.0341 24.33 50.0435 24.4158C50.0529 24.5015 50.0792 24.5846 50.1207 24.6602C50.1704 24.7512 50.2193 24.8426 50.2673 24.9345C50.3492 25.0875 50.4876 25.2023 50.6531 25.2544C50.8185 25.3066 50.9978 25.2919 51.1526 25.2134C51.3069 25.133 51.423 24.9946 51.4753 24.8286C51.5276 24.6626 51.5118 24.4826 51.4315 24.3283Z" fill="#213C73"/>
<path d="M33.6232 15.8375C33.6417 15.8375 33.8874 15.8184 33.992 15.8115C34.078 15.8058 34.162 15.7832 34.2392 15.745C34.3165 15.7068 34.3855 15.6538 34.4422 15.5889C34.499 15.5241 34.5424 15.4487 34.57 15.3671C34.5976 15.2854 34.6089 15.1992 34.6032 15.1132C34.5975 15.0272 34.5749 14.9432 34.5367 14.8659C34.4985 14.7886 34.4454 14.7197 34.3806 14.6629C34.3157 14.6062 34.2403 14.5627 34.1587 14.5351C34.0771 14.5075 33.9908 14.4962 33.9048 14.5019C33.7925 14.5095 33.6804 14.518 33.5685 14.5274C33.4 14.5417 33.2434 14.6206 33.1316 14.7475C33.0198 14.8744 32.9613 15.0396 32.9683 15.2086C32.9754 15.3776 33.0474 15.5374 33.1694 15.6546C33.2914 15.7718 33.454 15.8373 33.6232 15.8375Z" fill="#213C73"/>
<path d="M36.4975 15.8264C36.6018 15.8348 36.8525 15.8569 36.8737 15.8569C37.0422 15.8567 37.2042 15.7917 37.3261 15.6753C37.4479 15.559 37.5204 15.4002 37.5284 15.2319C37.5364 15.0635 37.4794 14.8986 37.3691 14.7712C37.2588 14.6437 37.1037 14.5636 36.936 14.5474C36.8242 14.5367 36.7122 14.5269 36.6 14.5181C36.5141 14.5114 36.4277 14.5216 36.3458 14.5483C36.2638 14.5749 36.1879 14.6175 36.1224 14.6735C36.0569 14.7295 36.0031 14.7978 35.964 14.8746C35.9249 14.9514 35.9013 15.0351 35.8946 15.121C35.8879 15.2069 35.8981 15.2933 35.9248 15.3753C35.9514 15.4572 35.9939 15.5331 36.0499 15.5986C36.1059 15.6641 36.1743 15.7179 36.251 15.757C36.3278 15.7961 36.4116 15.8197 36.4975 15.8264Z" fill="#213C73"/>
<path d="M39.2766 16.278C39.3783 16.3034 39.6946 16.3792 39.7508 16.3792C39.91 16.3791 40.0636 16.3211 40.1832 16.2161C40.3028 16.111 40.3802 15.9661 40.4009 15.8083C40.4216 15.6505 40.3843 15.4906 40.2958 15.3582C40.2074 15.2259 40.0739 15.1302 39.9202 15.089C39.8118 15.0598 39.7032 15.0317 39.5941 15.0046C39.5104 14.9835 39.4234 14.9792 39.3381 14.9918C39.2527 15.0044 39.1707 15.0337 39.0967 15.0781C39.0227 15.1225 38.9581 15.181 38.9068 15.2503C38.8554 15.3197 38.8182 15.3984 38.7973 15.4822C38.7765 15.5659 38.7723 15.6529 38.7851 15.7382C38.7979 15.8236 38.8274 15.9056 38.8719 15.9795C38.9164 16.0534 38.9751 16.1178 39.0445 16.169C39.1139 16.2202 39.1928 16.2573 39.2766 16.278Z" fill="#213C73"/>
<path d="M30.7397 16.3242C30.7934 16.3242 31.1045 16.2531 31.2061 16.2292C31.29 16.2095 31.3692 16.1735 31.4392 16.1232C31.5092 16.0729 31.5686 16.0093 31.614 15.936C31.6594 15.8628 31.69 15.7813 31.7039 15.6962C31.7178 15.6112 31.7148 15.5242 31.6951 15.4403C31.6553 15.2708 31.5499 15.1241 31.4019 15.0324C31.3287 14.987 31.2472 14.9565 31.1621 14.9426C31.0771 14.9287 30.9901 14.9316 30.9062 14.9513C30.7963 14.9771 30.6869 15.004 30.5781 15.0319C30.4232 15.0714 30.288 15.1661 30.198 15.2982C30.1079 15.4303 30.0692 15.5907 30.0891 15.7494C30.1089 15.908 30.186 16.0539 30.3058 16.1598C30.4256 16.2656 30.5799 16.3241 30.7397 16.3242Z" fill="#213C73"/>
<path d="M42.0073 48.4604C41.9118 48.5022 41.8159 48.5434 41.7195 48.5838C41.5797 48.6424 41.4644 48.7476 41.3934 48.8816C41.3224 49.0156 41.2999 49.17 41.3298 49.3186C41.3597 49.4673 41.4402 49.601 41.5575 49.6971C41.6749 49.7931 41.8218 49.8456 41.9735 49.8455C42.1712 49.8234 42.3623 49.7609 42.535 49.662C42.6944 49.5921 42.8194 49.4616 42.8826 49.2995C42.9458 49.1373 42.9419 48.9567 42.872 48.7974C42.802 48.638 42.6716 48.513 42.5094 48.4498C42.3472 48.3866 42.1666 48.3904 42.0073 48.4604Z" fill="#213C73"/>
<path d="M51.041 40.6901C50.8878 40.6075 50.7082 40.589 50.5414 40.6387C50.3746 40.6884 50.2344 40.8022 50.1515 40.9551C50.1018 41.0471 50.0512 41.1385 49.9997 41.2293C49.9573 41.3043 49.93 41.3869 49.9195 41.4724C49.9089 41.5579 49.9154 41.6447 49.9384 41.7277C49.9614 41.8108 50.0005 41.8885 50.0535 41.9564C50.1065 42.0243 50.1724 42.0812 50.2474 42.1236C50.3224 42.1661 50.405 42.1933 50.4905 42.2039C50.5761 42.2144 50.6628 42.208 50.7459 42.185C50.8289 42.162 50.9066 42.1229 50.9745 42.0698C51.0425 42.0168 51.0993 41.9509 51.1417 41.8759C51.1974 41.7777 51.2521 41.679 51.306 41.5797C51.3888 41.4266 51.4074 41.2469 51.3577 41.08C51.308 40.9132 51.1941 40.773 51.041 40.6901Z" fill="#213C73"/>
<path d="M49.5299 43.1982C49.462 43.1452 49.3843 43.1061 49.3012 43.0831C49.2181 43.0602 49.1313 43.0538 49.0458 43.0644C48.9602 43.0751 48.8776 43.1025 48.8027 43.145C48.7278 43.1876 48.662 43.2445 48.609 43.3126C48.5449 43.3947 48.48 43.4765 48.4144 43.5577C48.3601 43.6247 48.3196 43.7017 48.2951 43.7843C48.2706 43.8669 48.2627 43.9536 48.2717 44.0393C48.2807 44.125 48.3065 44.2081 48.3476 44.2838C48.3887 44.3596 48.4443 44.4265 48.5113 44.4807C48.5783 44.5349 48.6553 44.5755 48.7379 44.6C48.8205 44.6244 48.9072 44.6324 48.9929 44.6234C49.0786 44.6144 49.1617 44.5886 49.2374 44.5475C49.3132 44.5064 49.3801 44.4507 49.4343 44.3838C49.5051 44.2963 49.5751 44.2081 49.6444 44.1191C49.6973 44.0511 49.7364 43.9734 49.7593 43.8903C49.7822 43.8072 49.7885 43.7204 49.7779 43.6349C49.7673 43.5494 49.7399 43.4668 49.6974 43.3919C49.6548 43.3169 49.5979 43.2511 49.5299 43.1982Z" fill="#213C73"/>
<path d="M44.4802 47.1177C44.3927 47.1751 44.3047 47.2317 44.2162 47.2874C44.069 47.3803 43.9647 47.5279 43.9263 47.6976C43.8879 47.8674 43.9185 48.0454 44.0114 48.1926C44.1055 48.3384 44.253 48.4415 44.4222 48.4798C44.5915 48.5181 44.769 48.4885 44.9167 48.3974C45.0115 48.3376 45.1057 48.2771 45.1993 48.2159C45.3449 48.1205 45.4467 47.9712 45.4822 47.8008C45.5178 47.6304 45.4842 47.4529 45.3888 47.3073C45.2935 47.1617 45.1442 47.0599 44.9738 47.0243C44.8034 46.9888 44.6258 47.0224 44.4802 47.1177Z" fill="#213C73"/>
<path d="M46.7008 45.3856C46.6242 45.4563 46.5468 45.5262 46.4687 45.5953C46.3385 45.7108 46.2596 45.8734 46.2492 46.0471C46.2388 46.2209 46.2979 46.3917 46.4135 46.5219C46.529 46.6521 46.6915 46.731 46.8653 46.7414C47.0391 46.7518 47.2098 46.6927 47.34 46.5771C47.4241 46.5025 47.5076 46.427 47.5903 46.3508C47.7183 46.2328 47.7941 46.0688 47.8012 45.8949C47.8083 45.721 47.746 45.5514 47.6281 45.4234C47.5101 45.2954 47.3462 45.2196 47.1723 45.2125C46.9983 45.2054 46.8287 45.2677 46.7008 45.3856Z" fill="#213C73"/>
<path d="M52.8548 32.1088C52.6807 32.11 52.5143 32.1803 52.3921 32.3042C52.2698 32.4281 52.2018 32.5955 52.203 32.7695C52.203 32.7695 52.2021 33.0454 52.2003 33.1497C52.1988 33.2359 52.2142 33.3215 52.2458 33.4017C52.2773 33.4819 52.3243 33.5551 52.3842 33.6171C52.444 33.6791 52.5155 33.7287 52.5945 33.7631C52.6735 33.7975 52.7585 33.816 52.8447 33.8175C52.9329 33.8279 53.0223 33.8186 53.1064 33.7902C53.1906 33.7619 53.2674 33.7152 53.3313 33.6535C53.3952 33.5918 53.4446 33.5168 53.4759 33.4337C53.5072 33.3506 53.5197 33.2616 53.5125 33.1731C53.512 33.0609 53.5155 32.7605 53.5155 32.7605C53.5142 32.5865 53.4438 32.4202 53.3199 32.298C53.1961 32.1758 53.0288 32.1078 52.8548 32.1088Z" fill="#213C73"/>
<path d="M52.7284 35.1034C52.5567 35.0752 52.3808 35.1162 52.2394 35.2175C52.0979 35.3187 52.0023 35.4719 51.9736 35.6435C51.9565 35.747 51.9384 35.8502 51.9195 35.953C51.9039 36.0378 51.9052 36.1248 51.9233 36.2091C51.9414 36.2934 51.9759 36.3732 52.0248 36.4442C52.0737 36.5151 52.1362 36.5757 52.2086 36.6225C52.2809 36.6693 52.3618 36.7014 52.4466 36.717C52.5313 36.7325 52.6183 36.7312 52.7026 36.7131C52.7869 36.6951 52.8667 36.6606 52.9377 36.6116C53.0086 36.5627 53.0692 36.5002 53.116 36.4279C53.1628 36.3555 53.1949 36.2746 53.2105 36.1899C53.2307 36.0796 53.25 35.9691 53.2685 35.8582C53.2969 35.6865 53.256 35.5105 53.1547 35.369C53.0534 35.2274 52.9001 35.1319 52.7284 35.1034Z" fill="#213C73"/>
<path d="M52.1184 37.9662C52.0369 37.9381 51.9507 37.9264 51.8647 37.9317C51.7786 37.9369 51.6945 37.9591 51.617 37.997C51.5395 38.0348 51.4703 38.0876 51.4133 38.1522C51.3562 38.2168 51.3125 38.2921 51.2845 38.3736C51.2504 38.4729 51.2155 38.5719 51.1797 38.6705C51.1206 38.834 51.1288 39.0142 51.2024 39.1716C51.2761 39.3291 51.4092 39.4509 51.5725 39.5103C51.7359 39.5697 51.9161 39.5619 52.0737 39.4885C52.2313 39.4152 52.3533 39.2823 52.4131 39.1191C52.4517 39.0132 52.4893 38.9069 52.5259 38.8001C52.5824 38.6355 52.5713 38.4552 52.4949 38.2988C52.4185 38.1424 52.2831 38.0227 52.1184 37.9662Z" fill="#213C73"/>
<path d="M39.3454 49.3769C39.2444 49.4023 39.1431 49.4269 39.0413 49.4507C38.8845 49.4873 38.7466 49.5803 38.6539 49.7119C38.5612 49.8436 38.5201 50.0047 38.5385 50.1646C38.5568 50.3246 38.6333 50.4722 38.7534 50.5795C38.8735 50.6867 39.0288 50.746 39.1898 50.7462C39.2393 50.7462 39.5588 50.6767 39.6677 50.649C39.8363 50.6061 39.9809 50.498 40.0698 50.3486C40.1587 50.1991 40.1846 50.0205 40.1419 49.8519C40.0992 49.6833 39.9913 49.5386 39.8419 49.4495C39.6926 49.3605 39.514 49.3343 39.3454 49.3769Z" fill="#213C73"/>
<path d="M23.1101 20.4816C23.3765 20.4451 23.619 20.3081 23.7878 20.0987C23.8521 20.0413 23.9044 19.9718 23.9418 19.8942C23.9792 19.8165 24.001 19.7323 24.0059 19.6463C24.0107 19.5602 23.9986 19.4741 23.9702 19.3927C23.9417 19.3114 23.8976 19.2364 23.8402 19.1721C23.7828 19.1079 23.7133 19.0555 23.6357 19.0181C23.558 18.9807 23.4738 18.9589 23.3877 18.954C23.3017 18.9492 23.2156 18.9613 23.1342 18.9897C23.0529 19.0182 22.9779 19.0624 22.9136 19.1198C22.83 19.1944 22.747 19.2698 22.6646 19.3458C22.5673 19.4351 22.4993 19.5517 22.4695 19.6803C22.4397 19.8089 22.4496 19.9436 22.4978 20.0665C22.546 20.1894 22.6303 20.2949 22.7396 20.369C22.8489 20.4431 22.978 20.4823 23.1101 20.4816Z" fill="#213C73"/>
<path d="M23.3727 45.1906C23.2467 45.0705 23.0782 45.0054 22.9042 45.0096C22.7302 45.0138 22.565 45.0869 22.4449 45.2129C22.3248 45.3389 22.2597 45.5074 22.2639 45.6814C22.268 45.8554 22.3412 46.0206 22.4672 46.1407C22.5487 46.2184 22.6309 46.2954 22.7137 46.3716C22.8421 46.4888 23.0117 46.5504 23.1853 46.5428C23.359 46.5351 23.5225 46.4589 23.64 46.3309C23.7575 46.2028 23.8195 46.0334 23.8122 45.8597C23.805 45.686 23.7291 45.5223 23.6013 45.4045C23.5244 45.334 23.4482 45.2627 23.3727 45.1906Z" fill="#213C73"/>
<path d="M21.746 21.2175C21.6104 21.1084 21.437 21.0576 21.264 21.0763C21.0909 21.095 20.9324 21.1817 20.8233 21.3173C20.7528 21.4049 20.6831 21.4931 20.6142 21.5818C20.5613 21.6499 20.5223 21.7277 20.4995 21.8109C20.4767 21.8941 20.4704 21.9809 20.4812 22.0664C20.4919 22.152 20.5195 22.2346 20.5622 22.3095C20.6048 22.3844 20.6619 22.4502 20.73 22.5031C20.7981 22.5559 20.876 22.5948 20.9592 22.6176C21.0424 22.6403 21.1292 22.6465 21.2147 22.6356C21.3003 22.6248 21.3829 22.5972 21.4577 22.5545C21.5326 22.5117 21.5983 22.4546 21.6511 22.3864C21.7152 22.3038 21.7801 22.2217 21.8458 22.1402C21.8998 22.073 21.9401 21.9959 21.9644 21.9132C21.9886 21.8305 21.9963 21.7438 21.987 21.6582C21.9777 21.5725 21.9517 21.4895 21.9103 21.4138C21.869 21.3382 21.8131 21.2715 21.746 21.2175Z" fill="#213C73"/>
<path d="M25.5648 46.9599C25.4208 46.8622 25.2438 46.8257 25.0729 46.8584C24.9019 46.8911 24.751 46.9904 24.6533 47.1344C24.5555 47.2784 24.519 47.4553 24.5517 47.6263C24.5845 47.7972 24.6838 47.9481 24.8278 48.0459C24.9207 48.109 25.0143 48.1713 25.1085 48.2328C25.2399 48.3176 25.3974 48.3525 25.5523 48.3312C25.7073 48.3099 25.8495 48.2339 25.9533 48.1169V47.2461C25.9161 47.2047 25.6513 47.0186 25.5648 46.9599Z" fill="#213C73"/>
<path d="M36.5673 49.8394C36.5294 49.8426 36.4911 49.8449 36.4531 49.8478V51.1639C36.5276 51.1587 36.6021 51.1535 36.6763 51.1474C36.8498 51.133 37.0104 51.0502 37.1228 50.9174C37.2352 50.7845 37.2903 50.6124 37.2758 50.4389C37.2614 50.2655 37.1786 50.1049 37.0457 49.9925C36.9129 49.88 36.7408 49.825 36.5673 49.8394Z" fill="#213C73"/>
<path d="M38.9427 39.4917C38.21 39.2429 37.4342 39.1463 36.6629 39.2078C36.3451 39.2129 36.0451 39.2179 35.7625 39.1969C33.9022 39.0605 32.9504 38.4059 32.9332 37.2509C32.9354 36.8107 32.9615 36.3709 33.0114 35.9336C33.1248 34.7398 33.2535 33.3869 32.4205 32.1275C31.2997 30.4324 29.1646 30.1743 27.5409 30.4979C25.1763 30.9686 23.4461 32.8741 23.3337 35.1314C23.2356 37.0924 24.3515 38.4235 25.4307 39.7107C26.3592 40.818 27.2361 41.8639 27.2654 43.2381V51.8733C27.2654 52.0473 27.3345 52.2143 27.4576 52.3373C27.5807 52.4604 27.7476 52.5295 27.9216 52.5295C28.0957 52.5295 28.2626 52.4604 28.3857 52.3373C28.5087 52.2143 28.5779 52.0473 28.5779 51.8733L28.5777 43.2241C28.5385 41.3744 27.4218 40.0425 26.4364 38.8673C25.4777 37.7239 24.5721 36.6438 24.6446 35.1969C24.7271 33.5412 26.0235 32.1382 27.7973 31.7851C29.0028 31.5449 30.5636 31.6986 31.3258 32.8513C31.903 33.7242 31.8112 34.6905 31.7049 35.8094C31.65 36.2945 31.622 36.7822 31.6207 37.2704C31.6491 39.1677 33.0859 40.3168 35.6665 40.5059C36.0077 40.5309 36.3515 40.5253 36.6839 40.5201C37.278 40.4669 37.8768 40.5303 38.4466 40.7068C38.5952 40.7527 38.7293 40.8363 38.8361 40.9493C38.9428 41.0623 39.0186 41.2009 39.0561 41.3518C39.0843 41.6101 39.0525 41.8713 38.9631 42.1153C38.8736 42.3592 38.729 42.5791 38.5405 42.7579C38.1704 43.1027 37.7468 43.3854 37.2863 43.5949C36.773 43.8392 36.2942 44.1503 35.8623 44.5201C34.6033 45.6791 33.8618 47.1025 33.8279 48.4417V53.3438C33.8279 53.5178 33.897 53.6847 34.0201 53.8078C34.1432 53.9309 34.3101 54 34.4841 54C34.6582 54 34.8251 53.9309 34.9482 53.8078C35.0712 53.6847 35.1404 53.5178 35.1404 53.3438L35.1402 48.4586C35.1649 47.4891 35.7521 46.4056 36.7512 45.4856C37.1015 45.1947 37.4873 44.9493 37.8993 44.7553C38.4902 44.4825 39.0304 44.1111 39.4967 43.657C39.8323 43.3241 40.0837 42.9161 40.2301 42.4667C40.3766 42.0172 40.4137 41.5394 40.3386 41.0727C40.2562 40.7137 40.0853 40.381 39.8415 40.1049C39.5977 39.8288 39.2887 39.618 38.9427 39.4917Z" fill="#213C73"/>
<path d="M45.2102 35.6697C46.5602 33.8828 46.5049 31.8349 46.4514 29.8544C46.41 29.0424 46.4238 28.2285 46.4926 27.4183C46.5785 26.5535 46.901 25.729 47.4246 25.0353L52.068 18.9669C52.1207 18.8984 52.1593 18.8203 52.1817 18.7369C52.2041 18.6536 52.2098 18.5666 52.1986 18.481C52.1873 18.3954 52.1593 18.3129 52.116 18.2381C52.0728 18.1634 52.0153 18.0979 51.9467 18.0454C51.8781 17.993 51.7999 17.9546 51.7164 17.9324C51.633 17.9102 51.546 17.9047 51.4605 17.9162C51.3749 17.9277 51.2924 17.956 51.2178 17.9995C51.1432 18.0429 51.0779 18.1006 51.0256 18.1693L46.3973 24.2188C45.718 25.1051 45.2993 26.1632 45.1881 27.2743C45.1124 28.144 45.0961 29.0179 45.1394 29.8899C45.1889 31.7251 45.2357 33.4585 44.163 34.8784C43.3628 35.9374 41.7917 36.4765 40.2532 36.2192C38.9265 35.9975 37.9586 35.2381 37.598 34.1356C37.4255 33.424 37.3671 32.6895 37.4248 31.9595C37.452 30.4403 37.4831 28.7185 35.9349 27.6361C34.79 26.8358 33.3255 26.7063 31.9243 26.6424C30.8998 26.5943 29.4412 26.1854 28.6599 25.4017C28.3836 25.1195 28.1752 24.7781 28.0504 24.4034C27.9256 24.0287 27.8877 23.6306 27.9396 23.2391C27.9966 22.7396 28.1619 22.2586 28.4239 21.8296C28.6859 21.4006 29.0384 21.034 29.4567 20.7552C30.7974 19.89 32.3709 20.1828 34.0364 20.4929C34.5748 20.5931 35.1316 20.6967 35.6784 20.7576C38.5987 21.0829 40.7309 20.4784 42.2073 18.901L47.4405 13.0955C47.5566 12.9662 47.6167 12.7961 47.6075 12.6225C47.5983 12.449 47.5207 12.2861 47.3916 12.1697C47.2625 12.0534 47.0924 11.993 46.9189 12.0018C46.7453 12.0107 46.5823 12.088 46.4657 12.2169L41.2408 18.0131C40.0751 19.2583 38.3024 19.729 35.8237 19.4531C35.3245 19.3975 34.8155 19.3028 34.2763 19.2026C32.5175 18.8751 30.5245 18.5045 28.7452 19.6523C28.1608 20.0354 27.6685 20.543 27.3036 21.1389C26.9387 21.7348 26.7102 22.4041 26.6346 23.0987C26.5601 23.6849 26.62 24.2803 26.8098 24.8398C26.9997 25.3994 27.3145 25.9083 27.7304 26.3281C28.8349 27.4364 30.6468 27.8963 31.8636 27.9535C33.0733 28.0087 34.326 28.1127 35.183 28.7118C36.1583 29.3937 36.1369 30.5717 36.1124 31.936C36.0471 32.8123 36.1276 33.6935 36.3505 34.5435C36.8605 36.1029 38.2387 37.2134 40.037 37.5138C40.7944 37.6488 41.5713 37.6279 42.3204 37.4524C43.0694 37.277 43.7748 36.9506 44.3934 36.4932C44.6984 36.2532 44.9728 35.9767 45.2102 35.6697Z" fill="#213C73"/>
<path d="M23.7296 27.0385C23.5704 26.9684 23.3899 26.9645 23.2277 27.0274C23.0656 27.0904 22.9351 27.2152 22.8649 27.3744C22.7947 27.5336 22.7906 27.7141 22.8534 27.8763C22.9162 28.0385 23.0409 28.1691 23.2 28.2395L24.308 28.7283C24.3869 28.7631 24.4718 28.782 24.558 28.7839C24.6442 28.7859 24.7299 28.7708 24.8102 28.7397C24.8906 28.7085 24.964 28.6618 25.0263 28.6023C25.0886 28.5427 25.1386 28.4715 25.1734 28.3926C25.2081 28.3138 25.2271 28.2288 25.229 28.1427C25.231 28.0565 25.2159 27.9708 25.1848 27.8905C25.1536 27.8101 25.1069 27.7367 25.0474 27.6744C24.9878 27.6121 24.9166 27.5621 24.8377 27.5273L23.7296 27.0385Z" fill="#213C73"/>
<path d="M24.6992 26.579C24.7726 26.7362 24.9045 26.8584 25.0669 26.9195C25.2292 26.9806 25.4089 26.9757 25.5677 26.906C25.6462 26.8704 25.717 26.8198 25.7759 26.7569C25.8348 26.694 25.8808 26.6201 25.9111 26.5395C25.9415 26.4588 25.9557 26.373 25.9529 26.2868C25.9501 26.2007 25.9303 26.116 25.8948 26.0375L25.3588 24.8543C25.3235 24.7753 25.273 24.7042 25.2101 24.6449C25.1473 24.5855 25.0733 24.5392 24.9925 24.5086C24.9116 24.4779 24.8255 24.4636 24.7391 24.4663C24.6527 24.469 24.5677 24.4887 24.489 24.5244C24.4103 24.5601 24.3393 24.6109 24.2803 24.6741C24.2213 24.7373 24.1753 24.8114 24.1451 24.8924C24.1148 24.9734 24.1008 25.0595 24.1039 25.1459C24.1071 25.2323 24.1272 25.3172 24.1633 25.3958L24.6992 26.579Z" fill="#213C73"/>
<path d="M22.896 30.9918L24.0728 30.564C24.2364 30.5046 24.3697 30.3826 24.4433 30.2249C24.517 30.0672 24.525 29.8867 24.4655 29.7231C24.4061 29.5595 24.2841 29.4262 24.1263 29.3525C23.9686 29.2789 23.7881 29.2709 23.6245 29.3304L22.4477 29.7581C22.2842 29.8176 22.1509 29.9396 22.0773 30.0973C22.0036 30.255 21.9956 30.4355 22.055 30.5991C22.1162 30.7614 22.2384 30.8933 22.3956 30.9667C22.5527 31.0401 22.7323 31.0491 22.896 30.9918Z" fill="#213C73"/>
<path d="M42.8187 41.855L43.9268 42.3439C44.086 42.4139 44.2665 42.4179 44.4287 42.3549C44.5908 42.2919 44.7213 42.1671 44.7915 42.008C44.8617 41.8488 44.8659 41.6683 44.803 41.5061C44.7402 41.3439 44.6155 41.2132 44.4564 41.1429L43.3484 40.6541C43.1891 40.5838 43.0085 40.5797 42.8462 40.6427C42.6839 40.7056 42.5533 40.8305 42.4831 40.9897C42.4128 41.149 42.4087 41.3296 42.4717 41.4919C42.5346 41.6542 42.6594 41.7848 42.8187 41.855Z" fill="#213C73"/>
<path d="M42.9573 42.8034C42.8848 42.6461 42.7529 42.5237 42.5906 42.4632C42.4282 42.4027 42.2484 42.4088 42.0906 42.4803C41.9327 42.5518 41.8095 42.6829 41.7479 42.8449C41.6863 43.0068 41.6913 43.1866 41.7618 43.345L42.2977 44.5282C42.371 44.6854 42.5029 44.8077 42.6653 44.8688C42.8276 44.9299 43.0075 44.925 43.1662 44.8552C43.2447 44.8196 43.3155 44.769 43.3744 44.7061C43.4333 44.6432 43.4793 44.5693 43.5096 44.4886C43.54 44.408 43.5542 44.3221 43.5514 44.236C43.5486 44.1499 43.5288 44.0651 43.4933 43.9866L42.9573 42.8034Z" fill="#213C73"/>
<path d="M44.7603 38.3905L43.5835 38.8183C43.4199 38.8778 43.2867 38.9998 43.213 39.1575C43.1394 39.3152 43.1314 39.4957 43.1908 39.6593C43.252 39.8216 43.3742 39.9535 43.5313 40.0269C43.6885 40.1003 43.8681 40.1093 44.0318 40.052L45.2086 39.6242C45.2896 39.5948 45.364 39.5497 45.4276 39.4915C45.4911 39.4333 45.5426 39.3632 45.5791 39.2851C45.6155 39.207 45.6363 39.1225 45.6401 39.0364C45.6439 38.9502 45.6307 38.8642 45.6013 38.7832C45.5718 38.7022 45.5267 38.6278 45.4685 38.5642C45.4103 38.5007 45.3402 38.4492 45.2621 38.4127C45.184 38.3762 45.0995 38.3555 45.0134 38.3517C44.9273 38.3479 44.8413 38.3611 44.7603 38.3905Z" fill="#213C73"/>
</g>
</g>
<defs>
<filter id="filter0_d_5003_6314" x="0" y="0" width="74" height="74" filterUnits="userSpaceOnUse" color-interpolation-filters="sRGB">
<feFlood flood-opacity="0" result="BackgroundImageFix"/>
<feColorMatrix in="SourceAlpha" type="matrix" values="0 0 0 0 0 0 0 0 0 0 0 0 0 0 0 0 0 0 127 0" result="hardAlpha"/>
<feOffset dx="2" dy="4"/>
<feGaussianBlur stdDeviation="4"/>
<feComposite in2="hardAlpha" operator="out"/>
<feColorMatrix type="matrix" values="0 0 0 0 0.129412 0 0 0 0 0.235294 0 0 0 0 0.45098 0 0 0 0.16 0"/>
<feBlend mode="normal" in2="BackgroundImageFix" result="effect1_dropShadow_5003_6314"/>
<feBlend mode="normal" in="SourceGraphic" in2="effect1_dropShadow_5003_6314" result="shape"/>
</filter>
<linearGradient id="paint0_linear_5003_6314" x1="64" y1="62" x2="6" y2="4" gradientUnits="userSpaceOnUse">
<stop stop-color="#54BE95"/>
<stop offset="0.288462" stop-color="#2E7B9A"/>
<stop offset="1" stop-color="#224075"/>
</linearGradient>
<clipPath id="clip0_5003_6314">
<rect width="42" height="42" fill="white" transform="translate(14.1406 12)"/>
</clipPath>
</defs>
</svg>
