<svg width="65" height="65" viewBox="0 0 65 65" fill="none" xmlns="http://www.w3.org/2000/svg">
<g filter="url(#filter0_d_5003_6712)">
<rect x="6" y="4" width="50" height="50" rx="25" fill="white"/>
<rect x="6.34247" y="4.34247" width="49.3151" height="49.3151" rx="24.6575" stroke="url(#paint0_linear_5003_6712)" stroke-width="0.684932"/>
<g clip-path="url(#clip0_5003_6712)">
<path d="M43.5433 27.1816L44.6209 25.8346C44.705 25.7227 44.7422 25.5824 44.7247 25.4435C44.7071 25.3046 44.6363 25.178 44.527 25.0905C44.4178 25.003 44.2788 24.9614 44.1394 24.9746C44 24.9877 43.8713 25.0546 43.7804 25.1611L42.7028 26.5081C42.6559 26.563 42.6206 26.6267 42.5988 26.6955C42.577 26.7643 42.5693 26.8368 42.5761 26.9087C42.5829 26.9805 42.6041 27.0503 42.6383 27.1138C42.6726 27.1773 42.7193 27.2333 42.7756 27.2784C42.8319 27.3235 42.8967 27.3569 42.9662 27.3765C43.0357 27.3961 43.1084 27.4015 43.18 27.3925C43.2516 27.3835 43.3206 27.3601 43.383 27.3239C43.4455 27.2877 43.5 27.2393 43.5433 27.1816Z" fill="#213C73"/>
<path d="M42.7028 31.2225L43.7804 32.5695C43.8237 32.6272 43.8782 32.6756 43.9406 32.7119C44.0031 32.7481 44.0721 32.7714 44.1437 32.7805C44.2153 32.7895 44.288 32.784 44.3575 32.7644C44.4269 32.7448 44.4917 32.7115 44.5481 32.6664C44.6044 32.6212 44.6511 32.5652 44.6853 32.5017C44.7196 32.4382 44.7408 32.3685 44.7476 32.2966C44.7543 32.2248 44.7466 32.1523 44.7249 32.0835C44.7031 32.0146 44.6678 31.9509 44.6209 31.896L43.5433 30.549C43.5 30.4913 43.4455 30.4429 43.383 30.4067C43.3206 30.3705 43.2516 30.3471 43.18 30.3381C43.1084 30.3291 43.0357 30.3345 42.9662 30.3541C42.8967 30.3737 42.8319 30.4071 42.7756 30.4522C42.7193 30.4973 42.6726 30.5533 42.6383 30.6168C42.6041 30.6803 42.5829 30.7501 42.5761 30.8219C42.5693 30.8938 42.577 30.9663 42.5988 31.0351C42.6206 31.1039 42.6559 31.1676 42.7028 31.2225Z" fill="#213C73"/>
<path d="M45.5475 29C45.5475 28.8571 45.4907 28.72 45.3897 28.619C45.2886 28.5179 45.1516 28.4612 45.0087 28.4612H43.3923C43.2494 28.4612 43.1124 28.5179 43.0113 28.619C42.9103 28.72 42.8535 28.8571 42.8535 29C42.8535 29.1429 42.9103 29.2799 43.0113 29.381C43.1124 29.482 43.2494 29.5388 43.3923 29.5388H45.0087C45.1516 29.5388 45.2886 29.482 45.3897 29.381C45.4907 29.2799 45.5475 29.1429 45.5475 29Z" fill="#213C73"/>
<path d="M31.3801 32.2677C31.7977 31.1605 32.2718 29.9078 30.8413 28.7467C30.3564 28.2672 20.087 17.564 14.6776 11.9229C14.6311 11.8628 14.5726 11.8132 14.5057 11.7774C14.4388 11.7415 14.3651 11.7202 14.2894 11.7149C14.2137 11.7095 14.1377 11.7202 14.0664 11.7462C13.9951 11.7722 13.9301 11.813 13.8757 11.8659C13.8212 11.9188 13.7786 11.9826 13.7506 12.0531C13.7225 12.1237 13.7097 12.1993 13.7129 12.2751C13.7161 12.351 13.7353 12.4253 13.7692 12.4932C13.8032 12.561 13.8511 12.621 13.9098 12.6691C21.24 20.3173 30.0116 29.4579 30.1544 29.571C30.9626 30.2203 30.8144 30.7187 30.3726 31.8852C30.3268 32.0064 30.281 32.1276 30.2352 32.2542C29.292 34.8902 28.6794 37.6329 28.4114 40.4196C28.1905 42.4266 27.9911 44.1131 27.8079 45.6352C27.7985 45.7062 27.8034 45.7784 27.8222 45.8475C27.8411 45.9167 27.8735 45.9814 27.9177 46.0378C27.9618 46.0943 28.0168 46.1413 28.0794 46.1763C28.1419 46.2112 28.2109 46.2333 28.2821 46.2413H28.3467C28.4791 46.2423 28.6072 46.1945 28.7066 46.107C28.8059 46.0196 28.8696 45.8986 28.8855 45.7672C29.0687 44.2424 29.2681 42.5533 29.489 40.5382C29.7477 37.8371 30.3404 35.1785 31.2535 32.6233C31.2912 32.5021 31.337 32.3835 31.3801 32.2677Z" fill="#213C73"/>
<path d="M41.7463 27.6772C41.5496 25.4708 33.4489 13.3749 32.5248 11.9956C32.486 11.9355 32.4355 11.8838 32.3765 11.8435C32.3174 11.8031 32.2509 11.7749 32.1808 11.7605C32.1108 11.7461 32.0385 11.7458 31.9684 11.7597C31.8982 11.7735 31.8314 11.8012 31.7721 11.841C31.7127 11.8809 31.6618 11.9322 31.6225 11.992C31.5832 12.0517 31.5561 12.1187 31.5429 12.189C31.5297 12.2593 31.5307 12.3315 31.5457 12.4015C31.5607 12.4714 31.5895 12.5377 31.6304 12.5963C35.0572 17.6852 40.5448 26.3059 40.6714 27.7715C40.8061 29.3043 40.4397 30.7348 39.4402 32.5209C39.1493 33.0409 36.0943 42.6179 35.1649 45.5382C35.1406 45.6063 35.1303 45.6786 35.1345 45.7509C35.1388 45.8231 35.1575 45.8937 35.1897 45.9585C35.2218 46.0234 35.2667 46.081 35.3216 46.1282C35.3765 46.1753 35.4403 46.2108 35.5093 46.2327C35.5783 46.2546 35.6509 46.2624 35.7229 46.2556C35.795 46.2488 35.8649 46.2276 35.9286 46.1932C35.9922 46.1588 36.0483 46.1119 36.0934 46.0554C36.1386 45.9989 36.1719 45.9338 36.1913 45.8641C37.735 40.9854 40.1434 33.5419 40.3831 33.0409C41.1671 31.6319 41.9402 29.8916 41.7463 27.6772Z" fill="#213C73"/>
<path d="M32.1502 23.8168C31.7326 24.4014 31.0726 25.549 31.3285 26.737C31.5386 27.6799 32.2283 28.4262 33.4244 28.9542C33.4953 28.987 33.5726 29.004 33.6507 29.004C33.7289 29.004 33.8061 28.987 33.877 28.9542C34.1464 28.8276 34.9977 28.5151 35.5122 28.7333C35.5973 28.7687 35.6901 28.7817 35.7816 28.771C35.8328 28.771 37.0343 28.6174 37.5354 27.5776C37.9691 26.6751 37.7105 25.4547 36.7649 23.9515L36.7407 23.9165L28.8447 13.3346C28.8024 13.2778 28.7494 13.2299 28.6886 13.1936C28.6278 13.1573 28.5604 13.1334 28.4904 13.1231C28.4204 13.1129 28.349 13.1165 28.2803 13.1338C28.2117 13.1512 28.1471 13.1818 28.0904 13.2241C28.0336 13.2664 27.9857 13.3194 27.9494 13.3802C27.9131 13.441 27.8892 13.5083 27.8789 13.5784C27.8687 13.6484 27.8723 13.7198 27.8896 13.7885C27.907 13.8571 27.9376 13.9216 27.9799 13.9784L35.849 24.5361C36.5521 25.6595 36.8 26.5673 36.5521 27.0953C36.4669 27.244 36.3506 27.3725 36.2111 27.4721C36.0716 27.5716 35.9122 27.6397 35.7439 27.6719C34.9546 27.424 34.0602 27.7015 33.6292 27.8712C32.9045 27.5075 32.4815 27.063 32.3684 26.5242C32.1448 25.3928 33.252 24.1508 33.2628 24.1508C33.356 24.0511 33.4078 23.9196 33.4078 23.7831C33.4078 23.6466 33.356 23.5152 33.2628 23.4154L22.2283 11.9256C22.1793 11.8745 22.1207 11.8335 22.0559 11.8051C21.991 11.7766 21.9212 11.7611 21.8504 11.7596C21.7797 11.7581 21.7093 11.7706 21.6433 11.7963C21.5773 11.822 21.517 11.8605 21.4659 11.9095C21.4148 11.9585 21.3738 12.017 21.3453 12.0819C21.3169 12.1467 21.3014 12.2165 21.2999 12.2873C21.2984 12.3581 21.3109 12.4285 21.3366 12.4945C21.3623 12.5605 21.4007 12.6207 21.4497 12.6718L32.1502 23.8168Z" fill="#213C73"/>
<path d="M35.3105 41.088L37.1801 35.2987C37.9883 34.1807 38.7534 32.7179 37.9506 31.1823C37.5899 30.4982 36.9858 29.9743 36.2576 29.7139C35.5294 29.4536 34.73 29.4758 34.0174 29.7761C33.6964 29.9209 33.4088 30.1303 33.1724 30.3913C32.936 30.6522 32.756 30.9591 32.6435 31.2928C32.436 32.0121 32.6058 32.8014 33.1499 33.65C31.8461 37.594 31.38 40.7944 30.7254 45.6354C30.716 45.7065 30.7208 45.7787 30.7397 45.8478C30.7585 45.917 30.791 45.9817 30.8351 46.0381C30.8793 46.0945 30.9342 46.1416 30.9968 46.1766C31.0594 46.2115 31.1283 46.2336 31.1995 46.2416H31.2722C31.4038 46.2427 31.5312 46.1956 31.6305 46.1093C31.7297 46.0229 31.7939 45.9033 31.811 45.7728C32.4603 40.8941 32.9263 37.6909 34.2625 33.7362C34.2896 33.6554 34.2972 33.5693 34.2845 33.485C34.2719 33.4007 34.2394 33.3206 34.1898 33.2513C33.7291 32.6074 33.5567 32.0525 33.6806 31.6053C33.7455 31.423 33.8457 31.2553 33.9756 31.112C34.1056 30.9687 34.2626 30.8525 34.4376 30.7701C34.9014 30.5847 35.4172 30.5764 35.8867 30.7468C36.3562 30.9172 36.7466 31.2544 36.9834 31.6942C37.4172 32.5185 37.1963 33.4318 36.2453 34.7491C36.2124 34.7951 36.1869 34.846 36.1699 34.9L34.2841 40.7674C34.2519 40.9004 34.2715 41.0407 34.3389 41.1597C34.4063 41.2788 34.5165 41.3678 34.6471 41.4085C34.7777 41.4493 34.919 41.4389 35.0421 41.3794C35.1653 41.3199 35.2613 41.2157 35.3105 41.088Z" fill="#213C73"/>
<path d="M44.1844 19.644C44.2203 19.7111 44.2699 19.7698 44.3301 19.8163C44.3903 19.8629 44.4597 19.8961 44.5337 19.9139C44.6077 19.9317 44.6846 19.9336 44.7593 19.9195C44.8341 19.9054 44.905 19.8756 44.9675 19.8322C45.0299 19.7887 45.0824 19.7325 45.1216 19.6672C45.1607 19.602 45.1856 19.5292 45.1946 19.4537C45.2036 19.3781 45.1965 19.3015 45.1737 19.2289C45.151 19.1563 45.1131 19.0894 45.0626 19.0324C44.9549 18.8816 44.8453 18.7325 44.734 18.5852C44.6451 18.4786 44.5186 18.4104 44.3807 18.3948C44.2428 18.3792 44.1042 18.4174 43.9938 18.5014C43.8833 18.5854 43.8096 18.7088 43.7879 18.8459C43.7662 18.983 43.7982 19.1231 43.8773 19.2372C43.9815 19.3683 44.0838 19.5039 44.1844 19.644Z" fill="#213C73"/>
<path d="M48.2413 28.9166C48.2413 28.7737 48.1846 28.6367 48.0835 28.5356C47.9825 28.4346 47.8454 28.3778 47.7025 28.3778C47.5596 28.3778 47.4226 28.4346 47.3216 28.5356C47.2205 28.6367 47.1637 28.7737 47.1637 28.9166V29.0001C47.1637 29.1492 47.1637 29.2973 47.1637 29.4446C47.162 29.5154 47.1741 29.5858 47.1996 29.6519C47.225 29.7179 47.2632 29.7783 47.312 29.8296C47.3608 29.8809 47.4192 29.9221 47.4839 29.9508C47.5486 29.9795 47.6183 29.9951 47.6891 29.9969H47.7025C47.8431 29.9969 47.9782 29.942 48.0788 29.8439C48.1795 29.7457 48.2378 29.6121 48.2413 29.4716C48.2413 29.3135 48.2413 29.1555 48.2413 28.9974V28.9166Z" fill="#213C73"/>
<path d="M42.2419 40.6136C42.1162 40.7339 41.9896 40.8525 41.8621 40.9692C41.7549 41.0653 41.6903 41.2 41.6824 41.3438C41.6746 41.4875 41.7242 41.6285 41.8203 41.7356C41.9164 41.8428 42.0511 41.9074 42.1949 41.9153C42.3386 41.9231 42.4796 41.8735 42.5867 41.7774C42.7232 41.6535 42.8579 41.5269 42.9908 41.3975C43.0455 41.3493 43.0898 41.2906 43.121 41.2247C43.1523 41.1589 43.1699 41.0874 43.1728 41.0146C43.1756 40.9418 43.1637 40.8692 43.1377 40.8011C43.1116 40.7331 43.0721 40.671 43.0214 40.6186C42.9707 40.5663 42.9099 40.5248 42.8427 40.4966C42.7755 40.4684 42.7033 40.4542 42.6304 40.4547C42.5576 40.4553 42.4856 40.4706 42.4188 40.4997C42.352 40.5289 42.2918 40.5713 42.2419 40.6244V40.6136Z" fill="#213C73"/>
<path d="M45.5152 21.8797C45.545 21.9454 45.5876 22.0044 45.6407 22.0533C45.6937 22.1022 45.756 22.1399 45.8238 22.1643C45.8917 22.1886 45.9638 22.1991 46.0358 22.1951C46.1078 22.1911 46.1782 22.1727 46.243 22.1409C46.3077 22.1092 46.3655 22.0648 46.4127 22.0103C46.46 21.9558 46.4959 21.8925 46.5182 21.8239C46.5405 21.7553 46.5488 21.683 46.5426 21.6111C46.5365 21.5393 46.516 21.4694 46.4823 21.4056C46.4015 21.2386 46.3171 21.0734 46.2291 20.9099C46.1965 20.8462 46.1516 20.7896 46.097 20.7435C46.0424 20.6973 45.9791 20.6625 45.9108 20.641C45.8426 20.6196 45.7708 20.6119 45.6995 20.6185C45.6283 20.6251 45.5591 20.6458 45.496 20.6794C45.4328 20.7131 45.377 20.7589 45.3318 20.8144C45.2866 20.8698 45.2528 20.9337 45.2326 21.0022C45.2123 21.0708 45.2059 21.1428 45.2137 21.2139C45.2215 21.285 45.2434 21.3538 45.2781 21.4164C45.3607 21.569 45.4397 21.7235 45.5152 21.8797Z" fill="#213C73"/>
<path d="M42.509 17.6504C42.6094 17.7522 42.7461 17.81 42.8891 17.811C43.032 17.812 43.1696 17.7562 43.2714 17.6558C43.3732 17.5554 43.431 17.4187 43.432 17.2757C43.433 17.1327 43.3771 16.9952 43.2768 16.8934C43.1475 16.7623 43.0154 16.633 42.8808 16.5054C42.7772 16.4068 42.6386 16.3534 42.4956 16.357C42.3527 16.3605 42.217 16.4207 42.1184 16.5243C42.0198 16.6279 41.9664 16.7664 41.9699 16.9094C41.9734 17.0524 42.0336 17.1881 42.1372 17.2867C42.2558 17.4052 42.3797 17.5265 42.509 17.6504Z" fill="#213C73"/>
<path d="M47.3873 25.708C47.3174 25.7194 47.2504 25.7445 47.1902 25.7819C47.1301 25.8192 47.0778 25.8681 47.0366 25.9256C46.9953 25.9832 46.9657 26.0483 46.9496 26.1173C46.9335 26.1862 46.9312 26.2577 46.9428 26.3276C46.9715 26.5072 46.9975 26.6787 47.0209 26.8421C47.038 26.9726 47.1022 27.0922 47.2015 27.1786C47.3007 27.2649 47.4281 27.312 47.5597 27.3109H47.6324C47.7027 27.3016 47.7704 27.2785 47.8318 27.243C47.8931 27.2075 47.9468 27.1603 47.9899 27.1039C48.0329 27.0476 48.0644 26.9834 48.0826 26.9149C48.1008 26.8464 48.1053 26.775 48.0958 26.7047C48.0706 26.5251 48.0428 26.3455 48.0123 26.1659C48.0025 26.0943 47.9783 26.0254 47.9414 25.9633C47.9044 25.9012 47.8552 25.8471 47.7969 25.8044C47.7386 25.7617 47.6723 25.7311 47.6019 25.7145C47.5315 25.698 47.4585 25.6957 47.3873 25.708Z" fill="#213C73"/>
<path d="M46.3101 23.8033C46.3657 23.9668 46.4187 24.132 46.469 24.299C46.5105 24.4358 46.6045 24.5506 46.7306 24.618C46.8567 24.6855 47.0043 24.7001 47.1412 24.6587C47.278 24.6172 47.3927 24.5231 47.4602 24.3971C47.5276 24.271 47.5422 24.1233 47.5008 23.9865C47.4469 23.8069 47.3903 23.6273 47.3311 23.4477C47.3084 23.3807 47.2728 23.3188 47.2262 23.2655C47.1797 23.2122 47.1231 23.1686 47.0596 23.1372C46.9962 23.1058 46.9272 23.0872 46.8566 23.0825C46.786 23.0778 46.7152 23.087 46.6482 23.1096C46.5811 23.1323 46.5192 23.1679 46.4659 23.2145C46.4126 23.261 46.3691 23.3177 46.3377 23.3811C46.3063 23.4445 46.2877 23.5135 46.2829 23.5841C46.2782 23.6547 46.2874 23.7255 46.3101 23.7925V23.8033Z" fill="#213C73"/>
<path d="M47.584 31.0716C47.514 31.0605 47.4424 31.0633 47.3734 31.0799C47.3045 31.0965 47.2395 31.1266 47.1821 31.1684C47.1248 31.2102 47.0763 31.2629 47.0394 31.3235C47.0025 31.3841 46.978 31.4514 46.9671 31.5215C46.9402 31.7011 46.9106 31.8726 46.8782 32.036C46.8649 32.1056 46.8655 32.177 46.8798 32.2463C46.8942 32.3156 46.922 32.3814 46.9618 32.44C47.0016 32.4985 47.0525 32.5486 47.1117 32.5875C47.1708 32.6264 47.237 32.6532 47.3066 32.6664C47.3406 32.6697 47.3749 32.6697 47.4089 32.6664C47.5361 32.6686 47.66 32.6257 47.7586 32.5454C47.8572 32.465 47.9242 32.3523 47.9477 32.2273C47.9819 32.0477 48.0133 31.8681 48.042 31.6885C48.0531 31.6179 48.05 31.5457 48.0328 31.4763C48.0157 31.4068 47.9849 31.3415 47.9423 31.2841C47.8997 31.2267 47.8461 31.1783 47.7845 31.1418C47.723 31.1053 47.6549 31.0815 47.584 31.0716Z" fill="#213C73"/>
<path d="M46.0862 36.2226C46.0234 36.1898 45.9548 36.1697 45.8842 36.1635C45.8137 36.1572 45.7426 36.165 45.675 36.1862C45.6075 36.2075 45.5448 36.2419 45.4905 36.2874C45.4362 36.3329 45.3915 36.3887 45.3588 36.4515C45.278 36.606 45.1954 36.7587 45.111 36.9095C45.0395 37.0338 45.0204 37.1815 45.0578 37.3199C45.0952 37.4583 45.186 37.5762 45.3103 37.6477C45.4346 37.7191 45.5822 37.7383 45.7207 37.7009C45.8591 37.6635 45.977 37.5726 46.0485 37.4483C46.1401 37.2867 46.2299 37.1232 46.3179 36.958C46.3518 36.8947 46.3728 36.8252 46.3795 36.7537C46.3862 36.6822 46.3785 36.61 46.3569 36.5415C46.3353 36.473 46.3003 36.4094 46.2538 36.3547C46.2073 36.2999 46.1503 36.255 46.0862 36.2226Z" fill="#213C73"/>
<path d="M40.1109 15.6488C40.2546 15.7475 40.3965 15.8481 40.5366 15.9505C40.6519 16.0348 40.7961 16.0698 40.9373 16.0478C41.0785 16.0259 41.2052 15.9487 41.2895 15.8333C41.3738 15.7179 41.4089 15.5738 41.3869 15.4326C41.3649 15.2913 41.2877 15.1647 41.1723 15.0803C41.0233 14.9708 40.8724 14.8639 40.7198 14.7598C40.6614 14.7187 40.5955 14.6897 40.5259 14.6744C40.4562 14.659 40.3842 14.6576 40.3141 14.6703C40.2439 14.683 40.1769 14.7095 40.1171 14.7483C40.0572 14.787 40.0056 14.8373 39.9653 14.8961C39.9251 14.9549 39.8968 15.0212 39.8823 15.091C39.8678 15.1608 39.8674 15.2328 39.8809 15.3028C39.8944 15.3729 39.9217 15.4395 39.9612 15.4989C40.0007 15.5582 40.0516 15.6092 40.1109 15.6488Z" fill="#213C73"/>
<path d="M40.2322 42.2678C40.0903 42.3666 39.9466 42.4636 39.8011 42.5588C39.7388 42.5959 39.6846 42.6452 39.6418 42.7038C39.599 42.7624 39.5685 42.829 39.5521 42.8997C39.5356 42.9704 39.5337 43.0436 39.5462 43.1151C39.5588 43.1865 39.5857 43.2547 39.6253 43.3155C39.6649 43.3763 39.7163 43.4285 39.7765 43.4689C39.8368 43.5094 39.9046 43.5373 39.9758 43.5509C40.0471 43.5645 40.1204 43.5635 40.1913 43.5481C40.2622 43.5327 40.3292 43.5032 40.3884 43.4612C40.5447 43.3607 40.6982 43.2574 40.8491 43.1514C40.9663 43.0696 41.0461 42.9446 41.0711 42.8039C41.0961 42.6632 41.0642 42.5183 40.9824 42.4012C40.9006 42.284 40.7756 42.2041 40.6349 42.1791C40.4942 42.1541 40.3493 42.186 40.2322 42.2678Z" fill="#213C73"/>
<path d="M44.7175 38.5473C44.6607 38.505 44.5962 38.4743 44.5275 38.457C44.4589 38.4396 44.3875 38.436 44.3175 38.4462C44.2474 38.4565 44.1801 38.4805 44.1193 38.5168C44.0585 38.5531 44.0055 38.601 43.9632 38.6578C43.859 38.7961 43.7531 38.9335 43.6453 39.07C43.5587 39.182 43.5196 39.3236 43.5366 39.4642C43.5536 39.6048 43.6253 39.7331 43.7361 39.8212C43.8469 39.9094 43.988 39.9504 44.1288 39.9353C44.2696 39.9203 44.3988 39.8504 44.4885 39.7408C44.6035 39.5953 44.7166 39.4489 44.828 39.3017C44.8703 39.2449 44.901 39.1803 44.9183 39.1117C44.9357 39.0431 44.9393 38.9717 44.9291 38.9016C44.9188 38.8316 44.8948 38.7642 44.8585 38.7034C44.8222 38.6426 44.7743 38.5896 44.7175 38.5473Z" fill="#213C73"/>
<path d="M47.0399 33.7063C46.9723 33.6836 46.9009 33.6745 46.8298 33.6796C46.7588 33.6847 46.6894 33.7038 46.6257 33.7359C46.5621 33.7679 46.5055 33.8123 46.4591 33.8664C46.4127 33.9205 46.3775 33.9833 46.3556 34.0511C46.3017 34.2164 46.2442 34.3807 46.1832 34.5441C46.1325 34.6792 46.1374 34.8288 46.1971 34.9602C46.2567 35.0915 46.366 35.1938 46.5011 35.2445C46.6361 35.2953 46.7858 35.2903 46.9171 35.2307C47.0485 35.1711 47.1508 35.0617 47.2015 34.9267C47.2644 34.7471 47.3254 34.5675 47.3847 34.3879C47.407 34.3205 47.4157 34.2494 47.4105 34.1786C47.4052 34.1078 47.386 34.0388 47.3539 33.9754C47.3219 33.9121 47.2776 33.8557 47.2237 33.8095C47.1698 33.7633 47.1074 33.7283 47.0399 33.7063Z" fill="#213C73"/>
<path d="M37.8514 14.3556C38.0094 14.4293 38.1657 14.5056 38.3201 14.5846C38.3833 14.617 38.4522 14.6366 38.5229 14.6424C38.5937 14.6481 38.6648 14.6399 38.7324 14.6181C38.7999 14.5963 38.8625 14.5615 38.9166 14.5155C38.9707 14.4696 39.0151 14.4134 39.0475 14.3503C39.0799 14.2871 39.0995 14.2182 39.1052 14.1475C39.111 14.0767 39.1027 14.0056 39.081 13.938C39.0592 13.8705 39.0244 13.8079 38.9784 13.7538C38.9324 13.6997 38.8763 13.6553 38.8131 13.6229C38.6479 13.5385 38.4809 13.4568 38.3121 13.3777C38.2478 13.3461 38.1779 13.3276 38.1065 13.3232C38.035 13.3189 37.9634 13.3289 37.8958 13.3526C37.8282 13.3762 37.766 13.4132 37.7129 13.4611C37.6597 13.5091 37.6167 13.5672 37.5863 13.632C37.5558 13.6968 37.5386 13.7671 37.5356 13.8386C37.5326 13.9102 37.5439 13.9816 37.5689 14.0487C37.5938 14.1158 37.6319 14.1773 37.6809 14.2295C37.7298 14.2818 37.7887 14.3237 37.8541 14.353L37.8514 14.3556Z" fill="#213C73"/>
<path d="M35.4097 13.445C35.5768 13.4917 35.7438 13.542 35.9108 13.5959C36.0473 13.6391 36.1953 13.6264 36.3224 13.5604C36.4495 13.4945 36.5451 13.3808 36.5884 13.2443C36.6316 13.1079 36.6188 12.9598 36.5529 12.8327C36.487 12.7057 36.3733 12.61 36.2368 12.5668C36.0572 12.5111 35.8776 12.4572 35.698 12.4051C35.5605 12.3662 35.4131 12.3835 35.2883 12.4532C35.1635 12.5229 35.0715 12.6394 35.0326 12.7769C34.9937 12.9145 35.0109 13.0618 35.0807 13.1866C35.1504 13.3114 35.2668 13.4034 35.4044 13.4423L35.4097 13.445Z" fill="#213C73"/>
</g>
</g>
<defs>
<filter id="filter0_d_5003_6712" x="0.827586" y="0.551724" width="63.7931" height="63.7931" filterUnits="userSpaceOnUse" color-interpolation-filters="sRGB">
<feFlood flood-opacity="0" result="BackgroundImageFix"/>
<feColorMatrix in="SourceAlpha" type="matrix" values="0 0 0 0 0 0 0 0 0 0 0 0 0 0 0 0 0 0 127 0" result="hardAlpha"/>
<feOffset dx="1.72414" dy="3.44828"/>
<feGaussianBlur stdDeviation="3.44828"/>
<feComposite in2="hardAlpha" operator="out"/>
<feColorMatrix type="matrix" values="0 0 0 0 0.129412 0 0 0 0 0.235294 0 0 0 0 0.45098 0 0 0 0.16 0"/>
<feBlend mode="normal" in2="BackgroundImageFix" result="effect1_dropShadow_5003_6712"/>
<feBlend mode="normal" in="SourceGraphic" in2="effect1_dropShadow_5003_6712" result="shape"/>
</filter>
<linearGradient id="paint0_linear_5003_6712" x1="56" y1="54" x2="6" y2="4" gradientUnits="userSpaceOnUse">
<stop stop-color="#54BE95"/>
<stop offset="0.288462" stop-color="#2E7B9A"/>
<stop offset="1" stop-color="#224075"/>
</linearGradient>
<clipPath id="clip0_5003_6712">
<rect width="34.4828" height="34.4828" fill="white" transform="translate(13.7588 11.7587)"/>
</clipPath>
</defs>
</svg>
