<svg width="74" height="74" viewBox="0 0 74 74" fill="none" xmlns="http://www.w3.org/2000/svg">
<g filter="url(#filter0_d_5003_6048)">
<rect x="6" y="4" width="58" height="58" rx="29" fill="white"/>
<rect x="6.39726" y="4.39726" width="57.2055" height="57.2055" rx="28.6027" stroke="url(#paint0_linear_5003_6048)" stroke-width="0.794521"/>
<g clip-path="url(#clip0_5003_6048)">
<path d="M29.5059 52.61V49.7607C29.5059 49.7607 26.765 45.3329 25.8541 42.2239C25.732 41.7964 25.5122 41.4031 25.2121 41.0752C24.6518 40.471 23.7806 39.3542 23.7258 38.2001C23.6445 36.4905 23.97 35.025 23.3187 33.7225C22.6675 32.42 19.0853 29.3263 19.411 28.3493C19.7367 27.3724 24.865 28.4307 25.761 30.7918C26.657 33.1529 26.9007 34.374 27.3078 34.211C27.7149 34.0481 26.738 30.9546 27.8777 29.3263C29.0174 27.6981 31.2971 25.4186 31.704 22.9764C32.1109 20.5341 31.6227 19.3128 32.1111 17.8475C32.5996 16.3823 34.7164 14.6724 35.6114 14.9978C36.5064 15.3231 34.8787 19.4754 34.8787 19.4754V24.4414C34.8787 25.337 33.4946 29.9774 33.4946 29.9774C33.4946 29.9774 36.507 22.9766 36.9952 19.231C37.4835 15.4855 39.926 12.7181 41.5542 13.5323C43.1824 14.3465 40.2517 19.4754 40.2517 19.4754C40.2517 19.4754 39.926 23.0575 39.8446 23.7896C39.7632 24.5216 38.0536 29.3255 38.2978 29.9768C38.5419 30.628 41.6356 27.2902 42.8567 24.3595C44.0778 21.4287 44.9734 16.7882 46.7644 17.2767C48.5554 17.7652 46.7644 24.1967 46.7644 24.1967C46.7644 24.1967 46.1132 27.209 45.8688 27.8603C45.6245 28.5115 42.531 32.9891 42.531 32.9891C42.531 32.9891 46.1132 29.7326 46.6015 28.023C47.0898 26.3134 48.2291 23.871 49.2067 24.3595C50.1842 24.848 48.9625 30.7096 48.5554 31.9307C48.1483 33.1519 46.1132 34.373 45.9502 35.1872C45.7873 36.0014 45.6245 37.3039 45.299 38.1995C44.9734 39.0951 41.9611 42.7585 41.5534 44.0612C41.1457 45.3639 41.5534 52.5281 41.5534 52.5281L29.5059 52.61Z" fill="white"/>
<path d="M44.9847 29.3424C43.9914 30.8765 42.5312 32.9899 42.5312 32.9899C42.5312 32.9899 46.1134 29.7334 46.6017 28.0238C47.09 26.3142 48.2294 23.8718 49.2069 24.3602C50.1845 24.8487 48.9628 30.7104 48.5557 31.9315C48.1486 33.1526 46.1134 34.3738 45.9505 35.188C45.8375 35.753 45.7246 36.5532 45.5571 37.2894" fill="white"/>
<path d="M44.9847 29.3424C43.9914 30.8765 42.5312 32.9899 42.5312 32.9899C42.5312 32.9899 46.1134 29.7334 46.6017 28.0238C47.09 26.3142 48.2294 23.8718 49.2069 24.3602C50.1845 24.8487 48.9628 30.7104 48.5557 31.9315C48.1486 33.1526 46.1134 34.3738 45.9505 35.188C45.8375 35.753 45.7246 36.5532 45.5571 37.2894" stroke="#213C73" stroke-width="0.7797" stroke-linecap="round" stroke-linejoin="round"/>
<path d="M23.7289 36.5476C23.7524 35.5188 23.7495 34.585 23.3182 33.7225C22.667 32.42 19.0848 29.3263 19.4105 28.3493C19.7363 27.3724 24.8647 28.4307 25.7607 30.7918C26.6567 33.1529 26.9004 34.374 27.3075 34.211C27.7146 34.0481 26.7377 30.9546 27.8774 29.3263C29.0172 27.6981 31.2968 25.4186 31.7037 22.9764C32.1107 20.5341 31.6224 19.3128 32.1109 17.8475C32.5993 16.3823 34.7161 14.6724 35.6111 14.9978C36.5061 15.3231 34.8784 19.4754 34.8784 19.4754V24.4414C34.8784 25.337 33.4943 29.9774 33.4943 29.9774C33.4943 29.9774 36.5067 22.9766 36.995 19.231C37.4832 15.4855 39.9257 12.7181 41.5539 13.5323C43.1822 14.3465 40.2514 19.4754 40.2514 19.4754C40.2514 19.4754 39.9257 23.0575 39.8443 23.7896C39.7629 24.5216 38.0533 29.3255 38.2975 29.9768C38.5416 30.628 41.6353 27.2902 42.8564 24.3595C44.0776 21.4287 44.9731 16.7882 46.7641 17.2767C48.5551 17.7652 46.7641 24.1967 46.7641 24.1967C46.7641 24.1967 46.7145 24.4265 46.6373 24.773" stroke="#213C73" stroke-width="0.7797" stroke-linecap="round" stroke-linejoin="round"/>
<path d="M29.5058 52.6101V49.7607C29.5058 49.7607 26.7648 45.333 25.854 42.224C25.7319 41.7965 25.5121 41.4032 25.2119 41.0752" stroke="#213C73" stroke-width="0.7797" stroke-linecap="round" stroke-linejoin="round"/>
<path d="M35.7063 33.325C36.424 33.325 37.0059 32.7431 37.0059 32.0254C37.0059 31.3077 36.424 30.7258 35.7063 30.7258C34.9886 30.7258 34.4067 31.3077 34.4067 32.0254C34.4067 32.7431 34.9886 33.325 35.7063 33.325Z" fill="white"/>
<path d="M35.7059 33.5846C36.5671 33.5846 37.2653 32.8865 37.2653 32.0252C37.2653 31.164 36.5671 30.4658 35.7059 30.4658C34.8447 30.4658 34.1465 31.164 34.1465 32.0252C34.1465 32.8865 34.8447 33.5846 35.7059 33.5846Z" fill="white" stroke="#213C73" stroke-width="0.7797" stroke-linecap="round" stroke-linejoin="round"/>
<path d="M30.7937 34.0266C31.5114 34.0266 32.0933 33.4448 32.0933 32.7271C32.0933 32.0093 31.5114 31.4275 30.7937 31.4275C30.076 31.4275 29.4941 32.0093 29.4941 32.7271C29.4941 33.4448 30.076 34.0266 30.7937 34.0266Z" fill="white"/>
<path d="M30.7943 34.2863C31.6555 34.2863 32.3537 33.5881 32.3537 32.7269C32.3537 31.8656 31.6555 31.1675 30.7943 31.1675C29.933 31.1675 29.2349 31.8656 29.2349 32.7269C29.2349 33.5881 29.933 34.2863 30.7943 34.2863Z" fill="white" stroke="#213C73" stroke-width="0.7797" stroke-linecap="round" stroke-linejoin="round"/>
<path d="M39.6828 35.0013C40.2928 35.0013 40.7874 34.5067 40.7874 33.8966C40.7874 33.2866 40.2928 32.792 39.6828 32.792C39.0727 32.792 38.5781 33.2866 38.5781 33.8966C38.5781 34.5067 39.0727 35.0013 39.6828 35.0013Z" fill="white"/>
<path d="M39.6829 35.2222C40.4149 35.2222 41.0083 34.6288 41.0083 33.8967C41.0083 33.1647 40.4149 32.5713 39.6829 32.5713C38.9508 32.5713 38.3574 33.1647 38.3574 33.8967C38.3574 34.6288 38.9508 35.2222 39.6829 35.2222Z" fill="white" stroke="#213C73" stroke-width="0.7797" stroke-linecap="round" stroke-linejoin="round"/>
<path d="M42.9576 37.2237C43.46 37.2237 43.8673 36.8164 43.8673 36.314C43.8673 35.8116 43.46 35.4043 42.9576 35.4043C42.4551 35.4043 42.0479 35.8116 42.0479 36.314C42.0479 36.8164 42.4551 37.2237 42.9576 37.2237Z" fill="white"/>
<path d="M42.9574 37.4056C43.5603 37.4056 44.0491 36.9168 44.0491 36.3139C44.0491 35.7109 43.5603 35.2222 42.9574 35.2222C42.3545 35.2222 41.8657 35.7109 41.8657 36.3139C41.8657 36.9168 42.3545 37.4056 42.9574 37.4056Z" fill="white" stroke="#213C73" stroke-width="0.7797" stroke-linecap="round" stroke-linejoin="round"/>
<path d="M33.6784 25.8785C34.2884 25.8785 34.783 25.3839 34.783 24.7738C34.783 24.1638 34.2884 23.6692 33.6784 23.6692C33.0683 23.6692 32.5737 24.1638 32.5737 24.7738C32.5737 25.3839 33.0683 25.8785 33.6784 25.8785Z" fill="white"/>
<path d="M33.6785 26.0994C34.4105 26.0994 35.0039 25.506 35.0039 24.7739C35.0039 24.0419 34.4105 23.4485 33.6785 23.4485C32.9465 23.4485 32.353 24.0419 32.353 24.7739C32.353 25.506 32.9465 26.0994 33.6785 26.0994Z" fill="white" stroke="#213C73" stroke-width="0.7797" stroke-linecap="round" stroke-linejoin="round"/>
<path d="M44.985 27.6719C45.5951 27.6719 46.0897 27.1774 46.0897 26.5673C46.0897 25.9572 45.5951 25.4626 44.985 25.4626C44.3749 25.4626 43.8804 25.9572 43.8804 26.5673C43.8804 27.1774 44.3749 27.6719 44.985 27.6719Z" fill="white"/>
<path d="M44.9856 27.8926C45.7176 27.8926 46.3111 27.2992 46.3111 26.5671C46.3111 25.8351 45.7176 25.2417 44.9856 25.2417C44.2536 25.2417 43.6602 25.8351 43.6602 26.5671C43.6602 27.2992 44.2536 27.8926 44.9856 27.8926Z" fill="white" stroke="#213C73" stroke-width="0.7797" stroke-linecap="round" stroke-linejoin="round"/>
<path d="M25.1793 39.7576C25.7894 39.7576 26.284 39.2631 26.284 38.653C26.284 38.0429 25.7894 37.5483 25.1793 37.5483C24.5693 37.5483 24.0747 38.0429 24.0747 38.653C24.0747 39.2631 24.5693 39.7576 25.1793 39.7576Z" fill="white"/>
<path d="M25.1799 39.9785C25.912 39.9785 26.5054 39.3851 26.5054 38.6531C26.5054 37.9211 25.912 37.3276 25.1799 37.3276C24.4479 37.3276 23.8545 37.9211 23.8545 38.6531C23.8545 39.3851 24.4479 39.9785 25.1799 39.9785Z" fill="white" stroke="#213C73" stroke-width="0.7797" stroke-linecap="round" stroke-linejoin="round"/>
<path d="M40.8678 49.4072C40.8024 49.3464 40.7349 49.2876 40.6654 49.2307C40.0347 48.7177 39.6159 47.8143 39.6159 46.7851C39.6156 46.4615 39.6586 46.1393 39.7437 45.827C39.6584 45.5138 39.6154 45.1907 39.6159 44.8661C39.6159 44.8645 39.6159 44.8628 39.6159 44.8612C39.6163 44.5101 39.6676 44.161 39.768 43.8246C39.9273 43.2928 40.2144 42.8008 40.6405 42.4433C41.1256 42.0364 41.511 41.5216 41.7316 40.9288C41.9226 40.415 42.0497 39.8667 42.1334 39.3354C39.3501 40.181 37.3242 42.7672 37.3242 45.8264C37.3242 48.8995 39.3678 51.4947 42.1701 52.3287C42.103 51.8595 42.0018 51.3771 41.8522 50.9168C41.6624 50.334 41.3147 49.8222 40.8678 49.4072Z" fill="white" stroke="#213C73" stroke-width="0.7797" stroke-linecap="round" stroke-linejoin="round"/>
<path d="M46.0449 39.3242C46.112 39.7935 46.2132 40.2759 46.3628 40.7361C46.5785 41.4029 47.0044 41.9783 47.5488 42.4211C47.9622 42.7574 48.2846 43.2612 48.4576 43.8583C48.5512 44.1845 48.5985 44.5222 48.5982 44.8615C48.5982 44.8631 48.5982 44.8649 48.5982 44.8664C48.5987 45.1906 48.5558 45.5134 48.4707 45.8262C48.4982 45.9264 48.5215 46.0279 48.5399 46.1303C48.579 46.3465 48.5987 46.5656 48.5988 46.7853C48.5988 47.5136 48.3887 48.1776 48.0428 48.6875C47.8649 48.9491 47.6581 49.1707 47.4506 49.387C47.0739 49.7792 46.6952 50.1559 46.484 50.7244C46.293 51.2382 46.1659 51.7863 46.0822 52.3177C48.8654 51.4721 50.8914 48.8859 50.8914 45.8267C50.8908 42.7534 48.8476 40.1577 46.0449 39.3242Z" fill="white" stroke="#213C73" stroke-width="0.7797" stroke-linecap="round" stroke-linejoin="round"/>
<path d="M40.6405 42.4428C40.2142 42.8003 39.9273 43.2923 39.7681 43.8241C40.6864 44.4358 42.2493 45.2402 44.1182 45.2402C46.111 45.2402 47.6463 44.4166 48.4583 43.8589C48.2853 43.2617 47.963 42.7577 47.5496 42.4216C47.0054 41.9788 46.5802 41.4041 46.3635 40.7367C46.2139 40.2759 46.1127 39.7935 46.0457 39.3248C44.7685 38.946 43.4083 38.9498 42.1332 39.3358C42.0495 39.867 41.9224 40.4143 41.7314 40.9291C41.511 41.5219 41.1257 42.0359 40.6405 42.4428Z" fill="white"/>
<path d="M48.5987 44.8622C48.5991 44.5228 48.5517 44.1851 48.4581 43.8589C47.6461 44.417 46.1108 45.2403 44.118 45.2403C42.2492 45.2403 40.6862 44.4363 39.7679 43.8242C39.6676 44.1611 39.6167 44.5107 39.6167 44.8622C39.6167 44.8638 39.6167 44.8655 39.6167 44.8671C39.6162 45.1917 39.6592 45.5148 39.7446 45.828C40.0534 46.9542 40.889 47.7615 41.8723 47.7617C42.298 47.7617 42.7341 47.5888 43.0648 47.3238C43.3197 47.1193 43.7693 47.0032 44.0878 47.0032C44.3327 47.0032 44.8501 47.0579 45.0487 47.237C45.4152 47.5672 45.8614 47.7617 46.343 47.7617C47.3264 47.7617 48.1624 46.9538 48.4711 45.8272C48.5562 45.5144 48.599 45.1916 48.5985 44.8675C48.5987 44.8655 48.5987 44.8641 48.5987 44.8622Z" fill="white"/>
<path d="M48.5406 46.1311C48.5222 46.0287 48.4988 45.9271 48.4714 45.8269C48.1627 46.9535 47.3267 47.7614 46.3433 47.7614C45.8615 47.7614 45.4153 47.5669 45.049 47.2367C44.8504 47.0576 44.333 47.0029 44.0881 47.0029C43.7696 47.0029 43.3206 47.119 43.065 47.3235C42.7342 47.5885 42.2983 47.7614 41.8726 47.7614C40.8893 47.7614 40.0537 46.9539 39.7449 45.8277C39.6598 46.14 39.6168 46.4622 39.6172 46.7858C39.6172 47.815 40.0359 48.7184 40.6667 49.2314C40.7361 49.2879 40.8036 49.3467 40.8691 49.4079C41.316 49.8231 41.6637 50.3347 41.8527 50.9167C42.0024 51.3776 42.1036 51.86 42.1706 52.3286C43.4478 52.7075 44.808 52.7036 46.083 52.3177C46.1668 51.7864 46.2939 51.2391 46.4849 50.7243C46.6961 50.1556 47.0747 49.7799 47.4514 49.3869C47.6589 49.1712 47.8658 48.949 48.0437 48.6874C48.3896 48.1787 48.5996 47.514 48.5996 46.7852C48.5994 46.5659 48.5797 46.3469 48.5406 46.1311Z" fill="white" stroke="#213C73" stroke-width="0.7797" stroke-linecap="round" stroke-linejoin="round"/>
<path d="M40.6405 42.4428C40.2142 42.8003 39.9273 43.2923 39.7681 43.8241C40.6864 44.4358 42.2493 45.2402 44.1182 45.2402C46.111 45.2402 47.6463 44.4166 48.4583 43.8589C48.2853 43.2617 47.963 42.7577 47.5496 42.4216C47.0054 41.9788 46.5802 41.4041 46.3635 40.7367C46.2139 40.2759 46.1127 39.7935 46.0457 39.3248C44.7685 38.946 43.4083 38.9498 42.1332 39.3358C42.0495 39.867 41.9224 40.4143 41.7314 40.9291C41.511 41.5219 41.1257 42.0359 40.6405 42.4428Z" fill="white" stroke="#213C73" stroke-width="0.7797" stroke-linecap="round" stroke-linejoin="round"/>
<path d="M48.5986 44.8624C48.5917 44.731 48.4554 43.8609 48.458 43.8589C47.6459 44.417 46.1106 45.2403 44.1178 45.2403C42.249 45.2403 40.6861 44.4363 39.7677 43.8242C39.574 44.4769 39.5659 45.1707 39.7442 45.8278C40.0531 46.954 40.8886 47.7613 41.8719 47.7615C42.2976 47.7615 42.7338 47.5886 43.0644 47.3236C43.3193 47.1191 43.769 47.003 44.0875 47.003C44.3324 47.003 44.8497 47.0577 45.0483 47.2368C45.4149 47.567 45.861 47.7615 46.3426 47.7615C47.3261 47.7615 48.162 46.9536 48.4707 45.827C48.5555 45.5155 48.5984 45.1941 48.5984 44.8712C48.599 44.8687 48.5988 44.8657 48.5986 44.8624Z" fill="white" stroke="#213C73" stroke-width="0.7797" stroke-linecap="round" stroke-linejoin="round"/>
<path d="M29.9365 37.3276L32.5876 44.1892H35.2387" fill="white"/>
<path d="M29.9365 37.3276L32.5876 44.1892H35.2387" stroke="#213C73" stroke-width="0.7797" stroke-linecap="round" stroke-linejoin="round"/>
</g>
</g>
<defs>
<filter id="filter0_d_5003_6048" x="0" y="0" width="74" height="74" filterUnits="userSpaceOnUse" color-interpolation-filters="sRGB">
<feFlood flood-opacity="0" result="BackgroundImageFix"/>
<feColorMatrix in="SourceAlpha" type="matrix" values="0 0 0 0 0 0 0 0 0 0 0 0 0 0 0 0 0 0 127 0" result="hardAlpha"/>
<feOffset dx="2" dy="4"/>
<feGaussianBlur stdDeviation="4"/>
<feComposite in2="hardAlpha" operator="out"/>
<feColorMatrix type="matrix" values="0 0 0 0 0.129412 0 0 0 0 0.235294 0 0 0 0 0.45098 0 0 0 0.16 0"/>
<feBlend mode="normal" in2="BackgroundImageFix" result="effect1_dropShadow_5003_6048"/>
<feBlend mode="normal" in="SourceGraphic" in2="effect1_dropShadow_5003_6048" result="shape"/>
</filter>
<linearGradient id="paint0_linear_5003_6048" x1="64" y1="62" x2="6" y2="4" gradientUnits="userSpaceOnUse">
<stop stop-color="#54BE95"/>
<stop offset="0.288462" stop-color="#2E7B9A"/>
<stop offset="1" stop-color="#224075"/>
</linearGradient>
<clipPath id="clip0_5003_6048">
<rect width="32.2811" height="40" fill="white" transform="translate(19 13)"/>
</clipPath>
</defs>
</svg>
