<svg width="74" height="74" viewBox="0 0 74 74" fill="none" xmlns="http://www.w3.org/2000/svg">
<g filter="url(#filter0_d_5003_6596)">
<rect x="6" y="4" width="58" height="58" rx="29" fill="white"/>
<rect x="6.39726" y="4.39726" width="57.2055" height="57.2055" rx="28.6027" stroke="url(#paint0_linear_5003_6596)" stroke-width="0.794521"/>
<path d="M28.9019 50.1002C28.5621 50.1002 28.2866 50.3756 28.2866 50.7155V53.3848C28.2866 53.7246 28.5621 54 28.9019 54C29.2416 54 29.5171 53.7246 29.5171 53.3848V50.7155C29.5171 50.3756 29.2416 50.1002 28.9019 50.1002Z" fill="#213C73"/>
<path d="M32.1328 15.4412C32.4726 15.4412 32.748 15.1658 32.748 14.826V12.6152C32.748 12.2754 32.4726 12 32.1328 12C31.793 12 31.5176 12.2754 31.5176 12.6152V14.826C31.5176 15.1658 31.793 15.4412 32.1328 15.4412Z" fill="#213C73"/>
<path d="M41.8599 35.0783C41.8388 35.0569 41.8167 35.0368 41.7953 35.0158C42.36 34.2308 42.6658 33.2906 42.6658 32.3097C42.6658 31.3264 42.3592 30.3848 41.793 29.5999C42.6005 28.8136 43.1247 27.7373 43.1835 26.5494C43.2858 24.5012 42.0019 22.6151 40.0611 21.9626C39.6525 21.8255 39.378 21.4325 39.378 20.9849V12.6152C39.378 12.2754 39.1026 12 38.7628 12C38.423 12 38.1476 12.2754 38.1476 12.6152V20.9849C38.1476 21.9618 38.7592 22.8235 39.6692 23.1291C41.0897 23.6066 42.0294 24.9878 41.9546 26.4883C41.8696 28.2058 40.4566 29.606 38.7378 29.6757C37.6506 29.7227 36.6031 29.2322 35.9363 28.3707C35.8137 28.2049 34.7367 26.7997 33.1857 26.4348C32.8549 26.3569 32.5237 26.5621 32.4459 26.8928C32.3681 27.2235 32.5731 27.5548 32.9039 27.6326C33.6477 27.8076 34.2743 28.3582 34.631 28.7345C33.9743 29.3666 33.082 29.7136 32.1579 29.6757C30.4391 29.6059 29.0262 28.2058 28.9412 26.488C28.8663 24.9878 29.8061 23.6066 31.2263 23.1292C32.1366 22.8234 32.7482 21.9619 32.7482 20.9849V17.6971C32.7482 17.3572 32.4727 17.0818 32.1329 17.0818C31.7932 17.0818 31.5177 17.3572 31.5177 17.6971V20.9849C31.5177 21.4325 31.2432 21.8255 30.8344 21.9627C28.8939 22.6151 27.61 24.5012 27.7122 26.5491C27.7709 27.7372 28.2952 28.8135 29.1026 29.5999C28.5365 30.3848 28.2299 31.3264 28.2299 32.3097C28.2299 33.2877 28.5337 34.2252 29.095 35.0088C28.2899 35.7911 27.7747 36.865 27.7123 38.0571C27.6796 38.6835 27.7713 39.2941 27.9762 39.8629C27.5013 40.395 27.2268 41.0777 27.2104 41.7941C27.1905 42.6006 27.4864 43.3658 28.0425 43.9478C28.1999 44.1133 28.2865 44.342 28.2865 44.5918V47.8444C28.2865 48.1842 28.562 48.4596 28.9017 48.4596C29.2415 48.4596 29.517 48.1842 29.517 47.8444V44.5918C29.517 44.0249 29.31 43.495 28.9331 43.0988C28.6036 42.7541 28.4287 42.3015 28.4406 41.8234C28.4466 41.5582 28.5132 41.3007 28.6312 41.0677C28.7352 41.205 28.8468 41.3379 28.9673 41.4649C29.7074 42.2447 30.6671 42.7271 31.7142 42.8585C31.6617 42.9369 31.6035 43.0118 31.5385 43.0818C31.1512 43.4984 30.938 44.0294 30.938 44.5772V53.3848C30.938 53.7246 31.2135 54 31.5532 54C31.893 54 32.1685 53.7246 32.1685 53.3848V44.5771C32.1685 44.3412 32.2648 44.1077 32.4398 43.9193C32.6683 43.6734 32.8508 43.3933 32.9848 43.0915C33.0593 43.1376 33.13 43.1909 33.1951 43.2522C33.4383 43.4804 33.5836 43.7901 33.604 44.1239L34.1709 53.4222C34.1908 53.7486 34.4617 54 34.7844 54C34.7971 54 34.8098 53.9996 34.8225 53.9989C35.1616 53.9782 35.4199 53.6864 35.3992 53.3474L34.8323 44.0489C34.7925 43.4003 34.5101 42.7986 34.0376 42.3553C33.5648 41.9106 32.9473 41.6657 32.2987 41.6657C31.3674 41.6657 30.5012 41.2935 29.8598 40.6178C29.2186 39.9422 28.8923 39.0556 28.9411 38.1214C29.0249 36.5213 30.2887 35.1654 31.8842 34.9669C31.9623 34.9567 32.0447 34.9495 32.1351 34.945C32.8497 34.91 33.545 34.6214 34.0928 34.1319C34.4651 33.7987 34.9463 33.6152 35.4478 33.6152C35.9486 33.6152 36.43 33.7987 36.8032 34.1321C37.3492 34.6201 38.044 34.9086 38.7603 34.9447L38.7961 34.9471C40.4897 35.0449 41.8773 36.4486 41.9551 38.1428C42.024 39.6378 41.0842 41.0143 39.6697 41.4903C38.7592 41.7968 38.1475 42.6588 38.1475 43.6353V46.3201C38.1475 46.6599 38.4229 46.9353 38.7627 46.9353C39.1025 46.9353 39.3779 46.6599 39.3779 46.3201V43.6354C39.3779 43.1877 39.653 42.7943 40.0623 42.6566C41.9945 42.0062 43.2784 40.1269 43.1844 38.0863C43.1325 36.9582 42.6622 35.8899 41.8599 35.0783ZM38.8425 33.717C38.8369 33.7166 38.8311 33.7163 38.8255 33.716C38.3817 33.6943 37.9659 33.521 37.623 33.2146C37.0238 32.6795 36.2513 32.3848 35.4478 32.3848C34.6431 32.3848 33.8705 32.6797 33.2726 33.2147C32.9296 33.5211 32.5155 33.6946 32.0743 33.7161C31.9503 33.7222 31.8362 33.7322 31.7289 33.7462C31.1366 33.8199 30.5823 34.0049 30.0851 34.2776C29.6796 33.7048 29.4604 33.0218 29.4604 32.3096C29.4604 31.594 29.681 30.9084 30.0892 30.3351C30.6946 30.6717 31.3811 30.8756 32.1078 30.9052C33.3504 30.9537 34.5546 30.4976 35.4478 29.6576C36.2962 30.4556 37.425 30.9089 38.6013 30.9089C38.6632 30.9089 38.7255 30.9076 38.7876 30.9052C39.5144 30.8756 40.2009 30.6717 40.8063 30.3351C41.2145 30.9084 41.4351 31.594 41.4351 32.3096C41.4351 33.0235 41.215 33.7079 40.8077 34.2815C40.2144 33.9532 39.5543 33.7585 38.8715 33.719L38.8425 33.717Z" fill="#213C73"/>
<path d="M38.7627 48.5745C38.4229 48.5745 38.1475 48.8498 38.1475 49.1897V53.3848C38.1475 53.7246 38.4229 54 38.7627 54C39.1025 54 39.3779 53.7246 39.3779 53.3848V49.1897C39.3779 48.8499 39.1025 48.5745 38.7627 48.5745Z" fill="#213C73"/>
<path d="M51.6891 31.5536H49.0374C48.8282 31.5536 48.6334 31.6599 48.5201 31.8357C48.4068 32.0117 48.3908 32.233 48.4773 32.4234L48.9106 33.3766H47.2144C46.8746 33.3766 46.5991 33.6519 46.5991 33.9918C46.5991 34.3317 46.8746 34.607 47.2144 34.607H49.866C50.0752 34.607 50.27 34.5007 50.3833 34.3249C50.4966 34.149 50.5127 33.9277 50.4261 33.7373L49.9928 32.7841H51.6891C52.0289 32.7841 52.3043 32.5087 52.3043 32.1688C52.3043 31.829 52.0289 31.5536 51.6891 31.5536Z" fill="#213C73"/>
<path d="M45.0391 29.9522C45.1592 30.0723 45.3167 30.1324 45.4741 30.1324C45.6315 30.1324 45.789 30.0723 45.9091 29.9522L47.7841 28.0773C47.932 27.9293 47.9946 27.7164 47.9504 27.5119C47.9061 27.3075 47.761 27.1396 47.5651 27.0661L46.5847 26.6985L47.7841 25.4991C48.0244 25.2587 48.0244 24.8693 47.7841 24.629C47.5438 24.3888 47.1543 24.3888 46.9141 24.629L45.0391 26.504C44.8912 26.652 44.8286 26.8648 44.8728 27.0693C44.9171 27.2738 45.0622 27.4417 45.2581 27.5152L46.2385 27.8828L45.0391 29.0821C44.7988 29.3224 44.7988 29.7119 45.0391 29.9522Z" fill="#213C73"/>
<path d="M46.5852 39.3015L47.5656 38.9339C47.7615 38.8604 47.9066 38.6925 47.9509 38.488C47.9952 38.2836 47.9325 38.0707 47.7846 37.9227L45.9096 36.0477C45.6694 35.8075 45.2798 35.8075 45.0396 36.0477C44.7993 36.288 44.7993 36.6775 45.0396 36.9178L46.239 38.1172L45.2586 38.4848C45.0627 38.5583 44.9176 38.7261 44.8733 38.9306C44.829 39.135 44.8917 39.348 45.0396 39.496L46.9146 41.3709C47.0347 41.491 47.1922 41.5511 47.3496 41.5511C47.507 41.5511 47.6645 41.491 47.7846 41.3709C48.0249 41.1306 48.0249 40.7411 47.7846 40.5008L46.5852 39.3015Z" fill="#213C73"/>
<path d="M24.296 33.9919C24.296 33.6521 24.0206 33.3767 23.6808 33.3767H21.9845L22.4178 32.4235C22.5044 32.2331 22.4883 32.0117 22.375 31.8358C22.2618 31.6599 22.0669 31.5537 21.8577 31.5537H19.2061C18.8663 31.5537 18.5908 31.8291 18.5908 32.1689C18.5908 32.5088 18.8663 32.7842 19.2061 32.7842H20.9023L20.469 33.7374C20.3825 33.9278 20.3985 34.1492 20.5118 34.3251C20.625 34.5009 20.8199 34.6072 21.0291 34.6072H23.6808C24.0206 34.6072 24.296 34.3317 24.296 33.9919Z" fill="#213C73"/>
<path d="M24.6565 27.8828L25.6369 27.5152C25.8328 27.4417 25.9779 27.2738 26.0222 27.0693C26.0665 26.8649 26.0038 26.652 25.8559 26.504L23.9809 24.629C23.7407 24.3888 23.3511 24.3888 23.1109 24.629C22.8706 24.8693 22.8706 25.2588 23.1109 25.4991L24.3103 26.6985L23.3299 27.0661C23.134 27.1396 22.9889 27.3074 22.9446 27.5119C22.9003 27.7163 22.963 27.9293 23.1109 28.0773L24.9859 29.9522C25.106 30.0723 25.2635 30.1324 25.4209 30.1324C25.5783 30.1324 25.7358 30.0723 25.8559 29.9522C26.0962 29.7119 26.0962 29.3224 25.8559 29.0821L24.6565 27.8828Z" fill="#213C73"/>
<path d="M25.8564 36.0477C25.6161 35.8075 25.2265 35.8075 24.9863 36.0477L23.1114 37.9227C22.9635 38.0707 22.9009 38.2835 22.9451 38.488C22.9894 38.6925 23.1345 38.8604 23.3304 38.9339L24.3107 39.3015L23.1114 40.5008C22.8711 40.7412 22.8711 41.1307 23.1114 41.3709C23.2314 41.491 23.3889 41.5511 23.5464 41.5511C23.7038 41.5511 23.8613 41.491 23.9814 41.3709L25.8564 39.496C26.0043 39.348 26.0669 39.1351 26.0226 38.9306C25.9783 38.7262 25.8332 38.5583 25.6373 38.4848L24.657 38.1172L25.8564 36.9178C26.0966 36.6775 26.0966 36.288 25.8564 36.0477Z" fill="#213C73"/>
</g>
<defs>
<filter id="filter0_d_5003_6596" x="0" y="0" width="74" height="74" filterUnits="userSpaceOnUse" color-interpolation-filters="sRGB">
<feFlood flood-opacity="0" result="BackgroundImageFix"/>
<feColorMatrix in="SourceAlpha" type="matrix" values="0 0 0 0 0 0 0 0 0 0 0 0 0 0 0 0 0 0 127 0" result="hardAlpha"/>
<feOffset dx="2" dy="4"/>
<feGaussianBlur stdDeviation="4"/>
<feComposite in2="hardAlpha" operator="out"/>
<feColorMatrix type="matrix" values="0 0 0 0 0.129412 0 0 0 0 0.235294 0 0 0 0 0.45098 0 0 0 0.16 0"/>
<feBlend mode="normal" in2="BackgroundImageFix" result="effect1_dropShadow_5003_6596"/>
<feBlend mode="normal" in="SourceGraphic" in2="effect1_dropShadow_5003_6596" result="shape"/>
</filter>
<linearGradient id="paint0_linear_5003_6596" x1="64" y1="62" x2="6" y2="4" gradientUnits="userSpaceOnUse">
<stop stop-color="#54BE95"/>
<stop offset="0.288462" stop-color="#2E7B9A"/>
<stop offset="1" stop-color="#224075"/>
</linearGradient>
</defs>
</svg>
