<svg width="24" height="24" viewBox="0 0 24 24" fill="none" xmlns="http://www.w3.org/2000/svg">
<g clip-path="url(#clip0_1968_1295)">
<path d="M14.8127 10.4753L12.322 14.1535L8.63885 17.8182C7.26906 16.0773 5.77328 14.3909 4.86133 12.3511L6.84658 9.30988L9.89144 6.37231C8.87379 7.63002 8.94977 9.4798 10.1194 10.6495C11.3708 11.9009 13.3992 11.9009 14.6505 10.6495C14.7069 10.5931 14.7614 10.5348 14.8127 10.4753Z" fill="#ECB72B"/>
<path d="M14.8693 10.4066C15.8959 9.14824 15.823 7.29209 14.6496 6.11927C13.3982 4.8679 11.3698 4.8679 10.1185 6.11927C10.0659 6.17182 10.0159 6.22568 9.96777 6.28076L12.0683 2.86605L14.9181 0.390625C17.0465 1.06441 18.807 2.56464 19.8234 4.51455L17.7444 7.86687L14.8693 10.4066Z" fill="#5085F7"/>
<path d="M9.89074 6.37264L4.86048 12.3515C4.36159 11.2367 4.03727 10.0163 4.0038 8.62358C4.00127 8.54441 4 8.46463 4 8.38485C4 6.33556 4.73523 4.45723 5.95685 3.00073L9.89074 6.37264Z" fill="#DA2F2A"/>
<path d="M9.89204 6.37262L5.95801 3.00047C7.49626 1.16649 9.80457 0 12.3858 0C13.2692 0 14.1206 0.136688 14.9201 0.39L9.89204 6.37262Z" fill="#4274EB"/>
<path d="M20.7685 8.38431C20.7685 6.98842 20.4274 5.67217 19.824 4.5144L8.6377 17.8188C9.90862 19.4354 11.0699 21.0993 11.5525 23.1369C11.568 23.2022 11.5846 23.2784 11.6024 23.3642C11.7773 24.212 12.9913 24.212 13.1662 23.3642C13.184 23.2784 13.2006 23.2022 13.2161 23.1369C14.5027 17.7045 20.6133 14.9283 20.765 8.62356C20.7671 8.54406 20.7685 8.46433 20.7685 8.38431Z" fill="#60A850"/>
</g>
<defs>
<clipPath id="clip0_1968_1295">
<rect width="24" height="24" fill="white"/>
</clipPath>
</defs>
</svg>
