<svg width="58" height="65" viewBox="0 0 58 65" fill="none" xmlns="http://www.w3.org/2000/svg">
<g opacity="0.35">
<path d="M33.6718 27.1268C34.427 26.2074 35.5909 24.3507 35.7451 23.0583L35.8604 22.0918C35.9609 21.2492 36.219 20.4369 36.6193 19.7031C37.1474 18.7353 37.4257 17.6349 37.4257 16.5145V11.8594C37.4257 7.03257 33.7652 3.11963 29.2498 3.11963C24.7344 3.11963 21.0739 7.03257 21.0739 11.8594V16.7316C21.0739 17.7141 21.2879 18.683 21.6989 19.5617L21.835 19.8526C22.133 20.4897 22.3282 21.176 22.4124 21.8826L22.5526 23.0585C22.6988 24.2846 23.8191 26.0883 24.5117 26.9837M24.4633 27.4836L24.0163 33.0412L11.4153 37.371C8.90362 38.2218 7.19691 40.7137 7.19691 43.53L5.5293 61.0518M52.6056 61.0518L50.9378 43.53C50.9378 40.7136 49.2311 38.2217 46.7195 37.371L34.1183 33.0412L33.6714 27.4836" stroke="#134A85" stroke-width="1.69922" stroke-miterlimit="10" stroke-linecap="round" stroke-linejoin="round"/>
<path d="M45.3356 50.8511H42.7551C42.4546 50.8511 42.211 50.5907 42.211 50.2694V47.5109C42.211 47.1896 41.9674 46.9292 41.6668 46.9292H40.1564C39.8558 46.9292 39.6122 47.1896 39.6122 47.5109V50.2694C39.6122 50.5907 39.3686 50.8511 39.0681 50.8511H36.4875C36.187 50.8511 35.9434 51.1115 35.9434 51.4328V53.0474C35.9434 53.3686 36.187 53.629 36.4875 53.629H39.0681C39.3686 53.629 39.6122 53.8894 39.6122 54.2107V56.9692C39.6122 57.2905 39.8558 57.5509 40.1564 57.5509H41.6668C41.9674 57.5509 42.211 57.2905 42.211 56.9692V54.2107C42.211 53.8894 42.4546 53.629 42.7551 53.629H45.3356C45.6362 53.629 45.8798 53.3686 45.8798 53.0474V51.4328C45.8798 51.1115 45.6362 50.8511 45.3356 50.8511Z" fill="#134A85"/>
<path d="M24.5459 37.4199L29.1469 52.6877L33.5688 37.4199" stroke="#134A85" stroke-width="1.69922" stroke-miterlimit="10" stroke-linecap="round" stroke-linejoin="round"/>
<path d="M29.0586 52.771V61.079" stroke="#134A85" stroke-width="1.69922" stroke-miterlimit="10" stroke-linecap="round" stroke-linejoin="round"/>
</g>
</svg>
