<svg width="70" height="70" viewBox="0 0 70 70" fill="none" xmlns="http://www.w3.org/2000/svg">
<g opacity="0.35">
<path d="M21.0264 59.6172H9.45996C9.21521 59.6172 8.98047 59.7144 8.80741 59.8875C8.63434 60.0606 8.53711 60.2953 8.53711 60.54C8.53711 60.7848 8.63434 61.0195 8.80741 61.1926C8.98047 61.3657 9.21521 61.4629 9.45996 61.4629H21.0264C21.2711 61.4629 21.5059 61.3657 21.6789 61.1926C21.852 61.0195 21.9492 60.7848 21.9492 60.54C21.9492 60.2953 21.852 60.0606 21.6789 59.8875C21.5059 59.7144 21.2711 59.6172 21.0264 59.6172ZM30.9656 64.9435L27.4863 61.9614V51.3174C27.4855 50.5834 27.1935 49.8797 26.6745 49.3607C26.1555 48.8417 25.4518 48.5497 24.7178 48.5489H5.76855C5.03455 48.5497 4.33085 48.8417 3.81183 49.3607C3.2928 49.8797 3.00085 50.5834 3 51.3174L3 64.2314C3.00085 64.9655 3.2928 65.6692 3.81183 66.1882C4.33085 66.7072 5.03455 66.9991 5.76855 67H30.2049C30.4438 67 30.6769 66.9268 30.8729 66.7903C31.0689 66.6538 31.2184 66.4606 31.3012 66.2366C31.3841 66.0126 31.3963 65.7686 31.3363 65.5374C31.2763 65.3062 31.1469 65.0989 30.9656 64.9435ZM5.76855 65.1543C5.52388 65.154 5.2893 65.0567 5.11629 64.8837C4.94328 64.7107 4.84596 64.4761 4.8457 64.2314V51.3174C4.84596 51.0728 4.94328 50.8382 5.11629 50.6652C5.2893 50.4921 5.52388 50.3948 5.76855 50.3946H24.7178C24.9624 50.3948 25.197 50.4921 25.37 50.6652C25.5431 50.8382 25.6404 51.0728 25.6406 51.3174V62.3857C25.6406 62.5189 25.6695 62.6504 25.7251 62.7713C25.7808 62.8923 25.8619 62.9997 25.963 63.0864L28.3755 65.1543H5.76855ZM50.6777 36.3026C47.6473 36.3026 44.6848 37.2013 42.1651 38.8849C39.6454 40.5685 37.6815 42.9615 36.5218 45.7613C35.3621 48.5611 35.0586 51.6419 35.6498 54.6141C36.241 57.5863 37.7003 60.3165 39.8432 62.4594C41.986 64.6022 44.7162 66.0616 47.6884 66.6528C50.6606 67.244 53.7414 66.9406 56.5412 65.7809C59.341 64.6212 61.734 62.6573 63.4177 60.1376C65.1013 57.6179 66 54.6555 66 51.625C65.9954 47.5627 64.3797 43.6681 61.5072 40.7955C58.6347 37.923 54.74 36.3072 50.6777 36.3026ZM50.6777 65.1017C47.9041 65.1048 45.1979 64.2472 42.9323 62.6472C43.3904 60.9432 44.3976 59.4379 45.798 58.3643C47.1983 57.2907 48.9135 56.7088 50.678 56.7087C52.4425 56.7086 54.1578 57.2904 55.5582 58.3638C56.9586 59.4373 57.9659 60.9425 58.4242 62.6465C56.1584 64.2469 53.4518 65.1048 50.6777 65.1017ZM46.6514 50.8361C46.6513 50.0397 46.8875 49.2613 47.3299 48.5991C47.7723 47.937 48.4011 47.4209 49.1368 47.1161C49.8725 46.8114 50.6821 46.7316 51.4631 46.887C52.2442 47.0423 52.9616 47.4258 53.5247 47.9888C54.0878 48.5519 54.4713 49.2694 54.6267 50.0504C54.782 50.8314 54.7023 51.641 54.3976 52.3767C54.0928 53.1125 53.5768 53.7413 52.9146 54.1837C52.2525 54.6261 51.4741 54.8623 50.6777 54.8623C49.6103 54.8611 48.5868 54.4365 47.832 53.6817C47.0772 52.9269 46.6526 51.9035 46.6514 50.8361ZM59.9627 61.3838C59.4811 60.0516 58.719 58.8383 57.7279 57.8262C56.7369 56.814 55.54 56.0265 54.2183 55.5169C55.2002 54.7747 55.9241 53.7427 56.2876 52.5667C56.6512 51.3907 56.6359 50.1302 56.2441 48.9633C55.8522 47.7964 55.1036 46.7822 54.104 46.0639C53.1044 45.3457 51.9043 44.9597 50.6734 44.9606C49.4425 44.9615 48.243 45.3492 47.2444 46.0688C46.2459 46.7885 45.4987 47.8038 45.1085 48.9712C44.7183 50.1387 44.7049 51.3992 45.0701 52.5747C45.4353 53.7501 46.1607 54.7811 47.1437 55.5219C45.8217 56.0313 44.6245 56.8183 43.6328 57.83C42.6411 58.8416 41.878 60.0543 41.3951 61.3861C39.4416 59.53 38.0894 57.131 37.513 54.4987C36.9366 51.8665 37.1626 49.1219 38.1617 46.6193C39.1609 44.1168 40.8873 41.9712 43.118 40.4596C45.3487 38.9481 47.9814 38.14 50.676 38.1396C53.3706 38.1393 56.0035 38.9468 58.2346 40.4577C60.4657 41.9687 62.1927 44.1139 63.1924 46.6162C64.1922 49.1185 64.4188 51.863 63.8431 54.4954C63.2674 57.1278 61.9157 59.5272 59.9627 61.3838ZM21.0264 54.0801H9.45996C9.21521 54.0801 8.98047 54.1773 8.80741 54.3504C8.63434 54.5234 8.53711 54.7582 8.53711 55.0029C8.53711 55.2477 8.63434 55.4824 8.80741 55.6555C8.98047 55.8285 9.21521 55.9258 9.45996 55.9258H21.0264C21.2711 55.9258 21.5059 55.8285 21.6789 55.6555C21.852 55.4824 21.9492 55.2477 21.9492 55.0029C21.9492 54.7582 21.852 54.5234 21.6789 54.3504C21.5059 54.1773 21.2711 54.0801 21.0264 54.0801ZM59.54 15.0683H47.9736C47.7289 15.0683 47.4941 15.1655 47.3211 15.3386C47.148 15.5117 47.0508 15.7464 47.0508 15.9912C47.0508 16.2359 47.148 16.4707 47.3211 16.6437C47.4941 16.8168 47.7289 16.914 47.9736 16.914H59.54C59.7848 16.914 60.0195 16.8168 60.1926 16.6437C60.3657 16.4707 60.4629 16.2359 60.4629 15.9912C60.4629 15.7464 60.3657 15.5117 60.1926 15.3386C60.0195 15.1655 59.7848 15.0683 59.54 15.0683ZM18.3223 4C15.2918 4.00005 12.3294 4.89873 9.80974 6.5824C7.29003 8.26607 5.32617 10.6591 4.1665 13.4589C3.00684 16.2587 2.70345 19.3395 3.2947 22.3117C3.88595 25.2839 5.34529 28.0141 7.48817 30.1569C9.63105 32.2997 12.3612 33.759 15.3335 34.3502C18.3057 34.9414 21.3865 34.6379 24.1863 33.4782C26.986 32.3184 29.379 30.3545 31.0626 27.8348C32.7462 25.315 33.6448 22.3526 33.6448 19.3222C33.6402 15.2598 32.0244 11.3652 29.1518 8.49274C26.2793 5.62026 22.3846 4.00453 18.3223 4ZM18.3223 32.7989C15.5488 32.8019 12.8426 31.9444 10.577 30.3446C11.0351 28.6406 12.0423 27.1352 13.4425 26.0615C14.8428 24.9879 16.5581 24.406 18.3226 24.4059C20.0871 24.4058 21.8024 24.9875 23.2028 26.061C24.6032 27.1345 25.6106 28.6398 26.0688 30.3437C23.803 31.9441 21.0963 32.802 18.3223 32.7989ZM14.2959 18.5334C14.2959 17.7371 14.5321 16.9586 14.9745 16.2965C15.4169 15.6344 16.0458 15.1183 16.7815 14.8136C17.5172 14.5088 18.3268 14.4291 19.1078 14.5845C19.8888 14.7398 20.6062 15.1233 21.1693 15.6864C21.7324 16.2495 22.1159 16.9669 22.2713 17.7479C22.4266 18.529 22.3469 19.3385 22.0421 20.0742C21.7374 20.81 21.2213 21.4388 20.5592 21.8812C19.8971 22.3236 19.1186 22.5598 18.3223 22.5598C17.2548 22.5585 16.2314 22.1339 15.4766 21.3791C14.7218 20.6243 14.2972 19.6009 14.2959 18.5334ZM27.6074 29.0813C27.1258 27.7491 26.3637 26.5358 25.3726 25.5237C24.3815 24.5115 23.1846 23.724 21.8628 23.2144C22.8448 22.4722 23.5687 21.4402 23.9323 20.2642C24.2958 19.0882 24.2806 17.8277 23.8887 16.6608C23.4969 15.4939 22.7483 14.4797 21.7487 13.7614C20.749 13.0431 19.549 12.6572 18.3181 12.658C17.0872 12.6589 15.8877 13.0466 14.8891 13.7663C13.8905 14.486 13.1433 15.5013 12.7531 16.6687C12.363 17.8362 12.3495 19.0967 12.7148 20.2722C13.08 21.4476 13.8053 22.4786 14.7884 23.2194C13.4664 23.7288 12.2692 24.5158 11.2775 25.5275C10.2858 26.5391 9.52268 27.7518 9.03976 29.0836C7.08626 27.2276 5.73403 24.8285 5.15766 22.1962C4.58129 19.564 4.80725 16.8194 5.80637 14.3168C6.80549 11.8142 8.53188 9.66866 10.7626 8.15709C12.9934 6.64553 15.626 5.83741 18.3207 5.83707C21.0153 5.83673 23.6481 6.64419 25.8793 8.15519C28.1104 9.66619 29.8373 11.8113 30.8371 14.3136C31.8368 16.816 32.0635 19.5605 31.4878 22.1929C30.9121 24.8253 29.5604 27.2247 27.6074 29.0813ZM59.54 9.5312H47.9736C47.7289 9.5312 47.4941 9.62843 47.3211 9.8015C47.148 9.97457 47.0508 10.2093 47.0508 10.4541C47.0508 10.6988 47.148 10.9335 47.3211 11.1066C47.4941 11.2797 47.7289 11.3769 47.9736 11.3769H59.54C59.7848 11.3769 60.0195 11.2797 60.1926 11.1066C60.3657 10.9335 60.4629 10.6988 60.4629 10.4541C60.4629 10.2093 60.3657 9.97457 60.1926 9.8015C60.0195 9.62843 59.7848 9.5312 59.54 9.5312ZM63.2314 4H44.2822C43.5482 4.00085 42.8445 4.2928 42.3255 4.81183C41.8065 5.33085 41.5145 6.03455 41.5137 6.76855V17.4124L38.0341 20.3948C37.8528 20.5502 37.7235 20.7575 37.6635 20.9887C37.6036 21.2199 37.6158 21.4639 37.6987 21.6878C37.7816 21.9118 37.9311 22.1051 38.1271 22.2415C38.3231 22.378 38.5562 22.4511 38.7951 22.4511H63.2314C63.9655 22.4503 64.6692 22.1583 65.1882 21.6393C65.7072 21.1203 65.9991 20.4166 66 19.6826V6.76855C65.9991 6.03455 65.7072 5.33085 65.1882 4.81183C64.6692 4.2928 63.9655 4.00085 63.2314 4ZM64.1543 19.6826C64.154 19.9272 64.0567 20.1618 63.8837 20.3348C63.7107 20.5078 63.4761 20.6052 63.2314 20.6054H40.6245L43.0371 18.5375C43.1382 18.4509 43.2193 18.3434 43.2749 18.2225C43.3306 18.1015 43.3594 17.97 43.3594 17.8369V6.76855C43.3596 6.52388 43.4569 6.2893 43.63 6.11629C43.803 5.94328 44.0375 5.84596 44.2822 5.8457H63.2314C63.4761 5.84596 63.7107 5.94328 63.8837 6.11629C64.0567 6.2893 64.154 6.52388 64.1543 6.76855V19.6826Z" fill="#134A85"/>
</g>
</svg>
