<svg width="68" height="55" viewBox="0 0 68 55" fill="none" xmlns="http://www.w3.org/2000/svg">
<g opacity="0.35">
<path d="M34 7.8125C30.0073 7.8125 26.1043 8.99648 22.7844 11.2147C19.4646 13.4329 16.8771 16.5858 15.3492 20.2746C13.8212 23.9634 13.4215 28.0224 14.2004 31.9384C14.9793 35.8544 16.902 39.4514 19.7253 42.2747C22.5486 45.098 26.1456 47.0207 30.0616 47.7996C33.9776 48.5785 38.0366 48.1788 41.7254 46.6508C45.4142 45.1229 48.5671 42.5354 50.7853 39.2156C53.0035 35.8958 54.1875 31.9927 54.1875 28C54.1816 22.6478 52.0528 17.5164 48.2682 13.7318C44.4836 9.94719 39.3523 7.81841 34 7.8125ZM34 46.0625C30.4276 46.0625 26.9354 45.0032 23.965 43.0184C20.9947 41.0337 18.6795 38.2127 17.3124 34.9122C15.9453 31.6117 15.5876 27.98 16.2846 24.4762C16.9815 20.9724 18.7018 17.754 21.2279 15.2279C23.754 12.7018 26.9724 10.9815 30.4762 10.2846C33.98 9.58762 37.6117 9.94532 40.9122 11.3124C44.2127 12.6795 47.0337 14.9946 49.0184 17.965C51.0032 20.9354 52.0625 24.4276 52.0625 28C52.0572 32.7888 50.1524 37.38 46.7662 40.7662C43.38 44.1524 38.7888 46.0572 34 46.0625Z" fill="#134A85"/>
<path d="M13.8125 16.3125V5.6875H11.6875V15.25H10.625V5.6875H8.5V15.25H7.4375V5.6875H5.3125V15.25H4.25V5.6875H2.125V21.625C2.1258 22.284 2.33046 22.9267 2.71091 23.4648C3.09136 24.003 3.62896 24.4103 4.25 24.6308V49.25C4.25 50.0954 4.58582 50.9061 5.1836 51.5039C5.78137 52.1017 6.59212 52.4375 7.4375 52.4375H8.5C9.34538 52.4375 10.1561 52.1017 10.7539 51.5039C11.3517 50.9061 11.6875 50.0954 11.6875 49.25V24.6308C12.3085 24.4103 12.8461 24.003 13.2266 23.4648C13.607 22.9267 13.8117 22.284 13.8125 21.625V16.3125ZM11.6875 21.625C11.6875 21.9068 11.5756 22.177 11.3763 22.3763C11.177 22.5756 10.9068 22.6875 10.625 22.6875C10.3432 22.6875 10.073 22.7994 9.8737 22.9987C9.67444 23.198 9.5625 23.4682 9.5625 23.75V49.25C9.5625 49.5318 9.45056 49.802 9.2513 50.0013C9.05204 50.2006 8.78179 50.3125 8.5 50.3125H7.4375C7.15571 50.3125 6.88546 50.2006 6.6862 50.0013C6.48694 49.802 6.375 49.5318 6.375 49.25V23.75C6.375 23.4682 6.26306 23.198 6.0638 22.9987C5.86454 22.7994 5.59429 22.6875 5.3125 22.6875C5.03071 22.6875 4.76046 22.5756 4.5612 22.3763C4.36194 22.177 4.25 21.9068 4.25 21.625V17.375H11.6875V21.625ZM64.8125 4.625C62.2772 4.62781 59.8466 5.63619 58.0539 7.4289C56.2612 9.22161 55.2528 11.6522 55.25 14.1875V28C55.25 28.8454 55.5858 29.6561 56.1836 30.2539C56.7814 30.8517 57.5921 31.1875 58.4375 31.1875V51.375C58.4375 51.6568 58.5494 51.927 58.7487 52.1263C58.948 52.3256 59.2182 52.4375 59.5 52.4375H64.8125C65.0943 52.4375 65.3645 52.3256 65.5638 52.1263C65.7631 51.927 65.875 51.6568 65.875 51.375V5.6875C65.875 5.40571 65.7631 5.13546 65.5638 4.9362C65.3645 4.73694 65.0943 4.625 64.8125 4.625ZM63.75 50.3125H60.5625V30.125C60.5625 29.8432 60.4506 29.573 60.2513 29.3737C60.052 29.1744 59.7818 29.0625 59.5 29.0625H58.4375C58.1557 29.0625 57.8855 28.9506 57.6862 28.7513C57.4869 28.552 57.375 28.2818 57.375 28V14.1875C57.3772 12.3996 58.0224 10.6721 59.1928 9.32045C60.3633 7.96883 61.9808 7.08326 63.75 6.82544V50.3125Z" fill="#134A85"/>
<path d="M60.5625 11H58.4375V26.9375H60.5625V11Z" fill="#134A85"/>
<path d="M34 17.375C31.8986 17.375 29.8443 17.9981 28.0971 19.1656C26.3498 20.3331 24.988 21.9925 24.1838 23.934C23.3796 25.8755 23.1692 28.0118 23.5792 30.0728C23.9891 32.1339 25.0011 34.0271 26.487 35.513C27.9729 36.9989 29.8661 38.0109 31.9272 38.4208C33.9882 38.8308 36.1246 38.6204 38.066 37.8162C40.0075 37.012 41.6669 35.6502 42.8344 33.9029C44.0019 32.1557 44.625 30.1014 44.625 28C44.6219 25.183 43.5015 22.4823 41.5096 20.4904C39.5177 18.4985 36.817 17.3781 34 17.375ZM34 36.5C32.3189 36.5 30.6755 36.0015 29.2777 35.0675C27.8798 34.1335 26.7904 32.806 26.147 31.2528C25.5037 29.6996 25.3354 27.9906 25.6633 26.3417C25.9913 24.6929 26.8009 23.1783 27.9896 21.9896C29.1783 20.8008 30.6929 19.9913 32.3417 19.6633C33.9906 19.3354 35.6996 19.5037 37.2528 20.147C38.806 20.7904 40.1335 21.8798 41.0675 23.2777C42.0015 24.6755 42.5 26.3189 42.5 28C42.4975 30.2536 41.6011 32.4141 40.0076 34.0076C38.4141 35.6011 36.2536 36.4975 34 36.5Z" fill="#134A85"/>
</g>
</svg>
