<svg width="64" height="64" viewBox="0 0 64 64" fill="none" xmlns="http://www.w3.org/2000/svg">
<g opacity="0.35">
<path fill-rule="evenodd" clip-rule="evenodd" d="M20.75 22.625H17.625C15.125 22.625 13.125 20.625 13.125 18.25V14.375C13.125 11.875 15.125 9.875 17.625 9.875H19.125C19.625 9.875 19.875 10.25 19.875 10.625C19.875 11 19.625 11.375 19.125 11.375H17.625C16 11.375 14.625 12.75 14.625 14.375V18.25C14.625 19.875 16 21.25 17.625 21.25H20.75C21.125 21.25 21.5 21.5 21.5 22C21.5 22.375 21.25 22.625 20.75 22.625ZM46.5 22.625H43.375C43 22.625 42.625 22.375 42.625 21.875C42.625 21.5 43 21.125 43.375 21.125H46.5C48.125 21.125 49.5 19.875 49.5 18.25V14.375C49.5 12.75 48.125 11.375 46.5 11.375H45C44.5 11.375 44.25 11 44.25 10.625C44.25 10.25 44.5 9.875 45 9.875H46.5C49 9.875 51 11.875 51 14.375V18.25C51 20.625 49 22.625 46.5 22.625Z" fill="#134A85"/>
<path fill-rule="evenodd" clip-rule="evenodd" d="M55.625 64H8.375C8 64 7.625 63.625 7.625 63.25V52.125C7.625 44.5 13.125 42.25 19.5 39.625C21.5 38.875 23.5 38 25.5 37C25.875 36.875 26.375 37 26.5 37.375C26.75 37.75 26.625 38.125 26.25 38.375C24.125 39.375 22.125 40.25 20.125 41C13.75 43.625 9.125 45.5 9.125 52.125V62.5H54.875V52.125C54.875 45.5 50.25 43.625 43.875 41C41.875 40.25 39.875 39.375 37.75 38.375C37.375 38.125 37.25 37.75 37.5 37.375C37.625 37 38.125 36.875 38.5 37C40.5 38 42.5 38.875 44.5 39.625C50.875 42.25 56.375 44.5 56.375 52.125V63.25C56.375 63.625 56 64 55.625 64Z" fill="#134A85"/>
<path fill-rule="evenodd" clip-rule="evenodd" d="M35.25 64H28.5C28.125 64 27.75 63.625 27.75 63.25V47C27.75 46.625 28.125 46.25 28.5 46.25C29 46.25 29.25 46.625 29.25 47V62.5H34.5V46.875C34.5 46.5 34.875 46.125 35.25 46.125C35.75 46.125 36 46.5 36 46.875V63.25C36 63.625 35.75 64 35.25 64Z" fill="#134A85"/>
<path fill-rule="evenodd" clip-rule="evenodd" d="M31.875 51.625C31 51.625 30.125 50.75 30.125 49.875C30.125 48.875 31 48 31.875 48C32.875 48 33.75 48.875 33.75 49.875C33.75 50.75 32.875 51.625 31.875 51.625ZM31.875 49.5C31.75 49.5 31.625 49.625 31.625 49.75C31.625 50 31.75 50.125 31.875 50.125C32.125 50.125 32.25 50 32.25 49.75C32.25 49.625 32.125 49.5 31.875 49.5ZM31.875 56.5C31 56.5 30.125 55.75 30.125 54.75C30.125 53.75 31 53 31.875 53C32.875 53 33.75 53.75 33.75 54.75C33.75 55.75 32.875 56.5 31.875 56.5ZM31.875 54.5C31.75 54.5 31.625 54.625 31.625 54.75C31.625 54.875 31.75 55 31.875 55C32.125 55 32.25 54.875 32.25 54.75C32.25 54.625 32.125 54.5 31.875 54.5ZM31.875 61.5C31 61.5 30.125 60.625 30.125 59.625C30.125 58.625 31 57.875 31.875 57.875C32.875 57.875 33.75 58.625 33.75 59.625C33.75 60.625 32.875 61.5 31.875 61.5ZM31.875 59.375C31.75 59.375 31.625 59.5 31.625 59.625C31.625 59.75 31.75 59.875 31.875 59.875C32.125 59.875 32.25 59.75 32.25 59.625C32.25 59.5 32.125 59.375 31.875 59.375Z" fill="#134A85"/>
<path fill-rule="evenodd" clip-rule="evenodd" d="M38.875 50.75C38.75 50.75 38.5 50.75 38.375 50.625L31.5 44.5C31.375 44.375 31.25 44.25 31.25 44C31.25 43.75 31.375 43.625 31.5 43.5L37.625 37.125C37.875 36.875 38.375 36.875 38.625 37.125C39 37.375 39 37.875 38.625 38.25L33.125 44L38.75 48.875L43.875 40.125C44 39.75 44.5 39.625 44.875 39.75C45.25 40 45.375 40.5 45.125 40.875L39.5 50.375C39.5 50.625 39.25 50.75 39 50.75H38.875Z" fill="#134A85"/>
<path fill-rule="evenodd" clip-rule="evenodd" d="M25.125 50.75H25C24.75 50.75 24.625 50.625 24.5 50.375L18.875 40.875C18.625 40.5 18.75 40 19.125 39.75C19.5 39.625 20 39.75 20.25 40.125L25.25 48.875L30.875 44L25.375 38.25C25 37.875 25 37.375 25.375 37.125C25.625 36.875 26.125 36.875 26.375 37.125L32.5 43.5C32.625 43.625 32.75 43.75 32.75 44C32.75 44.25 32.625 44.375 32.5 44.5L25.625 50.625C25.5 50.75 25.25 50.75 25.125 50.75ZM14 64C13.5 64 13.25 63.625 13.25 63.25V53.375C13.25 52.875 13.5 52.625 14 52.625C14.375 52.625 14.75 52.875 14.75 53.375V63.25C14.75 63.625 14.375 64 14 64ZM50 64C49.625 64 49.25 63.625 49.25 63.25V53.375C49.25 52.875 49.625 52.625 50 52.625C50.5 52.625 50.75 52.875 50.75 53.375V63.25C50.75 63.625 50.5 64 50 64ZM32 34.5C29 34.5 26 32.75 23.75 29.5C21.25 26.125 19.375 21.25 18.5 15.375C17.625 9.75 19.5 5.125 23.75 2.375C28.5 -0.75 35.5 -0.75 40.25 2.375C44.5 5.125 46.375 9.75 45.5 15.375C44.625 21.25 42.75 26.25 40.25 29.5C38 32.75 35 34.5 32 34.5ZM32 1.5C29.375 1.5 26.75 2.25 24.625 3.625C20.875 6 19.25 10.125 20 15.125C21.625 26 26.375 33 32 33C37.625 33 42.375 26 44 15.125C44.75 10.125 43.125 6 39.375 3.625C37.25 2.25 34.625 1.5 32 1.5Z" fill="#134A85"/>
<path fill-rule="evenodd" clip-rule="evenodd" d="M44.6252 16.75C44.5002 16.75 44.2502 16.625 44.1252 16.5C43.3752 15.75 42.8752 15.25 42.5002 14.75C41.6252 13.875 41.2502 13.5 40.8752 13.375C40.2502 13.375 39.2502 13.75 37.5002 14.625C31.5002 17.5 29.1252 13.75 27.6252 11.25C27.0002 10.125 26.2502 9.125 25.6252 9.125C24.5002 9.125 22.6252 11.375 19.8752 15.875C19.7502 16.125 19.2502 16.25 18.8752 16.125C18.5002 15.875 18.3752 15.375 18.6252 15C21.8752 9.75 23.8752 7.625 25.6252 7.625C27.1252 7.625 28.0002 9 28.8752 10.5C30.5002 13 32.1252 15.5 36.8752 13.25C39.0002 12.25 40.0002 11.875 41.0002 11.875C42.0002 12 42.6252 12.75 43.6252 13.75C44.0002 14.25 44.5002 14.75 45.2502 15.375C45.5002 15.75 45.5002 16.125 45.2502 16.5C45.0002 16.625 44.8752 16.75 44.6252 16.75Z" fill="#134A85"/>
<path fill-rule="evenodd" clip-rule="evenodd" d="M29.375 28.75H20.625C18.625 28.75 16.875 27 16.875 25V21.875C16.875 21.5 17.25 21.125 17.625 21.125C18 21.125 18.375 21.5 18.375 21.875V25C18.375 26.25 19.375 27.25 20.625 27.25H29.375C29.75 27.25 30.125 27.625 30.125 28C30.125 28.375 29.75 28.75 29.375 28.75Z" fill="#134A85"/>
<path fill-rule="evenodd" clip-rule="evenodd" d="M38.125 38.375C37.75 38.375 37.375 38.125 37.375 37.625V31C37.375 30.5 37.75 30.25 38.125 30.25C38.5 30.25 38.875 30.5 38.875 31V37.625C38.875 38.125 38.5 38.375 38.125 38.375ZM25.875 38.375C25.5 38.375 25.125 38.125 25.125 37.625V31C25.125 30.5 25.5 30.25 25.875 30.25C26.25 30.25 26.625 30.5 26.625 31V37.625C26.625 38.125 26.25 38.375 25.875 38.375Z" fill="#134A85"/>
<path fill-rule="evenodd" clip-rule="evenodd" d="M33 30H29.375C28.875 30 28.625 29.625 28.625 29.25V26.75C28.625 26.25 28.875 26 29.375 26H33C33.375 26 33.75 26.25 33.75 26.75V29.25C33.75 29.625 33.375 30 33 30ZM30.125 28.5H32.25V27.5H30.125V28.5Z" fill="#134A85"/>
</g>
</svg>
