<svg width="962" height="350" viewBox="0 0 962 350" fill="none" xmlns="http://www.w3.org/2000/svg">
<g clip-path="url(#clip0_1733_4553)">
<path fill-rule="evenodd" clip-rule="evenodd" d="M941.5 0C952.55 0 961.5 8.95 961.5 20V117.72C961.5 120.37 960.45 122.91 958.57 124.79L906.79 176.57C901.16 182.2 898 189.83 898 197.78V330C898 341.05 889.05 350 878 350H20C8.95 350 0 341.05 0 330V20C0 8.95 8.95 0 20 0H941.5Z" fill="#D1EFEE"/>
<mask id="mask0_1733_4553" style="mask-type:alpha" maskUnits="userSpaceOnUse" x="0" y="0" width="962" height="350">
<path fill-rule="evenodd" clip-rule="evenodd" d="M941.5 0C952.55 0 961.5 8.95 961.5 20V117.72C961.5 120.37 960.45 122.91 958.57 124.79L906.79 176.57C901.16 182.2 898 189.83 898 197.78V330C898 341.05 889.05 350 878 350H20C8.95 350 0 341.05 0 330V20C0 8.95 8.95 0 20 0H941.5Z" fill="#D1EFEE"/>
</mask>
<g mask="url(#mask0_1733_4553)">
<g opacity="0.1">
<path d="M724.494 -3.53082C643.329 -3.45396 562.165 -3.63132 480.994 -3.72591L-6 -4.32894V-4.47083L481 -4.86694C562.165 -4.92606 643.336 -5.06795 724.5 -4.96153C805.665 -4.81373 886.829 -4.69549 968 -4.26982V-4.12793C886.835 -3.73774 805.665 -3.64906 724.5 -3.53673L724.494 -3.53082ZM967.994 4.59824V4.45635C886.829 4.03069 805.665 3.91245 724.494 3.76464C643.329 3.65232 562.158 3.7942 480.994 3.85924L-6 4.24943V4.39132L480.994 4.99435C562.158 5.08894 643.323 5.2663 724.494 5.18945C805.658 5.07712 886.829 4.98844 967.994 4.59824ZM967.994 13.3185V13.2476V13.1766C886.829 12.7509 805.665 12.6268 724.494 12.4849C643.329 12.3726 562.158 12.5145 480.994 12.5795L-6 12.9697V13.0406V13.1116L480.994 13.7146C562.158 13.8092 643.323 13.9866 724.494 13.9097C805.658 13.7974 886.829 13.7087 967.994 13.3185ZM967.994 22.0388V21.8969C886.829 21.4712 805.665 21.3471 724.494 21.2052C643.329 21.0928 562.158 21.2347 480.994 21.2998L-6 21.69V21.8318L480.994 22.4349C562.158 22.5295 643.323 22.7068 724.494 22.63C805.658 22.5176 886.829 22.429 967.994 22.0388ZM967.994 30.759V30.6171C886.829 30.1915 805.665 30.0673 724.494 29.9254C643.329 29.8131 562.158 29.955 480.994 30.02L-6 30.4102V30.5521L480.994 31.1551C562.158 31.2497 643.323 31.4271 724.494 31.3502C805.658 31.2379 886.829 31.1492 967.994 30.759ZM967.994 39.4793V39.3374C886.829 38.9117 805.665 38.7876 724.494 38.6457C643.329 38.5334 562.158 38.6753 480.994 38.7403L-6 39.1246V39.2665L480.994 39.8695C562.158 39.9641 643.323 40.1414 724.494 40.0646C805.658 39.9523 886.829 39.8636 967.994 39.4734V39.4793ZM967.994 48.1996V48.1286V48.0577C886.829 47.632 805.665 47.5079 724.494 47.366C643.329 47.2536 562.158 47.3955 480.994 47.4606L-6 47.8448V47.9158V47.9867L480.994 48.5898C562.158 48.6843 643.323 48.8617 724.494 48.7849C805.658 48.6725 886.829 48.5838 967.994 48.1936V48.1996ZM967.994 56.9198V56.7779C886.829 56.3523 805.665 56.2281 724.494 56.0862C643.329 55.9739 562.158 56.1158 480.994 56.1808L-6 56.5651V56.707L480.994 57.31C562.158 57.4046 643.323 57.582 724.494 57.5051C805.658 57.3928 886.829 57.3041 967.994 56.9139V56.9198ZM967.994 65.6401V65.4982C886.829 65.0725 805.665 64.9484 724.494 64.8065C643.329 64.6942 562.158 64.8361 480.994 64.9011L-6 65.2854V65.4273L480.994 66.0303C562.158 66.1249 643.323 66.3022 724.494 66.2254C805.658 66.1131 886.829 66.0244 967.994 65.6342V65.6401ZM967.994 74.3604V74.2185C886.829 73.7928 805.665 73.6686 724.494 73.5268C643.329 73.4144 562.158 73.5563 480.994 73.6214L-6 74.0056V74.1475L480.994 74.7505C562.158 74.8451 643.323 75.0225 724.494 74.9456C805.658 74.8333 886.829 74.7446 967.994 74.3544V74.3604ZM967.994 83.0806V83.0097V82.9387C886.829 82.5131 805.665 82.3948 724.494 82.247C643.329 82.1347 562.158 82.2766 480.994 82.3416L-6 82.7259V82.7968V82.8678L480.994 83.4708C562.158 83.5654 643.323 83.7428 724.494 83.6659C805.658 83.5536 886.829 83.4649 967.994 83.0747V83.0806ZM967.994 91.8009V91.659C886.829 91.2333 805.665 91.1092 724.494 90.9673C643.329 90.855 562.158 90.9968 480.994 91.0619L-6 91.4462V91.5881L480.994 92.1911C562.158 92.2857 643.323 92.463 724.494 92.3862C805.658 92.2738 886.829 92.1852 967.994 91.795V91.8009ZM967.994 100.521V100.379C886.829 99.9536 805.665 99.8294 724.494 99.6876C643.329 99.5752 562.158 99.7171 480.994 99.7822L-6 100.166V100.308L480.994 100.911C562.158 101.006 643.323 101.183 724.494 101.106C805.658 100.994 886.829 100.905 967.994 100.515V100.521ZM967.994 109.241V109.1C886.829 108.674 805.665 108.55 724.494 108.408C643.329 108.295 562.158 108.437 480.994 108.502L-6 108.887V109.029L480.994 109.632C562.158 109.726 643.323 109.904 724.494 109.827C805.658 109.714 886.829 109.626 967.994 109.235V109.241ZM967.994 117.962V117.891V117.82C886.829 117.394 805.665 117.27 724.494 117.128C643.329 117.016 562.158 117.158 480.994 117.223L-6 117.607V117.678V117.749L480.994 118.352C562.158 118.446 643.323 118.624 724.494 118.547C805.658 118.435 886.829 118.346 967.994 117.956V117.962ZM967.994 126.682V126.54C886.829 126.114 805.665 125.99 724.494 125.848C643.329 125.736 562.158 125.878 480.994 125.943L-6 126.321V126.463L480.994 127.066C562.158 127.161 643.323 127.338 724.494 127.261C805.658 127.149 886.829 127.06 967.994 126.67V126.682ZM967.994 135.402V135.26C886.829 134.835 805.665 134.71 724.494 134.569C643.329 134.456 562.158 134.598 480.994 134.663L-6 135.042V135.183L480.994 135.786C562.158 135.881 643.323 136.058 724.494 135.982C805.658 135.869 886.829 135.781 967.994 135.39V135.402ZM967.994 144.122V143.981C886.829 143.555 805.665 143.431 724.494 143.289C643.329 143.177 562.158 143.318 480.994 143.383L-6 143.762V143.904L480.994 144.507C562.158 144.601 643.323 144.779 724.494 144.702C805.658 144.59 886.829 144.501 967.994 144.111V144.122ZM967.994 152.843V152.701C886.829 152.275 805.665 152.151 724.494 152.009C643.329 151.897 562.158 152.039 480.994 152.104L-6 152.482V152.553V152.624L480.994 153.227C562.158 153.322 643.323 153.499 724.494 153.422C805.658 153.31 886.829 153.221 967.994 152.831V152.843ZM967.994 161.563V161.421C886.829 160.995 805.665 160.871 724.494 160.729C643.329 160.617 562.158 160.759 480.994 160.824L-6 161.202V161.344L480.994 161.947C562.158 162.042 643.323 162.219 724.494 162.142C805.658 162.03 886.829 161.941 967.994 161.551V161.563ZM967.994 170.283V170.141C886.829 169.716 805.665 169.592 724.494 169.45C643.329 169.337 562.158 169.479 480.994 169.544L-6 169.923V170.064L480.994 170.668C562.158 170.762 643.323 170.939 724.494 170.863C805.658 170.75 886.829 170.662 967.994 170.271V170.283ZM967.994 179.004V178.862C886.829 178.436 805.665 178.312 724.494 178.17C643.329 178.058 562.158 178.199 480.994 178.265L-6 178.643V178.785L480.994 179.388C562.158 179.482 643.323 179.66 724.494 179.583C805.658 179.471 886.829 179.382 967.994 178.992V179.004ZM967.994 187.724V187.582C886.829 187.156 805.665 187.032 724.494 186.89C643.329 186.778 562.158 186.92 480.994 186.985L-6 187.363V187.505L480.994 188.108C562.158 188.203 643.323 188.38 724.494 188.303C805.658 188.191 886.829 188.102 967.994 187.712V187.724ZM967.994 196.444V196.373V196.302C886.829 195.876 805.665 195.752 724.494 195.61C643.329 195.498 562.158 195.64 480.994 195.705L-6 196.083V196.225L480.994 196.828C562.158 196.923 643.323 197.1 724.494 197.023C805.658 196.911 886.829 196.822 967.994 196.432V196.444ZM967.994 205.164V205.022C886.829 204.597 805.665 204.473 724.494 204.331C643.329 204.218 562.158 204.36 480.994 204.425L-6 204.798V204.94L480.994 205.543C562.158 205.637 643.323 205.815 724.494 205.738C805.658 205.625 886.829 205.537 967.994 205.147V205.164ZM967.994 213.885V213.743C886.829 213.317 805.665 213.193 724.494 213.051C643.329 212.939 562.158 213.081 480.994 213.146L-6 213.518V213.66L480.994 214.263C562.158 214.358 643.323 214.535 724.494 214.458C805.658 214.346 886.829 214.257 967.994 213.867V213.885ZM967.994 222.605V222.463C886.829 222.037 805.665 221.919 724.494 221.771C643.329 221.659 562.158 221.801 480.994 221.866L-6 222.238V222.38L480.994 222.983C562.158 223.078 643.323 223.255 724.494 223.178C805.658 223.066 886.829 222.977 967.994 222.587V222.605ZM967.994 231.325V231.254V231.183C886.829 230.758 805.665 230.633 724.494 230.492C643.329 230.379 562.158 230.521 480.994 230.586L-6 230.959V231.1L480.994 231.703C562.158 231.798 643.323 231.975 724.494 231.899C805.658 231.786 886.829 231.698 967.994 231.307V231.325ZM967.994 240.045V239.903C886.829 239.478 805.665 239.354 724.494 239.212C643.329 239.099 562.158 239.241 480.994 239.306L-6 239.679V239.821L480.994 240.424C562.158 240.518 643.323 240.696 724.494 240.619C805.658 240.507 886.829 240.418 967.994 240.028V240.045ZM967.994 248.766V248.624C886.829 248.198 805.665 248.074 724.494 247.932C643.329 247.82 562.158 247.962 480.994 248.027L-6 248.399V248.541L480.994 249.144C562.158 249.239 643.323 249.416 724.494 249.339C805.658 249.227 886.829 249.138 967.994 248.748V248.766ZM967.994 257.486V257.344C886.829 256.918 805.665 256.794 724.494 256.652C643.329 256.54 562.158 256.682 480.994 256.747L-6 257.119V257.261L480.994 257.864C562.158 257.959 643.323 258.136 724.494 258.059C805.658 257.947 886.829 257.858 967.994 257.468V257.486ZM967.994 266.206V266.135V266.064C886.829 265.639 805.665 265.514 724.494 265.373C643.329 265.26 562.158 265.402 480.994 265.467L-6 265.84V265.982L480.994 266.585C562.158 266.679 643.323 266.856 724.494 266.78C805.658 266.667 886.829 266.579 967.994 266.188V266.206ZM967.994 274.926V274.785C886.829 274.359 805.665 274.235 724.494 274.093C643.329 273.98 562.158 274.122 480.994 274.187L-6 274.56V274.702L480.994 275.305C562.158 275.399 643.323 275.577 724.494 275.5C805.658 275.388 886.829 275.299 967.994 274.909V274.926ZM967.994 283.647V283.505C886.829 283.079 805.665 282.955 724.494 282.813C643.329 282.701 562.158 282.843 480.994 282.908L-6 283.274V283.416L480.994 284.019C562.158 284.114 643.323 284.291 724.494 284.214C805.658 284.102 886.829 284.013 967.994 283.623V283.647ZM967.994 292.367V292.225C886.829 291.799 805.665 291.675 724.494 291.533C643.329 291.421 562.158 291.563 480.994 291.628L-6 291.994V292.136L480.994 292.739C562.158 292.834 643.323 293.011 724.494 292.935C805.658 292.822 886.829 292.733 967.994 292.343V292.367ZM967.994 301.087V301.016V300.945C886.829 300.52 805.665 300.401 724.494 300.254C643.329 300.141 562.158 300.283 480.994 300.348L-6 300.715V300.857L480.994 301.46C562.158 301.554 643.323 301.732 724.494 301.655C805.658 301.542 886.829 301.454 967.994 301.064V301.087ZM967.994 309.807V309.666C886.829 309.24 805.665 309.116 724.494 308.974C643.329 308.862 562.158 309.003 480.994 309.068L-6 309.435V309.577L480.994 310.18C562.158 310.275 643.323 310.452 724.494 310.375C805.658 310.263 886.829 310.174 967.994 309.784V309.807ZM967.994 318.528V318.386C886.829 317.96 805.665 317.836 724.494 317.694C643.329 317.582 562.158 317.724 480.994 317.789L-6 318.155V318.297L480.994 318.9C562.158 318.995 643.323 319.172 724.494 319.095C805.658 318.983 886.829 318.894 967.994 318.504V318.528ZM967.994 327.248V327.106C886.829 326.68 805.665 326.556 724.494 326.414C643.329 326.302 562.158 326.444 480.994 326.509L-6 326.876V327.017L480.994 327.62C562.158 327.715 643.323 327.892 724.494 327.816C805.658 327.703 886.829 327.615 967.994 327.224V327.248ZM967.994 335.968V335.897V335.826C886.829 335.401 805.665 335.277 724.494 335.135C643.329 335.022 562.158 335.164 480.994 335.229L-6 335.596V335.738L480.994 336.341C562.158 336.435 643.323 336.613 724.494 336.536C805.658 336.423 886.829 336.335 967.994 335.945V335.968ZM967.994 344.689V344.547C886.829 344.121 805.665 343.997 724.494 343.855C643.329 343.743 562.158 343.884 480.994 343.95L-6 344.316V344.458L480.994 345.061C562.158 345.156 643.323 345.333 724.494 345.256C805.658 345.144 886.829 345.055 967.994 344.665V344.689ZM724.494 354C805.658 353.888 886.829 353.799 967.994 353.409V353.267C886.829 352.841 805.665 352.717 724.494 352.575C643.329 352.463 562.158 352.605 480.994 352.67L-6 353.036V353.178L480.994 353.781C562.158 353.876 643.323 354.053 724.494 353.976V354Z" fill="#002246"/>
</g>
</g>
</g>
<defs>
<clipPath id="clip0_1733_4553">
<rect width="961.5" height="350" fill="white"/>
</clipPath>
</defs>
</svg>
