<svg width="59" height="69" viewBox="0 0 59 69" fill="none" xmlns="http://www.w3.org/2000/svg">
<g opacity="0.35">
<path d="M36.991 27.8695C36.189 27.1149 34.0914 27.6 33.2894 28.193C32.4873 28.7859 27.0582 31.9664 27.0582 31.9664C27.0582 31.9664 23.2948 31.9125 21.5057 31.9125C19.6548 31.9125 19.7165 32.9906 20.7036 33.2063C21.6908 33.4219 22.863 34.0688 22.863 34.0688L18.9145 36.4406C18.9145 36.4406 16.7552 36.0094 14.6576 35.632C12.5599 35.2547 12.1898 36.2789 13.2386 36.8719C14.2874 37.4649 18.7911 39.7828 18.7911 39.7828L24.7755 37.0875C24.7755 37.0875 24.8989 38.543 24.8989 39.2977C24.8989 40.0524 25.8243 41.1844 26.6263 39.8367C27.4284 38.4891 29.1558 34.8234 29.1558 34.8234C29.1558 34.8234 34.77 31.1039 35.8188 30.3492C36.806 29.5406 37.7314 28.6781 36.991 27.8695ZM34.9551 29.4867C33.968 30.2414 28.4155 33.9609 28.3538 33.9609L28.107 34.1227L27.9836 34.3922C27.9836 34.4461 26.9348 36.6563 26.0711 38.2195C26.0094 37.5727 25.9477 36.9797 25.9477 36.9258L25.7626 35.4164L18.7911 38.543C18.0508 38.1656 16.6935 37.4649 15.583 36.8719C17.2487 37.1414 18.606 37.4649 18.6677 37.4649L19.223 37.5727L25.1457 34.0148L23.5416 33.1524C23.4799 33.1524 23.4182 33.0984 23.2331 32.9906C25.0223 32.9906 27.0582 33.0445 27.0582 33.0445H27.4284L27.7368 32.8289C28.2921 32.5055 33.2277 29.5945 34.0297 29.0016C34.2148 28.8399 34.8317 28.6242 35.4487 28.5703H35.9422C35.8805 28.732 35.6338 29.0016 34.9551 29.4867Z" fill="#134A85"/>
<path d="M9.2289 58.5963C9.35229 59.7822 10.5862 60.6447 11.9435 60.5369L43.4078 58.0033C44.7651 57.8955 45.7522 56.8174 45.6288 55.6314L9.2289 58.5963ZM9.2289 58.5963L4.04655 10.0268L9.2289 58.5963ZM45.4543 55.6496L45.4544 55.65C45.5654 56.7199 44.6716 57.727 43.3939 57.8285L43.3937 57.8285L11.9296 60.3621C10.6413 60.4644 9.5144 59.6455 9.40335 58.5781L9.4033 58.5777L4.22099 10.0086C4.22098 10.0085 4.22097 10.0085 4.22097 10.0084C4.10978 8.9384 5.00358 7.93121 6.28144 7.82971L6.28163 7.82969L37.7457 5.29612C39.034 5.19378 40.1609 6.01269 40.272 7.08006L40.272 7.08051L45.4543 55.6496ZM38.153 7.20502L38.1349 7.03509L37.9646 7.04881L6.50026 9.5824L6.32084 9.59685L6.33994 9.77583L11.5223 58.3454L11.5404 58.5153L11.7108 58.5016L43.1751 55.968L43.3545 55.9535L43.3354 55.7746L38.153 7.20502Z" fill="#134A85" stroke="white" stroke-width="0.350769"/>
<path d="M36.0657 23.4492C37.0879 23.4492 37.9165 22.7252 37.9165 21.832C37.9165 20.9389 37.0879 20.2148 36.0657 20.2148C35.0435 20.2148 34.2148 20.9389 34.2148 21.832C34.2148 22.7252 35.0435 23.4492 36.0657 23.4492Z" fill="#134A85"/>
<path d="M31.1917 23.8264C32.2139 23.8264 33.0425 23.1024 33.0425 22.2092C33.0425 21.3161 32.2139 20.592 31.1917 20.592C30.1695 20.592 29.3408 21.3161 29.3408 22.2092C29.3408 23.1024 30.1695 23.8264 31.1917 23.8264Z" fill="#134A85"/>
<path d="M26.2561 24.2578C27.2783 24.2578 28.107 23.5338 28.107 22.6406C28.107 21.7475 27.2783 21.0234 26.2561 21.0234C25.2339 21.0234 24.4053 21.7475 24.4053 22.6406C24.4053 23.5338 25.2339 24.2578 26.2561 24.2578Z" fill="#134A85"/>
<path d="M21.3206 24.635C22.3428 24.635 23.1714 23.911 23.1714 23.0178C23.1714 22.1247 22.3428 21.4006 21.3206 21.4006C20.2984 21.4006 19.4697 22.1247 19.4697 23.0178C19.4697 23.911 20.2984 24.635 21.3206 24.635Z" fill="#134A85"/>
<path d="M16.4465 25.0126C17.4687 25.0126 18.2974 24.2885 18.2974 23.3954C18.2974 22.5022 17.4687 21.7782 16.4465 21.7782C15.4244 21.7782 14.5957 22.5022 14.5957 23.3954C14.5957 24.2885 15.4244 25.0126 16.4465 25.0126Z" fill="#134A85"/>
<path d="M11.511 25.4436C12.5332 25.4436 13.3618 24.7196 13.3618 23.8264C13.3618 22.9333 12.5332 22.2092 11.511 22.2092C10.4888 22.2092 9.66016 22.9333 9.66016 23.8264C9.66016 24.7196 10.4888 25.4436 11.511 25.4436Z" fill="#134A85"/>
<path d="M36.7441 45.4429L16.138 47.114C15.8296 47.1679 15.5211 46.8983 15.4594 46.6288C15.3977 46.3593 15.7062 46.0897 16.0147 46.0358L36.6207 44.3647C36.9292 44.3108 37.2376 44.5804 37.2993 44.8499C37.2993 45.1733 37.0525 45.4429 36.7441 45.4429ZM37.0525 48.6772L16.5082 50.3483C16.1997 50.4022 15.8913 50.1327 15.8296 49.8632C15.7679 49.5937 16.0763 49.3241 16.3848 49.2702L36.9909 47.5991C37.2993 47.5452 37.6078 47.8147 37.6695 48.0843C37.6695 48.4077 37.4227 48.6233 37.0525 48.6772ZM33.4743 14.878L12.8682 16.5491C12.5597 16.603 12.2513 16.3335 12.1896 16.064C12.1279 15.7944 12.4364 15.5249 12.7448 15.471L33.3509 13.7999C33.6593 13.746 33.9678 14.0155 34.0295 14.2851C34.0295 14.5546 33.7827 14.8241 33.4743 14.878ZM37.4227 51.9116L16.8167 53.5827C16.5082 53.6366 16.1997 53.3671 16.138 53.0976C16.0763 52.828 16.3848 52.5585 16.6933 52.5046L37.2993 50.8335C37.6078 50.7796 37.9163 51.0491 37.978 51.3187C37.978 51.5882 37.7312 51.8577 37.4227 51.9116Z" fill="#134A85"/>
<path d="M52.7158 10.4712L52.7168 10.4712C53.9927 10.5219 54.9514 11.4793 54.9545 12.5548L51.9934 61.2806L51.9934 61.2821C51.9378 62.3493 50.8704 63.2154 49.5845 63.1645C49.5844 63.1645 49.5844 63.1644 49.5843 63.1644L18.0014 61.7092C17.6172 61.6752 17.2847 61.575 16.9855 61.4225L29.4063 60.3889L49.6923 61.3586L49.8653 61.3669L49.8758 61.1941L52.8371 12.4628L52.8479 12.2853L52.6702 12.277L42.3929 11.7988L42.1865 9.99529L52.7158 10.4712Z" fill="#134A85" stroke="white" stroke-width="0.350769"/>
</g>
</svg>
