<svg width="75" height="75" viewBox="0 0 75 75" fill="none" xmlns="http://www.w3.org/2000/svg">
<g opacity="0.35" clip-path="url(#clip0_1220_4142)">
<path d="M44.2155 16.8284C44.2155 8.39458 51.0857 1.52437 59.5195 1.52437C67.9533 1.52437 74.8235 8.39458 74.8235 16.8284C74.8235 25.2738 67.9534 32.1324 59.5195 32.1324C51.0857 32.1324 44.2155 25.2738 44.2155 16.8284ZM46.136 16.8284C46.136 24.215 52.1448 30.2119 59.5195 30.2119C66.8942 30.2119 72.903 24.215 72.903 16.8284C72.903 9.45356 66.8943 3.44487 59.5195 3.44487C52.1447 3.44487 46.136 9.45356 46.136 16.8284Z" fill="#134A85" stroke="white" stroke-width="0.352941"/>
<path d="M58.4453 16.4219L58.471 16.3961V16.3596V11.5081C58.471 10.9246 58.9466 10.4596 59.5195 10.4596C60.1036 10.4596 60.568 10.924 60.568 11.5081V16.8284C60.568 17.1108 60.4594 17.3809 60.2657 17.5746L55.5548 22.2855C55.3496 22.4907 55.0912 22.5878 54.8203 22.5878C54.5484 22.5878 54.2787 22.4901 54.0741 22.2855C53.6628 21.8742 53.664 21.2042 54.0733 20.8057L54.0742 20.8047L58.4453 16.4219ZM58.471 5.59009C58.471 5.0066 58.9466 4.5416 59.5195 4.5416C60.1036 4.5416 60.568 5.00601 60.568 5.59009V8.22681C60.568 8.81089 60.1036 9.27529 59.5195 9.27529C58.9466 9.27529 58.471 8.8103 58.471 8.22681V5.59009ZM48.2813 15.7799H50.918C51.5015 15.7799 51.9665 16.2554 51.9665 16.8284C51.9665 17.4124 51.5021 17.8769 50.918 17.8769H48.2813C47.6972 17.8769 47.2328 17.4124 47.2328 16.8284C47.2328 16.2554 47.6978 15.7799 48.2813 15.7799ZM58.471 25.4299C58.471 24.8576 58.9472 24.3814 59.5195 24.3814C60.103 24.3814 60.568 24.857 60.568 25.4299V28.0784C60.568 28.6513 60.103 29.1269 59.5195 29.1269C58.9472 29.1269 58.471 28.6507 58.471 28.0784V25.4299ZM68.1211 15.7799H70.7695C71.3419 15.7799 71.818 16.256 71.818 16.8284C71.818 17.4119 71.3425 17.8769 70.7695 17.8769H68.1211C67.5481 17.8769 67.0726 17.4119 67.0726 16.8284C67.0726 16.256 67.5487 15.7799 68.1211 15.7799Z" fill="#134A85" stroke="white" stroke-width="0.176471"/>
<path d="M36.1147 15.1567L36.1171 15.161C36.5102 15.8645 36.7066 16.6277 36.7066 17.4379V17.5029L36.6264 22.242C34.1983 21.5877 30.4413 20.7715 26.5761 20.7078C27.17 20.3383 27.5708 19.6791 27.5708 18.9379V18.2313H28.2891C29.4271 18.2313 30.3715 17.2868 30.3715 16.1488C30.3715 14.981 29.4206 14.0663 28.2891 14.0663H27.5825V13.3597C27.5825 12.4831 27.0467 11.7492 26.3009 11.4377C28.5156 11.5181 30.7025 11.9239 32.7983 12.6621C32.9086 12.7044 33.0116 12.7423 33.1106 12.7787C33.3133 12.8532 33.4995 12.9217 33.6984 13.0101L33.706 13.0135L33.7137 13.0167C34.7232 13.4329 35.5864 14.1933 36.1147 15.1567ZM24.4457 20.7384C20.8065 20.8911 17.0623 21.6142 14.3421 22.3014L14.2817 17.4887L14.2816 17.4806L14.2812 17.4724C14.2506 16.6855 14.4453 15.8732 14.8463 15.1637L14.8485 15.1597C15.1092 14.6905 15.452 14.2552 15.8638 13.8949L15.8699 13.8895L15.876 13.8839C16.2702 13.52 16.7427 13.2293 17.2697 13.007C17.5631 12.8943 17.8465 12.7923 18.1434 12.6895L18.1435 12.6896L18.1518 12.6865C20.2588 11.9231 22.4781 11.514 24.6953 11.4364C23.9393 11.7505 23.4175 12.4953 23.4175 13.3597V14.0663H22.7109C21.5479 14.0663 20.6333 14.9871 20.6168 16.14L20.6167 16.14V16.1488C20.6167 17.2836 21.5463 18.2313 22.6992 18.2313H23.4058V18.9379C23.4058 19.6984 23.8233 20.3748 24.4457 20.7384ZM48.4374 51.639L48.4373 51.6391L48.4414 51.6449C49.1181 52.6223 49.6016 53.7928 49.8819 55.1461L50.8632 73.0702H28.1761L35.5125 45.1738C37.137 45.749 39.4763 46.5762 41.8226 47.4014C41.8879 49.3575 41.7048 51.5357 41.2445 53.9141C40.4268 53.9746 39.6198 54.2045 38.8828 54.6051C37.5038 55.3414 36.4983 56.5998 36.0424 58.0847L36.0411 58.089L34.9512 61.7336L34.9512 61.7335L34.9488 61.742C34.6378 62.8387 35.2407 64.011 36.3682 64.3322C37.4477 64.6463 38.6153 64.0365 38.9363 62.9286C38.9366 62.9274 38.937 62.9263 38.9373 62.9251L40.0254 59.2867L40.027 59.2809C40.1548 58.8381 40.4531 58.474 40.8581 58.2437C41.2556 58.0291 41.7094 57.979 42.1381 58.099L42.2198 58.1219H42.2295C42.2321 58.1224 42.2348 58.1229 42.2375 58.1234C42.2438 58.1245 42.2507 58.1257 42.2583 58.1268C42.2599 58.1271 42.2615 58.1275 42.2631 58.1279C42.264 58.1281 42.2649 58.1283 42.2657 58.1285L42.2838 58.1394L42.3258 58.1568C43.1478 58.4978 43.5952 59.4102 43.3324 60.2494L43.3324 60.2494L43.3301 60.257L42.2403 63.9015L42.2392 63.9052C41.9236 64.9847 42.5326 66.153 43.6399 66.4751C43.8653 66.5438 44.0574 66.5594 44.2383 66.5594C45.1229 66.5594 45.9796 65.9889 46.2379 65.0704L47.3261 61.4312L47.3264 61.4304C48.0424 59.023 47.1516 56.5083 45.2633 55.075C45.6739 52.9941 45.9146 51.0247 45.9768 49.1738C46.9453 49.8401 47.7869 50.6761 48.4374 51.639ZM9.51655 54.3686C9.18972 52.6783 8.84943 50.1316 9.02387 47.4173C9.83422 47.1316 10.5691 46.8727 11.2357 46.6378C13.2203 45.9386 14.6002 45.4524 15.5676 45.1071L22.7921 73.0351H0.633351L1.08484 55.0543C1.34136 53.805 1.82164 52.6469 2.50189 51.6305C3.15475 50.6978 3.93445 49.9107 4.82233 49.2845C4.82582 51.7724 5.15049 54.1417 5.60875 56.1151C4.47122 57.2435 3.76516 58.8013 3.76516 60.5277C3.76516 63.9283 6.52692 66.6883 9.9375 66.6883C13.3372 66.6883 16.0981 63.9274 16.0981 60.5277C16.0981 57.1171 13.3381 54.3554 9.9375 54.3554C9.79385 54.3554 9.65434 54.3598 9.51655 54.3686ZM30.6525 47.309L25.5049 66.8815L20.4468 47.3306C22.1131 48.1044 23.8165 48.5008 25.5234 48.5008C27.2547 48.5008 28.9657 48.0943 30.6525 47.309Z" stroke="#134A85" stroke-width="1.23529"/>
<path d="M8.98012 58.8643L8.98538 58.8612C9.25648 58.7002 9.60144 58.5968 9.94922 58.5968C11.0049 58.5968 11.8801 59.4567 11.8801 60.5276C11.8801 61.5848 11.0069 62.4468 9.94922 62.4468C8.87217 62.4468 8.01838 61.5889 8.01838 60.5276C8.01838 59.8185 8.40135 59.2011 8.98012 58.8643ZM6.47356 42.2583C7.21403 39.3942 8.81858 36.7933 11.8102 35.2507C11.8874 35.4156 11.9671 35.5794 12.0483 35.7417L12.0585 35.7621L12.07 35.7817L12.0779 35.7953C12.1078 35.8466 12.1385 35.8992 12.1699 35.9526C9.50039 37.3515 8.0708 39.5909 7.36554 41.939C7.33377 41.9505 7.30208 41.9619 7.27048 41.9732C6.99823 42.0713 6.73254 42.167 6.47356 42.2583ZM25.5311 24.9522L25.5311 24.9523L25.539 24.9521C29.4264 24.8664 33.7475 25.7988 36.4612 26.6104C36.3233 28.2948 35.7437 29.4911 34.6029 30.6335C34.1546 31.0674 33.9419 31.6747 33.9585 32.2699L33.9586 32.2699C33.9589 32.2786 33.9594 32.2891 33.9599 32.3014C33.9645 32.4116 33.9753 32.6675 33.9479 33.1072C33.9462 33.1332 33.9445 33.1592 33.9428 33.1851C33.9321 33.3518 33.9214 33.5175 33.8965 33.6754L33.8879 33.7301V33.7753C33.8873 33.7797 33.886 33.79 33.8831 33.8083C33.8823 33.8135 33.8813 33.8201 33.88 33.828C33.874 33.8649 33.8638 33.9282 33.857 33.9887L33.857 33.9887L33.8562 33.9965C33.8523 34.0358 33.8495 34.0734 33.8474 34.1021L33.8473 34.1028C33.845 34.1342 33.8433 34.1565 33.8412 34.1785C33.8374 34.2192 33.833 34.246 33.8269 34.2705L33.8174 34.3084L33.8122 34.3472C33.7573 34.7533 33.6683 35.2229 33.5545 35.7237C33.4105 36.3324 33.2108 36.9764 32.9555 37.6211C32.8447 37.887 32.7428 38.1307 32.625 38.3707C32.5787 38.4422 32.5496 38.5055 32.5359 38.5355L32.5356 38.5363L32.5217 38.567L32.5158 38.5798L32.423 38.7345V38.7606C32.059 39.4002 31.6309 39.97 31.1392 40.4722C31.128 40.4833 31.1197 40.491 31.1071 40.5028C31.0965 40.5128 31.0827 40.5256 31.0615 40.5458C31.0352 40.5709 30.9947 40.6099 30.9525 40.6577C29.5445 41.9779 27.6447 42.7363 25.5451 42.7475H25.5C23.3552 42.7475 21.4222 41.9696 19.976 40.5876L19.973 40.5848C19.4026 40.0461 18.9027 39.4006 18.5064 38.6791C18.4921 38.6483 18.4784 38.6237 18.4684 38.6065C18.4592 38.5907 18.4498 38.5759 18.4425 38.5646L18.4378 38.5556C16.9397 35.6955 16.9845 32.6413 16.994 32.2747L16.994 32.2747C17.0285 31.6018 16.7529 30.9653 16.2496 30.522C16.2134 30.4866 16.1379 30.4099 16.0307 30.2803C15.8852 30.1045 15.6841 29.8337 15.4743 29.4651C15.1095 28.824 14.716 27.883 14.5452 26.6224C17.2539 25.9063 21.5998 24.995 25.5311 24.9522ZM43.5858 41.8444C43.3018 40.8029 42.8933 39.847 42.3373 38.984C41.2841 37.3161 39.9625 36.3507 38.9335 35.8175C38.9623 35.7646 38.9905 35.7108 39.018 35.6559C39.1072 35.4878 39.1916 35.3159 39.2707 35.1437C40.3923 35.7374 41.8185 36.7683 42.9526 38.5375C43.634 39.6022 44.1282 40.7998 44.4352 42.1422C44.1838 42.0534 43.8966 41.9526 43.5858 41.8444Z" stroke="#134A85" stroke-width="1.41176"/>
</g>
<defs>
<clipPath id="clip0_1220_4142">
<rect width="75" height="75" fill="white"/>
</clipPath>
</defs>
</svg>
