<svg width="71" height="70" viewBox="0 0 71 70" fill="none" xmlns="http://www.w3.org/2000/svg">
<g filter="url(#filter0_i_377_812)">
<rect x="0.5" width="70" height="70" rx="21.5385" fill="white"/>
<g clip-path="url(#clip0_377_812)">
<path d="M30.42 21.0235C32.3595 21.0235 33.9317 19.4513 33.9317 17.5118C33.9317 15.5723 32.3595 14 30.42 14C28.4805 14 26.9082 15.5723 26.9082 17.5118C26.9082 19.4513 28.4805 21.0235 30.42 21.0235Z" fill="#134A85"/>
<path d="M33.1734 33.1054L28.1597 30.6754L27.4056 25.1315L29.2607 29.6395L30.52 30.2499L31.2874 25.2035C31.4795 23.9408 30.6115 22.7614 29.3487 22.5694L26.2074 22.0917C24.9446 21.8996 23.7652 22.7676 23.5732 24.0304L21.9146 34.9383C22.868 34.9383 25.3815 34.9383 26.3311 34.9383L25.3617 34.4684C24.07 33.8424 23.6133 32.5095 23.6783 31.8307L24.2514 25.8434L25.0841 31.9652C25.1571 32.5008 25.4932 32.9628 25.9776 33.1976L31.7684 36.0043C32.5796 36.3976 33.5388 36.0445 33.9204 35.2574C34.3078 34.4579 33.975 33.494 33.1734 33.1054Z" fill="#134A85"/>
<path d="M56.6554 53.101C56.3169 53.101 55.8759 53.101 55.3461 53.101V41.2908C55.3461 38.5667 53.1299 36.3505 50.4057 36.3505C49.9894 36.3505 35.3157 36.3505 34.8995 36.3505C34.0352 37.513 32.4684 37.9131 31.1525 37.2751L29.2448 36.3505H21.6709C18.9469 36.3505 16.7307 38.5666 16.7307 41.2908V53.101C16.2011 53.101 15.76 53.101 15.4215 53.101C14.9871 53.101 14.6349 53.4531 14.6349 53.8875V56.2902C14.6349 56.7246 14.987 57.0768 15.4213 57.0768C20.7439 57.0768 51.3314 57.0768 56.6553 57.0768C57.0897 57.0768 57.4419 56.7247 57.4419 56.2903V53.8876C57.4419 53.4532 57.0898 53.101 56.6554 53.101ZM52.5215 53.101C47.7534 53.101 40.2233 53.101 33.1276 53.101C33.2136 52.8857 33.2663 52.6533 33.2745 52.4083L33.601 42.5843C33.6126 42.2368 33.5358 41.8921 33.3778 41.5824L32.8701 40.5872H28.2566L29.4759 42.9777L29.167 52.2718C29.1573 52.5647 29.2098 52.8452 29.3119 53.101C27.7492 53.101 26.2397 53.101 24.8217 53.101C24.8326 53.0735 24.8444 53.0469 24.8542 53.0187L27.9644 44.1301C28.1047 43.7289 28.1172 43.2941 28.0002 42.8855L27.3418 40.5872H23.0668L23.8695 43.3893L20.9751 51.6613C20.8045 52.1485 20.8289 52.6565 21.0065 53.101C20.499 53.101 20.0142 53.101 19.555 53.101V41.2908C19.555 40.1241 20.5042 39.175 21.6707 39.175C22.1681 39.175 49.9002 39.175 50.4056 39.175C51.5723 39.175 52.5214 40.1242 52.5214 41.2908V53.101H52.5215Z" fill="#134A85"/>
</g>
</g>
<defs>
<filter id="filter0_i_377_812" x="0.5" y="0" width="70" height="70" filterUnits="userSpaceOnUse" color-interpolation-filters="sRGB">
<feFlood flood-opacity="0" result="BackgroundImageFix"/>
<feBlend mode="normal" in="SourceGraphic" in2="BackgroundImageFix" result="shape"/>
<feColorMatrix in="SourceAlpha" type="matrix" values="0 0 0 0 0 0 0 0 0 0 0 0 0 0 0 0 0 0 127 0" result="hardAlpha"/>
<feOffset/>
<feGaussianBlur stdDeviation="3.76923"/>
<feComposite in2="hardAlpha" operator="arithmetic" k2="-1" k3="1"/>
<feColorMatrix type="matrix" values="0 0 0 0 1 0 0 0 0 0.217544 0 0 0 0 0 0 0 0 0.51 0"/>
<feBlend mode="normal" in2="shape" result="effect1_innerShadow_377_812"/>
</filter>
<clipPath id="clip0_377_812">
<rect width="43.0769" height="43.0769" fill="white" transform="translate(14.5 14)"/>
</clipPath>
</defs>
</svg>
