<svg width="71" height="70" viewBox="0 0 71 70" fill="none" xmlns="http://www.w3.org/2000/svg">
<g filter="url(#filter0_i_377_860)">
<rect x="0.5" width="70" height="70" rx="21.5385" fill="white"/>
<path d="M39.3738 37.5656H32.7905C32.4232 37.5656 32.1255 37.8634 32.1255 38.2306V53.1811C32.1255 53.5484 32.4232 53.8462 32.7905 53.8462H39.3738C39.7411 53.8462 40.0388 53.5484 40.0388 53.1811V38.2306C40.0388 37.8634 39.7411 37.5656 39.3738 37.5656Z" fill="#134A85"/>
<path d="M52.3264 27.8378H45.7431C45.3759 27.8378 45.0781 28.1355 45.0781 28.5028V53.1811C45.0781 53.5484 45.3759 53.8461 45.7431 53.8461H52.3264C52.6937 53.8461 52.9915 53.5484 52.9915 53.1811V28.5028C52.9915 28.1355 52.6937 27.8378 52.3264 27.8378Z" fill="#134A85"/>
<path d="M26.4212 42.8252H19.8379C19.4706 42.8252 19.1729 43.1229 19.1729 43.4902V53.1811C19.1729 53.5484 19.4706 53.8461 19.8379 53.8461H26.4212C26.7884 53.8461 27.0862 53.5484 27.0862 53.1811V43.4902C27.0862 43.1229 26.7884 42.8252 26.4212 42.8252Z" fill="#134A85"/>
<path d="M21.7583 38.2679C24.0011 38.2679 25.8322 36.4936 25.935 34.2758C28.1245 33.6809 30.2858 32.9348 32.371 32.0434C33.1384 32.9089 34.255 33.4582 35.5002 33.4582C37.8085 33.4582 39.6865 31.5802 39.6865 29.2719C39.6865 28.9165 39.6372 28.5733 39.5534 28.2438C41.8943 26.7455 44.1148 25.0424 46.168 23.1721C46.9334 24.0023 48.0264 24.5264 49.242 24.5264C51.5503 24.5264 53.4283 22.6484 53.4283 20.3401C53.4283 18.0318 51.5503 16.1538 49.242 16.1538C46.9338 16.1538 45.0558 18.0318 45.0558 20.3401C45.0558 20.9496 45.1898 21.5275 45.4252 22.0505C43.4378 23.8773 41.2858 25.5415 39.0168 27.0082C38.2706 25.8534 36.9749 25.0856 35.5009 25.0856C33.1926 25.0856 31.3146 26.9636 31.3146 29.2719C31.3146 29.8505 31.4326 30.4018 31.6458 30.9035C29.7418 31.7069 27.7754 32.3872 25.7827 32.9378C25.2833 31.1845 23.6706 29.8954 21.759 29.8954C19.4508 29.8954 17.5728 31.7734 17.5728 34.0816C17.5728 36.3899 19.4508 38.2679 21.759 38.2679H21.7583Z" fill="#134A85"/>
</g>
<defs>
<filter id="filter0_i_377_860" x="0.5" y="0" width="70" height="70" filterUnits="userSpaceOnUse" color-interpolation-filters="sRGB">
<feFlood flood-opacity="0" result="BackgroundImageFix"/>
<feBlend mode="normal" in="SourceGraphic" in2="BackgroundImageFix" result="shape"/>
<feColorMatrix in="SourceAlpha" type="matrix" values="0 0 0 0 0 0 0 0 0 0 0 0 0 0 0 0 0 0 127 0" result="hardAlpha"/>
<feOffset/>
<feGaussianBlur stdDeviation="3.76923"/>
<feComposite in2="hardAlpha" operator="arithmetic" k2="-1" k3="1"/>
<feColorMatrix type="matrix" values="0 0 0 0 0 0 0 0 0 1 0 0 0 0 0.617544 0 0 0 0.51 0"/>
<feBlend mode="normal" in2="shape" result="effect1_innerShadow_377_860"/>
</filter>
</defs>
</svg>
