<svg width="70" height="70" viewBox="0 0 70 70" fill="none" xmlns="http://www.w3.org/2000/svg">
<g filter="url(#filter0_i_377_836)">
<rect width="70" height="70" rx="21.5385" fill="white"/>
<path d="M27.664 34.5252C28.0364 36.5818 31.0353 36.3246 31.0639 34.2375C31.0639 33.8125 30.907 33.4137 30.6259 33.0998C30.397 32.8514 30.397 32.4721 30.6259 32.2171C30.907 31.9098 31.0639 31.5044 31.0639 31.0795C31.0326 29.0021 28.04 28.7433 27.664 30.7918C27.6116 31.1121 27.337 31.341 27.0166 31.341H16.6924V33.9825H27.0166C27.337 33.9825 27.6116 34.2113 27.664 34.5252Z" fill="#134A85"/>
<path d="M40.669 35.2769C41.2107 35.2769 41.6498 34.106 41.6498 32.6615C41.6498 31.2171 41.2107 30.0462 40.669 30.0462C40.1273 30.0462 39.6882 31.2171 39.6882 32.6615C39.6882 34.106 40.1273 35.2769 40.669 35.2769Z" fill="#134A85"/>
<path d="M36.9616 23.1222H17.3462C16.9866 23.1222 16.6924 23.4164 16.6924 23.7761V30.0333H26.5197C26.9447 28.8629 28.0628 28.0587 29.3509 28.0587C31.0182 28.0587 32.3716 29.4187 32.3716 31.0795C32.3716 31.6483 32.2147 32.191 31.927 32.6617C32.2147 33.1325 32.3716 33.6752 32.3716 34.2375C32.3513 37.5961 27.6755 38.4134 26.5197 35.2901C26.5197 35.2902 16.6924 35.2902 16.6924 35.2902V41.2074C16.6924 41.5343 16.9409 41.8155 17.2678 41.8547C17.732 41.907 26.3235 42.8747 32.0055 41.3513C32.3009 40.3574 32.9768 38.967 33.3916 38.3632C33.6009 38.0363 34.0586 37.9709 34.3593 38.2259C34.6045 38.4371 34.6754 38.7993 34.4901 39.0694C34.2482 39.4486 33.9082 40.0436 33.5813 40.8347C32.5613 43.3063 31.757 47.8047 34.7451 53.4866C34.8301 53.65 34.987 53.7742 35.157 53.8135C35.5755 53.8396 36.844 53.8462 38.4001 53.8462V44.8624C35.0755 43.3922 37.4483 38.4965 40.669 40.2202C43.9186 38.5276 46.2651 43.3544 42.9378 44.8624C42.9378 44.8624 42.9378 53.8396 42.9378 53.8396C44.7163 53.8396 46.2332 53.8331 46.7694 53.8396C47.129 53.8396 47.4232 53.5454 47.4232 53.1858V33.5771C47.4232 27.8037 42.7417 23.1222 36.9616 23.1222ZM40.6689 36.5848C37.6412 36.5484 37.6423 28.7739 40.669 28.7387C43.6981 28.7692 43.697 36.5553 40.6689 36.5848Z" fill="#134A85"/>
<path d="M43.2449 42.4628C43.2769 41.3823 41.8861 40.7685 41.1069 41.5082C40.469 42.0509 40.0509 41.1079 39.3807 41.1813C37.8228 41.1892 37.6305 43.4664 39.1584 43.7247C39.4788 43.777 39.7076 44.0516 39.7076 44.372V53.8462C40.3353 53.8462 40.9891 53.8462 41.6299 53.8396V44.372C41.6299 44.0516 41.8653 43.777 42.1792 43.7247C42.7938 43.6266 43.2449 43.097 43.2449 42.4628Z" fill="#134A85"/>
<path d="M53.2739 17.6781C53.1596 17.3358 52.7918 17.15 52.447 17.2646L48.0335 18.7358C47.5822 18.8719 47.4349 19.495 47.7781 19.8184C47.7781 19.8184 49.9721 22.0126 49.9721 22.0126L46.5624 23.1492C46.2201 23.2635 46.035 23.6338 46.1493 23.9764C46.2628 24.3221 46.6424 24.504 46.9761 24.3898L51.3896 22.9187C51.8409 22.7826 51.9883 22.1594 51.645 21.8361C51.645 21.8361 49.4511 19.6418 49.4511 19.6418L52.8608 18.5053C53.203 18.391 53.3882 18.0206 53.2739 17.6781Z" fill="#134A85"/>
</g>
<defs>
<filter id="filter0_i_377_836" x="0" y="0" width="70" height="70" filterUnits="userSpaceOnUse" color-interpolation-filters="sRGB">
<feFlood flood-opacity="0" result="BackgroundImageFix"/>
<feBlend mode="normal" in="SourceGraphic" in2="BackgroundImageFix" result="shape"/>
<feColorMatrix in="SourceAlpha" type="matrix" values="0 0 0 0 0 0 0 0 0 0 0 0 0 0 0 0 0 0 127 0" result="hardAlpha"/>
<feOffset/>
<feGaussianBlur stdDeviation="3.76923"/>
<feComposite in2="hardAlpha" operator="arithmetic" k2="-1" k3="1"/>
<feColorMatrix type="matrix" values="0 0 0 0 0.117544 0 0 0 0 0 0 0 0 0 1 0 0 0 0.51 0"/>
<feBlend mode="normal" in2="shape" result="effect1_innerShadow_377_836"/>
</filter>
</defs>
</svg>
