<svg width="16" height="16" viewBox="0 0 16 16" fill="none" xmlns="http://www.w3.org/2000/svg">
<rect width="16" height="16" rx="3.5" fill="white"/>
<path d="M7.92708 3.35583C8.1337 3.40575 8.32639 3.49281 8.52257 3.5729C9.15172 3.8306 9.75534 4.13241 10.3009 4.54217C10.6074 4.77317 10.8825 5.03203 11.0578 5.38027C11.269 5.80048 11.2435 6.20096 10.9707 6.58518C10.8488 6.75698 10.6933 6.89511 10.5319 7.02861C10.4762 7.07504 10.4205 7.12147 10.3775 7.1946C10.5621 7.16094 10.7455 7.11683 10.9312 7.09477C11.9632 6.97173 12.9858 6.98101 13.9876 7.30256C14.2999 7.40238 14.5866 7.55329 14.842 7.75759C15.2982 8.12208 15.4363 8.59917 15.3283 9.15983C15.2668 9.47789 15.1426 9.77274 14.9766 10.0467C14.7758 10.3798 14.546 10.6944 14.2999 10.9974C14.2546 11.0531 14.1977 11.1007 14.1165 11.1819C14.1548 11.0334 14.2221 10.9463 14.2801 10.8569C14.5042 10.5122 14.6528 10.1396 14.6829 9.73095C14.7108 9.36297 14.5344 9.07974 14.2523 8.85919C13.9899 8.65373 13.68 8.55042 13.3608 8.48773C12.5958 8.33683 11.825 8.33335 11.0485 8.38906C9.68801 8.48541 8.35774 8.74079 7.0321 9.04492C6.14525 9.24806 5.26769 9.48254 4.40173 9.75997C3.79231 9.95498 3.18753 10.1628 2.5874 10.3868C1.97334 10.6155 1.38017 10.8883 0.783516 11.1541C0.742888 11.1727 0.70226 11.1994 0.650024 11.1901C0.655828 11.1262 0.711547 11.1135 0.749853 11.0868C1.77252 10.3891 2.86831 9.82613 3.99545 9.3177C5.14116 8.80115 6.30196 8.31709 7.42794 7.75759C8.0095 7.46855 8.57945 7.15513 9.06931 6.72099C9.36067 6.4633 9.6114 6.1731 9.68221 5.7703C9.75186 5.37795 9.6172 5.04016 9.39549 4.72906C9.12038 4.34368 8.77446 4.03026 8.39372 3.75283C8.23005 3.63327 8.0687 3.51138 7.90619 3.39182C7.91315 3.38021 7.92011 3.3686 7.92708 3.357V3.35583Z" fill="#134A85"/>
<path d="M9.4616 5.46274C9.46044 5.74946 9.41052 5.96769 9.27587 6.16154C9.2097 6.25673 9.1447 6.34031 9.00656 6.24976C8.92183 6.19405 8.81735 6.21378 8.75699 6.29852C8.69779 6.38094 8.65832 6.48309 8.73726 6.57943C8.79182 6.6456 8.77324 6.68623 8.71056 6.72453C8.50742 6.8499 8.33794 7.0333 8.08605 7.07045C8.06515 7.07393 8.03962 7.0867 8.02569 7.10295C7.74129 7.42333 7.32805 7.52897 6.97052 7.72514C6.85212 7.79015 6.74184 7.87024 6.5863 7.80059C6.52942 7.77506 6.43307 7.82729 6.40289 7.8981C6.35762 8.00141 6.27288 8.049 6.18582 8.10124C6.14403 8.12678 6.1034 8.15232 6.05697 8.1291C6.00706 8.10472 6.03492 8.05481 6.03608 8.0165C6.03724 7.84819 5.97339 7.77854 5.8074 7.76693C5.68668 7.7588 5.56827 7.8656 5.55551 7.99677C5.54738 8.08731 5.59845 8.15812 5.65069 8.21964C5.70641 8.28465 5.68551 8.31367 5.62167 8.34385C5.4313 8.43323 5.2537 8.55744 5.02038 8.49939C4.90546 8.47038 4.8567 8.58762 4.79634 8.65842C4.6733 8.80236 4.67214 8.80585 4.52704 8.67816C4.49569 8.6503 4.46087 8.62708 4.42837 8.60038C4.28791 8.4843 4.28095 8.34733 4.40863 8.22196C4.55877 8.07493 4.55528 7.93176 4.39819 7.79247C4.28791 7.6938 4.29023 7.5754 4.40167 7.45235C4.469 7.37922 4.59552 7.33859 4.59436 7.22948C4.5932 7.12733 4.47364 7.0867 4.40283 7.02286C4.35988 6.98339 4.33899 6.93464 4.33434 6.87544C4.32274 6.72801 4.42256 6.58291 4.59088 6.51559C4.71276 6.46683 4.77661 6.55506 4.84742 6.63051C4.9101 6.69667 4.97046 6.78838 5.07726 6.75123C5.21423 6.70364 5.29549 6.58872 5.32567 6.45407C5.34772 6.35075 5.25718 6.29039 5.18289 6.23467C5.15387 6.21262 5.12369 6.19056 5.09699 6.16503C5.04127 6.10931 4.99832 6.11047 4.95189 6.17896C4.92171 6.22423 4.88108 6.26369 4.83929 6.30084C4.69767 6.42621 4.63963 6.42853 4.48525 6.31825C4.34595 6.21958 4.31229 6.11976 4.36801 5.97349C4.42256 5.82839 4.54677 5.75062 4.69535 5.77732C4.81724 5.79937 4.88921 5.8992 4.96814 5.98046C5.0227 6.03618 5.05404 6.05127 5.10976 5.9851C5.16896 5.91429 5.23861 5.85277 5.30709 5.79125C5.40576 5.70419 5.39299 5.63338 5.29084 5.55793C5.20262 5.49292 5.10744 5.4314 5.11208 5.29675C5.11788 5.15165 5.20146 5.06459 5.3187 5.00887C5.43594 4.95431 5.54158 4.98681 5.63212 5.08432C5.80392 5.26773 5.80624 5.26657 5.98848 5.09941C6.0059 5.08316 6.02215 5.06691 6.03956 5.05182C6.20439 4.90092 6.25779 4.90556 6.39592 5.08084C6.44932 5.14817 6.49808 5.24683 6.60371 5.20621C6.73372 5.15513 6.85444 5.07968 6.89623 4.9311C6.909 4.88466 6.88926 4.83939 6.85444 4.80457C6.82774 4.77903 6.79988 4.75349 6.77202 4.72912C6.60139 4.5817 6.59674 4.4691 6.75229 4.31007C6.89043 4.16845 7.06687 4.17542 7.19804 4.32632C7.20965 4.34025 7.22241 4.35418 7.23402 4.36811C7.36055 4.51669 7.36635 4.51669 7.49288 4.37159C7.69834 4.13363 7.84112 4.13943 8.03265 4.39132C8.11739 4.50392 8.15338 4.50508 8.24624 4.39945C8.2799 4.36114 8.30776 4.31703 8.34259 4.28105C8.45402 4.16729 8.58287 4.16961 8.69431 4.28453C8.85914 4.45478 8.85256 4.62078 8.67457 4.78251C8.61421 4.83823 8.59448 4.90092 8.64091 4.97985C8.77905 5.20969 8.9787 5.2596 9.16559 5.04485C9.25265 4.94386 9.28167 4.94967 9.33855 5.06691C9.4082 5.20969 9.45231 5.36059 9.45928 5.46506L9.4616 5.46274ZM7.35475 5.1679C7.48824 5.1679 7.58226 5.10754 7.64378 4.98914C7.68209 4.91484 7.68441 4.8452 7.62405 4.78484C7.55208 4.71287 7.47431 4.64786 7.40002 4.57821C7.37332 4.55268 7.34894 4.555 7.33037 4.58286C7.27465 4.66643 7.19223 4.71635 7.11098 4.77091C7.05178 4.81037 7.04829 4.87306 7.06106 4.93342C7.08544 5.05066 7.23402 5.16558 7.35475 5.1679ZM8.129 5.16674C8.28803 5.17022 8.44822 5.03441 8.44822 4.89627C8.44822 4.79296 8.25204 4.61072 8.14177 4.61188C8.02801 4.6142 7.84925 4.77787 7.84576 4.8835C7.83996 5.02976 7.97345 5.16326 8.129 5.16674ZM5.30942 7.22832C5.31174 7.10644 5.17825 6.94276 5.07377 6.93928C4.96118 6.93464 4.72321 7.12617 4.71741 7.226C4.71276 7.30958 4.92171 7.51736 5.01573 7.522C5.15503 7.52897 5.30709 7.3769 5.30942 7.22832ZM5.80624 5.96073C5.94089 5.9584 6.11501 5.78777 6.10921 5.66356C6.10572 5.58579 5.86544 5.34782 5.79811 5.35479C5.75516 5.35943 5.4905 5.64034 5.4905 5.68097C5.4905 5.76455 5.71453 5.96189 5.80624 5.96073ZM5.28504 7.99096C5.28504 7.84819 5.17476 7.72862 5.03895 7.7263C4.9159 7.72398 4.71044 7.91319 4.71509 8.02463C4.71857 8.10472 4.92171 8.28929 5.00761 8.29045C5.16548 8.29277 5.28388 8.16392 5.28504 7.99096ZM6.56772 5.93519C6.69425 5.93983 6.8498 5.80518 6.85444 5.68794C6.86024 5.54748 6.72907 5.39774 6.5979 5.39542C6.46325 5.39309 6.29958 5.55212 6.29726 5.6891C6.29493 5.80634 6.43075 5.93054 6.56772 5.93635V5.93519ZM5.56131 6.4413C5.56015 6.60729 5.65649 6.71989 5.80159 6.72105C5.9316 6.72221 6.05349 6.61542 6.05581 6.49585C6.05929 6.3229 5.95598 6.18592 5.82365 6.18824C5.65417 6.19173 5.56131 6.27995 5.56015 6.4413H5.56131ZM8.69199 5.67401C8.68038 5.81795 8.76047 5.9259 8.88584 5.93519C9.0263 5.94564 9.1714 5.82027 9.18068 5.68213C9.18881 5.56025 9.09827 5.44069 8.99147 5.4314C8.81271 5.41515 8.70476 5.50221 8.69199 5.67401ZM8.16034 5.43604C7.99435 5.44649 7.87943 5.54864 7.88407 5.68097C7.88871 5.81679 8.03033 5.93983 8.16847 5.92822C8.27642 5.91894 8.40295 5.76687 8.3983 5.65311C8.39366 5.53355 8.27758 5.42792 8.1615 5.43488L8.16034 5.43604ZM7.61941 5.66936C7.61941 5.54168 7.49752 5.41979 7.37448 5.42095C7.24679 5.42211 7.10169 5.55677 7.10633 5.67053C7.11098 5.80982 7.2259 5.91313 7.37448 5.91081C7.51261 5.90849 7.62173 5.8017 7.62057 5.6682L7.61941 5.66936ZM5.80159 7.49414C5.91535 7.49646 6.04188 7.35136 6.0442 7.21671C6.04652 7.10295 5.92928 6.98223 5.81669 6.98107C5.67391 6.97875 5.55318 7.08206 5.55086 7.20859C5.54738 7.34324 5.67855 7.49298 5.80159 7.4953V7.49414ZM6.58165 6.68506C6.72095 6.68158 6.83819 6.56898 6.83471 6.44246C6.83122 6.34147 6.68496 6.2103 6.57585 6.21146C6.45396 6.21262 6.32744 6.33566 6.33208 6.44826C6.33556 6.56202 6.47022 6.68739 6.58281 6.6839L6.58165 6.68506ZM7.58807 6.43433C7.58342 6.31361 7.47895 6.22074 7.35591 6.22771C7.22241 6.23467 7.12491 6.3345 7.13071 6.45871C7.13535 6.57015 7.24563 6.66417 7.36984 6.66301C7.47315 6.66185 7.59271 6.53648 7.58923 6.43433H7.58807ZM6.78595 7.22368C6.78363 7.10179 6.68961 7.00196 6.58165 7.00661C6.47254 7.01125 6.35762 7.11804 6.3553 7.21555C6.35414 7.33163 6.47138 7.44887 6.58746 7.44539C6.70354 7.44191 6.78828 7.34788 6.78595 7.22368ZM8.34259 6.43433C8.34026 6.32057 8.2532 6.23003 8.14525 6.23003C8.02569 6.23003 7.91889 6.33799 7.91773 6.46219C7.91773 6.56898 8.02337 6.66881 8.13712 6.66533C8.25204 6.66301 8.34491 6.55738 8.34259 6.43433ZM7.35358 7.39896C7.45573 7.39896 7.53235 7.31886 7.53119 7.20742C7.53003 7.09134 7.44761 7.05884 7.35242 7.06C7.24563 7.06116 7.17714 7.1134 7.17714 7.23064C7.17714 7.3502 7.24563 7.39431 7.35358 7.39896Z" fill="#F6811F"/>
<path d="M6.79534 9.56613C6.79766 9.54524 6.80695 9.52318 6.79883 9.50925C6.69319 9.30263 6.86499 9.3154 6.97527 9.28986C7.457 9.17726 7.93757 9.0635 8.42162 8.96251C8.56208 8.93349 8.71182 8.89983 8.85576 8.97993C8.94166 9.02752 9.02524 8.97993 9.0798 8.91376C9.16802 8.80813 9.28874 8.83018 9.39902 8.81045C9.45357 8.80116 9.47795 8.8534 9.50117 8.89171C9.56733 9.00198 9.66948 9.01475 9.78092 8.99734C9.88539 8.98225 9.90048 8.89983 9.91557 8.81277C9.93531 8.69205 10.0433 8.71062 10.1257 8.69785C10.2151 8.68392 10.2278 8.75125 10.2406 8.81974C10.2719 8.98225 10.3636 9.06118 10.5006 9.0519C10.6283 9.04377 10.7363 8.92653 10.7386 8.7733C10.7409 8.66999 10.7734 8.61427 10.8814 8.61544C10.9498 8.61544 10.994 8.6491 10.9696 8.71991C10.9359 8.81741 10.98 8.87894 11.045 8.9393C11.0624 8.95555 11.0775 8.9718 11.0938 8.98921C11.199 9.0991 11.3023 9.09678 11.4037 8.98225C11.4861 8.88822 11.5755 8.80348 11.7137 8.86152C11.839 8.91376 11.9156 9.00662 11.9168 9.1494C11.918 9.30727 11.8483 9.41523 11.7195 9.46862C11.6289 9.50693 11.5546 9.47094 11.4861 9.42219C11.4304 9.38156 11.3817 9.33165 11.3329 9.28173C11.276 9.22486 11.2319 9.22602 11.1681 9.28173C10.8837 9.53015 10.8802 9.52898 11.1263 9.80061C11.2064 9.88999 11.2099 9.97821 11.1437 10.0769C10.9823 10.3172 10.8303 10.3346 10.6271 10.1314C10.4844 9.9875 10.4217 9.9875 10.2719 10.1314C10.1373 10.2614 10.1361 10.3659 10.2696 10.4971C10.4762 10.7014 10.4043 10.9637 10.1199 11.045C10.0363 11.0694 9.97826 11.0311 9.92138 10.9765C9.75809 10.8194 9.60138 10.8237 9.45125 10.9893C9.32937 11.1228 9.33053 11.1228 9.47563 11.2493C9.56269 11.3259 9.66484 11.399 9.61957 11.5383C9.57778 11.6683 9.50117 11.767 9.35375 11.7937C9.21793 11.8181 9.10069 11.7508 9.01363 11.6068C8.93818 11.4815 8.98577 11.3874 9.07399 11.2969C9.09024 11.2806 9.10766 11.2655 9.12159 11.247C9.15873 11.1959 9.26669 11.1971 9.2516 11.1204C9.23418 11.0369 9.1657 10.9695 9.10417 10.9069C8.97765 10.7815 8.83139 10.7966 8.69673 10.9475C8.59342 11.0624 8.61083 11.1773 8.74897 11.2911C8.908 11.4211 8.92309 11.4907 8.82094 11.6231C8.66771 11.8216 8.51681 11.8634 8.36126 11.7484C8.28117 11.6892 8.2359 11.601 8.17786 11.5232C8.14535 11.4791 8.16509 11.4431 8.19527 11.4118C8.23706 11.3689 8.28233 11.3282 8.32992 11.2922C8.47734 11.1796 8.48895 11.1135 8.38564 10.9684C8.29161 10.8384 8.12098 10.7908 8.00722 10.8639C7.79827 10.9986 7.78783 11.146 7.97588 11.3038C8.12562 11.4292 8.13375 11.5209 8.00838 11.6625C7.84703 11.8448 7.70773 11.8703 7.57076 11.7322C7.51272 11.6741 7.47093 11.5999 7.42566 11.5302C7.39432 11.4815 7.40244 11.4315 7.43959 11.3886C7.46745 11.3572 7.49879 11.3294 7.53245 11.305C7.61255 11.2481 7.70425 11.1936 7.67407 11.0752C7.64157 10.9475 7.54522 10.8732 7.42217 10.8418C7.30726 10.8117 7.21671 10.8523 7.14474 10.9498C7.01938 11.1204 7.01938 11.1506 7.18421 11.2864C7.33279 11.4095 7.35021 11.507 7.24573 11.6393C7.09599 11.8274 6.9625 11.8599 6.81043 11.745C6.61542 11.5964 6.61078 11.4385 6.79766 11.2806C6.93928 11.1611 6.94276 11.081 6.80811 10.9486C6.78838 10.9289 6.76864 10.9092 6.74775 10.8906C6.60149 10.7559 6.53997 10.7618 6.42389 10.9161C6.27298 11.1181 6.13949 11.1181 5.98743 10.9138C5.9735 10.8952 5.95841 10.8778 5.94332 10.8604C5.852 10.7513 5.86051 10.6495 5.96885 10.5551C6.16735 10.381 6.16503 10.244 5.95841 10.0966C5.8342 10.0072 5.75527 10.0154 5.64035 10.128C5.50492 10.2618 5.36485 10.2676 5.22014 10.1454C5.18183 10.1129 5.1412 10.0792 5.11102 10.0397C5.03673 9.94339 5.05763 9.84937 5.15397 9.789C5.23871 9.73561 5.33854 9.7031 5.43489 9.6706C5.49525 9.65087 5.54748 9.67292 5.59856 9.71936C5.80286 9.90741 5.98975 9.85517 6.06172 9.59167C6.07449 9.54408 6.08958 9.50809 6.13717 9.48487C6.27182 9.41987 6.34495 9.45353 6.35888 9.59979C6.36933 9.70775 6.43085 9.76114 6.52488 9.79829C6.61194 9.83195 6.67926 9.80061 6.74195 9.74838C6.80231 9.69962 6.81508 9.63346 6.7965 9.56149L6.79534 9.56613ZM10.1942 9.56845C10.1965 9.68569 10.3752 9.87722 10.4774 9.87374C10.5749 9.87026 10.7769 9.66828 10.7769 9.57542C10.7769 9.44657 10.6051 9.28754 10.4681 9.2887C10.3323 9.29102 10.1918 9.43496 10.1942 9.56845ZM9.98638 10.3288C9.9829 10.2081 9.81923 10.0641 9.68922 10.0664C9.55108 10.0699 9.40714 10.2139 9.41179 10.3439C9.41643 10.4634 9.59287 10.6503 9.69734 10.6457C9.81574 10.641 9.9887 10.4507 9.98522 10.3276L9.98638 10.3288ZM6.84061 10.3346C6.84061 10.1906 6.73034 10.0711 6.59336 10.0664C6.46335 10.063 6.29736 10.2081 6.29272 10.3299C6.28807 10.453 6.46568 10.6364 6.58872 10.6352C6.71989 10.6329 6.83945 10.4901 6.84061 10.3346ZM8.40305 10.3369C8.40305 10.1988 8.29626 10.0943 8.15464 10.0931C8.00258 10.0931 7.88185 10.2034 7.88069 10.3473C7.87953 10.4832 8.01999 10.6085 8.17089 10.6039C8.29394 10.6004 8.40305 10.475 8.40305 10.3381V10.3369ZM9.17847 10.3404C9.17963 10.2057 9.06471 10.0966 8.91845 10.0931C8.78379 10.0897 8.66887 10.1976 8.66539 10.3311C8.66191 10.4716 8.78611 10.6097 8.91845 10.612C9.05426 10.6143 9.1773 10.4855 9.17847 10.3404ZM7.12849 10.3543C7.12617 10.5029 7.2202 10.6074 7.35833 10.6109C7.49298 10.6143 7.61719 10.4843 7.61835 10.3404C7.61835 10.2115 7.4895 10.0931 7.35021 10.0943C7.21091 10.0943 7.13081 10.1895 7.12849 10.3543ZM9.70083 9.82963C9.82155 9.82963 9.95388 9.68918 9.95156 9.56265C9.94924 9.44192 9.82039 9.32236 9.69502 9.32468C9.56385 9.32701 9.45009 9.43728 9.45125 9.558C9.45241 9.68569 9.58358 9.82847 9.70083 9.82847V9.82963ZM8.91032 9.79945C9.0206 9.79945 9.14945 9.66596 9.14828 9.55336C9.14596 9.44541 9.04265 9.34093 8.93702 9.33977C8.80817 9.33977 8.69673 9.4396 8.69441 9.55684C8.69209 9.68685 8.79308 9.79945 8.91148 9.79945H8.91032ZM7.36297 9.34442C7.27707 9.34674 7.13662 9.48836 7.13546 9.57309C7.1343 9.6915 7.24341 9.79481 7.36878 9.79481C7.48834 9.79481 7.58701 9.68105 7.5812 9.5522C7.57656 9.44076 7.47209 9.3421 7.36297 9.34442ZM8.14419 9.78204C8.27652 9.78204 8.34849 9.70891 8.34965 9.57658C8.35081 9.45237 8.26259 9.34558 8.15928 9.34442C8.05017 9.34326 7.92016 9.493 7.92596 9.61372C7.9306 9.70659 8.03043 9.7832 8.14535 9.7832L8.14419 9.78204Z" fill="#F6811F"/>
<path d="M10.6236 4.09991C10.5981 3.60193 10.9927 3.11439 11.6219 3.11207C12.1907 3.10975 12.5993 3.55085 12.6039 4.11268C12.6074 4.65129 12.1779 5.08195 11.6323 5.09472C11.0635 5.10748 10.6259 4.66754 10.6248 4.10107L10.6236 4.09991Z" fill="#134A85"/>
<path d="M5.11561 10.72C5.11444 10.5946 5.31062 10.3764 5.42902 10.374C5.52653 10.3717 5.77726 10.6213 5.77842 10.7211C5.77958 10.8337 5.57064 11.0299 5.44643 11.0334C5.28624 11.0369 5.11793 10.8778 5.11561 10.72Z" fill="#F6811F"/>
<path d="M6.20676 11.7786C6.01755 11.7809 5.90379 11.6788 5.89798 11.5012C5.89218 11.3456 6.04773 11.1692 6.19051 11.1692C6.34141 11.1692 6.51205 11.3375 6.51669 11.4919C6.52133 11.6486 6.3832 11.7774 6.20676 11.7798V11.7786Z" fill="#F6811F"/>
<path d="M6.51674 4.52129C6.51674 4.63853 6.32056 4.84864 6.20448 4.85328C6.08144 4.85908 5.89687 4.65827 5.89919 4.52013C5.90267 4.35181 6.03617 4.22413 6.21493 4.21948C6.37164 4.216 6.51442 4.35878 6.51558 4.52013L6.51674 4.52129Z" fill="#F6811F"/>
<path d="M11.1403 10.7339C11.1391 10.908 11.0242 11.0113 10.8315 11.0102C10.6783 11.0102 10.5297 10.8709 10.5273 10.7269C10.5262 10.6062 10.7247 10.4008 10.8431 10.3984C11.0044 10.395 11.1414 10.5505 11.1391 10.7339H11.1403Z" fill="#F6811F"/>
<path d="M9.76932 11.4908C9.77628 11.3375 9.9446 11.1715 10.0862 11.1797C10.2406 11.1878 10.3822 11.3515 10.3753 11.5128C10.3683 11.673 10.2348 11.7856 10.063 11.7763C9.88772 11.767 9.76235 11.6451 9.76932 11.4919V11.4908Z" fill="#F6811F"/>
<path d="M3.61124 7.60318C3.60892 7.4337 3.71455 7.33155 3.891 7.33271C4.03145 7.33271 4.20209 7.47665 4.20789 7.59854C4.2137 7.71462 4.0152 7.93169 3.8968 7.93865C3.74822 7.94678 3.61357 7.78891 3.61124 7.60434V7.60318Z" fill="#F6811F"/>
<path d="M11.8935 9.93527C11.8842 10.1349 11.7798 10.2382 11.6033 10.2278C11.4489 10.2185 11.3061 10.0699 11.3131 9.92714C11.3201 9.78552 11.4907 9.64274 11.6463 9.64855C11.8041 9.65435 11.9028 9.76811 11.8947 9.93527H11.8935Z" fill="#F6811F"/>
<path d="M8.23816 12.2685C8.24281 12.106 8.38442 11.9748 8.54926 11.9806C8.66069 11.9841 8.84062 12.1338 8.83714 12.2197C8.83133 12.402 8.69784 12.5552 8.55042 12.5494C8.35889 12.5413 8.23352 12.4287 8.23816 12.2696V12.2685Z" fill="#F6811F"/>
<path d="M4.1765 8.38675C4.17534 8.55855 4.04765 8.67231 3.85496 8.67347C3.69013 8.67463 3.58914 8.56319 3.59378 8.38559C3.59726 8.23701 3.72147 8.11048 3.86425 8.10932C4.04301 8.10816 4.17766 8.22772 4.1765 8.38675Z" fill="#F6811F"/>
<path d="M4.38892 5.29327C4.38892 5.11218 4.48758 5.02048 4.67912 5.02396C4.83815 5.02628 4.9519 5.13656 4.95306 5.29094C4.95423 5.44765 4.801 5.59972 4.63965 5.59972C4.49223 5.59972 4.38892 5.47203 4.38892 5.29327Z" fill="#F6811F"/>
<path d="M8.01871 12.2464C8.01871 12.4391 7.90496 12.5621 7.72735 12.5575C7.60083 12.5552 7.4801 12.4066 7.4801 12.2568C7.4801 12.0897 7.60315 11.9632 7.76334 11.9655C7.91889 11.9666 8.01755 12.0758 8.01755 12.2464H8.01871Z" fill="#F6811F"/>
<path d="M5.73091 11.5046C5.72975 11.6323 5.56956 11.7751 5.43026 11.7728C5.28168 11.7704 5.15399 11.6439 5.15283 11.5C5.15283 11.3212 5.25963 11.2121 5.43491 11.2133C5.61947 11.2156 5.73323 11.3259 5.73091 11.5046Z" fill="#F6811F"/>
<path d="M4.38775 10.7003C4.39123 10.5111 4.46784 10.4391 4.66634 10.4438C4.82421 10.4472 4.94841 10.5633 4.94957 10.7073C4.95074 10.8756 4.83582 11.0009 4.66286 10.9858C4.48758 10.9708 4.36801 10.9034 4.38775 10.7003Z" fill="#F6811F"/>
<path d="M5.70414 4.53293C5.7053 4.70125 5.58457 4.8301 5.42554 4.82894C5.29321 4.82894 5.16785 4.67107 5.16785 4.50507C5.16785 4.33908 5.26419 4.24738 5.43947 4.24738C5.60663 4.24738 5.70298 4.35069 5.70414 4.53293Z" fill="#F6811F"/>
<path d="M3.90257 6.56316C4.05928 6.57245 4.1742 6.70942 4.16607 6.8789C4.15911 7.02516 4.02213 7.14472 3.87355 7.13195C3.71684 7.11918 3.6054 6.98918 3.61237 6.83015C3.6205 6.66531 3.74122 6.55388 3.90257 6.56316Z" fill="#F6811F"/>
<path d="M11.6614 5.77614C11.7786 5.77034 11.8471 5.84231 11.8854 5.95375C11.9307 6.08376 11.8912 6.24975 11.7925 6.3194C11.6962 6.38673 11.5917 6.38324 11.4907 6.32869C11.4385 6.30083 11.406 6.25556 11.4083 6.19403C11.4106 6.11974 11.4118 6.04545 11.4211 5.97232C11.442 5.81909 11.4977 5.77382 11.6614 5.77614Z" fill="#F6811F"/>
<path d="M12.6724 9.14829C12.6631 9.3375 12.5389 9.45938 12.366 9.44778C12.2058 9.43617 12.121 9.32937 12.1315 9.15177C12.1408 8.99042 12.2464 8.89059 12.3985 8.89524C12.5494 8.90104 12.6794 9.01944 12.6736 9.14829H12.6724Z" fill="#F6811F"/>
<path d="M7.24113 3.71917C7.24229 3.90606 7.11925 4.04884 6.95906 4.04652C6.82905 4.04536 6.7002 3.89561 6.70368 3.74935C6.70716 3.58336 6.81512 3.48353 6.99156 3.48469C7.17729 3.48585 7.23997 3.54505 7.24113 3.71917Z" fill="#F6811F"/>
<path d="M3.88979 5.80627C4.05695 5.80627 4.16838 5.92468 4.1649 6.09996C4.16258 6.23113 4.03141 6.33676 3.87354 6.33444C3.71335 6.33212 3.61584 6.23345 3.60772 6.08138C3.59611 5.87592 3.71451 5.82253 3.88979 5.80627Z" fill="#F6811F"/>
<path d="M7.24561 12.3184C7.24793 12.4403 7.13997 12.5355 6.99603 12.5378C6.81727 12.5401 6.71512 12.4322 6.7128 12.2383C6.71048 12.1071 6.83933 11.9713 6.96469 11.9702C7.1272 11.9702 7.24212 12.1118 7.24561 12.3184Z" fill="#F6811F"/>
<path d="M9.55216 12.2626C9.551 12.4275 9.45581 12.5459 9.3258 12.5412C9.13775 12.5354 9.02051 12.4159 9.02516 12.2325C9.02864 12.1001 9.15168 11.9875 9.29562 11.9852C9.45814 11.9829 9.55332 12.0862 9.55216 12.2626Z" fill="#F6811F"/>
<path d="M11.8923 10.7316C11.8981 10.8732 11.7902 10.9672 11.6161 10.9707C11.4675 10.9742 11.3584 10.8732 11.3514 10.7281C11.3433 10.5586 11.4443 10.4553 11.623 10.4507C11.789 10.446 11.8831 10.5447 11.8923 10.7316Z" fill="#F6811F"/>
<path d="M6.21145 4.00362C6.02573 4.00478 5.93402 3.92817 5.93286 3.77262C5.93286 3.60198 6.03849 3.49519 6.20913 3.49287C6.37048 3.49171 6.48308 3.60895 6.48192 3.77494C6.4796 3.91772 6.38093 4.00246 6.21145 4.00246V4.00362Z" fill="#F6811F"/>
<path d="M10.0861 3.49518C10.237 3.49518 10.3531 3.6101 10.3496 3.7552C10.3461 3.90958 10.2242 4.01522 10.0501 4.01522C9.91662 4.01522 9.80054 3.89217 9.80054 3.75288C9.80054 3.60662 9.92358 3.49634 10.0873 3.49634L10.0861 3.49518Z" fill="#F6811F"/>
<path d="M10.8512 11.2237C11.009 11.2214 11.1077 11.3166 11.1077 11.4698C11.1077 11.6393 11.0044 11.7542 10.8523 11.7565C10.6794 11.76 10.5795 11.659 10.5807 11.4838C10.5807 11.341 10.7003 11.2261 10.8523 11.2237H10.8512Z" fill="#F6811F"/>
<path d="M6.45871 12.2847C6.45639 12.4367 6.36816 12.5296 6.22074 12.5319C6.05475 12.5343 5.94447 12.4193 5.94912 12.251C5.95376 12.0873 6.04662 12.0003 6.21378 12.0026C6.37861 12.0049 6.45987 12.099 6.45755 12.2847H6.45871Z" fill="#F6811F"/>
<path d="M12.4055 5.82715C12.5669 5.82715 12.6493 5.9026 12.6516 6.05699C12.6539 6.22762 12.568 6.3321 12.4287 6.32977C12.243 6.32629 12.1327 6.22182 12.135 6.0535C12.1374 5.90956 12.2349 5.82831 12.4067 5.82715H12.4055Z" fill="#F6811F"/>
<path d="M7.753 4.05004C7.63576 4.04076 7.54405 4.00013 7.50575 3.88057C7.46628 3.7552 7.46512 3.63448 7.56611 3.53349C7.60325 3.49634 7.64968 3.49286 7.69263 3.52304C7.79711 3.59849 7.9039 3.67278 8.00257 3.75404C8.06873 3.8086 8.06641 3.87476 7.99444 3.927C7.92015 3.9804 7.84818 4.04076 7.753 4.04888V4.05004Z" fill="#F6811F"/>
<path d="M4.68266 11.7357C4.51551 11.7311 4.39246 11.6069 4.39827 11.4478C4.40175 11.3259 4.51087 11.2273 4.63739 11.2296C4.80687 11.2331 4.9067 11.341 4.90206 11.5163C4.89857 11.6742 4.83241 11.7392 4.68382 11.7357H4.68266Z" fill="#F6811F"/>
<path d="M3.35468 8.42625C3.35468 8.5551 3.24789 8.65493 3.10859 8.65725C2.98671 8.65957 2.84625 8.52143 2.84509 8.39839C2.84509 8.25329 2.96582 8.14533 3.13297 8.14417C3.26414 8.14301 3.35468 8.25793 3.35352 8.42509L3.35468 8.42625Z" fill="#F6811F"/>
<path d="M4.89973 4.51315C4.89973 4.68263 4.81151 4.77897 4.65248 4.78129C4.52363 4.78246 4.40058 4.67334 4.39942 4.5561C4.39826 4.39359 4.50506 4.27751 4.6606 4.27403C4.81035 4.27054 4.89741 4.35876 4.89857 4.51431L4.89973 4.51315Z" fill="#F6811F"/>
<path d="M10.0815 12.0049C10.2278 12.0073 10.3241 12.1048 10.3241 12.251C10.3241 12.4043 10.2185 12.5227 10.0838 12.5192C9.9422 12.5157 9.82612 12.3903 9.82728 12.2441C9.82844 12.1071 9.93872 12.0038 10.0803 12.0061L10.0815 12.0049Z" fill="#F6811F"/>
<path d="M12.402 10.1767C12.2511 10.1767 12.1443 10.0827 12.1431 9.94918C12.1408 9.80641 12.265 9.67756 12.4008 9.68104C12.5494 9.68452 12.6469 9.77971 12.6469 9.92132C12.6469 10.1094 12.5807 10.179 12.4031 10.1779L12.402 10.1767Z" fill="#F6811F"/>
<path d="M4.13368 5.32107C4.13136 5.46617 4.05475 5.54046 3.90849 5.54046C3.72276 5.54046 3.62873 5.44992 3.62989 5.27232C3.62989 5.15044 3.74365 5.05061 3.88295 5.05177C4.03501 5.05177 4.136 5.16088 4.13368 5.32107Z" fill="#F6811F"/>
<path d="M3.34307 7.60785C3.34307 7.76804 3.25601 7.87599 3.126 7.87599C2.97625 7.87599 2.85553 7.75411 2.85437 7.60088C2.85437 7.47319 2.97625 7.37453 3.13761 7.37337C3.27922 7.37221 3.34191 7.44417 3.34191 7.60785H3.34307Z" fill="#F6811F"/>
<path d="M3.08776 9.40592C2.95311 9.41404 2.86605 9.3235 2.85676 9.17027C2.8498 9.04839 2.95891 8.93695 3.0924 8.92883C3.24099 8.9207 3.3501 9.00428 3.35939 9.13313C3.37216 9.30957 3.28742 9.39431 3.0866 9.40592H3.08776Z" fill="#F6811F"/>
<path d="M5.67394 3.72267C5.67394 3.88634 5.57411 3.99778 5.42785 3.99778C5.30016 3.99778 5.18872 3.89795 5.18872 3.78419C5.18872 3.61355 5.27694 3.5114 5.42785 3.50792C5.58107 3.50444 5.67393 3.58569 5.6751 3.72383L5.67394 3.72267Z" fill="#F6811F"/>
<path d="M5.42898 12.5088C5.28621 12.5088 5.18754 12.4066 5.18986 12.2627C5.19334 12.1118 5.29549 12.0131 5.4464 12.0143C5.56828 12.0155 5.66695 12.1199 5.67159 12.2499C5.67623 12.4008 5.57525 12.5088 5.42898 12.51V12.5088Z" fill="#F6811F"/>
<path d="M4.1232 10.7246C4.12204 10.8941 4.05703 10.958 3.88408 10.9556C3.72969 10.9533 3.6287 10.8535 3.63102 10.7049C3.63334 10.5737 3.74942 10.4728 3.89568 10.4751C4.04659 10.4774 4.12436 10.5621 4.1232 10.7258V10.7246Z" fill="#F6811F"/>
<path d="M11.6139 11.7264C11.4618 11.7194 11.3654 11.6115 11.3759 11.4606C11.3852 11.3236 11.5024 11.2366 11.6638 11.247C11.8031 11.2563 11.8727 11.348 11.8634 11.5082C11.8541 11.6521 11.7624 11.7334 11.615 11.7264H11.6139Z" fill="#F6811F"/>
<path d="M8.75355 2.97628C8.75122 3.15853 8.69899 3.22353 8.55389 3.22353C8.38209 3.22353 8.28922 3.12951 8.29155 2.95771C8.29387 2.82538 8.39834 2.72555 8.53067 2.72903C8.663 2.73251 8.75471 2.8335 8.75355 2.97744V2.97628Z" fill="#F6811F"/>
<path d="M8.00838 13.0833C8.00721 13.1797 7.88533 13.2841 7.77738 13.2807C7.62415 13.276 7.49878 13.1495 7.50459 13.0067C7.51039 12.893 7.62647 12.8001 7.75996 12.8024C7.8981 12.8047 8.00954 12.9313 8.00721 13.0833H8.00838Z" fill="#F6811F"/>
<path d="M3.11213 6.60955C3.26884 6.61187 3.34429 6.69429 3.33965 6.8568C3.335 7.01351 3.26419 7.09012 3.12606 7.0878C2.96587 7.08548 2.8672 6.98565 2.86488 6.82546C2.86372 6.68616 2.95426 6.60723 3.11213 6.60955Z" fill="#F6811F"/>
<path d="M8.52372 13.261C8.36237 13.2587 8.28459 13.1797 8.28808 13.0207C8.2904 12.8895 8.4088 12.7827 8.54345 12.7897C8.66301 12.7955 8.78142 12.9104 8.77793 13.0184C8.77329 13.1832 8.68855 13.2633 8.52488 13.261H8.52372Z" fill="#F6811F"/>
<path d="M9.07047 2.98904C9.06815 2.84626 9.19119 2.72553 9.33861 2.72902C9.43148 2.73134 9.52434 2.84161 9.5255 2.95305C9.52782 3.11556 9.44424 3.21887 9.30843 3.2212C9.16797 3.22236 9.07279 3.12949 9.07047 2.98904Z" fill="#F6811F"/>
<path d="M11.0799 12.2534C11.0811 12.4008 10.9952 12.4995 10.8628 12.503C10.7328 12.5064 10.6295 12.4043 10.6272 12.2685C10.6237 12.1164 10.7026 12.0363 10.8535 12.0352C10.9986 12.0352 11.0787 12.1118 11.0799 12.2534Z" fill="#F6811F"/>
<path d="M6.96592 2.73599C7.12263 2.73831 7.22362 2.8335 7.2155 2.97164C7.20853 3.08191 7.07736 3.21192 6.97405 3.2096C6.85333 3.20728 6.73493 3.09584 6.73376 2.9844C6.73376 2.86252 6.85333 2.73367 6.96592 2.73599Z" fill="#F6811F"/>
<path d="M12.4031 5.53122C12.2569 5.53354 12.1744 5.44184 12.1744 5.27816C12.1744 5.16092 12.2824 5.07619 12.4403 5.06922C12.5378 5.06458 12.6364 5.18646 12.6376 5.31183C12.6388 5.443 12.5471 5.5289 12.4031 5.53122Z" fill="#F6811F"/>
<path d="M2.88226 6.08028C2.88806 5.93634 2.99253 5.83419 3.12835 5.83884C3.2363 5.84232 3.32801 5.93866 3.32568 6.04546C3.31988 6.2277 3.22702 6.32405 3.0645 6.31593C2.95539 6.31012 2.87645 6.20913 2.88226 6.08144V6.08028Z" fill="#F6811F"/>
<path d="M6.75345 13.0497C6.7581 12.879 6.83123 12.8082 7.00303 12.8094C7.12723 12.8094 7.21081 12.9046 7.20617 13.0381C7.20152 13.1669 7.08428 13.2842 6.96704 13.2784C6.86025 13.2737 6.75113 13.1565 6.75345 13.0497Z" fill="#F6811F"/>
<path d="M9.28511 13.2598C9.14118 13.2575 9.06108 13.1693 9.06456 13.0172C9.06688 12.893 9.16671 12.8118 9.31181 12.8141C9.4453 12.8164 9.54049 12.9058 9.53933 13.0253C9.53701 13.1693 9.43486 13.2633 9.28511 13.261V13.2598Z" fill="#F6811F"/>
<path d="M12.3997 10.4902C12.5344 10.4936 12.6331 10.583 12.6284 10.6979C12.6226 10.8535 12.5286 10.951 12.3893 10.9487C12.2616 10.9463 12.1664 10.8442 12.1699 10.7119C12.1734 10.5726 12.2616 10.4867 12.3997 10.4902Z" fill="#F6811F"/>
<path d="M4.6339 10.2533C4.57354 10.2464 4.51434 10.2336 4.46559 10.1953C4.42031 10.1593 4.38781 10.114 4.3971 10.0525C4.40638 9.99215 4.45862 9.96893 4.50621 9.95964C4.62926 9.93527 4.7465 9.89696 4.86374 9.85169C4.94383 9.82035 5.01 9.89116 4.99491 9.97473C4.97053 10.1047 4.76855 10.2615 4.63274 10.2545L4.6339 10.2533Z" fill="#F6811F"/>
<path d="M6.42157 2.94721C6.42157 3.10044 6.32638 3.21768 6.20217 3.21536C6.08145 3.2142 5.98859 3.10973 5.98743 2.97507C5.98743 2.84971 6.08842 2.75104 6.21843 2.74988C6.33567 2.74988 6.42273 2.83229 6.42273 2.94721H6.42157Z" fill="#F6811F"/>
<path d="M3.66461 4.52595C3.66345 4.39594 3.74935 4.31353 3.89329 4.30772C4.01634 4.30308 4.11152 4.39594 4.11268 4.52247C4.115 4.65248 4.02098 4.74418 3.884 4.74534C3.73774 4.74767 3.66577 4.67454 3.66345 4.52595H3.66461Z" fill="#F6811F"/>
<path d="M13.1785 8.94511C13.312 8.94627 13.3909 9.02985 13.3875 9.16451C13.384 9.30612 13.3062 9.39086 13.1808 9.39202C13.052 9.39318 12.951 9.29335 12.9498 9.16567C12.9498 9.03101 13.0404 8.94163 13.1773 8.94395L13.1785 8.94511Z" fill="#F6811F"/>
<path d="M4.67575 3.54742C4.82085 3.55207 4.88818 3.62055 4.88818 3.76217C4.88818 3.8829 4.78835 3.9746 4.66066 3.97112C4.52833 3.96763 4.43546 3.87941 4.44011 3.76217C4.44707 3.59502 4.50511 3.54278 4.67575 3.54859V3.54742Z" fill="#F6811F"/>
<path d="M10.0665 2.76967C10.2151 2.76851 10.2951 2.84396 10.2963 2.98441C10.2963 3.10978 10.2081 3.19336 10.0723 3.198C9.96548 3.20148 9.86101 3.09121 9.85753 2.97281C9.85404 2.85208 9.93762 2.77083 10.0665 2.76967Z" fill="#F6811F"/>
<path d="M4.09061 11.4896C4.09293 11.6196 4.00355 11.7217 3.88631 11.7229C3.77255 11.7241 3.67156 11.6184 3.66924 11.4965C3.66692 11.363 3.74585 11.283 3.88515 11.2806C4.01284 11.2783 4.08829 11.3561 4.09177 11.4896H4.09061Z" fill="#F6811F"/>
<path d="M7.74488 3.10744C7.66247 3.0877 7.51737 3.14342 7.51504 2.96466C7.51272 2.83929 7.64738 2.71973 7.77506 2.72437C7.8807 2.72902 7.99678 2.86019 7.99562 2.97395C7.99445 3.0877 7.94918 3.1144 7.74488 3.1086V3.10744Z" fill="#F6811F"/>
<path d="M4.66297 12.0479C4.77905 12.0479 4.87191 12.1501 4.87307 12.2789C4.87307 12.4078 4.80226 12.4821 4.67922 12.4809C4.55966 12.4809 4.43777 12.3706 4.43313 12.2592C4.42849 12.1454 4.53528 12.0468 4.66297 12.0468V12.0479Z" fill="#F6811F"/>
<path d="M10.1129 13.2343C9.96203 13.2366 9.85175 13.1484 9.85291 13.0265C9.85291 12.9035 9.92953 12.8361 10.07 12.835C10.2244 12.8338 10.2963 12.9 10.2963 13.0462C10.2963 13.1751 10.2406 13.2331 10.1118 13.2343H10.1129Z" fill="#F6811F"/>
<path d="M3.12713 5.10168C3.26179 5.09936 3.32679 5.16553 3.32795 5.30598C3.32795 5.40697 3.22232 5.50332 3.10508 5.50796C2.97623 5.51261 2.89033 5.42555 2.89149 5.29089C2.89149 5.16321 2.96578 5.104 3.12713 5.10168Z" fill="#F6811F"/>
<path d="M6.00019 13.03C5.99786 12.8918 6.05939 12.828 6.19984 12.8245C6.3461 12.821 6.4053 12.8756 6.40647 13.0172C6.40763 13.1693 6.33101 13.2575 6.201 13.2563C6.07332 13.2552 6.00367 13.1751 6.00135 13.03H6.00019Z" fill="#F6811F"/>
<path d="M13.3677 6.06746C13.3677 6.21604 13.3062 6.28453 13.1773 6.28221C13.052 6.27989 12.9719 6.19863 12.9707 6.07211C12.9696 5.94442 13.0555 5.86084 13.1913 5.86084C13.3201 5.86084 13.3677 5.91656 13.3677 6.06862V6.06746Z" fill="#F6811F"/>
<path d="M2.33899 7.42566C2.46552 7.42566 2.55258 7.49995 2.55374 7.61023C2.5549 7.72399 2.4365 7.83774 2.31694 7.83658C2.22639 7.83658 2.1254 7.71818 2.12772 7.61487C2.13005 7.50576 2.22059 7.4245 2.34015 7.4245L2.33899 7.42566Z" fill="#F6811F"/>
<path d="M11.6242 12.0607C11.7403 12.0618 11.8239 12.1396 11.8227 12.2452C11.8216 12.3915 11.7473 12.4762 11.6242 12.4751C11.5024 12.4739 11.4141 12.3706 11.4153 12.2313C11.4153 12.1373 11.5105 12.0595 11.6254 12.0618L11.6242 12.0607Z" fill="#F6811F"/>
<path d="M13.3666 9.93991C13.3666 10.0676 13.2923 10.15 13.1809 10.1512C13.0485 10.1512 12.9661 10.0676 12.9684 9.93411C12.9708 9.81455 13.0613 9.72749 13.182 9.72865C13.2969 9.72865 13.3677 9.80991 13.3666 9.93991Z" fill="#F6811F"/>
<path d="M12.5923 11.478C12.5842 11.6161 12.4925 11.7183 12.3845 11.7101C12.2824 11.702 12.186 11.5755 12.193 11.4559C12.1988 11.3514 12.2835 11.2853 12.4077 11.2888C12.5296 11.2922 12.5993 11.3642 12.5923 11.4791V11.478Z" fill="#F6811F"/>
<path d="M5.62289 2.97743C5.62289 3.11209 5.55325 3.18638 5.42324 3.1887C5.31296 3.19102 5.22822 3.10048 5.22938 2.98208C5.22938 2.85787 5.32225 2.77313 5.45574 2.77313C5.5695 2.77313 5.62405 2.8393 5.62405 2.97627L5.62289 2.97743Z" fill="#F6811F"/>
<path d="M3.30481 10.7013C3.30713 10.8197 3.22355 10.9289 3.12953 10.9323C3.02622 10.9358 2.89505 10.8105 2.89737 10.713C2.90085 10.6154 3.00881 10.5133 3.1098 10.511C3.21775 10.5087 3.30249 10.5922 3.30481 10.7013Z" fill="#F6811F"/>
<path d="M5.62287 13.0219C5.62171 13.1577 5.5451 13.2366 5.41857 13.232C5.30249 13.2285 5.2282 13.1449 5.23052 13.0207C5.23168 12.9116 5.32803 12.8268 5.44411 12.8315C5.55206 12.8361 5.62287 12.9127 5.62171 13.0219H5.62287Z" fill="#F6811F"/>
<path d="M2.14047 8.36241C2.14395 8.26142 2.23333 8.19177 2.35522 8.19525C2.45388 8.19758 2.54211 8.28696 2.53978 8.38214C2.53746 8.48778 2.4237 8.6085 2.32968 8.60386C2.23798 8.59921 2.13699 8.47036 2.14047 8.36241Z" fill="#F6811F"/>
<path d="M11.449 6.82311C11.4177 6.81383 11.3504 6.83472 11.3295 6.78017C11.3097 6.72677 11.3724 6.69659 11.398 6.6548C11.5082 6.48068 11.7508 6.49693 11.8669 6.65944C11.9273 6.74418 11.9029 6.78945 11.8089 6.7999C11.6951 6.81267 11.579 6.81499 11.449 6.82311Z" fill="#F6811F"/>
<path d="M7.94683 2.20782C7.94915 2.31229 7.86789 2.39935 7.76923 2.39819C7.65315 2.39703 7.56493 2.31461 7.55796 2.20086C7.55216 2.10451 7.66127 1.99772 7.76458 2.00004C7.86557 2.0012 7.94335 2.09058 7.94567 2.20782H7.94683Z" fill="#F6811F"/>
<path d="M10.8546 12.8396C10.9683 12.8373 11.0426 12.9058 11.0438 13.0137C11.0438 13.1391 10.9683 13.2261 10.8569 13.2285C10.7396 13.2296 10.6584 13.1553 10.6572 13.0462C10.6572 12.9301 10.7396 12.8431 10.8546 12.8408V12.8396Z" fill="#F6811F"/>
<path d="M6.9857 2.00007C7.08785 2.00123 7.1575 2.08017 7.1575 2.19509C7.1575 2.32277 7.09597 2.38778 6.97409 2.38778C6.85569 2.38778 6.78488 2.31349 6.78952 2.19509C6.793 2.08829 6.88355 1.99891 6.9857 2.00007Z" fill="#F6811F"/>
<path d="M13.1913 10.5331C13.2981 10.5366 13.3677 10.5772 13.3642 10.6979C13.3608 10.814 13.2865 10.9011 13.1843 10.9011C13.0671 10.9011 12.9777 10.8233 12.98 10.7223C12.9823 10.6132 13.0717 10.5331 13.1925 10.5331H13.1913Z" fill="#F6811F"/>
<path d="M8.53418 2.3947C8.42158 2.39818 8.34613 2.32273 8.34381 2.20317C8.34148 2.08476 8.41113 2.00815 8.52489 2.00119C8.62936 1.99538 8.70133 2.06619 8.70714 2.18343C8.71294 2.30067 8.63749 2.39121 8.53418 2.3947Z" fill="#F6811F"/>
<path d="M13.3596 5.29553C13.3584 5.40465 13.2725 5.49519 13.1704 5.49635C13.0705 5.49635 12.9962 5.40929 12.9939 5.2874C12.9927 5.17945 13.0659 5.1098 13.1796 5.1098C13.2899 5.1098 13.3596 5.18293 13.3584 5.29553H13.3596Z" fill="#F6811F"/>
<path d="M4.06511 3.7505C4.06395 3.87122 3.98386 3.94667 3.86081 3.93971C3.75634 3.93274 3.70294 3.87122 3.6983 3.76907C3.69366 3.64719 3.77956 3.56477 3.90957 3.56593C4.03029 3.56709 4.06395 3.64603 4.06395 3.7505H4.06511Z" fill="#F6811F"/>
<path d="M2.52238 9.16563C2.51658 9.27823 2.47943 9.35484 2.35987 9.35716C2.23566 9.35948 2.15092 9.27358 2.15324 9.14822C2.15557 9.02982 2.2345 8.98803 2.33549 8.98106C2.44809 8.9741 2.52354 9.05651 2.52238 9.16563Z" fill="#F6811F"/>
<path d="M7.93046 13.8158C7.9293 13.9249 7.85153 14.0062 7.75054 14.005C7.6391 14.0039 7.56597 13.9215 7.56946 13.8042C7.57294 13.6939 7.65535 13.6185 7.77143 13.6231C7.86314 13.6266 7.93279 13.7102 7.93163 13.8158H7.93046Z" fill="#F6811F"/>
<path d="M2.5212 6.84172C2.5212 6.96012 2.44923 7.03558 2.33315 7.03093C2.21823 7.02745 2.15439 6.96593 2.14974 6.84985C2.1451 6.73145 2.21823 6.65948 2.33663 6.6618C2.44807 6.66296 2.5212 6.73493 2.52004 6.84172H2.5212Z" fill="#F6811F"/>
<path d="M10.648 2.99022C10.6434 2.87763 10.7304 2.78476 10.8372 2.78012C10.9475 2.77548 11.0125 2.83003 11.0241 2.94031C11.0322 3.02389 10.9034 3.1597 10.8094 3.15738C10.7014 3.15506 10.6677 3.07148 10.648 2.99022Z" fill="#F6811F"/>
<path d="M3.87585 12.4484C3.78066 12.4507 3.6936 12.3706 3.6936 12.2789C3.6936 12.1803 3.79691 12.07 3.89907 12.0758C3.99309 12.0816 4.0639 12.128 4.0639 12.2395C4.0639 12.3613 3.99193 12.4449 3.87585 12.4484Z" fill="#F6811F"/>
<path d="M8.70596 13.7531C8.70944 13.9052 8.63167 14.0027 8.52952 14.0039C8.42969 14.005 8.35191 13.9226 8.34843 13.8147C8.34611 13.7125 8.43665 13.6208 8.54461 13.6266C8.63863 13.6312 8.70132 13.6777 8.70596 13.7531Z" fill="#F6811F"/>
<path d="M11.5801 5.33388C11.6533 5.32692 11.7264 5.31879 11.7995 5.31299C11.8843 5.30719 11.9063 5.33853 11.875 5.42094C11.8344 5.52542 11.7589 5.57417 11.6533 5.57765C11.5465 5.58114 11.4548 5.55212 11.3991 5.44648C11.355 5.3629 11.355 5.31415 11.4687 5.32344C11.5059 5.32692 11.5418 5.32344 11.579 5.32344C11.579 5.32576 11.579 5.32924 11.579 5.33156L11.5801 5.33388Z" fill="#F6811F"/>
<path d="M9.12511 2.17995C9.13207 2.06155 9.20868 2.02092 9.31199 2.02556C9.40834 2.0302 9.48031 2.07547 9.47683 2.18575C9.47335 2.30647 9.39789 2.38889 9.2969 2.38541C9.18895 2.38193 9.11814 2.29603 9.12511 2.17995Z" fill="#F6811F"/>
<path d="M6.96593 13.9911C6.87539 13.99 6.78949 13.8832 6.79994 13.7729C6.81038 13.6742 6.88119 13.6301 6.9729 13.6278C7.07969 13.6243 7.15398 13.7137 7.15166 13.8321C7.1505 13.9354 7.08317 13.9923 6.96477 13.99L6.96593 13.9911Z" fill="#F6811F"/>
<path d="M3.119 4.714C3.01453 4.714 2.94024 4.62462 2.94256 4.51434C2.94488 4.39942 3.01917 4.35183 3.119 4.34022C3.21186 4.32977 3.28383 4.42264 3.28035 4.53756C3.27803 4.65015 3.21186 4.70123 3.11784 4.714H3.119Z" fill="#F6811F"/>
<path d="M6.21263 2.37502C6.10931 2.37502 6.01181 2.2868 6.02225 2.19626C6.03502 2.08714 6.11164 2.03955 6.21379 2.0349C6.30897 2.03026 6.39603 2.11848 6.39371 2.20554C6.39139 2.30073 6.31129 2.37502 6.21146 2.37502H6.21263Z" fill="#F6811F"/>
<path d="M9.48715 13.8077C9.47554 13.9017 9.44304 13.9876 9.3258 13.9934C9.23294 13.998 9.12382 13.9005 9.12034 13.8193C9.11686 13.7264 9.20508 13.6452 9.31535 13.6463C9.4175 13.6463 9.48135 13.6939 9.48599 13.8077H9.48715Z" fill="#F6811F"/>
<path d="M2.35763 5.89685C2.45049 5.90265 2.50273 5.95953 2.50505 6.06517C2.50853 6.18009 2.44353 6.24741 2.32629 6.24625C2.22181 6.24509 2.16145 6.19402 2.16261 6.08374C2.16261 5.97462 2.23458 5.90149 2.35763 5.89685Z" fill="#F6811F"/>
<path d="M13.9145 9.33054C13.8356 9.31893 13.7613 9.28759 13.7578 9.18312C13.7543 9.08909 13.846 9.00435 13.9493 9.00203C14.0573 8.99855 14.1142 9.06007 14.1269 9.15758C14.1374 9.24116 14.0271 9.33054 13.9145 9.3317V9.33054Z" fill="#F6811F"/>
<path d="M3.91185 8.89051C3.9281 8.894 3.96989 8.89864 4.00936 8.91141C4.04418 8.92302 4.08249 8.94275 4.08597 8.98454C4.08945 9.02981 4.04998 9.0449 4.01516 9.05999C3.91301 9.1041 3.81086 9.14821 3.70755 9.19C3.62861 9.2225 3.60772 9.18303 3.6112 9.11106C3.61701 8.98918 3.74121 8.88935 3.91069 8.89051H3.91185Z" fill="#F6811F"/>
<path d="M3.28147 11.4803C3.28147 11.5964 3.19905 11.673 3.09226 11.6672C2.98895 11.6614 2.94716 11.5964 2.94484 11.5012C2.94136 11.3863 3.00404 11.3317 3.11548 11.3317C3.22227 11.3317 3.27915 11.3828 3.28147 11.4791V11.4803Z" fill="#F6811F"/>
<path d="M13.9214 6.67224C14.0317 6.66992 14.1327 6.76395 14.1222 6.85797C14.1129 6.94155 14.0723 7.00655 13.9713 7.00655C13.8564 7.00771 13.7763 6.94039 13.781 6.83359C13.7844 6.73609 13.839 6.68153 13.9226 6.67108L13.9214 6.67224Z" fill="#F6811F"/>
<path d="M10.2429 2.1904C10.2347 2.2972 10.1732 2.36452 10.0711 2.37033C9.96892 2.37729 9.90972 2.31229 9.9074 2.20782C9.90508 2.09174 9.97937 2.04066 10.0815 2.03718C10.1755 2.03486 10.2347 2.09058 10.2429 2.1904Z" fill="#F6811F"/>
<path d="M4.50162 2.98326C4.49814 2.87646 4.55154 2.81494 4.65601 2.81378C4.74423 2.81378 4.82201 2.84744 4.82665 2.95308C4.83245 3.05871 4.75004 3.15738 4.65949 3.15157C4.5585 3.14461 4.50046 3.08889 4.50162 2.9821V2.98326Z" fill="#F6811F"/>
<path d="M13.1682 6.61652C13.2459 6.62232 13.3144 6.63741 13.3539 6.70242C13.3806 6.74769 13.427 6.79644 13.3945 6.85448C13.3585 6.91948 13.2982 6.8835 13.2459 6.87654C13.2053 6.87189 13.1635 6.86957 13.1229 6.86377C13.066 6.85448 12.9906 6.86377 12.979 6.78715C12.9662 6.7059 13.0289 6.66411 13.0962 6.63625C13.1206 6.6258 13.1496 6.62232 13.1705 6.61652H13.1682Z" fill="#F6811F"/>
<path d="M4.49916 13.0474C4.49103 12.9255 4.563 12.8767 4.66864 12.8732C4.76382 12.8709 4.8149 12.9255 4.81142 13.0218C4.80793 13.124 4.76847 13.2122 4.65703 13.218C4.55256 13.2226 4.5038 13.1483 4.49916 13.0474Z" fill="#F6811F"/>
<path d="M6.22184 13.9772C6.11504 13.9737 6.01754 13.8843 6.0303 13.8031C6.04656 13.694 6.12433 13.6487 6.22764 13.6522C6.32283 13.6545 6.37042 13.7102 6.36345 13.8054C6.35649 13.8994 6.32515 13.9772 6.22184 13.9772Z" fill="#F6811F"/>
<path d="M12.5343 6.81851C12.4391 6.79413 12.3335 6.78368 12.2279 6.78252C12.1954 6.78252 12.1617 6.77556 12.1524 6.73609C12.1443 6.70127 12.1617 6.67457 12.1849 6.65019C12.2824 6.55152 12.5308 6.56545 12.6133 6.67457C12.6365 6.70475 12.6562 6.73841 12.6365 6.77556C12.6179 6.8127 12.5796 6.81851 12.5332 6.81851H12.5343Z" fill="#F6811F"/>
<path d="M12.554 12.265C12.547 12.3497 12.5145 12.4206 12.4077 12.4229C12.2998 12.4252 12.2452 12.3706 12.2429 12.2638C12.2406 12.1594 12.2928 12.1141 12.3949 12.1118C12.4971 12.1106 12.5516 12.1536 12.5551 12.265H12.554Z" fill="#F6811F"/>
<path d="M10.0733 13.6672C10.1708 13.6684 10.2393 13.7044 10.237 13.81C10.2347 13.9052 10.1766 13.969 10.0826 13.969C9.99092 13.969 9.92476 13.9075 9.91895 13.8158C9.91199 13.7148 9.97931 13.6707 10.0745 13.6672H10.0733Z" fill="#F6811F"/>
<path d="M11.7682 13.016C11.7532 13.1042 11.7311 13.1971 11.6162 13.1948C11.5222 13.1925 11.456 13.1275 11.4583 13.0346C11.4606 12.9278 11.5465 12.886 11.6406 12.8814C11.7265 12.8767 11.7613 12.9348 11.7682 13.0172V13.016Z" fill="#F6811F"/>
<path d="M9.57316 3.67504C9.57199 3.74701 9.54878 3.78532 9.48726 3.75862C9.37814 3.70986 9.27135 3.65647 9.16572 3.59959C9.12973 3.58102 9.13089 3.54039 9.16572 3.52181C9.2551 3.4719 9.35144 3.47422 9.44663 3.51021C9.52788 3.54155 9.56503 3.60771 9.57432 3.6762L9.57316 3.67504Z" fill="#F6811F"/>
<path d="M2.4922 5.26189C2.48755 5.38842 2.45273 5.44994 2.35754 5.44297C2.26004 5.43485 2.1811 5.37913 2.18226 5.28046C2.18226 5.19224 2.26584 5.14581 2.34942 5.14929C2.43648 5.15277 2.49684 5.20385 2.49336 5.26305L2.4922 5.26189Z" fill="#F6811F"/>
<path d="M13.1692 4.38318C13.2644 4.38318 13.3154 4.42845 13.3143 4.5248C13.3143 4.60605 13.2887 4.67222 13.1935 4.67802C13.1088 4.68383 13.0113 4.58748 13.0125 4.50274C13.0125 4.43077 13.0763 4.38318 13.168 4.38202L13.1692 4.38318Z" fill="#F6811F"/>
<path d="M14.0909 6.06168C14.0909 6.1557 14.0503 6.21606 13.9539 6.22071C13.8587 6.22535 13.81 6.17195 13.803 6.07909C13.7949 5.97113 13.8634 5.93167 13.9562 5.9247C14.0503 5.9189 14.0851 5.97926 14.0909 6.06052V6.06168Z" fill="#F6811F"/>
<path d="M13.3074 11.493C13.2981 11.5662 13.2656 11.6416 13.1716 11.6439C13.0822 11.6451 13.0265 11.5824 13.0299 11.4919C13.0334 11.3955 13.0926 11.3398 13.1913 11.3433C13.276 11.3456 13.3097 11.4013 13.3074 11.493Z" fill="#F6811F"/>
<path d="M14.0851 9.91668C14.0828 10.0235 14.0283 10.0838 13.9331 10.0885C13.8379 10.0931 13.81 10.0188 13.8054 9.93989C13.8008 9.8389 13.8704 9.79944 13.9551 9.79479C14.0376 9.79015 14.0817 9.84006 14.084 9.91668H14.0851Z" fill="#F6811F"/>
</svg>
