<svg width="18" height="19" viewBox="0 0 18 19" fill="none" xmlns="http://www.w3.org/2000/svg">
<path d="M12.8493 12.0438C12.3347 11.5358 11.6923 11.5358 11.181 12.0438C10.791 12.4305 10.401 12.8172 10.0176 13.2105C9.91269 13.3187 9.82419 13.3416 9.69638 13.2695C9.44401 13.1319 9.17527 13.0204 8.93274 12.8697C7.80202 12.1585 6.85485 11.2441 6.01583 10.215C5.5996 9.70369 5.22925 9.15636 4.97033 8.54021C4.91789 8.41567 4.92772 8.33373 5.02932 8.23213C5.41934 7.85523 5.79952 7.46849 6.18298 7.08175C6.7172 6.54426 6.7172 5.91499 6.1797 5.37422C5.8749 5.06614 5.5701 4.76461 5.2653 4.45654C4.95066 4.1419 4.63931 3.82399 4.3214 3.51264C3.80684 3.01119 3.16447 3.01119 2.65319 3.51592C2.2599 3.90265 1.883 4.29922 1.48315 4.6794C1.1128 5.03009 0.925987 5.45943 0.886658 5.96087C0.824387 6.77695 1.02431 7.54715 1.30617 8.29768C1.883 9.85118 2.76135 11.231 3.82651 12.4961C5.2653 14.2069 6.98267 15.5605 8.99173 16.5371C9.8963 16.9763 10.8336 17.3139 11.8529 17.3696C12.5543 17.4089 13.1639 17.2319 13.6522 16.6846C13.9865 16.311 14.3634 15.9701 14.7174 15.6129C15.2418 15.0819 15.2451 14.4396 14.7239 13.9152C14.1012 13.2892 13.4752 12.6665 12.8493 12.0438Z" fill="#134A85"/>
<path d="M12.2231 9.43174L13.4325 9.22526C13.2424 8.11421 12.718 7.10804 11.9216 6.30835C11.0793 5.46605 10.0142 4.93511 8.84084 4.77124L8.67041 5.98716C9.57826 6.11498 10.4042 6.52466 11.0564 7.17687C11.6725 7.79303 12.0757 8.57305 12.2231 9.43174Z" fill="#134A85"/>
<path d="M14.1143 4.17471C12.7181 2.77853 10.9515 1.8969 9.00148 1.62488L8.83105 2.8408C10.5157 3.07678 12.0429 3.84042 13.249 5.04323C14.3928 6.18705 15.1434 7.6324 15.4154 9.22195L16.6248 9.01547C16.3069 7.17356 15.4383 5.50207 14.1143 4.17471Z" fill="#134A85"/>
</svg>
