<svg
   version="1.1"
   id="svg2268"
   xml:space="preserve"
   width="20"
   height="20"
   viewBox="0 0 682.66669 682.66669"
   xmlns="http://www.w3.org/2000/svg" xmlns:xlink="http://www.w3.org/1999/xlink"><defs
     id="defs2272"><clipPath
       clipPathUnits="userSpaceOnUse"
       id="clipPath2282"><path
         d="M 0,512 H 512 V 0 H 0 Z"
         id="path2280" /></clipPath></defs><g
     id="g2274"
     transform="matrix(1.3333333,0,0,-1.3333333,0,682.66667)"><g
       id="g2276"><g
         id="g2278"
         clipPath="url(#clipPath2282)"><g
           id="g2284"
           transform="translate(317.2324,480.3535)"><path
             d="m 0,0 h -253.487 c -14.576,0 -26.394,-11.816 -26.394,-26.393 v -363.773 c 0,-14.577 11.818,-26.394 26.394,-26.394 H 7.975 c 14.576,0 26.393,11.817 26.393,26.394 v 223.896"
             style="fill:none;stroke:#000000;stroke-width:20;stroke-linecap:round;stroke-linejoin:round;stroke-miterlimit:10;stroke-dasharray:none;stroke-opacity:1"
             id="path2286" /></g><path
           d="M 284.575,359.146 H 104.377 v 42.234 h 180.198 z"
           style="fill:none;stroke:#000000;stroke-width:20;stroke-linecap:round;stroke-linejoin:round;stroke-miterlimit:10;stroke-dasharray:none;stroke-opacity:1"
           id="path2288" /><g
           id="g2290"
           transform="translate(104.377,304.3672)"><path
             d="M 0,0 H 180.198"
             style="fill:none;stroke:#000000;stroke-width:20;stroke-linecap:round;stroke-linejoin:round;stroke-miterlimit:10;stroke-dasharray:none;stroke-opacity:1"
             id="path2292" /></g><g
           id="g2294"
           transform="translate(104.377,256.9375)"><path
             d="M 0,0 H 180.198"
             style="fill:none;stroke:#000000;stroke-width:20;stroke-linecap:round;stroke-linejoin:round;stroke-miterlimit:10;stroke-dasharray:none;stroke-opacity:1"
             id="path2296" /></g><g
           id="g2298"
           transform="translate(104.377,209.5068)"><path
             d="M 0,0 H 180.198"
             style="fill:none;stroke:#000000;stroke-width:20;stroke-linecap:round;stroke-linejoin:round;stroke-miterlimit:10;stroke-dasharray:none;stroke-opacity:1"
             id="path2300" /></g><g
           id="g2302"
           transform="translate(104.377,162.0771)"><path
             d="M 0,0 H 180.198"
             style="fill:none;stroke:#000000;stroke-width:20;stroke-linecap:round;stroke-linejoin:round;stroke-miterlimit:10;stroke-dasharray:none;stroke-opacity:1"
             id="path2304" /></g><g
           id="g2306"
           transform="translate(474.6484,406.9434)"><path
             d="m 0,0 c 0,-52.498 -42.55,-95.057 -95.037,-95.057 -52.487,0 -95.036,42.559 -95.036,95.057 0,52.498 42.549,95.057 95.036,95.057 C -42.55,95.057 0,52.498 0,0 Z"
             style="fill:none;stroke:#000000;stroke-width:20;stroke-linecap:round;stroke-linejoin:round;stroke-miterlimit:10;stroke-dasharray:none;stroke-opacity:1"
             id="path2308" /></g><g
           id="g2310"
           transform="translate(379.6553,420.0439)"><path
             d="M 0,0 V -68.379"
             style="fill:none;stroke:#000000;stroke-width:20;stroke-linecap:round;stroke-linejoin:round;stroke-miterlimit:10;stroke-dasharray:none;stroke-opacity:1"
             id="path2312" /></g><g
           id="g2314"
           transform="translate(389.6113,452.2217)"><path
             d="m 0,0 c 0,-5.522 -4.477,-10 -10,-10 -5.522,0 -10,4.478 -10,10 0,5.523 4.478,10 10,10 C -4.477,10 0,5.523 0,0"
             style="fill:#000000;fill-opacity:1;fill-rule:nonzero;stroke:none"
             id="path2316" /></g><g
           id="g2318"
           transform="translate(419.7236,316.3008)"><path
             d="M 0,0 V -50.793"
             style="fill:none;stroke:#000000;stroke-width:20;stroke-linecap:round;stroke-linejoin:round;stroke-miterlimit:10;stroke-dasharray:none;stroke-opacity:1"
             id="path2320" /></g><g
           id="g2322"
           transform="translate(419.7236,175.0957)"><path
             d="m 0,0 v -138.702 c 0,-14.577 -11.816,-26.394 -26.394,-26.394 h -261.46 c -14.578,0 -26.394,11.817 -26.394,26.394 v 24.4"
             style="fill:none;stroke:#000000;stroke-width:20;stroke-linecap:round;stroke-linejoin:round;stroke-miterlimit:10;stroke-dasharray:none;stroke-opacity:1"
             id="path2324" /></g><g
           id="g2326"
           transform="translate(419.7236,220.4844)"><path
             d="M 0,0 V 0"
             style="fill:none;stroke:#000000;stroke-width:20;stroke-linecap:round;stroke-linejoin:round;stroke-miterlimit:10;stroke-dasharray:none;stroke-opacity:1"
             id="path2328" /></g></g></g></g>
             </svg>
