<svg width="75" height="75" viewBox="0 0 75 75" fill="none" xmlns="http://www.w3.org/2000/svg">
<path d="M71.4844 39.8438H65.0555C64.5683 39.1812 64.0543 38.532 63.5199 37.909L61.7408 39.4348C62.3606 40.1572 62.9527 40.9167 63.5011 41.6928C67.1731 46.8782 69.1437 53.0762 69.1406 59.43C69.1239 61.5732 68.4743 63.6636 67.2734 65.4388C65.3594 68.2953 61.7342 70.2612 58.3096 70.2612H42.7559C36.9733 70.2601 31.4064 68.0656 27.1786 64.1205C22.9508 60.1754 20.3769 54.7734 19.9762 49.0047C19.9402 48.4833 19.9219 47.9525 19.9219 47.4272V38.6719H24.5449C25.3976 39.6905 26.1342 40.8008 26.7412 41.9824C26.0744 42.6596 25.5239 43.4423 25.112 44.2988C23.9738 46.5677 23.4642 49.4213 23.5967 52.7802L25.9387 52.6876C25.7549 48.0316 27.0081 45.4796 27.8256 44.3259C29.0738 47.4108 30.1878 51.7526 30.3664 57.6037L32.7089 57.5322C32.4059 47.5956 29.5275 41.6679 27.5098 38.7019C33.3169 38.9158 35.879 40.2828 38.0924 43.1697C37.5435 44.4429 36.1803 48.1112 36.1603 53.1687L38.504 53.1779C38.51 50.5961 38.9134 48.0305 39.7001 45.5714C39.8075 45.7489 39.916 45.9299 40.0256 46.1145L42.0418 44.9193C40.4057 42.1592 38.923 40.126 36.7749 38.7091C38.5913 37.8772 41.7426 36.9141 46.0313 37.3942L46.2922 35.0651C39.9211 34.3516 35.7561 36.4444 34.1947 37.4298C32.0575 36.6668 29.4009 36.3281 25.7813 36.3281H19.9219V28.0737C19.9219 28.0737 38.9408 28.1057 39.7534 28.1684L39.9341 25.8316C39.0617 25.7641 29.4734 25.73 29.4734 25.73C31.0024 24.2634 33.0376 23.4424 35.1563 23.4375C36.234 23.4345 37.3016 23.6453 38.2973 24.0576C39.293 24.47 40.197 25.0758 40.957 25.8398L42.6144 24.1825C41.6372 23.2002 40.4748 22.4214 39.1947 21.8912C37.9145 21.361 36.5419 21.09 35.1563 21.0938C33.433 21.0979 31.7367 21.5223 30.2145 22.3302C28.6924 23.1381 27.3902 24.3051 26.421 25.73H19.9219V25.5453C20.8655 23.1992 22.3356 21.1014 24.2189 19.4139C24.3417 19.304 24.44 19.1694 24.5073 19.0189C24.5746 18.8684 24.6094 18.7054 24.6094 18.5405V10.3453C25.3675 10.6141 26.195 10.6141 26.9531 10.3453V15.5259C26.9531 15.7205 27.0016 15.912 27.0941 16.0832C27.1867 16.2544 27.3204 16.3999 27.4833 16.5064C27.6468 16.6114 27.8335 16.6747 28.0271 16.691C28.2207 16.7073 28.4153 16.676 28.5941 16.5999C29.988 15.9913 31.4601 15.5804 32.9678 15.3794C33.2492 15.3418 33.5074 15.2033 33.6944 14.9896C33.8814 14.776 33.9844 14.5017 33.9844 14.2178V10.3453C34.7425 10.6141 35.57 10.6141 36.3281 10.3453V14.2178C36.3281 14.5017 36.4312 14.776 36.6182 14.9896C36.8051 15.2033 37.0633 15.3418 37.3447 15.3794C38.8524 15.5804 40.3246 15.9913 41.7185 16.5999C41.8972 16.676 42.0919 16.7072 42.2855 16.6909C42.479 16.6746 42.6657 16.6113 42.8293 16.5064C42.9921 16.3999 43.1258 16.2544 43.2184 16.0832C43.3109 15.912 43.3594 15.7205 43.3594 15.5259V10.3453C44.1175 10.6141 44.945 10.6141 45.7031 10.3453V18.5405C45.7031 18.7053 45.7379 18.8681 45.805 19.0186C45.8722 19.169 45.9704 19.3035 46.0931 19.4134C46.4731 19.7537 46.8413 20.1157 47.1875 20.4892L48.9063 18.8965C48.6306 18.5991 48.3429 18.3082 48.0469 18.0277V7.03125C48.0469 6.09885 47.6765 5.20464 47.0172 4.54533C46.3579 3.88602 45.4637 3.51563 44.5313 3.51563C43.5989 3.51563 42.7047 3.88602 42.0453 4.54533C41.386 5.20464 41.0156 6.09885 41.0156 7.03125V13.8256C40.2483 13.5735 39.4654 13.3714 38.6719 13.2205V7.03125C38.6719 6.09885 38.3015 5.20464 37.6422 4.54533C36.9829 3.88602 36.0887 3.51563 35.1563 3.51563C34.2239 3.51563 33.3296 3.88602 32.6703 4.54533C32.011 5.20464 31.6406 6.09885 31.6406 7.03125V13.2205C30.8471 13.3714 30.0642 13.5735 29.2969 13.8256V7.03125C29.2969 6.09885 28.9265 5.20464 28.2672 4.54533C27.6079 3.88602 26.7137 3.51563 25.7813 3.51563C24.8489 3.51563 23.9546 3.88602 23.2953 4.54533C22.636 5.20464 22.2656 6.09885 22.2656 7.03125V18.0267C21.4012 18.8466 20.6164 19.7466 19.9219 20.7146V7.56592C19.9219 6.16732 19.3663 4.826 18.3773 3.83703C17.3884 2.84807 16.0471 2.29248 14.6485 2.29248C13.2498 2.29248 11.9085 2.84807 10.9196 3.83703C9.93061 4.826 9.37501 6.16732 9.37501 7.56592V13.287L6.38351 11.792C6.10554 11.653 5.78373 11.6301 5.48889 11.7284C5.19404 11.8266 4.95031 12.038 4.81129 12.316L2.46754 17.0035C2.32855 17.2814 2.30566 17.6032 2.40393 17.8981C2.50219 18.1929 2.71355 18.4367 2.99152 18.5757L4.78185 19.4709C6.16534 20.1566 7.32899 21.2162 8.14084 22.5297C8.95269 23.8431 9.38024 25.3578 9.37501 26.9019V31.6406H11.7188V28.0737H17.5781V46.5706C14.0639 43.2761 11.9692 38.7437 11.7372 33.9322L9.39581 34.0365C9.53301 37.0997 10.3473 40.0945 11.7801 42.8054C13.2129 45.5163 15.2286 47.876 17.6823 49.7149C18.2531 55.9704 21.1416 61.7866 25.7807 66.0217C30.4198 70.2568 36.4744 72.6049 42.7559 72.605H58.3096C65.4265 72.605 71.4844 66.5514 71.4844 59.4302C71.4782 55.1244 70.6372 50.8606 69.0079 46.875H71.4844C71.7952 46.875 72.0933 46.7515 72.313 46.5318C72.5328 46.312 72.6563 46.0139 72.6563 45.7031V41.0156C72.6563 40.7048 72.5328 40.4068 72.313 40.187C72.0933 39.9672 71.7952 39.8438 71.4844 39.8438ZM44.5313 5.85938C44.763 5.85938 44.9896 5.9281 45.1823 6.05687C45.375 6.18564 45.5252 6.36866 45.6139 6.58279C45.7026 6.79693 45.7258 7.03255 45.6806 7.25987C45.6354 7.48719 45.5238 7.696 45.3599 7.85989C45.196 8.02378 44.9872 8.13539 44.7599 8.18061C44.5326 8.22582 44.2969 8.20262 44.0828 8.11392C43.8687 8.02522 43.6857 7.87502 43.5569 7.68231C43.4281 7.4896 43.3594 7.26302 43.3594 7.03125C43.3597 6.72056 43.4833 6.42269 43.703 6.20299C43.9227 5.9833 44.2206 5.85972 44.5313 5.85938ZM35.1563 5.85938C35.388 5.85938 35.6146 5.9281 35.8073 6.05687C36 6.18564 36.1502 6.36866 36.2389 6.58279C36.3276 6.79693 36.3508 7.03255 36.3056 7.25987C36.2604 7.48719 36.1488 7.696 35.9849 7.85989C35.821 8.02378 35.6122 8.13539 35.3849 8.18061C35.1576 8.22582 34.9219 8.20262 34.7078 8.11392C34.4937 8.02522 34.3107 7.87502 34.1819 7.68231C34.0531 7.4896 33.9844 7.26302 33.9844 7.03125C33.9847 6.72056 34.1083 6.42269 34.328 6.20299C34.5477 5.9833 34.8456 5.85972 35.1563 5.85938ZM25.7813 5.85938C26.013 5.85938 26.2396 5.9281 26.4323 6.05687C26.625 6.18564 26.7752 6.36866 26.8639 6.58279C26.9526 6.79693 26.9758 7.03255 26.9306 7.25987C26.8854 7.48719 26.7738 7.696 26.6099 7.85989C26.446 8.02378 26.2372 8.13539 26.0099 8.18061C25.7826 8.22582 25.5469 8.20262 25.3328 8.11392C25.1187 8.02522 24.9357 7.87502 24.8069 7.68231C24.6781 7.4896 24.6094 7.26302 24.6094 7.03125C24.6097 6.72056 24.7333 6.42269 24.953 6.20299C25.1727 5.9833 25.4706 5.85972 25.7813 5.85938ZM14.6485 4.63623C15.2279 4.63623 15.7943 4.80805 16.2761 5.12997C16.7579 5.45189 17.1334 5.90944 17.3551 6.44477C17.5769 6.98011 17.6349 7.56917 17.5218 8.13747C17.4088 8.70578 17.1298 9.2278 16.7201 9.63752C16.3103 10.0472 15.7883 10.3263 15.22 10.4393C14.6517 10.5524 14.0626 10.4943 13.5273 10.2726C12.992 10.0509 12.5344 9.67535 12.2125 9.19357C11.8906 8.71178 11.7188 8.14536 11.7188 7.56592C11.7197 6.78919 12.0286 6.04453 12.5778 5.4953C13.1271 4.94607 13.8717 4.63712 14.6485 4.63623ZM11.6555 25.73C11.4658 23.9594 10.8326 22.2654 9.81431 20.8046C8.79604 19.3438 7.42568 18.1635 5.83009 17.373L5.08815 17.0021L6.3838 14.411L9.37501 15.9073V17.5269H11.7188V11.9483C12.5854 12.5292 13.6051 12.8394 14.6485 12.8394C15.6918 12.8394 16.7115 12.5292 17.5781 11.9483V25.73H11.6555ZM70.3125 44.5313H67.9377C67.5343 43.7332 67.0986 42.952 66.6306 42.1875H70.3125V44.5313Z" fill="#233877"/>
<path d="M71.4844 30.4688H69.1406V32.8125H70.3125V35.1562H65.625V37.5H71.4844C71.7952 37.5 72.0932 37.3765 72.313 37.1568C72.5328 36.937 72.6562 36.6389 72.6562 36.3281V31.6406C72.6562 31.3298 72.5328 31.0318 72.313 30.812C72.0932 30.5922 71.7952 30.4688 71.4844 30.4688Z" fill="#233877"/>
<path d="M39.9429 32.1125C40.0345 32.3207 40.1847 32.4977 40.3752 32.622C40.5656 32.7463 40.7882 32.8125 41.0156 32.8125H50.7976L38.8056 55.7063C38.2213 56.822 39.7431 57.9735 40.6566 57.0942L72.2972 26.6254C72.4656 26.4634 72.5816 26.2547 72.6304 26.0262C72.6793 25.7977 72.6587 25.5598 72.5713 25.3431C72.4839 25.1263 72.3337 24.9407 72.1401 24.81C71.9464 24.6792 71.7181 24.6094 71.4844 24.6094H59.1869L67.8769 3.96973C67.984 3.7153 67.9978 3.43123 67.916 3.1676C67.8341 2.90397 67.6618 2.6777 67.4294 2.52868C67.197 2.37966 66.9195 2.31746 66.6458 2.35304C66.372 2.38861 66.1196 2.51969 65.9331 2.72315L40.1518 30.8481C39.998 31.0159 39.8963 31.2247 39.8593 31.4492C39.8222 31.6737 39.8512 31.9042 39.9429 32.1125ZM63.0946 9.28873L56.3419 25.3272C56.267 25.5053 56.2373 25.6991 56.2555 25.8915C56.2737 26.0838 56.3391 26.2687 56.446 26.4297C56.5529 26.5906 56.698 26.7226 56.8682 26.8139C57.0385 26.9053 57.2287 26.9531 57.4219 26.9531H68.578L44.2323 50.3968L53.7722 32.1844C53.8658 32.0058 53.9117 31.8061 53.9055 31.6046C53.8993 31.4031 53.8412 31.2066 53.7368 31.0341C53.6325 30.8616 53.4854 30.7189 53.3098 30.6199C53.1342 30.5209 52.936 30.4688 52.7344 30.4688H43.6796L63.0946 9.28873Z" fill="#233877"/>
<path d="M61.0572 53.4007L61.8946 51.2118C56.6622 49.2098 52.7505 50.2397 50.3903 51.4561C49.4508 51.9414 48.5761 52.5431 47.787 53.2471C47.7806 53.2408 47.774 53.2347 47.7677 53.2284L46.1159 54.8906C47.2021 55.9706 48.3907 56.9423 49.6651 57.792C49.9853 58.4574 51.5548 61.9759 51.4283 66.7661L53.7712 66.8276C53.8356 64.365 53.5148 61.9074 52.8205 59.5438C53.8165 59.9959 54.8466 60.3686 55.9012 60.6584L62.9726 62.5889L63.5899 60.3278L56.5187 58.3973C53.9755 57.6849 51.6034 56.4637 49.546 54.8076C51.3509 53.2749 55.1744 51.1503 61.0572 53.4007Z" fill="#233877"/>
</svg>
