<svg width="75" height="75" viewBox="0 0 75 75" fill="none" xmlns="http://www.w3.org/2000/svg">
<g clip-path="url(#clip0_1_108)">
<path d="M34.4712 74.935C36.2132 74.9569 37.9438 74.6508 39.5725 74.0325C43.26 72.5888 45.98 69.4275 47.8875 64.3675C48.1189 63.7249 47.7917 63.0156 47.1527 62.7745C46.5137 62.5334 45.7995 62.8498 45.5487 63.485C43.8812 67.905 41.6925 70.5175 38.6612 71.705C34.4112 73.3663 28.4437 72.2238 20.4112 68.205C8.96916 62.8187 1.91715 51.0512 2.56249 38.4213C2.72948 35.3836 3.54212 32.4164 4.94624 29.7175C5.09155 29.5711 5.19698 29.3899 5.25249 29.1913C6.83931 26.363 9.40673 24.2135 12.47 23.1488C14.4403 22.4482 16.537 22.1738 18.6212 22.3438C19.9828 22.473 21.3106 22.8433 22.5425 23.4375C29.0287 26.5838 31.5612 35.17 31.5862 35.2575C31.7761 35.9213 32.4681 36.3055 33.1319 36.1156C33.7956 35.9258 34.1798 35.2338 33.99 34.57C33.8837 34.195 31.465 25.945 24.9637 21.9225C28.17 17.99 36.44 10.1588 48.9775 14.2713C49.3675 14.3963 49.7587 14.5588 50.1487 14.7075C49.3225 15.5233 48.6895 16.5138 48.2962 17.6063C47.8653 18.7229 47.7018 19.925 47.8187 21.1163C42.1375 19.8875 38.5312 20.9275 36.4325 22.135C35.6455 22.555 34.9469 23.1229 34.375 23.8075C34.099 24.1862 34.0579 24.6874 34.2686 25.1059C34.4794 25.5244 34.9064 25.79 35.375 25.7938C35.7609 25.794 36.1259 25.6182 36.3662 25.3163C36.6756 24.9856 37.0294 24.6996 37.4175 24.4663C42.055 24.2163 46.8112 30.7375 48.3487 39.515C48.4531 40.1128 48.9718 40.5493 49.5787 40.55C49.6512 40.5499 49.7236 40.5436 49.795 40.5313C50.4749 40.4125 50.9299 39.765 50.8112 39.085C49.49 31.5 45.9437 25.5488 41.75 23.125C44.5803 22.973 47.4132 23.3742 50.09 24.3063H50.1112C50.3734 24.3866 50.6458 24.4287 50.92 24.4313C52.7037 24.4313 54.545 22.8063 55.4912 20.2538C55.9681 19.0291 56.1172 17.7012 55.9237 16.4013C55.7851 15.2498 55.0866 14.2411 54.0575 13.7063C52.6774 12.978 51.236 12.3723 49.75 11.8963C38.3937 8.17125 30.2037 13.1925 25.625 17.5438C26.0854 14.3882 26.2944 11.2011 26.25 8.0125V3.8375C26.25 1.3175 22.475 0 18.75 0C15.025 0 11.25 1.31875 11.25 3.83875C11.25 4.735 11.2625 5.57125 11.275 6.33875C11.295 7.6775 11.3125 8.83875 11.2525 9.74125C11.1787 10.8563 10.7775 14.6025 8.71499 16.0088C4.63434 18.7653 2.36949 23.518 2.79874 28.4238C1.19064 31.4639 0.259333 34.816 0.0687384 38.25C-0.647962 51.8868 6.94621 64.605 19.2912 70.4425C25.2937 73.445 30.3125 74.935 34.4712 74.935ZM53.1537 19.4C52.4712 21.2525 51.2375 22.09 50.7962 21.9213C50.355 21.7525 49.9575 20.3238 50.6412 18.4725C50.9233 17.6488 51.4112 16.9108 52.0587 16.3288C52.2851 16.1156 52.572 15.978 52.88 15.935C52.9204 15.9337 52.9607 15.9401 52.9987 15.9538C53.2025 16.0288 53.3862 16.38 53.4687 16.85C53.5824 17.713 53.4739 18.5906 53.1537 19.4ZM18.75 2.5C21.7675 2.5 23.5 3.435 23.7375 3.83875C23.5 4.25 21.7675 5.17875 18.75 5.17875C15.6512 5.17875 13.9062 4.1925 13.75 3.88375V3.875C13.9062 3.48625 15.6512 2.5 18.75 2.5ZM10.125 18.0788C13.0375 16.0925 13.625 11.7038 13.75 9.9125C13.8087 9.02125 13.8012 7.96875 13.7837 6.7775C15.3647 7.39846 17.0517 7.70461 18.75 7.67875C20.4605 7.70551 22.1595 7.39501 23.75 6.765V8.015C23.8977 12.274 23.4347 16.5323 22.375 20.66C21.2458 20.2425 20.0672 19.9731 18.8687 19.8588C16.4356 19.6539 13.9867 19.9675 11.6837 20.7788C9.39337 21.549 7.32062 22.8562 5.63874 24.5913C6.23357 21.921 7.84202 19.5861 10.125 18.0788Z" fill="#233877"/>
<path d="M13.2587 25.52C8.59249 27.0788 5.52499 31.9688 5.05624 38.5975C5.03253 38.9284 5.14132 39.2552 5.35866 39.5058C5.57601 39.7564 5.88407 39.9104 6.21499 39.9338H6.30374C6.96087 39.9354 7.50709 39.428 7.55374 38.7725C7.94874 33.185 10.3787 29.1163 14.0537 27.8888C14.478 27.7472 14.7945 27.39 14.884 26.9518C14.9735 26.5137 14.8225 26.061 14.4878 25.7643C14.153 25.4677 13.6855 25.3722 13.2612 25.5138L13.2587 25.52Z" fill="#233877"/>
<path d="M71 19.25C70.5858 18.6977 69.8023 18.5858 69.25 19L54.25 30.25C53.976 30.4556 53.7984 30.7647 53.7587 31.1049C53.719 31.4452 53.8207 31.7868 54.04 32.05L59.3062 38.375L41.9112 47.6475C41.5101 47.8539 41.2512 48.2605 41.234 48.7113C41.2168 49.1621 41.4438 49.5872 41.828 49.8237C42.2123 50.0601 42.6941 50.0711 43.0887 49.8525L61.8387 39.8525C62.1709 39.676 62.4058 39.3594 62.4786 38.9904C62.5513 38.6214 62.454 38.2393 62.2137 37.95L56.8062 31.46L70.75 21C71.0152 20.8011 71.1905 20.505 71.2374 20.1768C71.2843 19.8486 71.1989 19.5152 71 19.25Z" fill="#233877"/>
<path d="M73.9275 54.0262L58.2112 51.7762C57.8718 51.7265 57.5269 51.8197 57.2587 52.0337C56.9898 52.2462 56.8198 52.5599 56.7887 52.9012L56.18 59.6037L40.43 54.8125C39.7752 54.628 39.0931 55.001 38.8951 55.6518C38.6971 56.3026 39.0559 56.9923 39.7025 57.2037L56.9162 62.4425C57.2762 62.552 57.6664 62.4935 57.9784 62.2833C58.2905 62.0731 58.4912 61.7335 58.525 61.3587L59.15 54.4375L73.5725 56.5C74.0206 56.5767 74.475 56.404 74.7591 56.0491C75.0432 55.6942 75.1123 55.2131 74.9394 54.7926C74.7666 54.3721 74.3791 54.0787 73.9275 54.0262Z" fill="#233877"/>
<path d="M31.0975 43.5975C31.5712 43.107 31.5644 42.3274 31.0823 41.8452C30.6001 41.3631 29.8205 41.3563 29.33 41.83C23.4476 47.7272 23.4476 57.2728 29.33 63.17C29.8205 63.6437 30.6001 63.637 31.0823 63.1548C31.5644 62.6726 31.5712 61.893 31.0975 61.4025C26.1897 56.4821 26.1897 48.5179 31.0975 43.5975Z" fill="#233877"/>
<path d="M34.6338 45.3663C34.1457 44.8783 33.3544 44.8783 32.8663 45.3663C28.9327 49.3087 28.9327 55.6913 32.8663 59.6338C33.3568 60.1075 34.1364 60.1007 34.6186 59.6185C35.1007 59.1364 35.1075 58.3567 34.6338 57.8663C31.6748 54.9006 31.6748 50.0994 34.6338 47.1338C35.1218 46.6456 35.1218 45.8544 34.6338 45.3663Z" fill="#233877"/>
</g>
<defs>
<clipPath id="clip0_1_108">
<rect width="75" height="75" fill="white"/>
</clipPath>
</defs>
</svg>
