<svg width="75" height="75" viewBox="0 0 75 75" fill="none" xmlns="http://www.w3.org/2000/svg">
<g clip-path="url(#clip0_1_13)">
<path d="M11.9263 47.76C12.0191 48.197 12.3381 48.5512 12.763 48.6893C13.1879 48.8273 13.6541 48.7282 13.9861 48.4293C14.3181 48.1303 14.4654 47.677 14.3725 47.24C13.0532 41.8652 13.6798 36.1969 16.1413 31.24C16.2589 31.1088 16.3475 30.9541 16.4013 30.7863C17.9264 28.0555 20.3967 25.976 23.3475 24.9388C26.4829 23.7318 29.9713 23.8318 33.0325 25.2163C38.3238 27.77 40.8863 34.1 41.5425 35.9663C41.68 36.365 41.75 36.5975 41.7538 36.61C41.963 37.2584 42.6531 37.6198 43.3053 37.4225C43.9574 37.2252 44.3315 36.542 44.1463 35.8863C44.1463 35.8863 44.0663 35.6188 43.9038 35.1463C43.0288 32.655 40.5288 26.8588 35.4525 23.7038C38.56 19.905 46.5188 12.4125 58.5663 16.36C58.9213 16.4763 59.2775 16.6225 59.6338 16.7575C58.0415 18.3807 57.2348 20.6166 57.4238 22.8825C51.9713 21.7125 48.5013 22.7063 46.4725 23.8663C45.7058 24.2841 45.0214 24.8376 44.4525 25.5C44.1765 25.8787 44.1354 26.3799 44.3462 26.7984C44.5569 27.2169 44.9839 27.4825 45.4525 27.4863C45.8384 27.4865 46.2034 27.3107 46.4438 27.0088C46.7391 26.6942 47.0754 26.4209 47.4438 26.1963C49.1825 26.2302 50.8369 26.9516 52.045 28.2025C56.0638 31.9275 58.6263 39.6675 58.42 47.465C58.4106 47.7978 58.5344 48.1207 58.7639 48.3619C58.9934 48.6031 59.3096 48.7428 59.6425 48.75H59.6763C60.3541 48.7502 60.9086 48.2101 60.9263 47.5325C61.1538 38.9288 58.3375 30.625 53.75 26.375C53.1488 25.8165 52.4901 25.3234 51.785 24.9038C54.3916 24.8087 56.9941 25.1821 59.4688 26.0063C59.7839 26.1088 60.1114 26.1681 60.4425 26.1825C61.3147 26.1533 62.1496 25.8214 62.8038 25.2438C65.7288 22.8363 66.5375 17.0888 63.475 15.7225C62.3404 15.1398 61.1658 14.6385 59.96 14.2225L59.9375 14.15L61.63 13.025C63.641 11.684 64.1842 8.96664 62.8431 6.95563C61.5021 4.94462 58.7848 4.40149 56.7738 5.7425L56.3875 6L56.4775 5.7675C57.0429 4.08626 56.5373 2.22999 55.1973 1.0678C53.8573 -0.0943901 51.9481 -0.332481 50.3638 0.465003C49.3399 0.970442 48.5602 1.86359 48.1975 2.94625L47.3225 5.2525V4.375C47.3225 1.95876 45.3638 2.59668e-06 42.9475 2.59668e-06C40.5313 2.59668e-06 38.5725 1.95876 38.5725 4.375V8.9575C37.6088 9.40341 36.6879 9.93646 35.8213 10.55C35.5673 9.13095 35.4443 7.69157 35.4538 6.25C35.4538 1.32625 21.7038 1.32625 21.7038 6.25C21.7038 11.3863 22.355 14.4125 23.0938 16.195C18.985 17.7813 13.6163 21.5 13.96 30.0213C11.201 35.5062 10.4802 41.7929 11.9263 47.76ZM33.1763 22.5563C32.4586 22.2754 31.7185 22.0559 30.9638 21.9C31.4323 20.4285 32.0409 19.0053 32.7813 17.65C35.5313 12.65 40.2588 10.0775 45.9675 9.58875C46.1 9.6025 54.1875 8.65875 56.8825 13.3113C44.3138 10.49 36.1588 18.7575 33.17 22.5563H33.1763ZM62.5788 21.2588C62.3083 22.046 61.842 22.7514 61.2238 23.3088C60.8325 23.6313 60.51 23.7275 60.3588 23.665C60.2075 23.6025 60.02 23.3313 59.9313 22.8325C59.7522 21.1585 60.3659 19.497 61.59 18.3413C61.7995 18.1379 62.0684 18.0066 62.3575 17.9663C62.3911 17.9657 62.4246 17.9712 62.4563 17.9825C62.5841 18.0577 62.6821 18.1747 62.7338 18.3138C63.0437 19.2819 62.9863 20.3303 62.5725 21.2588H62.5788ZM58.1625 7.81375C59.0254 7.23765 60.192 7.47018 60.7681 8.33313C61.3442 9.19607 61.1117 10.3627 60.2488 10.9388L58.8988 11.8375C58.2138 10.7434 57.2925 9.81657 56.2025 9.125L58.1625 7.81375ZM50.5538 3.77625C50.8906 2.82173 51.9243 2.30688 52.889 2.61306C53.8538 2.91925 54.4015 3.93592 54.1263 4.91L53.04 7.705C51.8273 7.35551 50.5806 7.13717 49.3213 7.05375L50.5538 3.77625ZM41.0788 4.375C41.0788 3.33947 41.9182 2.5 42.9538 2.5C43.9893 2.5 44.8288 3.33947 44.8288 4.375V7.18875C44.1013 7.28375 43.385 7.4075 42.6925 7.56375C42.1363 7.6825 41.61 7.8525 41.0788 8.0125V4.375ZM28.5788 5C31.26 5 32.7713 5.88125 32.9463 6.25C32.7713 6.61875 31.26 7.5 28.5788 7.5C25.8463 7.5 24.3288 6.585 24.2038 6.28125V6.27C24.3313 5.915 25.8463 5 28.5788 5ZM25.24 18.0963C25.8527 17.9109 26.4748 17.7581 27.1038 17.6388C27.7689 17.4985 28.2001 16.8524 28.0743 16.1843C27.9485 15.5163 27.3119 15.0712 26.6413 15.1825C26.2663 15.2538 25.8813 15.3675 25.5 15.4625C24.7341 13.4753 24.3257 11.3682 24.2938 9.23875C27.1425 10.2881 30.278 10.2512 33.1013 9.135C33.2069 10.2239 33.3949 11.3033 33.6638 12.3638C32.4419 13.5702 31.4027 14.9485 30.5788 16.455C29.6836 18.0972 28.9666 19.8304 28.44 21.625C26.4387 21.5921 24.447 21.9094 22.555 22.5625C20.37 23.2998 18.3912 24.5452 16.7813 26.1963C17.9425 21.365 21.8163 19.125 25.24 18.0963Z" fill="#233877"/>
<path d="M58.5312 56.2763C57.8558 56.1353 57.1939 56.5684 57.0525 57.2438C55.9937 62.2813 54.2425 68.4 50.0525 71.0038C47.4487 72.6288 44.06 72.8688 39.6862 71.7538C38.2622 71.3861 36.8638 70.9255 35.5 70.375C34.0837 69.82 32.5725 69.1425 31 68.3588C25.7597 65.778 21.3407 61.7901 18.2375 56.8413C18.0021 56.4617 17.5822 56.2365 17.1358 56.2505C16.6893 56.2645 16.2843 56.5156 16.0732 56.9092C15.8622 57.3028 15.8771 57.7792 16.1125 58.1588C19.4615 63.5024 24.2321 67.8082 29.89 70.5938C31.5237 71.4113 33.1062 72.12 34.59 72.7013C36.0517 73.2894 37.5503 73.7813 39.0762 74.1738C40.8771 74.6585 42.7315 74.9159 44.5962 74.94C46.9826 74.993 49.3344 74.3633 51.375 73.125C56.3625 70.0213 58.335 63.2813 59.5 57.75C59.6377 57.0759 59.2047 56.4171 58.5312 56.2763Z" fill="#233877"/>
<path d="M71.25 51.25H49.5738L46.1488 43.2575C45.9374 42.7972 45.4778 42.5015 44.9713 42.5C44.4607 42.5113 44.0084 42.832 43.8288 43.31L37.51 60.1625L29.9225 39.5675C29.7435 39.0819 29.2838 38.7568 28.7664 38.7499C28.2489 38.743 27.7807 39.0556 27.5888 39.5363L22.9038 51.25H3.75C3.05964 51.25 2.5 51.8096 2.5 52.5C2.5 53.1904 3.05964 53.75 3.75 53.75H23.75C24.2615 53.7502 24.7215 53.4387 24.9113 52.9638L28.7025 43.485L36.3275 64.1825C36.5086 64.6736 36.9766 64.9999 37.5 65C38.0211 65.0005 38.4878 64.6777 38.6713 64.19L45.0775 47.1038L47.6013 52.9925C47.7982 53.452 48.2501 53.7499 48.75 53.75H71.25C71.9404 53.75 72.5 53.1904 72.5 52.5C72.5 51.8096 71.9404 51.25 71.25 51.25Z" fill="#233877"/>
</g>
<defs>
<clipPath id="clip0_1_13">
<rect width="75" height="75" fill="white"/>
</clipPath>
</defs>
</svg>
