<svg width="75" height="75" viewBox="0 0 75 75" fill="none" xmlns="http://www.w3.org/2000/svg">
<path d="M71.25 38.85C71.25 30.825 64.725 24.3 56.7 24.3C52.65 24.3 48.975 25.95 46.275 28.725C42.9 26.775 39.075 25.725 35.175 25.725H34.125C34.5 24.9 34.95 24.075 35.4 23.25C37.575 19.8 40.8 17.475 44.175 16.8C45.3 16.575 46.35 15.9 47.025 14.925C47.7 13.95 47.925 12.75 47.7 11.625C47.475 10.5 46.8 9.45 45.825 8.775C44.85 8.1 43.65 7.875 42.525 8.1C36.75 9.225 31.5 12.975 27.975 18.45C26.55 20.7 25.5 23.1 24.825 25.65H23.175C21.3 25.65 19.725 24.075 19.725 22.2V8.55C19.725 6.15 17.775 4.125 15.3 4.125C12.9 4.125 10.875 6.075 10.875 8.55V46.575C6.675 48.3 3.75 52.35 3.75 57.075C3.75 63.375 8.85 68.475 15.15 68.475C17.175 68.475 19.125 67.95 20.775 66.975C24.525 69.525 28.875 70.875 33.45 70.875H46.425C52.725 70.875 57.825 65.775 57.825 59.55V53.325C65.25 52.8 71.25 46.5 71.25 38.85ZM56.7 26.475C63.375 26.475 68.85 31.8 69 38.475H63.375C62.925 38.475 62.55 38.7 62.325 39.15L60.6 42.825L55.125 31.725C54.9 31.35 54.525 31.125 54.15 31.125C53.7 31.125 53.325 31.35 53.175 31.725L49.725 38.475H44.475C44.55 31.875 50.025 26.475 56.7 26.475ZM29.85 19.725C33 14.775 37.8 11.325 42.9 10.35C43.425 10.275 44.025 10.35 44.55 10.65C45.075 10.95 45.375 11.475 45.45 12C45.525 12.6 45.45 13.125 45.15 13.65C44.85 14.1 44.325 14.475 43.8 14.55C39.825 15.3 36.075 18 33.525 21.975C32.775 23.1 32.175 24.375 31.725 25.65H27.15C27.75 23.55 28.65 21.525 29.85 19.725ZM6 57.075C6 52.05 10.125 48 15.15 48C20.175 48 24.3 52.125 24.3 57.15C24.3 62.175 20.175 66.3 15.15 66.3C10.125 66.225 6 62.1 6 57.075ZM46.35 68.625H33.375C29.55 68.625 25.875 67.575 22.65 65.55C24.975 63.45 26.4 60.45 26.4 57.075C26.4 50.775 21.3 45.675 15 45.675C14.325 45.675 13.65 45.75 12.975 45.9V8.55C12.975 7.35 13.95 6.375 15.15 6.375C16.35 6.375 17.325 7.35 17.325 8.55V22.275C17.325 25.425 19.875 27.975 23.025 27.975H35.1C35.475 27.975 35.925 27.975 36.3 28.05C35.475 34.65 31.425 40.125 24.6 43.8C24.075 44.1 23.85 44.775 24.15 45.3C24.375 45.675 24.75 45.9 25.125 45.9C25.275 45.9 25.5 45.825 25.65 45.75C27.675 44.625 29.475 43.425 31.05 42C33.525 44.85 34.5 48.825 34.125 54.225L31.5 60.6C31.275 61.2 31.5 61.8 32.1 62.1C32.25 62.175 32.4 62.175 32.55 62.175C33 62.175 33.375 61.95 33.6 61.5L35.925 55.95L41.475 58.275C42.075 58.5 42.675 58.275 42.975 57.675C43.2 57.075 42.975 56.475 42.375 56.175L36.525 53.775C36.825 48 35.625 43.65 32.85 40.5C36.15 37.05 38.1 32.925 38.7 28.35C40.875 28.725 42.975 29.475 44.925 30.525C43.2 32.925 42.225 35.85 42.225 38.925C42.075 46.5 48 52.725 55.5 53.325V59.475C55.5 64.5 51.375 68.625 46.35 68.625ZM56.7 51.15C50.55 51.15 45.45 46.65 44.55 40.725H50.4C50.85 40.725 51.225 40.5 51.375 40.125L54.15 34.725L59.7 45.9C59.925 46.275 60.3 46.5 60.675 46.5C61.125 46.5 61.5 46.275 61.65 45.825L64.05 40.65H68.775C67.875 46.65 62.85 51.15 56.7 51.15Z" fill="#233877"/>
<path d="M15.15 60.225C14.55 60.225 14.025 60.75 14.025 61.35C14.025 61.95 14.55 62.475 15.15 62.475C15.75 62.475 16.275 61.95 16.275 61.35C16.275 60.75 15.75 60.225 15.15 60.225Z" fill="#233877"/>
<path d="M15.15 57.525C15.75 57.525 16.275 57 16.275 56.4V52.8C16.275 52.2 15.75 51.675 15.15 51.675C14.55 51.675 14.025 52.2 14.025 52.8V56.4C14.025 57.075 14.475 57.525 15.15 57.525Z" fill="#233877"/>
</svg>
