<svg width="75" height="75" viewBox="0 0 75 75" fill="none" xmlns="http://www.w3.org/2000/svg">
<path d="M55.1532 48.9003C54.5724 48.725 53.9594 49.0539 53.7841 49.6349C52.4997 53.8927 50.3086 59.9842 47.1637 64.8246C43.7239 70.1186 39.9029 72.8028 35.8069 72.8028C31.8758 72.8028 28.1928 70.3253 24.8604 65.439C24.5185 64.9376 23.8349 64.8085 23.3338 65.1503C22.8325 65.4922 22.7032 66.1757 23.0451 66.6769C26.8116 72.1998 31.1052 75 35.8069 75C40.6943 75 45.1352 71.9792 49.0061 66.0216C52.292 60.9643 54.562 54.6641 55.8876 50.2694C56.0628 49.6885 55.734 49.0755 55.1532 48.9003Z" fill="#233877"/>
<path d="M58.8026 12.0537C59.4093 12.0537 59.9012 11.5619 59.9012 10.9551C59.9012 10.3484 59.4093 9.85655 58.8026 9.85655H52.7896C52.539 9.85655 52.2957 9.94224 52.1004 10.0996L46.1505 14.8923C45.918 15.0795 45.7718 15.3532 45.7453 15.6505C45.7188 15.9477 45.8145 16.2429 46.0101 16.4683L48.8709 19.7625C49.0881 20.0126 49.3935 20.1408 49.7008 20.1408C49.9561 20.1408 50.2128 20.0523 50.4206 19.8717C50.8787 19.4739 50.9276 18.78 50.5297 18.322L48.4165 15.8885L53.1771 12.0539L58.8026 12.0537Z" fill="#233877"/>
<path d="M66.6112 37.583C67.62 37.583 68.5264 37.0632 69.0357 36.1924C69.545 35.3216 69.5538 34.2767 69.0591 33.3976L59.7873 16.9139C59.2831 16.0174 58.3679 15.4822 57.3395 15.4822C56.3111 15.4822 55.3958 16.0174 54.8916 16.9139L51.9446 22.1531H39.9884C38.272 22.1531 36.6011 22.6767 35.1952 23.6386L25.5604 16.2127L33.0151 12.3744L41.8525 11.8892C42.068 11.8774 42.2752 11.8024 42.4484 11.6735L49.3118 6.56312C50.2261 5.88317 51.3562 5.50877 52.494 5.50877H58.8028C59.4096 5.50877 59.9014 5.01689 59.9014 4.41018C59.9014 3.80346 59.4096 3.31159 58.8028 3.31159H52.494C50.8871 3.31159 49.2913 3.84023 48.0002 4.8004L41.4016 9.71344L39.2597 9.83106V1.09859C39.2597 0.491875 38.7678 0 38.1611 0C37.5544 0 37.0625 0.491875 37.0625 1.09859V9.95191L33.8194 10.1299V1.09859C33.8194 0.491875 33.3276 0 32.7209 0C32.1141 0 31.6223 0.491875 31.6223 1.09859V8.69483C27.9467 5.72937 22.8529 4.23133 21.3512 3.83613L20.3772 2.41719C19.7382 1.48778 18.6834 0.933069 17.5556 0.933069C16.8468 0.933069 16.166 1.14971 15.5877 1.55883C14.1178 2.59633 13.705 4.60998 14.6483 6.14346L14.797 6.385H13.4555C12.6509 6.385 11.8944 6.69861 11.3255 7.26768C10.7561 7.8369 10.4426 8.59405 10.4426 9.39953C10.4426 10.8054 11.4413 12.0435 12.8166 12.3433C17.4065 13.348 20.1413 14.8465 21.5344 15.8144L20.7382 16.2244C18.0487 17.6091 15.8616 19.7447 14.4135 22.4005C12.9654 25.0563 12.3549 28.0514 12.6479 31.0615L12.9536 34.2111C12.996 34.7686 13.4711 35.2262 14.0489 35.2231C14.6989 35.2291 15.2092 34.6426 15.1424 34.0178L14.8348 30.8491C14.3215 25.5768 17.0336 20.6031 21.7439 18.178L23.4025 17.3242L33.4468 25.0657L14.1392 41.5531C13.8351 41.8112 13.6927 42.2356 13.7798 42.625C13.9241 43.3714 15.9083 53.3619 20.3531 62.0875C20.5472 62.4685 20.9328 62.6876 21.3329 62.6876C21.5007 62.6876 21.6709 62.6491 21.8306 62.5678C22.3713 62.2924 22.5863 61.6309 22.3109 61.0902C18.5549 53.7166 16.5621 45.1479 16.0601 42.8021L35.9031 25.8573C35.9034 25.857 35.9038 25.8567 35.9041 25.8566C35.9053 25.8555 35.9066 25.8547 35.9078 25.8536C37.0449 24.8844 38.4937 24.3506 39.9881 24.3506H50.7084L48.304 28.6253H43.9093C43.4711 28.6253 43.0747 28.8857 42.9008 29.2881L38.32 39.8896C38.3193 39.8913 38.3185 39.8929 38.3178 39.8945C38.3172 39.8959 38.3165 39.8973 38.3159 39.8986C37.4158 41.9761 35.8353 43.7334 33.8643 44.8475C33.3361 45.146 33.1499 45.8163 33.4484 46.3445C33.6504 46.7019 34.0226 46.9028 34.4058 46.9028C34.5889 46.9028 34.7746 46.8569 34.9454 46.7604C36.1848 46.0599 37.2949 45.1478 38.2299 44.0819V52.9782L32.2154 59.9909H29.4611C28.8544 59.9909 28.3625 60.4828 28.3625 61.0895C28.3625 61.6962 28.8544 62.1881 29.4611 62.1881H31.6218V64.4515C31.6218 65.0582 32.1137 65.5501 32.7204 65.5501C33.3271 65.5501 33.819 65.0582 33.819 64.4515V61.4961L39.3903 55.0002L40.4483 56.0583C40.6628 56.2727 40.944 56.3801 41.2251 56.3801C41.5062 56.3801 41.7874 56.2728 42.0019 56.0583C42.4309 55.6292 42.4309 54.9336 42.0019 54.5047L40.4271 52.9299V40.5526L44.6315 30.8225H47.0681L45.6196 33.3977C45.1251 34.2769 45.1337 35.3217 45.6431 36.1925C46.1524 37.0633 47.0586 37.5832 48.0674 37.5832H55.6628C55.6588 39.6913 55.4873 41.8112 55.1517 43.8854C55.0547 44.4844 55.4618 45.0485 56.0608 45.1454C56.1202 45.155 56.1793 45.1597 56.2377 45.1597C56.7671 45.1597 57.2335 44.7759 57.3209 44.2364C57.6752 42.0464 57.8562 39.8085 57.8601 37.5832H66.6112V37.583ZM13.2853 10.1967C12.9112 10.1151 12.6398 9.77994 12.6398 9.39953C12.6398 9.18099 12.7248 8.97562 12.8792 8.82138C13.0334 8.66714 13.2382 8.58218 13.4557 8.58218H16.7632C17.1612 8.58218 17.5281 8.36686 17.7222 8.01941C17.9163 7.67197 17.9073 7.24674 17.6987 6.90779L16.5197 4.99199C16.1825 4.44387 16.3297 3.72437 16.8558 3.35319C17.062 3.2073 17.304 3.13025 17.5556 3.13025C17.9596 3.13025 18.3374 3.32887 18.5657 3.66123L19.7742 5.42191C19.9293 5.64792 20.1634 5.80773 20.4303 5.87013C20.5028 5.88698 27.1216 7.46499 30.9162 10.984L23.7003 14.6991C22.4589 13.6593 19.3125 11.5159 13.2853 10.1967ZM47.5397 35.0831C47.4863 34.9921 47.3793 34.7506 47.5345 34.4746L56.8063 17.9911C56.9647 17.7097 57.2319 17.6794 57.3394 17.6794C57.4469 17.6794 57.7141 17.7099 57.8723 17.9911L67.1442 34.4746C67.2993 34.7506 67.1923 34.992 67.1391 35.0831C67.0859 35.1742 66.9279 35.3859 66.6112 35.3859H48.0674C47.7509 35.3859 47.5928 35.1741 47.5397 35.0831Z" fill="#233877"/>
<path d="M57.3394 28.4878C57.9461 28.4878 58.438 27.9959 58.438 27.3892V24.639C58.438 24.0323 57.9461 23.5404 57.3394 23.5404C56.7327 23.5404 56.2408 24.0323 56.2408 24.639V27.3892C56.2408 27.9959 56.7327 28.4878 57.3394 28.4878Z" fill="#233877"/>
<path d="M5.39103 58.6222C5.74507 58.7441 6.18904 58.8969 6.79385 58.8969C7.06835 58.8969 7.37581 58.8654 7.72311 58.7852C8.83577 58.5285 9.36309 58.0016 9.74818 57.6168C10.0493 57.3159 10.2152 57.1501 10.7142 57.035C11.2136 56.9198 11.435 56.9962 11.8376 57.1346C12.3523 57.3117 13.0573 57.5541 14.1698 57.2976C14.761 57.1611 15.1297 56.5714 14.9933 55.98C14.8568 55.3888 14.2669 55.0202 13.6757 55.1565C13.1767 55.2717 12.9549 55.1955 12.5525 55.0569C12.0378 54.88 11.3329 54.6373 10.2203 54.8939C9.10778 55.1507 8.58045 55.6776 8.19536 56.0624C7.8942 56.3632 7.72839 56.529 7.22933 56.6442C6.73057 56.7594 6.50881 56.683 6.10628 56.5444C5.5917 56.3673 4.88685 56.1248 3.77434 56.3814C3.18315 56.5178 2.81447 57.1076 2.95084 57.6988C3.08736 58.2901 3.67737 58.6588 4.26827 58.5223C4.76674 58.4073 4.98865 58.4838 5.39103 58.6222Z" fill="#233877"/>
<path d="M10.8627 62.8464C11.0505 62.4644 11.1538 62.2539 11.589 61.9836C12.024 61.7134 12.2579 61.7134 12.6842 61.7148C13.2275 61.7164 13.9739 61.7179 14.9438 61.1153C15.4592 60.7951 15.6174 60.1178 15.2972 59.6025C14.9772 59.087 14.2997 58.9288 13.7844 59.249C13.3493 59.5193 13.116 59.5195 12.6892 59.5176C12.1448 59.5156 11.3993 59.5146 10.4294 60.1173C9.45946 60.7198 9.13076 61.3889 8.89068 61.8776C8.70289 62.2596 8.59948 62.4701 8.16444 62.7403C7.72954 63.0104 7.49562 63.0091 7.06951 63.0088C6.5252 63.0079 5.77977 63.0057 4.80978 63.6083C4.29447 63.9286 4.13613 64.6059 4.45633 65.1213C4.66433 65.4562 5.02335 65.6403 5.39057 65.6403C5.58846 65.6403 5.7887 65.5868 5.96931 65.4748C6.40435 65.2045 6.63916 65.2051 7.06424 65.2061C7.60855 65.2077 8.35398 65.2092 9.32382 64.6067C10.2939 64.004 10.6228 63.3349 10.8627 62.8464Z" fill="#233877"/>
<path d="M17.9641 61.5131C17.4953 61.1277 16.8029 61.1955 16.4178 61.6643C16.0926 62.0599 15.8704 62.1348 15.467 62.2706C14.9511 62.4441 14.2445 62.682 13.5196 63.5641C12.7945 64.4462 12.6981 65.1855 12.6277 65.7253C12.5726 66.1474 12.5423 66.3799 12.2171 66.7755C11.8919 67.1711 11.6697 67.2458 11.2665 67.3816C10.7506 67.5552 10.0441 67.7929 9.31917 68.675C8.93394 69.1438 9.00161 69.836 9.47034 70.2213C9.67483 70.3893 9.92179 70.4712 10.1673 70.4712C10.4847 70.4712 10.7993 70.3344 11.0166 70.0701C11.3418 69.6745 11.564 69.5998 11.9672 69.464C12.4831 69.2904 13.1896 69.0527 13.9145 68.1706C14.6396 67.2885 14.736 66.5492 14.8064 66.0094C14.8615 65.5873 14.8918 65.3548 15.217 64.9592C15.5422 64.5635 15.7644 64.4888 16.1679 64.3529C16.6838 64.1793 17.3904 63.9414 18.1154 63.0593C18.5005 62.5906 18.4328 61.8984 17.9641 61.5131Z" fill="#233877"/>
<path d="M67.3604 44.1542C66.8518 44.1591 66.6485 44.0351 66.2858 43.8121C65.8221 43.527 65.1843 43.1431 64.0453 43.1444C62.9035 43.1525 62.2739 43.5516 61.8143 43.8433C61.4548 44.0713 61.2568 44.1969 60.7447 44.2004C60.138 44.2046 59.6495 44.6999 59.6537 45.3066C59.658 45.9108 60.149 46.3975 60.7522 46.3975H60.7599C61.9017 46.3896 62.5313 45.9903 62.9909 45.6987C63.3504 45.4706 63.5484 45.3451 64.0605 45.3416C64.5711 45.337 64.7724 45.4608 65.1351 45.6838C65.599 45.9688 66.2378 46.3602 67.3756 46.3514C68.5173 46.3434 69.1468 45.9442 69.6065 45.6526C69.966 45.4246 70.1638 45.299 70.6759 45.2954C71.2827 45.2912 71.7712 44.796 71.7669 44.1892C71.7627 43.585 71.2717 43.0983 70.6685 43.0983C70.6658 43.0983 70.6632 43.0983 70.6607 43.0983C69.519 43.1063 68.8895 43.5055 68.4298 43.7971C68.0704 44.0252 67.8725 44.1509 67.3604 44.1542Z" fill="#233877"/>
<path d="M71.3266 50.3686C70.2437 50.0072 69.5189 50.1814 68.9897 50.3088C68.5759 50.4083 68.348 50.4632 67.8622 50.3011C67.3764 50.1389 67.2271 49.9582 66.956 49.6299C66.6093 49.2102 66.1345 48.6355 65.0515 48.2739C63.9684 47.9124 63.2435 48.0867 62.7143 48.214C62.3003 48.3136 62.0724 48.3684 61.5867 48.2063C61.0116 48.0142 60.3889 48.3249 60.1967 48.9006C60.0046 49.4761 60.3155 50.0983 60.891 50.2905C61.9741 50.652 62.699 50.4777 63.2281 50.3504C63.6419 50.2508 63.8698 50.196 64.3558 50.3582C64.8416 50.5203 64.991 50.7011 65.2621 51.0294C65.6088 51.449 66.0836 52.0238 67.1666 52.3853C67.6487 52.5461 68.0596 52.6009 68.414 52.6009C68.856 52.6009 69.21 52.5157 69.5035 52.4451C69.9172 52.3456 70.1454 52.2908 70.631 52.4528C71.2064 52.6446 71.8289 52.334 72.0209 51.7585C72.2131 51.183 71.9023 50.5608 71.3266 50.3686Z" fill="#233877"/>
<path d="M68.1141 56.3417C67.2046 55.6515 66.4621 55.5838 65.92 55.5345C65.4961 55.4958 65.2626 55.4745 64.8548 55.1652C64.4467 54.8555 64.3635 54.6364 64.2121 54.2386C64.0186 53.7298 63.7534 53.033 62.844 52.3428C61.9343 51.6526 61.192 51.585 60.6499 51.5354C60.2258 51.4968 59.9923 51.4755 59.5844 51.166C59.101 50.7992 58.412 50.8937 58.0452 51.3771C57.6784 51.8605 57.7729 52.5495 58.2562 52.9163C59.1659 53.6065 59.9084 53.6742 60.4504 53.7237C60.8743 53.7624 61.1078 53.7836 61.5157 54.0931C61.9238 54.4028 62.0071 54.6219 62.1584 55.0197C62.3519 55.5284 62.6171 56.2252 63.5267 56.9155C64.4362 57.6055 65.1785 57.6732 65.7207 57.7226C66.1446 57.7612 66.378 57.7825 66.7858 58.092C66.9845 58.2427 67.2177 58.3155 67.4491 58.3155C67.781 58.3155 68.109 58.1656 68.325 57.8809C68.692 57.3977 68.5975 56.7085 68.1141 56.3417Z" fill="#233877"/>
<path d="M57.3392 32.2751C57.9459 32.2751 58.4378 31.7833 58.4378 31.1765C58.4378 30.5698 57.9459 30.0779 57.3392 30.0779C56.7325 30.0779 56.2406 30.5698 56.2406 31.1765C56.2406 31.7833 56.7325 32.2751 57.3392 32.2751Z" fill="#233877"/>
</svg>
