<svg width="75" height="75" viewBox="0 0 75 75" fill="none" xmlns="http://www.w3.org/2000/svg">
<g clip-path="url(#clip0_1_128)">
<path d="M28.84 28.4628C29.0423 28.822 29.4156 29.0238 29.8003 29.0238C29.9833 29.0238 30.1686 28.9781 30.3392 28.882L33.1791 27.2836C33.5319 27.0851 33.7472 26.7089 33.7399 26.3043C33.7324 25.8996 33.5036 25.5316 33.1438 25.346L30.3041 23.8809C29.764 23.602 29.1001 23.8141 28.8212 24.3543C28.5425 24.8946 28.7544 25.5586 29.2948 25.8373L30.3202 26.3664L29.2595 26.9635C28.7295 27.2618 28.5417 27.9329 28.84 28.4628Z" fill="#233877"/>
<path d="M41.821 27.2836L44.6609 28.882C44.8316 28.9781 45.017 29.0238 45.1998 29.0238C45.5844 29.0238 45.9581 28.8218 46.1602 28.4628C46.4583 27.9331 46.2706 27.2618 45.7408 26.9637L44.6801 26.3666L45.7055 25.8375C46.2459 25.5587 46.4579 24.8949 46.1791 24.3545C45.9003 23.8142 45.2363 23.6023 44.6962 23.881L41.8565 25.3462C41.4967 25.5318 41.2679 25.8997 41.2604 26.3045C41.253 26.7089 41.4683 27.085 41.821 27.2836Z" fill="#233877"/>
<path d="M31.9119 36.2729C31.9119 36.8808 32.4047 37.3737 33.0128 37.3737H41.9873C42.5953 37.3737 43.0881 36.881 43.0881 36.2729C43.0881 33.1918 40.5813 30.685 37.5 30.685C34.4187 30.685 31.9119 33.1918 31.9119 36.2729ZM37.5 32.8865C38.982 32.8865 40.245 33.8436 40.7029 35.1721H34.2971C34.755 33.8436 36.018 32.8865 37.5 32.8865Z" fill="#233877"/>
<path d="M27.2742 72.7985H18.6454V63.7012C18.6454 63.1986 18.3049 62.7598 17.8179 62.635C17.331 62.5099 16.8214 62.7311 16.5796 63.1718L11.2982 72.7985H2.92473L12.6645 54.3075C15.3938 49.1257 20.2404 45.4355 25.9614 44.1831L30.8537 43.112C32.8578 44.1079 35.1144 44.6692 37.5 44.6692C39.8857 44.6692 42.1423 44.1079 44.1463 43.112L49.0387 44.1831C54.7597 45.4355 59.6063 49.1257 62.3356 54.3075C62.5326 54.6817 62.9149 54.8955 63.3106 54.8955C63.4834 54.8955 63.6589 54.8546 63.8225 54.7685C64.3604 54.4852 64.5668 53.8194 64.2835 53.2815C61.251 47.5241 55.8661 43.424 49.5097 42.0324L46.7868 41.4362C49.223 39.5068 51.0481 36.8378 51.9185 33.7711C52.4173 33.9195 52.9371 33.9968 53.4643 33.9968C56.4555 33.9968 58.8889 31.5633 58.8889 28.5722C58.8889 27.4015 58.515 26.3172 57.8819 25.43C60.5991 18.6847 60.6117 12.1228 57.8958 7.34195C56.2248 4.40069 53.6665 2.49757 50.8767 2.12052C47.9452 1.72442 45.6533 2.38229 44.4459 2.86876C44.1324 2.50416 43.6834 2.07994 43.0553 1.67257C41.1908 0.463634 38.6016 -0.0956439 35.3609 0.0133405C32.6747 0.102842 30.1506 1.16163 27.4169 3.34542C26.9419 3.72481 26.8644 4.41754 27.2439 4.89259C27.6232 5.36764 28.3159 5.44498 28.7909 5.06559C31.1353 3.19278 33.2463 2.28663 35.4343 2.21368C41.5042 2.01241 42.958 4.51041 43.0566 4.69601C43.1698 4.99806 43.4016 5.21207 43.7064 5.32135C44.0155 5.43209 44.3485 5.37467 44.6307 5.20694C44.654 5.19288 47.0136 3.82003 50.582 4.30255C52.6847 4.58673 54.6529 6.09098 55.9815 8.4296C57.0851 10.3723 59.2048 15.636 56.1334 23.8529C55.3447 23.4051 54.4342 23.1479 53.4642 23.1479C53.135 23.1479 52.8071 23.1791 52.4848 23.2383V23.0567C52.4848 21.5247 51.8496 20.0603 50.7425 19.0387C50.7425 19.0387 50.7425 19.0386 50.7424 19.0386C48.228 16.719 45.3802 12.6286 44.2726 10.9777C43.9575 10.5082 43.4537 10.2145 42.8904 10.172C42.3227 10.1297 41.7778 10.3459 41.393 10.7663C35.683 17.0026 28.1534 19.0264 25.1811 19.6071C23.6364 19.9088 22.5154 21.2714 22.5154 22.8473V23.2383C22.1931 23.1791 21.8653 23.1479 21.536 23.1479C20.9435 23.1479 20.3735 23.2447 19.8394 23.4211C18.8477 21.8013 16.6198 17.5858 16.383 12.085C17.3802 12.1868 18.7812 12.2181 20.11 11.8597C22.0365 11.3402 23.844 9.61642 25.592 7.94928C26.0321 7.52975 26.0485 6.83292 25.6289 6.39303C25.2093 5.95314 24.5124 5.93658 24.0727 6.35626C22.524 7.83326 20.9225 9.36051 19.5368 9.73419C17.706 10.2278 15.5389 9.73082 15.519 9.72613C15.1947 9.64908 14.8518 9.7232 14.5883 9.92828C14.3247 10.1334 14.1684 10.447 14.1636 10.7808C14.0657 17.4451 16.696 22.521 17.9282 24.5262C16.8144 25.5204 16.1114 26.9656 16.1114 28.5725C16.1114 31.5637 18.5449 33.9971 21.536 33.9971C22.0632 33.9971 22.5831 33.9196 23.0819 33.7713C23.9523 36.8379 25.7772 39.507 28.2135 41.4363L25.4906 42.0325C19.1343 43.4241 13.7493 47.5244 10.7168 53.2816L0.126881 73.3862C-0.0528555 73.7274 -0.0409902 74.1378 0.158375 74.468C0.357594 74.7982 0.715016 75 1.10071 75H11.9499C12.3519 75 12.7218 74.781 12.915 74.4287L16.4438 67.9964V73.8993C16.4438 74.5072 16.9365 75.0002 17.5446 75.0002H27.2742C27.8823 75.0002 28.3751 74.5072 28.3751 73.8993C28.3749 73.2913 27.8822 72.7985 27.2742 72.7985ZM53.464 25.3493C55.2412 25.3493 56.6871 26.7951 56.6871 28.5724C56.6871 30.3497 55.2412 31.7955 53.464 31.7955C53.0857 31.7955 52.7134 31.729 52.3625 31.6011C52.4429 30.9734 52.4846 30.3338 52.4846 29.6846V25.5019C52.8 25.4016 53.1309 25.3493 53.464 25.3493ZM21.536 31.7953C19.7589 31.7953 18.3129 30.3495 18.3129 28.5722C18.3129 26.7951 19.7589 25.3491 21.536 25.3491C21.8693 25.3491 22.2002 25.4014 22.5154 25.5018V29.6845C22.5154 30.3337 22.557 30.9733 22.6374 31.6009C22.2864 31.7288 21.9142 31.7953 21.536 31.7953ZM24.7169 29.6845V22.8472C24.7169 22.322 25.0896 21.8681 25.6031 21.7677C28.7356 21.1557 36.5937 19.0449 42.704 12.5887C43.9984 14.4917 46.746 18.347 49.2495 20.6567C49.9064 21.2627 50.2833 22.1375 50.2833 23.0565V29.6846C50.2833 36.7333 44.5487 42.4677 37.5002 42.4677C30.4516 42.4677 24.7169 36.7332 24.7169 29.6845Z" fill="#233877"/>
<path d="M74.8731 73.3862L66.3334 57.1733C66.0502 56.6354 65.3843 56.4287 64.8464 56.7123C64.3085 56.9956 64.1021 57.6614 64.3854 58.1993L72.0751 72.7984H63.7018L58.4204 63.1717C58.1789 62.7311 57.6696 62.5103 57.1821 62.6348C56.6951 62.7596 56.3546 63.1985 56.3546 63.7011V72.7984H31.6774C31.0693 72.7984 30.5765 73.2913 30.5765 73.8992C30.5765 74.5071 31.0693 75 31.6774 75H57.4554C58.0635 75 58.5562 74.5071 58.5562 73.8992V67.9963L62.085 74.4286C62.2783 74.7809 62.6481 74.9999 63.0501 74.9999H73.8993C74.285 74.9999 74.6424 74.798 74.8418 74.4678C75.041 74.1378 75.0529 73.7275 74.8731 73.3862Z" fill="#233877"/>
<path d="M39.5745 56.6539C37.8045 56.8027 35.7735 57.9819 35.3818 60.8458C34.6082 66.5007 42.3309 70.3248 42.66 70.4849C42.812 70.5587 42.9766 70.5957 43.1414 70.5957C43.306 70.5957 43.4708 70.5587 43.6227 70.4849C43.9519 70.325 51.6745 66.5008 50.901 60.8458C50.5093 57.982 48.4783 56.8027 46.7083 56.6539C45.3351 56.5374 44.0366 56.982 43.1415 57.7894C42.2464 56.982 40.9476 56.5381 39.5745 56.6539ZM42.0908 60.0582C42.2347 60.5172 42.6602 60.8298 43.1412 60.8298C43.6224 60.8298 44.0478 60.5174 44.1917 60.0582C44.4325 59.2897 45.4575 58.7572 46.5236 58.8476C47.0959 58.8957 48.4557 59.2157 48.7195 61.1442C49.1458 64.2602 45.2095 67.1167 43.1459 68.2516C42.5221 67.9039 41.3777 67.2117 40.2724 66.2596C38.881 65.0612 37.2816 63.2008 37.563 61.1442C37.8268 59.2159 39.1866 58.8958 39.7589 58.8476C39.8377 58.8409 39.9161 58.8376 39.9943 58.8376C40.9727 58.8378 41.8679 59.3465 42.0908 60.0582Z" fill="#233877"/>
<path d="M54.0542 59.1691C54.2317 59.2758 54.4271 59.3266 54.6202 59.3265C54.9939 59.3265 55.3582 59.1362 55.5647 58.7925L57.2955 55.9125C57.4997 55.5725 57.5052 55.1487 57.31 54.8035C57.1147 54.4582 56.7486 54.2446 56.352 54.2446H55.2907L56.1822 52.7566C56.4946 52.2351 56.3253 51.5591 55.8037 51.2467C55.2825 50.9342 54.6061 51.1036 54.2937 51.6252L52.4038 54.7797C52.2 55.1197 52.1947 55.5432 52.3903 55.888C52.5858 56.233 52.9516 56.4461 53.348 56.4461H54.4062L53.6776 57.6583C53.3644 58.1796 53.5332 58.856 54.0542 59.1691Z" fill="#233877"/>
<path d="M31.281 59.3265C31.6547 59.3265 32.019 59.1362 32.2255 58.7925L33.9562 55.9125C34.1604 55.5725 34.166 55.1487 33.9707 54.8035C33.7755 54.4582 33.4094 54.2446 33.0127 54.2446H31.9514L32.8429 52.7566C33.1554 52.2351 32.9861 51.5591 32.4644 51.2467C31.9432 50.9342 31.2669 51.1036 30.9545 51.6252L29.0645 54.7797C28.8608 55.1197 28.8555 55.5432 29.051 55.888C29.2466 56.233 29.6124 56.4461 30.0088 56.4461H31.067L30.3384 57.6583C30.0252 58.1793 30.1939 58.8557 30.7148 59.1688C30.8925 59.2758 31.0879 59.3266 31.281 59.3265Z" fill="#233877"/>
<path d="M44.0821 46.2226C43.5608 45.9101 42.8846 46.0794 42.5721 46.6011L40.6822 49.7556C40.4784 50.0956 40.4732 50.5191 40.6687 50.8639C40.8643 51.2089 41.2301 51.422 41.6264 51.422H42.6846L41.956 52.6342C41.6428 53.1552 41.8116 53.8315 42.3326 54.1447C42.5102 54.2514 42.7056 54.3022 42.8987 54.3021C43.2723 54.3021 43.6366 54.1118 43.8432 53.7681L45.5739 50.8881C45.7781 50.5481 45.7837 50.1243 45.5884 49.7791C45.3931 49.4338 45.0271 49.2202 44.6304 49.2202H43.5691L44.4606 47.7322C44.7732 47.211 44.6037 46.535 44.0821 46.2226Z" fill="#233877"/>
</g>
<defs>
<clipPath id="clip0_1_128">
<rect width="75" height="75" fill="white"/>
</clipPath>
</defs>
</svg>
