<svg width="75" height="75" viewBox="0 0 75 75" fill="none" xmlns="http://www.w3.org/2000/svg">
<path d="M63.6818 28.4493C59.7503 19.6307 52.4573 13.6141 43.8314 11.9108C43.9934 9.59351 43.8479 7.26555 43.3949 4.97429C43.1367 3.66831 43.9212 2.90503 44.7415 2.62618C45.5201 2.36155 46.6322 2.46184 47.2036 3.61551C48.0747 5.37328 48.7233 7.23743 49.1317 9.15594C49.2754 9.83112 49.9398 10.2623 50.6142 10.1181C51.2894 9.97437 51.7201 9.3106 51.5763 8.63558C51.1244 6.51304 50.4067 4.45065 49.4432 2.50589C48.4153 0.431004 46.1514 -0.492557 43.9371 0.259789C41.7177 1.01417 40.4866 3.15232 40.9427 5.45935C41.3405 7.47066 41.4762 9.5129 41.3505 11.547C28.3434 10.2642 18.555 19.0797 24.3999 31.4198C22.8758 33.4943 21.7007 35.6362 20.8778 37.8232C18.1913 34.6107 16.7261 31.0535 16.5188 27.223C16.4927 26.7397 16.1897 26.3149 15.7412 26.1328L12.9438 24.9966C10.2207 23.8907 11.0291 19.7869 14.0032 19.8547L16.6735 19.9097C17.2027 19.9206 17.6803 19.5976 17.8678 19.1033C18.4323 17.6145 19.17 16.1326 20.0603 14.6987C20.3224 14.2765 20.3094 13.7391 20.0273 13.3299L17.7806 10.0723C16.1119 7.65281 19.0356 4.67123 21.4892 6.35636L24.1091 8.15568C24.5872 8.48389 25.228 8.44046 25.6571 8.05039C26.8461 6.96998 28.1391 5.94644 29.5004 5.00804C30.3872 4.3966 31.338 4.22898 32.2495 4.52376C33.2495 4.84682 34.0998 5.69087 34.4686 6.72644C34.7003 7.37677 35.4151 7.71577 36.0651 7.48441C36.7153 7.25289 37.0546 6.53804 36.8231 5.88786C36.1993 4.13634 34.7412 2.70226 33.0181 2.14534C31.3631 1.61092 29.6104 1.89649 28.0818 2.95018C26.9076 3.75954 25.7802 4.62921 24.7198 5.54262L22.9044 4.296C18.1763 1.04869 12.4806 6.78986 15.7232 11.4914L17.5124 14.0856C16.8803 15.1694 16.327 16.2764 15.8596 17.3927L14.0548 17.3555C8.31923 17.2427 6.71237 25.1633 12.0033 27.3122L14.0831 28.1569C14.5181 32.668 16.559 36.9492 20.0239 40.6205C19.1267 44.424 19.2695 48.3318 20.4733 52.2309L19.8714 53.2735C19.5263 53.8713 19.7311 54.6356 20.3288 54.9806C20.9263 55.3257 21.6909 55.1209 22.036 54.5232L22.7725 53.2474C23.2543 52.413 24.4563 52.4145 24.9371 53.2474L34.9643 70.615C35.446 71.4493 34.8438 72.4896 33.882 72.4896H13.8278C12.8663 72.4896 12.2636 71.4495 12.7455 70.615L18.5012 60.6459C18.8463 60.0482 18.6415 59.2838 18.0438 58.9387C17.4461 58.5937 16.6817 58.7985 16.3367 59.3962L10.581 69.3652C9.1386 71.8638 10.939 74.9891 13.828 74.9891H33.8823C36.7678 74.9891 38.5737 71.8667 37.1293 69.3652L27.1021 51.9977C26.1414 50.3336 24.1938 49.7491 22.5463 50.3558C21.029 44.2458 22.447 38.1207 26.6938 32.5291C30.7204 30.385 34.7023 30.0393 38.5834 29.9551C38.8524 33.2951 42.7352 33.7544 45.5001 34.6157C44.8207 36.1226 43.3946 36.8581 41.5792 36.5627C40.8985 36.4527 40.2558 36.9145 40.1451 37.5958C40.0343 38.277 40.4967 38.9191 41.1781 39.0298C44.1425 39.5118 46.6225 38.2019 47.7638 35.6921C48.0221 35.9122 48.2214 36.1617 48.3381 36.4519C48.5955 37.0924 49.3235 37.4028 49.9637 37.1454C50.6042 36.8881 50.9146 36.1601 50.6572 35.5198C49.7144 33.174 47.1419 32.4524 44.7391 31.8007C42.2551 31.1268 41.287 30.6919 41.1014 29.9206C43.2509 29.8959 45.2962 29.8489 47.2946 29.509C47.9749 29.3932 48.4328 28.7477 48.3168 28.0672C48.2011 27.3869 47.5556 26.9292 46.8751 27.0449C41.0936 28.0288 33.901 26.3226 26.4358 29.8617C18.4106 11.7101 50.8723 5.85505 61.3992 29.4669C63.436 34.0354 63.8496 38.9597 63.6779 43.6462C60.0187 48.045 56.6283 48.537 53.0296 47.9347C52.9682 47.9193 52.9054 47.9082 52.8411 47.9022C48.4104 47.1163 43.7278 44.7662 38.9205 46.4183C38.2367 45.8519 37.5631 44.9575 37.4514 43.5977C37.395 42.9098 36.7926 42.3993 36.1036 42.4545C35.4157 42.5108 34.9038 43.1143 34.9604 43.8023C35.0786 45.2422 35.629 46.538 36.5458 47.5853C35.2316 48.44 33.9203 49.6642 32.6243 51.3745C32.2075 51.9246 32.3154 52.7086 32.8655 53.1254C33.4179 53.5438 34.201 53.4321 34.6164 52.884C39.9948 45.7864 45.0809 48.7821 51.3245 50.1443C50.502 52.1578 47.0057 54.429 45.3048 57.0366C44.651 56.951 44.0087 56.794 43.3875 56.5655C42.7395 56.3274 42.0216 56.6594 41.7832 57.307C41.545 57.9549 41.8771 58.6732 42.5247 58.9114C43.1156 59.1287 43.7217 59.2945 44.3373 59.4111C44.2408 60.0557 44.2778 60.7303 44.4942 61.4398C44.6584 61.9786 45.1537 62.3254 45.6891 62.3254C46.528 62.3254 47.1296 61.5135 46.885 60.711C46.7086 60.1326 46.7923 59.5588 47.0796 58.9573C47.0982 58.9239 47.1154 58.8895 47.1308 58.8542C48.4857 56.2145 52.9243 53.7426 53.8254 50.5553C56.9134 50.8651 60.1466 50.3399 63.4214 47.4914C62.8372 53.7915 61.6637 59.3787 62.621 63.318C64.8083 72.3184 53.665 74.1431 44.0493 71.1394C43.3905 70.9336 42.6896 71.3009 42.4838 71.9597C42.2781 72.6184 42.6454 73.3194 43.3041 73.5251C56.4154 77.621 67.5262 72.9179 65.0498 62.7277C63.3997 55.9381 69.4143 41.3072 63.6818 28.4493Z" fill="#233877"/>
<path d="M23.8552 64.9206C24.5453 64.9206 25.1049 64.3611 25.1049 63.6709V58.6971C25.1049 58.0069 24.5453 57.4473 23.8552 57.4473C23.165 57.4473 22.6054 58.0069 22.6054 58.6971V63.6709C22.6054 64.3611 23.1648 64.9206 23.8552 64.9206Z" fill="#233877"/>
<path d="M22.6054 69.0378C22.6054 69.728 23.165 70.2875 23.8552 70.2875C24.5453 70.2875 25.1049 69.728 25.1049 69.0378V68.4129C25.1049 67.7227 24.5453 67.1632 23.8552 67.1632C23.165 67.1632 22.6054 67.7227 22.6054 68.4129V69.0378Z" fill="#233877"/>
</svg>
