<svg width="75" height="75" viewBox="0 0 75 75" fill="none" xmlns="http://www.w3.org/2000/svg">
<g clip-path="url(#clip0_1_18)">
<path d="M67.0019 58.4238C66.7148 56.7773 66.416 55.0781 66.2344 53.4082C65.7966 49.2557 64.8115 45.1793 63.3047 41.2851C61.9616 37.694 60.2244 34.2629 58.125 31.0547H60.0762C60.387 31.0547 60.685 30.9312 60.9048 30.7114C61.1246 30.4917 61.248 30.1936 61.248 29.8828C61.248 29.572 61.1246 29.2739 60.9048 29.0542C60.685 28.8344 60.387 28.7109 60.0762 28.7109H56.4082C56.2969 28.5703 56.1855 28.418 56.0742 28.2832C55.623 27.7324 55.1543 27.2051 54.6738 26.7012C55.6672 26.2107 56.5458 25.5158 57.2519 24.6621C57.417 24.4011 57.4723 24.0854 57.4059 23.7838C57.3394 23.4822 57.1566 23.219 56.8972 23.0515C56.6378 22.8839 56.3227 22.8256 56.0204 22.8891C55.7182 22.9526 55.4532 23.1328 55.2832 23.3906C54.5804 24.0526 53.7726 24.5932 52.8926 24.9902C52.101 24.3034 51.2652 23.6692 50.3906 23.0918C51.48 22.389 52.6637 21.8445 53.9062 21.4746C54.1496 21.412 54.3664 21.2729 54.5246 21.0777C54.6829 20.8825 54.7742 20.6417 54.7851 20.3906L55.0781 12.9434C55.0863 12.7763 55.0586 12.6095 54.9969 12.4541C54.9352 12.2986 54.841 12.1582 54.7206 12.0422C54.6001 11.9262 54.4563 11.8373 54.2986 11.7815C54.141 11.7257 53.9732 11.7043 53.8066 11.7187C50.9819 12.0308 48.2314 12.8234 45.6738 14.0625C45.6105 12.202 44.8119 10.4425 43.4531 9.16991C42.1006 8.02786 40.4334 7.32299 38.6719 7.14843C39.082 5.53124 40.4297 3.19335 41.4023 1.87499C41.5857 1.62014 41.6603 1.30287 41.6098 0.992999C41.5592 0.683125 41.3877 0.406021 41.1328 0.222649C40.8779 0.0392768 40.5607 -0.0353437 40.2508 0.0152032C39.9409 0.0657501 39.6638 0.237324 39.4805 0.49218C39.1758 0.931633 36.8144 4.32421 36.3281 7.03124C35.8477 7.04635 35.3685 7.08742 34.8926 7.15429C35.0325 5.65109 35.4103 4.17965 36.0117 2.79491C36.1179 2.51287 36.1113 2.20078 35.9933 1.92347C35.8754 1.64616 35.6551 1.42495 35.3783 1.30579C35.1015 1.18662 34.7895 1.17867 34.507 1.28358C34.2245 1.38849 33.9932 1.59819 33.8613 1.86913C33.6914 2.25585 32.3379 5.50195 32.5723 7.88671C32.0952 8.0852 31.6297 8.31016 31.1777 8.56054C30.9316 4.72851 28.6699 0.77343 28.5586 0.58593C28.3964 0.330855 28.142 0.148295 27.8484 0.0763857C27.5549 0.00447641 27.2448 0.0487792 26.9832 0.20004C26.7215 0.3513 26.5284 0.59782 26.4442 0.888104C26.3599 1.17839 26.3911 1.48998 26.5312 1.75781C26.5312 1.80468 29.1621 6.33984 28.793 9.83788C28.7753 9.9544 28.7753 10.0729 28.793 10.1894C25.998 12.5801 24.3867 15.8144 23.4668 18.6152C23.4698 16.2147 23.6815 13.8189 24.0996 11.4551C24.3415 11.2863 24.5406 11.0632 24.681 10.8038C24.8214 10.5444 24.8992 10.2558 24.9082 9.96093C24.9082 9.08202 24.3223 7.03124 18.8672 7.03124H18.75C15.8203 7.03124 13.7519 8.24999 13.7519 9.96093C13.7585 10.2552 13.8246 10.5451 13.9465 10.813C14.0684 11.0809 14.2434 11.3213 14.4609 11.5195C14.8769 14.1387 15.5449 20.2383 13.8164 25.4062C13.7607 25.5537 13.7353 25.7109 13.7417 25.8684C13.7482 26.0259 13.7863 26.1805 13.8539 26.3229C13.9215 26.4653 14.0171 26.5926 14.1351 26.6972C14.253 26.8018 14.3908 26.8815 14.5403 26.9316C14.6898 26.9817 14.8478 27.0011 15.0049 26.9887C15.1621 26.9763 15.3151 26.9323 15.4548 26.8593C15.5946 26.7864 15.7182 26.686 15.8182 26.5642C15.9183 26.4424 15.9927 26.3016 16.0371 26.1504C17.6426 21.3457 17.3906 15.9785 16.998 12.7207C17.575 12.8347 18.1618 12.8916 18.75 12.8906C19.6912 12.869 20.6277 12.7512 21.5449 12.5391C21.0469 16.0195 20.6777 21.5215 22.207 26.209C22.299 26.4913 22.4948 26.7283 22.7547 26.8718C23.0147 27.0154 23.3194 27.0549 23.6074 26.9824C23.6484 26.9824 27.9316 25.9277 30.9785 27.8144C31.7226 28.3022 32.3577 28.9387 32.8438 29.6839C33.3298 30.4291 33.6563 31.2669 33.8027 32.1445C33.8027 32.209 35.3848 38.707 28.5293 43.7461C26.9896 44.8218 25.5764 46.068 24.3164 47.4609C23.1275 48.9119 22.214 50.568 21.6211 52.3476C21.429 53.0441 21.0182 53.6603 20.4492 54.1055C20.1866 54.2725 20.0011 54.5371 19.9335 54.8409C19.8659 55.1447 19.9218 55.463 20.0889 55.7256C20.2559 55.9882 20.5205 56.1737 20.8243 56.2413C21.1281 56.3089 21.4463 56.253 21.709 56.0859C22.7061 55.3817 23.4401 54.3653 23.7949 53.1973C24 52.6465 24.2109 52.1367 24.4336 51.6504C24.5337 51.9024 24.6512 52.1471 24.7851 52.3828C24.965 52.6908 25.1709 52.9828 25.4004 53.2559C25.5762 54.3164 26.4434 58.6055 29.2148 60.709C29.4627 60.897 29.7751 60.9789 30.0833 60.9366C30.3916 60.8943 30.6704 60.7313 30.8584 60.4834C31.0464 60.2355 31.1283 59.9231 31.086 59.6149C31.0437 59.3067 30.8807 59.0279 30.6328 58.8398C29.5978 57.9391 28.8297 56.7718 28.4121 55.4648C29.5582 55.9682 30.76 56.334 31.9922 56.5547C32.1434 56.5835 32.2988 56.5823 32.4495 56.5511C32.6002 56.5199 32.7434 56.4593 32.8707 56.3728C32.998 56.2863 33.107 56.1756 33.1915 56.0469C33.2761 55.9183 33.3344 55.7742 33.3633 55.623C33.3921 55.4718 33.3909 55.3164 33.3597 55.1657C33.3285 55.015 33.2679 54.8719 33.1814 54.7445C33.0949 54.6172 32.9842 54.5082 32.8555 54.4237C32.7269 54.3392 32.5828 54.2808 32.4316 54.2519C29.6016 53.7129 27.668 52.6699 26.8359 51.2461C26.3751 50.4489 26.2348 49.5062 26.4434 48.6094C27.5032 47.514 28.6624 46.5195 29.9062 45.6387C30.5841 45.1431 31.2281 44.6029 31.834 44.0215C31.9616 44.5435 32.1587 45.046 32.4199 45.5156C33.4101 47.2441 35.2266 48.5039 37.8164 49.3008C37.8164 49.3359 40.4414 53.0625 39.9434 56.0508C39.915 56.2075 39.919 56.3683 39.9549 56.5235C39.9908 56.6786 40.058 56.8248 40.1523 56.9531C40.2466 57.0814 40.3661 57.1892 40.5035 57.2698C40.6408 57.3504 40.7931 57.4021 40.9512 57.4219H41.1445C41.4246 57.4257 41.6967 57.3291 41.9117 57.1496C42.1266 56.9701 42.2702 56.7196 42.3164 56.4434C42.7031 54.0996 41.7949 51.6445 40.9629 49.998C41.6426 50.0859 42.3223 50.1445 42.9844 50.2031C45.9844 50.4551 48.3574 50.6543 49.8457 53.2148C50.579 54.6547 51.1433 56.1746 51.5273 57.7441C52.5879 61.4297 53.8184 65.625 58.3242 66.7969C58.6257 66.8746 58.9457 66.8293 59.2138 66.6711C59.4819 66.5129 59.6762 66.2546 59.7539 65.9531C59.8316 65.6516 59.7864 65.3316 59.6281 65.0635C59.4699 64.7954 59.2116 64.6011 58.9101 64.5234C55.7051 63.7207 54.7676 60.498 53.7773 57.0879C53.3747 55.5294 52.8295 54.0112 52.1484 52.5527C52.8608 52.6925 53.5846 52.7651 54.3105 52.7695C55.1047 52.7781 55.8953 52.6634 56.6543 52.4297C56.8009 52.3827 56.9368 52.3074 57.0542 52.2079C57.1717 52.1085 57.2684 51.9869 57.3389 51.85C57.4093 51.7132 57.4522 51.5638 57.4649 51.4104C57.4776 51.257 57.46 51.1026 57.4131 50.956C57.3661 50.8095 57.2908 50.6736 57.1913 50.5561C57.0919 50.4386 56.9703 50.3419 56.8334 50.2715C56.6966 50.201 56.5472 50.1582 56.3938 50.1454C56.2404 50.1327 56.086 50.1503 55.9394 50.1973C53.0859 51.1113 49.0723 49.0723 49.0137 49.0254C48.8557 48.9444 48.6814 48.9003 48.5039 48.8965C46.8164 48.1289 44.9355 47.9707 43.1836 47.8242C42.1917 47.7598 41.204 47.6425 40.2246 47.4726C37.3594 46.8867 35.3906 45.8437 34.5293 44.373C34.3813 44.1146 34.2652 43.8391 34.1836 43.5527C35.8555 44.2568 37.6436 44.6443 39.457 44.6953C40.2511 44.7039 41.0418 44.5892 41.8008 44.3555C42.0953 44.2513 42.3363 44.0345 42.4709 43.7527C42.6055 43.4708 42.6227 43.147 42.5185 42.8525C42.4144 42.558 42.1976 42.317 41.9157 42.1824C41.6339 42.0478 41.3101 42.0306 41.0156 42.1348C38.5019 42.9492 35.0508 41.4258 34.2773 41.0566C36.0786 38.2582 36.7332 34.8737 36.1055 31.6055C35.7929 30.0333 35.0806 28.5683 34.0371 27.3516C34.2949 26.5898 34.9453 25.1484 35.8652 24.709C36.1447 24.5811 36.3627 24.3485 36.4723 24.0613C36.5819 23.7741 36.5743 23.4554 36.4512 23.1738L35.8652 21.8848L37.7637 19.9219L38.7422 20.5547C38.9616 20.6962 39.222 20.7604 39.4821 20.737C39.7422 20.7137 39.987 20.6041 40.1777 20.4258C40.2363 20.373 45.5332 15.4687 52.6816 14.2559L52.4531 19.5293C49.8398 20.5078 42.0058 24.3164 40.5469 35.0449C40.5152 35.3478 40.6026 35.6512 40.7908 35.8907C40.9789 36.1303 41.2529 36.2871 41.5547 36.3281H41.7129C41.9981 36.3307 42.2745 36.2292 42.4903 36.0426C42.706 35.856 42.8463 35.5971 42.8848 35.3144C42.9912 34.4715 43.1497 33.6359 43.3594 32.8125L43.9453 33.5215C45.1699 34.9805 46.4297 36.4863 48.4336 37.3535C49.4376 37.8171 50.5271 38.0666 51.6328 38.0859C52.4356 38.0714 53.2273 37.8959 53.961 37.5698C54.6947 37.2437 55.3555 36.7736 55.9043 36.1875C56.0231 36.0826 56.1195 35.9548 56.1875 35.8116C56.2555 35.6685 56.2938 35.513 56.3 35.3547C56.3062 35.1963 56.2802 35.0383 56.2237 34.8903C56.1671 34.7422 56.081 34.6072 55.9708 34.4934C55.8605 34.3795 55.7283 34.2892 55.5821 34.228C55.436 34.1667 55.2789 34.1357 55.1204 34.1369C54.9619 34.138 54.8053 34.1713 54.6601 34.2348C54.5148 34.2982 54.384 34.3904 54.2754 34.5059C52.8164 35.918 51.4922 36.1055 49.4004 35.1973C47.9121 34.5703 46.875 33.3164 45.7793 32.0098C45.2988 31.4238 44.7949 30.8379 44.2441 30.2812C45.1684 28.1018 46.57 26.1575 48.3457 24.5918C50.5997 25.9629 52.5999 27.7133 54.2578 29.7656C56.9062 33.0059 59.0801 36.9316 61.0957 42.1289C62.5356 45.8321 63.4794 49.7095 63.9023 53.6602C64.0957 55.418 64.3945 57.1406 64.6875 58.8223C65.1403 61.1274 65.4534 63.4578 65.625 65.8008C65.7279 67.0369 65.5967 68.2813 65.2383 69.4687C63.7734 73.6699 57.6211 72.9844 52.7637 71.625C48.8965 70.5703 41.4258 69.7207 40.793 69.6504C31.7461 68.1504 20.584 59.0273 20.4492 58.9219C6.86718 48.2285 13.0664 35.4844 13.3476 34.9394C13.4891 34.6621 13.5145 34.3399 13.4183 34.0437C13.3222 33.7476 13.1123 33.5018 12.835 33.3603C12.5576 33.2189 12.2354 33.1935 11.9392 33.2896C11.6431 33.3858 11.3973 33.5957 11.2559 33.873C11.0546 34.2914 10.8746 34.7197 10.7168 35.1562C10.6602 35.1521 10.6034 35.1521 10.5469 35.1562C9.26366 35.1562 6.0703 33.2344 4.20702 31.8691C3.95631 31.6961 3.64805 31.6274 3.34759 31.6778C3.04713 31.7282 2.77809 31.8935 2.5975 32.1389C2.41691 32.3842 2.33897 32.6903 2.3802 32.9921C2.42143 33.294 2.57858 33.5679 2.81835 33.7559C3.61523 34.3418 7.50585 37.1074 10.0371 37.459C9.90234 38.0449 9.77343 38.6309 9.67382 39.2988C9.50032 39.2588 9.31997 39.2588 9.14648 39.2988L3.2871 40.4707C3.01778 40.5418 2.78261 40.7066 2.62376 40.9355C2.46491 41.1643 2.39278 41.4422 2.42029 41.7194C2.44779 41.9966 2.57315 42.255 2.77387 42.4481C2.9746 42.6413 3.23756 42.7566 3.51562 42.7734C3.59161 42.7809 3.66814 42.7809 3.74413 42.7734L9.44531 41.6016C9.21133 46.0216 10.3914 50.4013 12.8144 54.1055C12.6152 55.7051 11.7773 62.4316 11.1914 65.6894C11.1078 66.1364 11.1166 66.5958 11.2174 67.0392C11.3182 67.4826 11.5087 67.9007 11.7773 68.2676C12.0549 68.6418 12.4059 68.9554 12.8089 69.1891C13.212 69.4229 13.6585 69.5719 14.1211 69.6269L19.0371 70.3125C19.2002 70.335 19.3646 70.3467 19.5293 70.3476C20.3842 70.3551 21.2156 70.0678 21.8836 69.5343C22.5516 69.0007 23.0155 68.2534 23.1973 67.418L23.7187 64.2949C28.0078 67.2246 34.5234 71.0449 40.4414 72.0117H40.5C40.5762 72.0117 48.3633 72.8848 52.1367 73.916C54.4673 74.5909 56.8768 74.9554 59.3027 75C64.4941 75 66.6152 72.6152 67.4414 70.2363C67.9007 68.7652 68.0757 67.2201 67.957 65.6836C67.7866 63.2465 67.4677 60.8221 67.0019 58.4238ZM16.2363 9.96093C17.004 9.53716 17.8741 9.33435 18.75 9.37499H18.8379C19.9869 9.31113 21.137 9.48054 22.2187 9.87304C21.1152 10.314 19.9383 10.5426 18.75 10.5469C17.8743 10.5848 17.005 10.3821 16.2363 9.96093ZM39.2578 18.0937L38.2148 17.4199C37.987 17.2731 37.7154 17.2099 37.4462 17.2408C37.1769 17.2718 36.9268 17.3952 36.7383 17.5898L33.6035 20.8301C33.4441 21.0009 33.3395 21.2154 33.3029 21.4462C33.2664 21.6769 33.2996 21.9133 33.3984 22.125L33.9023 23.2441C33.1427 23.953 32.5434 24.816 32.1445 25.7754C29.5547 24.2168 26.4609 24.2461 24.6328 24.4512C24.7734 22.7812 26.0273 11.7656 35.209 9.48632C36.457 9.28124 39.9609 9.1582 41.8828 10.8984C42.9434 11.8594 43.4355 13.3359 43.3535 15.2754C41.9145 16.1028 40.5447 17.0453 39.2578 18.0937ZM20.8711 66.9609C20.7829 67.2877 20.5779 67.5707 20.295 67.7565C20.012 67.9422 19.6708 68.0177 19.3359 67.9687L14.4199 67.3184C14.2708 67.3042 14.1262 67.2594 13.9951 67.1868C13.864 67.1142 13.7493 67.0154 13.6582 66.8965C13.5793 66.7845 13.5241 66.6577 13.4959 66.5237C13.4677 66.3897 13.4671 66.2514 13.4941 66.1172C13.9277 63.7031 14.4844 59.5605 14.8359 56.8125C16.0845 58.2555 17.4699 59.5741 18.9726 60.75C19.1016 60.8555 20.0625 61.6406 21.5859 62.7539L20.8711 66.9609Z" fill="#233877"/>
<path d="M13.5645 31.6465C14.2117 31.6465 14.7363 31.1218 14.7363 30.4746C14.7363 29.8274 14.2117 29.3027 13.5645 29.3027C12.9172 29.3027 12.3926 29.8274 12.3926 30.4746C12.3926 31.1218 12.9172 31.6465 13.5645 31.6465Z" fill="#233877"/>
<path d="M22.2715 43.3652C22.9187 43.3652 23.4434 42.8406 23.4434 42.1934C23.4434 41.5462 22.9187 41.0215 22.2715 41.0215C21.6243 41.0215 21.0996 41.5462 21.0996 42.1934C21.0996 42.8406 21.6243 43.3652 22.2715 43.3652Z" fill="#233877"/>
<path d="M59.7773 59.7715C60.4246 59.7715 60.9492 59.2468 60.9492 58.5996C60.9492 57.9524 60.4246 57.4277 59.7773 57.4277C59.1301 57.4277 58.6055 57.9524 58.6055 58.5996C58.6055 59.2468 59.1301 59.7715 59.7773 59.7715Z" fill="#233877"/>
<path d="M20.6836 31.3652C20.8013 31.266 20.8983 31.1445 20.9691 31.0077C21.0399 30.871 21.083 30.7216 21.0961 30.5682C21.1092 30.4148 21.0919 30.2602 21.0452 30.1135C20.9986 29.9667 20.9235 29.8306 20.8242 29.7129C20.7249 29.5952 20.6035 29.4981 20.4667 29.4274C20.33 29.3566 20.1806 29.3134 20.0272 29.3004C19.8737 29.2873 19.7192 29.3046 19.5725 29.3513C19.4257 29.3979 19.2896 29.473 19.1719 29.5723C17.7587 30.7126 16.8109 32.3299 16.5066 34.12C16.2023 35.9102 16.5625 37.7498 17.5195 39.293C17.5888 39.4426 17.6889 39.5758 17.8131 39.6841C17.9374 39.7924 18.0832 39.8732 18.2409 39.9213C18.3985 39.9695 18.5646 39.9838 18.7282 39.9633C18.8917 39.9429 19.0492 39.8882 19.1901 39.8028C19.3311 39.7173 19.4525 39.6031 19.5464 39.4676C19.6402 39.3321 19.7044 39.1783 19.7347 39.0162C19.7651 38.8542 19.7609 38.6876 19.7225 38.5273C19.684 38.367 19.6122 38.2166 19.5117 38.0859C19.418 37.9043 17.2324 34.2773 20.6836 31.3652Z" fill="#233877"/>
<path d="M48.1758 61.0899C48.1201 60.9463 48.0366 60.8151 47.9301 60.7039C47.8237 60.5926 47.6964 60.5034 47.5554 60.4414C47.4145 60.3793 47.2627 60.3457 47.1088 60.3423C46.9548 60.339 46.8017 60.366 46.6582 60.4219C43.8633 61.5059 41.5723 61.6406 40.0313 60.8262C39.5576 60.5643 39.1414 60.21 38.8072 59.7842C38.4731 59.3585 38.2278 58.87 38.0859 58.3477C38.0156 58.0491 37.8309 57.79 37.5716 57.626C37.3123 57.4621 36.9991 57.4063 36.6992 57.4708C36.3992 57.5352 36.1365 57.7147 35.9675 57.9707C35.7984 58.2266 35.7365 58.5387 35.7949 58.8398C36.0133 59.6868 36.4017 60.4805 36.9366 61.1725C37.4715 61.8646 38.1417 62.4405 38.9063 62.8652C39.2073 63.0283 39.5208 63.1674 39.8438 63.2813C40.5586 64.1191 43.7051 67.5938 47.3496 67.9688H47.4609C47.7717 67.9843 48.076 67.8757 48.3067 67.667C48.5375 67.4582 48.6759 67.1663 48.6914 66.8555C48.7069 66.5447 48.5984 66.2404 48.3896 66.0097C48.1808 65.7789 47.8889 65.6405 47.5781 65.625C46.0957 65.4727 44.6484 64.541 43.5293 63.6211C44.8883 63.4513 46.2196 63.1066 47.4902 62.5957C47.7805 62.4865 48.0157 62.2667 48.1442 61.9844C48.2727 61.7022 48.284 61.3805 48.1758 61.0899Z" fill="#233877"/>
<path d="M45.4043 3.47461L45.9492 3.62695C46.097 3.67043 46.2518 3.68438 46.4049 3.668C46.5581 3.65163 46.7065 3.60526 46.8417 3.53154C46.9769 3.45781 47.0962 3.35818 47.1929 3.23832C47.2897 3.11847 47.3618 2.98074 47.4053 2.83301C47.4487 2.68527 47.4627 2.53041 47.4463 2.37729C47.43 2.22416 47.3836 2.07575 47.3099 1.94055C47.2361 1.80534 47.1365 1.68598 47.0166 1.58928C46.8968 1.49257 46.7591 1.42043 46.6113 1.37695L46.0254 1.21289C45.7255 1.13053 45.4051 1.17068 45.1348 1.32452C44.8645 1.47836 44.6663 1.73328 44.584 2.0332C44.5016 2.33312 44.5418 2.65348 44.6956 2.9238C44.8495 3.19411 45.1044 3.39224 45.4043 3.47461Z" fill="#233877"/>
<path d="M68.7715 25.8691C68.8848 26.2324 68.9922 26.5977 69.0937 26.9648C69.1875 27.2481 69.3858 27.4849 69.6481 27.6271C69.9105 27.7692 70.2172 27.8058 70.5057 27.7296C70.7941 27.6534 71.0427 27.47 71.2006 27.2168C71.3585 26.9637 71.4139 26.6598 71.3555 26.3672C71.2461 25.9766 71.1309 25.5859 71.0098 25.1953C70.9165 24.8985 70.7092 24.6509 70.4334 24.5069C70.1576 24.363 69.8359 24.3345 69.5391 24.4277C69.2422 24.521 68.9946 24.7283 68.8507 25.0041C68.7067 25.2799 68.6782 25.6016 68.7715 25.8984V25.8691Z" fill="#233877"/>
<path d="M67.1133 21.6152C67.2461 21.8965 67.4853 22.1135 67.7782 22.2184C68.071 22.3234 68.3935 22.3077 68.6748 22.1748C68.9561 22.0419 69.173 21.8028 69.278 21.5099C69.3829 21.2171 69.3672 20.8946 69.2344 20.6133C69.0586 20.2461 68.8789 19.8809 68.6953 19.5176C68.6249 19.3806 68.5282 19.2589 68.4108 19.1593C68.2933 19.0597 68.1574 18.9842 68.0107 18.9371C67.8641 18.8901 67.7096 18.8723 67.5561 18.885C67.4027 18.8976 67.2532 18.9403 67.1162 19.0107C66.9792 19.0811 66.8575 19.1778 66.7579 19.2953C66.6583 19.4128 66.5828 19.5487 66.5357 19.6953C66.4887 19.842 66.471 19.9964 66.4836 20.1499C66.4962 20.3034 66.539 20.4529 66.6094 20.5898C66.7812 20.9258 66.9492 21.2676 67.1133 21.6152Z" fill="#233877"/>
<path d="M71.0215 30.1289C70.7139 30.1711 70.4356 30.3336 70.2478 30.5808C70.0599 30.828 69.9778 31.1396 70.0195 31.4473C70.0703 31.8379 70.1152 32.2168 70.1543 32.584C70.1834 32.8741 70.3197 33.1428 70.5364 33.3379C70.753 33.5329 71.0346 33.6401 71.3262 33.6387H71.4492C71.6023 33.6233 71.7509 33.5779 71.8865 33.5051C72.0221 33.4323 72.142 33.3335 72.2394 33.2143C72.3368 33.0951 72.4098 32.958 72.4541 32.8106C72.4985 32.6633 72.5134 32.5086 72.498 32.3555C72.4551 31.9648 72.4063 31.5606 72.3516 31.1426C72.3321 30.9881 72.2821 30.8391 72.2045 30.7041C72.1268 30.5692 72.023 30.4511 71.8992 30.3567C71.7753 30.2623 71.634 30.1936 71.4833 30.1545C71.3326 30.1154 71.1756 30.1067 71.0215 30.1289Z" fill="#233877"/>
<path d="M60.5742 12.3047C60.7933 12.5254 61.0911 12.6499 61.4021 12.651C61.7131 12.6521 62.0118 12.5297 62.2324 12.3106C62.4531 12.0914 62.5777 11.7936 62.5788 11.4827C62.5799 11.1717 62.4574 10.873 62.2383 10.6524C61.9492 10.3633 61.6563 10.0781 61.3594 9.79688C61.251 9.67523 61.1185 9.5775 60.9702 9.50995C60.822 9.44239 60.6613 9.40649 60.4984 9.40453C60.3355 9.40258 60.1739 9.43461 60.0241 9.49859C59.8743 9.56257 59.7394 9.65708 59.6282 9.7761C59.5169 9.89512 59.4317 10.036 59.378 10.1898C59.3243 10.3436 59.3032 10.507 59.3161 10.6694C59.3291 10.8318 59.3757 10.9897 59.4531 11.133C59.5305 11.2764 59.637 11.402 59.7656 11.502C60.0352 11.7637 60.3047 12.0313 60.5742 12.3047Z" fill="#233877"/>
<path d="M64.2422 16.6758C64.4252 16.9187 64.6955 17.081 64.996 17.1282C65.2965 17.1755 65.6036 17.1041 65.8524 16.9291C66.1011 16.7541 66.2721 16.4893 66.3292 16.1905C66.3863 15.8917 66.325 15.5825 66.1582 15.3281C65.9238 14.9961 65.6836 14.666 65.4375 14.3379C65.3469 14.2097 65.2314 14.1011 65.0979 14.0184C64.9645 13.9357 64.8158 13.8807 64.6606 13.8566C64.5055 13.8325 64.3471 13.8398 64.1949 13.8781C64.0426 13.9164 63.8996 13.9849 63.7743 14.0795C63.6491 14.1742 63.5441 14.293 63.4657 14.429C63.3872 14.565 63.3369 14.7153 63.3177 14.8712C63.2985 15.027 63.3108 15.185 63.3538 15.336C63.3969 15.487 63.4698 15.6278 63.5684 15.75C63.7988 16.0547 64.0234 16.3633 64.2422 16.6758Z" fill="#233877"/>
<path d="M70.9922 41.9121C70.8421 41.8774 70.6867 41.8726 70.5348 41.898C70.3829 41.9233 70.2375 41.9784 70.1069 42.0601C69.9763 42.1417 69.863 42.2483 69.7737 42.3737C69.6843 42.4991 69.6205 42.6409 69.5859 42.791C69.5 43.1621 69.4063 43.5293 69.3047 43.8926C69.2638 44.0411 69.2526 44.1962 69.2717 44.349C69.2908 44.5019 69.3398 44.6495 69.416 44.7833C69.4922 44.9172 69.594 45.0348 69.7157 45.1292C69.8374 45.2237 69.9764 45.2933 70.125 45.334C70.2262 45.3615 70.3307 45.3753 70.4356 45.375C70.6901 45.3763 70.9382 45.2946 71.1422 45.1424C71.3462 44.9902 71.4951 44.7756 71.5664 44.5312C71.6758 44.1406 71.7754 43.75 71.8652 43.3594C71.9062 43.2069 71.916 43.0478 71.894 42.8915C71.8719 42.7352 71.8185 42.5849 71.737 42.4498C71.6555 42.3146 71.5475 42.1973 71.4195 42.1049C71.2915 42.0125 71.1462 41.9469 70.9922 41.9121Z" fill="#233877"/>
<path d="M55.2656 7.95703C55.5859 8.16797 55.9004 8.38477 56.209 8.60742C56.4623 8.78769 56.7768 8.85995 57.0834 8.8083C57.39 8.75666 57.6635 8.58534 57.8437 8.33203C58.024 8.07873 58.0963 7.76419 58.0446 7.45762C57.993 7.15104 57.8216 6.87753 57.5683 6.69727C57.2363 6.45899 56.8984 6.22657 56.5547 6C56.4262 5.91498 56.2822 5.85609 56.1309 5.82672C55.9797 5.79734 55.8241 5.79804 55.6731 5.82878C55.5221 5.85952 55.3787 5.9197 55.251 6.00588C55.1232 6.09206 55.0137 6.20256 54.9287 6.33106C54.8437 6.45956 54.7848 6.60355 54.7554 6.7548C54.726 6.90606 54.7267 7.06162 54.7575 7.21261C54.7882 7.3636 54.8484 7.50705 54.9346 7.63478C55.0208 7.76251 55.1313 7.87201 55.2598 7.95703H55.2656Z" fill="#233877"/>
<path d="M71.5195 36.0234C71.2097 36.014 70.9087 36.1276 70.6825 36.3396C70.4562 36.5515 70.3232 36.8445 70.3125 37.1543C70.3125 37.5449 70.293 37.9258 70.2539 38.2969C70.233 38.6069 70.3361 38.9125 70.5404 39.1465C70.7448 39.3806 71.0338 39.5239 71.3438 39.5449H71.4258C71.7229 39.5456 72.0092 39.4335 72.2267 39.2312C72.4443 39.0289 72.5769 38.7514 72.5977 38.4551C72.625 38.0645 72.6465 37.6563 72.6621 37.2305C72.6668 37.0761 72.6409 36.9223 72.5859 36.7779C72.531 36.6336 72.448 36.5015 72.3418 36.3894C72.2356 36.2772 72.1083 36.1871 71.9672 36.1243C71.8261 36.0615 71.6739 36.0272 71.5195 36.0234Z" fill="#233877"/>
<path d="M50.25 5.20898C50.6016 5.36523 50.9492 5.52539 51.293 5.68945C51.432 5.76152 51.5842 5.80497 51.7403 5.81724C51.8965 5.82951 52.0535 5.81034 52.2021 5.76089C52.3508 5.71143 52.488 5.63267 52.6056 5.52928C52.7233 5.42589 52.819 5.29995 52.8872 5.15893C52.9554 5.0179 52.9946 4.86463 53.0025 4.70819C53.0104 4.55176 52.9869 4.39532 52.9333 4.24813C52.8797 4.10094 52.7972 3.96598 52.6906 3.85124C52.5839 3.73649 52.4554 3.64429 52.3125 3.58008C51.9453 3.4043 51.5742 3.23242 51.1992 3.06445C51.0584 3.00213 50.9067 2.96815 50.7528 2.96445C50.5988 2.96075 50.4456 2.98742 50.302 3.04291C50.1584 3.09841 50.0271 3.18166 49.9156 3.2879C49.8041 3.39414 49.7147 3.5213 49.6523 3.66211C49.59 3.80292 49.556 3.95463 49.5523 4.10857C49.5486 4.26252 49.5753 4.41568 49.6308 4.55933C49.6863 4.70297 49.7695 4.83427 49.8758 4.94574C49.982 5.05721 50.1092 5.14666 50.25 5.20898Z" fill="#233877"/>
<path d="M69.3223 47.6074C69.1807 47.5464 69.0285 47.514 68.8744 47.5119C68.7203 47.5098 68.5673 47.5382 68.4241 47.5953C68.281 47.6525 68.1505 47.7373 68.0402 47.845C67.9299 47.9526 67.8419 48.081 67.7813 48.2227L67.5527 48.75C67.4276 49.0383 67.4222 49.3644 67.5376 49.6567C67.6529 49.949 67.8797 50.1835 68.168 50.3086C68.4562 50.4337 68.7824 50.4392 69.0747 50.3238C69.367 50.2084 69.6015 49.9816 69.7266 49.6934L69.9609 49.1426C70.0203 48.9999 70.0509 48.8469 70.0509 48.6924C70.0509 48.5378 70.0204 48.3848 69.961 48.2421C69.9017 48.0994 69.8147 47.9699 69.705 47.861C69.5954 47.752 69.4653 47.6659 69.3223 47.6074Z" fill="#233877"/>
</g>
<defs>
<clipPath id="clip0_1_18">
<rect width="75" height="75" fill="white"/>
</clipPath>
</defs>
</svg>
