<svg width="75" height="75" viewBox="0 0 75 75" fill="none" xmlns="http://www.w3.org/2000/svg">
<path d="M58.5887 39.948V49.375C58.5887 52.8212 55.785 55.625 52.3387 55.625H37.495C36.8047 55.625 36.245 55.0653 36.245 54.375C36.245 53.6847 36.8047 53.125 37.495 53.125H52.3387C54.4064 53.125 56.0887 51.4428 56.0887 49.375V39.948C56.0887 39.2577 56.6484 38.698 57.3387 38.698C58.0291 38.698 58.5887 39.2575 58.5887 39.948ZM41.0887 59.2188C40.3984 59.2188 39.8387 59.7784 39.8387 60.4688C39.8387 61.8472 38.7172 62.9688 37.3387 62.9688H34.2137C32.8353 62.9688 31.7137 61.8472 31.7137 60.4688V54.375C31.7137 53.6847 31.1541 53.125 30.4637 53.125H19.2137C17.1461 53.125 15.4637 51.4427 15.4637 49.375V6.25C15.4637 4.18234 17.1461 2.5 19.2137 2.5H52.3387C54.4064 2.5 56.0887 4.18234 56.0887 6.25V10.1042C56.0887 10.7945 56.6484 11.3542 57.3387 11.3542C58.0291 11.3542 58.5887 10.7945 58.5887 10.1042V6.25C58.5887 2.80375 55.785 0 52.3387 0H19.2137C15.7675 0 12.9637 2.80375 12.9637 6.25V49.375C12.9637 52.8212 15.7675 55.625 19.2137 55.625H29.2137V60.4688C29.2137 63.2258 31.4567 65.4688 34.2137 65.4688H34.5262V73.75C34.5262 74.4403 35.0859 75 35.7762 75C36.4666 75 37.0262 74.4403 37.0262 73.75V65.4688H37.3387C40.0958 65.4688 42.3387 63.2258 42.3387 60.4688C42.3387 59.7784 41.7791 59.2188 41.0887 59.2188ZM24.5262 8.59375H47.0262C48.4047 8.59375 49.5262 9.71531 49.5262 11.0938C49.5262 11.7841 50.0859 12.3438 50.7762 12.3438C51.4666 12.3438 52.0262 11.7841 52.0262 11.0938C52.0262 8.33672 49.7833 6.09375 47.0262 6.09375H24.5262C21.7692 6.09375 19.5262 8.33672 19.5262 11.0938V27.8125C19.5262 30.5695 21.7692 32.8125 24.5262 32.8125H40.8805C41.5708 32.8125 42.1305 32.2528 42.1305 31.5625C42.1305 30.8722 41.5708 30.3125 40.8805 30.3125H24.5262C23.1478 30.3125 22.0262 29.1909 22.0262 27.8125V11.0938C22.0262 9.71531 23.1478 8.59375 24.5262 8.59375ZM33.2762 40.3125H38.2762C39.6547 40.3125 40.7762 41.4341 40.7762 42.8125C40.7762 43.5028 41.3359 44.0625 42.0262 44.0625C42.7166 44.0625 43.2762 43.5028 43.2762 42.8125C43.2762 40.0555 41.0333 37.8125 38.2762 37.8125H33.2762C30.5192 37.8125 28.2762 40.0555 28.2762 42.8125C28.2762 45.5695 30.5192 47.8125 33.2762 47.8125H38.2762C38.9666 47.8125 39.5262 47.2528 39.5262 46.5625C39.5262 45.8722 38.9666 45.3125 38.2762 45.3125H33.2762C31.8978 45.3125 30.7762 44.1909 30.7762 42.8125C30.7762 41.4341 31.8978 40.3125 33.2762 40.3125ZM53.12 35.9333C45.9547 35.9333 41.7092 27.8655 45.8041 21.9606L49.2073 17.0531C51.0995 14.325 55.1408 14.3255 57.0327 17.0531L60.4359 21.9606C64.5367 27.8738 60.2741 35.9333 53.12 35.9333ZM58.3816 23.3855L54.9783 18.478C54.0772 17.1784 52.1622 17.1798 51.2617 18.478L47.8586 23.3855C46.0925 25.932 46.4012 29.3708 48.5925 31.5622C51.0889 34.0588 55.1514 34.0588 57.6476 31.5622C59.8389 29.3708 60.1477 25.9319 58.3816 23.3855Z" fill="#233877"/>
</svg>
