<svg width="75" height="75" viewBox="0 0 75 75" fill="none" xmlns="http://www.w3.org/2000/svg">
<g clip-path="url(#clip0_1_145)">
<path d="M70.0192 19.9219C68.5415 19.9219 67.1657 20.5688 66.2253 21.6797H64.0702C63.7298 20.2559 63.1726 18.9212 62.4326 17.7112L63.9519 16.1919C65.4009 16.3126 66.8329 15.7975 67.8776 14.7517C68.8181 13.8112 69.3366 12.5603 69.3366 11.2302C69.3366 9.90014 68.8186 8.64917 67.8776 7.70875C65.9364 5.76696 62.7759 5.76696 60.8341 7.70875C59.7894 8.75405 59.2738 10.1837 59.3945 11.6345L57.8746 13.1544C56.664 12.4144 55.3293 11.8572 53.9061 11.5167V9.36166C55.017 8.42124 55.6639 7.04547 55.6639 5.56716C55.6639 2.82089 53.4297 0.586731 50.6834 0.586731C47.9372 0.586731 45.703 2.82031 45.703 5.56658C45.703 7.0443 46.3499 8.42007 47.4608 9.36108V11.5214C46.03 11.8624 44.6987 12.4202 43.4929 13.155L41.973 11.6345C42.0937 10.1837 41.578 8.75405 40.5327 7.70875C38.5909 5.76696 35.431 5.76696 33.4892 7.70875C32.4879 8.71011 31.9588 10.0958 32.0379 11.5103C32.0742 12.1571 32.6349 12.6534 33.2736 12.6148C33.9199 12.5784 34.4138 12.0253 34.3781 11.379C34.3359 10.6302 34.616 9.89603 35.1462 9.36576C36.1746 8.33745 37.8474 8.33804 38.8751 9.36576C39.512 10.0027 39.7769 10.9115 39.5829 11.7962C39.4974 12.1864 39.6169 12.5931 39.8993 12.8755L41.5827 14.5589C38.6982 17.093 36.914 20.7991 36.914 24.9024C36.914 25.5492 37.439 26.0742 38.0859 26.0742C38.7327 26.0742 39.2577 25.5492 39.2577 24.9024C39.2577 21.1366 41.0659 17.7733 43.9206 15.6845C44.012 15.6335 44.0999 15.5737 44.1772 15.4958C44.179 15.494 44.1802 15.4917 44.1819 15.4899C45.1663 14.812 46.2714 14.2917 47.4608 13.9454V14.6485C47.4608 15.2954 47.9858 15.8204 48.6327 15.8204C49.2795 15.8204 49.8045 15.2954 49.8045 14.6485V8.7728C49.8045 8.37319 49.6012 8.00171 49.2655 7.78609C48.502 7.29684 48.0467 6.46715 48.0467 5.56658C48.0467 4.11288 49.2297 2.92988 50.6834 2.92988C52.1371 2.92988 53.3201 4.11288 53.3201 5.56658C53.3201 6.46715 52.8649 7.29684 52.1014 7.78609C51.7656 8.00171 51.5623 8.37319 51.5623 8.7728V14.6485C51.5623 15.2954 52.0873 15.8204 52.7342 15.8204C53.3811 15.8204 53.9061 15.2954 53.9061 14.6485V13.9454C55.1312 14.3034 56.2685 14.8554 57.2828 15.572C57.3367 15.6159 57.393 15.6546 57.4515 15.6874C58.3861 16.3735 59.2117 17.1991 59.8978 18.1337C59.9306 18.1934 59.9699 18.2497 60.0138 18.3036C60.7304 19.3172 61.2824 20.4551 61.6404 21.6797H60.9373C60.2904 21.6797 59.7654 22.2047 59.7654 22.8516C59.7654 23.4985 60.2904 24.0235 60.9373 24.0235H66.8136C67.2132 24.0235 67.5847 23.8201 67.8003 23.4838C68.2895 22.7209 69.1186 22.2657 70.0198 22.2657C71.4735 22.2657 72.6565 23.4487 72.6565 24.9024C72.6565 26.3561 71.4735 27.5391 70.0198 27.5391C69.1192 27.5391 68.2895 27.0838 67.8003 26.3203C67.5847 25.984 67.2132 25.7813 66.8136 25.7813H60.9373C60.2904 25.7813 59.7654 26.3063 59.7654 26.9531C59.7654 27.6 60.2904 28.125 60.9373 28.125H61.6404C61.2759 29.3724 60.7111 30.5308 59.9752 31.5591C59.9576 31.5838 59.9406 31.6078 59.9254 31.633C59.2246 32.5957 58.3773 33.4429 57.4146 34.1437C57.3894 34.1595 57.3648 34.1765 57.3402 34.1935C56.3119 34.9294 55.1541 35.4943 53.9061 35.8587V35.1562C53.9061 34.5093 53.3811 33.9843 52.7342 33.9843C52.0873 33.9843 51.5623 34.5093 51.5623 35.1562V41.0319C51.5623 41.4315 51.7656 41.803 52.1014 42.0186C52.8643 42.5073 53.3201 43.337 53.3201 44.2381C53.3201 45.6918 52.1371 46.8748 50.6834 46.8748C49.2297 46.8748 48.0467 45.6918 48.0467 44.2381C48.0467 43.3376 48.502 42.5079 49.2655 42.0186C49.6012 41.803 49.8045 41.4315 49.8045 41.0319V35.1562C49.8045 34.5093 49.2795 33.9843 48.6327 33.9843C47.9858 33.9843 47.4608 34.5093 47.4608 35.1562V35.8581C47.1421 35.7644 46.8245 35.6654 46.5157 35.5441C45.9134 35.3079 45.2331 35.605 44.997 36.2073C44.7608 36.8097 45.0579 37.4894 45.6602 37.7261C46.2456 37.9558 46.8485 38.1403 47.4608 38.2874V40.4436C46.3499 41.3841 45.703 42.7598 45.703 44.2381C45.703 46.9844 47.9372 49.2186 50.6834 49.2186C53.4297 49.2186 55.6639 46.9844 55.6639 44.2381C55.6639 42.7604 55.017 41.3847 53.9061 40.4436V38.2886C55.3293 37.9482 56.6646 37.3909 57.8746 36.6509L59.3945 38.1708C59.2738 39.6216 59.7894 41.0513 60.8347 42.0966C61.8056 43.0675 63.0806 43.5532 64.3562 43.5532C65.6312 43.5532 66.9073 43.0675 67.8776 42.0966C68.8181 41.1561 69.3366 39.9052 69.3366 38.5751C69.3366 37.245 68.8186 35.9941 67.8782 35.0536C66.8329 34.0083 65.4027 33.4927 63.9525 33.6134L62.4326 32.0941C63.1726 30.8836 63.7304 29.5488 64.0702 28.1256H66.2253C67.1657 29.2365 68.5421 29.8834 70.0198 29.8834C72.7661 29.8834 75.0002 27.6492 75.0002 24.9029C75.0002 22.1567 72.7655 19.9219 70.0192 19.9219ZM61.4675 12.8755C61.7499 12.5931 61.8695 12.1864 61.7839 11.7962C61.5906 10.9115 61.8548 10.0021 62.4917 9.36576C63.52 8.33804 65.1923 8.33804 66.2206 9.36576C66.7187 9.86381 66.9929 10.5259 66.9929 11.2302C66.9929 11.9345 66.7187 12.5966 66.2206 13.0946C65.5843 13.731 64.6755 13.9964 63.7902 13.8024C63.3993 13.7169 62.9933 13.8364 62.7115 14.1189L61.0251 15.8052C60.6378 15.3645 60.2224 14.9497 59.7818 14.5618L61.4675 12.8755ZM62.7103 35.6865C62.9921 35.9689 63.3999 36.0878 63.789 36.0029C64.6761 35.8089 65.5831 36.0743 66.22 36.7107C66.7181 37.2087 66.9923 37.8708 66.9923 38.5751C66.9923 39.2794 66.7181 39.9415 66.22 40.4395C65.1917 41.4673 63.5189 41.4673 62.4912 40.4395C61.8542 39.8026 61.5894 38.8939 61.7833 38.0091C61.8689 37.6189 61.7494 37.2122 61.4669 36.9298L59.7806 35.2435C60.2212 34.8556 60.6361 34.4408 61.024 34.0001L62.7103 35.6865Z" fill="#233877"/>
<path d="M49.8045 69.7263C53.6817 69.7263 56.8357 66.5722 56.8357 62.6951C56.8357 58.818 53.6817 55.6639 49.8045 55.6639C45.9274 55.6639 42.7733 58.818 42.7733 62.6951C42.7733 66.5722 45.9274 69.7263 49.8045 69.7263ZM49.8045 58.0076C52.3891 58.0076 54.492 60.1105 54.492 62.6951C54.492 65.2796 52.3891 67.3825 49.8045 67.3825C47.22 67.3825 45.1171 65.2796 45.1171 62.6951C45.1171 60.1105 47.22 58.0076 49.8045 58.0076Z" fill="#233877"/>
<path d="M71.484 54.492C71.484 51.584 69.1181 49.2186 66.2107 49.2186C63.3033 49.2186 60.9373 51.584 60.9373 54.492C60.9373 57.4 63.3033 59.7654 66.2107 59.7654C69.1181 59.7654 71.484 57.4 71.484 54.492ZM63.281 54.492C63.281 52.8766 64.5952 51.5623 66.2107 51.5623C67.8261 51.5623 69.1403 52.8766 69.1403 54.492C69.1403 56.1074 67.8261 57.4217 66.2107 57.4217C64.5952 57.4217 63.281 56.1074 63.281 54.492Z" fill="#233877"/>
<path d="M13.4796 68.9059C16.0443 72.3547 20.1411 74.4137 24.4395 74.4137C30.0035 74.4137 34.9629 71.0874 37.0746 65.9399L40.8673 56.6957C42.5208 52.665 43.3593 48.4123 43.3593 44.0559V37.4999C43.3593 30.392 37.5767 24.6094 30.4688 24.6094H28.125V22.8516H33.9843C35.2769 22.8516 36.3281 21.8004 36.3281 20.5079V16.9923C36.3281 15.6997 35.2769 14.6485 33.9843 14.6485H31.5545C30.9627 13.6273 30.1863 12.7419 29.2822 12.0218L30.7266 10.073C31.1121 9.55328 31.0025 8.8191 30.4828 8.43356C29.9631 8.0486 29.2289 8.157 28.8434 8.6773L27.2766 10.7914C26.4364 10.4123 25.5375 10.1585 24.6094 10.0402V7.61735C24.6094 6.97048 24.0844 6.44549 23.4376 6.44549C22.7907 6.44549 22.2657 6.97048 22.2657 7.61735V10.0425C19.9401 10.3349 17.8817 11.4798 16.4064 13.1562V7.61735C16.4064 6.32478 15.3552 5.27362 14.0626 5.27362H10.547C9.25447 5.27362 8.2033 6.32478 8.2033 7.61735V25.4953C3.40686 27.375 0.000244141 32.0455 0.000244141 37.4999V39.754C0.000244141 46.8631 2.33636 53.9207 6.57851 59.6253L13.4796 68.9059ZM33.9843 20.5079H26.9532C26.3063 20.5079 25.7813 21.0329 25.7813 21.6797V24.6094H22.2657V18.7501C22.2657 17.7809 23.0544 16.9923 24.0235 16.9923H33.9843V20.5079ZM23.4376 12.3048C25.4549 12.3048 27.3569 13.1855 28.674 14.6485H24.0235C21.7618 14.6485 19.922 16.4884 19.922 18.7501V24.6094H16.4064V19.336C16.4064 15.4589 19.5604 12.3048 23.4376 12.3048ZM10.547 7.61735H14.0626V24.6094H12.8908C12.0904 24.6094 11.3076 24.6862 10.547 24.8268V7.61735ZM2.34398 37.4999C2.34398 32.8769 5.33809 28.9482 9.48591 27.5279C9.65935 27.5115 9.82107 27.4588 9.96403 27.375C10.3449 27.2649 10.7357 27.1787 11.133 27.1119V32.1539L9.03591 34.3242C6.98749 36.4441 5.85957 39.2355 5.85957 42.1839V45.703C5.85957 46.3499 6.38457 46.8749 7.03144 46.8749C7.67831 46.8749 8.2033 46.3499 8.2033 45.703V42.1839C8.2033 39.8466 9.09744 37.6335 10.7216 35.9525L11.3972 35.2535C11.9855 38.1948 13.5494 40.8714 15.8902 42.8384L19.5159 45.884C21.8872 47.8762 23.2934 50.7502 23.4247 53.8281L17.8255 59.4267C17.3679 59.8843 17.3679 60.6261 17.8255 61.0843C18.0546 61.3134 18.354 61.4271 18.654 61.4271C18.954 61.4271 19.254 61.3128 19.4825 61.0843L23.4376 57.1293V65.6247C23.4376 66.2716 23.9626 66.7966 24.6094 66.7966C25.2563 66.7966 25.7813 66.2716 25.7813 65.6247V54.3004C25.7813 50.3512 24.0475 46.6299 21.0235 44.0899L20.3157 43.4952L23.6151 42.8559C25.4614 42.4979 27.3586 43.0786 28.6887 44.4087L30.8121 46.5315C31.0412 46.7606 31.3406 46.8749 31.6406 46.8749C31.9406 46.8749 32.2406 46.7606 32.4691 46.5315C32.9267 46.0739 32.9267 45.3321 32.4691 44.8745L30.3457 42.7511C28.4649 40.8696 25.7813 40.0482 23.1692 40.5544L18.006 41.5546L17.3978 41.0437C14.9058 38.9501 13.4767 35.8828 13.4767 32.6279V26.9531H30.4688C36.2841 26.9531 41.0155 31.6845 41.0155 37.4999V44.0559C41.0155 48.1059 40.2363 52.0592 38.6988 55.8062L34.906 65.0505C33.157 69.3143 29.0485 72.07 24.4389 72.07C20.8782 72.07 17.4845 70.3643 15.3599 67.5073L8.45877 58.2267C4.51603 52.9234 2.34398 46.3628 2.34398 39.754V37.4999Z" fill="#233877"/>
</g>
<defs>
<clipPath id="clip0_1_145">
<rect width="75" height="75" fill="white"/>
</clipPath>
</defs>
</svg>
