<svg width="75" height="75" viewBox="0 0 75 75" fill="none" xmlns="http://www.w3.org/2000/svg">
<path d="M44.5313 30.4688C52.0078 30.4688 56.7832 23.8887 57.3621 18.6316C61.4777 17.7422 65.4082 9.86367 61.8855 10.568C60.2109 10.8867 59.2184 9.53672 57.5953 7.11211C55.8234 4.46602 53.6156 1.17188 49.2188 1.17188C46.493 1.17188 44.993 1.79414 44.2488 2.26172C43.1367 2.08008 40.7063 1.93477 38.5957 3.52734C36.4547 5.14219 35.318 8.02969 35.1832 12.0867C34.5984 12.491 34.1285 13.2152 33.8496 14.1844C33.3176 16.0289 33.5426 18.4992 35.1715 19.9301C35.3637 23.8887 37.4813 30.4688 44.5313 30.4688ZM44.5313 28.125C37.6102 28.125 37.5012 19.6934 37.5 19.3348C37.4988 18.9328 37.2914 18.5578 36.9516 18.3445C35.6555 17.5301 35.7246 14.8992 36.4617 14.0648C38.7809 14.1293 38.1785 15.5227 39.5285 15.2027C41.6496 14.6977 43.3711 13.3664 44.4012 12.3914C45.9656 14.3977 49.5855 18.1676 54.9879 18.6902C54.4008 22.5492 50.9074 28.125 44.5313 28.125ZM39.9879 5.41289C41.8266 4.01016 44.1902 4.63828 44.2102 4.64297C45.3727 4.97461 45.0902 3.51562 49.2188 3.51562C52.3652 3.51562 53.9602 5.89688 55.6477 8.41758C56.8922 10.275 58.275 12.3187 60.3656 12.8344C59.6227 14.3227 58.2316 16.4062 56.25 16.4062C49.5504 16.4062 45.573 10.0043 45.532 9.93867C45.0996 9.22852 44.107 9.19805 43.6125 9.81797C43.5938 9.84141 41.9156 11.9227 39.5977 12.7406C39.1652 12.3926 38.4914 12.0152 37.5305 11.8324C37.6805 8.70938 38.5008 6.54609 39.9879 5.41289Z" fill="#233877"/>
<path d="M65.482 33.5168C64.1238 31.0324 57.7547 26.4012 56.7785 25.9078C56.202 25.616 55.4965 25.848 55.2035 26.4246C54.9117 27.0023 55.1426 27.7066 55.7203 27.9984C56.6496 28.4695 62.441 32.843 63.4219 34.6383C64.0547 35.8031 64.9875 44.741 65.5629 53.0496C63.7312 53.5465 59.3133 54.4957 55.834 53.3133C57.5613 49.1695 58.9348 45.8039 59.7457 41.2207C59.8594 40.5844 59.434 39.975 58.7965 39.8625C58.1484 39.7488 57.5508 40.1754 57.4383 40.8129C56.6473 45.2707 55.2551 48.6129 53.7785 52.1508C52.8293 54.4289 51.8672 56.7434 51.0715 59.3777C51.0691 59.3836 51.068 59.3895 51.0656 59.3953C49.9887 62.9754 49.2188 67.1508 49.2188 72.6562C49.2188 73.3031 49.7426 73.8281 50.3906 73.8281C51.0387 73.8281 51.5625 73.3031 51.5625 72.6562C51.5625 70.7168 51.6645 68.966 51.8379 67.3477C52.2844 70.4297 52.7238 72.7172 52.7555 72.8789C52.8645 73.4391 53.3543 73.8281 53.9039 73.8281C53.9777 73.8281 54.0527 73.8211 54.1277 73.807C54.7629 73.684 55.1777 73.0688 55.0547 72.4336C55.0418 72.368 53.7832 65.8207 53.3613 59.8898C53.8371 58.3441 54.3762 56.8969 54.9457 55.4754C56.4867 56.0203 58.1402 56.2313 59.7246 56.2313C63.5625 56.2313 66.9621 55.0875 67.1742 55.0148C67.6758 54.8437 67.998 54.3562 67.9641 53.8289C67.7672 50.8348 66.7148 35.7855 65.482 33.5168Z" fill="#233877"/>
<path d="M50.3906 43.3594C50.3906 41.6098 48.941 39.8437 45.7031 39.8437C41.8477 39.8437 30.041 45.0164 23.1598 48.1898C23.3496 47.6801 23.5137 47.2137 23.6379 46.848C24.6305 46.6734 24.2813 46.2773 29.1422 38.0812C29.9121 36.7359 27.8766 35.5699 27.1078 36.9187L22.752 44.5394C17.6496 44.4598 13.4719 41.018 11.9918 39.6281C14.6766 34.732 21.5449 24.1617 27.1055 23.4269C30.4934 22.9805 32.4633 23.6519 32.4879 23.6613C33.0961 23.8769 33.7629 23.5676 33.9844 22.9629C34.207 22.3547 33.8965 21.682 33.2883 21.4594C33.1887 21.423 30.8133 20.5723 26.7984 21.1043C18.5285 22.1965 9.87305 38.6027 9.50742 39.3012C9.28125 39.7359 9.34805 40.2656 9.67852 40.6301C9.89531 40.8703 14.5898 45.9598 21.184 46.7672C20.8699 47.6473 20.4375 48.7781 19.998 49.6676C19.1543 50.0672 18.5379 50.3637 18.2391 50.5078C17.6566 50.7891 17.4129 51.4898 17.6941 52.0723C17.9754 52.6535 18.6727 52.8996 19.2598 52.6172C25.2645 49.7168 41.7176 42.1875 45.7031 42.1875C46.7848 42.1875 48.0469 42.4945 48.0469 43.3594C48.0469 49.9383 19.3488 61.1578 15.2344 61.1578C12.3293 61.1578 9.375 57.4465 9.375 55.3711C9.375 53.1187 10.657 49.4555 11.4223 47.2664C11.4293 47.1445 12.3047 45.5836 10.9289 45.1078C9.55781 44.6367 9.29062 46.3758 9.20859 46.493C8.39531 48.8215 7.03125 52.7203 7.03125 55.3711C7.03125 58.7531 10.875 63.2414 14.9039 63.4781C14.5945 65.693 14.0625 69.9094 14.0625 72.6562C14.0625 73.3031 14.5863 73.8281 15.2344 73.8281C15.8824 73.8281 16.4062 73.3031 16.4062 72.6562C16.4062 69.7875 17.0508 65.0133 17.318 63.1512C25.4484 61.1965 50.3906 51.3023 50.3906 43.3594Z" fill="#233877"/>
<path d="M64.4531 66.2109V58.7402C64.4531 58.0934 63.9293 57.5684 63.2812 57.5684C62.6332 57.5684 62.1094 58.0934 62.1094 58.7402V66.2109C62.1094 69.0328 64.207 73.0348 64.2961 73.2035C65.0145 74.5676 67.0992 73.4883 66.368 72.1078C65.8359 71.1 64.4531 68.0754 64.4531 66.2109Z" fill="#233877"/>
<path d="M40.493 39.6785C41.8535 38.4199 43.7895 38.0086 45.545 38.6086C46.159 38.8184 46.8246 38.4914 47.0332 37.8773C47.243 37.2656 46.9149 36.5988 46.3032 36.3902C43.7285 35.5125 40.8961 36.1125 38.9039 37.957C37.7461 39.027 39.3727 40.7133 40.493 39.6785Z" fill="#233877"/>
<path d="M47.4726 52.4367C46.4543 53.918 44.557 54.5402 42.8648 53.9508C42.2531 53.7363 41.584 54.0621 41.3742 54.6738C41.1609 55.2844 41.4855 55.9523 42.0961 56.1645C42.7746 56.4 43.4742 56.5125 44.1656 56.5125C46.214 56.5125 48.198 55.5176 49.4051 53.7621C49.7719 53.2277 49.6359 52.4988 49.1027 52.132C48.5695 51.7699 47.8383 51.9035 47.4726 52.4367Z" fill="#233877"/>
<path d="M50.0894 57.2976C49.657 56.816 48.9164 56.7762 48.4347 57.2109C45.5519 59.8043 41.3355 60.041 38.1808 57.7875C37.6558 57.4113 36.9246 57.5332 36.5461 58.0594C36.1699 58.5855 36.2918 59.318 36.8179 59.6941C38.6765 61.0219 40.8211 61.6769 42.955 61.6769C45.4804 61.6769 47.9929 60.7594 50.0015 58.9523C50.4832 58.5199 50.5218 57.7781 50.0894 57.2976Z" fill="#233877"/>
<path d="M42.8438 32.5699C42.7899 31.9254 42.2156 31.4426 41.5793 31.4977C37.8434 31.8059 34.527 34.1027 32.925 37.4906C32.2594 38.9027 34.384 39.8871 35.0449 38.4914C36.2906 35.857 38.8676 34.0723 41.7715 33.832C42.416 33.7805 42.8953 33.2145 42.8438 32.5699Z" fill="#233877"/>
</svg>
