<svg width="75" height="75" viewBox="0 0 75 75" fill="none" xmlns="http://www.w3.org/2000/svg">
<path d="M33.0146 32.1973C28.7622 36.4409 28.2026 41.0332 31.2671 46.2817C31.5542 46.771 31.3872 47.3994 30.9023 47.6807C30.4131 47.9678 29.7847 47.8008 29.499 47.3159C29.1592 46.7344 28.8589 46.1572 28.5981 45.5889C27.6636 45.9331 27.3603 46.856 27.0615 47.7686C26.3892 49.8032 25.7241 51.8247 21.8218 51.3809C21.2578 51.3179 20.855 50.8125 20.9165 50.2515C20.9795 49.6904 21.4819 49.2847 22.0459 49.3462C24.3003 49.604 24.7031 48.3706 25.1147 47.124C25.5967 45.6709 26.0786 44.2046 27.8555 43.6362C27.6929 43.1089 27.5654 42.5859 27.4731 42.0674C26.3437 42.832 25.0488 43.3843 23.666 43.7329C23.1182 43.8706 22.5615 43.5337 22.4238 42.9858C22.2861 42.438 22.6186 41.8813 23.1665 41.7437C24.7236 41.354 26.1431 40.6641 27.29 39.6138C27.3984 36.3838 28.8838 33.4556 31.5044 30.8115C31.1059 30.1348 30.9316 29.3335 30.9477 28.5278C31.0854 22.1338 26.7495 21.7881 25.1059 18.271C23.9927 15.8833 23.1592 14.1152 22.7388 13.2305L19.355 13.4751C23.9634 21.9507 21.5347 28.27 18.9111 35.0962C16.2656 41.9722 13.4092 49.3975 18.1597 60.2637C20.5019 65.6206 23.4375 68.4858 26.9663 69.1992C30.5581 69.9258 34.8721 68.4844 39.8848 65.2134C46.043 61.1939 49.3359 57.0586 50.4814 52.3784C51.3076 48.999 51.0337 45.2856 49.9248 41.0918C47.4082 44.5884 44.7891 49.1924 44.7349 53.5356C44.7305 54.0718 44.3115 54.5024 43.7886 54.5405V54.5449C42.8335 54.6108 41.8828 54.5493 40.9365 54.3545C40.667 57.6138 38.6235 59.5781 35.3188 60.2842C34.7622 60.3999 34.2187 60.0469 34.1016 59.4946C33.9858 58.9424 34.3389 58.3989 34.8911 58.2773C37.5117 57.7207 38.8696 56.3379 38.9194 53.7393C37.9189 53.3364 36.9258 52.7842 35.9341 52.0869C35.4726 51.7588 35.3613 51.123 35.685 50.6587C36.0088 50.1973 36.6489 50.0859 37.1133 50.4141C38.8447 51.6343 40.73 52.4399 42.7441 52.5147C42.832 51.5054 43.0268 50.4595 43.333 49.3843C41.3613 49.0693 39.6006 48.3794 38.2837 46.8384C37.9189 46.4063 37.9687 45.7632 38.3965 45.394C38.8242 45.0293 39.4717 45.0791 39.8379 45.5068C40.897 46.7446 42.3838 47.1973 44.0068 47.4126C44.3393 46.5703 44.7173 45.7427 45.145 44.9209C43.2729 44.584 41.6118 43.8867 40.3579 42.4175C39.9932 41.9897 40.043 41.3423 40.4707 40.9761C40.9028 40.6113 41.5459 40.6611 41.9121 41.0889C43.0005 42.3589 44.54 42.8042 46.2143 43.0107C47.0566 41.603 48.0542 40.1455 49.2085 38.6426C47.9546 34.7769 45.4834 29.8901 47.6396 26.1899C49.5747 22.8677 53.6235 22.2451 57.0615 22.9717L57.29 18.8232C48.8115 18.3867 46.585 22.4985 45.041 25.3594C44.751 25.8999 44.48 26.3979 44.1767 26.8623C42.1919 29.9106 39.0937 31.6128 35.5737 32.4009C34.6875 32.6001 33.7954 32.5532 33.0146 32.1973ZM32.3672 54.4116L33.1099 54.4453C34.1558 54.457 35.1152 54.3296 35.9839 54.0513C36.5244 53.8813 37.0972 54.1802 37.2671 54.7163C37.437 55.2524 37.1382 55.8296 36.602 55.9995C35.3848 56.3862 34.0737 56.5356 32.6865 56.4814C31.5659 57.5229 31.8647 58.7065 32.1431 59.7949C32.6367 61.7344 33.082 63.4819 30.0747 64.7651C29.5561 64.9893 28.9541 64.7446 28.7329 64.2246C28.5132 63.7061 28.7534 63.104 29.2734 62.8828C30.665 62.2895 30.4233 61.3418 30.1538 60.2959C29.8213 58.9922 29.4683 57.5933 30.2739 56.1899C29.8916 56.1152 29.5063 56.0273 29.1108 55.9277C28.563 55.79 28.2305 55.2305 28.3711 54.6826C28.5088 54.1348 29.0683 53.8022 29.6162 53.9429C30.5933 54.1919 31.5117 54.3486 32.3672 54.4116ZM56.4463 24.9346C57.1772 26.9487 58.8706 27.7954 61.1792 27.999C61.7432 28.0444 62.146 28.5176 62.1094 29.1284L62.001 33.6094C61.9893 34.2319 61.4282 34.6934 60.8174 34.5938C58.7241 34.2539 56.8184 33.5142 55.1821 32.269C55.0078 32.4521 54.9038 32.6426 54.8701 32.8916C56.4434 33.3354 58.2495 34.0298 59.064 35.2295C59.6616 36.1099 59.6455 37.0811 59.1548 37.9907H59.1592L57.4219 41.1401C57.0893 41.7466 56.2544 41.8755 55.7519 41.3232C54.5317 40.0034 52.8003 38.5708 51.52 39.2271C55.0957 51.2476 52.4004 59.4814 40.9936 66.9229C30.3516 73.8691 21.665 73.396 16.2788 61.0767C11.1958 49.4502 14.2104 41.6191 17.001 34.3652C19.5791 27.6592 21.9595 21.4761 16.7856 13.1338C16.3667 12.4731 16.79 11.6104 17.5708 11.5518L23.2881 11.1328C23.6997 11.1035 24.1025 11.3276 24.2842 11.7187C24.2886 11.7231 24.9243 13.0679 26.5063 16.4487C28.0928 13.7959 30.3135 11.5444 32.9751 10.021C33.3442 9.80859 33.5361 9.47754 33.5361 9.0498V6.42334C33.5361 5.14453 34.4575 4.04883 35.7202 3.82764C36.1977 3.74414 37.6348 3.4585 38.042 3.4585C39.4834 3.4585 40.6699 4.64209 40.6699 6.09521V7.86768L42.4175 7.92188V5.68799C42.4175 4.53369 43.3594 3.5918 44.5181 3.5918H47.4536C48.6079 3.5918 49.5498 4.53369 49.5498 5.68799V9.69141C49.5498 10.0986 49.7124 10.4062 50.0478 10.6304C52.3725 12.1787 54.3076 14.2969 55.708 16.7388C56.5547 16.73 57.4643 16.7637 58.4443 16.8516V16.856C58.9922 16.9014 59.4082 17.3745 59.3789 17.9268L59.0215 24.3384C58.9834 24.999 58.3286 25.4634 57.6885 25.2554C57.293 25.125 56.874 25.0181 56.4463 24.9346ZM50.8901 37.2466C52.7461 36.479 54.7017 37.5615 56.2793 38.978L57.3677 37.0063C57.4761 36.791 57.5215 36.5874 57.3765 36.375C56.8608 35.6147 54.8935 34.9761 53.6938 34.6934C53.3203 34.6099 53.0083 34.3198 52.9175 33.9214C52.73 33.1069 52.8018 32.3643 53.1211 31.6963C53.4243 31.0649 53.9385 30.5376 54.6694 30.1187C55.043 29.8784 55.5454 29.9033 55.8984 30.2139C57.0659 31.248 58.456 31.9336 59.9883 32.332L60.0469 29.9194C57.0322 29.4082 54.9609 27.7222 54.2622 24.75C52.3476 24.8042 50.4214 25.4648 49.4033 27.2168C47.8462 29.8843 49.8281 34.1104 50.8901 37.2466ZM27.7046 18.5112C28.0825 18.9434 28.5264 19.3506 28.9878 19.7695C30.9346 21.542 33.0981 23.5151 32.9912 28.5688C32.9619 29.877 33.7178 30.7192 35.1167 30.4087C38.1225 29.7319 40.7725 28.3374 42.4585 25.7461C42.6987 25.377 42.9565 24.9038 43.2305 24.3882C44.7583 21.564 46.856 17.6821 53.4038 16.8853C52.2158 15.0791 50.7012 13.522 48.9155 12.3296C48.0234 11.7319 47.5034 10.7681 47.5034 9.69287V5.68799L47.458 5.64258L44.4888 5.65576L44.4726 9.08496H44.4683C44.4683 9.70312 43.9043 10.1938 43.2847 10.0942C42.3794 9.94482 40.7388 9.84082 39.8306 9.96094C39.1406 10.0488 38.6221 9.56689 38.6221 8.95166L38.6133 5.98682C38.5591 5.65869 38.2602 5.46387 37.9365 5.51807L36.0762 5.84619C35.7817 5.896 35.5898 6.12012 35.5898 6.42334V9.04834C35.5898 10.1982 34.9966 11.2236 33.9946 11.7979C31.2832 13.3491 29.1284 15.7075 27.7046 18.5112ZM33.4922 18.6226C33.2842 19.1455 32.6865 19.4033 32.1636 19.1909C31.6406 18.9785 31.3872 18.3853 31.5952 17.8623C33.75 12.5098 40.8677 15.7192 43.3843 13.0752C43.7739 12.6636 44.4228 12.6475 44.8286 13.0371C45.2402 13.4268 45.2563 14.0757 44.8652 14.4814C41.6147 17.9092 35.0083 14.8813 33.4922 18.6226Z" fill="#233877"/>
</svg>
