<svg width="75" height="75" viewBox="0 0 75 75" fill="none" xmlns="http://www.w3.org/2000/svg">
<path fill-rule="evenodd" clip-rule="evenodd" d="M65.0233 38.5294C64.479 55.6778 50.3866 69.4325 33.1071 69.4325C20.4966 69.4325 9.58341 62.1071 4.39532 51.4828C2.33267 47.2588 1.17444 42.5135 1.17444 37.5C1.17444 19.876 15.483 5.5675 33.1071 5.5675C42.5771 5.5675 51.0899 9.69853 56.9397 16.2556L57.4815 15.3174C58.0188 14.3844 58.9444 13.8513 60.0193 13.8513C61.0961 13.8513 62.0191 14.3841 62.5566 15.3165L62.5571 15.3174L73.4208 34.1334C73.9603 35.0662 73.9605 36.1315 73.4212 37.0643C72.8837 37.9966 71.9606 38.5294 70.8838 38.5294H65.0233ZM55.8516 18.1402C50.3703 11.7084 42.2116 7.62633 33.1071 7.62633C16.6193 7.62633 3.23326 21.0122 3.23326 37.5C3.23326 41.8771 4.1765 46.0356 5.87091 49.7829C9.31635 48.7913 12.6586 48.7278 15.9208 49.3838C15.6528 48.4178 15.5091 47.3963 15.5091 46.3393C15.5091 44.6782 16.3806 42.3391 17.6575 39.8975C20.4612 34.5365 25.1325 28.5787 25.1325 28.5787C25.3277 28.3299 25.6262 28.1846 25.9424 28.1846C26.2586 28.1846 26.5572 28.3299 26.7524 28.5787C26.7524 28.5787 31.4236 34.5365 34.2272 39.8975C35.5041 42.3391 36.3758 44.6782 36.3758 46.3393C36.3758 47.4881 36.2059 48.5949 35.8913 49.6341C37.3962 49.2756 38.8227 49.4034 40.145 50.1268C43.8324 52.1269 45.6697 50.7644 48.4647 50.0379C52.4893 48.9147 56.4237 48.7968 60.2352 50.0187C61.8613 46.5038 62.8244 42.6204 62.9633 38.5294H49.1547C48.0775 38.5294 47.1543 37.9963 46.6168 37.0634C46.08 36.1315 46.08 35.0671 46.6168 34.135L46.6174 34.1341L55.8516 18.1402ZM6.80135 51.6615C11.8511 61.0134 21.7421 67.3737 33.1071 67.3737C44.3824 67.3737 54.2072 61.1134 59.2922 51.8821C55.96 50.8884 52.5246 51.0416 49.0128 52.0225C49.0066 52.0243 49.0005 52.0259 48.9941 52.0275C45.6861 52.885 43.5183 54.2993 39.1624 51.9359C39.1612 51.9353 39.16 51.9346 39.1588 51.934C37.9865 51.2921 36.6952 51.4162 35.3234 51.9793C35.1227 52.0659 34.9236 52.1491 34.7261 52.2288C32.8672 55.2532 29.6211 57.2537 25.9424 57.2537C22.0609 57.2537 18.6608 55.0266 16.8641 51.7191C13.6049 50.845 10.2605 50.7371 6.80135 51.6615ZM60.7731 16.345C60.6136 16.0681 60.3391 15.9102 60.0193 15.9102C59.7002 15.9102 59.425 16.0681 59.2655 16.345L59.2649 16.3459L48.4008 35.1628C48.2408 35.4406 48.2408 35.7579 48.4009 36.0357C48.5605 36.3128 48.8349 36.4706 49.1547 36.4706H70.8838C71.2037 36.4706 71.4781 36.3128 71.6377 36.0357L71.6386 36.0341C71.7987 35.7574 71.7987 35.4412 71.6386 35.1644L71.6381 35.1635L60.7736 16.3459L60.7731 16.345ZM58.9905 22.8429C58.9905 22.2749 59.4516 21.8135 60.0199 21.8135C60.588 21.8135 61.0493 22.2749 61.0493 22.8429V30.3994C61.0493 30.9677 60.588 31.4288 60.0199 31.4288C59.4516 31.4288 58.9905 30.9677 58.9905 30.3994V22.8429ZM60.0199 34.7246C59.3577 34.7246 58.8168 34.1835 58.8168 33.5215C58.8168 32.8575 59.3577 32.3166 60.0199 32.3166C60.6837 32.3166 61.2228 32.8575 61.2228 33.5215C61.2228 34.1835 60.6837 34.7246 60.0199 34.7246ZM25.9424 30.9119C24.5119 32.8215 21.499 36.9949 19.4819 40.8516C18.389 42.9413 17.568 44.9177 17.568 46.3393C17.568 51.2129 21.3059 55.1949 25.9424 55.1949C30.579 55.1949 34.3169 51.2129 34.3169 46.3393C34.3169 44.9177 33.4958 42.9413 32.4028 40.8516C30.3859 36.9949 27.373 32.8215 25.9424 30.9119ZM23.5616 43.9418C25.7109 43.9418 27.4559 45.6868 27.4559 47.836C27.4559 49.9853 25.7109 51.7303 23.5616 51.7303C21.4122 51.7303 19.6674 49.9853 19.6674 47.836C19.6674 45.6868 21.4122 43.9418 23.5616 43.9418ZM23.5616 46.0006C22.5486 46.0006 21.7262 46.8231 21.7262 47.836C21.7262 48.8491 22.5486 49.6715 23.5616 49.6715C24.5746 49.6715 25.3971 48.8491 25.3971 47.836C25.3971 46.8231 24.5746 46.0006 23.5616 46.0006ZM40.3799 19.0122V31.1152C40.3799 31.6832 39.9186 32.1446 39.3505 32.1446C38.7824 32.1446 38.3211 31.6832 38.3211 31.1152V19.0122L37.2425 20.4893C36.9075 20.9481 36.263 21.0485 35.8041 20.7135C35.3453 20.3784 35.2447 19.734 35.5799 19.2752L38.5191 15.2499C38.713 14.9846 39.0218 14.8277 39.3505 14.8277C39.6791 14.8277 39.988 14.9846 40.1818 15.2499L43.1211 19.2752C43.4562 19.734 43.3556 20.3784 42.8968 20.7135C42.438 21.0485 41.7934 20.9481 41.4584 20.4893L40.3799 19.0122Z" fill="#233877"/>
</svg>
