<svg width="75" height="75" viewBox="0 0 75 75" fill="none" xmlns="http://www.w3.org/2000/svg">
<g clip-path="url(#clip0_1_79)">
<path d="M71.25 52.5H68.75V51.25C68.75 49.1789 67.0711 47.5 65 47.5H60.5063C59.0223 47.498 57.6146 48.1574 56.6663 49.2988L52.6663 54.1C52.1932 54.6701 51.4908 55 50.75 55H26.25C25.5596 55 25 54.4404 25 53.75V52.27C26.4929 51.7422 27.4934 50.3335 27.5 48.75V35H28.75C31.5114 35 33.75 32.7614 33.75 30V20C33.75 19.3097 34.3096 18.75 35 18.75C35.6904 18.75 36.25 19.3097 36.25 20V45C36.25 49.1421 39.6079 52.5 43.75 52.5C47.8921 52.5 51.25 49.1421 51.25 45V44.875C54.1645 44.1727 56.5453 42.0786 57.6138 39.2775C57.6238 39.2563 57.6363 39.235 57.645 39.2125C58.3824 37.4862 58.7584 35.6272 58.75 33.75C58.8299 30.38 57.5452 27.1206 55.1875 24.7113C56.4659 24.178 57.3463 22.9834 57.4771 21.6044C57.6079 20.2254 56.9679 18.8866 55.8125 18.1225C59.3499 15.5958 60.8496 11.0731 59.5229 6.93342C58.1963 2.79369 54.3471 -0.01474 50 -0.01474C45.6529 -0.01474 41.8037 2.79369 40.4771 6.93342C39.1504 11.0731 40.6502 15.5958 44.1875 18.1225C43.0322 18.8866 42.3921 20.2254 42.5229 21.6044C42.6538 22.9834 43.5341 24.178 44.8125 24.7113C42.4548 27.1206 41.1702 30.38 41.25 33.75C41.2421 35.6259 41.6182 37.4836 42.355 39.2088C42.3638 39.2313 42.3763 39.2525 42.3863 39.2738C43.4537 42.0763 45.8347 44.172 48.75 44.875V45C48.75 47.7614 46.5114 50 43.75 50C40.9886 50 38.75 47.7614 38.75 45V20C38.75 17.9289 37.0711 16.25 35 16.25C32.9289 16.25 31.25 17.9289 31.25 20V30C31.25 31.3807 30.1307 32.5 28.75 32.5H27.5V23.75C27.4934 22.1665 26.4929 20.7578 25 20.23V11.25C25 5.03681 19.9632 1.03726e-05 13.75 1.03726e-05C7.5368 1.03726e-05 2.5 5.03681 2.5 11.25V20.23C1.00706 20.7578 0.00656424 22.1665 0 23.75V48.75C0.00656424 50.3335 1.00706 51.7422 2.5 52.27V58.75C2.50895 66.3402 8.6598 72.4911 16.25 72.5H51.365C51.8585 72.4993 52.3411 72.6455 52.7513 72.92L54.6113 74.16C55.4321 74.7088 56.3976 75.0012 57.385 75H68.6163C70.482 75.0239 72.0966 73.7073 72.4488 71.875C72.5905 71.0182 72.4325 70.1388 72.0013 69.385C72.9001 68.8297 73.5181 67.916 73.6988 66.875C73.8405 66.0182 73.6825 65.1388 73.2513 64.385C74.1501 63.8297 74.7681 62.916 74.9488 61.875C75.1304 60.7841 74.8227 59.6686 74.1075 58.825L74.0438 58.75C75.0295 57.6479 75.2756 56.0695 74.6722 54.7197C74.0688 53.3698 72.7286 52.5005 71.25 52.5ZM42.6125 11.25H43.75C44.4404 11.25 45 10.6904 45 10C45 9.30966 44.4404 8.75001 43.75 8.75001H42.6125C42.8002 7.63669 43.2383 6.58054 43.8938 5.66126L44.6963 6.46376C45.0101 6.78871 45.4749 6.91903 45.9119 6.80463C46.3489 6.69024 46.6902 6.34893 46.8046 5.9119C46.919 5.47486 46.7887 5.0101 46.4638 4.69626L45.6613 3.89376C46.5805 3.2383 47.6367 2.80019 48.75 2.61251V3.75001C48.75 4.44037 49.3096 5.00001 50 5.00001C50.6904 5.00001 51.25 4.44037 51.25 3.75001V2.61251C52.3633 2.80019 53.4195 3.2383 54.3388 3.89376L53.5363 4.69626C53.2113 5.0101 53.081 5.47486 53.1954 5.9119C53.3098 6.34893 53.6511 6.69024 54.0881 6.80463C54.5252 6.91903 54.9899 6.78871 55.3038 6.46376L56.1063 5.66126C56.7617 6.58054 57.1998 7.63669 57.3875 8.75001H56.25C55.5596 8.75001 55 9.30966 55 10C55 10.6904 55.5596 11.25 56.25 11.25H57.3875C57.1998 12.3633 56.7617 13.4195 56.1063 14.3388L55.3038 13.5363C54.8133 13.0625 54.0337 13.0693 53.5515 13.5515C53.0693 14.0337 53.0625 14.8133 53.5363 15.3038L54.3388 16.1063C51.7447 17.9646 48.2553 17.9646 45.6613 16.1063L46.4638 15.3038C46.9375 14.8133 46.9307 14.0337 46.4485 13.5515C45.9664 13.0693 45.1867 13.0625 44.6963 13.5363L43.8938 14.3388C43.2383 13.4195 42.8002 12.3633 42.6125 11.25ZM46.25 22.5C45.5596 22.5 45 21.9404 45 21.25C45 20.5597 45.5596 20 46.25 20H53.75C54.4404 20 55 20.5597 55 21.25C55 21.9404 54.4404 22.5 53.75 22.5H46.25ZM45.635 40H47.5C48.1904 40 48.75 39.4404 48.75 38.75C48.75 38.0597 48.1904 37.5 47.5 37.5H44.3613C44.088 36.6896 43.9068 35.851 43.8213 35H47.5C48.1904 35 48.75 34.4404 48.75 33.75C48.75 33.0597 48.1904 32.5 47.5 32.5H43.8213C43.9068 31.649 44.088 30.8104 44.3613 30H47.5C48.1904 30 48.75 29.4404 48.75 28.75C48.75 28.0597 48.1904 27.5 47.5 27.5H45.635C46.5437 25.9517 48.2047 25.0006 50 25.0006C51.7953 25.0006 53.4563 25.9517 54.365 27.5H52.5C51.8096 27.5 51.25 28.0597 51.25 28.75C51.25 29.4404 51.8096 30 52.5 30H55.6388C55.9121 30.8104 56.0932 31.649 56.1788 32.5H52.5C51.8096 32.5 51.25 33.0597 51.25 33.75C51.25 34.4404 51.8096 35 52.5 35H56.1788C56.0932 35.851 55.9121 36.6896 55.6388 37.5H52.5C51.8096 37.5 51.25 38.0597 51.25 38.75C51.25 39.4404 51.8096 40 52.5 40H54.365C53.4563 41.5484 51.7953 42.4994 50 42.4994C48.2047 42.4994 46.5437 41.5484 45.635 40ZM13.75 2.50001C18.5802 2.50552 22.4945 6.4198 22.5 11.25V20H5V11.25C5.00551 6.4198 8.91979 2.50552 13.75 2.50001ZM2.5 23.75C2.5 23.0597 3.05964 22.5 3.75 22.5H23.75C24.4404 22.5 25 23.0597 25 23.75V48.75C25 49.4404 24.4404 50 23.75 50H3.75C3.05964 50 2.5 49.4404 2.5 48.75V23.75ZM71.25 60C71.6201 59.9995 71.9714 60.163 72.2093 60.4465C72.4472 60.73 72.5473 61.1044 72.4825 61.4688C72.3289 62.0928 71.7585 62.5234 71.1163 62.5H70C69.3097 62.5 68.75 63.0597 68.75 63.75C68.75 64.4404 69.3097 65 70 65C70.3701 64.9995 70.7214 65.163 70.9593 65.4465C71.1972 65.73 71.2973 66.1044 71.2325 66.4688C71.0789 67.0928 70.5085 67.5234 69.8663 67.5H68.75C68.0597 67.5 67.5 68.0597 67.5 68.75C67.5 69.4404 68.0597 70 68.75 70C69.1201 69.9995 69.4714 70.163 69.7093 70.4465C69.9472 70.73 70.0473 71.1044 69.9825 71.4688C69.8289 72.0928 69.2585 72.5234 68.6163 72.5H57.385C56.8915 72.5007 56.4089 72.3545 55.9988 72.08L54.1388 70.84C53.3179 70.2912 52.3524 69.9988 51.365 70H16.25C10.0399 69.9924 5.00758 64.9601 5 58.75V52.5H22.5V53.75C22.5 55.8211 24.1789 57.5 26.25 57.5H50.75C52.234 57.502 53.6416 56.8426 54.59 55.7013L58.59 50.9C59.0631 50.3299 59.7654 50 60.5063 50H65C65.6904 50 66.25 50.5597 66.25 51.25V52.5H62.5C61.8096 52.5 61.25 53.0597 61.25 53.75C61.25 54.4404 61.8096 55 62.5 55H71.25C71.9404 55 72.5 55.5597 72.5 56.25C72.5 56.9404 71.9404 57.5 71.25 57.5C70.5597 57.5 70 58.0597 70 58.75C70 59.4404 70.5597 60 71.25 60Z" fill="#233877"/>
<path d="M50 11.25C50.3315 11.2499 50.6494 11.1182 50.8838 10.8838L52.1338 9.63376C52.4587 9.31992 52.589 8.85516 52.4746 8.41813C52.3602 7.98109 52.0189 7.63978 51.5819 7.52539C51.1448 7.41099 50.6801 7.54131 50.3662 7.86626L49.1162 9.11626C48.7589 9.47375 48.652 10.0113 48.8454 10.4783C49.0388 10.9454 49.4945 11.2499 50 11.25Z" fill="#233877"/>
<path d="M6.25 47.5C6.94036 47.5 7.5 46.9404 7.5 46.25V26.25C7.5 25.5596 6.94036 25 6.25 25C5.55964 25 5 25.5596 5 26.25V46.25C5 46.9404 5.55964 47.5 6.25 47.5Z" fill="#233877"/>
<path d="M21.25 47.5C21.9404 47.5 22.5 46.9404 22.5 46.25V26.25C22.5 25.5596 21.9404 25 21.25 25C20.5596 25 20 25.5596 20 26.25V46.25C20 46.9404 20.5596 47.5 21.25 47.5Z" fill="#233877"/>
<path d="M11.25 35H16.25C16.9404 35 17.5 34.4404 17.5 33.75C17.5 33.0596 16.9404 32.5 16.25 32.5H11.25C10.5596 32.5 10 33.0596 10 33.75C10 34.4404 10.5596 35 11.25 35Z" fill="#233877"/>
<path d="M15 37.5H12.5C11.8096 37.5 11.25 38.0596 11.25 38.75C11.25 39.4404 11.8096 40 12.5 40H15C15.6904 40 16.25 39.4404 16.25 38.75C16.25 38.0596 15.6904 37.5 15 37.5Z" fill="#233877"/>
</g>
<defs>
<clipPath id="clip0_1_79">
<rect width="75" height="75" fill="white"/>
</clipPath>
</defs>
</svg>
