<svg width="75" height="75" viewBox="0 0 75 75" fill="none" xmlns="http://www.w3.org/2000/svg">
<path d="M15.3699 48.9089C14.8834 47.6563 14.4087 46.5248 13.9187 45.4494C11.4034 39.9337 9.08131 32.3852 12.7091 26.7434C17.5075 19.2813 30.7197 17.71 37.5948 22.91C37.4402 23.118 37.2911 23.3298 37.1474 23.5452L30.5485 25.7221L24.1118 22.8466C23.5578 22.5989 22.9078 22.8476 22.6606 23.4016C22.4131 23.9556 22.6616 24.6053 23.2154 24.8528L27.4497 26.7445C27.4497 26.7445 25.4851 27.3967 25.426 27.4279L14.0719 33.1049C13.5293 33.3762 13.3093 34.0361 13.5806 34.5788C14.0042 35.1609 14.4955 35.3247 15.0545 35.0701L18.5528 33.3209L18.024 37.3573C17.9452 37.9589 18.369 38.5106 18.9706 38.5894C19.5123 38.659 19.9231 38.3435 20.2027 37.6428L20.9243 32.1353L25.7215 29.7366L29.1519 33.1668L27.231 37.0088C26.9596 37.5516 27.1796 38.2115 27.7223 38.4828C28.2813 38.7374 28.7726 38.5736 29.1963 37.9915L31.4713 33.4414C31.6828 33.0185 31.5999 32.5075 31.2656 32.1732L27.9768 28.8845C30.5411 28.0386 33.1055 27.1926 35.6698 26.3467C35.1839 27.5511 34.7709 28.7892 34.3381 30.0132C34.1326 30.584 34.429 31.2135 35 31.419C35.5598 31.6075 36.0284 31.3869 36.4056 30.7572C38.7142 23.6747 42.6188 19.7319 50.1448 17.7412L51.1321 22.0206C45.3583 23.5566 42.2511 26.7475 40.5407 32.2449C40.3352 32.8157 40.6316 33.4452 41.2026 33.6507C41.7624 33.8392 42.231 33.6186 42.6082 32.9889L43.6143 30.1932C46.3825 35.3515 47.4724 41.2645 47.3562 47.0763L44.3748 48.2972C43.8133 48.5272 43.5445 49.1688 43.7745 49.7303C44.1694 50.3433 44.6471 50.5434 45.2076 50.3306L47.2579 49.4909C47.2421 49.7477 47.2245 50.0036 47.2053 50.2583C47.1596 50.8633 47.6131 51.3908 48.2181 51.4365C48.7509 51.4768 49.1436 51.1392 49.3963 50.4237C49.4424 49.8111 49.4792 49.1922 49.5066 48.57L55.0559 46.2974L55.0913 49.2177C55.2664 50.133 55.7996 50.4545 56.6908 50.1822L65.7677 45.5323C66.3078 45.2556 66.5212 44.5937 66.2445 44.0536C65.9679 43.5133 65.3057 43.3 64.7657 43.5766L57.2669 47.4182L57.2334 44.6549C57.0825 43.7858 56.5776 43.4514 55.7184 43.6515L49.5643 46.1717C49.5755 43.6563 49.3437 41.0594 48.8624 38.5986H57.7902C58.397 38.5986 58.8888 38.1067 58.8888 37.5V30.6753C58.8888 30.0686 58.397 29.5767 57.7902 29.5767H45.772C45.4786 29.0079 45.1691 28.4524 44.8439 27.9114C47.6298 24.4893 53.1098 23.6398 57.2832 23.0175C57.93 22.8335 58.2233 22.4065 58.1628 21.7367L56.9587 15.2562C56.8478 14.6597 56.2754 14.2658 55.678 14.3767C49.7145 15.4374 43.4669 16.7537 39.0296 21.2405C36.7305 19.4751 34.2043 18.3464 31.587 17.9074V13.812C31.587 13.2053 31.0953 12.7134 30.4884 12.7134C29.8815 12.7134 29.3898 13.2053 29.3898 13.812V17.7026C27.8586 17.6726 26.272 17.7838 24.7623 17.9873V6.74766H29.3898V9.0249C29.3898 9.63164 29.8815 10.1235 30.4884 10.1235C31.0953 10.1235 31.587 9.63164 31.587 9.0249V1.09863C31.587 0.491895 31.0953 0 30.4884 0H23.6637C23.0568 0 22.5651 0.491895 22.5651 1.09863V18.3675C21.7937 18.5319 21.0053 18.7342 20.2124 18.9817V10.1997C20.2124 9.59297 19.7206 9.10107 19.1137 9.10107H12.2876C11.728 9.10107 11.2576 9.52178 11.1957 10.078L8.91886 30.5142C7.91969 35.9054 9.70504 41.5053 11.9193 46.361C12.3919 47.3977 12.8504 48.4913 13.3216 49.7045C13.5412 50.2699 14.1778 50.5506 14.7434 50.3309C15.3091 50.1111 15.5896 49.4745 15.3699 48.9089ZM56.6915 36.4014H54.3381V31.7739H56.6915V36.4014ZM52.1407 31.7739V36.4014H48.3617C47.9442 34.801 47.4214 33.2521 46.7987 31.7739H52.1407ZM54.999 16.7377L55.8016 21.0579C55.8016 21.0579 53.3947 21.5057 53.2734 21.5294L52.2851 17.2458C52.4678 17.2093 54.999 16.7377 54.999 16.7377ZM29.3898 2.19727V4.55039H24.7623V2.19727H29.3898ZM11.8295 24.2341L12.7639 15.8479H18.0152V19.7896C15.4425 20.8912 13.3705 22.3803 11.8295 24.2341ZM18.0152 11.2983V13.6507H13.0087L13.2708 11.2983H18.0152Z" fill="#233877"/>
<path d="M38.7145 51.8155C39.1989 52.3125 39.7121 52.3822 40.2541 52.0248C40.737 51.6576 40.8309 50.9682 40.4635 50.4853L37.2719 46.2892L38.3085 37.6307C38.3805 37.0282 37.9506 36.4813 37.3481 36.4093C36.7464 36.3376 36.1987 36.767 36.1266 37.3695L35.6461 41.3827L32.1696 43.4525L26.3603 41.0357C25.8002 40.8026 25.157 41.0679 24.9239 41.6281C24.6908 42.1882 24.9561 42.8313 25.5163 43.0645L29.8165 44.8535L20.8261 50.2064C20.3048 50.5168 20.1337 51.191 20.4443 51.7124C20.8937 52.2623 21.3957 52.3897 21.9503 52.0942L26.3044 49.5018L27.1363 53.6417C27.4484 54.3223 27.8797 54.6092 28.4299 54.5023C29.0247 54.3828 29.41 53.8036 29.2906 53.2087L28.3062 48.3097L35.3164 44.1357L33.9705 55.3797L29.5058 64.3091C29.2343 64.8519 29.4544 65.5118 29.9971 65.7831C30.5561 66.0376 31.0474 65.8739 31.471 65.2918L35.3395 57.5549L38.8118 61.0272C39.3298 61.4562 39.8477 61.4562 40.3656 61.0272C40.7946 60.5981 40.7946 59.9024 40.3656 59.4735L36.1928 55.3009L36.8962 49.4251L38.7145 51.8155Z" fill="#233877"/>
<path d="M65.7677 59.6067L56.6908 54.9568C55.7996 54.6847 55.2664 55.0061 55.0913 55.9213L55.0559 58.8418L48.6399 56.2141C48.984 55.2246 49.0428 54.2019 47.9088 54.0097C47.0152 53.8584 46.6833 54.6927 46.5627 55.3635L45.2076 54.8085C44.6455 54.5782 44.0042 54.8473 43.7745 55.4087C43.5446 55.9702 43.8134 56.6118 44.3748 56.8418L46.1114 57.553C44.5157 64.3759 40.5186 72.8027 32.353 72.8027C23.3926 72.8027 20.9596 65.427 17.8793 56.089C17.5973 55.2344 17.3058 54.3508 17.0066 53.4651C16.8122 52.8901 16.1885 52.5819 15.6139 52.7761C15.0391 52.9704 14.7306 53.594 14.9249 54.1688C15.2217 55.0468 15.512 55.9266 15.7927 56.7774C18.5504 65.1372 21.9623 75 32.353 75C41.4123 75 46.2911 66.1264 48.1686 58.3956L55.7184 61.4874C56.5776 61.6877 57.0825 61.3532 57.2334 60.484L57.2669 57.7207L64.7657 61.5623C65.3243 61.8223 65.8172 61.6633 66.2445 61.0853C66.5211 60.5454 66.3076 59.8833 65.7677 59.6067Z" fill="#233877"/>
</svg>
