<svg width="75" height="75" viewBox="0 0 75 75" fill="none" xmlns="http://www.w3.org/2000/svg">
<path d="M39.0964 28.7825C39.6269 28.9367 40.2007 28.7245 40.5005 28.2519C45.4061 20.5242 51.1714 21.3248 53.9757 16.067C55.3749 13.4434 55.5728 10.2061 54.5638 6.44516C54.3849 5.77828 53.6989 5.38234 53.0327 5.56188C52.3658 5.74078 51.9703 6.42625 52.1493 7.09313C52.9885 10.2214 52.8608 12.845 51.7697 14.8906C49.8216 18.5434 45.4103 18.6123 40.6953 23.8648V1.25C40.6953 0.559688 40.1357 0 39.4453 0C38.755 0 38.1953 0.559688 38.1953 1.25V27.582C38.1952 28.1381 38.5625 28.6273 39.0964 28.7825Z" fill="#233877"/>
<path d="M68.8702 19.5508C68.3049 18.9105 67.68 18.3456 67.0085 17.8602C67.7524 16.4745 68.2074 14.9434 68.3345 13.3666C68.39 12.6784 67.8772 12.0755 67.1891 12.0202C66.5006 11.9625 65.8981 12.4775 65.8427 13.1655C65.7445 14.3816 65.397 15.5628 64.8295 16.6341C63.7795 16.192 62.6631 15.9156 61.5141 15.8186C62.1933 13.1767 61.9675 10.1564 60.841 6.52031C60.6366 5.86078 59.9364 5.49172 59.277 5.69625C58.6177 5.90063 58.2486 6.60078 58.453 7.26016C61.522 17.1663 56.7736 19.6267 50.3827 24.925C45.0249 29.362 39.155 35.3917 38.301 49.0364C38.256 49.7548 38.8256 50.3645 39.5497 50.3645C40.2042 50.3645 40.7545 49.855 40.7961 49.1927C41.5714 36.8081 46.6181 31.335 51.6678 27.1077C54.4869 26.9788 55.1111 28.6944 55.8886 32.7361C56.3377 35.0703 56.8375 37.6678 58.5305 39.3786C57.2072 41.437 56.8622 43.9495 57.6016 46.453C57.7622 46.9969 58.26 47.3492 58.7999 47.3492C59.6324 47.3492 60.2363 46.5477 59.9992 45.7448C59.4731 43.9631 59.708 42.1852 60.6303 40.7363C62.2155 41.3488 63.9372 41.3022 65.5924 40.9505C66.2677 40.807 66.6988 40.1433 66.5553 39.4681C66.4119 38.7928 65.748 38.362 65.0728 38.5052C63.3381 38.8736 61.9377 38.7375 60.9105 38.1008C58.7658 36.7714 58.6553 33.1642 57.8736 30.0442C59.4938 29.9067 61.1377 30.2127 62.6124 30.9438C63.231 31.2506 63.981 30.9977 64.2875 30.3792C64.5941 29.7608 64.3414 29.0106 63.7228 28.7041C61.641 27.6717 59.2935 27.3002 57.0139 27.6259C56.3914 26.4097 55.5028 25.5066 54.2469 25.0119C56.7981 22.9567 59.1639 20.9595 60.5674 18.2789C62.9174 18.2675 65.2319 19.2075 66.9964 21.2055C67.2435 21.4853 67.5878 21.6281 67.9339 21.6281C69.0014 21.6281 69.5828 20.3578 68.8702 19.5508Z" fill="#233877"/>
<path d="M7.34597 56.8894C11.4518 57.0301 15.8766 56.3417 18.7005 53.3536C23.4118 48.3681 21.0166 42.1417 31.8208 37.3053C32.2705 37.1041 32.56 36.6573 32.56 36.1644V24.5917C32.56 23.9014 32.0004 23.3417 31.31 23.3417C30.6197 23.3417 30.06 23.9014 30.06 24.5917V35.3653C27.0297 36.8126 24.9752 38.3869 23.4982 39.9994C22.2625 38.9616 20.8477 38.397 19.2816 38.4989C19.098 36.3887 18.1125 34.4001 16.4494 32.8744C15.9408 32.4076 15.1502 32.4414 14.6833 32.9503C14.2166 33.4591 14.2507 34.2497 14.7594 34.7164C16.0719 35.9206 16.7989 37.5126 16.815 39.1695C14.903 40.0323 13.4244 41.2875 11.5153 40.9695C10.5383 40.8069 9.59113 40.2576 8.70019 39.3373C8.22004 38.8411 7.42879 38.8281 6.93269 39.3084C6.4366 39.7884 6.42363 40.5798 6.90379 41.0759C8.08957 42.3011 9.39925 43.0737 10.8008 43.3772C10.5061 44.0891 10.0174 44.6539 9.3366 45.062C8.74441 45.4169 8.55222 46.1848 8.90722 46.7769C9.26285 47.3701 10.0314 47.5606 10.6221 47.2062C12.0668 46.3403 13.0193 45.0309 13.4189 43.387C16.908 42.6614 18.9805 39.3711 21.9614 41.9712C19.5922 45.5719 19.32 49.058 16.8833 51.6364C15.0132 53.6153 11.8333 54.5422 7.43144 54.3909C6.74254 54.3669 6.163 54.9073 6.13925 55.5973C6.11582 56.2872 6.65597 56.8656 7.34597 56.8894Z" fill="#233877"/>
<path d="M31.0805 44.9938C24.9207 46.1453 25.3089 55.1509 19.7702 59.2372C16.9257 61.3359 12.8469 61.8416 7.30066 60.7833C6.62238 60.6534 5.96785 61.0988 5.83848 61.7769C5.7091 62.455 6.15394 63.1095 6.83207 63.2389C10.591 63.9561 14.7533 64.1888 18.331 62.8288C18.2971 65.9299 16.403 68.6323 13.3469 69.702C12.6954 69.9302 12.3521 70.6431 12.58 71.2947C12.8083 71.9472 13.5216 72.2892 14.1729 72.0616C15.5858 71.567 16.82 70.812 17.8369 69.8359C19.9033 71.672 22.423 71.1736 23.8675 71.3773C23.9161 71.3881 23.9646 71.3964 24.0136 71.4013C24.7713 71.5473 25.0514 71.9611 25.1993 73.2608C25.2766 73.9405 25.8883 74.4391 26.5825 74.3617C27.2685 74.2836 27.7613 73.6644 27.6833 72.9784C27.4716 71.1156 26.7835 70.0952 25.9274 69.5308C26.4969 68.2838 26.7636 66.9163 26.7024 65.5047C26.6724 64.8152 26.0907 64.2772 25.3993 64.3102C24.7096 64.34 24.1747 64.9236 24.2046 65.6133C24.2543 66.7577 24.0052 67.8597 23.4816 68.8397C21.9574 68.7452 20.5093 68.9441 19.4036 67.8789C20.5688 65.9525 21.003 63.7334 20.7661 61.5819C27.2425 57.2788 27.1354 48.2744 31.54 47.4506C32.2186 47.3238 32.666 46.6709 32.5391 45.9922C32.4121 45.3142 31.7593 44.8655 31.0805 44.9938Z" fill="#233877"/>
<path d="M31.3102 53.1456C30.6199 53.1456 30.0602 53.7053 30.0602 54.3956V73.75C30.0602 74.4403 30.6199 75 31.3102 75C32.0005 75 32.5602 74.4403 32.5602 73.75V54.3956C32.5602 53.7053 32.0005 53.1456 31.3102 53.1456Z" fill="#233877"/>
<path d="M52.474 45.0963C51.0313 42.5974 47.4235 42.5938 45.9788 45.0963L35.9496 62.4674C34.6824 64.6624 35.9158 67.3388 38.1954 67.9591V73.75C38.1954 74.4403 38.755 75 39.4454 75C40.1357 75 40.6954 74.4403 40.6954 73.75V68.0924H41.0986C41.789 68.0924 42.3486 67.5327 42.3486 66.8424C42.3486 66.152 41.789 65.5924 41.0986 65.5924H39.1974C38.2336 65.5924 37.6338 64.5505 38.1149 63.7174L48.1441 46.3463C48.626 45.5117 49.8282 45.5131 50.3091 46.3463L60.3383 63.7174C60.8202 64.5519 60.2177 65.5924 59.2558 65.5924H47.55C46.8597 65.5924 46.3 66.152 46.3 66.8424C46.3 67.5327 46.8597 68.0924 47.55 68.0924H59.2555C62.1411 68.0924 63.9479 64.9699 62.5032 62.4674L52.474 45.0963Z" fill="#233877"/>
<path d="M49.2263 58.0219C49.9166 58.0219 50.4763 57.4622 50.4763 56.7719V51.797C50.4763 51.1067 49.9166 50.547 49.2263 50.547C48.536 50.547 47.9763 51.1067 47.9763 51.797V56.7719C47.9763 57.4622 48.536 58.0219 49.2263 58.0219Z" fill="#233877"/>
<path d="M47.9763 62.1397C47.9763 62.83 48.536 63.3897 49.2263 63.3897C49.9166 63.3897 50.4763 62.83 50.4763 62.1397V61.5147C50.4763 60.8244 49.9166 60.2647 49.2263 60.2647C48.536 60.2647 47.9763 60.8244 47.9763 61.5147V62.1397Z" fill="#233877"/>
<path d="M16.4904 20.3125C22.4486 21.9647 26.1097 15.0172 30.4299 19.3019C31.1864 20.0492 32.4543 19.5714 32.5541 18.5356C32.5633 18.4397 32.5602 19.4316 32.5602 1.25C32.5602 0.559688 32.0005 0 31.3102 0C30.6199 0 30.0602 0.559688 30.0602 1.25V15.9972C29.0436 15.5131 27.9907 15.3206 26.8799 15.4006C26.6944 14.6088 26.3894 13.8664 25.9358 13.1559C27.2185 11.7184 27.7847 9.74719 27.4299 7.75922C27.3086 7.07938 26.6593 6.6275 25.9797 6.74813C25.3 6.86938 24.8475 7.51891 24.9688 8.19828C25.17 9.32594 24.893 10.4405 24.236 11.2916C23.1375 10.4256 22.0694 10.0386 21.7427 9.93375C21.0854 9.72313 20.3816 10.0847 20.1705 10.742C19.9594 11.3994 20.3214 12.1033 20.9788 12.3142C21.3793 12.4428 23.4193 13.192 24.2479 15.3264C24.3285 15.5341 24.391 15.748 24.4422 15.9648C21.8632 16.9133 19.6641 18.5981 17.1585 17.9034C16.0893 17.607 15.0969 16.9261 14.2091 15.8798C13.7624 15.3533 12.9735 15.2888 12.4472 15.7355C11.9208 16.182 11.8563 16.9709 12.3029 17.4972C13.5205 18.9325 14.9294 19.8797 16.4904 20.3125Z" fill="#233877"/>
</svg>
