<svg width="75" height="75" viewBox="0 0 75 75" fill="none" xmlns="http://www.w3.org/2000/svg">
<path d="M17.325 56.6473V71.4844C17.325 72.1312 17.85 72.6562 18.4969 72.6562H24.4242C25.0711 72.6562 25.5961 72.1312 25.5961 71.4844V64.0418C31.5938 68.5816 38.6496 72.6562 40.7004 72.6562C43.8856 72.6562 56.1844 68.2148 59.482 54.1102C61.9793 43.4203 59.3602 39.5109 57.7676 38.1809C59.3883 32.9391 57.4535 29.407 55.7274 27.4652C58.0278 27.4781 59.9004 28.3617 59.925 28.3746C60.2426 28.5305 60.6141 28.534 60.9363 28.3828C61.2574 28.2328 61.493 27.9445 61.5774 27.6L63.0574 21.5555C63.2039 20.9613 62.8664 20.3543 62.284 20.1633C60.4746 19.5703 58.7766 19.132 57.1629 18.8027C57.0317 16.2457 56.0742 14.7234 55.4238 13.9805L56.6531 7.94297C56.7539 7.44844 56.5266 6.94453 56.0895 6.69375L52.0195 4.35C51.7184 4.17656 51.3563 4.14492 51.0317 4.26563C50.7059 4.38516 50.4492 4.64297 50.3321 4.96875L48.4207 10.2797L46.5633 10.1004V3.51562C46.5633 2.86875 46.0383 2.34375 45.3914 2.34375H40.3348C39.7582 2.34375 39.2672 2.76211 39.177 3.33164L38.0625 10.3512C36.2731 10.9031 34.8832 11.8863 33.784 13.0605C33.3035 11.3672 32.5031 8.69648 31.2188 4.41328C31.057 3.87539 30.5309 3.51563 29.9766 3.58359L23.9321 4.2C23.5629 4.2375 23.2336 4.44844 23.0438 4.76719C22.8539 5.08594 22.827 5.47734 22.9711 5.81953C23.7106 7.5832 25.4367 12.7172 24.5485 15.2613C24.3188 15.9187 23.0895 16.9969 21.7875 18.1383C17.6637 21.7523 10.8281 27.7734 13.9219 38.632C12.7465 40.5129 11.9074 42.9668 11.9074 46.1977C11.9074 49.2141 13.7403 52.732 17.325 56.6496V56.6473ZM23.2524 70.3125H19.6688V59.0461C20.7586 60.0832 21.9563 61.1379 23.2524 62.2008V70.3125ZM39.3586 12.4301C39.8262 12.3246 40.1824 11.9438 40.2586 11.4703L41.3356 4.6875H44.2196V11.1633C44.2196 11.7668 44.6778 12.2719 45.2789 12.3293L49.1028 12.6996C49.6336 12.7547 50.1363 12.4348 50.318 11.9309L52.0641 7.08047L54.1887 8.30391L53.0004 14.1375C52.9113 14.5758 53.1 15.0422 53.4539 15.3152C53.5055 15.3551 54.5238 16.1918 54.7758 18.3914C45.1711 17.066 39.2942 20.277 35.959 23.4281C35.1832 23.1586 33.8156 22.7215 32.2617 22.391C32.6051 19.916 33.9961 13.6406 39.3563 12.4312L39.3586 12.4301ZM23.3332 19.9008C25.0078 18.4336 26.3297 17.2746 26.7633 16.0336C27.7758 13.1309 26.5078 8.69531 25.6922 6.37617L29.2524 6.01289C30.2742 9.42422 31.643 14.0262 32.0426 15.45C30.682 17.8805 30.1477 20.5055 29.9414 22.023C29.6356 21.9926 29.3309 21.968 29.0297 21.9574C28.3641 21.927 27.8379 22.4391 27.8145 23.0848C27.791 23.7316 28.2961 24.2754 28.9418 24.3C30.7793 24.368 32.8348 24.9 34.2094 25.323C32.8195 27.0621 32.2336 28.4414 32.2149 28.4883C31.9735 29.0871 32.2641 29.7668 32.8629 30.0094C33.4582 30.252 34.1438 29.9625 34.3887 29.3648C34.4672 29.1738 35.1633 27.5531 36.8461 25.7414C36.9774 25.6559 37.084 25.5375 37.1742 25.4027C40.568 21.9609 47.5242 18.1125 60.5203 22.0652L59.6168 25.7531C57.8555 25.1895 54.6235 24.5531 51.5063 26.0086C48.4172 27.4512 46.2668 30.5367 45.116 35.182C44.9602 35.8102 45.3434 36.4453 45.9715 36.6012C46.0664 36.6246 46.1613 36.6352 46.2539 36.6352C46.7801 36.6352 47.2582 36.2789 47.3906 35.7445C48.3598 31.8305 50.0731 29.2723 52.4813 28.1402C52.616 28.077 52.752 28.0277 52.8879 27.975C54.1289 28.9148 57.5391 32.1668 55.2656 38.2547C55.0524 38.8277 55.3512 39.484 55.9043 39.743C55.9453 39.7617 59.9531 41.7832 57.1981 53.5781C54.2637 66.1277 43.3629 70.3137 40.7039 70.3137C39.5449 70.2609 32.2817 66.4852 25.1578 60.7348C22.902 58.9113 20.9485 57.1184 19.3512 55.4051C17.7539 53.6918 19.3512 55.4039 19.3512 55.4027C16.0137 51.8402 14.25 48.6574 14.25 46.1988C14.25 37.0781 21.8696 35.3191 22.1906 35.25C22.8246 35.1176 23.2301 34.4953 23.0965 33.8625C22.9641 33.2297 22.3442 32.8254 21.709 32.9566C21.6539 32.9684 18.4887 33.6809 15.7699 36.3246C14.1621 27.9598 19.4086 23.3402 23.3309 19.9031L23.3332 19.9008Z" fill="#233877"/>
<path d="M38.2137 65.7328C38.7023 66.0094 38.9777 66.1606 38.9777 66.1606C39.1558 66.259 39.3492 66.3059 39.5402 66.3059C39.9539 66.3059 40.3558 66.0856 40.568 65.6977C40.8797 65.1305 40.6723 64.418 40.1039 64.1074C40.1004 64.1051 39.8355 63.9598 39.3715 63.6949C38.8078 63.3762 38.0953 63.5731 37.773 64.1344C37.4543 64.6969 37.6523 65.4129 38.2137 65.7328Z" fill="#233877"/>
<path d="M20.8312 49.8973C18.8473 47.0109 19.0406 45.7523 19.0699 45.6176C19.309 45.0656 19.0898 44.4117 18.5508 44.1211C17.9801 43.8129 17.2699 44.0262 16.9629 44.5957C16.6922 45.0973 16.0336 47.0555 18.8988 51.225C21.5566 55.091 28.4297 59.802 33.7277 63.0738C33.9199 63.1922 34.132 63.2484 34.3418 63.2484C34.7344 63.2484 35.1187 63.0516 35.3402 62.6918C35.6801 62.141 35.509 61.4191 34.9582 61.0793C27.7406 56.6227 22.7238 52.6512 20.8312 49.8973Z" fill="#233877"/>
</svg>
