<svg width="75" height="75" viewBox="0 0 75 75" fill="none" xmlns="http://www.w3.org/2000/svg">
<path d="M60.5621 38.6742C60.5621 36.5826 59.1377 34.9997 57.881 33.6031C57.2735 32.9281 56.6997 32.2904 56.3382 31.6655C55.9546 31.0025 55.6736 30.1601 55.3762 29.2683C54.7884 27.5057 54.1222 25.5078 52.3833 24.5016C50.7522 23.5579 47.7564 23.4845 46.8772 23.4845H41.85C41.2433 23.4845 40.7514 23.9764 40.7514 24.5832C40.7514 25.19 41.2433 25.6818 41.85 25.6818H44.274V35.7384C44.274 37.8675 44.9776 39.9782 46.2551 41.6815C47.2493 43.0072 47.7967 44.6496 47.7967 46.3065V51.1355L41.0731 57.8591C40.644 58.2882 40.644 58.9837 41.0731 59.4127C41.2875 59.6272 41.5688 59.7344 41.8499 59.7344C42.131 59.7344 42.4122 59.6272 42.6267 59.4127L47.7966 54.2427V64.507C47.7966 65.1138 48.2884 65.6057 48.8952 65.6057C49.5019 65.6057 49.9938 65.1138 49.9938 64.507V46.3063C49.9938 44.1772 49.2903 42.0665 48.0128 40.363C47.0186 39.0375 46.4712 37.3951 46.4712 35.7381V33.1069L49.2926 35.9284C49.5071 36.1428 49.7883 36.2502 50.0694 36.2502C50.3505 36.2502 50.6318 36.143 50.8462 35.9284C51.2753 35.4993 51.2753 34.8038 50.8462 34.3748L46.471 29.9996V25.6819H46.8769C48.7365 25.6819 50.5481 25.9787 51.2826 26.4037C52.3009 26.9928 52.7822 28.4358 53.2916 29.9637C53.6107 30.9204 53.9406 31.9097 54.4361 32.7661C54.9126 33.5896 55.5911 34.3438 56.2475 35.073C57.3364 36.2829 58.3647 37.4257 58.3647 38.6742C58.3647 40.2145 57.9214 40.916 57.3604 41.8041C56.7303 42.8013 56.0162 43.9312 56.0162 46.1077C56.0162 48.2852 56.7302 49.4159 57.3601 50.4136C57.9214 51.3025 58.3647 52.0044 58.3647 53.5463C58.3647 54.3163 58.2516 54.9423 58.0084 55.5166C57.4654 56.7996 57.1902 58.2904 57.1903 59.9473V60.9835C57.1906 64.1405 55.9616 67.1084 53.7295 69.3409C51.4973 71.5733 48.5297 72.8027 45.3727 72.8027C41.3306 72.8027 37.3929 72.0545 33.6695 70.5788C33.188 70.3881 32.747 70.0707 32.3587 69.6359C31.4653 68.6353 30.7073 67.9355 30.1053 67.556C29.0936 66.9182 27.863 66.8511 26.6728 66.7863C25.6919 66.7329 24.6775 66.6776 24.1902 66.2684C23.6832 65.8425 23.4422 64.8327 23.2092 63.8562C22.9415 62.7347 22.665 61.5751 21.9261 60.6957C21.19 59.8192 20.098 59.3476 19.0421 58.8916C18.1181 58.4924 17.1626 58.0797 16.8289 57.5029C16.5018 56.9376 16.6191 55.911 16.7326 54.9182C16.864 53.7688 17 52.5804 16.6043 51.4937C16.4819 51.1573 16.2347 50.7771 15.8268 50.2972C14.9282 49.2398 14.3287 47.9861 14.093 46.6714C13.8251 45.1778 13.6657 43.652 13.6135 42.1217H19.5396C19.5649 42.1217 19.5898 42.12 19.6152 42.1198V52.7656C19.6152 53.3723 20.1071 53.8642 20.7138 53.8642C21.3205 53.8642 21.8124 53.3723 21.8124 52.7656V48.3724L24.634 51.1938C24.8485 51.4084 25.1297 51.5156 25.4108 51.5156C25.6919 51.5156 25.9732 51.4084 26.1876 51.1938C26.6167 50.7647 26.6167 50.0691 26.1876 49.6402L21.8124 45.265V41.7965C25.2002 40.8101 27.6837 37.6794 27.6837 33.9776C27.6837 33.3709 27.1918 32.879 26.585 32.879C25.9783 32.879 25.4864 33.3709 25.4864 33.9776C25.4864 37.2567 22.8186 39.9245 19.5396 39.9245H13.5926V33.9776C13.5926 28.5063 17.0023 23.6823 22.0329 21.8068C21.9878 22.3354 21.9635 22.8696 21.9635 23.4095V25.758C21.9635 28.3062 24.0366 30.3792 26.5849 30.3792C29.1331 30.3792 31.2062 28.3061 31.2062 25.758V23.4095C31.2062 18.1879 35.4542 13.9399 40.6757 13.9399H50.0696C50.1113 13.9399 50.1451 13.9737 50.1451 14.0156V18.7125C50.1451 18.7541 50.1113 18.7881 50.0696 18.7881H40.6757C38.1274 18.7881 36.0544 20.8613 36.0544 23.4095V26.9322C36.0544 27.5391 36.5463 28.0308 37.153 28.0308C37.7597 28.0308 38.2516 27.5391 38.2516 26.9322V23.4095C38.2516 22.0729 39.339 20.9854 40.6757 20.9854H50.0696C51.3229 20.9854 52.3424 19.9658 52.3424 18.7125V14.0153C52.3424 12.762 51.3229 11.7423 50.0696 11.7423H40.6757C34.2425 11.7423 29.0089 16.9761 29.0089 23.4092V25.7577C29.0089 27.0943 27.9216 28.1817 26.5849 28.1817C25.2482 28.1817 24.1607 27.0943 24.1607 25.7577V23.4092C24.1607 14.3029 31.5693 6.89429 40.6757 6.89429C49.782 6.89429 57.1906 14.3029 57.1906 23.4092V25.7577C57.1906 26.3644 57.6825 26.8563 58.2892 26.8563C58.896 26.8563 59.3879 26.3644 59.3879 25.7577V23.4092C59.3879 15.2251 54.1062 8.2522 46.7728 5.71787L47.6091 2.55366C47.7642 1.96699 47.4142 1.36582 46.8277 1.21084C46.2407 1.05557 45.6399 1.40581 45.4849 1.99219L44.657 5.12476C43.72 4.92085 42.7573 4.7874 41.7744 4.73013V1.09863C41.7744 0.491895 41.2825 0 40.6758 0C40.0691 0 39.5772 0.491895 39.5772 1.09863V4.73013C38.5943 4.7874 37.6316 4.92085 36.6947 5.12476L35.8667 1.99219C35.7117 1.40566 35.1101 1.05557 34.5239 1.21084C33.9374 1.36582 33.5874 1.96714 33.7426 2.55366L34.5788 5.71787C30.8089 7.02085 27.5817 9.49658 25.3352 12.7072V10.4925C25.3352 9.23921 24.3157 8.21968 23.0624 8.21968H20.7139C19.4606 8.21968 18.4411 9.23921 18.4411 10.4925V21.1515C14.1437 23.8803 11.3956 28.6679 11.3956 33.9773V41.0228C11.3956 43.0496 11.5755 45.0804 11.9303 47.059C12.2345 48.7554 13.003 50.367 14.1525 51.7198C14.4718 52.0956 14.5393 52.2454 14.5398 52.2454C14.7582 52.8453 14.6521 53.7721 14.5496 54.6686C14.4027 55.9532 14.2361 57.4093 14.9269 58.6033C15.6245 59.8088 16.9773 60.3932 18.1708 60.9086C18.9923 61.2634 19.8418 61.6304 20.2437 62.1089C20.6483 62.5907 20.8636 63.4934 21.0719 64.3663C21.3731 65.6282 21.7143 67.0585 22.777 67.951C23.8259 68.832 25.2749 68.9108 26.5532 68.9805C27.4634 69.03 28.4044 69.0813 28.9335 69.4148C29.3438 69.6735 29.9949 70.2876 30.7197 71.0994C31.3377 71.7917 32.0578 72.3038 32.86 72.6217C36.8422 74.1998 41.0521 75 45.3727 75C49.1165 75 52.6363 73.5419 55.2835 70.8945C57.9308 68.2471 59.3883 64.727 59.3879 60.9833V59.947C59.3877 58.5858 59.6045 57.3833 60.0321 56.3729C60.3938 55.5185 60.5621 54.6205 60.5621 53.5463C60.5621 51.369 59.8481 50.2381 59.2182 49.2406C58.6569 48.3517 58.2136 47.6496 58.2136 46.1079C58.2136 44.5674 58.6569 43.8661 59.2179 42.9781C59.848 41.9807 60.5621 40.8507 60.5621 38.6742ZM20.6381 10.4925C20.6381 10.4509 20.6719 10.4169 20.7136 10.4169H23.0621C23.1038 10.4169 23.1377 10.4509 23.1377 10.4925V16.885C22.8371 17.6902 22.591 18.5215 22.4029 19.3745C21.7965 19.5476 21.2077 19.7562 20.6381 19.9979V10.4925Z" fill="#233877"/>
<path d="M63.1884 45.4866C63.912 44.3417 65.2591 42.2103 65.2591 38.6742C65.2591 36.467 64.4919 34.378 62.9137 32.2881C62.5481 31.804 61.8592 31.7079 61.3749 32.0735C60.8906 32.4391 60.7945 33.128 61.1602 33.6123C62.4576 35.3303 63.0618 36.9388 63.0618 38.6742C63.0618 41.5742 62.0203 43.2223 61.3308 44.3133C60.8212 45.1204 60.7134 45.3187 60.7134 46.1079C60.7134 46.8993 60.8215 47.0981 61.3327 47.907C62.0213 48.998 63.062 50.6467 63.062 53.546C63.062 54.9473 62.8238 56.1908 62.3335 57.3482C62.0377 58.0472 61.8877 58.9216 61.8877 59.947V60.9831C61.8879 62.671 61.637 64.3327 61.1416 65.9221C60.9609 66.5014 61.2842 67.1172 61.8634 67.2979C61.9723 67.3318 62.0824 67.3479 62.1907 67.3479C62.6587 67.3479 63.0926 67.0463 63.2392 66.576C63.8007 64.7747 64.0852 62.8931 64.085 60.9831V59.9471C64.085 59.2277 64.1791 58.6252 64.3569 58.2048C64.9641 56.7715 65.2592 55.2476 65.2592 53.546C65.2592 50.0112 63.9136 47.8794 63.1898 46.7325C63.0708 46.5438 62.9572 46.3645 62.9121 46.2797C62.9104 46.1908 62.9104 46.0271 62.9121 45.9379C62.9571 45.8531 63.07 45.6743 63.1884 45.4866Z" fill="#233877"/>
<path d="M24.4972 71.2958C23.1396 71.0735 22.0509 70.6053 21.1692 69.8648C20.2753 69.1138 19.2766 67.9454 18.6464 64.9733C18.4761 64.1701 17.9562 63.542 17.1823 63.2045L17.1448 63.1881C15.7604 62.5846 13.8643 61.7579 12.763 59.8532C11.8948 58.3538 11.8784 56.7636 11.9417 55.6977C11.9868 54.9376 11.9339 54.202 11.7845 53.5115C11.6474 52.8775 11.3915 52.2504 11.0022 51.594C10.4571 50.6754 10.034 49.6958 9.74444 48.683C9.5776 48.0996 8.96939 47.762 8.38624 47.9286C7.80279 48.0955 7.46515 48.7037 7.63199 49.287C7.9733 50.4808 8.47149 51.6343 9.11251 52.715C9.37911 53.1644 9.55079 53.5769 9.63707 53.976C9.74415 54.4712 9.78165 55.0068 9.7484 55.5674C9.66842 56.9162 9.69654 58.9422 10.8614 60.9535C12.324 63.4831 14.7921 64.5592 16.2668 65.2019L16.3042 65.2182C16.4421 65.2784 16.4775 65.3363 16.4969 65.4287C16.7578 66.6593 17.369 69.5414 19.7561 71.5469C20.949 72.5487 22.3837 73.1757 24.1421 73.4638C24.2023 73.4736 24.2619 73.4785 24.3211 73.4785C24.8496 73.4785 25.3157 73.0958 25.4039 72.5572C25.5018 71.9588 25.096 71.394 24.4972 71.2958Z" fill="#233877"/>
<path d="M68.2698 46.159C68.2547 46.1287 68.2538 46.0916 68.2673 46.0644C69.1697 44.2485 69.7163 42.2771 69.892 40.205C69.9432 39.6004 69.4947 39.0687 68.8902 39.0174C68.2844 38.9663 67.7539 39.4147 67.7026 40.0192C67.5482 41.84 67.0893 43.4975 66.2996 45.0866C65.9816 45.7266 65.9823 46.4927 66.3015 47.1357C67.2821 49.1123 67.7589 51.2092 67.7589 53.5462C67.7589 54.5407 67.6762 55.4648 67.5063 56.3713C67.3946 56.9676 67.7873 57.5417 68.3838 57.6535C68.4522 57.6662 68.5203 57.6725 68.5874 57.6725C69.1056 57.6725 69.5671 57.3041 69.6659 56.776C69.8584 55.749 69.9561 54.6623 69.9561 53.546C69.9561 50.8998 69.3888 48.4144 68.2698 46.159Z" fill="#233877"/>
<path d="M14.4391 67.5271C14.3531 67.2338 14.1488 66.9896 13.8753 66.8533C11.5201 65.6783 9.82617 64.1579 8.69663 62.2047C7.80761 60.6694 7.3311 58.9887 7.23999 57.0663C7.21127 56.4603 6.69814 55.9912 6.09052 56.021C5.48452 56.0497 5.01635 56.5643 5.04521 57.1705C5.15346 59.4521 5.72578 61.459 6.79497 63.3053C8.07641 65.521 9.93603 67.2573 12.4712 68.6017C12.7767 69.547 13.155 70.4396 13.5986 71.261C13.7972 71.6289 14.1754 71.8378 14.5663 71.8378C14.7425 71.8378 14.9213 71.7953 15.0873 71.7057C15.6212 71.4174 15.8203 70.7509 15.532 70.217C15.0907 69.3997 14.723 68.4948 14.4391 67.5271Z" fill="#233877"/>
</svg>
