<svg width="75" height="75" viewBox="0 0 75 75" fill="none" xmlns="http://www.w3.org/2000/svg">
<path d="M8.20312 31.6406V26.9531H5.85938V31.6406C5.85938 33.5789 7.43672 35.1562 9.375 35.1562H10.5469V32.8125H9.375C8.72813 32.8125 8.20312 32.2863 8.20312 31.6406Z" fill="#233877"/>
<path d="M69.1406 48.0469V43.3594C69.1406 41.4211 67.5633 39.8438 65.625 39.8438H60.9375V42.1875H65.625C66.2719 42.1875 66.7969 42.7125 66.7969 43.3594V48.0469H69.1406Z" fill="#233877"/>
<path d="M65.625 35.1563H61.3793C61.8527 33.7242 62.1094 32.2172 62.1094 30.6891C62.1094 22.8129 55.7016 16.4063 47.8277 16.4063H47.618C43.8023 16.4063 40.2176 17.8922 37.5199 20.5887L37.5 20.6086L37.4801 20.5887C34.7836 17.8922 31.1977 16.4063 27.382 16.4063H27.1723C26.3074 16.4063 25.452 16.493 24.6082 16.6453V6.5461L20.0309 11.1234L11.8277 0.576569L1.17188 11.2336V31.6406C1.17188 36.1641 4.85273 39.8438 9.375 39.8438H16.2234C16.5762 40.2668 16.9477 40.6758 17.3496 41.0566L34.6711 57.4664C35.4387 58.193 36.443 58.5938 37.5 58.5938C38.557 58.5938 39.5613 58.193 40.3277 57.4664L57.6492 41.0566C58.7461 40.0172 59.6566 38.8113 60.368 37.5H65.625C68.8559 37.5 71.4844 40.1285 71.4844 43.3594V62.7961L63.3914 70.8891L55.1883 60.3422L52.7344 62.7961V52.7344H62.7961L60.3422 55.1883L68.4211 61.4719L69.8613 59.6227L63.8777 54.968L68.4539 50.3906H50.3906V68.4539L54.968 63.8766L63.1711 74.4234L73.8281 63.7664V43.3594C73.8281 38.8371 70.1473 35.1563 65.625 35.1563ZM27.1734 18.75H27.3832C30.5719 18.75 33.5695 19.9922 35.8242 22.2469L37.5 23.9227L39.177 22.2469C41.4305 19.9922 44.4293 18.75 47.618 18.75H47.8277C54.4102 18.75 59.7656 24.1055 59.7656 30.6891C59.7656 32.2313 59.4527 33.7465 58.882 35.1563H47.2582L41.6824 26.7938L34.8738 43.8129L32.1691 37.5H17.3719C15.9961 35.5137 15.2344 33.1313 15.2344 30.6891C15.2344 28.5293 15.8355 26.4481 16.9289 24.6094H24.6094V19.0582C25.4496 18.8731 26.3039 18.75 27.1734 18.75ZM9.375 37.5C6.14414 37.5 3.51562 34.8715 3.51562 31.6406V12.2039L11.6086 4.11094L19.8117 14.6578L22.2656 12.2039V22.2656H12.2039L14.6578 19.8117L6.57891 13.5281L5.13867 15.3785L11.1223 20.032L6.54609 24.6094H14.2453C13.3547 26.4996 12.8906 28.568 12.8906 30.6891C12.8906 33.082 13.507 35.4246 14.632 37.5H9.375ZM56.0379 39.3563L38.7164 55.766C38.0566 56.3906 36.9422 56.3906 36.2836 55.766L19.4766 39.8438H30.6246L34.95 49.9371L42.2039 31.8L46.0043 37.5H57.6281C57.1664 38.168 56.6344 38.7914 56.0379 39.3563Z" fill="#233877"/>
</svg>
