<svg width="43" height="43" viewBox="0 0 43 43" fill="none" xmlns="http://www.w3.org/2000/svg">
<g style="mix-blend-mode:color-burn" clip-path="url(#clip0_1527_74)">
<path d="M28.5923 20.6593L19.6634 14.1687C19.3358 13.9312 18.9008 13.8954 18.5416 14.08C18.1796 14.2632 17.9535 14.6352 17.9535 15.0373V28.0141C17.9535 28.4205 18.1796 28.7911 18.5416 28.9743C18.6947 29.0515 18.8621 29.0902 19.031 29.0902C19.2513 29.0902 19.4746 29.0201 19.6634 28.8813L28.5923 22.3964C28.8741 22.1889 29.0387 21.8684 29.0387 21.5279C29.0401 21.1816 28.8713 20.8625 28.5923 20.6593Z" fill="url(#paint0_linear_1527_74)"/>
<path d="M21.5007 0.00292969C9.62424 0.00292969 3.8147e-06 9.62717 3.8147e-06 21.5036C3.8147e-06 33.3758 9.62424 42.9972 21.5007 42.9972C33.3743 42.9972 43 33.3744 43 21.5036C43.0014 9.62717 33.3743 0.00292969 21.5007 0.00292969ZM21.5007 39.4099C11.6103 39.4099 3.59156 31.3955 3.59156 21.5036C3.59156 11.6161 11.6103 3.59163 21.5007 3.59163C31.3897 3.59163 39.407 11.6147 39.407 21.5036C39.4084 31.3955 31.3897 39.4099 21.5007 39.4099Z" fill="url(#paint1_linear_1527_74)"/>
</g>
<defs>
<linearGradient id="paint0_linear_1527_74" x1="29.0387" y1="29.0902" x2="14.614" y2="18.52" gradientUnits="userSpaceOnUse">
<stop stop-color="#F6811F"/>
<stop offset="0.511069" stop-color="#4C586B"/>
<stop offset="1" stop-color="#134A85"/>
</linearGradient>
<linearGradient id="paint1_linear_1527_74" x1="43" y1="42.9972" x2="0.00573769" y2="-0.00280342" gradientUnits="userSpaceOnUse">
<stop stop-color="#F6811F"/>
<stop offset="0.511069" stop-color="#4C586B"/>
<stop offset="1" stop-color="#134A85"/>
</linearGradient>
<clipPath id="clip0_1527_74">
<rect width="43" height="43" fill="white"/>
</clipPath>
</defs>
</svg>
