<svg width="22" height="22" viewBox="0 0 22 22" fill="none" xmlns="http://www.w3.org/2000/svg">
<path d="M19.4355 14.8034L16.4722 14.4651C15.7605 14.3834 15.0605 14.6284 14.5589 15.1301L12.4122 17.2767C9.11054 15.5967 6.40387 12.9017 4.72387 9.58838L6.8822 7.43005C7.38387 6.92838 7.62887 6.22838 7.5472 5.51672L7.20887 2.57672C7.06887 1.39839 6.0772 0.511719 4.8872 0.511719H2.86887C1.55054 0.511719 0.453869 1.60839 0.535536 2.92672C1.15387 12.8901 9.1222 20.8467 19.0739 21.465C20.3922 21.5467 21.4889 20.4501 21.4889 19.1317V17.1134C21.5005 15.9351 20.6139 14.9434 19.4355 14.8034Z" fill="url(#paint0_linear_1220_4413)"/>
<defs>
<linearGradient id="paint0_linear_1220_4413" x1="11.0101" y1="0.511719" x2="11.0101" y2="21.4693" gradientUnits="userSpaceOnUse">
<stop stop-color="#F6811F"/>
<stop offset="0.56" stop-color="#46566E"/>
<stop offset="1" stop-color="#134A85"/>
</linearGradient>
</defs>
</svg>
