<svg width="20" height="20" viewBox="0 0 20 20" fill="none" xmlns="http://www.w3.org/2000/svg">
<path d="M18.9655 5.15625L12.652 11.4698C11.948 12.1719 10.9943 12.5663 10 12.5663C9.00569 12.5663 8.05197 12.1719 7.348 11.4698L1.0345 5.15625C1.024 5.27475 1 5.382 1 5.49975V14.4998C1.00119 15.4939 1.39666 16.4471 2.09966 17.1501C2.80267 17.8531 3.7558 18.2486 4.75 18.2498H15.25C16.2442 18.2486 17.1973 17.8531 17.9003 17.1501C18.6033 16.4471 18.9988 15.4939 19 14.4998V5.49975C19 5.382 18.976 5.27475 18.9655 5.15625Z" fill="#134A85"/>
<path d="M11.5915 10.4095L18.442 3.55825C18.1101 3.00799 17.6421 2.55253 17.083 2.2358C16.5239 1.91907 15.8926 1.75176 15.25 1.75H4.74998C4.1074 1.75176 3.47611 1.91907 2.917 2.2358C2.3579 2.55253 1.88984 3.00799 1.55798 3.55825L8.40848 10.4095C8.83116 10.8305 9.40342 11.0669 9.99998 11.0669C10.5965 11.0669 11.1688 10.8305 11.5915 10.4095Z" fill="#134A85"/>
</svg>
