<svg width="20" height="20" viewBox="0 0 20 20" fill="none" xmlns="http://www.w3.org/2000/svg">
<g clip-path="url(#clip0_60_724)">
<path d="M20 19.1662C20 19.6262 19.6267 19.9995 19.1667 19.9995H0.833333C0.373333 19.9995 0 19.6262 0 19.1662C0 17.7853 1.11917 16.6662 2.5 16.6662H17.5C18.8808 16.6662 20 17.7853 20 19.1662ZM18.5092 5.16865L19.7592 3.90448C20.0833 3.57698 20.08 3.05032 19.7525 2.72615C19.4242 2.40199 18.8975 2.40532 18.5742 2.73282L17.3242 3.99698C17 4.32448 17.0033 4.85115 17.3308 5.17532C17.4933 5.33532 17.705 5.41615 17.9167 5.41615C18.1317 5.41615 18.3467 5.33365 18.5092 5.16865ZM15.3233 2.46615L15.9708 1.21615C16.1825 0.807819 16.0225 0.304485 15.6142 0.0928187C15.2075 -0.118848 14.7025 0.0394853 14.4908 0.449485L13.8433 1.69949C13.6317 2.10782 13.7917 2.61115 14.2 2.82282C14.3217 2.88615 14.4533 2.91615 14.5825 2.91615C14.8833 2.91615 15.175 2.75282 15.3233 2.46615ZM2.66917 5.17532C2.99667 4.85115 2.99917 4.32448 2.67583 3.99698L1.42583 2.73282C1.10333 2.40532 0.574167 2.40282 0.2475 2.72615C-0.08 3.05032 -0.0825 3.57698 0.240833 3.90448L1.49083 5.16865C1.65333 5.33365 1.86833 5.41615 2.08333 5.41615C2.295 5.41615 2.5075 5.33532 2.66917 5.17532ZM5.8 2.82282C6.20833 2.61115 6.36833 2.10865 6.15667 1.69949L5.50917 0.449485C5.29667 0.0394853 4.7925 -0.118848 4.38583 0.0928187C3.9775 0.304485 3.8175 0.806985 4.02917 1.21615L4.67667 2.46615C4.825 2.75282 5.11583 2.91615 5.4175 2.91615C5.54667 2.91615 5.6775 2.88615 5.8 2.82282ZM17.5 10.8328V14.1662C17.5 14.627 17.1275 14.9995 16.6667 14.9995H3.33333C2.8725 14.9995 2.5 14.627 2.5 14.1662V10.8328C2.5 6.69699 5.86417 3.33282 10 3.33282C14.1358 3.33282 17.5 6.69699 17.5 10.8328ZM10.8333 8.33282C10.8333 7.87198 10.4608 7.49949 10 7.49949C8.16167 7.49949 6.66667 8.99448 6.66667 10.8328C6.66667 11.2937 7.03917 11.6662 7.5 11.6662C7.96083 11.6662 8.33333 11.2937 8.33333 10.8328C8.33333 9.91365 9.08083 9.16615 10 9.16615C10.4608 9.16615 10.8333 8.79365 10.8333 8.33282Z" fill="#134A85"/>
</g>
<defs>
<clipPath id="clip0_60_724">
<rect width="20" height="20" fill="white"/>
</clipPath>
</defs>
</svg>
