<svg width="17" height="17" viewBox="0 0 17 17" fill="none" xmlns="http://www.w3.org/2000/svg">
<g clip-path="url(#clip0_3384_21148)">
<path d="M10.8747 4.45947C10.5067 4.45947 10.208 4.16081 10.208 3.79281V2.79281H7.54134V3.79281C7.54134 4.16081 7.24267 4.45947 6.87467 4.45947C6.50667 4.45947 6.20801 4.16081 6.20801 3.79281V2.79281C6.20801 2.05747 6.80601 1.45947 7.54134 1.45947H10.208C10.9433 1.45947 11.5413 2.05747 11.5413 2.79281V3.79281C11.5413 4.16081 11.2427 4.45947 10.8747 4.45947Z" fill="#B72840"/>
<path d="M9.34833 10.3782C9.22833 10.4249 9.055 10.4582 8.875 10.4582C8.695 10.4582 8.52167 10.4249 8.36167 10.3649L0.875 7.87158V12.9582C0.875 13.9716 1.695 14.7916 2.70833 14.7916H15.0417C16.055 14.7916 16.875 13.9716 16.875 12.9582V7.87158L9.34833 10.3782Z" fill="#B72840"/>
<path d="M16.875 5.29281V6.81947L9.035 9.43281C8.98167 9.45281 8.92833 9.45947 8.875 9.45947C8.82167 9.45947 8.76833 9.45281 8.715 9.43281L0.875 6.81947V5.29281C0.875 4.27947 1.695 3.45947 2.70833 3.45947H15.0417C16.055 3.45947 16.875 4.27947 16.875 5.29281Z" fill="#B72840"/>
</g>
<defs>
<clipPath id="clip0_3384_21148">
<rect width="16" height="16" fill="white" transform="translate(0.875 0.125)"/>
</clipPath>
</defs>
</svg>
