<svg width="28" height="28" viewBox="0 0 28 28" fill="none" xmlns="http://www.w3.org/2000/svg">
<g clip-path="url(#clip0_2017_10338)">
<path d="M26.2254 -0.169067H0.810582C-0.0599332 -0.169067 -0.765625 0.536624 -0.765625 1.40714V26.822C-0.765625 27.6925 -0.0599332 28.3982 0.810582 28.3982H26.2254C27.0959 28.3982 27.8016 27.6925 27.8016 26.822V1.40714C27.8016 0.536624 27.0959 -0.169067 26.2254 -0.169067Z" fill="#3D5A98"/>
<path d="M18.9426 28.3958V17.3334H22.655L23.2102 13.0224H18.9426V10.2707C18.9426 9.02272 19.2902 8.17065 21.0788 8.17065H23.3623V4.30858C22.2565 4.19355 21.1454 4.13876 20.0337 4.14444C16.7461 4.14444 14.4819 6.14789 14.4819 9.84341V13.0224H10.7695V17.3334H14.4819V28.3958H18.9426Z" fill="white"/>
</g>
<defs>
<clipPath id="clip0_2017_10338">
<rect width="28" height="28" rx="3.73333" fill="white"/>
</clipPath>
</defs>
</svg>
