<svg width="86" height="91" viewBox="0 0 86 91" fill="none" xmlns="http://www.w3.org/2000/svg">
<g opacity="0.25">
<path d="M23.2558 70.7073C17.2937 70.7073 11.3458 68.436 6.8032 63.9076C-2.26773 54.8367 -2.26773 40.0875 6.8032 31.0166C15.8741 21.9456 30.6233 21.9456 39.6942 31.0166C48.7652 40.0875 48.7652 54.8367 39.6942 63.9076C35.1659 68.436 29.2179 70.7073 23.2558 70.7073ZM7.79689 62.9139C16.3142 71.4312 30.1832 71.4312 38.7147 62.9139C47.232 54.3966 47.232 40.5134 38.7147 31.9961C30.1974 23.4788 16.3142 23.4788 7.79689 31.9961C-0.720423 40.5134 -0.720423 54.3824 7.79689 62.9139Z" fill="#134A85"/>
<path d="M23.2558 66.2359C18.4435 66.2359 13.6312 64.4047 9.9688 60.7422C6.41992 57.1934 4.46094 52.4804 4.46094 47.4552C4.46094 42.43 6.41992 37.7171 9.9688 34.1682C17.2937 26.8433 29.2179 26.8433 36.5428 34.1682C40.0917 37.7171 42.0507 42.43 42.0507 47.4552C42.0507 52.4804 40.0917 57.1934 36.5428 60.7422C32.8804 64.4047 28.0681 66.2359 23.2558 66.2359ZM10.9625 59.7486C17.7479 66.534 28.7779 66.534 35.5633 59.7486C38.8425 56.4694 40.6595 52.0972 40.6595 47.4552C40.6595 42.8133 38.8567 38.4411 35.5633 35.1619C28.7779 28.3765 17.7479 28.3765 10.9625 35.1619C7.68332 38.4411 5.86629 42.8133 5.86629 47.4552C5.86629 52.0972 7.66913 56.4694 10.9625 59.7486Z" fill="#134A85"/>
<path d="M60.3059 90.8512C58.716 90.8512 57.1261 90.2408 55.9053 89.0342L38.9132 72.0422C38.6435 71.7724 38.6435 71.3324 38.9132 71.0485L46.7491 63.2125C47.0189 62.9428 47.4589 62.9428 47.7428 63.2125L64.7349 80.2046C67.1623 82.632 67.1623 86.5784 64.7349 89.0058L64.7065 89.0342C63.4999 90.2408 61.91 90.8512 60.3059 90.8512ZM40.4038 71.5453L56.9131 88.0547C58.7869 89.9285 61.8532 89.9285 63.727 88.0547L63.7554 88.0121C65.6292 86.1241 65.6292 83.0721 63.7554 81.1983L47.246 64.6889L40.4038 71.5453Z" fill="#134A85"/>
<path d="M44.3925 77.224C44.2079 77.224 44.0376 77.1531 43.8956 77.0253C43.6259 76.7556 43.6259 76.3155 43.8956 76.0316L51.7316 68.1957C52.0013 67.926 52.4413 67.926 52.7253 68.1957C53.0092 68.4654 52.995 68.9055 52.7253 69.1894L44.8893 77.0253C44.7474 77.1531 44.577 77.224 44.3925 77.224Z" fill="#134A85"/>
<path d="M43.3853 68.2806C43.2008 68.2806 43.0304 68.2096 42.8885 68.0819L38.715 63.9084C38.4453 63.6387 38.4453 63.1986 38.715 62.9147C38.9847 62.645 39.4248 62.645 39.7087 62.9147L43.8822 67.0882C44.1519 67.3579 44.1519 67.7979 43.8822 68.0819C43.7402 68.2096 43.5557 68.2806 43.3853 68.2806Z" fill="#134A85"/>
<path d="M85.2901 87.6573H65.3312C64.948 87.6573 64.6357 87.345 64.6357 86.9618C64.6357 86.5785 64.948 86.2662 65.3312 86.2662H84.5946V17.1482L68.8375 1.39116H18.4292V25.5803C18.4292 25.9636 18.1169 26.2759 17.7337 26.2759C17.3504 26.2759 17.0381 25.9636 17.0381 25.5803V0.69558C17.0381 0.312301 17.3504 0 17.7337 0H69.1356C69.3202 0 69.5047 0.0709776 69.6325 0.198737L85.8012 16.3674C85.9289 16.4952 85.9999 16.6797 85.9999 16.8643V86.9618C85.9999 87.345 85.6876 87.6573 85.2901 87.6573Z" fill="#134A85"/>
<path d="M54.7272 87.5577H17.7337C17.3504 87.5577 17.0381 87.2454 17.0381 86.8621V69.3164C17.0381 68.9332 17.3504 68.6208 17.7337 68.6208C18.1169 68.6208 18.4292 68.9332 18.4292 69.3164V86.1665H54.7272C55.1105 86.1665 55.4228 86.4788 55.4228 86.8621C55.4228 87.2454 55.1105 87.5577 54.7272 87.5577Z" fill="#134A85"/>
<path d="M85.2905 17.4463H69.136C68.7527 17.4463 68.4404 17.134 68.4404 16.7507V0.695581C68.4404 0.312301 68.7527 0 69.136 0C69.5193 0 69.8316 0.312301 69.8316 0.695581V16.0409H85.2905C85.6738 16.0409 85.9861 16.3532 85.9861 16.7365C85.9861 17.1198 85.688 17.4463 85.2905 17.4463Z" fill="#134A85"/>
<path d="M60.7033 18.6667H26.4637C25.6404 18.6667 24.959 17.9853 24.959 17.1619V9.52474C24.959 8.7014 25.6404 8.02002 26.4637 8.02002H60.7033C61.5266 8.02002 62.208 8.7014 62.208 9.52474V17.1619C62.208 17.9853 61.5408 18.6667 60.7033 18.6667ZM26.4637 9.42538C26.4069 9.42538 26.3643 9.46796 26.3643 9.52474V17.1619C26.3643 17.2187 26.4069 17.2613 26.4637 17.2613H60.7033C60.7601 17.2613 60.8027 17.2187 60.8027 17.1619V9.52474C60.8027 9.46796 60.7601 9.42538 60.7033 9.42538H26.4637Z" fill="#134A85"/>
<path d="M23.2553 48.5062C19.3799 48.5062 16.2285 45.3548 16.2285 41.4794C16.2285 37.604 19.3799 34.4526 23.2553 34.4526C27.1307 34.4526 30.2821 37.604 30.2821 41.4794C30.2821 45.3548 27.1307 48.5062 23.2553 48.5062ZM23.2553 35.858C20.1465 35.858 17.6339 38.3848 17.6339 41.4794C17.6339 44.574 20.1607 47.1008 23.2553 47.1008C26.3499 47.1008 28.8767 44.574 28.8767 41.4794C28.8767 38.3848 26.3641 35.858 23.2553 35.858Z" fill="#134A85"/>
<path d="M29.9129 60.444H16.5975C14.7805 60.444 13.3184 58.9677 13.3184 57.1648V54.6806C13.3184 50.8336 15.7316 47.3273 19.3231 45.9504C19.678 45.8084 20.0896 45.993 20.2316 46.3479C20.3735 46.7027 20.189 47.1144 19.8341 47.2564C16.7821 48.4204 14.7379 51.4015 14.7379 54.6806V57.1648C14.7379 58.2011 15.5896 59.0528 16.6259 59.0528H29.9555C30.9918 59.0528 31.8435 58.2011 31.8435 57.1648V54.6806C31.8435 51.4157 29.7994 48.4204 26.7473 47.2564C26.3924 47.1144 26.2079 46.7169 26.3498 46.3479C26.4918 45.993 26.8893 45.8084 27.2584 45.9504C30.8356 47.3415 33.2489 50.8478 33.2489 54.6806V57.1648C33.2063 58.9819 31.7299 60.444 29.9129 60.444Z" fill="#134A85"/>
<path d="M80.0518 34.1265H51.5188C51.1355 34.1265 50.8232 33.8142 50.8232 33.4309C50.8232 33.0477 51.1355 32.7354 51.5188 32.7354H80.0518C80.4351 32.7354 80.7474 33.0477 80.7474 33.4309C80.7474 33.8142 80.4351 34.1265 80.0518 34.1265Z" fill="#134A85"/>
<path d="M80.0518 41.5352H51.5188C51.1355 41.5352 50.8232 41.2229 50.8232 40.8396C50.8232 40.4563 51.1355 40.144 51.5188 40.144H80.0518C80.4351 40.144 80.7474 40.4563 80.7474 40.8396C80.7474 41.2229 80.4351 41.5352 80.0518 41.5352Z" fill="#134A85"/>
<path d="M80.0518 48.9461H51.5188C51.1355 48.9461 50.8232 48.6338 50.8232 48.2505C50.8232 47.8672 51.1355 47.5549 51.5188 47.5549H80.0518C80.4351 47.5549 80.7474 47.8672 80.7474 48.2505C80.7474 48.6338 80.4351 48.9461 80.0518 48.9461Z" fill="#134A85"/>
<path d="M80.0518 56.3426H51.5188C51.1355 56.3426 50.8232 56.0303 50.8232 55.647C50.8232 55.2637 51.1355 54.9514 51.5188 54.9514H80.0518C80.4351 54.9514 80.7474 55.2637 80.7474 55.647C80.7474 56.0303 80.4351 56.3426 80.0518 56.3426Z" fill="#134A85"/>
</g>
</svg>
