<svg width="52" height="52" viewBox="0 0 52 52" fill="none" xmlns="http://www.w3.org/2000/svg">
<g clip-path="url(#clip0_3560_13024)">
<path d="M50.3886 24.9015C50.8013 24.9015 51.1357 24.5671 51.1357 24.1544V15.4633C51.1357 12.5808 49.1951 10.0303 46.416 9.26073L33.1807 5.87551C32.3207 5.66324 31.72 4.89585 31.72 4.00933V1.24707C31.72 0.834388 31.3857 0.5 30.973 0.5C30.5603 0.5 30.2259 0.834388 30.2259 1.24707V4.00923C30.2259 5.58475 31.2938 6.9488 32.8224 7.32602L35.4123 7.96611V10.1879H32.2211C31.4799 10.1879 30.744 10.4312 30.1489 10.8733L29.4452 11.396C29.114 11.6421 29.0448 12.1099 29.2909 12.4411C29.4375 12.6385 29.6628 12.7429 29.8911 12.7428C30.046 12.7428 30.2021 12.6949 30.336 12.5954L31.0397 12.0727C31.3789 11.8208 31.7984 11.682 32.221 11.682H35.3334C35.0375 13.3866 33.9236 14.8798 32.3284 15.6288L29.0244 17.1817C27.101 18.0855 24.8951 18.0854 22.9721 17.1817C22.3034 16.8626 20.0451 15.816 19.4628 15.5264V11.6821C19.9034 11.6522 20.4775 11.7341 20.9565 12.0725L21.6597 12.5954C21.7937 12.6951 21.95 12.743 22.105 12.743C22.3331 12.743 22.5584 12.6389 22.705 12.4417C22.9513 12.1106 22.8824 11.6427 22.5513 11.3964L21.848 10.8735C21.2642 10.4233 20.3035 10.1362 19.4628 10.188V7.24105C20.8356 6.77229 21.7706 5.48345 21.7706 4.00923V1.24707C21.7706 0.834388 21.4362 0.5 21.0235 0.5C20.6108 0.5 20.2765 0.834388 20.2765 1.24707V4.00923C20.2765 4.89575 19.6758 5.66314 18.8167 5.87521L14.848 6.85596C14.5964 6.93127 14.2781 7.15439 14.2803 7.58112V19.2242C13.5574 19.2457 12.9755 19.8389 12.9755 20.5669V22.2985C12.9755 23.0265 13.5573 23.6198 14.2803 23.6412V26.9706C12.8616 27.2402 11.6941 28.3046 11.3236 29.7431L11.0199 30.9218L11.2122 27.2945C11.2178 27.1906 11.2016 27.0867 11.1645 26.9895C10.9119 26.3248 10.7187 25.6328 10.5902 24.9317C10.4616 24.2363 10.3964 23.5208 10.3964 22.8054V9.49531L11.7656 9.15703C12.1662 9.05802 12.4106 8.65301 12.3116 8.25258C12.2126 7.85205 11.8075 7.60741 11.4072 7.70653L5.58081 9.26113C2.80211 10.03 0.861328 12.5805 0.861328 15.4638V23.976C0.861328 25.4972 1.09441 27.0005 1.55441 28.4486C1.09441 29.6365 0.861328 30.8844 0.861328 32.1624V50.7528C0.861328 51.1655 1.19572 51.4999 1.6084 51.4999C2.02108 51.4999 2.35547 51.1655 2.35547 50.7528V44.9117C2.60857 45.0074 2.8826 45.0602 3.16877 45.0602H41.719L42.7347 50.8812C42.7981 51.2443 43.1135 51.5 43.4698 51.5C43.5125 51.5 43.5557 51.4964 43.5991 51.4888C44.0055 51.4179 44.2777 51.0308 44.2068 50.6244L43.2282 45.0161C47.479 44.6721 51.2618 40.7016 51.1357 36.2715L51.1349 27.6499C51.1349 27.2373 50.8004 26.9029 50.3877 26.9029C50.3844 26.9029 50.3813 26.9033 50.378 26.9034H42.4452C42.8756 25.5789 43.0941 24.2036 43.0941 22.8054V21.0318C43.0941 21.0293 43.0945 21.0268 43.0945 21.0242V9.89265L46.0176 10.7007C48.1513 11.2917 49.6415 13.25 49.6415 15.4632V24.1543C49.6415 24.567 49.9759 24.9015 50.3886 24.9015ZM15.7744 8.16612L17.9687 7.62345V19.2221H15.7744V8.16612ZM14.4696 20.7164H19.1823V22.1493H14.4696V20.7164ZM15.7744 23.6434H17.9687V29.7692C17.9687 30.3745 17.4767 30.867 16.872 30.867C16.3842 30.863 15.7819 30.456 15.7743 29.7692V23.6434H15.7744ZM3.05681 28.2351C2.59144 26.8603 2.35547 25.4273 2.35547 23.9759V15.4637C2.35547 13.2499 3.84562 11.2915 5.97925 10.7012L8.90198 9.89255V21.0242C8.90198 21.0268 8.90238 21.0293 8.90238 21.0318V22.8054C8.90238 23.6116 8.97589 24.4184 9.12082 25.2022C9.25569 25.9388 9.45451 26.6673 9.712 27.3706L9.43997 32.5024H7.59242C6.77353 32.5024 5.98971 32.8514 5.44116 33.4603L4.73543 34.2453C4.20919 34.4003 2.7805 34.7787 2.35537 34.9225V32.1624C2.35537 30.9892 2.58516 29.8455 3.03819 28.7632C3.10871 28.5954 3.11518 28.4076 3.05681 28.2351ZM2.35547 42.7618V42.1213H3.83855C3.88785 42.1213 3.93696 42.1164 3.98537 42.1068L6.48755 41.6052C6.89217 41.5242 7.15434 41.1304 7.07325 40.726C6.99227 40.3214 6.59862 40.0591 6.194 40.1403L3.76444 40.6273H2.35547V39.3513H3.83855C3.88785 39.3513 3.93696 39.3464 3.98537 39.3367L6.48755 38.8352C6.89217 38.7542 7.15434 38.3604 7.07325 37.9559C6.99227 37.5513 6.59862 37.2895 6.194 37.3702L3.76444 37.8572H2.35547V37.071C2.36065 36.7127 2.60299 36.3961 2.94834 36.2988L5.16544 35.6767L6.5787 35.9971C6.63438 36.0098 6.68986 36.0159 6.74464 36.0159C7.08581 36.0159 7.3939 35.7806 7.47259 35.4337C7.56383 35.0314 7.31162 34.6312 6.9093 34.5399L6.5527 34.4591C6.81786 34.1652 7.19677 33.9968 7.59252 33.9968H10.2279L8.92599 39.0496C8.91035 39.1105 8.90238 39.1732 8.90238 39.236V43.566H3.16877C2.72332 43.566 2.36075 43.206 2.35547 42.7618ZM49.6404 36.2726C49.6347 40.3153 46.3234 43.5797 42.3278 43.566H10.3965V39.3306L12.7705 30.1159C12.9698 29.3421 13.5507 28.7481 14.2803 28.5109V29.7692C14.2543 31.0619 15.4149 32.3848 16.8721 32.3611C18.3007 32.3611 19.4629 31.1984 19.4629 29.7692V28.3975H49.6405V36.2726H49.6404ZM19.4628 26.9034V23.6367C20.143 23.5705 20.6765 22.9957 20.6765 22.2986V20.567C20.6765 19.8697 20.1431 19.2951 19.4628 19.2289V17.1834L22.3367 18.534C24.6635 19.6274 27.3327 19.6276 29.66 18.534L32.9639 16.9812C35.3041 15.8916 36.9204 13.404 36.9065 10.7737V8.33615L41.6001 9.496V22.8055C41.6001 24.2094 41.3519 25.5875 40.8636 26.9035H19.4628V26.9034Z" fill="#134A85"/>
<path d="M9.17361 47.0441C8.76631 46.9725 8.38012 47.2452 8.3092 47.6518L7.79054 50.6246C7.71961 51.031 7.99175 51.4181 8.39815 51.489C8.44168 51.4966 8.48481 51.5002 8.52745 51.5002C8.88375 51.5002 9.19921 51.2445 9.26256 50.8814L9.78123 47.9085C9.85205 47.502 9.58002 47.1151 9.17361 47.0441Z" fill="#134A85"/>
</g>
<defs>
<clipPath id="clip0_3560_13024">
<rect width="51" height="51" fill="white" transform="translate(0.5 0.5)"/>
</clipPath>
</defs>
</svg>
