<svg width="78" height="78" viewBox="0 0 78 78" fill="none" xmlns="http://www.w3.org/2000/svg">
<path d="M10.4008 37.5439L10.5155 37.3004L11.0022 36.2667L11.1167 36.0235L11.36 36.1379C11.815 36.3519 12.2015 36.5846 12.5334 36.7843L12.5504 36.7945L12.5505 36.7946C13.3252 37.2612 13.6464 37.4191 14.0571 37.325L14.0572 37.3249C15.0165 37.1055 15.8653 36.4393 16.6681 35.8048C16.6682 35.8047 16.6682 35.8047 16.6682 35.8047L16.6837 35.7924C17.5605 35.0987 18.606 34.2714 19.9442 33.9636L10.4008 37.5439ZM10.4008 37.5439L10.6444 37.6584M10.4008 37.5439L10.6444 37.6584M10.6444 37.6584C11.0183 37.8342 11.3408 38.028 11.6645 38.2225L11.6826 38.2334L11.6828 38.2336L11.7107 38.2503C12.3362 38.6271 13.0075 39.0314 13.8331 39.0314C14.0253 39.0314 14.2236 39.0101 14.4298 38.965L14.4298 38.9651L14.4326 38.9644C15.7731 38.6566 16.8617 37.7954 17.695 37.136L17.7102 37.124C18.5131 36.4894 19.3628 35.8223 20.3207 35.6022L20.3209 35.6022C21.0282 35.4392 21.7982 35.5072 22.6711 35.5873L22.6717 35.5874L22.8675 35.6049L23.1351 35.6289L23.1593 35.3612L23.2621 34.2232L23.2864 33.9554M10.6444 37.6584L23.2864 33.9554M23.2864 33.9554L23.0185 33.9311M23.2864 33.9554L23.0185 33.9311M23.0185 33.9311L22.8256 33.9137L22.8251 33.9136M23.0185 33.9311L22.8251 33.9136M47.7913 60.1266L47.7913 60.1265C47.3621 59.6349 47.2422 59.0376 47.2415 58.5071C47.2408 57.9814 47.3573 57.4938 47.4287 57.195L47.4299 57.19L47.4299 57.1899L48.5526 52.4872C48.5526 52.4872 48.5526 52.4871 48.5526 52.4871C48.672 51.9864 48.7776 51.4777 48.7884 51.0141C48.7993 50.5499 48.7139 50.1684 48.4888 49.8907L48.4888 49.8906C48.3042 49.6629 48.0328 49.5121 47.6776 49.403C47.3195 49.293 46.9051 49.2335 46.4508 49.1687L46.4887 48.9025L46.4508 49.1687L46.4286 49.1656C46.0213 49.1075 45.5818 49.0448 45.1573 48.9325C43.7923 48.5731 42.6128 47.6474 41.8301 46.3396C41.0796 45.0863 40.7738 43.579 40.9978 42.1982C41.2178 40.8404 41.8854 39.5711 42.9192 38.5247L42.9193 38.5246C43.9 37.5328 45.1726 36.8016 46.5074 36.4641L46.5075 36.4641C47.0408 36.3296 47.4055 36.16 47.6327 35.9684C47.8496 35.7854 47.9428 35.5823 47.9428 35.3431V35.0741H48.2117H49.3543H49.6233V35.3431C49.6233 35.814 49.5019 36.3703 49.0875 36.8797C48.6743 37.3877 47.9915 37.8224 46.9187 38.0932C44.7274 38.6467 42.9814 40.4576 42.6562 42.4663L42.6562 42.4663C42.3119 44.5905 43.6748 46.8036 45.5852 47.307C45.9177 47.3945 46.2817 47.4466 46.6873 47.5042L46.6874 47.5043L46.727 47.5099C47.7267 47.6521 48.9827 47.8308 49.794 48.8312C50.3312 49.4933 50.4776 50.2882 50.4688 51.0137C50.46 51.7328 50.2981 52.4116 50.1893 52.8675L50.1872 52.8763L50.1872 52.8763L49.0645 57.5791C49.0645 57.5791 49.0644 57.5792 49.0644 57.5792C48.9862 57.9071 48.9269 58.2145 48.921 58.4769C48.915 58.7433 48.9654 58.9161 49.0564 59.0201L49.0566 59.0203C49.1301 59.1046 49.2635 59.1646 49.4526 59.1767C49.6387 59.1886 49.8434 59.1507 50.0097 59.0804C50.4074 58.9121 50.7638 58.5983 51.184 58.2239C51.2682 58.1488 51.354 58.0723 51.4409 57.997C51.5845 57.8719 51.7269 57.7467 51.869 57.6217L51.8973 57.5968L51.8976 57.5966L51.9094 57.5861C53.7855 55.9321 55.8088 54.1482 59.429 54.5745L59.6962 54.6059L59.6647 54.8731L59.5306 56.0081L59.4991 56.2751L59.232 56.2437C57.7887 56.0736 56.6953 56.3268 55.7389 56.8134C54.7713 57.3056 53.9367 58.0391 53.0087 58.8573L53.0086 58.8573L53.0085 58.8574C52.8548 58.9929 52.7004 59.1289 52.5445 59.2649L52.5441 59.2653C52.4843 59.3173 52.4248 59.3702 52.364 59.4244C52.3435 59.4426 52.3228 59.461 52.302 59.4795L47.7913 60.1266ZM47.7913 60.1266C48.2561 60.6586 48.9098 60.8585 49.5234 60.8585C49.9279 60.8585 50.3269 60.7726 50.6651 60.6292C51.3241 60.3499 51.8304 59.8992 52.2853 59.4943L52.3017 59.4797L47.7913 60.1266ZM22.8251 33.9136L22.8116 33.9124C21.9074 33.8288 20.9242 33.7379 19.9442 33.9635L22.8251 33.9136ZM29.0402 30.8763L29.3064 30.9126L29.3431 30.6465C29.4416 29.9305 29.4638 29.2099 29.4848 28.5284L29.4856 28.5028L29.4856 28.5021C29.4947 28.1795 29.5053 27.8488 29.5226 27.5288C29.5826 26.4317 29.7555 25.1104 30.5139 24.1333C30.8795 23.6625 31.3767 23.2667 31.9379 22.8218C31.9379 22.8218 31.9379 22.8217 31.9379 22.8217L31.9515 22.811C32.6104 22.2888 33.33 21.7186 33.8445 20.9421L33.8445 20.942C35.2346 18.8431 34.5426 16.2568 33.8448 14.3382L33.7529 14.0854L33.5001 14.1774L32.4261 14.5681L32.1733 14.6601L32.2653 14.9128C32.5674 15.7433 32.852 16.6655 32.9382 17.5636C33.0244 18.4604 32.9106 19.3086 32.4431 20.0143L32.443 20.0145C32.0819 20.5607 31.5281 21.0028 30.8939 21.5051L30.8938 21.5052L30.8793 21.5167C30.3033 21.9732 29.6792 22.4679 29.1864 23.1034C28.1249 24.4705 27.9142 26.1625 27.8445 27.437L27.8445 27.4371C27.826 27.7782 27.8152 28.1217 27.8053 28.4514L27.8053 28.4515C27.7847 29.1464 27.7651 29.787 27.6782 30.4185L27.6416 30.6852L27.9083 30.7216L29.0402 30.8763ZM25.6385 35.2371L25.7267 35.4911L25.9808 35.403C26.9347 35.072 27.7537 34.4028 28.3537 33.4803L28.5004 33.2549L28.275 33.1083L27.3175 32.4852L27.0921 32.3385L26.9454 32.5639C26.5408 33.1853 26.0146 33.6124 25.4297 33.8154L25.1755 33.9036L25.2638 34.1577L25.6385 35.2371Z" fill="#242424" stroke="#242424" stroke-width="0.537931"/>
<path d="M12.2876 51.3549L12.2876 51.355C13.6501 54.5756 15.5999 57.4678 18.0831 59.951C20.5663 62.4342 23.4586 64.3848 26.6793 65.7466C30.014 67.1578 33.5558 67.8725 37.2058 67.8725C40.8559 67.8725 44.3977 67.1577 47.7325 65.7466C50.9531 64.384 53.8453 62.4343 56.3285 59.951C58.8117 57.4678 60.7623 54.5756 62.1241 51.3549C63.5353 48.0202 64.25 44.4783 64.25 40.8283C64.25 38.6928 63.9992 36.5649 63.506 34.5037L63.506 34.5036L63.1891 33.1805L63.04 32.5577L62.6997 33.1002L61.9768 34.2527L62.2047 34.3956L61.9768 34.2527C59.5315 38.1516 56.672 41.3588 55.4546 42.6593C54.4685 41.6026 52.4022 39.2881 50.3584 36.3769L50.3584 36.3769C49.0736 34.5473 47.669 32.2923 46.5864 29.8935C45.5027 27.4922 44.7492 24.9635 44.7492 22.5821C44.7492 20.4239 45.381 18.3426 46.5759 16.5621L46.5759 16.562L46.9873 15.9489L47.1808 15.6603L46.8529 15.5452L46.156 15.3007C43.2874 14.2942 40.2759 13.7842 37.2058 13.7842C33.5558 13.7842 30.0139 14.4997 26.6792 15.9101L26.6792 15.9101C23.4586 17.2726 20.5664 19.2224 18.0831 21.7056C15.5999 24.1888 13.6494 27.081 12.2876 30.3017C10.8764 33.6364 10.1617 37.1783 10.1617 40.8283C10.1617 44.4784 10.8772 48.0202 12.2876 51.3549ZM44.6093 16.5628C43.5981 18.4 43.0687 20.46 43.0687 22.5829C43.0687 26.8162 45.0808 31.7904 48.9935 37.3587L49.2136 37.2041L48.9935 37.3587C51.8831 41.4704 54.8154 44.4255 54.8587 44.4689C54.8588 44.469 54.8589 44.4691 54.8589 44.4691L55.2624 44.8734L55.4523 45.0636L55.6426 44.8739L56.0471 44.471L56.0494 44.4687L56.0526 44.4655L56.0618 44.4562L56.0947 44.4228C56.1229 44.3941 56.1635 44.3526 56.2155 44.2989C56.3194 44.1916 56.4691 44.0355 56.6572 43.8348C57.0334 43.4334 57.5635 42.8537 58.1896 42.1297C59.3411 40.7983 60.819 38.9769 62.2625 36.8772C62.466 38.1807 62.5687 39.5032 62.5687 40.8291C62.5687 54.8142 51.191 66.192 37.2058 66.192C23.2207 66.192 11.843 54.8142 11.843 40.8291C11.843 26.844 23.2207 15.4662 37.2058 15.4662C39.7346 15.4662 42.22 15.8353 44.6093 16.5628Z" fill="#242424" stroke="#242424" stroke-width="0.537931"/>
<path d="M37.3476 67.9133L37.0882 67.84C35.7164 67.4527 34.709 66.2189 34.6456 64.8253L34.6456 64.8253C34.5985 63.7844 34.8879 62.814 35.1534 61.9235L35.1585 61.9065L35.1586 61.906C35.2019 61.7618 35.2442 61.6191 35.2848 61.4768L35.285 61.4763C35.5388 60.5941 35.733 59.6527 35.4747 58.8733L35.4747 58.8732C35.2818 58.2904 34.8468 57.7889 34.3336 57.2036C34.3336 57.2035 34.3335 57.2035 34.3335 57.2034L34.5357 57.0261C34.1822 56.6239 33.8174 56.2072 33.5211 55.7312L37.3476 67.9133ZM37.3476 67.9133L37.4203 67.6538M37.3476 67.9133L37.4203 67.6538M37.4203 67.6538L37.7288 66.5531L37.8013 66.2945L37.5428 66.2216C36.8492 66.0262 36.3534 65.4124 36.3232 64.7483L36.3232 64.7483C36.2891 64.0001 36.5119 63.244 36.7678 62.3856C36.8122 62.2371 36.8558 62.0886 36.8986 61.941L36.8988 61.9405C37.2018 60.8884 37.4818 59.5902 37.0693 58.3439L37.0693 58.3438M37.4203 67.6538L37.0693 58.3438M30.0389 49.205L30.0387 49.205C29.3259 48.9625 28.3815 49.141 27.1038 49.8716C26.9348 49.9684 26.7625 50.0712 26.5911 50.1735C26.5629 50.1903 26.5348 50.2071 26.5068 50.2239L30.0389 49.205ZM30.0389 49.205C30.5643 49.3834 30.9739 49.8007 31.2881 50.3021C31.6012 50.8016 31.8032 51.3588 31.9229 51.7707L32.1812 51.6956L30.0389 49.205ZM37.0693 58.3438C36.7655 57.4267 36.1575 56.734 35.6085 56.1085L35.5956 56.0938L37.0693 58.3438ZM26.4838 50.2376L26.5063 50.2241L20.2814 49.45C19.719 49.2861 19.3106 49.1819 18.8921 49.1363C18.4717 49.0904 18.0528 49.1047 17.4677 49.1633L17.4675 49.1634C15.8626 49.3251 14.3904 50.3116 12.9647 52.0951L12.7968 52.3052L13.0068 52.4731L13.8996 53.1869L14.1097 53.3548L14.2776 53.1447C15.4765 51.645 16.5425 50.9456 17.6356 50.8358C18.1267 50.7865 18.4288 50.7768 18.7231 50.8098C19.0202 50.8431 19.3209 50.9211 19.8118 51.0641L19.812 51.0641L19.8421 51.0729C20.8744 51.373 22.1057 51.731 23.3632 51.5567C24.5573 51.3917 25.5631 50.7892 26.4838 50.2376ZM55.2614 44.8724L55.451 45.0624L55.6414 44.8731L56.0458 44.471L56.0464 44.4704C56.0915 44.4253 60.1066 40.398 63.3996 35.1462C66.3314 30.471 67.8389 26.2418 67.8389 22.5827C67.8389 15.7164 62.2843 10.1285 55.4532 10.1285C51.3274 10.1285 47.4871 12.1846 45.179 15.6253C43.7978 17.6839 43.0676 20.0898 43.0676 22.5819C43.0676 26.8152 45.0797 31.7895 48.9924 37.3577L49.2125 37.2031L48.9924 37.3578C51.8821 41.4696 54.8145 44.4247 54.8576 44.468C54.8577 44.468 54.8578 44.4681 54.8578 44.4681L55.2614 44.8724ZM46.5756 16.5626L46.5757 16.5625C48.5712 13.5851 51.8903 11.809 55.4532 11.809C61.3542 11.809 66.1576 16.6404 66.1584 22.5827C66.1584 25.8817 64.7659 29.8057 61.9765 34.2533C59.5312 38.1521 56.6717 41.3593 55.4543 42.6598C54.4707 41.6058 52.4115 39.2997 50.3687 36.3926C49.0816 34.5608 47.6743 32.3032 46.5896 29.9019C45.5038 27.498 44.7489 24.9667 44.7489 22.5827C44.7489 20.4244 45.3807 18.3431 46.5756 16.5626Z" fill="#134A85" stroke="#134A85" stroke-width="0.537931"/>
<path d="M50.7652 22.5137C50.7652 25.099 52.8684 27.2021 55.4537 27.2021C58.039 27.2021 60.1421 25.099 60.1421 22.5137C60.1421 19.9284 58.039 17.8252 55.4537 17.8252C52.8684 17.8252 50.7652 19.9284 50.7652 22.5137ZM52.4457 22.5137C52.4457 20.8554 53.7954 19.5057 55.4537 19.5057C57.1119 19.5057 58.4616 20.8554 58.4616 22.5137C58.4616 24.1719 57.1119 25.5216 55.4537 25.5216C53.7954 25.5216 52.4457 24.1719 52.4457 22.5137Z" fill="#242424" stroke="#242424" stroke-width="0.537931"/>
</svg>
