<svg width="51" height="42" viewBox="0 0 51 42" fill="none" xmlns="http://www.w3.org/2000/svg">
<path d="M34.7233 29.4187C34.3461 29.0491 33.7408 29.0553 33.3711 29.4324L33.344 29.4602C32.9744 29.8374 32.9806 30.4427 33.3578 30.8124C33.5439 30.9947 33.7855 31.0856 34.0269 31.0856C34.2749 31.0856 34.5227 30.9896 34.71 30.7986L34.7372 30.7709C35.1067 30.3937 35.1005 29.7883 34.7233 29.4187Z" fill="url(#paint0_linear_2286_9634)" stroke="url(#paint1_linear_2286_9634)" stroke-width="0.217579"/>
<path d="M45.0091 19.3948H42.4682V16.8539C42.4682 16.3258 42.0402 15.8977 41.5121 15.8977C40.984 15.8977 40.5559 16.3258 40.5559 16.8539V19.3948H38.015C37.4869 19.3948 37.0588 19.8228 37.0588 20.3509C37.0588 20.879 37.4869 21.3071 38.015 21.3071H40.5559V23.848C40.5559 24.3761 40.984 24.8042 41.5121 24.8042C42.0402 24.8042 42.4682 24.3761 42.4682 23.848V21.3071H45.0091C45.5372 21.3071 45.9653 20.879 45.9653 20.3509C45.9653 19.8228 45.5372 19.3948 45.0091 19.3948Z" fill="url(#paint2_linear_2286_9634)" stroke="url(#paint3_linear_2286_9634)" stroke-width="0.217579"/>
<path d="M44.6379 12.5388C43.7449 5.93838 38.227 1 31.6776 1C28.3715 1 25.2788 2.2324 22.8667 4.49133C20.4545 2.2324 17.3618 1 14.0557 1C6.84055 1 0.970581 7.00976 0.970581 14.3968C0.970581 15.8563 1.39636 17.4922 2.24342 19.298H1.92674C1.39865 19.298 0.970581 19.726 0.970581 20.2541C0.970581 20.7822 1.39865 21.2103 1.92674 21.2103H3.26174C5.04756 24.2337 7.87168 27.6717 11.7225 31.5008C16.9413 36.69 22.233 40.7497 22.2859 40.7902C22.4573 40.9213 22.662 40.9868 22.8667 40.9868C23.0714 40.9868 23.276 40.9213 23.4475 40.7902C23.4878 40.7593 27.535 37.6558 32.0202 33.4271C32.4045 33.0648 32.4223 32.4596 32.06 32.0754C31.6978 31.6913 31.0926 31.6734 30.7084 32.0357C27.2878 35.2607 24.1299 37.8178 22.8668 38.8168C21.3658 37.6292 17.1872 34.2393 13.0572 30.1312C9.75082 26.8421 7.21967 23.8447 5.50843 21.2103H14.0686C14.4951 21.2103 14.87 20.9277 14.9876 20.5178L16.6582 14.6946L21.2845 29.5169C21.4092 29.9161 21.779 30.1882 22.1973 30.1882C22.6156 30.1882 22.9853 29.9161 23.1099 29.5169L25.672 21.306H29.9407C30.4687 21.306 30.8968 20.8779 30.8968 20.3498C30.8968 19.8218 30.4687 19.3937 29.9407 19.3937H24.9687C24.5504 19.3937 24.1805 19.6656 24.056 20.065L22.197 26.0224L17.5323 11.077C17.4064 10.6738 17.0318 10.3999 16.6084 10.4058C16.1861 10.4106 15.8169 10.6921 15.7003 11.0982L13.3479 19.2981H4.37681C3.38843 17.432 2.8829 15.7873 2.8829 14.3968C2.8829 8.06422 7.89501 2.91232 14.0557 2.91232C17.1522 2.91232 20.0318 4.18517 22.1639 6.49621C22.345 6.69241 22.5997 6.804 22.8667 6.804C23.1336 6.804 23.3885 6.69241 23.5695 6.49621C25.7016 4.18517 28.5812 2.91232 31.6776 2.91232C37.0041 2.91232 41.5326 6.75361 42.6089 12.0078C42.2497 11.9609 41.8836 11.9363 41.5117 11.9363C36.8722 11.9363 33.0975 15.7109 33.0975 20.3505C33.0975 24.9901 36.8722 28.7647 41.5117 28.7647C46.1513 28.7647 49.926 24.9901 49.926 20.3505C49.9261 16.815 47.7341 13.7823 44.6379 12.5388ZM41.5118 26.8524C37.9267 26.8524 35.0099 23.9356 35.0099 20.3505C35.0099 16.7654 37.9267 13.8486 41.5118 13.8486C45.097 13.8486 48.0137 16.7654 48.0137 20.3505C48.0137 23.9356 45.097 26.8524 41.5118 26.8524Z" fill="url(#paint4_linear_2286_9634)" stroke="url(#paint5_linear_2286_9634)" stroke-width="0.217579"/>
<defs>
<linearGradient id="paint0_linear_2286_9634" x1="35.0103" y1="31.0856" x2="33.0703" y2="29.146" gradientUnits="userSpaceOnUse">
<stop stop-color="#54BE95"/>
<stop offset="0.288462" stop-color="#2E7B9A"/>
<stop offset="1" stop-color="#224075"/>
</linearGradient>
<linearGradient id="paint1_linear_2286_9634" x1="35.0103" y1="31.0856" x2="33.0703" y2="29.146" gradientUnits="userSpaceOnUse">
<stop stop-color="#54BE95"/>
<stop offset="0.288462" stop-color="#2E7B9A"/>
<stop offset="1" stop-color="#224075"/>
</linearGradient>
<linearGradient id="paint2_linear_2286_9634" x1="45.9653" y1="24.8042" x2="37.0588" y2="15.8977" gradientUnits="userSpaceOnUse">
<stop stop-color="#54BE95"/>
<stop offset="0.288462" stop-color="#2E7B9A"/>
<stop offset="1" stop-color="#224075"/>
</linearGradient>
<linearGradient id="paint3_linear_2286_9634" x1="45.9653" y1="24.8042" x2="37.0588" y2="15.8977" gradientUnits="userSpaceOnUse">
<stop stop-color="#54BE95"/>
<stop offset="0.288462" stop-color="#2E7B9A"/>
<stop offset="1" stop-color="#224075"/>
</linearGradient>
<linearGradient id="paint4_linear_2286_9634" x1="49.926" y1="40.9868" x2="10.7442" y2="-6.98307" gradientUnits="userSpaceOnUse">
<stop stop-color="#54BE95"/>
<stop offset="0.288462" stop-color="#2E7B9A"/>
<stop offset="1" stop-color="#224075"/>
</linearGradient>
<linearGradient id="paint5_linear_2286_9634" x1="49.926" y1="40.9868" x2="10.7442" y2="-6.98307" gradientUnits="userSpaceOnUse">
<stop stop-color="#54BE95"/>
<stop offset="0.288462" stop-color="#2E7B9A"/>
<stop offset="1" stop-color="#224075"/>
</linearGradient>
</defs>
</svg>
