<svg width="20" height="20" viewBox="0 0 20 20" fill="none" xmlns="http://www.w3.org/2000/svg">
<path d="M14.6062 1.00373C12.0493 0.943747 9.99998 3.13849 9.99998 5.69689V8.12633C9.99998 9.16184 10.839 10.0009 11.8745 10.0009H14.304C16.8616 10.0009 19.0571 7.95162 18.9971 5.39471C18.9402 2.99827 17.0019 1.05997 14.6062 1.00373ZM16.3735 6.25101H15.2488V7.37575C15.2488 7.78966 14.9128 8.12558 14.4989 8.12558C14.085 8.12558 13.7491 7.78966 13.7491 7.37575V6.25101H12.6244C12.2105 6.25101 11.8745 5.91509 11.8745 5.50119C11.8745 5.08728 12.2105 4.75136 12.6244 4.75136H13.7491V3.62662C13.7491 3.21272 14.085 2.8768 14.4989 2.8768C14.9128 2.8768 15.2488 3.21272 15.2488 3.62662V4.75136H16.3735C16.7874 4.75136 17.1233 5.08728 17.1233 5.50119C17.1233 5.91509 16.7874 6.25101 16.3735 6.25101ZM16.4905 12.1416C15.5944 11.2853 14.1743 11.2861 13.2797 12.1469L11.8513 13.3511C9.45336 12.3336 7.74676 10.6232 6.65351 8.14207L7.85398 6.71965C8.71328 5.82586 8.71403 4.40644 7.85848 3.50965C7.85848 3.50965 6.4698 1.70482 6.44656 1.68158C5.54227 0.775786 4.06811 0.776536 3.20206 1.64633L2.33976 2.39916C1.47746 3.26071 1.00208 4.42519 1.00208 5.67965C1.00208 11.4053 8.59481 18.998 14.3205 18.998C15.5749 18.998 16.7402 18.5234 17.6355 17.6236L18.3193 16.8363C19.2228 15.9313 19.2228 14.4594 18.3193 13.5551C18.2968 13.5318 16.4912 12.1431 16.4912 12.1431L16.4905 12.1416Z" fill="#134A85"/>
</svg>
