<svg width="68" height="68" viewBox="0 0 68 68" fill="none" xmlns="http://www.w3.org/2000/svg">
<g clip-path="url(#clip0_1220_4092)">
<path d="M22.3422 66.9379H3.14355V23.4462H22.3422V66.9379Z" fill="white"/>
<path d="M21.8053 23.8977H1.0625V19.0966H21.8053V23.8977Z" fill="white"/>
<path d="M45.6914 23.4462H64.8561V66.9379H45.6914V23.4462Z" fill="white"/>
<path d="M64.8564 66.9377V25.3444H49.8666C49.3109 25.3444 48.778 25.5651 48.3851 25.958C47.9921 26.351 47.7714 26.8839 47.7714 27.4396V66.9377H64.8564ZM3.14355 66.9377V25.3444H18.1333C18.689 25.3444 19.2219 25.5651 19.6149 25.958C20.0078 26.351 20.2286 26.8839 20.2286 27.4396V66.9377H3.14355Z" fill="white"/>
<path d="M46.1943 19.0953H66.9372V23.8964H46.1943V19.0953Z" fill="white"/>
<path d="M51.2197 28.7525H60.5527V32.722H51.2197V28.7525ZM51.2197 38.5332H60.5527V42.5027H51.2197V38.5332ZM51.2197 48.3138H60.5527V52.2833H51.2197V48.3138ZM51.2197 58.0945H60.5527V62.064H51.2197V58.0945Z" fill="white"/>
<path d="M21.8057 7.1712H46.1964V66.9375H21.8057V7.1712Z" fill="white"/>
<path d="M46.1945 66.9371V9.49127H26.4915C25.8726 9.49127 25.2792 9.7371 24.8416 10.1747C24.404 10.6122 24.1582 11.2057 24.1582 11.8245V66.9329L46.1945 66.9371Z" fill="white"/>
<path d="M38.667 66.9378H29.334V43.8433H38.667V66.9378Z" fill="white"/>
<path d="M17.3955 1.0625H50.605V7.60608H17.3955V1.0625Z" fill="white"/>
<path d="M22.5658 5.68083H50.6045V1.0625H19.8926V3.00758C19.8926 3.71657 20.1742 4.39652 20.6756 4.89786C21.1769 5.39919 21.8568 5.68083 22.5658 5.68083Z" fill="white"/>
<path d="M38.667 33.7849H29.334C29.0522 33.7849 28.7819 33.6729 28.5827 33.4737C28.3834 33.2744 28.2715 33.0041 28.2715 32.7224C28.2715 32.4406 28.3834 32.1703 28.5827 31.9711C28.7819 31.7718 29.0522 31.6599 29.334 31.6599H38.667C38.9488 31.6599 39.219 31.7718 39.4183 31.9711C39.6175 32.1703 39.7295 32.4406 39.7295 32.7224C39.7295 33.0041 39.6175 33.2744 39.4183 33.4737C39.219 33.6729 38.9488 33.7849 38.667 33.7849ZM38.667 39.3453H29.334C29.0522 39.3453 28.7819 39.2333 28.5827 39.0341C28.3834 38.8348 28.2715 38.5646 28.2715 38.2828C28.2715 38.001 28.3834 37.7307 28.5827 37.5315C28.7819 37.3322 29.0522 37.2203 29.334 37.2203H38.667C38.9488 37.2203 39.219 37.3322 39.4183 37.5315C39.6175 37.7307 39.7295 38.001 39.7295 38.2828C39.7295 38.5646 39.6175 38.8348 39.4183 39.0341C39.219 39.2333 38.9488 39.3453 38.667 39.3453Z" fill="white"/>
<path d="M40.8989 16.7406H36.3543V12.1973H31.6453V16.7406H27.1006V21.4496H31.6453V25.9942H36.3543V21.4496H40.8989V16.7406Z" fill="white"/>
<path d="M16.7793 32.722H7.44629V28.7525H16.7793V32.722ZM16.7793 42.5027H7.44629V38.5332H16.7793V42.5027ZM16.7793 52.2833H7.44629V48.3138H16.7793V52.2833ZM16.7793 62.0612H7.44629V58.0917H16.7793V62.0612Z" fill="white"/>
<path d="M40.8977 15.6781H37.417V12.1973C37.417 11.9155 37.305 11.6453 37.1058 11.446C36.9065 11.2468 36.6363 11.1348 36.3545 11.1348H31.6455C31.3637 11.1348 31.0934 11.2468 30.8942 11.446C30.6949 11.6453 30.583 11.9155 30.583 12.1973V15.6781H27.1022C26.8204 15.6781 26.5502 15.79 26.3509 15.9893C26.1517 16.1885 26.0397 16.4588 26.0397 16.7406V21.4496C26.0397 21.7314 26.1517 22.0016 26.3509 22.2009C26.5502 22.4001 26.8204 22.5121 27.1022 22.5121H30.583V25.9942C30.583 26.276 30.6949 26.5463 30.8942 26.7455C31.0934 26.9448 31.3637 27.0567 31.6455 27.0567H36.3545C36.6363 27.0567 36.9065 26.9448 37.1058 26.7455C37.305 26.5463 37.417 26.276 37.417 25.9942V22.5121H40.8977C41.1795 22.5121 41.4498 22.4001 41.649 22.2009C41.8483 22.0016 41.9602 21.7314 41.9602 21.4496V16.7406C41.9602 16.4588 41.8483 16.1885 41.649 15.9893C41.4498 15.79 41.1795 15.6781 40.8977 15.6781ZM39.8352 20.3871H36.3545C36.0727 20.3871 35.8024 20.499 35.6032 20.6983C35.4039 20.8975 35.292 21.1678 35.292 21.4496V24.9332H32.708V21.4496C32.708 21.1678 32.596 20.8975 32.3968 20.6983C32.1975 20.499 31.9273 20.3871 31.6455 20.3871H28.1647V17.8031H31.6455C31.9273 17.8031 32.1975 17.6911 32.3968 17.4919C32.596 17.2926 32.708 17.0224 32.708 16.7406V13.2598H35.292V16.7406C35.292 17.0224 35.4039 17.2926 35.6032 17.4919C35.8024 17.6911 36.0727 17.8031 36.3545 17.8031H39.8352V20.3871ZM3.14355 25.8313C2.86176 25.8313 2.59151 25.9433 2.39225 26.1425C2.193 26.3418 2.08105 26.612 2.08105 26.8938V66.9373C2.08105 67.2191 2.193 67.4894 2.39225 67.6886C2.59151 67.8879 2.86176 67.9998 3.14355 67.9998C3.42535 67.9998 3.6956 67.8879 3.89486 67.6886C4.09411 67.4894 4.20605 67.2191 4.20605 66.9373V26.8938C4.20605 26.612 4.09411 26.3418 3.89486 26.1425C3.6956 25.9433 3.42535 25.8313 3.14355 25.8313ZM16.7818 27.69H7.44881C7.16701 27.69 6.89676 27.8019 6.6975 28.0012C6.49825 28.2004 6.3863 28.4707 6.3863 28.7525V32.7192C6.3863 33.001 6.49825 33.2712 6.6975 33.4705C6.89676 33.6697 7.16701 33.7817 7.44881 33.7817H16.7818C17.0636 33.7817 17.3338 33.6697 17.5331 33.4705C17.7324 33.2712 17.8443 33.001 17.8443 32.7192V28.7582C17.8451 28.6182 17.8181 28.4794 17.7651 28.3498C17.712 28.2203 17.6339 28.1025 17.5351 28.0032C17.4364 27.9039 17.319 27.8252 17.1897 27.7714C17.0604 27.7177 16.9218 27.69 16.7818 27.69ZM15.7193 31.6567H8.51131V29.815H15.725L15.7193 31.6567ZM16.7818 37.4707H7.44881C7.16701 37.4707 6.89676 37.5826 6.6975 37.7819C6.49825 37.9811 6.3863 38.2514 6.3863 38.5332V42.4998C6.3863 42.7816 6.49825 43.0519 6.6975 43.2511C6.89676 43.4504 7.16701 43.5623 7.44881 43.5623H16.7818C16.9218 43.5631 17.0606 43.5361 17.1901 43.4831C17.3197 43.43 17.4375 43.3519 17.5368 43.2531C17.636 43.1544 17.7148 43.037 17.7686 42.9077C17.8223 42.7785 17.85 42.6398 17.85 42.4998V38.5332C17.85 38.3932 17.8223 38.2545 17.7686 38.1252C17.7148 37.996 17.636 37.8786 17.5368 37.7798C17.4375 37.6811 17.3197 37.603 17.1901 37.5499C17.0606 37.4968 16.9218 37.4699 16.7818 37.4707ZM15.7193 41.4373H8.51131V39.5957H15.725L15.7193 41.4373ZM38.6665 42.7832H29.3335C29.0517 42.7832 28.7814 42.8951 28.5822 43.0944C28.3829 43.2936 28.271 43.5639 28.271 43.8457V66.9373C28.271 67.2191 28.3829 67.4894 28.5822 67.6886C28.7814 67.8879 29.0517 67.9998 29.3335 67.9998C29.6153 67.9998 29.8855 67.8879 30.0848 67.6886C30.284 67.4894 30.396 67.2191 30.396 66.9373V44.9082H37.604V66.9373C37.604 67.2191 37.7159 67.4894 37.9152 67.6886C38.1144 67.8879 38.3847 67.9998 38.6665 67.9998C38.9483 67.9998 39.2185 67.8879 39.4178 67.6886C39.617 67.4894 39.729 67.2191 39.729 66.9373V43.8457C39.729 43.5639 39.617 43.2936 39.4178 43.0944C39.2185 42.8951 38.9483 42.7832 38.6665 42.7832ZM16.7818 47.2513H7.44881C7.16701 47.2513 6.89676 47.3633 6.6975 47.5625C6.49825 47.7618 6.3863 48.032 6.3863 48.3138V52.2805C6.3863 52.5623 6.49825 52.8325 6.6975 53.0318C6.89676 53.231 7.16701 53.343 7.44881 53.343H16.7818C17.0636 53.343 17.3338 53.231 17.5331 53.0318C17.7324 52.8325 17.8443 52.5623 17.8443 52.2805V48.3082C17.8428 48.0273 17.7302 47.7585 17.5311 47.5605C17.332 47.3625 17.0626 47.2513 16.7818 47.2513ZM15.7193 51.218H8.51131V49.3763H15.725L15.7193 51.218ZM16.7818 57.0306H7.44881C7.16701 57.0306 6.89676 57.1425 6.6975 57.3418C6.49825 57.541 6.3863 57.8113 6.3863 58.0931V62.0597C6.3863 62.3415 6.49825 62.6118 6.6975 62.811C6.89676 63.0103 7.16701 63.1222 7.44881 63.1222H16.7818C17.0636 63.1222 17.3338 63.0103 17.5331 62.811C17.7324 62.6118 17.8443 62.3415 17.8443 62.0597V58.0931C17.8443 57.8113 17.7324 57.541 17.5331 57.3418C17.3338 57.1425 17.0636 57.0306 16.7818 57.0306ZM15.7193 60.9972H8.51131V59.1556H15.725L15.7193 60.9972ZM64.8564 25.8313C64.5746 25.8313 64.3043 25.9433 64.1051 26.1425C63.9058 26.3418 63.7939 26.612 63.7939 26.8938V66.9373C63.7939 67.2191 63.9058 67.4894 64.1051 67.6886C64.3043 67.8879 64.5746 67.9998 64.8564 67.9998C65.1382 67.9998 65.4084 67.8879 65.6077 67.6886C65.8069 67.4894 65.9189 67.2191 65.9189 66.9373V26.8938C65.9189 26.612 65.8069 26.3418 65.6077 26.1425C65.4084 25.9433 65.1382 25.8313 64.8564 25.8313Z" fill="#1E1E14"/>
<path d="M66.9375 18.0327H47.2572V8.67H50.6048C50.8866 8.67 51.1568 8.55806 51.3561 8.3588C51.5553 8.15954 51.6673 7.88929 51.6673 7.6075V1.0625C51.6673 0.780707 51.5553 0.510456 51.3561 0.311199C51.1568 0.111942 50.8866 0 50.6048 0L17.3953 0C17.1135 0 16.8432 0.111942 16.644 0.311199C16.4447 0.510456 16.3328 0.780707 16.3328 1.0625V7.6075C16.3328 7.88929 16.4447 8.15954 16.644 8.3588C16.8432 8.55806 17.1135 8.67 17.3953 8.67H20.7428V18.0327H1.06251C0.782535 18.0331 0.513989 18.1438 0.315094 18.3408C0.116199 18.5379 0.00298747 18.8054 5.32717e-06 19.0853L-0.0439113 23.8878C-0.0450325 24.0281 -0.018388 24.1673 0.034488 24.2973C0.087364 24.4272 0.165427 24.5455 0.264182 24.6451C0.362938 24.7448 0.480435 24.824 0.609908 24.878C0.739382 24.9321 0.878274 24.9601 1.01859 24.9602H20.7428V66.9375C20.7428 67.2193 20.8548 67.4895 21.054 67.6888C21.2533 67.8881 21.5236 68 21.8053 68C22.0871 68 22.3574 67.8881 22.5566 67.6888C22.7559 67.4895 22.8678 67.2193 22.8678 66.9375V8.67H25.8428C26.1246 8.67 26.3949 8.55806 26.5941 8.3588C26.7934 8.15954 26.9053 7.88929 26.9053 7.6075C26.9053 7.32571 26.7934 7.05546 26.5941 6.8562C26.3949 6.65694 26.1246 6.545 25.8428 6.545H18.4578V2.125H49.5423V6.545H29.6919C29.4101 6.545 29.1399 6.65694 28.9406 6.8562C28.7414 7.05546 28.6294 7.32571 28.6294 7.6075C28.6294 7.88929 28.7414 8.15954 28.9406 8.3588C29.1399 8.55806 29.4101 8.67 29.6919 8.67H45.1336V66.9375C45.1336 67.2193 45.2455 67.4895 45.4448 67.6888C45.6441 67.8881 45.9143 68 46.1961 68C46.4779 68 46.7481 67.8881 46.9474 67.6888C47.1467 67.4895 47.2586 67.2193 47.2586 66.9375V24.9602H66.9375C67.2193 24.9602 67.4896 24.8483 67.6888 24.649C67.8881 24.4498 68 24.1795 68 23.8977V19.0952C68 18.8135 67.8881 18.5432 67.6888 18.3439C67.4896 18.1447 67.2193 18.0327 66.9375 18.0327ZM2.09101 22.8352L2.11509 20.1577H20.7428V22.8352H2.09101ZM65.875 22.8352H47.2572V20.1577H65.875V22.8352Z" fill="#134A85"/>
<path d="M60.5517 27.69H51.2187C50.9369 27.69 50.6666 27.8019 50.4674 28.0012C50.2681 28.2005 50.1562 28.4707 50.1562 28.7525V32.7192C50.1562 33.001 50.2681 33.2712 50.4674 33.4705C50.6666 33.6697 50.9369 33.7817 51.2187 33.7817H60.5517C60.8334 33.7817 61.1037 33.6697 61.303 33.4705C61.5022 33.2712 61.6142 33.001 61.6142 32.7192V28.7582C61.6149 28.6182 61.588 28.4794 61.5349 28.3498C61.4818 28.2203 61.4037 28.1025 61.305 28.0032C61.2062 27.9039 61.0888 27.8252 60.9596 27.7714C60.8303 27.7177 60.6917 27.69 60.5517 27.69ZM59.4892 31.6567H52.2755V29.815H59.4835L59.4892 31.6567ZM60.5517 37.4707H51.2187C50.9369 37.4707 50.6666 37.5826 50.4674 37.7819C50.2681 37.9811 50.1562 38.2514 50.1562 38.5332V42.4998C50.1562 42.7816 50.2681 43.0519 50.4674 43.2511C50.6666 43.4504 50.9369 43.5623 51.2187 43.5623H60.5517C60.8334 43.5623 61.1037 43.4504 61.303 43.2511C61.5022 43.0519 61.6142 42.7816 61.6142 42.4998V38.5332C61.6142 38.2514 61.5022 37.9811 61.303 37.7819C61.1037 37.5826 60.8334 37.4707 60.5517 37.4707ZM59.4892 41.4373H52.2755V39.5957H59.4835L59.4892 41.4373ZM60.5517 47.2513H51.2187C50.9369 47.2513 50.6666 47.3633 50.4674 47.5625C50.2681 47.7618 50.1562 48.032 50.1562 48.3138V52.2805C50.1562 52.5623 50.2681 52.8325 50.4674 53.0318C50.6666 53.2311 50.9369 53.343 51.2187 53.343H60.5517C60.8334 53.343 61.1037 53.2311 61.303 53.0318C61.5022 52.8325 61.6142 52.5623 61.6142 52.2805V48.3082C61.6127 48.0274 61.5001 47.7586 61.301 47.5605C61.1019 47.3625 60.8325 47.2513 60.5517 47.2513ZM59.4892 51.218H52.2755V49.3763H59.4835L59.4892 51.218ZM60.5517 57.0306H51.2187C50.9369 57.0306 50.6666 57.1425 50.4674 57.3418C50.2681 57.541 50.1562 57.8113 50.1562 58.0931V62.0598C50.1562 62.3415 50.2681 62.6118 50.4674 62.8111C50.6666 63.0103 50.9369 63.1223 51.2187 63.1223H60.5517C60.8334 63.1223 61.1037 63.0103 61.303 62.8111C61.5022 62.6118 61.6142 62.3415 61.6142 62.0598V58.0931C61.6142 57.8113 61.5022 57.541 61.303 57.3418C61.1037 57.1425 60.8334 57.0306 60.5517 57.0306ZM59.4892 60.9973H52.2755V59.1556H59.4835L59.4892 60.9973ZM38.667 31.6595H29.334C29.0522 31.6595 28.7819 31.7714 28.5827 31.9707C28.3834 32.17 28.2715 32.4402 28.2715 32.722C28.2715 33.0038 28.3834 33.274 28.5827 33.4733C28.7819 33.6726 29.0522 33.7845 29.334 33.7845H38.667C38.9488 33.7845 39.219 33.6726 39.4183 33.4733C39.6175 33.274 39.7295 33.0038 39.7295 32.722C39.7295 32.4402 39.6175 32.17 39.4183 31.9707C39.219 31.7714 38.9488 31.6595 38.667 31.6595ZM38.667 37.2199H29.334C29.0522 37.2199 28.7819 37.3319 28.5827 37.5311C28.3834 37.7304 28.2715 38.0006 28.2715 38.2824C28.2715 38.5642 28.3834 38.8345 28.5827 39.0337C28.7819 39.233 29.0522 39.3449 29.334 39.3449H38.667C38.9488 39.3449 39.219 39.233 39.4183 39.0337C39.6175 38.8345 39.7295 38.5642 39.7295 38.2824C39.7295 38.0006 39.6175 37.7304 39.4183 37.5311C39.219 37.3319 38.9488 37.2199 38.667 37.2199Z" fill="#1E1E14"/>
</g>
<defs>
<clipPath id="clip0_1220_4092">
<rect width="68" height="68" fill="white"/>
</clipPath>
</defs>
</svg>
