<svg width="52" height="51" viewBox="0 0 52 51" fill="none" xmlns="http://www.w3.org/2000/svg">
<g clip-path="url(#clip0_2286_9621)">
<path d="M29.8884 6.9702H28.8927V5.97444C28.8927 4.87631 27.9993 3.98291 26.9011 3.98291H24.9096C23.8115 3.98291 22.9181 4.87631 22.9181 5.97444V6.9702H21.9223C20.8242 6.9702 19.9308 7.8636 19.9308 8.96173V10.9533C19.9308 12.0514 20.8242 12.9448 21.9223 12.9448H22.9181V13.9406C22.9181 15.0387 23.8115 15.9321 24.9096 15.9321H26.9011C27.9993 15.9321 28.8927 15.0387 28.8927 13.9406V12.9448H29.8884C30.9866 12.9448 31.88 12.0514 31.88 10.9533V8.96173C31.88 7.8636 30.9866 6.9702 29.8884 6.9702ZM29.8884 10.9533H27.8969C27.3469 10.9533 26.9011 11.3991 26.9011 11.949V13.9406H24.9096V11.949C24.9096 11.3991 24.4638 10.9533 23.9138 10.9533H21.9223V8.96173H23.9138C24.4638 8.96173 24.9096 8.51593 24.9096 7.96597L24.9094 5.97444H26.9011V7.96597C26.9011 8.51593 27.3469 8.96173 27.8969 8.96173H29.8884V10.9533Z" fill="url(#paint0_linear_2286_9621)"/>
<path d="M47.8121 45.0086V42.0213C47.8121 41.4713 47.3663 41.0255 46.8164 41.0255H45.8205V12.9449H46.8164C47.3663 12.9449 47.8121 12.4991 47.8121 11.9492V7.96612C47.8121 7.41616 47.3663 6.97035 46.8164 6.97035H35.405C34.1331 2.93472 30.3557 0 25.9053 0C21.455 0 17.6775 2.93472 16.4057 6.97035H4.99428C4.44431 6.97035 3.99851 7.41616 3.99851 7.96612V11.9492C3.99851 12.4991 4.44431 12.9449 4.99428 12.9449H5.99004V16.8096C5.99004 17.3596 6.43584 17.8054 6.9858 17.8054C7.53577 17.8054 7.98157 17.3596 7.98157 16.8096V12.9449H16.4057C17.6776 16.9806 21.4551 19.9153 25.9053 19.9153C30.3556 19.9153 34.1331 16.9806 35.4049 12.9449H43.8289V41.0255H36.8585V23.8984C36.8585 22.8003 35.9651 21.9069 34.867 21.9069H16.9434C15.8453 21.9069 14.9519 22.8003 14.9519 23.8984V41.0255H7.98157V25.7715C7.98157 25.2215 7.53577 24.7757 6.9858 24.7757C6.43584 24.7757 5.99004 25.2215 5.99004 25.7715V41.0255H4.99428C4.44431 41.0255 3.99851 41.4713 3.99851 42.0213V45.0086C3.44855 45.0086 3.00275 45.4544 3.00275 46.0043V49.9874C3.00275 50.5373 3.44855 50.9831 3.99851 50.9831H47.8121C48.3621 50.9831 48.8079 50.5373 48.8079 49.9874V46.0043C48.8079 45.4544 48.3621 45.0086 47.8121 45.0086ZM5.99004 10.9534V8.96188H15.9974C15.9647 9.28949 15.9477 9.62157 15.9477 9.95765C15.9477 10.2937 15.9646 10.6258 15.9974 10.9534H5.99004ZM25.9053 17.9238C21.5128 17.9238 17.9392 14.3502 17.9392 9.95765C17.9392 5.56513 21.5128 1.99153 25.9053 1.99153C30.2978 1.99153 33.8714 5.56513 33.8714 9.95765C33.8714 14.3502 30.2979 17.9238 25.9053 17.9238ZM35.8134 8.96188H45.8206V10.9534H35.8134C35.846 10.6258 35.8631 10.2937 35.8631 9.95765C35.8631 9.62157 35.846 9.28949 35.8134 8.96188ZM34.8671 41.0255H26.9011V23.8984H34.8671V41.0255ZM16.9434 41.0255V23.8984H24.9096V41.0255H16.9434ZM5.99004 45.0086V43.017H45.8206V45.0086H5.99004ZM46.8164 48.9916H4.99428V47.0001H46.8164V48.9916Z" fill="url(#paint1_linear_2286_9621)"/>
<path d="M21.9222 30.4702C21.3722 30.4702 20.9264 30.916 20.9264 31.466V33.4575C20.9264 34.0075 21.3722 34.4533 21.9222 34.4533C22.4721 34.4533 22.9179 34.0075 22.9179 33.4575V31.466C22.9179 30.916 22.472 30.4702 21.9222 30.4702Z" fill="url(#paint2_linear_2286_9621)"/>
<path d="M29.8885 30.4702C29.3386 30.4702 28.8928 30.916 28.8928 31.466V33.4575C28.8928 34.0075 29.3386 34.4533 29.8885 34.4533C30.4385 34.4533 30.8843 34.0075 30.8843 33.4575V31.466C30.8843 30.916 30.4385 30.4702 29.8885 30.4702Z" fill="url(#paint3_linear_2286_9621)"/>
<path d="M6.98582 22.2865C7.53578 22.2865 7.98158 21.8407 7.98158 21.2907V21.29C7.98158 20.7401 7.53578 20.2947 6.98582 20.2947C6.43586 20.2947 5.99005 20.7408 5.99005 21.2907C5.99005 21.8407 6.43595 22.2865 6.98582 22.2865Z" fill="url(#paint4_linear_2286_9621)"/>
</g>
<defs>
<linearGradient id="paint0_linear_2286_9621" x1="31.88" y1="15.9321" x2="19.9308" y2="3.98291" gradientUnits="userSpaceOnUse">
<stop stop-color="#54BE95"/>
<stop offset="0.288462" stop-color="#2E7B9A"/>
<stop offset="1" stop-color="#224075"/>
</linearGradient>
<linearGradient id="paint1_linear_2286_9621" x1="48.8079" y1="50.9831" x2="-1.88423" y2="5.43942" gradientUnits="userSpaceOnUse">
<stop stop-color="#54BE95"/>
<stop offset="0.288462" stop-color="#2E7B9A"/>
<stop offset="1" stop-color="#224075"/>
</linearGradient>
<linearGradient id="paint2_linear_2286_9621" x1="22.9179" y1="34.4533" x2="19.7315" y2="32.86" gradientUnits="userSpaceOnUse">
<stop stop-color="#54BE95"/>
<stop offset="0.288462" stop-color="#2E7B9A"/>
<stop offset="1" stop-color="#224075"/>
</linearGradient>
<linearGradient id="paint3_linear_2286_9621" x1="30.8843" y1="34.4533" x2="27.6978" y2="32.86" gradientUnits="userSpaceOnUse">
<stop stop-color="#54BE95"/>
<stop offset="0.288462" stop-color="#2E7B9A"/>
<stop offset="1" stop-color="#224075"/>
</linearGradient>
<linearGradient id="paint4_linear_2286_9621" x1="7.98158" y1="22.2865" x2="5.98975" y2="20.295" gradientUnits="userSpaceOnUse">
<stop stop-color="#54BE95"/>
<stop offset="0.288462" stop-color="#2E7B9A"/>
<stop offset="1" stop-color="#224075"/>
</linearGradient>
<clipPath id="clip0_2286_9621">
<rect width="50.9831" height="50.9831" fill="white" transform="translate(0.413757)"/>
</clipPath>
</defs>
</svg>
