<svg width="29" height="28" viewBox="0 0 29 28" fill="none" xmlns="http://www.w3.org/2000/svg">
<path d="M22.1055 0H7.23047C3.6061 0 0.667969 2.93813 0.667969 6.5625V21.4375C0.667969 25.0619 3.6061 28 7.23047 28H22.1055C25.7298 28 28.668 25.0619 28.668 21.4375V6.5625C28.668 2.93813 25.7298 0 22.1055 0Z" fill="url(#paint0_radial_2017_10345)"/>
<path d="M22.1055 0H7.23047C3.6061 0 0.667969 2.93813 0.667969 6.5625V21.4375C0.667969 25.0619 3.6061 28 7.23047 28H22.1055C25.7298 28 28.668 25.0619 28.668 21.4375V6.5625C28.668 2.93813 25.7298 0 22.1055 0Z" fill="url(#paint1_radial_2017_10345)"/>
<path d="M14.669 3.06256C11.6985 3.06256 11.3257 3.07558 10.1591 3.12862C8.99469 3.182 8.19986 3.3663 7.50445 3.63678C6.78498 3.91612 6.17478 4.28986 5.56688 4.89798C4.95842 5.506 4.58469 6.1162 4.30447 6.83534C4.03322 7.53097 3.8487 8.32612 3.79631 9.48998C3.74414 10.6567 3.73047 11.0297 3.73047 14.0002C3.73047 16.9707 3.74359 17.3423 3.79653 18.5089C3.85013 19.6733 4.03442 20.4682 4.30469 21.1636C4.58425 21.883 4.95798 22.4932 5.56611 23.1012C6.17391 23.7096 6.78411 24.0842 7.50303 24.3636C8.19898 24.634 8.99392 24.8183 10.1581 24.8717C11.3248 24.9248 11.6973 24.9378 14.6676 24.9378C17.6384 24.9378 18.01 24.9248 19.1766 24.8717C20.341 24.8183 21.1367 24.634 21.8327 24.3636C22.5518 24.0842 23.1612 23.7096 23.7688 23.1012C24.3773 22.4932 24.7509 21.883 25.0312 21.1639C25.3001 20.4682 25.4847 19.6731 25.5394 18.5092C25.5918 17.3426 25.6055 16.9707 25.6055 14.0002C25.6055 11.0297 25.5918 10.6569 25.5394 9.4902C25.4847 8.3258 25.3001 7.53108 25.0312 6.83567C24.7509 6.1162 24.3773 5.506 23.7688 4.89798C23.1605 4.28964 22.552 3.9159 21.832 3.63689C21.1348 3.3663 20.3395 3.18189 19.1751 3.12862C18.0084 3.07558 17.637 3.06256 14.6656 3.06256H14.669ZM13.6877 5.03361C13.979 5.03317 14.304 5.03361 14.669 5.03361C17.5894 5.03361 17.9354 5.04411 19.0887 5.0965C20.1551 5.14528 20.7339 5.32345 21.1195 5.47319C21.6299 5.67137 21.9938 5.90839 22.3764 6.29131C22.7592 6.67412 22.9961 7.03867 23.1948 7.54912C23.3446 7.93412 23.523 8.51294 23.5715 9.57934C23.6239 10.7324 23.6353 11.0787 23.6353 13.9977C23.6353 16.9167 23.6239 17.263 23.5715 18.416C23.5228 19.4824 23.3446 20.0612 23.1948 20.4463C22.9967 20.9567 22.7592 21.3202 22.3764 21.7028C21.9936 22.0856 21.6301 22.3225 21.1195 22.5208C20.7343 22.6712 20.1551 22.8489 19.0887 22.8977C17.9357 22.9501 17.5894 22.9615 14.669 22.9615C11.7484 22.9615 11.4022 22.9501 10.2493 22.8977C9.18292 22.8485 8.60411 22.6703 8.21823 22.5206C7.70789 22.3223 7.34323 22.0854 6.96042 21.7026C6.57761 21.3198 6.3407 20.9561 6.14197 20.4454C5.99223 20.0603 5.81384 19.4815 5.76528 18.4151C5.71289 17.2621 5.70239 16.9158 5.70239 13.9949C5.70239 11.0742 5.71289 10.7296 5.76528 9.57661C5.81406 8.5102 5.99223 7.93139 6.14197 7.54584C6.34027 7.03539 6.57761 6.67084 6.96053 6.28803C7.34334 5.90522 7.70789 5.6682 8.21834 5.46958C8.60389 5.31919 9.18292 5.14145 10.2493 5.09245C11.2583 5.04684 11.6493 5.03317 13.6877 5.03087V5.03361ZM20.5074 6.84967C19.7828 6.84967 19.1949 7.43701 19.1949 8.16173C19.1949 8.88634 19.7828 9.47423 20.5074 9.47423C21.232 9.47423 21.8199 8.88634 21.8199 8.16173C21.8199 7.43712 21.232 6.84923 20.5074 6.84923V6.84967ZM14.669 8.38322C11.5671 8.38322 9.05211 10.8982 9.05211 14.0002C9.05211 17.1022 11.5671 19.6159 14.669 19.6159C17.7709 19.6159 20.285 17.1022 20.285 14.0002C20.285 10.8983 17.7707 8.38322 14.6687 8.38322H14.669ZM14.669 10.3543C16.6824 10.3543 18.3149 11.9865 18.3149 14.0002C18.3149 16.0137 16.6824 17.6461 14.669 17.6461C12.6554 17.6461 11.0232 16.0137 11.0232 14.0002C11.0232 11.9865 12.6554 10.3543 14.669 10.3543Z" fill="white"/>
<defs>
<radialGradient id="paint0_radial_2017_10345" cx="0" cy="0" r="1" gradientUnits="userSpaceOnUse" gradientTransform="translate(8.10547 30.1565) rotate(-90) scale(27.7501 25.8098)">
<stop stop-color="#FFDD55"/>
<stop offset="0.1" stop-color="#FFDD55"/>
<stop offset="0.5" stop-color="#FF543E"/>
<stop offset="1" stop-color="#C837AB"/>
</radialGradient>
<radialGradient id="paint1_radial_2017_10345" cx="0" cy="0" r="1" gradientUnits="userSpaceOnUse" gradientTransform="translate(-4.02214 2.01698) rotate(78.681) scale(12.4044 51.1315)">
<stop stop-color="#3771C8"/>
<stop offset="0.128" stop-color="#3771C8"/>
<stop offset="1" stop-color="#6600FF" stop-opacity="0"/>
</radialGradient>
</defs>
</svg>
