<svg width="32" height="32" viewBox="0 0 32 32" fill="none" xmlns="http://www.w3.org/2000/svg">
<path d="M18.3769 16.0333C18.3769 17.5502 17.1471 18.78 15.6302 18.78C14.1133 18.78 12.8835 17.5502 12.8835 16.0333C12.8835 14.5164 14.1133 13.2866 15.6302 13.2866C17.1471 13.2866 18.3769 14.5164 18.3769 16.0333Z" fill="url(#paint0_linear_2286_9562)"/>
<path d="M20.269 7.73242H10.9913C8.97186 7.73242 7.3291 9.37518 7.3291 11.3947V20.6723C7.3291 22.6918 8.97186 24.3345 10.9913 24.3345H20.269C22.2885 24.3345 23.9312 22.6918 23.9312 20.6723V11.3947C23.9312 9.37518 22.2885 7.73242 20.269 7.73242ZM15.6302 20.6113C13.1059 20.6113 11.0524 18.5577 11.0524 16.0335C11.0524 13.5093 13.1059 11.4557 15.6302 11.4557C18.1544 11.4557 20.2079 13.5093 20.2079 16.0335C20.2079 18.5577 18.1544 20.6113 15.6302 20.6113ZM20.8794 11.6998C20.3737 11.6998 19.9638 11.29 19.9638 10.7843C19.9638 10.2786 20.3737 9.86872 20.8794 9.86872C21.3851 9.86872 21.7949 10.2786 21.7949 10.7843C21.7949 11.29 21.3851 11.6998 20.8794 11.6998Z" fill="url(#paint1_linear_2286_9562)"/>
<path d="M23.0156 0.407715H8.24459C3.70114 0.407715 0.00457764 4.10428 0.00457764 8.64773V23.4187C0.00457764 27.9622 3.70114 31.6587 8.24459 31.6587H23.0156C27.559 31.6587 31.2556 27.9622 31.2556 23.4187V8.64773C31.2556 4.10428 27.559 0.407715 23.0156 0.407715ZM25.7623 20.6721C25.7623 23.701 23.2979 26.1654 20.2689 26.1654H10.9913C7.9623 26.1654 5.49792 23.701 5.49792 20.6721V11.3944C5.49792 8.36544 7.9623 5.90106 10.9913 5.90106H20.2689C23.2979 5.90106 25.7623 8.36544 25.7623 11.3944V20.6721Z" fill="url(#paint2_linear_2286_9562)"/>
<defs>
<linearGradient id="paint0_linear_2286_9562" x1="18.3769" y1="18.78" x2="12.8835" y2="13.2866" gradientUnits="userSpaceOnUse">
<stop stop-color="#223E76"/>
<stop offset="0.511069" stop-color="#365699"/>
<stop offset="1" stop-color="#2BA9B4"/>
</linearGradient>
<linearGradient id="paint1_linear_2286_9562" x1="23.9312" y1="24.3345" x2="7.3291" y2="7.73242" gradientUnits="userSpaceOnUse">
<stop stop-color="#223E76"/>
<stop offset="0.511069" stop-color="#365699"/>
<stop offset="1" stop-color="#2BA9B4"/>
</linearGradient>
<linearGradient id="paint2_linear_2286_9562" x1="31.2556" y1="31.6587" x2="0.00457764" y2="0.407715" gradientUnits="userSpaceOnUse">
<stop stop-color="#223E76"/>
<stop offset="0.511069" stop-color="#365699"/>
<stop offset="1" stop-color="#2BA9B4"/>
</linearGradient>
</defs>
</svg>
