<svg width="31" height="32" viewBox="0 0 31 32" fill="none" xmlns="http://www.w3.org/2000/svg">
<path d="M17.6769 16.0001C17.6769 17.4596 16.4936 18.6428 15.0342 18.6428C13.5747 18.6428 12.3915 17.4596 12.3915 16.0001C12.3915 14.5407 13.5747 13.3574 15.0342 13.3574C16.4936 13.3574 17.6769 14.5407 17.6769 16.0001Z" fill="url(#paint0_linear_60_758)"/>
<path d="M19.4974 8.01318H10.5709C8.62788 8.01318 7.0473 9.59376 7.0473 11.5368V20.4633C7.0473 22.4063 8.62788 23.9869 10.5709 23.9869H19.4974C21.4404 23.9869 23.021 22.4063 23.021 20.4633V11.5368C23.021 9.59376 21.4404 8.01318 19.4974 8.01318ZM15.0342 20.4046C12.6055 20.4046 10.6296 18.4287 10.6296 16C10.6296 13.5714 12.6055 11.5955 15.0342 11.5955C17.4628 11.5955 19.4387 13.5714 19.4387 16C19.4387 18.4287 17.4628 20.4046 15.0342 20.4046ZM20.0847 11.8304C19.5981 11.8304 19.2038 11.4361 19.2038 10.9495C19.2038 10.463 19.5981 10.0686 20.0847 10.0686C20.5712 10.0686 20.9656 10.463 20.9656 10.9495C20.9656 11.4361 20.5712 11.8304 20.0847 11.8304Z" fill="url(#paint1_linear_60_758)"/>
<path d="M22.14 0.96582H7.92813C3.55665 0.96582 0 4.52247 0 8.89395V23.1059C0 27.4774 3.55665 31.034 7.92813 31.034H22.14C26.5115 31.034 30.0682 27.4774 30.0682 23.1059V8.89395C30.0682 4.52247 26.5115 0.96582 22.14 0.96582ZM24.7828 20.4632C24.7828 23.3775 22.4117 25.7486 19.4973 25.7486H10.5708C7.65652 25.7486 5.28542 23.3775 5.28542 20.4632V11.5367C5.28542 8.62234 7.65652 6.25124 10.5708 6.25124H19.4973C22.4117 6.25124 24.7828 8.62234 24.7828 11.5367V20.4632Z" fill="url(#paint2_linear_60_758)"/>
<defs>
<linearGradient id="paint0_linear_60_758" x1="17.6769" y1="18.6428" x2="12.3915" y2="13.3574" gradientUnits="userSpaceOnUse">
<stop stop-color="#F6811F"/>
<stop offset="0.511069" stop-color="#4C586B"/>
<stop offset="1" stop-color="#134A85"/>
</linearGradient>
<linearGradient id="paint1_linear_60_758" x1="23.021" y1="23.9869" x2="7.0473" y2="8.01318" gradientUnits="userSpaceOnUse">
<stop stop-color="#F6811F"/>
<stop offset="0.511069" stop-color="#4C586B"/>
<stop offset="1" stop-color="#134A85"/>
</linearGradient>
<linearGradient id="paint2_linear_60_758" x1="30.0682" y1="31.034" x2="0" y2="0.96582" gradientUnits="userSpaceOnUse">
<stop stop-color="#F6811F"/>
<stop offset="0.511069" stop-color="#4C586B"/>
<stop offset="1" stop-color="#134A85"/>
</linearGradient>
</defs>
</svg>
