<svg width="86" height="86" viewBox="0 0 86 86" fill="none" xmlns="http://www.w3.org/2000/svg">
<g opacity="0.25" clip-path="url(#clip0_1417_5353)">
<path d="M1.88419 57.2804V58.7703C1.88419 58.9154 1.82655 59.0545 1.72395 59.1571C1.62136 59.2597 1.48221 59.3174 1.33711 59.3174C1.19202 59.3174 1.05287 59.2597 0.950273 59.1571C0.847677 59.0545 0.790039 58.9154 0.790039 58.7703V57.2804C0.790039 57.1353 0.847677 56.9962 0.950273 56.8936C1.05287 56.791 1.19202 56.7333 1.33711 56.7333C1.48221 56.7333 1.62136 56.791 1.72395 56.8936C1.82655 56.9962 1.88419 57.1353 1.88419 57.2804ZM1.33711 61.0647C1.19202 61.0647 1.05287 61.1224 0.950273 61.225C0.847677 61.3276 0.790039 61.4667 0.790039 61.6118V69.7679C0.790039 69.8397 0.80419 69.9109 0.831683 69.9772C0.859176 70.0436 0.899473 70.1039 0.950273 70.1547C1.00107 70.2055 1.06138 70.2458 1.12776 70.2733C1.19413 70.3008 1.26527 70.3149 1.33711 70.3149C1.40896 70.3149 1.4801 70.3008 1.54647 70.2733C1.61284 70.2458 1.67315 70.2055 1.72395 70.1547C1.77475 70.1039 1.81505 70.0436 1.84254 69.9772C1.87004 69.9109 1.88419 69.8397 1.88419 69.7679V61.6118C1.88419 61.4667 1.82655 61.3276 1.72395 61.225C1.62136 61.1224 1.48221 61.0647 1.33711 61.0647ZM85.2105 36.2361V79.9265C85.2105 83.2878 82.4522 85.9947 79.1424 85.9947H10.3223C7.00539 85.9947 4.25423 83.2826 4.25423 79.9265V36.2027C4.25423 36.073 4.31486 35.9067 4.42606 35.8014L12.6743 28.0076V18.2658C12.6743 14.919 15.3953 12.1961 18.7393 12.1961H29.4097L40.5639 1.65906C42.9037 -0.545696 46.5644 -0.545696 48.899 1.65906L60.0531 12.1961H70.723C74.0701 12.1961 76.7927 14.919 76.7927 18.2658V28.0076L85.041 35.8014C85.1332 35.8884 85.1878 36.024 85.2105 36.2361ZM76.7929 29.5125V41.4945L83.8212 36.154L76.7929 29.5125ZM31.0033 12.1961H58.4596L48.1477 2.45439C46.2335 0.647386 43.2322 0.647386 41.3147 2.4549L31.0033 12.1961ZM13.7685 18.2658V42.329L38.7018 61.3022L42.9448 58.406C44.0302 57.6654 45.4346 57.6649 46.52 58.406L50.7659 61.3041L75.6987 42.3272V18.2658C75.6987 15.5222 73.4666 13.2901 70.723 13.2901H18.7393C15.9983 13.2901 13.7685 15.522 13.7685 18.2658ZM5.64618 36.154C7.33914 37.4446 10.8015 40.0737 12.6745 41.4964V29.5125L5.64618 36.154ZM5.34821 79.9265C5.34821 81.1874 5.82356 82.3366 6.59974 83.2143L37.7467 61.954C35.2796 60.0769 7.17873 38.6931 5.34821 37.3049V79.9265ZM79.1424 84.9007C80.2194 84.9007 81.2148 84.5528 82.03 83.9688L45.9038 59.3098C45.1917 58.8244 44.273 58.8244 43.5609 59.3098L7.43488 83.969C8.25004 84.553 9.24525 84.9007 10.3223 84.9007H79.1424ZM84.1163 37.3049C86.3075 35.637 51.7635 61.9217 51.7197 61.9551L82.8651 83.2141C83.6411 82.3365 84.1165 81.1872 84.1165 79.9263V37.3049H84.1163ZM71.1825 9.8383C73.9735 9.9883 76.5057 11.5153 77.9552 13.9231C78.032 14.0434 78.1527 14.1289 78.2916 14.1615C78.4306 14.1941 78.5767 14.1711 78.699 14.0975C78.8212 14.0239 78.9099 13.9055 78.9461 13.7675C78.9823 13.6294 78.9632 13.4827 78.8928 13.3586C77.2551 10.6398 74.395 8.91531 71.2077 8.74516C71.0654 8.74521 70.9287 8.80091 70.8269 8.90037C70.7251 8.99983 70.6662 9.13516 70.6629 9.27745C70.6596 9.42015 70.712 9.5585 70.809 9.6632C70.9061 9.76789 71.04 9.8307 71.1825 9.8383ZM79.1634 18.4401C79.1634 18.5852 79.2211 18.7244 79.3237 18.827C79.4262 18.9296 79.5654 18.9872 79.7105 18.9872C79.8556 18.9872 79.9947 18.9296 80.0973 18.827C80.1999 18.7244 80.2576 18.5852 80.2576 18.4401C80.2515 18.2952 80.3016 17.5365 80.078 16.4188C80.0641 16.3483 80.0364 16.2812 79.9965 16.2213C79.9566 16.1615 79.9053 16.1102 79.8455 16.0703C79.7856 16.0304 79.7185 16.0027 79.648 15.9889C79.5774 15.975 79.5048 15.9752 79.4344 15.9895C79.3639 16.0035 79.2969 16.0313 79.2373 16.0712C79.1776 16.1112 79.1263 16.1625 79.0865 16.2222C79.0467 16.282 79.019 16.349 79.0051 16.4194C78.9911 16.4899 78.9912 16.5624 79.0054 16.6328C79.1896 17.559 79.1602 18.3644 79.1634 18.4401ZM18.0325 29.7303V20.2559C18.0325 18.9531 19.0924 17.8931 20.3954 17.8931H69.0692C70.3721 17.8931 71.432 18.9531 71.432 20.2559V29.7303C71.432 31.0331 70.3721 32.093 69.0692 32.093H20.3954C19.0924 32.093 18.0325 31.0331 18.0325 29.7303ZM19.1265 29.7303C19.1265 30.4299 19.6958 30.999 20.3954 30.999H69.0692C69.7688 30.999 70.338 30.4299 70.338 29.7303V20.2559C70.338 19.5563 69.7688 18.9871 69.0692 18.9871H20.3954C19.6958 18.9871 19.1265 19.5563 19.1265 20.2559V29.7303ZM54.5226 28.1246C54.5944 28.1246 54.6656 28.1104 54.7319 28.0829C54.7983 28.0554 54.8586 28.0151 54.9094 27.9643C54.9602 27.9135 55.0005 27.8532 55.028 27.7868C55.0555 27.7205 55.0696 27.6493 55.0696 27.5775V25.4164H57.5111C57.6562 25.4164 57.7953 25.3588 57.8979 25.2562C58.0005 25.1536 58.0581 25.0144 58.0581 24.8693C58.0581 24.7242 58.0005 24.5851 57.8979 24.4825C57.7953 24.3799 57.6562 24.3222 57.5111 24.3222H55.0696V23.0244H57.5111C57.6562 23.0244 57.7953 22.9667 57.8979 22.8641C58.0005 22.7615 58.0581 22.6224 58.0581 22.4773C58.0581 22.3322 58.0005 22.193 57.8979 22.0904C57.7953 21.9878 57.6562 21.9302 57.5111 21.9302H54.5226C54.3775 21.9302 54.2383 21.9878 54.1357 22.0904C54.0331 22.193 53.9755 22.3322 53.9755 22.4773V27.5773C53.9755 27.8797 54.2204 28.1246 54.5226 28.1246ZM49.3127 28.1246C49.3845 28.1246 49.4557 28.1104 49.522 28.0829C49.5884 28.0554 49.6487 28.0151 49.6995 27.9643C49.7503 27.9135 49.7906 27.8532 49.8181 27.7868C49.8456 27.7205 49.8598 27.6493 49.8598 27.5775V25.4164H52.3017C52.4468 25.4164 52.5859 25.3588 52.6885 25.2562C52.7911 25.1536 52.8488 25.0144 52.8488 24.8693C52.8488 24.7242 52.7911 24.5851 52.6885 24.4825C52.5859 24.3799 52.4468 24.3222 52.3017 24.3222H49.8598V23.0244H52.3017C52.4468 23.0244 52.5859 22.9667 52.6885 22.8641C52.7911 22.7615 52.8488 22.6224 52.8488 22.4773C52.8488 22.3322 52.7911 22.193 52.6885 22.0904C52.5859 21.9878 52.4468 21.9302 52.3017 21.9302H49.3129C49.1678 21.9302 49.0286 21.9878 48.926 22.0904C48.8234 22.193 48.7658 22.3322 48.7658 22.4773V27.5773C48.7657 27.6492 48.7798 27.7203 48.8073 27.7867C48.8347 27.8531 48.875 27.9135 48.9258 27.9643C48.9766 28.0151 49.0369 28.0554 49.1033 28.0829C49.1697 28.1104 49.2408 28.1246 49.3127 28.1246ZM41.4447 25.0275C41.4447 23.3198 42.834 21.9305 44.5417 21.9305C46.2494 21.9305 47.6387 23.3198 47.6387 25.0275C47.6387 26.7353 46.2494 28.1246 44.5417 28.1246C42.834 28.1246 41.4447 26.7353 41.4447 25.0275ZM42.5387 25.0275C42.5387 26.1321 43.4375 27.0306 44.5417 27.0306C45.6459 27.0306 46.5447 26.1321 46.5447 25.0275C46.5447 23.923 45.6459 23.0245 44.5417 23.0245C43.4375 23.0245 42.5387 23.923 42.5387 25.0275ZM33.3899 27.5088V22.4087C33.3899 22.3369 33.4041 22.2658 33.4316 22.1994C33.4591 22.133 33.4994 22.0727 33.5502 22.0219C33.601 21.9711 33.6613 21.9308 33.7276 21.9033C33.794 21.8758 33.8652 21.8617 33.937 21.8617H35.9273C37.461 21.8617 38.2404 23.4753 37.441 24.6249C37.3945 24.6918 37.3429 24.7536 37.2886 24.8125C37.6442 25.1369 37.8762 25.5835 37.8992 26.0762C37.9501 27.1903 37.0567 28.0557 36.0129 28.0557H33.9373C33.8655 28.0557 33.7943 28.0416 33.7279 28.0142C33.6615 27.9867 33.6012 27.9464 33.5503 27.8956C33.4995 27.8448 33.4592 27.7845 33.4316 27.7182C33.4041 27.6518 33.3899 27.5806 33.3899 27.5088ZM36.8057 26.1271C36.7869 25.714 36.3917 25.3781 35.9254 25.3781H34.4839V26.9617H36.0126C36.1203 26.9618 36.2269 26.9399 36.3259 26.8974C36.4249 26.855 36.5142 26.7928 36.5884 26.7147C36.6626 26.6366 36.7201 26.5443 36.7575 26.4432C36.7949 26.3422 36.8113 26.2346 36.8057 26.1271ZM34.4839 24.2841H35.9254C35.9716 24.2744 36.318 24.3238 36.5425 24.0004C36.8496 23.5595 36.5566 22.9558 35.9271 22.9558H34.4839V24.2841ZM23.1154 28.0557C24.1621 28.0557 25.0138 27.2039 25.0138 26.1571V22.4087C25.0138 22.2637 24.9562 22.1245 24.8536 22.0219C24.751 21.9193 24.6118 21.8617 24.4667 21.8617C24.3217 21.8617 24.1825 21.9193 24.0799 22.0219C23.9773 22.1245 23.9197 22.2637 23.9197 22.4087V26.1573C23.9195 26.3706 23.8347 26.5751 23.6839 26.7259C23.5332 26.8767 23.3287 26.9616 23.1154 26.9619C22.6744 26.9619 22.3159 26.6009 22.3159 26.1573C22.3159 26.0122 22.2583 25.8731 22.1557 25.7705C22.0531 25.6679 21.9139 25.6102 21.7688 25.6102C21.6237 25.6102 21.4846 25.6679 21.382 25.7705C21.2794 25.8731 21.2218 26.0122 21.2218 26.1573C21.2219 27.2041 22.0715 28.0557 23.1154 28.0557ZM26.1048 24.9587C26.1048 23.2509 27.494 21.8617 29.2018 21.8617C30.9095 21.8617 32.2988 23.2509 32.2988 24.9587C32.2988 26.6664 30.9095 28.0557 29.2018 28.0557C27.4942 28.0557 26.1048 26.6664 26.1048 24.9587ZM27.1989 24.9587C27.1989 26.0632 28.0977 26.9617 29.202 26.9617C30.3062 26.9617 31.205 26.0632 31.205 24.9587C31.205 23.8541 30.3062 22.9557 29.202 22.9557C28.0977 22.9557 27.1989 23.8543 27.1989 24.9587ZM64.4662 27.5775V22.4774C64.4662 22.3324 64.5238 22.1932 64.6264 22.0906C64.729 21.988 64.8681 21.9304 65.0132 21.9304H66.3291C67.3132 21.9304 68.1509 22.655 68.2355 23.5802V23.582C68.2809 24.0957 68.1082 24.6066 67.7629 24.9837C67.716 25.0348 67.6606 25.0751 67.6087 25.1201C68.0151 25.5272 68.2431 26.079 68.2428 26.6542V27.5773C68.2428 27.7224 68.1851 27.8616 68.0825 27.9642C67.9799 28.0667 67.8408 28.1244 67.6957 28.1244C67.5506 28.1244 67.4114 28.0667 67.3088 27.9642C67.2063 27.8616 67.1486 27.7224 67.1486 27.5773V26.6542C67.1486 26.0587 66.6665 25.5743 66.0738 25.5743H65.5601V27.5773C65.5576 27.7207 65.4989 27.8574 65.3966 27.958C65.2943 28.0585 65.1567 28.1149 65.0132 28.1149C64.8698 28.1149 64.7321 28.0586 64.6298 27.9581C64.5274 27.8576 64.4687 27.7209 64.4662 27.5775ZM65.5603 24.4805H66.421C66.8396 24.4805 67.1844 24.1237 67.1458 23.6789C67.1125 23.318 66.7462 23.0245 66.3291 23.0245H65.5603V24.4805ZM59.732 28.1246H62.7922C62.9373 28.1246 63.0764 28.0669 63.179 27.9643C63.2816 27.8617 63.3393 27.7226 63.3393 27.5775C63.3393 27.4324 63.2816 27.2932 63.179 27.1906C63.0764 27.088 62.9373 27.0304 62.7922 27.0304H60.2789V25.5745H62.7922C62.9373 25.5745 63.0764 25.5168 63.179 25.4142C63.2816 25.3116 63.3393 25.1725 63.3393 25.0274C63.3393 24.8823 63.2816 24.7431 63.179 24.6405C63.0764 24.5379 62.9373 24.4803 62.7922 24.4803H60.2789V23.0244H62.7922C62.9373 23.0244 63.0764 22.9667 63.179 22.8641C63.2816 22.7615 63.3393 22.6224 63.3393 22.4773C63.3393 22.3322 63.2816 22.193 63.179 22.0904C63.0764 21.9878 62.9373 21.9302 62.7922 21.9302H59.732C59.5869 21.9302 59.4477 21.9878 59.3451 22.0904C59.2425 22.193 59.1849 22.3322 59.1849 22.4773V27.5773C59.1849 27.7224 59.2425 27.8616 59.3451 27.9642C59.4477 28.0668 59.5868 28.1245 59.732 28.1246ZM67.6957 36.5264H21.7688C21.6237 36.5264 21.4846 36.584 21.382 36.6866C21.2794 36.7892 21.2218 36.9283 21.2218 37.0734C21.2218 37.2185 21.2794 37.3577 21.382 37.4603C21.4846 37.5629 21.6237 37.6205 21.7688 37.6205H67.6957C67.8408 37.6205 67.9799 37.5629 68.0825 37.4603C68.1851 37.3577 68.2428 37.2185 68.2428 37.0734C68.2428 36.9283 68.1851 36.7892 68.0825 36.6866C67.9799 36.584 67.8408 36.5264 67.6957 36.5264ZM67.6957 42.0537H21.7688C21.6237 42.0537 21.4846 42.1113 21.382 42.2139C21.2794 42.3165 21.2218 42.4557 21.2218 42.6008C21.2218 42.7459 21.2794 42.885 21.382 42.9876C21.4846 43.0902 21.6237 43.1479 21.7688 43.1479H67.6957C67.8408 43.1479 67.9799 43.0902 68.0825 42.9876C68.1851 42.885 68.2428 42.7459 68.2428 42.6008C68.2428 42.4557 68.1851 42.3165 68.0825 42.2139C67.9799 42.1113 67.8408 42.0537 67.6957 42.0537ZM81.0143 61.5021C80.8692 61.5021 80.73 61.5598 80.6274 61.6624C80.5248 61.765 80.4672 61.9041 80.4672 62.0492V63.5393C80.4672 63.6844 80.5248 63.8235 80.6274 63.9261C80.73 64.0287 80.8692 64.0863 81.0143 64.0863C81.1594 64.0863 81.2985 64.0287 81.4011 63.9261C81.5037 63.8235 81.5613 63.6844 81.5613 63.5393V62.0492C81.5613 61.9041 81.5036 61.765 81.4011 61.6624C81.2985 61.5598 81.1593 61.5022 81.0143 61.5021ZM81.0143 65.8335C80.8692 65.8335 80.73 65.8912 80.6274 65.9938C80.5248 66.0964 80.4672 66.2355 80.4672 66.3806V69.8458C80.4672 69.9909 80.5248 70.1301 80.6274 70.2327C80.73 70.3353 80.8692 70.3929 81.0143 70.3929C81.1594 70.3929 81.2985 70.3353 81.4011 70.2327C81.5037 70.1301 81.5613 69.9909 81.5613 69.8458V66.3806C81.5613 66.2355 81.5036 66.0964 81.4011 65.9938C81.2985 65.8912 81.1593 65.8336 81.0143 65.8335Z" fill="#134A85"/>
</g>
<defs>
<clipPath id="clip0_1417_5353">
<rect width="86" height="86" fill="white"/>
</clipPath>
</defs>
</svg>
