<svg width="30" height="30" viewBox="0 0 30 30" fill="none" xmlns="http://www.w3.org/2000/svg">
<path d="M27.7435 0.523926H2.91036C1.75445 0.523926 0.817505 1.46087 0.817505 2.61678V27.4499C0.817505 28.6058 1.75445 29.5427 2.91036 29.5427H27.7435C28.8994 29.5427 29.8363 28.6058 29.8363 27.4499V2.61678C29.8363 1.46087 28.8994 0.523926 27.7435 0.523926ZM11.1106 22.4581H7.57695V11.8269H11.1106V22.4581ZM9.34391 10.3752H9.32088C8.13508 10.3752 7.36817 9.55887 7.36817 8.53868C7.36817 7.49546 8.15855 6.70176 9.36737 6.70176C10.5762 6.70176 11.3201 7.49546 11.3431 8.53868C11.3431 9.55887 10.5762 10.3752 9.34391 10.3752ZM23.8524 22.4581H20.3192V16.7706C20.3192 15.3413 19.8075 14.3665 18.529 14.3665C17.5528 14.3665 16.9714 15.024 16.716 15.6588C16.6225 15.8859 16.5997 16.2034 16.5997 16.5211V22.4581H13.0662C13.0662 22.4581 13.1125 12.8242 13.0662 11.8269H16.5997V13.3321C17.0693 12.6077 17.9095 11.5773 19.7843 11.5773C22.1092 11.5773 23.8524 13.0968 23.8524 16.3622V22.4581Z" fill="url(#paint0_linear_2286_9569)"/>
<defs>
<linearGradient id="paint0_linear_2286_9569" x1="29.8363" y1="29.5427" x2="0.817505" y2="0.523926" gradientUnits="userSpaceOnUse">
<stop stop-color="#223E76"/>
<stop offset="0.511069" stop-color="#365699"/>
<stop offset="1" stop-color="#2BA9B4"/>
</linearGradient>
</defs>
</svg>
