<svg width="29" height="28" viewBox="0 0 29 28" fill="none" xmlns="http://www.w3.org/2000/svg">
<path d="M26.7526 0.0395508H2.85941C1.74725 0.0395508 0.845764 0.941035 0.845764 2.05319V25.9464C0.845764 27.0585 1.74725 27.96 2.85941 27.96H26.7526C27.8647 27.96 28.7662 27.0585 28.7662 25.9464V2.05319C28.7662 0.941035 27.8647 0.0395508 26.7526 0.0395508ZM10.7493 21.1435H7.34936V10.9147H10.7493V21.1435ZM9.04944 9.51792H9.02729C7.88637 9.51792 7.14849 8.73253 7.14849 7.75095C7.14849 6.74722 7.90895 5.98355 9.07202 5.98355C10.2351 5.98355 10.9508 6.74722 10.973 7.75095C10.973 8.73253 10.2351 9.51792 9.04944 9.51792ZM23.0088 21.1435H19.6093V15.6713C19.6093 14.2961 19.117 13.3582 17.8868 13.3582C16.9477 13.3582 16.3883 13.9908 16.1425 14.6015C16.0526 14.8201 16.0306 15.1256 16.0306 15.4312V21.1435H12.6309C12.6309 21.1435 12.6754 11.8743 12.6309 10.9147H16.0306V12.363C16.4824 11.666 17.2908 10.6746 19.0946 10.6746C21.3315 10.6746 23.0088 12.1365 23.0088 15.2783V21.1435Z" fill="url(#paint0_linear_60_765)"/>
<defs>
<linearGradient id="paint0_linear_60_765" x1="28.7662" y1="27.96" x2="0.845764" y2="0.0395508" gradientUnits="userSpaceOnUse">
<stop stop-color="#F6811F"/>
<stop offset="0.511069" stop-color="#4C586B"/>
<stop offset="1" stop-color="#134A85"/>
</linearGradient>
</defs>
</svg>
