<svg width="18" height="20" viewBox="0 0 18 20" fill="none" xmlns="http://www.w3.org/2000/svg">
<path d="M8.965 20.0067L8.3841 19.5088C7.58328 18.8382 0.59082 12.7993 0.59082 8.38192C0.59082 3.75699 4.34008 0.00773621 8.965 0.00773621C13.5899 0.00773621 17.3392 3.75699 17.3392 8.38192C17.3392 12.7993 10.3467 18.8382 9.54922 19.5121L8.965 20.0067ZM8.965 1.81848C5.34184 1.82258 2.4057 4.75871 2.4016 8.38188C2.4016 11.157 6.70363 15.5901 8.965 17.6191C11.2264 15.5893 15.5284 11.1536 15.5284 8.38188C15.5243 4.75871 12.5882 1.82262 8.965 1.81848Z" fill="#134A85"/>
<path d="M8.96499 11.7014C7.13171 11.7014 5.64554 10.2152 5.64554 8.38191C5.64554 6.54863 7.13171 5.06246 8.96499 5.06246C10.7983 5.06246 12.2844 6.54863 12.2844 8.38191C12.2844 10.2152 10.7983 11.7014 8.96499 11.7014ZM8.96499 6.72215C8.04835 6.72215 7.30526 7.46524 7.30526 8.38188C7.30526 9.29852 8.04835 10.0416 8.96499 10.0416C9.88163 10.0416 10.6247 9.29852 10.6247 8.38188C10.6247 7.46524 9.88167 6.72215 8.96499 6.72215Z" fill="#134A85"/>
</svg>
