<svg width="68" height="68" viewBox="0 0 68 68" fill="none" xmlns="http://www.w3.org/2000/svg">
<g clip-path="url(#clip0_1220_4116)">
<path d="M67.9815 23.1758C67.9151 22.8292 67.6816 22.5387 67.3584 22.3997L65.1135 21.4305C61.731 19.9852 58.5378 18.1403 55.6195 15.9458C54.2473 14.9238 52.722 14.1238 51.0785 13.5687C47.0671 12.2395 42.6179 12.5684 38.8706 14.434C38.8333 14.4527 38.7969 14.4734 38.7617 14.4973L38.73 14.5181C38.2392 14.8397 38.1184 15.4882 38.44 15.979C38.7409 16.4387 39.3526 16.5777 39.8309 16.3297C43.0796 14.7183 46.9405 14.4392 50.4046 15.5837C51.8292 16.0662 53.1568 16.7603 54.3459 17.6464C57.3974 19.9406 60.739 21.8715 64.2752 23.3833L65.0793 23.7309L64.7519 24.0577C63.333 25.4772 61.1966 25.9482 59.3108 25.2665L51.3633 22.3768C50.8149 22.1776 50.2027 22.4609 50.0014 23.0118C49.8012 23.5638 50.0855 24.1729 50.637 24.3732L58.585 27.2639C58.7928 27.3391 59.0071 27.3768 59.2186 27.4324C57.789 28.6861 55.7721 29.0775 53.9775 28.4032L49.2481 26.6299C48.6993 26.4255 48.0866 26.7026 47.8801 27.2515C47.6741 27.8014 47.9527 28.4136 48.5021 28.6201L53.1036 30.3453C51.5254 31.6795 49.3122 31.9696 47.4479 31.0304L39.7873 27.2058C39.2618 26.9443 38.6242 27.156 38.3622 27.6821C38.0997 28.2071 38.3129 28.8452 38.8379 29.1067L39.2663 29.3206C39.103 30.886 38.3565 32.3206 37.1876 33.3311V14.1471C39.696 12.9503 41.4376 10.3965 41.4376 7.4375C41.4376 3.33691 38.1012 0 34.0001 0C29.899 0 26.5626 3.33691 26.5626 7.4375C26.5626 10.3965 28.3043 12.9503 30.8126 14.1471V35.8301L29.7366 36.1613C28.492 36.5421 27.4321 37.2933 26.6768 38.3278C25.9069 39.3633 25.5001 40.597 25.5001 41.894C25.5001 43.2429 25.9588 44.5648 26.7919 45.618C27.0015 45.8836 27.3123 46.0216 27.6257 46.0216C27.8565 46.0216 28.0889 45.9469 28.284 45.7923C28.7447 45.4281 28.8225 44.7599 28.4583 44.3002C27.9209 43.6206 27.6251 42.7656 27.6251 41.894C27.6251 41.0567 27.8871 40.2619 28.3878 39.5885C28.8754 38.9213 29.5566 38.4388 30.3602 38.1929L30.8126 38.0537V47.4226L29.2972 47.827C27.9037 48.1974 26.6586 49.0275 25.7959 50.1595C24.9201 51.2936 24.4376 52.7131 24.4376 54.1553C24.4376 56.1942 25.3621 58.0806 26.974 59.3309C27.1676 59.4813 27.3969 59.554 27.6246 59.554C27.9416 59.554 28.2555 59.4128 28.4646 59.1431C28.8241 58.6793 28.74 58.0121 28.2762 57.652C27.1873 56.8074 26.5626 55.5322 26.5626 54.1553C26.5626 53.18 26.8874 52.2223 27.4819 51.4534C28.064 50.6887 28.9024 50.1305 29.844 49.8804L30.8126 49.6219V60.2653L29.3652 60.6268C26.4641 61.3511 24.4376 63.9461 24.4376 66.9375C24.4376 67.5248 24.9134 68 25.5001 68C26.0869 68 26.5626 67.5248 26.5626 66.9375C26.5626 64.9235 27.9266 63.1762 29.8804 62.6875L30.8126 62.4548V66.9375C30.8126 67.5248 31.2884 68 31.8751 68H36.1251C36.7119 68 37.1876 67.5248 37.1876 66.9375V60.8635L38.6055 60.5096C41.5243 59.7739 43.5626 57.1602 43.5626 54.1553C43.5626 52.7131 43.0802 51.2936 42.208 50.1647C41.9154 49.7808 41.5798 49.4301 41.2104 49.1219C40.7601 48.7463 40.0903 48.8044 39.7142 49.2568C39.3381 49.7072 39.3982 50.3774 39.8491 50.7531C40.0965 50.9595 40.3217 51.1951 40.5225 51.4586C41.1129 52.2223 41.4376 53.18 41.4376 54.1553C41.4376 56.1859 40.0592 57.9509 38.0893 58.4479L37.1876 58.6731V47.9206L38.0437 47.6921C40.6677 46.9969 42.5001 44.6136 42.5001 41.894C42.5001 40.597 42.0934 39.3633 41.3287 38.3351C41.0989 38.0207 40.8369 37.7281 40.5505 37.4656C40.1168 37.0703 39.4434 37.1003 39.0496 37.533C38.6532 37.9657 38.6833 38.6381 39.1165 39.0344C39.2991 39.2004 39.4657 39.3872 39.6177 39.5958C40.1131 40.2619 40.3751 41.0567 40.3751 41.894C40.3751 43.6497 39.1928 45.1895 37.5 45.6377L37.1876 45.721V35.8841C39.3047 34.705 40.7808 32.6634 41.2555 30.3137L46.4944 32.9292C47.5372 33.4553 48.6588 33.7115 49.7716 33.7115C51.6637 33.7115 53.5308 32.9717 54.9394 31.5637L55.6576 30.8451C55.7027 30.846 55.7477 30.8571 55.7928 30.8571C57.702 30.8571 59.5795 30.1111 60.974 28.7166L62.0673 27.6229C63.6238 27.4092 65.1063 26.7087 66.2544 25.5602L67.6889 24.1262C67.9379 23.8772 68.0473 23.5213 67.9815 23.1758ZM28.6876 7.4375C28.6876 4.50836 31.071 2.125 34.0001 2.125C36.9293 2.125 39.3126 4.50836 39.3126 7.4375C39.3126 10.3666 36.9293 12.75 34.0001 12.75C31.071 12.75 28.6876 10.3666 28.6876 7.4375ZM32.9376 14.7901C33.2856 14.8402 33.6385 14.875 34.0001 14.875C34.3618 14.875 34.7146 14.8402 35.0626 14.7901V34.5167C35.0352 34.5252 35.0122 34.5375 34.9843 34.5458L32.9376 35.1759V14.7901ZM35.0626 65.875H32.9376V61.9243L35.0626 61.3939V65.875ZM35.0626 59.2038L32.9376 59.7346V49.0548L35.0626 48.4877V59.2038ZM32.9376 46.8554V37.3996L35.0626 36.7455V46.2882L32.9376 46.8554ZM26.7425 30.3148L21.5018 32.9313C20.4616 33.4563 19.341 33.7115 18.2292 33.7115C16.3376 33.7115 14.47 32.9728 13.0614 31.5637L12.3428 30.8451C12.2977 30.846 12.2526 30.8571 12.2075 30.8571C10.2983 30.8571 8.42128 30.1111 7.02623 28.7166L5.93234 27.6223C4.37588 27.4091 2.89387 26.7085 1.74589 25.5602L0.311414 24.1262C0.062391 23.8772 -0.0470756 23.5213 0.0188119 23.1758C0.0852181 22.8292 0.318678 22.5387 0.641889 22.3997L2.88362 21.4326C6.2693 19.9852 9.46251 18.1403 12.3771 15.9489C13.753 14.9238 15.2782 14.1238 16.9151 13.5707C20.9415 12.2374 25.3829 12.5684 29.1297 14.434C29.167 14.4527 29.2033 14.4734 29.2386 14.4973C29.7294 14.819 29.8819 15.4882 29.5603 15.979C29.2381 16.4688 28.5953 16.6161 28.105 16.2944C24.985 14.7474 21.0748 14.4351 17.589 15.5858C16.1711 16.0662 14.8435 16.7603 13.6508 17.6495C10.6028 19.9406 7.26124 21.8715 3.722 23.3854L2.92097 23.7309L3.24833 24.0577C4.66673 25.4772 6.80366 25.9524 8.69001 25.2655L16.637 22.3768C17.19 22.1766 17.7986 22.4609 17.9988 23.0118C18.1991 23.5638 17.9148 24.1729 17.3633 24.3732L9.41581 27.2629C9.20758 27.3386 8.99286 27.3762 8.78093 27.4319C10.2101 28.6859 12.2274 29.0776 14.0227 28.4032L18.7521 26.6299C19.3031 26.4255 19.9137 26.7026 20.1202 27.2515C20.3262 27.8014 20.0476 28.4136 19.4982 28.6201L14.8971 30.3452C16.4748 31.679 18.6873 31.9716 20.5482 31.0325L28.2129 27.2058C28.739 26.9443 29.3761 27.156 29.6381 27.6821C29.9006 28.2071 29.6874 28.8452 29.1623 29.1067L28.7371 29.3189C28.8477 30.398 29.223 31.4236 29.8721 32.3098C30.2186 32.7839 30.1154 33.448 29.6417 33.7946C29.4529 33.9336 29.2329 34 29.0155 34C28.6882 34 28.3649 33.8495 28.1569 33.5652C27.4412 32.5869 26.9759 31.4802 26.7425 30.3148ZM43.5626 66.9375C43.5626 67.5248 43.0869 68 42.5001 68C41.9134 68 41.4376 67.5248 41.4376 66.9375C41.4376 65.6 40.8384 64.3528 39.7941 63.5165C39.336 63.1503 39.2618 62.481 39.6286 62.0234C39.9959 61.5648 40.6641 61.4901 41.1222 61.8585C42.6729 63.0994 43.5626 64.9515 43.5626 66.9375Z" fill="#1E1E14"/>
<line x1="34.5862" y1="19.931" x2="34.5862" y2="64.4828" stroke="#134A85" stroke-width="1.17241"/>
<rect x="27.7865" y="0.82069" width="12.4276" height="13.6" rx="6.21379" stroke="#134A85" stroke-width="1.64138"/>
</g>
<defs>
<clipPath id="clip0_1220_4116">
<rect width="68" height="68" fill="white"/>
</clipPath>
</defs>
</svg>
