<svg width="68" height="68" viewBox="0 0 68 68" fill="none" xmlns="http://www.w3.org/2000/svg">
<path d="M65.1423 50.1014L59.2635 46.7502C54.5111 44.0481 49.3668 42.1027 44.0155 40.984L32.3365 38.5265C31.53 38.3439 30.6851 38.445 29.9444 38.8127C29.2037 39.1804 28.6125 39.7923 28.2704 40.5452C27.8485 41.5651 27.8453 42.71 28.2616 43.7322C28.6778 44.7544 29.4799 45.5714 30.4942 46.0065L39.3671 49.7975L35.0034 49.4309C28.252 48.896 21.7991 46.4214 16.4214 42.3047C15.2617 41.4195 13.8107 41.0043 12.3583 41.1422C10.9058 41.2801 9.55888 41.9608 8.58648 43.0485L7.49954 44.3065C7.40208 44.4193 7.32947 44.5515 7.28643 44.6942C7.24339 44.837 7.23089 44.9872 7.24973 45.1351C7.26857 45.2831 7.31833 45.4254 7.39579 45.5528C7.47324 45.6802 7.57665 45.7899 7.69929 45.8747L22.2194 55.9132C23.7793 57.0999 25.4633 58.1138 27.2419 58.9371C30.9114 60.6232 34.8975 61.5094 38.9357 61.537L52.1107 61.6263C53.8567 61.5485 55.5695 62.1214 56.9175 63.2339L59.9817 65.8211C60.1735 65.9835 60.4167 66.0728 60.6681 66.0729C60.7736 66.0724 60.8785 66.0567 60.9794 66.0261C61.1492 65.974 61.3032 65.8802 61.4274 65.7533C61.5515 65.6263 61.6419 65.4703 61.6902 65.2994L65.6374 51.319C65.7035 51.0899 65.6905 50.8453 65.6007 50.6244C65.5109 50.4036 65.3495 50.2193 65.1423 50.1014ZM60.0901 63.1319L58.2839 61.6082C56.6508 60.2369 54.5854 59.4872 52.4529 59.4917C52.3254 59.4917 52.1968 59.4917 52.0693 59.5002L38.9485 59.4099C35.2138 59.3843 31.5273 58.5651 28.1333 57.0065C26.4804 56.2407 24.9157 55.2973 23.4668 54.193L9.88167 44.7974L10.2004 44.4308C10.82 43.7588 11.6672 43.3408 12.5775 43.258C13.4878 43.1751 14.3965 43.4333 15.1272 43.9824C20.8289 48.349 27.6711 50.9747 34.8302 51.5432L45.758 52.4633C46.0102 52.4871 46.2625 52.4191 46.4684 52.2717C46.6744 52.1243 46.8202 51.9075 46.879 51.6611C46.9399 51.4161 46.9115 51.1573 46.799 50.9313C46.6865 50.7052 46.4971 50.5266 46.2649 50.4275L31.3601 44.061C31.109 43.9603 30.8803 43.811 30.6871 43.6217C30.4939 43.4324 30.3399 43.2067 30.2341 42.9578C30.1283 42.7088 30.0727 42.4414 30.0704 42.1709C30.0682 41.9004 30.1194 41.6321 30.2211 41.3814C30.3722 41.0821 30.6201 40.8426 30.9244 40.7018C31.2288 40.561 31.5717 40.5272 31.8977 40.6058L43.5778 43.0644C48.7136 44.1375 53.6508 46.0044 58.2116 48.5979L63.3679 51.5368L60.0901 63.1319Z" fill="#242424"/>
<path d="M51 40.3749V31.5912C50.9735 30.237 50.4124 28.9482 49.4392 28.0061C48.4661 27.064 47.1598 26.545 45.8054 26.5624H45.6546C46.7043 25.7885 47.4316 24.6545 47.6973 23.3777C47.963 22.1009 47.7484 20.771 47.0946 19.6425C46.4408 18.5141 45.3937 17.6665 44.1538 17.262C42.914 16.8575 41.5685 16.9246 40.375 17.4504V16.7162C40.3485 15.362 39.7874 14.0732 38.8142 13.1311C37.8411 12.189 36.5348 11.67 35.1804 11.6874H35.0296C35.9295 11.0232 36.5969 10.092 36.9366 9.02628C37.2763 7.9606 37.2709 6.8149 36.9213 5.75243C36.5717 4.68996 35.8957 3.76494 34.9896 3.10919C34.0835 2.45343 32.9935 2.1004 31.875 2.1004C30.7565 2.1004 29.6665 2.45343 28.7604 3.10919C27.8543 3.76494 27.1783 4.68996 26.8287 5.75243C26.4791 6.8149 26.4737 7.9606 26.8134 9.02628C27.1531 10.092 27.8205 11.0232 28.7204 11.6874H28.5696C27.2152 11.67 25.9089 12.189 24.9358 13.1311C23.9626 14.0732 23.4015 15.362 23.375 16.7162V17.4504C22.7057 17.154 21.982 17.0006 21.25 16.9999C20.1329 16.9967 19.0434 17.3467 18.1373 18C17.2312 18.6533 16.5548 19.5763 16.2048 20.6371C15.8548 21.698 15.8492 22.8423 16.1888 23.9065C16.5284 24.9707 17.1957 25.9003 18.0954 26.5624H17.9446C16.5902 26.545 15.2839 27.064 14.3108 28.0061C13.3376 28.9482 12.7765 30.237 12.75 31.5912V40.3749H14.875V31.5912C14.9003 30.8002 15.237 30.0512 15.812 29.5074C16.3869 28.9635 17.1534 28.6688 17.9446 28.6874H24.5554C25.3466 28.6688 26.1131 28.9635 26.688 29.5074C27.263 30.0512 27.5997 30.8002 27.625 31.5912V37.1874H29.75V31.5912C29.7235 30.237 29.1624 28.9482 28.1892 28.0061C27.2161 27.064 25.9098 26.545 24.5554 26.5624H24.4046C24.9707 26.15 25.4484 25.6283 25.8094 25.0281C26.1704 24.4279 26.4074 23.7614 26.5065 23.068C26.6056 22.3747 26.5646 21.6685 26.3861 20.9912C26.2075 20.314 25.895 19.6793 25.4671 19.1249H25.5V16.7162C25.5253 15.9252 25.862 15.1762 26.437 14.6324C27.0119 14.0885 27.7784 13.7938 28.5696 13.8124H35.1804C35.9716 13.7938 36.7381 14.0885 37.313 14.6324C37.888 15.1762 38.2247 15.9252 38.25 16.7162V19.1249H38.2776C37.8496 19.6793 37.5372 20.314 37.3586 20.9912C37.1801 21.6685 37.1391 22.3747 37.2382 23.068C37.3372 23.7614 37.5743 24.4279 37.9353 25.0281C38.2963 25.6283 38.774 26.15 39.3401 26.5624H39.1892C37.8358 26.5464 36.5309 27.0661 35.5589 28.008C34.5869 28.95 34.0265 30.2379 34 31.5912V37.1874H36.125V31.5912C36.1503 30.8002 36.487 30.0512 37.062 29.5074C37.6369 28.9635 38.4034 28.6688 39.1946 28.6874H45.8054C46.5966 28.6688 47.3631 28.9635 47.938 29.5074C48.513 30.0512 48.8497 30.8002 48.875 31.5912V40.3749H51ZM31.875 4.24991C32.5054 4.24991 33.1217 4.43685 33.6459 4.7871C34.1701 5.13735 34.5786 5.63516 34.8199 6.2176C35.0611 6.80004 35.1242 7.44094 35.0013 8.05926C34.8783 8.67757 34.5747 9.24553 34.1289 9.69131C33.6831 10.1371 33.1152 10.4407 32.4969 10.5637C31.8785 10.6867 31.2376 10.6235 30.6552 10.3823C30.0728 10.141 29.5749 9.73247 29.2247 9.20829C28.8744 8.68411 28.6875 8.06784 28.6875 7.43741C28.6875 6.59203 29.0233 5.78128 29.6211 5.18351C30.2189 4.58573 31.0296 4.24991 31.875 4.24991ZM21.25 25.4999C20.6196 25.4999 20.0033 25.313 19.4791 24.9627C18.9549 24.6125 18.5464 24.1147 18.3051 23.5322C18.0639 22.9498 18.0008 22.3089 18.1237 21.6906C18.2467 21.0722 18.5503 20.5043 18.9961 20.0585C19.4419 19.6127 20.0098 19.3091 20.6281 19.1862C21.2465 19.0632 21.8874 19.1263 22.4698 19.3675C23.0522 19.6088 23.5501 20.0173 23.9003 20.5415C24.2506 21.0657 24.4375 21.682 24.4375 22.3124C24.4375 23.1578 24.1017 23.9685 23.5039 24.5663C22.9061 25.1641 22.0954 25.4999 21.25 25.4999ZM42.5 19.1249C43.1304 19.1249 43.7467 19.3119 44.2709 19.6621C44.7951 20.0123 45.2036 20.5102 45.4449 21.0926C45.6861 21.675 45.7492 22.3159 45.6263 22.9343C45.5033 23.5526 45.1997 24.1205 44.7539 24.5663C44.3081 25.0121 43.7402 25.3157 43.1218 25.4387C42.5035 25.5617 41.8626 25.4985 41.2802 25.2573C40.6978 25.016 40.1999 24.6075 39.8497 24.0833C39.4994 23.5591 39.3125 22.9428 39.3125 22.3124C39.3125 21.467 39.6483 20.6563 40.2461 20.0585C40.8439 19.4607 41.6546 19.1249 42.5 19.1249Z" fill="#134A85"/>
</svg>
