<svg width="27" height="27" viewBox="0 0 27 27" fill="none" xmlns="http://www.w3.org/2000/svg">
<path fill-rule="evenodd" clip-rule="evenodd" d="M2.57591 13.5C2.57591 8.01898 6.84858 2.57664 13.4992 2.57664C18.87 2.57664 21.5264 6.55158 22.6574 8.66664H19.2992C19.0429 8.66664 18.797 8.76849 18.6157 8.94977C18.4344 9.13106 18.3326 9.37694 18.3326 9.63331C18.3326 9.88969 18.4344 10.1356 18.6157 10.3168C18.797 10.4981 19.0429 10.6 19.2992 10.6H25.0992C25.3556 10.6 25.6015 10.4981 25.7828 10.3168C25.9641 10.1356 26.0659 9.88969 26.0659 9.63331V3.83331C26.0659 3.57693 25.9641 3.33106 25.7828 3.14977C25.6015 2.96849 25.3556 2.86664 25.0992 2.86664C24.8429 2.86664 24.597 2.96849 24.4157 3.14977C24.2344 3.33106 24.1326 3.57693 24.1326 3.83331V7.33844C22.7715 4.93724 19.6202 0.643311 13.4992 0.643311C5.64411 0.643311 0.642578 7.09098 0.642578 13.5C0.642578 19.909 5.64411 26.3566 13.4992 26.3566C17.2576 26.3566 20.3858 24.868 22.613 22.6021C23.7937 21.3958 24.731 19.9734 25.3738 18.4126C25.422 18.2952 25.4467 18.1694 25.4463 18.0424C25.4459 17.9155 25.4205 17.7899 25.3716 17.6727C25.3227 17.5556 25.2512 17.4492 25.1612 17.3597C25.0711 17.2702 24.9644 17.1993 24.8469 17.1511C24.7295 17.1028 24.6037 17.0782 24.4768 17.0786C24.3499 17.0789 24.2242 17.1043 24.1071 17.1532C23.9899 17.2022 23.8836 17.2737 23.7941 17.3637C23.7046 17.4537 23.6337 17.5605 23.5854 17.6779C23.0378 19.0073 22.2397 20.2189 21.2345 21.2468C19.3572 23.1608 16.7182 24.4233 13.4992 24.4233C6.84858 24.4233 2.57591 18.981 2.57591 13.5Z" fill="url(#paint0_linear_2144_8942)"/>
<defs>
<linearGradient id="paint0_linear_2144_8942" x1="26.0659" y1="26.3566" x2="0.354231" y2="0.934947" gradientUnits="userSpaceOnUse">
<stop stop-color="#223E76"/>
<stop offset="0.511069" stop-color="#365699"/>
<stop offset="1" stop-color="#2BA9B4"/>
</linearGradient>
</defs>
</svg>
