<svg width="34" height="34" viewBox="0 0 34 34" fill="none" xmlns="http://www.w3.org/2000/svg">
<path d="M24.791 3.54169C24.1404 3.54143 23.4984 3.69056 22.9145 3.97757C22.3306 4.26458 21.8204 4.68182 21.4232 5.19713C21.0261 5.71244 20.7525 6.31207 20.6236 6.94979C20.4947 7.58752 20.514 8.24633 20.6799 8.87544C20.5775 8.89807 20.4789 8.93478 20.3866 8.98452L16.4809 11.1138L11.514 13.9542C11.4649 13.9834 11.4176 14.0156 11.3724 14.0505C10.6814 13.6419 9.88879 13.4373 9.08636 13.4605C8.28392 13.4836 7.50445 13.7336 6.83819 14.1814C6.17193 14.6292 5.64612 15.2566 5.32164 15.9908C4.99716 16.7251 4.88727 17.5363 5.00471 18.3304C5.12214 19.1245 5.46209 19.8692 5.98519 20.4781C6.5083 21.087 7.19318 21.5354 7.96053 21.7712C8.72789 22.007 9.54634 22.0207 10.3211 21.8106C11.0959 21.6005 11.7954 21.1753 12.3385 20.5842L16.4837 22.8891L20.6685 25.1714C20.5835 25.5047 20.541 25.8509 20.541 26.2098C20.5409 27.1991 20.8859 28.1574 21.5166 28.9196C22.1473 29.6818 23.0241 30.2001 23.9959 30.3852C24.9677 30.5703 25.9736 30.4106 26.8403 29.9335C27.707 29.4565 28.3801 28.6921 28.7437 27.772C29.1072 26.852 29.1384 25.8339 28.8318 24.8933C28.5253 23.9527 27.9002 23.1485 27.0643 22.6194C26.2285 22.0902 25.2342 21.8692 24.2529 21.9945C23.2715 22.1197 22.3647 22.5834 21.6885 23.3056L17.5122 21.029L13.3387 18.7114C13.5937 17.6594 13.4376 16.5497 12.9024 15.6089L17.5179 12.971L21.4038 10.8503C21.4957 10.7994 21.5801 10.736 21.6545 10.6619C22.1318 11.1831 22.7315 11.5771 23.3994 11.8081C24.0673 12.0392 24.7823 12.1 25.4797 11.9852C26.177 11.8703 26.8347 11.5834 27.3932 11.1503C27.9517 10.7173 28.3934 10.1518 28.6783 9.50499C28.9632 8.85822 29.0823 8.15061 29.0249 7.44622C28.9674 6.74182 28.7352 6.06287 28.3493 5.47081C27.9634 4.87876 27.4359 4.3923 26.8146 4.05546C26.1933 3.71862 25.4978 3.54203 24.791 3.54169Z" fill="#134A85"/>
</svg>
