<svg width="32" height="32" viewBox="0 0 32 32" fill="none" xmlns="http://www.w3.org/2000/svg">
<path d="M24.9484 19.9492C24.1975 19.9547 23.4577 20.1303 22.7843 20.4626C22.111 20.795 21.5217 21.2756 21.0606 21.8683L11.8334 17.2546C11.9521 16.8372 12.0156 16.4059 12.0223 15.972C12.0156 15.538 11.9521 15.1068 11.8334 14.6893L21.0606 10.0757C21.5217 10.6684 22.111 11.1489 22.7843 11.4813C23.4577 11.8137 24.1975 11.9892 24.9484 11.9947C25.9317 11.9947 26.8929 11.7031 27.7105 11.1568C28.5281 10.6105 29.1653 9.83409 29.5416 8.92565C29.9179 8.01721 30.0163 7.01759 29.8245 6.0532C29.6327 5.0888 29.1592 4.20295 28.4639 3.50766C27.7686 2.81237 26.8827 2.33887 25.9183 2.14704C24.9539 1.95521 23.9543 2.05367 23.0459 2.42996C22.1374 2.80624 21.361 3.44346 20.8147 4.26104C20.2684 5.07861 19.9768 6.03982 19.9768 7.02311C19.9835 7.45708 20.0471 7.8883 20.1658 8.30578L10.9385 12.9194C10.4774 12.3267 9.88814 11.8461 9.2148 11.5138C8.54146 11.1814 7.80157 11.0059 7.05069 11.0004C5.73214 11.0004 4.4676 11.5242 3.53525 12.4565C2.60289 13.3889 2.0791 14.6534 2.0791 15.972C2.0791 17.2905 2.60289 18.5551 3.53525 19.4874C4.4676 20.4198 5.73214 20.9436 7.05069 20.9436C7.80157 20.9381 8.54146 20.7625 9.2148 20.4302C9.88814 20.0978 10.4774 19.6172 10.9385 19.0245L20.1658 23.6382C19.8976 24.6425 19.9509 25.7055 20.3183 26.6779C20.6857 27.6503 21.3487 28.4831 22.2139 29.0592C23.0792 29.6352 24.1032 29.9256 25.1421 29.8894C26.1809 29.8532 27.1823 29.4923 28.0054 28.8574C28.8285 28.2226 29.4319 27.3457 29.7307 26.3501C30.0296 25.3545 30.0088 24.2903 29.6714 23.3071C29.334 22.3239 28.697 21.4712 27.8498 20.8689C27.0026 20.2665 25.9879 19.9449 24.9484 19.9492ZM24.9484 4.04015C25.5384 4.04015 26.1151 4.2151 26.6057 4.54287C27.0962 4.87064 27.4785 5.33652 27.7043 5.88158C27.9301 6.42664 27.9892 7.02642 27.8741 7.60505C27.759 8.18369 27.4749 8.7152 27.0577 9.13237C26.6405 9.54955 26.109 9.83365 25.5304 9.94875C24.9517 10.0638 24.352 10.0048 23.8069 9.779C23.2618 9.55323 22.796 9.17089 22.4682 8.68035C22.1404 8.1898 21.9655 7.61308 21.9655 7.02311C21.9655 6.23198 22.2797 5.47325 22.8392 4.91384C23.3986 4.35443 24.1573 4.04015 24.9484 4.04015ZM7.05069 18.9549C6.46072 18.9549 5.884 18.78 5.39345 18.4522C4.90291 18.1244 4.52057 17.6586 4.2948 17.1135C4.06903 16.5684 4.00996 15.9687 4.12505 15.39C4.24015 14.8114 4.52425 14.2799 4.94143 13.8627C5.3586 13.4455 5.89011 13.1614 6.46875 13.0463C7.04738 12.9312 7.64716 12.9903 8.19222 13.2161C8.73728 13.4419 9.20316 13.8242 9.53093 14.3147C9.8587 14.8053 10.0336 15.382 10.0336 15.972C10.0336 16.7631 9.71937 17.5218 9.15996 18.0812C8.60055 18.6406 7.84182 18.9549 7.05069 18.9549ZM24.9484 27.9038C24.3584 27.9038 23.7817 27.7288 23.2912 27.4011C22.8006 27.0733 22.4183 26.6074 22.1925 26.0624C21.9668 25.5173 21.9077 24.9175 22.0228 24.3389C22.1379 23.7603 22.422 23.2287 22.8392 22.8116C23.2563 22.3944 23.7878 22.1103 24.3665 21.9952C24.9451 21.8801 25.5449 21.9392 26.0899 22.1649C26.635 22.3907 27.1009 22.7731 27.4287 23.2636C27.7564 23.7541 27.9314 24.3309 27.9314 24.9208C27.9314 25.712 27.6171 26.4707 27.0577 27.0301C26.4983 27.5895 25.7395 27.9038 24.9484 27.9038Z" fill="url(#paint0_linear_1220_4419)"/>
<defs>
<linearGradient id="paint0_linear_1220_4419" x1="16.0099" y1="2.05151" x2="16.0099" y2="29.8924" gradientUnits="userSpaceOnUse">
<stop stop-color="#F6811F"/>
<stop offset="0.475" stop-color="#46566E"/>
<stop offset="1" stop-color="#134A85"/>
</linearGradient>
</defs>
</svg>
