<svg width="52" height="51" viewBox="0 0 52 51" fill="none" xmlns="http://www.w3.org/2000/svg">
<g clip-path="url(#clip0_2286_9594)">
<path d="M6.06362 38.2211C5.80872 37.8982 5.34033 37.8431 5.01762 38.0979C2.10731 40.3952 0.438114 43.8378 0.438114 47.5433V50.2193C0.438114 50.6306 0.771555 50.964 1.18285 50.964C1.59414 50.964 1.92758 50.6306 1.92758 50.2193V47.5433C1.92758 44.2967 3.39023 41.2801 5.94049 39.2671C6.26331 39.0123 6.31852 38.544 6.06362 38.2211Z" fill="url(#paint0_linear_2286_9594)" stroke="url(#paint1_linear_2286_9594)" stroke-width="0.291332"/>
<path d="M12.4874 44.5049H6.35307C5.65649 44.5049 5.0897 45.0717 5.0897 45.7682V48.0559C5.0897 48.7524 5.65649 49.3192 6.35307 49.3192H12.4874C13.1839 49.3192 13.7507 48.7524 13.7507 48.0559V45.7682C13.7507 45.0717 13.1839 44.5049 12.4874 44.5049ZM12.2613 47.8298H6.57917V45.9944H12.2613V47.8298Z" fill="url(#paint2_linear_2286_9594)" stroke="url(#paint3_linear_2286_9594)" stroke-width="0.291332"/>
<path d="M47.5996 29.26C47.307 28.9709 46.8354 28.9737 46.5464 29.2664C46.2574 29.5589 46.2602 30.0305 46.5527 30.3195C48.7003 32.4414 49.883 35.2719 49.883 38.2895C49.883 44.4675 44.8569 49.4936 38.6789 49.4936C32.5009 49.4936 27.4749 44.4674 27.4749 38.2895C27.4749 32.1116 32.5009 27.0855 38.6789 27.0855C40.6045 27.0855 42.5039 27.5826 44.1719 28.523C44.5302 28.725 44.9845 28.5983 45.1865 28.24C45.3884 27.8818 45.2617 27.4276 44.9035 27.2256C43.0125 26.1595 40.8601 25.5961 38.6788 25.5961C32.8924 25.5961 27.9983 29.4881 26.4757 34.7917L24.7148 34.0732V31.0959C27.1611 29.2386 28.7139 26.3516 28.8357 23.1946C30.693 23.1597 32.1934 21.6391 32.1934 19.7736C32.1934 18.8114 31.7937 17.9413 31.1523 17.3189V9.62114C31.1523 8.26583 30.5877 6.98459 29.596 6.07205C28.3566 2.431 24.9726 0 21.1094 0H17.3415C15.8727 0 14.4112 0.366607 13.1146 1.0602C12.752 1.25423 12.6153 1.70553 12.8092 2.06817C13.0032 2.4308 13.4545 2.56764 13.8172 2.37361C14.8983 1.7952 16.117 1.48946 17.3415 1.48946H21.1094C24.3898 1.48946 27.2558 3.59169 28.2413 6.72056C28.2839 6.8558 28.3642 6.97595 28.4727 7.06711C29.229 7.70231 29.6629 8.63323 29.6629 9.62114V16.4696C29.4008 16.3988 29.1264 16.3587 28.8437 16.3527V12.9681C28.8437 11.6732 28.2533 10.4802 27.2238 9.69482C26.1945 8.90937 24.8879 8.65497 23.639 8.99715L19.8862 10.0249C19.4831 10.1353 19.055 10.1424 18.6483 10.0451L14.7955 9.12435C13.5618 8.82954 12.2834 9.11105 11.2879 9.89669C10.2923 10.6823 9.72125 11.8604 9.72125 13.1286V16.3524C9.39734 16.3579 9.08415 16.408 8.78785 16.4979V9.62114C8.78785 8.63323 9.22168 7.70241 9.97803 7.06711C10.0866 6.97595 10.1669 6.8557 10.2095 6.72056C10.5 5.79789 10.9605 4.95137 11.578 4.20446C11.8402 3.8875 11.7957 3.41802 11.4787 3.15597C11.1617 2.89383 10.6923 2.93841 10.4302 3.25527C9.73475 4.09642 9.2054 5.04303 8.85478 6.07195C7.86299 6.98439 7.29848 8.26573 7.29848 9.62104V17.4192C6.71551 18.0331 6.35675 18.8619 6.35675 19.7734C6.35675 21.6437 7.86488 23.1675 9.72869 23.1948C9.83891 26.2642 11.3057 29.0845 13.632 30.9522V34.073L7.94015 36.3952C7.55934 36.5506 7.37663 36.9853 7.53193 37.3662C7.6498 37.6549 7.92803 37.8297 8.22175 37.8297C8.31549 37.8297 8.41072 37.8119 8.50286 37.7743L12.7977 36.022L18.5911 50.5147C18.7041 50.7973 18.9776 50.9826 19.2818 50.9829H19.2826C19.5866 50.9829 19.86 50.7982 19.9735 50.5162L25.7696 36.1118L26.1474 36.266C26.0414 36.9251 25.9855 37.6008 25.9855 38.2893C25.9855 45.2886 31.6798 50.9828 38.679 50.9828C45.6783 50.9828 51.3726 45.2885 51.3726 38.2893C51.3725 34.8706 50.0326 31.6639 47.5996 29.26ZM30.704 19.7735C30.704 20.8149 29.8758 21.6642 28.8438 21.7031V17.8441C29.8758 17.8828 30.704 18.7322 30.704 19.7735ZM7.84621 19.7735C7.84621 18.7271 8.68239 17.8744 9.72135 17.8433V21.7038C8.68239 21.6727 7.84621 20.8198 7.84621 19.7735ZM11.2108 22.8224V13.1284C11.2108 12.319 11.5752 11.5671 12.2106 11.0657C12.6808 10.6946 13.2499 10.4998 13.8331 10.4998C14.0379 10.4998 14.2446 10.5239 14.4493 10.5728L18.302 11.4936C18.9517 11.649 19.6357 11.6378 20.2798 11.4612L24.0324 10.4335C24.8295 10.2151 25.6635 10.3776 26.3204 10.8788C26.9774 11.3801 27.3542 12.1415 27.3542 12.968V22.7931C27.3542 26.5653 24.9656 29.947 21.4104 31.2081L21.3371 31.2341C19.9764 31.7169 18.4787 31.7139 17.1201 31.2255C13.5855 29.9552 11.2108 26.5783 11.2108 22.8224ZM16.6164 32.6272C17.4622 32.9312 18.3513 33.0832 19.2407 33.0832C20.1194 33.0832 20.9984 32.9347 21.8353 32.6378L21.9084 32.6118C22.3649 32.4498 22.8038 32.2563 23.2254 32.0372V34.4323C23.2254 34.4795 23.2292 34.5259 23.2357 34.5714L19.334 37.8466C19.2872 37.8859 19.22 37.8852 19.174 37.845L15.1213 34.3071V31.9516C15.5963 32.2133 16.0955 32.44 16.6164 32.6272ZM19.2848 48.2377L14.1769 35.4599L18.1945 38.9671C18.5 39.2339 18.8772 39.3675 19.2548 39.3675C19.6221 39.3675 19.9897 39.241 20.2917 38.9875L24.3885 35.5485L24.3904 35.5493L19.2848 48.2377Z" fill="url(#paint4_linear_2286_9594)" stroke="url(#paint5_linear_2286_9594)" stroke-width="0.291332"/>
<path d="M18.4214 18.9454V17.7879H20.0333V18.9454C20.0333 19.8946 20.8055 20.6668 21.7546 20.6668H24.5961C25.5453 20.6668 26.3174 19.8945 26.3174 18.9454V17.0432C26.3174 16.094 25.5452 15.3218 24.5961 15.3218H21.7546C21.0724 15.3218 20.4834 15.7216 20.2051 16.2985H18.2496C17.9713 15.7216 17.3822 15.3218 16.7001 15.3218H13.8586C12.9094 15.3218 12.1372 16.094 12.1372 17.0432V18.9454C12.1372 19.8946 12.9094 20.6668 13.8586 20.6668H16.7001C17.6492 20.6669 18.4214 19.8946 18.4214 18.9454ZM21.5228 17.0432C21.5228 16.9153 21.6268 16.8112 21.7546 16.8112H24.5961C24.724 16.8112 24.828 16.9153 24.828 17.0432V18.9454C24.828 19.0733 24.7239 19.1773 24.5961 19.1773H21.7546C21.6267 19.1773 21.5228 19.0732 21.5228 18.9454V17.0432ZM13.6266 18.9454V17.0432C13.6266 16.9153 13.7307 16.8112 13.8586 16.8112H16.7001C16.828 16.8112 16.9319 16.9153 16.9319 17.0432V18.9454C16.9319 19.0733 16.8279 19.1773 16.7001 19.1773H13.8586C13.7307 19.1774 13.6266 19.0733 13.6266 18.9454Z" fill="url(#paint6_linear_2286_9594)" stroke="url(#paint7_linear_2286_9594)" stroke-width="0.291332"/>
<path d="M42.1692 34.7994V32.2229C42.1692 31.6073 41.6683 31.1064 41.0527 31.1064H36.3052C35.6895 31.1064 35.1887 31.6073 35.1887 32.2229V34.7994H32.6122C31.9966 34.7994 31.4957 35.3003 31.4957 35.916V40.6634C31.4957 41.2791 31.9966 41.7799 32.6122 41.7799H35.1887V44.3564C35.1887 44.9721 35.6895 45.473 36.3052 45.473H41.0527C41.6683 45.473 42.1692 44.9722 42.1692 44.3564V41.7799H44.7457C45.3613 41.7799 45.8622 41.2791 45.8622 40.6634V35.916C45.8622 35.3004 45.3613 34.7994 44.7457 34.7994H42.1692ZM44.3727 40.2904H41.4245C41.0131 40.2904 40.6797 40.6238 40.6797 41.0351V43.9835H36.6782V41.0351C36.6782 40.6238 36.3448 40.2904 35.9334 40.2904H32.9852V36.2888H35.9334C36.3448 36.2888 36.6782 35.9553 36.6782 35.5441V32.5958H40.6797V35.5441C40.6797 35.9553 41.0131 36.2888 41.4245 36.2888H44.3727V40.2904Z" fill="url(#paint8_linear_2286_9594)" stroke="url(#paint9_linear_2286_9594)" stroke-width="0.291332"/>
</g>
<defs>
<linearGradient id="paint0_linear_2286_9594" x1="6.22384" y1="50.964" x2="-3.44097" y2="46.6713" gradientUnits="userSpaceOnUse">
<stop stop-color="#54BE95"/>
<stop offset="0.288462" stop-color="#2E7B9A"/>
<stop offset="1" stop-color="#224075"/>
</linearGradient>
<linearGradient id="paint1_linear_2286_9594" x1="6.22384" y1="50.964" x2="-3.44097" y2="46.6713" gradientUnits="userSpaceOnUse">
<stop stop-color="#54BE95"/>
<stop offset="0.288462" stop-color="#2E7B9A"/>
<stop offset="1" stop-color="#224075"/>
</linearGradient>
<linearGradient id="paint2_linear_2286_9594" x1="13.7507" y1="49.3192" x2="9.66189" y2="41.9634" gradientUnits="userSpaceOnUse">
<stop stop-color="#54BE95"/>
<stop offset="0.288462" stop-color="#2E7B9A"/>
<stop offset="1" stop-color="#224075"/>
</linearGradient>
<linearGradient id="paint3_linear_2286_9594" x1="13.7507" y1="49.3192" x2="9.66189" y2="41.9634" gradientUnits="userSpaceOnUse">
<stop stop-color="#54BE95"/>
<stop offset="0.288462" stop-color="#2E7B9A"/>
<stop offset="1" stop-color="#224075"/>
</linearGradient>
<linearGradient id="paint4_linear_2286_9594" x1="51.3726" y1="50.9829" x2="0.782101" y2="6.31359" gradientUnits="userSpaceOnUse">
<stop stop-color="#54BE95"/>
<stop offset="0.288462" stop-color="#2E7B9A"/>
<stop offset="1" stop-color="#224075"/>
</linearGradient>
<linearGradient id="paint5_linear_2286_9594" x1="51.3726" y1="50.9829" x2="0.782101" y2="6.31359" gradientUnits="userSpaceOnUse">
<stop stop-color="#54BE95"/>
<stop offset="0.288462" stop-color="#2E7B9A"/>
<stop offset="1" stop-color="#224075"/>
</linearGradient>
<linearGradient id="paint6_linear_2286_9594" x1="26.3174" y1="20.6668" x2="22.7893" y2="11.3066" gradientUnits="userSpaceOnUse">
<stop stop-color="#54BE95"/>
<stop offset="0.288462" stop-color="#2E7B9A"/>
<stop offset="1" stop-color="#224075"/>
</linearGradient>
<linearGradient id="paint7_linear_2286_9594" x1="26.3174" y1="20.6668" x2="22.7893" y2="11.3066" gradientUnits="userSpaceOnUse">
<stop stop-color="#54BE95"/>
<stop offset="0.288462" stop-color="#2E7B9A"/>
<stop offset="1" stop-color="#224075"/>
</linearGradient>
<linearGradient id="paint8_linear_2286_9594" x1="45.8622" y1="45.473" x2="31.4956" y2="31.1065" gradientUnits="userSpaceOnUse">
<stop stop-color="#54BE95"/>
<stop offset="0.288462" stop-color="#2E7B9A"/>
<stop offset="1" stop-color="#224075"/>
</linearGradient>
<linearGradient id="paint9_linear_2286_9594" x1="45.8622" y1="45.473" x2="31.4956" y2="31.1065" gradientUnits="userSpaceOnUse">
<stop stop-color="#54BE95"/>
<stop offset="0.288462" stop-color="#2E7B9A"/>
<stop offset="1" stop-color="#224075"/>
</linearGradient>
<clipPath id="clip0_2286_9594">
<rect width="50.9831" height="50.9831" fill="white" transform="translate(0.413788)"/>
</clipPath>
</defs>
</svg>
