<svg width="52" height="51" viewBox="0 0 52 51" fill="none" xmlns="http://www.w3.org/2000/svg">
<path d="M47.5393 1H21.8546C20.5302 1 19.4528 2.07742 19.4528 3.40178C19.4528 4.04465 19.703 4.64808 20.1564 5.09986C20.6101 5.55373 21.2131 5.80357 21.8546 5.80357H22.7939V7.31683C22.7939 8.758 23.9663 9.93041 25.4074 9.93041H33.729C35.1702 9.93041 36.3426 8.758 36.3426 7.31683V5.80357H46.5944V24.0739C46.2477 23.9318 45.8687 23.8528 45.4716 23.8528C43.8342 23.8528 42.5021 25.1849 42.5021 26.8223C42.5021 28.4596 43.8342 29.7917 45.4716 29.7917C47.109 29.7917 48.4411 28.4596 48.4411 26.8223C48.4411 26.3151 48.313 25.8375 48.088 25.4194V5.05674C48.088 4.6442 47.7537 4.30992 47.3412 4.30992H21.8546C21.6122 4.30992 21.3843 4.21542 21.2117 4.04276C21.0407 3.87228 20.9465 3.64465 20.9465 3.40168C20.9465 2.90091 21.3538 2.49355 21.8546 2.49355H47.5393C48.8429 2.49355 49.9033 3.55443 49.9033 4.85849V47.6008C49.9033 48.5008 49.1711 49.2329 48.2712 49.2329H2.68015C2.25416 49.2329 1.90743 48.8863 1.90743 48.4601V43.1955H19.3094C20.0025 43.1955 20.6717 43.4866 21.1449 43.9935L24.0716 47.1342C24.2129 47.2857 24.4107 47.3719 24.6179 47.3719H44.9724C45.3849 47.3719 45.7192 47.0376 45.7192 46.625V32.5225C45.7192 32.11 45.3849 31.7757 44.9724 31.7757C44.5598 31.7757 44.2255 32.11 44.2255 32.5225V45.8781H24.9428L22.443 43.1955H30.9113C32.4929 43.1955 33.7797 41.9088 33.7797 40.3271V33.8273H38.8003C40.0501 33.8273 41.0669 32.8105 41.0669 31.5607C41.0669 28.8539 38.8647 26.6518 36.1578 26.6518H9.44318C9.03064 26.6518 8.69636 26.9861 8.69636 27.3986C8.69636 27.8112 9.03064 28.1454 9.44318 28.1454H36.1577C38.0409 28.1454 39.5731 29.6775 39.5731 31.5607C39.5731 31.9869 39.2265 32.3336 38.8002 32.3336H33.7796V31.7379C33.7796 30.4998 32.7724 29.4927 31.5345 29.4927H17.4612C16.5878 29.4927 15.792 29.9362 15.3328 30.679L14.3092 32.3336H1.90743V28.9182C1.90743 28.4922 2.25406 28.1454 2.68035 28.1454H5.95422C6.36677 28.1454 6.70105 27.8112 6.70105 27.3986C6.70105 26.9861 6.36677 26.6518 5.95422 26.6518H2.68035C1.43056 26.6518 0.413788 27.6685 0.413788 28.9182V48.4601C0.413788 49.7099 1.43046 50.7266 2.68015 50.7266H48.2712C49.9948 50.7266 51.3969 49.3243 51.3969 47.6008V4.85859C51.3969 2.73084 49.6664 1 47.5393 1ZM45.4715 28.2981C44.6577 28.2981 43.9956 27.6361 43.9956 26.8223C43.9956 26.0084 44.6577 25.3464 45.4715 25.3464C46.2854 25.3464 46.9474 26.0084 46.9474 26.8223C46.9474 27.6361 46.2854 28.2981 45.4715 28.2981ZM34.8489 7.31683C34.8489 7.9344 34.3465 8.43677 33.729 8.43677H25.4074C24.7899 8.43677 24.2875 7.9344 24.2875 7.31683V5.80357H34.8489V7.31683ZM32.2859 31.7378V32.3335H30.0502V30.9863H31.5345C31.9489 30.9863 32.2859 31.3234 32.2859 31.7378ZM26.6522 32.3336V30.9864H28.5566V32.3336H26.6522ZM23.2541 32.3336V30.9864H25.1585V32.3336H23.2541ZM19.8561 32.3336V30.9864H21.7605V32.3336H19.8561ZM16.6031 31.4645C16.7882 31.165 17.1091 30.9863 17.4612 30.9863H18.3624V32.3335H16.0656L16.6031 31.4645ZM32.2859 33.8273V40.3271C32.2859 41.0851 31.6692 41.7019 30.9112 41.7019H1.90743V33.8273H32.2859Z" fill="url(#paint0_linear_2286_9607)" stroke="url(#paint1_linear_2286_9607)" stroke-width="0.28562"/>
<path d="M21.5309 16.3173C21.2392 16.6091 21.2392 17.0819 21.5309 17.3735C23.7469 19.5894 26.6575 20.6973 29.5683 20.6973C32.4789 20.6973 35.3896 19.5894 37.6056 17.3735C37.8973 17.0818 37.8973 16.609 37.6056 16.3173C37.3138 16.0257 36.8411 16.0257 36.5494 16.3173C32.7004 20.1667 26.4366 20.1669 22.5872 16.3173C22.2954 16.0257 21.8226 16.0257 21.5309 16.3173Z" fill="url(#paint2_linear_2286_9607)" stroke="url(#paint3_linear_2286_9607)" stroke-width="0.28562"/>
<path d="M23.5476 14.3009C23.2559 14.5927 23.2559 15.0655 23.5476 15.3572C25.1535 16.9629 27.2917 17.8474 29.5683 17.8474C31.845 17.8474 33.9832 16.9629 35.5891 15.3572C35.8807 15.0654 35.8807 14.5926 35.5891 14.3009C35.2973 14.0094 34.8245 14.0094 34.5329 14.3009C31.7954 17.0385 27.3412 17.0385 24.6039 14.3009C24.3121 14.0094 23.8393 14.0094 23.5476 14.3009Z" fill="url(#paint4_linear_2286_9607)" stroke="url(#paint5_linear_2286_9607)" stroke-width="0.28562"/>
<path d="M33.5722 13.3406C33.8639 13.0488 33.8639 12.576 33.5722 12.2843C33.2805 11.9928 32.8077 11.9928 32.516 12.2843C30.8907 13.9098 28.2457 13.9098 26.6205 12.2843C26.3288 11.9928 25.856 11.9928 25.5643 12.2843C25.2727 12.5761 25.2727 13.0489 25.5643 13.3406C26.6339 14.41 28.0558 14.999 29.5683 14.999C31.0807 14.9991 32.5027 14.41 33.5722 13.3406Z" fill="url(#paint6_linear_2286_9607)" stroke="url(#paint7_linear_2286_9607)" stroke-width="0.28562"/>
<path d="M18.5337 46.4822C18.9462 46.4822 19.2806 46.1478 19.2806 45.7353C19.2806 45.3229 18.9462 44.9885 18.5337 44.9885C18.1213 44.9885 17.7869 45.3229 17.7869 45.7353C17.7869 46.1478 18.1213 46.4822 18.5337 46.4822Z" fill="url(#paint8_linear_2286_9607)" stroke="url(#paint9_linear_2286_9607)" stroke-width="0.28562"/>
<path d="M4.37747 46.4822C4.78993 46.4822 5.12429 46.1478 5.12429 45.7353C5.12429 45.3229 4.78993 44.9885 4.37747 44.9885C3.96501 44.9885 3.63065 45.3229 3.63065 45.7353C3.63065 46.1478 3.96501 46.4822 4.37747 46.4822Z" fill="url(#paint10_linear_2286_9607)" stroke="url(#paint11_linear_2286_9607)" stroke-width="0.28562"/>
<defs>
<linearGradient id="paint0_linear_2286_9607" x1="51.3969" y1="50.7266" x2="1.68583" y2="-0.240686" gradientUnits="userSpaceOnUse">
<stop stop-color="#54BE95"/>
<stop offset="0.288462" stop-color="#2E7B9A"/>
<stop offset="1" stop-color="#224075"/>
</linearGradient>
<linearGradient id="paint1_linear_2286_9607" x1="51.3969" y1="50.7266" x2="1.68583" y2="-0.240686" gradientUnits="userSpaceOnUse">
<stop stop-color="#54BE95"/>
<stop offset="0.288462" stop-color="#2E7B9A"/>
<stop offset="1" stop-color="#224075"/>
</linearGradient>
<linearGradient id="paint2_linear_2286_9607" x1="37.8243" y1="20.6973" x2="35.4473" y2="12.162" gradientUnits="userSpaceOnUse">
<stop stop-color="#54BE95"/>
<stop offset="0.288462" stop-color="#2E7B9A"/>
<stop offset="1" stop-color="#224075"/>
</linearGradient>
<linearGradient id="paint3_linear_2286_9607" x1="37.8243" y1="20.6973" x2="35.4473" y2="12.162" gradientUnits="userSpaceOnUse">
<stop stop-color="#54BE95"/>
<stop offset="0.288462" stop-color="#2E7B9A"/>
<stop offset="1" stop-color="#224075"/>
</linearGradient>
<linearGradient id="paint4_linear_2286_9607" x1="35.8078" y1="17.8474" x2="33.7254" y2="10.9455" gradientUnits="userSpaceOnUse">
<stop stop-color="#54BE95"/>
<stop offset="0.288462" stop-color="#2E7B9A"/>
<stop offset="1" stop-color="#224075"/>
</linearGradient>
<linearGradient id="paint5_linear_2286_9607" x1="35.8078" y1="17.8474" x2="33.7254" y2="10.9455" gradientUnits="userSpaceOnUse">
<stop stop-color="#54BE95"/>
<stop offset="0.288462" stop-color="#2E7B9A"/>
<stop offset="1" stop-color="#224075"/>
</linearGradient>
<linearGradient id="paint6_linear_2286_9607" x1="33.791" y1="14.999" x2="31.9727" y2="9.76389" gradientUnits="userSpaceOnUse">
<stop stop-color="#54BE95"/>
<stop offset="0.288462" stop-color="#2E7B9A"/>
<stop offset="1" stop-color="#224075"/>
</linearGradient>
<linearGradient id="paint7_linear_2286_9607" x1="33.791" y1="14.999" x2="31.9727" y2="9.76389" gradientUnits="userSpaceOnUse">
<stop stop-color="#54BE95"/>
<stop offset="0.288462" stop-color="#2E7B9A"/>
<stop offset="1" stop-color="#224075"/>
</linearGradient>
<linearGradient id="paint8_linear_2286_9607" x1="19.2806" y1="46.4822" x2="17.7869" y2="44.9885" gradientUnits="userSpaceOnUse">
<stop stop-color="#54BE95"/>
<stop offset="0.288462" stop-color="#2E7B9A"/>
<stop offset="1" stop-color="#224075"/>
</linearGradient>
<linearGradient id="paint9_linear_2286_9607" x1="19.2806" y1="46.4822" x2="17.7869" y2="44.9885" gradientUnits="userSpaceOnUse">
<stop stop-color="#54BE95"/>
<stop offset="0.288462" stop-color="#2E7B9A"/>
<stop offset="1" stop-color="#224075"/>
</linearGradient>
<linearGradient id="paint10_linear_2286_9607" x1="5.12429" y1="46.4822" x2="3.63065" y2="44.9885" gradientUnits="userSpaceOnUse">
<stop stop-color="#54BE95"/>
<stop offset="0.288462" stop-color="#2E7B9A"/>
<stop offset="1" stop-color="#224075"/>
</linearGradient>
<linearGradient id="paint11_linear_2286_9607" x1="5.12429" y1="46.4822" x2="3.63065" y2="44.9885" gradientUnits="userSpaceOnUse">
<stop stop-color="#54BE95"/>
<stop offset="0.288462" stop-color="#2E7B9A"/>
<stop offset="1" stop-color="#224075"/>
</linearGradient>
</defs>
</svg>
