<svg width="29" height="28" viewBox="0 0 29 28" fill="none" xmlns="http://www.w3.org/2000/svg">
<path d="M12.4736 11.0103L17.6465 13.9532L12.4736 16.8956V11.0103Z" fill="url(#paint0_linear_60_769)"/>
<path d="M25.4473 0.0395508H3.56082C1.89464 0.0395508 0.543823 1.39037 0.543823 3.05655V24.943C0.543823 26.6092 1.89464 27.96 3.56082 27.96H25.4473C27.1135 27.96 28.4643 26.6092 28.4643 24.943V3.05655C28.4643 1.39037 27.1135 0.0395508 25.4473 0.0395508ZM23.9794 18.7478C23.7522 19.6051 23.0812 20.28 22.2298 20.5087C20.6862 20.9254 14.4975 20.9254 14.4975 20.9254C14.4975 20.9254 8.30883 20.9254 6.76519 20.5087C5.91385 20.28 5.2428 19.6051 5.01567 18.7478C4.60171 17.1943 4.60171 13.9535 4.60171 13.9535C4.60171 13.9535 4.60171 10.7121 5.01567 9.15864C5.2428 8.30185 5.91385 7.62644 6.76519 7.39768C8.30883 6.98154 14.4975 6.98154 14.4975 6.98154C14.4975 6.98154 20.6862 6.98154 22.2298 7.39768C23.0812 7.62644 23.7522 8.30185 23.9794 9.15864C24.3933 10.7121 24.3933 13.9535 24.3933 13.9535C24.3933 13.9535 24.3933 17.1943 23.9794 18.7478Z" fill="url(#paint1_linear_60_769)"/>
<defs>
<linearGradient id="paint0_linear_60_769" x1="17.6465" y1="16.8956" x2="11.8098" y2="11.7655" gradientUnits="userSpaceOnUse">
<stop stop-color="#F6811F"/>
<stop offset="0.511069" stop-color="#4C586B"/>
<stop offset="1" stop-color="#134A85"/>
</linearGradient>
<linearGradient id="paint1_linear_60_769" x1="28.4643" y1="27.96" x2="0.543823" y2="0.0395508" gradientUnits="userSpaceOnUse">
<stop stop-color="#F6811F"/>
<stop offset="0.511069" stop-color="#4C586B"/>
<stop offset="1" stop-color="#134A85"/>
</linearGradient>
</defs>
</svg>
