<svg width="30" height="30" viewBox="0 0 30 30" fill="none" xmlns="http://www.w3.org/2000/svg">
<path d="M12.7972 11.9263L18.1736 14.985L12.7972 18.0431V11.9263Z" fill="url(#paint0_linear_2286_9573)"/>
<path d="M26.2813 0.523926H3.53388C1.80215 0.523926 0.398193 1.92788 0.398193 3.65961V26.4071C0.398193 28.1388 1.80215 29.5427 3.53388 29.5427H26.2813C28.0131 29.5427 29.417 28.1388 29.417 26.4071V3.65961C29.417 1.92788 28.0131 0.523926 26.2813 0.523926ZM24.7557 19.9681C24.5196 20.8592 23.8221 21.5606 22.9373 21.7984C21.333 22.2314 14.9008 22.2314 14.9008 22.2314C14.9008 22.2314 8.46866 22.2314 6.86431 21.7984C5.97948 21.5606 5.28203 20.8592 5.04596 19.9681C4.61572 18.3536 4.61572 14.9852 4.61572 14.9852C4.61572 14.9852 4.61572 11.6163 5.04596 10.0017C5.28203 9.11125 5.97948 8.40928 6.86431 8.17151C8.46866 7.739 14.9008 7.739 14.9008 7.739C14.9008 7.739 21.333 7.739 22.9373 8.17151C23.8221 8.40928 24.5196 9.11125 24.7557 10.0017C25.1859 11.6163 25.1859 14.9852 25.1859 14.9852C25.1859 14.9852 25.1859 18.3536 24.7557 19.9681Z" fill="url(#paint1_linear_2286_9573)"/>
<defs>
<linearGradient id="paint0_linear_2286_9573" x1="18.1736" y1="18.0431" x2="12.1073" y2="12.7112" gradientUnits="userSpaceOnUse">
<stop stop-color="#223E76"/>
<stop offset="0.511069" stop-color="#365699"/>
<stop offset="1" stop-color="#2BA9B4"/>
</linearGradient>
<linearGradient id="paint1_linear_2286_9573" x1="29.417" y1="29.5427" x2="0.398193" y2="0.523926" gradientUnits="userSpaceOnUse">
<stop stop-color="#223E76"/>
<stop offset="0.511069" stop-color="#365699"/>
<stop offset="1" stop-color="#2BA9B4"/>
</linearGradient>
</defs>
</svg>
