<svg width="71" height="70" viewBox="0 0 71 70" fill="none" xmlns="http://www.w3.org/2000/svg">
<g filter="url(#filter0_i_377_754)">
<rect x="0.5" width="70" height="70" rx="21.5385" fill="white"/>
<path d="M55.0032 34.2622H40.1718L38.4758 35.9581H55.0032C55.4696 35.9581 55.8512 35.5766 55.8512 35.1102C55.8512 34.6438 55.4696 34.2622 55.0032 34.2622Z" fill="#134A85"/>
<path d="M15.9955 35.9581H23.4408C23.4578 35.9327 23.4747 35.9158 23.5002 35.8903L25.1283 34.2622H15.9955C15.5291 34.2622 15.1475 34.6438 15.1475 35.1102C15.1475 35.5766 15.5291 35.9581 15.9955 35.9581Z" fill="#134A85"/>
<path d="M40.528 31.3875L41.766 27.6479L42.9871 26.4352L38.5776 24.2304C38.3571 24.1202 38.1536 23.9845 37.9755 23.8149L24.7214 37.0605C24.5349 37.2556 24.4416 37.5269 24.484 37.7983C24.5264 38.0697 24.696 38.2986 24.9419 38.4173C26.2224 39.0618 27.5961 39.3756 28.9614 39.3756C30.827 39.3756 32.6756 38.7735 34.2274 37.6457V37.6541C34.2274 38.1205 34.609 38.5021 35.0754 38.5021H35.9234C36.3898 38.5021 36.7714 38.1205 36.7714 37.6541C36.7714 37.1877 36.3898 36.8061 35.9234 36.8061H35.228C35.245 36.7892 35.2704 36.7722 35.2959 36.7468L40.316 31.7182C40.4092 31.6249 40.4856 31.5147 40.528 31.3875Z" fill="#134A85"/>
<path d="M17.8187 39.3501C17.3523 39.3501 16.9707 39.7317 16.9707 40.1981C16.9707 40.6645 17.3523 41.0461 17.8187 41.0461H18.6667C19.1331 41.0461 19.5147 40.6645 19.5147 40.1981C19.5147 39.7317 19.1331 39.3501 18.6667 39.3501H17.8187Z" fill="#134A85"/>
<path d="M25.4505 39.3501C24.9841 39.3501 24.6025 39.7317 24.6025 40.1981C24.6025 40.6645 24.9841 41.0461 25.4505 41.0461H26.2985C26.7649 41.0461 27.1465 40.6645 27.1465 40.1981C27.1465 39.7317 26.7649 39.3501 26.2985 39.3501H25.4505Z" fill="#134A85"/>
<path d="M21.6346 36.8061C21.1682 36.8061 20.7866 37.1877 20.7866 37.6541C20.7866 38.1205 21.1682 38.5021 21.6346 38.5021H22.4826C22.949 38.5021 23.3306 38.1205 23.3306 37.6541C23.3306 37.1877 22.949 36.8061 22.4826 36.8061H21.6346Z" fill="#134A85"/>
<path d="M31.2594 39.3501C30.793 39.3501 30.4114 39.7317 30.4114 40.1981C30.4114 40.6645 30.793 41.0461 31.2594 41.0461H32.1074C32.5738 41.0461 32.9553 40.6645 32.9553 40.1981C32.9553 39.7317 32.5738 39.3501 32.1074 39.3501H31.2594Z" fill="#134A85"/>
<path d="M38.8912 41.0461H39.7392C40.2056 41.0461 40.5872 40.6645 40.5872 40.1981C40.5872 39.7317 40.2056 39.3501 39.7392 39.3501H38.8912C38.4248 39.3501 38.0432 39.7317 38.0432 40.1981C38.0432 40.6645 38.4248 41.0461 38.8912 41.0461Z" fill="#134A85"/>
<path d="M45.548 41.0461C46.0144 41.0461 46.396 40.6645 46.396 40.1981C46.396 39.7317 46.0144 39.3501 45.548 39.3501H44.7C44.2336 39.3501 43.8521 39.7317 43.8521 40.1981C43.8521 40.6645 44.2336 41.0461 44.7 41.0461H45.548Z" fill="#134A85"/>
<path d="M53.1801 41.0461C53.6465 41.0461 54.0281 40.6645 54.0281 40.1981C54.0281 39.7317 53.6465 39.3501 53.1801 39.3501H52.3321C51.8657 39.3501 51.4841 39.7317 51.4841 40.1981C51.4841 40.6645 51.8657 41.0461 52.3321 41.0461H53.1801Z" fill="#134A85"/>
<path d="M49.3639 38.5021C49.8303 38.5021 50.2119 38.1205 50.2119 37.6541C50.2119 37.1877 49.8303 36.8061 49.3639 36.8061H48.516C48.0496 36.8061 47.668 37.1877 47.668 37.6541C47.668 38.1205 48.0496 38.5021 48.516 38.5021H49.3639Z" fill="#134A85"/>
<path d="M55.003 41.8941C53.7141 41.8941 53.0357 42.4792 52.493 42.9541C52.052 43.3357 51.7552 43.5901 51.0938 43.5901C50.4323 43.5901 50.144 43.3357 49.6946 42.9541C49.1519 42.4877 48.482 41.8941 47.1845 41.8941C45.8956 41.8941 45.2172 42.4792 44.6745 42.9541C44.2335 43.3357 43.9367 43.5901 43.2753 43.5901C42.6139 43.5901 42.3255 43.3357 41.8846 42.9541C41.3419 42.4792 40.672 41.8941 39.3745 41.8941C38.0856 41.8941 37.4072 42.4792 36.8645 42.9541C36.4235 43.3357 36.1267 43.5901 35.4738 43.5901C34.8124 43.5901 34.524 43.3357 34.0831 42.9541C33.5404 42.4792 32.8705 41.8941 31.573 41.8941C30.2841 41.8941 29.6057 42.4792 29.063 42.9541C28.622 43.3357 28.3252 43.5901 27.6723 43.5901C27.0108 43.5901 26.7225 43.3357 26.2816 42.9541C25.7389 42.4792 25.0689 41.8941 23.7715 41.8941C22.4826 41.8941 21.8042 42.4792 21.27 42.9541C20.829 43.3357 20.5322 43.5901 19.8792 43.5901C19.2263 43.5901 18.9295 43.3357 18.4885 42.9541C17.9628 42.4792 17.2844 41.8941 15.9955 41.8941C15.5291 41.8941 15.1475 42.2757 15.1475 42.7421C15.1475 43.2085 15.5291 43.5901 15.9955 43.5901C16.6484 43.5901 16.9452 43.8445 17.3862 44.2261C17.9289 44.6925 18.5988 45.286 19.8877 45.286C21.1767 45.286 21.8551 44.7009 22.3978 44.2261C22.8387 43.8445 23.1355 43.5901 23.7885 43.5901C24.4499 43.5901 24.7382 43.8445 25.1792 44.2261C25.7219 44.7009 26.3918 45.286 27.6892 45.286C28.9782 45.286 29.6566 44.7009 30.1993 44.2261C30.6402 43.8445 30.937 43.5901 31.59 43.5901C32.2514 43.5901 32.5397 43.8445 32.9807 44.2261C33.5234 44.7009 34.1933 45.286 35.4907 45.286C36.7797 45.286 37.4581 44.7009 38.0008 44.2261C38.4418 43.8445 38.7386 43.5901 39.3915 43.5901C40.0445 43.5901 40.3413 43.8445 40.7822 44.2261C41.3249 44.7009 41.9948 45.286 43.2923 45.286C44.5812 45.286 45.2596 44.7009 45.8023 44.2261C46.2433 43.8445 46.5401 43.5901 47.2015 43.5901C47.8629 43.5901 48.1512 43.8445 48.6007 44.2261C49.1434 44.6925 49.8133 45.286 51.1107 45.286C52.3997 45.286 53.0781 44.7009 53.6208 44.2261C54.0617 43.8445 54.3585 43.5901 55.02 43.5901C55.4864 43.5901 55.868 43.2085 55.868 42.7421C55.868 42.2757 55.4694 41.8941 55.003 41.8941Z" fill="#134A85"/>
<path d="M43.4705 48.2116C42.0713 48.2116 40.9265 49.3564 40.9265 50.7556C40.9265 52.1548 42.0713 53.2996 43.4705 53.2996C44.8697 53.2996 46.0145 52.1548 46.0145 50.7556C46.0145 49.3564 44.8697 48.2116 43.4705 48.2116ZM43.4705 51.6036C43.0041 51.6036 42.6225 51.222 42.6225 50.7556C42.6225 50.2892 43.0041 49.9076 43.4705 49.9076C43.9369 49.9076 44.3185 50.2892 44.3185 50.7556C44.3185 51.222 43.9369 51.6036 43.4705 51.6036Z" fill="#134A85"/>
<path d="M51.6111 47.83C50.2119 47.83 49.0671 48.9748 49.0671 50.374C49.0671 51.7732 50.2119 52.918 51.6111 52.918C53.0103 52.918 54.1551 51.7732 54.1551 50.374C54.1551 48.9748 53.0103 47.83 51.6111 47.83ZM51.6111 51.222C51.1447 51.222 50.7631 50.8404 50.7631 50.374C50.7631 49.9076 51.1447 49.526 51.6111 49.526C52.0775 49.526 52.4591 49.9076 52.4591 50.374C52.4591 50.8404 52.0775 51.222 51.6111 51.222Z" fill="#134A85"/>
<path d="M34.6345 46.982C33.2354 46.982 32.0906 48.1268 32.0906 49.526C32.0906 50.9252 33.2354 52.07 34.6345 52.07C36.0337 52.07 37.1785 50.9252 37.1785 49.526C37.1785 48.1268 36.0337 46.982 34.6345 46.982ZM34.6345 50.374C34.1682 50.374 33.7866 49.9924 33.7866 49.526C33.7866 49.0596 34.1682 48.678 34.6345 48.678C35.1009 48.678 35.4825 49.0596 35.4825 49.526C35.4825 49.9924 35.1009 50.374 34.6345 50.374Z" fill="#134A85"/>
<path d="M19.3706 48.678C17.9714 48.678 16.8267 49.8228 16.8267 51.222C16.8267 52.6212 17.9714 53.766 19.3706 53.766C20.7698 53.766 21.9146 52.6212 21.9146 51.222C21.9146 49.8228 20.7698 48.678 19.3706 48.678ZM19.3706 52.07C18.9042 52.07 18.5226 51.6884 18.5226 51.222C18.5226 50.7556 18.9042 50.374 19.3706 50.374C19.837 50.374 20.2186 50.7556 20.2186 51.222C20.2186 51.6884 19.837 52.07 19.3706 52.07Z" fill="#134A85"/>
<path d="M27.0025 50.374C25.6033 50.374 24.4585 51.5188 24.4585 52.918C24.4585 54.3171 25.6033 55.4619 27.0025 55.4619C28.4017 55.4619 29.5464 54.3171 29.5464 52.918C29.5464 51.5188 28.4017 50.374 27.0025 50.374ZM27.0025 53.766C26.5361 53.766 26.1545 53.3844 26.1545 52.918C26.1545 52.4516 26.5361 52.07 27.0025 52.07C27.4689 52.07 27.8505 52.4516 27.8505 52.918C27.8505 53.3844 27.4689 53.766 27.0025 53.766Z" fill="#134A85"/>
<path d="M44.9544 25.4261C45.1748 25.4261 45.3953 25.3413 45.5564 25.1717L49.0586 21.6695L41.3674 19.1086L39.1202 21.3558C38.9251 21.5508 38.8404 21.8222 38.8828 22.0935C38.9251 22.3649 39.0947 22.5938 39.3407 22.7125L44.5728 25.3328C44.7 25.3922 44.8272 25.4261 44.9544 25.4261Z" fill="#134A85"/>
<path d="M52.3827 18.3454C52.5862 18.1504 52.671 17.862 52.6201 17.5822C52.5607 17.3108 52.3742 17.0819 52.1198 16.9632L46.6248 14.6058C46.3111 14.4701 45.9379 14.5464 45.692 14.7838L42.7156 17.7603L50.3984 20.3297L52.3827 18.3454Z" fill="#134A85"/>
</g>
<defs>
<filter id="filter0_i_377_754" x="0.5" y="0" width="70" height="70" filterUnits="userSpaceOnUse" color-interpolation-filters="sRGB">
<feFlood flood-opacity="0" result="BackgroundImageFix"/>
<feBlend mode="normal" in="SourceGraphic" in2="BackgroundImageFix" result="shape"/>
<feColorMatrix in="SourceAlpha" type="matrix" values="0 0 0 0 0 0 0 0 0 0 0 0 0 0 0 0 0 0 127 0" result="hardAlpha"/>
<feOffset/>
<feGaussianBlur stdDeviation="3.76923"/>
<feComposite in2="hardAlpha" operator="arithmetic" k2="-1" k3="1"/>
<feColorMatrix type="matrix" values="0 0 0 0 0 0 0 0 0 0.482456 0 0 0 0 1 0 0 0 0.51 0"/>
<feBlend mode="normal" in2="shape" result="effect1_innerShadow_377_754"/>
</filter>
</defs>
</svg>
