<svg width="62" height="62" viewBox="0 0 62 62" fill="none" xmlns="http://www.w3.org/2000/svg">
<rect width="62" height="62" fill="#DFF5F5"/>
<g clip-path="url(#clip0_4991_5411)">
<path d="M28.7596 26.1402C29.5532 23.4469 31.308 21.7142 33.3972 21.5897C35.4307 21.4687 37.2697 22.8706 38.1944 25.2487C38.3146 25.5577 38.1615 25.9057 37.8524 26.0259C37.5438 26.1461 37.1955 25.9931 37.0752 25.6839C36.3461 23.8089 34.9654 22.7 33.4686 22.7886C31.8319 22.886 30.4374 24.4148 29.8293 26.778C29.7749 26.99 29.6094 27.1553 29.3975 27.2099C27.0334 27.8181 25.5043 29.2136 25.4067 30.8517C25.3176 32.3475 26.4266 33.7294 28.3009 34.4582C29.0585 34.7523 30.6983 34.8078 33.1754 34.6232C33.3503 34.611 33.5211 34.6739 33.6447 34.7976L38.4898 39.645C38.7242 39.8796 38.7241 40.2597 38.4895 40.4942C38.3724 40.6113 38.2186 40.67 38.0651 40.67C37.9113 40.67 37.7576 40.6113 37.6404 40.4939L32.9893 35.8406C30.4171 36.0191 28.7855 35.9345 27.8659 35.5776C25.4882 34.653 24.0866 32.8148 24.2078 30.7802C24.3323 28.6898 26.0656 26.9341 28.7596 26.1402ZM16.2872 19.1384C16.1117 21.716 16.1967 23.3479 16.5523 24.2617C17.4397 26.5452 19.169 27.929 21.1057 27.929C21.1863 27.929 21.2674 27.9266 21.3487 27.9217C23.4383 27.7974 25.1934 26.0642 25.9872 23.3704C28.6808 22.5766 30.414 20.8216 30.5389 18.7321C30.6605 16.6978 29.2591 14.859 26.8803 13.9328C25.9591 13.576 24.3265 13.4918 21.755 13.67L17.1065 9.01897C16.872 8.78445 16.4918 8.78437 16.2573 9.01872C16.0227 9.25315 16.0226 9.63334 16.2571 9.86787L21.0997 14.7129C21.2233 14.8367 21.3942 14.8998 21.569 14.8873C24.0458 14.7025 25.6867 14.7582 26.4457 15.0522C28.3205 15.7822 29.4296 17.1647 29.3402 18.6604C29.2423 20.2976 27.7131 21.6924 25.3494 22.3006C25.1375 22.3551 24.9722 22.5205 24.9176 22.7325C24.3093 25.0965 22.9144 26.6255 21.2774 26.7229C19.7814 26.8146 18.4006 25.702 17.6716 23.8264C17.3788 23.074 17.3224 21.4338 17.5043 18.9514C17.5171 18.7773 17.4534 18.6063 17.3301 18.4828L12.485 13.6378C12.2505 13.4032 11.8703 13.4032 11.6358 13.6378C11.4012 13.8723 11.4012 14.2525 11.6358 14.487L16.2872 19.1384ZM34.1667 17.9634C34.2839 18.0806 34.4376 18.1393 34.5911 18.1393C34.7448 18.1393 34.8986 18.0806 35.0158 17.9632L39.3431 13.6336C39.5776 13.399 39.5775 13.0188 39.3429 12.7844C39.1083 12.55 38.7282 12.5501 38.4937 12.7847L34.1664 17.1143C33.932 17.3488 33.9321 17.729 34.1667 17.9634ZM35.3189 20.3725C35.3966 20.6331 35.6354 20.8013 35.8939 20.8013C35.9508 20.8013 36.0087 20.7932 36.066 20.7762L41.8786 19.0404C42.1963 18.9455 42.3771 18.611 42.2821 18.2933C42.1872 17.9754 41.8527 17.795 41.535 17.8897L35.7224 19.6255C35.4045 19.7203 35.2239 20.0548 35.3189 20.3725ZM32.1221 16.4441C32.1794 16.4612 32.2372 16.4692 32.2941 16.4692C32.5526 16.4692 32.7914 16.3009 32.8692 16.0404L34.605 10.2279C34.6998 9.91015 34.5192 9.57559 34.2014 9.48072C33.8836 9.38584 33.5491 9.56657 33.4543 9.88428L31.7185 15.6968C31.6235 16.0146 31.8042 16.3492 32.1221 16.4441ZM41.0315 41.2942L34.2177 44.5984C34.2775 43.5119 33.812 42.4286 32.9037 41.7261L31.6543 40.7625C29.5942 39.1737 27.5357 37.5858 25.4763 35.9958C24.936 35.5798 24.3422 35.3777 23.6612 35.3777H11.9243C11.5926 35.3777 11.3237 35.6465 11.3237 35.9783C11.3237 36.31 11.5925 36.5788 11.9243 36.5788H23.6613C24.073 36.5788 24.4169 36.6959 24.7431 36.947C26.8019 38.5366 28.8607 40.1246 30.9208 41.7136L32.1695 42.6766C32.955 43.2841 33.2271 44.3327 32.8596 45.2377C32.8514 45.2576 32.8422 45.277 32.8335 45.2967C32.8197 45.328 32.8053 45.3591 32.7899 45.39C32.7258 45.518 32.6509 45.6394 32.5648 45.7511C31.8271 46.707 30.449 46.884 29.4928 46.1457L24.2248 42.0834C23.9622 41.881 23.5851 41.9296 23.3826 42.1923C23.1801 42.4549 23.2288 42.832 23.4914 43.0345L28.7592 47.0965C29.3751 47.572 30.104 47.8021 30.8278 47.8021C31.8434 47.8021 32.8485 47.3489 33.5158 46.4844C33.5929 46.3843 33.6628 46.2787 33.7285 46.1704L41.5551 42.3749C42.6418 41.8486 43.9551 42.3051 44.4822 43.3918C45.008 44.4779 44.5515 45.7911 43.465 46.319C41.9782 47.0398 40.6724 47.6901 39.5203 48.2638C35.0486 50.4909 32.8024 51.6083 30.6205 51.5491C28.4275 51.489 26.0792 50.2429 21.4008 47.7603C20.4146 47.237 19.2969 46.6439 18.0657 46.0013C17.9799 45.9565 17.8846 45.9332 17.7879 45.9332H11.9243C11.5926 45.9332 11.3237 46.202 11.3237 46.5337C11.3237 46.8654 11.5925 47.1342 11.9243 47.1342H17.6406C18.8168 47.7487 19.8883 48.3173 20.8378 48.8212C25.8257 51.4681 28.2999 52.7573 30.7884 52.7572C33.1474 52.757 35.5193 51.5983 40.0558 49.3389C41.2051 48.7664 42.5078 48.1176 43.9893 47.3995C45.6711 46.5823 46.3771 44.5498 45.563 42.8681C44.7469 41.1856 42.714 40.4797 41.0315 41.2942ZM50.2349 31.629C50.2349 35.314 47.2369 38.312 43.5519 38.312C39.8683 38.312 36.8714 35.314 36.8714 31.629C36.8714 27.9454 39.8683 24.9485 43.5519 24.9485C47.2368 24.9485 50.2349 27.9454 50.2349 31.629ZM49.0338 31.629C49.0338 28.6077 46.5746 26.1496 43.5518 26.1496C40.5304 26.1496 38.0723 28.6077 38.0723 31.629C38.0723 34.6518 40.5304 37.111 43.5518 37.111C46.5746 37.111 49.0338 34.6518 49.0338 31.629ZM46.3013 31.0285H44.1524V28.8795C44.1524 28.5478 43.8836 28.2789 43.5518 28.2789C43.2201 28.2789 42.9513 28.5478 42.9513 28.8795V31.0285H40.8024C40.4707 31.0285 40.2018 31.2973 40.2018 31.629C40.2018 31.9608 40.4706 32.2296 40.8024 32.2296H42.9513V34.3809C42.9513 34.7126 43.2201 34.9815 43.5518 34.9815C43.8836 34.9815 44.1524 34.7127 44.1524 34.3809V32.2296H46.3013C46.633 32.2296 46.9019 31.9608 46.9019 31.629C46.9019 31.2973 46.633 31.0285 46.3013 31.0285Z" fill="#343434"/>
</g>
<defs>
<clipPath id="clip0_4991_5411">
<rect width="44" height="44" fill="white" transform="translate(8.7793 8.80005)"/>
</clipPath>
</defs>
</svg>
