<svg width="75" height="75" viewBox="0 0 75 75" fill="none" xmlns="http://www.w3.org/2000/svg">
<path d="M46.8745 31.6406H45.0153L46.5306 30.1255C46.7463 29.9049 46.8663 29.6081 46.8646 29.2996C46.8628 28.9911 46.7395 28.6957 46.5213 28.4775C46.3032 28.2593 46.0078 28.136 45.6993 28.1343C45.3907 28.1326 45.094 28.2526 44.8734 28.4683L41.3578 31.9839C41.1939 32.1478 41.0823 32.3567 41.0371 32.5841C40.9919 32.8114 41.0152 33.0471 41.104 33.2612C41.1927 33.4753 41.343 33.6583 41.5358 33.787C41.7286 33.9157 41.9552 33.9844 42.187 33.9843H46.8745C47.1853 33.9843 47.4834 33.8608 47.7031 33.6411C47.9229 33.4213 48.0464 33.1232 48.0464 32.8124C48.0464 32.5016 47.9229 32.2036 47.7031 31.9838C47.4834 31.764 47.1853 31.6406 46.8745 31.6406Z" fill="#134A85"/>
<path d="M53.9038 14.0547H53.8969C43.7016 14.0588 35.3813 22.2452 35.1589 32.3945L30.7236 37.9393C30.6145 38.0757 30.5372 38.2348 30.4975 38.405C30.4578 38.5751 30.4566 38.752 30.4941 38.9227C30.5315 39.0933 30.6067 39.2535 30.714 39.3913C30.8214 39.5292 30.9582 39.6413 31.1145 39.7195L35.1549 41.7392V44.5311C35.1549 44.8419 35.2784 45.1399 35.4982 45.3597C35.7179 45.5795 36.016 45.7029 36.3268 45.7029H38.6706C39.2922 45.7029 39.8883 45.9499 40.3279 46.3894C40.7674 46.8289 41.0143 47.4251 41.0143 48.0467C41.0143 48.6683 40.7674 49.2644 40.3279 49.704C39.8883 50.1435 39.2922 50.3904 38.6706 50.3904C38.0491 50.391 37.4533 50.6381 37.0139 51.0775C36.5745 51.517 36.3274 52.1128 36.3268 52.7342C36.3267 52.8602 36.347 52.9854 36.387 53.1049L37.5589 56.6206C37.6367 56.8538 37.7859 57.0567 37.9854 57.2005C38.185 57.3443 38.4246 57.4217 38.6706 57.4217H46.8737V69.1404C46.8737 69.4512 46.9972 69.7493 47.2169 69.9691C47.4367 70.1888 47.7348 70.3123 48.0456 70.3123H65.6237C65.9345 70.3123 66.2326 70.1888 66.4523 69.9691C66.6721 69.7493 66.7956 69.4512 66.7956 69.1404V56.4842L68.9562 51.2986C71.4042 45.4405 72.6615 39.1537 72.6549 32.8047C72.6549 27.8319 70.6795 23.0627 67.1632 19.5464C63.6469 16.0301 58.8778 14.0547 53.9049 14.0547H53.9038ZM66.7926 50.3961L64.5416 55.7983C64.4822 55.9414 64.4517 56.0949 64.4518 56.2498V67.9686H49.2174V56.7978L55.827 51.29C55.9589 51.1801 56.0651 51.0426 56.138 50.8872C56.2108 50.7317 56.2486 50.5621 56.2487 50.3904V46.8748C56.2487 46.564 56.1252 46.2659 55.9055 46.0462C55.6857 45.8264 55.3876 45.7029 55.0768 45.7029C54.766 45.7029 54.4679 45.8264 54.2482 46.0462C54.0284 46.2659 53.9049 46.564 53.9049 46.8748V49.8416L47.6208 55.0779H39.5143L38.7333 52.7342C39.9765 52.7259 41.1654 52.224 42.0386 51.3391C42.9118 50.4541 43.3977 49.2585 43.3894 48.0153C43.3811 46.7721 42.8793 45.5831 41.9943 44.7099C41.1094 43.8368 39.9138 43.3509 38.6706 43.3592H37.4987V41.0154C37.4987 40.7978 37.4382 40.5845 37.3238 40.3993C37.2094 40.2142 37.0457 40.0645 36.8511 39.9672L33.4601 38.2718L37.2418 33.5441C37.4085 33.3338 37.499 33.0731 37.4987 32.8047C37.5041 28.4562 39.2335 24.2873 42.3078 21.2119C45.3821 18.1365 49.5503 16.4055 53.8988 16.3984H53.9045C58.2557 16.3984 62.4287 18.1269 65.5055 21.2037C68.5822 24.2805 70.3108 28.4535 70.3108 32.8047C70.3168 38.8438 69.1209 44.8238 66.7926 50.3961Z" fill="#134A85"/>
<path d="M31.6396 45.7031H25.7803C25.1587 45.7031 24.5625 45.4562 24.123 45.0167C23.6835 44.5771 23.4365 43.981 23.4365 43.3594C23.4365 42.7378 23.6835 42.1416 24.123 41.7021C24.5625 41.2626 25.1587 41.0156 25.7803 41.0156C26.0911 41.0156 26.3891 40.8922 26.6089 40.6724C26.8287 40.4526 26.9521 40.1546 26.9521 39.8438C26.9521 39.5329 26.8287 39.2349 26.6089 39.0151C26.3891 38.7953 26.0911 38.6719 25.7803 38.6719C24.5371 38.6719 23.3448 39.1657 22.4657 40.0448C21.5866 40.9239 21.0928 42.1162 21.0928 43.3594C21.0928 44.6026 21.5866 45.7949 22.4657 46.6739C23.3448 47.553 24.5371 48.0469 25.7803 48.0469H31.6396C31.9504 48.0469 32.2485 47.9234 32.4683 47.7036C32.6881 47.4839 32.8115 47.1858 32.8115 46.875C32.8115 46.5642 32.6881 46.2661 32.4683 46.0464C32.2485 45.8266 31.9504 45.7031 31.6396 45.7031Z" fill="#134A85"/>
<path d="M25.7803 52.7344H31.6396C31.9504 52.7344 32.2485 52.6109 32.4683 52.3911C32.6881 52.1714 32.8115 51.8733 32.8115 51.5625C32.8115 51.2517 32.6881 50.9536 32.4683 50.7339C32.2485 50.5141 31.9504 50.3906 31.6396 50.3906H25.7803C24.5371 50.3906 23.3448 50.8845 22.4657 51.7636C21.5866 52.6426 21.0928 53.8349 21.0928 55.0781C21.0928 56.3213 21.5866 57.5136 22.4657 58.3927C23.3448 59.2718 24.5371 59.7656 25.7803 59.7656C26.0911 59.7656 26.3891 59.6422 26.6089 59.4224C26.8287 59.2026 26.9521 58.9046 26.9521 58.5938C26.9521 58.2829 26.8287 57.9849 26.6089 57.7651C26.3891 57.5453 26.0911 57.4219 25.7803 57.4219C25.1587 57.4219 24.5625 57.1749 24.123 56.7354C23.6835 56.2959 23.4365 55.6997 23.4365 55.0781C23.4365 54.4565 23.6835 53.8604 24.123 53.4208C24.5625 52.9813 25.1587 52.7344 25.7803 52.7344Z" fill="#134A85"/>
<path d="M18.749 69.1408V51.6873C18.749 49.9112 17.4879 48.3663 15.8154 48.0939C15.3196 48.0119 14.812 48.0365 14.3265 48.166L15.0611 38.6136C15.1198 37.8606 14.9111 37.1109 14.4718 36.4965C14.0325 35.882 13.3907 35.4421 12.6592 35.254C11.9276 35.0659 11.1532 35.1417 10.472 35.468C9.7908 35.7944 9.24643 36.3504 8.93457 37.0383L3.6188 48.7336C3.54979 48.8861 3.51427 49.0516 3.51465 49.2189V57.4221C3.51457 57.5808 3.54687 57.7379 3.60957 57.8838L7.03028 65.8648V69.1408C7.03028 69.4516 7.15374 69.7497 7.37351 69.9695C7.59328 70.1892 7.89135 70.3127 8.20215 70.3127H17.5772C17.888 70.3127 18.186 70.1892 18.4058 69.9695C18.6256 69.7497 18.749 69.4516 18.749 69.1408ZM16.4053 67.9689H9.37403V65.6252C9.3741 65.4664 9.34181 65.3092 9.2791 65.1633L5.85767 57.1811V49.4724L11.0681 38.0082C11.1325 37.8832 11.2253 37.7751 11.3391 37.6926C11.4529 37.6101 11.5845 37.5554 11.7232 37.533C11.862 37.5105 12.0041 37.521 12.1381 37.5635C12.2721 37.606 12.3943 37.6793 12.4947 37.7776C12.5765 37.865 12.6392 37.9685 12.6786 38.0815C12.718 38.1946 12.7333 38.3146 12.7235 38.4339L11.7513 51.0705C11.7286 51.2336 11.7174 51.398 11.7178 51.5627V57.4221C11.7178 57.7329 11.8412 58.0309 12.061 58.2507C12.2808 58.4705 12.5789 58.5939 12.8897 58.5939C13.2005 58.5939 13.4985 58.4705 13.7183 58.2507C13.9381 58.0309 14.0615 57.7329 14.0615 57.4221V51.6066L14.0816 51.3453C14.1388 51.0417 14.3133 50.7729 14.5674 50.5971C14.8214 50.4214 15.1345 50.3528 15.4388 50.4063C15.9808 50.495 16.4056 51.0575 16.4056 51.6869L16.4053 67.9689Z" fill="#134A85"/>
<path d="M11.7168 16.4053H14.0605V18.749H11.7168V16.4053Z" fill="#134A85"/>
<path d="M11.7168 11.7178H14.0605V14.0615H11.7168V11.7178Z" fill="#134A85"/>
<path d="M9.37305 14.0615H11.7168V16.4053H9.37305V14.0615Z" fill="#134A85"/>
<path d="M14.0605 14.0615H16.4043V16.4053H14.0605V14.0615Z" fill="#134A85"/>
<path d="M35.1543 9.37402H37.498V11.7178H35.1543V9.37402Z" fill="#134A85"/>
<path d="M35.1543 4.68652H37.498V7.03027H35.1543V4.68652Z" fill="#134A85"/>
<path d="M32.8105 7.03027H35.1543V9.37402H32.8105V7.03027Z" fill="#134A85"/>
<path d="M37.498 7.03027H39.8418V9.37402H37.498V7.03027Z" fill="#134A85"/>
<path d="M24.6074 23.4365H26.9512V25.7803H24.6074V23.4365Z" fill="#134A85"/>
<path d="M24.6074 16.4053H26.9512V18.749H24.6074V16.4053Z" fill="#134A85"/>
<path d="M21.0918 19.9209H23.4355V22.2646H21.0918V19.9209Z" fill="#134A85"/>
<path d="M28.123 19.9209H30.4668V22.2646H28.123V19.9209Z" fill="#134A85"/>
</svg>
