<svg width="76" height="76" viewBox="0 0 76 76" fill="none" xmlns="http://www.w3.org/2000/svg">
<path d="M12.876 25.3901C12.9814 29.0464 13.9189 32.6675 15.4424 35.5386C16.7432 38.0112 17.8447 39.9917 18.7822 41.7847" stroke="#134A85" stroke-width="2.34375" stroke-miterlimit="10" stroke-linecap="round" stroke-linejoin="round"/>
<path d="M19.0625 10.9763C21.2305 9.46459 24.043 8.51538 27.582 8.39819C29.6445 8.32788 31.4141 9.06616 32.9258 10.0388C35.6914 11.8201 39.3242 11.8318 42.1016 10.0388C43.5898 9.07788 45.3359 8.35131 47.3633 8.39819C55.5078 8.66772 59.7969 13.3435 61.3672 19.0857C61.3789 19.1326 61.3906 19.156 61.4023 19.2029" stroke="#134A85" stroke-width="2.34375" stroke-miterlimit="10" stroke-linecap="round" stroke-linejoin="round"/>
<path d="M22.4502 56.7847C22.4619 57.0776 22.4736 57.3589 22.4854 57.6636C22.7783 68.9019 31.5088 67.5542 31.5088 67.5542C31.5088 67.5542 29.5166 62.9956 30.7705 56.0464C32.2236 47.9956 36.3721 46.5425 37.4736 46.3081C38.5752 46.5425 42.7236 47.9956 44.1768 56.0464C45.4307 62.9956 43.4502 67.5542 43.4502 67.5542C43.4502 67.5542 52.1807 68.9019 52.4619 57.6636C52.6494 50.3042 53.6807 46.8003 55.7783 42.5815" stroke="#134A85" stroke-width="2.34375" stroke-miterlimit="10" stroke-linecap="round" stroke-linejoin="round"/>
<path d="M72.3945 25.4253C72.3945 28.4487 69.9453 30.9097 66.9102 30.9097C66.4414 30.9097 65.9844 30.8511 65.5391 30.7222C64.9414 31.8589 64.0977 32.8315 63.0781 33.5933C64.2383 34.6362 64.9766 36.1714 64.9766 37.8706C64.9766 41.0815 62.375 43.6831 59.1641 43.6831C56.1055 43.6831 53.5977 41.3159 53.375 38.3276C53.0703 38.3745 52.7422 38.3862 52.4141 38.3862C48.8281 38.3862 45.9219 35.4917 45.9219 31.9058C45.9219 29.2339 47.5391 26.9487 49.8477 25.9644C50.0352 24.2769 50.7148 22.7534 51.7461 21.5347C51.125 20.855 50.7383 19.9526 50.7383 18.9683C50.7383 16.8472 52.4492 15.1362 54.5703 15.1362C56.5508 15.1362 58.168 16.6245 58.3672 18.5464C60.5117 18.605 62.4336 19.4605 63.875 20.8433C64.7422 20.269 65.7852 19.9292 66.8984 19.9292C69.9453 19.9409 72.3945 22.4019 72.3945 25.4253Z" stroke="#134A85" stroke-width="2.34375" stroke-miterlimit="10" stroke-linecap="round" stroke-linejoin="round"/>
<path d="M27.5117 51.1602C27.7109 51.6406 27.8164 52.1797 27.8164 52.7305C27.8164 55.0508 25.9297 56.9375 23.5977 56.9375C21.6055 56.9375 19.9414 55.5664 19.4961 53.7148C18.6758 54.2305 17.7031 54.5352 16.6602 54.5352C13.6953 54.5352 11.2812 52.1211 11.2812 49.1563C11.2812 46.1914 13.6836 43.7773 16.6602 43.7773C16.9414 43.7773 17.2344 43.8008 17.4922 43.8477C17.9727 42.043 19.6133 40.7188 21.5703 40.7188C23.7969 40.7188 25.6133 42.4414 25.7656 44.6211C26.0586 44.5391 26.375 44.4922 26.7031 44.4922C28.5781 44.4922 30.0781 46.0039 30.0781 47.8672C30.0898 49.4727 29 50.7969 27.5117 51.1602Z" stroke="#134A85" stroke-width="2.34375" stroke-miterlimit="10" stroke-linecap="round" stroke-linejoin="round"/>
<path d="M25.9414 21.0077C24.8867 23.8671 21.7227 25.3202 18.875 24.2772C18.5938 24.1718 18.3359 24.0546 18.0898 23.9022C16.9883 25.4725 14.9492 26.1757 13.0625 25.4725C12.0664 25.1093 11.293 24.4179 10.8125 23.5741C10.1328 24.7108 8.90234 25.4608 7.49609 25.4608C5.35156 25.4608 3.61719 23.7147 3.61719 21.5819C3.61719 19.496 5.26953 17.8085 7.33203 17.7147C7.13281 17.0468 7.15625 16.3085 7.41406 15.5936C7.96484 14.0585 9.48828 13.1561 11.0469 13.3319C11.0234 12.7929 11.1172 12.2538 11.3164 11.7147C12.1367 9.48817 14.6328 8.33974 16.8594 9.16005C18.7695 9.86318 19.8828 11.7733 19.6602 13.7186C20.6328 13.5077 21.6641 13.5663 22.6719 13.9296C25.5313 14.9843 26.9961 18.1483 25.9414 21.0077Z" stroke="#134A85" stroke-width="2.34375" stroke-miterlimit="10" stroke-linecap="round" stroke-linejoin="round"/>
</svg>
