<svg width="76" height="76" viewBox="0 0 76 76" fill="none" xmlns="http://www.w3.org/2000/svg">
<path d="M68.2813 27.9685H68.1289L69.4531 27.3475C70.1074 27.0533 70.68 26.6039 71.1211 26.0382C71.5622 25.4725 71.8586 24.8076 71.9844 24.1014C72.1057 23.4454 72.0657 22.7697 71.8678 22.1327C71.6699 21.4956 71.32 20.9162 70.8483 20.4445C70.3765 19.9728 69.7972 19.6229 69.1601 19.425C68.523 19.227 67.8474 19.187 67.1914 19.3084C66.4953 19.4318 65.8391 19.7209 65.2782 20.1512C64.7173 20.5816 64.2681 21.1406 63.9687 21.781L60.4531 29.2928C60.3489 29.5123 60.3154 29.7587 60.3574 29.9981C60.3994 30.2374 60.5147 30.4578 60.6875 30.6287C60.8882 30.829 61.1546 30.9497 61.4375 30.9685C61.6108 30.9673 61.7821 30.9315 61.9414 30.8631L64.4141 29.6912L67.9297 30.2889C68.4556 30.3889 68.9518 30.6076 69.3803 30.9285C69.8088 31.2494 70.1584 31.6639 70.4023 32.1404H65.4453C64.0495 32.1401 62.6994 32.6381 61.6381 33.5447C60.5768 34.4513 59.874 35.707 59.6562 37.0857L56.9961 53.9725C56.645 56.1044 55.5319 58.0363 53.8637 59.4093C52.1954 60.7823 50.0854 61.5029 47.9258 61.4373C46.1722 61.346 44.4805 60.7591 43.0471 59.7447C41.6137 58.7304 40.4975 57.3302 39.8281 55.7068L39.0781 53.949C38.9884 53.7372 38.8383 53.5565 38.6466 53.4294C38.4549 53.3022 38.23 53.2344 38 53.2342C37.77 53.2344 37.5451 53.3022 37.3534 53.4294C37.1617 53.5565 37.0116 53.7372 36.9219 53.949L36.0195 56.0467C35.2595 57.8207 33.9437 59.2998 32.2703 60.2613C30.597 61.2229 28.6565 61.6149 26.7411 61.3783C24.8257 61.1416 23.039 60.2892 21.6499 58.9494C20.2608 57.6095 19.3446 55.8547 19.0391 53.949L16.3555 37.074C16.1352 35.6974 15.4313 34.4445 14.3703 33.5402C13.3092 32.636 11.9605 32.1396 10.5664 32.1404H5.59766C5.84632 31.6583 6.20316 31.2403 6.64025 30.9191C7.07735 30.5979 7.58285 30.3822 8.11719 30.2889L11.6328 29.6912L14.1055 30.8631C14.2502 30.9256 14.405 30.9614 14.5625 30.9685C14.7167 30.9694 14.8696 30.9399 15.0124 30.8816C15.1552 30.8232 15.285 30.7373 15.3945 30.6287C15.5673 30.4578 15.6826 30.2374 15.7246 29.9981C15.7666 29.7587 15.7332 29.5123 15.6289 29.2928L12.1133 21.781C11.8139 21.1406 11.3648 20.5816 10.8039 20.1512C10.243 19.7209 9.58676 19.4318 8.89062 19.3084C8.23465 19.187 7.559 19.227 6.92192 19.425C6.28485 19.6229 5.70548 19.9728 5.23376 20.4445C4.76205 20.9162 4.41214 21.4956 4.21422 22.1327C4.01629 22.7697 3.97629 23.4454 4.09766 24.1014C4.22104 24.7975 4.51012 25.4537 4.94048 26.0146C5.37084 26.5755 5.92986 27.0246 6.57031 27.324L7.89453 27.9451H7.74219C6.45542 28.154 5.27504 28.7859 4.38783 29.7411C3.50063 30.6962 2.95727 31.9199 2.84375 33.2185C2.84375 33.3826 2.84375 33.5701 2.84375 33.7576V67.2967C2.84375 68.2291 3.21415 69.1233 3.87345 69.7826C4.53276 70.4419 5.42697 70.8123 6.35938 70.8123H69.6406C70.573 70.8123 71.4672 70.4419 72.1265 69.7826C72.7859 69.1233 73.1562 68.2291 73.1562 67.2967V33.7576C73.1562 33.5701 73.1562 33.3826 73.1562 33.1951C73.034 31.9082 72.4897 30.6978 71.6079 29.7525C70.7262 28.8071 69.5566 28.1799 68.2813 27.9685ZM66.0312 22.7654C66.1663 22.4622 66.3736 22.1968 66.6352 21.9925C66.8967 21.7882 67.2044 21.6512 67.5313 21.5935H67.8711C68.1042 21.5895 68.3357 21.6332 68.5513 21.7219C68.7669 21.8105 68.9622 21.9423 69.125 22.1092C69.3342 22.3128 69.4905 22.5644 69.5804 22.8421C69.6702 23.1199 69.6909 23.4154 69.6406 23.7029C69.583 24.0298 69.446 24.3375 69.2417 24.599C69.0374 24.8605 68.7719 25.0679 68.4688 25.2029L63.8984 27.3475L66.0312 22.7654ZM6.35938 23.7029C6.30464 23.4182 6.31976 23.1245 6.40345 22.8469C6.48713 22.5693 6.63687 22.3162 6.83984 22.1092C7.00674 21.9379 7.20769 21.8035 7.42972 21.7147C7.65175 21.6259 7.88994 21.5846 8.12891 21.5935H8.46875C8.7956 21.6512 9.1033 21.7882 9.36483 21.9925C9.62637 22.1968 9.83375 22.4622 9.96875 22.7654L12.1133 27.3357L7.53125 25.2029C7.22806 25.0679 6.96265 24.8605 6.75832 24.599C6.554 24.3375 6.41701 24.0298 6.35938 23.7029ZM69.6406 68.4685H6.35938C6.04857 68.4685 5.7505 68.3451 5.53073 68.1253C5.31097 67.9055 5.1875 67.6075 5.1875 67.2967V34.4842H9.875V36.8279H7.53125V39.1717H11.0469C11.3577 39.1717 11.6557 39.0482 11.8755 38.8284C12.0953 38.6087 12.2188 38.3106 12.2188 37.9998V34.9178C12.6957 35.1717 13.1076 35.5322 13.4227 35.9712C13.7377 36.4102 13.9473 36.9159 14.0352 37.449L15.0547 43.8592H11.7734L10.918 42.16C10.8206 41.9667 10.6716 41.8042 10.4875 41.6904C10.3034 41.5766 10.0914 41.5161 9.875 41.5154H7.53125V43.8592H9.14844L10.0039 45.5584C10.1013 45.7517 10.2503 45.9142 10.4344 46.0279C10.6185 46.1417 10.8305 46.2023 11.0469 46.2029H15.4297L15.9922 49.7185H12.2188C12.0023 49.7192 11.7903 49.7798 11.6063 49.8935C11.4222 50.0073 11.2732 50.1698 11.1758 50.3631L10.3203 52.0623H7.53125V54.406H11.0469C11.2633 54.4054 11.4753 54.3448 11.6594 54.2311C11.8435 54.1173 11.9925 53.9548 12.0898 53.7615L12.9453 52.0623H16.3672L16.7188 54.324C16.8619 55.155 17.0937 55.9682 17.4102 56.7498H14.5625C14.2517 56.7498 13.9536 56.8733 13.7339 57.093C13.5141 57.3128 13.3906 57.6109 13.3906 57.9217V61.4373H15.7344V59.0935H18.6875C19.3877 60.0729 20.2426 60.9318 21.2188 61.6365L19.7891 63.781H18.0781V66.1248H20.4219C20.6149 66.1238 20.8047 66.0751 20.9744 65.9831C21.144 65.8911 21.2884 65.7587 21.3945 65.5975L23.2578 62.8084C24.2197 63.2361 25.2378 63.5242 26.2812 63.6639V66.1248H28.625V63.781C29.7122 63.7103 30.7826 63.4772 31.8008 63.0896L33.5117 65.656C33.6244 65.8064 33.7716 65.9275 33.9408 66.0091C34.1101 66.0907 34.2965 66.1304 34.4844 66.1248H36.8281V63.781H35.1172L33.9453 61.9881H34.0625C35.7777 60.8287 37.1401 59.219 38 57.3357C38.9435 59.2014 40.3572 60.7888 42.1016 61.9412L40.9297 63.781H39.1719V66.1248H41.5156C41.7086 66.1238 41.8984 66.0751 42.0681 65.9831C42.2378 65.8911 42.3821 65.7587 42.4883 65.5975L44.2227 63.0076C45.2282 63.4237 46.2911 63.6845 47.375 63.781V66.1248H49.7188V63.6639C50.761 63.5251 51.7787 63.2411 52.7422 62.8201L54.6055 65.5975C54.7116 65.7587 54.856 65.8911 55.0256 65.9831C55.1953 66.0751 55.3851 66.1238 55.5781 66.1248H57.9219V63.781H56.2109L54.7812 61.6482C55.0254 61.4817 55.2602 61.3018 55.4844 61.1092C56.1782 60.5156 56.7962 59.8386 57.3242 59.0935H60.2656V61.4373H62.6094V57.9217C62.6094 57.6109 62.4859 57.3128 62.2661 57.093C62.0464 56.8733 61.7483 56.7498 61.4375 56.7498H58.625C58.9382 55.9954 59.1699 55.2097 59.3164 54.406L59.668 52.0623H63.0547L63.9102 53.7615C64.0075 53.9548 64.1565 54.1173 64.3406 54.2311C64.5247 54.3448 64.7367 54.4054 64.9531 54.406H68.4688V52.0623H65.6797L64.8242 50.3631C64.7268 50.1698 64.5778 50.0073 64.3938 49.8935C64.2097 49.7798 63.9977 49.7192 63.7812 49.7185H60.043L60.5937 46.2029H64.9531C65.1695 46.2023 65.3815 46.1417 65.5656 46.0279C65.7497 45.9142 65.8987 45.7517 65.9961 45.5584L66.8516 43.8592H68.4688V41.5154H66.125C65.9086 41.5161 65.6966 41.5766 65.5125 41.6904C65.3284 41.8042 65.1794 41.9667 65.082 42.16L64.2266 43.8592H60.9687L61.9766 37.449C62.0615 36.9149 62.2685 36.4076 62.5815 35.9665C62.8946 35.5254 63.3051 35.1625 63.7812 34.906V37.9998C63.7812 38.3106 63.9047 38.6087 64.1245 38.8284C64.3443 39.0482 64.6423 39.1717 64.9531 39.1717H68.4688V36.8279H66.125V34.4842H70.8125V67.2967C70.8125 67.6075 70.689 67.9055 70.4693 68.1253C70.2495 68.3451 69.9514 68.4685 69.6406 68.4685Z" fill="#134A85"/>
<path d="M49.2845 5.18709H48.3001C45.217 5.18661 42.1622 5.77529 39.3001 6.92146C38.4648 7.25412 37.5338 7.25412 36.6985 6.92146C33.8364 5.77529 30.7816 5.18661 27.6985 5.18709H26.7142C23.4193 5.13679 20.2249 6.32109 17.7592 8.50707C15.2935 10.693 13.7349 13.7225 13.3899 16.9996C13.2191 19.0336 13.5338 21.079 14.308 22.9676C15.0822 24.8562 16.2938 26.534 17.8431 27.8629L21.2415 53.0582C21.3461 54.6996 22.0743 56.2389 23.2769 57.3609C24.4795 58.4828 26.0656 59.1026 27.7103 59.0933C28.42 59.0899 29.1245 58.9712 29.7962 58.7418C30.8132 58.3542 31.7148 57.714 32.4159 56.8816C33.1171 56.0492 33.5948 55.052 33.804 53.984L37.7649 35.8433C37.7808 35.7937 37.8121 35.7503 37.8542 35.7196C37.8964 35.6888 37.9472 35.6723 37.9993 35.6723C38.0515 35.6723 38.1023 35.6888 38.1444 35.7196C38.1865 35.7503 38.2178 35.7937 38.2337 35.8433L42.1595 53.984C42.372 55.0559 42.8549 56.0557 43.5625 56.8884C44.2701 57.7211 45.1789 58.3591 46.2024 58.7418C46.8853 58.975 47.602 59.0938 48.3235 59.0933C49.9465 59.0947 51.5098 58.4815 52.699 57.3771C53.8883 56.2726 54.6152 54.7589 54.7337 53.1402L58.1438 27.8629C59.6953 26.5352 60.9091 24.8579 61.6854 22.9693C62.4616 21.0806 62.7781 19.0345 62.6087 16.9996C62.2638 13.7225 60.7052 10.693 58.2394 8.50707C55.7737 6.32109 52.5793 5.13679 49.2845 5.18709ZM56.3157 26.2808C56.0825 26.4711 55.9314 26.7439 55.8939 27.0426L52.3782 52.8238C52.3301 53.8779 51.8788 54.8731 51.1176 55.6038C50.3564 56.3345 49.3435 56.7447 48.2884 56.7496C47.8303 56.7461 47.3756 56.6709 46.9407 56.5269C46.3021 56.2731 45.7382 55.8617 45.3017 55.3309C44.8652 54.8001 44.5703 54.1674 44.4446 53.4918L40.5188 35.3629C40.394 34.7874 40.076 34.272 39.6176 33.9024C39.1592 33.5328 38.5881 33.3313 37.9993 33.3313C37.4105 33.3313 36.8394 33.5328 36.381 33.9024C35.9227 34.272 35.6046 34.7874 35.4798 35.3629L31.554 53.4918C31.4283 54.1674 31.1334 54.8001 30.6969 55.3309C30.2604 55.8617 29.6965 56.2731 29.0579 56.5269C28.623 56.6709 28.1683 56.7461 27.7103 56.7496C26.656 56.7418 25.6447 56.3307 24.8841 55.6006C24.1235 54.8705 23.6713 53.8769 23.6204 52.8238L20.1048 27.0426C20.0672 26.7439 19.9162 26.4711 19.6829 26.2808C18.3297 25.2048 17.2618 23.8127 16.5732 22.2269C15.8845 20.6412 15.5962 18.9104 15.7337 17.1871C16.0286 14.4975 17.3188 12.0155 19.3506 10.2287C21.3824 8.44193 24.009 7.47961 26.7142 7.53084H27.6985C30.4801 7.52885 33.2364 8.05785 35.8196 9.08943C37.2187 9.65011 38.78 9.65011 40.179 9.08943C42.7622 8.05785 45.5186 7.52885 48.3001 7.53084H49.2845C51.9897 7.47961 54.6163 8.44193 56.6481 10.2287C58.6799 12.0155 59.97 14.4975 60.2649 17.1871C60.397 18.9145 60.1014 20.6478 59.4045 22.2338C58.7075 23.8199 57.6306 25.2098 56.2689 26.2808H56.3157Z" fill="#134A85"/>
</svg>
