<svg width="75" height="75" viewBox="0 0 75 75" fill="none" xmlns="http://www.w3.org/2000/svg">
<path d="M13.8867 44.8295C13.971 44.9362 14.0333 45.0586 14.0699 45.1896C14.1065 45.3206 14.1167 45.4575 14.0998 45.5925C14.083 45.7275 14.0394 45.8577 13.9717 45.9757C13.904 46.0937 13.8136 46.197 13.7055 46.2797C13.5975 46.3623 13.4742 46.4227 13.3426 46.4572C13.211 46.4917 13.0739 46.4998 12.9393 46.4808C12.8046 46.4618 12.675 46.4162 12.5581 46.3467C12.4412 46.2771 12.3393 46.185 12.2584 46.0758C11.6004 45.2156 10.9957 44.4515 10.4109 43.7396C10.2519 43.5285 10.1806 43.2641 10.2118 43.0017C10.243 42.7392 10.3743 42.4989 10.5784 42.331C10.7825 42.163 11.0435 42.0804 11.3071 42.1002C11.5706 42.1201 11.8163 42.241 11.9929 42.4377C12.5976 43.1677 13.2152 43.95 13.8867 44.8295ZM5.54352 35.7527C7.15836 34.5527 9.23493 32.417 11.7123 29.8681C18.9949 22.3752 30 11.0531 36.8185 17.114C37.0064 17.2808 37.2488 17.3728 37.5 17.3728C37.7511 17.3728 37.9936 17.2808 38.1814 17.114C44.1263 11.8295 53.1023 19.4443 61.9172 28.4601C62.0107 28.5588 62.1229 28.6379 62.2473 28.6928C62.3717 28.7476 62.5057 28.7772 62.6416 28.7798C62.7776 28.7823 62.9126 28.7578 63.039 28.7077C63.1654 28.6575 63.2805 28.5828 63.3777 28.4877C63.4748 28.3926 63.5521 28.2791 63.605 28.1539C63.6579 28.0287 63.6854 27.8942 63.6858 27.7582C63.6862 27.6223 63.6595 27.4876 63.6074 27.362C63.5552 27.2365 63.4786 27.1226 63.382 27.0269C57.1494 20.6496 45.6925 8.932 37.5 15.0257C29.2593 8.87341 17.8558 20.6045 10.241 28.4384C7.42379 31.3371 4.76247 34.0752 3.38961 34.6886C3.23045 34.7599 3.09209 34.8706 2.98761 35.0102C2.88313 35.1498 2.81599 35.3138 2.79253 35.4866C2.76906 35.6594 2.79006 35.8353 2.85353 35.9977C2.91699 36.1601 3.02084 36.3037 3.15524 36.4148C4.849 37.8137 6.4504 39.3207 7.94938 40.9265C8.13508 41.1252 8.3921 41.242 8.6639 41.2512C8.9357 41.2603 9.20002 41.1612 9.3987 40.9755C9.59738 40.7898 9.71415 40.5327 9.72332 40.2609C9.7325 39.9891 9.63333 39.7248 9.44762 39.5261C8.21178 38.2023 6.90869 36.9428 5.54352 35.7527ZM71.8441 36.4154C69.5118 38.3428 67.3539 40.472 65.3953 42.7781C65.8893 43.6466 66.2776 44.5712 66.5519 45.532C66.6262 45.7936 66.5935 46.074 66.461 46.3115C66.3286 46.5491 66.1072 46.7242 65.8456 46.7985C65.584 46.8728 65.3035 46.8401 65.066 46.7076C64.8285 46.5752 64.6533 46.3538 64.5791 46.0922C63.8609 43.5671 62.2347 41.3967 60.013 39.9983C57.7913 38.5999 55.131 38.0723 52.5438 38.5168C49.9565 38.9614 47.625 40.3467 45.9975 42.4065C44.3699 44.4662 43.5614 47.055 43.7272 49.6749C43.8931 52.2948 45.0217 54.7609 46.896 56.5989C48.7703 58.437 51.258 59.5172 53.8806 59.6319C56.5033 59.7466 59.0757 58.8876 61.1033 57.2202C63.1309 55.5528 64.4705 53.1946 64.8644 50.5992C64.8828 50.4646 64.9277 50.3351 64.9965 50.218C65.0654 50.101 65.1568 49.9988 65.2655 49.9174C65.3741 49.8359 65.4979 49.7769 65.6295 49.7437C65.7612 49.7104 65.8982 49.7037 66.0324 49.7238C66.1667 49.744 66.2957 49.7906 66.4118 49.861C66.5279 49.9314 66.6289 50.0241 66.7089 50.1338C66.7889 50.2435 66.8463 50.3681 66.8778 50.5002C66.9093 50.6322 66.9142 50.7693 66.8923 50.9033C66.4242 53.8993 64.9044 56.6306 62.6052 58.6077C60.3061 60.5849 57.378 61.6785 54.3457 61.6927C51.9607 61.6945 49.6242 61.0198 47.6074 59.7468C44.3643 60.933 40.9516 61.5902 37.5 61.6933C37.0963 61.6933 27.532 61.6289 20.7345 56.0215C18.432 54.0013 16.3783 51.7141 14.6168 49.2082C14.4531 48.9906 14.3826 48.717 14.4207 48.4474C14.4589 48.1779 14.6025 47.9345 14.8201 47.7709C15.0376 47.6072 15.3113 47.5367 15.5808 47.5749C15.8504 47.613 16.0938 47.7566 16.2574 47.9742C17.924 50.3499 19.8656 52.5202 22.0418 54.44C28.275 59.5828 37.4086 59.6425 37.5 59.6425C40.2724 59.5479 43.0192 59.0784 45.6656 58.2468C44.1805 56.8533 43.0518 55.1236 42.3744 53.2031C40.7877 53.65 39.1483 53.8825 37.5 53.8945C24.2214 53.8945 13.7619 38.5664 13.323 37.9142C13.2093 37.745 13.1486 37.5457 13.1486 37.3418C13.1486 37.1379 13.2093 36.9386 13.323 36.7693C13.7619 36.1172 24.2214 20.789 37.5 20.789C50.7785 20.789 61.2381 36.1172 61.6769 36.7693C61.7908 36.9386 61.8516 37.138 61.8516 37.3421C61.8516 37.5461 61.7908 37.7455 61.6769 37.9148C61.6681 37.9271 61.5433 38.1117 61.3189 38.4246C62.408 39.141 63.3813 40.0195 64.2052 41.0297C65.8303 39.1519 67.5844 37.3898 69.4547 35.7562C68.1872 34.755 66.9896 33.6683 65.8705 32.5037C65.7753 32.4085 65.6997 32.2954 65.6482 32.171C65.5966 32.0466 65.5701 31.9132 65.5701 31.7786C65.5701 31.6439 65.5966 31.5106 65.6482 31.3862C65.6997 31.2617 65.7753 31.1487 65.8705 31.0535C66.0628 30.8612 66.3236 30.7531 66.5956 30.7531C66.7302 30.7531 66.8636 30.7797 66.988 30.8312C67.1124 30.8827 67.2254 30.9583 67.3207 31.0535C68.7685 32.5019 70.5656 34.2246 71.6103 34.691C71.7696 34.7622 71.9081 34.8729 72.0126 35.0126C72.1172 35.1522 72.1844 35.3163 72.2079 35.4892C72.2313 35.6621 72.2103 35.8381 72.1467 36.0006C72.0832 36.1631 71.9792 36.3066 71.8447 36.4177L71.8441 36.4154ZM48.7441 26.7328C47.4511 25.8603 46.0846 25.102 44.6601 24.4664V30.0181C44.6601 30.2124 44.7373 30.3987 44.8746 30.536C45.012 30.6734 45.1983 30.7506 45.3925 30.7506H48.0117C48.2059 30.7506 48.3922 30.6734 48.5296 30.536C48.6669 30.3987 48.7441 30.2124 48.7441 30.0181V26.7328ZM42.6093 23.6818C41.2858 23.248 39.9144 22.977 38.5254 22.875V30.0181C38.5255 30.2123 38.6027 30.3985 38.74 30.5359C38.8774 30.6732 39.0636 30.7504 39.2578 30.7506H41.8769C42.0711 30.7504 42.2573 30.6732 42.3946 30.5359C42.532 30.3985 42.6092 30.2123 42.6093 30.0181V23.6818ZM36.4746 22.875C35.0856 22.9764 33.7142 23.2468 32.3906 23.68V30.0181C32.3907 30.2123 32.468 30.3985 32.6053 30.5359C32.7426 30.6732 32.9288 30.7504 33.123 30.7506H35.7422C35.9364 30.7504 36.1226 30.6732 36.2599 30.5359C36.3972 30.3985 36.4744 30.2123 36.4746 30.0181V22.875ZM30.3398 24.4634C28.9153 25.0982 27.5488 25.856 26.2558 26.7281V30.0181C26.2558 30.2124 26.333 30.3987 26.4703 30.536C26.6077 30.6734 26.794 30.7506 26.9882 30.7506H29.6074C29.8016 30.7506 29.9879 30.6734 30.1253 30.536C30.2626 30.3987 30.3398 30.2124 30.3398 30.0181V24.4634ZM24.205 28.2181C23.1504 29.0384 22.1701 29.898 21.2672 30.7506H23.4726C23.6668 30.7504 23.853 30.6732 23.9904 30.5359C24.1277 30.3985 24.2049 30.2123 24.205 30.0181V28.2181ZM50.7949 30.0181C50.795 30.2123 50.8723 30.3985 51.0096 30.5359C51.1469 30.6732 51.3331 30.7504 51.5273 30.7506H53.7269C52.8257 29.8998 51.8443 29.0443 50.7972 28.224L50.7949 30.0181ZM41.8552 51.2191C41.3186 48.2266 41.8804 45.141 43.4373 42.5297C35.7029 41.731 27.4963 42.5297 21.992 44.6009C26.056 48.2689 31.5381 51.8437 37.5 51.8437C38.9732 51.8318 40.4381 51.6217 41.8552 51.2191ZM54.3457 36.317C56.1255 36.3197 57.8845 36.6991 59.5072 37.4302L59.5687 37.3459C58.3025 35.6355 56.9288 34.0075 55.456 32.4715C55.0518 32.6894 54.5998 32.8033 54.1406 32.8031H51.5273C50.8841 32.8001 50.2622 32.5721 49.7695 32.1586C49.2768 32.5721 48.6549 32.8001 48.0117 32.8031H45.3925C44.7493 32.8001 44.1274 32.5721 43.6347 32.1586C43.142 32.5721 42.5201 32.8001 41.8769 32.8031H39.2578C38.6145 32.8001 37.9926 32.5721 37.5 32.1586C37.0073 32.5721 36.3854 32.8001 35.7422 32.8031H33.123C32.4798 32.8001 31.8579 32.5721 31.3652 32.1586C30.8725 32.5721 30.2506 32.8001 29.6074 32.8031H26.9882C26.345 32.8001 25.7231 32.5721 25.2304 32.1586C24.7377 32.5721 24.1158 32.8001 23.4726 32.8031H20.8535C20.3952 32.8017 19.9445 32.6867 19.5416 32.4685C18.0699 34.0046 16.6974 35.6327 15.4324 37.3429C16.9304 39.3658 18.5778 41.2737 20.3607 43.0506C26.4158 40.4976 36.0463 39.539 44.8265 40.6312C46.0147 39.276 47.4785 38.19 49.1201 37.446C50.7618 36.702 52.5433 36.3171 54.3457 36.317ZM18.6621 25.0125C17.9554 25.6752 17.2611 26.3466 16.5849 27.014C16.4889 27.1086 16.4124 27.2212 16.3599 27.3454C16.3074 27.4695 16.2799 27.6028 16.2789 27.7376C16.2768 28.0099 16.383 28.2718 16.5741 28.4657C16.7652 28.6596 17.0254 28.7697 17.2977 28.7718C17.5699 28.7738 17.8318 28.6676 18.0257 28.4765C18.6902 27.8215 19.3734 27.1611 20.066 26.5107C20.2616 26.324 20.3755 26.0676 20.383 25.7974C20.3905 25.5271 20.2909 25.2648 20.106 25.0676C19.921 24.8703 19.6657 24.7541 19.3955 24.7442C19.1253 24.7344 18.8621 24.8316 18.6632 25.0148L18.6621 25.0125ZM59.707 50.1767V50.0302H57.8589C57.7851 50.2856 57.6833 50.532 57.5554 50.765L58.8632 52.0728L58.967 51.9691C59.1592 51.7769 59.4199 51.6689 59.6918 51.6689C59.9636 51.6689 60.2243 51.7769 60.4166 51.9691C60.6088 52.1613 60.7168 52.4221 60.7168 52.6939C60.7168 52.9658 60.6088 53.2265 60.4166 53.4187L58.7595 55.0781C58.6649 55.176 58.5518 55.2541 58.4267 55.3078C58.3015 55.3615 58.167 55.3898 58.0308 55.3909C57.8947 55.3921 57.7597 55.3661 57.6337 55.3146C57.5077 55.263 57.3932 55.1868 57.2969 55.0905C57.2007 54.9942 57.1246 54.8797 57.073 54.7537C57.0215 54.6277 56.9956 54.4926 56.9968 54.3565C56.998 54.2203 57.0263 54.0858 57.0801 53.9607C57.1338 53.8356 57.212 53.7225 57.3099 53.6279L57.4131 53.5242L56.1058 52.2164C55.8728 52.3442 55.6264 52.446 55.3711 52.5199V54.3703H55.5175C55.7895 54.3703 56.0503 54.4783 56.2426 54.6706C56.4349 54.8629 56.5429 55.1237 56.5429 55.3957C56.5429 55.6676 56.4349 55.9284 56.2426 56.1207C56.0503 56.313 55.7895 56.4211 55.5175 56.4211H53.1738C52.9018 56.4211 52.641 56.313 52.4487 56.1207C52.2564 55.9284 52.1484 55.6676 52.1484 55.3957C52.1484 55.1237 52.2564 54.8629 52.4487 54.6706C52.641 54.4783 52.9018 54.3703 53.1738 54.3703H53.3203V52.5181C53.065 52.4442 52.8186 52.3424 52.5855 52.2146L51.2783 53.5224L51.3814 53.6261C51.574 53.8184 51.6822 54.0792 51.6825 54.3513C51.6827 54.6234 51.5748 54.8844 51.3826 55.0769C51.1904 55.2695 50.9295 55.3778 50.6574 55.378C50.3854 55.3782 50.1243 55.2703 49.9318 55.0781L48.2748 53.4205C48.0825 53.2282 47.9745 52.9675 47.9745 52.6957C47.9745 52.4238 48.0825 52.1631 48.2748 51.9709C48.467 51.7786 48.7277 51.6706 48.9996 51.6706C49.2714 51.6706 49.5321 51.7786 49.7244 51.9709L49.8281 52.0746L51.1359 50.7668C51.008 50.5338 50.9062 50.2873 50.8324 50.032H48.9843V50.1785C48.9843 50.4504 48.8763 50.7112 48.684 50.9035C48.4917 51.0958 48.2309 51.2039 47.9589 51.2039C47.687 51.2039 47.4262 51.0958 47.2339 50.9035C47.0416 50.7112 46.9336 50.4504 46.9336 50.1785V47.8347C46.9336 47.5628 47.0416 47.302 47.2339 47.1097C47.4262 46.9174 47.687 46.8093 47.9589 46.8093C48.2309 46.8093 48.4917 46.9174 48.684 47.1097C48.8763 47.302 48.9843 47.5628 48.9843 47.8347V47.9812H50.8341C50.9083 47.726 51.0101 47.4796 51.1377 47.2465L49.8281 45.9375L49.7244 46.0412C49.5319 46.2334 49.271 46.3413 48.999 46.3411C48.7269 46.341 48.4661 46.2328 48.2739 46.0403C48.0817 45.8478 47.9738 45.5869 47.9739 45.3149C47.9741 45.0429 48.0823 44.782 48.2748 44.5898L49.1015 43.7631L49.9295 42.9351C50.1229 42.7484 50.3819 42.6451 50.6508 42.6475C50.9196 42.6499 51.1768 42.7578 51.3669 42.9479C51.5569 43.1381 51.6647 43.3953 51.667 43.6641C51.6693 43.933 51.5659 44.192 51.3791 44.3853L51.2759 44.489L52.5838 45.7968C52.8173 45.6684 53.0643 45.5661 53.3203 45.4916V43.6412H53.1738C52.9018 43.6412 52.641 43.5331 52.4487 43.3408C52.2564 43.1486 52.1484 42.8877 52.1484 42.6158C52.1484 42.3438 52.2564 42.083 52.4487 41.8907C52.641 41.6984 52.9018 41.5904 53.1738 41.5904H55.5175C55.7895 41.5904 56.0503 41.6984 56.2426 41.8907C56.4349 42.083 56.5429 42.3438 56.5429 42.6158C56.5429 42.8877 56.4349 43.1486 56.2426 43.3408C56.0503 43.5331 55.7895 43.6412 55.5175 43.6412H55.3711V45.4916C55.6261 45.5657 55.8723 45.6674 56.1052 45.7951L57.4131 44.4873L57.3099 44.3836C57.1231 44.1902 57.0197 43.9312 57.022 43.6624C57.0243 43.3935 57.132 43.1363 57.3221 42.9461C57.5122 42.756 57.7694 42.6481 58.0382 42.6457C58.3071 42.6433 58.5661 42.7466 58.7595 42.9334L59.5875 43.7613L60.4154 44.5892C60.6022 44.7826 60.7056 45.0416 60.7033 45.3104C60.7011 45.5793 60.5933 45.8365 60.4032 46.0266C60.2131 46.2168 59.956 46.3247 59.6871 46.3271C59.4182 46.3295 59.1592 46.2262 58.9658 46.0394L58.8621 45.9357L57.5543 47.2429C57.6818 47.4761 57.7836 47.7225 57.8578 47.9777H59.707V47.8312C59.707 47.5593 59.815 47.2985 60.0073 47.1062C60.1996 46.9139 60.4604 46.8058 60.7324 46.8058C61.0043 46.8058 61.2651 46.9139 61.4574 47.1062C61.6497 47.2985 61.7578 47.5593 61.7578 47.8312V50.175C61.7578 50.4469 61.6497 50.7077 61.4574 50.9C61.2651 51.0923 61.0043 51.2004 60.7324 51.2004C60.4604 51.2004 60.1996 51.0923 60.0073 50.9C59.815 50.7077 59.707 50.4469 59.707 50.175V50.1767ZM54.3439 50.6162C54.6627 50.6165 54.9744 50.5223 55.2396 50.3455C55.5048 50.1686 55.7116 49.9171 55.8338 49.6227C55.9561 49.3283 55.9882 49.0043 55.9262 48.6916C55.8643 48.3789 55.7109 48.0916 55.4857 47.8661C55.2604 47.6406 54.9733 47.4869 54.6607 47.4246C54.3481 47.3623 54.024 47.3941 53.7294 47.516C53.4349 47.6379 53.1832 47.8444 53.006 48.1095C52.8289 48.3745 52.7343 48.6861 52.7343 49.0049C52.7346 49.4321 52.9045 49.8418 53.2066 50.1439C53.5087 50.446 53.9184 50.6159 54.3457 50.6162H54.3439Z" fill="#134A85"/>
</svg>
