<svg width="75" height="75" viewBox="0 0 75 75" fill="none" xmlns="http://www.w3.org/2000/svg">
<g clip-path="url(#clip0_3460_13809)">
<path d="M68.7897 63.6175L49.2194 44.4292C46.733 42.0411 45.2253 38.8125 44.9901 35.373C46.7856 33.7273 49.1328 32.8144 51.5684 32.8144C54.004 32.8144 56.3512 33.7273 58.1467 35.373C57.9132 38.7754 56.4328 41.972 53.9889 44.3507C53.7747 44.5761 53.6589 44.8772 53.6668 45.188C53.6747 45.4987 53.8057 45.7936 54.0311 46.0078C54.2564 46.2219 54.5576 46.3378 54.8683 46.3298C55.1791 46.3219 55.474 46.1909 55.6881 45.9656C57.873 43.7403 59.415 40.9653 60.1506 37.9347C61.227 39.6134 61.7052 41.6063 61.5078 43.5906C61.3104 45.5749 60.449 47.4345 59.0631 48.8683L58.6916 49.3523C58.502 49.5988 58.4181 49.9104 58.4583 50.2188C58.4986 50.5271 58.6596 50.8068 58.9061 50.9964C59.1525 51.186 59.4642 51.2699 59.7726 51.2297C60.0809 51.1895 60.3606 51.0284 60.5502 50.782L60.8748 50.3554C66.617 43.7999 62.901 36.8062 60.1365 34.0242C59.0111 32.8984 57.6749 32.0053 56.2042 31.396C54.7336 30.7867 53.1573 30.4731 51.5655 30.4731C49.9736 30.4731 48.3973 30.7867 46.9267 31.396C45.456 32.0053 44.1198 32.8984 42.9944 34.0242C40.2311 36.8062 36.5198 43.8011 42.2174 50.3062L61.1936 74.5523C61.3026 74.6914 61.4417 74.804 61.6004 74.8817C61.7591 74.9594 61.9333 75.0002 62.11 75.0011H62.1721C62.3611 74.992 62.5451 74.9373 62.7084 74.8416C62.8717 74.7458 63.0093 74.612 63.1096 74.4515L68.969 65.0765C69.11 64.8494 69.1691 64.5808 69.1365 64.3154C69.1039 64.05 68.9815 63.8038 68.7897 63.6175ZM62.0022 71.7902L44.0162 48.8109C42.6487 47.3787 41.8032 45.5278 41.6159 43.5565C41.4286 41.5852 41.9105 39.6082 42.9838 37.9441C43.7349 41.021 45.3134 43.8338 47.5483 46.0781L66.4764 64.6312L62.0022 71.7902Z" fill="#134A85"/>
<path d="M47.696 63.6526L41.1335 71.8101L36.664 64.6616L43.8733 58.078C43.987 57.9742 44.0791 57.8491 44.1443 57.7097C44.2096 57.5703 44.2468 57.4194 44.2538 57.2656C44.2607 57.1119 44.2373 56.9582 44.1849 56.8135C44.1325 56.6688 44.0521 56.5358 43.9483 56.4222C43.8445 56.3085 43.7194 56.2164 43.58 56.1511C43.4406 56.0859 43.2897 56.0487 43.1359 56.0417C42.9822 56.0348 42.8285 56.0582 42.6838 56.1106C42.5391 56.163 42.4061 56.2434 42.2925 56.3472L34.3624 63.5905C34.1602 63.7754 34.0292 64.0254 33.9922 64.2968C33.9552 64.5683 34.0144 64.8441 34.1597 65.0765L40.019 74.4515C40.1183 74.6106 40.2543 74.7435 40.4156 74.8391C40.5769 74.9348 40.7588 74.9903 40.946 75.0011H41.0163C41.1916 75.0009 41.3645 74.9615 41.5225 74.8856C41.6805 74.8098 41.8195 74.6995 41.9292 74.5628L49.5194 65.121C49.6971 64.8777 49.7743 64.5754 49.735 64.2767C49.6956 63.978 49.5428 63.706 49.3081 63.517C49.0735 63.3281 48.7751 63.2368 48.4749 63.262C48.1747 63.2873 47.8958 63.4272 47.696 63.6526Z" fill="#134A85"/>
<path d="M54.5854 39.7671C54.7351 39.4949 54.7706 39.1743 54.684 38.8758C54.5975 38.5774 54.3959 38.3256 54.1237 38.1757C53.3401 37.7403 52.4584 37.5117 51.5619 37.5117C50.6655 37.5117 49.7838 37.7403 49.0002 38.1757C48.7722 38.3013 48.5925 38.4991 48.4894 38.7381C48.3863 38.9771 48.3657 39.2436 48.4309 39.4956C48.496 39.7476 48.6432 39.9708 48.8492 40.1298C49.0552 40.2889 49.3083 40.3749 49.5686 40.3742C49.7663 40.3743 49.9607 40.3238 50.1334 40.2277C50.5695 39.9797 51.0626 39.8493 51.5643 39.8493C52.066 39.8493 52.559 39.9797 52.9952 40.2277C53.2672 40.3772 53.5874 40.4126 53.8855 40.3263C54.1836 40.2399 54.4353 40.0389 54.5854 39.7671Z" fill="#134A85"/>
<path d="M33.9844 70.313H11.7188C10.7864 70.313 9.89214 69.9426 9.23284 69.2833C8.57353 68.624 8.20313 67.7298 8.20313 66.7974V32.2118C8.20026 29.2198 9.14032 26.303 10.8898 23.8757C12.6392 21.4484 15.1091 19.6342 17.9484 18.6907C18.1819 18.613 18.3849 18.4637 18.5288 18.2641C18.6727 18.0645 18.7501 17.8247 18.75 17.5786V14.063H44.5313V17.5786C44.5312 17.8247 44.6086 18.0645 44.7525 18.2641C44.8963 18.4637 45.0994 18.613 45.3328 18.6907C47.451 19.4013 49.3733 20.5982 50.9456 22.1856C52.5178 23.7729 53.6964 25.7065 54.3867 27.8313C54.463 28.0669 54.6119 28.2723 54.8121 28.418C55.0124 28.5637 55.2536 28.6422 55.5012 28.6423C55.6236 28.6419 55.7453 28.6229 55.8621 28.586C56.0086 28.5386 56.1442 28.4628 56.2614 28.3629C56.3785 28.263 56.4748 28.141 56.5448 28.0039C56.6148 27.8667 56.657 27.7172 56.6692 27.5637C56.6814 27.4103 56.6632 27.2559 56.6156 27.1095C55.8561 24.7724 54.5889 22.6324 52.9048 20.8428C51.2208 19.0532 49.1616 17.6583 46.875 16.7583V14.063C47.8074 14.063 48.7016 13.6926 49.3609 13.0333C50.0202 12.374 50.3906 11.4798 50.3906 10.5474V3.51611C50.3906 2.58371 50.0202 1.6895 49.3609 1.03019C48.7016 0.370883 47.8074 0.000488281 46.875 0.000488281L16.4063 0.000488281C15.4739 0.000488281 14.5796 0.370883 13.9203 1.03019C13.261 1.6895 12.8906 2.58371 12.8906 3.51611V10.5474C12.8906 11.4798 13.261 12.374 13.9203 13.0333C14.5796 13.6926 15.4739 14.063 16.4063 14.063V16.7583C13.2963 17.9721 10.6255 20.0969 8.74353 22.8544C6.8616 25.6118 5.85633 28.8734 5.85938 32.2118V66.7974C5.86124 68.3508 6.47917 69.8401 7.57761 70.9385C8.67605 72.037 10.1653 72.6549 11.7188 72.6567H33.9844C34.2952 72.6567 34.5933 72.5333 34.813 72.3135C35.0328 72.0937 35.1563 71.7957 35.1563 71.4849C35.1563 71.1741 35.0328 70.876 34.813 70.6562C34.5933 70.4365 34.2952 70.313 33.9844 70.313ZM15.2344 10.5474V3.51611C15.2344 3.20531 15.3578 2.90724 15.5776 2.68747C15.7974 2.4677 16.0955 2.34424 16.4063 2.34424H46.875C47.1858 2.34424 47.4839 2.4677 47.7037 2.68747C47.9234 2.90724 48.0469 3.20531 48.0469 3.51611V10.5474C48.0469 10.8582 47.9234 11.1562 47.7037 11.376C47.4839 11.5958 47.1858 11.7192 46.875 11.7192H16.4063C16.0955 11.7192 15.7974 11.5958 15.5776 11.376C15.3578 11.1562 15.2344 10.8582 15.2344 10.5474Z" fill="#134A85"/>
<path d="M24.6104 29.2979H19.9229C19.6121 29.2979 19.314 29.4213 19.0942 29.6411C18.8744 29.8609 18.751 30.1589 18.751 30.4697V35.1572H14.0635C13.7527 35.1572 13.4546 35.2807 13.2348 35.5005C13.0151 35.7202 12.8916 36.0183 12.8916 36.3291V41.0166C12.8916 41.3274 13.0151 41.6255 13.2348 41.8452C13.4546 42.065 13.7527 42.1885 14.0635 42.1885H18.751V46.876C18.751 47.1868 18.8744 47.4848 19.0942 47.7046C19.314 47.9244 19.6121 48.0479 19.9229 48.0479H24.6104C24.9212 48.0479 25.2192 47.9244 25.439 47.7046C25.6588 47.4848 25.7822 47.1868 25.7822 46.876V42.1885H30.4697C30.7805 42.1885 31.0786 42.065 31.2984 41.8452C31.5181 41.6255 31.6416 41.3274 31.6416 41.0166V36.3291C31.6416 36.0183 31.5181 35.7202 31.2984 35.5005C31.0786 35.2807 30.7805 35.1572 30.4697 35.1572H25.7822V30.4697C25.7822 30.1589 25.6588 29.8609 25.439 29.6411C25.2192 29.4213 24.9212 29.2979 24.6104 29.2979ZM29.2979 37.501V39.8447H24.6104C24.2996 39.8447 24.0015 39.9682 23.7817 40.188C23.5619 40.4077 23.4385 40.7058 23.4385 41.0166V45.7041H21.0947V41.0166C21.0947 40.7058 20.9713 40.4077 20.7515 40.188C20.5317 39.9682 20.2337 39.8447 19.9229 39.8447H15.2354V37.501H19.9229C20.2337 37.501 20.5317 37.3775 20.7515 37.1577C20.9713 36.938 21.0947 36.6399 21.0947 36.3291V31.6416H23.4385V36.3291C23.4385 36.6399 23.5619 36.938 23.7817 37.1577C24.0015 37.3775 24.2996 37.501 24.6104 37.501H29.2979Z" fill="#134A85"/>
<path d="M32.8135 52.7354H16.4072C16.0964 52.7354 15.7984 52.8588 15.5786 53.0786C15.3588 53.2984 15.2354 53.5964 15.2354 53.9072C15.2354 54.218 15.3588 54.5161 15.5786 54.7359C15.7984 54.9556 16.0964 55.0791 16.4072 55.0791H32.8135C33.1243 55.0791 33.4223 54.9556 33.6421 54.7359C33.8619 54.5161 33.9854 54.218 33.9854 53.9072C33.9854 53.5964 33.8619 53.2984 33.6421 53.0786C33.4223 52.8588 33.1243 52.7354 32.8135 52.7354Z" fill="#134A85"/>
<path d="M14.0635 59.7666H32.8135C33.1243 59.7666 33.4223 59.6431 33.6421 59.4234C33.8619 59.2036 33.9854 58.9055 33.9854 58.5947C33.9854 58.2839 33.8619 57.9859 33.6421 57.7661C33.4223 57.5463 33.1243 57.4229 32.8135 57.4229H14.0635C13.7527 57.4229 13.4546 57.5463 13.2348 57.7661C13.0151 57.9859 12.8916 58.2839 12.8916 58.5947C12.8916 58.9055 13.0151 59.2036 13.2348 59.4234C13.4546 59.6431 13.7527 59.7666 14.0635 59.7666Z" fill="#134A85"/>
</g>
<defs>
<clipPath id="clip0_3460_13809">
<rect width="75" height="75" fill="white"/>
</clipPath>
</defs>
</svg>
