<svg width="75" height="75" viewBox="0 0 75 75" fill="none" xmlns="http://www.w3.org/2000/svg">
<g clip-path="url(#clip0_3460_13854)">
<path d="M15.5797 28.9049C17.1606 29.3053 18.8062 29.3815 20.4174 29.1291C22.0285 28.8767 23.572 28.3008 24.9547 27.4362C25.0579 27.3936 25.1509 27.3294 25.2272 27.2479C25.3036 27.1663 25.3615 27.0694 25.3972 26.9636C25.4329 26.8577 25.4455 26.7455 25.4342 26.6344C25.4228 26.5233 25.3877 26.4159 25.3314 26.3195C25.275 26.2231 25.1986 26.1399 25.1073 26.0755C25.0161 26.0111 24.9121 25.967 24.8023 25.9463C24.6926 25.9255 24.5797 25.9285 24.4712 25.955C24.3627 25.9816 24.2612 26.0311 24.1734 26.1002C22.9627 26.8513 21.612 27.3487 20.2032 27.5622C18.7945 27.7757 17.3571 27.7009 15.9781 27.3424C15.8755 27.3163 15.7688 27.3106 15.664 27.3256C15.5592 27.3407 15.4584 27.3763 15.3673 27.4304C15.2763 27.4844 15.1968 27.5559 15.1334 27.6406C15.0699 27.7254 15.0238 27.8218 14.9977 27.9244C14.9715 28.027 14.9658 28.1338 14.9809 28.2386C14.996 28.3434 15.0316 28.4442 15.0856 28.5352C15.1397 28.6263 15.2111 28.7058 15.2959 28.7692C15.3807 28.8326 15.4771 28.8788 15.5797 28.9049Z" fill="#134A85"/>
<path d="M61.8461 26.186C61.9487 26.1788 62.0489 26.1515 62.141 26.1056C62.233 26.0597 62.3151 25.9961 62.3826 25.9185C62.45 25.8409 62.5015 25.7507 62.5342 25.6532C62.5668 25.5556 62.5799 25.4526 62.5727 25.35C62.5655 25.2474 62.5382 25.1473 62.4923 25.0552C62.4464 24.9632 62.3828 24.8811 62.3052 24.8136C62.2276 24.7462 62.1374 24.6946 62.0399 24.662C61.9424 24.6294 61.8394 24.6163 61.7368 24.6235C60.3244 24.7418 58.9028 24.573 57.5574 24.1273C56.2121 23.6815 54.9709 22.968 53.9086 22.0297C53.832 21.9604 53.7423 21.9071 53.6449 21.8727C53.5474 21.8383 53.4441 21.8235 53.3409 21.8294C53.2377 21.8352 53.1367 21.8614 53.0437 21.9065C52.9508 21.9516 52.8677 22.0148 52.7993 22.0922C52.6618 22.2467 52.5911 22.4494 52.6028 22.6559C52.6145 22.8624 52.7077 23.0558 52.8618 23.1938C54.081 24.2713 55.5051 25.0917 57.0489 25.6058C58.5927 26.1199 60.2243 26.3173 61.8461 26.186Z" fill="#134A85"/>
<path d="M38.2828 14.4206C38.4857 14.4571 38.6949 14.4119 38.8647 14.2948C39.0344 14.1777 39.151 13.9983 39.189 13.7956L39.5327 11.7174C39.5507 11.6148 39.5483 11.5097 39.5256 11.4081C39.5029 11.3064 39.4605 11.2102 39.4006 11.125C39.3408 11.0397 39.2647 10.9671 39.1768 10.9113C39.0889 10.8554 38.9908 10.8174 38.8882 10.7995C38.7856 10.7815 38.6805 10.7839 38.5788 10.8066C38.4772 10.8293 38.381 10.8718 38.2957 10.9316C38.2105 10.9915 38.1379 11.0675 38.082 11.1554C38.0262 11.2434 37.9882 11.3414 37.9702 11.444L37.6031 13.4909C37.5818 13.5971 37.5829 13.7065 37.6062 13.8123C37.6295 13.918 37.6746 14.0178 37.7385 14.1052C37.8024 14.1926 37.8838 14.2658 37.9775 14.3201C38.0712 14.3744 38.1751 14.4086 38.2828 14.4206Z" fill="#134A85"/>
<path d="M33.9079 14.241C33.9784 14.4357 34.1234 14.5945 34.3109 14.6824C34.4984 14.7703 34.7131 14.7801 34.9079 14.7097C35.1026 14.6392 35.2614 14.4943 35.3493 14.3068C35.4372 14.1193 35.447 13.9045 35.3767 13.7097L34.6657 11.7176C34.633 11.6184 34.5807 11.5267 34.5119 11.4481C34.4432 11.3695 34.3593 11.3054 34.2654 11.2598C34.1714 11.2141 34.0693 11.1877 33.965 11.1822C33.8607 11.1767 33.7563 11.1922 33.6581 11.2277C33.5599 11.2633 33.4698 11.3181 33.3931 11.3891C33.3165 11.46 33.2548 11.5457 33.2118 11.6409C33.1688 11.736 33.1454 11.8389 33.1428 11.9433C33.1403 12.0477 33.1587 12.1516 33.197 12.2488L33.9079 14.241Z" fill="#134A85"/>
<path d="M31.0415 16.7251C31.1995 16.8564 31.4029 16.9202 31.6076 16.9027C31.8123 16.8852 32.0019 16.7877 32.1353 16.6314C32.201 16.5524 32.2506 16.4613 32.2811 16.3631C32.3116 16.265 32.3225 16.1618 32.313 16.0595C32.3036 15.9572 32.2741 15.8577 32.2261 15.7668C32.1782 15.6759 32.1128 15.5954 32.0337 15.5298L30.4712 14.186C30.3127 14.0524 30.1076 13.9872 29.901 14.0048C29.6944 14.0224 29.5033 14.1213 29.3696 14.2798C29.236 14.4383 29.1708 14.6434 29.1884 14.85C29.2059 15.0566 29.3049 15.2477 29.4634 15.3814L31.0415 16.7251Z" fill="#134A85"/>
<path d="M27.7515 19.9516C29.9781 20.35 29.8374 20.3266 29.939 20.3266C30.124 20.3296 30.3041 20.2668 30.4471 20.1495C30.5902 20.0322 30.687 19.8679 30.7203 19.6859C30.7428 19.5815 30.7437 19.4736 30.7228 19.3688C30.702 19.264 30.6599 19.1646 30.5991 19.0767C30.5383 18.9889 30.4602 18.9144 30.3695 18.8579C30.2788 18.8015 30.1775 18.7642 30.0718 18.7484L28.0249 18.3812C27.9239 18.3632 27.8203 18.3653 27.72 18.3874C27.6198 18.4095 27.5248 18.4511 27.4407 18.5098C27.3565 18.5686 27.2848 18.6434 27.2295 18.7299C27.1743 18.8164 27.1366 18.913 27.1187 19.0141C27.0961 19.1174 27.0946 19.2242 27.1145 19.3281C27.1344 19.4319 27.1751 19.5307 27.2343 19.6183C27.2935 19.706 27.3698 19.7807 27.4587 19.838C27.5476 19.8953 27.6472 19.9339 27.7515 19.9516Z" fill="#134A85"/>
<path d="M41.8148 16.0376C41.9289 16.0387 42.0419 16.0149 42.1459 15.9676C42.2498 15.9204 42.3421 15.8509 42.4163 15.7642L43.7601 14.2017C43.8937 14.0432 43.9589 13.838 43.9413 13.6315C43.9238 13.4249 43.8248 13.2337 43.6663 13.1001C43.5078 12.9665 43.3027 12.9013 43.0961 12.9188C42.8896 12.9364 42.6984 13.0353 42.5648 13.1938L41.221 14.7563C41.1263 14.87 41.0659 15.0082 41.0467 15.1549C41.0274 15.3015 41.0503 15.4507 41.1125 15.5849C41.1746 15.7191 41.2737 15.8329 41.398 15.913C41.5223 15.9932 41.6669 16.0364 41.8148 16.0376Z" fill="#134A85"/>
<path d="M69.5332 37.436C72.9473 33.1391 72.4082 26.9672 67.0254 22.9751C65.4416 21.8371 63.4975 21.315 61.5566 21.5063C60.5636 21.5943 59.563 21.4804 58.6152 21.1716C57.6673 20.8628 56.7917 20.3655 56.041 19.7094C54.4702 18.2852 52.4799 17.4086 50.3688 17.2111C48.2576 17.0136 46.1394 17.5058 44.3316 18.6138C42.5238 19.7219 41.1239 21.3862 40.3419 23.3571C39.5599 25.328 39.4379 27.4993 39.9941 29.5454C40.2129 30.3891 40.5254 31.6782 40.7754 32.8422C41.0119 33.9256 40.8394 35.0581 40.291 36.0219H36.2129C38.7051 30.5532 35.9004 23.4751 28.0176 22.1938C26.0843 21.9261 24.1195 22.3673 22.4863 23.436C21.6469 23.9729 20.7071 24.3336 19.7241 24.4961C18.741 24.6586 17.7351 24.6195 16.7676 24.3813C15.0519 23.9361 13.2475 23.9646 11.5468 24.464C9.84605 24.9633 8.31265 25.9147 7.10998 27.2168C5.9073 28.5189 5.08043 30.1229 4.71745 31.8579C4.35448 33.5929 4.469 35.3938 5.04883 37.0688C2.3457 38.2797 0.00195312 40.4047 0.00195312 43.3579V63.3969C0.00195313 63.6041 0.0842632 63.8028 0.230776 63.9494C0.377289 64.0959 0.576003 64.1782 0.783203 64.1782H74.2207C74.4279 64.1782 74.6266 64.0959 74.7731 63.9494C74.9196 63.8028 75.002 63.6041 75.002 63.3969V46.0922C75.002 42.3657 72.6582 39.1704 69.5332 37.436ZM42.3066 22.936C42.9164 21.8689 43.7568 20.9515 44.7666 20.2508C45.7763 19.5502 46.9298 19.084 48.1429 18.8863C49.3559 18.6886 50.5978 18.7644 51.7777 19.1083C52.9577 19.4521 54.0459 20.0552 54.9629 20.8735C55.8668 21.6717 56.9239 22.2774 58.0697 22.6535C59.2154 23.0296 60.4258 23.1682 61.627 23.061C63.1946 22.9001 64.7676 23.3106 66.0566 24.2172C72.0723 28.686 70.6895 35.6313 66.0566 38.3813C65.292 38.8715 64.5683 39.4228 63.8926 40.0297C62.7314 41.0237 61.9868 42.4182 61.8066 43.936C61.7257 44.8546 61.553 45.7628 61.291 46.6469C60.3376 49.4126 58.4104 51.7369 55.8691 53.186C55.7743 53.2349 55.6657 53.2501 55.5611 53.2289C55.4565 53.2077 55.3623 53.1515 55.294 53.0695C55.2257 52.9876 55.1874 52.8848 55.1855 52.7781C55.1835 52.6714 55.218 52.5673 55.2832 52.4829C55.9549 51.626 56.4826 50.6655 56.8457 49.6391C57.9004 46.6079 56.0645 42.561 54.4004 39.6938C53.9828 38.958 53.3118 38.3992 52.5125 38.1217C51.7132 37.8443 50.8403 37.8671 50.0566 38.186C46.9316 39.3735 43.0254 41.4282 41.9785 44.436C41.0723 47.0297 41.7285 47.7485 41.1973 48.0297C41.0852 48.0844 40.9561 48.0929 40.8378 48.0534C40.7195 48.014 40.6214 47.9298 40.5645 47.8188C39.4622 45.102 39.3927 42.0756 40.3691 39.311C40.6922 38.4921 41.0952 37.7071 41.5723 36.9672C42.4171 35.6207 42.6978 33.9957 42.3535 32.4438C42.0879 31.2407 41.7832 29.9594 41.5723 29.0844C41.0153 27.0169 41.2784 24.8142 42.3066 22.936ZM6.15039 32.7172C6.30891 31.5622 6.71065 30.454 7.32909 29.4657C7.94753 28.4774 8.7686 27.6316 9.73807 26.984C10.7075 26.3365 11.8034 25.902 12.9531 25.7092C14.1029 25.5164 15.2805 25.5697 16.4082 25.8657C17.5781 26.1554 18.7946 26.2051 19.9843 26.0118C21.174 25.8184 22.3121 25.386 23.3301 24.7407C24.6507 23.8803 26.2374 23.5252 27.7988 23.7407C31.2832 24.3032 33.9629 26.2563 34.9863 28.9672C35.3962 30.0164 35.5876 31.1383 35.5486 32.2641C35.5097 33.3898 35.2412 34.4958 34.7598 35.5141C34.154 36.5545 33.6316 37.6413 33.1973 38.7641C32.6201 40.1867 32.6034 41.775 33.1504 43.2094C33.5004 44.0633 33.7622 44.9507 33.9316 45.8579C34.3299 48.7649 33.655 51.7174 32.0332 54.1626C31.983 54.2313 31.915 54.2851 31.8366 54.3181C31.7581 54.3511 31.6721 54.3622 31.5879 54.3501C31.5245 54.3388 31.464 54.315 31.41 54.2802C31.3559 54.2453 31.3093 54.1999 31.2729 54.1469C31.2366 54.0938 31.2111 54.0339 31.1981 53.9709C31.1852 53.9079 31.1849 53.8429 31.1973 53.7797C31.3846 52.7215 31.4005 51.6399 31.2441 50.5766C30.791 47.3969 27.3379 44.6235 24.5098 42.8579C23.8005 42.395 22.9469 42.2064 22.1087 42.3271C21.2704 42.4479 20.5048 42.8699 19.9551 43.5141C17.7441 45.9985 15.2051 49.6235 15.666 52.811C15.8402 53.9315 16.1826 55.0193 16.6816 56.0376C16.6973 56.134 16.6829 56.233 16.6404 56.321C16.5979 56.409 16.5293 56.4819 16.4441 56.5296C16.3588 56.5774 16.2609 56.5978 16.1636 56.588C16.0664 56.5782 15.9745 56.5388 15.9004 56.4751C13.6742 54.5695 12.2211 51.9161 11.8145 49.0141C11.7264 48.1387 11.7264 47.2567 11.8145 46.3813C11.9376 44.7963 11.4357 43.226 10.416 42.0063C9.63477 41.0688 8.77539 40.0688 8.1582 39.3891C7.35482 38.4923 6.75851 37.4297 6.41153 36.2767C6.06455 35.1237 5.9754 33.9085 6.15039 32.7172ZM2.87695 40.3735C3.70315 39.5876 4.65343 38.9435 5.68945 38.4672C6.51758 40.0297 6.93945 40.1938 9.2832 43.0063C10.0367 43.9173 10.4065 45.0855 10.3145 46.2641C10.2134 47.2511 10.2134 48.2459 10.3145 49.2329C10.7752 52.5136 12.4169 55.5136 14.9316 57.6704C15.2937 57.9709 15.7502 58.1341 16.2207 58.1313C16.5678 58.1339 16.9096 58.0472 17.2135 57.8795C17.5174 57.7118 17.773 57.4688 17.9558 57.1738C18.1386 56.8788 18.2425 56.5417 18.2574 56.1949C18.2723 55.8482 18.1978 55.5034 18.041 55.1938C17.6448 54.3706 17.3811 53.4899 17.2598 52.5844C16.8691 49.8579 19.541 46.3813 21.166 44.5532C21.4737 44.1883 21.9048 43.9492 22.3773 43.8815C22.8498 43.8138 23.3307 43.9222 23.7285 44.186C25.8066 45.4907 29.3613 48.0922 29.7441 50.7954C30.1035 53.3032 29.1816 53.9204 30.1035 55.1391C30.3007 55.3898 30.5541 55.5905 30.8433 55.7251C31.1324 55.8596 31.4492 55.9241 31.7679 55.9135C32.0867 55.9028 32.3984 55.8173 32.678 55.6638C32.9575 55.5102 33.197 55.293 33.377 55.0297C35.1783 52.2582 35.9087 48.9256 35.4316 45.6547C35.0645 43.1079 33.6035 41.8344 34.5957 39.3657C34.9551 38.4829 35.1973 37.9672 35.377 37.6001H39.4316C38.6146 39.2797 38.1597 41.1123 38.0964 42.979C38.0332 44.8457 38.363 46.7049 39.0645 48.436C39.2267 48.8109 39.4979 49.1285 39.8428 49.3474C40.1877 49.5664 40.5904 49.6768 40.9988 49.6641C41.4071 49.6515 41.8023 49.5165 42.133 49.2766C42.4637 49.0367 42.7147 48.703 42.8535 48.3188C43.0801 47.6782 42.8535 46.7563 43.4395 44.9829C44.3457 42.3735 48.3145 40.5219 50.6035 39.6469C51.0421 39.4603 51.5344 39.4432 51.9848 39.5991C52.4353 39.7551 52.8117 40.0728 53.041 40.4907C54.291 42.6001 56.2598 46.5297 55.3848 49.1235C55.0819 50.0016 54.6386 50.8248 54.0723 51.561C53.7889 51.93 53.6408 52.3851 53.6527 52.8502C53.6646 53.3152 53.8358 53.7622 54.1376 54.1162C54.4395 54.4702 54.8538 54.7098 55.3111 54.7951C55.7685 54.8803 56.2413 54.8059 56.6504 54.5844C59.5272 52.9508 61.7081 50.3225 62.7832 47.1938C63.6504 44.7172 62.9004 42.9672 64.9395 41.2172C66.9785 39.4672 66.9863 39.8579 68.3691 38.6157C71.2051 40.0376 73.4395 42.8266 73.4395 46.0922V59.1157H44.8379C44.3314 59.1259 43.8409 58.9381 43.4707 58.5922C41.9682 57.0922 39.9736 56.1867 37.8553 56.043C35.7371 55.8994 33.6384 56.5274 31.9473 57.811C30.8234 58.6652 29.4526 59.1312 28.041 59.1391H1.56445V57.5766H6.25195C6.45915 57.5766 6.65787 57.4943 6.80438 57.3478C6.95089 57.2013 7.0332 57.0026 7.0332 56.7954C7.0332 56.5882 6.95089 56.3895 6.80438 56.2429C6.65787 56.0964 6.45915 56.0141 6.25195 56.0141H1.56445V43.3579C1.57474 42.7983 1.69606 42.2463 1.92137 41.734C2.14668 41.2217 2.47149 40.7593 2.87695 40.3735ZM73.4395 62.6079H1.56445V60.6782H28.0098C29.7758 60.6748 31.4927 60.0961 32.9004 59.0297C34.2878 57.9722 36.0112 57.4529 37.7519 57.5678C39.4926 57.6827 41.1328 58.424 42.3691 59.6547C42.6923 59.9805 43.0769 60.2387 43.5007 60.4144C43.9246 60.5901 44.3791 60.6797 44.8379 60.6782H73.4395V62.6079Z" fill="#134A85"/>
</g>
<defs>
<clipPath id="clip0_3460_13854">
<rect width="75" height="75" fill="white"/>
</clipPath>
</defs>
</svg>
