<svg width="75" height="75" viewBox="0 0 75 75" fill="none" xmlns="http://www.w3.org/2000/svg">
<g clip-path="url(#clip0_3460_13906)">
<path d="M17.6441 10.4201C14.811 11.323 12.3184 13.0642 10.4957 15.4135C10.3969 15.5338 10.3231 15.6726 10.2785 15.8217C10.234 15.9709 10.2196 16.1274 10.2362 16.2822C10.2528 16.437 10.3001 16.5869 10.3753 16.7232C10.4504 16.8595 10.552 16.9795 10.6741 17.0761C10.7962 17.1727 10.9363 17.244 11.0862 17.2859C11.2361 17.3277 11.3929 17.3393 11.5473 17.3199C11.7018 17.3005 11.8508 17.2506 11.9858 17.1729C12.1207 17.0953 12.2388 16.9916 12.3332 16.8678C13.8635 14.8892 15.9575 13.4208 18.3391 12.6561C18.4871 12.6114 18.6249 12.5378 18.7444 12.4396C18.8639 12.3414 18.9628 12.2206 19.0354 12.084C19.1079 11.9474 19.1527 11.7978 19.1672 11.6438C19.1817 11.4898 19.1655 11.3344 19.1196 11.1867C19.0738 11.039 18.9991 10.9018 18.9 10.7831C18.8009 10.6644 18.6792 10.5664 18.542 10.495C18.4049 10.4235 18.2549 10.3799 18.1008 10.3666C17.9467 10.3534 17.7915 10.3708 17.6441 10.4178V10.4201Z" fill="#134A85"/>
<path d="M9.37402 21.0933C10.0212 21.0933 10.5459 20.5686 10.5459 19.9214C10.5459 19.2742 10.0212 18.7495 9.37402 18.7495C8.72681 18.7495 8.20215 19.2742 8.20215 19.9214C8.20215 20.5686 8.72681 21.0933 9.37402 21.0933Z" fill="#134A85"/>
<path d="M62.9726 8.14398C56.5203 4.29906 46.5453 3.78109 37.4984 13.476C28.4503 3.77992 18.4718 4.30023 12.0242 8.14398C7.95827 10.6354 4.89952 14.479 3.38451 19.0004C1.86951 23.5219 1.99501 28.4324 3.739 32.8705C4.89104 35.6489 6.34509 38.2921 8.07494 40.7526C10.1023 43.8651 12.0171 46.803 12.8046 50.3139C13.0926 51.8205 13.2409 53.3504 13.2476 54.8842C13.2474 56.72 13.4522 58.5501 13.8581 60.3405C15.4226 66.3276 19.0015 69.6873 23.5847 69.5877C30.8949 69.4307 32.7042 62.3151 34.1574 56.6116C35.0257 53.2131 35.8074 49.6412 37.4984 49.6412C39.1894 49.6412 39.971 53.2119 40.8394 56.6116C42.2925 62.3151 44.1031 69.4202 51.4121 69.5877C56.0492 69.6944 59.5648 66.3217 61.1386 60.3405C61.545 58.5486 61.7501 56.7169 61.7503 54.8795L61.7574 54.7049C63.8989 54.2169 65.8958 53.2326 67.5872 51.8315C69.2787 50.4303 70.6173 48.6514 71.4953 46.6381C72.3732 44.6248 72.766 42.4334 72.6419 40.2405C72.5178 38.0476 71.8803 35.9145 70.7808 34.0131C70.9484 33.6358 71.1207 33.2631 71.2671 32.8752C73.0115 28.4355 73.1363 23.5231 71.6195 19.0005C70.1026 14.4779 67.0412 10.6342 62.9726 8.14398ZM58.8652 59.7487C58.1433 62.6022 56.1066 67.3729 51.4671 67.2487C45.9359 67.0987 44.4992 61.483 43.1093 56.0362C41.9785 51.6627 40.9507 47.158 37.3671 47.294C34.0003 47.4229 32.9855 51.7471 31.891 56.0362C30.5011 61.483 29.0644 67.0987 23.5331 67.2487C18.8937 67.3752 16.8535 62.6045 16.1351 59.7487C15.7737 58.1248 15.5933 56.4658 15.5972 54.8022C15.5868 53.1247 15.4201 51.4518 15.0992 49.8053C14.2203 45.8819 12.098 42.6264 10.0472 39.4776C8.40817 37.1595 7.02954 34.6679 5.93627 32.0479C4.38487 28.124 4.26538 23.779 5.59878 19.7758C6.93218 15.7726 9.63323 12.3671 13.2277 10.1573C19.0495 6.685 28.2183 6.38617 36.5234 15.8995C37.823 18.4998 39.2538 21.9932 45.705 22.06C46.0158 22.06 46.3139 21.9365 46.5337 21.7168C46.7534 21.497 46.8769 21.1989 46.8769 20.8881C46.8769 20.5773 46.7534 20.2793 46.5337 20.0595C46.3139 19.8397 46.0158 19.7162 45.705 19.7162C41.1347 19.7162 39.9535 17.5787 38.9081 15.4389C47.0972 6.41547 56.0515 6.74476 61.7761 10.1549C65.3244 12.3387 68.0019 15.6895 69.3491 19.6322C70.6962 23.5748 70.629 27.8635 69.1589 31.762C67.6099 29.9939 65.6422 28.6425 63.4358 27.8317C61.2295 27.0208 58.855 26.7763 56.5296 27.1205C54.2043 27.4647 52.0025 28.3867 50.1257 29.802C48.2489 31.2173 46.757 33.0807 45.7867 35.2218C44.8164 37.3628 44.3985 39.713 44.5715 42.0573C44.7444 44.4016 45.5026 46.665 46.7766 48.6405C48.0506 50.616 49.7998 52.2403 51.864 53.3649C53.9282 54.4895 56.2415 55.0783 58.5921 55.0776C58.8628 55.0776 59.1277 55.0518 59.3949 55.0366C59.3922 56.622 59.2145 58.2022 58.8652 59.7487ZM58.5921 52.7338C56.2744 52.7338 54.0087 52.0465 52.0815 50.7589C50.1544 49.4712 48.6524 47.641 47.7654 45.4996C46.8785 43.3583 46.6464 41.0021 47.0986 38.7289C47.5507 36.4556 48.6668 34.3676 50.3057 32.7287C51.9446 31.0898 54.0327 29.9737 56.3059 29.5215C58.5791 29.0693 60.9354 29.3014 63.0767 30.1884C65.218 31.0753 67.0482 32.5773 68.3359 34.5045C69.6236 36.4316 70.3109 38.6973 70.3109 41.0151C70.3075 44.122 69.0717 47.1008 66.8748 49.2977C64.6778 51.4947 61.6991 52.7304 58.5921 52.7338Z" fill="#134A85"/>
<path d="M64.2178 37.0308H62.5772V35.3901C62.5772 34.7064 62.3055 34.0506 61.822 33.5671C61.3385 33.0836 60.6828 32.812 59.999 32.812H57.1865C56.5028 32.812 55.847 33.0836 55.3635 33.5671C54.88 34.0506 54.6084 34.7064 54.6084 35.3901V37.0308H52.9678C52.6292 37.0308 52.294 37.0974 51.9812 37.227C51.6684 37.3566 51.3842 37.5465 51.1448 37.7859C50.9054 38.0253 50.7155 38.3095 50.5859 38.6223C50.4563 38.9351 50.3896 39.2703 50.3896 39.6089V42.4214C50.3896 43.1051 50.6613 43.7609 51.1448 44.2444C51.6283 44.7279 52.284 44.9995 52.9678 44.9995H54.6084V46.6401C54.6084 47.3239 54.88 47.9797 55.3635 48.4631C55.847 48.9466 56.5028 49.2183 57.1865 49.2183H59.999C60.6828 49.2183 61.3385 48.9466 61.822 48.4631C62.3055 47.9797 62.5772 47.3239 62.5772 46.6401V44.9995H64.2178C64.9015 44.9995 65.5573 44.7279 66.0408 44.2444C66.5243 43.7609 66.7959 43.1051 66.7959 42.4214V39.6089C66.7959 38.9251 66.5243 38.2694 66.0408 37.7859C65.5573 37.3024 64.9015 37.0308 64.2178 37.0308ZM64.4521 42.4214C64.4521 42.4835 64.4275 42.5432 64.3835 42.5871C64.3395 42.6311 64.2799 42.6558 64.2178 42.6558H61.4053C61.0945 42.6558 60.7964 42.7792 60.5766 42.999C60.3569 43.2188 60.2334 43.5168 60.2334 43.8276V46.6401C60.2334 46.6709 60.2273 46.7014 60.2156 46.7298C60.2038 46.7583 60.1865 46.7841 60.1648 46.8059C60.143 46.8276 60.1171 46.8449 60.0887 46.8567C60.0603 46.8684 60.0298 46.8745 59.999 46.8745H57.1865C57.1244 46.8745 57.0647 46.8498 57.0208 46.8059C56.9768 46.7619 56.9521 46.7023 56.9521 46.6401V43.8276C56.9521 43.5168 56.8287 43.2188 56.6089 42.999C56.3891 42.7792 56.0911 42.6558 55.7803 42.6558H52.9678C52.9056 42.6558 52.846 42.6311 52.802 42.5871C52.7581 42.5432 52.7334 42.4835 52.7334 42.4214V39.6089C52.7334 39.5781 52.7395 39.5476 52.7512 39.5192C52.763 39.4908 52.7803 39.4649 52.802 39.4432C52.8238 39.4214 52.8496 39.4041 52.8781 39.3924C52.9065 39.3806 52.937 39.3745 52.9678 39.3745H55.7803C56.0911 39.3745 56.3891 39.251 56.6089 39.0313C56.8287 38.8115 56.9521 38.5134 56.9521 38.2026V35.3901C56.9521 35.328 56.9768 35.2684 57.0208 35.2244C57.0647 35.1805 57.1244 35.1558 57.1865 35.1558H59.999C60.0298 35.1558 60.0603 35.1618 60.0887 35.1736C60.1171 35.1854 60.143 35.2026 60.1648 35.2244C60.1865 35.2462 60.2038 35.272 60.2156 35.3004C60.2273 35.3289 60.2334 35.3594 60.2334 35.3901V38.2026C60.2334 38.5134 60.3569 38.8115 60.5766 39.0313C60.7964 39.251 61.0945 39.3745 61.4053 39.3745H64.2178C64.2486 39.3745 64.279 39.3806 64.3075 39.3924C64.3359 39.4041 64.3617 39.4214 64.3835 39.4432C64.4053 39.4649 64.4225 39.4908 64.4343 39.5192C64.4461 39.5476 64.4521 39.5781 64.4521 39.6089V42.4214Z" fill="#134A85"/>
<path d="M17.6422 10.4196C14.8091 11.3225 12.3165 13.0637 10.4937 15.413C10.395 15.5333 10.3211 15.6721 10.2766 15.8212C10.232 15.9704 10.2176 16.1269 10.2342 16.2817C10.2508 16.4365 10.2981 16.5864 10.3733 16.7227C10.4485 16.859 10.5501 16.979 10.6721 17.0756C10.7942 17.1722 10.9343 17.2435 11.0842 17.2854C11.2342 17.3273 11.3909 17.3388 11.5454 17.3194C11.6998 17.3 11.8489 17.2501 11.9838 17.1724C12.1187 17.0948 12.2369 16.9911 12.3312 16.8673C13.8616 14.8887 15.9555 13.4203 18.3371 12.6556C18.4852 12.6109 18.623 12.5373 18.7425 12.4391C18.862 12.3409 18.9609 12.2201 19.0334 12.0835C19.106 11.9469 19.1508 11.7973 19.1653 11.6433C19.1797 11.4893 19.1636 11.3339 19.1177 11.1862C19.0718 11.0385 18.9972 10.9013 18.898 10.7826C18.7989 10.6639 18.6772 10.5659 18.5401 10.4945C18.4029 10.423 18.253 10.3794 18.0988 10.3661C17.9447 10.3529 17.7895 10.3703 17.6422 10.4173V10.4196Z" fill="#134A85"/>
<path d="M9.37207 21.0928C10.0193 21.0928 10.5439 20.5681 10.5439 19.9209C10.5439 19.2737 10.0193 18.749 9.37207 18.749C8.72486 18.749 8.2002 19.2737 8.2002 19.9209C8.2002 20.5681 8.72486 21.0928 9.37207 21.0928Z" fill="#134A85"/>
<path d="M62.9706 8.14349C56.5183 4.29857 46.5433 3.7806 37.4964 13.4755C28.4484 3.77943 18.4699 4.29974 12.0222 8.14349C7.95632 10.6349 4.89756 14.4785 3.38256 18.9999C1.86756 23.5214 1.99306 28.4319 3.73705 32.8701C4.88908 35.6484 6.34314 38.2916 8.07299 40.7521C10.1003 43.8646 12.0152 46.8025 12.8027 50.3134C13.0907 51.82 13.239 53.3499 13.2456 54.8837C13.2454 56.7195 13.4502 58.5496 13.8562 60.34C15.4206 66.3271 18.9995 69.6869 23.5828 69.5872C30.8929 69.4302 32.7023 62.3146 34.1554 56.6111C35.0238 53.2126 35.8054 49.6408 37.4964 49.6408C39.1874 49.6408 39.9691 53.2115 40.8374 56.6111C42.2906 62.3146 44.1011 69.4197 51.4101 69.5872C56.0472 69.6939 59.5628 66.3212 61.1367 60.34C61.543 58.5481 61.7482 56.7164 61.7484 54.879L61.7554 54.7044C63.8969 54.2164 65.8938 53.2322 67.5853 51.831C69.2767 50.4298 70.6153 48.6509 71.4933 46.6376C72.3713 44.6243 72.764 42.4329 72.6399 40.24C72.5159 38.0471 71.8784 35.914 70.7789 34.0126C70.9464 33.6353 71.1187 33.2626 71.2652 32.8747C73.0096 28.435 73.1343 23.5226 71.6175 19C70.1007 14.4774 67.0393 10.6337 62.9706 8.14349ZM58.8632 59.7482C58.1414 62.6017 56.1046 67.3724 51.4652 67.2482C45.9339 67.0982 44.4972 61.4826 43.1074 56.0357C41.9765 51.6622 40.9488 47.1576 37.3652 47.2935C33.9984 47.4224 32.9835 51.7466 31.889 56.0357C30.4992 61.4826 29.0624 67.0982 23.5312 67.2482C18.8917 67.3747 16.8515 62.604 16.1331 59.7482C15.7717 58.1243 15.5913 56.4653 15.5953 54.8017C15.5849 53.1242 15.4182 51.4513 15.0972 49.8048C14.2183 45.8814 12.096 42.6259 10.0453 39.4771C8.40622 37.159 7.02759 34.6674 5.93431 32.0474C4.38291 28.1235 4.26343 23.7786 5.59683 19.7754C6.93023 15.7722 9.63127 12.3666 13.2257 10.1568C19.0476 6.68451 28.2163 6.38568 36.5214 15.899C37.821 18.4994 39.2519 21.9927 45.7031 22.0595C46.0139 22.0595 46.3119 21.936 46.5317 21.7163C46.7515 21.4965 46.8749 21.1984 46.8749 20.8876C46.8749 20.5768 46.7515 20.2788 46.5317 20.059C46.3119 19.8392 46.0139 19.7158 45.7031 19.7158C41.1328 19.7158 39.9515 17.5783 38.9062 15.4384C47.0953 6.41498 56.0496 6.74428 61.7742 10.1544C65.3225 12.3382 68 15.689 69.3471 19.6317C70.6943 23.5743 70.627 27.863 69.157 31.7615C67.608 29.9934 65.6402 28.642 63.4339 27.8312C61.2275 27.0203 58.853 26.7758 56.5277 27.12C54.2024 27.4642 52.0005 28.3862 50.1237 29.8015C48.2469 31.2168 46.7551 33.0803 45.7847 35.2213C44.8144 37.3623 44.3966 39.7125 44.5695 42.0568C44.7425 44.4011 45.5007 46.6646 46.7747 48.64C48.0487 50.6155 49.7979 52.2398 51.862 53.3644C53.9262 54.489 56.2395 55.0778 58.5902 55.0771C58.8609 55.0771 59.1257 55.0513 59.3929 55.0361C59.3902 56.6215 59.2126 58.2017 58.8632 59.7482ZM58.5902 52.7333C56.2724 52.7333 54.0067 52.046 52.0796 50.7584C50.1525 49.4707 48.6504 47.6405 47.7635 45.4992C46.8765 43.3578 46.6444 41.0016 47.0966 38.7284C47.5488 36.4552 48.6649 34.3671 50.3038 32.7282C51.9427 31.0893 54.0307 29.9732 56.304 29.521C58.5772 29.0688 60.9334 29.3009 63.0748 30.1879C65.2161 31.0748 67.0463 32.5769 68.334 34.504C69.6216 36.4311 70.3089 38.6968 70.3089 41.0146C70.3055 44.1215 69.0698 47.1003 66.8728 49.2972C64.6759 51.4942 61.6971 52.7299 58.5902 52.7333Z" fill="#134A85"/>
<path d="M64.2158 37.0303H62.5752V35.3896C62.5752 34.7059 62.3036 34.0501 61.8201 33.5666C61.3366 33.0831 60.6808 32.8115 59.9971 32.8115H57.1846C56.5008 32.8115 55.8451 33.0831 55.3616 33.5666C54.8781 34.0501 54.6064 34.7059 54.6064 35.3896V37.0303H52.9658C52.6273 37.0303 52.292 37.097 51.9792 37.2265C51.6664 37.3561 51.3822 37.546 51.1428 37.7854C50.9034 38.0248 50.7135 38.309 50.5839 38.6218C50.4544 38.9346 50.3877 39.2698 50.3877 39.6084V42.4209C50.3877 43.1047 50.6593 43.7604 51.1428 44.2439C51.6263 44.7274 52.2821 44.999 52.9658 44.999H54.6064V46.6396C54.6064 47.3234 54.8781 47.9792 55.3616 48.4627C55.8451 48.9462 56.5008 49.2178 57.1846 49.2178H59.9971C60.6808 49.2178 61.3366 48.9462 61.8201 48.4627C62.3036 47.9792 62.5752 47.3234 62.5752 46.6396V44.999H64.2158C64.8996 44.999 65.5553 44.7274 66.0388 44.2439C66.5223 43.7604 66.7939 43.1047 66.7939 42.4209V39.6084C66.7939 38.9246 66.5223 38.2689 66.0388 37.7854C65.5553 37.3019 64.8996 37.0303 64.2158 37.0303ZM64.4502 42.4209C64.4502 42.4831 64.4255 42.5427 64.3815 42.5866C64.3376 42.6306 64.278 42.6553 64.2158 42.6553H61.4033C61.0925 42.6553 60.7944 42.7787 60.5747 42.9985C60.3549 43.2183 60.2314 43.5163 60.2314 43.8272V46.6396C60.2314 46.6704 60.2254 46.7009 60.2136 46.7293C60.2018 46.7578 60.1846 46.7836 60.1628 46.8054C60.141 46.8271 60.1152 46.8444 60.0868 46.8562C60.0583 46.868 60.0278 46.874 59.9971 46.874H57.1846C57.1224 46.874 57.0628 46.8493 57.0188 46.8054C56.9749 46.7614 56.9502 46.7018 56.9502 46.6396V43.8272C56.9502 43.5163 56.8267 43.2183 56.607 42.9985C56.3872 42.7787 56.0891 42.6553 55.7783 42.6553H52.9658C52.9037 42.6553 52.844 42.6306 52.8001 42.5866C52.7561 42.5427 52.7314 42.4831 52.7314 42.4209V39.6084C52.7314 39.5776 52.7375 39.5471 52.7493 39.5187C52.7611 39.4903 52.7783 39.4644 52.8001 39.4427C52.8219 39.4209 52.8477 39.4036 52.8761 39.3919C52.9046 39.3801 52.935 39.374 52.9658 39.374H55.7783C56.0891 39.374 56.3872 39.2506 56.607 39.0308C56.8267 38.811 56.9502 38.5129 56.9502 38.2021V35.3896C56.9502 35.3275 56.9749 35.2679 57.0188 35.2239C57.0628 35.18 57.1224 35.1553 57.1846 35.1553H59.9971C60.0278 35.1553 60.0583 35.1613 60.0868 35.1731C60.1152 35.1849 60.141 35.2022 60.1628 35.2239C60.1846 35.2457 60.2018 35.2715 60.2136 35.3C60.2254 35.3284 60.2314 35.3589 60.2314 35.3896V38.2021C60.2314 38.5129 60.3549 38.811 60.5747 39.0308C60.7944 39.2506 61.0925 39.374 61.4033 39.374H64.2158C64.2466 39.374 64.2771 39.3801 64.3055 39.3919C64.3339 39.4036 64.3598 39.4209 64.3815 39.4427C64.4033 39.4644 64.4206 39.4903 64.4324 39.5187C64.4441 39.5471 64.4502 39.5776 64.4502 39.6084V42.4209Z" fill="#134A85"/>
</g>
<defs>
<clipPath id="clip0_3460_13906">
<rect width="75" height="75" fill="white"/>
</clipPath>
</defs>
</svg>
