<svg width="75" height="75" viewBox="0 0 75 75" fill="none" xmlns="http://www.w3.org/2000/svg">
<g clip-path="url(#clip0_3464_15166)">
<path d="M61.5625 47.6562C60.625 47.6562 59.6875 47.1875 58.9062 46.5625C58.125 45.7812 57.8125 44.6875 57.9687 43.5937C58.125 42.1875 58.125 40.7813 58.125 39.375C58.125 35.1563 57.6562 31.25 56.5625 27.6563C56.25 26.4063 55.1562 25.9375 54.375 25.9375C53.5937 25.9375 52.5 26.4063 52.1875 27.6563C51.0938 31.0938 50.625 35.1563 50.625 39.375C50.625 40.7813 50.625 42.1875 50.7812 43.5937C50.9375 44.6875 50.4687 45.7812 49.8437 46.5625C48.5937 47.9687 46.4062 48.125 45 46.875C42.5 44.6875 40.9375 41.7187 40.4687 38.4375L40.3125 36.875C40 32.6562 38.75 28.75 36.875 25.1562C35.4687 22.5 34.6875 19.375 34.6875 16.0937C34.6875 7.8125 39.8437 0.9375 46.0937 0.9375C47.9687 0.9375 49.6875 1.5625 51.25 2.65625C53.125 3.90625 55.625 3.90625 57.6563 2.65625C59.2188 1.5625 61.0937 0.9375 62.8125 0.9375C69.0625 0.9375 74.2187 7.65625 74.2187 16.0937C74.2187 19.375 73.4375 22.5 72.0312 25.1562C70.1562 28.5938 68.9063 32.6562 68.5938 36.875L68.4375 38.4375C68.125 41.7187 66.4063 44.8437 63.9063 46.875C63.2813 47.3437 62.5 47.6562 61.5625 47.6562ZM54.5313 22.8125C57.0313 22.8125 59.0625 24.375 59.6875 26.875C60.7812 30.625 61.4062 35 61.4062 39.375C61.4062 40.9375 61.4063 42.3437 61.25 43.75C61.25 44.0625 61.25 44.2187 61.4062 44.2187C61.5625 44.375 61.5625 44.375 61.7187 44.375C61.875 44.375 61.875 44.375 61.875 44.2187C63.75 42.6562 65 40.3125 65.3125 37.8125L65.4688 36.25C65.9375 31.7188 67.1875 27.1875 69.375 23.4375C70.625 21.25 71.25 18.75 71.25 15.9375C71.25 9.375 67.5 3.90625 62.9687 3.90625C61.7187 3.90625 60.625 4.21875 59.5312 5C56.5625 7.03125 52.6562 7.03125 49.6875 5C48.5937 4.21875 47.5 3.90625 46.25 3.90625C41.7187 3.90625 37.9687 9.21875 37.9687 15.9375C37.9687 18.75 38.5937 21.25 39.8437 23.4375C42.0312 27.3437 43.2812 31.7188 43.75 36.25L43.9062 37.8125C44.2187 40.3125 45.3125 42.6562 47.3437 44.2187C47.5 44.375 47.5 44.375 47.5 44.375C47.6562 44.375 47.6562 44.375 47.8125 44.2187C47.9687 44.0625 47.9688 43.9062 47.9688 43.75C47.8125 42.3437 47.8125 40.7813 47.8125 39.375C47.8125 35 48.4375 30.625 49.5312 26.875C50 24.375 52.0313 22.8125 54.5313 22.8125Z" fill="#134A85"/>
<path d="M46.7183 68.5938C45.6246 68.5938 44.5308 68.2812 43.5933 67.6562L29.9996 59.375C23.2808 55.1563 17.3433 49.8437 12.3433 43.4375L11.0933 41.7188C8.74956 42.3438 6.40581 42.1875 4.68706 41.0937C-0.156688 38.125 -0.469188 29.6875 3.74956 22.0313C6.87456 16.25 11.8746 12.3438 16.4058 12.3438C17.8121 12.3438 19.0621 12.6563 20.1558 13.4375C24.9996 16.4063 25.3121 24.8437 21.0933 32.5C20.7808 32.9687 20.6246 33.4375 20.3121 33.9063C24.9996 39.6875 30.3121 44.5312 36.5621 48.2812L50.1558 56.7187C52.9683 58.4375 54.0621 62.3438 52.3433 65.4688C50.9371 67.5 48.9058 68.5938 46.7183 68.5938ZM12.0308 37.8125L14.8433 41.4063C19.5308 47.5 25.3121 52.6562 31.7183 56.7187L45.3121 65.1562C46.7183 66.0937 48.5933 65.4688 49.3746 63.9062C50.3121 62.3438 49.6871 60.3125 48.2808 59.375L34.6871 50.9375C27.9683 46.7187 22.0308 41.4062 17.0308 35L16.2496 34.0625L16.8746 33.125C17.3433 32.5 17.8121 31.7188 18.1246 31.0938C21.4058 25 21.5621 18.125 18.2808 16.0938C17.6558 15.7813 17.0308 15.4687 16.2496 15.4687C12.9683 15.4687 9.06206 18.75 6.40581 23.4375C3.12456 29.5312 3.12456 36.4063 6.24956 38.4375C7.49956 39.2188 9.06206 39.2188 10.9371 38.4375L12.0308 37.8125Z" fill="#134A85"/>
<path d="M23.9707 1.64844L26.7145 3.14531L20.1282 15.2178L17.3845 13.7209L23.9707 1.64844Z" fill="#134A85"/>
<path d="M9.28223 16.708L22.165 24.6954L20.5182 27.3516L7.63535 19.3643L9.28223 16.708Z" fill="#134A85"/>
<path d="M45.0977 55.7612L47.841 57.2579L43.2762 65.6249L40.5329 64.1283L45.0977 55.7612Z" fill="#134A85"/>
<path d="M40.3877 52.8467L43.131 54.3433L38.5663 62.7104L35.823 61.2138L40.3877 52.8467Z" fill="#134A85"/>
<path d="M35.542 49.8574L38.2853 51.3541L33.7206 59.7211L30.9773 58.2245L35.542 49.8574Z" fill="#134A85"/>
<path d="M51.5449 63.3643L64.5605 71.4339L62.9137 74.0902L49.898 66.0205L51.5449 63.3643Z" fill="#134A85"/>
</g>
<defs>
<clipPath id="clip0_3464_15166">
<rect width="75" height="75" fill="white"/>
</clipPath>
</defs>
</svg>
