<svg width="75" height="75" viewBox="0 0 75 75" fill="none" xmlns="http://www.w3.org/2000/svg">
<path d="M26.5844 40.1471C25.8779 40.1471 25.2143 39.8713 24.7151 39.3706L5.39482 19.9951C5.10798 19.7075 5.10798 19.2415 5.39482 18.9539L16.9069 7.40863C17.1834 7.13137 17.6745 7.13137 17.951 7.40863L37.272 26.7842C38.3014 27.8158 38.3014 29.4956 37.272 30.5279L28.4536 39.3706C27.9552 39.8713 27.2908 40.1471 26.5844 40.1471ZM6.95808 19.4745L25.76 38.3294C26.2009 38.7719 26.97 38.7711 27.4102 38.3294L36.2279 29.4867C36.6843 29.0288 36.6843 28.284 36.2279 27.8261L17.429 8.97336L6.95808 19.4745Z" fill="#134A85" stroke="#134A85" stroke-width="0.983182"/>
<path d="M26.5845 40.1471C25.8781 40.1471 25.2144 39.8713 24.7152 39.3706L13.0999 27.7221C12.8131 27.4345 12.8131 26.9685 13.0999 26.6809L24.612 15.1357C24.8885 14.8584 25.3796 14.8584 25.6561 15.1357L37.2722 26.7842C38.3016 27.8158 38.3016 29.4955 37.2722 30.5279L28.4538 39.3706C27.9553 39.8713 27.2909 40.1471 26.5845 40.1471ZM14.6632 27.2015L25.7601 38.3294C26.201 38.7719 26.9701 38.7711 27.4104 38.3294L36.228 29.4867C36.6845 29.0288 36.6845 28.284 36.228 27.8261L25.134 16.7004L14.6632 27.2015Z" fill="#134A85" stroke="#134A85" stroke-width="0.983182"/>
<path d="M19.3783 22.166C19.1895 22.166 19 22.0937 18.8562 21.9492L5.7455 8.80086C5.45792 8.51254 5.45866 8.04577 5.74697 7.75819C6.03603 7.47061 6.50206 7.47135 6.78964 7.75967L19.9004 20.908C20.1879 21.1963 20.1872 21.6631 19.8989 21.9507C19.7551 22.0945 19.5663 22.166 19.3783 22.166Z" fill="#134A85" stroke="#134A85" stroke-width="0.983182"/>
<path d="M1.73729 13.5613C1.54926 13.5613 1.36049 13.4898 1.2167 13.346C0.928382 13.0584 0.927645 12.5916 1.21523 12.3033L10.2755 3.21725C10.5623 2.9282 11.0291 2.92746 11.3182 3.21578C11.6065 3.50336 11.6072 3.97012 11.3196 4.25844L2.25936 13.3445C2.11557 13.4883 1.92607 13.5613 1.73729 13.5613Z" fill="#134A85" stroke="#134A85" stroke-width="0.983182"/>
<path d="M4.26562 21.8702C4.07758 21.8702 3.88881 21.7986 3.74502 21.6548C3.4567 21.3673 3.45597 20.9005 3.74355 20.6122L18.5598 5.75311C18.8467 5.46479 19.3135 5.46332 19.6025 5.75164C19.8908 6.03922 19.8916 6.50598 19.604 6.7943L4.78768 21.6534C4.64389 21.7972 4.45512 21.8702 4.26562 21.8702Z" fill="#134A85" stroke="#134A85" stroke-width="0.983182"/>
<path d="M33.3471 39.6995C33.3464 39.6995 33.3464 39.6995 33.3471 39.6995C32.2101 39.6995 31.1423 39.2556 30.3393 38.4504L29.3343 37.4431C29.0474 37.1555 29.0474 36.6895 29.3343 36.4019L34.305 31.4172C34.5815 31.1399 35.0726 31.1392 35.3491 31.4172L36.3542 32.4245C38.0111 34.0858 38.0111 36.7891 36.3542 38.4504C35.5512 39.2556 34.4827 39.6995 33.3471 39.6995ZM30.8975 36.9218L31.3835 37.4085C31.9078 37.9342 32.6053 38.224 33.3464 38.224C34.0875 38.224 34.785 37.9342 35.3101 37.4085C36.394 36.3216 36.394 34.5518 35.3101 33.4649L34.8271 32.9812L30.8975 36.9218Z" fill="#134A85"/>
<path d="M33.3471 39.6995C33.3464 39.6995 33.3464 39.6995 33.3471 39.6995ZM33.3471 39.6995C32.2101 39.6995 31.1423 39.2556 30.3393 38.4504L29.3343 37.4431C29.0474 37.1555 29.0474 36.6895 29.3343 36.4019L34.305 31.4172C34.5815 31.1399 35.0726 31.1392 35.3491 31.4172L36.3542 32.4245C38.0111 34.0858 38.0111 36.7891 36.3542 38.4504C35.5512 39.2556 34.4827 39.6995 33.3471 39.6995ZM30.8975 36.9218L31.3835 37.4085C31.9078 37.9342 32.6053 38.224 33.3464 38.224C34.0875 38.224 34.785 37.9342 35.3101 37.4085C36.394 36.3216 36.394 34.5518 35.3101 33.4649L34.8271 32.9812L30.8975 36.9218Z" stroke="#134A85" stroke-width="0.983182"/>
<path d="M41.0807 43.9306C40.892 43.9306 40.7025 43.8583 40.5587 43.7138L35.31 38.4496C35.0224 38.1613 35.0231 37.6945 35.3114 37.4069C35.5997 37.1186 36.0665 37.1201 36.3541 37.4084L41.6028 42.6726C41.8904 42.9609 41.8897 43.4277 41.6013 43.7152C41.4575 43.859 41.2695 43.9306 41.0807 43.9306Z" fill="#134A85" stroke="#134A85" stroke-width="0.983182"/>
<path d="M64.2894 72.8208C62.9076 72.8208 61.6791 71.9455 61.2322 70.644L58.3535 62.2541C58.085 61.4717 57.3447 60.9467 56.5122 60.9467C55.6797 60.9467 54.9401 61.4717 54.6717 62.2541L51.7922 70.644C51.3461 71.9463 50.1176 72.8208 48.735 72.8208C47.5094 72.8208 46.4048 72.1483 45.8525 71.0651C43.6323 66.7108 42.7054 62.2799 43.0977 57.8954C43.1559 57.2509 42.9148 56.6396 42.4384 56.2163C40.0722 54.117 38.8363 51.0841 39.0465 47.8957C39.3812 42.6919 43.5784 38.5029 48.8102 38.1519C51.6395 37.9535 54.4099 38.9025 56.5115 40.7511C58.613 38.9018 61.3775 37.955 64.2127 38.1519C69.4445 38.5029 73.6424 42.6927 73.9765 47.8972C74.1873 51.0797 72.9515 54.1118 70.586 56.2141C70.1089 56.6389 69.8677 57.2516 69.9253 57.8961C70.3175 62.2806 69.3906 66.7116 67.1704 71.0644C66.6196 72.1483 65.5149 72.8208 64.2894 72.8208ZM56.5122 59.4712C57.9744 59.4712 59.2752 60.3966 59.7478 61.7748L62.6266 70.1647C62.8692 70.8712 63.5373 71.346 64.2887 71.346C64.9472 71.346 65.5629 70.9729 65.8578 70.3948C67.9498 66.2927 68.8243 62.1317 68.4571 58.0281C68.359 56.9294 68.7882 55.8395 69.6067 55.1117C71.6294 53.314 72.686 50.7191 72.5054 47.993C72.2185 43.523 68.6112 39.9245 64.1147 39.6229C61.4682 39.4438 58.8873 40.4134 57.0357 42.2827C56.7592 42.5622 56.2644 42.5622 55.9879 42.2827C54.1371 40.4134 51.5629 39.4474 48.9097 39.6229C44.4132 39.9245 40.8059 43.523 40.519 47.9915C40.3384 50.7236 41.395 53.3192 43.4177 55.1132C44.2362 55.8395 44.6654 56.9287 44.5673 58.0274C44.2001 62.1309 45.0746 66.292 47.1666 70.3948C47.4608 70.9722 48.0772 71.346 48.735 71.346C49.4871 71.346 50.1552 70.8712 50.3971 70.1655L53.2765 61.7748C53.7499 60.3973 55.05 59.4712 56.5122 59.4712Z" fill="#134A85"/>
<path d="M53.9741 62.0144H53.9815M64.2894 72.8208C62.9076 72.8208 61.6791 71.9455 61.2322 70.644L58.3535 62.2541C58.085 61.4717 57.3447 60.9467 56.5122 60.9467C55.6797 60.9467 54.9401 61.4717 54.6717 62.2541L51.7922 70.644C51.3461 71.9463 50.1176 72.8208 48.735 72.8208C47.5094 72.8208 46.4048 72.1483 45.8525 71.0651C43.6323 66.7108 42.7054 62.2799 43.0977 57.8954C43.1559 57.2509 42.9148 56.6396 42.4384 56.2163C40.0722 54.117 38.8363 51.0841 39.0465 47.8957C39.3812 42.6919 43.5784 38.5029 48.8102 38.1519C51.6395 37.9535 54.4099 38.9025 56.5115 40.7511C58.613 38.9018 61.3775 37.955 64.2127 38.1519C69.4445 38.5029 73.6424 42.6927 73.9765 47.8972C74.1873 51.0797 72.9515 54.1118 70.586 56.2141C70.1089 56.6389 69.8677 57.2516 69.9253 57.8961C70.3175 62.2806 69.3906 66.7116 67.1704 71.0644C66.6196 72.1483 65.5149 72.8208 64.2894 72.8208ZM56.5122 59.4712C57.9744 59.4712 59.2752 60.3966 59.7478 61.7748L62.6266 70.1647C62.8692 70.8712 63.5373 71.346 64.2887 71.346C64.9472 71.346 65.5629 70.9729 65.8578 70.3948C67.9498 66.2927 68.8243 62.1317 68.4571 58.0281C68.359 56.9294 68.7882 55.8395 69.6067 55.1117C71.6294 53.314 72.686 50.7191 72.5054 47.993C72.2185 43.523 68.6112 39.9245 64.1147 39.6229C61.4682 39.4438 58.8873 40.4134 57.0357 42.2827C56.7592 42.5622 56.2644 42.5622 55.9879 42.2827C54.1371 40.4134 51.5629 39.4474 48.9097 39.6229C44.4132 39.9245 40.8059 43.523 40.519 47.9915C40.3384 50.7236 41.395 53.3192 43.4177 55.1132C44.2362 55.8395 44.6654 56.9287 44.5673 58.0274C44.2001 62.1309 45.0746 66.292 47.1666 70.3948C47.4608 70.9722 48.0772 71.346 48.735 71.346C49.4871 71.346 50.1552 70.8712 50.3971 70.1655L53.2765 61.7748C53.7499 60.3973 55.05 59.4712 56.5122 59.4712Z" stroke="#134A85" stroke-width="0.983182"/>
</svg>
