<svg width="75" height="75" viewBox="0 0 75 75" fill="none" xmlns="http://www.w3.org/2000/svg">
<path d="M68.5972 45.9864C68.2674 45.8809 67.9181 45.851 67.5752 45.8991C67.2323 45.9472 66.9047 46.072 66.6167 46.2642C66.3207 46.4587 66.073 46.7181 65.8923 47.0227C65.7115 47.3272 65.6026 47.669 65.5737 48.022C65.0206 54.4192 59.7835 57.4146 54.8382 57.547C49.8343 57.6513 44.364 54.9853 43.478 48.6653C43.3515 47.8375 42.9315 47.0828 42.2947 46.5389C41.6579 45.995 40.8467 45.6983 40.0093 45.7028H34.962C35.1718 45.3689 35.3874 45.0349 35.6077 44.6962C36.495 43.4347 37.2397 42.0788 37.8284 40.6532C38.7488 38.3053 38.8128 35.7081 38.0092 33.3177C37.2056 30.9272 35.5857 28.8962 33.4339 27.581C30.1233 25.6075 25.0749 25.2712 20.453 29.8896C15.8311 25.2724 10.7827 25.6075 7.46982 27.581C5.31832 28.8959 3.69859 30.9265 2.89479 33.3164C2.091 35.7064 2.15448 38.3031 3.07412 40.6509C3.66508 42.0772 4.41179 43.4339 5.30068 44.6962C5.61005 45.1708 5.90537 45.6337 6.18779 46.1024C5.06393 46.508 4.09199 47.2494 3.40377 48.2261C2.71555 49.2027 2.34435 50.3674 2.34052 51.5622V66.7966C2.34238 68.35 2.96031 69.8393 4.05875 70.9377C5.15719 72.0362 6.64647 72.6541 8.1999 72.656H66.7937C68.3471 72.6541 69.8364 72.0362 70.9348 70.9377C72.0332 69.8393 72.6512 68.35 72.653 66.7966V51.5622C72.6559 50.3228 72.2645 49.1145 71.5354 48.1122C70.8063 47.1098 69.7773 46.3654 68.5972 45.9864ZM5.27021 39.8247C4.53733 37.9927 4.47652 35.9605 5.09855 34.088C5.72057 32.2155 6.98529 30.6236 8.66865 29.5942C12.489 27.3677 16.2765 28.7282 19.4757 32.2802C19.8334 33.2951 20.5171 34.163 21.4199 34.7486C22.3228 35.3341 23.3941 35.6042 24.4667 35.5169C24.7775 35.5169 25.0756 35.3934 25.2953 35.1737C25.5151 34.9539 25.6386 34.6558 25.6386 34.345C25.6386 34.0342 25.5151 33.7362 25.2953 33.5164C25.0756 33.2966 24.7775 33.1732 24.4667 33.1732C23.9433 33.2556 23.4073 33.1669 22.9384 32.9203C22.4695 32.6737 22.0926 32.2823 21.864 31.8044C25.0784 28.4493 28.9093 27.6126 32.2351 29.5942C33.9139 30.6284 35.1747 32.221 35.7962 34.0923C36.4177 35.9636 36.3601 37.994 35.6335 39.8271C35.1024 41.0927 34.4344 42.2963 33.6413 43.4165C32.4599 45.0235 31.5822 46.8329 31.0515 48.7556C30.8829 49.6119 30.7951 50.4821 30.789 51.3548C30.7913 52.1404 30.7083 52.9238 30.5417 53.6915C30.1409 55.215 29.2526 57.063 27.4351 56.9903C25.2835 56.94 24.6085 54.9196 23.8245 51.8435C23.2386 49.5302 22.5894 46.9134 20.3229 47.0482C18.2429 47.1724 17.6628 49.6052 17.0921 51.8435C16.3081 54.9196 15.6319 56.94 13.4804 56.9903C11.6311 57.0689 10.7745 55.2208 10.3761 53.6915C10.2084 52.9236 10.1251 52.1396 10.1276 51.3536C10.1215 50.4813 10.0336 49.6115 9.86513 48.7556C9.33091 46.8319 8.44877 45.0223 7.2624 43.4165C6.46881 42.2958 5.80074 41.0913 5.27021 39.8247ZM70.3093 66.7966C70.3093 67.729 69.9389 68.6232 69.2796 69.2825C68.6203 69.9418 67.7261 70.3122 66.7937 70.3122H8.1999C7.2675 70.3122 6.37328 69.9418 5.71398 69.2825C5.05467 68.6232 4.68427 67.729 4.68427 66.7966V51.5622C4.68669 50.8006 4.93776 50.0606 5.39932 49.4548C5.86088 48.849 6.50766 48.4105 7.2413 48.206C7.37642 48.552 7.48685 48.9072 7.57177 49.2689C7.70712 49.9864 7.77654 50.7148 7.77919 51.445C7.77967 52.4026 7.88817 53.3571 8.10263 54.2903C8.95927 57.5599 10.9257 59.3974 13.5308 59.34C17.6194 59.2427 18.6237 55.304 19.3573 52.4259C19.6151 51.4157 19.9069 49.4435 20.453 49.4435C20.9991 49.4435 21.2897 51.4157 21.5476 52.4259C22.2811 55.3017 23.2854 59.2403 27.3729 59.34C29.9933 59.4337 31.9433 57.5599 32.8022 54.2903C33.0166 53.3571 33.1251 52.4026 33.1257 51.445C33.1277 50.7168 33.1968 49.9903 33.3319 49.2747C33.4271 48.8556 33.5561 48.4449 33.7175 48.0466H40.0093C40.281 48.0399 40.5462 48.1308 40.7566 48.3028C40.9671 48.4747 41.109 48.7165 41.1565 48.9841C42.237 56.6939 49.021 60.0173 54.9015 59.8825C60.8874 59.7232 67.2308 56.054 67.8753 48.2153C68.584 48.4422 69.202 48.8889 69.6396 49.4907C70.0773 50.0925 70.3118 50.8181 70.3093 51.5622V66.7966Z" fill="#134A85"/>
<path d="M67.5233 4.14359C64.2116 2.17015 59.1631 1.835 54.5401 6.45219C49.9182 1.83617 44.8686 2.17133 41.5592 4.14359C39.4074 5.45819 37.7874 7.48875 36.9835 9.87883C36.1797 12.2689 36.2434 14.8657 37.1635 17.2135C37.754 18.6401 38.5008 19.9968 39.3901 21.2588C40.4154 22.6342 41.1862 24.1821 41.6659 25.8291C41.8 26.5476 41.8675 27.2768 41.8674 28.0077C41.868 28.9652 41.9765 29.9197 42.1909 30.853C43.0452 34.1213 44.9741 35.9541 47.6202 35.9026C51.7089 35.8229 52.712 31.8666 53.4456 28.9885C53.7034 27.9784 53.9952 26.0061 54.5401 26.0061C55.085 26.0061 55.378 27.9784 55.6358 28.9885C56.3694 31.8643 57.3737 35.8065 61.4624 35.9026C64.0674 35.9623 66.0327 34.1225 66.8905 30.853C67.105 29.9197 67.2135 28.9652 67.2139 28.0077C67.2169 27.2794 67.2864 26.553 67.4214 25.8373C67.9006 24.1901 68.6714 22.6421 69.6971 21.267C70.584 20.0052 71.3287 18.6494 71.9178 17.2241C72.8404 14.8751 72.9055 12.2761 72.1018 9.88381C71.2981 7.49155 69.677 5.45909 67.5233 4.14359ZM69.7229 16.3897C69.1923 17.6555 68.5243 18.8592 67.7307 19.9791C66.5456 21.5852 65.6647 23.3947 65.1315 25.3182C64.9631 26.1741 64.8752 27.0439 64.869 27.9162C64.872 28.7042 64.7887 29.4902 64.6206 30.26C64.221 31.7834 63.3315 33.6034 61.5163 33.5588C59.3647 33.5049 58.6885 31.4881 57.9046 28.412C57.3186 26.1315 56.7163 23.6073 54.5378 23.6073C52.3592 23.6073 51.7534 26.1291 51.1721 28.412C50.387 31.4881 49.712 33.4827 47.5616 33.5588C45.7217 33.6233 44.8557 31.7881 44.4549 30.26C44.2883 29.4923 44.2054 28.7088 44.2077 27.9233C44.2016 27.0506 44.1137 26.1804 43.9452 25.3241C43.4119 23.4009 42.5314 21.5914 41.3471 19.985C40.554 18.864 39.886 17.6595 39.3549 16.3932C38.6288 14.5605 38.5714 12.5305 39.1928 10.6597C39.8143 8.78882 41.0749 7.19668 42.7534 6.16273C46.2292 4.0932 50.2592 5.09867 53.5592 8.84633C53.9166 9.86188 54.6003 10.7305 55.5034 11.3165C56.4066 11.9025 57.4784 12.1728 58.5514 12.0854C58.8622 12.0854 59.1603 11.9619 59.3801 11.7422C59.5998 11.5224 59.7233 11.2243 59.7233 10.9135C59.7233 10.6027 59.5998 10.3046 59.3801 10.0849C59.1603 9.8651 58.8622 9.74164 58.5514 9.74164C58.0279 9.82279 57.4922 9.73285 57.024 9.48519C56.5557 9.23754 56.1798 8.84539 55.9522 8.36703C59.1667 5.01195 62.9999 4.1764 66.3233 6.15687C68.0023 7.19089 69.2634 8.78337 69.8851 10.6547C70.5068 12.526 70.4494 14.5565 69.7229 16.3897Z" fill="#134A85"/>
<path d="M55.6614 41.5005L57.1766 43.0158C57.3976 43.2292 57.6937 43.3474 58.0009 43.3447C58.3082 43.342 58.6021 43.2188 58.8194 43.0015C59.0366 42.7842 59.1599 42.4903 59.1626 42.183C59.1652 41.8758 59.0471 41.5798 58.8336 41.3587L55.318 37.8431C55.0983 37.6234 54.8002 37.5 54.4895 37.5C54.1788 37.5 53.8807 37.6234 53.661 37.8431L50.1454 41.3587C49.9319 41.5798 49.8138 41.8758 49.8165 42.183C49.8191 42.4903 49.9424 42.7842 50.1596 43.0015C50.3769 43.2188 50.6708 43.342 50.9781 43.3447C51.2854 43.3474 51.5814 43.2292 51.8024 43.0158L53.3176 41.5005V48.0466C53.3176 48.3574 53.4411 48.6555 53.6609 48.8753C53.8806 49.095 54.1787 49.2185 54.4895 49.2185C54.8003 49.2185 55.0984 49.095 55.3181 48.8753C55.5379 48.6555 55.6614 48.3574 55.6614 48.0466V41.5005Z" fill="#134A85"/>
<path d="M54.4893 53.9062C55.1365 53.9062 55.6611 53.3816 55.6611 52.7344C55.6611 52.0872 55.1365 51.5625 54.4893 51.5625C53.842 51.5625 53.3174 52.0872 53.3174 52.7344C53.3174 53.3816 53.842 53.9062 54.4893 53.9062Z" fill="#134A85"/>
</svg>
