<svg width="75" height="75" viewBox="0 0 75 75" fill="none" xmlns="http://www.w3.org/2000/svg">
<g clip-path="url(#clip0_3460_13820)">
<path d="M17.8638 9.5118C18.0663 10.3408 19.1378 10.6263 19.7265 10.0088L21.3264 8.32888L22.5534 13.2426C22.8915 14.5966 25.0306 14.0939 24.685 12.7102L22.9742 5.85876C22.7681 5.03323 21.6997 4.75142 21.1128 5.36734L19.5211 7.0386L18.184 1.56694C17.8468 0.187313 15.7124 0.708758 16.0497 2.08854L17.8638 9.5118Z" fill="#134A85"/>
<path d="M27.6005 10.5313L29.9198 10.5514L27.1673 14.8014C26.4129 15.9659 28.2559 17.1623 29.0114 15.9958L32.851 10.0673C33.314 9.35265 32.7898 8.37919 31.9385 8.37157L29.6311 8.35165L32.7163 3.6399C33.4943 2.45171 31.6562 1.24799 30.8782 2.43633L26.6911 8.83091C26.2232 9.54541 26.747 10.5237 27.6005 10.5313Z" fill="#134A85"/>
<path d="M73.0322 24.3524L74.7312 22.3902C75.661 21.3165 73.9997 19.8782 73.0702 20.9522L71.0774 23.254H68.685L70.616 19.9083C71.3453 18.6452 70.6284 16.9529 69.2375 16.5801L65.5073 15.5803L67.1992 13.8878L70.2355 14.1057C71.6166 14.2091 71.7715 12.0131 70.3928 11.9143L67.8047 11.7285L67.6189 9.1394C67.5174 7.72227 65.3257 7.88017 65.4275 9.29671L65.6454 12.3341L63.954 14.026L62.9544 10.2951C62.5825 8.90651 60.8852 8.18937 59.6264 8.91632L56.2824 10.8474V8.45449L58.5837 6.46114C59.6572 5.53118 58.2186 3.87017 57.1453 4.80042L55.1839 6.49937L53.2224 4.80042C52.1491 3.87046 50.7104 5.53118 51.7841 6.46114L54.0853 8.45449V10.8477L50.7413 8.91661C49.4782 8.18718 47.7859 8.90446 47.4133 10.2954L46.4138 14.0263L44.7223 12.3344L44.9404 9.297C45.0422 7.88046 42.8508 7.72271 42.749 9.13969L42.563 11.7288L39.9751 11.9146C38.5867 12.0141 38.7799 14.2072 40.1324 14.106L43.1685 13.8881L44.8604 15.5806L42.3956 16.2412C38.4729 15.0136 34.087 15.5192 30.5433 17.5998C27.7749 19.112 25.0829 19.1119 22.3142 17.6C16.5139 14.1933 8.97493 15.2481 4.28413 20.0342C1.61216 22.7604 0.0942614 26.3449 0.00989281 30.1271C-0.140096 36.8627 3.1037 45.0035 6.24086 52.8763C7.01263 54.813 7.74148 56.6423 8.42522 58.4596C8.91547 59.7629 10.9813 59.0146 10.4816 57.686C9.79035 55.8487 9.02342 53.9242 8.28182 52.0629C5.22624 44.3945 2.06638 36.4647 2.20641 30.176C2.27818 26.9539 3.57344 23.8983 5.85315 21.572C9.95601 17.3858 16.1855 16.7324 21.2446 19.5185C24.6849 21.4037 28.1736 21.4037 31.6138 19.5185C33.1711 18.6607 34.7353 18.1293 36.4932 17.9524C36.639 17.9378 39.6 17.9574 39.619 17.9117C39.3484 18.565 39.3968 19.2928 39.7522 19.9083L41.6833 23.254H39.2911L37.2983 20.9522C36.3685 19.8787 34.7075 21.3163 35.6372 22.3902L37.336 24.3524L35.6372 26.3146C34.7175 27.3771 36.3533 28.8439 37.2983 27.7526L39.2911 25.4508H41.6833L39.7523 28.7964C39.023 30.0593 39.74 31.7519 41.1308 32.1247L44.8612 33.1244L43.1691 34.8169L40.133 34.5988C38.7169 34.4923 38.5589 36.6884 39.9757 36.7902L42.5636 36.9762L42.7496 39.5651C42.8488 40.948 45.0443 40.8456 44.941 39.4078L44.7229 36.3705L46.4144 34.6786L47.4138 38.4094C47.5949 39.086 48.093 39.6514 48.7455 39.9218C48.8263 39.9553 48.9082 39.9836 48.9908 40.0073C47.8174 43.9268 46.1736 48.0559 44.5769 52.0629C42.2425 57.9208 40.038 63.4539 39.3229 68.1368C38.4663 73.7451 35.1803 72.1995 33.7109 67.8056C32.6819 64.7286 31.8974 61.5717 30.9894 58.4582C29.5489 53.5202 23.3192 53.489 21.8694 58.4582C20.9614 61.5717 20.1769 64.7288 19.1479 67.8056C17.6785 72.1993 14.3925 73.7451 13.5361 68.1368C13.3265 66.7639 12.9819 65.2662 12.4825 63.5579C12.0838 62.1945 9.9752 62.8111 10.3738 64.1744C10.8455 65.7882 11.1695 67.1926 11.3642 68.4682C11.7163 70.7743 12.4417 73.3843 14.9708 74.0872C18.4995 75.068 20.3165 71.2391 21.2317 68.5025C22.2697 65.3984 23.0624 62.2146 23.9786 59.0736C24.8189 56.193 28.0399 56.193 28.8802 59.0736C29.7962 62.2146 30.589 65.3984 31.6272 68.5025C32.5432 71.2416 34.3495 75.0708 37.888 74.0872C40.4101 73.3862 41.1427 70.7742 41.4946 68.4682C42.1718 64.0336 44.3314 58.614 46.6178 52.8762C48.4029 48.3963 50.2477 43.7651 51.4604 39.3732L54.0858 37.8569V40.25L51.7842 42.2438C50.7107 43.1739 52.1492 44.8342 53.2229 43.9045L55.1842 42.2054L57.1454 43.9045C58.2034 44.8204 59.6679 43.1828 58.5841 42.2438L56.2827 40.2502V37.8571L59.6267 39.7883C60.8911 40.5185 62.5828 39.799 62.9547 38.4094L63.9541 34.6786L65.6456 36.3707L65.4276 39.4079C65.3288 40.7845 67.5155 41.0085 67.619 39.5653L67.8049 36.9763L70.3929 36.7903C71.8095 36.6885 71.6524 34.493 70.2356 34.5989L67.1994 34.817L65.5073 33.1245L69.2377 32.1249C70.6263 31.7528 71.3428 30.0552 70.6161 28.7965C70.3129 28.2709 69.6409 28.0911 69.1157 28.3943C68.5901 28.6975 68.4101 29.3694 68.7135 29.8948C68.734 29.9433 68.7192 29.9793 68.6689 30.0026L63.7139 31.3305L59.8348 27.4505L67.9875 25.4508H71.0774L73.0702 27.7526C74.0152 28.8439 75.651 27.3769 74.7312 26.3146L73.0322 24.3524ZM68.6688 18.7022C68.719 18.7256 68.7338 18.7615 68.7132 18.8099L66.3763 22.8587L59.8348 21.2542L63.7139 17.3741L68.6688 18.7022ZM60.7255 10.8193C60.7737 10.7988 60.8093 10.8136 60.8325 10.8638L62.1602 15.8206L58.2816 19.7003L56.6776 13.1569L60.7255 10.8193ZM49.5357 10.8638C49.559 10.8136 49.5946 10.7988 49.6428 10.8193L53.6906 13.1569L52.0865 19.7003L48.2079 15.8206L49.5357 10.8638ZM41.6487 18.7524C41.6574 18.7319 41.6763 18.7085 41.6995 18.7022L46.6544 17.3741L50.5335 21.2542L43.992 22.8587L41.655 18.8099C41.6412 18.7861 41.6399 18.7738 41.6487 18.7524ZM41.6994 30.0028C41.6495 29.9793 41.6345 29.9434 41.6549 29.8949L43.9919 25.8463L50.5333 27.4507L46.6543 31.3308L41.6994 30.0028ZM48.2079 32.8843L52.0865 29.0047L53.6906 35.5479L49.6429 37.8856C49.6192 37.8994 49.6072 37.9009 49.586 37.8921C49.5654 37.8834 49.5419 37.8646 49.5356 37.841L48.2079 32.8843ZM60.8323 37.841C60.8092 37.8912 60.7736 37.9062 60.7255 37.8856L56.6777 35.5479L58.2818 29.0047L62.1604 32.8843L60.8323 37.841ZM57.4176 25.7812C57.0255 25.8773 56.7085 26.1947 56.6123 26.5867L55.1842 32.4124L53.756 26.5867C53.66 26.1955 53.344 25.8773 52.9507 25.7812L47.1254 24.3524L52.9507 22.9236C53.3428 22.8282 53.6598 22.5095 53.756 22.1181L55.1842 16.2924L56.6123 22.1181C56.7085 22.5099 57.0255 22.8276 57.4176 22.9236L63.243 24.3524L57.4176 25.7812Z" fill="#134A85"/>
<path d="M16.6175 23.1117C16.6175 22.5049 16.1256 22.0132 15.5189 22.0132C10.5879 22.0132 6.57617 26.0249 6.57617 30.956C6.57617 32.3763 8.77327 32.3763 8.77327 30.956C8.77327 27.2363 11.7994 24.2103 15.5189 24.2103C16.1256 24.2103 16.6175 23.7184 16.6175 23.1117Z" fill="#134A85"/>
</g>
<defs>
<clipPath id="clip0_3460_13820">
<rect width="75" height="75" fill="white"/>
</clipPath>
</defs>
</svg>
