<svg width="75" height="75" viewBox="0 0 75 75" fill="none" xmlns="http://www.w3.org/2000/svg">
<path d="M47.3195 10.9355C47.5553 11.5438 47.2528 12.2274 46.6451 12.4629C43.6968 13.6052 40.5991 14.1762 37.5014 14.1762C34.4036 14.1762 31.3054 13.6052 28.3577 12.4629C27.749 12.2275 27.4473 11.5439 27.6827 10.9355C27.9179 10.3281 28.6026 10.026 29.2106 10.2611C34.5567 12.3321 40.446 12.3321 45.7924 10.2611C46.3987 10.026 47.0839 10.3281 47.3195 10.9355ZM64.7139 37.3629L64.4899 37.7539C63.7226 39.0859 63.5631 39.3629 63.8142 40.8847C66.1398 54.9942 61.7773 65.9952 50.8477 73.5824C50.3728 73.9079 49.828 74.0779 49.2677 74.0781C48.5237 74.0781 47.7939 73.7741 47.2661 73.2431C46.7411 72.7155 46.454 72.0116 46.4589 71.2612V54.1975C46.4589 49.2586 42.4404 45.2404 37.5014 45.2404C32.5623 45.2404 28.5437 49.2588 28.5437 54.1975V71.2676C28.5487 72.011 28.2617 72.715 27.7366 73.2428C26.8105 74.1736 25.2522 74.3343 24.1607 73.586C15.528 67.5935 10.971 59.4418 10.6033 49.349C8.11996 46.5931 8.40282 44.313 9.17874 42.806C9.64061 38.72 8.77401 38.1068 8.67176 38.0494C8.52425 37.9666 8.39622 37.8529 8.29588 37.7164C6.93387 35.8536 6.77655 33.8788 7.82874 31.9729C7.44437 30.873 7.13206 29.8143 6.89842 28.8198C5.52425 23.0958 5.71175 17.0609 7.45711 10.8887C7.46605 10.8566 7.47689 10.8245 7.4889 10.7935C9.95965 4.24385 13.9067 0.92334 19.2181 0.92334C22.6678 0.92334 26.7241 2.38276 31.2764 5.26265C35.2371 6.76704 39.7654 6.76704 43.7262 5.26265C48.2786 2.38276 52.3349 0.92334 55.7847 0.92334C61.0962 0.92334 65.0429 4.24385 67.5134 10.7935C67.5258 10.8247 67.5367 10.8567 67.5457 10.8887C70.2035 20.2878 69.2242 29.4424 64.7139 37.3629ZM55.7847 3.28438C54.1219 3.28438 52.2573 3.71108 50.221 4.52817C50.7277 5.71558 51.5104 7.05107 52.4706 7.0124C52.5931 7.00493 52.717 7.01958 52.8356 7.05166C56.1052 7.93364 57.7436 9.41108 57.7065 11.4424C57.701 11.7154 57.6019 11.9782 57.4247 12.1858C56.8171 12.8996 56.7586 13.9405 57.2842 14.717C57.8098 15.4934 58.7956 15.8274 59.6858 15.5287C59.853 15.4725 60.0282 15.4549 60.2042 15.4758C60.9891 15.5709 63.3768 15.8609 63.6161 17.728C63.6194 17.7553 63.6221 17.7827 63.6232 17.8101C63.7351 19.7438 64.9134 21.3978 66.6153 22.1636C66.732 18.7193 66.2977 15.1719 65.2869 11.5802C63.1691 5.99829 60.0607 3.28438 55.7847 3.28438ZM18.0468 3.36436C16.4133 3.57031 14.963 4.21221 13.6903 5.31289C13.9833 6.03359 14.6199 6.58203 15.3922 6.75122C16.3591 6.96348 17.3694 6.54849 17.9073 5.71939C18.3709 5.00689 18.4156 4.11318 18.0468 3.36436ZM11.4969 43.3117C11.4784 43.4689 11.4277 43.6203 11.3491 43.758C10.9035 44.5313 10.5498 45.784 12.3954 47.8051C13.2566 47.9854 13.5925 47.7402 13.7035 47.6563C14.0266 47.4113 14.5779 46.6687 14.6763 44.4431C14.5046 42.8516 15.0044 41.2985 16.1624 39.8258C16.3329 39.6085 16.5743 39.458 16.8446 39.4008C17.5969 39.2409 18.1111 38.5681 18.0673 37.8005C18.0254 37.0687 17.4895 36.4801 16.7772 36.3636C15.4685 36.4871 13.3598 36.0124 12.5744 32.0007C11.5739 29.8648 10.476 29.3798 9.50057 29.4302C9.70829 30.1602 9.95218 30.917 10.2393 31.7C10.3689 32.0557 10.3209 32.4523 10.1097 32.7661C9.31688 33.9415 9.30531 34.9931 10.0814 36.1501C11.5149 37.1617 11.964 39.4518 11.4969 43.3117ZM62.069 48.5267C61.0598 47.8833 59.723 47.9749 58.8175 48.8034C57.7827 49.7504 57.6456 51.3042 58.4984 52.4176C59.2481 53.3967 60.5565 53.7182 61.6654 53.2527C61.9128 51.7366 62.0498 50.1623 62.069 48.5267ZM66.4412 24.617C63.5942 23.71 61.543 21.1871 61.2815 18.1609C61.1571 18.0904 60.8435 17.9538 60.1553 17.8517C58.3418 18.3307 56.3912 17.6108 55.3279 16.0401C54.3148 14.542 54.3216 12.5814 55.2954 11.0965C55.0001 10.2499 53.4422 9.67549 52.379 9.37549C50.6225 9.36216 49.177 8.05889 48.0693 5.5001C47.0483 6.01777 45.9901 6.62114 44.8924 7.31929C44.8275 7.3606 44.7577 7.39561 44.6858 7.42373C42.4005 8.30923 39.9832 8.75791 37.5011 8.75791C35.0189 8.75791 32.6014 8.30923 30.3164 7.42373C30.2442 7.39575 30.1748 7.3606 30.1098 7.31929C26.4909 5.01714 23.2765 3.69702 20.527 3.37095C20.8051 4.59863 20.6003 5.9104 19.8873 7.00669C19.0027 8.36768 17.4785 9.1669 15.8926 9.1669C15.558 9.1669 15.2205 9.1313 14.8864 9.05806C13.7123 8.80098 12.703 8.09741 12.0279 7.14263C11.1547 8.33882 10.3852 9.81509 9.71576 11.5801C8.21122 16.9263 7.96922 22.1454 8.95931 27.1187C10.7029 26.8991 13.0991 27.4364 14.7832 31.1507C14.8229 31.2386 14.8516 31.3306 14.8686 31.4252C15.3743 34.1769 16.3118 34.0467 16.6209 34.0049C16.711 33.9925 16.803 33.9903 16.895 33.9992C18.8287 34.1832 20.3133 35.7251 20.4249 37.6653C20.526 39.4443 19.4425 41.0218 17.797 41.5833C17.1701 42.482 16.919 43.3577 17.0312 44.252C17.0391 44.3155 17.042 44.3798 17.0397 44.4441C16.943 46.9697 16.3191 48.6352 15.1316 49.5367C14.5319 49.993 13.8236 50.223 13.0213 50.2326C13.6124 59.0964 17.8008 66.2962 25.5014 71.6423C25.672 71.7591 25.914 71.7267 26.0622 71.5776C26.1428 71.4964 26.1835 71.3943 26.1824 71.2742V54.1975C26.1824 47.9565 31.2602 42.8791 37.5014 42.8791C43.7425 42.8791 48.8203 47.9564 48.8203 54.1975V71.2676C48.8192 71.3946 48.86 71.4966 48.9403 71.5777C49.0889 71.7261 49.3229 71.7651 49.5068 71.6384C55.6146 67.3982 59.4739 62.1578 61.1325 55.7984C60.9677 55.8147 60.8017 55.8307 60.6374 55.8307C59.1098 55.8307 57.6091 55.1397 56.6243 53.8536C55.0213 51.7609 55.279 48.8407 57.2231 47.0614C58.5485 45.8483 60.3706 45.4716 62.0083 45.934C61.9218 44.4271 61.7485 42.8731 61.4841 41.2689C61.361 40.5251 61.332 39.9408 61.3711 39.4244L57.0088 36.8708C56.6466 36.6588 56.4245 36.271 56.4245 35.8518V31.9694L54.658 31.4498C54.0324 31.266 53.6744 30.6097 53.8587 29.9839C54.0427 29.358 54.7001 29 55.3248 29.1844L57.9384 29.9532C58.4407 30.101 58.786 30.5621 58.786 31.0856V35.1746L62.1292 37.1316C62.2264 36.9543 62.3312 36.7701 62.4438 36.5746L62.6624 36.1941C64.7198 32.5813 65.9797 28.6852 66.4412 24.617ZM32.224 25.949C32.224 27.8079 30.7115 29.3205 28.8522 29.3205C26.993 29.3205 25.4807 27.8081 25.4807 25.949C25.4807 24.09 26.9929 22.5772 28.8522 22.5772C30.7117 22.5772 32.224 24.0898 32.224 25.949ZM29.8626 25.949C29.8626 25.3918 29.4097 24.9387 28.8522 24.9387C28.2957 24.9387 27.842 25.3919 27.842 25.949C27.842 26.506 28.2957 26.9592 28.8522 26.9592C29.4097 26.959 29.8626 26.5058 29.8626 25.949Z" fill="#134A85"/>
</svg>
