<svg width="90" height="91" viewBox="0 0 90 91" fill="none" xmlns="http://www.w3.org/2000/svg">
<path d="M65.7316 0.384277C59.2468 0.384277 53.9916 5.63944 53.9916 12.1243V17.2639C55.2739 16.9486 56.6192 16.7699 58.0065 16.7699C67.5289 16.7699 72.8787 24.6001 73.0048 31.1165C73.0048 38.5473 69.158 44.9376 63.8082 50.487C58.4585 56.026 51.6058 60.7977 45.3521 64.9703C45.2575 65.0333 45.1209 65.0649 44.9948 65.0649V90.3843C44.9948 90.3843 89.9895 80.5676 89.9895 41.301V0.384277H65.7316Z" fill="#54BE95"/>
<path d="M38.9933 27.48C34.6 27.48 32.1406 31.085 32.0775 34.1015C32.0775 37.5279 33.8538 40.4813 36.3132 43.0353C38.7726 45.5893 41.9677 47.7544 44.8266 49.7093C44.9211 49.7724 45.0683 49.7724 45.1629 49.7093C48.0532 47.7859 51.2063 45.5893 53.6763 43.0353C56.1462 40.4813 57.9119 37.5279 57.9119 34.1015C57.8489 31.0955 55.3894 27.48 50.9961 27.48C48.379 27.48 46.0668 28.8358 44.9842 30.5805C43.9332 28.8358 41.6209 27.48 39.0038 27.48H38.9933Z" fill="#30318C"/>
<path d="M44.6374 64.9598C38.4363 60.7241 31.531 56.026 26.1812 50.4765C20.8315 44.9376 16.9847 38.5368 16.9847 31.106C17.1108 24.5791 22.4606 16.7594 31.983 16.7594C33.3703 16.7594 34.7156 16.9381 35.9979 17.2534V12.1138C35.9979 5.63944 30.7427 0.384277 24.2579 0.384277H0V41.2905C0 80.5571 44.9947 90.3843 44.9947 90.3843V65.0649C44.8686 65.0649 44.732 65.0333 44.6374 64.9703" fill="#30318C"/>
</svg>
