<svg width="90" height="91" viewBox="0 0 90 91" fill="none" xmlns="http://www.w3.org/2000/svg">
<path d="M65.7316 0.384277C59.2468 0.384277 53.9916 5.63945 53.9916 12.1243V20.6692C54.6853 20.5641 55.3895 20.4905 56.1042 20.4905C63.7767 20.4905 69.9778 26.6917 69.9778 34.3642C69.9778 34.9528 69.8832 36.235 69.7781 36.8236C69.673 37.0233 69.4838 38.8836 68.3067 41.9421C68.0124 42.5307 67.7181 43.2139 67.4238 43.9076H75.4852C76.0738 43.9076 76.4732 44.4016 76.4732 44.8955C76.4732 45.3895 76.0738 45.8835 75.4852 45.8835H62.3158C62.0215 45.8835 61.7272 45.6838 61.5275 45.4946L56.6087 39.3986L51.6898 45.4946C51.4901 45.7889 51.1958 45.8835 50.9016 45.8835C50.6073 45.8835 50.313 45.6838 50.1133 45.4946L45.1944 39.3986L44.9948 39.6509V42.6463L48.4421 46.7769C48.9361 47.4601 49.819 47.8595 50.7019 47.8595C51.5847 47.8595 52.373 47.4706 52.9616 46.7769L56.3039 42.6463L59.6462 46.7769C60.2347 47.4601 61.023 47.8595 62.011 47.8595H65.2587C61.9164 53.1672 56.0096 59.9569 45.6884 67.2405C45.4887 67.3351 45.2995 67.4402 45.0999 67.4402C45.0683 67.4402 45.0263 67.4192 44.9948 67.4192V90.4158C44.9948 90.4158 89.9895 80.5992 89.9895 41.3325V0.384277H65.7316Z" fill="#54BE95"/>
<path d="M62.3263 45.8625C62.032 45.8625 61.7377 45.6628 61.538 45.4736L56.6192 39.3776L51.7003 45.4736C51.5006 45.7679 51.2064 45.8625 50.9121 45.8625C50.6178 45.8625 50.3235 45.6628 50.1238 45.4736L45.205 39.3776L44.7951 39.8821L40.2861 45.4736C40.0864 45.7259 39.7921 45.8415 39.4978 45.8415C39.2036 45.8415 38.9093 45.7154 38.7096 45.4736L33.7907 39.3776L28.8719 45.4736C28.6722 45.7679 28.3779 45.8625 28.0836 45.8625H14.5148C13.9262 45.8625 13.5268 45.3685 13.5268 44.8745C13.5268 44.7484 13.5478 44.6328 13.6004 44.5172C13.695 44.2859 13.8736 44.0863 14.1154 43.9811C14.231 43.9286 14.3676 43.8971 14.5148 43.8971H22.5762C22.3765 43.5502 22.2083 43.2139 22.0612 42.8776C21.9141 42.5412 21.7879 42.2259 21.6933 41.9316C21.399 41.2169 21.1573 40.5758 20.9681 39.9977C20.3901 38.274 20.2219 37.2125 20.2219 36.9182C20.1273 36.0353 20.0222 35.2471 20.0222 34.3642C20.0222 31.9678 20.6318 29.7081 21.6933 27.7427C22.1243 26.9544 22.6182 26.2187 23.1858 25.5355C25.1617 23.1392 27.926 21.4155 31.0896 20.7743C31.9935 20.5957 32.9289 20.4905 33.8853 20.4905C34.3057 20.4905 34.7262 20.5221 35.1466 20.5641C35.4409 20.5957 35.7246 20.6272 36.0084 20.6692V12.1243C35.9979 5.63944 30.7427 0.384277 24.2579 0.384277H0V41.2905C0 80.5571 44.9948 90.3843 44.9948 90.3843V67.3877C44.8371 67.3666 44.6689 67.2931 44.5113 67.209C36.8387 61.7436 31.5415 56.562 27.968 52.0741C26.7803 50.5816 25.7713 49.1522 24.941 47.8279H28.1887C29.0716 47.8279 29.8599 47.439 30.4484 46.7454L33.7907 42.6148L35.4619 44.6748L37.133 46.7349C37.3748 47.0817 37.7216 47.3445 38.121 47.5336C38.5099 47.7123 38.9618 47.8174 39.4033 47.8174C40.2861 47.8174 41.0744 47.4285 41.663 46.7349L45.0053 42.6043L48.4526 46.7349C48.9466 47.418 49.8295 47.8174 50.7124 47.8174C51.5952 47.8174 52.3835 47.4285 52.9721 46.7349L56.3144 42.6043L59.6567 46.7349C60.2452 47.418 61.0335 47.8174 62.0215 47.8174H65.2692C65.2692 47.8174 65.9629 46.861 66.562 45.852H62.3263V45.8625Z" fill="#30318C"/>
</svg>
