<svg width="91" height="91" viewBox="0 0 91 91" fill="none" xmlns="http://www.w3.org/2000/svg">
<path d="M65.7316 0.384277C59.2572 0.384277 54.0021 5.63944 54.0021 12.1243V17.4531C55.6207 17.1693 57.46 17.1588 59.7933 17.7684C66.7091 19.5762 68.5169 30.3282 65.6475 38.5158C62.7782 46.7138 57.3444 50.7498 57.5651 57.2452C57.7753 63.7406 56.3984 73.9566 52.1418 73.4206C47.8851 72.8846 53.3084 55.3323 45.0157 55.3323V90.3843C45.0157 90.3843 90.0105 80.5676 90.0105 41.301V0.384277H65.7526H65.7316Z" fill="#54BE95"/>
<path d="M50.3971 22.5716C50.3971 22.5716 43.5548 23.4334 39.4768 22.3403C39.4768 22.3403 38.7831 28.2156 44.753 28.121C44.753 28.121 51.1328 28.615 50.3971 22.5821" fill="#30318C"/>
<path d="M37.8687 73.4206C33.612 73.9566 32.2247 63.7406 32.4454 57.2452C32.6556 50.7498 27.2323 46.7138 24.363 38.5158C21.4936 30.3177 23.3014 19.5762 30.2172 17.7684C32.561 17.1588 34.3898 17.1693 36.0084 17.4531V12.1243C36.0084 5.63944 30.7532 0.384277 24.2684 0.384277H0V41.2905C0 80.5571 44.9947 90.3843 44.9947 90.3843V55.3323C36.6916 55.3323 42.1254 72.8951 37.8687 73.4206Z" fill="#30318C"/>
</svg>
