<svg width="90" height="91" viewBox="0 0 90 91" fill="none" xmlns="http://www.w3.org/2000/svg">
<path fill-rule="evenodd" clip-rule="evenodd" d="M38.8778 7.42615C38.8778 7.42615 55.2213 39.4301 52.7514 49.6462C50.2079 60.1355 37.1436 57.4553 37.1436 48.5741C37.1436 39.6929 48.2845 39.3145 38.8778 7.42615Z" fill="#30318C"/>
<path d="M32.1616 48.1748C32.1616 45.6523 32.8974 43.298 34.1481 41.3115H34.1376C33.8433 37.6644 30.7638 41.8896 26.1602 41.8686C24.0897 41.8686 21.6198 40.5338 19.5597 40.3341C15.3451 39.9242 14.9877 41.1013 11.2461 41.774C7.50438 42.4361 7.43081 39.6719 7.43081 39.6719V35.2471H36.0084V12.1243C35.9979 5.63944 30.7427 0.384277 24.2579 0.384277H0V41.2905C0 80.5571 44.9947 90.3843 44.9947 90.3843V61.113C37.8898 61.0604 32.1511 55.2903 32.1511 48.1748M10.9202 54.4179C8.98634 54.4179 7.4203 52.8519 7.4203 50.918C7.4203 48.9841 8.98634 47.418 10.9202 47.418C12.8541 47.418 14.4202 48.9841 14.4202 50.918C14.4202 52.8519 12.8541 54.4179 10.9202 54.4179ZM24.5311 71.6969C22.5972 71.6969 21.0312 70.1309 21.0312 68.197C21.0312 66.2631 22.5972 64.697 24.5311 64.697C26.465 64.697 28.0311 66.2631 28.0311 68.197C28.0311 70.1309 26.465 71.6969 24.5311 71.6969ZM25.8344 59.0635C23.9005 59.0635 22.3345 57.4974 22.3345 55.5635C22.3345 53.6296 23.9005 52.0636 25.8344 52.0636C27.7683 52.0636 29.3343 53.6296 29.3343 55.5635C29.3343 57.4974 27.7683 59.0635 25.8344 59.0635Z" fill="#30318C"/>
<path d="M65.7317 0.384277C59.2468 0.384277 53.9916 5.63944 53.9916 12.1243V35.2365H83.5992V39.6614C83.5992 39.6614 83.5151 42.4256 79.784 41.7635C76.0423 41.1013 75.6849 39.9136 71.4703 40.3236C69.4103 40.5232 66.9403 41.8581 64.8698 41.8581C62.0846 41.8686 59.6146 40.4287 58.0381 40.1028C57.0081 39.8821 55.7468 40.3235 56.2303 41.5743H56.2198C57.3654 43.5082 58.0381 45.7574 58.0381 48.1748C58.0381 55.3218 52.2469 61.1235 45.0894 61.1235C45.0578 61.1235 45.0158 61.1235 44.9843 61.1235V90.3843C44.9843 90.3843 89.979 80.5676 89.979 41.301V0.384277H65.7211H65.7317ZM57.2813 73.0843C55.3474 73.0843 53.7814 71.5182 53.7814 69.5843C53.7814 67.6504 55.3474 66.0844 57.2813 66.0844C59.2152 66.0844 60.7813 67.6504 60.7813 69.5843C60.7813 71.5182 59.2152 73.0843 57.2813 73.0843ZM67.4974 54.4179C65.5635 54.4179 63.9974 52.8519 63.9974 50.918C63.9974 48.9841 65.5635 47.418 67.4974 47.418C69.4313 47.418 70.9973 48.9841 70.9973 50.918C70.9973 52.8519 69.4313 54.4179 67.4974 54.4179ZM76.1474 63.8667C74.2135 63.8667 72.6475 62.3007 72.6475 60.3668C72.6475 58.4329 74.2135 56.8668 76.1474 56.8668C78.0813 56.8668 79.6473 58.4329 79.6473 60.3668C79.6473 62.3007 78.0813 63.8667 76.1474 63.8667Z" fill="#54BE95"/>
</svg>
