<svg width="90" height="91" viewBox="0 0 90 91" fill="none" xmlns="http://www.w3.org/2000/svg">
<path d="M65.7316 0.384277C59.2468 0.384277 53.9916 5.63944 53.9916 12.1243V18.5251C54.5066 17.5687 55.1688 16.6333 56.0621 15.7399C60.4029 11.3991 68.3802 10.758 69.2736 10.6949L72.4477 10.4847L72.2901 13.6588C72.2375 14.4681 71.8066 21.0161 68.4118 25.5565C68.0544 26.04 67.6655 26.4919 67.2451 26.9124C66.089 28.0685 64.8593 28.8673 63.6296 29.4138C64.3443 30.2652 64.9749 31.2006 65.5004 32.2411C66.8352 34.9002 67.4974 38.1794 67.4974 41.5322C67.4974 44.885 66.8037 48.4901 65.4058 51.5065C62.5575 57.6866 58.1432 62.0274 53.2979 63.4253C52.1733 63.7511 51.0487 63.9193 49.9451 63.9193C48.2424 63.9193 46.5818 63.5409 44.9948 62.7946V90.3738C44.9948 90.3738 89.9895 80.5571 89.9895 41.2905V0.384277H65.7316Z" fill="#54BE95"/>
<path d="M63.2407 22.9184C63.9764 22.1827 64.565 21.2157 65.0274 20.1647C65.4899 19.1136 65.8367 17.9785 66.089 16.9275C63.9449 17.432 61.496 18.3149 60.0666 19.7443C58.0591 21.7622 58.2168 23.8012 58.3954 24.6316C59.2047 24.8208 61.1702 24.9889 63.2407 22.9184Z" fill="#54BE95"/>
<path d="M68.3802 14.6257C67.9808 16.2969 67.4238 18.1047 66.6881 19.7653C65.9524 21.4364 65.0169 22.971 63.8503 24.1376C60.5606 27.4273 57.439 27.1646 56.1462 26.8598C55.8624 25.5355 55.6102 22.2983 58.8053 19.0926C61.0756 16.8224 64.9644 15.414 68.3697 14.6152" fill="#30318C"/>
<path d="M44.9947 62.8052C42.3672 64.0454 39.5294 64.2661 36.6916 63.4358C31.8463 62.0379 27.4425 57.6971 24.5837 51.5171C21.8405 45.5472 21.7984 37.6224 24.4891 32.2516C26.1497 28.9619 28.8404 26.5445 32.0775 25.4304C33.3283 24.9995 34.6526 24.7788 35.9979 24.7367V12.1348C35.9979 5.63945 30.7427 0.384277 24.2579 0.384277H0V41.2905C0 80.5571 44.9947 90.3843 44.9947 90.3843V62.8052Z" fill="#30318C"/>
</svg>
