<svg width="90" height="91" viewBox="0 0 90 91" fill="none" xmlns="http://www.w3.org/2000/svg">
<path d="M65.7316 0.384277C59.2468 0.384277 53.9916 5.63945 53.9916 12.1243V22.9815C53.9916 22.9815 53.9916 23.0551 53.9916 23.0866V24.4319C53.9916 26.6181 53.0982 29.109 51.4376 30.6015C49.6613 32.1991 47.759 33.1555 46.5398 35.3732C43.9858 39.9872 46.1088 45.8625 50.7124 48.2273C52.2153 49.0051 54.0336 49.373 55.7048 48.9736C57.5966 48.5321 59.0366 46.9661 60.9915 46.6298C67.4869 45.4946 73.1519 50.4871 73.1519 56.7722V65.6219C70.8502 68.1234 68.2226 70.4567 65.2692 72.6218V62.0379C65.2692 58.8112 62.2212 56.2888 58.8579 57.1926C57.9645 57.4344 57.1972 57.9704 56.5561 58.6221C55.6732 59.5154 54.7273 60.3352 53.7288 61.0815C51.0907 63.0259 48.1268 64.3712 45.0053 65.0964V90.3948C45.0053 90.3948 54.3279 88.3663 64.4809 82.4385C70.3352 79.0331 76.4627 74.335 81.2449 67.9973C86.4055 61.155 90 52.4104 90 41.3115V0.384277H65.7421H65.7316Z" fill="#54BE95"/>
<path d="M52.7829 54.9539C52.1102 55.6371 51.364 56.2782 50.6073 56.8353C47.4121 59.2001 43.6284 60.4403 39.666 60.4403C33.8223 60.4403 28.2728 57.6445 24.8149 52.9569C24.0371 51.9059 22.7233 50.3504 24.3209 49.5516C25.929 48.7528 28.8299 49.436 30.4905 49.7618C33.7697 50.4134 46.9497 54.565 50.9016 54.9014C51.3115 54.9434 51.7319 54.9539 52.1418 54.9539C52.3625 54.9539 52.5832 54.9539 52.7934 54.9434" fill="#30318C"/>
<path d="M39.666 65.6955C32.1721 65.6955 25.0356 62.1115 20.5897 56.0785C16.8376 50.9915 15.282 44.7379 16.228 38.4842C17.1213 32.5144 20.1798 27.2277 24.8675 23.4965C26.423 22.2563 28.2097 21.2998 30.1647 20.9635C32.1826 20.6167 34.1901 20.8164 36.0084 21.5101V12.1243C35.9979 5.63944 30.7427 0.384277 24.2579 0.384277H0V41.2905C0 80.5571 44.9947 90.3738 44.9947 90.3738V65.0754C43.2605 65.4748 41.4738 65.685 39.6555 65.685" fill="#30318C"/>
</svg>
