<svg width="90" height="91" viewBox="0 0 90 91" fill="none" xmlns="http://www.w3.org/2000/svg">
<path d="M65.7316 0.384216C59.2573 0.384216 54.0021 5.63938 54.0021 12.1243V85.3813C54.0021 85.3813 47.7695 79.1592 45.0052 76.4265V90.3737C45.0052 90.3737 90 80.5571 90 41.2904V0.384216H65.7421H65.7316Z" fill="#54BE95"/>
<path d="M46.1824 69.6894V51.6957C46.1824 50.8233 46.8866 50.1191 47.759 50.1191C48.6313 50.1191 49.3355 50.8233 49.3355 51.6957V69.6894C49.3355 70.5617 48.6313 71.2659 47.759 71.2659C46.8866 71.2659 46.1824 70.5617 46.1824 69.6894Z" fill="#30318C"/>
<path d="M43.8806 75.3439C39.0249 70.7089 39.2561 64.1714 41.0323 57.0244C43.9542 45.2528 48.6523 29.0249 35.9453 18.0941L36.0504 18.1257L35.9979 18.0941V12.1243C35.9979 5.63938 30.7427 0.384216 24.2579 0.384216H0V41.2904C0 80.5571 44.9947 90.3842 44.9947 90.3842V76.437C44.5008 75.943 44.1014 75.5541 43.8806 75.3544" fill="#30318C"/>
</svg>
