<svg width="90" height="91" viewBox="0 0 90 91" fill="none" xmlns="http://www.w3.org/2000/svg">
<path d="M65.7316 0.384277C59.2468 0.384277 53.9916 5.63944 53.9916 12.1243V19.3554C53.9916 25.8298 54.8009 34.9318 59.2993 42.2259C68.4013 57.014 62.7047 68.0393 61.8849 71.4026H44.9948V90.3738C44.9948 90.3738 89.9895 80.5571 89.9895 41.2905V0.384277H65.7316Z" fill="#54BE95"/>
<path d="M53.6552 49.7513C53.3084 51.5906 52.3414 52.8098 51.385 54.1236C51.1222 54.3863 50.5126 55.2587 49.2829 56.3938C48.3265 57.3608 46.9181 58.58 44.9947 59.8937C43.0713 58.58 41.6735 57.3608 40.7065 56.3938C39.5714 55.2587 38.8672 54.3863 38.6044 54.1236C37.648 52.8098 36.681 51.5906 36.3342 49.7513C36.0715 48.4375 36.2501 47.6492 36.3342 47.481C36.4183 47.0396 36.6811 46.1672 37.5639 45.379C38.3522 44.6748 39.2246 44.5907 39.666 44.5066C41.4107 44.3279 42.8191 45.2949 43.1659 45.5576C44.217 46.3459 44.7425 47.3024 45.0052 47.9225C45.268 47.3129 45.6989 46.3459 46.8445 45.5576C47.1914 45.2949 48.5893 44.3384 50.3445 44.5066C50.7859 44.5907 51.6583 44.6853 52.4466 45.379C53.3189 46.0832 53.5817 47.0396 53.6763 47.481C53.7603 47.6597 53.939 48.448 53.6763 49.7513" fill="#30318C"/>
<path d="M46.5818 52.1897H43.4182V71.4131H46.5818V52.1897Z" fill="#30318C"/>
<path d="M47.0863 36.0038C47.0863 37.1599 46.1509 38.0953 44.9948 38.0953C43.8386 38.0953 42.9032 37.1599 42.9032 36.0038C42.9032 34.8477 43.8386 33.9122 44.9948 33.9122C46.1509 33.9122 47.0863 34.8477 47.0863 36.0038Z" fill="#30318C"/>
<path d="M36.66 71.4131H28.1046C27.2848 68.0498 21.5882 57.0245 30.6902 42.2364C35.1781 34.9317 35.9979 25.8403 35.9979 19.3659V12.1348C35.9979 5.64994 30.7427 0.394775 24.2579 0.394775H0V41.301C0 80.5676 44.9947 90.3948 44.9947 90.3948V71.4236H36.66V71.4131Z" fill="#30318C"/>
</svg>
