<svg width="90" height="91" viewBox="0 0 90 91" fill="none" xmlns="http://www.w3.org/2000/svg">
<path d="M42.714 67.4507H35.6405C32.0986 67.4507 29.2082 64.5919 29.1662 61.0604V34.259C29.6707 32.5984 31.1421 31.0218 32.5925 29.7186C34.3373 28.142 35.9979 25.8823 35.9979 23.528V21.8884V19.3764H34.085C34.085 19.3764 34.064 19.3764 34.0535 19.3764H32.9184C31.8884 19.3764 31.058 18.5356 31.058 17.5161V14.9305C31.058 13.9005 31.8989 13.0702 32.9184 13.0702H35.9979V12.1243C35.9979 5.63938 30.7427 0.384216 24.2579 0.384216H0V41.2904C0 80.5571 44.9947 90.3737 44.9947 90.3737V67.4402H42.714V67.4507Z" fill="#30318C"/>
<path d="M65.7316 0.384216C59.2573 0.384216 54.0021 5.63938 54.0021 12.1243V13.0702H56.8504C57.8804 13.0702 58.7107 13.9005 58.7107 14.9305V17.5161C58.7107 18.5461 57.8699 19.3764 56.8504 19.3764H55.7048C55.7048 19.3764 55.6838 19.3764 55.6733 19.3764H53.9916V22.0881V23.5385C53.9916 25.8928 55.421 28.1525 57.1657 29.7291C58.6161 31.0324 60.0666 32.5984 60.5711 34.2695V36.7815C60.5816 36.9497 60.5921 37.1073 60.5921 37.265V46.1567C57.8909 46.6822 55.8519 49.0576 55.8519 51.8954V61.0709V67.4612H44.9948V90.3947C44.9948 90.3947 89.9895 80.5781 89.9895 41.301V0.384216H65.7316ZM65.059 66.4942C65.059 68.3335 63.556 69.8365 61.7167 69.8365C59.8774 69.8365 58.3744 68.3335 58.3744 66.4942V60.4403H65.0695V66.4942H65.059ZM65.059 57.9283H58.3639V51.8849C58.3639 50.0456 59.8669 48.5426 61.7062 48.5426C63.5455 48.5426 65.0485 50.0456 65.0485 51.8849V57.9283H65.059Z" fill="#54BE95"/>
<path d="M54.1177 42.5938H35.6511V48.5636H54.1177V42.5938Z" fill="#30318C"/>
<path d="M47.8641 36.3506H41.8942V54.8172H47.8641V36.3506Z" fill="#30318C"/>
</svg>
