<svg width="90" height="90" viewBox="0 0 90 90" fill="none" xmlns="http://www.w3.org/2000/svg">
<path d="M35.7562 80.5407L30.8794 78.4071L36.8177 68.7691L33.6541 66.9403L27.5161 76.9356L22.2714 74.6444C29.0085 61.5065 26.5281 63.0515 26.9275 52.9931C27.0011 45.3311 36.9754 45.2785 44.9842 51.3115V43.6389C34.9153 44.9842 26.0972 39.9183 29.9019 33.1811C34.2427 26.0026 35.7036 21.1363 35.9769 16.5012V12.749C35.9138 11.6139 35.8192 10.4473 35.7036 9.24909C34.579 3.95189 29.8809 0 24.2579 0H0V40.9062C0 80.1728 44.9947 89.9895 44.9947 89.9895V73.0048C38.9828 77.4401 35.7562 80.5302 35.7562 80.5302" fill="#213C73"/>
<path d="M81.781 44.9632C81.3606 40.5699 84.5768 36.6495 88.9596 36.2291C89.3064 36.1976 89.6533 36.1976 89.9896 36.2081V0H65.7318C59.2469 0 53.9917 5.25517 53.9917 11.74V19.1078C54.5067 21.5987 55.1268 23.8374 55.8941 25.5822C60.0667 35.094 55.6524 42.0308 45.4153 43.5653C45.2786 43.5864 45.1315 43.5969 44.9949 43.6179V51.2904C45.1841 51.4271 45.3627 51.5742 45.5519 51.7214C53.6449 58.1747 54.0127 66.3833 45.636 72.5318C45.4153 72.6895 45.2051 72.8471 44.9949 73.0048V89.9895C44.9949 89.9895 81.1925 82.0857 88.6548 52.1208C85.0708 51.6268 82.1489 48.7259 81.781 44.9527V44.9632ZM67.7497 52.0051C66.8564 52.0892 66.0576 51.4376 65.9735 50.5337L65.8999 49.819L60.8865 50.3025C60.3715 50.355 59.909 49.9766 59.8565 49.4511L59.7619 48.5052L50.6074 49.3881C49.8296 49.4616 49.1359 48.8836 49.0624 48.1058C48.9888 47.3175 49.5564 46.6238 50.3341 46.5503L59.4886 45.6674L59.394 44.711C59.3415 44.196 59.7199 43.7335 60.2349 43.681L65.2483 43.1975L65.1747 42.4828C65.0906 41.5789 65.7423 40.7906 66.6357 40.696L80.8141 39.3402C79.8787 41.0639 79.4267 43.0714 79.6264 45.1629C79.8261 47.2545 80.6564 49.1358 81.8967 50.6493L67.7182 52.0051H67.7497Z" fill="#27BCB8"/>
<path d="M76.0633 44.4377L71.134 44.9001C70.5454 44.9527 70.1145 45.4782 70.1775 46.0668C70.2301 46.6554 70.7556 47.0863 71.3442 47.0337L76.2735 46.5713C76.8621 46.5187 77.293 45.9932 77.23 45.4046C77.1774 44.8161 76.6519 44.3851 76.0633 44.4377Z" fill="#27BCB8"/>
<path d="M89.3484 40.2021C87.1308 40.4123 85.5017 42.3882 85.7119 44.5954C85.901 46.5818 87.5196 48.0743 89.4535 48.2109C89.8109 45.8987 90.0001 43.4708 90.0001 40.9168V40.2126C89.7899 40.2021 89.5692 40.1916 89.3484 40.2126V40.2021Z" fill="#27BCB8"/>
</svg>
