<svg width="90" height="91" viewBox="0 0 90 91" fill="none" xmlns="http://www.w3.org/2000/svg">
<path d="M35.7562 80.9249L30.8794 78.7913L36.8177 69.1533L33.6541 67.3245L27.5161 77.3199L22.2714 75.0286C29.0085 61.8907 26.5281 63.4357 26.9275 53.3773C27.0011 45.7153 36.9754 45.6627 44.9842 51.6957V44.0231C34.9153 45.3685 26.0972 40.3025 29.9019 33.5653C34.2427 26.3868 35.7036 21.5205 35.9769 16.8854V13.1333C35.9138 11.9981 35.8192 10.8315 35.7036 9.63331C34.579 4.3361 29.8809 0.384216 24.2579 0.384216H0V41.2904C0 80.5571 44.9947 90.3737 44.9947 90.3737V73.389C38.9828 77.8244 35.7562 80.9144 35.7562 80.9144" fill="#30318C"/>
<path d="M81.781 45.3474C81.3606 40.9541 84.5768 37.0338 88.9596 36.6133C89.3064 36.5818 89.6533 36.5818 89.9896 36.5923V0.384216H65.7317C59.2469 0.384216 53.9917 5.63938 53.9917 12.1243V19.492C54.5067 21.983 55.1268 24.2217 55.8941 25.9664C60.0667 35.4782 55.6523 42.415 45.4153 43.9496C45.2786 43.9706 45.1315 43.9811 44.9948 44.0021V51.6746C45.184 51.8113 45.3627 51.9584 45.5519 52.1056C53.6448 58.5589 54.0127 66.7675 45.636 72.916C45.4153 73.0737 45.205 73.2313 44.9948 73.389V90.3737C44.9948 90.3737 81.1924 82.4699 88.6548 52.505C85.0707 52.011 82.1489 49.1101 81.781 45.3369V45.3474ZM67.7497 52.3894C66.8563 52.4734 66.0576 51.8218 65.9735 50.9179L65.8999 50.2032L60.8865 50.6867C60.3715 50.7392 59.909 50.3609 59.8565 49.8353L59.7619 48.8894L50.6074 49.7723C49.8296 49.8459 49.1359 49.2678 49.0623 48.49C48.9888 47.7017 49.5563 47.0081 50.3341 46.9345L59.4886 46.0516L59.394 45.0952C59.3414 44.5802 59.7198 44.1177 60.2348 44.0652L65.2483 43.5817L65.1747 42.867C65.0906 41.9631 65.7422 41.1748 66.6356 41.0802L80.8141 39.7244C79.8786 41.4481 79.4267 43.4556 79.6264 45.5471C79.8261 47.6387 80.6564 49.52 81.8966 51.0335L67.7182 52.3894H67.7497Z" fill="#54BE95"/>
<path d="M76.0633 44.8219L71.1339 45.2844C70.5454 45.3369 70.1144 45.8624 70.1775 46.451C70.2301 47.0396 70.7556 47.4705 71.3441 47.418L76.2735 46.9555C76.8621 46.903 77.293 46.3774 77.2299 45.7889C77.1774 45.2003 76.6519 44.7694 76.0633 44.8219Z" fill="#54BE95"/>
<path d="M89.3485 40.5863C87.1308 40.7965 85.5017 42.7724 85.7119 44.9796C85.9011 46.9661 87.5197 48.4585 89.4536 48.5952C89.8109 46.2829 90.0001 43.855 90.0001 41.301V40.5968C89.7899 40.5863 89.5692 40.5758 89.3485 40.5968V40.5863Z" fill="#54BE95"/>
</svg>
