<svg width="90" height="91" viewBox="0 0 90 91" fill="none" xmlns="http://www.w3.org/2000/svg">
<path d="M65.7316 0.384277C59.2573 0.384277 54.0021 5.63944 54.0021 12.1243V14.9201C59.1101 15.1618 63.1776 19.3659 63.1776 24.5265C63.1776 24.5896 63.1776 24.6421 63.1776 24.7052C61.2437 24.6211 57.9645 25.0941 55.3474 27.3958C52.8144 29.624 51.5322 32.9558 51.5322 37.3176H53.6342C53.6342 33.5864 54.6748 30.7802 56.7348 28.9724C59.0576 26.9229 62.1056 26.6811 63.4614 26.8283C68.149 27.4694 71.7751 31.4844 71.7751 36.3506C71.7751 39.0728 70.64 41.5322 68.8112 43.2875C71.6805 44.9586 73.6144 48.0486 73.6144 51.6117C73.6144 56.9299 69.3051 61.2391 63.9869 61.2391C63.535 61.2391 63.104 61.1971 62.6731 61.134C59.2573 60.5244 56.7978 59.1055 55.3895 56.9089C53.6973 54.2603 53.939 51.1492 54.2964 49.8669L52.2784 49.2889C51.7844 51.002 51.5217 54.7648 53.6132 58.044C55.421 60.8607 58.5005 62.616 62.7572 63.2886C62.6416 68.5123 58.3849 72.7059 53.1403 72.7059C49.7034 72.7059 46.7079 70.8876 45.0052 68.1864V90.3843C45.0052 90.3843 90 80.5676 90 41.301V0.384277H65.7421H65.7316Z" fill="#54BE95"/>
<path d="M44.9947 21.0896H42.5879V71.6548H44.9947V21.0896Z" fill="#30318C"/>
<path d="M36.8597 72.7059C31.6151 72.7059 27.3584 68.5123 27.2428 63.2886C31.4995 62.6265 34.579 60.8607 36.3868 58.044C38.4888 54.7753 38.2156 51.002 37.7216 49.2889L35.7036 49.8669C36.0715 51.1492 36.3132 54.2603 34.621 56.9089C33.2127 59.1055 30.7532 60.5139 27.3374 61.134C26.9065 61.1971 26.465 61.2391 26.0236 61.2391C20.7054 61.2391 16.3961 56.9299 16.3961 51.6117C16.3961 48.0592 18.33 44.9586 21.1993 43.2875C19.3811 41.5322 18.2459 39.0833 18.2459 36.3506C18.2459 31.4844 21.8615 27.4694 26.5596 26.8283C27.9049 26.6706 30.9634 26.9229 33.2862 28.9724C35.3463 30.7802 36.3868 33.5864 36.3868 37.3176H38.4888C38.4888 32.9558 37.2066 29.624 34.6736 27.3958C32.0565 25.0941 28.7773 24.6211 26.8539 24.7052C26.8539 24.6421 26.8434 24.5896 26.8434 24.5265C26.8434 19.3554 30.9214 15.1513 36.0189 14.9201V12.1243C36.0189 5.63944 30.7638 0.384277 24.2789 0.384277H0V41.2905C0 80.5571 44.9947 90.3738 44.9947 90.3843V68.1864C43.2921 70.8981 40.2966 72.7059 36.8597 72.7059Z" fill="#30318C"/>
</svg>
