<svg width="90" height="91" viewBox="0 0 90 91" fill="none" xmlns="http://www.w3.org/2000/svg">
<path d="M65.7316 0.384277C59.2467 0.384277 53.9916 5.63944 53.9916 12.1243V16.4756C61.8008 19.5446 67.7496 26.6916 68.6955 35.2681C68.8637 36.8341 68.8532 38.4002 68.8532 39.9767C68.8532 41.5533 68.7796 42.3415 69.3051 43.855L71.5123 50.6342L66.8562 50.7288V57.1926C66.8667 57.7707 66.8983 58.3698 66.8247 58.9374C66.4779 61.4809 64.5334 62.2586 62.3053 62.2691H55.2423V71.9071H44.9842V90.3843C44.9842 90.3843 89.979 80.5676 89.979 41.301V0.384277H65.7211H65.7316Z" fill="#54BE95"/>
<path d="M30.6166 31.4423C30.6166 34.5954 33.1811 37.16 36.3342 37.16H37.3432L35.2307 40.3446C35.0205 40.6494 34.9048 41.0278 34.9048 41.4167C34.9048 42.4782 35.7772 43.3506 36.8387 43.3506H37.564C38.1315 43.3506 38.6675 43.0983 39.0354 42.6779L40.8852 40.5233C41.1585 40.208 41.5474 40.0188 41.9678 40.0188H47.759C49.4406 40.0188 50.828 38.7786 51.0592 37.16H53.9496C56.5772 37.16 58.7107 35.0159 58.7107 32.3988C58.7107 30.8853 57.996 29.4769 56.7874 28.5835C56.7874 28.4259 56.7979 28.2682 56.7979 28.1211C56.7979 15.9816 35.546 18.7143 33.0235 26.7968C31.4995 27.8688 30.6061 29.5925 30.6061 31.4529L30.6166 31.4423Z" fill="#30318C"/>
<path d="M33.5385 71.9176L33.591 62.3637C33.5595 59.5995 32.004 56.8668 30.1016 54.9329C29.5551 54.3759 28.9244 53.9134 28.3569 53.3669C23.9005 49.0156 21.4726 42.1524 22.0402 35.9513C22.8179 27.3853 28.3779 19.944 35.9979 16.6858V12.1138C35.9979 5.62895 30.7427 0.373779 24.2579 0.373779H0V41.28C0 80.5466 44.9947 90.3738 44.9947 90.3738V71.8966H33.5385V71.9176Z" fill="#30318C"/>
</svg>
