<svg width="90" height="91" viewBox="0 0 90 91" fill="none" xmlns="http://www.w3.org/2000/svg">
<path d="M65.7316 0.384277C59.2468 0.384277 53.9916 5.63944 53.9916 12.1243V24.6211C67.6971 28.8252 74.4027 41.5112 74.4027 41.5112C74.4027 41.5112 63.7452 59.7466 44.9948 59.7466V90.3843C44.9948 90.3843 89.9895 80.5676 89.9895 41.301V0.384277H65.7316Z" fill="#54BE95"/>
<path d="M44.9947 30.507C38.8567 30.507 33.9904 35.4994 33.9904 41.5113C33.9904 47.5232 38.9828 52.5156 44.9947 52.5156C51.0067 52.5156 55.9991 47.5232 55.9991 41.5113C55.9991 35.4994 51.1328 30.507 44.9947 30.507Z" fill="#30318C"/>
<path d="M15.5868 41.5112C15.5868 41.5112 22.2924 28.8358 35.9979 24.6211V12.1243C35.9979 5.63944 30.7427 0.384277 24.2579 0.384277H0V41.2905C0 80.5571 44.9947 90.3843 44.9947 90.3843V59.7466C26.2443 59.7466 15.5868 41.5112 15.5868 41.5112Z" fill="#30318C"/>
</svg>
