<svg width="90" height="91" viewBox="0 0 90 91" fill="none" xmlns="http://www.w3.org/2000/svg">
<path d="M65.7316 0.384216C59.2468 0.384216 53.9916 5.63938 53.9916 12.1243V19.492C54.5066 21.983 55.1267 24.2217 55.894 25.9664C60.0666 35.4782 55.6522 42.4045 45.4152 43.9496C45.2785 43.9706 45.1314 43.9811 44.9947 44.0021V51.6746C45.1839 51.8113 45.3731 51.9584 45.5518 52.1056C53.6448 58.5589 54.0126 66.7675 45.6359 72.916C45.4152 73.0737 45.205 73.2313 44.9947 73.389V90.3737C44.9947 90.3737 89.9895 80.5571 89.9895 41.2799V0.384216H65.7316ZM62.9464 51.6116C62.2317 54.2917 59.478 55.8788 56.7979 55.1641C54.1177 54.4494 46.9076 50.1822 47.6223 47.502C48.337 44.8219 56.7243 44.7378 59.4044 45.463C62.0846 46.1777 63.6716 48.9315 62.9569 51.6116" fill="#54BE95"/>
<path d="M35.7562 80.9249L30.8794 78.7913L36.8177 69.1533L33.6541 67.3245L27.5161 77.3199L22.2714 75.0286C29.0085 61.8907 26.5281 63.4357 26.9275 53.3773C27.0011 45.7153 36.9754 45.6627 44.9842 51.6957V44.0231C34.9153 45.3685 26.0972 40.3025 29.9124 33.5653C34.2532 26.3868 35.7141 21.5205 35.9874 16.8854V13.1333C35.9243 11.9981 35.8297 10.8315 35.7141 9.6228C34.579 4.3361 29.8809 0.384216 24.2579 0.384216H0V41.2904C0 80.5571 44.9947 90.3842 44.9947 90.3842V73.3995C38.9828 77.8349 35.7562 80.9249 35.7562 80.9249Z" fill="#30318C"/>
</svg>
