<svg width="90" height="91" viewBox="0 0 90 91" fill="none" xmlns="http://www.w3.org/2000/svg">
<path d="M65.7316 0.384277C59.2573 0.384277 54.0021 5.63944 54.0021 12.1243V24.8418C61.4329 27.3012 67.1085 33.9333 67.9178 42.2259C67.9598 42.6358 67.9808 43.0352 68.0019 43.4451C68.0544 45.4 66.5199 47.0291 64.565 47.0817C62.6416 47.1342 61.023 45.6418 60.9284 43.7184C60.7182 38.1479 57.0711 33.3026 51.7844 31.5579C50.9541 31.2847 50.0712 31.7366 49.798 32.5564C49.7454 32.7141 49.7139 32.8822 49.7139 33.0504L49.7664 81.0091C49.7664 83.3949 47.822 85.3288 45.4362 85.3288C45.2785 85.3288 45.1419 85.2973 44.9948 85.2868V90.3843C44.9948 90.3843 89.9895 80.5676 89.9895 41.301V0.384277H65.7316Z" fill="#54BE95"/>
<path d="M49.8505 20.375C51.5952 17.5161 50.5127 13.7219 47.3911 12.261C44.9527 11.1153 41.9678 11.9141 40.3912 14.1003C40.2756 14.2684 40.1705 14.4366 40.0654 14.6048C38.5729 17.2324 39.3927 20.6903 41.9573 22.2878C44.6374 23.9695 48.1689 23.1287 49.819 20.4275C49.8295 20.4065 49.84 20.3855 49.8505 20.3644" fill="#30318C"/>
<path d="M41.1269 81.0196L41.1059 58.601C41.1059 57.8023 40.5068 57.1296 39.7186 57.035L31.2998 56.047C30.9529 56.005 30.6376 56.2467 30.5956 56.5936C30.5746 56.7197 30.5956 56.8563 30.6692 56.9719L34.4529 63.7721C35.588 65.8742 34.7997 68.4913 32.6977 69.6264C30.6376 70.7405 28.0626 70.0048 26.8959 67.9658L18.9291 53.6297C17.6258 51.2859 18.4667 48.3219 20.821 47.0187C21.7144 46.5247 22.7444 46.3145 23.7534 46.4406L35.9243 47.87L35.9033 31.085C35.9033 30.4123 35.4829 29.8237 34.8418 29.603C27.0851 26.9334 21.872 19.6497 21.851 11.4412C21.893 9.48625 23.5116 7.94123 25.4665 7.98327C27.3479 8.02532 28.8719 9.5388 28.9244 11.4096C28.9455 16.2969 31.8253 20.5011 35.9874 22.435V12.1033C35.9874 5.61845 30.7322 0.363281 24.2473 0.363281H0V41.2695C0 80.5361 44.9947 90.3633 44.9947 90.3633V85.2658C42.8296 85.0345 41.1269 83.2268 41.1269 80.9986" fill="#30318C"/>
</svg>
