<svg width="90" height="91" viewBox="0 0 90 91" fill="none" xmlns="http://www.w3.org/2000/svg">
<path d="M36.1661 75.1758L35.7141 72.6007C35.6405 72.2013 35.3988 71.8545 35.0309 71.6653C34.6736 71.4866 34.2427 71.4761 33.8748 71.6443C33.2967 71.9176 32.6346 72.0752 31.9199 72.0752C30.9109 72.0752 30.028 71.4341 29.3659 70.6353C28.6617 69.784 28.1887 68.7224 28.1887 67.829C28.1887 67.1143 28.6617 66.8095 29.3133 66.6203C30.0385 66.4101 30.9529 66.3576 31.9304 66.3576C32.6451 66.3576 33.3073 66.5152 33.8853 66.7885C34.2532 66.9672 34.6736 66.9567 35.0415 66.7675C35.3988 66.5783 35.6511 66.242 35.7246 65.8426L36.1766 63.2676H45.0053V59.6625H36.5865L35.6826 56.9088C35.567 56.5514 35.3042 56.2677 34.9679 56.1205C34.621 55.9734 34.2322 55.9839 33.8958 56.1415C33.3178 56.4148 32.6556 56.5725 31.9409 56.5725C30.9319 56.5725 30.0385 55.9313 29.3869 55.1326C28.6827 54.2812 28.2097 53.2197 28.2097 52.3263C28.2097 51.6221 28.6827 51.3068 29.3343 51.1176C30.0596 50.9074 30.974 50.8548 31.9514 50.8548C32.6661 50.8548 33.3283 51.0125 33.9063 51.2858C34.2742 51.4644 34.6946 51.4539 35.0625 51.2647C35.4198 51.0756 35.6721 50.7287 35.7456 50.3293L36.1871 47.7543H45.0158V44.4015H36.1871L35.7351 41.8265C35.6616 41.4271 35.4198 41.0802 35.052 40.891C34.6946 40.7019 34.2637 40.7019 33.8958 40.87C33.3178 41.1433 32.6556 41.3009 31.9409 41.3009C30.9319 41.3009 30.049 40.6598 29.3869 39.861C28.6827 39.0097 28.2097 37.9482 28.2097 37.0548C28.2097 36.3506 28.6827 36.0353 29.3343 35.8461C30.0596 35.6359 30.974 35.5833 31.9514 35.5833C32.6661 35.5833 33.3283 35.741 33.9063 36.0143C34.2742 36.1929 34.6946 36.1824 35.0625 35.9932C35.4198 35.804 35.6721 35.4572 35.7456 35.0578L36.1976 32.4828H45.0263V29.1405H36.6075L36.0294 27.3748L35.7036 26.3868C35.588 26.0294 35.3252 25.7457 34.9889 25.5985C34.6421 25.4514 34.2532 25.4619 33.9169 25.6195C33.3388 25.8928 32.6766 26.0505 31.9619 26.0505C30.9529 26.0505 30.0596 25.4093 29.4079 24.6105C28.7037 23.7592 28.2308 22.6977 28.2308 21.8043C28.2308 21.1001 28.7037 20.7848 29.3554 20.5956C30.0806 20.3854 30.995 20.3328 31.9724 20.3328C32.6871 20.3328 33.3493 20.4905 33.9274 20.7638C34.2952 20.9424 34.7156 20.9319 35.0835 20.7427C35.4408 20.5536 35.6931 20.2067 35.7667 19.8073L36.0399 18.2097V12.1137C35.9979 5.63938 30.7427 0.384216 24.2579 0.384216H0V41.2904C0 80.5571 44.9947 90.3737 44.9947 90.3737V75.1653H36.1661V75.1758Z" fill="#30318C"/>
<path d="M65.7316 0.384216C59.2467 0.384216 53.9916 5.63938 53.9916 12.1243V17.9995L54.5066 19.9334C54.6012 20.3013 54.8639 20.6166 55.2108 20.7743C55.5576 20.9319 55.9675 20.9319 56.3144 20.7743C56.8924 20.501 57.5546 20.3433 58.2693 20.3433C59.2467 20.3433 60.1506 20.3959 60.8864 20.6061C61.5275 20.7848 62.011 21.1001 62.011 21.8148C62.011 22.7082 61.538 23.7697 60.8338 24.6211C60.1717 25.4198 59.2888 26.061 58.2798 26.061C57.5651 26.061 56.9029 25.9033 56.3249 25.63C55.9675 25.4619 55.5471 25.4619 55.1898 25.63C54.8324 25.8087 54.5802 26.1345 54.4961 26.5234L53.939 29.151H44.9842V32.5038H53.7814L54.5066 35.1945C54.6012 35.5623 54.8639 35.8776 55.2108 36.0353C55.5576 36.1929 55.9675 36.1929 56.3144 36.0353C56.8924 35.762 57.5546 35.6044 58.2693 35.6044C59.2467 35.6044 60.1506 35.6569 60.8864 35.8671C61.5275 36.0458 62.011 36.3611 62.011 37.0758C62.011 37.9692 61.538 39.0307 60.8338 39.8821C60.1717 40.6808 59.2888 41.322 58.2798 41.322C57.5651 41.322 56.9029 41.1643 56.3249 40.8911C55.978 40.7229 55.5786 40.7229 55.2213 40.8911C54.8745 41.0487 54.6117 41.3535 54.5171 41.7319L53.7919 44.4225H44.9947V47.7753H53.7919L54.5171 50.466C54.6117 50.8338 54.8745 51.1491 55.2213 51.3068C55.5681 51.4645 55.978 51.4645 56.3249 51.3068C56.9029 51.0335 57.5651 50.8759 58.2798 50.8759C59.2573 50.8759 60.1611 50.9284 60.8969 51.1386C61.538 51.3173 62.0215 51.6431 62.0215 52.3473C62.0215 53.2407 61.5485 54.3022 60.8443 55.1536C60.1822 55.9524 59.2993 56.5935 58.2903 56.5935C57.5756 56.5935 56.9135 56.4358 56.3354 56.1626C55.978 55.9944 55.5576 55.9944 55.2003 56.1626C54.8429 56.3412 54.5907 56.6671 54.5066 57.0559L53.9495 59.6835H44.9947V63.2886H53.7919L54.5171 65.9792C54.6117 66.3471 54.8745 66.6624 55.2213 66.8201C55.5681 66.9777 55.978 66.9777 56.3249 66.8201C56.9029 66.5468 57.5651 66.3891 58.2798 66.3891C59.2573 66.3891 60.1611 66.4417 60.8969 66.6519C61.538 66.8411 62.0215 67.1459 62.0215 67.8606C62.0215 68.754 61.5485 69.8155 60.8443 70.6668C60.1822 71.4656 59.2993 72.1068 58.2903 72.1068C57.5756 72.1068 56.9135 71.9491 56.3354 71.6758C55.9885 71.5077 55.5892 71.5077 55.2318 71.6758C54.885 71.8335 54.6222 72.1488 54.5276 72.5166L53.8024 75.2073H45.0052V90.4158C45.0052 90.4158 90 80.5991 90 41.3325V0.384216H65.7421H65.7316Z" fill="#54BE95"/>
</svg>
