<svg width="90" height="91" viewBox="0 0 90 91" fill="none" xmlns="http://www.w3.org/2000/svg">
<path d="M40.1917 33.4813C39.7502 33.208 39.3508 32.9032 38.9725 32.5564V33.3131C38.9725 36.5923 41.7367 39.3566 45.0159 39.3566C48.2951 39.3566 51.0488 36.5923 51.0488 33.3131V32.4723C48.148 35.1419 43.7126 35.6885 40.1917 33.4813Z" fill="#30318C"/>
<path d="M44.6374 65.3276C42.0203 65.3276 39.8447 63.1519 39.8447 60.5349C39.8447 59.2316 40.2756 58.0649 41.2951 57.1926C42.1675 56.3202 43.4813 55.7421 44.6374 55.7421H45.0053V52.8308H44.7845C42.7455 52.8308 40.717 53.7031 39.2666 55.1536C37.8162 56.604 36.9438 58.4959 36.9438 60.682C36.9438 62.5739 37.669 64.1714 38.6885 65.4747H30.2593V50.508C30.2593 49.6356 29.6812 49.0576 28.8088 49.0576C27.9365 49.0576 27.3584 49.6356 27.3584 50.508V65.4747H18.351V51.0861C18.4877 40.807 26.1287 32.3567 36.0189 31.1795V12.1243C35.9979 5.63938 30.7427 0.384216 24.2579 0.384216H0V41.2904C0 80.5571 44.9948 90.3842 44.9948 90.3842V65.3276H44.6269H44.6374Z" fill="#30318C"/>
<path d="M65.7318 0.384216C59.2469 0.384216 53.9917 5.63938 53.9917 12.1243V31.19L52.3311 52.8308H44.9949V55.7316H52.0473L51.3221 65.3276H45.0054V90.3842C45.0054 90.3842 90.0001 80.5676 90.0001 41.2904V0.384216H65.7423H65.7318ZM64.6912 65.3276H54.2229L56.84 31.7576C58.7319 32.3356 60.6237 33.0608 62.2213 34.2275L65.2693 65.3276H64.6912ZM71.6701 58.643H71.523C71.523 61.1129 70.2092 63.1519 68.3278 64.3081L65.5636 36.5503C69.3473 40.1869 71.6701 45.2739 71.6701 50.7918V58.643Z" fill="#54BE95"/>
<path d="M49.8507 28.7411C51.5954 25.8823 50.5128 22.0881 47.3913 20.6271C44.9529 19.4815 41.9679 20.2803 40.3914 22.4664C40.2758 22.6346 40.1601 22.8028 40.0656 22.9709C38.5731 25.5985 39.3929 29.0564 41.9574 30.654C44.6375 32.3356 48.169 31.4948 49.8191 28.7937C49.8297 28.7726 49.8402 28.7516 49.8507 28.7306" fill="#30318C"/>
</svg>
