<svg width="90" height="91" viewBox="0 0 90 91" fill="none" xmlns="http://www.w3.org/2000/svg">
<path d="M65.7316 0.384216C59.2468 0.384216 53.9916 5.63938 53.9916 12.1243V24.4108C53.9916 29.3822 49.9661 33.4077 44.9948 33.4077V38.316C48.8941 38.316 52.0577 41.4796 52.0577 45.379C52.0577 49.2783 48.8941 52.4419 44.9948 52.4419V56.0469C47.4962 56.0469 49.5247 58.0754 49.5247 60.5769V76.3004C49.5247 78.8018 47.4962 80.8303 44.9948 80.8303V90.3632C44.9948 90.3632 89.9895 80.5465 89.9895 41.2799V0.384216H65.7316ZM75.7059 63.1099C74.8651 64.5603 73.3411 65.3801 71.7751 65.3801C71.0078 65.3801 70.2301 65.1804 69.5154 64.7705L55.894 56.9088C53.7288 55.6581 52.9826 52.8833 54.2333 50.7182C55.4841 48.5531 58.2588 47.8069 60.4239 49.0576L74.0453 56.9193C76.2104 58.17 76.9567 60.9448 75.7059 63.1099ZM74.0453 33.8386L60.4239 41.7003C59.7092 42.1102 58.9315 42.3099 58.1642 42.3099C56.5982 42.3099 55.0742 41.5006 54.2333 40.0397C52.9826 37.8746 53.7288 35.0999 55.894 33.8491L69.5154 25.9874C71.6805 24.7367 74.4552 25.4724 75.7059 27.648C76.9567 29.8132 76.2104 32.5879 74.0453 33.8386Z" fill="#27BCB8"/>
<path d="M44.9947 80.8408C42.4933 80.8408 40.4648 78.8123 40.4648 76.3109V60.5874C40.4648 58.086 42.4933 56.0575 44.9947 56.0575V52.4524C41.0954 52.4524 37.9318 49.2888 37.9318 45.3895C37.9318 41.4901 41.0954 38.3265 44.9947 38.3265V33.4182C40.0234 33.4182 35.9979 29.3927 35.9979 24.4214V12.1137C35.9874 5.62887 30.7322 0.384216 24.2579 0.384216H0V41.2904C0 80.5571 44.9947 90.3737 44.9947 90.3737V80.8408ZM34.0955 56.9088L20.4741 64.7705C19.7594 65.1804 18.9817 65.3801 18.2144 65.3801C16.6484 65.3801 15.1244 64.5708 14.2835 63.1099C13.0328 60.9448 13.779 58.17 15.9442 56.9193L29.5656 49.0576C31.7307 47.8069 34.5054 48.5426 35.7562 50.7182C37.0069 52.8833 36.2607 55.6581 34.0955 56.9088ZM35.7562 40.0502C34.9153 41.5006 33.3913 42.3205 31.8253 42.3205C31.058 42.3205 30.2803 42.1208 29.5656 41.7109L15.9442 33.8491C13.779 32.5984 13.0328 29.8237 14.2835 27.6585C15.5343 25.4934 18.309 24.7472 20.4741 25.9979L34.0955 33.8596C36.2607 35.1104 37.0069 37.8851 35.7562 40.0502Z" fill="#213C73"/>
</svg>
