<svg width="90" height="91" viewBox="0 0 90 91" fill="none" xmlns="http://www.w3.org/2000/svg">
<path d="M65.7316 0.384277C59.2468 0.384277 53.9916 5.63944 53.9916 12.1243V35.678H60.6131C59.4044 33.6495 58.7002 31.2111 58.7002 28.5835C58.7002 21.51 63.8293 15.7504 70.146 15.7504C76.4627 15.7504 81.5917 21.4995 81.5917 28.5835V49.1102C81.5917 56.1942 76.4627 61.9328 70.146 61.9328C63.8293 61.9328 58.7002 56.1836 58.7002 49.1102C58.7002 46.4826 59.4044 44.0442 60.6131 42.0157H53.9916V66.4417H44.9947V90.3738C44.9947 90.3738 89.9895 80.5571 89.9895 41.2905V0.384277H65.7316Z" fill="#54BE95"/>
<path d="M35.9979 66.4417V42.0157H29.3343C30.543 44.0442 31.2472 46.4931 31.2472 49.1102C31.2472 56.1942 26.1182 61.9433 19.8015 61.9433C13.4848 61.9433 8.35572 56.1942 8.35572 49.1102V28.5835C8.35572 21.51 13.4848 15.7504 19.8015 15.7504C26.1182 15.7504 31.2472 21.4995 31.2472 28.5835C31.2472 31.2111 30.543 33.6495 29.3343 35.678H35.9979V12.1243C35.9979 5.63944 30.7427 0.384277 24.2579 0.384277H0V41.2905C0 80.5571 44.9947 90.3738 44.9947 90.3738V66.4312H35.9979V66.4417Z" fill="#30318C"/>
</svg>
