<svg width="24" height="24" viewBox="0 0 24 24" fill="none" xmlns="http://www.w3.org/2000/svg">
<g clip-path="url(#clip0_2144_8973)">
<path d="M23.5083 9.65002C23.5082 9.6497 23.5081 9.64942 23.508 9.64909C23.508 9.64895 23.508 9.64876 23.5079 9.64862C23.5079 9.64852 23.5079 9.64848 23.5079 9.64838C23.1426 7.69834 21.4349 6.28323 19.4467 6.28323H17.4419V5.38267C17.4419 5.09724 17.2799 4.85152 17.0447 4.72463V3.08218C17.0447 1.89798 16.0812 0.934509 14.897 0.934509H9.10635C7.92215 0.934509 6.95878 1.89798 6.95878 3.08218V4.72459C6.72356 4.85143 6.56146 5.09724 6.56146 5.38271V6.28327H4.55681C2.56851 6.28327 0.860948 7.69838 0.495651 9.64843C0.495651 9.64852 0.495604 9.64857 0.495557 9.64866C0.49551 9.6488 0.495511 9.64899 0.495464 9.64913C0.49537 9.64946 0.495276 9.64974 0.495229 9.65007C0.495182 9.6503 0.495229 9.65049 0.495182 9.65073C0.396417 10.1637 0.423229 21.2639 0.423276 21.2792V21.2797C0.423276 22.2646 1.22451 23.0657 2.20935 23.0657H21.7942C22.779 23.0657 23.5801 22.2645 23.5801 21.2797V21.2792C23.5802 21.2638 23.6071 10.1626 23.5083 9.65063C23.5083 9.65045 23.5083 9.65021 23.5083 9.65002ZM16.9879 5.38267V6.28323H15.1064V5.38267C15.1064 5.21921 15.2393 5.08618 15.4028 5.08618H16.6913C16.8549 5.08618 16.9879 5.21921 16.9879 5.38267ZM7.41281 3.08218C7.41281 2.14834 8.17251 1.38854 9.10635 1.38854H14.8971C15.831 1.38854 16.5907 2.14834 16.5907 3.08218V4.63215H15.5313V3.08218C15.5313 2.73249 15.2467 2.44801 14.8971 2.44801H9.10635C8.75667 2.44801 8.47228 2.73245 8.47228 3.08218V4.63215H7.41281V3.08218ZM8.92635 4.70963V3.08218C8.92635 2.98285 9.00707 2.90209 9.1064 2.90209H14.8971C14.9964 2.90209 15.0773 2.98285 15.0773 3.08218V4.70959C14.8269 4.83137 14.6525 5.08599 14.6525 5.38267V6.28323H9.35114V5.38267C9.35114 5.08604 9.17671 4.83142 8.92635 4.70963ZM7.01554 5.38267C7.01554 5.21921 7.14857 5.08618 7.31203 5.08618H8.60057C8.76403 5.08618 8.89706 5.21921 8.89706 5.38267V6.28323H7.01549V5.38267H7.01554ZM4.55681 6.73731C6.43106 6.74143 18.966 6.73745 19.4468 6.73731C21.1244 6.73731 22.5776 7.86882 23.0013 9.46468H1.00223C1.42603 7.86882 2.8792 6.73731 4.55681 6.73731ZM23.1261 21.2792C23.1261 22.0136 22.5286 22.6111 21.7942 22.6111H2.20935C1.47492 22.6111 0.877354 22.0136 0.877354 21.2792V19.7809H23.1261V21.2792ZM23.1261 19.3269H0.877354C0.888651 10.0166 0.850823 10.3545 0.911057 9.91871H23.0925C23.1547 10.3708 23.1149 10.1263 23.1261 19.3269Z" fill="#242424" fill-opacity="0.9"/>
<path d="M23.655 9.61872L23.6559 9.62216L23.6557 9.62219L23.655 9.61872ZM23.655 9.61872C23.6548 9.61791 23.6546 9.61715 23.6545 9.61641C23.2741 7.59744 21.5053 6.13323 19.4467 6.13323H17.5919V5.38267C17.5919 5.07167 17.4323 4.80126 17.1947 4.64039V3.08218C17.1947 1.81513 16.1641 0.784509 14.897 0.784509H9.10635C7.8393 0.784509 6.80878 1.81514 6.80878 3.08218V4.64032C6.57117 4.80117 6.41146 5.07167 6.41146 5.38271V6.13327H4.55681C2.49803 6.13327 0.729412 7.59747 0.349042 9.61641C0.34849 9.61883 0.347906 9.62167 0.347366 9.62484C0.347196 9.62583 0.347041 9.6268 0.346898 9.62775C0.346822 9.62818 0.346745 9.62863 0.346669 9.62907L0.345651 9.6345V9.63525C0.338225 9.68242 0.332894 9.7617 0.328269 9.85853C0.32296 9.96969 0.318151 10.1165 0.31378 10.2933C0.305034 10.6471 0.297971 11.1237 0.292282 11.6804C0.280901 12.794 0.274993 14.2306 0.272175 15.6513C0.266562 18.4802 0.273194 21.2474 0.273276 21.2794V21.2797C0.273276 22.3474 1.14168 23.2157 2.20935 23.2157H21.7942C22.8619 23.2157 23.7301 22.3473 23.7301 21.2797C23.7301 21.2799 23.7301 21.2801 23.7301 21.2801L23.665 21.2797L23.655 9.61872ZM23.6579 9.6389C23.6579 9.6398 23.658 9.64063 23.658 9.64136L23.6581 9.64172C23.658 9.64083 23.6579 9.6398 23.6579 9.63864V9.6389ZM23.6579 9.6389V9.64165V9.6389ZM0.345218 9.64852C0.34524 9.64703 0.345293 9.64485 0.345421 9.64248M0.345218 9.64852L0.34522 9.64826L0.345421 9.64248M0.345218 9.64852L0.345207 9.64985L0.345206 9.65026L0.345206 9.65037L0.345206 9.65041L0.345206 9.65047C0.345204 9.65055 0.3452 9.64979 0.345218 9.64852ZM0.345421 9.64248C0.345479 9.64139 0.345554 9.64022 0.345651 9.63898L0.345421 9.64248ZM0.353151 9.60154L0.353066 9.60152L0.352299 9.6042L0.353151 9.60154ZM0.353151 9.60154C0.353199 9.6014 0.353249 9.60125 0.353298 9.6011L0.356687 9.59097L0.361356 9.58167M0.353151 9.60154L0.353178 9.60155C0.353226 9.60141 0.353275 9.60126 0.353324 9.60111C0.356096 9.59279 0.359102 9.58619 0.361356 9.58167M0.361356 9.58167C0.361398 9.58158 0.361441 9.5815 0.361483 9.58141C0.362762 9.57886 0.364059 9.57649 0.364883 9.57501C0.364118 9.57637 0.36284 9.5787 0.361479 9.58141L0.361356 9.58167ZM23.7301 21.2796C23.7303 21.2344 23.7369 18.4731 23.7313 15.6508C23.7285 14.2301 23.7226 12.7935 23.7112 11.6799C23.7055 11.1232 23.6985 10.6466 23.6897 10.2929C23.6854 10.1162 23.6806 9.96938 23.6752 9.85827C23.6706 9.76153 23.6653 9.68229 23.6579 9.63514V9.63445L23.657 9.62964C23.6568 9.62886 23.6567 9.6281 23.6566 9.62734C23.6564 9.62635 23.6562 9.62532 23.656 9.62427L23.7301 21.2796ZM0.348003 9.62169L0.347888 9.62237L0.348003 9.62169ZM0.347861 9.62251C0.347539 9.62418 0.347221 9.62591 0.346906 9.62771L0.347861 9.62251ZM7.16549 5.53267H7.16554V5.38267C7.16554 5.30205 7.23142 5.23618 7.31203 5.23618H8.60057C8.68118 5.23618 8.74706 5.30205 8.74706 5.38267V6.13323H7.16549V5.53267ZM0.364929 9.57493C0.365632 9.57367 0.365968 9.57312 0.365611 9.57374L0.365586 9.57378C0.365508 9.57391 0.365275 9.57432 0.364929 9.57493ZM23.6583 9.64901L23.6583 9.64943L23.6583 9.64984V9.64995V9.64999C23.6583 9.65014 23.6583 9.64969 23.6583 9.64901ZM16.8379 5.38267V6.13323H15.2564V5.38267C15.2564 5.30196 15.3223 5.23618 15.4028 5.23618H16.6913C16.772 5.23618 16.8379 5.30205 16.8379 5.38267ZM7.56281 3.08218C7.56281 2.23117 8.25536 1.53854 9.10635 1.53854H14.8971C15.7482 1.53854 16.4407 2.23118 16.4407 3.08218V4.48215H15.6813V3.08218C15.6813 2.64964 15.3296 2.29801 14.8971 2.29801H9.10635C8.6738 2.29801 8.32228 2.64963 8.32228 3.08218V4.48215H7.56281V3.08218ZM9.50113 5.38267C9.50113 5.05994 9.32967 4.77983 9.07635 4.62148V3.08218C9.07635 3.06565 9.08996 3.05209 9.1064 3.05209H14.8971C14.9137 3.05209 14.9273 3.0658 14.9273 3.08218V4.62143C14.674 4.77979 14.5025 5.0599 14.5025 5.38267V6.13323H9.50113V5.38267ZM4.55669 6.88731C6.36843 6.89129 18.1295 6.88771 19.3574 6.88733L19.4468 6.88731C19.4468 6.88731 19.4468 6.88731 19.4468 6.88731C20.9892 6.88732 22.3337 7.88447 22.8006 9.31468H1.20295C1.66985 7.88449 3.01428 6.88735 4.55669 6.88731ZM22.9761 21.2792C22.9761 21.9308 22.4458 22.4611 21.7942 22.4611H2.20935C1.55775 22.4611 1.02735 21.9308 1.02735 21.2792V19.9309H22.9761V21.2792ZM22.9772 12.2723C22.9751 13.5706 22.9718 15.6803 22.9759 19.1769H1.02753C1.03164 15.67 1.02873 13.5547 1.02694 12.2554C1.0264 11.8676 1.02597 11.5525 1.02585 11.2948C1.02546 10.4237 1.02883 10.2123 1.0432 10.0687H22.9601C22.9756 10.2242 22.979 10.446 22.9784 11.342C22.9782 11.5944 22.9778 11.9 22.9772 12.2723ZM23.6337 9.56673C23.633 9.56579 23.6327 9.56526 23.6328 9.56549L23.6329 9.56551L23.6329 9.56558L23.633 9.56581L23.6337 9.56673Z" stroke="#242424" stroke-opacity="0.9" stroke-width="0.3"/>
<path d="M12.003 10.7399C9.83344 10.7399 8.06836 12.5051 8.06836 14.6747C8.06836 16.8443 9.83344 18.6095 12.003 18.6095C14.1727 18.6095 15.9379 16.8443 15.9379 14.6747C15.9379 12.5051 14.1727 10.7399 12.003 10.7399ZM12.003 18.1554C10.0838 18.1554 8.52239 16.5939 8.52239 14.6747C8.52239 12.7555 10.0838 11.194 12.003 11.194C13.9224 11.194 15.4838 12.7555 15.4838 14.6747C15.4838 16.5939 13.9224 18.1554 12.003 18.1554Z" fill="#242424" fill-opacity="0.9"/>
<path d="M12.003 10.5899C9.75059 10.5899 7.91836 12.4223 7.91836 14.6747C7.91836 16.9272 9.75059 18.7595 12.003 18.7595C14.2555 18.7595 16.0879 16.9272 16.0879 14.6747C16.0879 12.4223 14.2555 10.5899 12.003 10.5899ZM12.003 18.0054C10.1666 18.0054 8.67239 16.5111 8.67239 14.6747C8.67239 12.8383 10.1666 11.344 12.003 11.344C13.8396 11.344 15.3338 12.8384 15.3338 14.6747C15.3338 16.5111 13.8396 18.0054 12.003 18.0054Z" stroke="#242424" stroke-opacity="0.9" stroke-width="0.3"/>
<path d="M13.7075 13.7315H12.9449V12.9688C12.9449 12.6453 12.6817 12.3821 12.3582 12.3821H11.644C11.3205 12.3821 11.0574 12.6453 11.0574 12.9688V13.7315H10.2956C9.97209 13.7315 9.70898 13.9946 9.70898 14.3182V15.0312C9.70898 15.3548 9.97209 15.6179 10.2956 15.6179H11.0574V16.3807C11.0574 16.7042 11.3205 16.9673 11.644 16.9673H12.3582C12.6817 16.9673 12.9449 16.7042 12.9449 16.3807V15.6179H13.7075C14.031 15.6179 14.2943 15.3548 14.2943 15.0312V14.3182C14.2943 13.9946 14.0311 13.7315 13.7075 13.7315ZM13.8403 15.0313C13.8403 15.1045 13.7807 15.1639 13.7075 15.1639H12.7178C12.5925 15.1639 12.4908 15.2656 12.4908 15.391V16.3807C12.4908 16.4538 12.4314 16.5133 12.3583 16.5133H11.6441C11.5709 16.5133 11.5115 16.4538 11.5115 16.3807V15.391C11.5115 15.2656 11.4098 15.1639 11.2845 15.1639H10.2957C10.2225 15.1639 10.1631 15.1045 10.1631 15.0313V14.3182C10.1631 14.245 10.2225 14.1856 10.2957 14.1856H11.2844C11.4097 14.1856 11.5114 14.0839 11.5114 13.9585V12.9688C11.5114 12.8957 11.5709 12.8362 11.644 12.8362H12.3582C12.4313 12.8362 12.4907 12.8957 12.4907 12.9688V13.9585C12.4907 14.0839 12.5924 14.1856 12.7178 14.1856H13.7075C13.7806 14.1856 13.8402 14.245 13.8402 14.3182V15.0313H13.8403Z" fill="#242424" fill-opacity="0.9"/>
<path d="M13.6902 15.0139H12.7178C12.5097 15.0139 12.3408 15.1827 12.3408 15.391V16.3633H11.6615V15.391C11.6615 15.1827 11.4927 15.0139 11.2845 15.0139H10.3131V14.3356H11.2844C11.4926 14.3356 11.6614 14.1668 11.6614 13.9585V12.9862H12.3407V13.9585C12.3407 14.1668 12.5096 14.3356 12.7178 14.3356H13.6902V15.0139ZM13.7075 13.5815H13.0949V12.9688C13.0949 12.5625 12.7646 12.2321 12.3582 12.2321H11.644C11.2376 12.2321 10.9074 12.5625 10.9074 12.9688V13.5815H10.2956C9.88924 13.5815 9.55898 13.9118 9.55898 14.3182V15.0312C9.55898 15.4376 9.88924 15.7679 10.2956 15.7679H10.9074V16.3807C10.9074 16.787 11.2376 17.1173 11.644 17.1173H12.3582C12.7646 17.1173 13.0949 16.787 13.0949 16.3807V15.7679H13.7075C14.1139 15.7679 14.4443 15.4376 14.4443 15.0312V14.3182C14.4443 13.9118 14.1139 13.5815 13.7075 13.5815Z" stroke="#242424" stroke-opacity="0.9" stroke-width="0.3"/>
</g>
<defs>
<clipPath id="clip0_2144_8973">
<rect width="24" height="24" fill="white"/>
</clipPath>
</defs>
</svg>
