<svg width="29" height="29" viewBox="0 0 29 29" fill="none" xmlns="http://www.w3.org/2000/svg">
<path fill-rule="evenodd" clip-rule="evenodd" d="M3.57591 14.5C3.57591 9.01898 7.84858 3.57664 14.4992 3.57664C19.87 3.57664 22.5264 7.55158 23.6574 9.66664H20.2992C20.0429 9.66664 19.797 9.76849 19.6157 9.94977C19.4344 10.1311 19.3326 10.3769 19.3326 10.6333C19.3326 10.8897 19.4344 11.1356 19.6157 11.3168C19.797 11.4981 20.0429 11.6 20.2992 11.6H26.0992C26.3556 11.6 26.6015 11.4981 26.7828 11.3168C26.9641 11.1356 27.0659 10.8897 27.0659 10.6333V4.83331C27.0659 4.57693 26.9641 4.33106 26.7828 4.14977C26.6015 3.96849 26.3556 3.86664 26.0992 3.86664C25.8429 3.86664 25.597 3.96849 25.4157 4.14977C25.2344 4.33106 25.1326 4.57693 25.1326 4.83331V8.33844C23.7715 5.93724 20.6202 1.64331 14.4992 1.64331C6.64411 1.64331 1.64258 8.09098 1.64258 14.5C1.64258 20.909 6.64411 27.3566 14.4992 27.3566C18.2576 27.3566 21.3858 25.868 23.613 23.6021C24.7937 22.3958 25.731 20.9734 26.3738 19.4126C26.422 19.2952 26.4467 19.1694 26.4463 19.0424C26.4459 18.9155 26.4205 18.7899 26.3716 18.6727C26.3227 18.5556 26.2512 18.4492 26.1612 18.3597C26.0711 18.2702 25.9644 18.1993 25.8469 18.1511C25.7295 18.1028 25.6037 18.0782 25.4768 18.0786C25.3499 18.0789 25.2242 18.1043 25.1071 18.1532C24.9899 18.2022 24.8836 18.2737 24.7941 18.3637C24.7046 18.4537 24.6337 18.5605 24.5854 18.6779C24.0378 20.0073 23.2397 21.2189 22.2345 22.2468C20.3572 24.1608 17.7182 25.4233 14.4992 25.4233C7.84858 25.4233 3.57591 19.981 3.57591 14.5Z" fill="url(#paint0_linear_2144_8941)"/>
<defs>
<linearGradient id="paint0_linear_2144_8941" x1="27.0659" y1="27.3566" x2="1.35423" y2="1.93495" gradientUnits="userSpaceOnUse">
<stop stop-color="#F6811F"/>
<stop offset="0.511069" stop-color="#4C586B"/>
<stop offset="1" stop-color="#134A85"/>
</linearGradient>
</defs>
</svg>
