<svg width="27" height="21" viewBox="0 0 27 21" fill="none" xmlns="http://www.w3.org/2000/svg">
<path d="M2.85409 18.8127C1.39575 17.2085 0.520752 15.4585 0.520752 12.5418C0.520752 7.43766 4.16659 2.91683 9.27075 0.583496L10.5833 2.47933C5.77075 5.10433 4.74992 8.4585 4.45825 10.646C5.18742 10.2085 6.20825 10.0627 7.22909 10.2085C9.85409 10.5002 11.8958 12.5418 11.8958 15.3127C11.8958 16.6252 11.3124 17.9377 10.4374 18.9585C9.41659 19.9793 8.24992 20.4168 6.79159 20.4168C5.18742 20.4168 3.72909 19.6877 2.85409 18.8127ZM17.4374 18.8127C15.9791 17.2085 15.1041 15.4585 15.1041 12.5418C15.1041 7.43766 18.7499 2.91683 23.8541 0.583496L25.1666 2.47933C20.3541 5.10433 19.3333 8.4585 19.0416 10.646C19.7708 10.2085 20.7916 10.0627 21.8124 10.2085C24.4374 10.5002 26.4791 12.5418 26.4791 15.3127C26.4791 16.6252 25.8958 17.9377 25.0208 18.9585C24.1458 19.9793 22.8333 20.4168 21.3749 20.4168C19.7708 20.4168 18.3124 19.6877 17.4374 18.8127Z" fill="#134A85"/>
</svg>
