<svg width="25" height="25" viewBox="0 0 25 25" fill="none" xmlns="http://www.w3.org/2000/svg">
<g clip-path="url(#clip0_3760_6743)">
<path d="M15.5371 11.5316H9.46291L4.038 21.8499C3.87599 22.1581 4.06349 22.5345 4.40709 22.5907L6.58873 22.9479C6.80661 22.9836 7.007 23.0889 7.15988 23.2482L8.69088 24.8429C8.93205 25.0941 9.3484 25.0352 9.51041 24.727L12.5 19.0407L15.4896 24.7271C15.6516 25.0353 16.068 25.0942 16.3091 24.843L17.8402 23.2483C17.993 23.089 18.1934 22.9837 18.4113 22.948L20.5929 22.5908C20.9365 22.5345 21.1241 22.1582 20.962 21.85L15.5371 11.5316Z" fill="#AD7FDD"/>
<path d="M19.2553 18.6035L15.5371 11.5316H9.46293L5.74481 18.6036C6.04081 18.8287 6.40443 18.9542 6.77987 18.9542C6.93788 18.9542 7.09413 18.9324 7.24603 18.8893C7.43636 19.6453 8.11371 20.1805 8.90629 20.1804C9.21625 20.1803 9.51576 20.0973 9.78051 19.939C10.0808 20.4753 10.6531 20.8148 11.2748 20.8148C11.3789 20.8148 11.4817 20.8049 11.5822 20.7866L12.5 19.0407L13.4179 20.7865C13.5184 20.8049 13.6212 20.8147 13.7254 20.8147C14.3472 20.8147 14.9193 20.4751 15.2196 19.9389C15.4844 20.0973 15.7839 20.1803 16.0939 20.1803C16.8863 20.1803 17.5636 19.6453 17.754 18.8892C17.9059 18.9324 18.0623 18.9542 18.2203 18.9542C18.5957 18.9542 18.9593 18.8286 19.2553 18.6035Z" fill="#9D66D6"/>
<path d="M12.8659 0.7714L13.3604 0.172426C13.5834 -0.0977891 14.0124 -0.041295 14.1579 0.277406L14.4805 0.983949C14.6043 1.25514 14.9445 1.3463 15.1874 1.17335L15.82 0.722768C16.1054 0.519496 16.5051 0.685072 16.5632 1.03058L16.692 1.79655C16.7414 2.09054 17.0465 2.26666 17.3258 2.16246L18.0535 1.89098C18.3818 1.76852 18.725 2.0319 18.6917 2.38068L18.6178 3.15387C18.5894 3.4506 18.8385 3.69972 19.1353 3.67135L19.9085 3.59747C20.2572 3.56413 20.5206 3.90739 20.3982 4.23566L20.1267 4.96339C20.0225 5.24269 20.1986 5.54777 20.4926 5.59718L21.2586 5.72594C21.6041 5.784 21.7696 6.1837 21.5664 6.46911L21.1158 7.10177C20.9428 7.34459 21.034 7.68483 21.3052 7.80866L22.0117 8.13126C22.3305 8.27677 22.3869 8.70573 22.1167 8.92877L21.5177 9.42326C21.2879 9.61305 21.2879 9.9653 21.5177 10.1551L22.1167 10.6496C22.3869 10.8726 22.3304 11.3016 22.0117 11.4471L21.3052 11.7697C21.034 11.8935 20.9428 12.2338 21.1158 12.4766L21.5664 13.1092C21.7696 13.3946 21.6041 13.7944 21.2586 13.8524L20.4926 13.9812C20.1986 14.0306 20.0225 14.3357 20.1267 14.615L20.3982 15.3427C20.5206 15.671 20.2572 16.0142 19.9085 15.9809L19.1353 15.907C18.8385 15.8786 18.5894 16.1277 18.6178 16.4245L18.6917 17.1977C18.725 17.5464 18.3818 17.8098 18.0535 17.6874L17.3258 17.4159C17.0465 17.3117 16.7414 17.4878 16.692 17.7818L16.5632 18.5478C16.5051 18.8933 16.1054 19.0589 15.82 18.8556L15.1874 18.405C14.9445 18.232 14.6043 18.3233 14.4805 18.5944L14.1579 19.3009C14.0124 19.6197 13.5834 19.6761 13.3604 19.4059L12.8659 18.8069C12.6761 18.5771 12.3238 18.5771 12.1341 18.8069L11.6396 19.4059C11.4165 19.6761 10.9876 19.6196 10.8421 19.3009L10.5195 18.5944C10.3956 18.3232 10.0554 18.232 9.81257 18.405L9.1799 18.8556C8.8945 19.0589 8.49479 18.8933 8.43674 18.5478L8.30798 17.7818C8.25856 17.4878 7.95349 17.3117 7.67419 17.4159L6.94646 17.6874C6.61818 17.8098 6.27492 17.5464 6.30827 17.1977L6.38215 16.4245C6.41052 16.1277 6.16145 15.8786 5.86467 15.907L5.09147 15.9809C4.7427 16.0142 4.47932 15.671 4.60178 15.3427L4.87326 14.615C4.97746 14.3357 4.80134 14.0306 4.50734 13.9812L3.74138 13.8524C3.39582 13.7944 3.23029 13.3946 3.43356 13.1092L3.88415 12.4766C4.0571 12.2338 3.96589 11.8935 3.69475 11.7697L2.9882 11.4471C2.66945 11.3016 2.61301 10.8726 2.88322 10.6496L3.4822 10.1551C3.71208 9.9653 3.71208 9.61305 3.4822 9.42326L2.88327 8.92872C2.61306 8.70568 2.66955 8.27672 2.98825 8.13122L3.6948 7.80861C3.96599 7.68478 4.05715 7.34455 3.8842 7.10172L3.43361 6.46906C3.23034 6.18366 3.39592 5.78395 3.74143 5.72589L4.50739 5.59713C4.80139 5.54772 4.97751 5.24264 4.87331 4.96334L4.60183 4.23561C4.47937 3.90734 4.74274 3.56408 5.09152 3.59743L5.86472 3.6713C6.16145 3.69967 6.41057 3.4506 6.3822 3.15382L6.30832 2.38063C6.27497 2.03185 6.61823 1.76847 6.9465 1.89093L7.67424 2.16242C7.95354 2.26662 8.25861 2.09049 8.30803 1.7965L8.43679 1.03053C8.49484 0.684975 8.89455 0.519447 9.17995 0.722719L9.81262 1.1733C10.0554 1.34625 10.3957 1.25504 10.5195 0.9839L10.8421 0.277357C10.9876 -0.0413926 11.4166 -0.0978379 11.6396 0.172377L12.1341 0.7714C12.3238 1.00128 12.6761 1.00128 12.8659 0.7714Z" fill="#F7E365"/>
<path d="M22.1167 10.6494L21.5178 10.1549C21.2879 9.9651 21.2879 9.61285 21.5178 9.42311L22.1167 8.92862C22.387 8.70558 22.3305 8.27662 22.0118 8.13111L21.3052 7.80851C21.034 7.68468 20.9429 7.34444 21.1158 7.10162L21.5664 6.46896C21.7697 6.18356 21.6041 5.78385 21.2586 5.72579L20.4926 5.59703C20.1986 5.54762 20.0225 5.24254 20.1267 4.96324L20.3982 4.23551C20.5207 3.90724 20.2573 3.56398 19.9085 3.59732L19.1353 3.6712C18.8386 3.69957 18.5895 3.45045 18.6178 3.15372L18.6917 2.38053C18.725 2.03175 18.3818 1.76837 18.0535 1.89083L17.6394 2.04532C18.5696 3.49596 19.1091 5.2212 19.1091 7.07247C19.1091 12.2228 14.9339 16.398 9.78359 16.398C7.93237 16.398 6.20708 15.8585 4.75644 14.9283L4.60195 15.3424C4.47949 15.6707 4.74287 16.0139 5.09165 15.9806L5.86484 15.9067C6.16157 15.8783 6.41069 16.1275 6.38232 16.4242L6.30844 17.1974C6.2751 17.5462 6.61836 17.8095 6.94663 17.6871L7.67436 17.4156C7.95366 17.3114 8.25874 17.4875 8.30815 17.7815L8.43691 18.5475C8.49497 18.893 8.89468 19.0586 9.18008 18.8553L9.81274 18.4047C10.0556 18.2318 10.3958 18.323 10.5196 18.5941L10.8422 19.3006C10.9877 19.6194 11.4167 19.6758 11.6397 19.4056L12.1342 18.8067C12.324 18.5768 12.6763 18.5768 12.8661 18.8067L13.3605 19.4056C13.5836 19.6758 14.0125 19.6193 14.1581 19.3006L14.4807 18.5941C14.6045 18.3229 14.9447 18.2318 15.1875 18.4047L15.8202 18.8553C16.1056 19.0586 16.5053 18.893 16.5634 18.5475L16.6921 17.7815C16.7416 17.4875 17.0466 17.3114 17.3259 17.4156L18.0537 17.6871C18.3819 17.8095 18.7252 17.5462 18.6918 17.1974L18.618 16.4242C18.5896 16.1275 18.8387 15.8783 19.1354 15.9067L19.9086 15.9806C20.2574 16.0139 20.5208 15.6707 20.3983 15.3424L20.1269 14.6147C20.0227 14.3354 20.1988 14.0303 20.4928 13.9809L21.2587 13.8521C21.6043 13.7941 21.7698 13.3943 21.5666 13.1089L21.116 12.4763C20.943 12.2335 21.0342 11.8932 21.3054 11.7694L22.0119 11.4468C22.3305 11.3014 22.387 10.8725 22.1167 10.6494Z" fill="#F3D332"/>
<path d="M12.5001 17.0021C16.4838 17.0021 19.7132 13.7727 19.7132 9.78901C19.7132 5.80534 16.4838 2.57593 12.5001 2.57593C8.5164 2.57593 5.28699 5.80534 5.28699 9.78901C5.28699 13.7727 8.5164 17.0021 12.5001 17.0021Z" fill="#E69642"/>
<path d="M19.109 7.07249C19.109 12.2228 14.9339 16.398 9.78353 16.398C9.72328 16.398 9.66317 16.3973 9.60321 16.3962C10.4899 16.7855 11.4696 17.0021 12.5 17.0021C16.4837 17.0021 19.7131 13.7727 19.7131 9.78899C19.7131 8.75857 19.4965 7.77888 19.1072 6.89221C19.1084 6.95212 19.109 7.01223 19.109 7.07249Z" fill="#E38523"/>
<path d="M12.5 15.3533C15.5731 15.3533 18.0644 12.8621 18.0644 9.78896C18.0644 6.71586 15.5731 4.22461 12.5 4.22461C9.42692 4.22461 6.93567 6.71586 6.93567 9.78896C6.93567 12.8621 9.42692 15.3533 12.5 15.3533Z" fill="#F7E365"/>
<path d="M15.5366 5.12585C16.1064 5.9991 16.4379 7.04197 16.4379 8.16243C16.4379 11.2355 13.9466 13.7268 10.8735 13.7268C9.75306 13.7268 8.71019 13.3953 7.83694 12.8256C8.82996 14.3473 10.5474 15.3534 12.5001 15.3534C15.5732 15.3534 18.0644 12.8621 18.0644 9.78904C18.0644 7.83635 17.0584 6.11887 15.5366 5.12585Z" fill="#F3D332"/>
<path d="M12.224 12.4818L10.9624 13.0258C10.4763 13.2354 9.94323 12.8481 9.9924 12.3211L10.1199 10.953C10.1378 10.762 10.076 10.5721 9.94938 10.4281L9.04211 9.3963C8.6926 8.99884 8.89621 8.37213 9.41262 8.25602L10.7531 7.95455C10.9403 7.91246 11.1018 7.79508 11.1997 7.63009L11.9006 6.44835C12.1706 5.99313 12.8296 5.99313 13.0996 6.44835L13.8005 7.63009C13.8984 7.79508 14.0599 7.91246 14.2471 7.95455L15.5876 8.25602C16.104 8.37213 16.3076 8.99884 15.9581 9.3963L15.0508 10.4281C14.9241 10.5721 14.8624 10.7621 14.8802 10.953L15.0078 12.3211C15.0569 12.8481 14.5238 13.2354 14.0378 13.0258L12.7761 12.4818C12.5999 12.4058 12.4002 12.4058 12.224 12.4818Z" fill="#E69642"/>
<path d="M15.5875 8.25586L14.9773 8.11865C14.434 10.444 12.4327 12.2087 9.98965 12.3958C9.99473 12.8837 10.4997 13.2252 10.9624 13.0257L12.224 12.4816C12.4002 12.4057 12.5999 12.4057 12.776 12.4816L14.0377 13.0257C14.5237 13.2353 15.0568 12.8479 15.0077 12.3209L14.8801 10.9529C14.8623 10.7619 14.924 10.572 15.0507 10.4279L15.958 9.39614C16.3075 8.99868 16.1039 8.37197 15.5875 8.25586Z" fill="#E38523"/>
</g>
<defs>
<clipPath id="clip0_3760_6743">
<rect width="25" height="25" fill="white"/>
</clipPath>
</defs>
</svg>
