<svg width="51" height="52" viewBox="0 0 51 52" fill="none" xmlns="http://www.w3.org/2000/svg">
<path d="M42.06 35.5625H38.9473V32.4746C38.9499 32.3582 38.9294 32.2425 38.8868 32.1342C38.8442 32.0258 38.7805 31.9271 38.6994 31.8436C38.6182 31.7602 38.5213 31.6937 38.4142 31.6481C38.3071 31.6025 38.192 31.5787 38.0756 31.5781H35.2865C35.0462 31.5775 34.8153 31.671 34.6431 31.8385C34.4709 32.0061 34.3711 32.2344 34.3652 32.4746V35.5625H31.2025C30.9623 35.5619 30.7313 35.6553 30.5591 35.8229C30.3869 35.9905 30.2872 36.2188 30.2812 36.459V39.248C30.2872 39.4882 30.3869 39.7166 30.5591 39.8841C30.7313 40.0517 30.9623 40.1452 31.2025 40.1445H34.3652V43.332C34.3711 43.5722 34.4709 43.8006 34.6431 43.9681C34.8153 44.1357 35.0462 44.2292 35.2865 44.2285H38.0756C38.192 44.2279 38.3071 44.2041 38.4142 44.1585C38.5213 44.1129 38.6182 44.0465 38.6994 43.963C38.7805 43.8796 38.8442 43.7808 38.8868 43.6725C38.9294 43.5641 38.9499 43.4484 38.9473 43.332V40.1445H42.06C42.1764 40.1439 42.2915 40.1201 42.3986 40.0745C42.5057 40.029 42.6026 39.9625 42.6838 39.8791C42.7649 39.7956 42.8286 39.6968 42.8712 39.5885C42.9137 39.4801 42.9343 39.3644 42.9316 39.248V36.459C42.9343 36.3426 42.9137 36.2269 42.8712 36.1186C42.8286 36.0102 42.7649 35.9114 42.6838 35.828C42.6026 35.7445 42.5057 35.6781 42.3986 35.6325C42.2915 35.5869 42.1764 35.5631 42.06 35.5625ZM41.5371 38.75H38.474C38.2337 38.7494 38.0028 38.8428 37.8306 39.0104C37.6584 39.178 37.5586 39.4063 37.5527 39.6465V42.834H35.7598V39.6465C35.7624 39.5301 35.7419 39.4144 35.6993 39.3061C35.6567 39.1977 35.593 39.0989 35.5119 39.0155C35.4307 38.932 35.3338 38.8656 35.2267 38.82C35.1196 38.7744 35.0045 38.7506 34.8881 38.75H31.6758V36.957H34.8881C35.0045 36.9564 35.1196 36.9326 35.2267 36.887C35.3338 36.8415 35.4307 36.775 35.5119 36.6916C35.593 36.6081 35.6567 36.5093 35.6993 36.401C35.7419 36.2926 35.7624 36.1769 35.7598 36.0606V32.9727H37.5527V36.0606C37.5586 36.3007 37.6584 36.5291 37.8306 36.6966C38.0028 36.8642 38.2337 36.9577 38.474 36.957H41.5371V38.75Z" fill="#213C73"/>
<path d="M36.8385 25.7169C34.9124 25.7175 33.015 26.184 31.3083 27.0767C29.6015 27.9694 28.1361 29.2617 27.037 30.8434C26.8492 30.7857 26.6715 30.7295 26.504 30.6749L25.8272 28.7554C27.919 27.1883 28.492 24.7412 28.6484 23.5558C30.055 23.1742 31.3469 21.5214 31.8644 19.3311C32.1433 18.1464 31.7349 17.0434 30.8478 16.5863C30.602 16.4598 30.3295 16.3937 30.0529 16.3935C30.0988 16.0497 30.1466 15.6293 30.1961 15.113C30.3118 13.9051 30.3853 12.6849 30.3853 12.3758C30.3853 12.1566 30.3897 11.9307 30.3943 11.6915C30.4313 9.78411 30.4772 7.41042 28.3732 5.28237C26.485 3.37266 23.8119 2.31989 21.0403 2.39649C18.2792 2.47199 15.6901 3.65017 13.9365 5.62891C13.8828 5.6898 13.8281 5.7511 13.7726 5.81279C12.7149 6.99455 11.2663 8.61311 11.3703 12.758C11.3803 13.1637 11.7687 15.023 12.1711 16.44C11.9365 16.4633 11.7091 16.5336 11.5023 16.6466C10.6507 17.1068 10.2603 18.1856 10.5306 19.3312C11.0486 21.5253 12.3446 23.1801 13.7545 23.5575C13.923 24.7199 14.513 27.1428 16.5514 28.7113L15.6586 30.5473C15.0211 30.7471 14.3026 30.945 13.561 31.1528C8.76792 32.4962 2.19141 34.3359 2.19141 40.3128V46.5621C2.19141 48.0384 2.98101 49.6074 4.39835 49.6074H36.8803C36.8867 49.6074 36.893 49.6066 36.8994 49.6064C40.0607 49.5883 43.0859 48.3177 45.3121 46.073C47.5382 43.8283 48.7837 40.7927 48.7757 37.6314C48.7676 34.47 47.5066 31.4408 45.2691 29.2075C43.0315 26.9742 39.9999 25.719 36.8385 25.7169ZM14.8119 6.74244C14.8689 6.67882 14.9251 6.61574 14.9806 6.55318C16.4791 4.86202 18.7017 3.85487 21.0785 3.78992C23.4669 3.72358 25.7639 4.62584 27.3817 6.26233C29.0717 7.97152 29.0337 9.93313 29.0003 11.6638C28.9955 11.9101 28.991 12.1427 28.991 12.3752C28.991 12.523 28.9761 12.8297 28.9506 13.2198C28.6134 11.9665 28.1419 10.7559 27.4928 10.0481L27.4412 9.94488C27.3823 9.82709 27.2913 9.72837 27.1786 9.66016C27.066 9.59196 26.9363 9.55705 26.8046 9.55948C26.673 9.5619 26.5447 9.60157 26.4346 9.67389C26.3245 9.7462 26.2372 9.8482 26.1827 9.96809C25.0592 12.4393 23.9463 12.3398 22.1025 12.1753C21.8885 12.1562 21.6707 12.1368 21.4494 12.1214C20.7478 12.0716 20.494 12.4816 20.4174 12.6593C20.1901 13.1873 20.506 13.7573 21.0842 14.4333C19.2435 14.2135 18.777 12.8672 18.3566 11.6528C18.0649 10.8099 17.7343 9.85444 16.7728 9.85444C16.3096 9.84537 15.8497 9.93552 15.4242 10.1189C14.9986 10.3022 14.6172 10.5745 14.3056 10.9174C13.5911 11.6844 13.1885 12.7779 12.9644 13.8495C12.8736 13.4785 12.8071 13.1021 12.7651 12.7225C12.6742 9.13098 13.8098 7.86195 14.8119 6.74244ZM15.0855 22.9134C15.0771 22.7338 15.0001 22.5643 14.8704 22.4398C14.7406 22.3153 14.5681 22.2453 14.3883 22.2443C14.3783 22.2443 14.3684 22.2443 14.3579 22.2443C13.3367 22.2443 12.2584 20.5784 11.8876 19.0104C11.7456 18.4088 11.932 17.9991 12.1652 17.873C12.4289 17.7308 12.7101 17.9813 12.8186 18.0957C12.9098 18.1917 13.0264 18.2597 13.1547 18.2919C13.2831 18.3241 13.418 18.3191 13.5436 18.2774C13.6693 18.2358 13.7805 18.1592 13.8642 18.0567C13.9479 17.9542 14.0008 17.83 14.0165 17.6986C14.0852 17.579 14.1167 17.4416 14.1071 17.304C14.033 16.2345 14.1078 13.1729 15.3263 11.8671C15.4986 11.676 15.7086 11.5225 15.9432 11.4164C16.1777 11.3103 16.4316 11.2538 16.689 11.2506C16.7937 11.4019 16.9336 11.8058 17.0385 12.1091C17.5553 13.602 18.5171 16.3803 22.7796 15.7722C22.9102 15.7536 23.033 15.6982 23.1334 15.6126C23.2339 15.527 23.308 15.4146 23.3471 15.2885C23.3862 15.1624 23.3887 15.0278 23.3543 14.9004C23.3199 14.7729 23.2501 14.6579 23.1529 14.5686C22.8149 14.2578 22.494 13.9289 22.1918 13.5832C23.831 13.7256 25.5032 13.7791 26.8852 11.6046C27.7585 13.2426 28.2133 16.4997 28.3246 17.7931C28.3396 17.9669 28.4191 18.1288 28.5476 18.2468C28.6761 18.3649 28.8441 18.4304 29.0186 18.4306C29.0385 18.4306 29.0584 18.4297 29.0791 18.4279C29.2054 18.4171 29.3263 18.372 29.4289 18.2975C29.5315 18.223 29.6118 18.1219 29.6612 18.0052C29.7988 17.8691 30.0088 17.7223 30.209 17.8252C30.4648 17.957 30.6493 18.4065 30.5072 19.0105C30.1365 20.5788 29.0583 22.2446 28.0368 22.2446H28.0194C27.8841 22.2424 27.751 22.2793 27.6361 22.3509C27.5387 22.4117 27.4579 22.4956 27.4008 22.5952C27.3437 22.6948 27.3122 22.807 27.3091 22.9218C27.2792 23.492 27.0092 26.4074 24.6335 27.8839C24.6296 27.8862 24.626 27.8888 24.6222 27.8912C23.6973 28.4619 22.545 28.7513 21.1974 28.7513C19.8534 28.7513 18.7038 28.4553 17.7798 27.8712C15.4379 26.3925 15.1245 23.4819 15.0854 22.9134H15.0855ZM16.782 31.4258L17.7482 29.4392C18.7488 29.908 19.9049 30.1457 21.1975 30.1457C22.4713 30.1457 23.6121 29.9199 24.6021 29.4751L25.302 31.4602C25.337 31.5597 25.3941 31.6499 25.4691 31.7241C25.544 31.7983 25.6348 31.8545 25.7346 31.8885C25.9083 31.9478 26.0922 32.0082 26.2863 32.0699C25.9446 32.7115 25.6626 33.3832 25.4438 34.0764C24.7986 34.8407 23.4444 36.0096 21.1975 36.0096C20.4393 36.0178 19.6878 35.866 18.9922 35.5643C18.2966 35.2625 17.6724 34.8175 17.1603 34.2582C16.4248 33.4693 16.0085 32.5899 15.8682 31.9422C16.0392 31.8897 16.2068 31.8371 16.3706 31.7839C16.4597 31.7549 16.542 31.7083 16.6127 31.6468C16.6834 31.5852 16.741 31.5101 16.782 31.4258ZM3.58594 46.5621V40.3128C3.58594 35.3934 9.33091 33.7867 13.9371 32.4956C14.1321 32.441 14.3304 32.3871 14.5201 32.3336C15.0246 34.4531 17.2974 37.4037 21.1939 37.4037C22.5292 37.4206 23.8404 37.047 24.9663 36.3289C24.6999 38.7108 25.156 41.1178 26.2754 43.2371C27.3948 45.3564 29.1257 47.0901 31.2432 48.2129H4.39835C3.95449 48.2129 3.58594 47.3255 3.58594 46.5621ZM36.8385 48.2129C34.7518 48.2129 32.712 47.5941 30.977 46.4348C29.2419 45.2754 27.8896 43.6277 27.0911 41.6998C26.2926 39.7719 26.0836 37.6506 26.4907 35.6039C26.8978 33.5573 27.9027 31.6774 29.3782 30.2019C30.8537 28.7263 32.7337 27.7215 34.7803 27.3144C36.8269 26.9073 38.9483 27.1162 40.8761 27.9148C42.804 28.7133 44.4518 30.0656 45.6111 31.8006C46.7704 33.5356 47.3892 35.5755 47.3893 37.6622C47.3862 40.4595 46.2736 43.1413 44.2956 45.1192C42.3176 47.0972 39.6358 48.2098 36.8385 48.2129Z" fill="#213C73"/>
</svg>
