<svg width="26" height="28" viewBox="0 0 26 28" fill="none" xmlns="http://www.w3.org/2000/svg">
<path d="M20.791 0.541687C20.1404 0.541432 19.4984 0.690557 18.9145 0.977571C18.3306 1.26458 17.8204 1.68182 17.4232 2.19713C17.0261 2.71244 16.7525 3.31207 16.6236 3.94979C16.4947 4.58752 16.514 5.24633 16.6799 5.87544C16.5775 5.89807 16.4789 5.93478 16.3866 5.98452L12.4809 8.11377L7.51404 10.9542C7.46491 10.9834 7.4176 11.0156 7.37237 11.0505C6.68138 10.6419 5.88879 10.4373 5.08636 10.4605C4.28392 10.4836 3.50445 10.7336 2.83819 11.1814C2.17193 11.6292 1.64612 12.2566 1.32164 12.9908C0.997157 13.7251 0.887273 14.5363 1.00471 15.3304C1.12214 16.1245 1.46209 16.8692 1.98519 17.4781C2.5083 18.087 3.19318 18.5354 3.96053 18.7712C4.72789 19.007 5.54634 19.0207 6.32113 18.8106C7.09593 18.6005 7.79539 18.1753 8.33854 17.5842L12.4837 19.8891L16.6685 22.1714C16.5835 22.5047 16.541 22.8509 16.541 23.2098C16.5409 24.1991 16.8859 25.1574 17.5166 25.9196C18.1473 26.6818 19.0241 27.2001 19.9959 27.3852C20.9677 27.5703 21.9736 27.4106 22.8403 26.9335C23.707 26.4565 24.3801 25.6921 24.7437 24.772C25.1072 23.852 25.1384 22.8339 24.8318 21.8933C24.5253 20.9527 23.9002 20.1485 23.0643 19.6194C22.2285 19.0902 21.2342 18.8692 20.2529 18.9945C19.2715 19.1197 18.3647 19.5834 17.6885 20.3056L13.5122 18.029L9.3387 15.7114C9.59366 14.6594 9.4376 13.5497 8.90237 12.6089L13.5179 9.97102L17.4038 7.85027C17.4957 7.79939 17.5801 7.73598 17.6545 7.66185C18.1318 8.18308 18.7315 8.57706 19.3994 8.80812C20.0673 9.03919 20.7823 9.10004 21.4797 8.98519C22.177 8.87033 22.8347 8.58338 23.3932 8.15032C23.9517 7.71726 24.3934 7.15175 24.6783 6.50499C24.9632 5.85822 25.0823 5.15061 25.0249 4.44622C24.9674 3.74182 24.7352 3.06287 24.3493 2.47081C23.9634 1.87876 23.4359 1.3923 22.8146 1.05546C22.1933 0.718616 21.4978 0.542032 20.791 0.541687Z" fill="#134A85"/>
</svg>
