<svg width="25" height="25" viewBox="0 0 25 25" fill="none" xmlns="http://www.w3.org/2000/svg">
<path d="M18.899 0.00231499C15.3469 -0.0810183 12.5 2.96794 12.5 6.52211V9.89711C12.5 11.3356 13.6656 12.5013 15.1042 12.5013H18.4792C22.0323 12.5013 25.0823 9.6544 24.999 6.10231C24.9198 2.77315 22.2271 0.08044 18.899 0.00231499ZM21.3542 7.2919H19.7917V8.8544C19.7917 9.4294 19.325 9.89606 18.75 9.89606C18.175 9.89606 17.7083 9.4294 17.7083 8.8544V7.2919H16.1458C15.5708 7.2919 15.1042 6.82523 15.1042 6.25023C15.1042 5.67523 15.5708 5.20856 16.1458 5.20856H17.7083V3.64606C17.7083 3.07106 18.175 2.6044 18.75 2.6044C19.325 2.6044 19.7917 3.07106 19.7917 3.64606V5.20856H21.3542C21.9292 5.20856 22.3958 5.67523 22.3958 6.25023C22.3958 6.82523 21.9292 7.2919 21.3542 7.2919ZM21.5167 15.4752C20.2719 14.2856 18.299 14.2867 17.0562 15.4825L15.0719 17.1554C11.7406 15.7419 9.36979 13.3659 7.85104 9.91898L9.51875 7.94294C10.7125 6.70127 10.7135 4.7294 9.525 3.48357C9.525 3.48357 7.59583 0.976273 7.56354 0.943982C6.30729 -0.314352 4.25937 -0.31331 3.05625 0.895023L1.85833 1.94086C0.660417 3.13773 0 4.75544 0 6.49815C0 14.4523 10.5479 25.0002 18.5021 25.0002C20.2448 25.0002 21.8635 24.3409 23.1073 23.0909L24.0573 21.9971C25.3125 20.7398 25.3125 18.695 24.0573 17.4388C24.026 17.4065 21.5177 15.4773 21.5177 15.4773L21.5167 15.4752Z" fill="url(#paint0_linear_20_185)"/>
<defs>
<linearGradient id="paint0_linear_20_185" x1="25.0006" y1="25.0002" x2="-0.00518745" y2="-0.000396191" gradientUnits="userSpaceOnUse">
<stop stop-color="#F6811F"/>
<stop offset="0.511069" stop-color="#4C586B"/>
<stop offset="1" stop-color="#134A85"/>
</linearGradient>
</defs>
</svg>
