<svg width="51" height="51" viewBox="0 0 51 51" fill="none" xmlns="http://www.w3.org/2000/svg">
<path d="M45.4219 27.0938H45.3422C45.1585 26.1938 44.6695 25.3849 43.9579 24.8041C43.2464 24.2232 42.356 23.9061 41.4375 23.9062H15.9375C15.7262 23.9062 15.5235 23.8223 15.374 23.6729C15.2246 23.5234 15.1406 23.3207 15.1406 23.1094C15.1406 22.4753 14.8888 21.8673 14.4404 21.4189C13.9921 20.9706 13.384 20.7188 12.75 20.7188H7.96875C7.33472 20.7188 6.72665 20.9706 6.27832 21.4189C5.82999 21.8673 5.57812 22.4753 5.57812 23.1094V27.0938C4.94409 27.0938 4.33603 27.3456 3.8877 27.7939C3.43937 28.2423 3.1875 28.8503 3.1875 29.4844C3.1875 30.1184 3.43937 30.7265 3.8877 31.1748C4.33603 31.6231 4.94409 31.875 5.57812 31.875H12.75V32.6719C12.75 33.7286 13.1698 34.742 13.917 35.4893C14.6642 36.2365 15.6777 36.6562 16.7344 36.6562H22.3125V38.25H21.5156C21.1337 38.2511 20.7577 38.3436 20.4189 38.5199C20.0801 38.6962 19.7885 38.951 19.5685 39.2631C19.3484 39.5753 19.2064 39.9355 19.1542 40.3139C19.102 40.6922 19.1411 41.0775 19.2684 41.4375H18.3281C17.6941 41.4375 17.086 41.6894 16.6377 42.1377C16.1894 42.586 15.9375 43.1941 15.9375 43.8281V45.4219C15.9375 46.0559 16.1894 46.664 16.6377 47.1123C17.086 47.5606 17.6941 47.8125 18.3281 47.8125H32.6719C33.3059 47.8125 33.914 47.5606 34.3623 47.1123C34.8106 46.664 35.0625 46.0559 35.0625 45.4219V43.8281C35.0625 43.1941 34.8106 42.586 34.3623 42.1377C33.914 41.6894 33.3059 41.4375 32.6719 41.4375H31.7316C31.8589 41.0775 31.8981 40.6922 31.8459 40.3139C31.7937 39.9355 31.6516 39.5753 31.4315 39.2631C31.2115 38.951 30.9199 38.6962 30.5811 38.5199C30.2423 38.3436 29.8663 38.2511 29.4844 38.25H28.6875V36.6562H34.2656C34.7889 36.6562 35.307 36.5532 35.7904 36.353C36.2738 36.1527 36.713 35.8592 37.083 35.4893C37.453 35.1193 37.7465 34.68 37.9467 34.1966C38.1469 33.7132 38.25 33.1951 38.25 32.6719V31.875H45.4219C46.0559 31.875 46.664 31.6231 47.1123 31.1748C47.5606 30.7265 47.8125 30.1184 47.8125 29.4844C47.8125 28.8503 47.5606 28.2423 47.1123 27.7939C46.664 27.3456 46.0559 27.0938 45.4219 27.0938ZM7.17188 23.1094C7.17188 22.898 7.25583 22.6953 7.40527 22.5459C7.55472 22.3965 7.75741 22.3125 7.96875 22.3125H12.75C12.9613 22.3125 13.164 22.3965 13.3135 22.5459C13.4629 22.6953 13.5469 22.898 13.5469 23.1094C13.5469 23.7434 13.7987 24.3515 14.2471 24.7998C14.6954 25.2481 15.3035 25.5 15.9375 25.5H41.4375C41.9321 25.4997 42.4146 25.6529 42.8185 25.9383C43.2224 26.2238 43.5278 26.6275 43.6927 27.0938H7.17188V23.1094ZM16.7344 35.0625C16.1003 35.0625 15.4923 34.8106 15.0439 34.3623C14.5956 33.914 14.3438 33.3059 14.3438 32.6719V31.875H22.3125V35.0625H16.7344ZM33.4688 43.8281V45.4219C33.4688 45.6332 33.3848 45.8359 33.2354 45.9854C33.0859 46.1348 32.8832 46.2188 32.6719 46.2188H18.3281C18.1168 46.2188 17.9141 46.1348 17.7646 45.9854C17.6152 45.8359 17.5312 45.6332 17.5312 45.4219V43.8281C17.5312 43.6168 17.6152 43.4141 17.7646 43.2646C17.9141 43.1152 18.1168 43.0312 18.3281 43.0312H32.6719C32.8832 43.0312 33.0859 43.1152 33.2354 43.2646C33.3848 43.4141 33.4688 43.6168 33.4688 43.8281ZM30.2812 40.6406C30.2812 40.852 30.1973 41.0547 30.0479 41.2041C29.8984 41.3535 29.6957 41.4375 29.4844 41.4375H21.5156C21.3043 41.4375 21.1016 41.3535 20.9521 41.2041C20.8027 41.0547 20.7188 40.852 20.7188 40.6406C20.7188 40.4293 20.8027 40.2266 20.9521 40.0771C21.1016 39.9277 21.3043 39.8438 21.5156 39.8438H29.4844C29.6957 39.8438 29.8984 39.9277 30.0479 40.0771C30.1973 40.2266 30.2812 40.4293 30.2812 40.6406ZM23.9062 38.25V31.875H27.0938V38.25H23.9062ZM36.6562 32.6719C36.6562 33.3059 36.4044 33.914 35.9561 34.3623C35.5077 34.8106 34.8997 35.0625 34.2656 35.0625H28.6875V31.875H36.6562V32.6719ZM45.4219 30.2812H5.57812C5.36678 30.2812 5.16409 30.1973 5.01465 30.0479C4.86521 29.8984 4.78125 29.6957 4.78125 29.4844C4.78125 29.273 4.86521 29.0703 5.01465 28.9209C5.16409 28.7715 5.36678 28.6875 5.57812 28.6875H45.4219C45.6332 28.6875 45.8359 28.7715 45.9854 28.9209C46.1348 29.0703 46.2188 29.273 46.2188 29.4844C46.2188 29.6957 46.1348 29.8984 45.9854 30.0479C45.8359 30.1973 45.6332 30.2812 45.4219 30.2812ZM5.57812 19.125H23.1094C23.7434 19.125 24.3515 18.8731 24.7998 18.4248C25.2481 17.9765 25.5 17.3684 25.5 16.7344V5.57812C25.5 4.94409 25.2481 4.33603 24.7998 3.8877C24.3515 3.43937 23.7434 3.1875 23.1094 3.1875H5.57812C4.94409 3.1875 4.33603 3.43937 3.8877 3.8877C3.43937 4.33603 3.1875 4.94409 3.1875 5.57812V16.7344C3.1875 17.3684 3.43937 17.9765 3.8877 18.4248C4.33603 18.8731 4.94409 19.125 5.57812 19.125ZM4.78125 5.57812C4.78125 5.36678 4.86521 5.16409 5.01465 5.01465C5.16409 4.86521 5.36678 4.78125 5.57812 4.78125H23.1094C23.3207 4.78125 23.5234 4.86521 23.6729 5.01465C23.8223 5.16409 23.9062 5.36678 23.9062 5.57812V16.7344C23.9062 16.9457 23.8223 17.1484 23.6729 17.2979C23.5234 17.4473 23.3207 17.5312 23.1094 17.5312H5.57812C5.36678 17.5312 5.16409 17.4473 5.01465 17.2979C4.86521 17.1484 4.78125 16.9457 4.78125 16.7344V5.57812ZM7.17188 11.1562C7.17188 10.9449 7.25583 10.7422 7.40527 10.5928C7.55472 10.4433 7.75741 10.3594 7.96875 10.3594H10.8295L12.4233 8.76562C12.6461 8.54408 12.9295 8.39336 13.2378 8.33242C13.5461 8.27148 13.8655 8.30302 14.1559 8.4231C14.4463 8.54318 14.6947 8.74642 14.8699 9.00728C15.0451 9.26814 15.1393 9.57498 15.1406 9.88922V12.4233L16.7344 10.8295C17.0319 10.5302 17.436 10.3612 17.858 10.3594H20.7188C20.9301 10.3594 21.1328 10.4433 21.2822 10.5928C21.4317 10.7422 21.5156 10.9449 21.5156 11.1562C21.5156 11.3676 21.4317 11.5703 21.2822 11.7197C21.1328 11.8692 20.9301 11.9531 20.7188 11.9531H17.858L16.2642 13.5469C15.9667 13.8462 15.5626 14.0153 15.1406 14.017C14.9294 14.0178 14.7204 13.9744 14.527 13.8895C14.2375 13.7687 13.99 13.5652 13.8156 13.3043C13.6413 13.0435 13.5478 12.737 13.5469 12.4233V9.88922L11.9531 11.483C11.6556 11.7823 11.2515 11.9513 10.8295 11.9531H7.96875C7.75741 11.9531 7.55472 11.8692 7.40527 11.7197C7.25583 11.5703 7.17188 11.3676 7.17188 11.1562ZM39.8438 17.9217C40.2435 18.3142 40.7685 18.5539 41.3269 18.5988C41.8854 18.6437 42.4419 18.491 42.8993 18.1674C43.3567 17.8439 43.6858 17.3699 43.8294 16.8284C43.9729 16.2868 43.9217 15.712 43.6847 15.2044L44.3541 14.535C45.101 13.7878 45.5206 12.7746 45.5206 11.718C45.5206 10.6615 45.101 9.64827 44.3541 8.90109L42.0989 6.64594C41.3517 5.89898 40.3385 5.47937 39.282 5.47937C38.2254 5.47937 37.2122 5.89898 36.465 6.64594L35.7877 7.32328C35.3422 7.12016 34.8463 7.05487 34.3635 7.13581C33.8807 7.21675 33.4331 7.44022 33.0783 7.7775C32.6306 8.22574 32.3791 8.83336 32.3791 9.46688C32.3791 10.1004 32.6306 10.708 33.0783 11.1562L39.8438 17.9217ZM40.9673 7.7775L43.2225 10.0327C43.6702 10.4809 43.9216 11.0885 43.9216 11.722C43.9216 12.3555 43.6702 12.9632 43.2225 13.4114L42.6647 13.9772L37.0228 8.33531L37.5886 7.7775C38.0428 7.34116 38.6482 7.09747 39.278 7.09747C39.9078 7.09747 40.5132 7.34116 40.9673 7.7775ZM34.2098 8.90109C34.3591 8.75268 34.5611 8.66937 34.7716 8.66937C34.9822 8.66937 35.1841 8.75268 35.3334 8.90109L42.0989 15.6666C42.2473 15.8159 42.3306 16.0178 42.3306 16.2284C42.3306 16.4389 42.2473 16.6409 42.0989 16.7902C42.0248 16.8648 41.9367 16.9241 41.8396 16.9646C41.7425 17.005 41.6383 17.0259 41.5331 17.0259C41.4279 17.0259 41.3238 17.005 41.2267 16.9646C41.1296 16.9241 41.0414 16.8648 40.9673 16.7902L34.2098 10.0327C34.1352 9.95858 34.0759 9.87044 34.0354 9.77333C33.995 9.67623 33.9741 9.57207 33.9741 9.46688C33.9741 9.36168 33.995 9.25752 34.0354 9.16042C34.0759 9.06331 34.1352 8.97517 34.2098 8.90109Z" fill="#134A85"/>
</svg>
