<svg width="51" height="51" viewBox="0 0 51 51" fill="none" xmlns="http://www.w3.org/2000/svg">
<g clip-path="url(#clip0_2391_5664)">
<path d="M48.6096 42.2344H47.0158V32.652C47.9777 31.9237 48.6096 30.7809 48.6096 29.4844C48.6096 27.2874 46.8222 25.5001 44.6252 25.5001C44.4371 25.5001 44.2578 25.5303 44.0769 25.555L39.0264 20.5044C38.9754 19.7347 38.6646 19.0151 38.1139 18.4644C36.9099 17.2596 34.8093 17.2596 33.606 18.4644L30.4185 21.6519C29.8161 22.2544 29.4846 23.0552 29.4846 23.9063C29.4846 24.484 29.6487 25.0323 29.934 25.5168L28.9212 26.5296C28.6096 26.8412 28.6096 27.3448 28.9212 27.6564C29.0766 27.8126 29.2806 27.8907 29.4846 27.8907C29.6886 27.8907 29.8926 27.8126 30.048 27.6572L31.0608 26.6444C31.5461 26.9297 32.0943 27.0938 32.6721 27.0938C33.5239 27.0938 34.324 26.7615 34.9256 26.1599L36.423 24.6625L40.6958 28.9354C40.6711 29.1171 40.6408 29.2964 40.6408 29.4844C40.6408 30.7809 41.2727 31.9237 42.2346 32.652V42.2344H40.6408C39.3228 42.2344 38.2502 43.307 38.2502 44.6251V50.2032C38.2502 50.6431 38.6072 51.0001 39.0471 51.0001H50.2033C50.6432 51.0001 51.0002 50.6431 51.0002 50.2032V44.6251C51.0002 43.307 49.9276 42.2344 48.6096 42.2344ZM47.0158 29.4844C47.0158 30.8025 45.9432 31.8751 44.6252 31.8751C43.3072 31.8751 42.2346 30.8025 42.2346 29.4844C42.2346 28.1664 43.3072 27.0938 44.6252 27.0938C45.9432 27.0938 47.0158 28.1664 47.0158 29.4844ZM33.7989 25.0331C33.1972 25.6355 32.1477 25.6355 31.5453 25.0331C31.2441 24.7319 31.0783 24.3318 31.0783 23.9063C31.0783 23.4808 31.2441 23.0807 31.5453 22.7795L34.7328 19.592C35.034 19.2908 35.434 19.1251 35.8596 19.1251C36.2851 19.1251 36.6851 19.2908 36.9864 19.592C37.2876 19.8932 37.4533 20.2933 37.4533 20.7188C37.4533 21.1443 37.2876 21.5444 36.9864 21.8456L33.7989 25.0331ZM37.5497 23.5358L38.1131 22.9724C38.3068 22.7787 38.4614 22.5588 38.5968 22.3293L42.4314 26.1639C41.9844 26.4603 41.6011 26.8436 41.3046 27.2906L37.5497 23.5358ZM43.8283 33.3883C44.0857 33.4409 44.3527 33.4688 44.6252 33.4688C44.8977 33.4688 45.1647 33.4409 45.4221 33.3883V42.2344H43.8283V33.3883ZM49.4064 49.4063H39.844V44.6251C39.844 44.186 40.2017 43.8282 40.6408 43.8282H48.6096C49.0487 43.8282 49.4064 44.186 49.4064 44.6251V49.4063Z" fill="#134A85"/>
<path d="M10.3594 42.2344H8.76562V32.6519C9.72745 31.9236 10.3594 30.7809 10.3594 29.4844C10.3594 29.2963 10.3291 29.117 10.3044 28.9361L14.5772 24.6633L16.0738 26.1606C16.6762 26.7614 17.4763 27.0937 18.3281 27.0937C18.9059 27.0937 19.4541 26.9296 19.9386 26.6443L20.9514 27.6571C21.1076 27.8125 21.3116 27.8906 21.5156 27.8906C21.7196 27.8906 21.9236 27.8125 22.079 27.6571C22.3906 27.3456 22.3906 26.8419 22.079 26.5304L21.0662 25.5175C21.3515 25.0322 21.5156 24.484 21.5156 23.9062C21.5156 23.0552 21.1841 22.2543 20.5817 21.6527L17.3942 18.4652C16.1901 17.2603 14.0895 17.2603 12.8863 18.4652C12.3356 19.0158 12.0248 19.7354 11.973 20.5052L6.92245 25.5558C6.74236 25.5303 6.56306 25.5 6.375 25.5C4.17802 25.5 2.39062 27.2874 2.39062 29.4844C2.39062 30.7809 3.02255 31.9236 3.98438 32.6519V42.2344H2.39062C1.07259 42.2344 0 43.307 0 44.625V50.2031C0 50.643 0.357 51 0.796875 51H11.9531C12.393 51 12.75 50.643 12.75 50.2031V44.625C12.75 43.307 11.6774 42.2344 10.3594 42.2344ZM14.0138 19.592C14.3151 19.2907 14.7151 19.125 15.1406 19.125C15.5662 19.125 15.9662 19.2907 16.2674 19.592L19.4549 22.7795C19.7561 23.0807 19.9219 23.4807 19.9219 23.9062C19.9219 24.3318 19.7561 24.7318 19.4549 25.033C18.8533 25.6355 17.8038 25.6355 17.2013 25.033L14.0138 21.8455C13.7126 21.5443 13.5469 21.1443 13.5469 20.7187C13.5469 20.2932 13.7126 19.8932 14.0138 19.592ZM12.4026 22.3292C12.538 22.5587 12.6926 22.7779 12.8863 22.9723L13.4497 23.5357L9.69478 27.2906C9.39834 26.8435 9.01505 26.4602 8.568 26.1638L12.4026 22.3292ZM6.375 27.0937C7.69303 27.0937 8.76562 28.1663 8.76562 29.4844C8.76562 30.8024 7.69303 31.875 6.375 31.875C5.05697 31.875 3.98438 30.8024 3.98438 29.4844C3.98438 28.1663 5.05697 27.0937 6.375 27.0937ZM7.17188 33.3883V42.2344H5.57812V33.3883C5.83552 33.4409 6.10247 33.4687 6.375 33.4687C6.64753 33.4687 6.91448 33.4409 7.17188 33.3883ZM11.1562 49.4062H1.59375V44.625C1.59375 44.1859 1.95155 43.8281 2.39062 43.8281H10.3594C10.7985 43.8281 11.1562 44.1859 11.1562 44.625V49.4062Z" fill="#134A85"/>
<path d="M34.2656 38.25C34.2656 36.4921 32.836 35.0625 31.0781 35.0625H19.9219C18.164 35.0625 16.7344 36.4921 16.7344 38.25C15.4163 38.25 14.3438 39.3226 14.3438 40.6406V42.2344C14.3438 43.5524 15.4163 44.625 16.7344 44.625H21.5156V49.4062H19.0589C18.619 49.4062 18.262 49.7633 18.262 50.2031C18.262 50.643 18.619 51 19.0589 51H31.875C32.3149 51 32.6719 50.643 32.6719 50.2031C32.6719 49.7633 32.3149 49.4062 31.875 49.4062H29.4844V44.625H34.2656C35.5837 44.625 36.6562 43.5524 36.6562 42.2344V40.6406C36.6562 39.3226 35.5837 38.25 34.2656 38.25ZM19.9219 36.6562H31.0781C31.9571 36.6562 32.6719 37.371 32.6719 38.25H18.3281C18.3281 37.371 19.0429 36.6562 19.9219 36.6562ZM27.8906 49.4062H23.1094V44.625H27.8906V49.4062ZM35.0625 42.2344C35.0625 42.6735 34.7047 43.0312 34.2656 43.0312H16.7344C16.2953 43.0312 15.9375 42.6735 15.9375 42.2344V40.6406C15.9375 40.2015 16.2953 39.8438 16.7344 39.8438H34.2656C34.7047 39.8438 35.0625 40.2015 35.0625 40.6406V42.2344Z" fill="#134A85"/>
<path d="M25.5 16.7344C31.2941 16.7344 37.4531 15.0585 37.4531 11.9531V7.96875C37.4531 5.28966 32.8695 3.67758 27.8906 3.28472V0.796875C27.8906 0.357 27.5336 0 27.0938 0H23.9062C23.4664 0 23.1094 0.357 23.1094 0.796875V3.28472C18.1305 3.67758 13.5469 5.28966 13.5469 7.96875V11.9531C13.5469 15.0585 19.7059 16.7344 25.5 16.7344ZM24.7031 1.59375H26.2969V3.20184C26.0315 3.19467 25.7654 3.1875 25.5 3.1875C25.2346 3.1875 24.9685 3.19467 24.7031 3.20184V1.59375ZM15.1406 7.96875C15.1406 6.66905 19.176 4.78125 25.5 4.78125C31.824 4.78125 35.8594 6.66905 35.8594 7.96875V9.47723C33.6544 7.96716 29.4915 7.17188 25.5 7.17188C21.5085 7.17188 17.3456 7.96716 15.1406 9.47723V7.96875ZM25.5 8.76562C31.824 8.76562 35.8594 10.6534 35.8594 11.9531C35.8594 13.2528 31.824 15.1406 25.5 15.1406C19.176 15.1406 15.1406 13.2528 15.1406 11.9531C15.1406 10.6534 19.176 8.76562 25.5 8.76562Z" fill="#134A85"/>
</g>
<defs>
<clipPath id="clip0_2391_5664">
<rect width="51" height="51" fill="white"/>
</clipPath>
</defs>
</svg>
