<svg width="51" height="51" viewBox="0 0 51 51" fill="none" xmlns="http://www.w3.org/2000/svg">
<g clip-path="url(#clip0_2391_5681)">
<path d="M50.5204 24.1871V14.7325C50.5204 10.7185 47.8628 6.97654 43.037 4.19604C38.3408 1.49016 32.1128 0 25.5005 0C19.7132 0 14.0758 1.17908 9.6265 3.32018C9.25466 3.49908 9.09837 3.94553 9.27727 4.31727C9.45617 4.68911 9.90272 4.8456 10.2744 4.6665C14.5256 2.62082 19.933 1.49414 25.5005 1.49414C31.8551 1.49414 37.8181 2.91347 42.291 5.49067C46.6344 7.99315 49.0263 11.2753 49.0263 14.7325V19.1501C48.0835 17.6077 46.7102 16.1614 44.9474 14.8835C44.6133 14.6413 44.1462 14.7159 43.9041 15.0499C43.6619 15.384 43.7364 15.851 44.0704 16.0932C45.8459 17.3802 47.1618 18.802 47.9901 20.3084L44.7399 21.2768C44.4232 21.3711 44.2062 21.6622 44.2062 21.9928V26.3817C44.2062 26.7121 44.4232 27.0034 44.7399 27.0977L47.9761 28.062C46.607 30.5412 43.9475 32.7799 40.2912 34.4568V24.1459C40.7282 24.3645 41.153 24.5933 41.5642 24.8327C41.9221 25.0411 42.3789 24.9183 42.5858 24.5632C42.7933 24.2067 42.6727 23.7493 42.3162 23.5416C37.826 20.9262 31.8541 19.486 25.5005 19.486C19.1468 19.486 13.1749 20.9263 8.6847 23.5417C8.32819 23.7494 8.20747 24.2068 8.41515 24.5633C8.62284 24.9198 9.08024 25.0405 9.43675 24.8328C9.84793 24.5934 10.2727 24.3645 10.7097 24.146V34.4567C7.05339 32.7798 4.39392 30.5412 3.02479 28.0619L6.261 27.0976C6.57766 27.0033 6.79471 26.7121 6.79471 26.3816V21.9927C6.79471 21.6623 6.57766 21.371 6.261 21.2767L3.01334 20.3091C4.10565 18.3201 6.03787 16.4851 8.71 14.9455C11.6811 13.2336 15.3101 12.0334 19.2743 11.4199L21.321 15.3536C21.4496 15.6007 21.7051 15.7558 21.9837 15.7558H29.0173C29.2959 15.7558 29.5514 15.6007 29.68 15.3536L31.7243 11.4245C35.2181 11.968 38.4705 12.9665 41.2177 14.3641C41.5854 14.5512 42.0352 14.4048 42.2223 14.037C42.4093 13.6692 42.2629 13.2194 41.8952 13.0324C36.9811 10.5325 31.0133 9.45492 25.5005 9.45492C18.8881 9.45492 12.6602 10.9451 7.96402 13.6509C5.25574 15.2112 3.23068 17.0744 1.97461 19.1186V14.7325C1.97461 11.6931 3.88442 8.71353 7.35232 6.34243C7.69288 6.10954 7.78024 5.64466 7.54736 5.3041C7.31457 4.96354 6.84969 4.87608 6.50903 5.10906C2.62147 7.76704 0.480469 11.1847 0.480469 14.7324V24.187C0.480469 26.8276 1.66512 29.2412 3.46965 31.2109C5.22237 33.124 7.71898 34.8044 10.7097 36.0907V50.2529C10.7097 50.6655 11.0441 51 11.4567 51C11.8693 51 12.2038 50.6655 12.2038 50.2529V23.4609C13.8704 22.7601 15.6841 22.1997 17.6018 21.7901C17.4458 22.4581 17.3663 23.1454 17.3663 23.8454C17.3663 24.6546 17.4735 25.4519 17.6845 26.2203C17.1269 27.5219 17.8256 29.1227 19.1143 29.8188C19.5356 30.0464 19.9809 30.1616 20.4134 30.1629C20.6381 31.0956 21.3607 32.0382 22.1079 32.6805V35.3604L16.2281 36.8341C14.9788 37.1481 14.1062 38.2664 14.1062 39.5538V50.2529C14.1062 50.6655 14.4407 51 14.8533 51C15.2659 51 15.6004 50.6655 15.6004 50.2529V39.5539C15.6004 38.9525 16.0083 38.4301 16.5919 38.2834L21.6656 37.0117L24.5612 42.447C24.7465 42.7949 25.1065 43.0109 25.5006 43.0109C25.8946 43.0109 26.2546 42.7949 26.4399 42.447L29.3355 37.0117L34.4087 38.2833C34.9927 38.4301 35.4006 38.9525 35.4006 39.5539V50.2529C35.4006 50.6655 35.7351 51 36.1477 51C36.5603 51 36.8948 50.6655 36.8948 50.2529V39.5539C36.8948 38.2666 36.0222 37.1482 34.7724 36.8341L28.8931 35.3605V32.6807C29.6401 32.0384 30.3628 31.0958 30.5875 30.163C31.0199 30.1618 31.4653 30.0465 31.8866 29.8189C33.1788 29.1208 33.8703 27.5132 33.3164 26.2204C33.5274 25.452 33.6346 24.6547 33.6346 23.8456C33.6346 23.1455 33.5551 22.4582 33.3991 21.7903C35.3168 22.1999 37.1305 22.7602 38.7971 23.4611V50.2529C38.7971 50.6655 39.1316 51 39.5442 51C39.9568 51 40.2912 50.6655 40.2912 50.2529V36.0908C45.4678 33.8644 50.5204 29.795 50.5204 24.1871ZM30.1503 11.2125L28.5637 14.2618H22.4372L20.8486 11.2086C22.3638 11.037 23.92 10.9491 25.5006 10.9491C27.0739 10.9491 28.6304 11.0388 30.1503 11.2125ZM5.30047 22.5496V25.8246L2.40901 26.6861C2.12422 25.8682 1.97461 25.0318 1.97461 24.187C1.97461 23.3396 2.11924 22.5029 2.40014 21.6854L5.30047 22.5496ZM18.9976 27.3339C18.9314 26.8663 19.1647 26.5465 19.4252 26.4369C19.7114 26.3165 20.0432 26.4253 20.3416 26.7266V28.663C20.1737 28.6498 19.9961 28.5971 19.8243 28.5042C19.3762 28.2621 19.0671 27.8245 18.9976 27.3339ZM25.5005 41.0325L23.1297 36.5824C23.4185 36.391 23.6019 36.0642 23.6019 35.702V33.522C24.1573 33.6801 24.8284 33.7595 25.5003 33.7595C26.1719 33.7595 26.8433 33.68 27.399 33.5219V35.702C27.399 36.0638 27.5821 36.3904 27.8714 36.5821L25.5005 41.0325ZM29.1651 29.5922C29.1651 30.3843 27.9708 31.6857 27.2698 31.9883C26.41 32.3586 24.5909 32.3585 23.7317 31.9885C23.0336 31.6871 21.8358 30.3885 21.8358 29.5921V24.7988C21.8358 24.339 22.21 23.9648 22.6699 23.9648H22.9398C23.4638 24.5947 24.131 25.0745 24.8803 25.3581C25.9658 25.7699 27.404 25.847 29.1651 25.2528V29.5922ZM32.0033 27.3337C31.9338 27.8246 31.6247 28.2622 31.1765 28.5043C31.0047 28.5972 30.8271 28.65 30.6592 28.6632V26.7268C30.9577 26.4254 31.2896 26.3167 31.5757 26.437C31.8361 26.5465 32.0694 26.8663 32.0033 27.3337ZM32.1404 23.8455C32.1404 24.2412 32.1092 24.6332 32.0487 25.0187C31.6469 24.8752 31.1585 24.839 30.6592 24.998V24.6684C30.6592 24.3078 30.4811 23.9715 30.1827 23.7689C29.8856 23.567 29.5088 23.5253 29.1752 23.6576C28.8086 23.803 28.4724 23.9145 28.1471 23.9989C27.4331 24.1845 26.3785 24.3285 25.4098 23.961C24.8665 23.7554 24.3655 23.3775 23.9989 22.897C23.7953 22.6302 23.4717 22.4708 23.1333 22.4708H22.67C21.3862 22.4708 20.3418 23.5152 20.3418 24.799V24.998C19.8424 24.839 19.354 24.8752 18.9523 25.0187C18.8918 24.6332 18.8606 24.2412 18.8606 23.8455C18.8606 23.0306 18.989 22.2373 19.2406 21.4811C21.2482 21.1513 23.35 20.98 25.5007 20.98C27.6513 20.98 29.7531 21.1513 31.7607 21.4811C32.012 22.2373 32.1404 23.0306 32.1404 23.8455ZM45.7004 25.8246V22.5496L48.603 21.6848C48.8832 22.502 49.0264 23.3385 49.0264 24.1871C49.0264 25.0318 48.8768 25.8682 48.592 26.6862L45.7004 25.8246Z" fill="#134A85"/>
<path d="M31.9199 42.2639C31.5073 42.2639 31.1729 42.5984 31.1729 43.011V50.2529C31.1729 50.6655 31.5073 51 31.9199 51C32.3325 51 32.667 50.6655 32.667 50.2529V43.011C32.667 42.5984 32.3325 42.2639 31.9199 42.2639Z" fill="#134A85"/>
<path d="M19.0811 42.2637C18.6685 42.2637 18.334 42.5982 18.334 43.0107V50.2526C18.334 50.6652 18.6685 50.9997 19.0811 50.9997C19.4936 50.9997 19.8281 50.6652 19.8281 50.2526V43.0107C19.8281 42.5982 19.4936 42.2637 19.0811 42.2637Z" fill="#134A85"/>
</g>
<defs>
<clipPath id="clip0_2391_5681">
<rect width="51" height="51" fill="white"/>
</clipPath>
</defs>
</svg>
