<svg width="51" height="51" viewBox="0 0 51 51" fill="none" xmlns="http://www.w3.org/2000/svg">
<path d="M17.083 4H33.9091V13.3478H17.083V4Z" stroke="#134A85" stroke-width="1.86957" stroke-linecap="round" stroke-linejoin="round"/>
<path d="M33.9092 9.6084H44.1918" stroke="#134A85" stroke-width="1.86957" stroke-linecap="round" stroke-linejoin="round"/>
<path d="M6.80078 9.60864H17.0834" stroke="#134A85" stroke-width="1.86957" stroke-linecap="round" stroke-linejoin="round"/>
<path d="M23.1592 13.3477V15.6846L25.4961 18.0216L27.8331 15.6846V13.3477" stroke="#134A85" stroke-width="1.86957" stroke-linecap="round" stroke-linejoin="round"/>
<path d="M6.80078 29.6851V5.86963H17.0834" stroke="#134A85" stroke-width="1.86957" stroke-linecap="round" stroke-linejoin="round"/>
<path d="M33.9092 5.86963H44.1918V29.4215" stroke="#134A85" stroke-width="1.86957" stroke-linecap="round" stroke-linejoin="round"/>
<path d="M19.4076 42.7778C20.6582 43.7207 22.0857 44.4023 23.6052 44.7821C25.1247 45.1619 26.7051 45.2321 28.2522 44.9885C29.7994 44.7449 31.2817 44.1924 32.6109 43.3641C33.9402 42.5357 35.0892 41.4484 35.9895 40.1667C37.0447 39.3835 37.91 38.3726 38.5209 37.209C39.1318 36.0455 39.4726 34.7592 39.5181 33.4458C39.4726 32.1325 39.1318 30.8462 38.5209 29.6827C37.91 28.5191 37.0447 27.5082 35.9895 26.7249C34.3787 24.4398 32.002 22.8079 29.2907 22.1257C26.5795 21.4434 23.7135 21.756 21.213 23.0067C18.7126 24.2573 16.7435 26.3632 15.6632 28.9418C14.583 31.5205 14.4632 34.401 15.3257 37.0604" stroke="#134A85" stroke-width="1.86957" stroke-linecap="round" stroke-linejoin="round"/>
<path d="M18.7797 35.8765C18.4843 37.4776 16.9419 39.951 14.4629 41.7772" stroke="#134A85" stroke-width="1.86957" stroke-linecap="round" stroke-linejoin="round"/>
<path d="M24.0026 41.2344C21.235 41.3125 18.5718 42.3081 16.4316 44.0646" stroke="#134A85" stroke-width="1.86957" stroke-linecap="round" stroke-linejoin="round"/>
<path d="M33.3477 28.7305C32.3458 27.3055 30.9159 26.2367 29.2655 25.6792C27.6151 25.1217 25.8301 25.1044 24.1692 25.6299C22.5083 26.1553 21.058 27.1962 20.0286 28.6016C18.9993 30.0069 18.4443 31.7036 18.4443 33.4456C18.4443 35.1876 18.9993 36.8844 20.0286 38.2897C21.058 39.695 22.5083 40.7359 24.1692 41.2614C25.8301 41.7868 27.6151 41.7696 29.2655 41.212C30.9159 40.6545 32.3458 39.5858 33.3477 38.1608" stroke="#134A85" stroke-width="1.86957" stroke-linecap="round" stroke-linejoin="round"/>
<path d="M33.5311 37.9935C34.6555 37.9935 35.567 35.9813 35.567 33.4991C35.567 31.0169 34.6555 29.0046 33.5311 29.0046C32.4066 29.0046 31.4951 31.0169 31.4951 33.4991C31.4951 35.9813 32.4066 37.9935 33.5311 37.9935Z" stroke="#134A85" stroke-width="1.86957" stroke-linecap="round" stroke-linejoin="round"/>
<path d="M20.4314 47H3.99609L10.5396 33.9131H12.4652" stroke="#134A85" stroke-width="1.86957" stroke-linecap="round" stroke-linejoin="round"/>
<path d="M41.5541 36.4619L46.9337 46.9997H32.4072" stroke="#134A85" stroke-width="1.86957" stroke-linecap="round" stroke-linejoin="round"/>
</svg>
