<svg width="47" height="51" viewBox="0 0 47 51" fill="none" xmlns="http://www.w3.org/2000/svg">
<path d="M6.64193 25.6619C8.74379 25.6619 10.454 23.9463 10.454 21.8379C10.454 19.7357 8.74379 18.0255 6.64193 18.0255C4.5331 18.0255 2.81763 19.7357 2.81763 21.8379C2.81763 23.9463 4.5331 25.6619 6.64193 25.6619ZM6.64193 19.2446C8.07172 19.2446 9.23486 20.408 9.23486 21.838C9.23486 23.2743 8.07172 24.443 6.64193 24.443C5.20516 24.443 4.03674 23.2744 4.03674 21.838C4.03674 20.4079 5.20516 19.2446 6.64193 19.2446ZM43.998 37.4207H42.7076V35.688C42.7076 35.6376 42.6996 35.5892 42.6881 35.5421C42.6848 35.5291 42.6803 35.5167 42.6762 35.5041C42.665 35.4688 42.6508 35.4351 42.6337 35.4028C42.6275 35.3912 42.6219 35.3797 42.615 35.3687C42.5896 35.328 42.5612 35.2895 42.5273 35.2556C42.5251 35.2533 42.5219 35.2516 42.5194 35.2492C42.487 35.218 42.4503 35.1912 42.4115 35.1678C42.406 35.1646 42.4022 35.16 42.3967 35.1568C41.4769 34.6399 40.8319 31.9876 40.5219 30.713C40.4203 30.2963 40.3329 29.9363 40.2537 29.6858C40.0218 28.9468 39.6114 27.9252 38.7298 27.5872C38.1456 27.3634 37.4927 27.4725 36.7373 27.9191C36.0114 28.3404 35.4801 28.8257 35.075 29.4335C35.0116 29.5232 34.9395 29.6436 34.8652 29.7689C34.8196 29.8452 34.7537 29.9566 34.6985 30.0387C34.4237 30.0673 33.7498 30.0015 33.2563 29.9121C32.1429 29.7326 31.0251 29.61 30.0794 29.5133C29.7484 29.4789 29.4061 29.4458 29.0555 29.4119C26.7408 29.1878 24.1172 28.9345 22.1563 28.0784C20.972 27.5655 19.9197 26.9845 18.9017 26.4224C18.6415 26.2788 18.3849 26.1371 18.1202 25.9937C17.4092 25.6235 16.6616 25.6264 15.8957 25.9969C13.9743 25.1205 11.7191 24.539 8.41766 25.7463C7.97649 25.9065 7.66322 26.2526 7.52795 26.7511C7.42565 27.2219 7.55136 27.6753 7.88864 28.0339L13.4098 33.7341C13.5073 33.8346 13.6367 33.8988 13.7759 33.9153L14.2302 33.9691V34.8994H13.9269L4.61826 25.2742C4.16584 24.8063 3.55842 24.5437 2.90767 24.5356C2.24686 24.5181 1.66146 24.7685 1.21083 25.2118C0.262645 26.1286 0.233161 27.6552 1.14887 28.619L9.66198 37.4207H5.67382C5.33724 37.4207 5.06422 37.6938 5.06422 38.0303V40.3729C5.06422 40.7093 5.33724 40.9823 5.67382 40.9823H18.6397V41.6872C18.6397 42.5635 19.3582 43.2768 20.2412 43.2768H21.3646V45.4874H18.0423C17.1659 45.4874 16.4529 46.2006 16.4529 47.0769V49.7777C16.4529 50.1139 16.7258 50.3871 17.0625 50.3871H32.6213C32.958 50.3871 33.231 50.1139 33.231 49.7777V47.0769C33.231 46.2006 32.5181 45.4874 31.6417 45.4874H28.3193V43.2768H29.4427C30.3191 43.2768 31.032 42.5636 31.032 41.6872V40.9823H43.9979C44.3344 40.9823 44.6075 40.7093 44.6075 40.3729V38.0303C44.6076 37.6938 44.3345 37.4207 43.998 37.4207ZM8.77078 27.1924C8.71609 27.1343 8.70265 27.0865 8.71191 27.0408C8.741 26.9339 8.7899 26.9078 8.83483 26.8915C11.4493 25.9355 13.2828 26.2031 15.1089 26.9829C14.9232 27.3951 14.7725 27.7297 14.6495 28.0033L13.9323 27.2861C13.6939 27.0482 13.3086 27.0482 13.0702 27.2861C12.8323 27.5244 12.8323 27.91 13.0702 28.1482L14.3569 29.4348C14.3933 29.4829 14.4346 29.5273 14.4854 29.5635L15.7591 30.8371C15.8428 30.9205 15.9492 30.9782 16.0652 31.0026L21.3341 32.1061C21.6607 32.225 21.8783 32.5278 21.8783 32.8677C21.8783 33.1811 21.6948 33.4661 21.4208 33.5953L14.1347 32.7302L8.77078 27.1924ZM21.424 34.8234C21.4479 34.8262 21.4719 34.8276 21.496 34.8276C21.5561 34.8276 21.6163 34.8186 21.6741 34.8008C22.5122 34.5445 23.0972 33.7498 23.0972 32.8677C23.0972 31.9895 22.5298 31.2137 21.685 30.9382C21.664 30.9312 21.6424 30.9254 21.6207 30.9208L16.4927 29.8467L15.5714 28.9255C15.7321 28.5677 16.0019 27.9674 16.3879 27.1116C16.9402 26.8317 17.2999 26.9408 17.5485 27.0699C17.8006 27.207 18.0551 27.3474 18.3126 27.4895C19.3556 28.0651 20.4341 28.6608 21.6701 29.196C23.8071 30.1286 26.533 30.3925 28.9382 30.6251C29.2858 30.6586 29.6255 30.6914 29.9544 30.7256C30.884 30.8205 31.9798 30.9412 33.0505 31.1135C35.0541 31.4771 35.4032 31.0918 35.5298 30.9524C35.669 30.8023 35.7932 30.5932 35.9133 30.3908C35.9696 30.2961 36.0232 30.2039 36.0801 30.1228C36.3871 29.6628 36.7902 29.2976 37.3533 28.9709C37.6374 28.8029 38.0312 28.6244 38.2933 28.7252C38.491 28.8011 38.79 29.0928 39.0911 30.0518C39.158 30.2643 39.2412 30.6057 39.3374 31.001C39.6383 32.2377 40.0472 33.9152 40.7381 35.0785H27.3994C27.0626 35.0785 26.7897 35.3516 26.7897 35.6879C26.7897 36.0246 27.0626 36.2976 27.3994 36.2976H41.4886V37.4206H15.4493V34.1138L21.424 34.8234ZM2.02872 27.7756C1.5757 27.2988 1.58884 26.5416 2.06169 26.0848C2.28252 25.8675 2.57209 25.7318 2.89223 25.7545C3.21527 25.7586 3.51698 25.8889 3.742 26.1215L13.2305 35.9325C13.3453 36.0512 13.5033 36.1185 13.6685 36.1185H14.2302V37.4208H11.3575L2.02872 27.7756ZM32.0119 47.0767V49.1679H17.672V47.0767C17.672 46.8759 17.8416 46.7064 18.0424 46.7064H31.6417C31.8424 46.7064 32.0119 46.876 32.0119 47.0767ZM27.1005 45.4872H22.5836V43.2766H27.1005V45.4872ZM29.8131 41.6871C29.8131 41.888 29.6435 42.0576 29.4428 42.0576H20.2412C20.0301 42.0576 19.8587 41.8914 19.8587 41.6871V40.9822H29.8131V41.6871ZM43.3886 39.7631H6.28323V38.6398H43.3886V39.7631ZM43.4365 6.15904C43.3987 6.15904 43.3619 6.16342 43.3246 6.16482L38.3776 1.20646C37.5672 0.413472 36.2604 0.415464 35.4648 1.21104C34.664 2.012 34.664 3.31549 35.4648 4.11665L40.3649 9.01644C40.3612 9.06753 40.3581 9.11963 40.3567 9.17143L33.6792 11.6336C33.5143 11.6938 33.365 11.7797 33.2238 11.8763C31.0871 10.8494 28.5637 10.8815 26.4656 11.9637L25.889 11.631C25.679 11.5089 25.4403 11.4445 25.1986 11.4445C24.7143 11.4445 24.2583 11.7031 24.001 12.1326L23.6456 12.7604C23.4603 13.0796 23.4088 13.4501 23.5008 13.8039C23.5935 14.1602 23.8212 14.4588 24.143 14.6458L36.3186 21.6716C36.5287 21.7937 36.7674 21.8582 37.009 21.8582C37.4934 21.8582 37.9494 21.5996 38.2024 21.1774L38.5816 20.5292C38.9481 19.8605 38.7214 19.0383 38.0648 18.657L37.4833 18.3216C37.4278 17.1364 37.1003 15.9963 36.5221 14.9693L43.7733 12.3062C45.3153 12.1378 46.5196 10.8284 46.5196 9.24205C46.5197 7.54212 45.1366 6.15904 43.4365 6.15904ZM36.327 3.25453C36.1704 3.09814 36.0841 2.88797 36.0841 2.66375C36.0841 2.43933 36.1704 2.22935 36.327 2.07286C36.6522 1.74694 37.1901 1.74973 37.5198 2.07227L41.9686 6.53128C41.4699 6.80252 41.0566 7.20882 40.7717 7.699L36.327 3.25453ZM40.5769 10.3894C40.8037 10.9525 41.1911 11.4336 41.683 11.7753L34.675 14.3491C34.4693 14.4277 34.2435 14.4206 34.0397 14.328C33.8334 14.2344 33.6768 14.0677 33.6003 13.8611C33.4404 13.4226 33.6631 12.937 34.0991 12.7778L40.5769 10.3894ZM37.5211 19.9289L37.1538 20.5563C37.0949 20.6544 36.9991 20.6573 36.9295 20.617L24.7539 13.5907C24.706 13.5633 24.6875 13.5247 24.6807 13.4972C24.673 13.4682 24.6703 13.4236 24.7031 13.3668L25.054 12.7466C25.0905 12.6852 25.1527 12.6634 25.1987 12.6634C25.2263 12.6634 25.2519 12.6706 25.2782 12.6858L37.4539 19.7121C37.5344 19.7585 37.5595 19.8582 37.5211 19.9289ZM36.1773 17.568L27.7754 12.7197C29.2857 12.1773 30.9716 12.2268 32.4616 12.8696C32.2967 13.3257 32.2872 13.8187 32.4566 14.2823C32.6481 14.7988 33.0314 15.2092 33.5363 15.4383C33.8081 15.5617 34.0967 15.6231 34.3845 15.6231C34.6278 15.6231 34.8705 15.579 35.1022 15.4907L35.3637 15.3948C35.7694 16.0661 36.0419 16.8007 36.1773 17.568ZM43.4365 11.1065C42.4085 11.1065 41.5724 10.2701 41.5724 9.24215C41.5724 8.21418 42.4085 7.37806 43.4365 7.37806C44.4644 7.37806 45.3007 8.21418 45.3007 9.24215C45.3007 10.2701 44.4645 11.1065 43.4365 11.1065ZM6.10404 15.6476H19.7988C20.4579 15.6476 20.9938 15.117 20.9938 14.4647V6.13523C20.9938 5.47622 20.4579 4.94012 19.7988 4.94012H6.10404C5.44492 4.94012 4.90892 5.47622 4.90892 6.13523V14.4647C4.90892 15.117 5.44492 15.6476 6.10404 15.6476ZM19.775 6.13523V14.4286H6.12794L6.10414 6.15924L19.775 6.13523ZM10.0716 9.98334C10.0716 9.64686 10.3445 9.37373 10.681 9.37373H11.5714L12.6097 7.79572C12.7267 7.61782 12.9234 7.51443 13.1405 7.5218C13.3529 7.52937 13.5463 7.64721 13.6503 7.83268L14.5153 9.37383H14.9473C15.1983 9.37383 15.4234 9.52763 15.5146 9.76131L16.0108 11.0288L16.7087 9.77128C16.8161 9.57773 17.02 9.45761 17.2417 9.45761H18.3531C18.6895 9.45761 18.9624 9.73054 18.9624 10.0671C18.9624 10.4037 18.6895 10.6765 18.3531 10.6765H17.6004L16.4481 12.753C16.3401 12.9473 16.1356 13.0667 15.9152 13.0667C15.9016 13.0667 15.8881 13.0663 15.8742 13.0652C15.6388 13.0496 15.4336 12.8991 15.3475 12.6792L14.5311 10.593H14.1584C13.938 10.593 13.7347 10.474 13.627 10.2817L13.0775 9.30271L12.4088 10.3185C12.2963 10.4898 12.1048 10.593 11.8998 10.593H10.681C10.3445 10.5929 10.0716 10.3198 10.0716 9.98334ZM6.85669 7.60507C6.85669 7.26859 7.12971 6.99566 7.4663 6.99566H8.42245C8.75903 6.99566 9.03186 7.26859 9.03186 7.60507C9.03186 7.94165 8.75903 8.21468 8.42245 8.21468H7.4663C7.12971 8.21468 6.85669 7.94175 6.85669 7.60507ZM6.85669 9.07511C6.85669 8.73853 7.12971 8.4656 7.4663 8.4656H8.42245C8.75903 8.4656 9.03186 8.73853 9.03186 9.07511C9.03186 9.41169 8.75903 9.68462 8.42245 9.68462H7.4663C7.12971 9.68462 6.85669 9.41169 6.85669 9.07511Z" fill="#134A85"/>
</svg>
