<svg width="51" height="51" viewBox="0 0 51 51" fill="none" xmlns="http://www.w3.org/2000/svg">
<path d="M25.5 2.83328C21.2212 2.82673 17.0292 4.04059 13.4159 6.33244C13.2839 6.40136 13.1676 6.49692 13.0744 6.61307C12.9812 6.72922 12.9131 6.86344 12.8744 7.00725C12.8358 7.15105 12.8273 7.30132 12.8497 7.44855C12.8721 7.59578 12.9247 7.73677 13.0043 7.86261C13.084 7.98845 13.1888 8.0964 13.3123 8.17964C13.4358 8.26288 13.5752 8.31959 13.7217 8.34621C13.8683 8.37282 14.0187 8.36875 14.1636 8.33425C14.3084 8.29975 14.4446 8.23558 14.5634 8.14578C18.022 5.95794 22.0588 4.86096 26.1491 4.99739C30.2393 5.13381 34.194 6.49734 37.4992 8.91078L20.2442 18.8274L10.9792 9.50578C10.8791 9.40469 10.7599 9.32445 10.6286 9.26969C10.4973 9.21493 10.3565 9.18673 10.2142 9.18673C10.0719 9.18673 9.93108 9.21493 9.79977 9.26969C9.66847 9.32445 9.54932 9.40469 9.44921 9.50578C5.53622 13.4559 3.2116 18.7064 2.9175 24.2588C2.62339 29.8111 4.38033 35.2778 7.85413 39.6192C11.3279 43.9606 16.2762 46.8737 21.7579 47.8045C27.2395 48.7353 32.8721 47.6188 37.5842 44.6674C37.7059 44.5937 37.8115 44.4962 37.8948 44.3808C37.9781 44.2654 38.0374 44.1344 38.0691 43.9957C38.1008 43.8569 38.1043 43.7132 38.0794 43.5731C38.0545 43.433 38.0018 43.2993 37.9242 43.1799C37.8479 43.0609 37.749 42.958 37.6329 42.8772C37.5169 42.7963 37.3861 42.7392 37.2479 42.7089C37.1098 42.6787 36.9671 42.6759 36.8279 42.7008C36.6887 42.7257 36.5558 42.7778 36.4367 42.8541C33.3334 44.8098 29.7624 45.8975 26.0958 46.0041C22.4292 46.1106 18.8011 45.232 15.5894 43.4598C12.3778 41.6876 9.7001 39.0867 7.8353 35.9279C5.97049 32.7691 4.9868 29.1681 4.98671 25.4999C4.98028 20.4732 6.83776 15.6225 10.2 11.8858L18.3034 19.9891L18.0767 20.1166C17.791 20.2815 17.5411 20.5018 17.3417 20.7645C17.1422 21.0272 16.9971 21.3271 16.915 21.6466C16.8304 22.0101 16.8304 22.3881 16.915 22.7516L10.9367 26.1799C10.7408 26.2922 10.5857 26.464 10.494 26.6703C10.4023 26.8766 10.3788 27.1068 10.4267 27.3274L12.5517 37.7116C12.5855 37.8783 12.6583 38.0347 12.7642 38.1678C12.87 38.301 13.0059 38.4071 13.1607 38.4776C13.3155 38.5481 13.4848 38.5809 13.6548 38.5734C13.8247 38.5658 13.9904 38.5181 14.1384 38.4341L22.9784 33.3199C23.4273 33.7177 24.0078 33.9347 24.6075 33.9291C25.0486 33.9289 25.4824 33.8168 25.8684 33.6033L29.75 31.3791L39.6667 41.3808C39.9814 41.6206 40.3519 41.7766 40.7434 41.8341C40.8861 41.8332 41.0273 41.804 41.1586 41.748C41.2899 41.6921 41.4088 41.6106 41.5084 41.5083C44.6705 38.3385 46.8231 34.3031 47.6945 29.9113C48.5659 25.5195 48.1171 20.968 46.4047 16.831C44.6923 12.694 41.793 9.1568 38.0727 6.66563C34.3523 4.17447 29.9774 2.84094 25.5 2.83328ZM39.2984 10.3699C40.4338 11.4012 41.4506 12.5558 42.33 13.8124L29.92 20.9666C29.6721 21.1094 29.491 21.3448 29.4166 21.6211C29.3422 21.8974 29.3806 22.192 29.5234 22.4399C29.6661 22.6879 29.9016 22.869 30.1779 22.9434C30.4542 23.0178 30.7487 22.9794 30.9967 22.8366L43.4775 15.5833C44.2146 16.9308 44.799 18.3562 45.22 19.8333L30.0617 28.5883L21.8309 20.3433L39.2984 10.3699ZM14.365 35.8699L12.75 27.6533L17.8784 24.6924L21.1509 30.3591L21.8309 31.5349L14.365 35.8699ZM24.7917 31.7333C24.7055 31.7687 24.6088 31.7687 24.5225 31.7333C24.4286 31.7064 24.3479 31.6459 24.2959 31.5633L19.0259 22.4541C18.9896 22.3632 18.9896 22.2617 19.0259 22.1708C19.0363 22.1248 19.057 22.0818 19.0865 22.045C19.1159 22.0082 19.1533 21.9785 19.1959 21.9583L19.9184 21.5333L28.1209 29.7499L24.7917 31.7333ZM40.6584 39.2841L31.6342 30.2599L45.7017 22.1424C45.8993 23.2509 46.0036 24.374 46.0134 25.4999C46.0138 30.6024 44.1033 35.5201 40.6584 39.2841Z" fill="#134A85"/>
</svg>
