<svg width="51" height="51" viewBox="0 0 51 51" fill="none" xmlns="http://www.w3.org/2000/svg">
<path d="M11.0552 27.576C11.1975 27.5842 11.3374 27.5372 11.4459 27.445C11.5546 27.3526 11.6235 27.2219 11.6382 27.0801L11.6383 27.0801L11.6384 27.0781C12.0511 22.1578 14.238 18.5391 17.565 17.3464C23.9619 15.0595 26.3286 11.8259 26.4344 11.676L26.4349 11.6763L26.4402 11.6668C26.506 11.5479 26.5258 11.4091 26.496 11.2766C26.4662 11.1441 26.3887 11.0272 26.2784 10.948C26.168 10.8688 26.0324 10.8329 25.8973 10.8471C25.7623 10.8613 25.6371 10.9246 25.5456 11.025L25.5453 11.0247L25.5396 11.0324L25.5388 11.0335C25.4882 11.1022 23.243 14.1556 17.1949 16.3134L17.1948 16.3134C13.4232 17.6621 10.947 21.6676 10.5466 26.9897C10.5401 27.0617 10.5481 27.1342 10.5702 27.2031C10.5924 27.2722 10.6284 27.3361 10.6759 27.391C10.7235 27.4458 10.7816 27.4905 10.8469 27.5223C10.912 27.554 10.9829 27.5723 11.0552 27.576ZM11.0552 27.576C11.0551 27.576 11.055 27.576 11.0548 27.576L11.0607 27.4761L11.0556 27.576C11.0555 27.576 11.0554 27.576 11.0552 27.576Z" fill="#134A85" stroke="#134A85" stroke-width="0.2"/>
<path d="M34.3118 27.5762L34.3217 27.5764L34.3314 27.5746L34.419 27.5587L34.419 27.5587L34.4222 27.558C34.5631 27.5276 34.6869 27.4443 34.768 27.3252C34.8492 27.2062 34.8816 27.0605 34.8584 26.9183L34.8584 26.9183L34.8581 26.9166C34.1753 23.1227 32.1415 19.7044 29.1331 17.2942C27.8219 16.2162 26.3348 15.3722 24.7369 14.7994L24.7369 14.7994L24.7334 14.7983C24.5951 14.7543 24.445 14.7671 24.316 14.8338C24.1871 14.9006 24.09 15.0158 24.0461 15.1541C24.0021 15.2925 24.0149 15.4426 24.0816 15.5715C24.148 15.6998 24.2624 15.7966 24.3998 15.8408C25.8789 16.3807 27.2559 17.167 28.4727 18.1663L28.4727 18.1663L28.4738 18.1672C31.2776 20.4047 33.1642 23.5922 33.7767 27.1267L33.7766 27.1267L33.7771 27.1289C33.8015 27.2534 33.868 27.3658 33.9653 27.4472C34.0627 27.5286 34.185 27.5741 34.3118 27.5762Z" fill="#134A85" stroke="#134A85" stroke-width="0.2"/>
<path d="M14.8298 22.5036L14.8381 22.6033C16.6035 22.4568 17.7091 22.6812 18.3691 22.9413C18.6991 23.0714 18.9181 23.2105 19.0529 23.3172C19.1205 23.3706 19.1666 23.4156 19.195 23.447C19.2041 23.4571 19.2111 23.4655 19.2162 23.472V23.473L19.2317 23.4975C19.2817 23.5762 19.3509 23.6408 19.4329 23.6852C19.5148 23.7296 19.6068 23.7523 19.7 23.7511L19.7003 23.7511C19.7984 23.7496 19.8946 23.723 19.9797 23.674L19.9797 23.6741L19.9819 23.6728C20.044 23.6349 20.0979 23.585 20.1404 23.526C20.183 23.467 20.2133 23.4001 20.2297 23.3292C20.246 23.2584 20.248 23.185 20.2356 23.1133C20.2233 23.0419 20.1968 22.9736 20.1579 22.9125C20.0957 22.8124 19.7899 22.3749 18.9739 22.0061C18.1571 21.6369 16.8344 21.3391 14.7419 21.5115L14.7419 21.5115L14.7412 21.5115C14.5964 21.5245 14.4627 21.5944 14.3695 21.7059C14.2763 21.8174 14.2312 21.9613 14.2441 22.1061C14.257 22.2509 14.3269 22.3846 14.4384 22.4778C14.5499 22.571 14.6939 22.6162 14.8387 22.6032L14.8298 22.5036ZM14.8298 22.5036C14.7114 22.5142 14.5937 22.4773 14.5026 22.4011C14.4114 22.3249 14.3543 22.2156 14.3437 22.0972C14.3331 21.9789 14.37 21.8612 14.4462 21.77C14.5224 21.6788 14.6317 21.6217 14.7501 21.6111L19.9298 23.5874C19.8594 23.6279 19.7799 23.6499 19.6987 23.6511C19.6226 23.6521 19.5474 23.6336 19.4805 23.5973C19.4135 23.561 19.357 23.5082 19.3162 23.4439C19.3162 23.4041 18.3839 22.2088 14.8298 22.5036Z" fill="#134A85" stroke="#134A85" stroke-width="0.2"/>
<path d="M13.1931 26.0491L13.1931 26.0492C13.3013 26.0189 13.4024 25.9673 13.4905 25.8976C13.5779 25.8284 13.6508 25.7426 13.705 25.6452C13.742 25.5691 13.7955 25.5022 13.8617 25.4493C13.9286 25.3958 14.0067 25.358 14.0902 25.3388L14.0951 25.3377L14.0952 25.3378C14.1817 25.3225 14.2706 25.3277 14.3548 25.3529C14.4387 25.3781 14.5155 25.4225 14.5792 25.4826C15.4177 26.2514 16.6322 26.4018 17.6598 26.3514C18.6306 26.3038 19.411 26.0785 19.5058 26.0511L13.1931 26.0491ZM13.1931 26.0491L13.189 26.0505C13.1206 26.0729 13.0572 26.1085 13.0025 26.1554C12.9478 26.2023 12.9029 26.2595 12.8703 26.3238C12.8377 26.388 12.8181 26.458 12.8126 26.5299C12.8071 26.6017 12.8158 26.6739 12.8382 26.7424C12.8606 26.8108 12.8963 26.8742 12.9431 26.9289C12.99 26.9836 13.0472 27.0285 13.1115 27.0611C13.1757 27.0937 13.2458 27.1133 13.3176 27.1188C13.3893 27.1243 13.4614 27.1156 13.5297 27.0933C13.8159 27.001 14.08 26.8513 14.3061 26.6537C15.201 27.224 16.2484 27.5099 17.3101 27.4727C18.1693 27.4675 19.0231 27.3375 19.8448 27.0866C19.917 27.0687 19.9848 27.0362 20.0441 26.9911C20.1041 26.9454 20.1541 26.8878 20.1907 26.8218C20.2274 26.7558 20.25 26.683 20.2571 26.6078C20.2642 26.5327 20.2556 26.4569 20.232 26.3852C20.2083 26.3135 20.17 26.2475 20.1196 26.1914C20.0691 26.1352 20.0076 26.0902 19.9389 26.059C19.8701 26.0278 19.7957 26.0112 19.7202 26.0103C19.6467 26.0093 19.5738 26.0232 19.5059 26.0511L13.1931 26.0491Z" fill="#134A85" stroke="#134A85" stroke-width="0.2"/>
<path d="M15.0617 28.2936C15.1504 28.2934 15.238 28.2739 15.3183 28.2364L15.3186 28.2369L15.3274 28.2316C15.5749 28.0837 15.7904 27.8877 15.9611 27.6553C16.1311 27.424 16.2532 27.1612 16.3206 26.8822C16.3423 26.8154 16.3507 26.745 16.3454 26.6749C16.3399 26.6034 16.3202 26.5336 16.2873 26.4698C16.2545 26.406 16.2092 26.3493 16.1542 26.3032C16.0997 26.2576 16.0368 26.2233 15.969 26.2021C15.8983 26.1771 15.8232 26.1668 15.7483 26.1717C15.6726 26.1767 15.5988 26.1971 15.5313 26.2317C15.4639 26.2663 15.4043 26.3144 15.3562 26.373C15.3081 26.4316 15.2725 26.4995 15.2516 26.5724L15.2515 26.5723L15.2502 26.5782C15.1889 26.8539 15.029 27.0978 14.8006 27.2639C14.677 27.3309 14.5833 27.4424 14.5388 27.576C14.4935 27.7119 14.5026 27.8602 14.5642 27.9896L14.5642 27.9896L14.565 27.9912C14.611 28.0834 14.6821 28.1607 14.7701 28.2142C14.8579 28.2676 14.959 28.2951 15.0617 28.2936ZM15.0617 28.2936C15.062 28.2936 15.0622 28.2936 15.0625 28.2936L15.0609 28.1936L15.061 28.2936C15.0612 28.2936 15.0615 28.2936 15.0617 28.2936Z" fill="#134A85" stroke="#134A85" stroke-width="0.2"/>
<path d="M22.5834 44.6611H22.5933L22.603 44.6592L22.6336 44.653C22.7748 44.6503 22.9095 44.5931 23.0095 44.4931C23.1119 44.3907 23.1695 44.2518 23.1695 44.1069C23.1695 43.962 23.1119 43.8231 23.0095 43.7206C22.9071 43.6182 22.7681 43.5606 22.6232 43.5606C22.1293 43.5606 21.322 43.2975 20.2316 42.6377C19.145 41.9802 17.7883 40.9355 16.1984 39.3894L16.1977 39.3887C14.3945 37.6685 13.2057 35.5027 12.4675 33.7574C12.0987 32.8853 11.8429 32.1196 11.6794 31.5693C11.5977 31.2942 11.539 31.0731 11.5009 30.9196C11.4819 30.8428 11.468 30.7831 11.4589 30.7421C11.4543 30.7215 11.451 30.706 11.4489 30.6954L11.4475 30.6877V30.6851L11.4453 30.675C11.4306 30.6046 11.4022 30.5378 11.3616 30.4784C11.3211 30.4189 11.2692 30.3681 11.209 30.3287C11.1488 30.2893 11.0815 30.2622 11.0108 30.2489C10.9401 30.2355 10.8675 30.2362 10.7971 30.2509C10.7267 30.2657 10.6598 30.2941 10.6004 30.3347C10.541 30.3752 10.4902 30.4271 10.4508 30.4873C10.4114 30.5475 10.3843 30.6148 10.3709 30.6855C10.3576 30.7562 10.3583 30.8288 10.373 30.8992L10.373 30.8992L10.3737 30.9021C10.3749 30.9073 10.377 30.9163 10.3798 30.9287C10.4842 31.385 11.6749 36.5883 15.3977 40.1863C16.8634 41.616 18.2496 42.7327 19.4716 43.4925C20.6905 44.2505 21.758 44.6611 22.5834 44.6611Z" fill="#134A85" stroke="#134A85" stroke-width="0.2"/>
<path d="M19.2959 36.5925L19.2962 36.5925C19.285 36.451 19.3261 36.3104 19.4118 36.1974L19.4164 36.1914L19.4166 36.1916C19.8469 35.7054 20.3778 35.3189 20.9726 35.0589C21.2354 34.9381 21.5211 34.8753 21.8103 34.8749L21.8104 34.8749C21.9553 34.8749 22.0943 34.9324 22.1967 35.0348C22.2991 35.1373 22.3567 35.2762 22.3567 35.4211C22.3567 35.566 22.2991 35.7049 22.1967 35.8074C22.0943 35.9098 21.9553 35.9674 21.8104 35.9674H21.8101C21.6819 35.9669 21.5553 35.9961 21.4402 36.0527L21.4395 36.053L21.4395 36.053C21.2319 36.1533 21.0326 36.2698 20.8435 36.4014C21.4165 36.5018 21.9984 36.543 22.5802 36.5244L22.5852 36.5243L22.5852 36.5244C22.7305 36.5269 22.8689 36.5865 22.9708 36.6901C23.0726 36.7938 23.1297 36.9333 23.1297 37.0786L19.2959 36.5925ZM19.2959 36.5925L19.2973 36.601M19.2959 36.5925L19.2973 36.601M21.8104 34.9749C21.9288 34.9749 22.0423 35.0219 22.126 35.1056C22.2097 35.1892 22.2567 35.3028 22.2567 35.4211C22.2567 35.5395 22.2097 35.653 22.126 35.7367C22.0423 35.8203 21.9288 35.8674 21.8104 35.8674C21.6668 35.8669 21.525 35.8996 21.3961 35.963C21.1542 36.0798 20.9234 36.2181 20.7065 36.3763L21.8104 34.9749ZM21.8104 34.9749C21.5353 34.9753 21.2635 35.0351 21.0136 35.1502L21.8104 34.9749ZM19.2973 36.601C19.3591 36.972 19.7022 37.2239 20.2411 37.3837M19.2973 36.601L20.2411 37.3837M20.2411 37.3837C20.7858 37.5451 21.5682 37.6249 22.5834 37.6249M20.2411 37.3837L22.5834 37.6249M22.5834 37.6249C22.7283 37.6249 22.8672 37.5673 22.9697 37.4649C23.0721 37.3624 23.1297 37.2235 23.1297 37.0786L22.5834 37.6249Z" fill="#134A85" stroke="#134A85" stroke-width="0.2"/>
<path d="M22.5812 39.8001L22.5812 39.8001H22.5835C22.7283 39.8001 22.8673 39.7426 22.9697 39.6401C23.0722 39.5377 23.1297 39.3988 23.1297 39.2539C23.1297 39.109 23.0722 38.9701 22.9697 38.8676C22.8676 38.7655 22.7292 38.708 22.5849 38.7076C21.9255 38.6897 21.2901 38.4572 20.7748 38.0455C20.6652 37.9508 20.5226 37.9033 20.3781 37.9133C20.2328 37.9233 20.0975 37.9907 20.0019 38.1005C19.9062 38.2103 19.8582 38.3536 19.8682 38.4989C19.8783 38.6442 19.9456 38.7795 20.0554 38.8751L20.0554 38.8751L20.0583 38.8775C20.7743 39.4553 21.6614 39.7797 22.5812 39.8001Z" fill="#134A85" stroke="#134A85" stroke-width="0.2"/>
<path d="M22.5637 33.5677L22.5639 33.5667C22.124 33.4788 21.7081 33.2973 21.3445 33.0346C20.9811 32.772 20.6785 32.4344 20.457 32.0446C20.4205 31.9828 20.3964 31.9144 20.3864 31.8433C20.3762 31.7718 20.3804 31.6991 20.3985 31.6293C20.4166 31.5594 20.4484 31.4939 20.492 31.4364C20.5356 31.3789 20.5902 31.3307 20.6525 31.2944L22.5637 33.5677ZM22.5637 33.5677L22.5779 33.5685M22.5637 33.5677L22.5779 33.5685M22.5779 33.5685C22.7218 33.5766 22.8632 33.5284 22.9721 33.434C23.081 33.3396 23.1488 33.2065 23.1613 33.0629L23.1613 33.0629L23.1614 33.0616C23.1667 32.9899 23.1577 32.9178 23.1351 32.8494C23.1124 32.7811 23.0765 32.718 23.0294 32.6636C22.9823 32.6092 22.9248 32.5647 22.8604 32.5325C22.796 32.5004 22.7259 32.4813 22.6541 32.4764L22.6539 32.4764C22.3902 32.4588 22.1208 32.2872 21.8887 32.0707C21.6592 31.8566 21.4816 31.6131 21.4022 31.4808L21.4022 31.4808M22.5779 33.5685L21.4022 31.4808M21.4022 31.4808L21.4012 31.4792M21.4022 31.4808L21.4012 31.4792M21.4012 31.4792C21.3248 31.3572 21.204 31.2697 21.0643 31.2352C20.9246 31.2008 20.7769 31.222 20.6526 31.2944L21.4012 31.4792Z" fill="#134A85" stroke="#134A85" stroke-width="0.2"/>
<path d="M11.9053 34.8362V34.8359C10.8779 34.8359 9.89068 34.2284 9.13119 33.374C8.37067 32.5184 7.82478 31.4006 7.68636 30.3503L7.68635 30.3502C7.37623 27.9835 8.80903 26.9445 9.62523 26.7341L9.62594 26.7339L9.62594 26.7339C9.76774 26.6985 9.91779 26.7205 10.0434 26.7952C10.1691 26.8698 10.2602 26.9911 10.2968 27.1326L10.2969 27.1329C10.3326 27.2726 10.3116 27.4207 10.2385 27.545C10.1654 27.6692 10.0461 27.7595 9.90675 27.7962L9.90673 27.7962C9.84259 27.8131 9.49518 27.9228 9.1972 28.2706C8.90235 28.6148 8.64488 29.2048 8.77714 30.2045L8.77721 30.2051C8.88183 31.0305 9.33356 31.9488 9.94732 32.6447C10.5636 33.3436 11.3221 33.7956 12.0324 33.7358L12.0408 33.8355M11.9053 34.8362L12.5269 34.2419M11.9053 34.8362L11.9127 34.8357L12.1273 34.8198L12.1205 34.72M11.9053 34.8362L12.1277 34.8197L12.1279 34.8197L12.1205 34.72M12.0408 33.8355L12.0315 33.7359C12.1033 33.7292 12.1757 33.7368 12.2446 33.7582C12.3134 33.7796 12.3773 33.8145 12.4326 33.8607C12.488 33.907 12.5336 33.9637 12.5669 34.0277C12.6001 34.0915 12.6203 34.1613 12.6265 34.233C12.6265 34.2331 12.6265 34.2333 12.6265 34.2334L12.5269 34.2419M12.0408 33.8355C10.5267 33.963 8.89316 31.915 8.678 30.2177C8.40706 28.1697 9.72987 27.7394 9.88128 27.6995C9.99516 27.6695 10.0926 27.5958 10.1523 27.4943C10.212 27.3928 10.2291 27.2718 10.2 27.1577C10.17 27.0417 10.0953 26.9423 9.99236 26.8811C9.88938 26.8199 9.7664 26.8019 9.65019 26.8309C8.87722 27.0302 7.48269 28.0263 7.7855 30.3372C8.05644 32.3931 9.92909 34.7359 11.9053 34.7359L12.1205 34.72M12.0408 33.8355C12.0995 33.83 12.1586 33.8362 12.2149 33.8537C12.2711 33.8712 12.3233 33.8997 12.3685 33.9374C12.4137 33.9752 12.451 34.0216 12.4781 34.0738C12.5053 34.1261 12.5219 34.1832 12.5269 34.2419M12.5269 34.2419C12.5324 34.3001 12.5261 34.3588 12.5085 34.4146C12.4909 34.4704 12.4623 34.522 12.4245 34.5666C12.3866 34.6112 12.3402 34.6477 12.288 34.674C12.2358 34.7004 12.1788 34.716 12.1205 34.72" fill="#134A85" stroke="#134A85" stroke-width="0.2"/>
<path d="M25.3482 23.7591L25.3495 23.7591C25.4431 23.7583 25.535 23.7338 25.6166 23.6879C25.6965 23.643 25.7639 23.579 25.813 23.5017L25.8131 23.5015L25.8203 23.4926C25.8268 23.4848 25.837 23.4729 25.8513 23.4577C25.8799 23.4273 25.9254 23.3831 25.9914 23.3303C26.1233 23.2249 26.3377 23.0848 26.6641 22.9529C27.3168 22.6892 28.42 22.4569 30.209 22.6033C30.3537 22.6161 30.4975 22.571 30.6089 22.4778C30.7204 22.3846 30.7903 22.2509 30.8032 22.1061C30.8162 21.9613 30.7711 21.8174 30.6778 21.7059C30.5846 21.5944 30.4509 21.5245 30.3061 21.5115V21.5115L30.3054 21.5115C28.2129 21.3391 26.8903 21.6369 26.0734 22.0061C25.2574 22.3749 24.9516 22.8125 24.8895 22.9125C24.8505 22.9736 24.824 23.0419 24.8117 23.1133C24.7993 23.185 24.8013 23.2584 24.8177 23.3292C24.834 23.4001 24.8644 23.467 24.9069 23.526C24.949 23.5843 25.0022 23.6337 25.0634 23.6715C25.1476 23.7281 25.2466 23.7586 25.3482 23.7591Z" fill="#134A85" stroke="#134A85" stroke-width="0.2"/>
<path d="M31.8503 26.0504L31.8503 26.0505C31.9187 26.0729 31.9821 26.1085 32.0368 26.1554C32.0915 26.2023 32.1364 26.2595 32.169 26.3238C32.2016 26.388 32.2212 26.4581 32.2267 26.5299C32.2322 26.6017 32.2235 26.6739 32.2011 26.7424C32.1787 26.8109 32.1431 26.8742 32.0962 26.9289C32.0493 26.9836 31.9921 27.0285 31.9278 27.0611C31.8636 27.0937 31.7935 27.1133 31.7217 27.1188C31.6501 27.1243 31.578 27.1157 31.5097 27.0934C31.5095 27.0933 31.5094 27.0933 31.5092 27.0932L31.5403 26.9982C31.2423 26.9043 30.9697 26.7435 30.7434 26.528L31.8503 26.0504ZM31.8503 26.0504L31.8473 26.0495C31.6322 25.9867 31.4489 25.8448 31.334 25.6525C31.298 25.576 31.2449 25.5087 31.1788 25.4559C31.1114 25.4019 31.0323 25.3645 30.9479 25.3465C30.8615 25.3274 30.7717 25.3299 30.6865 25.3538C30.6013 25.3776 30.5233 25.4221 30.4594 25.4833C29.6252 26.2673 28.4173 26.4157 27.392 26.3604C26.8816 26.3329 26.4222 26.2551 26.0867 26.1841C25.9191 26.1487 25.7825 26.1149 25.6861 26.09C25.6496 26.0806 25.6191 26.0725 25.5944 26.0659C25.5863 26.0638 25.5789 26.0619 25.5722 26.0601C25.5586 26.0565 25.547 26.0535 25.5381 26.0513L25.5257 26.0485C25.4599 26.0252 25.3903 26.0147 25.3205 26.0177C25.2474 26.0207 25.1757 26.0385 25.1095 26.0698C25.0434 26.1011 24.9843 26.1454 24.9356 26.2C24.887 26.2546 24.8498 26.3185 24.8262 26.3878C24.8027 26.457 24.7933 26.5303 24.7987 26.6033C24.804 26.6762 24.8239 26.7474 24.8573 26.8125C24.8907 26.8776 24.9368 26.9354 24.9929 26.9823C25.0489 27.0292 25.1138 27.0644 25.1838 27.0858C26.0113 27.3397 26.8718 27.4701 27.7374 27.4727C28.7962 27.5083 29.8403 27.2225 30.7328 26.654L31.8503 26.0504Z" fill="#134A85" stroke="#134A85" stroke-width="0.2"/>
<path d="M29.985 28.2935C30.1085 28.2952 30.229 28.255 30.3267 28.1794C30.4245 28.1039 30.4938 27.9974 30.5232 27.8774C30.5526 27.7574 30.5405 27.6309 30.4888 27.5187C30.4383 27.409 30.3529 27.3193 30.246 27.2633C30.018 27.0972 29.8583 26.8536 29.7971 26.578L29.7974 26.578L29.7951 26.5705C29.7525 26.431 29.6562 26.3142 29.5274 26.2457C29.3987 26.1772 29.2479 26.1626 29.1085 26.2053C28.969 26.2479 28.8521 26.3442 28.7836 26.4729C28.7156 26.6009 28.7008 26.7505 28.7424 26.8892C28.8119 27.1688 28.936 27.4318 29.1075 27.6633C29.2795 27.8955 29.4958 28.0913 29.7438 28.2395L29.7433 28.2403L29.7563 28.2458C29.8288 28.2763 29.9064 28.2925 29.985 28.2935ZM29.985 28.2935C29.985 28.2935 29.985 28.2935 29.9849 28.2935L29.9864 28.1935L29.9851 28.2935C29.9851 28.2935 29.985 28.2935 29.985 28.2935Z" fill="#134A85" stroke="#134A85" stroke-width="0.2"/>
<path d="M27.2431 42.3131L27.2434 42.3129C27.3 42.2682 27.3472 42.2128 27.3823 42.1498C27.4174 42.0868 27.4396 42.0175 27.4478 41.9458C27.4559 41.8742 27.4498 41.8017 27.4298 41.7324C27.41 41.6636 27.3767 41.5994 27.3321 41.5434C27.289 41.4867 27.2351 41.4391 27.1736 41.4034C27.1115 41.3674 27.043 41.3442 26.9719 41.335C26.9008 41.3259 26.8285 41.3311 26.7595 41.3503C26.6905 41.3694 26.626 41.4021 26.5698 41.4465C24.1159 43.3763 22.8625 43.5687 22.464 43.5687C22.3922 43.5687 22.3212 43.5829 22.2549 43.6103C22.1886 43.6378 22.1284 43.678 22.0777 43.7287C22.027 43.7794 21.9867 43.8397 21.9593 43.9059C21.9318 43.9722 21.9177 44.0432 21.9177 44.115C21.9177 44.1867 21.9318 44.2577 21.9593 44.324C21.9867 44.3903 22.027 44.4505 22.0777 44.5012C22.1284 44.552 22.1886 44.5922 22.2549 44.6196C22.3212 44.6471 22.3922 44.6612 22.464 44.6612C23.0517 44.6612 23.769 44.4468 24.5741 44.0492C25.3808 43.6509 26.2832 43.065 27.2431 42.3131Z" fill="#134A85" stroke="#134A85" stroke-width="0.2"/>
<path d="M24.2039 36.4014C24.2496 36.3934 24.2953 36.3851 24.3409 36.3763C24.124 36.2181 23.8932 36.0798 23.6513 35.963C23.5224 35.8996 23.3806 35.8669 23.2369 35.8674L21.9177 37.0786C21.9177 37.2235 21.9753 37.3624 22.0777 37.4649C22.1801 37.5673 22.3191 37.6249 22.464 37.6249C23.479 37.6249 24.2616 37.5452 24.7997 37.3836C25.3303 37.2242 25.6662 36.9702 25.6954 36.5923C25.7066 36.451 25.6654 36.3104 25.5797 36.1974L25.5799 36.1973L25.5758 36.1925C25.1618 35.7127 24.6506 35.3265 24.0759 35.0595L24.0756 35.0593C23.8126 34.9382 23.5266 34.8753 23.2371 34.8749H23.2369C23.1652 34.8749 23.0942 34.889 23.0279 34.9164C22.9616 34.9439 22.9014 34.9841 22.8507 35.0348C22.7999 35.0856 22.7597 35.1458 22.7323 35.2121C22.7048 35.2783 22.6907 35.3494 22.6907 35.4211C22.6907 35.4928 22.7048 35.5639 22.7323 35.6301C22.7597 35.6964 22.7999 35.7566 22.8507 35.8074C22.9014 35.8581 22.9616 35.8983 23.0279 35.9258C23.0942 35.9532 23.1652 35.9674 23.2369 35.9674L23.2372 35.9674C23.3655 35.9669 23.4921 35.9961 23.6072 36.0527L23.6072 36.0527L23.6078 36.053C23.8155 36.1533 24.0148 36.2698 24.2039 36.4014ZM24.2039 36.4014C23.6309 36.5018 23.0489 36.543 22.4671 36.5244L22.4671 36.5243L22.4622 36.5244C22.3169 36.5269 22.1784 36.5865 22.0766 36.6901C21.9747 36.7938 21.9177 36.9333 21.9177 37.0786" fill="#134A85" stroke="#134A85" stroke-width="0.2"/>
<path d="M22.464 39.8002L22.4664 39.8001C23.4052 39.7773 24.3086 39.4377 25.0301 38.8367L25.0306 38.8372L25.0386 38.8288C25.1381 38.7243 25.1936 38.5855 25.1936 38.4411C25.1936 38.2967 25.1381 38.1579 25.0386 38.0534L25.0386 38.0533L25.0354 38.0503C24.9322 37.951 24.7946 37.8956 24.6514 37.8956C24.5099 37.8956 24.3738 37.9497 24.271 38.0467C23.754 38.4542 23.1202 38.6858 22.4622 38.7077C22.318 38.7081 22.1797 38.7656 22.0777 38.8677C21.9753 38.9701 21.9177 39.109 21.9177 39.2539C21.9177 39.3988 21.9753 39.5377 22.0777 39.6402C22.1801 39.7426 22.3191 39.8002 22.464 39.8002Z" fill="#134A85" stroke="#134A85" stroke-width="0.2"/>
<path d="M21.918 33.0535C21.9277 33.1919 21.9891 33.3216 22.0898 33.417C22.1907 33.5125 22.3236 33.5666 22.4624 33.5687L22.4624 33.5687H22.4639H22.4958H22.5058L22.5156 33.5667C22.9562 33.4779 23.3726 33.2951 23.7362 33.0309C24.0997 32.7668 24.402 32.4276 24.6226 32.0362C24.6947 31.912 24.7158 31.7646 24.6814 31.6251C24.6469 31.4854 24.5595 31.3645 24.4375 31.2881L24.4375 31.2881L24.4346 31.2864C24.3091 31.2136 24.1604 31.1922 24.0195 31.2265C23.8791 31.2607 23.7573 31.3477 23.6793 31.4693C23.5963 31.5917 23.418 31.845 23.1892 32.0671C22.9556 32.2938 22.6895 32.4682 22.4321 32.4682V32.468L22.4252 32.4684C22.3534 32.4734 22.2833 32.4925 22.2189 32.5246C22.1545 32.5567 22.0971 32.6013 22.0499 32.6556C22.0028 32.71 21.9669 32.7732 21.9442 32.8415C21.9216 32.9098 21.9127 32.9818 21.918 33.0535ZM21.918 33.0535C21.918 33.0536 21.918 33.0536 21.918 33.0537L22.0177 33.0463L21.9179 33.0533C21.9179 33.0534 21.918 33.0535 21.918 33.0535Z" fill="#134A85" stroke="#134A85" stroke-width="0.2"/>
<path d="M9.77433 27.7997L9.75244 27.7994C9.62693 27.7979 9.50568 27.7537 9.40853 27.6742C9.31138 27.5947 9.24409 27.4846 9.21767 27.3619L9.21683 27.358L9.21691 27.358C8.98734 26.0362 8.82473 24.7036 8.72972 23.3654C8.46218 20.8921 8.633 18.3911 9.23433 15.9772L9.23535 15.9731L9.23543 15.9731C10.415 11.9609 14.9471 5.97227 22.5834 5.97227L9.77433 27.7997ZM9.77433 27.7997L9.79432 27.7908M9.77433 27.7997L9.79432 27.7908M9.79432 27.7908L9.85709 27.7629C9.99355 27.7307 10.1132 27.6486 10.1923 27.5325C10.2727 27.4146 10.3053 27.2705 10.2834 27.1295C10.2828 27.1244 10.2822 27.1204 10.2821 27.1198L10.2792 27.101L10.269 27.0389L10.2662 27.0221C10.2576 26.9704 10.2459 26.9002 10.2317 26.8128C10.2003 26.6186 10.1567 26.3399 10.1082 25.994C10.0114 25.3021 9.8951 24.3417 9.8176 23.2518C9.66239 21.0689 9.66367 18.3785 10.2799 16.2847C11.3715 12.6067 15.5574 7.07273 22.5834 7.07275L22.5851 7.07272C22.7309 7.07023 22.8699 7.01122 22.973 6.90814C23.0761 6.80506 23.1351 6.66598 23.1376 6.52023L23.1377 6.52023M9.79432 27.7908L23.1377 6.52023M23.1377 6.52023L23.1376 6.51676M23.1377 6.52023L23.1376 6.51676M23.1376 6.51676C23.1351 6.37146 23.0755 6.23298 22.9719 6.13114C22.8682 6.0293 22.7287 5.97225 22.5834 5.97227L23.1376 6.51676Z" fill="#134A85" stroke="#134A85" stroke-width="0.2"/>
<path d="M35.3085 27.7993L35.2997 27.7977C35.2283 27.7849 35.1602 27.7579 35.0994 27.7184C35.0385 27.679 34.9861 27.6278 34.9453 27.5678C34.9044 27.5079 34.8759 27.4405 34.8614 27.3694C34.8472 27.3001 34.8467 27.2287 34.8598 27.1592C34.8602 27.1555 34.8606 27.1526 34.8608 27.1516L34.8608 27.1513L34.8637 27.1325L34.8741 27.0704L34.8769 27.0538C34.8856 27.0021 34.8975 26.9318 34.9118 26.8444C34.9437 26.6501 34.9879 26.3714 35.0369 26.0255C35.135 25.3336 35.2528 24.3733 35.3313 23.2834C35.4885 21.1005 35.4872 18.4102 34.863 16.3166L34.8629 16.3161C33.7793 12.6068 29.6016 7.09649 22.5754 7.09649C22.4284 7.09649 22.2875 7.0381 22.1835 6.93416C22.0796 6.83023 22.0212 6.68927 22.0212 6.54228L35.3085 27.7993ZM35.3085 27.7993H35.3175M35.3085 27.7993H35.3175M35.3175 27.7993L35.3967 27.7993M35.3175 27.7993L35.3967 27.7993M35.9246 16.001L35.9245 16.0011C36.5219 18.4155 36.6927 20.9158 36.4291 23.3891C36.3341 24.7273 36.1715 26.0599 35.9419 27.3817L35.9401 27.3924L35.9395 27.3922C35.9057 27.5099 35.8344 27.6134 35.7365 27.6869C35.6386 27.7603 35.5195 27.7997 35.3972 27.7993C35.397 27.7993 35.3969 27.7993 35.3967 27.7993M35.9246 16.001L35.3972 27.6993L35.3967 27.7993M35.9246 16.001L35.9234 15.9969M35.9246 16.001L35.9234 15.9969M35.9234 15.9969C34.7438 11.9768 30.212 5.99646 22.5763 5.99602M35.9234 15.9969L22.0212 6.54227C22.0212 6.46971 22.0357 6.39788 22.0637 6.33097C22.0918 6.26405 22.1329 6.20339 22.1846 6.15254C22.2364 6.10168 22.2978 6.06165 22.3652 6.03478C22.4323 6.00803 22.504 5.99485 22.5763 5.99602M22.5763 5.99602C22.5766 5.99602 22.5769 5.99603 22.5772 5.99603L22.5754 6.09602M22.5763 5.99602C22.576 5.99602 22.5757 5.99602 22.5754 5.99602V6.09602M22.5754 6.09602C22.5162 6.09496 22.4573 6.10572 22.4022 6.12767C22.3471 6.14962 22.297 6.18233 22.2547 6.22387C22.2124 6.26541 22.1789 6.31497 22.1559 6.36963C22.133 6.4243 22.1212 6.48299 22.1212 6.54227L22.5754 6.09602Z" fill="#134A85" stroke="#134A85" stroke-width="0.2"/>
<path d="M30.0636 40.9647C31.1587 41.6967 32.4464 42.0874 33.7636 42.0874C35.5281 42.0874 37.2204 41.387 38.4689 40.1401C39.7173 38.8932 40.4197 37.2017 40.4219 35.4372C40.4235 34.12 40.0343 32.8319 39.3037 31.7359C38.573 30.6399 37.5337 29.7852 36.3172 29.28C35.1007 28.7748 33.7617 28.6418 32.4696 28.8978C31.1775 29.1538 29.9903 29.7873 29.0584 30.7182C28.1264 31.649 27.4914 32.8354 27.2339 34.1272C26.9763 35.419 27.1077 36.7582 27.6114 37.9753C28.1151 39.1924 28.9685 40.2327 30.0636 40.9647ZM30.6758 30.816C31.5898 30.2053 32.6643 29.8793 33.7635 29.8793C35.2369 29.8814 36.6494 30.4676 37.6912 31.5095C38.7331 32.5513 39.3193 33.9637 39.3214 35.4371C39.3214 36.5363 38.9955 37.6109 38.3848 38.5249C37.7741 39.4388 36.906 40.1512 35.8905 40.5719C34.8749 40.9925 33.7574 41.1026 32.6793 40.8881C31.6012 40.6737 30.6109 40.1443 29.8336 39.3671C29.0564 38.5898 28.527 37.5995 28.3126 36.5214C28.0981 35.4433 28.2082 34.3258 28.6289 33.3102C29.0495 32.2947 29.7619 31.4267 30.6758 30.816Z" fill="#134A85" stroke="#134A85" stroke-width="0.2"/>
<path d="M35.9549 44.2187L36.0534 44.2009C36.0405 44.1296 36.0135 44.0614 35.9741 44.0006C35.9346 43.9397 35.8834 43.8873 35.8235 43.8465C35.7636 43.8056 35.6961 43.7771 35.625 43.7626C35.554 43.7481 35.4807 43.7479 35.4096 43.762L35.4096 43.762L35.4078 43.7623C35.0463 43.8407 34.6787 43.888 34.3092 43.9036L34.3091 43.9032L34.3002 43.9044C34.167 43.9221 34.0449 43.9876 33.9564 44.0887C33.868 44.1897 33.8192 44.3194 33.8192 44.4537C33.8192 44.588 33.868 44.7178 33.9564 44.8188C34.0449 44.9199 34.167 44.9854 34.3002 45.0031L34.3 45.004H34.3134H34.3692V45.0042L34.3762 45.0037C34.7945 44.9744 35.2108 44.9207 35.6229 44.8429L35.6229 44.8429L35.6255 44.8423C35.7662 44.8119 35.8895 44.7279 35.9693 44.6081C36.0492 44.4883 36.0793 44.3422 36.0533 44.2006L35.9549 44.2187ZM35.9549 44.2187C35.9762 44.3347 35.9516 44.4545 35.8861 44.5526C35.8207 44.6508 35.7196 44.7196 35.6043 44.7446C35.196 44.8217 34.7836 44.8749 34.3692 44.904H34.3134C34.2043 44.8894 34.1042 44.8358 34.0317 44.753C33.9592 44.6701 33.9192 44.5638 33.9192 44.4537C33.9192 44.3437 33.9592 44.2374 34.0317 44.1545C34.1042 44.0717 34.2043 44.0181 34.3134 44.0035C34.6887 43.9877 35.0619 43.9397 35.429 43.8601C35.4871 43.8486 35.547 43.8487 35.605 43.8606C35.6631 43.8724 35.7182 43.8957 35.7672 43.9291C35.8161 43.9625 35.8579 44.0053 35.8902 44.055C35.9224 44.1047 35.9444 44.1604 35.9549 44.2187Z" fill="#134A85" stroke="#134A85" stroke-width="0.2"/>
<path d="M37.4548 44.2151L37.4622 44.2149L37.4695 44.2137C37.5379 44.2024 37.6032 44.177 37.6612 44.139C39.0386 43.5146 40.2488 42.5734 41.1931 41.392C42.139 40.2085 42.7912 38.8177 43.096 37.3336C43.4008 35.8495 43.3497 34.3143 42.9468 32.8537C42.544 31.3932 41.8008 30.0488 40.7782 28.9309L40.7784 28.9307L40.7734 28.9259C40.6689 28.8264 40.53 28.7708 40.3857 28.7708C40.2413 28.7708 40.1025 28.8264 39.998 28.9259L39.9979 28.9259L39.996 28.9278C39.8942 29.0302 39.837 29.1687 39.837 29.3131C39.837 29.4568 39.8936 29.5947 39.9945 29.6969C40.9009 30.6867 41.5597 31.8774 41.9169 33.1711C42.2742 34.4655 42.3194 35.8262 42.0489 37.1414C41.7783 38.4567 41.1996 39.689 40.3603 40.7372C39.521 41.7854 38.4451 42.6196 37.2208 43.1712L37.2207 43.1713C37.1063 43.2232 37.0132 43.3128 36.9572 43.4252C36.9012 43.5376 36.8856 43.6659 36.9131 43.7884C36.9406 43.911 37.0095 44.0203 37.1081 44.098C37.2068 44.1757 37.3292 44.217 37.4548 44.2151ZM37.4532 44.1151C37.3506 44.1167 37.2506 44.0829 37.17 44.0194C37.0894 43.956 37.0332 43.8666 37.0107 43.7665C36.9882 43.6664 37.001 43.5617 37.0467 43.4698C37.0925 43.378 37.1685 43.3048 37.2619 43.2624L37.4532 44.1151Z" fill="#134A85" stroke="#134A85" stroke-width="0.2"/>
<path d="M33.4484 36.3978C33.5625 36.4754 33.6972 36.517 33.8351 36.5172C34.0118 36.5174 34.1818 36.4499 34.3101 36.3285C34.4384 36.2071 34.5153 36.0411 34.5248 35.8648C34.5323 35.727 34.4983 35.5902 34.4271 35.472C34.356 35.3538 34.2511 35.2596 34.1259 35.2016C34.0007 35.1437 33.8611 35.1246 33.7249 35.1468C33.5888 35.1691 33.4624 35.2316 33.3622 35.3264C33.262 35.4212 33.1925 35.5439 33.1627 35.6786C33.1329 35.8133 33.1442 35.9539 33.1952 36.0821C33.2461 36.2103 33.3343 36.3203 33.4484 36.3978ZM33.6919 35.6841C33.7299 35.646 33.7815 35.6247 33.8353 35.6247C33.8891 35.6247 33.9407 35.646 33.9787 35.6841C34.0167 35.7221 34.0381 35.7737 34.0381 35.8275C34.0381 35.8813 34.0167 35.9329 33.9787 35.9709C33.9407 36.0089 33.8891 36.0303 33.8353 36.0303C33.7815 36.0303 33.7299 36.0089 33.6919 35.9709C33.6538 35.9329 33.6325 35.8813 33.6325 35.8275C33.6325 35.7737 33.6538 35.7221 33.6919 35.6841Z" fill="#134A85" stroke="#134A85" stroke-width="0.2"/>
<path d="M31.628 34.9794C31.3194 34.9808 31.0174 34.8902 30.7606 34.719C30.5037 34.5477 30.3038 34.3036 30.1865 34.018C30.0692 33.7324 30.0399 33.4182 30.1023 33.1158C30.1647 32.8134 30.3159 32.5365 30.5367 32.3207C30.7574 32.1048 31.0376 31.9597 31.3414 31.9041C31.6451 31.8485 31.9585 31.8848 32.2414 32.0085C32.5244 32.1321 32.7639 32.3375 32.9294 32.5981C33.0949 32.8588 33.1788 33.1628 33.1703 33.4714M31.628 34.9794C32.0312 34.9795 32.4184 34.8217 32.7067 34.5397C32.9949 34.2579 33.1614 33.8744 33.1703 33.4714M31.628 34.9794L31.628 34.8794L31.628 34.9794ZM33.1703 33.4714C33.1703 33.4715 33.1703 33.4716 33.1703 33.4716L33.0704 33.4689L33.1703 33.4711C33.1703 33.4712 33.1703 33.4713 33.1703 33.4714ZM31.4528 33.0141C31.5084 32.9911 31.5679 32.9792 31.628 32.9792C31.7186 32.9792 31.8071 33.0061 31.8824 33.0564C31.9577 33.1067 32.0163 33.1782 32.051 33.2618C32.0856 33.3455 32.0947 33.4375 32.077 33.5263C32.0594 33.6151 32.0158 33.6967 31.9517 33.7607C31.8877 33.8248 31.8061 33.8684 31.7173 33.886C31.6285 33.9037 31.5365 33.8946 31.4528 33.86C31.3692 33.8253 31.2977 33.7667 31.2474 33.6914C31.1971 33.6161 31.1702 33.5276 31.1702 33.437C31.1702 33.3769 31.1821 33.3174 31.2051 33.2618C31.2281 33.2063 31.2618 33.1558 31.3043 33.1133C31.3468 33.0708 31.3973 33.0371 31.4528 33.0141Z" fill="#134A85" stroke="#134A85" stroke-width="0.2"/>
<path d="M35.7315 34.9794C35.4814 34.9793 35.2369 34.905 35.0291 34.7658C34.8211 34.6266 34.6592 34.4288 34.5638 34.1974C34.4685 33.966 34.4439 33.7116 34.4934 33.4662C34.5429 33.2209 34.664 32.9958 34.8416 32.8195C35.0192 32.6431 35.2451 32.5235 35.4908 32.4757C35.7364 32.428 35.9907 32.4542 36.2214 32.5512C36.4521 32.6481 36.6488 32.8114 36.7866 33.0203C36.9243 33.2291 36.997 33.4741 36.9953 33.7242M35.7315 34.9794C35.897 34.9805 36.0611 34.9488 36.2143 34.8863C36.3676 34.8237 36.5071 34.7314 36.6246 34.6147C36.7421 34.498 36.8353 34.3592 36.8989 34.2063C36.9625 34.0536 36.9953 33.8897 36.9953 33.7242M35.7315 34.9794C35.7314 34.9794 35.7313 34.9794 35.7312 34.9794L35.7319 34.8794L35.7319 34.9794C35.7318 34.9794 35.7317 34.9794 35.7315 34.9794ZM36.9953 33.7242C36.9953 33.7241 36.9953 33.724 36.9953 33.7239L36.8953 33.7239L36.9953 33.7246C36.9953 33.7245 36.9953 33.7244 36.9953 33.7242ZM35.641 33.5549C35.6651 33.5484 35.6903 33.5472 35.7148 33.5515C35.7545 33.5584 35.7905 33.579 35.8164 33.6099C35.8423 33.6407 35.8565 33.6796 35.8565 33.7199C35.8565 33.7602 35.8423 33.7992 35.8164 33.83C35.7905 33.8608 35.7545 33.8815 35.7148 33.8883C35.6903 33.8926 35.6651 33.8914 35.641 33.8849C35.6169 33.8784 35.5946 33.8667 35.5755 33.8507C35.5565 33.8347 35.5411 33.8146 35.5306 33.792C35.5201 33.7695 35.5147 33.7448 35.5147 33.7199C35.5147 33.695 35.5201 33.6704 35.5306 33.6478C35.5411 33.6252 35.5565 33.6052 35.5755 33.5891C35.5946 33.5731 35.617 33.5614 35.641 33.5549Z" fill="#134A85" stroke="#134A85" stroke-width="0.2"/>
<path d="M36.234 38.6927L36.2346 38.6927C36.5963 38.6904 36.9425 38.5457 37.1983 38.29C37.454 38.0342 37.5987 37.6879 37.601 37.3262H37.601V37.3256C37.601 37.0553 37.5208 36.7909 37.3706 36.5661C37.2204 36.3413 37.0069 36.1661 36.7571 36.0627C36.5073 35.9592 36.2324 35.9321 35.9673 35.9849C35.7021 36.0376 35.4585 36.1678 35.2673 36.359C35.0761 36.5502 34.9459 36.7938 34.8932 37.0589C34.8404 37.3241 34.8675 37.599 34.971 37.8488C35.0744 38.0986 35.2497 38.3121 35.4745 38.4623C35.6993 38.6125 35.9636 38.6927 36.234 38.6927ZM36.0777 37.0945C36.1237 37.065 36.1773 37.0499 36.2318 37.0511C36.3036 37.0526 36.372 37.0822 36.4222 37.1335C36.4724 37.1848 36.5005 37.2538 36.5005 37.3256C36.5005 37.3801 36.4842 37.4334 36.4538 37.4787C36.4234 37.524 36.3802 37.5591 36.3296 37.5797C36.2791 37.6003 36.2236 37.6054 36.1702 37.5944C36.1168 37.5833 36.0679 37.5565 36.0298 37.5176C35.9916 37.4786 35.966 37.4291 35.956 37.3755C35.9461 37.3219 35.9524 37.2665 35.9741 37.2164C35.9957 37.1664 36.0318 37.1239 36.0777 37.0945Z" fill="#134A85" stroke="#134A85" stroke-width="0.2"/>
<path d="M32.2823 37.9644C32.2856 37.9566 32.2904 37.9496 32.2965 37.9439L32.3377 37.9437C32.3525 37.9436 32.3667 37.949 32.3777 37.9589C32.3874 37.9677 32.394 37.9793 32.3963 37.9921C32.3955 38.0021 32.3921 38.0117 32.3866 38.0201C32.38 38.0298 32.3708 38.0375 32.3599 38.0419C32.3491 38.0464 32.3371 38.0476 32.3256 38.0453C32.3141 38.043 32.3035 38.0374 32.2952 38.0291C32.2869 38.0208 32.2812 38.0102 32.279 37.9987C32.2767 37.9872 32.2778 37.9752 32.2823 37.9644ZM31.6928 38.9515C31.8835 39.0789 32.1078 39.1469 32.3372 39.1469C32.6448 39.1469 32.9398 39.0247 33.1573 38.8072C33.3748 38.5897 33.497 38.2947 33.497 37.9871C33.497 37.7577 33.429 37.5335 33.3016 37.3427C33.1741 37.152 32.993 37.0033 32.781 36.9155C32.5691 36.8277 32.3359 36.8048 32.1109 36.8495C31.8859 36.8943 31.6793 37.0048 31.5171 37.167C31.3548 37.3292 31.2444 37.5358 31.1996 37.7608C31.1549 37.9858 31.1778 38.219 31.2656 38.4309C31.3534 38.6429 31.5021 38.824 31.6928 38.9515Z" fill="#134A85" stroke="#134A85" stroke-width="0.2"/>
<path d="M16.2292 34.5965C16.303 34.5994 16.3766 34.587 16.4454 34.5601C16.5144 34.5332 16.5771 34.4922 16.6296 34.4399L16.6299 34.4396C16.7318 34.3373 16.789 34.1987 16.789 34.0543C16.789 33.9099 16.7318 33.7714 16.6299 33.669L16.63 33.669L16.628 33.6671C16.5235 33.5676 16.3847 33.5121 16.2403 33.5121C16.0959 33.5121 15.9571 33.5676 15.8526 33.6671L15.8526 33.6671L15.8507 33.669C15.7488 33.7714 15.6916 33.9099 15.6916 34.0543C15.6916 34.1987 15.7488 34.3373 15.8507 34.4396L15.8506 34.4397L15.853 34.4419C15.9552 34.538 16.0891 34.593 16.2292 34.5965ZM16.2292 34.5965C16.2289 34.5965 16.2286 34.5965 16.2284 34.5965L16.2323 34.4966M16.2292 34.5965C16.2294 34.5966 16.2297 34.5966 16.2299 34.5966L16.2323 34.4966M16.2323 34.4966C16.1166 34.4938 16.0059 34.4484 15.9216 34.3691V33.7396C16.0075 33.6577 16.1216 33.6121 16.2403 33.6121C16.359 33.6121 16.4731 33.6577 16.5591 33.7396C16.6423 33.8232 16.689 33.9364 16.689 34.0543C16.689 34.1723 16.6423 34.2855 16.5591 34.3691C16.5163 34.4117 16.4652 34.445 16.409 34.4669C16.3528 34.4889 16.2926 34.499 16.2323 34.4966Z" fill="#134A85" stroke="#134A85" stroke-width="0.2"/>
<path d="M17.7601 32.5008L17.7601 32.5008L17.7614 32.5008C17.8462 32.5016 17.93 32.4826 18.0062 32.4453C18.0824 32.4081 18.1489 32.3536 18.2004 32.2862L18.2004 32.2862L18.2019 32.2841C18.2871 32.1663 18.3226 32.0198 18.3007 31.8762C18.2789 31.7325 18.2015 31.6031 18.0853 31.516L18.0853 31.516L18.0841 31.5151C17.9675 31.4302 17.8221 31.3949 17.6796 31.4169C17.537 31.4388 17.409 31.5162 17.3233 31.6322L17.3233 31.6322L17.3229 31.6327C17.238 31.7493 17.2027 31.8948 17.2246 32.0373C17.2465 32.1798 17.3239 32.3079 17.4399 32.3936L17.4399 32.3936L17.4411 32.3945C17.5343 32.4612 17.6455 32.4982 17.7601 32.5008Z" fill="#134A85" stroke="#134A85" stroke-width="0.2"/>
<path d="M14.5757 32.1186C14.641 32.1454 14.7109 32.1589 14.7815 32.1583C14.8533 32.1596 14.9247 32.1466 14.9915 32.1199C15.0588 32.093 15.1199 32.0527 15.1713 32.0016L15.1713 32.0016L15.172 32.0009C15.2741 31.8972 15.3314 31.7575 15.3314 31.612C15.3314 31.4665 15.2741 31.3268 15.172 31.2231L15.172 31.2231L15.1713 31.2224C15.0689 31.1205 14.9304 31.0633 14.786 31.0633C14.6416 31.0633 14.503 31.1205 14.4007 31.2224L14.4007 31.2224L14.4 31.2231C14.2978 31.3268 14.2406 31.4665 14.2406 31.612C14.2406 31.7575 14.2978 31.8972 14.4 32.0009L14.4001 32.0011C14.4502 32.0517 14.5099 32.0916 14.5757 32.1186Z" fill="#134A85" stroke="#134A85" stroke-width="0.2"/>
</svg>
