<svg width="51" height="51" viewBox="0 0 51 51" fill="none" xmlns="http://www.w3.org/2000/svg">
<g clip-path="url(#clip0_1_510)">
<path d="M41.0017 5.9928C41.5519 5.9928 41.9978 5.54683 41.9978 4.9967C41.9978 4.44658 41.5519 4.00061 41.0017 4.00061C40.4516 4.00061 40.0056 4.44658 40.0056 4.9967C40.0056 5.54683 40.4516 5.9928 41.0017 5.9928Z" fill="#134A85"/>
<path d="M41.0017 11.9942C41.5519 11.9942 41.9978 11.5482 41.9978 10.9981C41.9978 10.448 41.5519 10.002 41.0017 10.002C40.4516 10.002 40.0056 10.448 40.0056 10.9981C40.0056 11.5482 40.4516 11.9942 41.0017 11.9942Z" fill="#134A85"/>
<path d="M38.0015 8.99402C38.5517 8.99402 38.9976 8.54805 38.9976 7.99792C38.9976 7.4478 38.5517 7.00183 38.0015 7.00183C37.4514 7.00183 37.0054 7.4478 37.0054 7.99792C37.0054 8.54805 37.4514 8.99402 38.0015 8.99402Z" fill="#134A85"/>
<path d="M44.0029 7.00183C43.4442 7.00183 43.0058 7.45665 43.0058 7.99792C43.0058 8.53711 43.443 8.99402 44.0029 8.99402C44.5468 8.99402 44.999 8.55125 44.999 7.99792C44.999 7.45207 44.5552 7.00183 44.0029 7.00183Z" fill="#134A85"/>
<path d="M48.8211 9.67306C49.8917 4.67263 46.0563 0.000305176 41.002 0.000305176C37.143 0.000305176 33.9135 2.748 33.1672 6.38967C27.6277 2.55506 19.8121 3.32363 15.1872 8.78176C13.3135 6.98702 10.8627 6.0012 8.26021 6.0012C3.70552 6.0012 0 9.70673 0 14.2613C0 16.1065 0.608706 17.874 1.72591 19.3131C1.40716 20.0811 1.36921 20.9817 1.63238 21.8842C2.28999 24.1392 4.65718 25.9863 7.10794 25.9863C8.32386 25.9863 9.4331 25.5219 10.1221 24.6033C11.4443 22.8405 10.7268 20.0612 8.52268 18.4081C6.74935 17.0782 4.54662 16.8769 3.06445 17.7665C2.36868 16.7397 1.99216 15.5248 1.99216 14.2613C1.99216 10.8052 4.804 7.99337 8.26021 7.99337C11.9047 7.99337 13.928 10.3608 14.003 10.4112C11.354 14.697 11.3093 20.2215 14.0151 24.5929C14.2842 25.0279 14.3709 25.5547 14.2593 26.0753C13.6277 29.0088 14.1537 32.0224 15.7408 34.5613C18.2019 38.4971 19.5029 43.1453 19.5029 48.0032C19.5029 49.6554 20.8471 50.9996 22.4993 50.9996H28.5001C30.1523 50.9996 31.4965 49.6554 31.4965 48.0032C31.5147 47.8738 31.1905 41.2737 35.33 34.4658C36.8645 31.9431 37.3638 28.9552 36.7354 26.0507C36.6258 25.5487 36.7207 25.0204 37.0026 24.5628C38.619 21.9358 39.2911 18.8175 38.8784 15.706C42.4321 16.6863 46.202 15.1122 48.0036 11.8564C49.372 13.9571 49.3584 16.6814 47.9369 18.768C46.4547 17.8771 44.2507 18.078 42.4768 19.4083C40.2727 21.0614 39.5552 23.8404 40.8774 25.6035C42.9821 28.4098 48.2629 26.6703 49.367 22.8843C49.6303 21.9817 49.5922 21.081 49.2734 20.3131C51.7097 17.1769 51.5756 12.669 48.8211 9.67306ZM7.32738 20.0018C8.63025 20.9791 9.18019 22.539 8.52835 23.408C7.87632 24.2772 6.22492 24.1859 4.92214 23.2088C4.24839 22.7036 3.74646 22.0175 3.54496 21.3265C3.18099 20.0784 3.86141 19.2057 5.12693 19.2057C5.8207 19.2057 6.62474 19.4749 7.32738 20.0018ZM35.3061 23.5185C34.7527 24.4171 34.5691 25.4672 34.7888 26.4738C35.3083 28.8753 34.8961 31.346 33.6279 33.4308C29.1899 40.73 29.6384 47.0509 29.5044 48.0034C29.5044 48.5572 29.054 49.0076 28.5002 49.0076H22.4994C21.9456 49.0076 21.4951 48.5572 21.4951 48.0034C21.4951 42.7715 20.0895 37.758 17.43 33.5053C16.1194 31.4086 15.6849 28.9189 16.2073 26.4938C16.4273 25.4666 16.2505 24.4194 15.7092 23.5447C14.5871 21.7319 13.9941 19.6423 13.9941 17.5017C13.9931 11.1745 19.1529 5.99293 25.4989 5.99293C28.2884 5.99293 30.9516 6.992 33.0466 8.81623C33.2989 11.2863 34.6814 13.4255 36.6658 14.7115C37.4052 17.6847 36.9346 20.8721 35.3061 23.5185ZM41.002 14.0024C37.6908 14.0024 34.997 11.3086 34.997 7.99755C34.997 4.68637 37.6908 1.99257 41.002 1.99257C44.3131 1.99257 47.0069 4.68637 47.0069 7.99755C47.0069 11.3086 44.3131 14.0024 41.002 14.0024ZM47.4545 22.3266C47.253 23.0177 46.7511 23.7038 46.0774 24.209C44.7743 25.1862 43.1229 25.2773 42.4711 24.4082C41.8193 23.5389 42.3692 21.9791 43.6721 21.002C44.9748 20.0248 46.6264 19.9335 47.2783 20.8028C47.6672 21.3212 47.5556 21.9799 47.4545 22.3266Z" fill="#134A85"/>
<path d="M25.3066 9.00406C21.0696 9.10427 17.6176 12.5435 17.5056 16.7827C17.4574 18.6022 18.0362 20.3984 19.1352 21.8405C21.3387 24.7316 22.5033 28.0933 22.5033 31.5621V32.0011C22.5033 33.6533 23.8475 34.9974 25.4997 34.9974C27.1519 34.9974 28.4961 33.6533 28.4961 32.0011V31.6186C28.4961 28.1308 29.6658 24.7431 31.8786 21.8214C32.9374 20.4239 33.4969 18.7564 33.4969 16.9989C33.4969 12.5241 29.8287 8.89897 25.3066 9.00406ZM30.2907 20.6185C27.8134 23.8892 26.504 27.6928 26.504 31.6186V32.0011C26.504 32.5548 26.0535 33.0053 25.4997 33.0053C24.9459 33.0053 24.4955 32.5547 24.4955 32.0011V31.5621C24.4955 27.6533 23.1898 23.874 20.7196 20.6329C19.8831 19.5351 19.4603 18.222 19.4969 16.8354C19.5819 13.6324 22.162 11.0605 25.3753 10.9951C28.74 10.9267 31.5048 13.6272 31.5048 16.9988C31.5047 18.3184 31.0848 19.57 30.2907 20.6185Z" fill="#134A85"/>
</g>
<defs>
<clipPath id="clip0_1_510">
<rect width="51" height="51" fill="white"/>
</clipPath>
</defs>
</svg>
