<svg width="51" height="52" viewBox="0 0 51 52" fill="none" xmlns="http://www.w3.org/2000/svg">
<path d="M50.2233 15.7588C50.0172 15.7588 49.8195 15.8407 49.6738 15.9864C49.528 16.1321 49.4461 16.3298 49.4461 16.5359V20.6899H40.3602C39.3813 20.6908 38.4428 21.0801 37.7507 21.7722C37.0585 22.4643 36.6691 23.4027 36.6681 24.3816V26.4537H6.41747V12.0906C7.89267 12.0003 9.28383 11.3733 10.3286 10.3279C11.3733 9.2825 11.9995 7.89094 12.0889 6.41569H27.2322C27.3342 6.41575 27.4353 6.39569 27.5296 6.35665C27.6239 6.31762 27.7096 6.26037 27.7818 6.1882C27.854 6.11602 27.9112 6.03033 27.9503 5.93601C27.9893 5.8417 28.0094 5.74061 28.0093 5.63854V4.27964C28.0081 3.14505 27.5569 2.05725 26.7547 1.25493C25.9524 0.452612 24.8647 0.00129311 23.7301 0H6.05554C6.03866 0 6.02223 0.00399662 6.00535 0.00488479C4.4091 0.0190402 2.88292 0.662555 1.75844 1.7956C0.633959 2.92864 0.0020432 4.45966 0 6.05598V6.09017V27.2162V27.2335V32.5092C0.00105809 33.1944 0.27385 33.8513 0.75854 34.3356C1.24323 34.82 1.90024 35.0923 2.58546 35.0929H21.7544V44.2486H13.9221C13.1816 44.2498 12.4718 44.5444 11.9482 45.068C11.4246 45.5916 11.1299 46.3014 11.1288 47.0419V49.7694H8.18093C7.97481 49.7694 7.77714 49.8513 7.6314 49.9971C7.48565 50.1428 7.40378 50.3405 7.40378 50.5466C7.40378 50.7527 7.48565 50.9504 7.6314 51.0961C7.77714 51.2419 7.97481 51.3237 8.18093 51.3237H42.8195C43.0256 51.3237 43.2233 51.2419 43.369 51.0961C43.5148 50.9504 43.5967 50.7527 43.5967 50.5466C43.5967 50.3405 43.5148 50.1428 43.369 49.9971C43.2233 49.8513 43.0256 49.7694 42.8195 49.7694H39.8717V47.0419C39.8705 46.3014 39.5758 45.5916 39.0522 45.068C38.5287 44.5444 37.8189 44.2498 37.0784 44.2486H29.2461V35.0929H48.415C49.1004 35.0922 49.7575 34.8196 50.2421 34.335C50.7267 33.8503 50.9993 33.1932 51 32.5079V16.5373C51.0002 16.4351 50.9803 16.3339 50.9414 16.2395C50.9025 16.145 50.8453 16.0592 50.7731 15.9869C50.701 15.9146 50.6153 15.8572 50.5209 15.8181C50.4266 15.7789 50.3254 15.7588 50.2233 15.7588ZM38.2224 24.3829C38.2231 23.8162 38.4485 23.2729 38.8493 22.8722C39.2501 22.4715 39.7934 22.2461 40.3602 22.2455H49.4461V26.455H38.2224V24.3829ZM26.4541 4.27964V4.86139H11.9867C11.7264 3.58281 11.0595 2.42272 10.0856 1.5543H23.7288C24.4512 1.55524 25.1439 1.84269 25.6547 2.3536C26.1655 2.86451 26.4533 3.55716 26.4541 4.27964ZM6.05287 1.55696C6.64742 1.55105 7.23725 1.66306 7.78825 1.88649C8.33925 2.10993 8.8405 2.44037 9.26302 2.85871C9.68553 3.27705 10.0209 3.77498 10.2498 4.32374C10.4787 4.87249 10.5966 5.46118 10.5966 6.05576C10.5966 6.65034 10.4787 7.23902 10.2498 7.78778C10.0209 8.33653 9.68553 8.83447 9.26302 9.25281C8.8405 9.67115 8.33925 10.0016 7.78825 10.225C7.23725 10.4485 6.64742 10.5605 6.05287 10.5546C5.91965 10.5546 5.78642 10.5461 5.65542 10.5346C5.65009 10.5346 5.6452 10.5346 5.64032 10.5346H5.63543C4.52623 10.4298 3.49525 9.91753 2.74178 9.0968C1.98831 8.27608 1.56586 7.20516 1.55607 6.09106V6.05465C1.55607 6.05065 1.55607 6.04754 1.55607 6.04399C1.56041 4.8536 2.03589 3.71335 2.87854 2.87253C3.72119 2.03171 4.86248 1.55871 6.05287 1.55696ZM4.86317 11.9903V26.4519H1.55607V10.0932C2.42499 11.0656 3.58505 11.7311 4.86317 11.9903ZM38.3174 47.0419V49.7694H12.6831V47.0419C12.6834 46.7134 12.8141 46.3984 13.0463 46.1662C13.2786 45.9339 13.5936 45.8032 13.9221 45.8029H37.0784C37.4069 45.8032 37.7218 45.9339 37.9541 46.1662C38.1864 46.3984 38.317 46.7134 38.3174 47.0419ZM27.6918 44.2486H23.3087V35.0929H27.6918V44.2486ZM49.4461 32.5079C49.4459 32.7812 49.3372 33.0432 49.144 33.2364C48.9507 33.4297 48.6887 33.5384 48.4154 33.5386H2.58546C2.31217 33.5384 2.05014 33.4297 1.85689 33.2364C1.66364 33.0432 1.55498 32.7812 1.55474 32.5079V28.0093H49.4461V32.5079Z" fill="#134A85"/>
<path d="M20.1396 9.67479V12.5915C20.1396 12.7977 20.2215 12.9953 20.3673 13.1411C20.513 13.2868 20.7107 13.3687 20.9168 13.3687C21.1229 13.3687 21.3206 13.2868 21.4663 13.1411C21.6121 12.9953 21.6939 12.7977 21.6939 12.5915V9.67479C21.6939 9.46868 21.6121 9.27101 21.4663 9.12527C21.3206 8.97952 21.1229 8.89764 20.9168 8.89764C20.7107 8.89764 20.513 8.97952 20.3673 9.12527C20.2215 9.27101 20.1396 9.46868 20.1396 9.67479Z" fill="#134A85"/>
<path d="M16.2455 9.18628L14.411 11.4547C14.2868 11.6154 14.2306 11.8184 14.2542 12.0201C14.2779 12.2218 14.3796 12.4062 14.5375 12.5339C14.6954 12.6616 14.8971 12.7224 15.0992 12.7033C15.3014 12.6842 15.4881 12.5867 15.6193 12.4317L17.4534 10.1633C17.5829 10.0031 17.6436 9.79801 17.6219 9.59313C17.6003 9.38826 17.4981 9.20038 17.3379 9.07082C17.1777 8.94127 16.9727 8.88065 16.7678 8.9023C16.5629 8.92395 16.375 9.02611 16.2455 9.18628Z" fill="#134A85"/>
<path d="M24.4952 9.07261C24.4159 9.13676 24.35 9.2159 24.3013 9.30552C24.2525 9.39514 24.2219 9.49348 24.2112 9.59492C24.2005 9.69637 24.2099 9.79893 24.2388 9.89676C24.2677 9.99458 24.3156 10.0858 24.3798 10.1651L26.2143 12.4334C26.2775 12.5154 26.3565 12.5839 26.4466 12.6349C26.5367 12.6858 26.6361 12.7183 26.7389 12.7304C26.8417 12.7424 26.9459 12.7338 27.0454 12.705C27.1448 12.6763 27.2375 12.6279 27.318 12.5628C27.3985 12.4977 27.4652 12.4172 27.5142 12.326C27.5631 12.2348 27.5934 12.1347 27.6031 12.0317C27.6129 11.9286 27.6019 11.8246 27.5709 11.7258C27.5399 11.6271 27.4895 11.5355 27.4226 11.4565L25.589 9.1863C25.5248 9.10677 25.4456 9.04071 25.3558 8.99192C25.266 8.94313 25.1674 8.91258 25.0658 8.90201C24.9641 8.89145 24.8614 8.90108 24.7635 8.93036C24.6655 8.95964 24.5744 9.00798 24.4952 9.07261Z" fill="#134A85"/>
<path d="M6.05285 8.52507C6.54121 8.52516 7.01863 8.38043 7.42473 8.10917C7.83083 7.83791 8.14738 7.45232 8.33433 7.00116C8.52127 6.55 8.57023 6.05353 8.47501 5.57454C8.37979 5.09555 8.14467 4.65555 7.79937 4.3102C7.45408 3.96484 7.01413 3.72964 6.53516 3.63433C6.05618 3.53902 5.5597 3.58789 5.10851 3.77476C4.65731 3.96163 4.27166 4.2781 4.00033 4.68415C3.729 5.09021 3.58418 5.5676 3.58418 6.05596C3.58489 6.71052 3.84519 7.33807 4.30799 7.80095C4.77079 8.26383 5.39829 8.52425 6.05285 8.52507ZM6.05285 5.14115C6.2338 5.14106 6.41071 5.19464 6.56121 5.29511C6.71171 5.39558 6.82903 5.53842 6.89834 5.70557C6.96765 5.87272 6.98583 6.05668 6.95058 6.23416C6.91533 6.41165 6.82824 6.57469 6.70032 6.70268C6.5724 6.83066 6.4094 6.91783 6.23193 6.95317C6.05446 6.9885 5.8705 6.97041 5.70331 6.90118C5.53613 6.83196 5.39322 6.7147 5.29268 6.56425C5.19214 6.4138 5.13848 6.23692 5.13848 6.05596C5.13871 5.81349 5.23511 5.58101 5.40652 5.40951C5.57794 5.23801 5.81037 5.1415 6.05285 5.14115Z" fill="#134A85"/>
</svg>
