<svg width="45" height="51" viewBox="0 0 45 51" fill="none" xmlns="http://www.w3.org/2000/svg">
<path d="M33.4686 37.753C32.9452 37.7515 32.4268 37.8539 31.9432 38.0541C31.4597 38.2544 31.0207 38.5485 30.6516 38.9196L26.5541 43.0171H23.3148C23.763 42.426 24.0373 41.7215 24.1068 40.9829C24.1762 40.2443 24.0381 39.501 23.708 38.8366C23.3778 38.1723 22.8688 37.6133 22.2381 37.2226C21.6075 36.832 20.8803 36.6251 20.1384 36.6254H9.80296C9.27951 36.6241 8.761 36.7265 8.27736 36.9268C7.79373 37.127 7.35456 37.4211 6.98521 37.792L0.223723 44.5543C0.0785659 44.7046 -0.00175497 44.9059 6.06414e-05 45.1148C0.00187626 45.3237 0.085683 45.5236 0.23343 45.6714C0.381177 45.8191 0.581043 45.9029 0.789981 45.9047C0.998919 45.9065 1.20021 45.8262 1.3505 45.6811L8.11199 38.9188C8.33375 38.6964 8.59733 38.52 8.88755 38.4C9.17777 38.2799 9.48888 38.2184 9.80296 38.2191H20.1384C20.7725 38.2191 21.3805 38.471 21.8289 38.9193C22.2772 39.3677 22.5291 39.9757 22.5291 40.6098C22.5291 41.2438 22.2772 41.8518 21.8289 42.3002C21.3805 42.7485 20.7725 43.0004 20.1384 43.0004H11.8637C11.7072 43.0026 11.5548 43.0509 11.4255 43.1392C11.2963 43.2275 11.1959 43.3519 11.1369 43.4968C11.0767 43.6438 11.0609 43.8052 11.0917 43.9611C11.1224 44.1169 11.1983 44.2603 11.3098 44.3734C11.3839 44.4494 11.4725 44.5098 11.5704 44.5508C11.6683 44.5919 11.7735 44.6129 11.8796 44.6125H26.884C27.0953 44.6124 27.298 44.5284 27.4474 44.379L31.7784 40.048C32.2341 39.6136 32.8394 39.3714 33.469 39.3714C34.0985 39.3714 34.7038 39.6136 35.1595 40.048C35.3816 40.2699 35.5577 40.5335 35.6778 40.8236C35.798 41.1137 35.8599 41.4246 35.8599 41.7385C35.8599 42.0525 35.798 42.3634 35.6778 42.6535C35.5577 42.9435 35.3816 43.2071 35.1595 43.4291L29.8938 48.6933C29.6726 48.9161 29.4094 49.0928 29.1194 49.213C28.8294 49.3332 28.5183 49.3947 28.2044 49.3937H6.76846C6.55711 49.3937 6.35442 49.4777 6.20498 49.6271C6.05554 49.7765 5.97158 49.9792 5.97158 50.1906C5.97158 50.4019 6.05554 50.6046 6.20498 50.7541C6.35442 50.9035 6.55711 50.9875 6.76846 50.9875H28.2044C28.7278 50.9889 29.2463 50.8864 29.7299 50.686C30.2134 50.4856 30.6524 50.1913 31.0214 49.82L36.2863 44.5559C36.8434 43.9986 37.2228 43.2887 37.3764 42.5158C37.53 41.743 37.4511 40.9419 37.1495 40.2139C36.8479 39.4859 36.3372 38.8637 35.682 38.426C35.0268 37.9882 34.2565 37.7546 33.4686 37.7545V37.753Z" fill="#134A85"/>
<path d="M27.2386 24.3702C27.3014 24.4539 27.38 24.5245 27.4701 24.5778C27.5601 24.6311 27.6598 24.6661 27.7634 24.6809C27.867 24.6957 27.9725 24.69 28.0739 24.664C28.1752 24.6381 28.2705 24.5924 28.3542 24.5296L31.2588 22.3509L36.323 23.3638C36.3754 23.3743 36.4288 23.3794 36.4823 23.3789C36.68 23.3791 36.8706 23.3059 37.0173 23.1734C37.1639 23.0409 37.2561 22.8587 37.276 22.6621C37.2958 22.4655 37.2419 22.2685 37.1247 22.1094C37.0075 21.9503 36.8354 21.8404 36.6417 21.8011L31.7385 20.8209L31.176 18.1912C32.1124 17.6209 32.8869 16.8199 33.4253 15.8647C33.9637 14.9096 34.248 13.8323 34.2511 12.7358V8.75145C34.2511 8.54011 34.1671 8.33742 34.0177 8.18798C33.8683 8.03854 33.6656 7.95458 33.4542 7.95458H31.9585C31.1975 7.95555 30.4582 7.70167 29.8584 7.23342C29.2585 6.76517 28.8328 6.10954 28.6491 5.37111C28.6059 5.1988 28.5064 5.04587 28.3663 4.93659C28.2263 4.82731 28.0537 4.76796 27.8761 4.76796C27.6985 4.76796 27.5259 4.82731 27.3859 4.93659C27.2458 5.04587 27.1463 5.1988 27.1031 5.37111C26.9191 6.10941 26.4933 6.76488 25.8936 7.23308C25.2938 7.70128 24.5546 7.95527 23.7937 7.95458C23.5824 7.95458 23.3797 8.03854 23.2302 8.18798C23.0808 8.33742 22.9968 8.54011 22.9968 8.75145C22.9968 8.9628 23.0808 9.16549 23.2302 9.31493C23.3797 9.46437 23.5824 9.54833 23.7937 9.54833C24.5931 9.54926 25.381 9.35841 26.0914 8.99179C26.8017 8.62518 27.4138 8.0935 27.8761 7.44139C28.3384 8.0935 28.9505 8.62518 29.6608 8.99179C30.3712 9.35841 31.1591 9.54926 31.9585 9.54833H32.6573V12.7358C32.6536 13.6392 32.3952 14.5233 31.9117 15.2864C31.4282 16.0495 30.7393 16.6608 29.9241 17.0501C29.7622 17.1272 29.6311 17.2566 29.5518 17.4173C29.4726 17.5781 29.4499 17.7609 29.4874 17.9362L30.1783 21.17L27.398 23.2546C27.3143 23.3174 27.2437 23.396 27.1904 23.4861C27.1371 23.5761 27.102 23.6758 27.0872 23.7794C27.0724 23.883 27.0782 23.9885 27.1042 24.0898C27.1301 24.1912 27.1758 24.2865 27.2386 24.3702Z" fill="#134A85"/>
<path d="M3.1865 33.4546H3.20005C3.30477 33.4529 3.40814 33.4306 3.50423 33.389C3.60033 33.3474 3.68728 33.2872 3.76011 33.2119C3.83293 33.1366 3.89021 33.0478 3.92866 32.9503C3.9671 32.8529 3.98597 32.7489 3.98418 32.6442L3.97461 32.0847C3.97519 31.532 4.16698 30.9964 4.51747 30.569C4.86795 30.1415 5.35553 29.8484 5.89747 29.7395L10.9552 28.7291L13.8559 30.9046C13.9938 31.008 14.1616 31.064 14.334 31.064C14.5064 31.064 14.6742 31.008 14.8121 30.9046L17.7167 28.7259L22.7809 29.7388C23.3223 29.8482 23.8094 30.1413 24.1596 30.5685C24.5098 30.9957 24.7018 31.5307 24.7029 32.0832V32.6577C24.7029 32.869 24.7869 33.0717 24.9363 33.2212C25.0858 33.3706 25.2885 33.4546 25.4998 33.4546C25.7111 33.4546 25.9138 33.3706 26.0633 33.2212C26.2127 33.0717 26.2967 32.869 26.2967 32.6577V32.0832C26.2941 31.1631 25.974 30.2721 25.3905 29.5607C24.807 28.8493 23.9958 28.3611 23.094 28.1785L18.1909 27.1983L17.6283 24.5686C18.5661 23.9988 19.3419 23.1977 19.8813 22.242C20.4208 21.2864 20.7057 20.2082 20.709 19.1108V15.1265C20.709 14.9151 20.625 14.7124 20.4756 14.563C20.3261 14.4135 20.1235 14.3296 19.9121 14.3296H18.4164C17.6554 14.3306 16.9161 14.0767 16.3163 13.6084C15.7164 13.1402 15.2907 12.4845 15.107 11.7461C15.0638 11.5738 14.9643 11.4209 14.8242 11.3116C14.6842 11.2023 14.5116 11.143 14.334 11.143C14.1564 11.143 13.9838 11.2023 13.8438 11.3116C13.7037 11.4209 13.6042 11.5738 13.561 11.7461C13.377 12.4845 12.9511 13.1401 12.3511 13.6083C11.7512 14.0765 11.0118 14.3305 10.2508 14.3296H8.75586C8.54452 14.3296 8.34183 14.4135 8.19239 14.563C8.04295 14.7124 7.95899 14.9151 7.95899 15.1265V19.1108C7.96332 20.2071 8.24883 21.284 8.7882 22.2384C9.32758 23.1929 10.1028 23.993 11.0397 24.5622L10.4763 27.1999L5.5851 28.1769C4.68 28.3599 3.86621 28.8507 3.28207 29.5659C2.69793 30.2811 2.37948 31.1765 2.38086 32.0999L2.39043 32.672C2.39418 32.8808 2.47969 33.0797 2.62855 33.226C2.77742 33.3723 2.97776 33.4544 3.1865 33.4546ZM9.55274 19.1108V15.9233H10.2508C11.0503 15.9243 11.8383 15.7334 12.5488 15.3668C13.2593 15.0002 13.8715 14.4685 14.334 13.8164C14.7963 14.4685 15.4083 15.0003 16.1187 15.3669C16.829 15.7335 17.617 15.9243 18.4164 15.9233H19.1152V19.1108C19.1115 20.0142 18.8531 20.8983 18.3696 21.6614C17.8861 22.4245 17.1972 23.0358 16.382 23.4251C16.2201 23.5022 16.089 23.6315 16.0097 23.7923C15.9305 23.9531 15.9078 24.1359 15.9453 24.3112L16.6362 27.545L14.334 29.271L12.0318 27.545L12.7227 24.3112C12.7602 24.1359 12.7375 23.9531 12.6582 23.7923C12.579 23.6315 12.4479 23.5022 12.286 23.4251C11.4708 23.0358 10.7819 22.4245 10.2984 21.6614C9.8149 20.8983 9.55646 20.0142 9.55274 19.1108Z" fill="#134A85"/>
<path d="M5.57791 27.0796C5.78926 27.0796 5.99194 26.9956 6.14139 26.8462C6.29083 26.6967 6.37479 26.4941 6.37479 26.2827V15.9233C6.37479 11.7676 9.72166 8.75146 14.3388 8.75146C18.9558 8.75146 22.3123 11.7676 22.3123 15.9233V26.2827C22.3123 26.4941 22.3962 26.6967 22.5457 26.8462C22.6951 26.9956 22.8978 27.0796 23.1092 27.0796C23.3205 27.0796 23.5232 26.9956 23.6726 26.8462C23.8221 26.6967 23.906 26.4941 23.906 26.2827V15.9233C23.906 10.8441 19.8818 7.15771 14.3388 7.15771C8.79569 7.15771 4.78104 10.8441 4.78104 15.9233V26.2827C4.78104 26.4941 4.86499 26.6967 5.01444 26.8462C5.16388 26.9956 5.36657 27.0796 5.57791 27.0796Z" fill="#134A85"/>
<path d="M19.5639 6.69473C19.7564 6.78147 19.9755 6.78822 20.1731 6.71351C20.3706 6.6388 20.5304 6.48874 20.6173 6.29629C21.3643 4.63443 22.6582 3.27872 24.2834 2.45509C25.9087 1.63147 27.7671 1.38966 29.549 1.76997C31.3308 2.15028 32.9286 3.12973 34.076 4.54511C35.2233 5.9605 35.851 7.72633 35.8544 9.54834V19.9077C35.8544 20.1191 35.9383 20.3217 36.0878 20.4712C36.2372 20.6206 36.4399 20.7046 36.6513 20.7046C36.8626 20.7046 37.0653 20.6206 37.2147 20.4712C37.3642 20.3217 37.4481 20.1191 37.4481 19.9077V9.54834C37.4449 7.36148 36.6922 5.24179 35.3155 3.54265C33.9388 1.84351 32.0213 0.667572 29.8826 0.210875C27.744 -0.245822 25.5134 0.0443156 23.5628 1.03292C21.6121 2.02153 20.0593 3.64886 19.163 5.64365C19.0772 5.83624 19.0712 6.05499 19.1463 6.25199C19.2215 6.449 19.3716 6.6082 19.5639 6.69473Z" fill="#134A85"/>
<path d="M43.8184 28.6733H40.6309V25.4858C40.6309 25.2745 40.5469 25.0718 40.3975 24.9224C40.248 24.7729 40.0453 24.689 39.834 24.689H36.6465C36.4351 24.689 36.2325 24.7729 36.083 24.9224C35.9336 25.0718 35.8496 25.2745 35.8496 25.4858V28.6733H32.6621C32.4508 28.6733 32.2481 28.7573 32.0986 28.9067C31.9492 29.0562 31.8652 29.2589 31.8652 29.4702V32.6577C31.8652 32.8691 31.9492 33.0717 32.0986 33.2212C32.2481 33.3706 32.4508 33.4546 32.6621 33.4546H35.8496V36.6421C35.8496 36.8534 35.9336 37.0561 36.083 37.2056C36.2325 37.355 36.4351 37.439 36.6465 37.439H39.834C40.0453 37.439 40.248 37.355 40.3975 37.2056C40.5469 37.0561 40.6309 36.8534 40.6309 36.6421V33.4546H43.8184C44.0297 33.4546 44.2324 33.3706 44.3818 33.2212C44.5313 33.0717 44.6152 32.8691 44.6152 32.6577V29.4702C44.6152 29.2589 44.5313 29.0562 44.3818 28.9067C44.2324 28.7573 44.0297 28.6733 43.8184 28.6733ZM43.0215 31.8608H39.834C39.6226 31.8608 39.42 31.9448 39.2705 32.0942C39.1211 32.2437 39.0371 32.4464 39.0371 32.6577V35.8452H37.4434V32.6577C37.4434 32.4464 37.3594 32.2437 37.21 32.0942C37.0605 31.9448 36.8578 31.8608 36.6465 31.8608H33.459V30.2671H36.6465C36.8578 30.2671 37.0605 30.1831 37.21 30.0337C37.3594 29.8842 37.4434 29.6816 37.4434 29.4702V26.2827H39.0371V29.4702C39.0371 29.6816 39.1211 29.8842 39.2705 30.0337C39.42 30.1831 39.6226 30.2671 39.834 30.2671H43.0215V31.8608Z" fill="#134A85"/>
</svg>
