<svg width="51" height="51" viewBox="0 0 51 51" fill="none" xmlns="http://www.w3.org/2000/svg">
<path d="M25.5 34.6826C27.3162 34.6826 29.0916 34.1441 30.6016 33.1351C32.1117 32.1261 33.2887 30.6919 33.9837 29.014C34.6787 27.3361 34.8606 25.4898 34.5063 23.7085C34.1519 21.9272 33.2774 20.291 31.9932 19.0068C30.7089 17.7226 29.0727 16.848 27.2915 16.4937C25.5102 16.1394 23.6639 16.3212 21.9859 17.0163C20.308 17.7113 18.8739 18.8882 17.8649 20.3983C16.8559 21.9084 16.3173 23.6838 16.3173 25.5C16.3201 27.9345 17.2884 30.2686 19.0099 31.99C20.7314 33.7115 23.0655 34.6799 25.5 34.6826ZM25.5 17.911C27.001 17.911 28.4682 18.3561 29.7162 19.19C30.9642 20.0239 31.9369 21.2091 32.5113 22.5958C33.0857 23.9825 33.236 25.5084 32.9431 26.9805C32.6503 28.4526 31.9275 29.8048 30.8662 30.8661C29.8049 31.9275 28.4526 32.6503 26.9805 32.9431C25.5084 33.2359 23.9825 33.0856 22.5958 32.5112C21.2092 31.9368 20.0239 30.9641 19.19 29.7161C18.3562 28.4682 17.9111 27.0009 17.9111 25.5C17.9133 23.4879 18.7136 21.559 20.1363 20.1363C21.559 18.7136 23.488 17.9133 25.5 17.911Z" fill="#134A85"/>
<path d="M21.8218 23.5078C21.8218 23.7192 21.9058 23.9218 22.0552 24.0713C22.2046 24.2207 22.4073 24.3047 22.6187 24.3047H25.7412C25.4573 24.9023 24.9032 25.2012 24.2676 25.2012H22.6187C22.4582 25.2042 22.3022 25.2548 22.1704 25.3466C22.0387 25.4383 21.9371 25.567 21.8785 25.7165C21.8199 25.8659 21.807 26.0294 21.8413 26.1863C21.8757 26.3431 21.9557 26.4862 22.0714 26.5975L26.1928 30.4955C26.2686 30.5675 26.3579 30.6239 26.4555 30.6613C26.5532 30.6988 26.6572 30.7167 26.7618 30.7139C26.8663 30.7111 26.9693 30.6878 27.0648 30.6452C27.1603 30.6026 27.2465 30.5416 27.3184 30.4657C27.3903 30.3897 27.4466 30.3004 27.484 30.2027C27.5213 30.105 27.5391 30.0009 27.5362 29.8964C27.5333 29.7919 27.5098 29.6889 27.4671 29.5934C27.4244 29.498 27.3633 29.4119 27.2873 29.34L24.604 26.7822C25.2776 26.7219 25.9148 26.4496 26.424 26.0044C26.9332 25.5593 27.2883 24.9642 27.4381 24.3047H28.3813C28.5926 24.3047 28.7953 24.2207 28.9448 24.0713C29.0942 23.9218 29.1782 23.7192 29.1782 23.5078C29.1782 23.2965 29.0942 23.0938 28.9448 22.9443C28.7953 22.7949 28.5926 22.7109 28.3813 22.7109H27.4383C27.3713 22.4236 27.2472 22.1526 27.0735 21.9141H28.3813C28.5926 21.9141 28.7953 21.8301 28.9448 21.6807C29.0942 21.5312 29.1782 21.3285 29.1782 21.1172C29.1782 20.9058 29.0942 20.7032 28.9448 20.5537C28.7953 20.4043 28.5926 20.3203 28.3813 20.3203H22.6187C22.4073 20.3203 22.2046 20.4043 22.0552 20.5537C21.9058 20.7032 21.8218 20.9058 21.8218 21.1172C21.8218 21.3285 21.9058 21.5312 22.0552 21.6807C22.2046 21.8301 22.4073 21.9141 22.6187 21.9141H24.2676C24.9033 21.9141 25.4573 22.2129 25.7412 22.7109H22.6187C22.4073 22.7109 22.2046 22.7949 22.0552 22.9443C21.9058 23.0938 21.8218 23.2965 21.8218 23.5078Z" fill="#134A85"/>
<path d="M32.3867 34.7601L28.2614 37.8448C27.7967 37.332 27.2097 36.945 26.5552 36.7201C25.9007 36.4951 25.1999 36.4395 24.5181 36.5583L20.1401 37.3237C19.4737 37.4395 18.7898 37.4038 18.1391 37.2194L17.6494 37.0799C16.4351 36.7311 15.1564 36.6691 13.9141 36.8989C12.6718 37.1286 11.4999 37.6439 10.4908 38.404L10.3667 37.6949C10.3303 37.4868 10.2126 37.3016 10.0397 37.1802C9.86673 37.0588 9.65262 37.011 9.44446 37.0475L4.64389 37.8872C4.43574 37.9236 4.25059 38.0413 4.12917 38.2142C4.00775 38.3872 3.96 38.6013 3.99643 38.8095L5.8392 49.344C5.85716 49.4472 5.89527 49.5457 5.95136 49.6341C6.00745 49.7225 6.08041 49.7989 6.16608 49.859C6.25174 49.9192 6.34842 49.9618 6.45059 49.9846C6.55276 50.0073 6.6584 50.0097 6.76148 49.9915L11.5621 49.1518C11.7702 49.1153 11.9554 48.9977 12.0768 48.8247C12.1982 48.6518 12.2459 48.4377 12.2095 48.2295L12.1369 47.8143L13.1629 46.981C13.5601 46.6505 14.0703 46.4873 14.5856 46.5258L22.414 47.0981C22.4317 47.0994 22.4496 47.1 22.4674 47.1002C24.2561 47.1068 26.0001 46.5414 27.4448 45.4866C27.4752 45.4642 27.504 45.4398 27.5309 45.4134L36.8557 36.2832C37.0008 36.1411 37.0862 35.9489 37.0944 35.746C37.1026 35.543 37.033 35.3446 36.8998 35.1912C36.3469 34.5534 35.5698 34.1528 34.7295 34.0725C33.8892 33.9922 33.0503 34.2385 32.3867 34.7601ZM7.27148 48.2848L5.70333 39.32L8.93397 38.7548L10.5022 47.7196L7.27148 48.2848ZM26.4576 44.242C25.3095 45.0687 23.9317 45.516 22.5169 45.5215H22.5032L14.7023 44.9438C13.7796 44.8727 12.8653 45.1628 12.1523 45.7528L11.8224 46.0196L10.8097 40.2287C11.6396 39.4184 12.6691 38.8422 13.7938 38.5586C14.9185 38.275 16.0982 38.2942 17.213 38.6142L17.7027 38.7537C18.5847 39.0034 19.5116 39.0516 20.4148 38.8949L24.7926 38.129C25.3102 38.0391 25.8431 38.1137 26.3161 38.3424C26.7891 38.5712 27.1785 38.9424 27.4294 39.404L21.146 40.5032C20.9494 40.5374 20.7728 40.644 20.6511 40.802C20.5293 40.9601 20.4713 41.158 20.4884 41.3568C20.5055 41.5555 20.5966 41.7406 20.7436 41.8755C20.8906 42.0104 21.0828 42.0852 21.2823 42.0852C21.3287 42.0852 21.375 42.0811 21.4207 42.0732L28.6169 40.8143C28.825 40.7778 29.0102 40.6602 29.1316 40.4872C29.253 40.3143 29.3008 40.1002 29.2643 39.892C29.2241 39.6628 29.1644 39.4374 29.0859 39.2183L33.3492 36.0308C33.3548 36.0266 33.3602 36.0224 33.3657 36.0181C33.6051 35.8292 33.8913 35.7085 34.1937 35.6688C34.4962 35.6292 34.8037 35.672 35.0838 35.7928L26.4576 44.242Z" fill="#134A85"/>
<path d="M45.1609 1.65573C45.1244 1.44758 45.0068 1.26243 44.8338 1.14101C44.6609 1.01959 44.4468 0.971843 44.2386 1.00827L39.438 1.84798C39.2299 1.88444 39.0447 2.00208 38.9233 2.17504C38.8019 2.348 38.7541 2.5621 38.7906 2.77026L38.8632 3.18543L37.8372 4.01876C37.4399 4.34915 36.9298 4.51236 36.4145 4.47398L28.5861 3.90172C28.5684 3.90043 28.5505 3.89973 28.5327 3.89953C26.744 3.89348 25.0002 4.45884 23.5553 5.5132C23.5249 5.53555 23.4961 5.56002 23.4692 5.58642L14.1445 14.716C13.9994 14.8581 13.914 15.0503 13.9058 15.2532C13.8976 15.4562 13.9672 15.6546 14.1004 15.8079C14.6531 16.446 15.4303 16.8469 16.2706 16.9273C17.111 17.0078 17.9501 16.7616 18.6138 16.2399L22.7388 13.1554C23.203 13.6691 23.79 14.0565 24.4447 14.2815C25.0994 14.5065 25.8006 14.5616 26.4824 14.4418L30.8604 13.676C31.5268 13.5603 32.2107 13.5959 32.8614 13.7803L33.3511 13.9197C34.5653 14.2686 35.844 14.3306 37.0863 14.1008C38.3286 13.871 39.5006 13.3558 40.5097 12.5957L40.6337 13.3047C40.666 13.4893 40.7623 13.6566 40.9056 13.7773C41.049 13.8979 41.2303 13.9642 41.4177 13.9645C41.464 13.9644 41.5103 13.9604 41.556 13.9524L46.3566 13.1127C46.5647 13.0762 46.7499 12.9586 46.8713 12.7856C46.9927 12.6127 47.0405 12.3986 47.0041 12.1904L45.1609 1.65573ZM33.7875 12.3868L33.2978 12.2474C32.4158 11.9976 31.4889 11.9493 30.5856 12.106L26.2072 12.8718C25.6896 12.9618 25.1567 12.8871 24.6837 12.6584C24.2107 12.4297 23.8213 12.0584 23.5704 11.5968L29.8538 10.4977C29.9576 10.4803 30.0568 10.4427 30.1459 10.3868C30.2351 10.3309 30.3122 10.258 30.373 10.1721C30.4338 10.0863 30.4769 9.98927 30.5 9.88666C30.5231 9.78405 30.5257 9.67789 30.5076 9.57429C30.4894 9.47069 30.451 9.3717 30.3944 9.28304C30.3378 9.19437 30.2643 9.11778 30.178 9.05768C30.0917 8.99759 29.9943 8.95517 29.8915 8.93288C29.7887 8.91059 29.6825 8.90887 29.5791 8.92781L22.3829 10.1866C22.1748 10.223 21.9896 10.3407 21.8682 10.5136C21.7468 10.6866 21.699 10.9007 21.7355 11.1089C21.7758 11.3379 21.8356 11.5631 21.9141 11.782L17.6515 14.9695C17.6459 14.9737 17.6405 14.9779 17.635 14.9822C17.3958 15.1716 17.1099 15.2929 16.8075 15.3332C16.505 15.3736 16.1973 15.3314 15.9169 15.2113L24.543 6.75832C25.691 5.93167 27.0685 5.48425 28.4831 5.47854H28.4968L36.2976 6.05627C37.2204 6.12736 38.1347 5.83717 38.8476 5.24695L39.1775 4.98099L40.1902 10.7719C39.3604 11.5822 38.331 12.1584 37.2064 12.4421C36.0819 12.7257 34.9023 12.7067 33.7875 12.3868ZM42.0663 12.2451L40.4981 3.28026L43.7285 2.71527L45.2967 11.6801L42.0663 12.2451Z" fill="#134A85"/>
</svg>
