<svg width="51" height="51" viewBox="0 0 51 51" fill="none" xmlns="http://www.w3.org/2000/svg">
<path d="M29.9247 18.6425L32.3154 19.8378C32.5044 19.9323 32.7233 19.9479 32.9238 19.881C33.1243 19.8142 33.2901 19.6705 33.3846 19.4814C33.4792 19.2924 33.4947 19.0735 33.4279 18.873C33.3611 18.6725 33.2173 18.5067 33.0283 18.4122L32.0628 17.9296L33.0283 17.4471C33.1219 17.4003 33.2053 17.3355 33.2739 17.2565C33.3425 17.1774 33.3948 17.0856 33.4279 16.9863C33.461 16.887 33.4742 16.7822 33.4668 16.6778C33.4593 16.5734 33.4314 16.4715 33.3846 16.3779C33.3378 16.2843 33.273 16.2008 33.194 16.1322C33.1149 16.0637 33.0231 16.0114 32.9238 15.9783C32.8245 15.9452 32.7197 15.932 32.6153 15.9394C32.5109 15.9468 32.409 15.9747 32.3154 16.0215L29.9247 17.2168C29.7924 17.283 29.681 17.3848 29.6032 17.5107C29.5254 17.6366 29.4841 17.7816 29.4841 17.9296C29.4841 18.0777 29.5254 18.2227 29.6032 18.3486C29.681 18.4745 29.7924 18.5763 29.9247 18.6425Z" fill="#134A85"/>
<path d="M24.2627 17.2168L21.872 16.0215C21.683 15.927 21.4641 15.9114 21.2636 15.9783C21.0631 16.0451 20.8973 16.1888 20.8028 16.3779C20.7082 16.5669 20.6927 16.7858 20.7595 16.9863C20.8263 17.1868 20.9701 17.3526 21.1591 17.4471L22.1246 17.9296L21.1591 18.4122C21.0655 18.459 20.9821 18.5238 20.9135 18.6028C20.8449 18.6819 20.7926 18.7737 20.7595 18.873C20.7264 18.9723 20.7132 19.0771 20.7206 19.1815C20.7281 19.2859 20.756 19.3878 20.8028 19.4814C20.8496 19.575 20.9144 19.6585 20.9934 19.727C21.0725 19.7956 21.1643 19.8479 21.2636 19.881C21.4641 19.9479 21.683 19.9323 21.872 19.8378L24.2627 18.6425C24.395 18.5763 24.5064 18.4745 24.5842 18.3486C24.662 18.2227 24.7033 18.0777 24.7033 17.9296C24.7033 17.7816 24.662 17.6366 24.5842 17.5107C24.5064 17.3848 24.395 17.283 24.2627 17.2168Z" fill="#134A85"/>
<path d="M15.9379 33.4687C16.128 33.4689 16.3119 33.4007 16.4558 33.2765L22.034 28.4953C22.1162 28.428 22.1842 28.345 22.2338 28.2511C22.2835 28.1572 22.3139 28.0544 22.3233 27.9486C22.3326 27.8428 22.3207 27.7361 22.2883 27.635C22.2558 27.5339 22.2035 27.4402 22.1343 27.3596C22.0652 27.279 21.9806 27.213 21.8856 27.1655C21.7905 27.1181 21.687 27.0901 21.581 27.0832C21.475 27.0763 21.3687 27.0907 21.2683 27.1256C21.168 27.1604 21.0756 27.2149 20.9966 27.2859L15.4185 32.0672C15.2949 32.1732 15.2068 32.3146 15.166 32.4722C15.1253 32.6298 15.1337 32.7961 15.1903 32.9488C15.2469 33.1014 15.3488 33.2331 15.4825 33.3261C15.6162 33.419 15.7751 33.4688 15.9379 33.4687Z" fill="#134A85"/>
<path d="M41.1967 32.587L39.5313 32.1706C40.8178 30.3894 41.3816 28.1868 41.1091 26.0065L39.5294 13.3681C39.1506 10.3372 37.6779 7.54908 35.388 5.52763C33.0982 3.50618 30.1489 2.39062 27.0945 2.39062C24.0401 2.39062 21.0908 3.50618 18.801 5.52763C16.5112 7.54908 15.0385 10.3372 14.6597 13.3681L13.08 26.0065C12.9824 26.7996 12.9937 27.6023 13.1136 28.3924L7.47473 32.843C7.31753 32.9672 7.21283 33.146 7.18146 33.3438C7.1501 33.5417 7.19438 33.7441 7.30548 33.9108L8.46772 35.654C8.63421 35.9024 8.82077 36.1367 9.02553 36.3547C8.85456 36.886 8.7669 37.4405 8.76567 37.9986V47.0156C8.76567 47.2269 8.84963 47.4296 8.99907 47.5791C9.14851 47.7285 9.3512 47.8125 9.56255 47.8125H44.625C44.8364 47.8125 45.0391 47.7285 45.1885 47.5791C45.338 47.4296 45.4219 47.2269 45.4219 47.0156V37.9986C45.4233 36.7543 45.008 35.5453 44.2422 34.5645C43.4764 33.5836 42.4043 32.8875 41.1967 32.587ZM14.6608 26.2041L16.2405 13.5656C16.5713 10.9204 17.8568 8.48701 19.8554 6.7228C21.854 4.95859 24.4281 3.98501 27.094 3.98501C29.7598 3.98501 32.3339 4.95859 34.3325 6.7228C36.3311 8.48701 37.6166 10.9204 37.9474 13.5656L39.5271 26.2041C39.6503 27.1948 39.5638 28.2003 39.273 29.1554C38.9823 30.1105 38.4939 30.9937 37.8396 31.7477L32.6719 30.4565V28.4777C33.9052 27.5944 34.91 26.4297 35.6029 25.0803C36.2959 23.7309 36.657 22.2356 36.6563 20.7187V15.1406C36.6556 14.5068 36.4035 13.8991 35.9553 13.4509C35.5072 13.0027 34.8995 12.7506 34.2657 12.75H30.9268C30.0931 12.7511 29.2695 12.5684 28.5145 12.2149C27.7596 11.8614 27.0918 11.3458 26.5588 10.7049C25.8678 9.87362 24.9058 9.31266 23.8421 9.12064C22.7783 8.92863 21.6809 9.11786 20.7429 9.65505C19.7681 10.2138 18.9579 11.0197 18.3941 11.9916C17.8302 12.9634 17.5326 14.0668 17.5313 15.1904V20.7187C17.5351 21.958 17.7834 23.1843 18.2618 24.3275L14.6104 27.2101C14.6036 26.8741 14.6206 26.5378 14.6608 26.2041ZM30.2813 35.044V33.4687C30.2811 32.8156 30.1202 32.1725 29.813 31.5962C29.5057 31.0198 29.0614 30.5279 28.5192 30.1637C29.4038 30.0311 30.2653 29.7744 31.0782 29.4011V32.6718C31.0769 33.5281 30.7972 34.3607 30.2813 35.044ZM23.9063 36.6562V33.4687C23.9063 32.8347 24.1582 32.2266 24.6065 31.7783C25.0548 31.3299 25.6629 31.0781 26.2969 31.0781C26.931 31.0781 27.539 31.3299 27.9873 31.7783C28.4357 32.2266 28.6875 32.8347 28.6875 33.4687V36.6562C28.6875 37.2902 28.4357 37.8983 27.9873 38.3466C27.539 38.795 26.931 39.0468 26.2969 39.0468C25.6629 39.0468 25.0548 38.795 24.6065 38.3466C24.1582 37.8983 23.9063 37.2902 23.9063 36.6562ZM28.3658 23.0642C27.9897 22.5045 27.5019 22.0285 26.9332 21.6662C26.3644 21.3038 25.7269 21.0629 25.0606 20.9586C24.3943 20.8542 23.7137 20.8887 23.0614 21.0598C22.409 21.2309 21.7991 21.535 21.2698 21.9529L19.5645 23.2991C19.2743 22.4698 19.1257 21.5974 19.125 20.7187V15.1904C19.126 14.3476 19.3492 13.5201 19.7721 12.7911C20.1951 12.0622 20.8028 11.4577 21.5339 11.0387C22.147 10.6875 22.8643 10.5638 23.5595 10.6893C24.2548 10.8149 24.8835 11.1817 25.335 11.7251C26.0175 12.5456 26.8724 13.2057 27.8389 13.6583C28.8055 14.1109 29.8599 14.3449 30.9272 14.3437H34.2657C34.477 14.3439 34.6795 14.4279 34.8289 14.5773C34.9783 14.7267 35.0624 14.9293 35.0625 15.1406V20.7187C35.0612 22.5614 34.42 24.3464 33.2485 25.7687C32.077 27.1911 30.448 28.1625 28.6397 28.517L29.0302 27.0672C29.2122 26.3913 29.247 25.6842 29.1324 24.9936C29.0178 24.3031 28.7564 23.6451 28.3658 23.0642ZM22.2573 23.2042C22.6142 22.9222 23.0255 22.7169 23.4655 22.6014C23.9054 22.4859 24.3645 22.4626 24.8139 22.5329C25.2633 22.6033 25.6933 22.7659 26.0769 23.0104C26.4605 23.2549 26.7894 23.576 27.0429 23.9537C27.3063 24.3454 27.4826 24.7892 27.5597 25.2549C27.6369 25.7206 27.6133 26.1975 27.4903 26.6533L26.7169 29.5268C26.5778 29.505 26.4376 29.4909 26.2969 29.4843C25.2406 29.4856 24.2279 29.9058 23.4809 30.6527C22.734 31.3996 22.3138 32.4124 22.3125 33.4687V36.6562C22.3142 37.2785 22.4621 37.8918 22.7444 38.4464C23.0266 39.0011 23.4354 39.4816 23.9375 39.8492L23.5208 41.3978L20.2247 37.6905C19.4979 36.879 18.5436 36.305 17.4862 36.0431C16.4287 35.7812 15.3168 35.8435 14.2953 36.222C13.4916 36.5266 12.6082 36.5488 11.7902 36.2849C10.9722 36.021 10.2683 35.4867 9.7942 34.7698L9.03972 33.6383L22.2573 23.2042ZM10.3594 37.9986C10.365 37.8056 10.3857 37.6133 10.4213 37.4234C11.0969 37.7851 11.842 37.9981 12.6067 38.0483C13.3714 38.0985 14.138 37.9847 14.8552 37.7145C15.5749 37.4478 16.3583 37.4038 17.1035 37.5882C17.8486 37.7727 18.521 38.1771 19.0332 38.7488L23.3106 43.5604C23.3853 43.6446 23.4771 43.712 23.5797 43.7582C23.6824 43.8043 23.7937 43.8281 23.9063 43.8281C23.968 43.828 24.0295 43.821 24.0896 43.807C24.2295 43.7739 24.3579 43.7035 24.4611 43.6034C24.5643 43.5033 24.6386 43.3771 24.676 43.2382L25.2843 40.9788L28.1422 46.2187H16.7344V42.2343C16.7344 42.023 16.6505 41.8203 16.501 41.6708C16.3516 41.5214 16.1489 41.4375 15.9375 41.4375C15.7262 41.4375 15.5235 41.5214 15.3741 41.6708C15.2246 41.8203 15.1407 42.023 15.1407 42.2343V46.2187H10.3594V37.9986ZM29.9576 46.2187L26.8826 40.5814C27.6715 40.464 28.4068 40.1122 28.9933 39.5717C29.5797 39.0313 29.9902 38.327 30.1715 37.5504C33.232 41.6014 35.5168 44.6403 36.6898 46.2187H29.9576ZM43.8282 46.2187H39.0469V42.2343C39.0469 42.023 38.963 41.8203 38.8135 41.6708C38.6641 41.5214 38.4614 41.4375 38.25 41.4375C38.0387 41.4375 37.836 41.5214 37.6866 41.6708C37.5371 41.8203 37.4532 42.023 37.4532 42.2343V44.5778C36.9334 43.8765 32.4437 37.9134 31.2629 36.3503C32.1671 35.338 32.6685 34.0291 32.6719 32.6718V32.0981L40.8099 34.1325C41.6725 34.3473 42.4383 34.8447 42.9853 35.5454C43.5324 36.2461 43.8291 37.1097 43.8282 37.9986V46.2187Z" fill="#134A85"/>
<path d="M9.5625 23.1094C9.5625 22.898 9.47854 22.6953 9.3291 22.5459C9.17966 22.3965 8.97697 22.3125 8.76562 22.3125H5.57812C5.36678 22.3125 5.16409 22.3965 5.01465 22.5459C4.86521 22.6953 4.78125 22.898 4.78125 23.1094C4.78125 23.3207 4.86521 23.5234 5.01465 23.6729C5.16409 23.8223 5.36678 23.9062 5.57812 23.9062H8.76562C8.97697 23.9062 9.17966 23.8223 9.3291 23.6729C9.47854 23.5234 9.5625 23.3207 9.5625 23.1094Z" fill="#134A85"/>
<path d="M10.2753 25.9404C10.2285 25.8468 10.1637 25.7633 10.0846 25.6948C10.0055 25.6262 9.91375 25.5739 9.81446 25.5408C9.71517 25.5077 9.61033 25.4945 9.50593 25.5019C9.40153 25.5093 9.29962 25.5372 9.20602 25.5841L6.01852 27.1778C5.82947 27.2723 5.68572 27.4381 5.61889 27.6386C5.55206 27.8391 5.56762 28.058 5.66216 28.2471C5.75669 28.4361 5.92245 28.5799 6.12298 28.6467C6.3235 28.7135 6.54236 28.698 6.7314 28.6034L9.9189 27.0097C10.0125 26.9629 10.096 26.8981 10.1646 26.819C10.2331 26.74 10.2855 26.6482 10.3186 26.5489C10.3517 26.4496 10.3649 26.3447 10.3574 26.2403C10.35 26.1359 10.3221 26.034 10.2753 25.9404Z" fill="#134A85"/>
</svg>
