<svg width="51" height="51" viewBox="0 0 51 51" fill="none" xmlns="http://www.w3.org/2000/svg">
<path fill-rule="evenodd" clip-rule="evenodd" d="M28.3053 4.63263L26.721 8.13368C26.521 8.57646 26.8482 9.08432 27.3337 9.08432H28.0376L25.5004 13.3232L22.9631 9.08432H23.6658C24.152 9.08432 24.4793 8.57667 24.2791 8.13368L22.695 4.63263H28.3053ZM22.6222 7.73782H21.7758C21.2537 7.73782 20.9293 8.30871 21.1977 8.757L24.9222 14.9795C25.1838 15.4156 25.8168 15.4161 26.0774 14.9795L29.8019 8.757C30.0703 8.30984 29.7466 7.73782 29.2249 7.73782H28.378L29.9622 4.23677C30.162 3.79348 29.8344 3.28613 29.3483 3.28613H21.6518C21.1655 3.28613 20.8385 3.79399 21.0385 4.23677L22.6222 7.73782ZM11.8967 6.64L10.7369 4.86621H12.9278L14.7469 7.94345H13.515C13.0014 7.94345 12.6798 8.49486 12.9243 8.94122L14.6474 12.0739L10.6212 7.68121H11.3341C11.8664 7.68121 12.1883 7.08574 11.8967 6.64ZM17.4415 17.1145C17.6732 17.3671 18.0545 17.4039 18.3302 17.2063C18.6073 17.0078 18.692 16.6335 18.5274 16.3349L14.6527 9.28985H15.927C16.4463 9.28985 16.772 8.72182 16.5063 8.27424L13.8915 3.8505C13.7706 3.64609 13.5494 3.52032 13.3122 3.52032H9.49299C8.95943 3.52032 8.63783 4.11417 8.92914 4.56164L10.089 6.33542H9.09071C8.50727 6.33542 8.20035 7.03321 8.59478 7.46314L17.4415 17.1145ZM36.2527 7.94345L38.0718 4.86621H40.2627L39.1035 6.64C38.8106 7.08686 39.1331 7.68121 39.6667 7.68121H40.3784L36.3522 12.0739L38.0759 8.94122C38.3215 8.49435 37.9959 7.94345 37.4859 7.94345H36.2527ZM32.6699 17.2063C32.9457 17.404 33.3267 17.3668 33.5581 17.1145L42.4054 7.46303C42.7977 7.03463 42.4969 6.33532 41.9089 6.33532H40.9111L42.0704 4.56154C42.3623 4.11499 42.04 3.52022 41.5065 3.52022H37.6879C37.4502 3.52022 37.2302 3.64599 37.1092 3.8504L34.4933 8.27414C34.2294 8.7208 34.5511 9.28975 35.0727 9.28975H36.3469L32.4722 16.3348C32.3083 16.6335 32.3934 17.0079 32.6699 17.2063ZM42.9521 45.3167C42.5087 45.8709 41.7618 46.265 41.0227 46.3495C41.614 45.6641 41.9716 44.7736 41.9716 43.7997C41.9716 43.7079 41.9532 43.6167 41.9161 43.5321L37.1873 32.6153C36.8542 31.8494 36.7052 31.1348 36.7052 30.2992V29.485H38.0576C39.8331 29.485 40.456 31.3852 40.642 32.2017L43.3127 43.9494C43.4468 44.5376 43.1904 45.0174 42.9521 45.3167ZM8.04888 45.3167C7.8105 45.0174 7.55357 44.5377 7.68708 43.9494L10.3585 32.2017C10.5438 31.3852 11.1678 29.485 12.9422 29.485H14.2946V30.2992C14.2946 31.1348 14.1456 31.8495 13.8131 32.6153L9.08469 43.5321C9.04776 43.6167 9.0293 43.7079 9.0293 43.7997C9.0293 44.7736 9.38691 45.6641 9.97698 46.3495C9.23912 46.2649 8.49166 45.8709 8.04888 45.3167ZM15.641 30.2992C15.641 31.3285 15.4581 32.2076 15.048 33.1512L10.3781 43.9321C10.4473 45.2863 11.5708 46.3675 12.9422 46.3675C14.0312 46.3675 15.0045 45.6743 15.3663 44.6425C15.3692 44.6365 15.371 44.6306 15.374 44.6252L19.6385 32.4663C19.8686 31.8119 19.9664 31.2367 19.9664 30.5435V27.9901C19.9664 27.071 20.1135 26.279 20.4432 25.4213L21.4433 22.8203C21.5612 22.5152 21.3408 22.1933 21.013 22.1933H18.1246C17.9345 22.1933 17.7855 22.2886 17.7056 22.4614L16.1762 25.7759C15.8061 26.5769 15.641 27.3279 15.641 28.21V30.2992ZM31.3736 20.8474H29.9872C28.7172 20.8474 27.8445 22.1178 28.3005 23.3036L29.3006 25.9047C29.5723 26.6104 29.688 27.2339 29.688 27.9902V30.5436C29.688 32.0049 30.083 32.8899 30.5462 34.2092C27.5404 36.38 23.4592 36.3806 20.4537 34.2092C20.9155 32.8925 21.3125 32.0011 21.3125 30.5436V27.9902C21.3125 27.2339 21.4282 26.6105 21.6993 25.9047L22.7001 23.3036C23.1549 22.1192 22.2822 20.8474 21.0127 20.8474H19.6263C22.9246 17.78 28.0753 17.7795 31.3736 20.8474ZM19.992 35.5246C23.3367 37.7315 27.6631 37.7331 31.0077 35.5246L34.3626 45.0884C34.5719 45.6149 34.7387 45.9438 35.1083 46.3675H15.8914C16.1908 46.0246 16.4914 45.5385 16.6376 45.0884L19.992 35.5246ZM34.8246 25.7759L33.2946 22.4614C33.2147 22.2885 33.0663 22.1933 32.8762 22.1933H29.9872C29.6603 22.1933 29.4394 22.5162 29.5569 22.8209L30.557 25.4213C30.8872 26.279 31.0345 27.071 31.0345 27.9901V30.5435C31.0345 31.2367 31.1322 31.8119 31.3611 32.4663L35.6268 44.6264C35.6298 44.6318 35.6316 44.6371 35.6333 44.6425C35.9951 45.6743 36.9697 46.3675 38.0574 46.3675C39.4289 46.3675 40.5523 45.2863 40.6215 43.9321L35.9522 33.1524C35.5415 32.2083 35.3586 31.3286 35.3586 30.2993V28.2101C35.3587 27.328 35.1947 26.5776 34.8246 25.7759ZM44.6257 43.6507C44.8223 44.5173 44.6012 45.4066 44.004 46.1563C43.2488 47.1022 41.9626 47.7138 40.7289 47.7138H10.2715C9.03705 47.7138 7.75206 47.1023 6.99634 46.1563C6.39852 45.4071 6.17799 44.5173 6.37404 43.6507L9.04542 31.903C9.58122 29.5458 11.0385 28.1385 12.9422 28.1385H14.2958C14.3047 27.0829 14.5085 26.1771 14.9538 25.2121L16.4825 21.8976C16.7287 21.3653 17.1965 20.9994 17.7514 20.8855C19.6593 18.5407 22.4666 17.2015 25.5004 17.2015C28.5329 17.2015 31.3414 18.5407 33.2487 20.8855C33.8036 20.9994 34.2721 21.3653 34.5171 21.8976L36.0471 25.2121C36.4923 26.1771 36.6961 27.0829 36.7039 28.1385H38.0575C39.9623 28.1385 41.4191 29.5457 41.9549 31.903L44.6257 43.6507Z" fill="#134A85"/>
</svg>
