<svg width="51" height="51" viewBox="0 0 51 51" fill="none" xmlns="http://www.w3.org/2000/svg">
<path d="M19.3123 21.0504C19.883 21.0504 20.4309 21.1101 20.9269 21.2137C18.9845 14.2759 24.3097 12.6981 27.2322 17.0521C28.1556 18.4267 28.6467 20.2007 28.7941 22.1829C28.9525 24.3235 28.7154 26.7231 28.2014 29.1317C28.1536 29.4136 27.9305 29.6457 27.6336 29.6965C25.3665 30.0859 24.5527 29.8887 23.4381 29.6178C23.0855 29.5331 22.701 29.4395 22.2129 29.3578C21.8882 29.304 21.7099 29.7811 22.2976 30.081C22.9699 30.4256 23.704 30.6149 24.4322 30.6826C25.248 30.7593 26.0558 30.6886 26.764 30.5103C27.3517 30.3409 27.792 30.8659 27.6506 31.3599C27.4045 32.2435 26.775 34.2177 26.4254 35.0196C26.27 35.3692 25.8576 35.5306 25.505 35.3752C23.5845 34.5255 22.193 35.6431 20.0723 35.6431C19.6519 35.6431 19.646 36.4081 20.0723 36.4081C21.7377 36.4081 23.2966 35.0246 25.242 36.3175C25.5239 36.5038 25.6345 36.8763 25.488 37.1931C24.2967 39.7311 22.3225 43.0521 20.0952 44.2544C18.875 44.9098 19.4796 46.6321 20.6909 46.2615C21.9021 45.891 22.9888 45.2256 23.8674 44.341C24.723 43.4774 25.3755 42.4036 25.742 41.1904C25.9313 40.4812 26.8627 40.4901 27.0778 41.1227C27.9225 43.579 29.6188 45.6399 31.861 46.9418C33.1908 47.7158 33.7247 46.3292 33.0135 45.8491C31.5851 44.8859 30.5372 43.6408 29.8768 42.1188C29.2274 40.6246 28.9594 38.8805 29.069 36.8813C29.0889 36.3593 29.6169 36.0625 30.0571 36.2657C31.9099 37.1213 33.0872 35.0455 35.2298 36.2936C35.3793 36.3813 35.4948 36.438 35.5775 36.4719C35.5496 36.1671 35.3653 35.7746 35.0665 35.4559C34.2845 34.6202 31.4895 35.433 30.0233 35.433C29.5969 35.433 29.2612 35.0405 29.3369 34.6172C29.4356 34.0464 29.5631 33.4537 29.7185 32.8382C29.8629 32.2594 30.0402 31.6438 30.2464 30.9914C30.342 30.6268 30.7126 30.4067 31.0791 30.4943C32.7615 30.9037 34.3852 30.0909 36.2608 30.2881C36.5347 30.319 36.5656 30.1098 36.5178 29.9495C36.4809 29.8309 36.3734 29.7234 36.1851 29.7014C34.5674 29.5062 33.3901 30.2324 31.4865 29.6815C31.097 29.569 30.8819 29.1446 31.0263 28.7611C31.4636 27.6176 31.9726 26.4402 32.5175 25.2708C34.1919 21.6879 34.7766 17.8141 33.2257 14.5548C32.0394 12.0616 29.7981 10.3902 27.2033 9.78854C26.8816 9.71483 26.6445 9.416 26.6644 9.07434C26.7381 7.68479 27.037 6.31018 27.545 5.01725C27.3697 4.85389 27.0987 4.90669 27.042 4.96645C26.7112 5.5651 26.4602 6.1777 26.2939 6.80424C26.1216 7.45071 26.0399 8.11112 26.0429 8.78647C26.0538 8.99565 26.006 9.18192 25.8427 9.34528C25.7102 9.47477 25.5289 9.55446 25.3317 9.54848C23.8495 9.50565 22.449 9.7995 21.0793 10.4151L20.7008 10.5984C20.2884 10.8185 19.7695 10.5755 19.6868 10.1013C19.388 8.34819 19.8621 7.05227 21.5923 6.63989C21.6491 6.15678 21.5694 5.66571 21.3722 5.22544L18.8451 6.93971C18.3421 7.31225 17.7524 6.96262 17.7125 6.45362C17.6727 5.95358 17.5402 5.50534 17.3111 5.1069C17.085 4.71145 16.7633 4.35585 16.3479 4.04506C16.32 4.02813 16.2941 4.00821 16.2692 3.9853C15.7273 3.51415 15.047 3.8329 14.9304 4.14866C14.9045 4.21938 14.9304 4.31202 15.038 4.41362C16.1048 5.43262 16.9605 6.51737 17.605 7.66387C18.2435 8.8044 18.6748 10.0077 18.8949 11.2747C18.9088 11.3285 18.9148 11.3823 18.9148 11.4381H18.9118C18.9118 11.6333 18.8331 11.8246 18.6748 11.96C15.8369 14.4443 14.6874 18.3729 15.8259 21.9867C16.6895 21.3462 18.0472 21.0504 19.3123 21.0504ZM22.5904 21.8463C24.1324 22.8204 23.963 24.455 22.175 25.2967C20.5653 26.0567 18.0582 26.0567 16.4515 25.2967C15.6576 24.9242 15.1327 24.3823 15.0141 23.7378C13.9752 21.4956 13.763 19.118 14.2352 16.9076C14.6954 14.7421 15.816 12.74 17.4625 11.19C16.9934 8.95381 15.7801 7.05028 14.0768 5.42167C13.0269 4.4196 13.5827 3.03901 14.7601 2.53897C15.4773 2.23417 16.4037 2.26206 17.1746 2.92844C17.7504 3.35776 18.1996 3.85481 18.5184 4.41661C18.6678 4.67659 18.7893 4.95051 18.8829 5.2354L21.1929 3.66854C21.4977 3.46235 21.9041 3.53008 22.1272 3.81297H22.1302C22.9351 4.83497 23.2 6.17073 22.8534 7.42381C22.7717 7.71169 22.5227 7.90692 22.2438 7.93182C21.673 8.00852 21.3204 8.17188 21.154 8.43485C21.0694 8.56434 21.0186 8.73368 20.9986 8.93788C22.1701 8.4717 23.4182 8.20973 24.6722 8.16391C24.7599 6.74348 25.1802 5.41668 25.9034 4.15961C26.0668 3.87473 26.519 3.64563 26.8178 3.56993C27.7322 3.33883 28.6726 3.85182 28.9724 4.74731C29.0321 4.92262 29.0172 5.1059 28.9445 5.26129C28.5122 6.23547 28.2074 7.51745 28.0948 8.58725C30.845 9.38911 33.1998 11.2638 34.4848 13.9632C36.216 17.6029 35.6422 21.8662 33.7765 25.8615L32.636 28.4822C33.8393 28.5808 34.8414 28.1346 36.3495 28.3189C37.739 28.4882 38.258 29.9256 37.7131 30.8968C37.4282 31.4048 36.8883 31.7584 36.1154 31.6737C34.6441 31.5183 33.151 32.1787 31.4028 31.9646L30.8829 33.9777C31.103 33.9518 31.3371 33.9179 31.5742 33.887C33.2118 33.6579 35.0525 33.4039 36.0865 34.5086C36.7588 35.2288 37.2499 36.4709 36.8007 37.2817C36.3604 38.0806 35.4201 38.0158 34.5336 37.5019C33.3562 36.8156 32.2406 38.1593 30.4396 37.8405C30.4595 40.7182 31.4138 43.0919 33.7945 44.6966C35.9689 46.1619 34.0574 49.8275 31.1658 48.1471C29.1417 46.9727 27.5011 45.2355 26.4363 43.1607C25.3267 45.2863 23.4062 46.8881 21.0973 47.5933C18.2933 48.4459 16.7433 44.4845 19.4368 43.0302C21.2019 42.0759 22.9211 39.249 23.9262 37.2339C22.8364 36.963 21.6112 37.8047 20.0753 37.8047C17.8052 37.8047 17.8161 34.2496 20.0753 34.2496C21.8742 34.2496 23.3086 33.2356 25.3835 33.8482L25.9961 32.0552C24.5477 32.2106 22.9918 31.9984 21.667 31.3241C19.634 30.2852 20.5823 27.6784 22.438 27.9862C24.2509 28.285 24.6404 28.7342 26.9334 28.3986C27.5938 25.0666 27.9076 20.5464 26.0807 17.827C25.3526 16.7403 24.485 16.1446 23.717 16.037C23.0137 15.9354 22.4828 16.2661 22.181 16.9236C21.7348 17.8848 21.7487 19.5164 22.5904 21.8463ZM21.5824 22.8802C20.3572 22.3015 18.2703 22.3015 17.0452 22.8802C16.1696 23.2926 16.1696 23.6253 17.0452 24.0407C18.2703 24.6164 20.3572 24.6164 21.5824 24.0407C22.4579 23.6253 22.4579 23.2916 21.5824 22.8802Z" fill="#134A85"/>
</svg>
