<svg width="51" height="51" viewBox="0 0 51 51" fill="none" xmlns="http://www.w3.org/2000/svg">
<g clip-path="url(#clip0_1_182)">
<path d="M47.3737 1.73848C45.1519 0.0903479 42.2423 -0.413277 39.591 0.391367C34.4296 1.95603 28.974 1.95404 23.8138 0.38559C21.1334 -0.429015 18.3053 0.0602661 16.0544 1.72852C13.8037 3.39778 12.5122 5.96212 12.5111 8.76423L12.5101 22.0027C12.1 21.9569 11.6833 21.9325 11.261 21.9325C5.1013 21.9325 0.0900536 26.9438 0.0900536 33.1036C0.0900536 39.2633 5.1013 44.2746 11.261 44.2746C12.296 44.2746 13.3226 44.1327 14.3121 43.8529C14.7091 43.7407 14.94 43.3279 14.8278 42.9308C14.7155 42.5338 14.303 42.3029 13.9056 42.4153C13.0483 42.6576 12.1585 42.7805 11.261 42.7805C5.92517 42.7805 1.58409 38.4395 1.58409 33.1036C1.58409 29.7166 3.33353 26.731 5.97587 25.0015C5.99958 26.9392 7.066 28.7009 8.74481 29.627V31.0702C7.93091 31.8014 7.45487 32.8539 7.45487 33.9562V36.2454C7.45487 38.3836 9.19445 40.1232 11.3327 40.1232C12.3672 40.1232 13.3407 39.7201 14.0746 38.9875C14.8064 38.2545 15.2094 37.2807 15.2094 36.2455V33.9563C15.2094 32.8521 14.7326 31.7989 13.9174 31.0678V29.6273C15.5702 28.7165 16.6302 26.9958 16.6859 25.0943C19.2501 26.8367 20.9379 29.7766 20.9379 33.1037C20.9379 36.4399 19.2532 39.4987 16.4314 41.2859C16.0828 41.5066 15.9792 41.9682 16.2 42.3168C16.4206 42.6653 16.8823 42.7689 17.2307 42.5481C20.4876 40.4854 22.432 36.9548 22.432 33.1037C22.432 30.9648 21.8273 28.9647 20.7806 27.2645C21.7286 26.6493 22.4507 25.7548 22.8558 24.7187C23.9385 26.2174 25.6993 27.196 27.6833 27.196H27.7999C26.8212 28.8783 26.2599 30.8319 26.2599 32.9144V38.6648C26.2599 39.8925 27.0847 40.9312 28.2093 41.2559V50.2529C28.2093 50.6655 28.5437 51 28.9564 51C29.369 51 29.7034 50.6655 29.7034 50.2529V40.6138C29.7034 40.2012 29.369 39.8668 28.9564 39.8668C28.2935 39.8668 27.7541 39.3275 27.7541 38.6645V32.9141C27.7541 27.4476 32.2015 23.0001 37.6681 23.0001H39.4322C40.6773 23.0001 41.6903 21.9871 41.6903 20.742V10.36C41.6903 10.129 41.5835 9.91104 41.401 9.76959C41.2184 9.62805 40.9806 9.57894 40.757 9.63651C39.841 9.87229 38.9096 10.074 37.9889 10.2358C37.5826 10.3072 37.3111 10.6945 37.3825 11.1009C37.4539 11.5072 37.8406 11.7787 38.2476 11.7073C38.8949 11.5935 39.5472 11.4609 40.1961 11.3111V12.7495C38.8921 13.0791 37.9241 14.262 37.9241 15.667V18.2747C37.9241 18.6802 37.7665 19.0612 37.4811 19.3465C37.194 19.633 36.8128 19.7908 36.408 19.7908C35.5726 19.7908 34.893 19.1107 34.893 18.2747V16.5893C34.893 15.7848 34.58 15.0287 34.0117 14.4604C33.4435 13.8921 32.6873 13.5792 31.8828 13.5792C30.2235 13.5792 28.8736 14.9296 28.8736 16.5894V18.2748C28.8736 18.6803 28.716 19.0613 28.4306 19.3466C28.1434 19.6331 27.7623 19.7909 27.3576 19.7909C26.5222 19.7909 25.8426 19.1108 25.8426 18.2748V15.6671C25.8426 14.8631 25.5296 14.1074 24.9613 13.5391C24.4866 13.0644 23.8805 12.7686 23.2247 12.6839L23.2248 11.3111C26.0109 11.9539 28.8609 12.2793 31.7104 12.2793C32.879 12.2793 34.0624 12.224 35.2276 12.1147C35.6384 12.0761 35.9401 11.712 35.9016 11.3012C35.8631 10.8904 35.4997 10.5888 35.0881 10.6271C33.9692 10.732 32.8327 10.7852 31.7104 10.7852C28.6675 10.7852 25.6237 10.3987 22.664 9.63641C22.4402 9.57874 22.2025 9.62795 22.0201 9.76939C21.8375 9.91094 21.7307 10.1289 21.7307 10.3599L21.7301 17.6183H21.7297V21.2546C21.7297 21.256 21.7298 21.2575 21.7298 21.259L21.7297 22.7696C21.729 24.1138 21.0316 25.3464 19.9135 26.046C18.42 24.2182 16.3601 22.8706 14.0041 22.2736L14.0051 8.76443C14.006 6.44035 15.0773 4.31319 16.9441 2.92862C18.8105 1.54524 21.1558 1.13933 23.379 1.81498C28.8233 3.4698 34.579 3.47189 40.0243 1.82106C42.2253 1.15308 44.6397 1.57084 46.4834 2.93838C48.3469 4.32066 49.4156 6.44443 49.4156 8.76513V20.742C49.4156 26.247 44.937 30.7257 39.432 30.7257H37.6679C36.4612 30.7257 35.4796 31.7075 35.4796 32.9141V38.6645C35.4796 39.3274 34.9402 39.8668 34.2773 39.8668H34.1986C33.7859 39.8668 33.4515 40.2012 33.4515 40.6138V50.2529C33.4515 50.6655 33.7859 51 34.1986 51C34.6113 51 34.9457 50.6655 34.9457 50.2529V41.2771C36.1103 40.9791 36.9737 39.9207 36.9737 38.6646V32.9142C36.9737 32.5314 37.2852 32.22 37.668 32.22H39.4321C45.761 32.22 50.9099 27.071 50.9099 20.7422V8.76523C50.91 5.9666 49.6211 3.40555 47.3737 1.73848ZM23.905 14.5956C24.191 14.8816 24.3486 15.2622 24.3486 15.6671V18.2748C24.3486 19.9346 25.6985 21.285 27.3578 21.285C28.161 21.285 28.9168 20.9724 29.4867 20.4039C30.055 19.8356 30.368 19.0796 30.368 18.2749V16.5895C30.368 15.7536 31.0477 15.0735 31.8831 15.0735C32.2886 15.0735 32.6695 15.2311 32.9555 15.5171C33.2415 15.8031 33.399 16.184 33.399 16.5895V18.2749C33.399 19.9347 34.7489 21.2851 36.4082 21.2851C37.2114 21.2851 37.9673 20.9725 38.5372 20.404C39.1056 19.8357 39.4185 19.0797 39.4185 18.275V15.6673C39.4185 15.1008 39.7316 14.6066 40.1964 14.3467V20.7423C40.1964 21.1635 39.8537 21.5063 39.4324 21.5063H37.6683C34.1115 21.5063 30.9301 23.1426 28.8363 25.7018H27.6834C25.2313 25.7018 23.2319 23.7082 23.2241 21.2582L23.2247 14.2047C23.4797 14.2721 23.7138 14.4044 23.905 14.5956ZM15.1945 24.9366C15.1945 26.4735 14.2829 27.8635 12.8721 28.478C12.5996 28.5968 12.4234 28.8657 12.4234 29.1629V31.4231C12.4234 31.6622 12.5378 31.887 12.7314 32.0275C13.3475 32.4752 13.7153 33.1961 13.7153 33.9561V36.2453C13.7153 36.8819 13.4674 37.4808 13.0182 37.9309C12.5672 38.381 11.9687 38.6289 11.3327 38.6289C10.0183 38.6289 8.94901 37.5596 8.94901 36.2453V33.9561C8.94901 33.1975 9.31637 32.4771 9.93176 32.029C10.1248 31.8883 10.239 31.6639 10.239 31.4251V29.1629C10.239 28.8658 10.0628 28.597 9.79061 28.4782C8.38024 27.863 7.46892 26.4725 7.46892 24.9356V24.2009C8.63405 23.7027 9.91582 23.4265 11.261 23.4265C12.6609 23.4265 13.992 23.7258 15.1945 24.2629V24.9366Z" fill="#134A85"/>
<path d="M6.45237 34.8669C6.45237 34.4544 6.11788 34.1199 5.7053 34.1199H3.98296C3.57037 34.1199 3.23589 34.4544 3.23589 34.8669C3.23589 35.2795 3.57037 35.614 3.98296 35.614H5.7054C6.11788 35.6139 6.45237 35.2795 6.45237 34.8669Z" fill="#134A85"/>
<path d="M6.58485 31.9279L5.17159 31.0888C4.81678 30.8781 4.35848 30.9951 4.1478 31.3498C3.93713 31.7045 4.05397 32.1629 4.40878 32.3736L5.82204 33.2127C5.94167 33.2837 6.07295 33.3175 6.20275 33.3175C6.45775 33.3175 6.70627 33.1869 6.84582 32.9517C7.0564 32.5969 6.93956 32.1386 6.58485 31.9279Z" fill="#134A85"/>
<path d="M4.79089 38.6649C4.92058 38.6649 5.05196 38.6311 5.1716 38.5601L6.58485 37.721C6.93956 37.5103 7.0564 37.052 6.84583 36.6972C6.63526 36.3425 6.17705 36.2256 5.82204 36.4362L4.40879 37.2753C4.05408 37.486 3.93724 37.9443 4.14781 38.2991C4.28746 38.5342 4.53579 38.6649 4.79089 38.6649Z" fill="#134A85"/>
<path d="M16.211 34.8669C16.211 35.2795 16.5455 35.614 16.9581 35.614H18.6805C19.0931 35.614 19.4276 35.2795 19.4276 34.8669C19.4276 34.4544 19.0931 34.1199 18.6805 34.1199H16.9581C16.5455 34.1199 16.211 34.4544 16.211 34.8669Z" fill="#134A85"/>
<path d="M17.4918 31.0889L16.0785 31.928C15.7238 32.1387 15.607 32.597 15.8175 32.9518C15.9572 33.187 16.2056 33.3175 16.4606 33.3175C16.5903 33.3175 16.7217 33.2838 16.8413 33.2128L18.2546 32.3736C18.6093 32.163 18.7261 31.7047 18.5156 31.3499C18.305 30.9951 17.8467 30.8781 17.4918 31.0889Z" fill="#134A85"/>
<path d="M17.8725 38.6649C18.1275 38.6649 18.376 38.5342 18.5156 38.2991C18.7262 37.9444 18.6094 37.486 18.2546 37.2754L16.8413 36.4363C16.4865 36.2256 16.0281 36.3424 15.8175 36.6972C15.6069 37.0519 15.7237 37.5103 16.0785 37.721L17.4918 38.5601C17.6115 38.631 17.7428 38.6649 17.8725 38.6649Z" fill="#134A85"/>
</g>
<defs>
<clipPath id="clip0_1_182">
<rect width="51" height="51" fill="white"/>
</clipPath>
</defs>
</svg>
