<svg width="51" height="51" viewBox="0 0 51 51" fill="none" xmlns="http://www.w3.org/2000/svg">
<path d="M19.2392 22.2021C20.826 22.2021 22.3235 22.7832 23.4889 23.8444V26.0149C23.4889 26.4274 23.8234 26.7619 24.236 26.7619C24.6486 26.7619 24.983 26.4274 24.983 26.0149V18.9575C24.983 18.545 24.6486 18.2105 24.236 18.2105C23.8234 18.2105 23.4889 18.545 23.4889 18.9575V21.9636C22.2345 21.1473 20.771 20.708 19.2392 20.708C19.0611 20.708 18.8844 20.716 18.7083 20.7278C18.3185 18.2875 16.1995 16.4165 13.6511 16.4165C13.2385 16.4165 12.904 16.751 12.904 17.1636C12.904 17.5762 13.2385 17.9106 13.6511 17.9106C15.4575 17.9106 16.9593 19.2377 17.2337 20.9682C16.1346 21.258 15.1121 21.786 14.2285 22.5271C12.2233 21.0156 9.35214 21.1714 7.5268 22.9968C7.23504 23.2886 7.23504 23.7616 7.5268 24.0533C7.81856 24.345 8.2916 24.345 8.58326 24.0533C9.82738 22.8091 11.7573 22.6598 13.1668 23.6041C12.4864 24.4411 11.9948 25.3988 11.7106 26.4247C9.11298 26.6698 7.07358 28.8624 7.07358 31.5231C7.07358 31.9356 7.40807 32.2701 7.82065 32.2701C8.23323 32.2701 8.56772 31.9356 8.56772 31.5231C8.56772 29.7796 9.80417 28.3198 11.4461 27.9735C11.4336 28.1554 11.425 28.3381 11.425 28.5222C11.425 30.6094 12.2378 32.5717 13.7137 34.0477C13.8596 34.1935 14.0508 34.2665 14.242 34.2665C14.4331 34.2665 14.6244 34.1936 14.7702 34.0477C15.062 33.7559 15.062 33.2829 14.7702 32.9912C13.5765 31.7975 12.9192 30.2104 12.9192 28.5222C12.9192 26.8341 13.5766 25.247 14.7702 24.0533C15.0769 23.7466 15.4099 23.4759 15.7635 23.2421C15.767 23.2458 15.77 23.2497 15.7736 23.2533C17.188 24.6677 17.188 26.9693 15.7736 28.3838C15.4818 28.6755 15.4818 29.1486 15.7736 29.4402C15.9194 29.5861 16.1106 29.6591 16.3018 29.6591C16.4929 29.6591 16.6842 29.5862 16.83 29.4402C18.7122 27.558 18.8197 24.5638 17.1539 22.5536C17.8156 22.323 18.518 22.2021 19.2392 22.2021Z" fill="#134A85"/>
<path d="M39.3736 27.7332C38.7489 27.7332 38.1386 27.7963 37.5488 27.916V23.4471C37.5488 23.3621 37.5463 23.2776 37.5444 23.1929H42.0513C42.0571 23.1929 42.0628 23.1933 42.0685 23.1933C43.3024 23.1933 44.3062 22.1896 44.3062 20.9557V16.9643C44.3062 15.7305 43.3025 14.7267 42.0687 14.7266V14.7262H36.8651C35.8369 14.7262 34.8338 14.8995 33.8762 15.2398C33.2941 14.7221 32.6522 14.2614 31.956 13.8686V13.0607C31.956 12.7849 32.1803 12.5605 32.4561 12.5605H37.6598C38.8937 12.5605 39.8975 11.5567 39.8975 10.3229V6.33147C39.8975 5.09761 38.8936 4.09385 37.6598 4.09385C37.6585 4.09385 37.6572 4.09395 37.656 4.09395H32.4567C27.7175 4.09395 23.8257 7.78905 23.5102 12.4492H22.7422V7.93518C22.7422 7.9313 22.7425 7.92751 22.7425 7.92373C22.7425 6.60769 21.6718 5.53699 20.3559 5.53699H18.2708V2.38863C18.2708 2.38794 18.2708 2.38734 18.2708 2.38674C18.2708 1.0707 17.2001 0 15.884 0H12.0085C10.6925 0 9.62188 1.0707 9.62188 2.38664L9.62178 5.81619C9.34586 5.70453 9.04484 5.64237 8.72938 5.64237H4.85368C3.53764 5.64237 2.46704 6.71307 2.46704 8.02911V8.02951H2.46674V23.4126C2.46674 23.4241 2.46634 23.4355 2.46634 23.4471V33.4588C2.46634 43.1311 10.3353 51 20.0076 51C24.6932 51 29.0982 49.1755 32.4112 45.8624C32.9303 45.3435 33.4183 44.7892 33.869 44.2087C35.4024 45.3656 37.3092 46.0524 39.3736 46.0524C40.3411 46.0524 41.2917 45.9027 42.1987 45.6072C42.591 45.4795 42.8055 45.0579 42.6777 44.6655C42.55 44.2732 42.1284 44.0585 41.736 44.1865C40.9786 44.4332 40.1837 44.5582 39.3735 44.5582C35.3992 44.5582 32.1224 41.5171 31.7455 37.6395H33.8206C34.1223 37.6395 34.3944 37.458 34.5104 37.1794L35.0653 35.8455L35.9634 41.9247C36.0144 42.2698 36.2975 42.5337 36.6453 42.5604C36.9939 42.5867 37.3132 42.3694 37.4162 42.0362L38.3389 39.0511L39.26 42.5049C39.3473 42.8325 39.6438 43.0595 39.9816 43.0594C39.9868 43.0594 39.9921 43.0594 39.9974 43.0593C40.3416 43.0522 40.6364 42.8106 40.7111 42.4745L42.2522 35.5429L42.7236 38.4568C42.7667 38.7233 42.9504 38.946 43.2039 39.0389C43.4574 39.1319 43.7414 39.0807 43.9467 38.9052L45.4263 37.6395H47.003C46.8039 39.7039 45.7845 41.5907 44.1365 42.8993C43.8134 43.1559 43.7595 43.6258 44.0161 43.949C44.2727 44.2721 44.7426 44.326 45.0658 44.0694C47.2697 42.3191 48.5338 39.7032 48.5338 36.8922C48.5337 31.8419 44.4245 27.7332 39.3736 27.7332ZM42.8121 16.9644V20.9558C42.8121 21.3657 42.4787 21.6991 42.0688 21.6993V21.6989H42.06C41.654 21.6942 41.3252 21.3629 41.3252 20.9559V16.9645C41.3252 16.5545 41.6586 16.221 42.0686 16.221C42.4786 16.221 42.8121 16.5544 42.8121 16.9644ZM39.9586 16.2203C39.8762 16.4532 39.8309 16.7035 39.8309 16.9643V20.9557C39.8309 21.2162 39.876 21.4661 39.9582 21.6987H37.4093C37.0989 19.7475 36.2754 17.94 35.0399 16.4453C35.6327 16.2957 36.2433 16.2202 36.865 16.2202H39.9586V16.2203ZM36.9163 10.3229V6.33147C36.9163 5.92218 37.2488 5.58918 37.6579 5.58809H37.6603H37.661C38.0704 5.58878 38.4034 5.92198 38.4034 6.33147V10.3229C38.4034 10.7329 38.0698 11.0664 37.6599 11.0664C37.25 11.0664 36.9163 10.7329 36.9163 10.3229ZM15.5873 12.4492V10.1364C15.8633 10.2483 16.1646 10.3105 16.4803 10.3105H20.3558C20.6712 10.3105 20.9722 10.2484 21.2481 10.1367V12.4492H15.5873ZM21.2483 7.92373V7.92393H21.248V7.9295C21.2448 8.41898 20.846 8.81633 20.3557 8.81633H16.4802C15.988 8.81633 15.5876 8.4159 15.5876 7.92383C15.5876 7.43176 15.988 7.03123 16.4802 7.03123H20.3557C20.848 7.03113 21.2483 7.43156 21.2483 7.92373ZM16.4803 5.53699C15.1642 5.53699 14.0935 6.60769 14.0935 7.92373V7.92393H14.0931V12.4492H13.4642C12.6584 12.4492 11.8728 12.5371 11.1158 12.7024V4.59956C11.3917 4.71132 11.693 4.77338 12.0085 4.77338H15.884C16.1995 4.77338 16.5006 4.71122 16.7765 4.59956V5.53689H16.4803V5.53699ZM12.0085 1.49414H15.884C16.3762 1.49414 16.7765 1.89457 16.7766 2.38664V2.38774C16.7761 2.87941 16.3759 3.27934 15.8841 3.27934H12.0086C11.5164 3.27934 11.1161 2.87891 11.1161 2.38684C11.1161 1.89477 11.5163 1.49414 12.0085 1.49414ZM4.85368 7.13651H8.72918C9.22035 7.13651 9.62009 7.53535 9.62158 8.02623V8.02951V8.032C9.61999 8.52288 9.22035 8.92171 8.72918 8.92171H4.85368C4.36151 8.92171 3.96118 8.52128 3.96118 8.02921C3.96118 7.53714 4.36151 7.13651 4.85368 7.13651ZM3.96088 10.2419C4.2369 10.3537 4.53811 10.4159 4.85368 10.4159H8.72918C9.04464 10.4159 9.34576 10.3538 9.62158 10.2421V13.1425C7.23125 14.0368 5.23279 15.74 3.96078 17.9174L3.96088 10.2419ZM3.96048 33.4588L3.96088 23.4127C3.9796 18.1881 8.23532 13.9434 13.4642 13.9434H23.4889V15.9814C23.4889 16.394 23.8234 16.7285 24.236 16.7285C24.6486 16.7285 24.983 16.394 24.983 15.9814V13.0609C24.983 8.94044 28.3357 5.58819 32.4567 5.58819H35.5497C35.4674 5.82097 35.4222 6.07099 35.4222 6.33157V10.323C35.4222 10.5836 35.4674 10.8337 35.5497 11.0665H32.4562C31.3565 11.0665 30.462 11.9611 30.462 13.0608V26.0155C30.462 26.4281 30.7964 26.7625 31.209 26.7625C31.6216 26.7625 31.9561 26.4281 31.9561 26.0155V15.6287C34.5113 17.3904 36.0546 20.2848 36.0546 23.4471V28.3558C32.6402 29.688 30.2145 33.012 30.2145 36.8923C30.2145 37.5568 30.2862 38.2048 30.4213 38.8294C30.3388 40.4694 29.1587 41.8362 27.5885 42.1857C27.4522 41.1157 27.0981 40.099 26.5517 39.1855C28.1666 37.1362 27.9867 34.1472 26.0608 32.3114C25.7622 32.0268 25.2893 32.0381 25.0046 32.3367C24.7199 32.6353 24.7312 33.1082 25.0299 33.3929C26.2918 34.5959 26.4953 36.4982 25.613 37.9256C25.49 37.791 25.3636 37.6587 25.2304 37.5317C23.7196 36.0916 21.7384 35.3265 19.6517 35.3759C19.2393 35.3857 18.9129 35.7282 18.9228 36.1407C18.9327 36.5532 19.2702 36.8788 19.6876 36.8696C21.3753 36.8288 22.9776 37.4484 24.1995 38.6132C25.4214 39.7779 26.1166 41.3489 26.1569 43.0365C26.1673 43.4701 26.1334 43.8979 26.0587 44.3151C26.0536 44.3151 26.0488 44.3146 26.0438 44.3147C25.0759 44.3388 24.1553 43.9825 23.4538 43.3139C22.7524 42.6454 22.3535 41.7436 22.3302 40.7749C22.3204 40.3624 21.9779 40.0361 21.5655 40.0459C21.1531 40.0557 20.8267 40.3982 20.8365 40.8106C20.8693 42.1783 21.4327 43.4514 22.4229 44.3954C23.2961 45.2277 24.4092 45.7149 25.5978 45.7964C25.3083 46.4344 24.9111 47.0264 24.4134 47.5485C23.2494 48.7695 21.6799 49.4645 19.9936 49.5059C11.1517 49.4982 3.96048 42.3026 3.96048 33.4588ZM31.3548 44.806C29.6798 46.4809 27.6994 47.739 25.5395 48.5303C26.7903 47.1962 27.5204 45.5037 27.6354 43.6979C29.1989 43.4402 30.519 42.4745 31.2653 41.1485C31.6639 41.905 32.1647 42.5994 32.7501 43.2128C32.3209 43.773 31.8534 44.3072 31.3548 44.806ZM45.1504 36.1455C44.9723 36.1455 44.8 36.2092 44.6648 36.325L43.9862 36.9055L43.1056 31.4611C43.0484 31.1074 42.7481 30.8441 42.3899 30.8337C42.0323 30.8224 41.7166 31.0685 41.6388 31.4183L39.9162 39.1665L39.1138 36.1578C39.0281 35.8361 38.7396 35.61 38.4066 35.6034C38.0716 35.5962 37.7766 35.8116 37.6783 36.1297L36.9608 38.451L36.1498 32.9619C36.1007 32.6298 35.8362 32.3713 35.5031 32.3298C35.1692 32.2878 34.85 32.4743 34.7211 32.7842L33.3225 36.1459H31.7457C32.1224 32.2686 35.3993 29.2277 39.3737 29.2277C43.3487 29.2277 46.626 32.2686 47.0028 36.1459H45.1504V36.1455Z" fill="#134A85"/>
</svg>
