<svg width="51" height="51" viewBox="0 0 51 51" fill="none" xmlns="http://www.w3.org/2000/svg">
<path d="M17.5513 46.2645C17.1387 46.2645 16.8042 46.5989 16.8042 47.0116V50.2529C16.8042 50.6656 17.1387 51 17.5513 51C17.9639 51 18.2983 50.6656 18.2983 50.2529V47.0116C18.2983 46.5989 17.9639 46.2645 17.5513 46.2645Z" fill="#134A85"/>
<path d="M21.4749 4.17861C21.8874 4.17861 22.2219 3.84422 22.2219 3.43154V0.74707C22.2219 0.334389 21.8874 0 21.4749 0C21.0623 0 20.7278 0.334389 20.7278 0.74707V3.43154C20.7278 3.84422 21.0623 4.17861 21.4749 4.17861Z" fill="#134A85"/>
<path d="M33.2861 28.0236C33.2605 27.9977 33.2337 27.9732 33.2077 27.9478C33.8934 26.9945 34.2647 25.8529 34.2647 24.6618C34.2647 23.4678 33.8925 22.3245 33.2049 21.3713C34.1854 20.4165 34.822 19.1096 34.8933 17.6671C35.0175 15.1801 33.4586 12.8898 31.1019 12.0975C30.6057 11.9309 30.2724 11.4538 30.2724 10.9102V0.74707C30.2724 0.334389 29.938 0 29.5254 0C29.1128 0 28.7783 0.334389 28.7783 0.74707V10.9102C28.7783 12.0965 29.521 13.1428 30.6261 13.5139C32.3509 14.0937 33.492 15.771 33.4011 17.5929C33.2979 19.6785 31.5821 21.3787 29.495 21.4633C28.1749 21.5204 26.9029 20.9248 26.0932 19.8787C25.9443 19.6773 24.6365 17.971 22.7532 17.528C22.3515 17.4333 21.9494 17.6826 21.8549 18.0841C21.7604 18.4857 22.0093 18.8879 22.411 18.9825C23.3142 19.1949 24.075 19.8635 24.5082 20.3204C23.7108 21.088 22.6272 21.5093 21.5051 21.4633C19.418 21.3786 17.7023 19.6785 17.5991 17.5926C17.5082 15.771 18.6493 14.0937 20.3739 13.514C21.4792 13.1428 22.2219 12.0966 22.2219 10.9102V6.91787C22.2219 6.50519 21.8874 6.1708 21.4748 6.1708C21.0623 6.1708 20.7278 6.50519 20.7278 6.91787V10.9102C20.7278 11.4538 20.3945 11.9309 19.898 12.0976C17.5417 12.8898 15.9827 15.1801 16.1068 17.6668C16.1781 19.1095 16.8147 20.4164 17.7952 21.3713C17.1077 22.3245 16.7354 23.4678 16.7354 24.6618C16.7354 25.8493 17.1043 26.9878 17.7859 27.9392C16.8083 28.8892 16.1827 30.1932 16.1069 31.6408C16.0672 32.4014 16.1785 33.1428 16.4273 33.8335C15.8507 34.4797 15.5174 35.3086 15.4975 36.1785C15.4733 37.1579 15.8326 38.087 16.5079 38.7938C16.699 38.9947 16.8042 39.2724 16.8042 39.5758V43.5253C16.8042 43.938 17.1386 44.2724 17.5512 44.2724C17.9638 44.2724 18.2983 43.938 18.2983 43.5253V39.5758C18.2983 38.8874 18.047 38.2439 17.5893 37.7628C17.1893 37.3443 16.9769 36.7947 16.9912 36.2141C16.9986 35.892 17.0795 35.5795 17.2227 35.2965C17.349 35.4632 17.4845 35.6246 17.6308 35.7788C18.5296 36.7257 19.6949 37.3115 20.9663 37.4711C20.9026 37.5662 20.832 37.6572 20.753 37.7422C20.2827 38.248 20.0238 38.8929 20.0238 39.558V50.2529C20.0238 50.6656 20.3583 51 20.7709 51C21.1835 51 21.518 50.6656 21.518 50.2529V39.5579C21.518 39.2715 21.6349 38.9879 21.8475 38.7592C22.1249 38.4606 22.3465 38.1204 22.5092 37.7539C22.5997 37.8099 22.6855 37.8747 22.7646 37.9491C23.0599 38.2262 23.2363 38.6023 23.2611 39.0076L23.9495 50.2984C23.9736 50.6947 24.3027 51 24.6945 51C24.7099 51 24.7253 50.9995 24.7407 50.9986C25.1525 50.9735 25.4661 50.6192 25.441 50.2075L24.7526 38.9165C24.7043 38.1289 24.3613 37.3983 23.7877 36.8601C23.2135 36.32 22.4637 36.0226 21.6761 36.0226C20.5452 36.0226 19.4934 35.5707 18.7146 34.7501C17.936 33.9298 17.5398 32.8533 17.599 31.7188C17.7008 29.7758 19.2354 28.1294 21.1728 27.8883C21.2677 27.876 21.3677 27.8672 21.4774 27.8617C22.3452 27.8193 23.1894 27.4689 23.8547 26.8744C24.3067 26.4698 24.891 26.247 25.5001 26.247C26.1081 26.247 26.6927 26.4699 27.1458 26.8747C27.8088 27.4673 28.6526 27.8176 29.5223 27.8614L29.5658 27.8643C31.6223 27.9831 33.3072 29.6876 33.4018 31.7448C33.4854 33.5602 32.3442 35.2316 30.6267 35.8097C29.521 36.1818 28.7782 37.2285 28.7782 38.4143V41.6744C28.7782 42.0871 29.1127 42.4214 29.5253 42.4214C29.9379 42.4214 30.2723 42.0871 30.2723 41.6744V38.4144C30.2723 37.8708 30.6063 37.3931 31.1033 37.2258C33.4496 36.4361 35.0086 34.1541 34.8944 31.6763C34.8315 30.3064 34.2603 29.0091 33.2861 28.0236ZM29.6222 26.3707C29.6153 26.3702 29.6083 26.3698 29.6015 26.3694C29.0626 26.3431 28.5577 26.1326 28.1413 25.7606C27.4138 25.1108 26.4757 24.7529 25.5001 24.7529C24.5229 24.7529 23.5847 25.111 22.8587 25.7607C22.4423 26.1328 21.9394 26.3434 21.4036 26.3695C21.253 26.377 21.1145 26.3891 20.9842 26.4061C20.265 26.4956 19.5919 26.7202 18.9882 27.0513C18.4958 26.3558 18.2296 25.5265 18.2296 24.6617C18.2296 23.7927 18.4975 22.9602 18.9932 22.264C19.7283 22.6728 20.5619 22.9204 21.4444 22.9563C22.9531 23.0152 24.4154 22.4613 25.5 21.4413C26.5302 22.4104 27.9009 22.9609 29.3292 22.9609C29.4044 22.9609 29.4801 22.9593 29.5555 22.9563C30.438 22.9204 31.2716 22.6728 32.0067 22.264C32.5024 22.9603 32.7703 23.7927 32.7703 24.6617C32.7703 25.5285 32.503 26.3596 32.0084 27.0561C31.2881 26.6575 30.4865 26.421 29.6574 26.3731L29.6222 26.3707Z" fill="#134A85"/>
<path d="M29.5253 44.4119C29.1127 44.4119 28.7782 44.7463 28.7782 45.1589V50.253C28.7782 50.6656 29.1127 51 29.5253 51C29.9379 51 30.2723 50.6656 30.2723 50.253V45.1589C30.2723 44.7464 29.9379 44.4119 29.5253 44.4119Z" fill="#134A85"/>
<path d="M45.2219 23.7437H42.002C41.748 23.7437 41.5115 23.8727 41.3739 24.0862C41.2364 24.2999 41.2168 24.5686 41.3219 24.7998L41.8481 25.9573H39.7883C39.3757 25.9573 39.0413 26.2917 39.0413 26.7043C39.0413 27.117 39.3757 27.4514 39.7883 27.4514H43.0082C43.2622 27.4514 43.4988 27.3223 43.6363 27.1089C43.7739 26.8952 43.7934 26.6264 43.6883 26.3953L43.1622 25.2378H45.2219C45.6345 25.2378 45.969 24.9034 45.969 24.4907C45.969 24.078 45.6345 23.7437 45.2219 23.7437Z" fill="#134A85"/>
<path d="M37.147 21.7993C37.2929 21.9451 37.4841 22.018 37.6753 22.018C37.8664 22.018 38.0577 21.9451 38.2035 21.7993L40.4803 19.5225C40.6599 19.3428 40.7359 19.0843 40.6822 18.836C40.6284 18.5878 40.4522 18.3839 40.2143 18.2946L39.0239 17.8483L40.4803 16.3919C40.772 16.1 40.772 15.6271 40.4803 15.3353C40.1885 15.0437 39.7155 15.0437 39.4238 15.3353L37.147 17.6121C36.9674 17.7918 36.8914 18.0503 36.9451 18.2986C36.9989 18.5468 37.1751 18.7507 37.413 18.84L38.6034 19.2863L37.147 20.7427C36.8553 21.0345 36.8553 21.5074 37.147 21.7993Z" fill="#134A85"/>
<path d="M39.0239 33.1518L40.2144 32.7055C40.4522 32.6162 40.6284 32.4124 40.6822 32.1641C40.736 31.9158 40.6599 31.6573 40.4803 31.4776L38.2035 29.2008C37.9118 28.9091 37.4387 28.9091 37.1471 29.2008C36.8553 29.4927 36.8553 29.9656 37.1471 30.2574L38.6035 31.7137L37.413 32.1601C37.1752 32.2493 36.999 32.4531 36.9452 32.7015C36.8914 32.9497 36.9675 33.2083 37.1471 33.388L39.4239 35.6647C39.5697 35.8106 39.7609 35.8835 39.9521 35.8835C40.1432 35.8835 40.3345 35.8106 40.4803 35.6647C40.7721 35.3729 40.7721 34.8999 40.4803 34.6082L39.0239 33.1518Z" fill="#134A85"/>
<path d="M11.9589 26.7045C11.9589 26.2918 11.6244 25.9574 11.2118 25.9574H9.15207L9.6782 24.7999C9.78329 24.5687 9.76377 24.2999 9.62621 24.0863C9.48875 23.8728 9.25208 23.7438 8.99807 23.7438H5.7782C5.36562 23.7438 5.03113 24.0782 5.03113 24.4908C5.03113 24.9035 5.36562 25.2379 5.7782 25.2379H7.83792L7.31178 26.3954C7.2067 26.6266 7.22622 26.8954 7.36378 27.109C7.50124 27.3225 7.73791 27.4515 7.99192 27.4515H11.2118C11.6244 27.4515 11.9589 27.117 11.9589 26.7045Z" fill="#134A85"/>
<path d="M12.3967 19.2862L13.5872 18.8399C13.825 18.7506 14.0012 18.5468 14.055 18.2985C14.1088 18.0502 14.0327 17.7917 13.8531 17.612L11.5763 15.3352C11.2846 15.0435 10.8115 15.0435 10.5199 15.3352C10.2281 15.6271 10.2281 16.1 10.5199 16.3918L11.9763 17.8481L10.7858 18.2945C10.548 18.3837 10.3718 18.5875 10.318 18.8359C10.2642 19.0841 10.3403 19.3427 10.5199 19.5224L12.7967 21.7991C12.9425 21.945 13.1337 22.0179 13.3249 22.0179C13.516 22.0179 13.7073 21.945 13.8531 21.7991C14.1449 21.5073 14.1449 21.0343 13.8531 20.7426L12.3967 19.2862Z" fill="#134A85"/>
<path d="M13.8532 29.2008C13.5614 28.9091 13.0884 28.9091 12.7967 29.2008L10.52 31.4776C10.3404 31.6573 10.2644 31.9158 10.3181 32.1641C10.3718 32.4123 10.5481 32.6162 10.7859 32.7055L11.9764 33.1518L10.52 34.6082C10.2282 34.9 10.2282 35.373 10.52 35.6647C10.6658 35.8106 10.857 35.8835 11.0482 35.8835C11.2393 35.8835 11.4306 35.8106 11.5764 35.6647L13.8532 33.388C14.0328 33.2083 14.1088 32.9498 14.0551 32.7015C14.0013 32.4532 13.8251 32.2493 13.5872 32.1601L12.3968 31.7137L13.8532 30.2574C14.1449 29.9656 14.1449 29.4927 13.8532 29.2008Z" fill="#134A85"/>
</svg>
