<svg width="51" height="51" viewBox="0 0 51 51" fill="none" xmlns="http://www.w3.org/2000/svg">
<g clip-path="url(#clip0_1_43)">
<path d="M20.2486 21.6153C20.3191 21.6933 20.4051 21.7557 20.5012 21.7984C20.5973 21.8412 20.7013 21.8633 20.8064 21.8633H25.4442C25.5491 21.8626 25.6526 21.84 25.7482 21.7969C25.8438 21.7539 25.9294 21.6914 25.9994 21.6134C26.0695 21.5353 26.1224 21.4436 26.155 21.3439C26.1875 21.2442 26.1988 21.1389 26.1883 21.0346C26.0708 19.9518 25.2809 17.9028 23.1253 17.9028C20.9698 17.9028 20.1789 19.9518 20.0613 21.0346C20.0504 21.1391 20.0614 21.2447 20.0937 21.3447C20.1259 21.4447 20.1787 21.5368 20.2486 21.6153ZM23.1253 19.4C23.8584 19.4 24.2559 19.898 24.4681 20.3662H21.7786C21.9948 19.894 22.3922 19.4 23.1253 19.4Z" fill="#134A85"/>
<path d="M18.0114 15.3189L18.3282 15.4395L18.2286 15.4982C18.0636 15.603 17.9461 15.7681 17.9012 15.9582C17.8562 16.1484 17.8874 16.3486 17.988 16.5162C18.0886 16.6837 18.2506 16.8053 18.4396 16.855C18.6286 16.9047 18.8295 16.8786 18.9995 16.7822L20.405 15.9385C20.5251 15.8666 20.6226 15.7625 20.6864 15.6379C20.7502 15.5134 20.7779 15.3735 20.7661 15.234C20.7544 15.0946 20.7038 14.9612 20.6201 14.8491C20.5364 14.737 20.4229 14.6506 20.2925 14.5997L18.5523 13.9204C18.46 13.8805 18.3605 13.8596 18.2599 13.859C18.1593 13.8584 18.0597 13.878 17.9668 13.9168C17.874 13.9555 17.7899 14.0125 17.7196 14.0845C17.6493 14.1564 17.5942 14.2418 17.5576 14.3355C17.521 14.4292 17.5036 14.5293 17.5065 14.6298C17.5095 14.7304 17.5326 14.8293 17.5746 14.9207C17.6166 15.0121 17.6765 15.0941 17.7509 15.1619C17.8253 15.2296 17.9125 15.2817 18.0074 15.3149L18.0114 15.3189Z" fill="#134A85"/>
<path d="M25.6693 15.9425L27.0758 16.7862C27.2456 16.8799 27.4452 16.904 27.6325 16.8535C27.8198 16.803 27.9802 16.6819 28.0799 16.5155C28.1797 16.3492 28.211 16.1506 28.1673 15.9616C28.1237 15.7726 28.0084 15.608 27.8458 15.5023L27.7462 15.4435L28.0649 15.319C28.1565 15.2833 28.2401 15.2299 28.311 15.1618C28.382 15.0938 28.4388 15.0125 28.4783 14.9225C28.5178 14.8325 28.5392 14.7356 28.5412 14.6373C28.5433 14.539 28.5259 14.4413 28.4902 14.3498C28.4545 14.2582 28.4011 14.1746 28.3331 14.1036C28.2651 14.0327 28.1837 13.9759 28.0937 13.9364C28.0037 13.8969 27.9068 13.8755 27.8086 13.8735C27.7103 13.8714 27.6126 13.8887 27.521 13.9244L25.7809 14.6038C25.6504 14.6545 25.5368 14.7408 25.453 14.8529C25.3692 14.965 25.3185 15.0983 25.3066 15.2377C25.2948 15.3772 25.3223 15.5172 25.3861 15.6418C25.4498 15.7663 25.5473 15.8706 25.6673 15.9425H25.6693Z" fill="#134A85"/>
<path d="M33.3294 22.8783C32.8521 23.3765 32.5662 24.0274 32.5221 24.7159C32.478 25.4044 32.6786 26.0864 33.0885 26.6414C33.4984 27.1964 34.0912 27.5887 34.7622 27.7491C35.4332 27.9096 36.1394 27.8277 36.7559 27.5181C37.142 27.6918 37.5593 27.7853 37.9825 27.793C38.4058 27.8006 38.8262 27.7223 39.2182 27.5626C39.6103 27.403 39.9659 27.1653 40.2634 26.8642C40.5609 26.563 40.7941 26.2046 40.949 25.8106C41.1039 25.4166 41.1771 24.9953 41.1643 24.5722C41.1515 24.1491 41.0529 23.7329 40.8745 23.349C40.6961 22.9651 40.4416 22.6215 40.1264 22.3389C39.8112 22.0562 39.442 21.8406 39.041 21.7049C38.7689 21.0781 38.2895 20.5639 37.6832 20.2488C37.0768 19.9337 36.3805 19.8368 35.7112 19.9744C35.0419 20.1121 34.4403 20.4758 34.0075 21.0046C33.5747 21.5334 33.337 22.195 33.3343 22.8783H33.3294ZM34.5625 23.7748C34.8504 23.5656 34.8693 23.208 34.8265 22.8853C34.8254 22.5251 34.9559 22.1769 35.1934 21.9061C35.4309 21.6353 35.7592 21.4605 36.1165 21.4146C36.4737 21.3688 36.8355 21.4549 37.1337 21.657C37.4319 21.859 37.6461 22.1629 37.7361 22.5118C37.7722 22.6513 37.8478 22.7775 37.9538 22.8751C38.0598 22.9728 38.1917 23.0379 38.3337 23.0626C38.5719 23.1052 38.7975 23.2002 38.9943 23.3409C39.1911 23.4815 39.3541 23.6642 39.4716 23.8757C39.589 24.0872 39.6579 24.3221 39.6732 24.5635C39.6885 24.8049 39.6499 25.0467 39.5601 25.2714C39.4704 25.496 39.3318 25.6978 39.1543 25.8622C38.9769 26.0266 38.7651 26.1494 38.5342 26.2218C38.3034 26.2941 38.0594 26.3142 37.8198 26.2805C37.5803 26.2468 37.3513 26.1602 37.1494 26.027C37.0216 25.9428 36.8712 25.8997 36.7183 25.9034C36.5653 25.9071 36.4172 25.9576 36.2937 26.0479C35.9915 26.2627 35.6176 26.3515 35.2511 26.2957C34.8846 26.2399 34.5541 26.0437 34.3296 25.7487C34.105 25.4536 34.004 25.0829 34.0479 24.7147C34.0917 24.3465 34.277 24.0099 34.5645 23.7758L34.5625 23.7748Z" fill="#134A85"/>
<path d="M8.89207 27.3746C9.21995 27.375 9.54623 27.329 9.86127 27.2382C10.146 27.3289 10.443 27.375 10.7418 27.3746C11.4337 27.3732 12.1025 27.1253 12.6283 26.6756C13.1541 26.2258 13.5025 25.6035 13.6111 24.9201C13.7197 24.2368 13.5814 23.5371 13.221 22.9465C12.8606 22.3558 12.3016 21.9128 11.6443 21.6969C11.2763 21.2309 10.7959 20.8661 10.2483 20.6366C9.70067 20.4071 9.10372 20.3204 8.51345 20.3848C7.92317 20.4492 7.35892 20.6624 6.87364 21.0046C6.38835 21.3467 5.99793 21.8065 5.73901 22.3409C5.48008 22.8752 5.36114 23.4666 5.39334 24.0595C5.42554 24.6524 5.60783 25.2274 5.9231 25.7305C6.23837 26.2337 6.67629 26.6485 7.19578 26.9361C7.71527 27.2237 8.2993 27.3746 8.89307 27.3746H8.89207ZM8.89207 21.8593C9.22441 21.859 9.5516 21.9413 9.84423 22.0988C10.1369 22.2564 10.3857 22.4842 10.5685 22.7617C10.677 22.925 10.845 23.0394 11.0367 23.0805C11.378 23.1542 11.6799 23.3515 11.8845 23.6345C12.089 23.9175 12.1816 24.2661 12.1445 24.6133C12.1074 24.9605 11.9432 25.2817 11.6835 25.5151C11.4238 25.7485 11.087 25.8776 10.7378 25.8775C10.543 25.878 10.3503 25.8376 10.1721 25.759C9.99223 25.6804 9.78875 25.6754 9.60528 25.745C9.32985 25.8508 9.03452 25.8946 8.74026 25.8733C8.44601 25.852 8.16005 25.7662 7.9027 25.6219C7.64536 25.4776 7.42295 25.2784 7.25127 25.0385C7.07959 24.7986 6.96286 24.5238 6.90938 24.2336C6.85589 23.9435 6.86695 23.6452 6.94178 23.3598C7.01662 23.0744 7.15338 22.809 7.34236 22.5825C7.53133 22.3559 7.76789 22.1737 8.03521 22.0489C8.30253 21.9241 8.59406 21.8597 8.88909 21.8603L8.89207 21.8593Z" fill="#134A85"/>
<path d="M33.1251 29.1457C31.2136 28.4006 29.4106 27.8139 28.543 27.542V25.0468C29.6706 24.1921 30.5302 23.1482 30.9974 22.0226C31.3281 21.2258 31.608 20.1819 31.8421 19.0722C31.9168 19.0772 31.9925 19.0802 32.0672 19.0802C32.9938 19.0792 33.8907 18.7537 34.6023 18.1604C35.314 17.567 35.7954 16.7432 35.9629 15.8319C36.1305 14.9207 35.9737 13.9795 35.5197 13.1718C35.0657 12.3641 34.3432 11.7408 33.4777 11.4103C33.6218 11.0996 33.7259 10.7719 33.7875 10.4351C34.148 8.56044 33.5803 5.53729 31.8172 3.62778C30.4227 2.12169 28.6247 1.9663 27.8448 1.97526C26.9722 1.19532 24.0108 -0.924365 18.8351 0.456221C14.9842 1.48319 12.2967 5.61599 12.0158 8.85728C11.9252 9.89421 12.0905 10.7827 12.477 11.4581C11.6326 11.8123 10.9369 12.4479 10.5079 13.2569C10.0789 14.0659 9.94304 14.9984 10.1235 15.8961C10.3039 16.7939 10.7895 17.6015 11.4978 18.1819C12.206 18.7623 13.0933 19.0797 14.009 19.0802C14.0847 19.0802 14.1594 19.0802 14.2351 19.0722C14.4682 20.1819 14.7481 21.2238 15.0798 22.0226C15.546 23.1482 16.4066 24.1921 17.5342 25.0468V27.542C16.6686 27.8139 14.8657 28.4006 12.9522 29.1457C9.30547 30.5691 7.0025 31.886 6.10701 33.0584C4.6816 34.927 2.01904 41.8877 2.01904 50.2519C2.01904 50.4503 2.09786 50.6406 2.23815 50.7809C2.37844 50.9212 2.56871 51 2.76711 51H43.3081C43.4064 51.0001 43.5038 50.9809 43.5947 50.9434C43.6856 50.9058 43.7682 50.8507 43.8377 50.7813C43.9073 50.7118 43.9625 50.6293 44.0002 50.5384C44.0378 50.4476 44.0572 50.3503 44.0572 50.2519C44.0572 41.8848 41.3926 34.927 39.9662 33.0584C39.0747 31.886 36.7718 30.5691 33.1251 29.1457ZM34.5375 15.1147C34.5367 15.7592 34.284 16.3777 33.8335 16.8385C33.383 17.2993 32.7702 17.5657 32.126 17.5811C32.4527 15.6646 32.6529 13.773 32.7485 12.742C33.2636 12.8902 33.7166 13.2017 34.0393 13.6296C34.3619 14.0576 34.5368 14.5788 34.5375 15.1147ZM11.5407 15.1147C11.5417 14.5783 11.7171 14.0567 12.0405 13.6287C12.364 13.2006 12.8178 12.8895 13.3337 12.742C13.4333 13.773 13.6325 15.6646 13.9552 17.5811C13.3105 17.5665 12.697 17.3004 12.2458 16.8395C11.7946 16.3787 11.5416 15.7597 11.5407 15.1147ZM13.507 8.98677C13.7461 6.23755 16.0968 2.73528 19.2206 1.90255C20.1675 1.64028 21.1447 1.50298 22.1272 1.49415C25.3565 1.49415 26.9254 3.14966 27.008 3.23532C27.0877 3.32527 27.1875 3.39496 27.2994 3.43861C27.4113 3.48226 27.532 3.49862 27.6515 3.48634C27.7252 3.47737 29.4704 3.2931 30.7195 4.64579C32.0792 6.11901 32.6121 8.65208 32.3192 10.1552C32.2126 10.71 32.0005 11.1005 31.7365 11.227C30.8191 11.6643 29.0988 10.5417 27.2471 8.29747C26.9632 7.95223 26.5578 7.72887 26.1143 7.67329C25.6708 7.61771 25.2228 7.73414 24.8625 7.99864C23.2777 9.16407 17.83 12.8496 14.3128 11.219C13.4472 10.8176 13.4602 9.52366 13.507 8.98677ZM16.4624 21.4489C15.5719 19.3013 15.0599 15.0101 14.8577 12.9692C15.3367 13.074 15.8257 13.1262 16.316 13.1245C19.9647 13.1245 23.954 10.5267 25.751 9.20292C25.8027 9.16503 25.867 9.14845 25.9306 9.15661C25.9941 9.16477 26.0522 9.19703 26.0926 9.24675C28.3468 11.978 30.0362 12.7879 31.2365 12.8138C31.0452 14.783 30.5302 19.2455 29.6168 21.4489C28.9674 23.0098 27.3129 24.4043 25.1902 25.1683C25.0034 25.2358 24.8511 25.3747 24.7667 25.5545C24.6824 25.7343 24.6729 25.9403 24.7404 26.1271C24.8079 26.3138 24.9469 26.4661 25.1267 26.5505C25.3065 26.6348 25.5124 26.6443 25.6992 26.5768C26.1617 26.4105 26.6129 26.2142 27.0499 25.9891V28.0948C27.0333 29.1471 26.6036 30.1506 25.8537 30.8889C25.1037 31.6271 24.0935 32.0409 23.0411 32.0409C21.9887 32.0409 20.9785 31.6271 20.2285 30.8889C19.4786 30.1506 19.0489 29.1471 19.0323 28.0948V25.9891C19.4694 26.214 19.9205 26.4103 20.383 26.5768C20.4764 26.614 20.5762 26.6321 20.6767 26.6299C20.7771 26.6278 20.8761 26.6054 20.9677 26.5642C21.0594 26.523 21.1418 26.4638 21.2101 26.3901C21.2783 26.3164 21.3311 26.2297 21.3652 26.1352C21.3993 26.0407 21.414 25.9403 21.4085 25.8399C21.403 25.7396 21.3773 25.6414 21.3331 25.5512C21.2889 25.461 21.2269 25.3806 21.151 25.3148C21.075 25.2491 20.9866 25.1992 20.891 25.1683C18.7654 24.4043 17.1109 23.0098 16.4624 21.4489ZM3.77516 45.7815H8.19482L3.54207 48.8455C3.5859 47.7946 3.6616 46.7706 3.77516 45.7815ZM5.2693 49.5029L13.1484 44.3112C13.1905 44.282 13.2295 44.2487 13.2649 44.2116C14.5438 42.9386 15.4158 41.3143 15.7701 39.5449C16.2293 37.2689 16.6716 36.8555 16.7114 36.8216C16.7632 36.7915 16.8223 36.7765 16.8822 36.7782C16.942 36.78 17.0002 36.7985 17.0501 36.8316C17.2931 37.0069 17.5123 37.6374 17.334 38.8357C17.3128 38.9788 17.3334 39.125 17.3935 39.2565C17.4535 39.3881 17.5504 39.4995 17.6724 39.5773C17.7943 39.655 17.9362 39.6958 18.0809 39.6946C18.2255 39.6935 18.3667 39.6505 18.4875 39.5708C19.3738 38.9995 20.2913 38.4781 21.2357 38.009C22.9719 37.1563 24.3664 36.7778 24.9661 36.9979C25.3974 37.1563 25.8845 38.0767 25.9831 39.53C26.1136 41.4704 25.5199 43.2414 24.5716 43.7425C22.8782 44.639 21.4239 44.9477 20.2545 45.1988C19.2584 45.4129 18.4725 45.5813 17.85 46.0215C16.8021 46.7636 14.4483 48.8544 13.7221 49.5079L5.2693 49.5029ZM42.5601 49.5029H37.221L36.7229 45.7815H42.3011C42.4405 46.9758 42.5332 48.2209 42.5561 49.5059L42.5601 49.5029ZM36.5257 44.2843L36.1014 41.1138C36.0699 40.9215 35.9646 40.749 35.808 40.633C35.6514 40.517 35.4557 40.4667 35.2625 40.4926C35.0694 40.5185 34.8939 40.6187 34.7735 40.7719C34.653 40.9251 34.5969 41.1192 34.6172 41.313L35.7129 49.5039H15.9903C16.9365 48.6771 18.102 47.682 18.7215 47.2437C19.0931 46.9808 19.7475 46.8453 20.5753 46.663C21.7706 46.407 23.4042 46.0564 25.2768 45.0693C27.0021 44.1588 27.6286 41.5829 27.4832 39.4324C27.3487 37.4402 26.6026 36.0038 25.491 35.5954C24.4401 35.2109 22.8314 35.5635 20.5723 36.6752C19.9438 36.984 19.359 37.3057 18.8789 37.5826C18.8122 36.8415 18.5681 36.0815 17.9346 35.6223C17.6627 35.4264 17.3415 35.3102 17.0072 35.2868C16.6729 35.2634 16.3386 35.3337 16.0421 35.4898C15.539 35.7408 14.8876 36.3963 14.3118 39.2511C14.0223 40.7076 13.3136 42.0477 12.2728 43.107L11.1343 43.857L11.475 41.316C11.4953 41.1222 11.4392 40.928 11.3187 40.7749C11.1982 40.6217 11.0228 40.5215 10.8296 40.4956C10.6365 40.4697 10.4408 40.52 10.2842 40.636C10.1276 40.752 10.0223 40.9244 9.99078 41.1168L9.56545 44.2873H3.98732C4.7593 39.1465 6.36002 35.197 7.29934 33.9668C8.63809 32.2137 14.5708 30.0532 17.6238 29.081C17.8548 30.3488 18.5234 31.4954 19.513 32.321C20.5025 33.1465 21.7504 33.5987 23.0391 33.5987C24.3278 33.5987 25.5757 33.1465 26.5653 32.321C27.5548 31.4954 28.2234 30.3488 28.4544 29.081C31.5124 30.0532 37.4401 32.2127 38.7799 33.9668C39.7192 35.197 41.3199 39.1415 42.1038 44.2843H36.5257Z" fill="#134A85"/>
<path d="M32.3492 32.38C31.7747 32.38 31.2131 32.5504 30.7355 32.8695C30.2578 33.1887 29.8855 33.6423 29.6657 34.1731C29.4458 34.7038 29.3883 35.2878 29.5004 35.8513C29.6125 36.4147 29.8891 36.9323 30.2953 37.3385C30.7015 37.7447 31.2191 38.0213 31.7825 38.1334C32.346 38.2455 32.93 38.188 33.4607 37.9681C33.9915 37.7483 34.4451 37.376 34.7643 36.8983C35.0834 36.4207 35.2538 35.8591 35.2538 35.2846C35.253 34.5145 34.9467 33.7762 34.4022 33.2316C33.8576 32.6871 33.1193 32.3808 32.3492 32.38ZM32.3492 36.6931C32.0706 36.6933 31.7982 36.6108 31.5664 36.4562C31.3347 36.3016 31.154 36.0817 31.0472 35.8243C30.9405 35.567 30.9124 35.2837 30.9667 35.0104C31.0209 34.7372 31.155 34.4861 31.3519 34.289C31.5488 34.0919 31.7998 33.9577 32.073 33.9033C32.3463 33.8488 32.6295 33.8767 32.887 33.9833C33.1444 34.0898 33.3644 34.2704 33.5192 34.502C33.674 34.7336 33.7567 35.006 33.7567 35.2846C33.7564 35.6579 33.6081 36.0159 33.3442 36.2799C33.0803 36.544 32.7225 36.6926 32.3492 36.6931Z" fill="#134A85"/>
<path d="M48.7817 3.07402C48.7631 3.05376 48.7435 3.03448 48.7229 3.01625L48.8275 1.91457C48.944 0.918473 48.0894 -0.0188517 47.0893 0.00306237H44.3162C43.8813 0.00150461 43.4615 0.162954 43.1398 0.455576C42.818 0.748197 42.6176 1.15075 42.578 1.58386L42.4495 2.93457C42.3443 2.99532 42.2556 3.08076 42.1908 3.1835C42.1261 3.28623 42.0874 3.40319 42.0779 3.52425L41.5799 9.95304H39.9433C39.348 9.95357 38.7772 10.1903 38.3563 10.6112C37.9354 11.0322 37.6986 11.6029 37.6981 12.1982V13.7123C37.6986 14.3076 37.9354 14.8784 38.3563 15.2993C38.7772 15.7203 39.348 15.957 39.9433 15.9575H44.5602C45.5017 15.9534 46.4074 15.5962 47.0983 14.9566C47.7892 14.317 48.215 13.4414 48.2916 12.503L48.9759 3.63781C48.9839 3.53554 48.9708 3.43271 48.9374 3.33572C48.904 3.23873 48.851 3.14965 48.7817 3.07402ZM41.2382 14.4604H39.9433C39.745 14.4601 39.5549 14.3812 39.4146 14.241C39.2744 14.1007 39.1955 13.9106 39.1952 13.7123V12.1982C39.1968 12.0008 39.2763 11.8119 39.4164 11.6728C39.5565 11.5336 39.7459 11.4554 39.9433 11.4552H41.4624L41.2382 14.4604ZM44.0681 1.7263C44.0734 1.66431 44.1019 1.60658 44.1479 1.56466C44.1938 1.52274 44.2539 1.49972 44.3162 1.50019H47.0893C47.2696 1.52709 47.3274 1.58984 47.3373 1.77312L47.2377 2.83396H43.9626L44.0681 1.7263ZM46.8014 12.3845C46.7558 12.9476 46.5005 13.473 46.086 13.8568C45.6715 14.2407 45.1281 14.455 44.5632 14.4574H42.7324L43.5153 4.3281H47.424L46.8014 12.3845Z" fill="#134A85"/>
</g>
<defs>
<clipPath id="clip0_1_43">
<rect width="51" height="51" fill="white"/>
</clipPath>
</defs>
</svg>
