<svg width="64" height="64" viewBox="0 0 64 64" fill="none" xmlns="http://www.w3.org/2000/svg">
<g clip-path="url(#clip0_27_146)">
<path d="M40.9 28H16.13C15.8648 28 15.6104 28.1054 15.4229 28.2929C15.2354 28.4804 15.13 28.7348 15.13 29V53.74C15.13 54.0052 15.2354 54.2596 15.4229 54.4471C15.6104 54.6346 15.8648 54.74 16.13 54.74H40.9C41.1652 54.74 41.4196 54.6346 41.6071 54.4471C41.7946 54.2596 41.9 54.0052 41.9 53.74V29C41.9 28.7348 41.7946 28.4804 41.6071 28.2929C41.4196 28.1054 41.1652 28 40.9 28ZM39.9 29.94V40.39H37.32C37.137 40.3924 36.9582 40.4449 36.8031 40.5419C36.6479 40.6389 36.5223 40.7766 36.44 40.94L35.11 43.73L33.9 36.41C33.8489 36.2134 33.7391 36.0371 33.5854 35.9044C33.4316 35.7718 33.241 35.6891 33.0391 35.6674C32.8372 35.6457 32.6334 35.686 32.4549 35.7829C32.2765 35.8798 32.1317 36.0288 32.04 36.21L29.43 42.86L27.53 35.54C27.4704 35.3355 27.3471 35.1554 27.178 35.0259C27.0089 34.8964 26.8029 34.8243 26.59 34.82C26.3771 34.8243 26.1711 34.8964 26.002 35.0259C25.8329 35.1554 25.7096 35.3355 25.65 35.54L23.77 42.86L22.06 35.57C22.0064 35.3615 21.8869 35.176 21.7193 35.0408C21.5518 34.9057 21.3451 34.8283 21.13 34.82C20.9115 34.8057 20.6952 34.8706 20.5207 35.0028C20.3462 35.135 20.2252 35.3258 20.18 35.54L18.7 41.22H17.1V30L39.9 29.94ZM17.1 52.77V49.28C17.1078 49.4656 17.1346 49.6499 17.18 49.83C17.6338 51.0262 18.5134 52.0127 19.65 52.6C19.8034 52.6951 19.9796 52.7469 20.16 52.75C20.3327 52.7464 20.5015 52.6982 20.65 52.61C21.7993 52.0437 22.6973 51.0708 23.17 49.88C23.3061 49.4371 23.3002 48.9628 23.1531 48.5234C23.0061 48.0841 22.7252 47.7017 22.35 47.43C22.0333 47.2206 21.6675 47.0975 21.2886 47.073C20.9098 47.0484 20.5311 47.1232 20.19 47.29C19.8497 47.1189 19.4709 47.0391 19.0905 47.0584C18.7101 47.0777 18.3412 47.1954 18.02 47.4C17.7585 47.5827 17.5404 47.8208 17.3814 48.0973C17.2224 48.3739 17.1263 48.6821 17.1 49V43.16H19.45C19.6629 43.1557 19.8689 43.0836 20.038 42.9541C20.2071 42.8246 20.3304 42.6445 20.39 42.44L21.07 39.83L22.78 47.15C22.8501 47.3431 22.9779 47.5098 23.1461 47.6277C23.3142 47.7456 23.5146 47.8088 23.72 47.8088C23.9254 47.8088 24.1258 47.7456 24.294 47.6277C24.4621 47.5098 24.5899 47.3431 24.66 47.15L26.59 39.64L28.31 46.22C28.3662 46.4152 28.4805 46.5886 28.6377 46.7172C28.7949 46.8459 28.9876 46.9236 29.19 46.94C29.3997 46.9564 29.6091 46.9063 29.7887 46.7967C29.9682 46.6872 30.1086 46.5239 30.19 46.33L32.6 40.18L33.74 47.07C33.7789 47.2727 33.8795 47.4584 34.0281 47.6016C34.1767 47.7449 34.366 47.8386 34.57 47.87H34.7C34.883 47.8676 35.0618 47.8151 35.2169 47.7181C35.3721 47.6211 35.4977 47.4834 35.58 47.32L37.97 42.32H39.97V52.77H17.1ZM19.1 48.97H19.17C19.3255 48.9913 19.4714 49.0573 19.59 49.16C19.7603 49.2829 19.965 49.349 20.175 49.349C20.385 49.349 20.5897 49.2829 20.76 49.16C21 48.98 21.18 48.95 21.25 49C21.288 49.0388 21.3139 49.0878 21.3246 49.1411C21.3353 49.1943 21.3302 49.2496 21.31 49.3C21.0713 49.8503 20.67 50.3144 20.16 50.63C19.6472 50.3104 19.2429 49.8433 19 49.29C18.9913 49.2363 18.9968 49.1812 19.0161 49.1303C19.0354 49.0793 19.0678 49.0344 19.11 49L19.1 48.97Z" fill="#134A85"/>
<path d="M46.26 28.8301C45.5491 28.8281 44.8536 29.0372 44.2617 29.4309C43.6698 29.8247 43.2081 30.3852 42.9352 31.0416C42.6622 31.698 42.5903 32.4207 42.7285 33.118C42.8667 33.8153 43.2088 34.4559 43.7115 34.9586C44.2142 35.4613 44.8548 35.8034 45.5521 35.9416C46.2494 36.0798 46.9721 36.0078 47.6285 35.7349C48.2848 35.4619 48.8454 35.0002 49.2391 34.4083C49.6328 33.8164 49.842 33.121 49.84 32.4101C49.8374 31.4614 49.4593 30.5524 48.7885 29.8816C48.1177 29.2108 47.2087 28.8327 46.26 28.8301ZM46.26 34.0601C45.9332 34.0621 45.6132 33.967 45.3406 33.7869C45.0679 33.6068 44.8549 33.3498 44.7285 33.0485C44.6021 32.7472 44.568 32.4151 44.6305 32.0944C44.693 31.7736 44.8494 31.4787 45.0797 31.2469C45.3101 31.0152 45.6041 30.857 45.9244 30.7926C46.2447 30.7281 46.577 30.7602 46.8791 30.8848C47.1812 31.0093 47.4395 31.2208 47.6212 31.4924C47.803 31.7639 47.9 32.0833 47.9 32.4101C47.9 32.846 47.7275 33.2641 47.4203 33.5733C47.113 33.8824 46.6959 34.0575 46.26 34.0601Z" fill="#134A85"/>
<path d="M46.26 37.72C45.5491 37.718 44.8536 37.9271 44.2617 38.3208C43.6698 38.7146 43.2081 39.2751 42.9352 39.9315C42.6622 40.5879 42.5903 41.3106 42.7285 42.0079C42.8667 42.7052 43.2088 43.3458 43.7115 43.8485C44.2142 44.3512 44.8548 44.6933 45.5521 44.8315C46.2494 44.9697 46.9721 44.8977 47.6285 44.6248C48.2848 44.3518 48.8454 43.8901 49.2391 43.2982C49.6328 42.7063 49.842 42.0109 49.84 41.3C49.8374 40.3513 49.4593 39.4423 48.7885 38.7715C48.1177 38.1006 47.2087 37.7226 46.26 37.72ZM46.26 42.95C45.9332 42.952 45.6132 42.8569 45.3406 42.6768C45.0679 42.4967 44.8549 42.2397 44.7285 41.9384C44.6021 41.6371 44.568 41.305 44.6305 40.9843C44.693 40.6635 44.8494 40.3686 45.0797 40.1368C45.3101 39.9051 45.6041 39.7469 45.9244 39.6825C46.2447 39.618 46.577 39.6501 46.8791 39.7746C47.1812 39.8992 47.4395 40.1107 47.6212 40.3823C47.803 40.6538 47.9 40.9732 47.9 41.3C47.9067 41.52 47.8693 41.7391 47.79 41.9445C47.7107 42.1498 47.5911 42.3372 47.4382 42.4956C47.2854 42.654 47.1024 42.7802 46.9001 42.8669C46.6977 42.9535 46.4801 42.9988 46.26 43V42.95Z" fill="#134A85"/>
<path d="M46.26 46.6099C45.5495 46.6079 44.8545 46.8168 44.2628 47.21C43.6711 47.6033 43.2094 48.1633 42.9362 48.8191C42.6629 49.4749 42.5904 50.1971 42.7278 50.8941C42.8652 51.5912 43.2063 52.2318 43.708 52.7348C44.2096 53.2379 44.8493 53.5808 45.5459 53.7201C46.2426 53.8595 46.965 53.789 47.6215 53.5175C48.2781 53.2461 48.8394 52.786 49.2343 52.1954C49.6292 51.6048 49.84 50.9103 49.84 50.1999C49.84 49.2495 49.4632 48.3379 48.7921 47.6649C48.121 46.9919 47.2104 46.6125 46.26 46.6099ZM46.26 51.8399C45.9328 51.8419 45.6124 51.7465 45.3396 51.566C45.0667 51.3854 44.8537 51.1278 44.7275 50.8259C44.6014 50.524 44.5679 50.1914 44.6313 49.8705C44.6946 49.5495 44.852 49.2545 45.0833 49.0232C45.3147 48.7918 45.6096 48.6345 45.9306 48.5711C46.2516 48.5078 46.5842 48.5413 46.8861 48.6674C47.188 48.7935 47.4456 49.0066 47.6261 49.2794C47.8066 49.5523 47.902 49.8727 47.9 50.1999C47.8974 50.634 47.7238 51.0496 47.4168 51.3566C47.1098 51.6636 46.6942 51.8373 46.26 51.8399Z" fill="#134A85"/>
<path d="M62.27 2.82989H60.89C60.6869 2.40806 60.3691 2.05201 59.9729 1.80261C59.5767 1.55322 59.1182 1.42057 58.65 1.41989H55.56C55.2948 1.41989 55.0404 1.52525 54.8529 1.71279C54.6654 1.90032 54.56 2.15468 54.56 2.41989V13.2499C54.56 13.5151 54.6654 13.7695 54.8529 13.957C55.0404 14.1445 55.2948 14.2499 55.56 14.2499H56.9V40.5599C56.8974 41.1903 56.6458 41.7941 56.2 42.2399C55.7542 42.6857 55.1504 42.9373 54.52 42.9399H52.84V29.7499C52.8374 28.1196 52.1886 26.5569 51.0358 25.4041C49.883 24.2513 48.3203 23.6025 46.69 23.5999H39.69V22.2699C39.69 21.8155 39.6005 21.3656 39.4266 20.9458C39.2527 20.526 38.9979 20.1446 38.6766 19.8233C38.3553 19.502 37.9739 19.2472 37.5541 19.0733C37.1343 18.8994 36.6844 18.8099 36.23 18.8099H25.16C24.7056 18.8099 24.2557 18.8994 23.8359 19.0733C23.4161 19.2472 23.0347 19.502 22.7134 19.8233C22.3921 20.1446 22.1373 20.526 21.9634 20.9458C21.7895 21.3656 21.7 21.8155 21.7 22.2699V23.5999H16.77C15.138 23.5999 13.5727 24.2475 12.4178 25.4006C11.2628 26.5536 10.6126 28.1179 10.61 29.7499V42.9399H9.48C8.8496 42.9373 8.24576 42.6857 7.79999 42.2399C7.35423 41.7941 7.10263 41.1903 7.1 40.5599V14.2199H8.44C8.70522 14.2199 8.95957 14.1145 9.14711 13.927C9.33464 13.7395 9.44 13.4851 9.44 13.2199V2.38989C9.44 2.12468 9.33464 1.87032 9.14711 1.68279C8.95957 1.49525 8.70522 1.38989 8.44 1.38989H5.35C4.87861 1.39327 4.41786 1.53038 4.02133 1.78529C3.6248 2.04021 3.30877 2.40245 3.11 2.82989H1.73C1.50329 2.82857 1.27855 2.87209 1.06871 2.95794C0.858878 3.04379 0.668084 3.17027 0.507307 3.33012C0.346529 3.48997 0.21894 3.68002 0.131877 3.88936C0.0448145 4.09869 -3.83155e-06 4.32318 2.45682e-10 4.54989L2.45682e-10 11.0899C-3.83155e-06 11.3166 0.0448145 11.5411 0.131877 11.7504C0.21894 11.9598 0.346529 12.1498 0.507307 12.3097C0.668084 12.4695 0.858878 12.596 1.06871 12.6818C1.27855 12.7677 1.50329 12.8112 1.73 12.8099H3.11C3.30072 13.2003 3.59028 13.534 3.94991 13.7779C4.30954 14.0217 4.72672 14.1672 5.16 14.1999V40.5599C5.16264 41.7048 5.61863 42.8021 6.42822 43.6117C7.2378 44.4213 8.33508 44.8773 9.48 44.8799H10.61V52.8799C10.6116 54.0935 10.9711 55.2796 11.6435 56.2899C12.3158 57.3002 13.2712 58.0898 14.39 58.5599V60.5599C14.4311 61.1241 14.6919 61.6497 15.1164 62.0237C15.5408 62.3977 16.0951 62.5902 16.66 62.5599H46.79C47.3566 62.5929 47.9134 62.4016 48.34 62.0274C48.7667 61.6531 49.0289 61.1259 49.07 60.5599V58.5599C50.187 58.0883 51.1402 57.298 51.8107 56.2878C52.4812 55.2777 52.8392 54.0923 52.84 52.8799V44.8799H54.52C55.6649 44.8773 56.7622 44.4213 57.5718 43.6117C58.3814 42.8021 58.8374 41.7048 58.84 40.5599V14.1999C59.2648 14.1598 59.672 14.0108 60.0224 13.7673C60.3727 13.5238 60.6544 13.1941 60.84 12.8099H62.22C62.4509 12.818 62.681 12.7794 62.8967 12.6966C63.1123 12.6138 63.3091 12.4884 63.4752 12.3278C63.6413 12.1673 63.7734 11.975 63.8636 11.7623C63.9537 11.5496 64.0001 11.3209 64 11.0899V4.54989C64 4.32318 63.9552 4.09869 63.8681 3.88936C63.7811 3.68002 63.6535 3.48997 63.4927 3.33012C63.3319 3.17027 63.1411 3.04379 62.9313 2.95794C62.7215 2.87209 62.4967 2.82857 62.27 2.82989ZM1.94 4.76989H2.85V10.8699H1.94V4.76989ZM4.83 11.9199C4.83 11.9199 4.83 11.8699 4.83 11.8399C4.84037 11.7535 4.84037 11.6662 4.83 11.5799V4.05989C4.84037 3.97354 4.84037 3.88625 4.83 3.79989C4.83 3.79989 4.83 3.79989 4.83 3.71989C4.8691 3.61367 4.94002 3.5221 5.03308 3.45767C5.12614 3.39325 5.23681 3.3591 5.35 3.35989H7.47V12.2899H5.35C5.23596 12.2885 5.12506 12.2523 5.03213 12.1862C4.93921 12.1201 4.86869 12.0272 4.83 11.9199ZM23.64 22.2699C23.64 21.8668 23.8001 21.4801 24.0852 21.1951C24.3703 20.91 24.7569 20.7499 25.16 20.7499H36.26C36.6631 20.7499 37.0497 20.91 37.3348 21.1951C37.6199 21.4801 37.78 21.8668 37.78 22.2699V23.5999H23.64V22.2699ZM47.13 60.5199C47.0858 60.5639 47.0323 60.5975 46.9735 60.6182C46.9147 60.639 46.852 60.6464 46.79 60.6399H16.66C16.545 60.6416 16.4315 60.614 16.33 60.5599V58.9999H16.77H46.69H47.13V60.5199ZM46.69 57.0699H16.77C15.6508 57.0699 14.5774 56.6253 13.786 55.8339C12.9946 55.0425 12.55 53.9691 12.55 52.8499V29.7499C12.5526 28.6324 12.9984 27.5616 13.7895 26.7724C14.5807 25.9831 15.6525 25.5399 16.77 25.5399H46.69C47.8057 25.5425 48.875 25.9869 49.664 26.7759C50.453 27.5648 50.8974 28.6341 50.9 29.7499V43.8999V52.8399C50.9013 53.3941 50.7935 53.9431 50.5826 54.4556C50.3717 54.9681 50.062 55.434 49.6711 55.8268C49.2801 56.2196 48.8157 56.5316 48.3042 56.7448C47.7927 56.9581 47.2442 57.0686 46.69 57.0699ZM58.69 12.2899H56.53V3.35989H58.65C58.7632 3.3591 58.8739 3.39325 58.9669 3.45767C59.06 3.5221 59.1309 3.61367 59.17 3.71989C59.17 3.71989 59.17 3.71989 59.17 3.79989C59.176 3.88827 59.1928 3.97558 59.22 4.05989V11.5799C59.1928 11.6642 59.176 11.7515 59.17 11.8399C59.17 11.8399 59.17 11.8899 59.17 11.9199C59.1313 12.0272 59.0608 12.1201 58.9679 12.1862C58.8749 12.2523 58.764 12.2885 58.65 12.2899H58.69ZM62.1 10.8699H61.19V4.76989H62.1V10.8699Z" fill="#134A85"/>
</g>
<defs>
<clipPath id="clip0_27_146">
<rect width="64" height="64" fill="white"/>
</clipPath>
</defs>
</svg>
