<svg width="51" height="51" viewBox="0 0 51 51" fill="none" xmlns="http://www.w3.org/2000/svg">
<g clip-path="url(#clip0_27_11)">
<path d="M50.1708 5.33733C49.5155 4.21304 48.2607 3.62116 46.9773 3.82975L32.4509 6.1876C31.7688 3.18189 29.0868 0.995361 25.9365 0.995361C22.2516 0.995361 19.2538 3.99321 19.2538 7.67806C19.2538 11.3629 22.2516 14.3607 25.9365 14.3607C28.0521 14.3607 30.019 13.3707 31.2798 11.6921C31.3532 11.693 31.4271 11.6912 31.5013 11.6853L38.7577 11.1107L38.2839 11.4832L38.2518 11.4621C37.9898 11.2902 37.6449 11.3142 37.4092 11.5212L33.1664 15.247C33.0242 15.3718 32.8564 15.4003 32.6811 15.3291L30.3012 14.3625C30.2046 14.3233 30.1006 14.3062 29.9963 14.3126L23.4056 14.7162C23.2741 14.7242 23.1476 14.7693 23.0407 14.8463L22.4818 15.2488C21.716 14.3555 20.5808 13.7878 19.3147 13.7878C17.0144 13.7878 15.1428 15.6594 15.1428 17.9596C15.1428 18.0711 15.1485 18.1813 15.1571 18.2905C14.6931 18.4813 14.2618 18.7317 13.8327 19.0607L6.68177 24.5431C6.39818 24.7605 6.32756 25.1541 6.50875 25.4552L1.46672 29.6313C0.662478 30.2974 0.285058 31.2723 0.431284 32.3063C0.574423 33.3179 1.18443 34.1256 2.14885 34.5807L18.4454 42.2672C18.0303 43.9194 17.473 45.7595 16.7851 48.0291L16.4592 49.1056C16.3953 49.3169 16.4353 49.5458 16.5668 49.723C16.6983 49.9002 16.906 50.0046 17.1266 50.0046H38.8491C39.0556 50.0046 39.2515 49.913 39.384 49.7545C39.5165 49.5961 39.572 49.3871 39.5353 49.1838C38.1066 41.2467 38.6863 37.2193 39.3573 32.5559C39.6031 30.8484 39.8572 29.0827 40.0325 27.0118C40.0917 26.314 40.1081 25.6716 40.1226 25.1049C40.1713 23.2086 40.2035 21.9558 41.5798 20.2405L44.566 16.5185C44.6889 16.3652 44.7416 16.1673 44.7108 15.9731C44.6874 15.825 44.6169 15.69 44.5119 15.5863L49.9093 8.85932C50.7237 7.8443 50.8264 6.46182 50.1709 5.33743L50.1708 5.33733ZM25.9365 12.9662C23.0206 12.9662 20.6483 10.594 20.6483 7.67806C20.6483 4.76209 23.0205 2.38989 25.9365 2.38989C28.3994 2.38989 30.5006 4.07817 31.0712 6.41152L30.8674 6.44459C29.4958 6.66712 28.5384 7.99501 28.733 9.40478C28.8375 10.1615 29.2662 10.813 29.8559 11.2251C28.8606 12.3261 27.4473 12.9662 25.9365 12.9662ZM19.3146 15.1823C20.8461 15.1823 22.092 16.4282 22.092 17.9596C22.092 19.491 20.8461 20.737 19.3146 20.737C17.7831 20.737 16.5372 19.4911 16.5372 17.9596C16.5372 16.4281 17.7831 15.1823 19.3146 15.1823ZM1.81197 32.1109C1.73398 31.5596 1.92722 31.0604 2.35614 30.7052L7.32047 26.5937L9.55311 29.7117L7.9751 30.8533C7.78186 30.993 7.67348 31.2219 7.68773 31.46C7.70207 31.6981 7.83704 31.9123 8.04562 32.028L21.0308 39.2283C21.9616 39.7444 22.0194 40.4625 21.7632 40.9624C21.4993 41.4774 20.8406 41.8552 20.0193 41.4676L2.74372 33.3193C2.37187 33.1439 1.90819 32.7919 1.81197 32.1109ZM9.68101 31.3403L10.3649 30.8455L10.4396 30.9499C10.6556 31.2514 11.0699 31.3314 11.3826 31.1311L16.701 27.7249C18.4412 31.4594 19.1838 34.0493 19.2316 36.636L9.68101 31.3403ZM40.492 19.3678C38.8214 21.4498 38.7784 23.1271 38.7285 25.0691C38.7138 25.6433 38.6985 26.2371 38.6429 26.8941C38.4709 28.9244 38.2198 30.6696 37.9768 32.3573C37.312 36.9774 36.7348 40.9894 38.0197 48.61H18.0661L18.1196 48.4336C18.7788 46.2584 19.3193 44.4743 19.7346 42.8563C20.0573 42.9699 20.3724 43.0216 20.6732 43.0216C21.7213 43.0216 22.5952 42.3969 23.0043 41.5983C23.5558 40.5219 23.3852 38.9394 21.7071 38.0088L20.6202 37.4062C20.7219 34.1619 19.8851 31.1202 17.6204 26.4085C17.5339 26.2285 17.3744 26.0943 17.1824 26.0397C16.9904 25.9854 16.7843 26.0156 16.6159 26.1233L11.188 29.5997L8.06565 25.2392L14.681 20.1674C14.9519 19.9597 15.2228 19.7936 15.5065 19.6602C16.1587 21.1151 17.6198 22.1315 19.3145 22.1315C21.6149 22.1315 23.4865 20.2599 23.4865 17.9595C23.4865 17.4266 23.385 16.9173 23.202 16.4484L23.6919 16.0956L29.9232 15.7141L32.1563 16.621C32.8235 16.8919 33.545 16.7699 34.0864 16.2948L37.9303 12.9192L42.998 16.2441L40.4919 19.3676L40.492 19.3678ZM48.8214 7.98664L43.3494 14.8069L39.5137 12.2904L41.432 10.7819C41.6736 10.5919 41.7622 10.2661 41.6503 9.97993C41.5385 9.69375 41.2513 9.51455 40.9459 9.53876L31.3911 10.2954C30.786 10.3432 30.2018 9.84814 30.1143 9.21423C30.0239 8.5598 30.4711 7.9219 31.0908 7.82139L47.2006 5.20645C47.9216 5.08891 48.5981 5.40875 48.9661 6.03978C49.3339 6.6709 49.2786 7.41698 48.8214 7.98674V7.98664ZM30.0393 32.9976C30.2098 33.3429 30.0681 33.761 29.7227 33.9314L27.8607 34.8506C27.7639 34.8983 27.6583 34.9226 27.552 34.9226C27.4877 34.9226 27.4232 34.9137 27.3605 34.8957L25.1443 34.2626C24.774 34.1568 24.5596 33.7709 24.6653 33.4007C24.771 33.0303 25.1567 32.816 25.5273 32.9218L27.4846 33.481L29.1053 32.6809C29.4502 32.5105 29.8687 32.6521 30.0392 32.9975L30.0393 32.9976ZM29.6904 30.7695C29.861 31.1148 29.7192 31.5329 29.3739 31.7033L27.5119 32.6225C27.4151 32.6702 27.3095 32.6945 27.2032 32.6945C27.1388 32.6945 27.0744 32.6857 27.0116 32.6677L24.7954 32.0345C24.4252 31.9288 24.2107 31.5429 24.3165 31.1726C24.4222 30.8023 24.8079 30.5877 25.1784 30.6937L27.1358 31.2529L28.7565 30.4528C29.1017 30.2823 29.5199 30.4241 29.6903 30.7694L29.6904 30.7695ZM30.2612 35.2882C30.4317 35.6335 30.29 36.0516 29.9446 36.222L28.0826 37.1412C27.9858 37.1889 27.8802 37.2132 27.774 37.2132C27.7096 37.2132 27.6452 37.2044 27.5824 37.1863L25.3662 36.5532C24.996 36.4474 24.7815 36.0615 24.8873 35.6913C24.9931 35.3209 25.379 35.1066 25.7492 35.2124L27.7065 35.7716L29.3273 34.9715C29.6724 34.8012 30.0907 34.9427 30.2611 35.2881L30.2612 35.2882ZM29.4314 28.497C29.6019 28.8424 29.4601 29.2604 29.1148 29.4308L27.2528 30.35C27.156 30.3978 27.0504 30.4221 26.9441 30.4221C26.8798 30.4221 26.8153 30.4132 26.7526 30.3952L24.5364 29.762C24.1661 29.6563 23.9516 29.2704 24.0574 28.9001C24.1632 28.5298 24.5491 28.3153 24.9194 28.4212L26.8767 28.9804L28.4974 28.1804C28.8425 28.01 29.2608 28.1516 29.4313 28.4969L29.4314 28.497ZM29.1147 21.4525C29.2852 21.7978 29.1434 22.2159 28.7981 22.3864L26.9361 23.3056C26.8393 23.3533 26.7337 23.3776 26.6275 23.3776C26.5631 23.3776 26.4988 23.3687 26.4359 23.3507L24.2197 22.7176C23.8494 22.6118 23.635 22.2259 23.7408 21.8557C23.8465 21.4853 24.2326 21.271 24.6027 21.3767L26.56 21.9359L28.1808 21.1359C28.5257 20.9654 28.9443 21.1071 29.1146 21.4525H29.1147ZM29.0091 19.1043C29.1796 19.4496 29.0379 19.8678 28.6926 20.0382L26.8306 20.9574C26.7337 21.0051 26.6282 21.0294 26.5219 21.0294C26.4575 21.0294 26.3932 21.0205 26.3303 21.0025L24.1141 20.3694C23.7439 20.2636 23.5294 19.8777 23.6352 19.5075C23.7409 19.1372 24.1271 18.9228 24.4971 19.0285L26.4544 19.5877L28.0752 18.7877C28.4201 18.6173 28.8385 18.7589 29.009 19.1043H29.0091ZM29.3258 26.1488C29.4963 26.4941 29.3546 26.9122 29.0092 27.0827L27.1473 28.0019C27.0505 28.0496 26.9449 28.0739 26.8386 28.0739C26.7743 28.0739 26.7099 28.065 26.6471 28.047L24.4308 27.4139C24.0605 27.3081 23.8461 26.9222 23.9518 26.5519C24.0575 26.1816 24.4432 25.9672 24.8138 26.073L26.7712 26.6322L28.3918 25.8322C28.7369 25.6617 29.1551 25.8034 29.3257 26.1487L29.3258 26.1488ZM23.5297 17.1592C23.6355 16.7887 24.0215 16.5746 24.3916 16.6803L26.3489 17.2395L27.9697 16.4394C28.3145 16.2689 28.7332 16.4106 28.9035 16.756C29.0741 17.1013 28.9323 17.5194 28.587 17.6898L26.725 18.609C26.6282 18.6567 26.5226 18.681 26.4163 18.681C26.3519 18.681 26.2875 18.6721 26.2247 18.6541L24.0085 18.0209C23.6382 17.9151 23.4238 17.5291 23.5296 17.159L23.5297 17.1592ZM29.2202 23.8006C29.3907 24.1459 29.249 24.564 28.9036 24.7345L27.0417 25.6537C26.9449 25.7014 26.8393 25.7257 26.733 25.7257C26.6687 25.7257 26.6042 25.7168 26.5415 25.6988L24.3252 25.0656C23.9549 24.9598 23.7405 24.5739 23.8463 24.2036C23.952 23.8332 24.3382 23.619 24.7082 23.7247L26.6656 24.2839L28.2862 23.4839C28.6312 23.3133 29.0496 23.4551 29.2201 23.8004L29.2202 23.8006ZM12.419 8.34036C12.3194 7.96842 12.5401 7.58611 12.912 7.48641C13.2837 7.3869 13.6662 7.60743 13.766 7.97947L14.1768 9.51256L15.1763 8.93552C15.3641 8.82715 15.5916 8.81241 15.7917 8.89518C15.9921 8.97816 16.1424 9.14958 16.1985 9.35886L16.887 11.9283C16.9866 12.3002 16.7658 12.6826 16.3939 12.7822C16.3335 12.7985 16.2727 12.8061 16.2131 12.8061C15.9052 12.8061 15.6235 12.6007 15.5399 12.2893L15.0866 10.5976L14.0871 11.1746C13.8994 11.2831 13.6719 11.2979 13.4716 11.215C13.2713 11.132 13.121 10.9606 13.0649 10.7512L12.419 8.34036ZM7.38173 15.0812C7.57427 14.7477 8.0007 14.6335 8.33419 14.826L9.7087 15.6196L10.0074 14.5047C10.0635 14.2953 10.2138 14.124 10.4141 14.041C10.6142 13.958 10.8418 13.9728 11.0296 14.0813L13.3333 15.4114C13.6668 15.604 13.781 16.0304 13.5885 16.3639C13.3959 16.6975 12.9696 16.8118 12.636 16.6191L11.1193 15.7433L10.8205 16.8583C10.7645 17.0676 10.6142 17.239 10.4138 17.3219C10.3282 17.3574 10.2374 17.375 10.147 17.375C10.0262 17.375 9.90573 17.3437 9.79835 17.2816L7.63693 16.0337C7.30343 15.8411 7.18918 15.4147 7.38173 15.0812ZM17.9127 17.9596C17.9127 17.1875 18.5426 16.5576 19.3147 16.5576C20.0869 16.5576 20.7166 17.1875 20.7166 17.9596C20.7166 18.7318 20.0868 19.3615 19.3147 19.3615C18.5427 19.3615 17.9127 18.7318 17.9127 17.9596ZM28.6878 39.2429L30.6371 38.2805C30.9825 38.1101 31.1242 37.692 30.9537 37.3467C30.7833 37.0014 30.3649 36.8596 30.0199 37.0301L28.0713 37.9921L26.3072 37.4881C25.9371 37.3822 25.5509 37.5966 25.4453 37.967C25.3395 38.3372 25.554 38.7231 25.9242 38.8289L26.555 39.0091C24.5523 39.3135 23.0126 41.047 23.0126 43.1334C23.0126 45.4338 24.8842 47.3054 27.1846 47.3054C29.4849 47.3054 31.3565 45.4338 31.3565 43.1334C31.3565 41.363 30.2474 39.8476 28.6879 39.2429H28.6878ZM27.1845 45.9108C25.653 45.9108 24.4071 44.6649 24.4071 43.1334C24.4071 41.6019 25.653 40.3561 27.1845 40.3561C28.716 40.3561 29.9619 41.602 29.9619 43.1334C29.9619 44.6648 28.716 45.9108 27.1845 45.9108ZM28.5864 43.1334C28.5864 43.9056 27.9566 44.5353 27.1845 44.5353C26.4123 44.5353 25.7825 43.9056 25.7825 43.1334C25.7825 42.3612 26.4123 41.7315 27.1845 41.7315C27.9566 41.7315 28.5864 42.3613 28.5864 43.1334ZM37.1336 47.4935C36.8833 47.7864 36.4432 47.8209 36.1505 47.5709L34.9435 46.5402L34.4468 47.5819C34.3534 47.7775 34.1745 47.9186 33.9624 47.9637C33.9144 47.9739 33.8657 47.9789 33.8175 47.9789C33.653 47.9789 33.492 47.9207 33.3646 47.8119L31.3419 46.0842C31.0491 45.8341 31.0145 45.394 31.2646 45.1012C31.5146 44.8083 31.9549 44.7737 32.2475 45.0238L33.5793 46.1612L34.076 45.1195C34.1695 44.9239 34.3484 44.7827 34.5604 44.7377C34.7725 44.6925 34.9934 44.7488 35.1582 44.8895L37.0562 46.5105C37.3489 46.7606 37.3836 47.2007 37.1336 47.4935ZM31.3419 41.1779C31.2504 40.8038 31.4794 40.4264 31.8536 40.3349L33.5548 39.9187L32.9998 38.9068C32.8955 38.7167 32.8856 38.489 32.9728 38.2906C33.0601 38.0922 33.2347 37.9457 33.4453 37.8942L35.8696 37.301C36.2435 37.2092 36.6211 37.4384 36.7125 37.8126C36.804 38.1866 36.575 38.564 36.2009 38.6556L34.6593 39.0328L35.2143 40.0447C35.3186 40.2348 35.3284 40.4625 35.2413 40.6609C35.1539 40.8593 34.9793 41.0059 34.7687 41.0574L32.1849 41.6895C32.1292 41.7031 32.0735 41.7096 32.0186 41.7096C31.7048 41.7096 31.4198 41.4962 31.3419 41.1779Z" fill="#134A85"/>
</g>
<defs>
<clipPath id="clip0_27_11">
<rect width="51" height="51" fill="white"/>
</clipPath>
</defs>
</svg>
