<svg width="51" height="51" viewBox="0 0 51 51" fill="none" xmlns="http://www.w3.org/2000/svg">
<path d="M12.8362 38.4921L11.0686 39.5143C10.9587 39.5778 10.8385 39.608 10.7202 39.608C10.4792 39.608 10.245 39.4831 10.1158 39.2596C9.92292 38.9261 10.037 38.4995 10.3705 38.3067L11.3518 37.7393L10.2631 36.6507C10.0869 36.4745 10.0182 36.2177 10.0826 35.977C10.1469 35.7364 10.335 35.5483 10.5757 35.4839L12.1055 35.0738L10.5623 33.5306C10.3861 33.3544 10.3174 33.0976 10.3818 32.857C10.4462 32.6163 10.6342 32.4283 10.8749 32.3638L12.9102 31.8181L11.0705 29.9786C10.7982 29.7062 10.7982 29.2646 11.0705 28.9922C11.3429 28.7199 11.7845 28.7199 12.0569 28.9922L14.7505 31.6859C14.9267 31.8621 14.9954 32.1189 14.931 32.3595C14.8666 32.6002 14.6786 32.7882 14.4379 32.8527L12.4026 33.3983L13.9458 34.9415C14.1221 35.1177 14.1908 35.3745 14.1263 35.6152C14.062 35.8558 13.8739 36.0439 13.6333 36.1083L12.1035 36.5184L12.9803 37.3952C13.1335 37.5485 13.2068 37.7642 13.1787 37.9791C13.1505 38.1939 13.0239 38.3836 12.8362 38.4921ZM14.2565 15.0317C14.2957 15.0317 14.3353 15.0284 14.3752 15.0215L16.3856 14.6771C16.5992 14.6404 16.7836 14.5066 16.8847 14.3149C16.9858 14.1231 16.992 13.8954 16.9016 13.6985L16.3839 12.5716L17.9592 12.7189C18.2061 12.7411 18.4488 12.6312 18.5929 12.428C18.7371 12.2248 18.7619 11.9601 18.658 11.7336L17.7468 9.7476L19.8454 9.94333C20.0931 9.96554 20.3352 9.85537 20.4792 9.65207C20.6233 9.44877 20.6479 9.18411 20.5439 8.95759L18.9542 5.49866C18.7933 5.14863 18.3792 4.99563 18.0292 5.1562C17.6792 5.31707 17.5259 5.73115 17.6868 6.08117L18.772 8.44222L16.6742 8.24658C16.4257 8.22467 16.1847 8.33454 16.0406 8.53764C15.8965 8.74084 15.8718 9.00541 15.9756 9.23192L16.8866 11.2176L15.3106 11.0703C15.0633 11.0474 14.8209 11.1581 14.6768 11.3613C14.5327 11.5646 14.508 11.8293 14.612 12.0558L15.255 13.4557L14.1397 13.6467C13.76 13.7118 13.5051 14.0722 13.57 14.4519C13.6283 14.7917 13.9231 15.0317 14.2566 15.0317H14.2565ZM34.638 46.9295V48.5191C34.638 48.9043 34.3257 49.2166 33.9405 49.2166H25.7041C25.3189 49.2166 25.0067 48.9043 25.0067 48.5191V36.8102L24.3708 35.7083L22.9478 38.1696L19.0075 44.9996L19.5924 45.3372C20.685 45.9691 21.06 47.3706 20.4291 48.4617L19.6363 49.8385C19.544 49.9988 19.3916 50.116 19.2129 50.164C19.1533 50.18 19.0926 50.1879 19.032 50.1879C18.9106 50.1879 18.7902 50.1562 18.6833 50.0945L11.5481 45.9748C11.3879 45.8823 11.271 45.73 11.2231 45.5513C11.1753 45.3727 11.2003 45.1823 11.2928 45.0222L12.8824 42.2692C12.8834 42.2675 12.8845 42.2661 12.8855 42.2645L18.5151 32.5147V30.1739C18.181 30.1221 17.925 29.8341 17.925 29.4856V17.8666C17.925 15.6102 19.1959 13.6458 21.0589 12.6495L22.7325 9.94393L22.5022 8.80121C21.6306 5.31159 22.994 3.35058 23.8851 2.49155C25.2687 1.15768 27.3874 0.652265 29.2828 1.203C31.1905 1.75773 32.5692 3.24928 33.0653 5.29536C33.0881 5.38959 33.0911 5.4877 33.0738 5.58313L32.7188 7.55709L33.3257 9.65367C33.4141 9.95887 33.2849 10.2854 33.0116 10.4475L32.1203 10.976C32.007 11.3538 31.9192 11.6751 31.8461 11.9426C31.6177 12.7781 31.4799 13.2823 31.0356 13.6089C30.6001 13.9288 30.095 13.9245 29.1795 13.917C28.9591 13.9152 28.7187 13.9129 28.445 13.9148L28.362 14.0631C29.2293 15.092 29.7533 16.419 29.7533 17.8667V18.8606H32.3904C33.843 18.8606 35.0249 20.0423 35.0249 21.4949C35.0249 22.9475 33.843 24.1293 32.3904 24.1293C32.3659 24.1293 32.3414 24.1279 32.317 24.1254L29.7534 23.8541V24.7271L33.9179 26.814C34.5639 27.007 35.1035 27.4341 35.4431 28.0229C35.7955 28.6338 35.8892 29.3438 35.7069 30.0222C35.5267 30.6985 35.0909 31.2661 34.4802 31.6191C34.0727 31.8546 33.6211 31.9749 33.1643 31.9749C32.9362 31.9749 32.7067 31.9449 32.4809 31.8843C32.447 31.8752 32.4139 31.8637 32.3819 31.8495L28.9844 30.3616L31.5828 34.8601C31.644 34.9661 31.6763 35.0864 31.6763 35.209V44.6425H32.3511C33.6121 44.6425 34.6382 45.6685 34.6382 46.9296L34.638 46.9295ZM29.7533 22.4513L32.4232 22.7339C33.0916 22.7164 33.63 22.1673 33.63 21.4948C33.63 20.8114 33.0739 20.2554 32.3904 20.2554H29.7533V22.4513ZM25.643 24.2275C25.407 24.1092 25.258 23.8679 25.258 23.604V22.8496C24.8522 22.9621 24.4361 23.02 24.0195 23.02C23.603 23.02 23.1857 22.9619 22.779 22.8492V26.1212L28.9755 28.835C28.9946 28.8424 29.0134 28.8507 29.0317 28.8596L32.8877 30.5484C33.1918 30.6177 33.5076 30.57 33.7821 30.4114C34.0698 30.2451 34.2747 29.9789 34.3593 29.6617C34.4452 29.3419 34.4007 29.0079 34.2346 28.7197C34.0684 28.4315 33.8015 28.2257 33.4829 28.1403C33.4375 28.1281 33.3935 28.1114 33.3513 28.0903L25.643 24.2275ZM25.258 21.3788V19.4421C25.258 18.7586 24.702 18.2025 24.0185 18.2025C23.3351 18.2025 22.7791 18.7586 22.7791 19.4421V21.3784C23.5773 21.7048 24.4614 21.705 25.258 21.3788ZM24.0639 10.4432L23.0999 12.0016C23.3419 11.9713 23.5878 11.9538 23.8379 11.9538C25.135 11.9538 26.3351 12.3744 27.3111 13.0846L27.4251 12.881C27.5463 12.6645 27.7735 12.5287 28.0215 12.5243C28.4878 12.5164 28.8776 12.5197 29.191 12.5221C29.6266 12.5258 30.0762 12.5295 30.2066 12.4837C30.2818 12.3748 30.3929 11.9684 30.5005 11.5747C30.5924 11.2386 30.7066 10.8204 30.8658 10.3073C30.917 10.1422 31.0276 10.0021 31.1762 9.91394L31.8357 9.52288L31.3336 7.78808C31.3037 7.68499 31.2981 7.57641 31.3171 7.47073L31.6742 5.48531C31.1315 3.474 29.7063 2.77863 28.8933 2.54225C27.4696 2.12838 25.8834 2.50251 24.8531 3.49551C23.687 4.61951 23.3339 6.38877 23.859 8.47728C23.8617 8.48794 23.8642 8.49869 23.8662 8.50945L24.1543 9.93825C24.1894 10.1119 24.1569 10.2924 24.0638 10.443L24.0639 10.4432ZM19.3202 28.788H25.3915L21.8018 27.216C21.548 27.1049 21.3842 26.8541 21.3842 26.5772V19.4421C21.3842 17.9895 22.5659 16.8076 24.0185 16.8076C25.4712 16.8076 26.6529 17.9895 26.6529 19.4421V23.1733L28.3583 24.028V17.8666C28.3583 16.6327 27.8604 15.5133 27.0553 14.6971C27.0297 14.6755 27.0063 14.6521 26.9845 14.6275C26.17 13.837 25.0602 13.3489 23.8379 13.3489C23.1455 13.3489 22.4892 13.5059 21.9021 13.7855C21.875 13.8015 21.8468 13.8152 21.8179 13.8274C20.3385 14.5703 19.3202 16.1013 19.3202 17.8666V28.7881V28.788ZM18.8947 46.545L17.7076 45.8598C17.7076 45.8598 17.7069 45.8595 17.7065 45.8593C17.706 45.859 17.7056 45.8587 17.7052 45.8584L13.7418 43.5706L12.8496 45.1157L18.7762 48.5376L19.2212 47.7648C19.4678 47.3383 19.3211 46.7916 18.8948 46.5451L18.8947 46.545ZM23.5659 34.3138L21.1819 30.183H19.9103V32.7015C19.9103 32.8239 19.878 32.9442 19.8168 33.0502L14.4396 42.3627L17.7996 44.3023L21.7401 37.4721L23.5659 34.3137V34.3138ZM26.3083 36.2749C26.3694 36.3809 26.4017 36.5011 26.4017 36.6235V44.6425H30.2812V35.3959L27.2696 30.1831H22.7925L24.9662 33.9494L26.3083 36.2749ZM33.2431 46.9296C33.2431 46.4376 32.8428 46.0374 32.3509 46.0374H26.4016V47.8218H33.2431V46.9296ZM37.1894 41.6501L36.2087 41.083L37.2992 39.9944C37.4756 39.8182 37.5445 39.5614 37.4801 39.3206C37.4157 39.0798 37.2276 38.8916 36.9869 38.8272L35.4571 38.4171L37.0002 36.8739C37.1764 36.6976 37.2452 36.4409 37.1807 36.2003C37.1164 35.9596 36.9283 35.7715 36.6877 35.7071L34.6523 35.1614L36.492 33.3217C36.7644 33.0494 36.7644 32.6077 36.492 32.3354C36.2197 32.0631 35.778 32.0631 35.5057 32.3354L32.8121 35.0292C32.6359 35.2055 32.5671 35.4622 32.6316 35.7028C32.6959 35.9435 32.884 36.1315 33.1246 36.196L35.16 36.7416L33.6168 38.2848C33.4406 38.4611 33.3719 38.7178 33.4363 38.9584C33.5007 39.1991 33.6887 39.3872 33.9294 39.4516L35.4581 39.8614L34.58 40.7381C34.4266 40.8913 34.3532 41.1071 34.3813 41.3221C34.4094 41.5371 34.536 41.7268 34.7238 41.8353L36.4912 42.8575C36.6012 42.9211 36.7212 42.9513 36.8397 42.9513C37.0805 42.9513 37.3149 42.8264 37.444 42.6029C37.6369 42.2695 37.5229 41.8428 37.1894 41.6501ZM40.2935 8.26352H36.6257C36.3766 8.26352 36.1464 8.3965 36.0218 8.61225C35.8972 8.828 35.8972 9.09386 36.0218 9.30961L37.0135 11.0278H34.9571C34.7079 11.0278 34.4777 11.1608 34.3532 11.3766C34.2286 11.5925 34.2286 11.8583 34.3532 12.0741L35.0928 13.3545H33.9406C33.7237 13.3545 33.5192 13.4555 33.3871 13.6276C33.255 13.7997 33.2107 14.0236 33.2671 14.233L33.7782 16.1333C33.8619 16.4445 34.1436 16.6497 34.4513 16.6497C34.5113 16.6497 34.5723 16.642 34.6328 16.6257C35.0048 16.5256 35.2252 16.143 35.1252 15.7711L34.8504 14.7494H36.301C36.5502 14.7494 36.7804 14.6164 36.9049 14.4005C37.0295 14.1847 37.0295 13.9188 36.9049 13.7031L36.1653 12.4227H38.2211C38.4703 12.4227 38.7005 12.2897 38.8251 12.074C38.9497 11.8582 38.9497 11.5924 38.8251 11.3766L37.8334 9.65845H40.2934C40.6786 9.65845 40.9909 9.34617 40.9909 8.96098C40.9909 8.57579 40.6786 8.26352 40.2934 8.26352H40.2935Z" fill="#134A85"/>
</svg>
