<svg width="51" height="51" viewBox="0 0 51 51" fill="none" xmlns="http://www.w3.org/2000/svg">
<g clip-path="url(#clip0_27_409)">
<path d="M30.6813 33.668C30.6813 34.0532 30.3692 34.3652 29.984 34.3652C29.5988 34.3652 29.2867 34.0532 29.2867 33.668C29.2867 33.2828 29.5988 32.9707 29.984 32.9707C30.3692 32.9707 30.6813 33.2828 30.6813 33.668Z" fill="#134A85"/>
<path d="M26.9956 37.0547C26.9956 37.4399 26.6835 37.752 26.2983 37.752C25.9131 37.752 25.6011 37.4399 25.6011 37.0547C25.6011 36.6695 25.9131 36.3574 26.2983 36.3574C26.6835 36.3574 26.9956 36.6695 26.9956 37.0547Z" fill="#134A85"/>
<path d="M28.2407 34.6143C28.2407 34.9995 27.9287 35.3115 27.5435 35.3115C27.1582 35.3115 26.8462 34.9995 26.8462 34.6143C26.8462 34.229 27.1582 33.917 27.5435 33.917C27.9287 33.917 28.2407 34.229 28.2407 34.6143Z" fill="#134A85"/>
<path d="M28.1909 36.8057C27.7781 36.8057 27.4438 37.1399 27.4438 37.5527C27.4438 39.0632 28.6726 40.292 30.1831 40.292C31.6936 40.292 32.9224 39.0632 32.9224 37.5527C32.9224 36.0423 31.6936 34.8135 30.1831 34.8135C29.7703 34.8135 29.436 35.1477 29.436 35.5605C29.436 35.9734 29.7703 36.3076 30.1831 36.3076C30.8695 36.3076 31.4282 36.866 31.4282 37.5527C31.4282 38.2395 30.8695 38.7979 30.1831 38.7979C29.4963 38.7979 28.938 38.2395 28.938 37.5527C28.938 37.1399 28.6034 36.8057 28.1909 36.8057Z" fill="#134A85"/>
<path d="M47.8584 33.194C47.5268 32.9481 47.0591 33.0178 46.8132 33.3489C46.5673 33.6804 46.637 34.1481 46.9681 34.394C48.4541 35.4963 49.3062 37.1878 49.3062 39.0352C49.3062 42.2192 46.716 44.8094 43.532 44.8094C40.9756 44.8094 38.7566 43.1686 38.0095 40.7262C37.9566 40.5531 37.8426 40.4048 37.6889 40.3095L35.6333 39.0352L37.6889 37.7609C37.8426 37.6656 37.9566 37.5173 38.0095 37.3442C38.7566 34.9018 40.9756 33.2606 43.532 33.2606C43.6896 33.2606 43.8483 33.2672 44.0043 33.2796C44.4183 33.3143 44.7759 33.0065 44.809 32.5952C44.8425 32.1839 44.5358 31.8236 44.1246 31.7906C43.9288 31.7746 43.7296 31.7664 43.532 31.7664C41.9441 31.7664 40.4355 32.2695 39.1694 33.2213C38.4854 33.7353 37.8978 34.3715 37.4336 35.0866C37.5184 34.4434 37.5612 33.7936 37.5612 33.1392V32.6372L38.7702 32.1283C40.3484 31.4637 41.4542 29.9945 41.6569 28.2945L42.1184 24.4175C42.2118 23.635 41.9647 22.8483 41.4413 22.2592C41.1717 21.9549 40.8406 21.7187 40.4756 21.5604C41.0297 20.3293 41.8884 17.9242 41.8884 14.834C41.8884 10.3185 39.7418 6.50652 35.6807 3.81006C31.9804 1.35329 26.8443 0 21.2183 0C14.888 0 9.32354 1.66534 5.55005 4.68942C5.22827 4.9474 5.17613 5.41743 5.4341 5.7396C5.69208 6.06139 6.1625 6.11314 6.48428 5.85516C9.99396 3.04314 15.2266 1.49414 21.2183 1.49414C26.5536 1.49414 31.3964 2.75871 34.8543 5.05479C38.4783 7.46098 40.3943 10.8426 40.3943 14.834C40.3943 18.0277 39.3647 20.4499 38.9289 21.3316H37.197C36.82 20.8771 36.0095 20.1184 34.4056 19.3869C34.0162 19.209 33.6029 19.0429 33.1668 18.8876C33.8197 18.3495 34.4578 17.5063 34.729 16.1927C34.8123 15.7885 34.5523 15.3935 34.1485 15.3099C33.7442 15.2258 33.3492 15.4865 33.2656 15.8904C32.8979 17.6717 31.5788 18.1791 31.1687 18.2951C30.1213 18.0386 28.9734 17.832 27.7299 17.6748C28.3018 17.0379 28.8077 16.1134 28.8077 14.834C28.8077 14.4216 28.4734 14.0869 28.0606 14.0869C27.6478 14.0869 27.3135 14.4216 27.3135 14.834C27.3135 16.6457 25.7299 17.39 25.5708 17.46C24.4361 17.3752 23.2338 17.3254 21.9654 17.3114V14.0294C21.9654 13.6165 21.6311 13.2823 21.2183 13.2823C20.8055 13.2823 20.4712 13.6165 20.4712 14.0294V17.3114C19.2028 17.3254 18.0004 17.3748 16.8654 17.46C16.7444 17.4075 15.1231 16.6643 15.1231 14.834C15.1231 14.4216 14.7888 14.0869 14.376 14.0869C13.9635 14.0869 13.6289 14.4216 13.6289 14.834C13.6289 16.1134 14.1347 17.0379 14.7067 17.6748C13.4632 17.832 12.3153 18.0386 11.2679 18.2951C10.8578 18.1791 9.53871 17.6717 9.17101 15.8904C9.08774 15.4865 8.69203 15.227 8.28814 15.3099C7.88426 15.3935 7.62434 15.7889 7.708 16.1927C7.9792 17.5063 8.61693 18.3495 9.26984 18.8876C8.83366 19.0429 8.42044 19.209 8.03095 19.3869C6.42708 20.1184 5.61659 20.8771 5.23955 21.3316H3.50651C3.06994 20.4534 2.04272 18.0445 2.04272 14.834C2.04272 12.392 2.75204 10.1835 4.15163 8.26952C4.39521 7.93645 4.32245 7.46915 3.98938 7.22557C3.65631 6.98199 3.189 7.05437 2.94543 7.38744C1.35479 9.56289 0.548185 12.0683 0.548185 14.834C0.548185 17.9242 1.40654 20.3293 1.961 21.5604C1.59564 21.7187 1.26491 21.9549 0.994871 22.2592C0.471533 22.8483 0.224844 23.635 0.318228 24.4175L0.779699 28.2945C0.982031 29.9945 2.08824 31.4637 3.66643 32.1283L4.87458 32.6369V33.1392C4.87458 37.1173 6.50957 40.9908 9.3605 43.7666L9.97333 44.3631C10.1185 44.5048 10.3068 44.5752 10.4943 44.5752C10.6889 44.5752 10.8834 44.4997 11.0297 44.3491C11.3177 44.0538 11.3114 43.5807 11.0157 43.2931L10.4029 42.6962C7.83912 40.1998 6.36872 36.7162 6.36872 33.1392V32.1443C6.36872 32.1431 6.36872 32.1419 6.36872 32.1411V22.3047C6.85665 21.6927 9.77723 18.8009 21.2179 18.8009C32.5745 18.8009 35.55 21.6779 36.0671 22.3117V33.1392C36.0671 34.6143 35.8255 36.064 35.3496 37.4527L33.8216 38.4002C33.6018 38.5364 33.4683 38.7765 33.4683 39.0352C33.4683 39.2936 33.6018 39.534 33.8216 39.6702L34.2154 39.9142C33.6154 40.9336 32.8847 41.8678 32.0337 42.6962L27.1668 47.4355C25.7957 48.7705 23.9863 49.5059 22.072 49.5059H20.3646C18.4506 49.5059 16.6413 48.7705 15.2701 47.4359L13.5169 45.7285C13.2211 45.4406 12.748 45.4468 12.4605 45.7425C12.1725 46.0382 12.1787 46.511 12.4745 46.7989L14.2277 48.5063C15.8795 50.1144 18.0592 51 20.365 51H22.072C24.3778 51 26.5571 50.1144 28.2092 48.5063L33.0761 43.767C34.0146 42.8534 34.8212 41.8243 35.4854 40.7017L36.6706 41.4363C37.1433 42.7834 38.0227 43.9869 39.1694 44.8491C40.4355 45.8009 41.9441 46.3036 43.532 46.3036C47.5397 46.3036 50.8003 43.0429 50.8003 39.0352C50.8003 36.7442 49.7007 34.5606 47.8584 33.194ZM4.24618 30.7513C3.16215 30.2949 2.40224 29.2855 2.26333 28.1179L1.80186 24.2409C1.75828 23.8767 1.86879 23.5253 2.11197 23.251C2.35555 22.9771 2.69173 22.8257 3.05826 22.8257H4.87458V31.0159L4.24618 30.7513ZM39.3783 22.8257C39.7449 22.8257 40.081 22.9771 40.3242 23.251C40.5678 23.5253 40.6779 23.8767 40.6347 24.2409L40.1733 28.1179C40.034 29.2859 39.2744 30.2949 38.1904 30.7513L37.5616 31.0159V22.8257H39.3783Z" fill="#134A85"/>
<path d="M41.576 35.8673C41.2837 35.5758 40.811 35.5758 40.5192 35.8673C40.2273 36.1591 40.2273 36.6322 40.5192 36.9241L42.6304 39.0353L40.5192 41.1466C40.2273 41.4384 40.2273 41.9115 40.5192 42.203C40.6651 42.3489 40.8565 42.422 41.0476 42.422C41.2386 42.422 41.43 42.3489 41.576 42.203L43.6872 40.0917L45.7985 42.203C45.9444 42.3489 46.1358 42.422 46.3269 42.422C46.5179 42.422 46.7093 42.3489 46.8553 42.203C47.1471 41.9111 47.1471 41.4384 46.8553 41.1466L44.744 39.0353L46.8553 36.9241C47.1471 36.6322 47.1471 36.1591 46.8553 35.8673C46.5634 35.5758 46.0903 35.5758 45.7985 35.8673L43.6872 37.9785L41.576 35.8673Z" fill="#134A85"/>
</g>
<defs>
<clipPath id="clip0_27_409">
<rect width="51" height="51" fill="white"/>
</clipPath>
</defs>
</svg>
