<svg width="51" height="51" viewBox="0 0 51 51" fill="none" xmlns="http://www.w3.org/2000/svg">
<path d="M25.0548 36.5034C25.51 39.2177 26.4073 41.9032 27.7219 44.4854C27.909 44.8532 28.3589 44.9993 28.7265 44.8122C29.0942 44.6251 29.2405 44.1752 29.0534 43.8076C27.8078 41.361 26.9584 38.8205 26.5279 36.2534C25.4441 29.9448 26.9334 24.4988 28.3735 21.0409C28.5585 20.5969 28.9364 20.2868 29.4105 20.1901C29.8777 20.0949 30.3396 20.2295 30.6767 20.5589C32.8978 22.7148 34.2112 25.7512 34.1955 28.8584C34.1928 33.9257 34.8772 36.5511 35.9825 39.1448C36.5807 40.5487 36.5464 42.1405 35.8883 43.512C35.2697 44.8372 34.0031 45.9028 32.5385 46.2993C31.9857 46.4581 31.3909 46.4079 30.8638 46.1577C30.4909 45.9813 30.0454 46.14 29.8687 46.5127C29.692 46.8856 29.8508 47.3311 30.2237 47.5078C30.751 47.7579 31.321 47.8845 31.8914 47.8845C32.2471 47.8845 32.603 47.8353 32.9489 47.736C34.777 47.2405 36.4055 45.922 37.2355 44.1583C38.0796 42.3992 38.1239 40.3584 37.3571 38.5589C36.3258 36.1388 35.6871 33.672 35.6897 28.8591C35.7007 25.3901 34.2736 21.9665 31.7218 19.4908C31.0342 18.8189 30.0586 18.5328 29.112 18.7259C28.159 18.9203 27.3673 19.5708 26.9944 20.4663C25.4781 24.1069 23.9108 29.8447 25.0548 36.5034Z" fill="#134A85"/>
<path d="M19.0661 28.9131C18.7744 28.6214 18.3013 28.6214 18.0097 28.9131C17.7179 29.2049 17.7179 29.6779 18.0097 29.9696L18.466 30.4259H16.086C15.6734 30.4259 15.3389 30.7603 15.3389 31.173C15.3389 31.5857 15.6734 31.9201 16.086 31.9201H18.466L18.0097 32.3764C17.7179 32.6683 17.7179 33.1412 18.0097 33.433C18.1555 33.5788 18.3467 33.6517 18.5379 33.6517C18.729 33.6517 18.9203 33.5788 19.0661 33.433L20.7978 31.7012C20.938 31.5611 21.0167 31.3711 21.0167 31.1729C21.0167 30.9747 20.938 30.7848 20.7978 30.6446L19.0661 28.9131Z" fill="#134A85"/>
<path d="M30.3988 28.9226C30.1071 28.6309 29.6341 28.6309 29.3423 28.9226L27.6106 30.6543C27.4704 30.7945 27.3918 30.9844 27.3918 31.1826C27.3918 31.3809 27.4704 31.5707 27.6106 31.711L29.3423 33.4427C29.4881 33.5885 29.6794 33.6614 29.8705 33.6614C30.0617 33.6614 30.2529 33.5885 30.3988 33.4427C30.6905 33.1508 30.6905 32.6779 30.3988 32.3861L29.9425 31.9298H32.3224C32.735 31.9298 33.0695 31.5954 33.0695 31.1827C33.0695 30.7701 32.735 30.4357 32.3224 30.4357H29.9425L30.3988 29.9794C30.6905 29.6874 30.6905 29.2145 30.3988 28.9226Z" fill="#134A85"/>
<path d="M43.7419 6.95303H39.2667C38.8898 3.05651 35.5978 0 31.6047 0H27.8521C22.6772 0 18.0216 2.81416 15.5557 7.15335V3.81962C15.5557 3.81345 15.5549 3.80757 15.5548 3.80149C15.5353 1.75651 13.6462 0.0980156 11.3262 0.0980156C9.00617 0.0980156 7.11708 1.75651 7.09756 3.80149C7.09746 3.80757 7.09666 3.81354 7.09666 3.81962V13.8314C6.14131 14.7083 5.33855 15.7511 4.74458 16.9099C3.33501 19.6595 3.15063 22.8947 4.23877 25.786C4.3841 26.1722 4.81501 26.3673 5.20109 26.2221C5.58728 26.0767 5.78251 25.6459 5.63718 25.2597C4.69707 22.7619 4.85644 19.9669 6.07417 17.5915C7.01309 15.7599 8.55185 14.2605 10.4071 13.3693L13.2947 11.9821C14.4217 11.4406 15.7053 11.3292 16.9086 11.6676C19.083 12.2792 20.6229 14.2841 20.6534 16.543L20.6817 18.63C20.6803 22.6007 19.1052 23.6278 16.2466 25.4914C14.1177 26.8794 11.512 28.5782 8.76741 32.0785L7.05652 28.3851C6.8831 28.0107 6.43904 27.8477 6.06461 28.0212C5.69027 28.1946 5.52731 28.6387 5.70073 29.0131L7.91196 33.7866C9.27462 38.6341 12.2586 43.0052 16.3206 46.0999C20.5282 49.3055 25.5708 51 30.9033 51C31.8791 51 32.8456 50.8678 33.7757 50.6071C36.4757 49.8505 38.7179 47.9715 39.9269 45.4518C41.143 42.9174 41.2075 39.9781 40.1037 37.3877C39.3798 35.6886 38.6732 33.6307 38.6757 28.8607C38.676 28.2163 38.6375 27.578 38.5629 26.9475C39.9569 25.8829 41.064 24.488 41.7779 22.8873C41.9459 22.5106 41.7767 22.0689 41.3999 21.9008C41.023 21.7328 40.5814 21.902 40.4133 22.2788C39.9099 23.4075 39.178 24.4173 38.2687 25.2485C37.5891 22.2916 36.0732 19.577 33.8368 17.381C33.1062 16.6637 32.3187 16.0229 31.4855 15.4607H40.6254C41.0001 16.4642 41.19 17.5203 41.19 18.6069C41.19 18.7699 41.1857 18.9341 41.1771 19.0952C41.1552 19.5073 41.4715 19.859 41.8834 19.8809C41.897 19.8817 41.9103 19.882 41.9237 19.882C42.318 19.882 42.6479 19.573 42.6691 19.1746C42.679 18.9871 42.6841 18.7961 42.6841 18.6069C42.6841 17.5276 42.5229 16.4735 42.2046 15.4607H43.7417C45.7935 15.4607 47.4628 13.555 47.4628 11.2127C47.463 8.86394 45.7937 6.95303 43.7419 6.95303ZM11.3261 1.59206C12.8344 1.59206 14.0614 2.59751 14.0614 3.83327C14.0614 5.06902 12.8344 6.07448 11.3261 6.07448C9.81779 6.07448 8.5907 5.06902 8.5907 3.83327C8.5907 2.59751 9.81779 1.59206 11.3261 1.59206ZM12.6475 10.6353L9.75991 12.0225C9.3565 12.2163 8.96603 12.4349 8.5906 12.6763V6.67901C9.32871 7.23323 10.2836 7.56872 11.326 7.56872C12.3684 7.56872 13.3233 7.23323 14.0613 6.67901V10.1433C13.5766 10.2526 13.1022 10.4168 12.6475 10.6353ZM17.313 10.2293C16.8497 10.0989 16.3772 10.0214 15.9036 9.99371C16.9701 6.9114 19.1672 4.42554 21.95 2.95621L22.6239 5.31695C22.7175 5.64516 23.0166 5.85912 23.3419 5.85912C23.4098 5.85912 23.4788 5.84976 23.5472 5.83024C23.944 5.71698 24.1738 5.3036 24.0605 4.90676L23.3255 2.33186C24.7403 1.78908 26.2689 1.49414 27.852 1.49414H30.405V4.52187C30.405 4.93455 30.7394 5.26894 31.152 5.26894C31.5646 5.26894 31.8991 4.93455 31.8991 4.52187V1.50161C34.9341 1.64425 37.404 3.978 37.7628 6.95303H35.1552V5.20041C35.1552 4.78772 34.8207 4.45334 34.4082 4.45334C33.9956 4.45334 33.6611 4.78772 33.6611 5.20041V6.95303H28.6431V4.16078C28.6431 3.7481 28.3086 3.41371 27.896 3.41371C27.4834 3.41371 27.1489 3.7481 27.1489 4.16078V6.99198C25.3264 7.18154 23.7033 8.0568 22.5389 9.35611L20.4505 7.54242C20.139 7.27198 19.6671 7.30535 19.3966 7.61663C19.1261 7.92821 19.1594 8.40006 19.4708 8.6706L21.659 10.5707C21.2841 11.2181 21.0057 11.9282 20.8442 12.6821C19.9873 11.5213 18.7594 10.6362 17.313 10.2293ZM37.1817 28.8599C37.179 33.9118 37.9448 36.1321 38.7292 37.9732C39.6644 40.1683 39.6101 42.6584 38.5798 44.8053C37.5567 46.9374 35.6587 48.5277 33.3725 49.1684C32.5735 49.3923 31.7427 49.5059 30.9032 49.5059C20.9748 49.5059 12.199 43.0122 9.43369 33.6709C9.82107 33.1464 10.2064 32.6607 10.5887 32.21C11.6671 36.7163 14.2715 40.7314 18.0293 43.6332C18.7881 44.2191 19.6782 44.5141 20.5735 44.5141C21.3786 44.5141 22.1878 44.2755 22.9088 43.7953C24.4284 42.7832 25.1065 40.9958 24.6365 39.2414C24.4108 38.399 24.2214 37.5354 24.0735 36.6749C23.4829 33.2374 23.532 29.7119 24.2195 26.1963C24.2987 25.7914 24.0346 25.3989 23.6297 25.3197C23.225 25.2402 22.8323 25.5045 22.7532 25.9095C22.0307 29.6038 21.9794 33.311 22.6009 36.9278C22.7563 37.8332 22.9557 38.7417 23.1931 39.6281C23.5591 40.9935 22.8583 42.0335 22.0806 42.5515C21.3 43.0716 20.0656 43.318 18.9424 42.4504C15.1772 39.543 12.6613 35.4339 11.8294 30.85C13.7344 28.9129 15.5279 27.7432 17.0622 26.7429C19.919 24.8805 22.1754 23.4094 22.1754 18.6251C22.1754 18.6248 22.1754 17.1687 22.1754 17.1176C22.8454 17.0959 23.6829 17.471 24.1269 18.132C24.5691 18.7799 24.6611 19.5694 24.3791 20.2979C24.1052 21.0055 23.8524 21.7301 23.628 22.4515C23.5054 22.8454 23.7254 23.2642 24.1194 23.3868C24.1933 23.4098 24.268 23.4208 24.3415 23.4208C24.66 23.4208 24.955 23.2155 25.0546 22.8955C25.2691 22.206 25.5106 21.5136 25.7724 20.8373C26.2279 19.6606 26.074 18.3343 25.3608 17.2896C24.6983 16.2928 23.4216 15.6046 22.1754 15.6235C22.177 15.4856 22.172 14.2123 22.1775 14.1294H22.1788C26.1858 14.1294 29.9542 15.6629 32.7899 18.4473C35.6241 21.23 37.1838 24.928 37.1817 28.8599ZM22.3944 12.6378C23.0761 10.2221 25.2835 8.44717 27.8961 8.44717H40.8943C40.3333 9.19195 39.9934 10.1579 39.9934 11.2128C39.9934 12.2629 40.332 13.2244 40.8911 13.9666H28.7411C26.7605 13.1216 24.6124 12.6655 22.3944 12.6378ZM43.7419 13.9665C42.4988 13.9665 41.4875 12.7313 41.4875 11.2127C41.4875 9.68771 42.4988 8.44707 43.7419 8.44707C44.9698 8.44707 45.9688 9.68771 45.9688 11.2127C45.9688 12.7313 44.9698 13.9665 43.7419 13.9665Z" fill="#134A85"/>
</svg>
