<svg width="51" height="51" viewBox="0 0 51 51" fill="none" xmlns="http://www.w3.org/2000/svg">
<g clip-path="url(#clip0_1_350)">
<path d="M41.0337 12.1711C41.2726 8.65381 36.8687 4.23466 36.3638 3.74421C35.156 2.55421 31.9948 -0.185345 28.7138 0.00930543C27.5097 0.0791751 26.3701 0.576508 25.5 1.41181C24.6292 0.575953 23.4886 0.0785781 22.2836 0.00930543C18.9992 -0.185345 15.844 2.55931 14.6336 3.74251C14.1295 4.23466 9.72311 8.65381 9.95856 12.1711C10.0021 12.9444 10.3093 13.6794 10.829 14.2536C10.0419 15.9371 9.98207 17.8702 10.6634 19.5991C11.3448 21.328 12.7073 22.7006 14.4313 23.3945C14.9168 25.5032 16.121 27.3772 17.8372 28.6951C17.6138 29.2748 17.639 29.9209 17.907 30.4814C18.1749 31.0418 18.6619 31.4672 19.2533 31.6574C19.7364 31.8273 20.26 31.8451 20.7536 31.7084C21.1434 31.5928 21.5572 31.5848 21.9512 31.6854C21.8812 31.9323 21.8457 32.1878 21.8458 32.4445C21.8458 32.4683 21.8458 32.4921 21.8509 32.5159C21.1489 32.793 20.602 33.3616 20.3524 34.0739C20.3144 34.0677 20.2668 34.0575 20.2096 34.0433C19.9771 33.9772 19.7363 33.9454 19.4947 33.949C18.6777 33.9468 17.9065 34.3263 17.4097 34.9749C16.9388 35.6033 16.7955 36.4183 17.0238 37.1696C17.2618 37.9221 17.8403 38.5186 18.5852 38.7795C19.3387 39.0515 20.1746 38.971 20.8624 38.5602C21.1377 38.6326 21.4067 38.7276 21.6665 38.8441C21.574 39.1329 21.527 39.4343 21.5271 39.7375C21.5295 39.836 21.5386 39.9342 21.5543 40.0316C21.5118 40.0902 21.4693 40.1455 21.4259 40.2016C21.2264 40.4959 21.002 40.7726 20.7553 41.0286C20.4005 41.3507 19.9041 41.4658 19.4437 41.3329C18.3208 41.0422 17.1326 41.448 16.422 42.3648C15.9162 43.0416 15.7637 43.9192 16.0114 44.727C16.2683 45.5498 16.8984 46.2032 17.7114 46.4899C18.5435 46.7801 19.4618 46.6828 20.2147 46.2247C20.5828 46.3162 20.941 46.4441 21.284 46.6063C21.1655 46.9468 21.1052 47.3049 21.1055 47.6654C21.1055 49.8108 23.8034 50.9974 25.6683 50.9974C27.5332 50.9974 30.2311 49.8074 30.2311 47.6654C30.231 47.3052 30.1707 46.9475 30.0526 46.6072C30.3953 46.445 30.7532 46.3169 31.121 46.2247C31.8779 46.6832 32.8002 46.7792 33.6353 46.4865C34.4443 46.1993 35.071 45.5481 35.3268 44.7287C35.5754 43.9208 35.4232 43.0427 34.9171 42.3657C34.2061 41.4505 33.0196 41.0448 31.8971 41.3329C31.4359 41.4653 30.939 41.3502 30.583 41.0286C30.3371 40.7731 30.1135 40.497 29.9149 40.2033C29.8715 40.1446 29.8299 40.0885 29.7848 40.0333C29.8003 39.9357 29.8091 39.8371 29.8112 39.7383C29.8115 39.4351 29.7648 39.1338 29.6726 38.845C29.9309 38.7286 30.1985 38.6339 30.4725 38.5619C31.1587 38.9745 31.9945 39.0554 32.7471 38.7821C33.5004 38.519 34.0844 37.9145 34.3213 37.1526C34.5424 36.4057 34.3967 35.5983 33.9286 34.9758C33.4322 34.3271 32.6612 33.9476 31.8444 33.9498C31.6114 33.945 31.379 33.9736 31.1542 34.0348C31.0845 34.0527 31.0284 34.0646 30.9842 34.0714C30.7368 33.3617 30.1934 32.7944 29.495 32.5167C29.495 32.4929 29.5009 32.4691 29.5009 32.4445C29.5011 32.188 29.4654 31.9328 29.3947 31.6863C29.788 31.586 30.2011 31.5933 30.5906 31.7075C31.0805 31.8453 31.601 31.8293 32.0815 31.6616C32.7115 31.4587 33.2229 30.9929 33.4836 30.3846C33.7444 29.7762 33.729 29.0848 33.4415 28.4886C35.0095 27.1795 36.1021 25.3899 36.55 23.3971C38.2761 22.7049 39.6411 21.3326 40.3241 19.6028C41.007 17.873 40.9476 15.9383 40.1599 14.2536C40.6805 13.6796 40.9889 12.9447 41.0337 12.1711ZM29.3802 22.0787C29.4244 22.1204 29.4652 22.1637 29.5111 22.2062C29.0836 22.9106 28.7412 23.6633 28.4911 24.4485C28.1846 25.3751 27.4069 26.0676 26.4511 26.265C26.1372 26.3216 25.8189 26.3501 25.5 26.35H25.4099C24.2583 26.2969 23.2572 25.5431 22.8879 24.4511C22.6036 23.6387 22.2331 22.859 21.7829 22.1255C22.0266 22.1753 22.2746 22.2007 22.5233 22.2011C22.7489 22.2018 22.9742 22.1827 23.1965 22.1442L23.2585 22.134C24.1439 21.9564 24.9379 21.4713 25.5 20.7646C26.0631 21.4712 26.858 21.9559 27.744 22.1331L27.8001 22.1425C28.0246 22.1814 28.2522 22.2008 28.4801 22.2003C28.7839 22.1965 29.0862 22.1556 29.3802 22.0787ZM11.9 17.1003C11.9022 16.4688 12.0221 15.8433 12.2536 15.2558C13.4185 15.7306 14.653 16.0122 15.9086 16.0896C16.3757 16.1366 16.7924 15.796 16.8393 15.3289C16.8863 14.8618 16.5457 14.445 16.0786 14.3981C13.7351 14.1618 12.8936 13.7496 12.3896 13.3832C11.9515 13.0802 11.6816 12.5886 11.6611 12.0564C11.52 9.97471 14.0743 6.67076 15.8261 4.95631C16.643 4.15476 19.5262 1.55631 22.1816 1.70676C23.1422 1.7659 24.0356 2.21967 24.65 2.96051V5.67371C24.1357 5.36713 23.5487 5.20367 22.95 5.20026C22.4805 5.20026 22.1 5.58081 22.1 6.05026C22.1 6.5197 22.4805 6.90026 22.95 6.90026C23.8888 6.90026 24.65 7.66137 24.65 8.60026V18.3753C24.6463 19.3783 23.9462 20.2442 22.9661 20.4578L22.927 20.4646C22.5113 20.5428 22.0817 20.4936 21.6945 20.3235C21.186 20.1138 20.7815 19.7109 20.57 19.2032C20.3445 18.6658 20.3485 18.0596 20.581 17.5253C20.747 17.0942 20.5385 16.6095 20.1113 16.4337C19.6842 16.2579 19.1948 16.4554 19.0094 16.8784C18.3568 18.3858 18.7541 20.1422 19.992 21.2219C19.9707 21.2372 19.9537 21.2542 19.9308 21.2695C18.374 22.3626 16.3383 22.4986 14.6501 21.6221C12.9618 20.7456 11.9017 19.0025 11.9 17.1003ZM16.3489 23.8578C16.5648 23.8782 16.7807 23.9003 17 23.9003C18.1685 23.8978 19.3161 23.5904 20.3294 23.0086C20.7232 23.6441 21.0451 24.3215 21.2891 25.0282C21.4534 25.48 21.6865 25.9038 21.9801 26.2845C21.9057 26.5411 21.7941 26.7854 21.6486 27.0096C21.3845 27.1997 21.0533 27.2717 20.734 27.2085C20.1417 27.0665 19.5181 27.1403 18.9754 27.4167C17.747 26.5365 16.8279 25.291 16.3489 23.8578ZM32.3212 42.9828C32.7784 42.8529 33.2688 43.0105 33.5648 43.3823C33.7514 43.6295 33.8048 43.9526 33.7076 44.2467C33.6102 44.5419 33.3822 44.7758 33.0896 44.8808C32.727 45.0124 32.3239 44.9685 31.9982 44.7618C31.6667 44.5338 31.2552 44.4543 30.8626 44.5425C30.0138 44.7366 29.2057 45.0781 28.475 45.5515C28.2796 45.6775 28.1445 45.8781 28.101 46.1065C28.0574 46.3349 28.1094 46.5711 28.2446 46.7602C28.4361 47.0242 28.5399 47.3418 28.5413 47.668C28.5413 48.5086 26.9263 49.3 25.6785 49.3C24.4307 49.3 22.8157 48.5086 22.8157 47.668C22.8166 47.3417 22.9204 47.024 23.1123 46.7602C23.2475 46.571 23.2993 46.3347 23.2556 46.1063C23.2119 45.8779 23.0766 45.6774 22.8811 45.5515C22.1559 45.0812 21.3538 44.7417 20.5113 44.5485C20.1106 44.453 19.6882 44.5331 19.3502 44.7686C19.0294 44.9705 18.6335 45.0138 18.2767 44.8859C17.9797 44.781 17.7478 44.5447 17.6485 44.2459C17.5519 43.9524 17.6056 43.6302 17.7922 43.384C18.0873 43.0104 18.5791 42.8526 19.0366 42.9845C20.0652 43.261 21.1638 42.9861 21.941 42.2577C22.1409 42.0608 22.3256 41.8492 22.4935 41.6245C24.3358 43.1679 27.0202 43.1657 28.86 41.6194C29.0288 41.8457 29.2143 42.0591 29.4151 42.2577C30.1927 42.9865 31.292 43.2614 32.3212 42.9845V42.9828ZM31.6225 35.6728C31.6983 35.6536 31.7764 35.6453 31.8546 35.6481C32.1377 35.6446 32.4062 35.7735 32.5805 35.9966C32.7263 36.185 32.7722 36.4323 32.7037 36.6605C32.6218 36.9015 32.4338 37.0917 32.1937 37.1764C31.9185 37.2814 31.6104 37.2548 31.3573 37.1042C31.0378 36.8674 30.631 36.7814 30.243 36.8687C29.483 37.0444 28.7589 37.3498 28.1027 37.7714C27.9057 37.8976 27.7695 38.0994 27.7261 38.3293C27.6826 38.5591 27.7358 38.7967 27.8732 38.9861C28.0341 39.2032 28.1211 39.4663 28.1214 39.7366C28.1199 39.799 28.1093 39.8609 28.0899 39.9202C27.8579 40.5152 26.6857 41.0796 25.6785 41.0796C24.6712 41.0796 23.4991 40.5161 23.2764 39.9491C23.2513 39.8809 23.2373 39.8092 23.2347 39.7366C23.235 39.4662 23.3223 39.203 23.4838 38.9861C23.621 38.7966 23.6741 38.5589 23.6305 38.3291C23.5869 38.0992 23.4505 37.8975 23.2534 37.7714C22.5956 37.3489 21.8698 37.0433 21.108 36.8679C20.736 36.7815 20.3448 36.8589 20.0336 37.0804C19.7728 37.2496 19.447 37.2843 19.1564 37.1739C18.9248 37.0919 18.7423 36.9103 18.6592 36.6792C18.585 36.4469 18.6288 36.1931 18.7765 35.9992C18.9506 35.7758 19.2192 35.6469 19.5024 35.6507C19.5885 35.6483 19.6744 35.6589 19.7574 35.6821C21.4225 36.1224 21.8654 35.0021 21.9623 34.6443C22.0563 34.3573 22.2881 34.1367 22.5794 34.0569C24.3256 35.6818 27.0299 35.6836 28.7784 34.0612C29.0696 34.1448 29.3 34.3679 29.393 34.6562C29.495 35.003 29.9378 36.1156 31.62 35.6736L31.6225 35.6728ZM31.9464 29.6429C31.8831 29.8375 31.73 29.9897 31.535 30.0517C31.3776 30.1074 31.2069 30.1131 31.0462 30.0679C30.0546 29.7631 28.9801 29.8941 28.0908 30.4283L27.8273 30.5983C27.632 30.7239 27.4967 30.924 27.4527 31.152C27.4087 31.3799 27.4599 31.616 27.5944 31.8053C27.7291 31.991 27.8022 32.2142 27.8035 32.4436C27.7958 32.5369 27.7602 32.6257 27.7015 32.6986C27.1727 33.2605 26.4336 33.5766 25.662 33.5708C24.8904 33.565 24.1562 33.2378 23.6359 32.668C23.5852 32.6024 23.5555 32.523 23.5509 32.4402C23.5522 32.2108 23.6253 31.9876 23.76 31.8019C23.893 31.6132 23.9436 31.3786 23.9002 31.152C23.8568 30.9253 23.723 30.726 23.5297 30.6L23.2602 30.43C22.3717 29.8976 21.2987 29.7681 20.309 30.0738C20.1445 30.1186 19.9702 30.1112 19.8101 30.0526C19.6257 29.9923 19.4799 29.8497 19.4157 29.6667C19.3447 29.441 19.4129 29.1946 19.5899 29.0377C19.7885 28.8669 20.0563 28.8007 20.3116 28.8592C21.2771 29.096 22.2954 28.7957 22.978 28.0729C23.1182 27.8858 23.2371 27.6837 23.3325 27.4703C23.9567 27.8347 24.6634 28.0343 25.3861 28.05H25.5C25.9201 28.0502 26.3394 28.0127 26.7529 27.9378C27.2136 27.8504 27.6566 27.687 28.0636 27.4541C28.1348 27.6536 28.2289 27.8441 28.3441 28.0219C29.012 28.7858 30.0529 29.1089 31.036 28.8575C31.2728 28.7964 31.5245 28.8499 31.716 29.002C31.9254 29.1421 32.0188 29.4016 31.9464 29.6429ZM32.164 27.3207C31.6716 27.1219 31.1291 27.0832 30.6136 27.2102C30.317 27.2693 30.009 27.2157 29.75 27.0597C29.6111 26.787 29.5194 26.4927 29.4788 26.1893C29.7448 25.8242 29.9548 25.4214 30.1019 24.9942C30.3057 24.3532 30.5815 23.7372 30.9238 23.1582C31.8758 23.6462 32.9302 23.9006 34 23.9003C34.2176 23.9003 34.4318 23.8782 34.6451 23.8586C34.1878 25.2375 33.3226 26.4451 32.164 27.3215V27.3207ZM35.309 22.026C33.8472 22.4119 32.2897 22.1319 31.0539 21.261C31.036 21.2483 31.0224 21.2347 31.0046 21.2228C31.4332 20.8494 31.7728 20.3846 31.9982 19.8628C32.3973 18.9074 32.3955 17.8316 31.9931 16.8776C31.8145 16.4433 31.3177 16.2361 30.8834 16.4147C30.4492 16.5934 30.242 17.0902 30.4206 17.5244C30.6533 18.0587 30.6576 18.6648 30.4325 19.2023C30.0353 20.1184 29.0599 20.6408 28.0772 20.4637L28.0398 20.4578C27.0584 20.2451 26.3569 19.3786 26.3534 18.3744C26.3534 18.3625 26.3474 18.3515 26.3466 18.3396V12.8503C26.3466 11.9114 27.1077 11.1503 28.0466 11.1503C28.516 11.1503 28.8966 10.7697 28.8966 10.3003C28.8966 9.83081 28.516 9.45026 28.0466 9.45026C27.4478 9.45367 26.8609 9.61713 26.3466 9.92371V2.96051C26.9601 2.2205 27.8521 1.76682 28.8116 1.70676C31.4755 1.55376 34.3502 4.15391 35.1687 4.95801C36.9197 6.67076 39.474 9.97301 39.3337 12.0564C39.3142 12.5852 39.0476 13.0742 38.6138 13.3773C38.1038 13.7496 37.2597 14.1618 34.9163 14.3973C34.6141 14.4276 34.3511 14.6169 34.2263 14.8937C34.1015 15.1706 34.1339 15.493 34.3113 15.7395C34.4887 15.986 34.7841 16.1191 35.0863 16.0888C36.3419 16.0114 37.5765 15.7294 38.7413 15.2541C39.2733 16.6042 39.2022 18.1174 38.5459 19.4116C37.8896 20.7059 36.7108 21.6574 35.3073 22.026H35.309Z" fill="#134A85"/>
<path d="M34.85 11.5753C35.3195 11.5753 35.7 11.1947 35.7 10.7253C35.6977 8.61375 33.9865 6.90261 31.875 6.90027C31.4056 6.90027 31.025 7.28083 31.025 7.75027C31.025 8.21971 31.4056 8.60027 31.875 8.60027C33.0486 8.60027 34 9.55166 34 10.7253C34 11.1947 34.3806 11.5753 34.85 11.5753Z" fill="#134A85"/>
<path d="M19.125 8.60027C19.5945 8.60027 19.975 8.21971 19.975 7.75027C19.975 7.28083 19.5945 6.90027 19.125 6.90027C17.0135 6.90261 15.3024 8.61375 15.3 10.7253C15.3 11.1947 15.6806 11.5753 16.15 11.5753C16.6195 11.5753 17 11.1947 17 10.7253C17 9.55166 17.9514 8.60027 19.125 8.60027Z" fill="#134A85"/>
<path d="M7.65002 14.4499C7.65002 13.9805 7.26947 13.5999 6.80002 13.5999H4.25002C3.78058 13.5999 3.40002 13.9805 3.40002 14.4499C3.40002 14.9194 3.78058 15.2999 4.25002 15.2999H6.80002C7.26947 15.2999 7.65002 14.9194 7.65002 14.4499Z" fill="#134A85"/>
<path d="M46.75 13.5999H44.2C43.7305 13.5999 43.35 13.9805 43.35 14.4499C43.35 14.9194 43.7305 15.2999 44.2 15.2999H46.75C47.2194 15.2999 47.6 14.9194 47.6 14.4499C47.6 13.9805 47.2194 13.5999 46.75 13.5999Z" fill="#134A85"/>
<path d="M8.88 23.0639L6.67 24.3389C6.40484 24.4896 6.24078 24.7709 6.24011 25.0759C6.23944 25.3809 6.40226 25.6629 6.66675 25.8148C6.93124 25.9668 7.25686 25.9653 7.52 25.8111L9.73 24.5361C10.1331 24.2998 10.2699 23.7824 10.0362 23.3778C9.8026 22.9731 9.28618 22.8329 8.88 23.0639Z" fill="#134A85"/>
<path d="M41.6959 5.94996C41.8451 5.95027 41.9918 5.91097 42.1209 5.83606L44.3309 4.56106C44.596 4.4103 44.7601 4.12902 44.7607 3.82401C44.7614 3.51899 44.5986 3.23699 44.3341 3.08507C44.0696 2.93315 43.744 2.93459 43.4809 3.08886L41.2709 4.36386C40.9377 4.55622 40.7753 4.94836 40.8749 5.31996C40.9744 5.69155 41.3112 5.94994 41.6959 5.94996Z" fill="#134A85"/>
<path d="M44.3275 24.3389L42.1175 23.0639C41.8544 22.9096 41.5288 22.9082 41.2643 23.0601C40.9998 23.212 40.837 23.494 40.8376 23.799C40.8383 24.104 41.0024 24.3853 41.2675 24.5361L43.4775 25.8111C43.7407 25.9653 44.0663 25.9668 44.3308 25.8148C44.5953 25.6629 44.7581 25.3809 44.7574 25.0759C44.7567 24.7709 44.5927 24.4896 44.3275 24.3389Z" fill="#134A85"/>
<path d="M8.88 5.83606C9.14313 5.99032 9.46875 5.99176 9.73324 5.83984C9.99773 5.68792 10.1605 5.40593 10.1599 5.10091C10.1592 4.79589 9.99515 4.51461 9.73 4.36386L7.52 3.08886C7.25686 2.93459 6.93124 2.93315 6.66675 3.08507C6.40226 3.23699 6.23944 3.51899 6.24011 3.82401C6.24078 4.12902 6.40484 4.4103 6.67 4.56106L8.88 5.83606Z" fill="#134A85"/>
</g>
<defs>
<clipPath id="clip0_1_350">
<rect width="51" height="51" fill="white"/>
</clipPath>
</defs>
</svg>
