<svg width="48" height="48" viewBox="0 0 48 48" fill="none" xmlns="http://www.w3.org/2000/svg">
<mask id="mask0_4934_5709" style="mask-type:luminance" maskUnits="userSpaceOnUse" x="0" y="0" width="48" height="48">
<path d="M47.833 0.833496H0.833008V47.8335H47.833V0.833496Z" fill="white"/>
</mask>
<g mask="url(#mask0_4934_5709)">
<path d="M27.2369 43.4757H14.2168V6.45354H18.3824V9.38674C18.3824 9.7776 18.6994 10.0942 19.0903 10.0942H37.2384C37.6293 10.0942 37.9463 9.7776 37.9463 9.38674V6.45354H42.1119V24.781C42.1119 25.1719 42.4286 25.4888 42.8194 25.4888C43.2103 25.4888 43.5269 25.1719 43.5269 24.781V5.7457C43.5269 5.35485 43.2103 5.03822 42.8194 5.03822H37.9463V4.23751C37.9463 3.84666 37.6293 3.53003 37.2384 3.53003H31.9164C31.3853 1.93685 29.8918 0.833496 28.1645 0.833496C26.4369 0.833496 24.9434 1.93685 24.4123 3.53003H19.0903C18.6994 3.53003 18.3824 3.84666 18.3824 4.23751V5.03822H13.5093C13.1185 5.03822 12.8018 5.35485 12.8018 5.7457V44.1831C12.8018 44.574 13.1185 44.891 13.5093 44.891H27.2369C27.6274 44.891 27.9444 44.574 27.9444 44.1831C27.9444 43.7923 27.6274 43.4757 27.2369 43.4757ZM19.7978 4.94535H24.9624C25.307 4.94535 25.6014 4.69685 25.6599 4.35728C25.8696 3.13559 26.9228 2.24882 28.1645 2.24882C29.406 2.24882 30.4591 3.13559 30.6689 4.35728C30.7273 4.69685 31.0217 4.94535 31.3663 4.94535H36.531V8.6789H19.7978V4.94535Z" fill="url(#paint0_linear_4934_5709)"/>
<path d="M9.85959 15.6487H9.70217V13.6356C9.70217 13.2447 9.38554 12.9277 8.99469 12.9277H3.97455C3.5837 12.9277 3.26707 13.2447 3.26707 13.6356V15.6487H2.93789C2.13144 15.6487 1.47559 16.3045 1.47559 17.1109V18.0813C1.47559 18.915 2.15403 19.593 2.98773 19.593C3.04116 19.593 3.08455 19.6364 3.08455 19.6899V39.4294C3.08455 41.2568 4.57123 42.7434 6.39856 42.7434C8.22589 42.7434 9.71293 41.2568 9.71293 39.4294V19.6899C9.71293 19.6364 9.75632 19.593 9.80975 19.593C10.6434 19.593 11.3215 18.915 11.3215 18.0813V17.1109C11.3219 16.3045 10.6657 15.6487 9.85959 15.6487ZM4.68203 14.3431H8.28685V15.6487H4.68203V14.3431ZM8.29761 35.7192H6.95293V25.4888H8.29761V35.7192ZM9.90656 18.0813C9.90656 18.1343 9.86318 18.1781 9.80975 18.1781C8.97604 18.1781 8.29761 18.8562 8.29761 19.6899V20.9639H6.24509C5.85459 20.9639 5.53761 21.2805 5.53761 21.6714C5.53761 22.0622 5.85459 22.3792 6.24509 22.3792H8.29761V24.0735H6.24509C5.85459 24.0735 5.53761 24.3902 5.53761 24.781V36.4267C5.53761 36.8175 5.85459 37.1345 6.24509 37.1345H8.29761V39.4294C8.29761 40.4765 7.44598 41.3281 6.39856 41.3281C5.3515 41.3281 4.49987 40.4765 4.49987 39.4294V19.6899C4.49987 18.8562 3.82143 18.1781 2.98773 18.1781C2.9343 18.1781 2.89092 18.1347 2.89092 18.0813V17.1109C2.89092 17.0851 2.91207 17.064 2.93789 17.064H9.85959C9.88541 17.064 9.90656 17.0848 9.90656 17.1109V18.0813Z" fill="url(#paint1_linear_4934_5709)"/>
<path d="M37.9205 13.4902H24.4145C24.0236 13.4902 23.707 13.8072 23.707 14.1981C23.707 14.5889 24.0236 14.9056 24.4145 14.9056H37.9205C38.311 14.9056 38.6279 14.5889 38.6279 14.1981C38.6279 13.8072 38.311 13.4902 37.9205 13.4902Z" fill="url(#paint2_linear_4934_5709)"/>
<path d="M19.3927 13.4902C18.2926 13.4902 17.3975 14.3853 17.3975 15.4854C17.3975 16.5852 18.2926 17.4802 19.3927 17.4802C20.4925 17.4802 21.3875 16.5852 21.3875 15.4854C21.3875 14.3853 20.4925 13.4902 19.3927 13.4902ZM19.3927 16.0648C19.0728 16.0648 18.8129 15.8049 18.8129 15.4854C18.8129 15.1655 19.0728 14.9056 19.3927 14.9056C19.7122 14.9056 19.9722 15.1655 19.9722 15.4854C19.9722 15.8049 19.7122 16.0648 19.3927 16.0648Z" fill="url(#paint3_linear_4934_5709)"/>
<path d="M24.4145 17.4803H31.1677C31.5582 17.4803 31.8751 17.1636 31.8751 16.7728C31.8751 16.3819 31.5582 16.0649 31.1677 16.0649H24.4145C24.0236 16.0649 23.707 16.3819 23.707 16.7728C23.707 17.1636 24.0236 17.4803 24.4145 17.4803Z" fill="url(#paint4_linear_4934_5709)"/>
<path d="M38.6279 21.5843C38.6279 21.1935 38.311 20.8765 37.9205 20.8765H24.4145C24.0236 20.8765 23.707 21.1935 23.707 21.5843C23.707 21.9748 24.0236 22.2918 24.4145 22.2918H37.9205C38.311 22.2918 38.6279 21.9748 38.6279 21.5843Z" fill="url(#paint5_linear_4934_5709)"/>
<path d="M19.3927 20.8765C18.2926 20.8765 17.3975 21.7715 17.3975 22.8716C17.3975 23.9714 18.2926 24.8664 19.3927 24.8664C20.4925 24.8664 21.3875 23.9714 21.3875 22.8716C21.3875 21.7715 20.4925 20.8765 19.3927 20.8765ZM19.3927 23.4511C19.0728 23.4511 18.8129 23.1911 18.8129 22.8713C18.8129 22.5518 19.0728 22.2918 19.3927 22.2918C19.7122 22.2918 19.9722 22.5518 19.9722 22.8713C19.9722 23.1911 19.7122 23.4511 19.3927 23.4511Z" fill="url(#paint6_linear_4934_5709)"/>
<path d="M24.4145 23.4507C24.0236 23.4507 23.707 23.7673 23.707 24.1582C23.707 24.549 24.0236 24.866 24.4145 24.866H31.1677C31.5582 24.866 31.8751 24.549 31.8751 24.1582C31.8751 23.7673 31.5582 23.4507 31.1677 23.4507H24.4145Z" fill="url(#paint7_linear_4934_5709)"/>
<path d="M19.3927 28.2622C18.2926 28.2622 17.3975 29.1572 17.3975 30.257C17.3975 31.3571 18.2926 32.2521 19.3927 32.2521C20.4925 32.2521 21.3875 31.3571 21.3875 30.257C21.3875 29.1572 20.4925 28.2622 19.3927 28.2622ZM19.3927 30.8368C19.0728 30.8368 18.8129 30.5769 18.8129 30.257C18.8129 29.9375 19.0728 29.6775 19.3927 29.6775C19.7122 29.6775 19.9722 29.9375 19.9722 30.257C19.9722 30.5769 19.7122 30.8368 19.3927 30.8368Z" fill="url(#paint8_linear_4934_5709)"/>
<path d="M19.3927 35.6484C18.2926 35.6484 17.3975 36.5431 17.3975 37.6432C17.3975 38.7434 18.2926 39.638 19.3927 39.638C20.4925 39.638 21.3875 38.7434 21.3875 37.6432C21.3875 36.5431 20.4925 35.6484 19.3927 35.6484ZM19.3927 38.2231C19.0728 38.2231 18.8129 37.9627 18.8129 37.6432C18.8129 37.3237 19.0728 37.0634 19.3927 37.0634C19.7122 37.0634 19.9722 37.3237 19.9722 37.6432C19.9722 37.9627 19.7122 38.2231 19.3927 38.2231Z" fill="url(#paint9_linear_4934_5709)"/>
<path d="M45.2865 29.0959C42.7521 26.5618 38.6284 26.5618 36.0939 29.0959L35.4485 29.7413L34.8034 29.0959C32.2689 26.5618 28.1452 26.5618 25.6108 29.0959C23.0763 31.6303 23.0763 35.754 25.6108 38.2885L34.9482 47.6259C35.0863 47.764 35.2674 47.8332 35.4485 47.8332C35.6295 47.8332 35.8106 47.764 35.949 47.6259L45.2865 38.2885C47.821 35.754 47.821 31.6303 45.2865 29.0959ZM44.2857 37.2877L35.4485 46.1249L26.6116 37.2877C24.629 35.3054 24.629 32.0793 26.6116 30.0967C27.6031 29.1056 28.9047 28.61 30.2071 28.61C31.5091 28.61 32.8115 29.1056 33.8026 30.0967L34.9482 31.2424C35.0809 31.3754 35.2609 31.45 35.4485 31.45C35.6364 31.45 35.8164 31.3754 35.949 31.2424L37.0947 30.0967C39.0773 28.1144 42.3031 28.1144 44.2857 30.0967C46.2683 32.0793 46.2683 35.3054 44.2857 37.2877Z" fill="url(#paint10_linear_4934_5709)"/>
<path d="M41.1976 36.5184H38.5132C38.2299 36.5184 37.974 36.6876 37.8628 36.948L37.298 38.2693L36.2793 33.1327C36.2151 32.8092 35.9358 32.5729 35.6062 32.5629C35.2781 32.5521 34.9841 32.7719 34.9006 33.0911L33.9068 36.8874L33.2388 35.2053C33.1463 34.9725 32.938 34.8062 32.6906 34.7671C32.4436 34.7287 32.1943 34.8234 32.0348 35.0163L30.7976 36.5184H29.3013C28.9108 36.5184 28.5938 36.8354 28.5938 37.2262C28.5938 37.6167 28.9108 37.9337 29.3013 37.9337H31.1315C31.3431 37.9337 31.5431 37.839 31.6775 37.6759L32.3657 36.8408L33.3876 39.4139C33.5002 39.6983 33.7828 39.8794 34.0883 39.8593C34.3934 39.8406 34.6524 39.628 34.7299 39.3322L35.4901 36.428L36.3549 40.7895C36.4155 41.0939 36.6669 41.3234 36.9757 41.3557C37.0004 41.3582 37.0251 41.3596 37.0494 41.3596C37.3302 41.3596 37.5878 41.1925 37.6996 40.93L38.9804 37.9337H41.1976C41.5885 37.9337 41.905 37.6171 41.905 37.2262C41.905 36.8354 41.5885 36.5184 41.1976 36.5184Z" fill="url(#paint11_linear_4934_5709)"/>
</g>
<defs>
<linearGradient id="paint0_linear_4934_5709" x1="43.5269" y1="44.891" x2="2.18378" y2="16.0589" gradientUnits="userSpaceOnUse">
<stop stop-color="#54BE95"/>
<stop offset="0.288462" stop-color="#2E7B9A"/>
<stop offset="1" stop-color="#224075"/>
</linearGradient>
<linearGradient id="paint1_linear_4934_5709" x1="11.3215" y1="42.7434" x2="-6.4341" y2="36.8801" gradientUnits="userSpaceOnUse">
<stop stop-color="#54BE95"/>
<stop offset="0.288462" stop-color="#2E7B9A"/>
<stop offset="1" stop-color="#224075"/>
</linearGradient>
<linearGradient id="paint2_linear_4934_5709" x1="38.6279" y1="14.9056" x2="38.3618" y2="12.1001" gradientUnits="userSpaceOnUse">
<stop stop-color="#54BE95"/>
<stop offset="0.288462" stop-color="#2E7B9A"/>
<stop offset="1" stop-color="#224075"/>
</linearGradient>
<linearGradient id="paint3_linear_4934_5709" x1="21.3875" y1="17.4802" x2="17.3975" y2="13.4902" gradientUnits="userSpaceOnUse">
<stop stop-color="#54BE95"/>
<stop offset="0.288462" stop-color="#2E7B9A"/>
<stop offset="1" stop-color="#224075"/>
</linearGradient>
<linearGradient id="paint4_linear_4934_5709" x1="31.8751" y1="17.4803" x2="31.3989" y2="14.7321" gradientUnits="userSpaceOnUse">
<stop stop-color="#54BE95"/>
<stop offset="0.288462" stop-color="#2E7B9A"/>
<stop offset="1" stop-color="#224075"/>
</linearGradient>
<linearGradient id="paint5_linear_4934_5709" x1="38.6279" y1="22.2918" x2="38.3618" y2="19.4864" gradientUnits="userSpaceOnUse">
<stop stop-color="#54BE95"/>
<stop offset="0.288462" stop-color="#2E7B9A"/>
<stop offset="1" stop-color="#224075"/>
</linearGradient>
<linearGradient id="paint6_linear_4934_5709" x1="21.3875" y1="24.8664" x2="17.3976" y2="20.8764" gradientUnits="userSpaceOnUse">
<stop stop-color="#54BE95"/>
<stop offset="0.288462" stop-color="#2E7B9A"/>
<stop offset="1" stop-color="#224075"/>
</linearGradient>
<linearGradient id="paint7_linear_4934_5709" x1="31.8751" y1="24.866" x2="31.399" y2="22.1179" gradientUnits="userSpaceOnUse">
<stop stop-color="#54BE95"/>
<stop offset="0.288462" stop-color="#2E7B9A"/>
<stop offset="1" stop-color="#224075"/>
</linearGradient>
<linearGradient id="paint8_linear_4934_5709" x1="21.3875" y1="32.2521" x2="17.3976" y2="28.2621" gradientUnits="userSpaceOnUse">
<stop stop-color="#54BE95"/>
<stop offset="0.288462" stop-color="#2E7B9A"/>
<stop offset="1" stop-color="#224075"/>
</linearGradient>
<linearGradient id="paint9_linear_4934_5709" x1="21.3875" y1="39.638" x2="17.3979" y2="35.648" gradientUnits="userSpaceOnUse">
<stop stop-color="#54BE95"/>
<stop offset="0.288462" stop-color="#2E7B9A"/>
<stop offset="1" stop-color="#224075"/>
</linearGradient>
<linearGradient id="paint10_linear_4934_5709" x1="47.1874" y1="47.8332" x2="26.7198" y2="24.5495" gradientUnits="userSpaceOnUse">
<stop stop-color="#54BE95"/>
<stop offset="0.288462" stop-color="#2E7B9A"/>
<stop offset="1" stop-color="#224075"/>
</linearGradient>
<linearGradient id="paint11_linear_4934_5709" x1="41.905" y1="41.3596" x2="33.8121" y2="29.1138" gradientUnits="userSpaceOnUse">
<stop stop-color="#54BE95"/>
<stop offset="0.288462" stop-color="#2E7B9A"/>
<stop offset="1" stop-color="#224075"/>
</linearGradient>
</defs>
</svg>
