<svg width="51" height="51" viewBox="0 0 51 51" fill="none" xmlns="http://www.w3.org/2000/svg">
<g clip-path="url(#clip0_1_203)">
<path d="M29.5316 35.4111C29.8549 35.6546 30.3135 35.596 30.5654 35.2791C31.5961 33.9818 33.1349 33.2378 34.7871 33.2378C35.7847 33.2378 37.3899 33.854 38.452 34.2618C39.6847 34.735 40.1462 34.912 40.5747 34.5438C40.7396 34.402 40.8346 34.1954 40.8347 33.978C40.8348 33.7605 40.7401 33.5537 40.5754 33.4117C39.3825 32.3842 38.6984 30.8952 38.6984 29.3265C38.6984 27.7574 39.3824 26.2689 40.5753 25.2424C40.7399 25.1006 40.8347 24.8941 40.8348 24.6767C40.8349 24.4592 40.7402 24.2527 40.5756 24.1108C40.1191 23.7176 39.7341 23.2555 39.431 22.7373C39.2228 22.3813 38.7654 22.2615 38.4095 22.4697C38.0536 22.6779 37.9338 23.1351 38.1419 23.4911C38.3913 23.9176 38.6842 24.3142 39.0169 24.6766C37.8573 25.9399 37.2053 27.5947 37.2053 29.3266C37.2053 30.4395 37.4747 31.5209 37.975 32.4872C36.9224 32.1065 35.7387 31.7447 34.7872 31.7447C32.9055 31.7447 31.1394 32.4998 29.8461 33.8374C29.0658 33.4011 28.1898 33.1825 27.2782 33.2003C24.5385 33.2544 22.3095 35.5646 22.3095 38.3499V50.073C22.3095 50.4853 22.6437 50.8196 23.0562 50.8196C23.4686 50.8196 23.8028 50.4853 23.8028 50.073V38.3499C23.8028 36.3718 25.3751 34.7315 27.3077 34.6933C28.119 34.6756 28.8866 34.9254 29.5316 35.4111Z" fill="#134A85"/>
<path d="M49.5259 15.8091C50.4612 14.2569 51 12.44 51 10.4995C51 4.80978 46.3711 0.180786 40.6814 0.180786C37.2835 0.180786 34.2645 1.83193 32.3832 4.37365C31.5531 4.68365 30.79 5.15044 30.1369 5.74984C28.8733 4.59067 27.2183 3.93902 25.4861 3.93902C23.7539 3.93902 22.099 4.59067 20.8353 5.74984C19.5722 4.59077 17.9174 3.93902 16.1851 3.93902C14.4802 3.93902 12.8447 4.57315 11.5882 5.70126C10.3184 4.51083 8.64396 3.84146 6.88411 3.84146C3.08884 3.84146 0.00118784 6.92911 0.00118784 10.7244C-0.0321616 12.3552 0.62069 14.1703 1.76791 15.4234C0.637116 16.6807 0.00118784 18.3187 0.00118784 20.0253C0.00118784 21.7573 0.652945 23.4124 1.81201 24.6761C0.652845 25.9391 0.00118784 27.5939 0.00118784 29.3263C0.00118784 31.058 0.652746 32.7128 1.81141 33.9764C0.551702 35.3439 -0.097168 37.1484 0.013333 39.0391C0.215321 42.504 2.98173 45.2802 6.44857 45.4969C7.08739 45.5363 7.71695 45.4898 8.33057 45.3576V46.1851C8.33057 47.6843 9.55017 48.9039 11.0493 48.9039C11.7751 48.9039 12.4575 48.6211 12.9717 48.1071C13.4846 47.5927 13.7671 46.9102 13.7671 46.1851V42.1129C13.7671 41.7006 13.4329 41.3663 13.0205 41.3663C12.6081 41.3663 12.2739 41.7006 12.2739 42.1129V46.1851C12.2739 46.5121 12.1462 46.8202 11.9151 47.0519C11.6838 47.2832 11.3763 47.4106 11.0494 47.4106C10.3737 47.4106 9.82393 46.8609 9.82393 46.1851V44.3584C9.82393 44.1125 9.70288 43.8824 9.50029 43.7432C9.29781 43.604 9.03957 43.5732 8.81001 43.6612C8.08598 43.9389 7.32213 44.055 6.54145 44.0064C3.82781 43.8368 1.66229 41.664 1.5041 38.952C1.43183 37.7155 1.77548 36.5273 2.46427 35.545C2.63191 35.8993 2.86117 36.2258 3.14658 36.5112C3.29233 36.6571 3.48346 36.7299 3.6745 36.7299C3.86554 36.7299 4.05667 36.6571 4.20252 36.5112C4.4941 36.2196 4.4941 35.7469 4.20242 35.4554C3.83239 35.0854 3.62851 34.5933 3.62851 34.07C3.62851 33.5466 3.83239 33.0546 4.20242 32.6845C4.4941 32.3929 4.4941 31.9203 4.20252 31.6287C3.91093 31.3371 3.43817 31.3371 3.14668 31.6287C2.89134 31.8839 2.68168 32.1725 2.52021 32.4841C1.86019 31.5728 1.49464 30.4714 1.49464 29.3263C1.49464 27.7567 2.17836 26.2681 3.37047 25.2422C3.53523 25.1005 3.63 24.8938 3.63 24.6765C3.6301 24.4591 3.53533 24.2525 3.37067 24.1106C2.17846 23.0837 1.49464 21.5946 1.49464 20.0253C1.49464 18.4805 2.16044 17.0071 3.32159 15.983C3.48227 15.8413 3.57435 15.6372 3.57425 15.423C3.57425 15.2086 3.48207 15.0046 3.3213 14.863C2.18214 13.8791 1.46378 12.276 1.49464 10.7243C1.49464 7.75239 3.91243 5.33461 6.88431 5.33461C8.47542 5.33461 9.97794 6.03396 11.0064 7.25345C11.1466 7.4196 11.3521 7.51646 11.5694 7.51865H11.5771C11.7916 7.51865 11.996 7.42637 12.1379 7.265C13.1621 6.10016 14.6373 5.43207 16.1853 5.43207C17.7548 5.43207 19.2434 6.11579 20.2694 7.3078C20.4112 7.47256 20.6177 7.56733 20.8352 7.56733H20.8353C21.0526 7.56733 21.2592 7.47266 21.4011 7.308C22.4279 6.11579 23.917 5.43207 25.4863 5.43207C27.0556 5.43207 28.5447 6.11589 29.5716 7.308C29.954 7.69884 30.5222 7.63463 30.9654 7.02458C30.5757 8.11088 30.3628 9.28059 30.3628 10.4993C30.3628 12.4547 30.9095 14.2847 31.8581 15.8447C30.8155 15.7501 29.7699 15.7414 28.7269 15.8188C27.6589 15.8043 26.7942 14.9299 26.7942 13.8557C26.7942 13.4434 26.46 13.1091 26.0476 13.1091C25.6351 13.1091 25.3009 13.4434 25.3009 13.8557C25.3009 14.7424 25.6362 15.5519 26.186 16.1645C25.9536 16.1949 25.7195 16.2114 25.4863 16.2114C23.9175 16.2114 22.4285 15.5273 21.4011 14.3345C21.2592 14.1697 21.0526 14.075 20.8351 14.0751C20.6178 14.0751 20.4112 14.17 20.2694 14.3347C19.2428 15.5274 17.7542 16.2115 16.1853 16.2115C14.8014 16.2115 13.4799 15.6784 12.4821 14.7339C12.7398 14.2508 12.8863 13.6998 12.8863 13.1152C12.8863 12.7028 12.5521 12.3686 12.1397 12.3686C11.7272 12.3686 11.393 12.7028 11.393 13.1152C11.393 14.1955 10.5141 15.0744 9.43379 15.0744C9.02136 15.0744 8.68716 15.4087 8.68716 15.8211C8.68716 16.2334 9.02136 16.5677 9.43379 16.5677C10.0531 16.5677 10.6343 16.4029 11.1373 16.1163C12.675 19.4731 12.7116 22.0413 10.3969 24.1106C10.2323 24.2525 10.1375 24.4591 10.1376 24.6765C10.1377 24.8939 10.2324 25.1005 10.3971 25.2422C11.5899 26.2687 12.274 27.7573 12.274 29.3263C12.274 30.895 11.5899 32.384 10.397 33.4115C10.2324 33.5534 10.1377 33.76 10.1377 33.9774C10.1377 34.1948 10.2325 34.4014 10.3972 34.5431C11.59 35.5697 12.2741 37.0583 12.2741 38.6272C12.2741 39.0395 12.6083 39.3738 13.0207 39.3738C13.4331 39.3738 13.7673 39.0395 13.7673 38.6272C13.7673 36.8952 13.1153 35.2404 11.9556 33.977C13.1152 32.713 13.7673 31.0578 13.7673 29.3262C13.7673 27.5942 13.1153 25.9393 11.9556 24.676C13.1152 23.412 13.7673 21.7568 13.7673 20.0252C13.7673 19.1041 13.4258 17.9719 13.0551 16.9505C14.0136 17.4408 15.0841 17.7047 16.1854 17.7047C17.9173 17.7047 19.5722 17.0526 20.8356 15.8929C22.0996 17.0525 23.7547 17.7047 25.4864 17.7047C26.442 17.7085 27.7109 17.3671 28.8436 17.3074C30.2707 17.2022 31.703 17.2727 33.1238 17.5165C35.0094 19.5458 37.6996 20.818 40.6816 20.818C43.8649 20.818 46.7158 19.3687 48.6102 17.0956C49.1735 17.9631 49.4781 18.9761 49.4781 20.0252C49.4781 21.5945 48.7943 23.0835 47.602 24.1105C47.4374 24.2524 47.3427 24.459 47.3427 24.6764C47.3428 24.8938 47.4376 25.1004 47.6022 25.2421C48.7944 26.2681 49.4781 27.7567 49.4781 29.3262C49.4781 30.8954 48.7943 32.3845 47.602 33.4114C47.4374 33.5533 47.3427 33.7599 47.3427 33.9773C47.3427 34.1947 47.4375 34.4012 47.6022 34.543C48.8413 35.6095 49.5242 37.1583 49.4753 38.7921C49.391 41.6351 47.0975 43.9289 44.2543 44.0141C42.6211 44.0626 41.0707 43.3801 40.0042 42.141C39.8624 41.9762 39.6558 41.8815 39.4384 41.8815H39.4383C39.221 41.8815 39.0144 41.9762 38.8726 42.1408C37.8457 43.333 36.3567 44.0168 34.7873 44.0168C33.1348 44.0168 31.599 43.2665 30.5792 41.9888C30.9548 41.4363 31.1746 40.7698 31.1746 40.0528C31.1746 39.6405 30.8404 39.3062 30.428 39.3062C30.0156 39.3062 29.6814 39.6405 29.6814 40.0528C29.6814 40.5794 29.4715 41.0571 29.1324 41.4095C29.1168 41.4238 29.1024 41.4392 29.088 41.4548C28.7348 41.7991 28.2532 42.0121 27.7222 42.0121C27.3098 42.0121 26.9756 42.3464 26.9756 42.7587C26.9756 43.1711 27.3098 43.5053 27.7222 43.5053C28.1316 43.5053 28.5244 43.4334 28.889 43.302V50.0726C28.889 50.4849 29.2232 50.8192 29.6357 50.8192C30.0481 50.8192 30.3823 50.4849 30.3823 50.0726V43.9168C31.6021 44.9355 33.1505 45.5102 34.7874 45.5102C36.5192 45.5102 38.1743 44.8585 39.4379 43.6996C40.7541 44.9096 42.4864 45.5604 44.299 45.5068C47.9309 45.3979 50.8603 42.4679 50.968 38.8366C51.0221 37.0237 50.3708 35.2927 49.1608 33.9768C50.3199 32.7131 50.9714 31.0582 50.9714 29.3263C50.9714 27.5939 50.3197 25.9391 49.1606 24.6761C50.3198 23.4124 50.9714 21.7573 50.9714 20.0253C50.971 18.489 50.4608 17.013 49.5259 15.8091ZM40.6814 19.3248C35.815 19.3248 31.8559 15.3657 31.8559 10.4994C31.8559 5.63307 35.8151 1.67394 40.6814 1.67394C45.5477 1.67394 49.5067 5.63307 49.5067 10.4994C49.5067 15.3657 45.5477 19.3248 40.6814 19.3248Z" fill="#134A85"/>
<path d="M47.0561 9.50474C46.988 9.09808 46.6037 8.82342 46.1964 8.89141L45.111 9.07289C45.2659 8.54368 45.3018 7.97007 45.2043 7.39328C44.9996 6.18095 44.2438 5.1734 43.1807 4.69456C42.0416 4.1325 40.708 4.22877 39.6094 4.95319C38.7627 5.51137 38.2021 6.34083 38.017 7.26854C36.4507 7.24166 34.9844 8.23716 34.4751 9.79672C33.9088 11.5303 34.7208 13.4333 36.3636 14.2232C36.9409 14.5008 37.5663 14.6183 38.1823 14.58L37.7488 15.6351C37.5921 16.0164 37.7743 16.4527 38.1557 16.6095C38.2485 16.6476 38.3446 16.6657 38.4392 16.6657C38.733 16.6657 39.0115 16.4912 39.1301 16.2027L39.5785 15.1112C40.0068 15.5769 40.5557 15.9305 41.1822 16.1272C41.5413 16.24 41.9068 16.294 42.268 16.294C43.6543 16.2939 44.9724 15.499 45.5849 14.1895C46.1536 12.974 45.9982 11.5964 45.2851 10.558L46.4427 10.3644C46.8495 10.2964 47.1241 9.9115 47.0561 9.50474ZM44.2325 13.5566C43.7759 14.5325 42.6572 15.0251 41.6297 14.7026C40.9247 14.4811 40.3852 13.9253 40.1866 13.2158C40.073 12.7845 39.5115 12.5011 39.0804 12.7787C38.4503 13.1606 37.6766 13.1977 37.0108 12.8774C36.0397 12.4105 35.5599 11.2854 35.8946 10.2603C36.2524 9.16547 37.4013 8.5391 38.5092 8.83437C38.7404 8.89589 38.9877 8.84283 39.1733 8.69131C39.3588 8.5399 39.4606 8.30854 39.4466 8.06942C39.4038 7.33355 39.7721 6.6346 40.4316 6.19976C41.0848 5.76901 41.8687 5.70848 42.5286 6.0379C42.5387 6.04287 42.5487 6.04765 42.559 6.05223C43.1714 6.3245 43.61 6.91882 43.7321 7.64195C43.8544 8.36588 43.6361 9.0709 43.1484 9.52794C42.8112 9.83107 42.8282 10.4914 43.3042 10.7298C44.3119 11.2738 44.7195 12.5154 44.2325 13.5566Z" fill="#134A85"/>
<path d="M36.4023 6.10629C36.8147 6.10629 37.1489 5.77202 37.1489 5.35967C37.1489 4.94731 36.8147 4.61304 36.4023 4.61304C35.9899 4.61304 35.6557 4.94731 35.6557 5.35967C35.6557 5.77202 35.9899 6.10629 36.4023 6.10629Z" fill="#134A85"/>
<path d="M37.9145 11.6999C38.3269 11.6999 38.6612 11.3656 38.6612 10.9533C38.6612 10.5409 38.3269 10.2067 37.9145 10.2067C37.5022 10.2067 37.1679 10.5409 37.1679 10.9533C37.1679 11.3656 37.5022 11.6999 37.9145 11.6999Z" fill="#134A85"/>
<path d="M41.7044 8.58444C42.1168 8.58444 42.4511 8.25017 42.4511 7.83781C42.4511 7.42546 42.1168 7.09119 41.7044 7.09119C41.2921 7.09119 40.9578 7.42546 40.9578 7.83781C40.9578 8.25017 41.2921 8.58444 41.7044 8.58444Z" fill="#134A85"/>
<path d="M42.3505 13.5357C42.7628 13.5357 43.0971 13.2015 43.0971 12.7891C43.0971 12.3768 42.7628 12.0425 42.3505 12.0425C41.9381 12.0425 41.6039 12.3768 41.6039 12.7891C41.6039 13.2015 41.9381 13.5357 42.3505 13.5357Z" fill="#134A85"/>
</g>
<defs>
<clipPath id="clip0_1_203">
<rect width="51" height="51" fill="white"/>
</clipPath>
</defs>
</svg>
