<svg width="51" height="51" viewBox="0 0 51 51" fill="none" xmlns="http://www.w3.org/2000/svg">
<path d="M29.308 44.268C27.6307 44.268 25.398 43.8487 23.0973 42.2167C23.086 42.2054 23.0747 42.194 23.052 42.1827C23.0067 42.1487 18.3827 38.2727 12.0473 40.3354C11.7527 40.4374 11.4353 40.2674 11.3333 39.9727C11.2313 39.678 11.4013 39.3607 11.696 39.2587C15.334 38.08 18.4167 38.692 20.366 39.4287C22.3493 40.1654 23.5847 41.1514 23.766 41.31C27.8347 44.1887 31.6087 42.8287 31.7673 42.772C31.7787 42.7607 31.8013 42.7607 31.824 42.7494L47.7473 38.488C48.96 38.1594 49.6853 36.9014 49.368 35.6887C49.2093 35.0994 48.8353 34.612 48.3027 34.306C47.77 34 47.158 33.9207 46.5687 34.0794L33.5467 37.5474C33.2407 37.6267 32.9347 37.4454 32.8553 37.1507C32.776 36.8447 32.9573 36.5387 33.252 36.4594L46.274 32.9687C47.158 32.7307 48.076 32.8554 48.8693 33.3087C49.6627 33.762 50.2293 34.4987 50.4673 35.3827C50.9547 37.2074 49.8667 39.0774 48.0533 39.5647L32.1527 43.826C31.9373 43.9054 30.8607 44.268 29.308 44.268Z" fill="#134A85"/>
<path d="M30.09 40.12C29.41 40.12 28.73 39.95 28.1067 39.5873L19.9467 34.8726C19.6747 34.714 19.584 34.374 19.7427 34.102C19.9013 33.83 20.2413 33.7393 20.5133 33.898L28.6733 38.6126C30.0333 39.3946 31.7787 38.93 32.572 37.57C33.354 36.21 32.8893 34.4646 31.5293 33.6713C30.0787 32.8326 28.73 31.9713 27.4267 31.1326C21.4427 27.302 16.728 24.2646 8.74932 27.778C8.46598 27.9026 8.12598 27.778 8.00132 27.4833C7.87665 27.2 8.00132 26.86 8.29598 26.7353C16.83 22.984 22.0206 26.316 28.0387 30.1806C29.3307 31.008 30.668 31.8693 32.096 32.6853C34 33.7846 34.6573 36.2213 33.558 38.1253C32.81 39.3946 31.4613 40.12 30.09 40.12Z" fill="#134A85"/>
<path d="M6.06334 45.118C5.96134 45.118 5.87068 45.0953 5.78001 45.0386C5.65534 44.9593 5.55334 44.8346 5.51934 44.6986L0.498676 25.9873C0.419342 25.6813 0.600676 25.3753 0.895342 25.296L7.50268 23.528C7.65001 23.494 7.79734 23.5053 7.93334 23.5846C8.05801 23.664 8.16001 23.7886 8.19401 23.9246L13.2033 42.636C13.2827 42.942 13.1013 43.248 12.8067 43.3273L6.21068 45.1066C6.16534 45.118 6.10868 45.118 6.06334 45.118ZM1.74534 26.2366L6.46001 43.86L11.9793 42.3866L7.26468 24.7633L1.74534 26.2366Z" fill="#134A85"/>
<path d="M48.5293 29.75H28.5827C28.2653 29.75 28.016 29.5006 28.016 29.1833V26.6333C28.016 22.6326 30.2487 19.0286 33.8413 17.2153C34.102 17.0793 34.4307 17.17 34.578 17.4306C35.428 18.8473 36.9127 19.686 38.556 19.686C40.1993 19.686 41.684 18.8473 42.534 17.4306C42.6813 17.17 43.01 17.0793 43.2707 17.2153C46.8633 19.0286 49.096 22.6326 49.096 26.6333V29.1833C49.096 29.4893 48.8467 29.75 48.5293 29.75ZM29.1493 28.6166H47.974V26.6333C47.974 23.2333 46.1607 20.1393 43.214 18.462C42.1373 19.924 40.4033 20.8193 38.5673 20.8193C36.7313 20.8193 34.9973 19.924 33.9207 18.462C30.974 20.1506 29.1607 23.2333 29.1607 26.6333V28.6166H29.1493Z" fill="#134A85"/>
<path d="M38.556 17.578C35.3713 17.578 32.7873 14.994 32.7873 11.8093C32.7873 8.62465 35.3713 6.04065 38.556 6.04065C41.7407 6.04065 44.3247 8.62465 44.3247 11.8093C44.3247 14.994 41.7407 17.578 38.556 17.578ZM38.556 7.17398C36.006 7.17398 33.9207 9.24798 33.9207 11.8093C33.9207 14.3593 35.9947 16.4446 38.556 16.4446C41.1173 16.4446 43.1913 14.3706 43.1913 11.8093C43.1913 9.25932 41.1173 7.17398 38.556 7.17398Z" fill="#134A85"/>
<path d="M17.5213 22.4739C16.082 22.4739 14.9147 21.3066 14.9147 19.8673V17.5439H12.5913C11.152 17.5439 9.98468 16.3766 9.98468 14.9373C9.98468 13.4979 11.152 12.3306 12.5913 12.3306H14.9147V9.99595C14.9147 8.55662 16.082 7.38928 17.5213 7.38928C18.9607 7.38928 20.128 8.55662 20.128 9.99595V12.3193H22.4513C23.8907 12.3193 25.058 13.4866 25.058 14.9259C25.058 16.3653 23.8907 17.5326 22.4513 17.5326H20.128V19.8559C20.1393 21.3066 18.9607 22.4739 17.5213 22.4739ZM12.5913 13.4526C11.7753 13.4526 11.118 14.1213 11.118 14.9259C11.118 15.7306 11.7867 16.3993 12.5913 16.3993H15.4813C15.7987 16.3993 16.048 16.6486 16.048 16.9659V19.8559C16.048 20.6719 16.7167 21.3293 17.5213 21.3293C18.326 21.3293 18.9947 20.6606 18.9947 19.8559V16.9659C18.9947 16.6486 19.244 16.3993 19.5613 16.3993H22.4513C23.2673 16.3993 23.9247 15.7306 23.9247 14.9259C23.9247 14.1213 23.256 13.4526 22.4513 13.4526H19.5613C19.244 13.4526 18.9947 13.2033 18.9947 12.8859V9.99595C18.9947 9.17995 18.326 8.52262 17.5213 8.52262C16.7053 8.52262 16.048 9.19128 16.048 9.99595V12.8859C16.048 13.2033 15.7987 13.4526 15.4813 13.4526H12.5913Z" fill="#134A85"/>
</svg>
