<svg width="51" height="51" viewBox="0 0 51 51" fill="none" xmlns="http://www.w3.org/2000/svg">
<path fill-rule="evenodd" clip-rule="evenodd" d="M34.1028 30.3297C34.4366 30.6819 34.6167 31.1523 34.6034 31.6373C34.5902 32.1224 34.3847 32.5823 34.0322 32.9157L29.9263 36.8002V41.4162L31.4576 47.1783C31.7981 48.4593 31.0356 49.7738 29.7546 50.1142L29.7203 50.1233C28.57 50.429 27.3785 49.7963 26.9875 48.6721L25.4533 44.2605L23.9697 48.6226C23.5784 49.7733 22.3627 50.4242 21.1881 50.112C20.5752 49.9491 20.052 49.5494 19.7338 49.0008C19.4155 48.4522 19.3283 47.7996 19.4912 47.1867L21.0248 41.4162V36.7999L16.9257 32.9152C16.5738 32.5817 16.3688 32.122 16.3557 31.6373C16.3427 31.1525 16.5228 30.6825 16.8563 30.3305L16.8565 30.3304C17.5511 29.5975 18.7083 29.5664 19.4412 30.261L22.5169 33.1759H28.4362L31.5194 30.259C32.2523 29.5656 33.4086 29.5971 34.1026 30.3295L34.1028 30.3297C34.1051 30.3321 34.1045 30.3316 34.1028 30.3297ZM29.3608 48.7703L29.395 48.7612C29.9287 48.6193 30.2464 48.0716 30.1046 47.5379L28.5497 41.6874C28.5341 41.6287 28.5263 41.5683 28.5263 41.5076V36.4989C28.5263 36.3065 28.6054 36.1226 28.7452 35.9904L33.0701 31.8987C33.1527 31.8206 33.2009 31.7128 33.204 31.5992C33.2069 31.4904 33.1684 31.3847 33.0965 31.3035L33.0815 31.2874C32.9184 31.1209 32.6514 31.1153 32.4815 31.276L29.1959 34.3844C29.066 34.5073 28.8938 34.5759 28.7149 34.5759H22.2379C22.0588 34.5759 21.8865 34.5072 21.7564 34.3839L18.4782 31.2771C18.3065 31.1144 18.0354 31.1217 17.8727 31.2934L17.8725 31.2935C17.7943 31.376 17.7522 31.4861 17.7552 31.5997C17.7583 31.7132 17.8063 31.8209 17.8888 31.8991L22.2063 35.9908C22.3458 36.123 22.4248 36.3067 22.4248 36.4989V41.5076C22.4248 41.5683 22.4169 41.6287 22.4013 41.6874L20.8442 47.5462C20.7767 47.8004 20.8128 48.0709 20.9448 48.2983C21.0767 48.5257 21.2936 48.6914 21.5477 48.759C22.0107 48.882 22.49 48.6255 22.6443 48.1719L24.7834 41.8823C25.0621 41.09 25.8681 41.1913 26.1069 41.8779L26.1071 41.8783L28.3099 48.2122C28.4602 48.6445 28.9184 48.8879 29.3608 48.7703ZM26.1071 41.8783C26.1589 42.0273 26.1668 42.0545 26.1071 41.8783V41.8783ZM25.4796 25.9923C27.4463 25.9923 29.0431 27.5891 29.0431 29.5558C29.0431 31.5226 27.4463 33.1193 25.4796 33.1193C23.5129 33.1193 21.9161 31.5226 21.9161 29.5558C21.9161 27.5891 23.5129 25.9923 25.4796 25.9923ZM25.4796 27.3923C24.2855 27.3923 23.3161 28.3618 23.3161 29.5558C23.3161 30.7499 24.2855 31.7193 25.4796 31.7193C26.6737 31.7193 27.6431 30.7499 27.6431 29.5558C27.6431 28.3618 26.6737 27.3923 25.4796 27.3923ZM10.6872 12.8082C15.6539 12.8082 19.6862 16.8405 19.6862 21.8072C19.6862 26.7738 15.6539 30.8062 10.6872 30.8062C5.7205 30.8062 1.6882 26.7738 1.6882 21.8072C1.6882 16.8405 5.7205 12.8082 10.6872 12.8082ZM10.6872 14.2082C6.4932 14.2082 3.0882 17.6132 3.0882 21.8072C3.0882 26.0012 6.4932 29.4062 10.6872 29.4062C14.8812 29.4062 18.2862 26.0012 18.2862 21.8072C18.2862 17.6132 14.8812 14.2082 10.6872 14.2082ZM5.4767 22.008C5.1893 21.3888 5.0307 20.7688 5.0307 20.1521C5.0307 18.5681 6.4334 17.2403 8.2088 17.2403C9.3476 17.2403 10.0748 17.6043 10.6873 18.344C11.2995 17.6043 12.0267 17.2403 13.1656 17.2403C14.941 17.2403 16.3437 18.5681 16.3437 20.1521C16.3437 20.7773 16.1807 21.4059 15.8856 22.0337C15.8738 22.0635 15.8599 22.0924 15.8442 22.12C15.6771 22.4616 15.4713 22.8028 15.2319 23.143C14.2944 24.4751 12.8294 25.8121 11.338 27.1434C10.9655 27.4766 10.4089 27.4766 10.0369 27.1439C8.545 25.8121 7.0799 24.4751 6.1424 23.143C5.8973 22.7946 5.6874 22.4452 5.5182 22.0955C5.5024 22.0675 5.4886 22.0382 5.4767 22.008ZM14.7734 21.0755C14.8827 20.7683 14.9437 20.461 14.9437 20.1521C14.9437 19.2944 14.1269 18.6403 13.1656 18.6403C12.361 18.6403 11.9147 18.9655 11.5064 19.5943L11.5056 19.5955C11.3197 19.8805 11.0262 20.0389 10.6875 20.0389C10.3455 20.0389 10.0518 19.8784 9.8688 19.5946C9.4598 18.9656 9.0136 18.6403 8.2088 18.6403C7.2474 18.6403 6.4307 19.2944 6.4307 20.1521C6.4307 20.4535 6.4888 20.7535 6.5931 21.0532H8.1744L8.4969 20.3036C8.6061 20.05 8.8541 19.8842 9.1302 19.8804C9.4063 19.8765 9.6589 20.0354 9.775 20.2859L10.3138 21.448L10.6563 22.1253L10.9506 21.4836C11.0526 21.2612 11.2633 21.1082 11.5064 21.0801C11.7494 21.052 11.9895 21.1528 12.1396 21.346L12.2613 21.5026L12.3796 21.3488C12.5121 21.1764 12.7171 21.0755 12.9345 21.0755H14.7734ZM7.3704 22.4532C8.1957 23.5861 9.4218 24.7151 10.6872 25.8474C11.9443 24.7225 13.1626 23.6009 13.9877 22.4755C13.6034 22.4755 13.2793 22.4755 13.2793 22.4755L12.8191 23.0739C12.687 23.2457 12.4827 23.3467 12.266 23.3472C12.0656 23.3477 11.8755 23.2624 11.7429 23.1144L11.3234 24.029C11.2114 24.2733 10.9693 24.4319 10.7006 24.437C10.4318 24.4422 10.1839 24.293 10.0625 24.0531L9.143 22.2351C9.0132 22.3719 8.8308 22.4532 8.6353 22.4532H7.3704ZM40.3128 12.8082C45.2795 12.8082 49.3118 16.8405 49.3118 21.8072C49.3118 26.7738 45.2795 30.8062 40.3128 30.8062C35.3461 30.8062 31.3138 26.7738 31.3138 21.8072C31.3138 16.8405 35.3461 12.8082 40.3128 12.8082ZM40.3128 14.2082C36.1188 14.2082 32.7138 17.6132 32.7138 21.8072C32.7138 26.0012 36.1188 29.4062 40.3128 29.4062C44.5068 29.4062 47.9118 26.0012 47.9118 21.8072C47.9118 17.6132 44.5068 14.2082 40.3128 14.2082ZM34.4114 22.9034H33.9041C33.5175 22.9034 33.2041 22.59 33.2041 22.2034V21.4109C33.2041 21.0243 33.5175 20.7109 33.9041 20.7109H34.4114V20.5007C34.4114 20.0089 34.6068 19.5372 34.9546 19.1894C35.3024 18.8416 35.7741 18.6462 36.2659 18.6462C36.7578 18.6462 37.2295 18.8416 37.5773 19.1894C37.9251 19.5372 38.1205 20.0089 38.1205 20.5007V20.7109H42.5052V20.5007C42.5052 20.0089 42.7006 19.5372 43.0484 19.1894C43.3962 18.8416 43.8679 18.6462 44.3597 18.6462C44.8516 18.6462 45.3233 18.8416 45.6711 19.1894C46.0189 19.5372 46.2142 20.0089 46.2142 20.5007V20.7109H46.5177C46.5968 20.7109 46.6752 20.7127 46.7525 20.7161C47.1267 20.7327 47.4215 21.0409 47.4215 21.4154V22.1989C47.4215 22.5735 47.1267 22.8817 46.7525 22.8982C46.6752 22.9016 46.5968 22.9034 46.5177 22.9034H46.2142V23.1136C46.2142 23.6055 46.0189 24.0772 45.6711 24.4249C45.3233 24.7727 44.8516 24.9681 44.3597 24.9681C43.8679 24.9681 43.3962 24.7727 43.0484 24.4249C42.7006 24.0772 42.5052 23.6055 42.5052 23.1136V22.9034H38.1205V23.1136C38.1205 23.6055 37.9251 24.0772 37.5773 24.4249C37.2295 24.7727 36.7578 24.9681 36.2659 24.9681C35.7741 24.9681 35.3024 24.7727 34.9546 24.4249C34.6068 24.0772 34.4114 23.6055 34.4114 23.1136V22.9034ZM36.7205 23.1136V20.5007C36.7205 20.3802 36.6726 20.2646 36.5873 20.1793C36.5021 20.0941 36.3865 20.0462 36.2659 20.0462C36.1454 20.0462 36.0298 20.0941 35.9445 20.1793C35.8593 20.2646 35.8114 20.3802 35.8114 20.5007V23.1136C35.8114 23.2342 35.8593 23.3498 35.9445 23.435C36.0298 23.5202 36.1454 23.5681 36.2659 23.5681C36.3865 23.5681 36.5021 23.5202 36.5873 23.435C36.6726 23.3498 36.7205 23.2342 36.7205 23.1136ZM44.8142 23.1136V20.5007C44.8142 20.3802 44.7664 20.2646 44.6811 20.1793C44.5959 20.0941 44.4803 20.0462 44.3597 20.0462C44.2392 20.0462 44.1236 20.0941 44.0383 20.1793C43.9531 20.2646 43.9052 20.3802 43.9052 20.5007V23.1136C43.9052 23.2342 43.9531 23.3498 44.0383 23.435C44.1236 23.5202 44.2392 23.5681 44.3597 23.5681C44.4803 23.5681 44.5959 23.5202 44.6811 23.435C44.7664 23.3498 44.8142 23.2342 44.8142 23.1136ZM25.4796 0.799896C30.4463 0.799896 34.4786 4.8322 34.4786 9.7989C34.4786 14.7656 30.4463 18.7979 25.4796 18.7979C20.5129 18.7979 16.4806 14.7656 16.4806 9.7989C16.4806 4.8322 20.5129 0.799896 25.4796 0.799896ZM25.4796 2.1999C21.2856 2.1999 17.8806 5.6049 17.8806 9.7989C17.8806 13.9929 21.2856 17.3979 25.4796 17.3979C29.6736 17.3979 33.0786 13.9929 33.0786 9.7989C33.0786 5.6049 29.6736 2.1999 25.4796 2.1999ZM26.8058 6.4302C26.911 6.421 27.0173 6.4164 27.1246 6.4164C29.3039 6.4164 31.1145 8.3596 31.1145 10.7989C31.1145 13.2383 29.3039 15.1815 27.1246 15.1815C26.5392 15.1815 25.9824 15.0431 25.4796 14.7929C24.9768 15.0431 24.42 15.1815 23.8346 15.1815C21.6553 15.1815 19.8447 13.2383 19.8447 10.7989C19.8447 8.3596 21.6553 6.4164 23.8346 6.4164C24.3428 6.4164 24.8295 6.5207 25.2779 6.7119C25.362 6.5587 25.4112 6.4046 25.4151 6.2456C25.4225 5.9484 25.2619 5.6607 24.971 5.3533C24.7056 5.0726 24.7179 4.6292 24.9986 4.3637C25.2793 4.0982 25.7227 4.1105 25.9881 4.3912C26.5897 5.0273 26.8299 5.6654 26.8147 6.2802C26.8135 6.3301 26.8105 6.3801 26.8058 6.4302ZM25.0989 8.1971C24.7267 7.956 24.2952 7.8164 23.8346 7.8164C22.3821 7.8164 21.2447 9.1731 21.2447 10.7989C21.2447 12.4247 22.3821 13.7815 23.8346 13.7815C24.2952 13.7815 24.7268 13.6419 25.0989 13.4007C25.3305 13.2506 25.6287 13.2506 25.8603 13.4007C26.2324 13.6419 26.664 13.7815 27.1246 13.7815C28.577 13.7815 29.7145 12.4247 29.7145 10.7989C29.7145 9.1731 28.577 7.8164 27.1246 7.8164C26.6681 7.8164 26.2401 7.9534 25.8703 8.1907C25.8218 8.2233 25.7699 8.2493 25.7162 8.2685C25.564 8.3232 25.3972 8.3234 25.245 8.2693C25.1943 8.2513 25.1452 8.2272 25.0989 8.1971Z" fill="#134A85"/>
</svg>
