<svg width="51" height="51" viewBox="0 0 51 51" fill="none" xmlns="http://www.w3.org/2000/svg">
<path d="M43.4124 35.646C44.8488 34.3666 45.7599 32.5097 45.7599 30.4395C45.7599 26.5913 42.6291 23.4601 38.7804 23.4601C34.9317 23.4601 31.801 26.5913 31.801 30.4395C31.801 32.5097 32.7121 34.3666 34.1484 35.646C29.7994 36.7204 26.5608 40.6445 26.5608 45.321V49.7535C26.5608 50.3267 27.0251 50.7905 27.5978 50.7905H49.963C50.5357 50.7905 51 50.3267 51 49.7535V45.321C51 40.6445 47.7614 36.7204 43.4124 35.646ZM33.8749 30.4395C33.8749 27.7346 36.0755 25.5341 38.7804 25.5341C41.4853 25.5341 43.6859 27.7346 43.6859 30.4395C43.6859 33.1444 41.4853 35.345 38.7804 35.345C36.0755 35.345 33.8749 33.1444 33.8749 30.4395ZM48.926 48.7165H28.6348V45.321C28.6348 40.9634 32.1792 37.419 36.5363 37.419H41.0245C45.3816 37.419 48.926 40.9634 48.926 45.321V48.7165Z" fill="#134A85"/>
<path d="M16.8516 12.1859C18.288 10.9065 19.1991 9.04957 19.1991 6.97945C19.1991 3.13123 16.0683 0 12.2196 0C8.37088 0 5.24016 3.13123 5.24016 6.97945C5.24016 9.04957 6.15126 10.9065 7.58763 12.1859C3.23864 13.2603 0 17.1844 0 21.8609V26.2934C0 26.8666 0.464318 27.3304 1.03699 27.3304H23.4022C23.9749 27.3304 24.4392 26.8666 24.4392 26.2934V21.8609C24.4392 17.1844 21.2006 13.2603 16.8516 12.1859ZM7.31414 6.97945C7.31414 4.27456 9.51471 2.07399 12.2196 2.07399C14.9245 2.07399 17.1251 4.27456 17.1251 6.97945C17.1251 9.68434 14.9245 11.8849 12.2196 11.8849C9.51471 11.8849 7.31414 9.68434 7.31414 6.97945ZM13.3263 13.9589L13.048 15.4769H11.3912L11.1129 13.9589H13.3263ZM8.52253 25.2564H2.07399V21.8609C2.07399 17.8286 5.11085 14.4988 9.01634 14.0231L9.47946 16.5505L8.52253 25.2564ZM10.6093 25.2564L11.4563 17.5509H12.9829L13.8299 25.2564H10.6093ZM22.3652 25.2564H15.9167L14.9597 16.5505L15.4229 14.0231C19.3284 14.4988 22.3652 17.8286 22.3652 21.8609V25.2564Z" fill="#134A85"/>
<path d="M37.1388 16.8038L35.5687 14.9716C35.197 14.5352 34.5428 14.4866 34.1063 14.8582C33.6719 15.2309 33.6213 15.8861 33.9939 16.3205L37.3885 20.2822C37.5854 20.512 37.873 20.6447 38.1758 20.6447C38.4786 20.6447 38.7662 20.512 38.9632 20.2822L42.3577 16.3205C42.7304 15.8861 42.6798 15.2309 42.2453 14.8582C41.8099 14.4866 41.1567 14.5352 40.783 14.9716L39.2128 16.8038V10.292C39.2128 9.71882 38.7485 9.255 38.1758 9.255H24.8696C24.2969 9.255 23.8326 9.71882 23.8326 10.292C23.8326 10.8652 24.2969 11.329 24.8696 11.329H37.1388V16.8038Z" fill="#134A85"/>
<path d="M23.3111 39.8959H11.0418V34.4221L12.612 36.2542C12.8171 36.4942 13.1077 36.6168 13.3999 36.6168C13.6384 36.6168 13.8784 36.5347 14.0743 36.3677C14.5088 35.995 14.5594 35.3398 14.1867 34.9053L10.7922 30.9437C10.3983 30.4839 9.61142 30.4839 9.21749 30.9437L5.82296 34.9053C5.45029 35.3398 5.50092 35.995 5.93536 36.3677C6.37082 36.7393 7.02451 36.6907 7.39769 36.2542L8.96786 34.4221V40.9329C8.96786 41.506 9.43218 41.9698 10.0049 41.9698H23.3111C23.8837 41.9698 24.3481 41.506 24.3481 40.9329C24.3481 40.3597 23.8837 39.8959 23.3111 39.8959Z" fill="#134A85"/>
</svg>
