<svg width="51" height="51" viewBox="0 0 51 51" fill="none" xmlns="http://www.w3.org/2000/svg">
<g clip-path="url(#clip0_27_123)">
<path d="M45.5613 39.7281C45.3661 38.6085 45.1629 37.453 45.0394 36.3175C44.7417 33.4938 44.0718 30.7219 43.0472 28.0738C42.1339 25.6318 40.9526 23.2987 39.525 21.1171H40.8518C41.0631 21.1171 41.2658 21.0331 41.4153 20.8837C41.5647 20.7343 41.6487 20.5316 41.6487 20.3202C41.6487 20.1089 41.5647 19.9062 41.4153 19.7568C41.2658 19.6073 41.0631 19.5234 40.8518 19.5234H38.3576C38.2819 19.4277 38.2062 19.3241 38.1305 19.2325C37.8237 18.858 37.5049 18.4994 37.1782 18.1567C37.8537 17.8232 38.4512 17.3507 38.9313 16.7702C39.0435 16.5926 39.0812 16.378 39.036 16.1729C38.9908 15.9678 38.8665 15.7889 38.6901 15.6749C38.5137 15.561 38.2994 15.5213 38.0939 15.5645C37.8884 15.6077 37.7082 15.7302 37.5926 15.9055C37.1147 16.3557 36.5653 16.7233 35.9669 16.9933C35.4287 16.5262 34.8604 16.095 34.2656 15.7023C35.0064 15.2245 35.8113 14.8542 36.6562 14.6027C36.8217 14.5601 36.9692 14.4655 37.0768 14.3328C37.1844 14.2 37.2465 14.0362 37.2539 13.8655L37.4531 8.8014C37.4587 8.68783 37.4398 8.57438 37.3979 8.46869C37.356 8.363 37.2919 8.2675 37.21 8.18862C37.1281 8.10974 37.0303 8.0493 36.9231 8.01136C36.8159 7.97342 36.7018 7.95887 36.5885 7.96867C34.6677 8.18084 32.7973 8.71986 31.0582 9.56242C31.0151 8.29725 30.4721 7.10081 29.5481 6.23546C28.6284 5.45886 27.4947 4.97955 26.2969 4.86085C26.5758 3.76117 27.4922 2.1714 28.1536 1.27492C28.2783 1.10161 28.329 0.885876 28.2947 0.675161C28.2603 0.464447 28.1436 0.276016 27.9703 0.151323C27.797 0.0266301 27.5813 -0.0241119 27.3706 0.01026C27.1598 0.0446319 26.9714 0.161302 26.8467 0.334605C26.6395 0.633433 25.0338 2.94039 24.7031 4.78117C24.3765 4.79144 24.0506 4.81937 23.727 4.86484C23.8221 3.84266 24.079 2.84208 24.488 1.90046C24.5601 1.70868 24.5557 1.49645 24.4755 1.30788C24.3953 1.11931 24.2455 0.968888 24.0573 0.887857C23.869 0.806826 23.6569 0.801417 23.4647 0.872755C23.2726 0.944092 23.1154 1.08669 23.0257 1.27093C22.9102 1.5339 21.9898 3.74125 22.1491 5.36289C21.8248 5.49786 21.5082 5.65083 21.2009 5.82109C21.0335 3.21531 19.4955 0.525855 19.4198 0.398355C19.3096 0.224903 19.1366 0.100762 18.9369 0.0518641C18.7373 0.00296583 18.5265 0.0330917 18.3486 0.135949C18.1706 0.238806 18.0393 0.406439 17.982 0.603832C17.9248 0.801225 17.946 1.01311 18.0412 1.19523C18.0412 1.2271 19.8302 4.31101 19.5792 6.68968C19.5672 6.76892 19.5672 6.84951 19.5792 6.92874C17.6787 8.55437 16.583 10.7537 15.9574 12.6583C15.9594 11.0259 16.1034 9.39679 16.3877 7.78937C16.5522 7.67458 16.6876 7.52293 16.7831 7.34653C16.8785 7.17012 16.9314 6.97384 16.9376 6.77335C16.9376 6.1757 16.5391 4.78117 12.8297 4.78117H12.75C10.7578 4.78117 9.35133 5.60992 9.35133 6.77335C9.35575 6.97345 9.40076 7.17056 9.48363 7.35274C9.56651 7.53492 9.68551 7.69838 9.83344 7.8332C10.1163 9.61421 10.5705 13.7619 9.39515 17.2762C9.35727 17.3764 9.34 17.4833 9.34439 17.5904C9.34877 17.6975 9.37472 17.8026 9.42068 17.8995C9.46663 17.9963 9.53166 18.0829 9.61185 18.154C9.69205 18.2251 9.78577 18.2793 9.8874 18.3134C9.98904 18.3475 10.0965 18.3607 10.2034 18.3522C10.3102 18.3438 10.4143 18.3139 10.5093 18.2643C10.6043 18.2147 10.6884 18.1464 10.7564 18.0636C10.8244 17.9807 10.8751 17.885 10.9052 17.7822C11.997 14.515 11.8256 10.8653 11.5587 8.64999C11.951 8.7275 12.3501 8.7662 12.75 8.76554C13.39 8.75084 14.0268 8.67074 14.6505 8.52648C14.3119 10.8932 14.0609 14.6345 15.1008 17.822C15.1633 18.014 15.2964 18.1751 15.4732 18.2728C15.65 18.3704 15.8572 18.3973 16.053 18.348C16.0809 18.348 18.9935 17.6308 21.0654 18.9137C21.5714 19.2454 22.0033 19.6782 22.3338 20.185C22.6643 20.6917 22.8863 21.2614 22.9859 21.8582C22.9859 21.902 24.0616 26.3207 19.3999 29.7473C18.3529 30.4787 17.3919 31.3262 16.5352 32.2734C15.7267 33.26 15.1055 34.3862 14.7023 35.5963C14.5717 36.0699 14.2924 36.4889 13.9055 36.7916C13.7269 36.9052 13.6007 37.0851 13.5548 37.2917C13.5088 37.4983 13.5468 37.7147 13.6604 37.8933C13.774 38.0719 13.9539 38.198 14.1605 38.244C14.3671 38.29 14.5835 38.252 14.7621 38.1384C15.4401 37.6595 15.9393 36.9683 16.1805 36.1741C16.32 35.7995 16.4634 35.4529 16.6148 35.1222C16.6829 35.2935 16.7628 35.4599 16.8539 35.6202C16.9762 35.8297 17.1162 36.0283 17.2723 36.2139C17.3918 36.9351 17.9815 39.8516 19.8661 41.282C20.0346 41.4099 20.2471 41.4656 20.4567 41.4368C20.6663 41.408 20.8558 41.2972 20.9837 41.1286C21.1116 40.9601 21.1672 40.7476 21.1385 40.5381C21.1097 40.3285 20.9989 40.1389 20.8303 40.011C20.1265 39.3985 19.6042 38.6047 19.3202 37.716C20.0996 38.0583 20.9168 38.3071 21.7547 38.4571C21.8575 38.4767 21.9632 38.4759 22.0657 38.4547C22.1682 38.4335 22.2655 38.3923 22.3521 38.3334C22.4386 38.2746 22.5128 38.1993 22.5703 38.1118C22.6277 38.0243 22.6674 37.9264 22.687 37.8236C22.7066 37.7208 22.7058 37.6151 22.6846 37.5126C22.6634 37.4101 22.6222 37.3128 22.5634 37.2262C22.5045 37.1396 22.4292 37.0655 22.3418 37.008C22.2543 36.9505 22.1563 36.9109 22.0535 36.8912C20.1291 36.5247 18.8142 35.8155 18.2484 34.8473C17.9351 34.3052 17.8396 33.6642 17.9815 33.0543C18.7022 32.3095 19.4905 31.6332 20.3362 31.0342C20.7972 30.6973 21.2351 30.3299 21.6471 29.9345C21.7339 30.2895 21.8679 30.6312 22.0455 30.9505C22.7189 32.1259 23.9541 32.9826 25.7152 33.5244C25.7152 33.5484 27.5002 36.0824 27.1615 38.1144C27.1422 38.221 27.1449 38.3304 27.1693 38.4359C27.1938 38.5414 27.2395 38.6408 27.3036 38.728C27.3677 38.8153 27.449 38.8885 27.5424 38.9434C27.6358 38.9982 27.7393 39.0334 27.8468 39.0468H27.9783C28.1687 39.0494 28.3538 38.9837 28.4999 38.8617C28.6461 38.7396 28.7437 38.5692 28.7752 38.3814C29.0381 36.7877 28.4205 35.1182 27.8548 33.9986C28.317 34.0584 28.7791 34.0982 29.2294 34.138C31.2694 34.3094 32.883 34.4448 33.8951 36.186C34.3937 37.1651 34.7774 38.1986 35.0386 39.2659C35.7598 41.7721 36.5965 44.6249 39.6605 45.4218C39.8655 45.4746 40.0831 45.4439 40.2654 45.3363C40.4477 45.2287 40.5798 45.053 40.6327 44.848C40.6855 44.643 40.6547 44.4254 40.5471 44.2431C40.4395 44.0608 40.2639 43.9287 40.0589 43.8759C37.8795 43.33 37.242 41.1386 36.5686 38.8197C36.2948 37.7599 35.924 36.7276 35.4609 35.7358C35.9453 35.8308 36.4376 35.8802 36.9312 35.8832C37.4712 35.889 38.0088 35.8111 38.5249 35.6521C38.6246 35.6202 38.717 35.569 38.7969 35.5013C38.8768 35.4337 38.9425 35.351 38.9904 35.2579C39.0384 35.1649 39.0675 35.0633 39.0761 34.959C39.0848 34.8547 39.0728 34.7497 39.0409 34.65C39.009 34.5504 38.9577 34.4579 38.8901 34.3781C38.8225 34.2982 38.7398 34.2324 38.6467 34.1845C38.5537 34.1366 38.4521 34.1075 38.3478 34.0988C38.2435 34.0902 38.1385 34.1021 38.0388 34.1341C36.0984 34.7556 33.3691 33.3691 33.3293 33.3372C33.2219 33.2821 33.1033 33.2521 32.9827 33.2495C31.8352 32.7276 30.5562 32.62 29.3648 32.5204C28.6904 32.4766 28.0187 32.3968 27.3527 32.2813C25.4044 31.8829 24.0656 31.1737 23.4799 30.1736C23.3793 29.9979 23.3003 29.8105 23.2448 29.6158C24.3817 30.0946 25.5977 30.358 26.8308 30.3927C27.3708 30.3985 27.9084 30.3206 28.4245 30.1616C28.6248 30.0908 28.7887 29.9434 28.8802 29.7517C28.9718 29.5601 28.9834 29.3399 28.9126 29.1396C28.8418 28.9394 28.6944 28.7755 28.5027 28.6839C28.311 28.5924 28.0909 28.5808 27.8906 28.6516C26.1813 29.2054 23.8345 28.1694 23.3086 27.9184C24.5334 26.0155 24.9786 23.7141 24.5517 21.4916C24.3392 20.4226 23.8548 19.4263 23.1452 18.599C23.3205 18.081 23.7628 17.1009 24.3884 16.802C24.5784 16.715 24.7267 16.5569 24.8012 16.3616C24.8757 16.1663 24.8705 15.9496 24.7868 15.7581L24.3884 14.8816L25.6793 13.5468L26.3447 13.9771C26.4939 14.0733 26.671 14.117 26.8478 14.1011C27.0247 14.0852 27.1912 14.0107 27.3209 13.8894C27.3607 13.8536 30.9626 10.5187 35.8235 9.6939L35.6681 13.2798C33.8911 13.9452 28.564 16.5351 27.5719 23.8305C27.5503 24.0364 27.6098 24.2427 27.7377 24.4056C27.8656 24.5685 28.052 24.6752 28.2572 24.703H28.3648C28.5587 24.7048 28.7467 24.6358 28.8934 24.5089C29.0401 24.382 29.1355 24.2059 29.1616 24.0137C29.234 23.4405 29.3418 22.8723 29.4844 22.3124L29.8828 22.7945C30.7155 23.7866 31.5722 24.8106 32.9348 25.4003C33.6175 25.7156 34.3584 25.8852 35.1103 25.8984C35.6562 25.8885 36.1946 25.7691 36.6935 25.5474C37.1924 25.3256 37.6418 25.006 38.0149 24.6074C38.0957 24.5361 38.1613 24.4492 38.2075 24.3518C38.2538 24.2545 38.2798 24.1488 38.284 24.0411C38.2882 23.9334 38.2706 23.826 38.2321 23.7253C38.1936 23.6246 38.1351 23.5328 38.0601 23.4554C37.9851 23.378 37.8952 23.3166 37.7958 23.2749C37.6965 23.2333 37.5896 23.2122 37.4819 23.213C37.3741 23.2138 37.2676 23.2364 37.1689 23.2796C37.0701 23.3227 36.9811 23.3854 36.9073 23.4639C35.9152 24.4241 35.0147 24.5516 33.5923 23.9341C32.5802 23.5077 31.875 22.6551 31.1299 21.7666C30.8032 21.3681 30.4605 20.9697 30.086 20.5912C30.7145 19.1091 31.6676 17.787 32.8751 16.7223C34.4078 17.6547 35.7679 18.845 36.8953 20.2405C38.6962 22.4439 40.1744 25.1134 41.5451 28.6476C42.5242 31.1657 43.166 33.8024 43.4536 36.4888C43.5851 37.6841 43.7883 38.8555 43.9875 39.9991C44.2954 41.5666 44.5083 43.1513 44.625 44.7444C44.695 45.585 44.6058 46.4312 44.362 47.2387C43.3659 50.0955 39.1823 49.6293 35.8793 48.7049C33.2496 47.9877 28.1695 47.41 27.7392 47.3622C21.5873 46.3422 13.9971 40.1385 13.9055 40.0668C4.66969 32.7953 8.88515 24.1293 9.0764 23.7587C9.17257 23.5701 9.18986 23.351 9.12448 23.1496C9.0591 22.9483 8.9164 22.7811 8.72777 22.685C8.53915 22.5888 8.32005 22.5715 8.11867 22.6369C7.9173 22.7023 7.75014 22.845 7.65398 23.0336C7.5171 23.3181 7.39476 23.6093 7.28742 23.9062C7.24896 23.9034 7.21034 23.9034 7.17187 23.9062C6.29929 23.9062 4.12781 22.5993 2.86078 21.6709C2.69029 21.5532 2.48068 21.5066 2.27636 21.5408C2.07205 21.5751 1.8891 21.6875 1.7663 21.8544C1.6435 22.0212 1.5905 22.2293 1.61854 22.4346C1.64657 22.6398 1.75344 22.8261 1.91648 22.9539C2.45836 23.3523 5.10398 25.233 6.82523 25.472C6.73359 25.8705 6.64594 26.2689 6.5782 26.7231C6.46022 26.6959 6.33759 26.6959 6.21961 26.7231L2.23523 27.52C2.05209 27.5684 1.89218 27.6804 1.78416 27.836C1.67615 27.9916 1.62709 28.1806 1.6458 28.3691C1.6645 28.5576 1.74975 28.7333 1.88624 28.8646C2.02273 28.996 2.20155 29.0744 2.39062 29.0859C2.4423 29.0909 2.49434 29.0909 2.54601 29.0859L6.42281 28.289C6.26371 31.2946 7.06617 34.2728 8.71383 36.7916C8.57836 37.8794 8.00859 42.4534 7.61015 44.6687C7.55328 44.9727 7.55929 45.285 7.62782 45.5866C7.69635 45.8881 7.82594 46.1724 8.00859 46.4219C8.19732 46.6763 8.43603 46.8896 8.71008 47.0485C8.98413 47.2075 9.28775 47.3088 9.60234 47.3462L12.9452 47.8124C13.0562 47.8277 13.168 47.8357 13.2799 47.8363C13.8613 47.8414 14.4266 47.6461 14.8809 47.2832C15.3351 46.9204 15.6506 46.4122 15.7741 45.8441L16.1287 43.7205C19.0453 45.7127 23.4759 48.3105 27.5002 48.9679H27.54C27.5918 48.9679 32.887 49.5616 35.453 50.2628C37.0378 50.7217 38.6762 50.9696 40.3259 50.9999C43.856 50.9999 45.2984 49.3783 45.8602 47.7606C46.1725 46.7603 46.2915 45.7096 46.2108 44.6648C46.0949 43.0075 45.878 41.3589 45.5613 39.7281ZM11.0407 6.77335C11.5627 6.48519 12.1544 6.34728 12.75 6.37492H12.8098C13.5911 6.33149 14.3731 6.44669 15.1087 6.71359C14.3583 7.01344 13.5581 7.16889 12.75 7.17179C12.1545 7.19757 11.5634 7.05977 11.0407 6.77335ZM26.6953 12.3037L25.9861 11.8455C25.8312 11.7457 25.6465 11.7026 25.4634 11.7237C25.2803 11.7448 25.1102 11.8286 24.982 11.961L22.8504 14.1644C22.742 14.2805 22.6709 14.4264 22.646 14.5833C22.6212 14.7402 22.6438 14.901 22.7109 15.0449L23.0536 15.8059C22.537 16.2879 22.1295 16.8748 21.8583 17.5272C20.0972 16.4673 17.9934 16.4873 16.7503 16.6267C16.8459 15.4912 17.6986 8.00054 23.9421 6.45062C24.7908 6.31117 27.1734 6.2275 28.4803 7.41085C29.2015 8.06429 29.5362 9.06835 29.4804 10.3872C28.5018 10.9498 27.5704 11.5907 26.6953 12.3037ZM14.1923 45.5334C14.1324 45.7555 13.993 45.948 13.8006 46.0743C13.6082 46.2006 13.3762 46.252 13.1484 46.2187L9.80555 45.7764C9.70413 45.7668 9.60579 45.7363 9.51667 45.6869C9.42755 45.6376 9.34956 45.5704 9.28758 45.4895C9.23396 45.4134 9.19641 45.3272 9.17723 45.2361C9.15805 45.1449 9.15764 45.0509 9.17601 44.9596C9.47086 43.318 9.84937 40.5011 10.0884 38.6324C10.9375 39.6136 11.8795 40.5103 12.9014 41.3099C12.9891 41.3816 13.6425 41.9155 14.6784 42.6726L14.1923 45.5334Z" fill="#134A85"/>
<path d="M9.22383 21.5195C9.66393 21.5195 10.0207 21.1628 10.0207 20.7227C10.0207 20.2826 9.66393 19.9258 9.22383 19.9258C8.78373 19.9258 8.42696 20.2826 8.42696 20.7227C8.42696 21.1628 8.78373 21.5195 9.22383 21.5195Z" fill="#134A85"/>
<path d="M15.1446 29.4883C15.5847 29.4883 15.9415 29.1315 15.9415 28.6914C15.9415 28.2513 15.5847 27.8945 15.1446 27.8945C14.7045 27.8945 14.3477 28.2513 14.3477 28.6914C14.3477 29.1315 14.7045 29.4883 15.1446 29.4883Z" fill="#134A85"/>
<path d="M40.6486 40.6445C41.0887 40.6445 41.4455 40.2878 41.4455 39.8477C41.4455 39.4076 41.0887 39.0508 40.6486 39.0508C40.2085 39.0508 39.8517 39.4076 39.8517 39.8477C39.8517 40.2878 40.2085 40.6445 40.6486 40.6445Z" fill="#134A85"/>
<path d="M14.0649 21.3284C14.1449 21.2609 14.2109 21.1783 14.259 21.0853C14.3071 20.9923 14.3365 20.8907 14.3454 20.7864C14.3542 20.682 14.3425 20.577 14.3108 20.4772C14.279 20.3774 14.228 20.2848 14.1605 20.2048C14.093 20.1247 14.0104 20.0587 13.9174 20.0106C13.8244 19.9625 13.7228 19.9331 13.6185 19.9243C13.5141 19.9154 13.4091 19.9271 13.3093 19.9589C13.2095 19.9906 13.1169 20.0417 13.0369 20.1092C12.0759 20.8845 11.4314 21.9843 11.2245 23.2016C11.0176 24.4189 11.2625 25.6699 11.9133 26.7192C11.9604 26.8209 12.0284 26.9116 12.113 26.9852C12.1975 27.0588 12.2966 27.1138 12.4038 27.1465C12.511 27.1792 12.6239 27.189 12.7352 27.1751C12.8464 27.1612 12.9534 27.124 13.0493 27.0659C13.1452 27.0078 13.2277 26.9301 13.2915 26.838C13.3553 26.7458 13.399 26.6412 13.4196 26.531C13.4403 26.4209 13.4374 26.3076 13.4113 26.1986C13.3852 26.0896 13.3363 25.9873 13.268 25.8984C13.2042 25.7749 11.7181 23.3086 14.0649 21.3284Z" fill="#134A85"/>
<path d="M32.7595 41.541C32.7216 41.4434 32.6649 41.3542 32.5925 41.2785C32.5201 41.2029 32.4335 41.1422 32.3377 41.1C32.2419 41.0579 32.1386 41.035 32.034 41.0327C31.9293 41.0304 31.8252 41.0488 31.7276 41.0868C29.827 41.8239 28.2691 41.9155 27.2213 41.3617C26.8992 41.1836 26.6161 40.9427 26.3889 40.6532C26.1617 40.3637 25.9949 40.0315 25.8984 39.6763C25.8506 39.4733 25.725 39.2971 25.5487 39.1856C25.3724 39.0741 25.1594 39.0362 24.9554 39.08C24.7515 39.1239 24.5729 39.2459 24.4579 39.42C24.3429 39.594 24.3008 39.8062 24.3406 40.011C24.489 40.587 24.7532 41.1267 25.1169 41.5972C25.4806 42.0678 25.9363 42.4595 26.4563 42.7483C26.661 42.8592 26.8742 42.9538 27.0938 43.0312C27.5799 43.6009 29.7195 45.9637 32.1977 46.2187H32.2734C32.4848 46.2292 32.6917 46.1554 32.8486 46.0134C33.0055 45.8715 33.0996 45.673 33.1102 45.4616C33.1207 45.2503 33.0469 45.0434 32.9049 44.8865C32.763 44.7296 32.5645 44.6355 32.3531 44.6249C31.3451 44.5213 30.3609 43.8878 29.5999 43.2623C30.524 43.1468 31.4293 42.9124 32.2934 42.565C32.4908 42.4907 32.6507 42.3413 32.738 42.1493C32.8254 41.9574 32.8331 41.7386 32.7595 41.541Z" fill="#134A85"/>
<path d="M30.8749 2.36283L31.2455 2.46642C31.3459 2.49598 31.4512 2.50547 31.5554 2.49434C31.6595 2.4832 31.7604 2.45167 31.8523 2.40154C31.9443 2.35141 32.0254 2.28365 32.0912 2.20215C32.157 2.12065 32.206 2.027 32.2356 1.92654C32.2651 1.82608 32.2746 1.72077 32.2635 1.61665C32.2524 1.51252 32.2208 1.41161 32.1707 1.31966C32.1206 1.22772 32.0528 1.14656 31.9713 1.0808C31.8898 1.01504 31.7962 0.965982 31.6957 0.936419L31.2973 0.824857C31.0933 0.76885 30.8755 0.796156 30.6917 0.900766C30.5078 1.00538 30.3731 1.17872 30.3171 1.38267C30.2611 1.58662 30.2884 1.80446 30.393 1.98827C30.4976 2.17209 30.671 2.30682 30.8749 2.36283Z" fill="#134A85"/>
<path d="M46.7646 17.591C46.8416 17.8381 46.9147 18.0864 46.9838 18.3361C47.0475 18.5287 47.1823 18.6898 47.3607 18.7864C47.5391 18.8831 47.7477 18.908 47.9439 18.8562C48.14 18.8043 48.309 18.6796 48.4164 18.5075C48.5238 18.3353 48.5615 18.1287 48.5217 17.9297C48.4474 17.6641 48.369 17.3985 48.2866 17.1328C48.2232 16.931 48.0823 16.7626 47.8947 16.6647C47.7072 16.5669 47.4884 16.5475 47.2866 16.6109C47.0847 16.6743 46.9164 16.8153 46.8185 17.0028C46.7206 17.1904 46.7012 17.4091 46.7646 17.611V17.591Z" fill="#134A85"/>
<path d="M45.637 14.6984C45.7274 14.8896 45.89 15.0372 46.0891 15.1086C46.2883 15.1799 46.5076 15.1692 46.6989 15.0789C46.8901 14.9885 47.0377 14.8259 47.109 14.6268C47.1804 14.4276 47.1697 14.2083 47.0794 14.0171C46.9598 13.7674 46.8377 13.519 46.7128 13.272C46.6649 13.1788 46.5992 13.096 46.5193 13.0283C46.4394 12.9606 46.347 12.9093 46.2473 12.8773C46.1476 12.8453 46.0426 12.8332 45.9382 12.8418C45.8338 12.8504 45.7322 12.8795 45.639 12.9273C45.5459 12.9752 45.4631 13.041 45.3954 13.1208C45.3276 13.2007 45.2763 13.2931 45.2443 13.3928C45.2123 13.4926 45.2003 13.5976 45.2088 13.702C45.2174 13.8063 45.2465 13.908 45.2944 14.0011C45.4113 14.2296 45.5255 14.462 45.637 14.6984Z" fill="#134A85"/>
<path d="M48.2946 20.4877C48.0855 20.5164 47.8962 20.6269 47.7685 20.795C47.6408 20.963 47.5849 21.1749 47.6133 21.3841C47.6478 21.6498 47.6784 21.9074 47.7049 22.1571C47.7247 22.3544 47.8174 22.5371 47.9647 22.6697C48.1121 22.8024 48.3036 22.8753 48.5018 22.8743H48.5855C48.6896 22.8638 48.7906 22.833 48.8828 22.7835C48.975 22.7339 49.0566 22.6668 49.1228 22.5857C49.189 22.5047 49.2386 22.4114 49.2688 22.3112C49.299 22.211 49.3091 22.1058 49.2987 22.0017C49.2695 21.7361 49.2363 21.4612 49.1991 21.177C49.1859 21.0719 49.1519 20.9706 49.099 20.8788C49.0462 20.7871 48.9756 20.7067 48.8914 20.6426C48.8072 20.5784 48.7111 20.5316 48.6086 20.5051C48.5061 20.4785 48.3994 20.4725 48.2946 20.4877Z" fill="#134A85"/>
<path d="M41.1905 8.36719C41.3395 8.51724 41.542 8.60196 41.7534 8.60271C41.9649 8.60345 42.168 8.52017 42.318 8.37117C42.4681 8.22217 42.5528 8.01967 42.5536 7.80821C42.5543 7.59674 42.471 7.39365 42.322 7.24359C42.1255 7.04703 41.9262 6.85312 41.7244 6.66187C41.6507 6.57915 41.5606 6.51269 41.4597 6.46676C41.3589 6.42082 41.2497 6.39641 41.1389 6.39508C41.0281 6.39375 40.9183 6.41553 40.8164 6.45904C40.7145 6.50254 40.6228 6.56681 40.5472 6.64775C40.4715 6.72868 40.4136 6.8245 40.377 6.92908C40.3405 7.03367 40.3262 7.14472 40.335 7.25516C40.3438 7.36559 40.3755 7.47298 40.4281 7.57046C40.4807 7.66795 40.5531 7.75339 40.6406 7.82133C40.8239 7.99929 41.0072 8.18125 41.1905 8.36719Z" fill="#134A85"/>
<path d="M43.6847 11.3396C43.8091 11.5048 43.993 11.6151 44.1973 11.6473C44.4016 11.6794 44.6104 11.6309 44.7796 11.5119C44.9488 11.3929 45.065 11.2128 45.1039 11.0096C45.1427 10.8065 45.101 10.5962 44.9876 10.4232C44.8282 10.1974 44.6648 9.97295 44.4975 9.74982C44.4359 9.66266 44.3573 9.58878 44.2666 9.53256C44.1758 9.47633 44.0747 9.43892 43.9692 9.42253C43.8637 9.40614 43.756 9.41112 43.6525 9.43716C43.549 9.46321 43.4517 9.50979 43.3665 9.57414C43.2814 9.63849 43.21 9.7193 43.1566 9.81177C43.1033 9.90425 43.0691 10.0065 43.056 10.1124C43.0429 10.2184 43.0513 10.3259 43.0806 10.4286C43.1099 10.5312 43.1595 10.6269 43.2265 10.7101C43.3832 10.9172 43.5359 11.1271 43.6847 11.3396Z" fill="#134A85"/>
<path d="M48.2747 28.5003C48.1727 28.4766 48.067 28.4734 47.9637 28.4906C47.8604 28.5079 47.7615 28.5454 47.6727 28.6009C47.5839 28.6564 47.5069 28.7288 47.4461 28.8141C47.3853 28.8994 47.3419 28.9958 47.3184 29.0979C47.26 29.3503 47.1963 29.5999 47.1272 29.847C47.0994 29.948 47.0917 30.0534 47.1047 30.1574C47.1177 30.2613 47.1511 30.3617 47.2029 30.4527C47.2547 30.5437 47.3239 30.6237 47.4067 30.6879C47.4894 30.7522 47.584 30.7995 47.685 30.8271C47.7538 30.8458 47.8249 30.8552 47.8962 30.855C48.0693 30.8559 48.2379 30.8004 48.3767 30.6968C48.5154 30.5933 48.6167 30.4475 48.6652 30.2813C48.7395 30.0156 48.8073 29.75 48.8684 29.4844C48.8962 29.3807 48.9029 29.2725 48.8879 29.1662C48.8729 29.0599 48.8366 28.9578 48.7812 28.8659C48.7257 28.774 48.6523 28.6942 48.5652 28.6314C48.4782 28.5685 48.3794 28.5239 48.2747 28.5003Z" fill="#134A85"/>
<path d="M37.5806 5.41076C37.7984 5.5542 38.0123 5.70162 38.2221 5.85303C38.3944 5.97561 38.6082 6.02474 38.8167 5.98962C39.0252 5.95451 39.2112 5.83801 39.3338 5.66576C39.4563 5.49352 39.5055 5.27963 39.4703 5.07116C39.4352 4.86269 39.3187 4.6767 39.1465 4.55412C38.9207 4.39209 38.6909 4.23404 38.4572 4.07998C38.3698 4.02216 38.2719 3.98212 38.169 3.96215C38.0662 3.94217 37.9604 3.94265 37.8577 3.96355C37.7551 3.98445 37.6575 4.02538 37.5707 4.08398C37.4838 4.14258 37.4093 4.21772 37.3515 4.3051C37.2937 4.39248 37.2537 4.49039 37.2337 4.59325C37.2137 4.6961 37.2142 4.80188 37.2351 4.90455C37.256 5.00722 37.2969 5.10477 37.3555 5.19163C37.4141 5.27848 37.4893 5.35295 37.5766 5.41076H37.5806Z" fill="#134A85"/>
<path d="M48.6333 24.496C48.4226 24.4895 48.2179 24.5668 48.0641 24.711C47.9102 24.8551 47.8198 25.0543 47.8125 25.265C47.8125 25.5306 47.7992 25.7896 47.7727 26.0419C47.7584 26.2527 47.8285 26.4605 47.9675 26.6197C48.1065 26.7788 48.3029 26.8763 48.5137 26.8906H48.5695C48.7716 26.8911 48.9662 26.8148 49.1142 26.6772C49.2621 26.5397 49.3523 26.351 49.3664 26.1495C49.385 25.8839 49.3996 25.6063 49.4102 25.3168C49.4134 25.2118 49.3958 25.1072 49.3584 25.009C49.3211 24.9109 49.2646 24.8211 49.1924 24.7448C49.1202 24.6685 49.0337 24.6073 48.9377 24.5646C48.8417 24.5219 48.7383 24.4986 48.6333 24.496Z" fill="#134A85"/>
<path d="M34.17 3.54214C34.4091 3.64839 34.6455 3.75729 34.8792 3.86886C34.9738 3.91786 35.0772 3.94741 35.1834 3.95575C35.2896 3.96409 35.3964 3.95106 35.4974 3.91743C35.5985 3.8838 35.6918 3.83025 35.7718 3.75994C35.8518 3.68963 35.9169 3.604 35.9633 3.5081C36.0096 3.4122 36.0363 3.30798 36.0417 3.2016C36.0471 3.09522 36.0311 2.98885 35.9946 2.88876C35.9582 2.78867 35.9021 2.6969 35.8296 2.61887C35.7571 2.54084 35.6696 2.47815 35.5725 2.43448C35.3228 2.31495 35.0705 2.19808 34.8155 2.08386C34.7197 2.04148 34.6166 2.01837 34.5119 2.01585C34.4072 2.01334 34.303 2.03147 34.2054 2.06921C34.1077 2.10695 34.0184 2.16356 33.9426 2.2358C33.8668 2.30804 33.806 2.39451 33.7636 2.49026C33.7212 2.58602 33.6981 2.68918 33.6956 2.79386C33.6931 2.89854 33.7112 3.0027 33.7489 3.10037C33.7867 3.19805 33.8433 3.28733 33.9155 3.36313C33.9878 3.43893 34.0742 3.49976 34.17 3.54214Z" fill="#134A85"/>
<path d="M47.1391 32.3731C47.0429 32.3317 46.9394 32.3096 46.8346 32.3082C46.7298 32.3068 46.6257 32.326 46.5284 32.3649C46.4311 32.4038 46.3423 32.4614 46.2673 32.5346C46.1923 32.6078 46.1325 32.6951 46.0912 32.7915L45.9359 33.1501C45.8508 33.3461 45.8471 33.5679 45.9255 33.7666C46.004 33.9654 46.1582 34.1249 46.3542 34.2099C46.5502 34.295 46.772 34.2987 46.9708 34.2202C47.1695 34.1418 47.329 33.9876 47.4141 33.7916L47.5734 33.417C47.6138 33.32 47.6346 33.216 47.6346 33.1109C47.6346 33.0058 47.6139 32.9017 47.5735 32.8047C47.5331 32.7077 47.474 32.6196 47.3994 32.5455C47.3249 32.4715 47.2364 32.4129 47.1391 32.3731Z" fill="#134A85"/>
</g>
<defs>
<clipPath id="clip0_27_123">
<rect width="51" height="51" fill="white"/>
</clipPath>
</defs>
</svg>
