<svg width="51" height="51" viewBox="0 0 51 51" fill="none" xmlns="http://www.w3.org/2000/svg">
<path d="M39.9378 36.6562C39.9282 36.8964 39.9234 37.1354 39.9234 37.3734C39.9234 38.7281 41.2781 38.7281 41.2781 40.7602C41.2781 42.7922 39.2461 42.7922 38.5688 42.7922C37.8914 42.7922 35.8594 42.1148 35.8594 38.0508C35.8594 37.5849 35.8777 37.12 35.9144 36.6562" stroke="#134A85" stroke-width="1.59375" stroke-linecap="round" stroke-linejoin="round"/>
<path d="M37.1407 31.0781C40.4135 21.8065 48.8612 14.3438 49.4062 14.3438C47.8173 16.4626 42.9141 23.5524 40.8518 31.0781" stroke="#134A85" stroke-width="1.59375" stroke-linecap="round" stroke-linejoin="round"/>
<path d="M10.4391 37.4531C10.4909 38.7281 11.7938 38.7688 11.7938 40.7602C11.7938 42.7922 9.76172 42.7922 9.08437 42.7922C8.40703 42.7922 6.375 42.1148 6.375 38.0508C6.375 37.8516 6.37845 37.6523 6.38536 37.4531" stroke="#134A85" stroke-width="1.59375" stroke-linecap="round" stroke-linejoin="round"/>
<path d="M7.65637 31.0781C10.9291 21.8065 19.3768 14.3438 19.9219 14.3438C18.3329 16.4626 13.4297 23.5524 11.3674 31.0781" stroke="#134A85" stroke-width="1.59375" stroke-linecap="round" stroke-linejoin="round"/>
<path d="M49.4062 35.8593C49.4062 35.8593 43.8281 34.2655 33.4688 34.2655C33.1086 34.2655 32.7795 34.2759 32.4782 34.2934C32.1501 34.3131 31.8311 34.4088 31.5465 34.5731C31.2618 34.7374 31.0193 34.9657 30.8381 35.24C30.657 35.5142 30.5422 35.8269 30.5028 36.1532C30.4634 36.4795 30.5005 36.8105 30.6112 37.1199C30.9223 37.9942 31.0803 38.9157 31.0781 39.8437C31.0781 40.7752 30.7705 45.4218 24.7031 45.4218C22.4982 45.4218 18.3281 43.589 18.3281 36.6562C18.3283 36.1621 18.1553 35.6837 17.8392 35.304C17.5231 34.9243 17.084 34.6674 16.5981 34.5779C15.3276 34.3567 14.0395 34.2522 12.75 34.2655C8.98048 34.3436 5.23435 34.8788 1.59375 35.8593" stroke="#134A85" stroke-width="1.59375" stroke-linecap="round" stroke-linejoin="round"/>
<path d="M21.5156 36.6562C21.5156 19.9219 38.25 5.57812 39.0469 5.57812C36.6562 8.76562 26.2969 22.3125 26.2969 35.8594C26.2969 37.4531 27.8906 37.4531 27.8906 39.8438C27.8906 42.2344 25.5 42.2344 24.7031 42.2344C23.9062 42.2344 21.5156 41.4375 21.5156 36.6562Z" stroke="#134A85" stroke-width="1.59375" stroke-linecap="round" stroke-linejoin="round"/>
<path d="M33.4688 30.2812C34.349 30.2812 35.0625 29.5677 35.0625 28.6875C35.0625 27.8073 34.349 27.0938 33.4688 27.0938C32.5885 27.0938 31.875 27.8073 31.875 28.6875C31.875 29.5677 32.5885 30.2812 33.4688 30.2812Z" fill="#134A85"/>
<path d="M3.1875 31.875C4.0677 31.875 4.78125 31.1615 4.78125 30.2812C4.78125 29.401 4.0677 28.6875 3.1875 28.6875C2.3073 28.6875 1.59375 29.401 1.59375 30.2812C1.59375 31.1615 2.3073 31.875 3.1875 31.875Z" fill="#134A85"/>
<path d="M16.3359 31.875C16.9961 31.875 17.5312 31.3398 17.5312 30.6797C17.5312 30.0195 16.9961 29.4844 16.3359 29.4844C15.6758 29.4844 15.1406 30.0195 15.1406 30.6797C15.1406 31.3398 15.6758 31.875 16.3359 31.875Z" fill="#134A85"/>
<path d="M3.58594 23.1094C4.24609 23.1094 4.78125 22.5742 4.78125 21.9141C4.78125 21.2539 4.24609 20.7188 3.58594 20.7188C2.92578 20.7188 2.39062 21.2539 2.39062 21.9141C2.39062 22.5742 2.92578 23.1094 3.58594 23.1094Z" fill="#134A85"/>
<path d="M19.125 25.5C19.5651 25.5 19.9219 25.1432 19.9219 24.7031C19.9219 24.263 19.5651 23.9062 19.125 23.9062C18.6849 23.9062 18.3281 24.263 18.3281 24.7031C18.3281 25.1432 18.6849 25.5 19.125 25.5Z" fill="#134A85"/>
<path d="M7.17188 24.7031C7.61198 24.7031 7.96875 24.3464 7.96875 23.9062C7.96875 23.4661 7.61198 23.1094 7.17188 23.1094C6.73177 23.1094 6.375 23.4661 6.375 23.9062C6.375 24.3464 6.73177 24.7031 7.17188 24.7031Z" fill="#134A85"/>
<path d="M34.2656 22.3125C34.7057 22.3125 35.0625 21.9557 35.0625 21.5156C35.0625 21.0755 34.7057 20.7188 34.2656 20.7188C33.8255 20.7188 33.4688 21.0755 33.4688 21.5156C33.4688 21.9557 33.8255 22.3125 34.2656 22.3125Z" fill="#134A85"/>
<path d="M39.8438 19.125C40.2839 19.125 40.6406 18.7682 40.6406 18.3281C40.6406 17.888 40.2839 17.5312 39.8438 17.5312C39.4036 17.5312 39.0469 17.888 39.0469 18.3281C39.0469 18.7682 39.4036 19.125 39.8438 19.125Z" fill="#134A85"/>
<path d="M47.4141 32.6719C48.0742 32.6719 48.6094 32.1367 48.6094 31.4766C48.6094 30.8164 48.0742 30.2812 47.4141 30.2812C46.7539 30.2812 46.2188 30.8164 46.2188 31.4766C46.2188 32.1367 46.7539 32.6719 47.4141 32.6719Z" fill="#134A85"/>
</svg>
