<svg width="51" height="51" viewBox="0 0 51 51" fill="none" xmlns="http://www.w3.org/2000/svg">
<path d="M41.8004 14.2899C40.3015 14.2899 39.082 15.5081 39.082 17.0055C39.082 18.5044 40.3015 19.7239 41.8004 19.7239C43.2977 19.7239 44.5159 18.5044 44.5159 17.0055C44.5158 15.5081 43.2977 14.2899 41.8004 14.2899ZM41.8004 18.2298C41.1254 18.2298 40.5762 17.6805 40.5762 17.0055C40.5762 16.332 41.1254 15.7841 41.8004 15.7841C42.4738 15.7841 43.0218 16.332 43.0218 17.0055C43.0217 17.6805 42.4737 18.2298 41.8004 18.2298Z" fill="#134A85"/>
<path d="M34.2509 14.2899C32.752 14.2899 31.5326 15.5081 31.5326 17.0055C31.5326 18.5044 32.752 19.7239 34.2509 19.7239C35.7483 19.7239 36.9665 18.5044 36.9665 17.0055C36.9664 15.5081 35.7483 14.2899 34.2509 14.2899ZM34.2509 18.2298C33.576 18.2298 33.0267 17.6805 33.0267 17.0055C33.0267 16.332 33.576 15.7841 34.2509 15.7841C34.9244 15.7841 35.4723 16.332 35.4723 17.0055C35.4722 17.6805 34.9243 18.2298 34.2509 18.2298Z" fill="#134A85"/>
<path d="M43.2641 3.92847H32.7872C32.0954 3.92847 31.5325 4.49126 31.5325 5.18315V10.1947C31.5325 10.8866 32.0953 11.4495 32.7872 11.4495H36.4027C36.8154 11.4495 37.1497 11.115 37.1497 10.7024C37.1497 10.2898 36.8154 9.95533 36.4027 9.95533H33.0266V5.42261H43.0217V9.95523H40.0349C39.6222 9.95523 39.2879 10.2897 39.2879 10.7023C39.2879 11.1149 39.6222 11.4494 40.0349 11.4494H43.2641C43.9544 11.4494 44.5159 10.8865 44.5159 10.1946V5.18325C44.5159 4.49136 43.9544 3.92847 43.2641 3.92847Z" fill="#134A85"/>
<path d="M43.9435 0H32.1047C29.6215 0 27.6012 2.02028 27.6012 4.50354V18.771C27.6012 22.9732 31.0117 26.3931 35.21 26.4098V30.3567H24.8382C25.3952 28.6827 25.2325 27.1792 24.959 26.1403C24.5439 24.5641 23.6389 23.1706 22.4753 22.3167C21.7366 21.7758 20.7925 21.6568 20.0112 22.0057C19.2197 22.3593 18.7085 23.1426 18.6085 24.1555C18.3674 26.628 17.6269 28.2639 16.345 29.1564C15.3495 29.8487 13.331 30.331 12.4282 30.3566H10.395V30.0348C10.395 29.4456 9.91686 28.9662 9.32926 28.9662H3.62134C3.03215 28.9662 2.55273 29.4455 2.55273 30.0348V37.2771C2.55273 37.6897 2.88722 38.0242 3.2998 38.0242C3.71239 38.0242 4.04687 37.6897 4.04687 37.2771V30.4604H8.90084V47.9406H4.04687V40.7206C4.04687 40.308 3.71239 39.9735 3.2998 39.9735C2.88722 39.9735 2.55273 40.308 2.55273 40.7206V48.3662C2.55273 48.9554 3.03205 49.4348 3.62134 49.4348H9.32936C9.91696 49.4348 10.3951 48.9555 10.3951 48.3662V48.0444H11.9803C13.2454 48.0444 13.9024 48.5496 14.7342 49.1893C15.6485 49.8924 16.7864 50.7675 18.8995 50.9956C18.9262 50.9985 18.9529 50.9999 18.9797 50.9999H25.9568H32.2795C33.5345 50.9999 34.3007 50.4653 34.7225 50.0169C35.2615 49.4438 35.5583 48.6777 35.5583 47.8599C35.5583 47.1736 35.3403 46.4837 34.9129 45.926C36.1138 45.4002 36.7353 44.231 36.7353 43.0718C36.7353 42.385 36.5169 41.6947 36.0891 41.1367C36.53 40.9428 36.8529 40.6807 37.0772 40.4422C37.6162 39.8691 37.9131 39.1031 37.9131 38.2853C37.9131 37.7128 37.7609 37.1381 37.4626 36.6394H40.5396C42.6921 36.6394 43.8184 35.0591 43.8184 33.4979C43.8184 32.0117 42.7967 30.509 40.841 30.3683V26.4096C45.0379 26.3914 48.4469 22.9721 48.4469 18.7709V4.50354C48.4471 2.02028 46.4268 0 43.9435 0ZM39.347 30.5341C39.347 31.262 38.7537 31.8542 38.0242 31.8542C37.2963 31.8542 36.7041 31.262 36.7041 30.5341V22.7247H39.347V30.5341ZM33.6341 48.9933C33.3188 49.3286 32.8504 49.5059 32.2795 49.5059H25.9568C24.7239 49.5059 24.1721 48.6792 24.1721 47.86C24.1721 47.424 24.3248 47.0216 24.6021 46.7267C24.9174 46.3914 25.3859 46.2141 25.9568 46.2141H32.2795C33.5123 46.2141 34.0642 47.0407 34.0642 47.8599C34.0643 48.296 33.9115 48.6984 33.6341 48.9933ZM33.4555 44.72H25.9569C24.7233 44.72 24.1711 43.8923 24.1711 43.072C24.1711 42.6358 24.3239 42.2331 24.6013 41.9381C24.9167 41.6027 25.3855 41.4254 25.9569 41.4254H33.4555C34.6891 41.4254 35.2412 42.2524 35.2412 43.072C35.2412 43.8923 34.6891 44.72 33.4555 44.72ZM36.419 38.2854C36.419 39.1045 35.8672 39.9312 34.6343 39.9312H25.9569C24.7233 39.9312 24.1711 39.1041 24.1711 38.2846C24.1711 37.8488 24.3238 37.4466 24.6011 37.1519C24.9165 36.8166 25.3854 36.6394 25.9568 36.6394H34.6342C35.8672 36.6395 36.419 37.4662 36.419 38.2854ZM42.3244 33.498C42.3244 34.318 41.7725 35.1454 40.5397 35.1454H25.9569C23.8036 35.1454 22.6769 36.7246 22.6769 38.2847C22.6769 39.1757 23.0447 40.0724 23.7604 40.6784C23.0447 41.2844 22.6769 42.1811 22.6769 43.072C22.6769 43.9641 23.0454 44.862 23.7623 45.4683C23.6691 45.547 23.586 45.6263 23.5138 45.7031C22.9748 46.2761 22.678 47.0422 22.678 47.86C22.678 48.4325 22.8302 49.0072 23.1284 49.5059H19.021C17.3514 49.3172 16.5225 48.6797 15.645 48.0049C14.7151 47.2897 13.7535 46.5503 11.9802 46.5503H10.395V31.8508H12.4962C13.4471 31.8417 15.9308 31.2645 17.1985 30.3829C18.8618 29.2248 19.8094 27.2352 20.0954 24.3014C20.1283 23.9688 20.246 23.5373 20.6206 23.3699C20.9088 23.241 21.2903 23.3008 21.5919 23.5217C23.4005 24.849 24.4723 27.9945 23.0502 30.7622C22.9311 30.9938 22.9413 31.2706 23.077 31.4928C23.2127 31.715 23.4543 31.8506 23.7146 31.8506H35.5378C36.011 32.7405 36.9477 33.3481 38.0239 33.3481C39.1018 33.3481 40.0397 32.7399 40.5132 31.8493C40.5219 31.8496 40.5306 31.8506 40.5395 31.8506C41.7725 31.8508 42.3244 32.6782 42.3244 33.498ZM46.9529 18.771C46.9529 22.1483 44.2143 24.8974 40.8412 24.9156V22.4457C40.8412 21.7756 40.296 21.2304 39.626 21.2304H36.4224C35.7538 21.2304 35.21 21.7756 35.21 22.4457V24.9157C31.8356 24.899 29.0953 22.1493 29.0953 18.771V4.50354C29.0953 2.84415 30.4454 1.49414 32.1047 1.49414H43.9436C45.603 1.49414 46.953 2.84415 46.953 4.50354V18.771H46.9529Z" fill="#134A85"/>
</svg>
