<svg width="51" height="51" viewBox="0 0 51 51" fill="none" xmlns="http://www.w3.org/2000/svg">
<g clip-path="url(#clip0_18_35)">
<path d="M41.4574 51H19.2445C17.6207 50.999 16.0636 50.3534 14.9154 49.2052C13.7671 48.057 13.1216 46.4999 13.1205 44.8761V42.3818C13.1205 42.1705 13.2045 41.9678 13.3539 41.8184C13.5034 41.6689 13.7061 41.585 13.9174 41.585C14.1288 41.585 14.3315 41.6689 14.4809 41.8184C14.6303 41.9678 14.7143 42.1705 14.7143 42.3818V44.8761C14.7153 46.0772 15.193 47.2289 16.0423 48.0783C16.8917 48.9276 18.0434 49.4052 19.2445 49.4063H41.4574C42.6586 49.4052 43.8103 48.9276 44.6596 48.0783C45.509 47.2289 45.9866 46.0772 45.9877 44.8761V33.7198C45.9866 32.5186 45.509 31.367 44.6596 30.5176C43.8103 29.6683 42.6586 29.1906 41.4574 29.1896H19.2445C18.0441 29.1917 16.8934 29.6698 16.0449 30.519C15.1964 31.3683 14.7193 32.5193 14.7183 33.7198V36.2579C14.7183 36.4692 14.6343 36.6719 14.4849 36.8213C14.3354 36.9708 14.1327 37.0547 13.9214 37.0547C13.7101 37.0547 13.5074 36.9708 13.3579 36.8213C13.2085 36.6719 13.1245 36.4692 13.1245 36.2579V33.7198C13.1256 32.0966 13.7706 30.5402 14.918 29.3921C16.0653 28.2439 17.6214 27.5979 19.2445 27.5958H41.4574C43.0813 27.5969 44.6383 28.2424 45.7866 29.3907C46.9348 30.5389 47.5803 32.0959 47.5814 33.7198V44.8761C47.5803 46.4999 46.9348 48.057 45.7866 49.2052C44.6383 50.3534 43.0813 50.999 41.4574 51Z" fill="#134A85"/>
<path d="M42.3898 46.6172H29.0222C28.8108 46.6172 28.6082 46.5333 28.4587 46.3838C28.3093 46.2344 28.2253 46.0317 28.2253 45.8203V32.7635C28.2253 32.5522 28.3093 32.3495 28.4587 32.2001C28.6082 32.0506 28.8108 31.9667 29.0222 31.9667H42.3898C42.6011 31.9667 42.8038 32.0506 42.9532 32.2001C43.1027 32.3495 43.1866 32.5522 43.1866 32.7635V45.8203C43.1866 46.0317 43.1027 46.2344 42.9532 46.3838C42.8038 46.5333 42.6011 46.6172 42.3898 46.6172ZM29.8191 45.0235H41.5929V33.5604H29.8191V45.0235Z" fill="#134A85"/>
<path d="M17.7862 42.9715H0.796875C0.585531 42.9715 0.382842 42.8875 0.233399 42.7381C0.0839562 42.5887 0 42.386 0 42.1746V36.4252C0 36.2138 0.0839562 36.0111 0.233399 35.8617C0.382842 35.7123 0.585531 35.6283 0.796875 35.6283H17.7862C17.9976 35.6283 18.2003 35.7123 18.3497 35.8617C18.4992 36.0111 18.5831 36.2138 18.5831 36.4252V42.1746C18.5831 42.386 18.4992 42.5887 18.3497 42.7381C18.2003 42.8875 17.9976 42.9715 17.7862 42.9715ZM1.59375 41.3777H16.9894V37.222H1.59375V41.3777Z" fill="#134A85"/>
<path d="M17.7863 44.3381C17.5749 44.3381 17.3722 44.2542 17.2228 44.1047C17.0733 43.9553 16.9894 43.7526 16.9894 43.5412V35.0625C16.9894 34.8512 17.0733 34.6485 17.2228 34.499C17.3722 34.3496 17.5749 34.2656 17.7863 34.2656C17.9976 34.2656 18.2003 34.3496 18.3497 34.499C18.4992 34.6485 18.5831 34.8512 18.5831 35.0625V43.5452C18.5821 43.7559 18.4977 43.9576 18.3483 44.1061C18.199 44.2547 17.9969 44.3381 17.7863 44.3381Z" fill="#134A85"/>
<path d="M7.80141 32.5404C7.30105 32.542 6.80529 32.4448 6.34252 32.2546C5.87974 32.0643 5.45904 31.7846 5.10449 31.4315C4.74994 31.0785 4.46851 30.6589 4.2763 30.197C4.0841 29.735 3.9849 29.2397 3.98438 28.7393C3.98438 25.4004 7.00055 21.0016 7.12805 20.8144C7.20011 20.7105 7.29587 20.6252 7.40742 20.5656C7.51896 20.506 7.64309 20.4738 7.76953 20.4717C7.89592 20.4692 8.0211 20.4968 8.13472 20.5522C8.24834 20.6077 8.34714 20.6893 8.42297 20.7905C8.55047 20.9618 11.5866 25.0418 11.5866 28.7592C11.5803 29.7608 11.1793 30.7195 10.4707 31.4274C9.76213 32.1352 8.80299 32.5352 7.80141 32.5404ZM7.82133 22.7109C6.97664 24.1334 5.57812 26.7551 5.57812 28.7393C5.57812 29.3247 5.81068 29.8862 6.22464 30.3001C6.6386 30.7141 7.20005 30.9466 7.78547 30.9466C8.37089 30.9466 8.93234 30.7141 9.3463 30.3001C9.76025 29.8862 9.99281 29.3247 9.99281 28.7393C10.0087 26.5479 8.66203 24.0616 7.82133 22.7109Z" fill="#134A85"/>
<path d="M50.2748 13.1046L44.625 12.5986C44.507 12.5883 44.3882 12.6044 44.2773 12.6457C44.1663 12.6871 44.066 12.7526 43.9835 12.8376C43.9556 12.8695 41.0032 15.8857 38.76 17.2683C37.3256 18.1528 34.6601 19.0812 32.5165 19.8302L31.9427 20.0294C32.3621 19.6188 32.7096 19.1407 32.9707 18.615C33.109 18.2579 33.1594 17.8728 33.1178 17.4921C33.0762 17.1115 32.9438 16.7464 32.7316 16.4276C32.5109 16.0966 32.2157 15.8219 31.8698 15.6255C31.5239 15.429 31.1368 15.3161 30.7394 15.296C30.8104 14.8788 30.7403 14.4498 30.5402 14.0768C30.3636 13.702 30.1056 13.3713 29.7851 13.1088C29.4646 12.8462 29.0897 12.6583 28.6875 12.5587C28.5824 12.5368 28.4759 12.5222 28.3687 12.5149C28.4748 11.9329 28.3459 11.3326 28.0101 10.8455C27.7153 10.447 26.9862 9.77366 25.4522 9.97687C23.9182 10.1801 21.7467 11.7141 21.2925 12.0368C20.7546 12.2958 16.9097 14.1605 16.2204 14.4832H16.2005C12.4671 16.2363 9.27163 17.6109 8.63015 17.6348C8.31937 17.6348 8.23171 17.5392 8.19984 17.4954C8.06258 17.2222 8.01784 16.9117 8.07234 16.6108C9.47484 15.5908 19.113 10.1721 20.0613 9.74179C21.0096 9.31148 24.3844 7.43085 25.4601 6.82921C25.6304 6.8645 25.7981 6.91109 25.9622 6.96866C26.5723 7.261 27.1287 7.65435 27.6077 8.1321C27.76 8.26871 27.959 8.34151 28.1635 8.33542C28.368 8.32933 28.5624 8.24481 28.7063 8.09937C28.8502 7.95394 28.9326 7.75873 28.9365 7.55417C28.9405 7.34961 28.8656 7.15138 28.7273 7.00054C28.0887 6.36497 27.3411 5.84942 26.52 5.47851C26.2884 5.39615 26.0514 5.32959 25.8108 5.27929C25.6389 5.17489 25.434 5.13931 25.237 5.17968C24.3148 5.03517 23.3798 4.98975 22.448 5.04421C21.6511 5.10398 20.0852 4.97648 18.3082 3.45046C17.587 2.83288 17.4276 2.25515 17.5113 1.93241C17.5327 1.84215 17.5819 1.76088 17.6519 1.7001C17.722 1.63932 17.8094 1.60211 17.9018 1.59374C18.5857 1.57769 19.2684 1.65817 19.9298 1.8328C20.8807 2.05622 21.8506 2.18963 22.8265 2.23124C23.7966 2.21842 24.764 2.12647 25.7191 1.95632C26.639 1.78667 27.5729 1.70529 28.5082 1.71327L29.9306 1.78898C31.4708 1.90993 33.0167 1.94053 34.5605 1.88062C35.6123 1.81288 37.5049 2.83687 38.4651 3.50624C38.5962 3.59771 38.7516 3.64769 38.9114 3.64968L50.2031 3.78515C50.4145 3.78515 50.6172 3.70119 50.7666 3.55175C50.916 3.40231 51 3.19962 51 2.98827C51 2.77693 50.916 2.57424 50.7666 2.4248C50.6172 2.27535 50.4145 2.1914 50.2031 2.1914L39.1784 2.05593C38.4492 1.57382 36.1622 0.175304 34.4609 0.290851C32.9834 0.342173 31.5041 0.310247 30.0302 0.195226L28.5879 0.119523C27.552 0.11309 26.5179 0.20649 25.5 0.398429C24.6277 0.554966 23.7444 0.64157 22.8584 0.657413C21.9761 0.616224 21.0997 0.492162 20.2406 0.286867C19.3985 0.0605019 18.5247 -0.0243258 17.6548 0.0358509C17.2655 0.095015 16.9018 0.265762 16.6076 0.527412C16.3134 0.789063 16.1014 1.13039 15.9973 1.51007C15.7024 2.55398 16.1805 3.73734 17.2842 4.67765C18.9098 6.06421 20.7666 6.75749 22.5276 6.63796C21.2686 7.33124 19.898 8.07234 19.3919 8.30343C18.7744 8.58632 15.4076 10.447 12.8018 11.9451C6.82523 15.3677 6.73359 15.5749 6.60609 15.9295C6.4684 16.3451 6.42309 16.7858 6.47333 17.2207C6.52357 17.6556 6.66814 18.0744 6.89695 18.4476C7.08989 18.7097 7.3449 18.9197 7.63908 19.0588C7.93326 19.1979 8.25739 19.2617 8.58234 19.2445H8.67398C9.57046 19.2166 12.6305 17.9058 15.6347 16.5232C15.9198 17.4974 16.4334 18.3894 17.1328 19.125C17.7185 19.627 18.5473 19.627 19.2007 19.5234C19.3919 20.5634 19.9139 22.0774 21.3323 22.5037C22.173 22.7548 23.5835 22.1531 24.5955 21.6192C24.8757 22.2738 25.3137 22.8488 25.8705 23.2926C26.203 23.5488 26.6103 23.6888 27.03 23.6911C27.6764 23.6259 28.2966 23.4014 28.8349 23.0376C29.1895 22.8424 29.588 22.6392 30.082 22.4001C30.7195 22.1093 31.7873 21.7387 33.0225 21.3084C35.2378 20.5355 37.995 19.5752 39.5768 18.5991C41.6009 17.3519 44.0313 15.0131 44.8362 14.1923L50.1274 14.6665C50.3388 14.6855 50.549 14.6198 50.7119 14.4838C50.8748 14.3478 50.977 14.1527 50.996 13.9413C51.015 13.73 50.9493 13.5197 50.8133 13.3568C50.6773 13.1939 50.4822 13.0917 50.2709 13.0727L50.2748 13.1046ZM19.5234 17.7982C18.9816 17.9934 18.3281 18.0651 18.1608 17.9337C17.6314 17.3332 17.2602 16.6101 17.081 15.8299C19.2884 14.79 21.2526 13.8377 22.0216 13.4393H22.0455L22.1372 13.3835C23.0177 12.746 24.7469 11.6862 25.6275 11.5706C26.1494 11.5029 26.5319 11.5706 26.6834 11.7898C26.7459 11.914 26.7768 12.0517 26.7733 12.1907C26.7698 12.3297 26.7321 12.4657 26.6634 12.5866C26.2109 13.178 25.6892 13.713 25.1095 14.1804C24.5517 14.6944 21.5156 16.6069 19.5234 17.7982ZM21.7826 20.9857C21.1331 20.7905 20.8144 19.7147 20.7108 18.9417C21.9738 18.1687 25.4123 16.0491 26.1694 15.3837C26.4881 15.1008 26.8467 14.7701 27.1734 14.4433C27.244 14.4209 27.311 14.3887 27.3726 14.3477C27.6499 14.1576 27.9876 14.0768 28.3209 14.1206C28.4925 14.1813 28.6496 14.2771 28.782 14.402C28.9144 14.5269 29.0193 14.678 29.0899 14.8458C29.2294 15.1008 29.0301 15.5789 28.5879 16.1726C28.5283 16.2389 28.4737 16.3095 28.4245 16.3837C27.2998 17.6937 26.0039 18.8462 24.5716 19.8103C23.468 20.4757 22.1451 21.0375 21.7985 20.9817L21.7826 20.9857ZM25.9542 20.7785C27.0141 20.0095 28.7433 18.6429 29.7912 17.1926C29.8961 17.0812 30.0246 16.9947 30.1674 16.9396C30.3101 16.8844 30.4634 16.8619 30.6159 16.8738C30.7656 16.8791 30.9118 16.9198 31.0427 16.9926C31.1736 17.0653 31.2854 17.1679 31.369 17.2922C31.4496 17.3997 31.5018 17.5258 31.5206 17.6589C31.5394 17.7919 31.5242 17.9276 31.4766 18.0532C31.2734 18.5991 29.2214 20.5235 27.4005 22.0176C27.0579 22.1691 26.9822 22.1252 26.8308 22.0176C26.4441 21.6829 26.1492 21.2551 25.9741 20.7745L25.9542 20.7785Z" fill="#134A85"/>
<path d="M8.69788 40.0947H6.90491C6.69356 40.0947 6.49087 40.0108 6.34143 39.8613C6.19199 39.7119 6.10803 39.5092 6.10803 39.2979C6.10803 39.0865 6.19199 38.8838 6.34143 38.7344C6.49087 38.5849 6.69356 38.501 6.90491 38.501H8.69788C8.90922 38.501 9.11191 38.5849 9.26135 38.7344C9.41079 38.8838 9.49475 39.0865 9.49475 39.2979C9.49475 39.5092 9.41079 39.7119 9.26135 39.8613C9.11191 40.0108 8.90922 40.0947 8.69788 40.0947Z" fill="#134A85"/>
<path d="M23.4401 37.76C22.8672 37.76 22.3071 37.5901 21.8308 37.2718C21.3544 36.9535 20.9832 36.5011 20.7639 35.9718C20.5447 35.4425 20.4873 34.8601 20.5991 34.2982C20.7109 33.7363 20.9867 33.2202 21.3918 32.8151C21.7969 32.41 22.3131 32.1341 22.875 32.0223C23.4369 31.9106 24.0193 31.9679 24.5486 32.1872C25.0779 32.4064 25.5303 32.7777 25.8485 33.254C26.1668 33.7304 26.3367 34.2904 26.3367 34.8633C26.3357 35.6312 26.0301 36.3674 25.4871 36.9104C24.9441 37.4534 24.208 37.7589 23.4401 37.76ZM23.4401 33.5564C23.1826 33.5564 22.9308 33.6328 22.7166 33.7757C22.5025 33.9187 22.3355 34.122 22.2367 34.3598C22.138 34.5977 22.112 34.8594 22.1619 35.1121C22.2119 35.3647 22.3356 35.5968 22.5174 35.7792C22.6992 35.9616 22.931 36.086 23.1835 36.1367C23.4359 36.1874 23.6978 36.1622 23.9359 36.0642C24.174 35.9662 24.3778 35.7998 24.5214 35.5861C24.6651 35.3723 24.7422 35.1208 24.743 34.8633C24.7419 34.5181 24.6043 34.1873 24.3602 33.9432C24.1161 33.6991 23.7853 33.5615 23.4401 33.5604V33.5564Z" fill="#134A85"/>
<path d="M23.4401 46.6171C22.8672 46.6171 22.3071 46.4472 21.8308 46.129C21.3544 45.8107 20.9832 45.3583 20.7639 44.829C20.5447 44.2997 20.4873 43.7173 20.5991 43.1554C20.7109 42.5935 20.9867 42.0774 21.3918 41.6723C21.7969 41.2672 22.3131 40.9913 22.875 40.8795C23.4369 40.7677 24.0193 40.8251 24.5486 41.0443C25.0779 41.2636 25.5303 41.6349 25.8485 42.1112C26.1668 42.5876 26.3367 43.1476 26.3367 43.7205C26.3357 44.4884 26.0301 45.2246 25.4871 45.7676C24.9441 46.3106 24.208 46.6161 23.4401 46.6171ZM23.4401 42.4136C23.1824 42.4136 22.9305 42.49 22.7162 42.6332C22.502 42.7764 22.335 42.9798 22.2364 43.2179C22.1377 43.456 22.1119 43.718 22.1622 43.9707C22.2125 44.2234 22.3366 44.4556 22.5188 44.6378C22.701 44.82 22.9332 44.9441 23.1859 44.9944C23.4386 45.0446 23.7006 45.0188 23.9387 44.9202C24.1767 44.8216 24.3802 44.6546 24.5234 44.4404C24.6665 44.2261 24.743 43.9742 24.743 43.7165C24.7377 43.3741 24.5983 43.0473 24.3546 42.8067C24.111 42.566 23.7826 42.4306 23.4401 42.4296V42.4136Z" fill="#134A85"/>
<path d="M38.8158 42.8599C38.6044 42.8599 38.4017 42.776 38.2523 42.6265C38.1028 42.4771 38.0189 42.2744 38.0189 42.0631V36.5367C38.0189 36.3254 38.1028 36.1227 38.2523 35.9733C38.4017 35.8238 38.6044 35.7399 38.8158 35.7399C39.0271 35.7399 39.2298 35.8238 39.3792 35.9733C39.5287 36.1227 39.6126 36.3254 39.6126 36.5367V42.0671C39.6116 42.2777 39.5272 42.4794 39.3778 42.628C39.2285 42.7765 39.0264 42.86 38.8158 42.8599Z" fill="#134A85"/>
<path d="M35.6761 40.0111C35.4647 40.0111 35.2621 39.9272 35.1126 39.7777C34.9632 39.6283 34.8792 39.4256 34.8792 39.2142V36.5367C34.8792 36.3254 34.9632 36.1227 35.1126 35.9733C35.2621 35.8238 35.4647 35.7399 35.6761 35.7399C35.8874 35.7399 36.0901 35.8238 36.2396 35.9733C36.389 36.1227 36.473 36.3254 36.473 36.5367V39.2142C36.473 39.4256 36.389 39.6283 36.2396 39.7777C36.0901 39.9272 35.8874 40.0111 35.6761 40.0111Z" fill="#134A85"/>
<path d="M32.5404 42.8599C32.329 42.8599 32.1263 42.776 31.9769 42.6265C31.8275 42.4771 31.7435 42.2744 31.7435 42.0631V36.5367C31.7435 36.3254 31.8275 36.1227 31.9769 35.9733C32.1263 35.8238 32.329 35.7399 32.5404 35.7399C32.7517 35.7399 32.9544 35.8238 33.1039 35.9733C33.2533 36.1227 33.3372 36.3254 33.3372 36.5367V42.0671C33.3362 42.2777 33.2518 42.4794 33.1024 42.628C32.9531 42.7765 32.751 42.86 32.5404 42.8599Z" fill="#134A85"/>
</g>
<defs>
<clipPath id="clip0_18_35">
<rect width="51" height="51" fill="white"/>
</clipPath>
</defs>
</svg>
