<svg width="51" height="51" viewBox="0 0 51 51" fill="none" xmlns="http://www.w3.org/2000/svg">
<g clip-path="url(#clip0_18_85)">
<path d="M17.7791 30.1952C17.5762 29.836 17.1201 29.7092 16.7612 29.9124L15.121 30.8391L13.4808 29.9124C13.1215 29.7092 12.6658 29.8359 12.4629 30.1952C12.2599 30.5544 12.3865 31.0103 12.7458 31.2132L13.6025 31.6973L12.7458 32.1814C12.3866 32.3843 12.2599 32.84 12.4629 33.1993C12.6663 33.5592 13.1226 33.6848 13.4808 33.4822L15.121 32.5554L16.7612 33.4822C17.1201 33.6851 17.576 33.5587 17.7791 33.1993C17.9821 32.8401 17.8555 32.3843 17.4962 32.1814L16.6394 31.6973L17.4962 31.2132C17.8555 31.0102 17.9821 30.5544 17.7791 30.1952Z" fill="#134A85"/>
<path d="M33.1059 18.0294C33.5186 18.0294 33.8529 17.695 33.8529 17.2823V10.7617H34.6452C35.7162 10.7617 36.5876 9.89027 36.5876 8.81927V4.66516C36.5876 4.25248 36.2532 3.91809 35.8406 3.91809C35.4279 3.91809 35.0935 4.25248 35.0935 4.66516V8.81927C35.0935 9.06222 34.8882 9.26751 34.6452 9.26751H33.8529V4.66516C33.8529 4.25248 33.5186 3.91809 33.1059 3.91809C32.6932 3.91809 32.3588 4.25248 32.3588 4.66516V9.26751H31.5665C31.3236 9.26751 31.1183 9.06222 31.1183 8.81927V4.66516C31.1183 4.25248 30.7839 3.91809 30.3712 3.91809C29.9585 3.91809 29.6241 4.25248 29.6241 4.66516V8.81927C29.6241 9.89027 30.4955 10.7617 31.5665 10.7617H32.3588V17.2823C32.3588 17.695 32.6933 18.0294 33.1059 18.0294Z" fill="#134A85"/>
<path d="M41.4212 18.0294C41.8339 18.0294 42.1682 17.695 42.1682 17.2823V11.2383C43.7845 10.9726 44.7914 9.82642 44.7914 8.16802C44.7914 6.16179 43.35 3.91809 41.4212 3.91809C39.4923 3.91809 38.0511 6.16179 38.0511 8.16802C38.0511 9.82642 39.0579 10.9726 40.6741 11.2383V17.2823C40.6741 17.695 41.0085 18.0294 41.4212 18.0294ZM39.5452 8.16802C39.5452 6.82878 40.5095 5.41223 41.4212 5.41223C42.3329 5.41223 43.2972 6.82878 43.2972 8.16802C43.2972 9.59084 42.1218 9.80331 41.4212 9.80331C40.7206 9.80331 39.5452 9.59084 39.5452 8.16802Z" fill="#134A85"/>
<path d="M26.7461 39.9042C26.7413 39.9022 26.7365 39.9003 26.7316 39.8984L24.8952 39.1872C25.6354 38.397 26.062 37.3064 26.0809 36.0715C26.1025 34.6622 25.5596 33.4644 24.6977 33.0201C24.2842 32.8068 24.0028 32.6039 23.8125 32.3816C23.5139 32.0324 23.2664 31.3759 23.1655 30.7012C23.7347 30.1624 24.0585 29.4265 24.0585 28.6595C24.0585 28.0621 23.863 27.4835 23.504 26.9999V24.3084C23.504 19.7045 19.7857 15.9091 15.0637 15.9309C10.4788 15.9644 6.74854 19.7654 6.74854 24.404V26.9995C6.38934 27.4833 6.19391 28.062 6.19391 28.6594C6.19391 29.4263 6.51764 30.1622 7.08681 30.701C6.986 31.3757 6.73838 32.0324 6.43985 32.3815C6.24969 32.6038 5.96839 32.8067 5.55462 33.02C4.64927 33.4867 4.06665 34.7941 4.1048 36.2731C4.13508 37.4476 4.54667 38.4786 5.24931 39.2281C5.08366 39.2924 3.75687 39.8067 3.52049 39.8984C3.51571 39.9002 3.51103 39.9021 3.50625 39.9041C1.81767 40.5991 0 42.5891 0 45.316V49.2388C0 50.2099 0.790201 51.0001 1.76139 51.0001H13.3779C13.7906 51.0001 14.125 50.6657 14.125 50.253C14.125 49.8403 13.7906 49.5059 13.3779 49.5059H6.18823V44.7187C6.18823 44.306 5.85384 43.9716 5.44116 43.9716C5.02848 43.9716 4.69409 44.306 4.69409 44.7187V49.5059H1.76139C1.61407 49.5059 1.49414 49.3861 1.49414 49.2387V45.3159C1.49414 43.1429 3.03121 41.7188 4.06864 41.2885C4.17493 41.2473 9.08348 39.3444 9.21666 39.2928C10.0693 41.6483 12.2822 43.3792 15.1806 43.3889H15.2009C17.8038 43.3889 20.1277 41.7103 21.0206 39.2889C21.689 39.5478 22.4099 39.827 23.0959 40.0926C23.0964 40.0928 23.097 40.0929 23.0975 40.0931L26.1844 41.2885C27.4647 41.8193 28.7584 43.371 28.7584 45.3158V49.2386C28.7584 49.3859 28.6386 49.5058 28.4912 49.5058H25.5585V44.7186C25.5585 44.3059 25.2241 43.9715 24.8114 43.9715C24.3987 43.9715 24.0643 44.3059 24.0643 44.7186V49.5059H16.8644C16.4517 49.5059 16.1173 49.8403 16.1173 50.253C16.1173 50.6657 16.4517 51.0001 16.8644 51.0001H28.4913C29.4625 51.0001 30.2527 50.2099 30.2527 49.2387V45.3159C30.2525 42.9794 28.8105 40.754 26.7461 39.9042ZM22.5644 28.6596C22.5644 29.3277 22.0481 29.8561 21.4075 30.001V27.4034C22.0768 27.531 22.5644 27.9702 22.5644 28.6596ZM8.24277 24.4042C8.24277 20.5682 11.3324 17.425 15.1266 17.425C18.9291 17.425 22.01 20.5013 22.01 24.3085V26.0131C21.6312 25.9014 21.2136 25.8536 20.7813 25.8874C20.5101 25.9087 20.9794 25.9043 19.1586 25.9043C19.0327 25.9043 19.0422 25.9036 18.074 25.8209C17.0878 25.7373 16.1914 24.9795 15.9429 23.9588C15.7355 23.1036 14.5168 23.1051 14.31 23.9583C14.181 24.4827 13.8764 24.946 13.4847 25.2731C12.653 25.9661 10.178 25.9601 9.57137 25.8979C9.10987 25.8505 8.65197 25.9022 8.24268 26.0284L8.24277 24.4042ZM19.9134 27.3985V30.574C19.9134 33.119 17.8491 35.3053 15.2531 35.3345C12.4225 35.3757 10.3391 33.1733 10.3391 30.6275V27.3985H11.0389C11.2617 27.3985 12.1685 27.3233 12.2681 27.3159C13.4032 27.229 14.4573 26.6001 15.1223 25.6864C15.7784 26.6008 16.8054 27.213 17.9476 27.31C18.9292 27.3936 18.9576 27.3986 19.1584 27.3986H19.9134V27.3985ZM8.01875 27.8049C8.28371 27.6013 8.56471 27.4736 8.84491 27.4139V30.0012C8.20592 29.8567 7.68805 29.3289 7.68805 28.6596C7.68815 28.2396 7.91914 27.8813 8.01875 27.8049ZM6.83619 38.6131C5.7641 37.968 5.61199 36.754 5.59864 36.2348C5.57275 35.2326 5.95415 34.4952 6.23943 34.3482C6.83091 34.0433 7.25535 33.7271 7.57539 33.3529C8.02015 32.8329 8.30413 32.1248 8.46391 31.4473C8.57916 31.4755 8.76692 31.5089 8.91135 31.5225C9.14952 33.1579 10.0232 34.5837 11.2638 35.5361L11.2639 36.8976C11.1348 36.946 11.7537 36.7067 6.83619 38.6131ZM15.2009 41.8949C15.1957 41.8949 15.1905 41.8949 15.1855 41.8949C12.7431 41.8867 11.1925 40.3932 10.6097 38.7528C10.6515 38.7365 11.6914 38.3333 11.7332 38.3173C12.3579 38.0823 12.7581 37.6849 12.7581 37.0228V36.3813C14.1533 36.9288 15.9023 37.0272 17.4905 36.3848L17.491 37.0284C17.4925 37.5338 17.7753 37.9747 18.21 38.1932C18.3096 38.2433 18.2437 38.2136 19.6278 38.7497C18.9554 40.606 17.1841 41.8949 15.2009 41.8949ZM23.3122 38.5742C21.4802 37.8647 19.6204 37.1444 18.9851 36.8984L18.984 35.5193C20.2087 34.5647 21.0885 33.1439 21.3354 31.523C21.4553 31.512 21.6417 31.4833 21.7886 31.4475C21.9483 32.125 22.2324 32.8331 22.6772 33.353C22.9972 33.7272 23.4217 34.0436 24.0129 34.3483C24.2993 34.4959 24.6002 35.1881 24.587 36.0488C24.5805 36.4753 24.4654 37.8469 23.3122 38.5742Z" fill="#134A85"/>
<path d="M46.4784 0H27.9369C25.4438 0 23.4155 2.02825 23.4155 4.52147V17.1727C23.4155 19.6658 25.4437 21.6942 27.9369 21.6942H37.9076C38.1343 21.6942 38.3189 21.8787 38.3189 22.1054V26.2757C38.3189 27.7368 40.1472 28.3973 41.0816 27.2763L45.6129 21.842C45.6912 21.7481 45.8063 21.6942 45.9287 21.6942H46.4785C48.9716 21.6942 51.0001 19.6659 51.0001 17.1727V12.3555C51.0001 11.9429 50.6657 11.6085 50.253 11.6085C49.8403 11.6085 49.506 11.9429 49.506 12.3555V17.1727C49.506 18.842 48.1479 20.2001 46.4785 20.2001H45.9287C45.3618 20.2001 44.8284 20.4498 44.4654 20.8853L39.9341 26.3196C39.9204 26.336 39.9036 26.3562 39.8582 26.3401C39.8131 26.3238 39.8131 26.2971 39.8131 26.2758V22.1053C39.8131 21.0547 38.9583 20.2 37.9076 20.2H27.9369C26.2677 20.2 24.9096 18.8419 24.9096 17.1726V4.52147C24.9096 2.85221 26.2677 1.49414 27.9369 1.49414H46.4785C48.1478 1.49414 49.5059 2.85221 49.5059 4.52147V8.86912C49.5059 9.2818 49.8402 9.61619 50.2529 9.61619C50.6656 9.61619 51 9.2818 51 8.86912V4.52147C51 2.02825 48.9716 0 46.4784 0Z" fill="#134A85"/>
</g>
<defs>
<clipPath id="clip0_18_85">
<rect width="51" height="51" fill="white"/>
</clipPath>
</defs>
</svg>
