<svg width="51" height="51" viewBox="0 0 51 51" fill="none" xmlns="http://www.w3.org/2000/svg">
<g clip-path="url(#clip0_27_256)">
<path d="M17.3599 8.22828C19.1526 8.22828 20.6112 6.76971 20.6112 4.97696V1.0205C20.6112 0.607923 20.2768 0.273438 19.8641 0.273438C19.4515 0.273438 19.1171 0.607923 19.1171 1.0205V4.97696C19.1171 5.94585 18.3289 6.73415 17.3599 6.73415H13.5813C10.8552 6.73415 8.17707 7.66659 6.04046 9.35963C3.90376 11.0528 2.38383 13.4468 1.76058 16.1007L0.0199191 23.5139C-0.0743106 23.9155 0.17481 24.3177 0.576432 24.412C0.633906 24.4255 0.691281 24.4319 0.747958 24.4319C1.08683 24.4319 1.39372 24.1997 1.4746 23.8555L3.21536 16.4423C3.76182 14.1149 5.09468 12.0155 6.96852 10.5307C8.84235 9.04597 11.1908 8.22828 13.5815 8.22828H17.3599Z" fill="#134A85"/>
<path d="M41.7316 14.0562C41.3189 14.0562 40.9845 14.3906 40.9845 14.8032V21.7332C40.9845 24.0159 40.7702 26.3107 40.3474 28.554L38.8079 36.725C38.4749 38.4924 38.306 40.3003 38.306 42.0984V49.9795C38.306 50.3921 38.6404 50.7266 39.0531 50.7266C39.4658 50.7266 39.8002 50.3921 39.8002 49.9795V42.0984C39.8002 40.3929 39.9602 38.6781 40.2761 37.0016L41.8156 28.8307C42.2555 26.4965 42.4785 24.1086 42.4785 21.7333V14.8033C42.4786 14.3906 42.1442 14.0562 41.7316 14.0562Z" fill="#134A85"/>
<path d="M50.9801 23.5139L49.2393 16.1007C48.6161 13.4468 47.0961 11.0528 44.9594 9.35963C42.8228 7.66659 40.1446 6.73415 37.4186 6.73415H33.64C32.671 6.73415 31.8828 5.94585 31.8828 4.97696V1.0205C31.8828 0.607923 31.5484 0.273438 31.1357 0.273438C30.7231 0.273438 30.3887 0.607923 30.3887 1.0205V4.97696C30.3887 6.76971 31.8472 8.22828 33.64 8.22828H37.4186C39.8093 8.22828 42.1577 9.04597 44.0316 10.5307C45.9054 12.0155 47.2382 14.1148 47.7847 16.4423L49.5255 23.8555C49.6064 24.1997 49.9133 24.4319 50.2521 24.4319C50.3087 24.4319 50.3662 24.4254 50.4236 24.412C50.8252 24.3177 51.0743 23.9155 50.9801 23.5139Z" fill="#134A85"/>
<path d="M25.5 30.7373C25.0873 30.7373 24.7529 31.0718 24.7529 31.4844V36.8966C24.7529 37.3091 25.0873 37.6436 25.5 37.6436C25.9127 37.6436 26.2471 37.3091 26.2471 36.8966V31.4844C26.2471 31.0718 25.9126 30.7373 25.5 30.7373Z" fill="#134A85"/>
<path d="M25.5 43.6284C25.0873 43.6284 24.7529 43.9629 24.7529 44.3755V49.9795C24.7529 50.3921 25.0873 50.7266 25.5 50.7266C25.9127 50.7266 26.2471 50.3921 26.2471 49.9795V44.3755C26.2471 43.9629 25.9126 43.6284 25.5 43.6284Z" fill="#134A85"/>
<path d="M32.9808 13.521C29.5502 13.521 26.759 16.3121 26.759 19.7427C26.759 23.1733 29.5502 25.9645 32.9808 25.9645C36.4115 25.9645 39.2026 23.1734 39.2026 19.7427C39.2026 16.312 36.4116 13.521 32.9808 13.521ZM32.9808 24.4704C30.374 24.4704 28.2532 22.3495 28.2532 19.7427C28.2532 17.1359 30.374 15.0151 32.9808 15.0151C35.5877 15.0151 37.7085 17.1359 37.7085 19.7427C37.7085 22.3495 35.5877 24.4704 32.9808 24.4704Z" fill="#134A85"/>
<path d="M31.2535 22.0922C31.6769 22.0922 32.0202 21.749 32.0202 21.3255C32.0202 20.9021 31.6769 20.5588 31.2535 20.5588C30.8301 20.5588 30.4868 20.9021 30.4868 21.3255C30.4868 21.749 30.8301 22.0922 31.2535 22.0922Z" fill="#134A85"/>
<path d="M32.5825 18.6081C33.0059 18.6081 33.3492 18.2648 33.3492 17.8414C33.3492 17.418 33.0059 17.0747 32.5825 17.0747C32.1591 17.0747 31.8158 17.418 31.8158 17.8414C31.8158 18.2648 32.1591 18.6081 32.5825 18.6081Z" fill="#134A85"/>
<path d="M35.1457 21.2551C35.5692 21.2551 35.9124 20.9118 35.9124 20.4884C35.9124 20.0649 35.5692 19.7217 35.1457 19.7217C34.7223 19.7217 34.379 20.0649 34.379 20.4884C34.379 20.9118 34.7223 21.2551 35.1457 21.2551Z" fill="#134A85"/>
<path d="M15.9179 24.7404C13.6175 24.7404 11.6062 25.9962 10.5297 27.8574C10.1892 25.8368 10.0155 23.7802 10.0155 21.7332V14.8032C10.0155 14.3906 9.68111 14.0562 9.26843 14.0562C8.85575 14.0562 8.52136 14.3906 8.52136 14.8032V21.7332C8.52136 24.1085 8.74439 26.4964 9.18426 28.8306L10.7238 37.0016C11.0397 38.678 11.1997 40.3928 11.1997 42.0983V49.9794C11.1997 50.392 11.5341 50.7265 11.9468 50.7265C12.3595 50.7265 12.6939 50.392 12.6939 49.9794V42.0983C12.6939 40.3001 12.525 38.4923 12.192 36.7249L12.0188 35.8054C13.0864 36.6666 14.4427 37.1837 15.918 37.1837C19.3486 37.1837 22.1396 34.3926 22.1396 30.962C22.1396 27.5314 19.3485 24.7404 15.9179 24.7404ZM15.9179 35.6896C13.311 35.6896 11.1903 33.5689 11.1903 30.9621C11.1903 28.3554 13.311 26.2345 15.9179 26.2345C18.5247 26.2345 20.6454 28.3554 20.6454 30.9621C20.6454 33.5689 18.5247 35.6896 15.9179 35.6896Z" fill="#134A85"/>
<path d="M14.1905 33.3115C14.614 33.3115 14.9572 32.9682 14.9572 32.5448C14.9572 32.1213 14.614 31.7781 14.1905 31.7781C13.7671 31.7781 13.4238 32.1213 13.4238 32.5448C13.4238 32.9682 13.7671 33.3115 14.1905 33.3115Z" fill="#134A85"/>
<path d="M15.5194 29.8273C15.9428 29.8273 16.2861 29.4841 16.2861 29.0606C16.2861 28.6372 15.9428 28.2939 15.5194 28.2939C15.0959 28.2939 14.7527 28.6372 14.7527 29.0606C14.7527 29.4841 15.0959 29.8273 15.5194 29.8273Z" fill="#134A85"/>
<path d="M18.0827 30.9409C17.6593 30.9409 17.316 31.2842 17.316 31.7076C17.316 32.131 17.6593 32.4743 18.0827 32.4743C18.5062 32.4743 18.8494 32.131 18.8494 31.7076C18.8494 31.2842 18.5062 30.9409 18.0827 30.9409Z" fill="#134A85"/>
<path d="M30.154 43.457C29.7306 43.457 29.3873 43.8003 29.3873 44.2237C29.3873 44.6472 29.7306 44.9904 30.154 44.9904C30.5775 44.9904 30.9207 44.6472 30.9207 44.2237C30.9207 43.8003 30.5775 43.457 30.154 43.457Z" fill="#134A85"/>
<path d="M31.483 41.5063C31.9064 41.5063 32.2497 41.163 32.2497 40.7396C32.2497 40.3162 31.9064 39.9729 31.483 39.9729C31.0596 39.9729 30.7163 40.3162 30.7163 40.7396C30.7163 41.163 31.0596 41.5063 31.483 41.5063Z" fill="#134A85"/>
<path d="M34.0464 42.6199C33.6229 42.6199 33.2797 42.9631 33.2797 43.3866C33.2797 43.81 33.6229 44.1533 34.0464 44.1533C34.4698 44.1533 34.813 43.81 34.813 43.3866C34.813 42.9631 34.4698 42.6199 34.0464 42.6199Z" fill="#134A85"/>
</g>
<defs>
<clipPath id="clip0_27_256">
<rect width="51" height="51" fill="white"/>
</clipPath>
</defs>
</svg>
