<svg width="51" height="51" viewBox="0 0 51 51" fill="none" xmlns="http://www.w3.org/2000/svg">
<path d="M20.4564 14.4459C20.5636 14.4971 20.6809 14.5236 20.7996 14.5236H22.1234C21.9773 14.9369 21.8761 15.3766 21.8268 15.8356C21.564 18.2809 22.7371 22.058 29.8178 26.165C29.9414 26.2367 30.0795 26.2726 30.2177 26.2726C30.3558 26.2726 30.4939 26.2367 30.6175 26.165C37.6982 22.058 38.8713 18.2809 38.6086 15.8356C38.5592 15.3766 38.458 14.937 38.3119 14.5236H40.293C40.4319 14.5236 40.5683 14.4874 40.6888 14.4185C42.6496 13.2966 43.5487 10.9288 42.8267 8.78833C42.197 6.92116 40.481 5.66409 38.5664 5.56886C38.5166 5.23836 38.4321 4.91074 38.3083 4.59239C37.6299 2.84723 35.9177 1.67622 34.0456 1.67622H34.0383C33.4924 1.67712 32.9596 1.77643 32.4603 1.96091C31.6361 0.839904 30.3198 0.219935 28.8697 0.309385C27.3329 0.404412 25.9896 1.29253 25.2872 2.62959C24.84 2.58616 24.3829 2.61225 23.9303 2.71475C22.5204 3.0338 21.3672 4.06765 20.8758 5.40859C19.1621 6.03563 17.9351 7.55656 17.7008 9.39515C17.4326 11.5016 18.5399 13.5314 20.4564 14.4459ZM30.2177 24.5509C25.5327 21.747 23.1195 18.7226 23.4114 16.0059C23.5733 14.4985 24.4893 13.2964 25.745 12.9434C25.9824 12.8767 26.2231 12.8438 26.4653 12.8438C27.5451 12.8438 28.6506 13.4976 29.5857 14.7147C29.7365 14.911 29.97 15.0261 30.2177 15.0261C30.4653 15.0261 30.6988 14.911 30.8496 14.7147C31.9943 13.2247 33.3944 12.579 34.6903 12.9434C35.9459 13.2964 36.8619 14.4984 37.0239 16.0059C37.3158 18.7225 34.9026 21.747 30.2177 24.5509ZM19.2819 9.59657C19.4017 8.65695 19.906 7.84085 20.6453 7.31551C20.7653 8.40494 21.3012 9.4346 22.169 10.1477C22.3173 10.2696 22.4964 10.3289 22.6745 10.3289C22.9047 10.3289 23.1331 10.2297 23.2906 10.0379C23.57 9.69787 23.5209 9.19574 23.1809 8.91633C22.4024 8.27664 22.0495 7.22975 22.2819 6.24929C22.5142 5.26884 23.2993 4.49158 24.282 4.26926C25.0839 4.08757 25.9096 4.28131 26.5471 4.80017C26.8883 5.07808 27.3903 5.02649 27.6681 4.68522C27.946 4.34396 27.8945 3.84203 27.5531 3.56422C27.3332 3.38512 27.0985 3.23182 26.8539 3.10203C27.3928 2.29201 28.2507 1.94467 28.9681 1.90025C29.8148 1.84765 30.5641 2.16839 31.0725 2.77492C30.8878 2.9331 30.7144 3.10671 30.5548 3.29528C30.2706 3.63126 30.3123 4.13399 30.6483 4.41837C30.9842 4.70266 31.4869 4.66092 31.7714 4.32494C32.3375 3.65606 33.1648 3.27157 34.041 3.27007H34.0457C35.2653 3.27007 36.381 4.03308 36.8229 5.17002C37.1795 6.08723 37.0607 7.11958 36.5053 7.93159C36.2568 8.29487 36.3499 8.79072 36.7131 9.03925C36.8506 9.13338 37.0072 9.1785 37.1622 9.1784C37.4164 9.1784 37.6663 9.05708 37.8206 8.83137C38.1702 8.32037 38.4049 7.7522 38.5251 7.16311C39.7815 7.2403 40.9024 8.07035 41.3163 9.29784C41.774 10.6549 41.2501 12.1498 40.0681 12.9301H37.4183C36.819 12.2015 36.0306 11.665 35.1214 11.4094C33.42 10.931 31.672 11.5127 30.2175 13.0106C28.7631 11.5127 27.0149 10.9312 25.3135 11.4093C24.4044 11.6649 23.6159 12.2015 23.0166 12.9301H20.9899C19.79 12.2804 19.1077 10.9625 19.2817 9.59666L19.2819 9.59657ZM42.921 12.9532C43.348 12.8475 43.7801 13.1088 43.8856 13.5361C44.1788 14.7253 44.2402 15.9761 44.0677 17.2542C43.9868 17.8543 43.7973 18.3759 43.6302 18.8362C43.4575 19.3115 43.3085 19.722 43.3181 20.0962C43.3447 20.3885 44.0098 21.3815 44.5965 22.2577C44.8281 22.6036 45.0906 22.9954 45.3667 23.4179C46.0915 24.5409 46.3181 25.341 46.1037 26.0159C45.8576 26.79 45.0981 27.0954 44.8485 27.1957C44.6432 27.2783 44.4183 27.3419 44.2008 27.4033C43.5971 27.574 43.2691 27.6986 43.2642 27.8681C43.2494 28.3805 43.3136 29.3247 43.3758 30.2378C43.4337 31.09 43.4937 31.9712 43.4937 32.5683C43.4937 33.5214 43.2098 34.265 42.6503 34.7782C41.6421 35.7029 39.9888 35.6448 38.3814 35.506C38.3694 35.505 38.3573 35.5037 38.3454 35.502C37.2718 35.3597 36.3811 35.2036 35.5857 35.0177C34.8002 35.882 34.1828 36.8151 33.5663 38.0589C33.4273 38.3395 33.1451 38.5021 32.8517 38.5022C32.7329 38.5022 32.6122 38.4755 32.4985 38.4191C32.1042 38.2237 31.9429 37.7456 32.1383 37.3513C32.9119 35.7904 33.6945 34.6613 34.7552 33.5757C34.9551 33.3711 35.2492 33.2893 35.5262 33.3616C36.3687 33.5813 37.3257 33.7588 38.5366 33.9198C39.8174 34.0298 41.069 34.066 41.5729 33.6038C41.6538 33.5297 41.8998 33.304 41.8998 32.5683C41.8998 32.0255 41.8418 31.1718 41.7856 30.3462C41.7179 29.3514 41.654 28.4117 41.6711 27.822C41.711 26.4512 43.0487 26.0731 43.7673 25.8699C43.9526 25.8176 44.1277 25.768 44.2539 25.7173C44.5327 25.6053 44.5863 25.529 44.5875 25.5274C44.5862 25.5274 44.6493 25.2457 44.03 24.2862C43.7613 23.8751 43.5015 23.4871 43.2723 23.1448C42.2863 21.6727 41.7432 20.8618 41.7247 20.1371C41.7075 19.4616 41.9234 18.8673 42.132 18.2925C42.2853 17.8703 42.4302 17.4717 42.4881 17.0414C42.6337 15.9627 42.5832 14.9118 42.338 13.918C42.2326 13.4907 42.4936 13.0589 42.9209 12.9535L42.921 12.9532ZM19.4407 25.8137C16.9437 21.412 16.209 17.5595 17.1945 14.0361C17.3131 13.6121 17.7527 13.3648 18.1766 13.4833C18.6004 13.6019 18.8479 14.0415 18.7293 14.4654C17.864 17.559 18.5501 21.0139 20.827 25.0274C23.6396 29.9853 22.5964 34.8291 21.2261 38.0196C21.0964 38.3214 20.8025 38.5022 20.4936 38.5022C20.3887 38.5022 20.282 38.4814 20.1795 38.4374C19.7751 38.2636 19.5881 37.7951 19.7619 37.3907C20.9897 34.532 21.9307 30.2029 19.4408 25.8138L19.4407 25.8137ZM25.5807 7.08501C25.8364 6.72692 26.3341 6.64374 26.6923 6.89954C27.0609 7.16281 27.635 7.22377 28.0883 7.04776C28.4891 6.89217 28.7421 6.58029 28.8404 6.12069C28.9323 5.69038 29.3556 5.41606 29.7861 5.5078C30.2166 5.59974 30.4909 6.02318 30.399 6.45359C30.1877 7.44291 29.5719 8.18161 28.6649 8.53353C28.305 8.67319 27.919 8.74152 27.5346 8.74152C26.8993 8.74152 26.2683 8.55505 25.7662 8.19656C25.408 7.94086 25.3249 7.44321 25.5807 7.08501ZM32.6178 8.71791C32.2721 7.83318 32.3988 6.84595 32.9567 6.07697C33.2151 5.72076 33.7133 5.64147 34.0697 5.89996C34.4259 6.15845 34.5051 6.65669 34.2467 7.0129C34.009 7.34041 33.955 7.76096 34.1022 8.13788C34.2495 8.51491 34.5743 8.78744 34.971 8.86712C35.4025 8.95378 35.682 9.37384 35.5954 9.80525C35.5194 10.1838 35.1868 10.4453 34.8149 10.4453C34.7629 10.4453 34.7101 10.4403 34.6572 10.4296C33.7258 10.2425 32.9635 9.60264 32.6177 8.71771L32.6178 8.71791ZM47.9067 34.6693C46.9465 33.6801 45.0903 33.4507 43.4004 34.9267L37.0303 40.4909C36.5341 39.623 35.5989 39.0366 34.5295 39.0366H27.1344C25.8546 39.0366 24.6828 39.3601 23.6515 39.9982C21.7451 41.1779 19.5652 41.3299 17.514 40.4263C16.0055 39.7618 14.162 38.0874 12.5825 35.9475C11.2629 34.1596 9.49851 31.2101 8.58708 27.3115C7.47753 22.566 7.44915 15.362 13.6145 7.99016C13.871 7.68347 13.8605 7.23413 13.5899 6.93968C13.3193 6.64524 12.8724 6.59713 12.5452 6.82683C7.77118 10.18 4.51406 14.8784 3.1256 20.414C1.85259 25.4898 2.25601 31.0118 4.26165 35.9628C6.25712 40.8885 9.61973 44.8655 13.986 47.4635C17.5861 49.6056 21.7545 50.6992 26.2277 50.6991C27.7265 50.6991 29.2599 50.5763 30.8172 50.3289C35.3523 49.6089 39.2286 47.726 41.732 45.0271L47.6082 38.6924C49.0194 37.1708 48.7523 35.5402 47.9069 34.6691L47.9067 34.6693ZM46.4395 37.6087L40.5634 43.9435C38.3016 46.3819 34.7515 48.0907 30.5672 48.7551C17.1257 50.8897 8.92814 43.2374 5.73865 35.3645C2.9476 28.4748 3.13666 19.4269 8.76658 12.4804C5.88697 18.3423 6.12394 23.7775 7.03507 27.6745C8.64655 34.567 13.3019 40.3124 16.8715 41.8848C19.4179 43.0066 22.1236 42.818 24.49 41.3536C25.2656 40.8738 26.1553 40.6305 27.1343 40.6305H34.5294C35.2379 40.6305 35.8142 41.2068 35.8142 41.9152C35.8142 42.6236 35.2379 43.2 34.5294 43.2H28.7076C28.2675 43.2 27.9107 43.5568 27.9107 43.9969C27.9107 44.4369 28.2675 44.7937 28.7076 44.7937H34.5294C35.986 44.7937 37.1925 43.706 37.3815 42.3003L44.4487 36.127C45.4347 35.2658 46.3395 35.3431 46.763 35.7793C47.1896 36.2189 47.0626 36.937 46.4394 37.6087H46.4395ZM34.3922 15.57C34.7135 15.8708 34.7304 16.3751 34.4295 16.6963L30.1182 21.3036C29.967 21.4651 29.7561 21.556 29.5364 21.556C29.5183 21.556 29.5003 21.5554 29.482 21.5541C29.2432 21.5377 29.0242 21.4148 28.8859 21.2194L26.9577 18.4945C26.7035 18.1352 26.7887 17.6378 27.1479 17.3837C27.5072 17.1295 28.0045 17.2148 28.2586 17.5739L29.6223 19.501L33.2658 15.6074C33.5666 15.286 34.0709 15.2693 34.3921 15.57H34.3922Z" fill="#134A85"/>
</svg>
