<svg width="51" height="51" viewBox="0 0 51 51" fill="none" xmlns="http://www.w3.org/2000/svg">
<path d="M36.9535 28.3021C37.1563 28.235 37.3245 28.0907 37.4216 27.9005C37.5187 27.7102 37.5369 27.4894 37.4723 27.2858C37.4416 27.1852 37.3914 27.0917 37.3244 27.0106C37.2574 26.9296 37.175 26.8626 37.0819 26.8136C36.9889 26.7646 36.887 26.7346 36.7823 26.7252C36.6776 26.7158 36.572 26.7273 36.4717 26.7589C35.2151 27.1641 31.075 25.4004 29.5074 25.4501C27.8379 25.5031 25.3098 24.3876 24.8618 23.6125C24.4361 22.8761 24.7271 21.7729 24.6833 21.6182C24.3023 22.4419 23.8187 23.2142 23.244 23.9166C23.5372 24.6936 25.0374 26.1045 26.4805 26.5599C26.8856 27.1476 27.8122 28.8327 27.5985 30.1299C27.5621 30.3402 27.6106 30.5564 27.7333 30.7311C27.856 30.9058 28.0429 31.0248 28.2531 31.0619C28.4622 31.0904 28.6743 31.0372 28.8452 30.9133C29.0161 30.7895 29.1327 30.6046 29.1708 30.3971C29.2924 29.2227 29.0725 28.0382 28.5376 26.9857C28.82 27.0166 29.1002 27.0406 29.3759 27.0637C31.161 27.2143 32.2927 27.3712 33.0349 28.6515C33.431 29.4364 33.7359 30.2641 33.9436 31.1184C34.5504 33.2118 35.2202 35.6639 37.8019 36.2321C38.0075 36.272 38.2205 36.2337 38.3992 36.1245C38.5779 36.0154 38.7094 35.8435 38.7678 35.6424C38.8199 35.4354 38.788 35.2161 38.6793 35.0324C38.5706 34.8487 38.3937 34.7154 38.1872 34.6613C36.6223 34.2657 36.118 32.8861 35.4727 30.6611C35.2699 29.8988 35.0143 29.1515 34.7077 28.4248C35.4556 28.561 36.225 28.519 36.9535 28.3021Z" fill="#134A85"/>
<path d="M24.6995 36.432C25.1396 36.432 25.4964 36.0695 25.4964 35.6224C25.4964 35.1752 25.1396 34.8127 24.6995 34.8127C24.2594 34.8127 23.9026 35.1752 23.9026 35.6224C23.9026 36.0695 24.2594 36.432 24.6995 36.432Z" fill="#134A85"/>
<path d="M28.2863 35.6224C28.7264 35.6224 29.0832 35.2599 29.0832 34.8128C29.0832 34.3657 28.7264 34.0032 28.2863 34.0032C27.8462 34.0032 27.4894 34.3657 27.4894 34.8128C27.4894 35.2599 27.8462 35.6224 28.2863 35.6224Z" fill="#134A85"/>
<path d="M29.0832 38.8605C29.5233 38.8605 29.8801 38.498 29.8801 38.0508C29.8801 37.6037 29.5233 37.2412 29.0832 37.2412C28.6431 37.2412 28.2863 37.6037 28.2863 38.0508C28.2863 38.498 28.6431 38.8605 29.0832 38.8605Z" fill="#134A85"/>
<path d="M31.873 36.8368C32.3131 36.8368 32.6699 36.4743 32.6699 36.0272C32.6699 35.58 32.3131 35.2175 31.873 35.2175C31.4329 35.2175 31.0761 35.58 31.0761 36.0272C31.0761 36.4743 31.4329 36.8368 31.873 36.8368Z" fill="#134A85"/>
<path d="M34.6625 38.8605C35.1026 38.8605 35.4594 38.498 35.4594 38.0508C35.4594 37.6037 35.1026 37.2412 34.6625 37.2412C34.2224 37.2412 33.8656 37.6037 33.8656 38.0508C33.8656 38.498 34.2224 38.8605 34.6625 38.8605Z" fill="#134A85"/>
<path d="M38.2492 40.0748C38.6893 40.0748 39.0461 39.7123 39.0461 39.2652C39.0461 38.818 38.6893 38.4556 38.2492 38.4556C37.8091 38.4556 37.4523 38.818 37.4523 39.2652C37.4523 39.7123 37.8091 40.0748 38.2492 40.0748Z" fill="#134A85"/>
<path d="M37.8253 46.2626C37.7666 46.1245 37.67 46.0057 37.5468 45.9201C37.4235 45.8344 37.2786 45.7853 37.1286 45.7784C36.9787 45.7712 36.8298 45.8073 36.6997 45.8823C36.5696 45.9572 36.4637 46.068 36.3947 46.2013L36.3223 46.3365L35.8448 45.0779C35.8081 44.9794 35.7523 44.8891 35.6805 44.8123C35.6087 44.7355 35.5223 44.6737 35.4265 44.6306C35.3306 44.5874 35.2271 44.5637 35.122 44.5608C35.0169 44.558 34.9123 44.576 34.8142 44.6139C34.6159 44.6934 34.4568 44.8478 34.3713 45.0436C34.2858 45.2395 34.2808 45.4611 34.3573 45.6606L35.4564 48.5556C35.5101 48.699 35.604 48.8239 35.7267 48.9155C35.8495 49.0071 35.9959 49.0615 36.1487 49.0722C36.3016 49.0833 36.4544 49.0492 36.5881 48.9741C36.7217 48.8991 36.8304 48.7864 36.9006 48.6501L37.0185 48.4291L37.5723 49.7142C37.6143 49.8111 37.675 49.8987 37.751 49.9721C37.827 50.0454 37.9168 50.1029 38.0152 50.1413C38.1135 50.1797 38.2185 50.1982 38.3241 50.1958C38.4297 50.1933 38.5337 50.17 38.6302 50.1271C38.7267 50.0842 38.8138 50.0226 38.8863 49.9459C38.9589 49.8691 39.0155 49.7788 39.0529 49.68C39.0903 49.5813 39.1078 49.4761 39.1043 49.3705C39.1008 49.265 39.0764 49.1612 39.0325 49.0651L37.8253 46.2626Z" fill="#134A85"/>
<path d="M25.6122 43.4072L22.7004 44.5373C22.5547 44.5955 22.4288 44.6946 22.3381 44.8226C22.2473 44.9506 22.1954 45.102 22.1886 45.2588C22.1819 45.4156 22.2206 45.571 22.3 45.7063C22.3795 45.8416 22.4964 45.9511 22.6366 46.0216L22.7989 46.1018L21.5792 46.6367C21.3843 46.7219 21.231 46.8807 21.1525 47.0784C21.074 47.2761 21.0766 47.4967 21.1599 47.6925C21.2431 47.8882 21.4002 48.0432 21.5971 48.1238C21.7939 48.2044 22.0146 48.2041 22.2112 48.1229L25.0265 46.8884C25.167 46.8253 25.2867 46.7236 25.3718 46.5953C25.4568 46.4669 25.5038 46.317 25.5072 46.163C25.5105 46.0091 25.4702 45.8573 25.3909 45.7253C25.3115 45.5933 25.1964 45.4865 25.0588 45.4172L24.9884 45.3824L26.1812 44.9196C26.3798 44.8407 26.5394 44.6869 26.6255 44.4913C26.7116 44.2958 26.7172 44.0742 26.6412 43.8745C26.6049 43.7758 26.5494 43.6853 26.4778 43.6083C26.4062 43.5313 26.3201 43.4692 26.2244 43.4258C26.1286 43.3823 26.0252 43.3583 25.9202 43.3551C25.8151 43.3519 25.7104 43.3696 25.6122 43.4072Z" fill="#134A85"/>
<path d="M30.6995 46.9496L30.0297 46.9492L30.9155 45.8994C31.0532 45.7356 31.1212 45.5244 31.1051 45.311C31.0889 45.0976 30.9899 44.899 30.8291 44.7578C30.75 44.6888 30.6579 44.6363 30.5582 44.6032C30.4586 44.5702 30.3533 44.5575 30.2487 44.5656C30.144 44.5738 30.042 44.6028 29.9487 44.6508C29.8554 44.6989 29.7726 44.7651 29.7051 44.8456L27.6927 47.2307C27.5934 47.349 27.5295 47.4929 27.5085 47.646C27.4874 47.799 27.51 47.9548 27.5736 48.0956C27.6361 48.2355 27.7377 48.3544 27.8661 48.438C27.9945 48.5216 28.1442 48.5665 28.2975 48.5671L29.0879 48.5675L28.2325 49.7055C28.104 49.8766 28.0477 50.0912 28.0756 50.3033C28.1035 50.5154 28.2135 50.708 28.3819 50.84C28.5509 50.966 28.7625 51.0206 28.9714 50.9922C29.1802 50.9639 29.3696 50.8547 29.4989 50.6882L31.3323 48.2505C31.4226 48.13 31.478 47.9869 31.4923 47.837C31.5067 47.6871 31.4794 47.5361 31.4136 47.4006C31.3488 47.2661 31.2475 47.1524 31.1212 47.0727C30.995 46.9929 30.8488 46.9503 30.6995 46.9496Z" fill="#134A85"/>
<path d="M13.9023 37.8693H10.9119C10.7275 37.8698 10.5506 37.7971 10.4197 37.6673C10.2889 37.5375 10.215 37.361 10.2141 37.1767V34.2892C9.6438 33.7187 9.11132 33.1117 8.62001 32.4719V37.1767C8.61808 37.787 8.85829 38.3731 9.28795 38.8064C9.71761 39.2398 10.3016 39.485 10.9119 39.4883H13.9023C14.2552 39.4876 14.6031 39.405 14.9186 39.2471C15.2342 39.0891 15.5088 38.8601 15.7208 38.578C15.1532 38.2528 14.5403 38.014 13.9023 37.8693Z" fill="#134A85"/>
<path d="M44.212 37.6404C44.1024 36.0755 43.8977 34.5188 43.5991 32.9788C43.4165 31.9254 43.2278 30.8365 43.1103 29.7692C42.8255 27.1032 42.1907 24.4863 41.2224 21.9862C39.8743 18.497 38.4102 15.8447 36.6145 13.6387C35.9028 12.7608 35.1056 11.9559 34.2347 11.2357C33.7911 11.5524 33.3793 11.9114 33.0051 12.3078C33.8828 13.0059 34.6813 13.7982 35.3863 14.6703C37.8741 17.7262 39.4964 21.4333 40.5007 25.28C41.5369 29.2482 42.4128 33.6194 42.6203 37.7226C42.6849 38.5058 42.602 39.2942 42.3759 40.0468C41.457 42.6991 37.5727 42.2422 34.4749 41.3923C32.0083 40.7152 27.2452 40.1737 26.8373 40.1278C21.0814 39.1689 13.9712 33.3322 13.8863 33.2623C9.51514 29.8056 7.52801 24.7049 8.70021 19.9497C9.05319 18.516 9.52643 17.095 9.98371 15.7214C10.9461 12.8295 11.9416 9.83924 11.9051 6.51534C11.8966 4.92069 11.7313 3.33075 11.4116 1.76846C11.3904 1.66539 11.3491 1.56752 11.29 1.48047C11.2309 1.39342 11.1552 1.3189 11.0672 1.2612C10.9792 1.2035 10.8807 1.16375 10.7773 1.14423C10.6739 1.12472 10.5677 1.12582 10.4647 1.14748C10.2566 1.19478 10.0756 1.32238 9.96108 1.50249C9.84658 1.68261 9.80785 1.90066 9.85333 2.10919C10.1506 3.5654 10.3039 5.04732 10.311 6.53354C10.3445 9.58192 9.43575 12.3121 8.47371 15.2028C8.00592 16.6072 7.52256 18.0595 7.15363 19.5568C5.82615 24.9425 8.03083 30.6839 12.8932 34.5287C13.1975 34.7805 20.4194 40.7109 26.6019 41.7295C26.6155 41.7315 26.6291 41.7335 26.6431 41.7351C26.6929 41.7406 31.6553 42.2956 34.0592 42.9553C35.5478 43.3956 37.0883 43.6364 38.6402 43.6715C41.9785 43.6715 43.3461 42.124 43.8797 40.584C44.1754 39.6326 44.2882 38.6338 44.212 37.6404Z" fill="#134A85"/>
<path d="M14.6993 31.5379C15.347 31.0802 15.8234 30.4194 16.0529 29.6603C16.3706 28.6926 16.8601 27.79 17.4979 26.9957C18.2263 26.1922 19.0424 25.4728 19.931 24.851C25.1518 21.0053 23.9442 15.9794 23.8963 15.7943C23.7621 15.0368 23.4736 14.3149 23.0486 13.6736C22.6236 13.0323 22.0712 12.4852 21.4258 12.0665C19.6232 10.9332 17.4138 11.0364 16.2724 11.1945C15.2146 7.00571 16.4681 1.81532 16.4817 1.76037C16.5338 1.55339 16.5022 1.3342 16.3937 1.15038C16.2852 0.966564 16.1087 0.83294 15.9023 0.778509C15.8002 0.753222 15.6941 0.748388 15.5901 0.764285C15.4862 0.780182 15.3864 0.816496 15.2965 0.871133C15.2067 0.925771 15.1285 0.997652 15.0666 1.08263C15.0046 1.16762 14.9601 1.26402 14.9356 1.36629C14.8725 1.62006 13.4147 7.63936 14.9515 12.3724C15.012 12.5654 15.1439 12.7279 15.3203 12.8268C15.4966 12.9258 15.7041 12.9537 15.9003 12.9049C15.9283 12.8981 18.6572 12.2293 20.5867 13.4432C21.0536 13.7509 21.4512 14.1525 21.7542 14.6223C22.0572 15.0922 22.2589 15.6201 22.3466 16.1722C22.3571 16.2137 23.3464 20.3353 18.9955 23.5402C16.9783 25.0261 15.4583 26.7058 14.5635 29.0828C14.4462 29.5097 14.1975 29.8888 13.8525 30.1663C13.6727 30.2822 13.5456 30.4641 13.4986 30.6728C13.4515 30.8814 13.4881 31.1002 13.6006 31.2821C13.7521 31.5272 14.5678 31.6217 14.6993 31.5379Z" fill="#134A85"/>
<path d="M24.1044 6.93587C23.3987 7.66865 22.9326 8.52449 23.2184 9.58363C22.8596 9.91494 22.5599 10.3051 22.3325 10.7373C22.7941 11.0371 23.2173 11.3922 23.5926 11.7948C23.775 11.3135 24.1048 10.9021 24.5349 10.6193C25.305 10.2487 24.7538 9.54531 24.7928 8.93572C24.8376 8.23405 25.6166 7.48293 26.3267 7.94361C26.475 8.04043 26.6515 8.08437 26.8278 8.0683C27.0041 8.05223 27.1699 7.97709 27.2981 7.85507C29.2647 6.13489 31.5889 4.87331 34.1029 4.16159C34.2284 4.12844 34.3601 4.12592 34.4868 4.15427C34.6135 4.18261 34.7316 4.24098 34.831 4.32446C35.425 4.8135 35.1007 5.96148 35.0719 6.62695C35.0655 6.78484 35.0144 6.93768 34.9246 7.06769C34.8347 7.1977 34.7098 7.29954 34.5644 7.36137C32.1027 8.44427 30.0823 10.3322 28.8353 12.715C28.4494 13.4539 28.137 14.2289 27.9025 15.0289C27.6995 15.7234 27.5495 16.4324 27.4538 17.1496C27.4376 17.2541 27.4424 17.3608 27.4678 17.4634C27.4932 17.566 27.5387 17.6626 27.6018 17.7474C27.6649 17.8323 27.7442 17.9037 27.8351 17.9576C27.926 18.0116 28.0268 18.0469 28.1315 18.0615C28.2362 18.0761 28.3428 18.0698 28.445 18.0428C28.5472 18.0159 28.6431 17.9689 28.727 17.9046C28.8109 17.8402 28.8811 17.7599 28.9337 17.6681C28.9862 17.5764 29.02 17.4751 29.0331 17.3702C29.0966 16.9155 29.1845 16.4645 29.2963 16.0192C29.0906 16.8635 32.574 18.3194 32.9034 17.0002C32.9562 16.7934 32.9253 16.5741 32.8174 16.3899C32.7095 16.2057 32.5333 16.0715 32.327 16.0164C31.7987 15.9168 31.3045 15.6838 30.8916 15.3394C30.4787 14.9951 30.1607 14.5509 29.9678 14.049C31.0034 11.7289 32.864 9.87632 35.1886 8.85081C37.7793 7.72994 37.041 1.71439 33.7024 2.59471C31.1075 3.32144 28.6952 4.58742 26.6229 6.30994C26.1867 6.16739 25.7191 6.1505 25.2737 6.26119C24.8284 6.37188 24.4231 6.60569 24.1044 6.93587Z" fill="#134A85"/>
<path d="M24.215 32.0332C24.2421 31.929 24.2468 31.8202 24.2287 31.7141C24.2107 31.608 24.1703 31.5069 24.1103 31.4175C24.0503 31.3281 23.9721 31.2525 23.8807 31.1956C23.7894 31.1386 23.687 31.1017 23.5803 31.0873C21.7839 30.7418 20.5591 30.0813 20.0392 29.1769C19.8909 28.916 19.7958 28.6282 19.7593 28.3303C19.7228 28.0324 19.7457 27.7302 19.8267 27.4412C19.8806 27.2859 19.8864 27.1179 19.8432 26.9592C19.4328 27.293 19.0508 27.6604 18.7012 28.0575C18.5184 28.2766 18.3559 28.5119 18.2158 28.7604C18.2895 29.1801 18.4335 29.5843 18.6417 29.956C18.7518 30.1488 18.8775 30.3323 19.0177 30.5046C19.071 31.286 19.4107 33.521 20.8857 34.6669C21.0625 34.7855 21.279 34.8293 21.4879 34.7887C21.6969 34.7482 21.8813 34.6266 22.0009 34.4505C22.1205 34.2744 22.1656 34.0581 22.1262 33.8489C22.0869 33.6397 21.9663 33.4546 21.7909 33.334C21.3562 32.9705 21.0461 32.4801 20.9042 31.9314C21.6629 32.2791 22.4624 32.5299 23.2838 32.6779C23.334 32.6877 23.9025 32.8058 24.215 32.0332Z" fill="#134A85"/>
<path d="M23.2783 1.68902C23.5531 1.6487 26.073 1.31825 27.4701 2.55349C27.7118 2.76761 27.9113 3.02508 28.0583 3.31261C28.4851 3.05044 28.9509 2.78401 29.4538 2.52414C29.2153 2.0707 28.8955 1.6649 28.5104 1.32694C26.4668 -0.473157 23.1324 0.0719335 22.9907 0.0956485C22.9724 0.0988121 22.9537 0.102765 22.9358 0.107112C20.8645 0.608009 19.0341 1.81895 17.763 3.52943C17.5507 4.82036 17.4422 6.12621 17.4385 7.43446C18.2941 5.13036 19.9775 2.51374 23.2783 1.68902Z" fill="#134A85"/>
</svg>
