<svg width="51" height="51" viewBox="0 0 51 51" fill="none" xmlns="http://www.w3.org/2000/svg">
<path d="M28.2416 12.6147C27.3766 12.2986 26.4585 12.1286 25.5073 12.1286C20.3306 12.1286 16.134 17.1645 16.134 23.3766C16.134 26.5181 17.2084 29.3575 18.9389 31.3982L19.5125 35.2274" stroke="#134A85" stroke-width="0.855848" stroke-miterlimit="10" stroke-linecap="round" stroke-linejoin="round"/>
<path d="M20.1656 39.5882L20.9651 44.9259C21.0805 45.6967 21.7427 46.2671 22.5221 46.2671H28.4924C29.2718 46.2671 29.934 45.6967 30.0494 44.9259L32.0756 31.3982C33.8061 29.3575 34.8805 26.5181 34.8805 23.3765C34.8805 20.124 33.7301 17.194 31.8909 15.1403" stroke="#134A85" stroke-width="0.855848" stroke-miterlimit="10" stroke-linecap="round" stroke-linejoin="round"/>
<path d="M33.8939 18.3446C42.2805 14.2006 46.8911 16.2934 47.5098 19.6273C47.9772 22.1455 46.5503 23.8271 45.0215 24.5406C43.2627 25.3613 40.7777 25.482 38.5595 25.0132C37.5286 24.7953 35.4589 24.039 34.8895 23.1205" stroke="#134A85" stroke-width="0.855848" stroke-miterlimit="10" stroke-linecap="round" stroke-linejoin="round"/>
<path d="M17.1061 18.3446C8.71951 14.2006 4.10894 16.2934 3.49021 19.6273C3.02285 22.1455 4.44969 23.8271 5.97847 24.5406C7.73729 25.3613 10.2223 25.482 12.4405 25.0132C13.4715 24.7953 15.5411 24.039 16.1105 23.1205" stroke="#134A85" stroke-width="0.855848" stroke-miterlimit="10" stroke-linecap="round" stroke-linejoin="round"/>
<path d="M29.6666 25.2404C30.3236 23.8188 31.0002 22.4611 31.6485 21.3341C31.948 20.8135 31.4577 20.1985 30.8829 20.3724C27.5719 21.3741 23.4027 21.4151 20.0547 20.3661C19.488 20.1885 18.9934 20.7966 19.2807 21.3163C21.2306 24.8429 23.4264 30.1415 24.6193 33.1374V39.6564H24.103C23.3528 39.6564 22.7447 40.2646 22.7447 41.0148V46.2671H24.6193H26.3953H28.27V41.0148C28.27 40.2646 27.6618 39.6564 26.9116 39.6564H26.3953V33.0563C26.798 32.0125 27.3149 30.7032 27.8971 29.2991" stroke="#134A85" stroke-width="0.855848" stroke-miterlimit="10" stroke-linecap="round" stroke-linejoin="round"/>
<path d="M34.8104 12.0953L39.0309 11.7196" stroke="#134A85" stroke-width="0.855848" stroke-miterlimit="10" stroke-linecap="round" stroke-linejoin="round"/>
<path d="M31.668 8.95369L32.0426 4.73303" stroke="#134A85" stroke-width="0.855848" stroke-miterlimit="10" stroke-linecap="round" stroke-linejoin="round"/>
<path d="M33.7081 10.0555L36.7559 7.0069" stroke="#134A85" stroke-width="0.855848" stroke-miterlimit="10" stroke-linecap="round" stroke-linejoin="round"/>
<path d="M15.9857 40.9353L13.2721 44.1896" stroke="#134A85" stroke-width="0.855848" stroke-miterlimit="10" stroke-linecap="round" stroke-linejoin="round"/>
<path d="M15.1944 36.5628L11.5125 34.4658" stroke="#134A85" stroke-width="0.855848" stroke-miterlimit="10" stroke-linecap="round" stroke-linejoin="round"/>
<path d="M14.9374 38.8672L10.6955 39.6348" stroke="#134A85" stroke-width="0.855848" stroke-miterlimit="10" stroke-linecap="round" stroke-linejoin="round"/>
<path d="M19.8283 39.6101C21.0352 39.6101 22.0136 38.6317 22.0136 37.4248C22.0136 36.2179 21.0352 35.2394 19.8283 35.2394C18.6214 35.2394 17.6429 36.2179 17.6429 37.4248C17.6429 38.6317 18.6214 39.6101 19.8283 39.6101Z" stroke="#134A85" stroke-width="0.855848" stroke-miterlimit="10" stroke-linecap="round" stroke-linejoin="round"/>
<path d="M28.3483 29.2878C29.5552 29.2878 30.5337 28.3093 30.5337 27.1024C30.5337 25.8955 29.5552 24.9171 28.3483 24.9171C27.1414 24.9171 26.163 25.8955 26.163 27.1024C26.163 28.3093 27.1414 29.2878 28.3483 29.2878Z" stroke="#134A85" stroke-width="0.855848" stroke-miterlimit="10" stroke-linecap="round" stroke-linejoin="round"/>
<path d="M29.9746 16.1956C31.1815 16.1956 32.1599 15.2172 32.1599 14.0102C32.1599 12.8033 31.1815 11.8249 29.9746 11.8249C28.7677 11.8249 27.7892 12.8033 27.7892 14.0102C27.7892 15.2172 28.7677 16.1956 29.9746 16.1956Z" stroke="#134A85" stroke-width="0.855848" stroke-miterlimit="10" stroke-linecap="round" stroke-linejoin="round"/>
</svg>
