<svg width="47" height="47" viewBox="0 0 47 47" fill="none" xmlns="http://www.w3.org/2000/svg">
<g clip-path="url(#clip0_4934_5703)">
<mask id="mask0_4934_5703" style="mask-type:luminance" maskUnits="userSpaceOnUse" x="0" y="0" width="47" height="47">
<path d="M47 0H0V47H47V0Z" fill="white"/>
</mask>
<g mask="url(#mask0_4934_5703)">
<path d="M46.4251 0.155558C46.0658 -0.0518985 45.6367 -0.0518068 45.2776 0.155558L39.423 3.53581C39.4221 3.53636 39.4211 3.53682 39.4202 3.53737L37.8362 4.45192C36.1665 3.98441 34.4244 4.20343 32.9198 5.07217L31.5601 5.8572C29.1108 4.46973 26.3327 3.73821 23.4993 3.73821C21.2937 3.73821 19.1627 4.1668 17.155 5.01297C17.0935 4.95661 17.0254 4.90649 16.9514 4.86371C16.686 4.7105 16.3769 4.66993 16.0807 4.74906L8.79292 6.7019C8.56353 6.76101 8.33542 6.83353 8.11327 6.91798L7.4619 6.54199L7.60106 6.30103C7.75436 6.03556 7.79502 5.7264 7.71571 5.43036C7.6364 5.13423 7.44648 4.88684 7.1811 4.73364L1.72115 1.58131C1.36186 1.37386 0.933002 1.37386 0.573717 1.58131C0.214525 1.78877 0 2.16026 0 2.57499V11.3925C0 11.8012 0.219849 12.182 0.573717 12.3862C1.31946 12.8167 3.42009 14.0296 4.19713 14.4782C4.62709 16.1579 5.68778 17.5571 7.19248 18.4257L7.21286 18.4375C7.15677 18.9912 7.12841 19.5517 7.12841 20.1092C7.12841 24.1263 8.59768 27.9898 11.2656 30.9879C11.4015 31.1408 11.5904 31.2187 11.7801 31.2187C11.9428 31.2187 12.1063 31.1613 12.2374 31.0446C12.5215 30.7918 12.5469 30.3566 12.2941 30.0726C9.85076 27.3268 8.50524 23.7885 8.50524 20.1091C8.50524 19.8061 8.51442 19.5022 8.5325 19.1993L13.3658 21.9898C13.7117 22.1895 14.0887 22.2849 14.4595 22.2849C15.1597 22.2849 15.8369 21.9443 16.2359 21.3226C16.3933 21.0773 16.4967 20.8094 16.5438 20.5321L17.226 20.9259C18.2249 21.5027 19.4859 21.2097 20.0962 20.2587C20.2688 19.9898 20.3764 19.6939 20.416 19.3882C20.6094 19.4399 20.8063 19.4639 21.0012 19.4615L22.811 20.5064V22.6337C22.3749 22.9297 22.0779 23.366 21.9503 23.8502C21.6673 23.7333 21.3592 23.6793 21.0422 23.6942C19.9134 23.7474 19.0292 24.6926 19.0292 25.8462V32.548C18.0562 31.9464 16.76 32.0673 15.9166 32.9105L15.8307 32.9964C15.4149 32.7484 15.0094 32.4792 14.6202 32.1928C14.3143 31.9675 13.8831 32.0329 13.6578 32.3392C13.4323 32.6454 13.4979 33.0764 13.8042 33.3017C14.2496 33.6297 14.715 33.9369 15.1923 34.2187C15.2154 34.4771 15.3257 34.7292 15.523 34.9267L20.8581 40.2617C21.0243 40.431 21.2012 40.5923 21.3851 40.7422V41.4943H21.1069C20.4742 41.4943 19.9595 42.009 19.9595 42.6417V45.8524C19.9595 46.4852 20.4742 46.9999 21.1069 46.9999H28.7431C29.3759 46.9999 29.8906 46.4852 29.8906 45.8524V40.3539C31.1302 39.1418 31.8116 37.5235 31.8116 35.786V34.2159C36.7526 31.2992 39.8204 25.9947 39.8697 20.2502C40.0833 20.1009 40.2474 19.8788 40.3199 19.608L42.2727 12.32C42.3361 12.0919 42.3873 11.8581 42.4253 11.6235L43.0765 11.2475L43.2157 11.4885C43.428 11.8562 43.8143 12.062 44.2114 12.062C44.4058 12.062 44.603 12.0125 44.7831 11.9085L46.4251 10.9605C46.7789 10.7562 46.9988 10.3754 46.9988 9.96685V1.14933C46.9988 0.734507 46.7843 0.363014 46.4251 0.155558ZM21.8253 14.5133C21.6296 14.8921 21.1629 15.0244 20.8007 14.8152C20.7998 14.8146 20.7989 14.8142 20.798 14.8137L15.8619 11.9638C15.5324 11.7736 15.1115 11.8866 14.9215 12.2158C14.7314 12.5451 14.8442 12.9662 15.1735 13.1563L20.1122 16.0076C20.1136 16.0084 20.115 16.0091 20.1163 16.0099L21.342 16.7174C21.7047 16.9268 21.823 17.397 21.5927 17.7558C21.3839 18.0813 20.9251 18.1793 20.5698 17.9743C18.6323 16.8557 16.372 15.5507 14.4363 14.4331C14.1067 14.2429 13.6858 14.3558 13.4958 14.6851C13.3057 15.0144 13.4185 15.4354 13.7478 15.6255L18.6865 18.4769C19.0499 18.6865 19.1671 19.1572 18.9374 19.5151C18.7285 19.8406 18.2696 19.9386 17.9144 19.7335L13.0105 16.9023C12.681 16.712 12.2601 16.825 12.0701 17.1543C11.88 17.4836 11.9928 17.9046 12.3221 18.0947L14.8263 19.5405C15.189 19.7499 15.3073 20.2201 15.077 20.5788C14.8682 20.9043 14.4092 21.0022 14.0541 20.7973L7.88085 17.2333C6.67852 16.5392 5.83741 15.4131 5.51255 14.0627C5.43893 13.7565 5.24267 13.4919 4.97426 13.337L3.89769 12.7155L4.93121 10.9254C5.12132 10.5961 5.0085 10.175 4.67923 9.98494C4.34978 9.79474 3.92881 9.90765 3.7388 10.2369L2.70528 12.027L1.37683 11.2601V2.97246L6.29381 5.81131L5.38495 7.38549C5.19485 7.71476 5.30766 8.13582 5.63693 8.32593C5.96601 8.51604 6.38726 8.40322 6.57737 8.07395L6.77344 7.73441L7.52056 8.16575C7.82743 8.343 8.19038 8.36972 8.51644 8.23873C8.71793 8.15776 8.92658 8.08938 9.14294 8.03356L16.2153 6.13846L16.3001 6.45433C16.4642 7.06678 16.1014 7.69548 15.4887 7.85961L14.5081 8.12242C14.2391 8.19448 14.04 8.42149 14.0037 8.69752C13.9674 8.97363 14.1009 9.24443 14.3421 9.38359L21.5031 13.518C21.8581 13.7232 22.0026 14.1695 21.8253 14.5133ZM22.5491 18.7657C22.6224 18.6837 22.6903 18.595 22.7514 18.4996C23.0673 18.0075 23.1655 17.4243 23.0277 16.8572C22.9349 16.475 22.7355 16.1271 22.4596 15.8534C22.7024 15.6668 22.9031 15.4269 23.0487 15.145C23.5671 14.1409 23.1906 12.9025 22.1915 12.3257L16.3883 8.97519C17.3161 8.47813 17.8835 7.40633 17.6733 6.28873C19.516 5.50967 21.473 5.11504 23.4993 5.11504C25.8178 5.11504 28.0953 5.64947 30.1536 6.66913L26.7463 8.63638C25.7472 9.21322 25.3708 10.4515 25.8891 11.4556C26.0228 11.7145 26.2032 11.938 26.4197 12.1173L25.7375 12.5112C24.7383 13.0881 24.3619 14.3264 24.8802 15.3304C25.0267 15.6142 25.2293 15.8554 25.4742 16.0426C24.8524 16.6655 24.6596 17.6135 25.0358 18.427L23.4993 19.3141L22.5491 18.7657ZM28.5136 45.6231H21.3364V42.8714H28.5136V45.6231ZM30.4347 35.786C30.4347 37.1744 29.8801 38.4658 28.8732 39.4222C28.6447 39.6391 28.5136 39.9413 28.5136 40.2514V41.4945H22.7621V40.6318C22.7621 40.2777 22.6038 39.9501 22.3274 39.7329C22.1568 39.5991 21.9932 39.4526 21.8366 39.2931L16.6591 34.1157L16.8903 33.8844C17.3376 33.437 18.0656 33.4369 18.5131 33.8844L19.2309 34.6023C19.4279 34.7992 19.7237 34.858 19.9812 34.7515C20.2385 34.6449 20.4062 34.3939 20.4062 34.1155V25.8466C20.4062 25.4366 20.7206 25.0882 21.107 25.07C21.5283 25.0493 21.8807 25.3843 21.8807 25.8064V31.5091C21.8807 31.8894 22.1889 32.1976 22.5692 32.1976C22.9495 32.1976 23.2576 31.8894 23.2576 31.5091V24.3864C23.2576 23.9668 23.6067 23.6299 24.0315 23.65C24.4178 23.6682 24.7321 24.0166 24.7321 24.4266V31.5091C24.7321 31.8893 25.0403 32.1975 25.4206 32.1975C25.8009 32.1975 26.1091 31.8893 26.1091 31.5091V25.8063C26.1091 25.3869 26.4583 25.0494 26.8829 25.0699C27.2693 25.0881 27.5836 25.4365 27.5836 25.8465V31.5091C27.5836 31.8893 27.8917 32.1975 28.272 32.1975C28.6523 32.1975 28.9605 31.8893 28.9605 31.5091V28.6174C28.9605 28.1957 29.3128 27.86 29.7342 27.881C30.1206 27.8992 30.435 28.2477 30.435 28.6577L30.4347 35.786ZM41.6409 10.4864C41.3341 10.6636 41.1297 10.9646 41.0801 11.3121C41.0493 11.5272 41.0043 11.7423 40.9445 11.9574L39.0493 19.0299L38.7335 18.9453C38.1223 18.7815 37.7584 18.1512 37.922 17.54L38.1848 16.5594C38.2568 16.2904 38.1599 16.0046 37.9388 15.835C37.7182 15.6657 37.4167 15.6457 37.1756 15.785L35.1129 16.9758C34.7837 17.1659 34.6709 17.587 34.861 17.9163C35.051 18.2455 35.4723 18.3584 35.8014 18.1683L36.5069 17.761C36.4724 18.9045 37.2252 19.9667 38.3771 20.2753L38.4921 20.3062C38.427 25.2649 35.9069 29.8586 31.8115 32.5906V28.6576C31.8115 27.504 30.9274 26.5587 29.7986 26.5056C29.5078 26.4922 29.2238 26.5363 28.9601 26.6343V25.8465C28.9601 24.6929 28.076 23.7476 26.9472 23.6945C26.6286 23.6798 26.318 23.7344 26.0334 23.8529C25.805 23.0029 25.0802 22.362 24.1877 22.2809V20.5068L26.0299 19.4433C26.5055 19.6732 27.0316 19.7117 27.5138 19.5803C27.554 19.8839 27.6613 20.1777 27.8328 20.4448C28.2319 21.0665 28.9091 21.407 29.6093 21.407C29.9801 21.407 30.3571 21.3116 30.703 21.112L32.9802 19.7973C33.3094 19.6072 33.4223 19.1862 33.2322 18.8569C33.042 18.5276 32.6209 18.4148 32.2917 18.6049L30.0146 19.9196C29.6595 20.1247 29.2005 20.0266 28.9915 19.7011C28.762 19.3435 28.8788 18.873 29.2422 18.663L34.1811 15.8116C34.5104 15.6215 34.6232 15.2004 34.4331 14.8712C34.243 14.5419 33.8218 14.4291 33.4927 14.6192L28.5567 17.4687C28.5559 17.4691 28.5549 17.4696 28.5541 17.4702C28.5534 17.4706 28.5526 17.4711 28.5518 17.4715L27.3244 18.1802C26.9659 18.3874 26.4974 18.2608 26.2998 17.8783C26.1224 17.5346 26.267 17.0882 26.6221 16.8831L27.815 16.1945C27.8147 16.1947 27.8153 16.1943 27.815 16.1945C27.8154 16.1943 27.8165 16.1936 27.817 16.1934L32.7557 13.3421C33.085 13.1519 33.1978 12.7309 33.0077 12.4016C32.8176 12.0723 32.3964 11.9594 32.0673 12.1496L27.131 14.9993C27.1302 14.9998 27.1293 15.0002 27.1284 15.0008C26.7657 15.2102 26.2994 15.0775 26.1038 14.6989C25.9264 14.3552 26.071 13.9088 26.4261 13.7037L28.8233 12.3196C28.8242 12.3192 28.8249 12.3187 28.8256 12.3183L31.3299 10.8724C31.6592 10.6823 31.772 10.2612 31.5819 9.93197C31.3918 9.60261 30.9705 9.4898 30.6414 9.67999L28.1372 11.1259L28.1359 11.1266C27.7734 11.3348 27.3081 11.2024 27.1127 10.8239C26.9351 10.4803 27.0798 10.0339 27.4349 9.82879L33.6083 6.26459C34.8107 5.57044 36.2066 5.40502 37.5384 5.79901C37.8403 5.88814 38.1675 5.8505 38.4359 5.69555L39.5124 5.07401L42.3881 10.055L41.6409 10.4864ZM45.6219 9.8343L44.2934 10.6012L43.9253 9.96373C43.9251 9.96346 43.925 9.96309 43.9248 9.96281C43.9246 9.96254 43.9244 9.96217 43.9242 9.9619L40.7048 4.38564L45.6218 1.5468L45.6219 9.8343Z" fill="url(#paint0_linear_4934_5703)"/>
</g>
</g>
<defs>
<linearGradient id="paint0_linear_4934_5703" x1="46.9988" y1="46.9999" x2="-0.00109099" y2="0.00109102" gradientUnits="userSpaceOnUse">
<stop stop-color="#54BE95"/>
<stop offset="0.288462" stop-color="#2E7B9A"/>
<stop offset="1" stop-color="#224075"/>
</linearGradient>
<clipPath id="clip0_4934_5703">
<rect width="47" height="47" fill="white"/>
</clipPath>
</defs>
</svg>
