<svg width="51" height="51" viewBox="0 0 51 51" fill="none" xmlns="http://www.w3.org/2000/svg">
<g clip-path="url(#clip0_27_8)">
<path d="M16.592 35.9381H27.3806C27.8209 35.9381 28.1785 36.2947 28.1785 36.7359C28.1785 37.1772 27.8219 37.5338 27.3806 37.5338H16.592C16.1517 37.5338 15.7941 37.1772 15.7941 36.7359C15.7941 36.2947 16.1517 35.9381 16.592 35.9381ZM27.3806 39.4981H16.592C16.1517 39.4981 15.7941 39.8547 15.7941 40.296C15.7941 40.7372 16.1507 41.0938 16.592 41.0938H27.3806C27.8209 41.0938 28.1785 40.7372 28.1785 40.296C28.1785 39.8547 27.8219 39.4981 27.3806 39.4981ZM12.748 31.9378C12.3356 31.2833 12.3018 30.4506 12.6564 29.7075L16.591 21.5206V17.5014C16.0182 17.4147 15.5769 16.9196 15.5769 16.323V14.4902C15.5769 13.8328 16.1118 13.2969 16.7703 13.2969H21.8782C22.5356 13.2969 23.0715 13.8318 23.0715 14.4902V16.323C23.0715 16.9196 22.6303 17.4137 22.0575 17.5014V21.5206L23.8176 25.1822C23.8286 25.2022 23.8375 25.2221 23.8465 25.243L25.9911 29.7065C26.3467 30.4506 26.3128 31.2833 25.9004 31.9378C25.51 32.5583 24.8466 32.9139 24.0806 32.9139H14.5679C13.8019 32.9139 13.1385 32.5583 12.748 31.9378ZM17.1727 15.9216H21.4758V14.8936H17.1727V15.9216ZM16.4585 25.4791C18.36 25.5179 20.1131 25.248 21.933 24.9462L20.5405 22.0475C20.4887 21.94 20.4618 21.8214 20.4618 21.7019V17.5163H18.1857V21.7019C18.1857 21.8214 18.1588 21.94 18.107 22.0475L16.4585 25.4791ZM14.0977 31.0871C14.1944 31.2405 14.3527 31.3182 14.5679 31.3182H24.0806C24.2957 31.3182 24.4541 31.2405 24.5507 31.0871C24.6693 30.8998 24.6693 30.6408 24.5527 30.3958L22.6532 26.4443C22.6054 26.4523 22.5576 26.4602 22.5107 26.4682C20.6979 26.77 18.8352 27.0788 16.8121 27.0788C16.4485 27.0788 16.08 27.0679 15.7054 27.0459L14.0947 30.3968C13.9782 30.6408 13.9792 30.8998 14.0977 31.0871ZM11.2668 37.5328H13.2909C13.7312 37.5328 14.0888 37.1762 14.0888 36.7349C14.0888 36.2937 13.7322 35.9371 13.2909 35.9371H11.2668C10.8266 35.9371 10.469 36.2937 10.469 36.7349C10.469 37.1762 10.8266 37.5328 11.2668 37.5328ZM38.6614 34.0047C38.001 34.182 37.3366 34.2656 36.6832 34.2656C33.3014 34.2656 30.1966 32.0055 29.2792 28.5869C28.7503 26.6087 29.0222 24.5447 30.0452 22.7727C31.0682 21.0006 32.7207 19.7326 34.698 19.2037C36.6742 18.6738 38.7391 18.9447 40.5112 19.9687C42.2822 20.9917 43.5502 22.6442 44.0802 24.6214C45.1719 28.7014 42.7414 32.9099 38.6614 34.0047ZM42.5382 25.0348C42.1179 23.469 41.1148 22.1611 39.7113 21.3503C38.777 20.8104 37.741 20.5355 36.6901 20.5355C36.1632 20.5355 35.6323 20.6052 35.1093 20.7456C35.1093 20.7456 35.1093 20.7456 35.1083 20.7456C33.5435 21.164 32.2356 22.1681 31.4258 23.5706C30.616 24.9741 30.4008 26.6087 30.8192 28.1745C31.6868 31.4038 35.0197 33.3283 38.248 32.4637C41.4784 31.5971 43.4028 28.2642 42.5382 25.0348ZM45.5534 46.7875C46.0295 48.5695 44.9677 50.4083 43.1857 50.8874C42.8978 50.9641 42.6079 51.001 42.3221 51.001C40.8439 51.001 39.4872 50.0129 39.0857 48.5197L37.1264 41.2034C36.9441 40.534 37.2948 39.8398 37.9203 39.5718L37.246 37.0547C37.0627 37.0646 36.8794 37.0706 36.6961 37.0706C36.0596 37.0706 35.4211 37.0109 34.7856 36.8923V45.0424C34.7856 46.659 33.4698 47.9749 31.8531 47.9749H6.79438C5.17772 47.9749 3.86188 46.659 3.86188 45.0424V8.16398C3.86188 6.54732 5.17772 5.23148 6.79438 5.23148H11.3286C11.7659 4.4884 12.5518 3.99234 13.4463 3.99234H14.8348C15.1964 1.72922 17.0721 0 19.3242 0C21.5754 0 23.4501 1.72922 23.8116 3.99234H25.2032C26.0977 3.99234 26.8826 4.48939 27.3189 5.23148H31.8531C33.4698 5.23148 34.7856 6.54732 34.7856 8.16398V16.316C39.015 15.5421 43.4696 17.4426 45.7387 21.3742C48.6223 26.3666 46.9041 32.7775 41.9087 35.6641C41.7453 35.7588 41.58 35.8464 41.4136 35.9311L42.089 38.4552C42.3828 38.4193 42.6806 38.4781 42.9436 38.6285C43.2654 38.8128 43.4955 39.1116 43.5921 39.4692L45.5534 46.7875ZM27.6845 8.52059H31.0124C31.4527 8.52059 31.8103 8.87719 31.8103 9.31846V17.347C32.2615 17.1099 32.7227 16.9077 33.1909 16.7423V8.16398C33.1909 7.42688 32.5912 6.82723 31.8541 6.82723H27.6855V8.52059H27.6845ZM12.5588 8.71184C12.5588 9.26068 12.9572 9.70693 13.4473 9.70693H25.2042C25.6843 9.70693 26.0897 9.25072 26.0897 8.71184V6.58219C26.0897 6.0423 25.6843 5.58709 25.2042 5.58709H23.0785C22.6382 5.58709 22.2806 5.23049 22.2806 4.78922C22.2806 3.02713 20.9548 1.59475 19.3252 1.59475C17.6946 1.59475 16.3678 3.02813 16.3678 4.78922C16.3678 5.22949 16.0112 5.58709 15.57 5.58709H13.4463C12.9562 5.58709 12.5578 6.03334 12.5578 6.58219V8.71184H12.5588ZM8.43295 10.1163V43.093H30.2135V34.8354C29.1776 34.0216 28.2971 33.0096 27.6187 31.8342C26.2212 29.4146 25.8506 26.5947 26.5738 23.8963C27.1675 21.682 28.4395 19.7665 30.2135 18.3779V10.1163H27.286C26.8438 10.8295 26.0758 11.3027 25.2032 11.3027H13.4463C12.5727 11.3027 11.8047 10.8295 11.3615 10.1163H8.43295ZM33.1909 45.0424V36.467C32.7137 36.2987 32.2525 36.0984 31.8103 35.8673V43.8899C31.8103 44.3302 31.4527 44.6878 31.0124 44.6878H7.63608C7.1958 44.6878 6.83821 44.3312 6.83821 43.8899V9.31846C6.83821 8.87818 7.19481 8.52059 7.63608 8.52059H10.964V6.82723H6.79438C6.05727 6.82723 5.45762 7.42688 5.45762 8.16398V45.0424C5.45762 45.7795 6.05727 46.3791 6.79438 46.3791H31.8531C32.5902 46.3791 33.1909 45.7795 33.1909 45.0424ZM41.1118 34.2826C45.3452 31.8362 46.8015 26.4035 44.3581 22.1721C41.9137 17.9377 36.481 16.4824 32.2476 18.9258C30.1966 20.1101 28.7294 22.0216 28.1168 24.3087C27.5042 26.5957 27.8179 28.9853 29.0023 31.0363C30.6429 33.8771 33.6291 35.4679 36.6951 35.4679C38.1972 35.4689 39.7183 35.0864 41.1118 34.2826ZM39.9284 36.5507C39.5708 36.6682 39.2073 36.7658 38.8407 36.8435L39.4563 39.1435L40.544 38.8526L39.9284 36.5507ZM44.0124 47.1999L42.1069 40.0868L41.7373 40.1854C41.7344 40.1864 41.7314 40.1874 41.7284 40.1884C41.7264 40.1894 41.7234 40.1894 41.7214 40.1894L39.1067 40.8887C39.1047 40.8896 39.1027 40.8896 39.1007 40.8906C39.0987 40.8906 39.0977 40.8916 39.0957 40.8916L38.7222 40.9912L40.6277 48.1044C40.8787 49.0367 41.8409 49.5935 42.7743 49.3445C43.7046 49.0955 44.2614 48.1322 44.0124 47.1999ZM11.2668 41.0938H13.2909C13.7312 41.0938 14.0888 40.7372 14.0888 40.296C14.0888 39.8547 13.7322 39.4981 13.2909 39.4981H11.2668C10.8266 39.4981 10.469 39.8547 10.469 40.296C10.469 40.7372 10.8266 41.0938 11.2668 41.0938Z" fill="#134A85"/>
</g>
<defs>
<clipPath id="clip0_27_8">
<rect width="51" height="51" fill="white"/>
</clipPath>
</defs>
</svg>
