<svg width="51" height="51" viewBox="0 0 51 51" fill="none" xmlns="http://www.w3.org/2000/svg">
<g clip-path="url(#clip0_1_24)">
<path d="M48.5559 38.0748C48.5344 35.1902 46.7598 32.4967 44.0345 31.2114L34.6266 26.7744C34.617 26.7704 34.6074 26.7712 34.5979 26.7672C34.5907 26.764 34.5859 26.7568 34.578 26.7536C33.7596 26.4317 33.244 25.4229 33.0368 23.7701C34.519 21.3046 35.4832 18.4486 35.4832 16.0317C35.4832 15.8588 35.4625 15.6851 35.4529 15.5113C35.582 15.4348 35.6904 15.3241 35.7597 15.1854C36.0585 14.5886 38.6293 9.2718 37.0562 6.34408C36.7327 5.74244 36.1024 5.01011 34.8927 4.68579C34.7995 4.09849 34.5277 3.24902 33.7739 2.43143C32.1873 0.710974 29.2357 -0.105824 25.029 0.0105202C20.5091 0.132442 17.3575 1.48952 15.6609 4.0443C13.907 6.68594 13.8879 10.4416 15.5876 14.9073C15.5414 15.281 15.5159 15.6564 15.5159 16.0309C15.5159 18.4159 16.4538 21.2273 17.9018 23.6705C17.748 24.9168 17.3543 26.3608 16.3574 26.7528C16.3502 26.756 16.3463 26.7624 16.3391 26.7656C16.3311 26.7688 16.3231 26.768 16.3152 26.772L10.8287 29.3738C10.8175 29.3785 10.808 29.3841 10.7976 29.3889L6.93117 31.2225C4.38038 32.4322 2.67028 34.834 2.46867 37.4915C2.45194 37.7059 2.44397 37.9218 2.44397 38.1386V50.2025C2.44397 50.6424 2.80097 50.9994 3.24084 50.9994H47.7599C48.1997 50.9994 48.5567 50.6424 48.5567 50.2025V38.0741L48.5559 38.0748ZM39.764 37.0867C40.9729 37.0867 41.9554 38.0693 41.9554 39.2781C41.9554 40.487 40.9729 41.4695 39.764 41.4695C38.5552 41.4695 37.5726 40.487 37.5726 39.2781C37.5726 38.0693 38.5552 37.0867 39.764 37.0867ZM32.3379 37.5776L29.8852 36.4986L31.9475 33.0219L32.3379 37.5776ZM21.1227 36.5138L18.8349 37.568L19.0875 33.1135L21.1227 36.5138ZM19.972 31.4839C21.5761 32.5031 23.5763 33.3502 25.8251 33.3502H25.8593C27.5551 33.3438 29.1879 32.8481 30.7466 31.8903L25.4968 40.7229L19.972 31.4839ZM16.3447 12.0609C15.6068 9.12279 15.8211 6.68515 16.9885 4.92644C18.3815 2.82907 21.1004 1.71105 25.072 1.60427C29.6835 1.47597 31.6909 2.55335 32.5674 3.47533C33.4065 4.35668 33.3484 5.24041 33.3468 5.26671C33.2998 5.70021 33.6098 6.09068 34.0425 6.14327C34.8322 6.23969 35.3589 6.55207 35.6529 7.09872C36.4012 8.49086 35.6968 11.1126 34.9955 12.9462C34.9923 12.9382 34.9891 12.9303 34.986 12.9223C34.8457 12.4728 34.6823 12.0258 34.4823 11.5811C33.7867 9.44313 33.7675 7.83424 33.7675 7.81193C33.7667 7.46927 33.5468 7.16566 33.2209 7.05808C33.138 7.03099 33.0535 7.01744 32.9699 7.01744C32.7236 7.01744 32.4862 7.1314 32.3332 7.3354C28.4906 12.4529 21.3968 9.30766 21.0964 9.1714C20.9849 9.1204 20.8605 9.09569 20.7402 9.09968C18.7648 9.16343 17.4858 10.201 16.6945 11.4449C16.6929 11.4481 16.6905 11.4497 16.6889 11.4521C16.6889 11.4528 16.6881 11.4544 16.6873 11.4552C16.5622 11.6537 16.4459 11.8553 16.3447 12.0609ZM18.0866 12.2218C18.5958 11.4536 19.3863 10.793 20.6247 10.7006C21.7937 11.1747 28.0523 13.445 32.3603 9.64713C32.5308 10.6528 32.8615 11.9931 33.4846 13.4594C33.7452 14.316 33.8895 15.1766 33.8895 16.0317C33.8895 20.6464 29.305 27.9928 25.4936 27.9928C23.3659 27.9928 21.0606 25.8197 19.4047 23.0816C19.3792 23.037 19.3576 22.9916 19.3242 22.9534C17.9982 20.7181 17.1097 18.1283 17.1097 16.0317C17.1097 14.7591 17.4396 13.4769 18.0866 12.2218ZM19.1465 25.5153C20.9745 27.8908 23.2703 29.5873 25.4936 29.5873C27.6977 29.5873 29.9712 27.9243 31.7929 25.5854C32.0861 26.509 32.5212 27.2174 33.0974 27.7027C30.8414 30.381 28.4101 31.7437 25.8609 31.7564H25.8251C22.1642 31.7564 19.105 28.9801 17.8667 27.6716C18.4301 27.176 18.8572 26.4556 19.1465 25.5153ZM46.9622 49.4064H4.03692V38.1394C4.03692 37.9633 4.0433 37.788 4.05684 37.6135C4.21542 35.5248 5.57808 33.6283 7.6133 32.6633L10.3283 31.3755V35.5774C10.0007 35.7344 9.71864 35.9775 9.52739 36.3074L7.23558 40.2782C6.90169 40.8551 6.90169 41.5444 7.23558 42.1222C7.56867 42.6999 8.16553 43.045 8.83252 43.045C9.27239 43.045 9.62939 42.688 9.62939 42.2481C9.62939 41.8082 9.27239 41.4512 8.83252 41.4512C8.70661 41.4512 8.64286 41.3723 8.61577 41.3261C8.58867 41.2791 8.55281 41.1843 8.61577 41.0759L10.9076 37.105C10.9705 36.9959 11.0709 36.9799 11.1243 36.9799C11.1785 36.9799 11.2789 36.9967 11.3411 37.105L13.6337 41.0759C13.6966 41.1851 13.6608 41.2799 13.6337 41.3261C13.6066 41.3731 13.5428 41.4512 13.4169 41.4512C12.9771 41.4512 12.6201 41.8082 12.6201 42.2481C12.6201 42.688 12.9771 43.045 13.4169 43.045C14.0839 43.045 14.6808 42.6999 15.0139 42.123C15.347 41.5452 15.347 40.8559 15.0139 40.279L12.7213 36.3082C12.5308 35.9783 12.2479 35.7352 11.9212 35.5782V30.6209L16.3431 28.5235L17.6284 30.6735L17.167 38.8032C17.1511 39.0829 17.2834 39.3498 17.5145 39.5068C17.6491 39.5985 17.8053 39.6447 17.9631 39.6447C18.0771 39.6447 18.1902 39.6208 18.2962 39.5714L21.9443 37.89L24.8138 42.688C24.9581 42.9286 25.2179 43.076 25.4976 43.076C25.7781 43.076 26.0386 42.9278 26.1821 42.6864L29.0437 37.8724L32.9228 39.5793C33.0256 39.6248 33.1348 39.6463 33.244 39.6463C33.4073 39.6463 33.5699 39.5961 33.7078 39.4973C33.9373 39.3331 34.0624 39.0614 34.0385 38.7809L33.3412 30.6416L34.5987 28.5259L38.9647 30.585V35.5822C37.2594 35.9496 35.9765 37.466 35.9765 39.2797C35.9765 41.3667 37.6746 43.0649 39.7616 43.0649C41.8486 43.0649 43.5468 41.3667 43.5468 39.2797C43.5468 37.466 42.2638 35.9496 40.5585 35.5822V31.3365L43.3515 32.6537C45.5262 33.6793 46.9423 35.8117 46.9598 38.1402V49.4072L46.9622 49.4064Z" fill="#134A85"/>
<path d="M3.98364 22.4813H6.98786V25.4855C6.98786 25.9254 7.34486 26.2824 7.78474 26.2824C8.22461 26.2824 8.58161 25.9254 8.58161 25.4855V22.4813H11.5858C12.0257 22.4813 12.3827 22.1243 12.3827 21.6845C12.3827 21.2446 12.0257 20.8876 11.5858 20.8876H8.58161V17.8842C8.58161 17.4443 8.22461 17.0873 7.78474 17.0873C7.34486 17.0873 6.98786 17.4443 6.98786 17.8842V20.8876H3.98364C3.54377 20.8876 3.18677 21.2446 3.18677 21.6845C3.18677 22.1243 3.54377 22.4813 3.98364 22.4813Z" fill="#134A85"/>
</g>
<defs>
<clipPath id="clip0_1_24">
<rect width="51" height="51" fill="white"/>
</clipPath>
</defs>
</svg>
