<svg width="51" height="51" viewBox="0 0 51 51" fill="none" xmlns="http://www.w3.org/2000/svg">
<g clip-path="url(#clip0_1_438)">
<path d="M27.2543 23.6533C26.4931 26.2748 25.9584 27.0843 25.5169 27.6373C25.5136 27.6414 25.5091 27.6471 25.4951 27.6471C25.4799 27.6471 25.4742 27.64 25.4708 27.6359C25.0957 27.1643 24.6777 26.5472 24.0587 24.675C23.9292 24.2833 23.5066 24.0707 23.1148 24.2002C22.7231 24.3297 22.5106 24.7523 22.64 25.1441C23.2661 27.0377 23.757 27.8815 24.3015 28.566C24.5921 28.9312 25.0266 29.1409 25.4937 29.1413H25.4951C25.961 29.1413 26.3944 28.933 26.6846 28.5695C27.3431 27.7446 27.9361 26.6638 28.6891 24.07C28.9221 23.2679 29.75 22.3398 30.5507 21.4422C31.0852 20.8429 31.5902 20.277 31.9584 19.7118C32.7714 18.464 33.2011 17.0128 33.2011 15.5152C33.2011 14.9503 33.1399 14.3874 33.0193 13.8421C32.8633 13.1373 32.8593 12.4248 33.0073 11.7244C33.1777 10.9189 32.6611 10.1084 31.8559 9.91767C31.0362 9.72353 30.2568 9.40029 29.5392 8.95702C28.3287 8.20925 26.9319 7.814 25.4998 7.814C25.4636 7.814 25.4275 7.81419 25.3924 7.81469C23.998 7.83352 22.6412 8.222 21.4685 8.9382C20.7401 9.38326 19.9526 9.70819 19.1279 9.90412C18.3209 10.096 17.8054 10.9084 17.9786 11.7149C18.1303 12.422 18.1292 13.1419 17.9751 13.8544C17.8687 14.3466 17.8098 14.8552 17.8001 15.366C17.7713 16.9002 18.1912 18.3884 19.0144 19.6699C19.3817 20.2416 19.8921 20.8165 20.4325 21.4253C20.7032 21.73 20.9829 22.045 21.2386 22.3548C21.5011 22.673 21.972 22.7181 22.2903 22.4555C22.6085 22.1929 22.6535 21.722 22.391 21.4037C22.1182 21.0731 21.8293 20.7478 21.55 20.4331C21.5494 20.4324 21.5488 20.4317 21.5482 20.431C22.5265 19.2723 23.9653 18.5937 25.4999 18.5937C27.0341 18.5937 28.4726 19.2719 29.4509 20.4301C29.4458 20.4359 29.4408 20.4415 29.4356 20.4473C28.5243 21.4695 27.5817 22.5261 27.2543 23.6533ZM25.4999 17.0999C23.6057 17.0999 21.824 17.9006 20.5693 19.2798C20.459 19.1366 20.3579 18.997 20.2716 18.8625C19.6088 17.8309 19.2708 16.6315 19.2942 15.3941C19.3018 14.98 19.3495 14.5683 19.4355 14.1704C19.6348 13.249 19.6362 12.3174 19.4396 11.4014C19.4363 11.3862 19.4514 11.3632 19.4735 11.3579C20.4513 11.1256 21.3847 10.7405 22.2475 10.2134C23.1916 9.63686 24.2861 9.32399 25.4138 9.30875C26.5983 9.29152 27.7554 9.61126 28.7541 10.2283C29.6081 10.7558 30.536 11.1405 31.5116 11.3716C31.5338 11.3769 31.5487 11.4001 31.5456 11.4153C31.3531 12.3256 31.3582 13.2506 31.5604 14.165C31.6577 14.6044 31.707 15.0587 31.707 15.5152C31.707 16.7225 31.3611 17.8916 30.7066 18.896C30.6256 19.0205 30.5326 19.149 30.4314 19.2805C29.1766 17.9009 27.3944 17.0999 25.4999 17.0999Z" fill="#134A85"/>
<path d="M50.9958 10.9404C50.9346 9.36914 50.2878 7.89849 49.1748 6.79929C48.8813 6.50943 48.4082 6.51232 48.1184 6.80587C47.8284 7.09942 47.8314 7.57247 48.1248 7.86234C48.967 8.69398 49.4563 9.80782 49.5029 10.9988C49.5846 13.0848 48.3535 14.6798 47.3978 15.5958C47.1857 15.1773 46.91 14.7887 46.5664 14.4452C46.5664 14.4452 46.5664 14.4452 46.5663 14.4452C46.5638 14.4426 46.5611 14.4403 46.5585 14.4377C47.5943 13.4053 48.1339 12.2254 48.0882 11.054C48.0392 9.81071 47.3424 8.76979 46.1764 8.19832C44.2971 7.27732 40.9244 7.72049 36.68 9.44614C36.6719 9.44943 36.664 9.45281 36.656 9.4564C36.6541 9.4571 36.6524 9.45779 36.6505 9.45849C35.0176 10.1185 34.1043 11.8262 34.4786 13.5185C34.6223 14.1697 34.6952 14.8413 34.6952 15.5151C34.6952 17.3038 34.1819 19.0368 33.2108 20.527C32.5015 21.6153 32.1556 22.8551 32.2108 24.1138C32.2149 24.204 32.217 24.3004 32.217 24.4084C32.217 24.7003 32.1967 24.9915 32.1595 25.2791C28.9896 26.5948 26.7543 29.7223 26.7543 33.3626C26.7543 33.5154 26.7583 33.6673 26.7661 33.8181C25.0087 34.3761 22.7809 33.7589 21.8135 31.6506C21.8106 31.6443 21.8071 31.6386 21.8041 31.6325C21.3163 30.4251 20.7047 29.2822 19.9753 28.2302C19.1957 27.1058 18.7836 25.7842 18.7836 24.4084C18.7836 24.3381 18.7844 24.267 18.7872 24.192C18.8289 22.8755 18.4729 21.591 17.7576 20.4775C16.7741 18.9457 16.2724 17.1684 16.3071 15.3373C16.318 14.7291 16.388 14.1241 16.5155 13.5381C16.884 11.8307 15.9725 10.1146 14.3432 9.4558C14.3357 9.45242 14.3282 9.44923 14.3204 9.44614C10.0756 7.72049 6.70288 7.27752 4.82383 8.19842C3.65779 8.76989 2.96102 9.81081 2.91201 11.0545C2.86649 12.2256 3.40608 13.4049 4.44173 14.4378C4.43914 14.4404 4.43635 14.4427 4.43376 14.4453C4.43366 14.4453 4.43366 14.4453 4.43366 14.4453C4.0901 14.7888 3.81438 15.1774 3.60231 15.5959C2.64665 14.6798 1.41546 13.0848 1.49724 10.9987C1.56578 9.24542 2.57622 7.72348 4.20037 6.92739C7.07911 5.51611 11.5825 6.80507 14.8538 8.13527L14.96 8.178C16.8124 8.91581 18.9543 8.72347 20.6897 7.66331C22.0909 6.80756 23.7101 6.34328 25.3724 6.32077C27.1299 6.29586 28.8403 6.76901 30.3246 7.68593C32.0285 8.73851 34.1591 8.92478 36.0242 8.18428C36.0648 8.16814 36.1057 8.1517 36.1467 8.13497C38.823 7.04673 42.618 5.8776 45.4969 6.48891C45.9005 6.57497 46.2972 6.31688 46.383 5.91326C46.4685 5.50964 46.2108 5.11299 45.8073 5.02733C42.5576 4.33742 38.4541 5.58375 35.5837 6.75088C35.5466 6.76602 35.5096 6.78087 35.4728 6.79551C34.0447 7.36259 32.4136 7.22005 31.1098 6.4146C29.3835 5.34807 27.3944 4.79952 25.3521 4.82661C23.4222 4.85271 21.5406 5.3927 19.9108 6.3881C18.5747 7.20431 16.9307 7.35452 15.5133 6.78993L15.4163 6.75088C11.8627 5.30594 6.91824 3.93091 3.54274 5.58564C1.41726 6.62757 0.0945317 8.62933 0.0041851 10.9403C-0.0383485 12.0255 0.189261 14.7608 3.12289 17.1693C2.90036 18.8983 3.53906 20.8247 4.99207 22.2778C6.25683 23.5427 7.88028 24.1908 9.42005 24.1908C10.6965 24.1908 11.9156 23.7452 12.8244 22.8362C13.8128 21.848 14.2888 20.4765 14.165 18.9743C14.0451 17.5184 13.3707 16.1083 12.2662 15.0037C10.3815 13.1191 7.70028 12.604 5.68686 13.562C4.82692 12.7805 4.37349 11.9212 4.40487 11.113C4.43186 10.4257 4.81417 9.86709 5.48136 9.54007C6.02384 9.27421 8.22294 8.58182 13.7495 10.827C13.7627 10.8327 13.7761 10.8381 13.7876 10.8427C14.7366 11.2266 15.2695 12.2276 15.0549 13.2218C14.9071 13.902 14.8255 14.6047 14.8129 15.3097C14.7726 17.437 15.356 19.5031 16.5001 21.2848C17.0511 22.1429 17.3255 23.1317 17.2936 24.14C17.2903 24.2291 17.2891 24.3193 17.2891 24.4083C17.2891 26.0898 17.7933 27.7058 18.747 29.0813C20.3228 31.3544 21.3062 34.093 21.5908 37.0012C21.7636 38.7639 21.8784 40.6639 21.9322 42.6484C21.9843 44.5579 23.4953 46.1054 25.372 46.1716C25.4155 46.1732 25.4588 46.1739 25.5021 46.1739C26.4142 46.1739 27.2771 45.8327 27.9442 45.2056C28.6425 44.5491 29.0408 43.6604 29.0658 42.7037C29.0958 41.5858 29.1453 40.4932 29.2133 39.4367C30.805 41.084 33.0357 42.1101 35.5018 42.1101C39.6955 42.1101 43.3085 39.1235 44.0927 35.0086C44.1699 34.6033 43.904 34.2122 43.4987 34.135C43.0941 34.0574 42.7022 34.3235 42.6251 34.7289C41.9749 38.1401 38.9791 40.616 35.5018 40.616C31.5023 40.616 28.2483 37.362 28.2483 33.3625C28.2483 29.3629 31.5023 26.1089 35.5018 26.1089C38.8656 26.1089 41.7646 28.3903 42.5518 31.6571C42.6486 32.0581 43.0518 32.3047 43.4531 32.2083C43.8543 32.1116 44.1011 31.7081 44.0044 31.3069C43.0549 27.3666 39.5584 24.6146 35.5018 24.6146C34.8848 24.6146 34.2828 24.6792 33.7016 24.8013C33.7077 24.6704 33.7109 24.5394 33.7109 24.4082C33.7109 24.2772 33.7084 24.1586 33.7034 24.0468C33.662 23.1031 33.9245 22.1681 34.4624 21.3427C35.5922 19.6093 36.1892 17.5941 36.1892 15.515C36.1892 14.7332 36.1046 13.9531 35.9376 13.1962C35.722 12.2215 36.2534 11.2351 37.2018 10.8472C37.222 10.8395 37.2414 10.8314 37.2602 10.823C42.7805 8.58212 44.9764 9.27431 45.5186 9.53987C46.1857 9.86689 46.568 10.4255 46.5951 11.1126C46.6267 11.9212 46.1731 12.7808 45.313 13.5618C43.2996 12.6038 40.6184 13.1189 38.7338 15.0035C37.6293 16.108 36.955 17.5182 36.835 18.9741C36.7112 20.4763 37.1872 21.8478 38.1755 22.836C39.0846 23.745 40.3033 24.1906 41.5799 24.1906C43.1196 24.1906 44.7433 23.5424 46.008 22.2776C47.461 20.8246 48.0996 18.8982 47.8771 17.1692C50.8105 14.7607 51.0383 12.0255 50.9958 10.9404ZM11.2098 16.0602C12.0643 16.9147 12.5851 17.9932 12.676 19.0969C12.7632 20.1543 12.4407 21.107 11.7681 21.7796C10.3453 23.2025 7.77937 22.9519 6.04874 21.2213C4.31791 19.4904 4.06739 16.9247 5.49042 15.5019C6.91296 14.0792 9.47902 14.3294 11.2098 16.0602ZM27.6732 40.1747L25.6512 40.6566C25.2498 40.7522 25.0019 41.1551 25.0975 41.5564C25.1793 41.8996 25.4856 42.1305 25.8237 42.1305C25.881 42.1305 25.9392 42.1239 25.9974 42.11L27.6024 41.7276C27.591 42.038 27.5805 42.3498 27.572 42.6644C27.5575 43.22 27.3261 43.736 26.9206 44.1172C26.5144 44.499 25.9833 44.6971 25.4246 44.6786C24.3343 44.6402 23.4562 43.7305 23.4257 42.6079C23.3891 41.2569 23.324 39.9446 23.2325 38.685L24.7753 39.0525C24.8335 39.0664 24.8917 39.073 24.949 39.073C25.2871 39.073 25.5934 38.842 25.6752 38.4989C25.7708 38.0976 25.523 37.6946 25.1215 37.599L23.1021 37.1178C23.0939 37.0305 23.0862 36.9422 23.0777 36.8555C23.01 36.1634 22.9035 35.4806 22.7638 34.8089C23.6112 35.2805 24.5589 35.5062 25.4936 35.5062C25.9965 35.5062 26.4955 35.4398 26.9731 35.3123C27.1589 36.1251 27.4584 36.8949 27.8536 37.6045C27.7813 38.4357 27.721 39.2942 27.6732 40.1747ZM44.9515 21.2213C43.2206 22.952 40.6549 23.2025 39.2319 21.7796C38.5594 21.107 38.2369 20.1543 38.3241 19.0969C38.415 17.9932 38.9358 16.9147 39.7903 16.0602C40.7663 15.0842 42.0077 14.579 43.16 14.579C44.0512 14.579 44.8892 14.8813 45.5098 15.5018C46.9324 16.9248 46.6821 19.4906 44.9515 21.2213Z" fill="#134A85"/>
<path d="M34.4293 33.7404L34.4319 33.7298C34.535 33.3303 34.2948 32.9229 33.8952 32.8198C33.4953 32.7167 33.0882 32.957 32.9852 33.3565L32.9825 33.367C32.8794 33.7666 33.1197 34.174 33.5192 34.2771C33.5819 34.2932 33.6446 34.301 33.7064 34.301C34.039 34.301 34.3424 34.0773 34.4293 33.7404Z" fill="#134A85"/>
<path d="M35.6933 35.5072C35.756 35.5233 35.8188 35.5311 35.8805 35.5311C36.2131 35.5311 36.5165 35.3074 36.6034 34.9705L36.6061 34.9599C36.7092 34.5604 36.4689 34.153 36.0694 34.0499C35.6692 33.9467 35.2623 34.187 35.1593 34.5866L35.1567 34.5971C35.0537 34.9967 35.2939 35.4041 35.6933 35.5072Z" fill="#134A85"/>
<path d="M33.1838 38.9113C33.2818 38.9545 33.3842 38.975 33.4848 38.975C33.7718 38.975 34.0455 38.8087 34.1687 38.5292L34.5442 37.6776C34.6682 37.7678 34.7998 37.8484 34.9408 37.916C35.2825 38.0796 35.647 38.1582 36.0078 38.1582C36.7729 38.1582 37.5215 37.8049 38.0024 37.1604C38.177 36.9263 38.3074 36.6697 38.3909 36.3957C38.8946 36.263 39.3635 36.0122 39.7558 35.6643C41.0189 34.5442 41.2384 32.5943 40.2557 31.2249C39.6511 30.3824 38.724 29.8821 37.7118 29.8327L37.9867 29.2085C38.1529 28.8309 37.9816 28.39 37.604 28.2238C37.2265 28.0576 36.7855 28.2288 36.6191 28.6064L36.3689 29.1745C36.1925 29.0223 35.9949 28.8937 35.7804 28.7944C34.7515 28.3185 33.5332 28.5997 32.8178 29.4781C32.5459 29.8119 32.3657 30.2043 32.2915 30.6215C31.9062 30.7679 31.5541 30.9826 31.2431 31.2613C29.9123 32.4537 29.7592 34.5427 30.9017 35.9178C31.4709 36.6027 32.2864 37.0279 33.1593 37.1151L32.8016 37.9262C32.6351 38.3037 32.8062 38.7447 33.1838 38.9113ZM32.0511 34.9628C31.4157 34.1982 31.5006 33.0369 32.2401 32.3742C32.4374 32.1975 32.6636 32.0671 32.9123 31.9867C33.37 31.8385 33.7002 31.4298 33.7536 30.9458C33.7747 30.7559 33.8517 30.5746 33.9763 30.4217C34.2561 30.0785 34.7512 29.9644 35.1532 30.1504C35.3209 30.2279 35.4576 30.3417 35.5593 30.4884C35.7381 30.746 35.9744 30.9524 36.2445 31.0972C36.2691 31.1116 36.2944 31.125 36.3211 31.1368C36.324 31.1381 36.3269 31.1389 36.3298 31.1401C36.6492 31.2923 37.0101 31.3613 37.3767 31.3293C38.0344 31.2716 38.656 31.5584 39.0416 32.0959H39.0417C39.5837 32.8513 39.462 33.9276 38.7643 34.5462C38.5231 34.7601 38.2303 34.9075 37.9175 34.9725C37.4511 35.0692 37.0835 35.4276 36.9811 35.8858C36.9504 36.0228 36.8913 36.1509 36.8048 36.2666C36.5274 36.6384 36.0035 36.7683 35.5861 36.5681C35.4601 36.5079 35.3511 36.4258 35.2619 36.3243C34.8687 35.8762 34.3344 35.627 33.7778 35.627C33.7304 35.627 33.6828 35.6288 33.6352 35.6325C33.0292 35.6788 32.4383 35.4286 32.0511 34.9628Z" fill="#134A85"/>
</g>
<defs>
<clipPath id="clip0_1_438">
<rect width="51" height="51" fill="white"/>
</clipPath>
</defs>
</svg>
