<svg width="51" height="51" viewBox="0 0 51 51" fill="none" xmlns="http://www.w3.org/2000/svg">
<g clip-path="url(#clip0_18_76)">
<path d="M9.87099 5.75806H11.5161V12.3388H9.87099V5.75806Z" fill="#134A85"/>
<path d="M9.87099 13.9839H11.5161V15.629H9.87099V13.9839Z" fill="#134A85"/>
<path d="M27.1451 3.2903C23.0462 3.2903 19.0394 4.35144 15.4909 6.34293L12.6332 1.1467C12.2441 0.439277 11.5005 0 10.6936 0C9.88663 0 9.14295 0.439277 8.75387 1.1467L0.263268 16.5841C0.0913418 16.8974 0 17.2528 0 17.6106C0 18.7853 0.956648 19.742 2.13134 19.742H4.4634C3.68604 22.1241 3.2904 24.6092 3.2904 27.1452C3.2903 40.2983 13.9912 51 27.1451 51C40.2991 51 51 40.2983 51 27.1451C51 13.9912 40.2991 3.2903 27.1451 3.2903ZM1.64515 17.6106C1.64515 17.5292 1.66567 17.4478 1.70521 17.3762L10.195 1.93969C10.2953 1.75791 10.4862 1.64525 10.6935 1.64525C10.9008 1.64525 11.0916 1.75791 11.1919 1.93969L19.6817 17.3755C19.7212 17.4479 19.7418 17.5293 19.7418 17.6107C19.7418 17.8789 19.5238 18.0969 19.2556 18.0969H2.13134C1.86319 18.0967 1.64515 17.8788 1.64515 17.6106ZM9.73602 19.742H19.2558C20.4305 19.742 21.3871 18.7853 21.3871 17.6106C21.3871 17.2528 21.2958 16.8983 21.1231 16.5833L17.8681 10.6648C20.6913 9.07392 23.8788 8.22584 27.1451 8.22584C37.5771 8.22584 46.0645 16.7133 46.0645 27.1451C46.0645 37.5779 37.577 46.0645 27.1451 46.0645C16.7133 46.0645 8.22584 37.5779 8.22584 27.1451C8.22584 24.5696 8.73823 22.083 9.73602 19.742ZM27.1451 49.3549C14.8986 49.3549 4.93545 39.3917 4.93545 27.1451C4.93545 24.6001 5.37881 22.1151 6.21871 19.7419H7.9568C7.04537 22.0977 6.58059 24.5819 6.58059 27.1451C6.58059 38.4844 15.8058 47.7097 27.1451 47.7097C38.4845 47.7097 47.7097 38.4845 47.7097 27.1451C47.7097 15.8058 38.4845 6.58069 27.1451 6.58069C23.6014 6.58069 20.1417 7.49949 17.0759 9.22443L16.2829 7.78328C19.5897 5.92586 23.3242 4.93554 27.1451 4.93554C39.3917 4.93554 49.3549 14.8987 49.3549 27.1452C49.3549 39.3918 39.3917 49.3549 27.1451 49.3549Z" fill="#134A85"/>
<path d="M14.6329 38.9673C14.7867 40.1995 15.8397 41.129 17.0817 41.129H37.2095C38.4516 41.129 39.5045 40.1994 39.6583 38.9673L40.2102 34.5484H41.129C42.0363 34.5484 42.7742 33.8106 42.7742 32.9033V31.2581C42.7742 30.3582 42.0478 29.6269 41.1504 29.6155C43.1172 26.177 43.3426 22.0798 41.5469 19.77C40.7079 18.6916 39.4929 18.0968 38.1266 18.0968C36.0816 18.0968 33.9306 19.3546 32.2237 21.5484C30.5357 23.7184 29.6088 26.4287 29.6277 28.8611L27.9677 26.0948V23.2815L29.2624 21.3394C29.3455 21.2144 29.3982 21.0753 29.4525 20.9372L32.6013 19.8876C33.2742 19.6631 33.7258 19.0354 33.7258 18.3263C33.7258 15.4786 31.4086 13.1614 28.5609 13.1614H27.9678C27.0605 13.1614 26.3227 13.8992 26.3227 14.8065V18.4234C23.6378 19.8242 21.5377 22.1415 20.4132 24.9325C19.2929 23.5605 17.8904 22.4204 16.2782 21.6142C15.9804 21.4662 15.6472 21.3872 15.3149 21.3872C14.1271 21.3872 13.1614 22.3529 13.1614 23.5408V23.7538C13.1614 25.7223 13.3793 27.6874 13.7865 29.6131H13.1614C12.254 29.6131 11.5162 30.3509 11.5162 31.2582V32.9034C11.5162 33.8107 12.254 34.5485 13.1614 34.5485H14.0802L14.6329 38.9673ZM38.0255 38.7633C37.9737 39.1738 37.6233 39.4839 37.2087 39.4839H17.0817C16.6679 39.4839 16.3167 39.1738 16.2657 38.7633L15.7385 34.5484H38.5519L38.0255 38.7633ZM33.5226 22.5584C34.8939 20.7948 36.6155 19.7419 38.1266 19.7419C38.9986 19.7419 39.7126 20.0915 40.2481 20.78C41.7649 22.7304 41.2829 26.6212 39.2058 29.6129H31.3165C31.0565 27.3993 31.8922 24.6535 33.5226 22.5584ZM28.1603 29.6129H22.83L22.7847 29.4558C22.6778 29.0806 22.547 28.7155 22.4063 28.3552L26.7529 27.2686L28.1603 29.6129ZM28.5608 14.8064C30.5013 14.8064 32.0806 16.3857 32.0806 18.3262L29.3826 19.2253L31.0936 16.9451L29.7774 15.958L28.1043 18.1881C28.0583 18.1749 28.0146 18.156 27.9669 18.1453V14.8065L28.5608 14.8064ZM27.2456 19.7888C27.3072 19.7583 27.3755 19.7419 27.443 19.7419H27.5277C27.7704 19.7419 27.9678 19.9393 27.9678 20.1819C27.9678 20.2691 27.9423 20.3531 27.8938 20.4263L26.748 22.1446L24.4267 21.8131C25.2475 21.0013 26.1959 20.3136 27.2456 19.7888ZM23.1795 23.2963L26.3226 23.7455V25.6802L21.6955 26.8375C21.6561 26.7651 21.61 26.6969 21.5688 26.6262C21.9136 25.421 22.468 24.3015 23.1795 23.2963ZM14.8064 23.7536V23.5406C14.8064 23.1819 15.2202 22.9236 15.5426 23.0857C18.2012 24.4149 20.2059 26.7856 21.1024 29.6129H19.4927C18.9604 28.1667 18.123 26.8301 17.034 25.7409L15.8709 26.9041C16.6482 27.6814 17.2742 28.6085 17.7241 29.6129H15.4694C15.0367 27.6905 14.8064 25.7245 14.8064 23.7536ZM13.1613 31.258H41.129L41.1298 32.9032H13.1613V31.258Z" fill="#134A85"/>
<path d="M37.0161 27.9677C38.8307 27.9677 40.3064 26.492 40.3064 24.6774C40.3064 22.8628 38.8307 21.3871 37.0161 21.3871C35.2016 21.3871 33.7258 22.8628 33.7258 24.6774C33.7258 26.492 35.2016 27.9677 37.0161 27.9677ZM37.0161 23.0322C37.9235 23.0322 38.6613 23.77 38.6613 24.6774C38.6613 25.5847 37.9234 26.3225 37.0161 26.3225C36.1089 26.3225 35.371 25.5847 35.371 24.6774C35.371 23.77 36.1088 23.0322 37.0161 23.0322Z" fill="#134A85"/>
</g>
<defs>
<clipPath id="clip0_18_76">
<rect width="51" height="51" fill="white"/>
</clipPath>
</defs>
</svg>
