<svg width="51" height="51" viewBox="0 0 51 51" fill="none" xmlns="http://www.w3.org/2000/svg">
<path d="M45.4618 35.2306C45.4578 35.0243 45.375 34.8314 45.2282 34.6876C45.0774 34.54 44.8789 34.4595 44.6665 34.4643C44.4579 34.4682 44.2634 34.5525 44.118 34.7033C43.9735 34.8533 43.8961 35.051 43.9 35.2596C43.925 36.6213 43.9375 37.9791 43.9375 39.2947C43.9375 40.8751 43.9196 42.4369 43.8836 43.9377H38.8922C38.7188 39.9228 38.4703 36.8617 38.4119 36.1687C38.9855 34.1917 40.7945 28.3447 40.7945 28.3447C40.8375 28.2102 40.843 28.0665 40.811 27.9291L40.8102 27.9274C40.7266 27.5728 40.4149 27.3251 40.0508 27.3251C39.9906 27.3251 39.9305 27.3322 39.8711 27.3463C39.5914 27.4119 39.3703 27.6259 39.2953 27.9033C39.1602 28.3299 37.9422 32.1736 36.8711 35.8713C36.5117 37.1065 36.2 38.2252 35.9437 39.1979C35.6484 40.3165 35.4461 41.1721 35.3235 41.8127C35.1953 42.483 35.1126 43.1979 35.0781 43.9377H26.2812V28.1563C26.2812 27.7259 25.9304 27.3751 25.5 27.3751C25.0695 27.3751 24.7187 27.7259 24.7187 28.1563V43.9376H15.9217C15.8874 43.1978 15.8045 42.483 15.6764 41.8126C15.4477 40.6202 14.9416 38.6783 14.1298 35.8754C14.1294 35.874 14.1291 35.8726 14.1287 35.8712C13.0522 32.1548 11.8381 28.3251 11.7037 27.9008C11.6279 27.6242 11.4076 27.4117 11.1287 27.3461C10.8998 27.2922 10.6529 27.3469 10.4678 27.4914C10.3272 27.6015 10.2311 27.7524 10.1897 27.9273L10.1888 27.9289C10.1568 28.0664 10.1622 28.2102 10.2052 28.3445C10.2052 28.3445 10.2052 28.3445 10.2138 28.3734C10.2388 28.4507 10.313 28.6843 10.4247 29.0398C10.7947 30.2181 11.7392 33.2444 12.5876 36.1676C12.5413 36.7216 12.4028 38.4407 12.2661 40.8109C12.2044 41.882 12.1505 42.9336 12.1076 43.9376H7.11684C7.08074 42.4372 7.06238 40.8796 7.06238 39.2946C7.06238 34.2313 7.25067 29.6938 7.40848 26.7781C7.49832 25.1266 7.58739 23.8134 7.64676 23.0024C7.67332 22.6367 7.83856 20.4484 7.99825 19.9319C8.85427 20.488 9.87396 20.8126 10.9686 20.8126C13.9841 20.8126 16.4374 18.3593 16.4374 15.3438C16.4374 14.7609 16.3448 14.1994 16.1752 13.6721C16.5847 13.5015 17.0263 13.3182 17.5062 13.1196C18.7421 12.6078 19.8171 11.771 20.6156 10.6999C21.4085 9.63673 21.9015 8.37884 22.0413 7.06243H28.9586C29.0843 8.24368 29.5008 9.39056 30.1617 10.3788C31.6594 12.7034 33.9699 13.2537 35.9369 14.1341C39.9081 15.8463 43.352 17.7718 43.2835 22.0883C43.3499 22.914 43.5187 25.168 43.6664 28.2523C43.6867 28.682 44.053 29.0163 44.4843 28.9953C44.9148 28.9742 45.2476 28.607 45.2273 28.1773C45.0484 24.4484 44.8445 21.9796 44.8054 21.5226C44.4052 13.034 33.0987 13.0065 31.4609 9.51017C30.8187 8.55079 30.4797 7.4336 30.4797 6.28125C30.4797 6.07578 30.3968 5.87422 30.2507 5.72891C30.1054 5.58352 29.9047 5.5 29.6984 5.5H21.3015C21.0953 5.5 20.8945 5.58352 20.7484 5.72891C20.6031 5.87422 20.5202 6.07578 20.5202 6.28125C20.5202 8.64993 19.1023 10.768 16.9086 11.6758C16.3949 11.8882 15.9229 12.0842 15.4864 12.2661C14.5007 10.8238 12.8436 9.87502 10.9686 9.87502C7.95317 9.87502 5.49988 12.3283 5.49988 15.3438C5.49988 16.6595 5.96707 17.868 6.7441 18.8126C6.38293 19.6619 6.19855 20.5717 6.19433 21.5227C6.12324 22.3524 5.49988 29.9031 5.49988 39.2946C5.49988 39.4336 5.52847 43.1084 5.57425 44.7166C5.57425 44.7173 5.57418 44.7181 5.57418 44.7189C5.57418 44.7214 5.57449 44.7238 5.57457 44.7263C5.57472 44.7311 5.5748 44.736 5.57496 44.7408C5.57496 44.7413 5.57535 44.7417 5.57535 44.7423C5.58785 45.1619 5.93277 45.5002 6.35535 45.5002H6.35691H6.37723H12.8569C13.2787 45.5002 13.621 45.1705 13.6374 44.7494C13.6866 43.5095 13.7483 42.251 13.8256 40.9009C13.8287 40.8455 13.8319 40.7892 13.8358 40.7345C13.9702 41.2845 14.0733 41.7454 14.1412 42.1056C14.2959 42.9126 14.3756 43.7923 14.3787 44.7212C14.3796 44.9298 14.4608 45.1259 14.6084 45.272C14.7553 45.4189 14.9514 45.5002 15.16 45.5002H35.8398C36.0484 45.5002 36.2445 45.4189 36.3914 45.272C36.5391 45.1259 36.6203 44.9298 36.621 44.7212C36.6234 43.7939 36.703 42.9141 36.8577 42.1056C36.9273 41.7447 37.0296 41.283 37.164 40.7337C37.2437 42.0845 37.3101 43.4352 37.3616 44.7501C37.3788 45.1705 37.721 45.5002 38.142 45.5002H44.6444C44.8483 45.5002 45.0413 45.4212 45.1882 45.2783C45.335 45.1361 45.4194 44.9446 45.4249 44.7408C45.4749 42.9852 45.4999 41.1532 45.4999 39.2946C45.5 37.9696 45.4868 36.6024 45.4618 35.2306ZM10.9686 11.4375C13.1226 11.4375 14.8749 13.1899 14.8749 15.3438C14.8749 17.4977 13.1226 19.2501 10.9686 19.2501C8.81473 19.2501 7.06238 17.4977 7.06238 15.3438C7.06238 13.1899 8.81473 11.4375 10.9686 11.4375Z" fill="#134A85"/>
<path d="M44.5633 30.9485C44.1329 30.9626 43.7946 31.325 43.8087 31.7555C43.8157 31.9594 43.9001 32.1492 44.0469 32.2914C44.193 32.4329 44.3861 32.5102 44.5891 32.5102H44.6157C44.8243 32.5031 45.0172 32.4156 45.1602 32.2633C45.3024 32.1102 45.3774 31.9117 45.3704 31.7031C45.3633 31.4993 45.279 31.3086 45.1321 31.1673C44.979 31.0195 44.7766 30.9407 44.5633 30.9485Z" fill="#134A85"/>
<path d="M10.9686 17.6875C12.261 17.6875 13.3124 16.6361 13.3124 15.3438C13.3124 14.0514 12.261 13 10.9686 13C9.67629 13 8.62488 14.0514 8.62488 15.3438C8.62488 16.6361 9.67629 17.6875 10.9686 17.6875ZM10.9686 14.5625C11.3994 14.5625 11.7499 14.913 11.7499 15.3438C11.7499 15.7745 11.3994 16.125 10.9686 16.125C10.5379 16.125 10.1874 15.7745 10.1874 15.3438C10.1874 14.913 10.5379 14.5625 10.9686 14.5625Z" fill="#134A85"/>
<path d="M21.137 20.5433C21.2785 20.6624 21.4569 20.727 21.6402 20.727C21.667 20.727 21.6939 20.7256 21.7209 20.7228L24.0962 20.4761C24.5254 20.4316 24.8371 20.0475 24.7925 19.6184C24.748 19.1893 24.3643 18.8764 23.9348 18.922L22.365 19.085L22.2878 17.9443C22.2592 17.5209 21.9012 17.1982 21.4738 17.2166L18.7882 17.3356C18.3571 17.3546 18.0232 17.7196 18.0423 18.1506C18.0614 18.5817 18.4277 18.9166 18.8574 18.8966L20.7804 18.8113L20.8607 19.9985C20.8751 20.2099 20.9748 20.4067 21.137 20.5433Z" fill="#134A85"/>
<path d="M20.0347 22.9581C19.9682 22.7574 19.8232 22.5923 19.6327 22.5004C19.4422 22.4085 19.2228 22.3978 19.0243 22.4705L17.9071 22.8799L17.2028 21.0884C17.0449 20.6869 16.5914 20.4891 16.1898 20.6473C15.7882 20.8052 15.5907 21.2586 15.7486 21.6602L16.7322 24.162C16.8875 24.557 17.3299 24.7559 17.7282 24.6096L18.8052 24.2149L19.3385 25.8239C19.4473 26.1519 19.7525 26.3596 20.08 26.3596C20.1614 26.3596 20.2443 26.3467 20.3259 26.3196C20.7354 26.1839 20.9574 25.7418 20.8217 25.3322L20.0347 22.9581Z" fill="#134A85"/>
</svg>
