<svg width="51" height="51" viewBox="0 0 51 51" fill="none" xmlns="http://www.w3.org/2000/svg">
<path d="M38.9409 27.9943C40.5157 27.4083 41.8516 26.7604 42.8296 26.1135" stroke="#134A85" stroke-width="0.997997" stroke-linecap="round" stroke-linejoin="round"/>
<path d="M12.1393 7.28564C7.71524 11.9666 7.58293 17.5562 8.89888 22.6665C10.575 29.1912 11.8904 37.9264 11.3075 41.5641C10.7247 45.2057 13.8651 43.7498 15.9096 40.6939C17.2381 38.706 18.5666 35.4148 21.3022 33.0599C22.7715 31.7938 24.6503 30.7956 27.1541 30.4162C27.6632 30.3378 28.1518 30.2323 28.6357 30.1976C31.2102 30.0131 33.7513 29.548 36.0234 28.9277" stroke="#134A85" stroke-width="0.997997" stroke-linecap="round" stroke-linejoin="round"/>
<path d="M14.3585 24.6704C13.8644 26.9833 13.8526 29.2432 14.0446 30.7175C14.4066 33.4728 15.4847 39.1901 11.5008 43.4008C11.2484 43.0745 11.1592 42.4806 11.3071 41.563C11.8908 37.9257 10.5756 29.1907 8.89845 22.6655C7.58308 17.5551 7.71568 11.9654 12.1381 7.28564" stroke="#134A85" stroke-width="0.997997" stroke-linecap="round" stroke-linejoin="round"/>
<path d="M29.858 7.28564C28.3207 9.21752 25.4194 12.5725 21.8745 15.2623" stroke="#134A85" stroke-width="0.997997" stroke-linecap="round" stroke-linejoin="round"/>
<path d="M40.4519 7.28564C36.0047 19.6553 39.3988 26.3564 39.3988 33.1289" stroke="#134A85" stroke-width="0.997997" stroke-linecap="round" stroke-linejoin="round"/>
<path d="M36.4344 33.1288C36.4344 27.4346 34.3498 23.2348 31.7269 21.2948C30.1772 22.2813 27.4393 23.4558 21.9871 25.3522C17.2589 26.9963 14.9317 25.8901 12.8238 22.9001C10.7159 19.913 11.0116 16.4336 13.8052 15.0113C16.5962 13.589 20.4196 15.2331 24.9286 16.505C28.5582 17.5322 29.7104 17.5396 30.7426 17.8584C30.7502 17.8611 30.7604 17.8635 30.7706 17.8662C31.158 17.9529 33.5514 18.4295 35.4096 21.5236C35.1496 19.0409 35.8725 12.0408 37.7537 7.2854" stroke="#134A85" stroke-width="0.997997" stroke-linecap="round" stroke-linejoin="round"/>
<path d="M15.1779 16.6078C14.1152 16.8976 13.3564 18.5312 13.6935 20.0488C14.0578 21.6894 15.3849 23.2924 17.6767 23.8414C19.515 24.2817 22.5969 23.0488 24.0164 22.5636C25.8313 21.9431 28.4615 21.1015 28.4316 19.9887C28.3855 18.2927 24.4552 18.4633 21.5878 17.7884C18.7205 17.1134 17.0332 16.1013 15.1779 16.6078Z" stroke="#134A85" stroke-width="0.997997" stroke-linecap="round" stroke-linejoin="round" stroke-dasharray="14.57 2 2 2"/>
<path d="M32.2202 20.9083C32.2202 20.9083 32.0599 21.0486 31.7271 21.2949" stroke="#134A85" stroke-width="0.997997" stroke-linecap="round" stroke-linejoin="round"/>
<path d="M32.9752 19.6552C33.0169 19.183 32.8061 18.7894 32.6209 18.6166" stroke="#134A85" stroke-width="0.997997" stroke-linecap="round" stroke-linejoin="round"/>
<path d="M22.4981 19.3121H21.2505L20.6268 20.3926L21.2505 21.4729H22.4981L23.1219 20.3926L22.4981 19.3121Z" stroke="#134A85" stroke-width="0.997997" stroke-linecap="round" stroke-linejoin="round"/>
<path d="M18.225 18.5488H16.6032L15.7923 19.9534L16.6032 21.3579H18.225L19.0359 19.9534L18.225 18.5488Z" stroke="#134A85" stroke-width="0.997997" stroke-linecap="round" stroke-linejoin="round"/>
</svg>
