<svg width="51" height="51" viewBox="0 0 51 51" fill="none" xmlns="http://www.w3.org/2000/svg">
<g clip-path="url(#clip0_1_256)">
<path d="M17.4209 13.547H28.3885C28.9386 13.547 29.3846 13.101 29.3846 12.5509C29.3846 12.0009 28.9386 11.5548 28.3885 11.5548H24.6502C23.1385 11.5547 21.9086 10.3248 21.9086 8.81298V3.58618C21.9086 3.03614 21.4626 2.59009 20.9125 2.59009C20.3623 2.59009 19.9164 3.03614 19.9164 3.58618V8.81298C19.9164 9.83408 20.2413 10.7807 20.7933 11.5548H17.4209C16.8707 11.5548 16.4248 12.0009 16.4248 12.5509C16.4248 13.101 16.8707 13.547 17.4209 13.547Z" fill="#134A85"/>
<path d="M45.7416 29.67C45.7938 29.2785 45.8202 28.8832 45.8202 28.4883C45.8202 23.5451 41.7986 19.5236 36.8554 19.5236H36.2519C37.5456 18.257 38.3494 16.4922 38.3494 14.5431C38.3494 10.6984 35.2215 7.57046 31.3768 7.57046C29.8649 7.57046 28.6349 6.34038 28.6349 4.82861V3.58618C28.6349 3.03614 28.189 2.59009 27.6388 2.59009C27.0887 2.59009 26.6427 3.03614 26.6427 3.58618V4.82861C26.6427 7.43897 28.7664 9.56264 31.3768 9.56264C34.123 9.56264 36.3572 11.7969 36.3572 14.5431C36.3572 17.2892 34.1231 19.5235 31.377 19.5236H8.96484C8.4147 19.5236 7.96875 19.9696 7.96875 20.5197C7.96875 21.0697 8.4147 21.5158 8.96484 21.5158H36.8555C40.7002 21.5158 43.8281 24.6436 43.8281 28.4883C43.8281 28.6197 43.8243 28.7512 43.8169 28.8825C42.9347 28.626 42.0027 28.4884 41.0391 28.4884C36.5872 28.4884 32.8082 31.424 31.536 35.461H16.9336C16.3835 35.461 15.9375 35.907 15.9375 36.4571C15.9375 37.0071 16.3835 37.4532 16.9336 37.4532H20.6718C22.1836 37.4533 23.4136 38.6834 23.4136 40.1951V47.4141C23.4136 47.9641 23.8595 48.4102 24.4097 48.4102C24.9598 48.4102 25.4058 47.9641 25.4058 47.4141V40.1951C25.4058 39.174 25.0807 38.2273 24.5288 37.4532H31.1277C31.0951 37.7809 31.0782 38.1131 31.0782 38.4493C31.0782 43.9418 35.5466 48.4102 41.0392 48.4102C46.5317 48.4102 51.0001 43.9418 51.0001 38.4493C51 34.6564 48.8691 31.3519 45.7416 29.67ZM41.0391 46.418C36.6451 46.418 33.0703 42.8432 33.0703 38.4493C33.0703 34.0554 36.6451 30.4806 41.0391 30.4806C45.433 30.4806 49.0078 34.0554 49.0078 38.4493C49.0078 42.8432 45.433 46.418 41.0391 46.418Z" fill="#134A85"/>
<path d="M45.2959 40.0411H45.2952C44.745 40.0411 44.2994 40.4872 44.2994 41.0372C44.2994 41.5873 44.7457 42.0333 45.2959 42.0333C45.846 42.0333 46.292 41.5873 46.292 41.0372C46.292 40.4872 45.846 40.0411 45.2959 40.0411Z" fill="#134A85"/>
<path d="M45.9306 36.6912C45.9306 36.1411 45.4846 35.6951 44.9345 35.6951H44.9338C44.3836 35.6951 43.938 36.1411 43.938 36.6912C43.938 37.2412 44.3843 37.6873 44.9345 37.6873C45.4846 37.6873 45.9306 37.2412 45.9306 36.6912Z" fill="#134A85"/>
<path d="M40.5054 41.3741H40.5047C39.9545 41.3741 39.509 41.8202 39.509 42.3702C39.509 42.9203 39.9552 43.3663 40.5054 43.3663C41.0555 43.3663 41.5015 42.9203 41.5015 42.3702C41.5015 41.8202 41.0555 41.3741 40.5054 41.3741Z" fill="#134A85"/>
<path d="M38.6463 33.6384C36.9986 33.6384 35.6581 34.979 35.6581 36.6267C35.6581 38.2744 36.9986 39.6149 38.6463 39.6149C40.2941 39.6149 41.6346 38.2744 41.6346 36.6267C41.6346 34.979 40.2941 33.6384 38.6463 33.6384ZM38.6463 37.6227C38.0971 37.6227 37.6503 37.176 37.6503 36.6267C37.6503 36.0775 38.0971 35.6306 38.6463 35.6306C39.1956 35.6306 39.6424 36.0775 39.6424 36.6267C39.6424 37.176 39.1956 37.6227 38.6463 37.6227Z" fill="#134A85"/>
<path d="M13.9453 39.4453C11.1991 39.4453 8.96484 37.2111 8.96484 34.4648C8.96484 31.7198 11.198 29.4858 13.9429 29.4845H32.3728C32.923 29.4845 33.3689 29.0384 33.3689 28.4884C33.3689 27.9383 32.923 27.4923 32.3728 27.4923H8.96484C5.12012 27.4923 1.99219 24.3643 1.99219 20.5196C1.99219 16.8516 4.85934 13.7953 8.51949 13.5617C9.06854 13.5266 9.4852 13.0533 9.45014 12.5043C9.41508 11.9552 8.94193 11.5384 8.39269 11.5736C3.68654 11.8739 0 15.8034 0 20.5196C0 25.4628 4.02163 29.4845 8.96484 29.4845H9.07053C7.7767 30.7511 6.97266 32.516 6.97266 34.4648C6.97266 38.3096 10.1006 41.4375 13.9453 41.4375C15.4572 41.4375 16.6873 42.6676 16.6873 44.1793V47.4141C16.6873 47.9641 17.1332 48.4101 17.6834 48.4101C18.2335 48.4101 18.6794 47.9641 18.6794 47.4141V44.1793C18.6793 41.569 16.5557 39.4453 13.9453 39.4453Z" fill="#134A85"/>
<path d="M12.9389 13.547C13.489 13.547 13.9349 13.1009 13.9349 12.5509C13.9349 12.0009 13.489 11.5548 12.9389 11.5548H12.9382C12.388 11.5548 11.9425 12.0009 11.9425 12.5509C11.9425 13.1009 12.3887 13.547 12.9389 13.547Z" fill="#134A85"/>
</g>
<defs>
<clipPath id="clip0_1_256">
<rect width="51" height="51" fill="white"/>
</clipPath>
</defs>
</svg>
