<svg width="51" height="51" viewBox="0 0 51 51" fill="none" xmlns="http://www.w3.org/2000/svg">
<path d="M7.46581 11.3863C7.57878 11.3863 7.69355 11.3605 7.80125 11.3061C8.68176 10.8622 9.62927 10.6371 10.6178 10.6371H21.5564C22.2638 10.6371 22.8395 10.0616 22.8395 9.35409V0.746535C22.8395 0.334149 22.5053 0 22.0929 0C21.6805 0 21.3464 0.334149 21.3464 0.746535V9.14406H10.6178C9.39376 9.14406 8.22001 9.42297 7.12917 9.97281C6.76098 10.1585 6.61297 10.6074 6.79861 10.9755C6.9299 11.236 7.19288 11.3863 7.46581 11.3863Z" fill="#134A85"/>
<path d="M16.3028 34.9252H23.5932C24.0056 34.9252 24.3397 34.5911 24.3397 34.1787C24.3397 33.7663 24.0056 33.4321 23.5932 33.4321H16.3028C15.055 33.4321 14.0399 34.4472 14.0399 35.695C14.0399 36.9428 15.055 37.9579 16.3028 37.9579H19.1667C21.1918 37.9579 22.8393 39.6055 22.8393 41.6305V50.2534C22.8393 50.6657 23.1734 50.9999 23.5858 50.9999C23.9982 50.9999 24.3323 50.6657 24.3323 50.2534V41.6305C24.3323 38.7821 22.0151 36.4649 19.1667 36.4649H16.3028C15.8783 36.4649 15.533 36.1195 15.533 35.695C15.533 35.2706 15.8784 34.9252 16.3028 34.9252Z" fill="#134A85"/>
<path d="M14.2194 16.5267C14.2194 16.9391 14.5535 17.2732 14.9659 17.2732H29.5906C32.6882 17.2732 35.5522 19.0809 36.8869 21.8787C37.015 22.147 37.2824 22.3039 37.5611 22.3039C37.6689 22.3039 37.7784 22.2805 37.8821 22.231C38.2542 22.0534 38.412 21.6078 38.2345 21.2357C36.6533 17.9216 33.2604 15.7802 29.5906 15.7802H28.3646C29.5738 14.7019 30.3372 13.1335 30.3372 11.3897V0.746535C30.3372 0.334149 30.003 0 29.5906 0C29.1782 0 28.8441 0.334149 28.8441 0.746535V11.3897C28.8441 13.8106 26.8745 15.7802 24.4537 15.7802H14.966C14.5535 15.7802 14.2194 16.1144 14.2194 16.5267Z" fill="#134A85"/>
<path d="M18.8674 39.6925H11.8628C10.526 39.6925 9.21175 39.3352 8.06229 38.6595C7.70723 38.4508 7.24936 38.5694 7.04033 38.9247C6.8314 39.2801 6.95015 39.7377 7.3056 39.9467C8.6842 40.7572 10.2601 41.1856 11.8627 41.1856H18.8673C19.168 41.1856 19.4128 41.4302 19.4128 41.7309V50.2535C19.4128 50.6659 19.747 51 20.1593 51C20.5717 51 20.9059 50.6659 20.9059 50.2535V41.7309C20.906 40.6069 19.9915 39.6925 18.8674 39.6925Z" fill="#134A85"/>
<path d="M11.8629 24.6663H26.3287C26.741 24.6663 27.0752 24.3322 27.0752 23.9198C27.0752 23.5074 26.741 23.1733 26.3287 23.1733H10.6178C7.16161 23.1733 4.34976 20.3614 4.34976 16.9052C4.34976 15.5305 4.78693 14.2255 5.61379 13.1311C5.86234 12.8021 5.79714 12.3339 5.46817 12.0853C5.139 11.8368 4.67097 11.9022 4.42242 12.2309C3.39808 13.5868 2.85669 15.2031 2.85669 16.9053C2.85669 20.1946 4.91454 23.0104 7.8097 24.1384C4.87413 25.6242 2.85669 28.6704 2.85669 32.1794C2.85669 34.1743 3.49722 36.0654 4.70879 37.6482C4.85581 37.8403 5.07758 37.941 5.30214 37.9409C5.46041 37.9409 5.61996 37.8908 5.75534 37.7871C6.08272 37.5365 6.14503 37.068 5.89429 36.7406C4.88388 35.4205 4.34966 33.8432 4.34966 32.1793C4.34976 28.0367 7.72022 24.6663 11.8629 24.6663Z" fill="#134A85"/>
<path d="M36.9766 23.7833C30.8194 23.7833 25.8101 28.7927 25.8101 34.95C25.8101 41.1073 30.8193 46.1167 36.9766 46.1167C39.085 46.1167 41.1389 45.5253 42.9167 44.4065C43.2656 44.1869 43.3705 43.726 43.1509 43.377C42.9312 43.028 42.4704 42.9233 42.1214 43.1428C40.5822 44.1115 38.8033 44.6235 36.9766 44.6235C31.6427 44.6235 27.3031 40.2839 27.3031 34.9499C27.3031 29.6159 31.6427 25.2763 36.9766 25.2763C42.3107 25.2763 46.6503 29.6159 46.6503 34.9499C46.6503 37.2372 45.8367 39.4569 44.3593 41.2C44.0927 41.5145 44.1316 41.9856 44.4461 42.2522C44.7607 42.5188 45.2318 42.4799 45.4983 42.1654C47.204 40.1529 48.1433 37.5903 48.1433 34.9499C48.1434 28.7927 43.1341 23.7833 36.9766 23.7833Z" fill="#134A85"/>
<path d="M40.4785 30.1467C40.4785 28.6909 39.2943 27.5067 37.8385 27.5067C36.3828 27.5067 35.1985 28.6909 35.1985 30.1467C35.1985 31.6024 36.3828 32.7867 37.8385 32.7867C39.2943 32.7867 40.4785 31.6024 40.4785 30.1467ZM37.8385 31.2937C37.2061 31.2937 36.6916 30.7792 36.6916 30.1468C36.6916 29.5143 37.2061 28.9999 37.8385 28.9999C38.471 28.9999 38.9854 29.5144 38.9854 30.1468C38.9854 30.7792 38.4709 31.2937 37.8385 31.2937Z" fill="#134A85"/>
<path d="M33.946 40.1265C35.9089 40.1265 37.5059 38.5296 37.5059 36.5667C37.5059 34.6038 35.9089 33.0068 33.946 33.0068C31.9831 33.0068 30.3862 34.6038 30.3862 36.5667C30.3862 38.5296 31.9831 40.1265 33.946 40.1265ZM33.946 34.5C35.0856 34.5 36.0128 35.4271 36.0128 36.5668C36.0128 37.7063 35.0857 38.6335 33.946 38.6335C32.8065 38.6335 31.8793 37.7064 31.8793 36.5668C31.8793 35.4271 32.8065 34.5 33.946 34.5Z" fill="#134A85"/>
<path d="M40.5501 34.3779C40.6337 34.7187 40.9387 34.9468 41.2745 34.9468C41.3334 34.9468 41.3932 34.9398 41.453 34.9251C41.8533 34.8269 42.0983 34.4226 42.0001 34.0222L41.7596 33.0413C41.6614 32.641 41.2572 32.3956 40.8566 32.4942C40.4563 32.5924 40.2113 32.9966 40.3095 33.3971L40.5501 34.3779Z" fill="#134A85"/>
<path d="M41.1383 38.4804C41.1643 38.4804 41.1906 38.479 41.2172 38.4762L42.4475 38.3468C42.8575 38.3036 43.1549 37.9363 43.1119 37.5263C43.0687 37.1162 42.7022 36.8171 42.2914 36.8619L41.0611 36.9913C40.6511 37.0345 40.3537 37.4018 40.3967 37.8118C40.437 38.1954 40.761 38.4804 41.1383 38.4804Z" fill="#134A85"/>
<path d="M37.8389 41.9689C38.0124 41.9689 38.1868 41.9088 38.328 41.786L39.1684 41.0563C39.4798 40.786 39.513 40.3146 39.2427 40.0032C38.9722 39.6919 38.5007 39.6586 38.1896 39.929L37.3492 40.6587C37.0378 40.929 37.0046 41.4004 37.2749 41.7118C37.4225 41.8818 37.6301 41.9689 37.8389 41.9689Z" fill="#134A85"/>
<path d="M31.9626 30.8632C32.0326 30.8837 32.1031 30.8934 32.1724 30.8934C32.4955 30.8934 32.7933 30.682 32.8886 30.3563L33.1215 29.56C33.2373 29.1643 33.0103 28.7497 32.6146 28.6339C32.2183 28.518 31.8041 28.7452 31.6885 29.1409L31.4556 29.9372C31.34 30.3328 31.5669 30.7474 31.9626 30.8632Z" fill="#134A85"/>
</svg>
