<svg width="51" height="51" viewBox="0 0 51 51" fill="none" xmlns="http://www.w3.org/2000/svg">
<path d="M22.1859 6.00003C22.6093 6.00003 22.9999 5.60876 22.9999 5.18522C22.9999 4.76168 22.6093 4.37122 22.1859 4.37122C21.7625 4.37122 21.3711 4.76178 21.3711 5.18522C21.3711 5.60866 21.7625 6.00003 22.1859 6.00003Z" fill="#134A85"/>
<path d="M12.259 13.6142C12.259 14.0377 12.6017 14.3803 13.0251 14.3803H31.2224C31.6458 14.3803 31.9885 14.0377 31.9885 13.6142C31.9885 13.1908 31.6458 12.8481 31.2224 12.8481H13.0252C12.6017 12.848 12.259 13.1907 12.259 13.6142Z" fill="#134A85"/>
<path d="M31.2224 24.7068H13.0252C12.6018 24.7068 12.2591 25.0494 12.2591 25.4729C12.2591 25.8963 12.6018 26.239 13.0252 26.239H31.2224C31.6459 26.239 31.9885 25.8963 31.9885 25.4729C31.9886 25.0494 31.6459 24.7068 31.2224 24.7068Z" fill="#134A85"/>
<path d="M28.924 37.4543H13.0252C12.6018 37.4543 12.2591 37.797 12.2591 38.2204C12.2591 38.6439 12.6018 38.9865 13.0252 38.9865H28.924C29.3475 38.9865 29.6901 38.6439 29.6901 38.2204C29.6901 37.797 29.3475 37.4543 28.924 37.4543Z" fill="#134A85"/>
<path d="M31.2224 19.0828H20.1261C19.7027 19.0828 19.36 19.4254 19.36 19.8489C19.36 20.2723 19.7027 20.615 20.1261 20.615H31.2224C31.6459 20.615 31.9885 20.2723 31.9885 19.8489C31.9885 19.4254 31.6459 19.0828 31.2224 19.0828Z" fill="#134A85"/>
<path d="M13.097 21.3683C13.234 21.5262 13.4299 21.6213 13.6387 21.6317C13.6515 21.6325 13.6634 21.6325 13.6762 21.6325C13.8722 21.6325 14.0608 21.5577 14.2036 21.4222L16.9914 18.7774C17.2982 18.4863 17.3108 18.0008 17.0198 17.6941C16.7295 17.3881 16.2431 17.3746 15.9364 17.6657L13.7301 19.7591L13.0754 19.0034C12.7971 18.684 12.3138 18.6495 11.9943 18.9263C11.6748 19.2039 11.6404 19.6872 11.9172 20.0075L13.097 21.3683Z" fill="#134A85"/>
<path d="M28.924 31.3462H20.1261C19.7027 31.3462 19.36 31.6888 19.36 32.1123C19.36 32.5357 19.7027 32.8784 20.1261 32.8784H28.924C29.3475 32.8784 29.6901 32.5357 29.6901 32.1123C29.6901 31.6888 29.3475 31.3462 28.924 31.3462Z" fill="#134A85"/>
<path d="M13.6387 33.8953C13.6515 33.8961 13.6634 33.8961 13.6762 33.8961C13.8722 33.8961 14.0608 33.8213 14.2036 33.6858L16.9914 31.041C17.2982 30.7499 17.3108 30.2643 17.0198 29.9576C16.7295 29.6516 16.2431 29.6382 15.9364 29.9292L13.7301 32.0226L13.0754 31.267C12.7971 30.9475 12.3138 30.9131 11.9943 31.1899C11.6748 31.4675 11.6404 31.9508 11.9172 32.271L13.097 33.632C13.2339 33.7898 13.4299 33.8848 13.6387 33.8953Z" fill="#134A85"/>
<path d="M44.1787 26.7996C44.095 26.7996 44.0209 26.7255 44.0209 26.6417V26.1045H44.2804C45.0727 26.1045 45.7177 25.4603 45.7177 24.668V21.8713C45.7177 21.079 45.0727 20.4348 44.2804 20.4348H41.2294V15.2843C41.2294 14.8609 40.8867 14.5182 40.4633 14.5182C40.0399 14.5182 39.6972 14.8609 39.6972 15.2843V20.4348H37.3666V9.2001C37.3666 8.29853 36.6334 7.56531 35.7319 7.56531H29.2339C29.2315 6.48983 29.2398 5.66227 29.2275 5.23993H39.4981C39.6081 5.23993 39.6971 5.32898 39.6971 5.43895V11.4072C39.6971 11.8307 40.0398 12.1733 40.4632 12.1733C40.8866 12.1733 41.2293 11.8307 41.2293 11.4072V5.43895C41.2293 4.48429 40.4526 3.70764 39.498 3.70764H28.9049C28.2489 2.1113 26.6789 0.983521 24.8486 0.983521H19.5224C17.693 0.983521 16.1237 2.1101 15.467 3.70545H4.87596C3.92131 3.70545 3.14465 4.4821 3.14465 5.43596V45.3964C3.14465 46.351 3.92131 47.1277 4.87596 47.1277H31.4967C31.7245 48.7553 33.1136 50.0164 34.8063 50.0164H44.4983C46.3134 50.0164 47.7851 48.5994 47.8486 46.7895C47.8494 46.7805 47.8494 46.7716 47.8494 46.7633L47.8554 30.4762C47.8553 28.4559 46.2342 26.7996 44.1787 26.7996ZM32.9821 33.5683H46.3218L46.3182 43.2551H32.9821V33.5683ZM44.1787 28.3319C45.3873 28.3319 46.323 29.2996 46.323 30.4762L46.3224 32.0361H32.9821V30.4762C32.9821 29.294 33.9443 28.3319 35.1264 28.3319C36.0587 28.3319 36.8166 27.5739 36.8166 26.6417V26.1045H42.4886V26.6417C42.4886 27.5739 43.2465 28.3319 44.1787 28.3319ZM44.1854 24.5722C41.6366 24.5722 46.7418 24.5701 35.1212 24.5722V21.967H44.1854V24.5722ZM35.8343 9.2001V20.4348H35.0262C34.2339 20.4348 33.589 21.079 33.589 21.8713V24.668C33.589 25.4603 34.2339 26.1045 35.0262 26.1045H35.2843V26.6417C35.2843 26.7285 35.2132 26.7996 35.1264 26.7996C33.0989 26.7996 31.4499 28.4486 31.4499 30.4762V41.7348H8.63931C8.58243 41.7348 8.53681 41.6892 8.53681 41.633V9.2001C8.53681 9.14322 8.58243 9.0976 8.63931 9.0976H35.7318C35.7886 9.0976 35.8343 9.14322 35.8343 9.2001ZM19.5224 2.51581H24.8487C26.4214 2.51581 27.7015 3.79599 27.7015 5.36862V7.56531H16.6696V5.36862C16.6696 3.79599 17.9497 2.51581 19.5224 2.51581ZM4.67694 45.3964V5.43596C4.67694 5.32818 4.76819 5.23774 4.87596 5.23774H15.1439C15.1426 5.28157 15.1372 5.3245 15.1372 5.36862V7.56531H8.63931C7.73774 7.56531 7.00452 8.29853 7.00452 9.2001V41.633C7.00452 42.5338 7.73774 43.267 8.63931 43.267H31.4499V45.5954H4.87596C4.76221 45.5954 4.67694 45.5101 4.67694 45.3964ZM44.4982 48.4841H34.8062C33.8006 48.4841 32.9821 47.6686 32.9821 46.6661V44.7873H46.3176L46.3169 46.7476C46.2766 47.7224 45.4798 48.4841 44.4982 48.4841Z" fill="#134A85"/>
<path d="M39.6522 35.5427C38.1079 35.5427 36.8517 36.7989 36.8517 38.3431C36.8517 39.8874 38.1079 41.1436 39.6522 41.1436C41.1964 41.1436 42.4526 39.8874 42.4526 38.3431C42.4527 36.799 41.1964 35.5427 39.6522 35.5427ZM39.6522 39.6114C38.9526 39.6114 38.384 39.0428 38.384 38.3432C38.384 37.6437 38.9526 37.0751 39.6522 37.0751C40.3517 37.0751 40.9203 37.6437 40.9203 38.3432C40.9204 39.0428 40.3517 39.6114 39.6522 39.6114Z" fill="#134A85"/>
</svg>
