<svg width="51" height="51" viewBox="0 0 51 51" fill="none" xmlns="http://www.w3.org/2000/svg">
<g clip-path="url(#clip0_1_53)">
<path d="M50.0999 47.0522L45.3516 39.2886C45.1362 38.9366 44.6762 38.8258 44.3244 39.0411C43.9724 39.2564 43.8616 39.7162 44.0769 40.0682L48.8251 47.8314C49.0355 48.176 49.0432 48.592 48.8458 48.9442C48.6484 49.2959 48.2899 49.5059 47.8867 49.5059H23.088C22.6842 49.5059 22.3254 49.2958 22.128 48.9439C21.9308 48.5919 21.9388 48.1762 22.1495 47.8318L34.5488 27.5592C34.7532 27.2251 35.095 27.0336 35.4868 27.0335H35.4871C35.8791 27.0335 36.2214 27.2252 36.426 27.5592L42.2053 37.0092C42.4206 37.3612 42.8802 37.4719 43.2325 37.2567C43.5844 37.0414 43.6953 36.5815 43.48 36.2295L37.7005 26.7791C37.2249 26.0026 36.3976 25.5392 35.4872 25.5392C35.487 25.5392 35.4866 25.5392 35.4864 25.5392C34.5761 25.5394 33.7494 26.0031 33.2743 26.7796L32.7204 27.6851C32.7069 27.2708 32.7001 26.8378 32.7004 26.3817C32.7006 25.8084 32.6655 25.2363 32.5987 24.6686C34.9573 22.8483 36.356 20.0192 36.356 17.0319C36.356 15.9466 36.1779 14.8882 35.8272 13.877C37.0185 13.2504 37.8476 11.8786 37.8476 10.2898C37.8473 8.1083 36.2864 6.33575 34.3673 6.33984H33.233C32.8561 2.78747 29.8265 0 26.1859 0H22.7634C20.7949 0 18.9048 0.430512 17.1455 1.27958C16.7739 1.45888 16.6181 1.90553 16.7973 2.27707C16.9767 2.64861 17.4232 2.8047 17.7949 2.62521C19.3499 1.87465 21.0216 1.49414 22.7633 1.49414H26.1858C29.0048 1.49414 31.3585 3.61223 31.7273 6.33984H22.8037C19.6694 6.33984 17.0367 8.53493 16.3403 11.4768C15.5551 10.4627 14.4559 9.69139 13.17 9.32971C12.7714 9.21755 12.3654 9.14852 11.9582 9.11884C12.5846 7.35545 13.6357 5.76908 15.0324 4.49298C15.3371 4.21467 15.3583 3.74212 15.0801 3.43752C14.8018 3.13291 14.3293 3.1117 14.0246 3.38991C13.0727 4.2597 12.2639 5.25808 11.6153 6.3503C11.6154 6.26971 11.6152 3.54679 11.6153 3.47179C11.6154 1.55749 9.85547 0 7.69235 0C5.52924 0 3.76944 1.55749 3.76944 3.47179V12.6489C2.90194 13.4497 2.1725 14.3996 1.63162 15.4546C0.206311 18.2342 0.142063 21.454 1.45531 24.2883L4.5177 30.8981C5.47595 34.3016 7.2989 37.4529 9.79381 40.0144C9.94034 40.1647 10.1346 40.2402 10.3291 40.2402C10.517 40.2402 10.705 40.1697 10.8503 40.0283C11.1458 39.7405 11.152 39.2674 10.8642 38.972C8.61265 36.6604 6.95116 33.8336 6.04013 30.7787C8.04467 28.0726 9.99114 26.5158 11.6918 25.3481C12.044 26.8322 12.5 27.9394 13.026 28.8127C14.541 31.5421 13.0568 34.202 12.9927 34.3143C12.7853 34.671 12.9063 35.1282 13.263 35.3357C13.3811 35.4044 13.5102 35.4371 13.6378 35.4371C13.8952 35.4371 14.1457 35.304 14.2843 35.0655C14.3419 34.9664 15.2581 33.3528 15.1974 31.223C15.5056 31.4695 15.8204 31.703 16.138 31.9383C17.8191 33.1833 19.5574 34.4707 21.1012 38.394C21.2169 38.6882 21.4985 38.8678 21.7965 38.8678C21.8875 38.8678 21.9801 38.851 22.0699 38.8157C22.4538 38.6646 22.6426 38.2309 22.4915 37.847C22.0642 36.761 21.618 35.8547 21.1614 35.0851C21.7773 35.2366 22.3549 35.2924 22.8702 35.2924C24.2187 35.2924 25.1425 34.9127 25.2172 34.8809C25.5955 34.7201 25.7711 34.2847 25.6123 33.9056C25.4534 33.5264 25.0164 33.3474 24.6364 33.5043C24.5201 33.5522 21.7655 34.6465 18.9401 32.2855C18.289 31.6725 17.6437 31.1942 17.0272 30.7376C15.9907 29.9699 15.0777 29.2931 14.3376 28.0951C13.7391 27.0909 13.3724 26.104 13.0259 24.4629C15.2227 23.0307 17.0204 21.8306 17.516 18.8395C20.8466 19.872 24.6736 24.6082 25.4478 28.0137C25.5266 28.3604 25.8346 28.5954 26.1757 28.5954C26.2306 28.5954 26.2862 28.5893 26.342 28.5766C26.7443 28.4852 26.9963 28.0849 26.9048 27.6825C26.5515 26.1284 25.6823 24.3774 24.5167 22.7553C25.1691 22.8624 25.7798 22.8922 26.2538 22.8922C26.792 22.8922 27.154 22.8543 27.2012 22.849C27.6109 22.8035 27.9059 22.4348 27.861 22.0251C27.816 21.6153 27.4478 21.3192 27.0374 21.3639C27.0053 21.3674 23.8598 21.6887 22.3614 20.2515C20.8977 18.8333 19.248 17.7404 17.6485 17.3253L17.6529 13.0162C21.444 13.0337 25.0833 14.618 27.6462 17.3704C27.7934 17.5284 27.9929 17.6083 28.1932 17.6083C28.3754 17.6083 28.5581 17.542 28.7021 17.408C29.004 17.1268 29.0208 16.6542 28.7397 16.3522C27.9954 15.5529 27.1689 14.8433 26.2797 14.2295C26.6529 14.2416 34.371 14.2405 34.371 14.2405C34.6969 15.1323 34.8618 16.0695 34.8618 17.0324C34.8618 19.2877 33.9178 21.4361 32.295 22.9657C31.9951 21.7132 31.533 20.5006 30.9147 19.3673C30.7173 19.0051 30.2636 18.8715 29.9011 19.0691C29.5389 19.2666 29.4054 19.7205 29.603 20.0826C30.6526 22.007 31.207 24.1851 31.2061 26.3812C31.2051 27.7013 31.26 28.8483 31.3736 29.8873L22.2092 44.8707C19.034 44.3541 15.9953 43.0838 13.4077 41.185C13.0753 40.9409 12.6077 41.0127 12.3634 41.3453C12.1194 41.6779 12.1912 42.1454 12.5237 42.3895C15.1382 44.308 18.1814 45.6287 21.3719 46.2397L20.8749 47.0523C20.3783 47.8642 20.3596 48.8446 20.8249 49.6746C21.2901 50.5046 22.1361 51 23.088 51H47.8867C48.8378 51 49.6835 50.5047 50.1489 49.6751C50.6144 48.8451 50.5962 47.8647 50.0999 47.0522ZM36.3535 10.2899C36.3535 11.5984 35.5278 12.7421 34.4858 12.7421C33.3452 12.7421 32.4083 11.6859 32.398 10.2899C32.398 8.93885 33.281 7.83926 34.368 7.83408C35.4641 7.8297 36.3529 8.93277 36.3535 10.2899ZM7.69235 1.49414C9.0316 1.49414 10.1212 2.38136 10.1212 3.47179C10.1212 4.56231 9.0317 5.44953 7.69235 5.44953C6.35301 5.44953 5.26348 4.56231 5.26348 3.47179C5.26358 2.38136 6.35311 1.49414 7.69235 1.49414ZM5.26358 6.19521C5.93216 6.66327 6.77575 6.94367 7.69245 6.94367C8.60916 6.94367 9.45275 6.66317 10.1213 6.19521V9.26337C9.69231 9.36398 9.27226 9.5104 8.86924 9.70395L6.23587 10.9687C5.90138 11.1294 5.57745 11.31 5.26368 11.5066L5.26358 6.19521ZM12.1437 23.2544C10.2153 24.5115 7.8584 26.0478 5.37335 29.1908L2.811 23.6601C1.69248 21.2461 1.74727 18.5037 2.96121 16.1363C3.81088 14.4789 5.20361 13.122 6.88263 12.3156L9.5161 11.0509C10.1451 10.7487 10.8284 10.5954 11.5149 10.5954C11.9343 10.5954 12.3553 10.6526 12.7657 10.7681C14.7207 11.3179 16.1054 13.1202 16.133 15.1511L16.1587 17.0538C16.1572 20.638 14.7313 21.5677 12.1437 23.2544ZM17.8729 11.5245C18.5133 9.39157 20.4811 7.83398 22.8037 7.83398H31.6593C31.187 8.50883 30.9037 9.36219 30.9037 10.2898C30.9037 11.2126 31.184 12.0618 31.6518 12.7349C31.6488 12.7353 23.5629 12.7341 23.559 12.7353C21.7752 11.9802 19.8446 11.5613 17.8729 11.5245Z" fill="#134A85"/>
<path d="M35.487 42.3562C36.6377 42.3562 37.5738 41.4201 37.5738 40.2694V34.2776C37.5738 33.1269 36.6377 32.1908 35.487 32.1908C34.3363 32.1908 33.4003 33.1269 33.4003 34.2776V40.2694C33.4002 41.4201 34.3363 42.3562 35.487 42.3562ZM34.8943 34.2776C34.8943 33.9508 35.1602 33.6849 35.4869 33.6849C35.8137 33.6849 36.0796 33.9508 36.0796 34.2776V40.2694C36.0796 40.5962 35.8137 40.8621 35.4869 40.8621C35.1602 40.8621 34.8943 40.5962 34.8943 40.2694V34.2776Z" fill="#134A85"/>
<path d="M35.4871 47.9344C36.6679 47.9344 37.6287 46.9737 37.6287 45.7928C37.6287 44.612 36.6679 43.6512 35.4871 43.6512C34.3062 43.6512 33.3455 44.612 33.3455 45.7928C33.3455 46.9737 34.3061 47.9344 35.4871 47.9344ZM35.4871 45.1454C35.8441 45.1454 36.1345 45.4358 36.1345 45.7928C36.1345 46.1498 35.8441 46.4403 35.4871 46.4403C35.1301 46.4403 34.8396 46.1498 34.8396 45.7928C34.8396 45.4358 35.1301 45.1454 35.4871 45.1454Z" fill="#134A85"/>
</g>
<defs>
<clipPath id="clip0_1_53">
<rect width="51" height="51" fill="white"/>
</clipPath>
</defs>
</svg>
