<svg width="51" height="51" viewBox="0 0 51 51" fill="none" xmlns="http://www.w3.org/2000/svg">
<path d="M37.4272 27.9157C36.524 27.9157 35.6447 28.0203 34.8006 28.2174C34.4207 25.3134 33.8307 22.7439 33.0443 20.5765C32.2362 18.3493 31.2283 16.5813 30.0382 15.2896C31.4552 15.326 32.5294 15.2186 33.1502 15.1292C33.7777 15.039 34.251 14.4921 34.251 13.8573V12.3526C34.251 11.7123 33.7918 11.178 33.1593 11.0821C32.7994 11.0275 32.1515 10.9301 31.3924 10.8205C32.0089 10.4543 32.5419 10.0283 32.982 9.54927C33.3901 9.10501 33.4334 8.42577 33.0849 7.9342L32.229 6.72723C31.8791 6.23366 31.2226 6.05078 30.6683 6.29213C29.8707 6.63927 27.8077 7.44252 25.0182 7.83778C24.2904 4.00071 20.843 3.11298 19.0156 3.20094H19.0155C18.8955 3.20672 18.7744 3.21499 18.6528 3.22564C18.497 2.42378 18.1362 1.25706 17.3072 0.420035C17.1074 0.218525 16.8568 0.0867408 16.5825 0.0390277C16.0782 -0.0489277 14.7969 -0.106602 13.8014 1.25148C13.4993 1.66386 13.4583 2.21998 13.6973 2.66833C13.7895 2.84155 13.9227 3.11328 14.033 3.42466C14.2807 4.12452 14.0749 4.91831 13.5087 5.44684C13.3042 5.63779 13.1113 5.83851 12.9295 6.04769L12.9446 5.61478C12.9449 5.60612 12.945 5.59745 12.945 5.58869C12.945 4.88415 12.4966 4.2584 11.8291 4.03169C8.5146 2.9052 6.84106 4.82319 6.40706 5.43758C6.23384 5.68272 6.13174 5.97238 6.11172 6.275C5.90194 9.44548 5.30448 13.5104 5.18236 14.3217C4.89419 14.8087 3.92767 16.5364 3.13538 19.0621C2.28282 21.78 1.48445 25.9729 2.52258 30.5143C3.26248 33.7509 4.82835 36.5839 7.17694 38.9348C7.17714 38.9351 7.17734 38.9352 7.17754 38.9354C8.5934 40.3526 10.3038 41.6002 12.2611 42.6439C12.3731 42.7036 12.4934 42.7319 12.612 42.7319C12.879 42.7319 13.1374 42.5882 13.2719 42.3361C13.466 41.972 13.3281 41.5195 12.9642 41.3254C11.4018 40.4923 10.0118 39.5238 8.8219 38.4399C10.2145 37.008 10.5776 34.7865 10.7253 33.151C10.9853 30.2733 11.1422 28.5364 13.5838 26.2889C15.848 24.2049 16.8758 21.4045 16.6554 17.9456C17.2731 18.7586 17.7828 19.6538 18.1703 20.599C18.1771 20.6192 18.1854 20.6391 18.1941 20.659C18.3538 21.0546 18.4917 21.4588 18.6077 21.8693C18.9063 23.5846 18.2699 24.3437 16.8265 25.2983C14.4374 26.8781 14.6431 29.1892 14.6531 29.2868C14.6922 29.6716 15.0167 29.9584 15.3953 29.9584C15.4206 29.9584 15.4461 29.9571 15.4718 29.9545C15.8823 29.9128 16.1813 29.5462 16.1395 29.1357C16.138 29.1208 16.0069 27.6316 17.6507 26.5446C18.1305 26.2272 18.6161 25.8764 19.0316 25.4463C18.9996 26.2431 18.8968 27.0376 18.7887 27.8722C18.7361 28.2778 18.6825 28.6943 18.6372 29.1126C18.6371 29.1132 18.6369 29.1138 18.6369 29.1145C18.5537 29.7511 17.9921 30.2251 17.3419 30.7738C16.2806 31.6696 14.827 32.8963 15.7883 35.2978C15.9052 35.5899 16.1857 35.7675 16.4821 35.7675C16.5744 35.7675 16.6685 35.7502 16.7595 35.7138C17.1426 35.5605 17.3288 35.1257 17.1755 34.7426C16.64 33.4047 17.1947 32.8532 18.3056 31.9157C18.3859 31.8478 18.4674 31.7788 18.5491 31.7088C18.6018 32.5137 18.7494 33.3689 19.0762 34.186C19.1593 34.3935 19.2611 34.6028 19.3796 34.8101C18.9245 35.6037 18.5122 36.9106 19.2026 38.5694C19.3222 38.8565 19.6 39.0296 19.8926 39.0296C19.9883 39.0296 20.0857 39.0111 20.1794 38.972C20.5603 38.8134 20.7406 38.3761 20.582 37.9951C20.2748 37.257 20.2855 36.634 20.4291 36.1336C21.2445 36.8976 22.3349 37.4739 23.6285 37.5752C23.6483 37.5768 23.668 37.5775 23.6877 37.5775C24.0737 37.5775 24.401 37.2801 24.4316 36.8887C24.4639 36.4774 24.1565 36.1178 23.7451 36.0856C22.105 35.9571 20.9151 34.7602 20.4635 33.6311C19.9152 32.26 19.9879 30.668 20.0902 29.59C20.1134 29.3455 20.1412 29.098 20.171 28.8507C20.2848 28.9547 20.3985 29.0532 20.508 29.1471C21.1279 29.6793 21.6632 30.139 21.8295 31.2418C21.8854 31.612 22.204 31.8776 22.5674 31.8776C22.6044 31.8776 22.642 31.8748 22.6796 31.8691C23.0876 31.8076 23.3685 31.4271 23.307 31.0191C23.0579 29.3671 22.1838 28.6166 21.4813 28.0135C20.856 27.4765 20.4771 27.1502 20.4737 26.2906C20.5075 25.8964 20.5309 25.4991 20.5353 25.0996C20.5449 24.236 20.4627 23.3735 20.2976 22.527C20.46 22.5991 20.6219 22.6668 20.7802 22.7325C21.8337 23.1704 22.4924 23.487 22.7479 24.4375C22.8376 24.771 23.1393 24.9909 23.4689 24.9909C23.5332 24.9909 23.5984 24.9825 23.6634 24.9651C24.0618 24.858 24.298 24.4481 24.1909 24.0497C23.7317 22.3411 22.4131 21.7931 21.3535 21.3527C20.4372 20.9719 19.8601 20.7051 19.5577 20.0494C18.9668 18.6027 18.1217 17.2598 17.064 16.1102C17.2661 16.0205 17.4504 15.9194 17.6173 15.811C19.1076 16.9667 20.5561 17.3075 21.745 17.3075C22.0584 17.3075 22.3525 17.2828 22.6259 17.2442C22.6372 18.4902 23.0172 20.2898 24.816 21.6163C26.4447 22.8171 29.5478 23.5961 31.9728 22.0679C32.5789 23.9823 33.0414 26.194 33.3513 28.6596C28.9926 30.3104 25.8852 34.5277 25.8852 39.4578C25.8852 41.3633 26.3497 43.1623 27.1709 44.748C24.2934 44.7371 21.0176 44.2659 18.268 43.4569C17.5218 43.2374 16.7903 42.9934 16.0935 42.7316C15.7074 42.5865 15.2766 42.7819 15.1314 43.1682C14.9863 43.5545 15.1818 43.9852 15.568 44.1303C16.2986 44.4047 17.0651 44.6605 17.8461 44.8902C20.7587 45.7472 24.2376 46.2431 27.2779 46.2431C27.4789 46.2431 28.0073 46.2239 28.0691 46.2058C30.1676 49.1078 33.5803 50.9999 37.4272 50.9999C39.8714 50.9999 42.2071 50.2453 44.1819 48.8179C44.5163 48.5763 44.5914 48.1092 44.3497 47.7748C44.1081 47.4404 43.641 47.3652 43.3066 47.607C41.5881 48.8491 39.5551 49.5056 37.4272 49.5056C31.8867 49.5056 27.3792 44.9982 27.3792 39.4576C27.3792 33.917 31.8866 29.4096 37.4272 29.4096C42.9678 29.4096 47.4753 33.917 47.4753 39.4576C47.4753 41.5708 46.8269 43.5924 45.6004 45.3038C45.3601 45.6392 45.4371 46.1059 45.7724 46.3462C46.1079 46.5866 46.5746 46.5095 46.8149 46.1742C48.2243 44.2074 48.9694 41.8848 48.9694 39.4575C48.9693 33.0934 43.7916 27.9157 37.4272 27.9157ZM14.5281 6.53906C15.5291 5.60462 15.8876 4.18638 15.4413 2.92592C15.3188 2.58027 15.1761 2.27586 15.0645 2.05882C15.4863 1.53128 15.9449 1.45906 16.2765 1.50339C16.9468 2.20733 17.1714 3.35105 17.2372 3.81503C17.321 4.40602 17.871 4.82508 18.463 4.74878C18.6719 4.72198 18.8821 4.70335 19.0875 4.69339C19.7996 4.65953 20.8829 4.82637 21.7895 5.39823C22.7171 5.98334 23.3045 6.87993 23.5415 8.06917C22.5844 8.23303 20.7945 8.48096 19.3427 8.34459C19.2114 8.33214 19.0794 8.35495 18.9599 8.41013C18.0478 8.83108 16.5827 10.392 17.566 13.2863C17.6349 13.4889 17.609 13.7093 17.4965 13.8757C17.3992 14.0198 17.2801 14.1642 17.1347 14.2994C17.129 14.3044 17.1227 14.3092 17.1171 14.3144C17.1151 14.3163 17.1135 14.3183 17.1115 14.3202C16.4867 14.8863 15.3883 15.2784 13.4639 14.7677C13.2587 14.7132 13.0878 14.565 13.0064 14.3711C12.5622 13.3118 12.4123 12.6187 12.4123 11.6243C12.4122 9.6185 13.1637 7.81257 14.5281 6.53906ZM7.60258 6.37361C7.60447 6.34522 7.61284 6.32032 7.62748 6.2996C8.71601 4.75804 10.5922 5.18935 11.3483 5.44634C11.4072 5.46637 11.4475 5.51986 11.4506 5.58112L11.3358 8.86914C11.3355 8.8789 11.3362 8.88846 11.3362 8.89812C11.0623 9.75516 10.9182 10.6715 10.9182 11.6242C10.9182 12.326 10.986 12.9276 11.1476 13.5568C9.54098 14.4256 7.6732 14.2147 6.73687 14.023C6.94446 12.5928 7.4187 9.15272 7.60258 6.37361ZM12.5719 25.1897C9.70594 27.8277 9.50931 30.0042 9.23717 33.0166C9.11167 34.4055 8.81931 36.285 7.76106 37.3858C5.87564 35.3375 4.60452 32.9171 3.97917 30.1814C2.40962 23.3153 5.33426 17.1658 6.26223 15.4513C6.5242 15.511 6.86019 15.5751 7.24936 15.6222C8.6676 17.9837 7.90629 19.7532 6.95053 21.9718C6.16401 23.7974 5.2727 25.8665 5.71109 28.4596C5.77275 28.8243 6.08891 29.0823 6.44681 29.0823C6.48814 29.0823 6.53008 29.0789 6.57221 29.0717C6.97902 29.003 7.25305 28.6174 7.18432 28.2106C6.93051 26.7091 7.22336 25.3937 7.6739 24.1545C7.9027 24.6535 8.1071 25.2282 8.17334 25.7802C8.21886 26.1597 8.5413 26.4383 8.91424 26.4383C8.94392 26.4383 8.974 26.4365 9.00419 26.4329C9.41388 26.3837 9.70604 26.0118 9.65693 25.6022C9.49576 24.2589 8.78564 22.9769 8.40553 22.3708C8.65605 21.7879 8.90308 21.199 9.1016 20.5955C9.41279 21.1384 9.6896 21.7238 9.75524 22.1666C9.81023 22.5377 10.1292 22.8042 10.4934 22.8042C10.5298 22.8042 10.5668 22.8016 10.6038 22.7961C11.0119 22.7356 11.2937 22.3557 11.2333 21.9475C11.0458 20.6832 9.94211 19.0736 9.51937 18.4946C9.5613 17.6079 9.41537 16.6751 8.96235 15.6727C9.81551 15.6165 10.7462 15.424 11.6433 14.9816C11.9079 15.5835 12.4422 16.0421 13.0804 16.2117C13.7914 16.4004 14.4223 16.486 14.9829 16.4963C15.6212 20.2628 14.8309 23.1104 12.5719 25.1897ZM18.7031 14.7575C18.7137 14.7421 18.7245 14.7268 18.7347 14.7117C19.107 14.1604 19.1989 13.4478 18.9806 12.8054C18.3358 10.9074 19.0989 10.1061 19.4508 9.85198C21.6059 9.99791 24.1543 9.48233 24.5003 9.40942C27.664 9.0559 30.0782 8.1636 31.1078 7.7291L31.7669 8.65866C31.339 9.09246 30.8004 9.47217 30.1634 9.78883C29.6579 10.0401 29.379 10.5839 29.4692 11.1418C29.5598 11.7016 29.9976 12.1311 30.5586 12.2105C31.4525 12.337 32.2667 12.4583 32.7568 12.5323V13.6748C31.8427 13.7924 30.1242 13.9136 27.8593 13.6247C24.7746 13.2308 23.3487 14.864 22.8788 15.5845C22.8322 15.6559 22.7609 15.7058 22.6831 15.7211C21.2915 15.9957 19.9554 15.6704 18.7031 14.7575ZM28.6377 21.4187C27.5798 21.3646 26.4826 20.989 25.7027 20.4139C23.7893 19.003 24.0962 16.8159 24.201 16.2979C24.6235 15.7118 25.5721 14.8917 27.509 15.0889C27.5655 15.1254 27.622 15.162 27.6777 15.1997C29.1903 16.2223 30.4608 18.0401 31.4586 20.6056C30.4963 21.3368 29.4151 21.4583 28.6377 21.4187Z" fill="#134A85"/>
<path d="M42.9232 35.3706L41.5145 33.9619C41.2794 33.7268 40.9667 33.5972 40.6341 33.5972C40.3015 33.5972 39.9888 33.7267 39.7536 33.9618L37.4273 36.2882L35.1009 33.9618C34.6154 33.4763 33.8255 33.4763 33.34 33.9618L31.9313 35.3705C31.4458 35.856 31.4458 36.6459 31.9313 37.1314L34.2577 39.4578L31.9313 41.7842C31.4458 42.2697 31.4458 43.0596 31.9313 43.545L33.3401 44.9538C33.8257 45.4391 34.6155 45.4391 35.1009 44.9537L37.4273 42.6273L39.7537 44.9538C39.9965 45.1965 40.3153 45.3178 40.6341 45.3178C40.9529 45.3178 41.2718 45.1964 41.5144 44.9537L42.9232 43.545C43.4087 43.0595 43.4087 42.2696 42.9232 41.7842L40.5967 39.4578L42.9232 37.1314C43.4087 36.646 43.4087 35.856 42.9232 35.3706ZM39.3642 38.5774C38.8787 39.0629 38.8787 39.8528 39.3642 40.3383L41.6906 42.6647L40.6341 43.7212L38.3077 41.3948C37.8222 40.9093 37.0323 40.9093 36.5468 41.3948L34.2204 43.7213L33.164 42.6647L35.4904 40.3383C35.9759 39.8528 35.9759 39.0629 35.4904 38.5774L33.164 36.2511L34.2205 35.1945L36.5469 37.5209C37.0324 38.0064 37.8223 38.0064 38.3078 37.5209L40.6342 35.1945L41.6907 36.251L39.3642 38.5774Z" fill="#134A85"/>
</svg>
