<svg width="51" height="51" viewBox="0 0 51 51" fill="none" xmlns="http://www.w3.org/2000/svg">
<path d="M45.9349 22.8783L45.645 21.7407C44.9935 19.1818 43.7126 16.9137 42.0122 15.293C43.2474 13.258 43.8968 10.9391 43.8968 8.55346V5.83113C43.8968 5.50143 43.6289 5.23348 43.2992 5.23348H40.9524C40.6227 5.23348 40.3547 5.50143 40.3547 5.83113V8.55346C40.3547 9.52066 40.2093 10.455 39.9394 11.3346C38.9741 10.6971 38.3755 9.61728 38.3755 8.43791V2.0918C38.3755 1.76209 38.1075 1.49414 37.7778 1.49414C37.4481 1.49414 37.1802 1.76209 37.1802 2.0918V7.5235C36.5596 7.13402 35.8962 6.84814 35.198 6.66984C34.8772 6.58816 34.5525 6.78141 34.4708 7.10115C34.3891 7.4209 34.5824 7.74662 34.9021 7.8283C35.7368 8.04146 36.5138 8.44488 37.217 9.02561C37.3993 10.4679 38.246 11.7429 39.5081 12.4761C38.0587 15.6676 34.8961 17.9227 31.2016 18.0612C31.359 16.8987 31.359 15.6875 31.1727 14.3766C30.6398 10.6303 28.5281 6.48955 24.7161 1.71826C24.6025 1.57682 24.4312 1.49414 24.2489 1.49414H16.8041C16.567 1.49414 16.3529 1.63359 16.2572 1.84975C16.1616 2.0659 16.2025 2.31891 16.3618 2.49322C18.1817 4.49437 23.718 10.5845 24.3943 15.3398C24.738 17.7554 23.7528 19.6061 22.3244 21.9579L22.2726 22.0426C20.1719 25.5 18.358 28.4853 17.8301 32.8223C17.7046 33.8572 17.6617 34.9181 17.7046 36.0098C14.532 35.8763 11.7559 34.1829 10.1263 31.6778C14.5649 29.3658 14.5659 24.9442 14.5659 21.0236C14.5659 20.6152 14.5589 20.2048 14.5469 19.8033C14.536 19.4736 14.2581 19.2146 13.9304 19.2246C13.6007 19.2356 13.3417 19.5115 13.3516 19.8412C13.3636 20.2297 13.3706 20.6271 13.3706 21.0236C13.3706 21.8433 13.3616 22.6173 13.3267 23.3484C11.4859 22.0177 10.2906 19.8741 10.0735 17.4446C10.0436 17.1159 9.75374 16.8738 9.42503 16.9027C9.09632 16.9316 8.85327 17.2225 8.88316 17.5512C9.15409 20.5813 10.7668 23.2279 13.2231 24.7111C12.9253 27.3786 12.0477 29.3519 9.53759 30.6349C8.93097 29.3828 8.5903 27.9793 8.5903 26.4971V24.2698C8.5903 23.9401 8.32236 23.6722 7.99265 23.6722H5.64386C5.31415 23.6722 5.0462 23.9401 5.0462 24.2698V26.4971C5.0462 30.2404 6.63896 33.7616 9.43898 36.2498C8.14605 37.8177 7.17585 39.775 6.61904 41.9485L6.32818 43.086C6.2465 43.4058 6.43874 43.7315 6.75849 43.8132L9.03257 44.3959C9.08238 44.4088 9.13218 44.4148 9.18099 44.4148C9.44695 44.4148 9.68999 44.2355 9.75972 43.9656L10.0506 42.828C10.1074 42.6059 10.1701 42.3878 10.2378 42.1716C10.5397 42.7942 10.9361 43.2444 11.3256 43.6877C11.9701 44.4208 12.5787 45.1121 12.8466 46.7078C12.8954 46.9997 13.1484 47.2069 13.4353 47.2069C13.4682 47.2069 13.501 47.2039 13.5349 47.1989C13.8606 47.1441 14.0798 46.8363 14.025 46.5106C13.8317 45.3611 13.4761 44.5802 13.0727 43.9696C13.8806 43.8441 14.7242 43.5801 15.2741 43.2504C15.557 43.0811 15.6496 42.7135 15.4793 42.4306C15.31 42.1477 14.9424 42.0551 14.6595 42.2254C14.1395 42.5372 13.0259 42.845 12.1812 42.8529C11.5846 42.1736 11.1114 41.6088 10.961 40.3866C11.3654 39.5838 11.8495 38.8566 12.3984 38.242C14.1694 39.1076 16.1337 39.5629 18.108 39.5629H18.1169C18.6807 42.5302 19.8023 45.7157 21.4947 49.1712C21.5953 49.3764 21.8035 49.5059 22.0316 49.5059H28.3996C28.6098 49.5059 28.805 49.3953 28.9126 49.215C29.0202 49.0347 29.0252 48.8106 28.9256 48.6253L28.6676 48.1462C25.4821 42.2344 24.1602 37.493 24.6284 33.65C24.982 30.7444 26.2969 28.5929 27.8189 26.1026C27.9374 25.9084 28.057 25.7122 28.1775 25.5149C28.9993 24.1622 29.6925 22.8853 30.2185 21.6112H30.842C34.1909 21.6112 37.3396 20.3542 39.774 18.0592C40.3408 18.6409 40.8408 19.3372 41.2552 20.1161C41.2452 20.9628 41.0301 21.5455 40.7313 22.0904C40.3159 21.7079 39.8686 21.3752 39.3945 21.1003C39.1086 20.9349 38.7431 21.0315 38.5777 21.3174C38.4124 21.6033 38.509 21.9688 38.7949 22.1342C39.263 22.4051 39.7003 22.7438 40.1007 23.1403C39.6525 23.8983 39.2341 24.8037 39.258 26.2162C39.263 26.5429 39.53 26.8039 39.8557 26.8039H39.8657C40.1954 26.7979 40.4583 26.526 40.4534 26.1963C40.4314 24.8675 40.8677 24.1642 41.3727 23.3514C41.6108 22.9689 41.8618 22.5615 42.063 22.0784C42.1168 22.2557 42.1686 22.434 42.2144 22.6153L42.5043 23.7529C42.573 24.0228 42.8161 24.2031 43.083 24.2031C43.1318 24.2031 43.1816 24.1971 43.2305 24.1842L45.5045 23.6054C45.6579 23.5666 45.7904 23.468 45.8711 23.3315C45.9508 23.195 45.9737 23.0317 45.9349 22.8783ZM12.5538 36.978C12.3207 36.8535 12.0338 36.8963 11.8485 37.0846C11.0636 37.8755 10.3833 38.8576 9.8404 39.9613C9.81849 39.9971 9.80056 40.035 9.78562 40.0748C9.41706 40.8448 9.11425 41.6716 8.89312 42.5342L8.74968 43.093L7.63306 42.8071L7.7765 42.2483C8.34128 40.042 9.36228 38.0856 10.7269 36.5915C10.8385 36.47 10.8943 36.3076 10.8813 36.1433C10.8694 35.9789 10.7897 35.8275 10.6612 35.7239C7.8522 33.4488 6.24052 30.087 6.24052 26.5001V24.8705H7.393V26.5001C7.393 32.2993 12.0238 37.0368 17.7823 37.2101C17.8171 37.5916 17.8619 37.9761 17.9177 38.3655C16.051 38.3337 14.2003 37.8575 12.5538 36.978ZM27.1555 24.8934C27.036 25.0896 26.9164 25.2848 26.7989 25.4781C25.2709 27.9793 23.8266 30.342 23.4421 33.5046C22.955 37.5109 24.2509 42.3579 27.4025 48.3096H25.5926C25.1414 47.3722 24.729 46.4478 24.3684 45.5613C24.2439 45.2555 23.8953 45.1081 23.5895 45.2326C23.2837 45.3571 23.1363 45.7058 23.2608 46.0116C23.5636 46.7576 23.9023 47.5286 24.2688 48.3105H22.4071C19.5842 42.4445 18.4745 37.4222 19.0164 32.9667C19.5125 28.8867 21.1809 26.1405 23.2936 22.6641L23.3454 22.5795C24.5935 20.5255 26.007 18.1976 25.5777 15.1725C25.1175 11.9342 22.682 7.84324 18.1418 2.68945H19.7236C20.664 3.72937 21.4827 4.67865 22.2238 5.59008C22.3424 5.73551 22.5137 5.81021 22.688 5.81021C22.8205 5.81021 22.954 5.76639 23.0645 5.67574C23.3205 5.46756 23.3594 5.09104 23.1512 4.83504C22.5914 4.14674 21.9898 3.43852 21.3264 2.68846H23.961C27.5231 7.1918 29.4963 11.0726 29.9894 14.544C30.5352 18.3789 29.31 21.3473 27.1555 24.8934ZM43.5133 22.8773L43.3709 22.3195C42.7982 20.0683 41.6586 18.101 40.1615 16.7792C39.9224 16.568 39.5599 16.582 39.3377 16.8101C37.0776 19.135 34.0604 20.4149 30.841 20.4149H30.6598C30.7833 20.0334 30.8909 19.6489 30.9815 19.2615C36.8226 19.1858 41.552 14.4115 41.552 8.55346V6.42879H42.7035V8.55346C42.7035 10.8754 42.0252 13.1285 40.7422 15.0679C40.5769 15.3189 40.6227 15.6536 40.8498 15.8498C42.5571 17.3261 43.849 19.5234 44.4885 22.0356L44.631 22.5934L43.5133 22.8773ZM26.3507 11.722C25.8765 10.7708 25.2659 9.74379 24.5358 8.671C24.3505 8.39807 24.4202 8.02652 24.6932 7.84025C24.9661 7.65498 25.3376 7.72471 25.5239 7.99764C26.2849 9.11625 26.9234 10.189 27.4205 11.1891C27.5679 11.485 27.4474 11.8436 27.1515 11.99C27.0658 12.0328 26.9752 12.0527 26.8856 12.0527C26.6664 12.0527 26.4552 11.9312 26.3507 11.722ZM23.2667 42.4904C23.3644 42.8061 23.1871 43.1408 22.8713 43.2374C22.8125 43.2554 22.7538 43.2643 22.695 43.2643C22.44 43.2643 22.2029 43.099 22.1242 42.843C21.7905 41.7602 21.5206 40.6894 21.3214 39.6595C21.2586 39.3357 21.4708 39.022 21.7945 38.9592C22.1183 38.8965 22.432 39.1086 22.4948 39.4324C22.686 40.4195 22.946 41.4485 23.2667 42.4904ZM21.5076 37.0218C21.1939 37.0218 20.9309 36.7768 20.912 36.459C20.8472 35.3633 20.8662 34.2816 20.9688 33.2436C21.0016 32.9149 21.2945 32.6759 21.6222 32.7077C21.9509 32.7406 22.191 33.0325 22.1581 33.3612C22.0615 34.3363 22.0435 35.3544 22.1053 36.3883C22.1252 36.718 21.8732 37.0009 21.5445 37.0198C21.5316 37.0208 21.5196 37.0218 21.5076 37.0218ZM28.7622 15.1725C28.8897 16.071 28.8668 16.9356 28.6915 17.8141C28.6347 18.098 28.3857 18.2953 28.1058 18.2953C28.0669 18.2953 28.0281 18.2913 27.9882 18.2833C27.6645 18.2186 27.4543 17.9038 27.5191 17.5801C27.6675 16.836 27.6864 16.1029 27.5778 15.3398C27.549 15.1337 27.5091 14.9205 27.4613 14.7063C27.3896 14.3846 27.5918 14.0648 27.9145 13.9931C28.2373 13.9214 28.556 14.1236 28.6277 14.4463C28.6835 14.6914 28.7283 14.9354 28.7622 15.1725ZM23.8614 27.3159C23.3713 28.3548 22.9978 29.3439 22.7199 30.342C22.6462 30.606 22.4061 30.7793 22.1442 30.7793C22.0914 30.7793 22.0366 30.7723 21.9838 30.7574C21.666 30.6687 21.4798 30.339 21.5684 30.0213C21.8652 28.9574 22.2617 27.9056 22.7797 26.8059C22.9201 26.507 23.2767 26.3795 23.5755 26.52C23.8744 26.6604 24.0019 27.0171 23.8614 27.3159ZM27.3936 21.1072C27.1127 21.6162 26.7999 22.1342 26.53 22.5795L26.4851 22.6522C26.1494 23.204 25.8327 23.725 25.5259 24.2439C25.4143 24.4322 25.2151 24.5368 25.0109 24.5368C24.9073 24.5368 24.8027 24.5099 24.7071 24.4531C24.4232 24.2848 24.3296 23.9182 24.4979 23.6343C24.8087 23.1104 25.1275 22.5864 25.4641 22.0316L25.509 21.9589C25.7729 21.5236 26.0777 21.0186 26.3487 20.5295C26.508 20.2406 26.8716 20.136 27.1605 20.2954C27.4493 20.4548 27.5539 20.8184 27.3936 21.1072Z" fill="#134A85"/>
</svg>
