<svg width="51" height="51" viewBox="0 0 51 51" fill="none" xmlns="http://www.w3.org/2000/svg">
<g clip-path="url(#clip0_1_191)">
<path d="M29.1333 45.1363C29.0602 44.7304 28.6718 44.4606 28.2655 44.5337C27.8595 44.6068 27.5896 44.9954 27.6629 45.4015L28.5613 50.3852C28.6346 50.7913 29.023 51.061 29.4291 50.9879C29.8351 50.9148 30.105 50.5262 30.0318 50.1201L29.1333 45.1363Z" fill="#134A85"/>
<path d="M2.26472 16.328C1.86817 16.2144 1.4544 16.4441 1.34094 16.8407C0.772171 18.8286 0.329009 20.9399 0.0238057 23.1162C-0.0334697 23.5248 0.251313 23.9025 0.660011 23.9598C0.695173 23.9647 0.730136 23.9671 0.7647 23.9671C1.13126 23.9671 1.45121 23.697 1.5036 23.3236C1.79914 21.2161 2.22776 19.1732 2.77751 17.2518C2.89096 16.8552 2.66146 16.4415 2.26472 16.328Z" fill="#134A85"/>
<path d="M15.2916 3.43742L15.7405 0.876166C15.8117 0.46976 15.54 0.0824787 15.1336 0.011258C14.7264 -0.0596639 14.34 0.211871 14.2686 0.618178L13.8198 3.17953C13.5668 4.62367 12.4769 5.75473 11.0429 6.06093L8.84412 6.53039C6.61127 7.00732 4.68772 8.52706 3.69869 10.5958C3.16738 11.7069 2.68049 12.8652 2.25177 14.0384C2.11012 14.426 2.30944 14.8549 2.69692 14.9966C2.78169 15.0276 2.86825 15.0422 2.95332 15.0422C3.25812 15.0422 3.5444 14.8542 3.65507 14.5514C4.06765 13.4227 4.53591 12.3086 5.04681 11.2402C5.83741 9.58671 7.37358 8.37227 9.15629 7.99156L11.3551 7.522C13.3877 7.08791 14.9329 5.48449 15.2916 3.43742Z" fill="#134A85"/>
<path d="M8.73499 17.3117C8.75372 16.9124 8.45479 16.5692 8.05666 16.5328C7.65982 16.4964 7.30242 16.7797 7.24843 17.1758C7.01535 18.8862 7.29595 17.6573 5.70191 23.4034C5.59174 23.801 5.82452 24.2128 6.22216 24.323C6.6201 24.433 7.03148 24.2004 7.14175 23.8028L7.45701 22.6661C7.57585 23.7559 7.73642 24.8433 7.93364 25.8673C8.79695 30.3495 8.83211 34.8554 8.03813 39.26L6.08052 50.1203C6.00731 50.5263 6.27715 50.9149 6.68325 50.988C7.08856 51.0611 7.47773 50.792 7.55094 50.3853L9.50856 39.525C10.3354 34.9386 10.2992 30.2484 9.40078 25.5847C8.87823 22.8716 8.62303 19.7017 8.73499 17.3117Z" fill="#134A85"/>
<path d="M19.154 42.1022C18.9575 41.6287 18.4992 41.3228 17.9864 41.3228C17.4738 41.3228 17.0154 41.6287 16.8189 42.1022L13.5549 49.9663C13.3967 50.3473 13.5774 50.7844 13.9585 50.9426C14.3396 51.1007 14.7767 50.9201 14.9349 50.539L17.9865 43.1867L21.0381 50.539C21.1962 50.9199 21.6337 51.1009 22.0145 50.9426C22.3956 50.7844 22.5763 50.3473 22.4181 49.9663L19.154 42.1022Z" fill="#134A85"/>
<path d="M20.3447 33.671C19.5288 33.5016 18.5626 33.8607 17.9951 34.5458C17.4382 35.2179 17.3248 36.1009 17.6838 36.9683C17.8047 37.2601 17.8278 37.583 17.8523 37.9248C17.9028 38.6283 17.979 39.6915 19.2935 40.1348C19.4706 40.1944 19.6565 40.224 19.848 40.224C20.3284 40.224 20.8442 40.0382 21.3464 39.6777C22.2274 39.0448 23.1636 37.7608 23.1636 36.627C23.1637 35.1661 22.0836 34.0335 20.3447 33.671ZM20.4749 38.4639C20.1305 38.7112 19.8801 38.7561 19.771 38.7189C19.4297 38.6039 19.3936 38.5281 19.3427 37.8179C19.3137 37.4143 19.2777 36.9121 19.0644 36.3969C18.9159 36.0379 18.9424 35.7443 19.1457 35.4989C19.3516 35.2504 19.6822 35.1228 19.9252 35.1228C19.9663 35.1228 20.0048 35.1264 20.0398 35.1337C20.4221 35.2135 21.6695 35.5566 21.6695 36.6268C21.6696 37.089 21.1586 37.9727 20.4749 38.4639Z" fill="#134A85"/>
<path d="M50.2891 19.9388C49.8759 19.9088 49.5201 20.2197 49.4911 20.6313C49.0462 26.9257 43.7537 31.8588 37.4422 31.8619H37.4359C35.6906 31.8619 34.0067 31.4979 32.4314 30.78C31.3418 30.2833 30.1204 30.2382 28.9927 30.6523L25.5261 31.9257L26.7326 29.6666C27.4428 28.337 27.445 26.7436 26.7386 25.4042C25.8305 23.6824 25.3504 21.7364 25.3503 19.7764C25.3503 16.5365 26.6231 13.4905 28.9346 11.1996C31.2206 8.93384 34.2357 7.69022 37.4362 7.69022C37.4726 7.69022 37.5096 7.69032 37.5461 7.69072C43.4456 7.74311 48.4154 12.0014 49.3634 17.816C49.4298 18.2232 49.813 18.4989 50.221 18.433C50.6282 18.3666 50.9044 17.9827 50.838 17.5755C50.3288 14.4518 48.7234 11.5848 46.3176 9.503C43.8867 7.39946 40.7763 6.22518 37.5593 6.19659C37.5179 6.19629 37.4769 6.19609 37.4356 6.19609C34.9545 6.19609 32.5725 6.86108 30.4905 8.10908C29.5624 7.32735 28.4563 6.78438 27.2679 6.53058L25.0691 6.06102C23.6353 5.75482 22.5453 4.62376 22.2922 3.17964L21.8435 0.618396C21.7723 0.211992 21.3849 -0.0595416 20.9787 0.0113799C20.5723 0.0826001 20.3005 0.469779 20.3717 0.876183L20.8204 3.43752C21.1793 5.48478 22.7244 7.08809 24.7571 7.52228L26.9558 7.99184C27.7658 8.16486 28.5282 8.50622 29.1951 8.99111C28.7378 9.34263 28.2994 9.72543 27.8827 10.1385C25.2861 12.7122 23.856 16.1351 23.8561 19.7766C23.8562 21.9785 24.3959 24.1656 25.4169 26.1014C25.8917 27.0016 25.8909 28.0713 25.4147 28.963L23.688 32.196C23.4764 32.5923 23.5302 33.0675 23.8252 33.4063C24.0343 33.6465 24.3277 33.7762 24.6312 33.7762C24.7559 33.7762 24.8823 33.7543 25.005 33.7091L26.0145 33.3383C26.0401 35.4184 26.2376 37.496 26.6035 39.5253L27.1446 42.5264C27.2096 42.8876 27.5243 43.141 27.8789 43.141C27.9228 43.141 27.9676 43.1371 28.0124 43.129C28.4184 43.0559 28.6882 42.6674 28.615 42.2612L28.0739 39.2602C27.6918 37.1401 27.5009 34.9646 27.506 32.7904L29.5078 32.055C30.2642 31.7771 31.0824 31.8074 31.8118 32.1399C33.5831 32.9471 35.4753 33.3563 37.4359 33.3563H37.443C44.5347 33.3528 50.4815 27.8097 50.9816 20.7371C51.0107 20.3252 50.7007 19.9679 50.2891 19.9388Z" fill="#134A85"/>
<path d="M39.1844 28.7941C39.5971 28.7941 39.9315 28.4597 39.9315 28.047V27.173C39.9315 27.0635 40.0124 26.9715 40.1195 26.959C41.2543 26.826 42.3508 26.3931 43.2907 25.7071C45.0235 24.4422 46.0581 22.4067 46.0581 20.2625C46.0581 17.8635 44.8265 15.6993 42.7635 14.4733C41.9377 13.9824 41.0442 13.6774 40.1081 13.5667C40.0091 13.555 39.9316 13.4613 39.9316 13.3534V11.6888C39.9316 11.2762 39.5972 10.9418 39.1845 10.9418C38.7718 10.9418 38.4374 11.2762 38.4374 11.6888V13.3534C38.4374 14.22 39.0802 14.9495 39.9327 15.0504C40.6598 15.1364 41.3554 15.3744 42.0002 15.7577C43.6056 16.7117 44.5641 18.3957 44.5641 20.2625C44.5641 21.9314 43.7587 23.5157 42.4098 24.5003C41.6774 25.0348 40.8254 25.3719 39.9458 25.475C39.0859 25.5757 38.4374 26.3057 38.4374 27.1731V28.0471C38.4373 28.4597 38.7717 28.7941 39.1844 28.7941Z" fill="#134A85"/>
<path d="M35.9471 28.0471C35.9471 28.4598 36.2815 28.7942 36.6942 28.7942C37.1068 28.7942 37.4412 28.4598 37.4412 28.0471V24.0935C37.6457 24.1709 37.8518 24.243 38.0563 24.3085C39.3493 24.7222 40.722 24.4989 41.8224 23.6958C42.9318 22.886 43.568 21.6347 43.568 20.2624C43.568 18.7505 42.7916 17.3867 41.4913 16.6139C40.2383 15.8693 38.7353 15.8162 37.4412 16.4634V11.6888C37.4412 11.2762 37.1068 10.9418 36.6942 10.9418C36.2815 10.9418 35.9471 11.2762 35.9471 11.6888V16.6828C35.9471 17.1702 36.1979 17.6093 36.6179 17.8572C37.0361 18.1042 37.539 18.1118 37.9622 17.8781L38.0212 17.846C38.877 17.38 39.8888 17.3996 40.728 17.8984C41.5707 18.3991 42.0738 19.2828 42.0738 20.2623C42.0738 21.1521 41.6611 21.9635 40.9415 22.4888C40.2309 23.0077 39.3453 23.1522 38.5117 22.8853C37.8206 22.6641 37.8626 22.6571 36.8965 22.149C35.4459 21.386 33.7324 21.2754 32.1955 21.8459C31.8088 21.9895 31.6116 22.4195 31.7552 22.8063C31.8987 23.1932 32.3287 23.39 32.7155 23.2467C32.9491 23.1601 33.1881 23.0945 33.4299 23.0501C33.2638 23.3981 33.1355 23.8099 33.1031 24.2806C33.0748 24.6923 33.3855 25.0489 33.797 25.0773C33.8146 25.0785 33.8319 25.079 33.8491 25.079C34.2383 25.079 34.5665 24.7775 34.5937 24.3834C34.6354 23.7777 34.9727 23.3257 35.1903 23.0938C35.483 23.1628 35.7696 23.2627 36.0448 23.3934C35.9812 23.5522 35.9471 23.724 35.9471 23.9004V28.0471Z" fill="#134A85"/>
<path d="M40.497 19.3769C40.4378 18.9685 40.0591 18.6849 39.6506 18.7445L37.4263 19.0663C36.5527 19.1929 35.6837 18.9701 34.9786 18.4391C34.2736 17.9082 33.8193 17.1342 33.6996 16.2598L33.3302 13.5644C33.2742 13.1557 32.8983 12.8702 32.4886 12.9257C32.0798 12.9817 31.7938 13.3585 31.8499 13.7673L32.2193 16.4626C32.3935 17.7347 33.0543 18.8603 34.0799 19.6326C34.9177 20.2635 35.9151 20.5953 36.945 20.5953C37.0936 20.5953 37.2428 20.5884 37.3922 20.5745L37.9298 21.3872C38.0734 21.6046 38.3112 21.7222 38.5535 21.7222C38.6951 21.7222 38.8381 21.6821 38.965 21.5981C39.3092 21.3705 39.4036 20.907 39.1759 20.5629L39.031 20.3437L39.8647 20.2231C40.273 20.1641 40.556 19.7853 40.497 19.3769Z" fill="#134A85"/>
</g>
<defs>
<clipPath id="clip0_1_191">
<rect width="51" height="51" fill="white"/>
</clipPath>
</defs>
</svg>
