<svg width="51" height="51" viewBox="0 0 51 51" fill="none" xmlns="http://www.w3.org/2000/svg">
<path d="M12.6309 20.7567H14.9004" stroke="#134A85" stroke-width="1.49414" stroke-miterlimit="10" stroke-linecap="round" stroke-linejoin="round"/>
<path d="M12.6309 27.8793H14.9004" stroke="#134A85" stroke-width="1.49414" stroke-miterlimit="10" stroke-linecap="round" stroke-linejoin="round"/>
<path d="M34.694 20.9756L33.803 21.7295C33.4717 22.0098 31.4685 22.4237 31.1002 22.4237C30.4215 22.4237 29.8714 21.8736 29.8714 21.1949V20.6132C29.8714 19.2671 28.7801 18.1758 27.4339 18.1758H10.9813C10.2864 18.1758 9.68844 18.7098 9.65577 19.4039C9.6209 20.145 10.2114 20.7568 10.9448 20.7568H12.6306V27.8793H10.9813C10.2864 27.8793 9.68854 28.4133 9.65577 29.1074C9.6209 29.8485 10.2114 30.4603 10.9448 30.4603H27.4338C28.78 30.4603 29.8713 29.369 29.8713 28.0229V25.9061C29.8713 25.2274 30.4214 24.6773 31.1001 24.6773L34.0272 24.8184C34.6516 24.8184 35.1579 25.3246 35.1579 25.9491C35.1579 26.655 35.7301 27.2273 36.436 27.2273C37.142 27.2273 37.7142 26.655 37.7142 25.9491V22.3764C37.7142 21.363 36.8927 20.5414 35.8792 20.5414C35.4452 20.5414 35.0253 20.6952 34.694 20.9756Z" stroke="#134A85" stroke-width="1.49414" stroke-miterlimit="10" stroke-linecap="round" stroke-linejoin="round"/>
<path d="M12.6309 3.9823H14.9004" stroke="#134A85" stroke-width="1.49414" stroke-miterlimit="10" stroke-linecap="round" stroke-linejoin="round"/>
<path d="M12.6309 11.1049H14.9004" stroke="#134A85" stroke-width="1.49414" stroke-miterlimit="10" stroke-linecap="round" stroke-linejoin="round"/>
<path d="M34.6632 4.11702L33.7464 4.89278C33.4055 5.18124 31.4685 5.64931 31.1001 5.64931C30.4214 5.64931 29.8713 5.09917 29.8713 4.42053V3.83881C29.8713 2.49269 28.78 1.40137 27.4338 1.40137H10.9813C10.2864 1.40137 9.68844 1.93537 9.65577 2.62945C9.6209 3.37054 10.2114 3.98235 10.9448 3.98235H12.6306V11.1049H10.9813C10.2864 11.1049 9.68854 11.6389 9.65577 12.333C9.6209 13.0741 10.2114 13.6859 10.9448 13.6859H27.4338C28.78 13.6859 29.8713 12.5946 29.8713 11.2485V9.13155C29.8713 8.45291 30.4214 7.90277 31.1001 7.90277L33.9771 8.07091C34.6196 8.07091 35.1405 8.59177 35.1405 9.23435C35.1405 9.9607 35.7293 10.5495 36.4557 10.5495C37.182 10.5495 37.7708 9.9607 37.7708 9.23435V5.55837C37.7708 4.51565 36.9255 3.67027 35.8827 3.67027C35.4362 3.67027 35.0041 3.82855 34.6632 4.11702Z" stroke="#134A85" stroke-width="1.49414" stroke-miterlimit="10" stroke-linecap="round" stroke-linejoin="round"/>
<path d="M13.9412 39.8003L16.5953 39.2505" stroke="#134A85" stroke-width="1.49414" stroke-miterlimit="10" stroke-linecap="round" stroke-linejoin="round"/>
<path d="M15.3857 46.7748L17.8049 46.2738" stroke="#134A85" stroke-width="1.49414" stroke-miterlimit="10" stroke-linecap="round" stroke-linejoin="round"/>
<path d="M36.0359 35.6237L35.3629 36.4832C35.1127 36.8029 32.7258 37.6121 32.365 37.6868C31.7004 37.8245 31.0501 37.3973 30.9125 36.7327L30.7945 36.1631C30.5215 34.8449 29.2316 33.9977 27.9134 34.2707L11.8028 37.6075C11.1224 37.7485 10.6451 38.3926 10.754 39.0789C10.8702 39.8117 11.5725 40.291 12.2906 40.1423L13.9413 39.8004L15.3859 46.775L13.7708 47.1094C13.0904 47.2504 12.6132 47.8946 12.7219 48.5809C12.838 49.3136 13.5404 49.7929 14.2585 49.6442L30.4049 46.2999C31.7231 46.0269 32.5703 44.7369 32.2972 43.4188L31.8679 41.346C31.7303 40.6815 32.1574 40.0312 32.822 39.8935L36.1542 39.2697C36.7262 39.1513 37.2858 39.5188 37.4042 40.0908C37.5381 40.7372 38.1708 41.1528 38.8173 41.0189C39.4637 40.8851 39.8793 40.2523 39.7454 39.6059L39.0677 36.3339C38.8754 35.4057 37.9672 34.8092 37.039 35.0014C36.6416 35.0835 36.2861 35.304 36.0359 35.6237Z" stroke="#134A85" stroke-width="1.49414" stroke-miterlimit="10" stroke-linecap="round" stroke-linejoin="round"/>
<path d="M12.9418 30.4603C12.9418 30.4603 12.8834 30.8562 12.8869 31.5628C12.894 33.0476 14.194 34.1955 15.6685 34.019L20.91 33.3916" stroke="#134A85" stroke-width="1.49414" stroke-miterlimit="10" stroke-linecap="round" stroke-linejoin="round"/>
<path d="M12.6309 13.6858V14.6202C12.6309 15.3202 13.1982 15.8876 13.8982 15.8876H25.5867" stroke="#134A85" stroke-width="1.49414" stroke-miterlimit="10" stroke-linecap="round" stroke-linejoin="round"/>
<path d="M32.916 1.9989V5.25673" stroke="#134A85" stroke-width="1.49414" stroke-miterlimit="10" stroke-linecap="round" stroke-linejoin="round"/>
<path d="M32.916 10.4368V21.8531" stroke="#134A85" stroke-width="1.49414" stroke-miterlimit="10" stroke-linecap="round" stroke-linejoin="round"/>
<path d="M35.296 41.6984C35.296 41.6984 35.5427 44.0664 37.4187 47.8892" stroke="#134A85" stroke-width="1.49414" stroke-miterlimit="10" stroke-linecap="round" stroke-linejoin="round"/>
<path d="M40.376 26.7224L42.7007 23.6646" stroke="#134A85" stroke-width="1.49414" stroke-miterlimit="10" stroke-linecap="round" stroke-linejoin="round"/>
<path d="M40.376 32.7216L43.4337 35.0464" stroke="#134A85" stroke-width="1.49414" stroke-miterlimit="10" stroke-linecap="round" stroke-linejoin="round"/>
<path d="M41.9365 29.7631H45.0722" stroke="#134A85" stroke-width="1.49414" stroke-miterlimit="10" stroke-linecap="round" stroke-linejoin="round"/>
<path d="M34.6217 36.8622C34.7133 36.4597 34.9386 36.0962 35.2708 35.851C36.5739 34.8892 37.4191 33.4423 37.4191 31.6985C37.4191 29.5768 36.168 27.7473 34.3633 26.9075" stroke="#134A85" stroke-width="1.49414" stroke-miterlimit="10" stroke-linecap="round" stroke-linejoin="round"/>
<path d="M26.2383 34.6174L29.202 33.9775C30.0028 33.8045 30.8334 33.7883 31.6333 33.9653C31.8592 34.0153 32.0976 34.0324 32.343 34.0112C33.4746 33.9137 34.3812 32.9848 34.4539 31.8513C34.5404 30.4998 33.4699 29.3767 32.1371 29.3767C31.7237 29.3767 31.3356 29.4849 30.9994 29.6743C30.1256 30.167 29.1538 30.4602 28.1508 30.4602H26.3635" stroke="#134A85" stroke-width="1.49414" stroke-miterlimit="10" stroke-linecap="round" stroke-linejoin="round"/>
</svg>
