<svg width="51" height="51" viewBox="0 0 51 51" fill="none" xmlns="http://www.w3.org/2000/svg">
<path d="M41.3459 41.4036C40.9016 39.782 40.0191 38.3237 38.7949 37.1862C38.1165 36.5566 37.3386 36.0257 36.469 35.5924C36.5756 35.0406 36.5278 34.4648 36.3206 33.926C35.9919 33.0723 35.3055 32.4179 34.436 32.132C34.4101 32.124 34.3842 32.118 34.3593 32.1101C34.0286 29.0949 32.3471 26.3019 29.6667 24.5975C27.7532 23.3803 26.3666 22.0635 25.3964 20.5305L26.3885 20.7486C27.4374 20.9797 28.5192 20.6749 29.2822 19.9348C30.6727 18.5861 31.4158 16.9704 31.5543 14.9962L32.1629 14.7601C32.5613 14.6057 32.8621 14.283 32.9886 13.8746C33.1151 13.4672 33.0504 13.0299 32.8113 12.6773L32.2077 11.7878C31.7575 11.1244 31.5662 10.3215 31.6678 9.52564L31.9089 7.65199C32.1429 5.83213 31.618 3.99932 30.4675 2.57988C30.4247 2.50717 30.3699 2.44143 30.3062 2.38564C30.3022 2.38166 30.2992 2.37668 30.2952 2.3727C29.0232 0.928359 27.1904 0.0996094 25.2649 0.0996094H20.5693C17.7882 0.0996094 15.3379 1.77404 14.3278 4.36588C14.035 5.11594 13.8467 5.89688 13.759 6.68578C11.0865 6.8601 8.96484 9.08836 8.96484 11.8037C8.96484 14.6326 11.2658 16.9336 14.0947 16.9336C15.041 16.9336 15.9265 16.6746 16.6886 16.2264L16.6666 16.3818C16.323 18.8401 16.1208 21.3433 16.065 23.8256C15.7313 24.4083 15.5391 25.0816 15.5391 25.7998V33.5863C15.5391 36.8057 16.4684 39.8995 18.1966 42.5462C18.1548 44.8182 17.3739 47.0634 15.8937 48.8913L15.3179 49.6025C15.041 49.9441 15.0938 50.4462 15.4355 50.7231C15.5829 50.8426 15.7602 50.9004 15.9365 50.9004C16.1686 50.9004 16.3987 50.7998 16.5561 50.6045L17.1318 49.8933C18.4377 48.2797 19.2704 46.3851 19.6121 44.4108C19.7635 44.5842 19.9189 44.7545 20.0783 44.9218L25.5478 50.6534C25.8516 50.9721 26.3566 50.9841 26.6744 50.6803C26.9931 50.3764 27.0051 49.8724 26.7013 49.5537L21.2317 43.8221C18.5891 41.051 17.1328 37.4153 17.1328 33.5853V25.7988C17.1328 24.481 18.2056 23.4082 19.5234 23.4082C20.8413 23.4082 21.9141 24.481 21.9141 25.7988V36.0128C21.9141 38.1514 22.6542 40.2452 23.9969 41.9087L31.0174 50.6045C31.1747 50.7998 31.4048 50.9014 31.6379 50.9014C31.8132 50.9014 31.9905 50.8436 32.138 50.7241C32.4806 50.4472 32.5334 49.9461 32.2575 49.6035L25.237 40.9076C24.1214 39.526 23.5078 37.7878 23.5078 36.0128V25.7988C23.5078 25.5946 23.4919 25.3944 23.463 25.1982C24.9621 25.7699 26.4513 26.0538 27.9613 26.0538C28.2801 26.0538 28.5998 26.0409 28.9216 26.016C31.0612 27.4215 32.4248 29.6547 32.7506 32.0772C32.125 32.2336 31.5483 32.5852 31.1269 33.1042L30.5402 33.8263C29.9017 34.6133 29.6975 35.6612 29.9934 36.6304C30.2902 37.5995 31.0453 38.3536 32.0145 38.6484L32.1639 38.6943C32.4607 38.7849 32.7615 38.8277 33.0574 38.8277C34.1252 38.8277 35.1332 38.2629 35.687 37.2908L35.8215 37.0547C37.8476 38.0837 39.2312 39.7202 39.8079 41.827C40.5589 44.5692 39.7362 47.7328 37.8077 49.5208C37.485 49.8196 37.4661 50.3246 37.7649 50.6474C37.9223 50.8167 38.1354 50.9024 38.3496 50.9024C38.5438 50.9024 38.7381 50.8317 38.8915 50.6902C41.2751 48.4789 42.2613 44.7475 41.3459 41.4036ZM15.813 4.94461C16.583 2.96936 18.4496 1.69336 20.5693 1.69336H25.2649C26.6176 1.69336 27.9105 2.23225 28.8638 3.17953C28.2781 4.50832 26.9981 5.26137 25.4233 5.16574C24.6703 5.12092 23.982 5.61299 23.7857 6.33715C23.4869 7.44182 22.8882 8.4927 21.9579 9.54955C20.9339 8.82738 20.0344 9.03955 19.4597 9.34635C18.5004 9.85834 17.9426 10.9182 18.0383 12.0458C18.0871 12.6225 18.2166 13.0678 18.4327 13.4014C18.2713 13.6017 18.0482 13.764 17.7484 13.9045L16.4176 11.731C15.1745 9.69996 14.9484 7.16291 15.813 4.94461ZM10.5586 11.8037C10.5586 9.98086 11.9452 8.47576 13.7192 8.2875C13.8108 9.78562 14.2611 11.2598 15.0579 12.5627L16.2881 14.5729C15.6845 15.052 14.9225 15.3398 14.0947 15.3398C12.1454 15.3398 10.5586 13.7531 10.5586 11.8037ZM17.7155 22.2497C17.8072 20.3612 17.9835 18.4686 18.2445 16.6019L18.2893 16.2821C18.3301 15.9903 18.3321 15.6954 18.2982 15.4056C18.7017 15.2323 19.1429 14.9763 19.5195 14.5758C20.1131 15.0111 20.8174 15.2631 21.6451 15.3359C21.669 15.3379 21.6929 15.3388 21.7158 15.3388C22.1242 15.3388 22.4719 15.0261 22.5087 14.6117C22.5476 14.1734 22.2229 13.7869 21.7846 13.7481C20.9259 13.6724 20.3283 13.3327 19.8551 12.6524C19.8302 12.6145 19.8043 12.5787 19.7764 12.5428C19.7725 12.5378 19.6679 12.4034 19.626 11.9103C19.5842 11.4182 19.8133 10.964 20.2097 10.7518C20.4468 10.6253 20.6789 10.5945 21.0455 10.8554C21.7059 11.3256 22.6113 11.218 23.1512 10.6064C24.2499 9.36029 24.9611 8.09924 25.3297 6.75551C27.2462 6.87006 28.9066 6.06023 29.8818 4.61988C30.2932 5.49246 30.4546 6.47162 30.3291 7.4468L30.088 9.32045C29.9356 10.5018 30.2205 11.6951 30.8889 12.6803L31.3521 13.3636L30.9138 13.5339C30.3759 13.7431 30.0053 14.2531 29.9675 14.8348C29.8659 16.4226 29.2792 17.7155 28.1725 18.7893C27.794 19.1559 27.2551 19.3063 26.7312 19.1907L22.8833 18.3441C22.4539 18.2494 22.0286 18.5214 21.934 18.9507C21.8394 19.38 22.1113 19.8053 22.5406 19.9L23.3295 20.0733C24.0965 21.6959 25.1842 23.1004 26.6744 24.3724C25.2221 24.1911 23.7738 23.705 22.2956 22.9032C22.2737 22.8912 22.2507 22.8803 22.2278 22.8703C21.5146 22.2169 20.5654 21.8145 19.5234 21.8145C18.873 21.8145 18.2584 21.9718 17.7155 22.2497ZM34.7398 35.7329L34.3025 36.4999C33.9658 37.0905 33.2775 37.3645 32.6271 37.1672L32.4776 37.1214C32.0095 36.979 31.6598 36.6294 31.5164 36.1622C31.373 35.695 31.4686 35.2089 31.7764 34.8294L32.3631 34.1072C32.641 33.7646 33.0604 33.5743 33.4887 33.5743C33.6391 33.5743 33.7895 33.5972 33.9369 33.6461C34.3503 33.7825 34.676 34.0933 34.8324 34.4987C34.9888 34.9051 34.9549 35.3554 34.7398 35.7329Z" fill="#134A85"/>
</svg>
