<svg width="51" height="51" viewBox="0 0 51 51" fill="none" xmlns="http://www.w3.org/2000/svg">
<path fill-rule="evenodd" clip-rule="evenodd" d="M35.4652 25.7951C32.721 28.1651 30.1632 29.2506 27.8248 29.1457C25.3133 29.033 23.0012 27.5658 20.9415 24.6789C20.7553 24.4179 20.7702 24.0638 20.9776 23.8194C22.317 22.2416 23.7013 21.1528 25.1213 20.5392C24.4306 18.9171 24.1964 16.9119 24.4632 14.5393C24.4994 14.2176 24.7513 13.9627 25.0725 13.9228C26.8232 13.7053 28.3647 13.7607 29.6964 14.0788C30.0943 11.461 31.7253 8.95151 34.6273 6.57911C34.8778 6.37421 35.2362 6.36791 35.4939 6.56371C38.5747 8.90521 40.3319 11.479 40.811 14.1787C42.2345 13.7663 43.9136 13.6733 45.8477 13.9136C46.1688 13.9535 46.4208 14.2084 46.457 14.53C46.724 16.9046 46.4892 18.9112 45.7971 20.5341C47.2213 21.1467 48.6096 22.2371 49.9527 23.8194C50.1602 24.0638 50.1751 24.4179 49.9889 24.6789C47.9291 27.5658 45.6171 29.033 43.1055 29.1457C40.7672 29.2506 38.2094 28.1651 35.4652 25.7951ZM33.9698 24.3402C31.9586 22.432 30.0319 21.4193 28.157 21.3456C26.1514 21.2668 24.2495 22.2847 22.4094 24.3102C24.0729 26.483 25.8825 27.6571 27.8876 27.7471C29.9084 27.8377 32.0807 26.846 34.4411 24.8297C34.2799 24.6662 34.1228 24.503 33.9698 24.3402ZM26.4584 20.1038C27.0378 19.9756 27.6225 19.9235 28.2119 19.9467C29.1844 19.9849 30.1774 20.2314 31.188 20.6926C30.1593 18.9237 29.6363 17.2027 29.6017 15.5369C29.6015 15.5243 29.6012 15.5116 29.601 15.4989C28.5037 15.1997 27.2364 15.1215 25.801 15.2522C25.6504 17.1605 25.866 18.7836 26.4584 20.1038ZM36.5064 24.8444C38.8602 26.8509 41.0268 27.8375 43.0428 27.7471C45.0478 27.6571 46.8575 26.483 48.521 24.3101C46.6808 22.2847 44.7789 21.2668 42.7734 21.3456C40.9291 21.4181 39.0349 22.399 37.0594 24.2471C36.8813 24.446 36.697 24.6451 36.5064 24.8444ZM36.0512 23.2757C38.4234 20.62 39.6046 18.0251 39.5437 15.5319C39.4782 12.8523 37.9659 10.3339 35.0862 8.02151C32.3405 10.3891 30.9466 12.8692 31.0014 15.5078C31.0534 18.0122 32.3907 20.6175 34.9682 23.3598C35.1335 23.5167 35.2992 23.6792 35.4652 23.8473C35.661 23.649 35.8563 23.4585 36.0512 23.2757ZM40.9452 15.6023C40.9663 17.2833 40.5057 19.0183 39.5491 20.7834C40.6264 20.2636 41.684 19.9873 42.7184 19.9467C43.3034 19.9237 43.8837 19.9748 44.4589 20.1009C45.0535 18.7796 45.27 17.1543 45.1191 15.2429C43.5171 15.0969 42.1248 15.211 40.9452 15.6023ZM13.5495 43.554C13.6719 43.8479 13.7942 44.1418 13.9165 44.4357L13.9168 44.4364C14.1393 44.9744 14.1397 45.5164 13.92 46.0574L13.9188 46.0603C13.6964 46.5941 13.3129 46.979 12.7733 47.2062L12.7715 47.2069L9.44802 48.5847C8.37202 49.0341 7.12602 48.5186 6.67972 47.4434C4.80472 42.9379 2.92692 38.4325 1.05192 33.927C0.825024 33.3902 0.824324 32.8453 1.04792 32.3044C1.27102 31.7649 1.65662 31.3797 2.19252 31.1564L5.51942 29.7756C6.59482 29.3292 7.83672 29.8401 8.28742 30.9162L8.28782 30.9169C8.39502 31.1745 8.50222 31.4322 8.60942 31.6898C10.2592 30.91 11.9066 30.1252 13.5464 29.3231C15.7346 28.2526 17.4589 27.5395 19.4681 27.811C20.7814 27.9885 22.2275 28.5878 24.0075 29.8353L30.1568 31.4825C31.2018 31.7624 32.0209 32.4772 32.4717 33.3802L41.1116 30.8456C44.7724 29.7717 46.7981 30.5412 47.6881 31.7441C48.2764 32.5392 48.4281 33.5692 48.2079 34.587C47.8967 36.0255 46.8352 37.4225 45.3873 37.9812L32.4095 42.9821C30.2407 43.8167 27.344 44.9895 25.0165 44.3137L18.1025 42.308L18.1014 42.3077C17.2694 42.0648 16.4711 42.1323 15.6907 42.5124L13.5495 43.554ZM12.6229 44.9718C12.4169 44.4767 7.19592 31.9377 6.99542 31.4561C6.84242 31.0913 6.42122 30.9174 6.05632 31.0689L2.73052 32.4492C2.54852 32.525 2.41782 32.6562 2.34192 32.8395C2.26702 33.0206 2.26592 33.2031 2.34312 33.3851L2.34412 33.3873C4.21932 37.8933 6.09732 42.3993 7.97262 46.9056L7.97272 46.9059C8.12382 47.2698 8.54522 47.4447 8.91032 47.2918L12.2329 45.9144L12.2341 45.9138C12.417 45.8362 12.5486 45.706 12.6256 45.5232C12.6988 45.3398 12.6986 45.1551 12.6229 44.9718ZM13.0105 42.259L15.0776 41.2535C16.1834 40.7149 17.3147 40.6193 18.4927 40.9632L25.4067 42.9689C26.3876 43.2537 27.4854 43.1169 28.567 42.8398C29.7475 42.5372 30.9091 42.0591 31.9063 41.6753L44.8833 36.6748C45.895 36.2844 46.6218 35.296 46.8393 34.2909C46.9715 33.6795 46.9158 33.0546 46.5625 32.577C46.2624 32.1714 45.7552 31.8903 45.0266 31.7782C44.1492 31.6433 42.9921 31.7533 41.5058 32.1893L32.8465 34.7296C32.8774 35.1279 32.8426 35.5374 32.7338 35.9437C32.2156 37.8786 30.2065 39.0392 28.2727 38.518L19.9401 36.2867C19.5668 36.1868 19.3449 35.8026 19.4449 35.4293C19.5448 35.056 19.929 34.8341 20.3023 34.9341L28.6349 37.1653L28.636 37.1656C29.8265 37.4865 31.0623 36.7719 31.3812 35.5814C31.7001 34.3905 30.9855 33.1541 29.7946 32.8352L23.5247 31.1556C23.4444 31.1341 23.3685 31.0984 23.3007 31.0503C21.7128 29.9233 20.4435 29.3558 19.2806 29.1987C17.5375 28.9631 16.0601 29.6523 14.1618 30.581C12.4965 31.3955 10.8235 32.1923 9.14822 32.984C10.4353 36.0756 11.7232 39.1672 13.0105 42.259ZM13.2249 2.25281C18.2986 2.25281 22.4178 6.37201 22.4178 11.4457C22.4178 16.5194 18.2986 20.6386 13.2249 20.6386C8.15122 20.6386 4.03202 16.5194 4.03202 11.4457C4.03202 6.37201 8.15122 2.25281 13.2249 2.25281ZM13.2249 3.65281C8.92392 3.65281 5.43202 7.14471 5.43202 11.4457C5.43202 15.7467 8.92392 19.2386 13.2249 19.2386C17.5259 19.2386 21.0178 15.7467 21.0178 11.4457C21.0178 7.14471 17.5259 3.65281 13.2249 3.65281ZM10.6583 8.87911V6.34661C10.6583 5.96001 10.9717 5.64661 11.3583 5.64661H15.0915C15.4781 5.64661 15.7915 5.96001 15.7915 6.34661V8.87911H18.324C18.7106 8.87911 19.024 9.19251 19.024 9.57911V13.3123C19.024 13.6989 18.7106 14.0123 18.324 14.0123H15.7915V16.5448C15.7915 16.9314 15.4781 17.2448 15.0915 17.2448H11.3583C10.9717 17.2448 10.6583 16.9314 10.6583 16.5448V14.0123H8.12582C7.73922 14.0123 7.42582 13.6989 7.42582 13.3123V9.57911C7.42582 9.19251 7.73922 8.87911 8.12582 8.87911H10.6583ZM11.3583 10.2791H8.82582V12.6123H11.3583C11.7449 12.6123 12.0583 12.9257 12.0583 13.3123V15.8448H14.3915V13.3123C14.3915 12.9257 14.7049 12.6123 15.0915 12.6123H17.624V10.2791H15.0915C14.7049 10.2791 14.3915 9.96571 14.3915 9.57911V7.04661H12.0583V9.57911C12.0583 9.96571 11.7449 10.2791 11.3583 10.2791Z" fill="#134A85"/>
</svg>
