<svg width="51" height="51" viewBox="0 0 51 51" fill="none" xmlns="http://www.w3.org/2000/svg">
<g clip-path="url(#clip0_1_362)">
<path d="M14.2835 44.4241C12.2912 43.925 10.8808 42.1808 10.7928 40.1421C11.3343 39.8657 11.8042 39.4535 12.1472 38.9459C12.3795 38.602 12.2891 38.1349 11.9453 37.9025C11.6013 37.6702 11.1342 37.7605 10.9018 38.1044C10.5177 38.6787 9.84816 39.0352 9.15911 39.031C8.1815 39.031 7.31901 38.3393 7.1084 37.386C6.96231 36.7457 7.13896 36.0482 7.5713 35.5545C7.84323 35.241 7.80957 34.7664 7.49615 34.4944C7.18284 34.2225 6.70801 34.2563 6.43608 34.5696C5.95223 35.1273 5.65445 35.8185 5.57669 36.5475C4.1986 35.9623 3.24252 34.5855 3.24252 33.0354C3.24252 32.5088 3.35224 31.9949 3.55924 31.5188C4.17024 31.8019 4.81811 31.9885 5.49503 32.0722C5.89903 32.1248 6.28388 31.8321 6.33308 31.4186C6.38398 31.0068 6.0914 30.6316 5.6795 30.5807C4.95608 30.4904 4.27174 30.2519 3.65303 29.8655C2.60227 29.2153 1.82725 28.2097 1.47085 27.034C1.35042 26.6369 0.930493 26.4127 0.533616 26.5329C0.136438 26.6534 -0.0879014 27.073 0.0325345 27.4702C0.424803 28.7639 1.20704 29.8986 2.26611 30.7278C1.92003 31.4443 1.73958 32.23 1.73958 33.0354C1.73958 35.4824 3.44792 37.6209 5.7858 38.1971C6.32155 39.6252 7.75927 40.602 9.31351 40.5308C9.55869 43.0919 11.3832 45.247 13.9181 45.8822C14.31 45.9837 14.7304 45.7416 14.8297 45.3358C14.9307 44.9331 14.6861 44.525 14.2835 44.4241Z" fill="#134A85"/>
<path d="M7.50387 25.7166C7.34826 25.7166 7.19065 25.7062 7.03224 25.6846C6.62104 25.6287 6.24229 25.9167 6.18638 26.328C6.13047 26.7392 6.41844 27.1179 6.82974 27.1738C7.05669 27.2047 7.28203 27.2197 7.50497 27.2197C8.73408 27.2197 9.88543 26.7633 10.7711 25.9938C11.5074 26.4458 12.0772 27.1427 12.2404 28.0042C12.3131 28.3601 12.6263 28.6055 12.976 28.6055C13.0258 28.6055 13.0764 28.6005 13.1271 28.5902C13.5338 28.5071 13.7961 28.1103 13.7131 27.7036C13.4755 26.5183 12.7595 25.4995 11.7483 24.8434C12.1017 24.2699 12.344 23.6159 12.4405 22.9066C12.5413 22.1653 12.4779 21.4305 12.252 20.7223C12.1258 20.327 11.7031 20.1088 11.3077 20.2347C10.9123 20.3609 10.694 20.7837 10.8202 21.1791C10.9777 21.6727 11.0218 22.1859 10.9513 22.7041C10.7141 24.4479 9.21712 25.7168 7.50387 25.7166Z" fill="#134A85"/>
<path d="M14.7616 16.3964C13.7108 15.9147 12.5173 15.8967 11.4511 16.3425C11.0681 16.5024 10.8872 16.9424 11.047 17.3255C11.2069 17.7087 11.6474 17.8894 12.03 17.7296C12.6802 17.4583 13.3971 17.4564 14.0486 17.7243C14.7002 17.9922 15.2084 18.4978 15.4797 19.1479C15.6323 19.5137 15.7001 19.8979 15.6809 20.2897C15.6607 20.7042 15.9804 21.0566 16.3949 21.0769C16.8056 21.0981 17.1629 20.778 17.1821 20.3629C17.2121 19.7462 17.1061 19.1427 16.8667 18.5692C16.6599 18.0734 16.3648 17.6319 15.9992 17.26L16.0109 17.2462C16.9077 16.1816 17.1319 14.7222 16.5958 13.4375C16.436 13.0546 15.9958 12.8737 15.6129 13.0333C15.2298 13.1932 15.049 13.6332 15.2087 14.0162C15.5533 14.8297 15.363 15.7568 14.7616 16.3964Z" fill="#134A85"/>
<path d="M16.5508 37.494C15.3558 36.9562 14.6983 35.7248 14.7435 34.4372C14.8601 34.4033 14.9762 34.3664 15.0914 34.3242C16.3882 33.8482 17.422 32.8957 18.0025 31.642C18.1768 31.2654 18.0129 30.8187 17.6363 30.6443C17.2596 30.4699 16.813 30.6339 16.6386 31.0105C16.2269 31.8998 15.4935 32.5755 14.5736 32.9132C13.6536 33.251 12.6573 33.2102 11.7679 32.7984C11.2679 32.5668 10.8373 32.2366 10.4884 31.8163C10.2231 31.4971 9.74941 31.4533 9.43008 31.7185C9.11086 31.9837 9.06707 32.4575 9.33229 32.7768C9.82516 33.3701 10.4322 33.8361 11.1364 34.1621C11.81 34.474 12.5272 34.6337 13.2479 34.642C13.246 36.4497 14.2708 38.1013 15.9195 38.8575C16.0217 38.9049 16.129 38.9273 16.2347 38.9273C16.5185 38.9273 16.7901 38.7658 16.9171 38.4912C17.0915 38.1149 16.9275 37.6683 16.5508 37.494Z" fill="#134A85"/>
<path d="M50.9978 44.7361C50.9624 43.7553 50.5164 42.8244 49.7742 42.1821L45.924 38.8506C46.0289 38.4276 45.9179 37.9614 45.588 37.6312L44.2969 36.3403C44.0543 36.0975 43.7316 35.9639 43.3886 35.9639C43.169 35.9639 42.9581 36.0192 42.771 36.1221L41.2951 34.8449C42.1685 33.4277 42.7517 31.8064 42.9573 30.0581C43.0058 29.646 42.711 29.2724 42.2988 29.2241C41.8868 29.1751 41.5132 29.4703 41.4648 29.8825C40.8571 35.0501 36.4681 38.9469 31.2556 38.9469C25.5866 38.9469 20.9744 34.3349 20.9744 28.6659C20.9744 22.9969 25.5866 18.3847 31.2556 18.3847C36.1285 18.3847 40.3659 21.8451 41.3312 26.6126C41.4135 27.0194 41.8102 27.2822 42.2169 27.2C42.6237 27.1177 42.8867 26.7212 42.8042 26.3144C42.3318 23.9809 41.1754 21.9209 39.571 20.3259C39.6989 19.866 39.7643 19.3895 39.7643 18.9056C39.7643 16.8985 38.624 15.0711 36.8684 14.1717C36.8878 14.0201 36.8976 13.8675 36.8976 13.7145C36.8976 11.7733 35.355 10.1857 33.4313 10.1131C33.074 7.59048 30.9389 5.63154 28.339 5.54928C27.5531 3.75777 25.7916 2.58978 23.793 2.58978C22.6747 2.58978 21.618 2.9546 20.7522 3.62882C19.8871 2.9545 18.8307 2.58978 17.7121 2.58978C15.7133 2.58978 13.9518 3.75777 13.1661 5.54928C10.5661 5.63154 8.43098 7.59048 8.07358 10.1131C6.14981 10.1858 4.60729 11.7733 4.60729 13.7145C4.60729 13.8679 4.617 14.0206 4.63634 14.1717C2.8802 15.0711 1.73967 16.8984 1.73967 18.9056C1.73967 19.4916 1.83355 20.0622 2.01922 20.6087C1.12847 21.3824 0.449642 22.3939 0.0813201 23.5095C-0.0488348 23.9036 0.165184 24.3286 0.559256 24.4587C0.63751 24.4846 0.716865 24.4968 0.795018 24.4968C1.11044 24.4968 1.40421 24.2966 1.50852 23.9808C1.84027 22.9764 2.49946 22.0807 3.36475 21.4586C3.36906 21.4555 3.37287 21.4518 3.37708 21.4487C3.96262 21.0311 4.63404 20.7436 5.33732 20.6064C5.63189 21.3788 6.2458 22.025 7.08133 22.3306C7.1665 22.3617 7.25367 22.3764 7.33944 22.3764C7.64594 22.3764 7.9338 22.1875 8.04522 21.8829C8.1878 21.4931 7.98741 21.0616 7.59764 20.919C6.84627 20.6442 6.45851 19.8094 6.73325 19.0582C6.8083 18.8532 6.92422 18.6728 7.07803 18.5218C7.37421 18.231 7.37861 17.7553 7.08784 17.4591C6.79718 17.1629 6.32134 17.1586 6.02516 17.4492C5.57368 17.8885 5.27048 18.4851 5.1763 19.1076C4.53444 19.2198 3.91132 19.4281 3.33089 19.7236C3.27237 19.457 3.24271 19.1838 3.24271 18.9056C3.24271 17.3046 4.25419 15.8632 5.75964 15.3189C6.14309 15.1802 6.34599 14.7613 6.21704 14.3745C6.1462 14.1621 6.11033 13.9399 6.11033 13.7144C6.11033 12.5559 7.05288 11.6133 8.21145 11.6133C8.35172 11.6133 8.49019 11.6271 8.62295 11.6541C8.62546 11.6546 8.62806 11.6547 8.63057 11.6552C9.31711 11.794 9.88663 12.2643 10.1545 12.9141C10.274 13.2042 10.5541 13.3794 10.8495 13.3794C10.9449 13.3794 11.042 13.3611 11.1356 13.3225C11.5193 13.1644 11.7021 12.725 11.544 12.3414C11.1691 11.4322 10.4493 10.7279 9.55668 10.3699C9.77731 8.66599 11.1266 7.31203 12.8283 7.08429C12.8165 7.75139 12.9605 8.4184 13.2523 9.02078C12.7965 9.51344 12.5238 10.1416 12.4773 10.8206C12.4458 11.2529 12.7947 11.6254 13.2278 11.6235C13.6193 11.6235 13.9496 11.32 13.9767 10.9234C14.0032 10.5368 14.1787 10.1836 14.4708 9.92886C14.7629 9.67426 15.1362 9.54831 15.5234 9.57507C15.7409 9.58989 15.9466 9.65111 16.1346 9.75672C16.4963 9.96032 16.9546 9.83177 17.1579 9.47006C17.3612 9.10835 17.2329 8.65005 16.8711 8.44676C16.487 8.23073 16.068 8.10589 15.626 8.07563C15.2507 8.05028 14.8817 8.09577 14.5336 8.20558C14.3168 7.67434 14.2688 7.07898 14.4063 6.51688C14.8614 5.06613 16.1876 4.09253 17.712 4.09253C18.5664 4.09253 19.3683 4.39873 20.0004 4.95892V12.8356C20.0004 13.2507 20.3369 13.587 20.7519 13.587C21.1669 13.587 21.5034 13.2507 21.5034 12.8356V4.95912C22.1363 4.39863 22.9386 4.09243 23.7929 4.09243C25.316 4.09243 26.6411 5.06443 27.0974 6.51317L27.0984 6.51708C27.2359 7.07817 27.1879 7.67374 26.971 8.20528C26.6229 8.09537 26.2539 8.04988 25.8787 8.07543C25.4365 8.10569 25.0176 8.23053 24.6334 8.44656C24.2717 8.64985 24.1433 9.10815 24.3467 9.46986C24.5501 9.83167 25.0082 9.96002 25.37 9.75652C25.5579 9.65081 25.7636 9.58969 25.9813 9.57486C26.3679 9.54791 26.7416 9.67406 27.0337 9.92866C27.3258 10.1834 27.5012 10.5364 27.5278 10.9232C27.5549 11.3198 27.8851 11.6233 28.2767 11.6233C28.294 11.6233 28.3114 11.6227 28.329 11.6215C28.743 11.5931 29.0557 11.2345 29.0273 10.8204C28.9808 10.1414 28.7081 9.51334 28.2524 9.02068C28.5443 8.4183 28.6883 7.75109 28.6764 7.08399C30.3765 7.31143 31.7247 8.66328 31.9474 10.3699C31.0551 10.728 30.3355 11.4322 29.9608 12.3412C29.8026 12.7249 29.9855 13.1642 30.3691 13.3223C30.4629 13.361 30.5598 13.3792 30.6552 13.3792C30.9505 13.3792 31.2307 13.204 31.3503 12.9139C31.6181 12.2643 32.1874 11.7941 32.8736 11.6551C32.8764 11.6546 32.8793 11.6544 32.8821 11.6539C33.0149 11.6268 33.1535 11.6131 33.2937 11.6131C34.4521 11.6131 35.3948 12.5556 35.3948 13.7142C35.3948 13.9376 35.3587 14.1604 35.2874 14.3764C35.1599 14.7625 35.3628 15.1801 35.7454 15.3185C37.2503 15.8629 38.2614 17.3043 38.2614 18.9053C38.2614 19.0014 38.2576 19.0971 38.2505 19.1922C36.2757 17.7338 33.8441 16.8814 31.2557 16.8814C29.9872 16.8814 28.7653 17.0837 27.6195 17.4563C26.592 16.5715 26.1019 15.1802 26.3442 13.8456C26.4099 13.4358 26.1309 13.0503 25.7211 12.9846C25.3111 12.919 24.9259 13.1979 24.8602 13.6077C24.5789 15.2054 25.0532 16.8592 26.1078 18.0669C24.247 18.9744 22.659 20.3576 21.5035 22.0575V16.3424C21.5035 15.9273 21.167 15.5909 20.752 15.5909C20.337 15.5909 20.0005 15.9273 20.0005 16.3424V25.1417C19.6322 25.885 18.5555 26.1503 17.7854 25.9321C17.2403 25.7808 16.7866 25.4263 16.5082 24.934C16.3039 24.5727 15.8455 24.4457 15.4841 24.6498C15.1229 24.8541 14.9956 25.3126 15.1999 25.6739C15.6761 26.5157 16.4516 27.1217 17.3835 27.3803C18.0994 27.5796 18.8519 27.5553 19.5502 27.3074C19.4988 27.7532 19.4714 28.2063 19.4714 28.6656C19.4714 29.8822 19.6568 31.0564 20.0007 32.1614V40.4841C19.8124 42.0903 18.7803 43.4972 17.3004 44.1603C16.9217 44.33 16.7523 44.7747 16.922 45.1534C17.0916 45.5322 17.5363 45.7012 17.9151 45.5319C19.1278 44.9884 20.114 44.068 20.749 42.941C21.8034 44.82 23.813 46.0656 26.0934 46.0656C29.3124 46.0656 31.9575 43.5695 32.1993 40.4114C34.1004 40.2602 35.8832 39.6569 37.4327 38.703L38.7122 40.1817C38.4453 40.6694 38.5172 41.2946 38.9297 41.7071L40.2207 42.998C40.4634 43.2408 40.7861 43.3745 41.1291 43.3745C41.2357 43.3745 41.3398 43.36 41.4407 43.335L44.7718 47.1845C45.4408 47.9587 46.4289 48.4111 47.4523 48.4102C48.3888 48.4102 49.2972 48.0357 49.9614 47.3716C50.6554 46.6777 51.0331 45.7171 50.9978 44.7361ZM26.0933 44.563C23.7466 44.563 21.7804 42.8152 21.5036 40.4916V35.2743C23.526 38.2492 26.8728 40.2546 30.6893 40.4359C30.441 42.7527 28.4747 44.563 26.0933 44.563ZM38.6654 37.8311C39.31 37.3102 39.8987 36.7219 40.4214 36.0766L41.6664 37.1538L39.7434 39.0768L38.6654 37.8311ZM41.129 41.7812L40.1467 40.7989L43.3885 37.5573L44.3708 38.5396L41.129 41.7812ZM48.8984 46.309C48.4926 46.715 47.9524 46.9267 47.38 46.9063C46.8063 46.8857 46.2837 46.6353 45.9082 46.2013L42.6268 42.4091L44.9986 40.0373L48.7908 43.3188C49.2248 43.6942 49.4752 44.2169 49.4958 44.7904C49.5165 45.3639 49.3043 45.9033 48.8984 46.309Z" fill="#134A85"/>
<path d="M31.2556 20.1669C26.5691 20.1669 22.7563 23.9797 22.7563 28.6661C22.7563 33.3525 26.5691 37.1653 31.2556 37.1653C35.9421 37.1653 39.7548 33.3525 39.7548 28.6661C39.7549 23.9797 35.9422 20.1669 31.2556 20.1669ZM31.2556 35.6624C27.3978 35.6624 24.2593 32.5239 24.2593 28.6661C24.2593 24.8084 27.3978 21.6698 31.2556 21.6698C35.1134 21.6698 38.2519 24.8084 38.2519 28.6661C38.2519 32.5239 35.1134 35.6624 31.2556 35.6624Z" fill="#134A85"/>
<path d="M31.2556 24.5586C30.8405 24.5586 30.5042 24.895 30.5042 25.3101V29.3166C30.5042 29.7318 30.8405 30.0681 31.2556 30.0681C31.6707 30.0681 32.0071 29.7318 32.0071 29.3166V25.3101C32.0071 24.8951 31.6707 24.5586 31.2556 24.5586Z" fill="#134A85"/>
<path d="M31.2555 32.9784C31.6706 32.9784 32.0071 32.6419 32.0071 32.2268C32.0071 31.8117 31.6706 31.4753 31.2555 31.4753C30.8404 31.4753 30.5039 31.8117 30.5039 32.2268C30.5039 32.6419 30.8404 32.9784 31.2555 32.9784Z" fill="#134A85"/>
</g>
<defs>
<clipPath id="clip0_1_362">
<rect width="51" height="51" fill="white"/>
</clipPath>
</defs>
</svg>
