<svg width="51" height="51" viewBox="0 0 51 51" fill="none" xmlns="http://www.w3.org/2000/svg">
<g clip-path="url(#clip0_1_27)">
<path d="M48.45 35.7H46.75V34.85C46.75 33.4417 45.6083 32.3 44.2 32.3H41.1443C40.1352 32.2986 39.1779 32.747 38.5331 33.5232L35.8131 36.788C35.4914 37.1757 35.0138 37.4 34.51 37.4H17.85C17.3806 37.4 17 37.0195 17 36.55V35.5436C18.0152 35.1847 18.6955 34.2268 18.7 33.15V23.8H19.55C21.4278 23.8 22.95 22.2778 22.95 20.4V13.6C22.95 13.1306 23.3306 12.75 23.8 12.75C24.2694 12.75 24.65 13.1306 24.65 13.6V30.6C24.65 33.4167 26.9333 35.7 29.75 35.7C32.5667 35.7 34.85 33.4167 34.85 30.6V30.515C36.8319 30.0375 38.4508 28.6135 39.1774 26.7087C39.1842 26.6943 39.1927 26.6798 39.1986 26.6645C39.7 25.4906 39.9557 24.2265 39.95 22.95C40.0043 20.6584 39.1307 18.442 37.5275 16.8037C38.3968 16.441 38.9954 15.6287 39.0844 14.691C39.1734 13.7533 38.7381 12.8429 37.9525 12.3233C40.3579 10.6051 41.3777 7.52975 40.4756 4.71474C39.5735 1.89973 36.956 -0.0100098 34 -0.0100098C31.044 -0.0100098 28.4265 1.89973 27.5244 4.71474C26.6223 7.52975 27.6421 10.6051 30.0475 12.3233C29.2619 12.8429 28.8267 13.7533 28.9156 14.691C29.0046 15.6287 29.6032 16.441 30.4725 16.8037C28.8693 18.442 27.9957 20.6584 28.05 22.95C28.0446 24.2256 28.3003 25.4889 28.8014 26.662C28.8074 26.6773 28.8159 26.6917 28.8227 26.7062C29.5485 28.6119 31.1676 30.037 33.15 30.515V30.6C33.15 32.4778 31.6278 34 29.75 34C27.8722 34 26.35 32.4778 26.35 30.6V13.6C26.35 12.1917 25.2083 11.05 23.8 11.05C22.3917 11.05 21.25 12.1917 21.25 13.6V20.4C21.25 21.3389 20.4889 22.1 19.55 22.1H18.7V16.15C18.6955 15.0733 18.0152 14.1153 17 13.7564V7.65002C17 3.42504 13.575 2.04807e-05 9.35 2.04807e-05C5.12502 2.04807e-05 1.7 3.42504 1.7 7.65002V13.7564C0.684802 14.1153 0.00446368 15.0733 0 16.15V33.15C0.00446368 34.2268 0.684802 35.1847 1.7 35.5436V39.95C1.70609 45.1114 5.88866 49.2939 11.05 49.3H34.9282C35.2638 49.2996 35.5919 49.399 35.8709 49.5856L37.1357 50.4288C37.6938 50.802 38.3504 51.0008 39.0218 51H46.6591C47.9277 51.0162 49.0257 50.121 49.2652 48.875C49.3616 48.2924 49.2541 47.6944 48.9609 47.1818C49.5721 46.8042 49.9923 46.1829 50.1152 45.475C50.2116 44.8924 50.1041 44.2944 49.8109 43.7818C50.4221 43.4042 50.8423 42.7829 50.9652 42.075C51.0887 41.3332 50.8794 40.5746 50.3931 40.001L50.3498 39.95C51.02 39.2006 51.1874 38.1273 50.7771 37.2094C50.3668 36.2915 49.4554 35.7004 48.45 35.7ZM28.9765 7.65002H29.75C30.2194 7.65002 30.6 7.26946 30.6 6.80002C30.6 6.33058 30.2194 5.95002 29.75 5.95002H28.9765C29.1041 5.19296 29.402 4.47478 29.8478 3.84967L30.3935 4.39537C30.6069 4.61633 30.9229 4.70495 31.2201 4.62716C31.5173 4.54938 31.7494 4.31729 31.8271 4.0201C31.9049 3.72292 31.8163 3.40688 31.5954 3.19347L31.0497 2.64777C31.6748 2.20206 32.3929 1.90415 33.15 1.77652V2.55002C33.15 3.01946 33.5306 3.40002 34 3.40002C34.4694 3.40002 34.85 3.01946 34.85 2.55002V1.77652C35.6071 1.90415 36.3252 2.20206 36.9504 2.64777L36.4047 3.19347C36.1837 3.40688 36.0951 3.72292 36.1729 4.0201C36.2506 4.31729 36.4827 4.54938 36.7799 4.62716C37.0771 4.70495 37.3931 4.61633 37.6066 4.39537L38.1523 3.84967C38.598 4.47478 38.8959 5.19296 39.0235 5.95002H38.25C37.7806 5.95002 37.4 6.33058 37.4 6.80002C37.4 7.26946 37.7806 7.65002 38.25 7.65002H39.0235C38.8959 8.40708 38.598 9.12526 38.1523 9.75037L37.6066 9.20467C37.273 8.88255 36.7429 8.88715 36.415 9.21503C36.0871 9.5429 36.0825 10.073 36.4047 10.4066L36.9504 10.9523C35.1864 12.216 32.8136 12.216 31.0497 10.9523L31.5954 10.4066C31.9175 10.073 31.9129 9.5429 31.585 9.21503C31.2571 8.88715 30.727 8.88255 30.3935 9.20467L29.8478 9.75037C29.402 9.12526 29.1041 8.40708 28.9765 7.65002ZM31.45 15.3C30.9806 15.3 30.6 14.9195 30.6 14.45C30.6 13.9806 30.9806 13.6 31.45 13.6H36.55C37.0194 13.6 37.4 13.9806 37.4 14.45C37.4 14.9195 37.0194 15.3 36.55 15.3H31.45ZM31.0318 27.2H32.3C32.7694 27.2 33.15 26.8195 33.15 26.35C33.15 25.8806 32.7694 25.5 32.3 25.5H30.1657C29.9798 24.9489 29.8566 24.3787 29.7985 23.8H32.3C32.7694 23.8 33.15 23.4195 33.15 22.95C33.15 22.4806 32.7694 22.1 32.3 22.1H29.7985C29.8566 21.5214 29.9798 20.9511 30.1657 20.4H32.3C32.7694 20.4 33.15 20.0195 33.15 19.55C33.15 19.0806 32.7694 18.7 32.3 18.7H31.0318C31.6497 17.6472 32.7792 17.0004 34 17.0004C35.2208 17.0004 36.3503 17.6472 36.9682 18.7H35.7C35.2306 18.7 34.85 19.0806 34.85 19.55C34.85 20.0195 35.2306 20.4 35.7 20.4H37.8344C38.0202 20.9511 38.1434 21.5214 38.2016 22.1H35.7C35.2306 22.1 34.85 22.4806 34.85 22.95C34.85 23.4195 35.2306 23.8 35.7 23.8H38.2016C38.1434 24.3787 38.0202 24.9489 37.8344 25.5H35.7C35.2306 25.5 34.85 25.8806 34.85 26.35C34.85 26.8195 35.2306 27.2 35.7 27.2H36.9682C36.3503 28.2529 35.2208 28.8996 34 28.8996C32.7792 28.8996 31.6497 28.2529 31.0318 27.2ZM9.35 1.70002C12.6345 1.70377 15.2963 4.36548 15.3 7.65002V13.6H3.4V7.65002C3.40375 4.36548 6.06546 1.70377 9.35 1.70002ZM1.7 16.15C1.7 15.6806 2.08056 15.3 2.55 15.3H16.15C16.6194 15.3 17 15.6806 17 16.15V33.15C17 33.6195 16.6194 34 16.15 34H2.55C2.08056 34 1.7 33.6195 1.7 33.15V16.15ZM48.45 40.8C48.7017 40.7997 48.9406 40.9108 49.1023 41.1036C49.2641 41.2964 49.3321 41.551 49.2881 41.7988C49.1837 42.2231 48.7958 42.5159 48.3591 42.5H47.6C47.1306 42.5 46.75 42.8806 46.75 43.35C46.75 43.8195 47.1306 44.2 47.6 44.2C47.8517 44.1997 48.0906 44.3108 48.2523 44.5036C48.4141 44.6964 48.4821 44.951 48.4381 45.1988C48.3337 45.6231 47.9458 45.9159 47.5091 45.9H46.75C46.2806 45.9 45.9 46.2806 45.9 46.75C45.9 47.2195 46.2806 47.6 46.75 47.6C47.0017 47.5997 47.2406 47.7108 47.4023 47.9036C47.5641 48.0964 47.6321 48.351 47.5881 48.5988C47.4837 49.0231 47.0958 49.3159 46.6591 49.3H39.0218C38.6862 49.3005 38.3581 49.2011 38.0792 49.0144L36.8144 48.1712C36.2562 47.798 35.5996 47.5992 34.9282 47.6H11.05C6.82716 47.5949 3.40515 44.1729 3.4 39.95V35.7H15.3V36.55C15.3 37.9583 16.4417 39.1 17.85 39.1H34.51C35.5191 39.1014 36.4763 38.653 37.1212 37.8769L39.8412 34.612C40.1629 34.2243 40.6405 34 41.1443 34H44.2C44.6694 34 45.05 34.3806 45.05 34.85V35.7H42.5C42.0306 35.7 41.65 36.0806 41.65 36.55C41.65 37.0195 42.0306 37.4 42.5 37.4H48.45C48.9194 37.4 49.3 37.7806 49.3 38.25C49.3 38.7195 48.9194 39.1 48.45 39.1C47.9806 39.1 47.6 39.4806 47.6 39.95C47.6 40.4195 47.9806 40.8 48.45 40.8Z" fill="#134A85"/>
<path d="M34 7.65031C34.2254 7.65026 34.4416 7.56068 34.6009 7.40126L35.4509 6.55126C35.6719 6.33785 35.7605 6.02181 35.6827 5.72463C35.6049 5.42744 35.3729 5.19536 35.0757 5.11757C34.7785 5.03978 34.4625 5.1284 34.249 5.34936L33.399 6.19936C33.156 6.44246 33.0833 6.80799 33.2149 7.12557C33.3464 7.44314 33.6563 7.65024 34 7.65031Z" fill="#134A85"/>
<path d="M4.25002 32.3002C4.71947 32.3002 5.10002 31.9197 5.10002 31.4502V17.8502C5.10002 17.3808 4.71947 17.0002 4.25002 17.0002C3.78058 17.0002 3.40002 17.3808 3.40002 17.8502V31.4502C3.40002 31.9197 3.78058 32.3002 4.25002 32.3002Z" fill="#134A85"/>
<path d="M14.45 32.3002C14.9194 32.3002 15.3 31.9197 15.3 31.4502V17.8502C15.3 17.3808 14.9194 17.0002 14.45 17.0002C13.9805 17.0002 13.6 17.3808 13.6 17.8502V31.4502C13.6 31.9197 13.9805 32.3002 14.45 32.3002Z" fill="#134A85"/>
<path d="M7.65005 23.8002H11.05C11.5195 23.8002 11.9 23.4197 11.9 22.9502C11.9 22.4808 11.5195 22.1002 11.05 22.1002H7.65005C7.18061 22.1002 6.80005 22.4808 6.80005 22.9502C6.80005 23.4197 7.18061 23.8002 7.65005 23.8002Z" fill="#134A85"/>
<path d="M10.2 25.5002H8.50002C8.03058 25.5002 7.65002 25.8808 7.65002 26.3502C7.65002 26.8197 8.03058 27.2002 8.50002 27.2002H10.2C10.6695 27.2002 11.05 26.8197 11.05 26.3502C11.05 25.8808 10.6695 25.5002 10.2 25.5002Z" fill="#134A85"/>
</g>
<defs>
<clipPath id="clip0_1_27">
<rect width="51" height="51" fill="white"/>
</clipPath>
</defs>
</svg>
