<svg width="51" height="51" viewBox="0 0 51 51" fill="none" xmlns="http://www.w3.org/2000/svg">
<path d="M23.5392 29.5556C37.762 24.3002 38.2582 13.25 38.2582 13.25" stroke="#134A85" stroke-width="1.8" stroke-miterlimit="10" stroke-linecap="round" stroke-linejoin="round"/>
<path d="M38.057 34.7101H40.9742C40.9742 34.7101 39.6666 31.7039 39.6666 31.1828C39.6666 30.6618 43.1385 30.4012 43.2688 29.8801C43.3991 29.3591 39.2758 25.8419 39.1455 24.6695C39.0152 23.4971 40.0574 20.8918 40.0574 20.8918C40.9166 17.7414 39.5976 15.017 38.258 13.2498" stroke="#134A85" stroke-width="1.8" stroke-miterlimit="10" stroke-linecap="round" stroke-linejoin="round"/>
<path d="M25.4884 40.9399C28.224 41.5912 36.5868 42.9068 37.3684 42.6463C38.15 42.3857 37.8895 39.2594 37.8895 38.7383C37.8895 38.2173 39.5449 37.2 39.5449 37.2" stroke="#134A85" stroke-width="1.8" stroke-miterlimit="10" stroke-linecap="round" stroke-linejoin="round"/>
<path d="M29.122 41.6399C29.122 41.6399 27.617 44.2713 27.0959 48.57" stroke="#134A85" stroke-width="1.8" stroke-miterlimit="10" stroke-linecap="round" stroke-linejoin="round"/>
<path d="M18.5106 48.57V31.3331C18.5106 27.9541 20.2752 24.8019 23.1909 23.0939C23.2697 23.0478 23.3497 23.0017 23.4312 22.9556" stroke="#134A85" stroke-width="1.8" stroke-miterlimit="10" stroke-linecap="round" stroke-linejoin="round"/>
<path d="M6.27344 48.5701L6.41588 21.554C6.41588 10.9811 14.9869 2.41016 25.5597 2.41016C36.1325 2.41016 44.7035 10.9811 44.7035 21.554" stroke="#134A85" stroke-width="1.8" stroke-miterlimit="10" stroke-linecap="round" stroke-linejoin="round"/>
<path d="M27.1715 33.8699H27.2732" stroke="#134A85" stroke-width="1.8" stroke-miterlimit="10" stroke-linecap="round" stroke-linejoin="round"/>
<path d="M33.6403 33.8699H33.742" stroke="#134A85" stroke-width="1.8" stroke-miterlimit="10" stroke-linecap="round" stroke-linejoin="round"/>
<path d="M30.4059 36.6506H30.5076" stroke="#134A85" stroke-width="1.8" stroke-miterlimit="10" stroke-linecap="round" stroke-linejoin="round"/>
<path d="M30.4059 31.0894H30.5076" stroke="#134A85" stroke-width="1.8" stroke-miterlimit="10" stroke-linecap="round" stroke-linejoin="round"/>
</svg>
