<svg width="51" height="51" viewBox="0 0 51 51" fill="none" xmlns="http://www.w3.org/2000/svg">
<g clip-path="url(#clip0_1_491)">
<path d="M28.0295 24.2008H36.295V26.7891H28.0295V24.2008Z" fill="#134A85" stroke="white" stroke-width="0.4"/>
<path d="M43.3945 7.60482L43.395 7.60532C59.2685 23.4223 47.9147 50.8336 25.5054 50.7949L25.5009 50.7949C11.9074 51.0767 -0.0755097 39.0916 0.204839 25.4994L0.204889 25.4994L0.204881 25.4949C0.16466 3.08597 27.5757 -8.26826 43.3945 7.60482ZM4.38468 27.0941L4.38468 27.0942H4.39229H9.57499H9.77499V26.8942V24.0957V23.8957H9.57499H4.39229V23.8955L4.38475 23.8958C2.27602 23.9754 2.27341 27.0137 4.38468 27.0941ZM12.5634 23.8958H12.3634V24.0958V26.8943V27.0943H12.5634H15.1367L20.8336 29.1454L21.1013 29.2418V28.9572V22.0324V21.7477L20.8335 21.8442L15.1394 23.8958H12.5634ZM23.8896 21.2H23.6896V21.4V29.5901V29.7901H23.8896H40.4352H40.6352V29.5901V21.4V21.2H40.4352H23.8896ZM43.4234 21.2H43.2234V21.4V29.5901V29.7901H43.4234H43.9215V29.7902L43.9291 29.7899C49.6073 29.5757 49.6128 21.4165 43.9291 21.2002L43.9291 21.2H43.9215H43.4234ZM47.0321 19.3555L47.4438 19.565L47.3148 19.1214C46.3986 15.9696 44.8004 13.0474 42.5956 10.5356L42.4548 10.3751L42.3039 10.5261L34.5597 18.2702L34.2183 18.6117H34.7012H43.9215C45.0405 18.6117 46.0974 18.88 47.0321 19.3555ZM40.4671 8.40678C31.8797 0.576461 17.5147 1.03298 9.44378 9.43678C6.18992 12.6911 4.0447 16.7601 3.19915 21.1842L3.14139 21.4864L3.44103 21.4165C3.74652 21.3453 4.06497 21.3075 4.39229 21.3075H14.6524H14.6873L14.7202 21.2957L22.1694 18.6118H30.4751H30.558L30.6165 18.5532L40.4737 8.69599L40.6218 8.5479L40.4671 8.40678ZM3.44102 29.5736L3.1414 29.5037L3.19915 29.8059C3.95194 33.7449 5.73519 37.4025 8.41414 40.4544L8.55495 40.6148L8.70587 40.4638L17.993 31.1767L18.2158 30.9539L17.9193 30.8471L14.7177 29.6944L14.6848 29.6826H14.6499H4.39229C4.06507 29.6826 3.74662 29.6449 3.44102 29.5736ZM10.5359 42.294L10.3879 42.4421L10.5426 42.5832C19.13 50.4135 33.4951 49.957 41.566 41.5531C44.3071 38.8116 46.2615 35.4918 47.3148 31.8686L47.4438 31.425L47.0321 31.6345C46.0974 32.1101 45.0405 32.3784 43.9215 32.3784H22.1722L21.0265 31.9658L20.9071 31.9228L20.8174 32.0126L10.5359 42.294Z" fill="#134A85" stroke="white" stroke-width="0.4"/>
</g>
<defs>
<clipPath id="clip0_1_491">
<rect width="51" height="51" fill="white"/>
</clipPath>
</defs>
</svg>
