<svg width="51" height="51" viewBox="0 0 51 51" fill="none" xmlns="http://www.w3.org/2000/svg">
<g clip-path="url(#clip0_1_81)">
<path d="M41.5247 25.6114C39.7686 24.187 38.0828 23.365 36.6972 22.9607C39.7157 20.7504 42.2411 17.8048 43.0667 12.2282C43.3861 10.0851 41.9615 7.39589 39.8364 6.80347C39.6363 5.59146 38.8072 3.92469 36.5901 3.64113L29.7483 2.76723L29.5592 4.24817L36.4008 5.12207C38.331 5.36901 38.3939 7.20588 38.3947 7.41002L38.389 8.07261L39.0463 8.15681C40.6788 8.33249 41.8215 10.4833 41.5857 12.0386C41.1516 16.4547 38.2098 20.6739 34.6006 22.49C33.8139 21.5899 32.5905 19.9333 32.3841 18.5653C35.4638 18.0514 35.9651 13.8407 33.045 12.6496C33.0843 12.3425 33.1227 12.0414 33.1227 12.0414C33.4886 9.585 31.596 7.1376 29.1267 6.87364L25.1517 6.36523C24.7367 6.31238 24.3692 6.10127 24.1166 5.77072C23.8631 5.43898 23.7532 5.02453 23.8072 4.60331L24.0427 2.75628C24.98 3.24787 26.4419 3.87433 28.0842 4.06593L28.2572 2.583C25.3079 2.12674 24.0296 0.989683 22.8569 0.250854L22.3261 4.414C22.1289 5.7749 22.9541 7.1803 24.2336 7.66114L23.678 11.9992L21.0565 13.9665L21.101 16.5039C21.7312 16.5638 22.7333 16.657 23.2432 16.9431C24.0062 17.4051 24.0826 18.2065 23.8932 18.628C23.761 18.922 23.6101 18.8752 23.5204 18.8473C22.8971 18.6541 22.3681 18.5414 21.9317 18.61C20.7729 16.6648 18.4001 16.4039 17.8638 19.9264C17.7649 20.5993 17.6276 21.3937 17.4823 22.2349C16.4958 27.6097 14.4748 39.0148 21.5184 40.471C23.8591 40.8905 26.1343 40.2189 28.7907 39.2922C29.6753 42.9778 31.1742 48.3327 31.2979 50.9992L32.7888 50.9203C32.652 48.0324 31.1092 42.5795 30.1931 38.7384C33.2322 37.4647 36.1145 35.7865 37.6571 34.5262L36.7126 33.3701C33.3897 36.0845 25.2374 39.7693 21.8428 39.0135C17.163 38.1589 17.7029 30.5686 18.3222 26.4238L21.2784 26.9007C20.9003 29.9113 20.8451 32.8964 23.7238 32.999C27.0066 33.1235 31.6378 26.886 34.2917 26.6547L34.3802 25.1643C32.7698 25.0085 30.4986 26.9876 28.4806 28.6706C28.4159 26.6406 28.6808 25.1245 29.2719 24.1478C29.3051 24.1396 34.5689 24.1656 34.5935 24.1378C36.9636 24.0201 44.0996 26.9186 47.5485 37.6919L48.9703 37.2367C46.974 31.0008 43.8195 27.4729 41.5247 25.6114ZM23.0788 20.2734C26.0025 21.0378 26.7056 15.7769 22.5708 15.183L22.5625 14.7031L25.0788 12.8146L25.7029 7.94103L28.9374 8.35458C29.7657 8.46048 30.5031 8.8826 31.0139 9.5432C31.5247 10.2038 31.7477 11.0237 31.6418 11.8521L31.5062 12.9143C31.4685 13.2099 31.4414 13.4235 31.6376 13.6701L31.8263 13.9074L32.127 13.9458C32.974 14.0356 33.6206 14.8829 33.4838 15.723C33.3809 16.5838 32.5839 17.2062 31.7239 17.0952L30.9835 17.0006L30.8888 17.741C30.6678 19.47 31.8531 21.4095 32.8061 22.6547H25.9304C24.5664 22.4686 23.407 21.7602 22.8003 20.7485C22.7474 20.5414 22.69 20.3408 22.6274 20.1483C22.7476 20.1767 22.8955 20.2167 23.0788 20.2734ZM18.9537 22.489C19.1007 21.6384 19.2395 20.8349 19.3411 20.1435C19.515 18.9598 19.8712 18.697 19.9311 18.697C20.2885 18.7049 21.3493 19.9419 21.6252 22.6801C21.6954 23.3774 21.5953 24.355 21.4638 25.4183L18.5415 24.9469C18.6765 24.0938 18.8192 23.2676 18.9537 22.489ZM27.0488 29.8165C20.3685 34.9407 23.1586 27.1756 23.1404 23.1791C23.9138 23.6876 24.8425 24.0286 25.8341 24.1478H27.6067C27.0426 25.5287 26.8595 27.4011 27.0488 29.8165Z" fill="#134A85"/>
<path d="M49.4036 38.7015L47.9629 39.0935C48.9172 42.5997 49.4009 46.5922 49.4009 50.9598H50.8939C50.8939 46.4598 50.3925 42.3355 49.4036 38.7015Z" fill="#134A85"/>
<path d="M8.27295 15.5327H14.1676V17.0257H8.27295V15.5327Z" fill="#134A85"/>
<path d="M12.3576 25.307C13.6278 23.7202 13.5526 21.499 13.4215 20.4236L16.9528 18.9695L16.3843 17.589L8.42175 20.8677L8.99018 22.2482L11.9747 21.0193C12.1479 23.4279 11.2889 25.5763 8.21432 25.5318C6.05337 25.5711 4.45797 23.2872 5.22298 21.2722L5.49908 20.5076L4.71367 20.2976C2.86834 19.804 1.57959 18.1238 1.57959 16.2116C1.57959 14.2261 2.92985 12.5309 4.86337 12.0891L5.67605 11.9034L5.40213 11.1161C4.96877 9.90976 5.36083 8.47301 6.29842 7.61812C6.87939 7.08473 7.60588 6.82585 8.34162 6.88855C10.7732 7.02511 11.5252 9.52377 11.5935 11.382L8.49252 10.1051L7.92409 11.4857L16.3843 14.9693L16.9528 13.5888L13.0998 12.0022C13.1798 9.50655 12.1751 5.65614 8.46873 5.40104C7.31057 5.30191 6.18117 5.69884 5.28857 6.51839C4.10582 7.59633 3.52585 9.26797 3.79807 10.8522C-1.04378 12.6463 -1.14381 19.528 3.61941 21.4997C3.0686 24.3273 5.32948 27.0546 8.21422 27.0249C10.0511 27.0249 11.445 26.4469 12.3576 25.307Z" fill="#134A85"/>
<path d="M12.5024 32.6131L13.26 31.8556L12.2042 30.7999L11.4468 31.5574C11.2052 31.4139 10.9422 31.3029 10.6636 31.2314V30.1616H9.17057V31.2314C8.89178 31.303 8.62882 31.4139 8.38725 31.5574L7.62971 30.7998L6.57387 31.8557L7.33141 32.6132C7.18799 32.8548 7.07691 33.1177 7.00544 33.3964H5.93567V34.8894H7.00544C7.07701 35.1682 7.18799 35.4311 7.33141 35.6726L6.57387 36.4302L7.62961 37.4858L8.38715 36.7283C8.62872 36.8717 8.89168 36.9828 9.17047 37.0542V38.1241H10.6635V37.0542C10.9421 36.9827 11.2051 36.8717 11.4467 36.7283L12.2042 37.4858L13.26 36.4302L12.5024 35.6726C12.6459 35.4311 12.7569 35.1681 12.8285 34.8893H13.8983V33.3963H12.8285C12.7569 33.1176 12.6459 32.8547 12.5024 32.6131ZM9.91696 35.6553C9.08298 35.6553 8.40457 34.9769 8.40457 34.1429C8.48758 32.1364 11.3466 32.137 11.4295 34.1429C11.4294 34.9768 10.7509 35.6553 9.91696 35.6553Z" fill="#134A85"/>
<path d="M14.0831 5.51038L13.3256 6.26792L14.3813 7.32356L15.1388 6.56602C15.3804 6.70944 15.6434 6.82042 15.9221 6.89199V7.96186H17.415V6.89199C17.6937 6.82042 17.9567 6.70944 18.1983 6.56602L18.9558 7.32356L20.0115 6.26792L19.254 5.51038C19.3975 5.26881 19.5085 5.00585 19.5801 4.72706H20.6498V3.23407H19.58C19.5084 2.95528 19.3974 2.69232 19.2539 2.45075L20.0114 1.69321L18.9557 0.637569L18.1982 1.39511C17.9566 1.25168 17.6936 1.1407 17.4149 1.06914V-0.000732422H15.922V1.06914C15.6433 1.1407 15.3803 1.25168 15.1387 1.39511L14.3812 0.637569L13.3256 1.69331L14.0831 2.45085C13.9396 2.69242 13.8286 2.95538 13.757 3.23417H12.6873V4.72716H13.757C13.8285 5.00585 13.9396 5.26881 14.0831 5.51038ZM16.6686 2.46817C17.5025 2.46817 18.1809 3.14658 18.1809 3.98056C18.0978 5.98694 15.2389 5.98634 15.1561 3.98056C15.1561 3.14668 15.8346 2.46817 16.6686 2.46817Z" fill="#134A85"/>
<path d="M29.8445 14.4038L28.3685 13.1702L29.8666 11.8146L28.865 10.7075L26.0939 13.2147L28.887 15.5494L29.8445 14.4038Z" fill="#134A85"/>
<path d="M39.3925 46.1243H40.8854V47.6173H39.3925V46.1243Z" fill="#134A85"/>
<path d="M42.3784 46.1243H43.8714V47.6173H42.3784V46.1243Z" fill="#134A85"/>
</g>
<defs>
<clipPath id="clip0_1_81">
<rect width="51" height="51" fill="white"/>
</clipPath>
</defs>
</svg>
