<svg width="51" height="51" viewBox="0 0 51 51" fill="none" xmlns="http://www.w3.org/2000/svg">
<g clip-path="url(#clip0_1_289)">
<path d="M19.4134 20.9172C19.4134 19.5739 18.3205 18.481 16.9772 18.481C11.5225 18.2843 8.56379 26.4725 13.4184 26.9121C14.7617 26.912 15.8546 25.8191 15.8546 24.4759C15.8546 23.8568 16.3582 23.3532 16.9772 23.3532C18.3206 23.3532 19.4134 22.2604 19.4134 20.9172ZM16.9773 21.86C15.5349 21.86 14.3615 23.0336 14.3615 24.4759C14.3615 24.9958 13.9385 25.4188 13.4185 25.4188C12.8986 25.4188 12.4757 24.9958 12.4757 24.4759C12.4757 21.9935 14.4951 19.9741 16.9773 19.9741C18.226 20.0216 18.2268 21.8125 16.9773 21.86Z" fill="#134A85"/>
<path d="M29.3966 24.9794L30.0698 25.6526C29.8997 25.9302 29.7716 26.2359 29.693 26.5609H28.7421C27.7535 26.5951 27.7543 28.0201 28.7421 28.054H29.6929C29.7716 28.3791 29.8997 28.6851 30.0699 28.9628L29.3969 29.6353C29.1051 29.9267 29.1049 30.3995 29.3964 30.6911C29.6879 30.9828 30.1606 30.983 30.4522 30.6915L31.1257 30.0186C31.4032 30.1886 31.709 30.3167 32.0339 30.3953V31.3469C32.0682 32.3355 33.4931 32.3347 33.5271 31.3469V30.3953C33.8521 30.3166 34.1579 30.1885 34.4356 30.0184L35.1084 30.6912C35.4001 30.9828 35.8726 30.9828 36.1643 30.6912C36.4559 30.3997 36.4559 29.9269 36.1643 29.6355L35.4914 28.9625C35.6615 28.6849 35.7896 28.379 35.8682 28.054H36.8188C37.8074 28.0198 37.8066 26.5948 36.8188 26.5609H35.8681C35.7894 26.236 35.6614 25.9303 35.4914 25.6528L36.1644 24.9792C36.8404 24.2593 35.8267 23.2474 35.1081 23.9237L34.4356 24.5969C34.1579 24.4266 33.8521 24.2985 33.527 24.22V23.2688C33.4927 22.2803 32.0678 22.2811 32.0338 23.2688V24.22C31.7089 24.2985 31.4031 24.4266 31.1256 24.5968L30.4525 23.9235C30.1608 23.632 29.6882 23.632 29.3966 23.9235C29.105 24.2151 29.105 24.6878 29.3966 24.9794ZM32.7767 25.6239C32.7793 25.6241 32.7818 25.6241 32.7844 25.6239C33.7111 25.626 34.4645 26.3804 34.4645 27.3076C34.3798 29.5386 31.1809 29.5379 31.0966 27.3076C31.0966 26.3804 31.85 25.626 32.7767 25.6239Z" fill="#134A85"/>
<path d="M22.7433 29.7002C21.6981 29.4686 20.6644 30.0134 20.2499 30.9641C18.4577 31.7595 17.3848 34.0935 18.6728 36.0925C18.1243 36.4664 17.4782 37.0857 17.2177 38.1603C17.0744 38.7513 17.1762 39.3857 17.4972 39.9005C17.8111 40.404 18.2986 40.751 18.87 40.8775C19.88 41.1109 20.953 40.5733 21.3633 39.6138C21.9335 39.3075 23.094 38.6732 23.4255 37.0828C23.6649 35.9337 23.3082 35.0691 22.9403 34.4855C23.4889 34.1116 24.1349 33.4923 24.3956 32.4177C24.5389 31.8265 24.437 31.1921 24.116 30.6772C23.8021 30.1739 23.3146 29.8268 22.7433 29.7002ZM22.9444 32.0659C22.7343 32.9321 22.0786 33.2859 21.6432 33.5198C21.6405 33.5213 21.6377 33.5228 21.635 33.5243C21.4061 33.6487 21.2445 33.866 21.1913 34.1214C21.1379 34.3782 21.2003 34.6437 21.3634 34.8506C21.6789 35.2513 22.1556 35.8567 21.9636 36.7783C21.7013 37.8797 20.9791 38.0886 20.3555 38.4682C20.1957 38.5691 20.08 38.7267 20.0318 38.9094C19.9345 39.2783 19.566 39.5025 19.1929 39.42C19.0164 39.3809 18.8642 39.2711 18.7642 39.1108C18.6541 38.9342 18.6193 38.716 18.6688 38.5122C18.8792 37.644 19.5373 37.2906 19.9727 37.0568C19.9731 37.0566 19.9735 37.0564 19.9738 37.0562C20.2048 36.9322 20.3681 36.7139 20.4216 36.4571C20.4752 36.2003 20.4129 35.9349 20.2496 35.7277C19.1625 34.5062 19.4889 32.9562 20.9693 32.2727C21.0749 32.2161 21.1765 32.1609 21.2567 32.1105C21.417 32.0097 21.5329 31.8519 21.5812 31.6688C21.6786 31.2997 22.0465 31.0755 22.4203 31.1581C22.5968 31.1973 22.749 31.3071 22.8489 31.4673C22.959 31.6438 22.9938 31.862 22.9444 32.0659Z" fill="#134A85"/>
<path d="M28.7417 36.0094C27.4244 36.0094 26.3527 37.0812 26.3527 38.3985C26.4728 41.5634 31.0111 41.5627 31.1308 38.3985C31.1308 37.0812 30.059 36.0094 28.7417 36.0094ZM28.7417 39.2943C28.2477 39.2943 27.8458 38.8924 27.8458 38.3985C27.8908 37.2116 29.5927 37.2119 29.6376 38.3985C29.6376 38.8925 29.2357 39.2943 28.7417 39.2943Z" fill="#134A85"/>
<path d="M22.9582 14.6699C21.641 14.6699 20.5692 15.7417 20.5692 17.059C20.6893 20.224 25.2276 20.2232 25.3473 17.059C25.3473 15.7417 24.2756 14.6699 22.9582 14.6699ZM22.9582 17.9549C22.4643 17.9549 22.0623 17.5529 22.0623 17.059C22.1074 15.8721 23.8092 15.8724 23.8541 17.059C23.8541 17.553 23.4523 17.9549 22.9582 17.9549Z" fill="#134A85"/>
<path d="M49.0853 16.3774L45.859 10.79C45.6528 10.433 45.1962 10.3107 44.8392 10.5168C44.4822 10.7229 44.3598 11.1795 44.566 11.5367L47.7922 17.124C48.0449 17.5618 47.8765 17.9483 47.7923 18.0941C47.708 18.24 47.4575 18.5794 46.9515 18.5794H29.4567C28.9499 18.5794 28.6993 18.2399 28.615 18.0939C28.5308 17.9482 28.3623 17.5619 28.6151 17.1241L37.3632 1.97231C37.7477 1.3204 38.6588 1.3193 39.0444 1.97261L42.7632 8.4131C42.9695 8.77016 43.4261 8.8925 43.7831 8.68635C44.1402 8.48019 44.2625 8.02358 44.0563 7.66642L40.3375 1.22613C39.4301 -0.408876 36.9771 -0.408478 36.07 1.22593L32.2068 7.91707C8.2254 -0.969906 -9.5817 29.3583 9.8612 45.9618C10.1788 46.221 10.65 46.175 10.9114 45.8538C11.1716 45.534 11.1232 45.0638 10.8035 44.8035C-7.29319 29.5761 9.26792 1.09085 31.4515 9.22498L30.1391 11.4981C18.5863 7.1025 5.4753 16.2487 5.70276 28.6465C5.70256 38.6997 13.8816 46.8787 23.935 46.8787C37.4963 47.0468 46.5513 31.9401 40.0289 20.0726H42.912C51.0927 38.4473 31.0933 56.61 13.5915 46.7199C13.2338 46.5148 12.7776 46.6383 12.5724 46.996C12.3672 47.3537 12.4909 47.81 12.8485 48.0151C31.4245 58.4262 52.5444 39.789 44.5407 20.0726H46.9514C47.8423 20.0726 48.64 19.6121 49.0854 18.8407C49.5306 18.0695 49.5306 17.1488 49.0853 16.3774ZM40.6743 28.6463C39.8326 50.8224 8.03427 50.8171 7.19562 28.646C6.99693 17.3697 18.8051 8.98886 29.3801 12.8128L27.322 16.3775C26.8767 17.1487 26.8766 18.0694 27.3218 18.8405C27.7673 19.612 28.5653 20.0726 29.4567 20.0726H38.312C39.8574 22.659 40.6743 25.6137 40.6743 28.6463Z" fill="#134A85"/>
<path d="M38.204 15.5493C37.7871 15.5493 37.4491 15.8873 37.4491 16.3042C37.4837 17.3035 38.9245 17.3032 38.9589 16.3042C38.9589 15.8873 38.621 15.5493 38.204 15.5493Z" fill="#134A85"/>
<path d="M22.9582 25.632C23.3751 25.632 23.7131 25.294 23.7131 24.8771C23.6785 23.8779 22.2377 23.8781 22.2033 24.8771C22.2034 25.294 22.5413 25.632 22.9582 25.632Z" fill="#134A85"/>
<path d="M14.5671 32.5135C14.1502 32.5135 13.8122 32.8515 13.8122 33.2684C13.8468 34.2677 15.2876 34.2674 15.322 33.2684C15.3219 32.8515 14.984 32.5135 14.5671 32.5135Z" fill="#134A85"/>
<path d="M34.5153 35.2889C34.0984 35.2889 33.7604 35.6269 33.7604 36.0438C33.795 37.0431 35.2358 37.0428 35.2702 36.0438C35.2701 35.6269 34.9322 35.2889 34.5153 35.2889Z" fill="#134A85"/>
<path d="M38.9617 4.99845C38.9275 4.00988 37.5025 4.01068 37.4685 4.99845V13.2404C37.5028 14.229 38.9277 14.2282 38.9617 13.2404V4.99845Z" fill="#134A85"/>
</g>
<defs>
<clipPath id="clip0_1_289">
<rect width="51" height="51" fill="white"/>
</clipPath>
</defs>
</svg>
