<svg width="51" height="51" viewBox="0 0 51 51" fill="none" xmlns="http://www.w3.org/2000/svg">
<path d="M36.5208 27.276C34.4001 26.8268 33.8583 24.0148 35.6931 22.8235C36.8256 22.0864 38.3477 22.4081 39.0818 23.5407C39.6187 24.3654 39.6157 25.4462 39.0479 26.268L40.0281 27.544L41.4455 26.773C41.1238 25.0707 42.6508 23.5596 44.3621 23.9242C46.4828 24.3734 47.0246 27.1824 45.1898 28.3767C44.2097 29.0152 42.8938 28.8678 42.081 28.0151L40.4544 28.8957L40.051 30.8012C41.6686 31.6768 41.7872 33.9917 40.2203 35.0107C38.4871 36.1373 36.1094 34.7428 36.476 32.4976C36.6483 31.4357 37.6056 30.597 38.6893 30.5123L39.0927 28.6038L37.9632 27.1416C37.5239 27.3268 37.0239 27.3836 36.5208 27.276ZM36.1403 25.4552C36.6513 26.2431 37.8715 26.02 38.0658 25.0966C38.261 24.1702 37.236 23.4789 36.4511 23.9899C35.962 24.3057 35.8236 24.9691 36.1403 25.4552ZM37.995 33.5355C38.515 34.3373 39.7432 34.0803 39.9205 33.1769C40.1097 32.2167 39.0708 31.5702 38.3058 32.0702C37.8167 32.387 37.6763 33.0474 37.995 33.5355ZM42.9646 26.9005C43.4756 27.6824 44.6958 27.4713 44.89 26.5419C45.0872 25.6155 44.0603 24.9243 43.2753 25.4323C42.7863 25.751 42.6508 26.4174 42.9646 26.9005ZM25.4781 36.5258C23.6822 35.2946 24.2729 32.4936 26.4125 32.0951C27.7363 31.8471 29.0272 32.7306 29.2722 34.0545C29.4525 35.0197 29.0322 36.0197 28.1965 36.5616L28.6198 38.1145L30.2175 37.9452C30.5702 36.2478 32.5584 35.435 34.0037 36.4232C35.7997 37.6543 35.209 40.4553 33.0694 40.8558C31.9179 41.0699 30.7564 40.4324 30.3331 39.3308L28.4923 39.526L27.3926 41.1337C28.559 42.5681 27.7741 44.7475 25.9413 45.0892C24.6175 45.3372 23.3296 44.4537 23.0815 43.1328C22.7399 41.309 24.485 39.778 26.2471 40.3488L27.3488 38.7421L26.8617 36.9551C26.3985 36.9551 25.8845 36.8166 25.4781 36.5258ZM25.8228 34.6989C25.9861 35.5775 27.1615 35.9301 27.7572 35.0745C28.062 34.6392 27.9325 33.9479 27.4922 33.651C26.6187 33.0643 25.6584 33.8234 25.8228 34.6989ZM24.8625 43.5343C25.1365 43.7036 25.3536 43.7853 25.6843 43.7235C26.5629 43.5602 26.9185 42.3878 26.0598 41.7891C25.6246 41.4843 24.9333 41.6138 24.6364 42.0521C24.2898 42.5681 24.3944 43.1926 24.8625 43.5343ZM31.5772 38.6435C31.7495 39.5698 32.9638 39.8238 33.4947 39.0469C34.0286 38.2679 33.3453 37.234 32.4249 37.4063C31.8511 37.5139 31.4696 38.0707 31.5772 38.6435ZM15.6497 7.39201C18.3292 7.39201 20.5006 9.56349 20.5006 12.243C20.5006 13.3158 20.153 14.3069 19.5633 15.1087C20.8314 15.558 22.0057 16.3509 22.3584 17.6667L24.6374 26.1744L25.3516 25.4512L24.6314 24.74C24.3575 24.472 24.3515 24.0318 24.6235 23.7578L26.018 22.3404C25.6425 21.6999 25.7381 20.8552 26.269 20.3273L33.3393 13.1474L32.5962 12.4163C32.3223 12.1484 32.3193 11.7081 32.5882 11.4342L34.2398 9.75674C34.5077 9.48281 34.948 9.47982 35.2219 9.74877L36.6334 11.1403L38.017 9.73383L37.3904 9.11525C37.1165 8.8473 37.1135 8.40703 37.3824 8.1331L39.034 6.45568C39.3019 6.18176 39.7422 6.17877 40.0161 6.44771L45.1131 11.465C45.3871 11.733 45.39 12.1733 45.1211 12.4472L43.4696 14.1246C43.2016 14.3985 42.7604 14.4015 42.4874 14.1326L41.8609 13.514L40.4743 14.9205L41.8858 16.31C42.1597 16.581 42.1657 17.0212 41.8938 17.2952L40.2452 18.9726C39.9743 19.2465 39.534 19.2495 39.2601 18.9786L38.517 18.2474L31.4806 25.3964C31.4696 25.4103 31.4557 25.4243 31.4437 25.4362H31.4407C30.9098 25.9731 30.0851 26.0767 29.4416 25.7132L28.0441 27.1306C27.7761 27.4045 27.3358 27.4075 27.0619 27.1366L26.3417 26.4284L24.998 27.792C25.0488 29.7404 22.9112 31.0363 21.2148 30.0223V39.9075C21.2148 41.302 20.0773 42.4406 18.6818 42.4406H17.4845C16.7643 42.4406 16.1119 42.1387 15.6487 41.6497C15.1855 42.1378 14.5301 42.4406 13.8109 42.4406H12.6136C11.219 42.4406 10.0805 41.303 10.0805 39.9075V30.0193C8.86627 30.7305 7.33627 30.3241 6.63602 29.1128C6.31428 28.557 6.20372 27.8757 6.38202 27.2093L8.937 17.6687C9.27567 16.4037 10.5497 15.6327 11.7918 15.1924C10.3146 13.261 10.4989 10.5337 12.2181 8.81443C13.0967 7.93488 14.3079 7.39201 15.6497 7.39201ZM18.4278 16.2214C16.7962 17.3619 14.6217 17.3908 12.9642 16.2861C12.007 16.5322 10.5307 17.1019 10.2847 18.0253L7.72674 27.5659C7.64805 27.8627 7.69885 28.1675 7.8393 28.4126V28.4156C8.34731 29.2852 9.63526 29.0959 9.88926 28.1446L11.4362 22.3733C11.5348 22.0007 11.9163 21.7806 12.2889 21.8792C12.6614 21.9778 12.8815 22.3593 12.7829 22.7319L11.476 27.6077V39.9045C11.476 40.5281 11.99 41.042 12.6136 41.042H13.8109C14.4374 41.042 14.9514 40.5281 14.9514 39.9045V29.0381C14.9514 28.6516 15.2622 28.3409 15.6487 28.3409C16.0322 28.3409 16.3459 28.6516 16.3459 29.0381V39.9035C16.3489 40.539 16.8599 41.044 17.4835 41.044H18.6808C19.3043 41.044 19.8183 40.5301 19.8183 39.9065V27.6087L18.5134 22.7328C18.4118 22.3603 18.635 21.9788 19.0045 21.8802C19.3771 21.7816 19.7586 22.0017 19.8572 22.3743L21.4131 28.1735C21.5575 28.7293 22.201 29.0969 22.7458 28.9445C23.3784 28.7722 23.728 28.1735 23.5676 27.5669L21.0126 18.0263C20.7427 17.0153 19.4468 16.4734 18.4278 16.2214ZM18.0921 9.79758C16.7424 8.44787 14.554 8.44787 13.2043 9.79758C11.8546 11.1503 11.8546 13.3387 13.2043 14.6884C14.554 16.0381 16.7424 16.0381 18.0921 14.6884C19.4438 13.3387 19.4438 11.1503 18.0921 9.79758ZM31.9189 22.9669L31.0184 22.0804C30.7445 21.8125 30.7385 21.3722 31.0094 21.0983C31.2774 20.8243 31.7187 20.8184 31.9916 21.0893L32.895 21.9758L33.406 21.4559L32.5056 20.5663C32.2316 20.2984 32.2287 19.8581 32.4976 19.5842C32.7665 19.3103 33.2058 19.3073 33.4797 19.5762L34.3832 20.4657L34.8972 19.9438L33.9937 19.0573C33.7198 18.7863 33.7168 18.3461 33.9858 18.0721C34.2567 17.8012 34.697 17.7952 34.9709 18.0661L35.8714 18.9527L37.5259 17.2723L34.3294 14.1236L27.2532 21.3094V21.3124C27.1486 21.414 27.1546 21.5893 27.2611 21.6959L27.2641 21.6929L30.0741 24.4601C30.1727 24.5617 30.351 24.5617 30.4576 24.4521L30.4546 24.4491L31.9189 22.9669ZM26.8189 24.9462L27.542 25.6574L28.4086 24.7738L26.9683 23.3564L26.1017 24.237L26.8189 24.9462ZM34.8075 12.6414L39.7402 17.5004L40.4175 16.8141L34.7418 11.226L34.0674 11.9123L34.8075 12.6414ZM37.6255 12.1135L39.4862 13.9463L40.8698 12.5398L39.0091 10.707L37.6255 12.1135ZM43.6419 11.9661L39.536 7.92592L38.8616 8.61222L42.9675 12.6524L43.6419 11.9661ZM16.7812 6.16681C16.4336 6.33615 16.0162 6.19271 15.8499 5.84806C15.6806 5.50043 15.824 5.08306 16.1716 4.91672C22.5526 1.80193 30.0492 1.80193 36.4332 4.91672C36.7778 5.08306 36.9213 5.50142 36.7549 5.84806C36.5856 6.19271 36.1672 6.33615 35.8236 6.16681C29.8261 3.24427 22.7727 3.23929 16.7812 6.16681ZM45.6102 15.7413C45.4349 15.3996 45.5673 14.9793 45.909 14.8039C46.2507 14.6286 46.671 14.7611 46.8463 15.1028C50.1842 21.5744 50.2689 29.2802 47.0754 35.8225C46.9091 36.1672 46.4907 36.3106 46.1461 36.1413C45.7984 35.9749 45.655 35.5566 45.8243 35.2119C48.8236 29.066 48.7469 21.8174 45.6102 15.7413ZM36.2499 44.9995C36.5915 44.8242 37.0119 44.9567 37.1872 45.2984C37.3625 45.64 37.229 46.0604 36.8884 46.2357C30.2584 49.6553 22.3444 49.6553 15.7174 46.2357C15.3757 46.0604 15.2403 45.64 15.4156 45.2984C15.5939 44.9567 16.0113 44.8242 16.3529 44.9995C22.5755 48.2099 30.0273 48.2129 36.2499 44.9995ZM6.78045 35.2129C6.9468 35.5576 6.80336 35.9749 6.45872 36.1423C6.11108 36.3116 5.6967 36.1682 5.52737 35.8235C2.33688 29.2812 2.41856 21.5754 5.75647 15.1038C5.93477 14.7621 6.35213 14.6296 6.69379 14.8049C7.03545 14.9803 7.17092 15.4006 6.99262 15.7423C3.8609 21.8154 3.77922 29.069 6.78045 35.2129Z" fill="#134A85"/>
</svg>
