<svg width="47" height="47" viewBox="0 0 47 47" fill="none" xmlns="http://www.w3.org/2000/svg">
<path d="M46.2656 9.43652V23.6742C46.2656 23.7477 46.2564 23.8119 46.2289 23.8762C44.3471 29.4115 41.7125 34.9928 38.3986 40.4639L38.9586 44.6957C39.0045 45.0445 38.7566 45.3658 38.4078 45.4209C38.3803 45.4209 38.3527 45.4301 38.3252 45.4301C38.0039 45.4301 37.7285 45.1914 37.6918 44.8701L37.1043 40.418C37.0859 40.2711 37.1135 40.1242 37.1961 39.9957C40.5008 34.5705 43.1262 29.0443 44.9988 23.5732V9.43652C44.9988 9.3998 44.9621 9.36309 44.9254 9.36309C43.6035 9.36309 42.5479 10.4371 42.4652 11.86L41.9145 21.4527C41.9053 21.5721 41.8686 21.6914 41.7951 21.7924L37.2604 27.9887L36.2598 32.4775C36.1863 32.8264 35.8375 33.0467 35.4979 32.9641C35.149 32.8906 34.9287 32.5418 35.0113 32.2021L37.0584 22.8113C37.2328 21.9943 36.9482 21.2967 36.324 21.0396C35.6998 20.7826 34.791 20.957 34.2586 22.2605L29.7697 33.2854C29.1363 34.8367 28.9344 36.3973 29.0812 38.527L29.5219 44.7324C29.5494 45.0904 29.2832 45.3934 28.9252 45.4209C28.5764 45.4484 28.2643 45.1822 28.2367 44.8242L27.7961 38.6188C27.6309 36.2779 27.8695 34.543 28.5764 32.7988L33.0652 21.774C33.8914 19.7453 35.5805 19.3506 36.8105 19.8463C38.0223 20.342 38.6373 21.6363 38.3252 23.0775L37.9305 24.8768L40.6385 21.1773L41.1801 11.7773C41.2994 9.66602 42.9059 8.06875 44.9162 8.06875C45.6598 8.07793 46.2656 8.68379 46.2656 9.43652ZM13.9348 21.774C13.1086 19.7453 11.4195 19.3506 10.1986 19.8463C8.97773 20.342 8.37187 21.6363 8.68398 23.0775L9.07871 24.8768L6.3707 21.1773L5.8291 11.7773C5.70977 9.66602 4.10332 8.07793 2.09297 8.07793C1.34023 8.07793 0.734375 8.68379 0.734375 9.43652V23.6742C0.734375 23.7477 0.743555 23.8119 0.771094 23.8762C2.64375 29.4023 5.27832 34.9836 8.60137 40.4639L8.04141 44.6957C7.99551 45.0445 8.24336 45.3658 8.59219 45.4209C8.61973 45.4209 8.64727 45.4301 8.6748 45.4301C8.99609 45.4301 9.27148 45.1914 9.3082 44.8701L9.8957 40.418C9.91406 40.2711 9.88652 40.1242 9.80391 39.9957C6.49004 34.5613 3.86465 29.0352 2.00117 23.5732V9.43652C2.00117 9.3998 2.03789 9.36309 2.07461 9.36309C3.39648 9.36309 4.45215 10.4371 4.53477 11.86L5.08555 21.4527C5.09473 21.5721 5.13145 21.6914 5.20488 21.7924L9.73965 27.9887L10.7219 32.4775C10.7953 32.8264 11.1441 33.0467 11.4838 32.9641C11.8326 32.8906 12.0529 32.5418 11.9703 32.2021L9.92324 22.8113C9.74883 21.9943 10.0334 21.2967 10.6576 21.0396C11.2818 20.7826 12.1906 20.957 12.723 22.2605L17.2119 33.2854C17.8453 34.8367 18.0473 36.3973 17.9004 38.527L17.4598 44.7324C17.4322 45.0904 17.6984 45.3934 18.0564 45.4209C18.4053 45.4484 18.7174 45.1822 18.7449 44.8242L19.1855 38.6188C19.3508 36.2779 19.1121 34.543 18.4053 32.7988L13.9348 21.774ZM23.7938 29.9348C23.702 29.9807 23.601 30.0082 23.5 30.0082C23.399 30.0082 23.298 29.9807 23.2063 29.9348C20.4432 28.5027 18.3777 26.8779 17.0742 25.1063C15.9359 23.5641 15.4035 21.9117 15.532 20.342C15.5779 19.8004 15.6973 19.2771 15.89 18.7906H9.4459C9.08789 18.7906 8.80332 18.5061 8.80332 18.148V12.6219C8.80332 10.74 10.373 9.19785 12.3467 9.0877C11.7225 8.25234 11.392 7.12324 11.392 6.02168C11.392 4.13066 12.9342 2.58848 14.8252 2.58848C16.7162 2.58848 18.2584 4.13066 18.2584 6.02168C18.2584 7.12324 17.9279 8.25234 17.3037 9.0877C17.7443 9.11523 18.185 9.20703 18.598 9.38144C19.2498 8.89492 20.0668 8.59199 20.9572 8.56445C20.2504 7.67402 19.8832 6.42559 19.8832 5.22305C19.8832 3.2127 21.5172 1.58789 23.5184 1.58789C25.5195 1.58789 27.1535 3.22188 27.1535 5.22305C27.1535 6.42559 26.7863 7.67402 26.0795 8.56445C26.9699 8.59199 27.7869 8.89492 28.4387 9.38144C28.8426 9.21621 29.2832 9.11523 29.7238 9.0877C29.0904 8.25234 28.7691 7.12324 28.7691 6.02168C28.7691 4.13066 30.3113 2.58848 32.2023 2.58848C34.0934 2.58848 35.6172 4.13066 35.6172 6.02168C35.6172 7.12324 35.2867 8.25234 34.6625 9.0877C36.6361 9.18867 38.2059 10.74 38.2059 12.6219V18.148C38.2059 18.5061 37.9213 18.7906 37.5633 18.7906H31.1191C31.3119 19.2771 31.4312 19.8004 31.4771 20.342C31.5965 21.9117 31.0641 23.5641 29.935 25.1063C28.6223 26.8779 26.566 28.5027 23.7938 29.9348ZM34.4422 10.3637H32.184H29.9258C29.7422 10.3637 29.5586 10.382 29.3842 10.4187C29.733 10.9695 29.9258 11.6213 29.9258 12.3006V16.9455C30.1002 17.1199 30.2563 17.3035 30.4031 17.4963H34.0107V13.9896C34.0107 13.6316 34.2953 13.3471 34.6533 13.3471C35.0113 13.3471 35.2959 13.6316 35.2959 13.9896V17.4963H36.9115V12.6127C36.9207 11.3734 35.81 10.3637 34.4422 10.3637ZM30.0359 6.02168C30.0359 7.28848 30.6969 9.07852 32.184 9.07852C33.6619 9.07852 34.332 7.28848 34.332 6.02168C34.332 4.8375 33.3682 3.87363 32.184 3.87363C30.9998 3.87363 30.0359 4.8375 30.0359 6.02168ZM21.15 5.21387C21.15 6.6 21.8844 8.55527 23.5 8.55527C25.1156 8.55527 25.85 6.6 25.85 5.21387C25.85 3.91953 24.7943 2.86387 23.5 2.86387C22.2057 2.86387 21.15 3.91953 21.15 5.21387ZM18.3594 12.3098V16.0459C18.5246 15.9633 18.699 15.899 18.8734 15.8348C19.158 15.743 19.4518 15.6787 19.7363 15.642V12.8514C19.7363 12.4934 20.0209 12.2088 20.3789 12.2088C20.7369 12.2088 21.0215 12.4934 21.0215 12.8514V15.7154C21.8109 15.899 22.5361 16.3396 23.1236 17.0189L23.5 17.4412L23.8764 17.0189C24.4639 16.3488 25.1982 15.9082 25.9785 15.7154V12.8514C25.9785 12.4934 26.2631 12.2088 26.6211 12.2088C26.9791 12.2088 27.2637 12.4934 27.2637 12.8514V15.642C27.5482 15.6695 27.8328 15.7338 28.1266 15.8348C28.301 15.8898 28.4754 15.9633 28.6406 16.0459V12.3098C28.6406 10.9512 27.4289 9.84043 25.9326 9.84043H21.0766C19.5803 9.84043 18.3594 10.942 18.3594 12.3098ZM12.668 6.02168C12.668 7.28848 13.3289 9.07852 14.816 9.07852C16.3031 9.07852 16.9641 7.28848 16.9641 6.02168C16.9641 4.8375 16.0002 3.87363 14.816 3.87363C13.6318 3.87363 12.668 4.8375 12.668 6.02168ZM16.5969 17.5055C16.7438 17.3127 16.909 17.1291 17.0742 16.9547V12.3098C17.0742 11.6213 17.2762 10.9787 17.6158 10.4187C17.4414 10.382 17.2578 10.3637 17.0742 10.3637H14.816H12.5578C11.19 10.3637 10.0793 11.3734 10.0793 12.6127V17.4963H11.6949V13.9896C11.6949 13.6316 11.9795 13.3471 12.3375 13.3471C12.6955 13.3471 12.9801 13.6316 12.9801 13.9896V17.4963H16.5969V17.5055ZM30.192 20.4338C30.0543 18.6254 28.8518 17.432 27.7227 17.0557C26.6578 16.6977 25.6113 17.0006 24.8402 17.8727L23.9865 18.8457C23.8672 18.9834 23.6928 19.066 23.5 19.066C23.3072 19.066 23.142 18.9834 23.0135 18.8457L22.1598 17.8727C21.5998 17.2393 20.9021 16.9088 20.1494 16.9088C19.8648 16.9088 19.5711 16.9547 19.2773 17.0557C18.1482 17.432 16.9457 18.6254 16.808 20.4338C16.5877 23.2703 19.0203 26.2445 23.5 28.6313C27.9797 26.2445 30.4123 23.2703 30.192 20.4338ZM27.0617 21.7648V23.867C27.0617 24.225 26.7771 24.5096 26.4191 24.5096H25.1891V25.7396C25.1891 26.0977 24.9045 26.3822 24.5465 26.3822H22.4443C22.0863 26.3822 21.8018 26.0977 21.8018 25.7396V24.5096H20.5717C20.2137 24.5096 19.9291 24.225 19.9291 23.867V21.7648C19.9291 21.4068 20.2137 21.1223 20.5717 21.1223H21.8018V19.8922C21.8018 19.5342 22.0863 19.2496 22.4443 19.2496H24.5465C24.9045 19.2496 25.1891 19.5342 25.1891 19.8922V21.1223H26.4191C26.7771 21.1223 27.0617 21.4068 27.0617 21.7648ZM25.7766 22.4074H24.5465C24.1885 22.4074 23.9039 22.1229 23.9039 21.7648V20.5348H23.0869V21.7648C23.0869 22.1229 22.8023 22.4074 22.4443 22.4074H21.2143V23.2244H22.4443C22.8023 23.2244 23.0869 23.509 23.0869 23.867V25.0971H23.9039V23.867C23.9039 23.509 24.1885 23.2244 24.5465 23.2244H25.7766V22.4074Z" fill="url(#paint0_linear_4934_5691)"/>
<defs>
<linearGradient id="paint0_linear_4934_5691" x1="46.2656" y1="45.4301" x2="2.45469" y2="-0.0686123" gradientUnits="userSpaceOnUse">
<stop stop-color="#54BE95"/>
<stop offset="0.288462" stop-color="#2E7B9A"/>
<stop offset="1" stop-color="#224075"/>
</linearGradient>
</defs>
</svg>
