<svg width="51" height="51" viewBox="0 0 51 51" fill="none" xmlns="http://www.w3.org/2000/svg">
<path d="M22.3125 39.0469C22.2079 39.0469 22.1042 39.0675 22.0075 39.1075C21.9109 39.1476 21.823 39.2063 21.749 39.2803C21.4173 39.6252 21.1173 39.9993 20.8525 40.3979C20.2349 41.3242 19.9218 42.2102 19.9218 43.0312C19.9218 44.7852 21.3515 45.4219 22.3124 45.4219C23.2733 45.4219 24.703 44.7852 24.703 43.0312C24.703 41.1614 23.0629 39.4673 22.8759 39.2803C22.7265 39.1308 22.5238 39.0469 22.3125 39.0469ZM22.7827 43.6974C22.6407 43.7828 22.4781 43.8278 22.3125 43.8278C22.1469 43.8278 21.9843 43.7828 21.8423 43.6974C21.6808 43.609 21.5156 43.4596 21.5156 43.0312C21.5156 42.3702 21.9219 41.6317 22.3125 41.0875C22.7032 41.6319 23.1094 42.3703 23.1094 43.0312C23.1094 43.4596 22.9442 43.609 22.7827 43.6974Z" fill="#134A85"/>
<path d="M28.124 43.2646C27.7924 43.6096 27.4923 43.9836 27.2275 44.3822C26.6099 45.3085 26.2968 46.1945 26.2968 47.0156C26.2968 48.7695 27.7265 49.4062 28.6874 49.4062C29.6483 49.4062 31.078 48.7695 31.078 47.0156C31.078 45.1458 29.4379 43.4517 29.2509 43.2646C29.1769 43.1906 29.089 43.1319 28.9924 43.0919C28.8957 43.0518 28.7921 43.0312 28.6874 43.0312C28.5828 43.0312 28.4791 43.0518 28.3824 43.0919C28.2858 43.1319 28.198 43.1906 28.124 43.2646ZM29.4844 47.0156C29.4844 47.4439 29.3192 47.5934 29.1577 47.6818C29.0157 47.7671 28.8531 47.8122 28.6875 47.8122C28.5219 47.8122 28.3593 47.7671 28.2173 47.6818C28.0558 47.5934 27.8906 47.4439 27.8906 47.0156C27.8906 46.3546 28.2969 45.6161 28.6875 45.0718C29.0782 45.6163 29.4844 46.3547 29.4844 47.0156Z" fill="#134A85"/>
<path d="M13.1341 45.9635C13.3149 46.073 13.5318 46.1062 13.737 46.0558C13.9423 46.0053 14.1191 45.8754 14.2285 45.6946C14.338 45.5139 14.3712 45.297 14.3208 45.0917C14.2703 44.8865 14.1404 44.7097 13.9597 44.6002C10.6709 42.6141 7.95097 39.8121 6.06365 36.4656C4.17632 33.1192 3.18559 29.3419 3.18749 25.5C3.18749 21.087 4.49609 16.7731 6.94782 13.1038C9.39955 9.43455 12.8843 6.57469 16.9614 4.88591C21.0384 3.19713 25.5247 2.75527 29.853 3.6162C34.1812 4.47714 38.1569 6.6022 41.2773 9.72266C45.2953 13.7404 47.629 19.1398 47.8021 24.8192C47.9753 30.4987 45.9749 36.0302 42.2091 40.2852L40.4072 38.4834C40.3026 38.3787 40.1709 38.3053 40.0268 38.2713C39.8828 38.2372 39.7321 38.244 39.5917 38.2908C39.4513 38.3376 39.3267 38.4226 39.2319 38.5363C39.1371 38.6499 39.0757 38.7877 39.0548 38.9342L38.258 44.5123C38.2418 44.6254 38.2502 44.7405 38.2824 44.85C38.3146 44.9596 38.37 45.0609 38.4449 45.1471C38.5197 45.2334 38.6121 45.3025 38.716 45.3499C38.8199 45.3973 38.9327 45.4219 39.0469 45.4219C39.0846 45.4219 39.1223 45.4192 39.1596 45.4138L44.7378 44.6169C44.8842 44.596 45.022 44.5347 45.1356 44.4398C45.2492 44.345 45.3342 44.2204 45.381 44.08C45.4278 43.9397 45.4345 43.789 45.4005 43.645C45.3665 43.501 45.2931 43.3693 45.1885 43.2646L43.3379 41.4141C47.4782 36.7707 49.6452 30.6962 49.3787 24.4808C49.1123 18.2654 46.4334 12.3987 41.911 8.12664C37.3886 3.8546 31.379 1.51379 25.1585 1.60137C18.938 1.68895 12.9966 4.19802 8.59628 8.59568C4.88129 12.3122 2.49363 17.1487 1.80227 22.3578C1.11091 27.567 2.15432 32.8589 4.77128 37.4158C6.79504 40.9235 9.6715 43.8635 13.1341 45.9635ZM39.986 43.6859L40.4072 40.7374L42.9345 43.2647L39.986 43.6859Z" fill="#134A85"/>
<path d="M43.8281 19.125C43.8281 15.1705 40.9683 11.9531 37.4531 11.9531C35.9582 11.9617 34.5217 12.5348 33.4313 13.5575C30.2183 12.4926 27.552 11.9531 25.5 11.9531C23.448 11.9531 20.7817 12.4926 17.5687 13.5575C16.4783 12.5348 15.0418 11.9617 13.5469 11.9531C10.0317 11.9531 7.17187 15.1705 7.17187 19.125C7.17018 20.0087 7.31599 20.8865 7.60328 21.7222C7.38564 22.8991 7.83916 24.3001 8.90239 25.3632C10.277 26.7378 12.2163 27.0933 13.5057 26.2957C13.5195 26.2957 13.5332 26.2969 13.5469 26.2969C15.7033 26.2969 17.6707 25.0548 18.832 23.1298C19.0371 24.441 19.1351 25.7667 19.125 27.0938C19.125 30.6915 21.4437 33.0754 22.3125 33.8423V36.6562C22.3125 36.8676 22.3965 37.0703 22.5459 37.2197C22.6953 37.3692 22.898 37.4531 23.1094 37.4531H27.8906C28.102 37.4531 28.3047 37.3692 28.4541 37.2197C28.6035 37.0703 28.6875 36.8676 28.6875 36.6562V33.8423C29.5563 33.0753 31.875 30.6915 31.875 27.0938C31.8649 25.7667 31.9629 24.441 32.168 23.1298C33.3293 25.0548 35.2967 26.2969 37.4531 26.2969C37.4668 26.2969 37.4805 26.2958 37.4943 26.2957C38.7837 27.0933 40.7229 26.738 42.0976 25.3632C43.1608 24.3001 43.6144 22.8991 43.3967 21.7222C43.684 20.8865 43.8298 20.0087 43.8281 19.125ZM12.8467 24.7998C12.2358 25.4106 10.9456 25.1527 10.0293 24.2364C9.11296 23.32 8.85527 22.0298 9.46578 21.4189C10.0763 20.808 11.3669 21.0661 12.2832 21.9824C13.1995 22.8987 13.4572 24.1889 12.8467 24.7998ZM11.9531 19.125C11.9531 17.8292 12.683 16.7344 13.5469 16.7344C14.4108 16.7344 15.1406 17.8292 15.1406 19.125C15.1406 20.2307 14.6087 21.1902 13.9154 21.4474C13.7627 21.2372 13.5937 21.0392 13.4099 20.8555C13.0132 20.4567 12.5496 20.1305 12.0402 19.892C11.9818 19.6405 11.9526 19.3832 11.9531 19.125ZM27.4125 32.8313C27.3135 32.9055 27.2332 33.0017 27.1779 33.1124C27.1226 33.223 27.0938 33.345 27.0938 33.4688V35.8594H23.9062V33.4688C23.9062 33.345 23.8774 33.223 23.8221 33.1124C23.7668 33.0017 23.6865 32.9055 23.5875 32.8313C22.6064 32.0108 21.825 30.9776 21.3027 29.8101C21.8098 29.6379 22.2975 29.413 22.7578 29.139C23.3784 28.7652 23.8839 28.2275 24.2189 27.5851C24.5539 26.9426 24.7053 26.2203 24.6565 25.4974C24.3611 20.6248 22.7127 18.4611 21.2904 17.5007C22.6499 17.0457 24.0674 16.7877 25.5 16.7344C26.9326 16.7877 28.3501 17.0457 29.7096 17.5007C28.2873 18.4611 26.6389 20.6248 26.3435 25.4974C26.2947 26.2203 26.4461 26.9426 26.7811 27.5851C27.1161 28.2275 27.6216 28.7652 28.2422 29.139C28.7025 29.413 29.1902 29.6379 29.6973 29.8101C29.175 30.9776 28.3936 32.0108 27.4125 32.8313ZM32.7881 20.3494C32.7551 20.1775 32.6664 20.0213 32.5357 19.9048C32.405 19.7884 32.2396 19.7182 32.0651 19.7052C31.8905 19.6921 31.7165 19.7368 31.57 19.8325C31.4234 19.9282 31.3124 20.0695 31.2541 20.2345C30.6086 22.0651 30.2812 24.3728 30.2812 27.0938C30.2809 27.4944 30.2436 27.8942 30.1698 28.288C29.7836 28.1537 29.4121 27.9807 29.0608 27.7715C28.6911 27.5471 28.3903 27.2252 28.1916 26.841C27.9928 26.4569 27.9038 26.0254 27.9343 25.5939C28.3579 18.607 31.6604 18.3381 31.8802 18.3281C32.0594 18.3322 32.2346 18.2747 32.3765 18.1651C32.5184 18.0556 32.6185 17.9007 32.6599 17.7263C32.702 17.5488 32.6826 17.3623 32.6048 17.1973C32.5269 17.0324 32.3953 16.8988 32.2316 16.8184C28.9137 15.1596 25.6379 15.1406 25.5 15.1406C25.3621 15.1406 22.0863 15.1597 18.7686 16.8185C18.6048 16.8989 18.4733 17.0325 18.3954 17.1975C18.3176 17.3624 18.2982 17.5489 18.3403 17.7264C18.3817 17.9007 18.4818 18.0556 18.6236 18.1651C18.7655 18.2746 18.9406 18.3322 19.1198 18.3281C19.3396 18.3381 22.6421 18.607 23.0657 25.5938C23.0962 26.0253 23.0072 26.4568 22.8084 26.8409C22.6097 27.2251 22.3089 27.547 21.9392 27.7714C21.5879 27.9806 21.2164 28.1536 20.8302 28.2879C20.7564 27.8941 20.7191 27.4944 20.7188 27.0938C20.7188 24.3728 20.3914 22.0651 19.746 20.2345C19.6877 20.0695 19.5767 19.9282 19.4301 19.8325C19.2836 19.7368 19.1096 19.6921 18.935 19.7052C18.7605 19.7182 18.5951 19.7884 18.4644 19.9048C18.3337 20.0213 18.245 20.1775 18.212 20.3494C17.8141 22.4224 16.4181 24.0273 14.7019 24.534C14.8035 23.9829 14.7741 23.4157 14.6162 22.8781C15.8492 22.3274 16.7344 20.8533 16.7344 19.125C16.7344 16.928 15.3045 15.1406 13.5469 15.1406C11.7893 15.1406 10.3594 16.928 10.3594 19.125C10.3594 19.2523 10.3647 19.3785 10.3739 19.5035C9.82541 19.4937 9.28508 19.6374 8.81393 19.9184C8.78178 19.6551 8.76564 19.3902 8.76562 19.125C8.76562 16.0493 10.9104 13.5469 13.5469 13.5469C14.7443 13.5469 15.8911 14.0677 16.776 15.0136C16.8809 15.1257 17.0159 15.2051 17.1648 15.2423C17.3138 15.2795 17.4703 15.2729 17.6155 15.2233C20.8262 14.1266 23.5526 13.5469 25.5 13.5469C27.4474 13.5469 30.1738 14.1266 33.3845 15.2233C33.5297 15.2729 33.6862 15.2795 33.8352 15.2423C33.9841 15.2051 34.1191 15.1257 34.224 15.0136C35.1089 14.0677 36.2557 13.5469 37.4531 13.5469C40.0896 13.5469 42.2344 16.0493 42.2344 19.125C42.2344 19.3902 42.2182 19.6552 42.1861 19.9185C41.7149 19.6375 41.1746 19.4938 40.6261 19.5036C40.6353 19.3785 40.6406 19.2523 40.6406 19.1251C40.6406 16.9281 39.2107 15.1407 37.4531 15.1407C35.6955 15.1407 34.2656 16.9281 34.2656 19.1251C34.2656 20.8534 35.1508 22.3275 36.3839 22.8782C36.226 23.4158 36.1966 23.983 36.2982 24.5341C34.582 24.0273 33.186 22.4221 32.7881 20.3494ZM37.5899 20.8555C37.4061 21.0392 37.2371 21.2372 37.0844 21.4474C36.3913 21.1902 35.8594 20.2312 35.8594 19.125C35.8594 17.8292 36.5892 16.7344 37.4531 16.7344C38.317 16.7344 39.0469 17.8292 39.0469 19.125C39.0474 19.3832 39.0181 19.6405 38.9596 19.892C38.4502 20.1305 37.9866 20.4567 37.5899 20.8555ZM40.9707 24.2364C40.0543 25.1528 38.7642 25.4106 38.1533 24.7998C37.5424 24.189 37.8005 22.8987 38.7168 21.9824C39.6331 21.0661 40.9233 20.8081 41.5342 21.4189C42.1451 22.0297 41.887 23.32 40.9707 24.2364Z" fill="#134A85"/>
</svg>
