<svg width="52" height="52" viewBox="0 0 52 52" fill="none" xmlns="http://www.w3.org/2000/svg">
<g clip-path="url(#clip0_1_74)">
<path d="M18.9065 23.585C19.0847 23.1109 19.2258 22.6151 19.33 22.1053H22.0011C23.177 22.1053 24.2166 21.4897 24.782 20.4587C25.3474 19.4276 25.3074 18.2202 24.6752 17.2287L15.5514 2.92129C14.966 2.00314 13.9663 1.45496 12.8774 1.45496C11.7885 1.45496 10.7889 2.00314 10.2033 2.92129L1.07958 17.2288C0.447325 18.2203 0.40738 19.4277 0.972794 20.4588C1.53811 21.4899 2.57769 22.1054 3.75365 22.1054H17.7996C17.4371 23.5386 16.688 24.9244 16.1047 26.3627C16.0135 26.2145 15.9127 26.064 15.8014 25.9137C14.9794 24.8035 13.4174 23.4802 10.6444 23.4802C10.2318 23.4802 9.8973 23.8146 9.8973 24.2273C9.8973 24.6401 10.2318 24.9745 10.6444 24.9745C14.2928 24.9745 15.2397 27.7989 15.4153 28.4821C15.14 29.6637 15.0005 31.0625 15.0961 32.9441C15.1884 34.7695 14.9655 36.725 12.6134 37.3881C11.2051 37.7848 8.22228 37.6679 5.77663 35.7204C3.07198 33.5668 1.7742 29.7185 2.02383 24.5921C2.03031 24.4589 2.03778 24.3271 2.04615 24.1966C2.07264 23.7848 1.76015 23.4295 1.34844 23.4031C0.936435 23.3758 0.581407 23.6891 0.555009 24.1008C0.546143 24.2387 0.538274 24.3781 0.5314 24.5192C0.340438 28.4431 0.933845 33.7742 4.84593 36.8893C6.80974 38.4531 9.15716 39.0708 11.0775 39.0707C11.7992 39.0706 12.4609 38.9833 13.0187 38.8262C16.8353 37.7505 16.6496 34.0759 16.5884 32.8683C16.5558 32.2254 16.5527 31.6474 16.5743 31.1185C17.273 31.3882 17.8821 31.7466 18.3894 32.1922C19.7928 33.4258 20.5043 35.4145 20.5043 38.1031V49.7978C20.5043 50.2105 20.8388 50.5449 21.2514 50.5449C21.664 50.5449 21.9985 50.2105 21.9985 49.7978V38.1031C21.9985 34.9659 21.1161 32.5996 19.3757 31.0698C18.6404 30.4238 17.7488 29.9277 16.7225 29.5855C16.796 29.1256 16.8921 28.7038 17.0061 28.3045C18.2447 28.6996 19.3232 29.2929 20.218 30.075C22.2647 31.8631 23.3025 34.5642 23.3025 38.1032V49.7979C23.3025 50.2106 23.637 50.545 24.0496 50.545C24.4622 50.545 24.7967 50.2106 24.7967 49.7979V38.1031C24.7967 34.1138 23.587 31.0341 21.2012 28.9498C20.6802 28.4945 20.1083 28.0948 19.4897 27.7512C21.006 27.3168 22.6664 26.4017 23.3611 24.4815C23.5014 24.0934 23.3007 23.6651 22.9127 23.5248C22.5246 23.3842 22.0964 23.585 21.956 23.9731C21.2591 25.8991 18.9988 26.439 17.63 26.5876C17.9908 25.7428 18.4888 24.6951 18.9065 23.585ZM2.28293 19.7404C1.98399 19.1951 2.00501 18.5565 2.33941 18.0322L11.4632 3.72478C11.7774 3.23199 12.2928 2.94938 12.8773 2.94938C13.4617 2.94938 13.9772 3.23199 14.2914 3.72478L23.4152 18.0322C23.7495 18.5566 23.7706 19.1952 23.4716 19.7404C23.1727 20.2858 22.6228 20.6112 22.001 20.6112H3.75365C3.13175 20.6112 2.58198 20.2856 2.28293 19.7404Z" fill="#134A85"/>
<path d="M30.7486 42.7328C30.336 42.7328 30.0015 43.0672 30.0015 43.4799V49.7978C30.0015 50.2105 30.336 50.5449 30.7486 50.5449C31.1612 50.5449 31.4957 50.2105 31.4957 49.7978V43.4799C31.4957 43.0672 31.1613 42.7328 30.7486 42.7328Z" fill="#134A85"/>
<path d="M51.4687 24.5194C51.1224 17.4114 48.2039 14.3977 45.8164 13.1211C42.0869 11.127 37.7868 12.1699 35.8065 13.3573C34.2515 14.2896 33.1449 15.9164 32.6906 17.938C32.4321 19.0884 32.3965 20.3346 32.573 21.5432C30.8722 19.6358 30.9033 16.8273 30.9038 16.8011C30.904 16.7942 30.9041 16.7872 30.9041 16.7803V6.3527C30.9041 5.94 30.5695 5.60559 30.1569 5.60559C29.7443 5.60559 29.4098 5.94 29.4098 6.3527V16.7794C29.407 17.0817 29.4292 20.7243 31.92 23.0069C32.311 23.3659 32.7508 23.6782 33.2296 23.9391C33.4793 24.5747 33.73 25.1385 33.9738 25.6855C32.8426 25.2986 31.8519 24.7179 31.0183 23.9487C27.9855 21.1491 28.1019 16.8944 28.1084 16.7146C28.1087 16.7056 28.1089 16.6967 28.1089 16.6878V6.3527C28.1089 5.94 27.7743 5.60559 27.3617 5.60559C26.9491 5.60559 26.6146 5.94 26.6146 6.3527V16.676C26.6042 17.0383 26.5345 21.8431 30.0049 25.0467C31.0507 26.0116 32.2959 26.7242 33.7186 27.1754C32.6217 27.6174 31.644 28.211 30.7991 28.9496C28.4132 31.0341 27.2035 34.1138 27.2035 38.1031V49.7978C27.2035 50.2105 27.538 50.5449 27.9506 50.5449C28.3632 50.5449 28.6977 50.2105 28.6977 49.7978V38.103C28.6977 34.5641 29.7355 31.8629 31.7823 30.0746C32.677 29.2926 33.7553 28.6993 34.9939 28.3043C35.1081 28.7036 35.2042 29.1253 35.2777 29.5852C34.2514 29.9274 33.3597 30.4236 32.6243 31.0698C30.8839 32.5994 30.0015 34.9657 30.0015 38.103V39.9578C30.0015 40.3705 30.336 40.7049 30.7487 40.7049C31.1613 40.7049 31.4958 40.3705 31.4958 39.9578V38.103C31.4958 35.4144 32.2074 33.4257 33.6106 32.1921C34.1179 31.7465 34.7272 31.3879 35.4261 31.1182C35.4477 31.6469 35.4446 32.2249 35.4119 32.8676C35.3506 34.0753 35.1637 37.7504 38.9814 38.8258C39.5397 38.9831 40.2011 39.0705 40.9232 39.0704C42.8433 39.0704 45.1908 38.4526 47.1542 36.8893C51.0665 33.7745 51.6598 28.4433 51.4687 24.5194ZM46.2236 35.7206C43.7779 37.668 40.795 37.7846 39.3867 37.3878C37.0339 36.7249 36.8115 34.7693 36.9044 32.9436C37 31.0621 36.8603 29.6633 36.5849 28.4817C36.7605 27.7985 37.7075 24.9743 41.3558 24.9743C41.7684 24.9743 42.1029 24.6399 42.1029 24.2272C42.1029 23.8145 41.7684 23.4801 41.3558 23.4801C38.5828 23.4801 37.0208 24.8034 36.1988 25.9136C36.0874 26.064 35.9866 26.2145 35.8953 26.3629C35.4822 25.3535 34.9536 24.2824 34.4921 23.0597C33.1166 19.3952 34.471 15.9005 36.5749 14.6391C37.5428 14.0587 39.2667 13.4993 41.1707 13.4993C42.4616 13.4993 43.8354 13.7566 45.1118 14.4392C48.047 16.0085 49.729 19.5194 49.9761 24.5924C50.226 29.7188 48.9283 33.5669 46.2236 35.7206Z" fill="#134A85"/>
<path d="M12.8773 16.3549C12.4659 16.3549 12.1323 16.6884 12.1323 17.0998C12.1323 17.5112 12.4658 17.8448 12.8773 17.8448C13.2887 17.8448 13.6223 17.5113 13.6223 17.0998C13.6222 16.6884 13.2887 16.3549 12.8773 16.3549Z" fill="#134A85"/>
<path d="M12.8774 7.25342C12.4648 7.25342 12.1302 7.58783 12.1302 8.00053V13.5091C12.1302 13.9218 12.4648 14.2563 12.8774 14.2563C13.29 14.2563 13.6245 13.9218 13.6245 13.5091V8.00053C13.6245 7.58783 13.29 7.25342 12.8774 7.25342Z" fill="#134A85"/>
</g>
<defs>
<clipPath id="clip0_1_74">
<rect width="51" height="51" fill="white" transform="translate(0.5 0.5)"/>
</clipPath>
</defs>
</svg>
