<svg width="62" height="62" viewBox="0 0 62 62" fill="none" xmlns="http://www.w3.org/2000/svg">
<rect width="62" height="62" rx="4" fill="#DFF5F5"/>
<g clip-path="url(#clip0_4991_5418)">
<path d="M18.1093 15.1133C18.2351 15.2391 18.4001 15.3021 18.565 15.3021C18.7299 15.3021 18.8949 15.2392 19.0207 15.1133C19.2724 14.8615 19.2724 14.4534 19.0207 14.2018L13.8078 8.98883C13.556 8.73712 13.1479 8.73712 12.8963 8.98883C12.6446 9.24054 12.6446 9.64866 12.8963 9.90029L18.1093 15.1133Z" fill="#343434"/>
<path d="M36.4916 30.8197C36.7937 28.4389 36.516 25.2387 33.6678 23.0549C32.2576 21.9737 30.7589 21.5731 30.2006 21.4538C29.2428 20.5065 27.9011 20.0873 26.566 20.3312C25.816 20.4683 25.0483 20.2294 24.512 19.6931L21.1467 16.3278C20.895 16.0761 20.4869 16.0761 20.2353 16.3278C19.9835 16.5795 19.9835 16.9877 20.2353 17.2393L23.6006 20.6046C24.4361 21.4402 25.631 21.8118 26.7974 21.5993C27.7655 21.4225 28.7394 21.7525 29.4024 22.4816C30.3677 23.5437 30.3703 25.209 29.4077 26.2733C28.9571 26.7728 28.3692 27.0865 27.7073 27.1807C27.4234 27.2211 27.2003 27.4441 27.1599 27.728C27.0657 28.3899 26.752 28.9779 26.252 29.429C25.1883 30.3911 23.5231 30.3885 22.461 29.4233C21.7318 28.7601 21.4019 27.7863 21.5786 26.8181C21.7913 25.652 21.4194 24.4569 20.5839 23.6213L9.90102 12.9385C9.64931 12.6868 9.24119 12.6868 8.98956 12.9385C8.73785 13.1902 8.73785 13.5984 8.98956 13.85L19.6725 24.5329C20.2088 25.0692 20.4473 25.8371 20.3105 26.5867C20.0533 27.9956 20.533 29.4125 21.5939 30.3771C22.3692 31.0817 23.3649 31.4342 24.3606 31.4341C24.5092 31.4341 24.6577 31.4252 24.8055 31.4095C24.6793 31.7701 24.6023 32.1523 24.5835 32.5478C24.5155 33.9796 25.178 35.3207 26.3558 36.1354C26.9826 36.5689 27.3567 37.2806 27.3567 38.0391V52.1553C27.3567 52.5113 27.6453 52.7999 28.0013 52.7999C28.3572 52.7999 28.6458 52.5113 28.6458 52.1553V41.2313C28.7877 41.3356 28.9384 41.4306 29.0995 41.5121C29.7381 41.8349 30.1347 42.48 30.1347 43.1955V52.1553C30.1347 52.5113 30.4232 52.7999 30.7792 52.7999C31.1351 52.7999 31.4237 52.5113 31.4237 52.1553V43.1955C31.4237 41.9909 30.756 40.9051 29.681 40.3616C29.0424 40.0388 28.6458 39.3937 28.6458 38.6782V38.0392C28.6458 36.8576 28.0639 35.7497 27.0892 35.0754C26.2798 34.5154 25.8244 33.5934 25.8712 32.6091C25.9393 31.1759 27.115 29.9964 28.5477 29.9237C29.2196 29.8894 29.8578 30.0838 30.3921 30.4853C30.6214 30.6576 30.9371 30.6576 31.1663 30.4853C31.7007 30.0839 32.3385 29.8905 33.0107 29.9237C34.4435 29.9964 35.6192 31.1759 35.6873 32.6091C35.734 33.5934 35.2787 34.5155 34.4692 35.0754C33.4945 35.7496 32.9126 36.8576 32.9126 38.0392V52.1554C32.9126 52.5114 33.2012 52.8 33.5571 52.8C33.9131 52.8 34.2016 52.5114 34.2016 52.1554V38.0391C34.2016 37.2806 34.5758 36.5689 35.2025 36.1354C36.3802 35.3207 37.0428 33.9796 36.9748 32.5478C36.9454 31.9283 36.7729 31.3418 36.4916 30.8197ZM33.076 28.6363C32.2687 28.595 31.4688 28.7927 30.7792 29.1969C30.0896 28.7927 29.2898 28.5954 28.4824 28.6363C28.4069 28.6402 28.3319 28.6467 28.2574 28.6547C28.29 28.5595 28.3191 28.4629 28.3446 28.3653C29.1183 28.1632 29.8235 27.7369 30.3644 27.1373C31.3632 26.0329 31.6478 24.4839 31.2205 23.1247C31.7288 23.3365 32.3154 23.6422 32.8835 24.0778C34.5231 25.3349 35.3326 27.136 35.3009 29.4434C34.6689 28.9734 33.902 28.6782 33.076 28.6363Z" fill="#343434"/>
<path d="M52.5903 21.9099L49.4149 18.7345C49.2444 18.564 48.9928 18.5028 48.7631 18.5762L45.1632 19.7253C44.8867 19.8135 44.7033 20.0758 44.7152 20.3658L44.7673 21.6321L41.8248 23.0162C41.5623 23.1397 41.4147 23.4233 41.464 23.7091C41.5134 23.9949 41.7476 24.2125 42.0363 24.2409L48.2252 24.8475C48.2462 24.8496 48.2672 24.8506 48.2881 24.8506C48.459 24.8506 48.6241 24.7825 48.7457 24.6599C48.8821 24.5223 48.9494 24.3306 48.929 24.1378L48.8236 23.1477L52.1612 23.0097C52.4168 22.9991 52.642 22.8384 52.735 22.6001C52.828 22.3616 52.7712 22.0908 52.5903 21.9099ZM48.0833 21.8881C47.9053 21.8955 47.7382 21.9762 47.6219 22.1112C47.5055 22.2461 47.4502 22.4231 47.469 22.6003L47.5634 23.4874L44.4915 23.1863L45.7031 22.6164C45.9378 22.506 46.0834 22.2658 46.0728 22.0067L46.0233 20.8039L48.7809 19.9237L50.6397 21.7824L48.0833 21.8881Z" fill="#343434"/>
<path d="M45.2907 17.7482C45.2899 17.5544 45.2019 17.3713 45.0511 17.2495L44.2764 16.6239L46.5388 14.1662C46.7121 13.978 46.7576 13.7051 46.6548 13.4708C46.5521 13.2365 46.3205 13.0852 46.0646 13.0852H41.574C41.3328 13.0852 41.1118 13.2198 41.0012 13.4342L39.2682 16.7922C39.1351 17.0501 39.1907 17.3652 39.4042 17.5619L40.3364 18.4205L39.2345 21.4798C39.1362 21.7528 39.2323 22.0577 39.4693 22.2249C39.581 22.3037 39.711 22.3428 39.8408 22.3428C39.9863 22.3428 40.1315 22.2937 40.25 22.1963L45.0551 18.2491C45.2051 18.1259 45.2914 17.942 45.2907 17.7482ZM41.2406 19.7143L41.6944 18.4545C41.7822 18.2105 41.7153 17.9377 41.5246 17.762L40.6392 16.9465L41.9668 14.3742H44.5953L42.8624 16.2566C42.7418 16.3877 42.6807 16.5629 42.6939 16.7406C42.707 16.9183 42.7931 17.0826 42.9317 17.1946L43.6256 17.755L41.2406 19.7143Z" fill="#343434"/>
<path d="M49.5663 28.4153L46.2083 26.6823C45.9505 26.5491 45.6353 26.6049 45.4387 26.8183L44.5801 27.7505L41.5207 26.6486C41.2478 26.5502 40.9428 26.6464 40.7756 26.8834C40.6084 27.1204 40.6201 27.4399 40.8042 27.664L44.7514 32.4691C44.8739 32.6182 45.0566 32.7045 45.2494 32.7045H45.2521C45.4459 32.7038 45.6291 32.6157 45.7509 32.4649L46.3766 31.6903L48.8342 33.9527C48.9556 34.0644 49.1122 34.123 49.2709 34.123C49.3584 34.123 49.4464 34.1052 49.5296 34.0687C49.764 33.9659 49.9152 33.7343 49.9152 33.4785V28.9878C49.9153 28.7468 49.7807 28.5259 49.5663 28.4153ZM48.6263 32.0094L46.7438 30.2764C46.6244 30.1665 46.4685 30.1061 46.3073 30.1061C46.2915 30.1061 46.2757 30.1067 46.2599 30.1079C46.0822 30.121 45.9179 30.2071 45.8059 30.3457L45.2454 31.0397L43.2862 28.6546L44.546 29.1084C44.79 29.1963 45.0628 29.1293 45.2384 28.9387L46.054 28.0532L48.6263 29.3808V32.0094Z" fill="#343434"/>
<path d="M23.8561 8.91098C23.5614 8.71143 23.1607 8.78843 22.9611 9.08311C22.7615 9.37779 22.8385 9.77851 23.1331 9.97815C23.2596 10.0638 35.7916 18.6211 37.5033 25.3816C38.3988 28.9193 38.1527 33.5537 37.9729 36.9377C37.9109 38.1053 37.8573 39.1138 37.8573 39.9152V46.2867C37.8573 46.6426 38.1459 46.9312 38.5019 46.9312C38.8578 46.9312 39.1464 46.6426 39.1464 46.2867V39.9152C39.1464 39.1479 39.1991 38.1553 39.2602 37.006C39.4442 33.5397 39.6964 28.7924 38.7529 25.0652C36.9209 17.8303 24.3887 9.27174 23.8561 8.91098Z" fill="#343434"/>
<path d="M38.5015 48.6501C38.1455 48.6501 37.8569 48.9387 37.8569 49.2947V52.1555C37.8569 52.5115 38.1455 52.8001 38.5015 52.8001C38.8574 52.8001 39.146 52.5115 39.146 52.1555V49.2947C39.146 48.9387 38.8574 48.6501 38.5015 48.6501Z" fill="#343434"/>
<path d="M22.8195 42.8576C22.3534 38.5893 22.6507 33.4902 22.6537 33.4392C22.672 33.1339 22.4733 32.8577 22.178 32.7783C19.5571 32.0724 17.0855 30.6289 14.8316 28.4878C14.5735 28.2426 14.1656 28.253 13.9204 28.5112C13.6752 28.7693 13.6857 29.1772 13.9438 29.4224C16.2117 31.5768 18.6978 33.0743 21.3404 33.8789C21.2754 35.3022 21.1426 39.3772 21.538 42.9976C22.0767 47.9342 24.5456 52.2927 24.6504 52.4758C24.7694 52.6837 24.9867 52.8001 25.2102 52.8001C25.3187 52.8001 25.4287 52.7726 25.5296 52.7149C25.8386 52.5382 25.9457 52.1445 25.7692 51.8356C25.7449 51.7929 23.3282 47.52 22.8195 42.8576Z" fill="#343434"/>
<path d="M10.0064 22.0537C9.85381 21.7322 9.46941 21.5951 9.14775 21.7476C8.82609 21.9002 8.6891 22.2847 8.84164 22.6062C8.88272 22.6928 9.86937 24.7524 11.8451 27.1595C11.9725 27.3148 12.1574 27.3952 12.3437 27.3952C12.4875 27.3952 12.6323 27.3472 12.7522 27.2488C13.0274 27.023 13.0674 26.6169 12.8415 26.3417C10.9725 24.0646 10.0156 22.0732 10.0064 22.0537Z" fill="#343434"/>
</g>
<defs>
<clipPath id="clip0_4991_5418">
<rect width="44" height="44" fill="white" transform="translate(8.7793 8.80005)"/>
</clipPath>
</defs>
</svg>
