<svg width="62" height="62" viewBox="0 0 62 62" fill="none" xmlns="http://www.w3.org/2000/svg">
<rect width="62" height="62" rx="4" fill="#DFF5F5"/>
<path d="M18.7158 33.2888C18.7158 33.2888 17.1052 30.259 18.7158 26.4893" stroke="#343434" stroke-width="1.45104" stroke-miterlimit="10" stroke-linecap="round" stroke-linejoin="round"/>
<path d="M39.7661 26.4919C39.7661 26.4919 40.8583 31.2531 39.9146 36.3113" stroke="#343434" stroke-width="1.45104" stroke-miterlimit="10" stroke-linecap="round" stroke-linejoin="round"/>
<path d="M30.9712 6C30.9712 6 31.1852 9.86533 33.533 14.3673C34.2276 15.696 35.2845 16.7907 36.5428 17.6035C36.9932 17.8954 37.416 18.2629 37.796 18.6907C37.796 18.6907 37.7985 18.6907 37.7985 18.6932C39.5701 20.2005 39.6003 22.9964 39.6657 22.9863C39.8318 24.3024 39.6959 25.5657 39.326 26.6704C39.0869 27.3776 38.4477 27.8607 37.7054 27.9488C37.7003 27.9488 37.6928 27.9513 37.6852 27.9513C37.2348 28.0092 36.8447 28.2785 36.6132 28.6534C35.5487 28.7314 35.9942 28.3389 35.0052 28.8321C33.8149 29.426 33.0222 28.2281 32.227 28.0293C31.4343 27.8305 31.2279 28.7214 30.4881 28.7214C30.3925 28.7138 30.2968 28.7088 30.2037 28.7088C29.7281 28.6635 29.6023 28.4949 28.7567 28.3263C27.7652 28.1275 27.6646 28.9202 26.8719 29.2196C26.0792 29.5166 25.1858 28.7239 24.3931 28.5251C23.6005 28.3263 22.7071 29.2272 21.8137 28.2357C21.2853 27.6494 20.5832 27.7576 20.0975 27.9413C19.4935 27.9186 18.9676 27.4858 18.8015 26.8944C18.6908 26.4918 18.6052 26.0715 18.5524 25.6387C18.2529 23.2229 18.9701 20.9807 20.2988 19.5916C21.4463 18.3912 22.2743 16.919 22.5863 15.2884C23.5124 10.4542 22.2239 6.00503 22.2239 6.00503" stroke="#343434" stroke-width="1.45104" stroke-miterlimit="10" stroke-linecap="round" stroke-linejoin="round"/>
<path d="M33.6918 55.5998C33.6918 55.5998 33.2389 51.2891 34.1448 47.0765M39.9101 35.8454C39.4219 35.3924 38.6745 35.1961 37.9824 35.1207C37.0891 35.0225 37.1897 33.6334 35.9994 33.1377C34.8091 32.6419 34.0164 33.3365 32.4285 32.7401C31.7818 32.496 31.3968 32.272 31.1024 32.1285L30.3222 32.0178C30.1889 32.0581 30.0354 32.1336 29.8491 32.2443C28.8576 32.8382 29.1546 32.4431 27.2697 32.5413C25.3849 32.6394 25.4856 33.2358 24.6903 33.1351C23.8976 33.037 22.9061 33.2333 22.4104 33.1351C22.1386 33.0798 21.5951 32.6973 21.1295 32.3626L20.0147 32.2619C19.5768 32.2217 19.1717 32.4934 19.0358 32.9112C19.0358 32.9112 18.6382 34.9747 18.6382 35.5082C18.6382 37.232 19.1364 38.8073 19.9543 40.0127V40.0152C20.2764 40.4883 20.6489 40.9061 21.0616 41.2508C22.2116 42.2146 23.1226 43.4326 23.646 44.8368C25.4151 49.598 24.8766 55.5998 24.8766 55.5998" stroke="#343434" stroke-width="1.45104" stroke-miterlimit="10" stroke-linecap="round" stroke-linejoin="round"/>
<path d="M37.2646 55.6V45.4032C37.2646 44.9628 37.3225 44.5225 37.4433 44.0947C37.8862 42.4942 39.225 38.9359 42.1819 39.9123C45.9642 41.1629 40.7626 44.8345 40.6695 46.3343C40.5738 47.8367 40.292 55.5975 40.292 55.5975" stroke="#343434" stroke-width="1.45104" stroke-miterlimit="10" stroke-linecap="round" stroke-linejoin="round"/>
</svg>
