<svg width="62" height="62" viewBox="0 0 62 62" fill="none" xmlns="http://www.w3.org/2000/svg">
<rect width="62" height="62" rx="4" fill="#DFF5F5"/>
<mask id="path-2-inside-1_4991_5404" fill="white">
<path d="M15.0494 37.3541C15.0494 40.7274 17.794 43.4714 21.1667 43.4714C24.5394 43.4714 27.284 40.7274 27.284 37.3541C27.284 33.9809 24.5389 31.2369 21.1667 31.2369C17.794 31.2369 15.0494 33.9809 15.0494 37.3541ZM21.1667 32.9851C23.5759 32.9851 25.5363 34.945 25.5363 37.3541C25.5363 39.7633 23.5759 41.7237 21.1667 41.7237C18.7575 41.7237 16.7971 39.7633 16.7971 37.3541C16.7971 34.945 18.7575 32.9851 21.1667 32.9851ZM21.1667 39.976C22.6123 39.976 23.7885 38.7997 23.7885 37.3541C23.7885 35.9085 22.6123 34.7323 21.1667 34.7323C19.7211 34.7323 18.5449 35.9085 18.5449 37.3541C18.5449 38.7997 19.7211 39.976 21.1667 39.976ZM21.1667 36.4805C21.6487 36.4805 22.0403 36.8726 22.0403 37.3541C22.0403 37.8357 21.6487 38.2277 21.1667 38.2277C20.6847 38.2277 20.2926 37.8357 20.2926 37.3541C20.2926 36.8726 20.6847 36.4805 21.1667 36.4805ZM24.6632 29.8864L25.5373 10.661C25.5591 10.1789 25.9991 9.81806 26.4494 9.82742C26.9314 9.84926 27.3053 10.258 27.2835 10.74L26.4093 29.966C26.388 30.4345 26.0011 30.8001 25.5368 30.8001C25.5233 30.8001 25.5092 30.8001 25.4962 30.799C25.0147 30.7772 24.6408 30.3685 24.6632 29.8864ZM21.1667 29.0523V10.7005C21.1667 10.2179 21.5572 9.8269 22.0403 9.8269C22.5234 9.8269 22.9144 10.2179 22.9144 10.7005V29.0523C22.9144 29.5349 22.5234 29.9259 22.0403 29.9259C21.5572 29.9259 21.1667 29.5349 21.1667 29.0523ZM17.6785 21.3049C17.3707 19.0371 16.7971 14.8153 16.7971 10.7005C16.7971 10.2179 17.1882 9.8269 17.6713 9.8269C18.1543 9.8269 18.5449 10.2179 18.5449 10.7005C18.5449 14.6972 19.108 18.8427 19.4112 21.0693C19.4762 21.5477 19.1408 21.9881 18.6629 22.0526C18.6229 22.0583 18.5833 22.0609 18.5443 22.0609C18.1133 22.0609 17.7383 21.7432 17.6785 21.3049ZM13.9132 23.4592C13.6231 23.0729 13.7016 22.5253 14.0885 22.2357C14.4743 21.9445 15.0219 22.0245 15.3115 22.4104L17.9333 25.9058C18.132 26.1705 18.1637 26.5251 18.016 26.821C17.8678 27.1174 17.5657 27.3041 17.2345 27.3041H16.3603L17.9333 29.4013C18.2235 29.7876 18.145 30.3352 17.7581 30.6248C17.6011 30.7434 17.4175 30.8001 17.235 30.8001C16.9687 30.8001 16.7067 30.6794 16.5351 30.4511L13.9132 26.9557C13.7146 26.6905 13.6829 26.3364 13.8305 26.04C13.9787 25.7441 14.2809 25.5569 14.6121 25.5569H15.4862L13.9132 23.4592ZM49.2394 47.1015L45.0758 45.7137C45.0638 45.7095 45.0519 45.709 45.0399 45.7053L42.4108 44.826L37.2373 43.9524L35.0393 42.3862C35.033 42.3815 35.0283 42.3753 35.0216 42.3706L31.2869 39.703C31.1393 39.5964 30.9614 39.5397 30.7794 39.5397H29.9053C29.4222 39.5397 29.0317 39.9307 29.0317 40.4138C29.0317 40.8964 29.4222 41.2874 29.9053 41.2874H30.4991L33.0638 43.1199C32.5843 43.5427 32.1429 44.0356 31.8844 44.6477C31.7326 44.9867 31.6525 45.3237 31.6525 45.6575V48.9949L28.1565 48.4125V43.9093C28.1565 43.4267 27.766 43.0351 27.2829 43.0351C26.7999 43.0351 26.4088 43.4262 26.4088 43.9093V48.2788H20.1007L19.3925 45.4448C19.2755 44.9768 18.8002 44.6903 18.3332 44.8089C17.8647 44.9259 17.5797 45.4001 17.6973 45.8686L18.3863 48.6241L15.3266 49.8482L12.6153 46.4599L14.9246 42.6113C15.1732 42.1974 15.039 41.6608 14.6251 41.4122C14.2101 41.1637 13.6745 41.2983 13.426 41.7117L10.8047 46.0813C10.6169 46.3943 10.6435 46.7916 10.8712 47.0771L14.3667 51.4461C14.5367 51.6583 14.7899 51.7743 15.0494 51.7743C15.1586 51.7743 15.2689 51.7535 15.3739 51.7119L19.5875 50.026H27.2117L32.3841 50.8882C32.406 50.8923 32.4283 50.8903 32.4507 50.8923C32.4762 50.895 32.5017 50.9001 32.5277 50.9001H34.0305C34.5109 50.9001 34.9041 50.507 34.9041 50.026C34.9041 49.5455 34.5109 49.1524 34.0305 49.1524H33.4013V45.6565V45.6471C33.3862 45.5852 33.4158 45.4843 33.4761 45.3616C33.5942 45.1229 33.8453 44.7948 34.1932 44.4579C34.2951 44.3591 34.4023 44.2597 34.5203 44.162L34.5276 44.1672L36.3985 45.4984L36.7568 45.6466L41.9303 46.503L43.6869 47.0974C43.6661 47.166 43.6489 47.2367 43.6291 47.3059C43.6187 47.3423 43.6094 47.3792 43.599 47.4156C43.5553 47.5711 43.5137 47.7276 43.4747 47.8852C43.4586 47.9507 43.4451 48.0178 43.4295 48.0843C43.3811 48.2939 43.3374 48.505 43.2974 48.7182C43.2729 48.8482 43.2485 48.9777 43.2277 49.1082C43.2137 49.1956 43.2022 49.284 43.1892 49.3719C43.1684 49.5149 43.1487 49.6589 43.132 49.8029C43.1279 49.8362 43.1227 49.869 43.119 49.9023L41.1082 49.623C40.6558 49.5533 40.194 49.8913 40.1217 50.3609L40.1207 50.3656C40.0599 50.8377 40.3921 51.2834 40.8638 51.3536H40.8809L43.7649 51.7644L43.912 51.7732H43.9131H43.9141H48.4818C49.8036 51.7732 50.879 50.6979 50.879 49.376C50.879 48.3428 50.2201 47.4281 49.2394 47.1015ZM48.4818 50.0255H44.8678C44.8725 49.986 44.8756 49.9459 44.8808 49.9064C44.8881 49.8466 44.8969 49.7879 44.9052 49.7286C44.9229 49.6017 44.9401 49.4743 44.9603 49.349C44.9697 49.2928 44.9811 49.2372 44.9905 49.1815C45.0222 49.0006 45.0576 48.8207 45.0961 48.6428C45.1231 48.517 45.1507 48.3917 45.1813 48.2679C45.1954 48.2112 45.211 48.1556 45.2255 48.0989C45.2604 47.9663 45.2957 47.8342 45.3342 47.7037C45.3394 47.6855 45.3457 47.6668 45.3514 47.6481L48.6867 48.7598C48.9529 48.8487 49.1313 49.0963 49.1313 49.3765C49.1313 49.7338 48.8401 50.0255 48.4818 50.0255ZM38.3995 50.0255C38.3995 50.0562 38.3933 50.0848 38.3901 50.1144C38.3449 50.5533 37.9757 50.8996 37.5254 50.8996C37.0449 50.8996 36.6513 50.5065 36.6513 50.0255C36.6513 49.545 37.0449 49.1519 37.5254 49.1519C38.0059 49.1519 38.3995 49.5445 38.3995 50.0255Z"/>
</mask>
<path d="M15.0494 37.3541C15.0494 40.7274 17.794 43.4714 21.1667 43.4714C24.5394 43.4714 27.284 40.7274 27.284 37.3541C27.284 33.9809 24.5389 31.2369 21.1667 31.2369C17.794 31.2369 15.0494 33.9809 15.0494 37.3541ZM21.1667 32.9851C23.5759 32.9851 25.5363 34.945 25.5363 37.3541C25.5363 39.7633 23.5759 41.7237 21.1667 41.7237C18.7575 41.7237 16.7971 39.7633 16.7971 37.3541C16.7971 34.945 18.7575 32.9851 21.1667 32.9851ZM21.1667 39.976C22.6123 39.976 23.7885 38.7997 23.7885 37.3541C23.7885 35.9085 22.6123 34.7323 21.1667 34.7323C19.7211 34.7323 18.5449 35.9085 18.5449 37.3541C18.5449 38.7997 19.7211 39.976 21.1667 39.976ZM21.1667 36.4805C21.6487 36.4805 22.0403 36.8726 22.0403 37.3541C22.0403 37.8357 21.6487 38.2277 21.1667 38.2277C20.6847 38.2277 20.2926 37.8357 20.2926 37.3541C20.2926 36.8726 20.6847 36.4805 21.1667 36.4805ZM24.6632 29.8864L25.5373 10.661C25.5591 10.1789 25.9991 9.81806 26.4494 9.82742C26.9314 9.84926 27.3053 10.258 27.2835 10.74L26.4093 29.966C26.388 30.4345 26.0011 30.8001 25.5368 30.8001C25.5233 30.8001 25.5092 30.8001 25.4962 30.799C25.0147 30.7772 24.6408 30.3685 24.6632 29.8864ZM21.1667 29.0523V10.7005C21.1667 10.2179 21.5572 9.8269 22.0403 9.8269C22.5234 9.8269 22.9144 10.2179 22.9144 10.7005V29.0523C22.9144 29.5349 22.5234 29.9259 22.0403 29.9259C21.5572 29.9259 21.1667 29.5349 21.1667 29.0523ZM17.6785 21.3049C17.3707 19.0371 16.7971 14.8153 16.7971 10.7005C16.7971 10.2179 17.1882 9.8269 17.6713 9.8269C18.1543 9.8269 18.5449 10.2179 18.5449 10.7005C18.5449 14.6972 19.108 18.8427 19.4112 21.0693C19.4762 21.5477 19.1408 21.9881 18.6629 22.0526C18.6229 22.0583 18.5833 22.0609 18.5443 22.0609C18.1133 22.0609 17.7383 21.7432 17.6785 21.3049ZM13.9132 23.4592C13.6231 23.0729 13.7016 22.5253 14.0885 22.2357C14.4743 21.9445 15.0219 22.0245 15.3115 22.4104L17.9333 25.9058C18.132 26.1705 18.1637 26.5251 18.016 26.821C17.8678 27.1174 17.5657 27.3041 17.2345 27.3041H16.3603L17.9333 29.4013C18.2235 29.7876 18.145 30.3352 17.7581 30.6248C17.6011 30.7434 17.4175 30.8001 17.235 30.8001C16.9687 30.8001 16.7067 30.6794 16.5351 30.4511L13.9132 26.9557C13.7146 26.6905 13.6829 26.3364 13.8305 26.04C13.9787 25.7441 14.2809 25.5569 14.6121 25.5569H15.4862L13.9132 23.4592ZM49.2394 47.1015L45.0758 45.7137C45.0638 45.7095 45.0519 45.709 45.0399 45.7053L42.4108 44.826L37.2373 43.9524L35.0393 42.3862C35.033 42.3815 35.0283 42.3753 35.0216 42.3706L31.2869 39.703C31.1393 39.5964 30.9614 39.5397 30.7794 39.5397H29.9053C29.4222 39.5397 29.0317 39.9307 29.0317 40.4138C29.0317 40.8964 29.4222 41.2874 29.9053 41.2874H30.4991L33.0638 43.1199C32.5843 43.5427 32.1429 44.0356 31.8844 44.6477C31.7326 44.9867 31.6525 45.3237 31.6525 45.6575V48.9949L28.1565 48.4125V43.9093C28.1565 43.4267 27.766 43.0351 27.2829 43.0351C26.7999 43.0351 26.4088 43.4262 26.4088 43.9093V48.2788H20.1007L19.3925 45.4448C19.2755 44.9768 18.8002 44.6903 18.3332 44.8089C17.8647 44.9259 17.5797 45.4001 17.6973 45.8686L18.3863 48.6241L15.3266 49.8482L12.6153 46.4599L14.9246 42.6113C15.1732 42.1974 15.039 41.6608 14.6251 41.4122C14.2101 41.1637 13.6745 41.2983 13.426 41.7117L10.8047 46.0813C10.6169 46.3943 10.6435 46.7916 10.8712 47.0771L14.3667 51.4461C14.5367 51.6583 14.7899 51.7743 15.0494 51.7743C15.1586 51.7743 15.2689 51.7535 15.3739 51.7119L19.5875 50.026H27.2117L32.3841 50.8882C32.406 50.8923 32.4283 50.8903 32.4507 50.8923C32.4762 50.895 32.5017 50.9001 32.5277 50.9001H34.0305C34.5109 50.9001 34.9041 50.507 34.9041 50.026C34.9041 49.5455 34.5109 49.1524 34.0305 49.1524H33.4013V45.6565V45.6471C33.3862 45.5852 33.4158 45.4843 33.4761 45.3616C33.5942 45.1229 33.8453 44.7948 34.1932 44.4579C34.2951 44.3591 34.4023 44.2597 34.5203 44.162L34.5276 44.1672L36.3985 45.4984L36.7568 45.6466L41.9303 46.503L43.6869 47.0974C43.6661 47.166 43.6489 47.2367 43.6291 47.3059C43.6187 47.3423 43.6094 47.3792 43.599 47.4156C43.5553 47.5711 43.5137 47.7276 43.4747 47.8852C43.4586 47.9507 43.4451 48.0178 43.4295 48.0843C43.3811 48.2939 43.3374 48.505 43.2974 48.7182C43.2729 48.8482 43.2485 48.9777 43.2277 49.1082C43.2137 49.1956 43.2022 49.284 43.1892 49.3719C43.1684 49.5149 43.1487 49.6589 43.132 49.8029C43.1279 49.8362 43.1227 49.869 43.119 49.9023L41.1082 49.623C40.6558 49.5533 40.194 49.8913 40.1217 50.3609L40.1207 50.3656C40.0599 50.8377 40.3921 51.2834 40.8638 51.3536H40.8809L43.7649 51.7644L43.912 51.7732H43.9131H43.9141H48.4818C49.8036 51.7732 50.879 50.6979 50.879 49.376C50.879 48.3428 50.2201 47.4281 49.2394 47.1015ZM48.4818 50.0255H44.8678C44.8725 49.986 44.8756 49.9459 44.8808 49.9064C44.8881 49.8466 44.8969 49.7879 44.9052 49.7286C44.9229 49.6017 44.9401 49.4743 44.9603 49.349C44.9697 49.2928 44.9811 49.2372 44.9905 49.1815C45.0222 49.0006 45.0576 48.8207 45.0961 48.6428C45.1231 48.517 45.1507 48.3917 45.1813 48.2679C45.1954 48.2112 45.211 48.1556 45.2255 48.0989C45.2604 47.9663 45.2957 47.8342 45.3342 47.7037C45.3394 47.6855 45.3457 47.6668 45.3514 47.6481L48.6867 48.7598C48.9529 48.8487 49.1313 49.0963 49.1313 49.3765C49.1313 49.7338 48.8401 50.0255 48.4818 50.0255ZM38.3995 50.0255C38.3995 50.0562 38.3933 50.0848 38.3901 50.1144C38.3449 50.5533 37.9757 50.8996 37.5254 50.8996C37.0449 50.8996 36.6513 50.5065 36.6513 50.0255C36.6513 49.545 37.0449 49.1519 37.5254 49.1519C38.0059 49.1519 38.3995 49.5445 38.3995 50.0255Z" fill="#343434" stroke="#DFF5F5" stroke-width="0.4" mask="url(#path-2-inside-1_4991_5404)"/>
</svg>
