<svg width="28" height="28" viewBox="0 0 28 28" fill="none" xmlns="http://www.w3.org/2000/svg">
<path d="M14.6473 25.2367L14.6471 25.2364L14.6373 25.2447C14.4598 25.3966 14.2339 25.48 14.0003 25.48C13.7667 25.48 13.5408 25.3966 13.3633 25.2447L13.3623 25.2438C13.1768 25.0831 11.0507 23.2406 8.96856 20.6582C6.87141 18.0571 4.85366 14.7472 4.85366 11.6666C4.85366 9.24074 5.81732 6.91425 7.53266 5.19892C9.24799 3.48358 11.5745 2.51992 14.0003 2.51992C16.4262 2.51992 18.7527 3.48358 20.468 5.19892C22.1833 6.91425 23.147 9.24074 23.147 11.6666C23.147 14.7476 21.1434 18.0577 19.0538 20.6584C16.9694 23.2526 14.8368 25.096 14.6473 25.2367ZM13.8726 23.061L14 23.1807L14.1278 23.0613C15.3766 21.8945 17.136 20.0446 18.5847 17.9941C20.0279 15.9513 21.187 13.6763 21.187 11.6666C21.187 9.76056 20.4298 7.93261 19.0821 6.58485C17.7343 5.23708 15.9063 4.47992 14.0003 4.47992C12.0943 4.47992 10.2663 5.23708 8.91859 6.58485C7.57082 7.93261 6.81366 9.76056 6.81366 11.6666C6.81366 13.6763 7.97276 15.9484 9.41603 17.9898C10.8647 20.0388 12.624 21.8886 13.8726 23.061ZM11.5114 7.9416C12.2481 7.44933 13.1143 7.18659 14.0003 7.18659C15.1885 7.18659 16.328 7.65858 17.1682 8.49875C18.0083 9.33891 18.4803 10.4784 18.4803 11.6666C18.4803 12.5526 18.2176 13.4188 17.7253 14.1555C17.233 14.8923 16.5334 15.4665 15.7147 15.8056C14.8961 16.1446 13.9954 16.2334 13.1263 16.0605C12.2573 15.8876 11.459 15.461 10.8325 14.8344C10.2059 14.2079 9.77927 13.4096 9.60641 12.5406C9.43355 11.6716 9.52226 10.7708 9.86135 9.95216C10.2004 9.13355 10.7746 8.43387 11.5114 7.9416ZM12.6003 13.7619C13.0147 14.0388 13.5019 14.1866 14.0003 14.1866C14.6687 14.1866 15.3096 13.9211 15.7822 13.4485C16.2548 12.9759 16.5203 12.3349 16.5203 11.6666C16.5203 11.1682 16.3725 10.681 16.0956 10.2665C15.8187 9.85214 15.4252 9.52914 14.9647 9.33841C14.5042 9.14768 13.9975 9.09777 13.5087 9.19501C13.0199 9.29224 12.5708 9.53225 12.2184 9.88468C11.866 10.2371 11.626 10.6861 11.5287 11.175C11.4315 11.6638 11.4814 12.1705 11.6721 12.6309C11.8629 13.0914 12.1859 13.485 12.6003 13.7619Z" fill="#134A85" stroke="white" stroke-width="0.373333"/>
</svg>
