<svg width="51" height="51" viewBox="0 0 51 51" fill="none" xmlns="http://www.w3.org/2000/svg">
<g clip-path="url(#clip0_1_495)">
<path d="M44.0389 40.7693C43.021 39.6691 41.6431 38.939 39.8232 38.2604C40.2345 36.2862 40.6252 34.2298 40.9645 32.4407C42.3218 25.2431 41.5198 18.9401 38.6304 14.2102C38.7024 13.9429 38.7435 13.6653 38.7538 13.3568C38.8361 11.3723 37.3246 9.5832 36.2244 8.28763C36.0599 8.09227 35.9056 7.91747 35.772 7.75295C35.6177 7.56787 35.3915 7.45477 35.155 7.45477C34.9186 7.45477 34.6923 7.56787 34.5381 7.75295C34.4044 7.91747 34.2502 8.10255 34.0857 8.28763C33.9006 8.50356 33.7052 8.74005 33.5099 8.97654C31.1347 7.4959 28.3893 6.71445 25.5308 6.71445C21.0992 6.71445 16.9966 8.72977 13.9839 12.38C12.0508 14.714 10.6627 17.6856 9.95323 20.9554C9.18206 24.513 9.19234 28.3792 9.98407 32.4509C10.3337 34.2298 10.7347 36.2759 11.1562 38.2193C9.16149 38.9082 7.73226 39.6177 6.70403 40.7384C4.95605 42.6407 4.55504 45.53 4.42137 50.1981C4.41109 50.6403 4.7504 51.0001 5.19254 51.0207H5.2131H22.7546H28.2968H45.7663H45.8075C46.2496 51.0001 46.5889 50.63 46.5683 50.1878C46.3421 45.057 45.6532 42.507 44.0389 40.7693ZM35.155 9.48037C36.0702 10.5703 37.2115 11.9892 37.1601 13.2848C37.0984 14.6421 36.0907 15.2384 35.1756 15.2179C35.1653 15.2179 35.1448 15.2179 35.1345 15.2179C34.2091 15.2384 33.2014 14.6523 33.15 13.2848C33.0986 11.9892 34.2399 10.56 35.155 9.48037ZM15.2177 13.3774C17.922 10.0973 21.5825 8.29791 25.5308 8.29791C28.0603 8.29791 30.4663 8.97654 32.5639 10.2618C31.9675 11.1975 31.5048 12.2463 31.5563 13.3568C31.6488 15.6497 33.479 16.8425 35.155 16.8116H35.227C36.1319 16.8116 37.047 16.4826 37.7153 15.8245C40.0288 20.1328 40.6149 25.7366 39.4016 32.1528C39.0829 33.8699 38.7024 35.8441 38.3117 37.7463C37.5405 37.4892 36.7077 37.2322 35.8028 36.9546C34.9288 36.6872 33.9417 36.3788 32.8929 36.0394C32.2246 34.9598 31.7927 33.9316 31.5974 32.9445C33.5099 31.4536 34.7232 29.2737 34.7232 26.8471V26.333C34.7232 24.4925 34.7232 21.0582 34.6306 19.8963C34.6101 19.6701 34.497 19.4542 34.3119 19.3205C34.1268 19.1868 33.8903 19.1354 33.6641 19.1868C33.2323 19.2896 32.7798 19.3513 32.3274 19.3925C31.9367 17.8913 30.8056 16.5546 29.9317 15.5161C29.7774 15.331 29.6232 15.1562 29.4895 14.9917C29.3353 14.8066 29.1091 14.6935 28.8726 14.6935C28.6361 14.6935 28.4099 14.8066 28.2556 14.9917C28.122 15.1562 27.9677 15.3413 27.8032 15.5263C27.2994 16.1227 26.703 16.8219 26.2198 17.6034C25.171 16.7911 24.369 15.7423 23.8651 14.5392C23.752 14.2616 23.495 14.0765 23.2071 14.056C22.9089 14.0251 22.6313 14.1691 22.4667 14.4159C21.2946 16.2153 19.3512 17.5005 17.1302 17.953C16.8012 18.0249 16.5442 18.2923 16.503 18.6316C16.3282 19.9786 16.3385 23.4231 16.3488 25.7058V26.8677C16.3488 29.613 17.778 31.7826 19.7933 33.1913C19.5774 34.1064 19.1558 35.0729 18.5492 36.06C17.4079 36.3993 16.3488 36.7078 15.4028 36.9751C14.4157 37.263 13.5109 37.5201 12.6883 37.7669C12.2873 35.8749 11.8966 33.9007 11.5573 32.1836C10.1177 24.7701 11.4544 17.9324 15.2177 13.3774ZM25.2635 20.5749C25.356 22.8679 27.176 24.0606 28.8623 24.0298H28.9343C30.528 24.0298 32.1629 22.9913 32.4302 20.9554C32.6565 20.9348 32.8724 20.9142 33.0883 20.8834C33.1294 22.3949 33.1294 24.9449 33.1294 26.3124V26.8265C33.1294 28.8521 32.0498 30.6721 30.3532 31.8648C30.3018 31.8957 30.2504 31.9265 30.2093 31.9574C28.9137 32.8314 27.2891 33.3558 25.5308 33.3558C24.0194 33.3558 22.4667 32.9342 21.1506 32.1425C21.1095 32.1116 21.0581 32.0808 21.0067 32.0499C19.2175 30.9292 17.9323 29.1195 17.9323 26.8163C17.9323 26.4872 17.9323 26.0862 17.9323 25.6441C17.922 23.6802 17.9117 20.832 18.0248 19.3205C19.9784 18.8064 21.7161 17.737 23.0014 16.2872C23.6389 17.3463 24.4923 18.2717 25.5103 19.012C25.3355 19.5364 25.2429 20.0505 25.2635 20.5749ZM28.8623 16.7088C29.7774 17.7987 30.9188 19.2177 30.8673 20.5132C30.8056 21.8705 29.798 22.4669 28.8829 22.4463C28.8726 22.4463 28.852 22.4463 28.8417 22.4463C27.9266 22.4669 26.9087 21.8808 26.8573 20.5132C26.8058 19.2177 27.9472 17.7987 28.8623 16.7088ZM6.03568 49.4064C6.2002 45.0981 6.70403 43.0725 7.86593 41.8078C9.20262 40.358 11.6909 39.6485 15.8244 38.4661C16.5544 38.2604 17.3565 38.0342 18.2099 37.7771L21.6956 49.4064H6.03568ZM27.7107 49.4064H23.351L19.6905 37.1705C19.7008 37.1602 19.7111 37.1397 19.7214 37.1191C20.4103 36.0497 20.9038 35.0009 21.202 33.9727C22.5593 34.6102 24.0605 34.9495 25.5206 34.9495C27.2171 34.9495 28.8006 34.5382 30.1681 33.8288C30.4355 34.785 30.8673 35.7618 31.4843 36.7695L27.7107 49.4064ZM29.3764 49.4064L32.8827 37.6949C33.7669 37.9725 34.5895 38.2296 35.3401 38.4661C42.9181 40.8104 44.4811 41.2937 44.954 49.4064H29.3764Z" fill="#134A85"/>
<path d="M37.921 8.30819C37.9827 8.30819 38.0444 8.29791 38.1061 8.28763C38.5379 8.18481 38.795 7.76323 38.7024 7.33138C38.6819 7.23884 38.6921 7.19771 38.6921 7.19771C38.7538 7.0846 39.1857 6.90981 39.4222 6.81727C40.2139 6.48823 41.6946 5.8713 41.2319 3.98964C41.129 3.55779 40.6972 3.30073 40.2653 3.40356C39.8335 3.50638 39.5764 3.93823 39.6792 4.37009C39.7923 4.84307 39.7512 4.95618 38.8052 5.33662C38.1061 5.62452 36.8002 6.16948 37.1498 7.69126C37.2321 8.06142 37.5611 8.30819 37.921 8.30819Z" fill="#134A85"/>
<path d="M27.5256 5.61424C27.6696 5.71706 27.8341 5.76847 27.9986 5.76847C28.2454 5.76847 28.4819 5.65536 28.6361 5.44972C28.9034 5.10012 28.8212 4.59629 28.4716 4.33924C28.3893 4.27754 28.379 4.2467 28.379 4.2467C28.3482 4.12331 28.5641 3.71202 28.6875 3.48581C29.0782 2.72492 29.8186 1.29569 28.2454 0.16464C27.8855 -0.0924169 27.3919 -0.0204411 27.1349 0.339438C26.8778 0.699317 26.9498 1.19287 27.3097 1.44992C27.7107 1.73783 27.7415 1.85093 27.2686 2.75577C26.9292 3.42412 26.2815 4.67855 27.5256 5.61424Z" fill="#134A85"/>
<path d="M15.9581 3.26987C16.4516 3.28016 16.5339 3.36242 16.6675 4.37008C16.7601 5.12068 16.9452 6.52935 18.4978 6.58076H18.5286C18.9502 6.58076 19.3101 6.24145 19.3204 5.80959C19.3409 5.36746 18.9913 4.99729 18.5492 4.98701C18.4566 4.98701 18.4155 4.96645 18.4155 4.96645C18.323 4.88419 18.2716 4.42149 18.2304 4.16443C18.1173 3.311 17.922 1.72754 15.9786 1.67612C15.5365 1.66584 15.1766 2.01544 15.1663 2.44729C15.1766 2.89971 15.5262 3.25959 15.9581 3.26987Z" fill="#134A85"/>
</g>
<defs>
<clipPath id="clip0_1_495">
<rect width="51" height="51" fill="white"/>
</clipPath>
</defs>
</svg>
