<svg width="51" height="51" viewBox="0 0 51 51" fill="none" xmlns="http://www.w3.org/2000/svg">
<g clip-path="url(#clip0_1_407)">
<path d="M49.2093 20.2639V20.3448L49.2656 20.403C51.3358 22.5406 51.1695 26.0902 49.6126 28.7867C47.4287 32.5689 43.5255 33.6681 40.9737 32.1951C38.4468 30.7365 37.4089 26.8155 39.6061 23.0103L39.4329 22.9103L39.6061 23.0103C41.0318 20.5411 43.6642 18.6904 46.3981 19.0023L46.6207 19.0277V18.8036V14.9415C46.6207 13.4579 45.4139 12.2513 43.9302 12.2513H39.066H38.857L38.8662 12.4601C39.0913 17.5696 37.7554 22.3218 34.8819 26.6124C33.5012 28.6743 32.772 31.0996 32.772 33.6255C32.772 36.4876 31.7336 39.189 29.8347 41.3011L29.7834 41.3581V41.4348V49.5058C29.7834 50.2205 29.2039 50.7999 28.489 50.7999H22.5118C21.7969 50.7999 21.2174 50.2205 21.2174 49.5058V41.435V41.3583L21.1662 41.3013C19.2673 39.1892 18.2289 36.4877 18.2289 33.6257C18.2289 31.0998 17.4996 28.6744 16.1189 26.6126C13.2455 22.322 11.9096 17.5698 12.1347 12.4603L12.1439 12.2515H11.9349H7.07064C5.58689 12.2515 4.3801 13.4581 4.3801 14.9417V18.8038V19.0279L4.60278 19.0025C7.33995 18.6901 9.97175 20.5458 11.3947 23.0104L11.5679 22.9104L11.3947 23.0104C13.5724 26.7817 12.5773 30.7232 10.0273 32.1952L10.1273 32.3684L10.0273 32.1952C7.50045 33.6538 3.58557 32.5922 1.3883 28.7868C-0.17236 26.0839 -0.332902 22.5384 1.73519 20.403L1.79152 20.3448V20.2639V14.9416C1.79152 12.0312 4.15992 9.66311 7.07064 9.66311H13.198H13.2441L13.2856 9.6429C21.3957 5.69124 29.6053 5.69124 37.7151 9.6429L37.7566 9.66311H37.8027H43.9302C46.8409 9.66311 49.2093 12.0312 49.2093 14.9416V20.2639ZM3.63014 27.4927L3.63015 27.4927C4.25542 28.5755 5.14012 29.4043 6.05909 29.8586C6.97501 30.3115 7.95364 30.4036 8.73301 29.9536C9.64609 29.4265 9.98697 28.4143 9.98818 27.3632C9.98939 26.3095 9.6525 25.1695 9.15295 24.3044C8.52768 23.2216 7.64303 22.3928 6.72408 21.9385C5.80818 21.4857 4.82957 21.3936 4.05011 21.8435L4.05009 21.8435C3.27077 22.2934 2.8613 23.1869 2.79556 24.2065C2.7296 25.2294 3.00503 26.4099 3.63014 27.4927ZM26.9946 48.2116H27.1946V48.0116V40.8399C27.1946 40.4967 27.331 40.1675 27.5737 39.9248C29.2563 38.2424 30.1833 36.0047 30.1833 33.6256C30.1833 30.5834 31.0645 27.6608 32.7309 25.1725C35.4472 21.1166 36.6005 16.7702 36.2426 11.9195L36.234 11.8026L36.1278 11.753C29.0188 8.43257 21.9807 8.43307 14.8728 11.753L14.7666 11.8026L14.758 11.9195C14.4001 16.7702 15.5534 21.1166 18.2697 25.1725L18.4359 25.0612L18.2697 25.1725C19.9362 27.6608 20.8173 30.5835 20.8173 33.6256C20.8173 36.0048 21.7444 38.2424 23.4269 39.9248L23.5683 39.7834L23.4269 39.9248C23.6697 40.1675 23.806 40.4967 23.806 40.8399V48.0116V48.2116H24.006H26.9946ZM42.2678 29.9536L42.3678 29.7804L42.2678 29.9536C43.0472 30.4035 44.0258 30.3114 44.9417 29.8586C45.8607 29.4042 46.7454 28.5755 47.3707 27.4927C47.9959 26.4099 48.2714 25.2294 48.2054 24.2065C48.1396 23.1869 47.7301 22.2934 46.9507 21.8435L46.8507 22.0167L46.9507 21.8435C46.1306 21.3701 45.1318 21.497 44.2177 21.9711C43.3009 22.4466 42.4363 23.2853 41.8479 24.3044C41.2016 25.4236 40.9013 26.7026 41.0358 27.8188C41.1015 28.3647 41.3442 29.4204 42.2678 29.9536Z" fill="#134A85" stroke="white" stroke-width="0.4"/>
<path d="M25.3138 22.4065L25.5004 22.8903L25.687 22.4065C26.4438 20.4444 27.4829 18.342 28.6531 16.5696L28.8579 16.2594H28.4862H22.5147H22.143L22.3478 16.5696C23.5191 18.3439 24.5574 20.4454 25.3138 22.4065ZM19.4346 13.671H31.5662C32.7177 13.671 33.2939 15.0678 32.4814 15.8802C31.1145 17.2469 29.6955 19.6269 28.6196 22.0863C27.5445 24.5436 26.7947 27.12 26.7947 28.8868C26.7947 29.6014 26.2152 30.1809 25.5004 30.1809C24.7855 30.1809 24.206 29.6014 24.206 28.8868C24.206 27.12 23.4562 24.5436 22.3812 22.0863C21.3053 19.6269 19.8862 17.2469 18.5193 15.8802C17.7052 15.0661 18.2854 13.671 19.4346 13.671Z" fill="#134A85" stroke="white" stroke-width="0.4"/>
<path d="M42.7892 4.55408L42.5934 4.32574L42.4586 4.59462L41.7501 6.00767C41.7501 6.00768 41.7501 6.00768 41.7501 6.00768C41.4286 6.64876 40.6499 6.90373 40.0129 6.58451C39.3738 6.26415 39.1156 5.48656 39.436 4.84774L39.436 4.84772L41.1518 1.42574C41.5669 0.597871 42.6913 0.463599 43.2914 1.16337L43.2914 1.16338L44.3243 2.36795L44.5201 2.5963L44.6549 2.32739L45.3632 0.914638C45.3632 0.914635 45.3632 0.914633 45.3632 0.914631C45.6835 0.275637 46.4611 0.0171766 47.1003 0.337603L47.1003 0.337618C47.7394 0.657882 47.9977 1.43548 47.6774 2.07441L47.8562 2.16405L47.6774 2.07442L45.9619 5.4964C45.5468 6.32436 44.4223 6.45863 43.8222 5.75886L42.7892 4.55408Z" fill="#134A85" stroke="white" stroke-width="0.4"/>
<path d="M8.64185 4.59453L8.50703 4.32565L8.31124 4.55399L7.2782 5.75875C6.6738 6.46353 5.55088 6.31881 5.1385 5.49631C5.1385 5.49631 5.13849 5.4963 5.13849 5.4963L3.42303 2.07423L3.42302 2.07422C3.10269 1.43529 3.36106 0.657691 4.00013 0.337426L4.00014 0.337421C4.63913 0.0171476 5.41692 0.275402 5.73726 0.914436L5.73726 0.91444L6.44549 2.3272L6.58029 2.59611L6.7761 2.36776L7.80905 1.16319L7.80906 1.16318C8.41232 0.459616 9.53566 0.601892 9.94865 1.42555L11.6644 4.84753L11.6644 4.84754C11.9849 5.48648 11.7266 6.26407 11.0875 6.58443L11.0875 6.58443C10.4513 6.9034 9.67229 6.64962 9.35037 6.00759L8.64185 4.59453Z" fill="#134A85" stroke="white" stroke-width="0.4"/>
</g>
<defs>
<clipPath id="clip0_1_407">
<rect width="51" height="51" fill="white"/>
</clipPath>
</defs>
</svg>
