<svg width="51" height="51" viewBox="0 0 51 51" fill="none" xmlns="http://www.w3.org/2000/svg">
<g clip-path="url(#clip0_1_386)">
<path d="M43.5313 7.46871C38.7149 2.6525 32.3113 0 25.5 0C18.6887 0 12.2851 2.6525 7.46871 7.46871C2.6525 12.2851 0 18.6887 0 25.5C0 32.3113 2.6525 38.7149 7.46871 43.5313C12.2851 48.3475 18.6887 51 25.5 51C31.6922 51 37.6628 48.7532 42.312 44.6735C42.7254 44.3106 42.7665 43.6813 42.4037 43.2678C42.0407 42.8543 41.4115 42.8132 40.998 43.1761C36.7124 46.9367 31.2085 49.0078 25.5 49.0078C19.2208 49.0078 13.3175 46.5626 8.87749 42.1225C4.4374 37.6825 1.99219 31.7792 1.99219 25.5C1.99219 19.2208 4.4374 13.3175 8.87749 8.87749C13.3175 4.4374 19.2208 1.99219 25.5 1.99219C31.7792 1.99219 37.6825 4.4374 42.1225 8.87749C46.5626 13.3175 49.0078 19.2208 49.0078 25.5C49.0078 29.3337 48.0647 33.1377 46.2804 36.5009C46.0226 36.9869 46.2076 37.5898 46.6935 37.8477C47.1796 38.1056 47.7825 37.9204 48.0403 37.4346C49.9766 33.7849 51 29.658 51 25.5C51 18.6887 48.3475 12.2851 43.5313 7.46871Z" fill="#134A85"/>
<path d="M11.7697 40.6385C11.5712 40.8371 11.4656 41.1103 11.4792 41.3908C11.4926 41.6712 11.6239 41.933 11.8407 42.1116C15.6781 45.2741 20.529 47.0156 25.5 47.0156C37.3638 47.0156 47.0156 37.3638 47.0156 25.5C47.0156 20.529 45.2741 15.6781 42.1116 11.8407C41.933 11.6239 41.6712 11.4926 41.3908 11.4792C41.11 11.4659 40.8372 11.5713 40.6385 11.7697L28.2757 24.133L26.8672 22.7245L39.2303 10.3615C39.4288 10.1629 39.5344 9.88972 39.5208 9.60922C39.5074 9.32882 39.3761 9.06704 39.1593 8.88844C35.3219 5.72595 30.471 3.98438 25.5 3.98438C13.6362 3.98438 3.98438 13.6362 3.98438 25.5C3.98438 30.471 5.72595 35.3219 8.88844 39.1593C9.06704 39.3761 9.32882 39.5074 9.60922 39.5208C9.62525 39.5216 9.64119 39.522 9.65713 39.522C9.9206 39.522 10.1741 39.4175 10.3614 39.2303L22.6452 26.9464L24.0535 28.3547L11.7697 40.6385ZM24.9928 23.6676L23.2566 23.9403C21.8579 24.1605 20.425 23.6935 19.4239 22.6924L14.6739 17.9422C14.0406 17.3091 14.0406 16.2787 14.6739 15.6454C14.9905 15.3288 15.4064 15.1704 15.8223 15.1704C16.2381 15.1704 16.654 15.3288 16.9705 15.6454L24.9928 23.6676ZM26.7357 25.4103L36.8016 35.475C36.8018 35.4759 36.8018 35.4771 36.8017 35.4785C32.3557 36.8958 28.6185 33.6452 26.7855 31.5807C26.3128 31.0483 26.3372 30.2369 26.8409 29.7332C27.0278 29.5464 27.1328 29.293 27.1328 29.0289C27.1328 28.7647 27.0278 28.5114 26.841 28.3245L24.3082 25.7917L26.7357 25.4103ZM41.2494 13.9763C43.6901 17.3067 45.0234 21.3576 45.0234 25.5C45.0234 36.2653 36.2653 45.0234 25.5 45.0234C21.3576 45.0234 17.3067 43.6901 13.9763 41.2494L24.4577 30.768C24.476 31.5318 24.7529 32.292 25.2959 32.9035C26.3075 34.0428 27.9479 35.6214 30.0171 36.6709C31.5328 37.4397 33.0588 37.8248 34.5788 37.8248C35.5281 37.8248 36.4752 37.6745 37.416 37.3736C38.0787 37.1618 38.5725 36.6302 38.7372 35.9518C38.903 35.2678 38.7054 34.5627 38.2084 34.0656L29.6844 25.5416L41.2494 13.9763ZM9.75056 37.0237C7.30993 33.6933 5.97656 29.6424 5.97656 25.5C5.97656 14.7347 14.7347 5.97656 25.5 5.97656C29.6424 5.97656 33.6933 7.30993 37.0237 9.75056L25.4585 21.3158L18.3794 14.2368C16.9694 12.8269 14.6753 12.8268 13.2652 14.2368C11.8552 15.6467 11.8552 17.941 13.2652 19.351L18.0153 24.1012C18.8439 24.9297 19.8767 25.5049 20.9876 25.7868L9.75056 37.0237Z" fill="#134A85"/>
<path d="M44.7206 41.7105C45.2707 41.7105 45.7167 41.2646 45.7167 40.7144C45.7167 40.1643 45.2707 39.7183 44.7206 39.7183C44.1705 39.7183 43.7245 40.1643 43.7245 40.7144C43.7245 41.2646 44.1705 41.7105 44.7206 41.7105Z" fill="#134A85"/>
</g>
<defs>
<clipPath id="clip0_1_386">
<rect width="51" height="51" fill="white"/>
</clipPath>
</defs>
</svg>
