<svg width="47" height="47" viewBox="0 0 47 47" fill="none" xmlns="http://www.w3.org/2000/svg">
<path d="M27.2895 12.5555V5.23188C27.3065 5.00617 27.4082 4.79524 27.5742 4.64133C27.7402 4.48742 27.9582 4.4019 28.1845 4.4019C28.4109 4.4019 28.6289 4.48742 28.7949 4.64133C28.9608 4.79524 29.0625 5.00617 29.0796 5.23188V6.96588C29.0783 7.03839 29.0945 7.11014 29.1267 7.17513C29.1589 7.24011 29.2062 7.29643 29.2646 7.33938C29.323 7.38233 29.3909 7.41066 29.4625 7.42198C29.5342 7.43331 29.6075 7.42731 29.6763 7.40449L33.7563 5.61439C33.8403 5.58421 33.913 5.52883 33.9644 5.4558C34.0157 5.38278 34.0433 5.29567 34.0433 5.20639C34.0433 5.1171 34.0157 5.02999 33.9644 4.95696C33.913 4.88394 33.8403 4.82856 33.7563 4.79838L27.8505 2.24838C26.7693 1.81488 27.4731 0.208385 28.5543 0.621485L37.2243 4.42098C37.3864 4.48643 37.5253 4.59883 37.6231 4.74377C37.7209 4.88872 37.7732 5.05958 37.7732 5.23444C37.7732 5.40929 37.7209 5.58015 37.6231 5.7251C37.5253 5.87004 37.3864 5.98244 37.2243 6.04788L29.3142 9.46488C29.242 9.49552 29.1819 9.54909 29.1432 9.6173C29.1044 9.68552 29.0893 9.76458 29.1 9.84228V12.7187C29.0927 12.7768 29.0986 12.8359 29.1171 12.8915C29.1356 12.9471 29.1664 12.9978 29.2071 13.04L34.5162 18.956C34.5723 19.0631 34.6233 19.1141 34.6794 19.2263L46.4094 45.1496C46.4844 45.2907 46.5199 45.4494 46.5122 45.609C46.5045 45.7686 46.4538 45.9232 46.3655 46.0564C46.2773 46.1896 46.1546 46.2965 46.0107 46.3658C45.8667 46.4351 45.7067 46.4642 45.5475 46.4501H1.44268C1.21274 46.4501 0.992216 46.3587 0.829622 46.1961C0.667028 46.0336 0.575684 45.813 0.575684 45.5831C0.575684 45.3531 0.667028 45.1326 0.829622 44.97C0.992216 44.8074 1.21274 44.7161 1.44268 44.7161H3.12568C3.24194 44.7135 3.35441 44.6743 3.44698 44.6039L10.9287 37.5557C10.9944 37.4806 11.0323 37.3851 11.0358 37.2854L12.5658 28.391C12.5712 28.2871 12.5979 28.1855 12.6445 28.0924C12.691 27.9994 12.7562 27.917 12.8361 27.8504L17.6046 23.6735C17.7004 23.575 17.8175 23.4998 17.9469 23.4537C18.0763 23.4076 18.2146 23.3918 18.3511 23.4076C18.4876 23.4234 18.6186 23.4703 18.7341 23.5446C18.8496 23.619 18.9465 23.7189 19.0173 23.8367L25.5402 35.2301C25.6034 35.3282 25.6452 35.4385 25.663 35.5539C25.6807 35.6692 25.674 35.787 25.6432 35.8996C25.6124 36.0122 25.5583 36.117 25.4843 36.2073C25.4103 36.2975 25.3181 36.3712 25.2138 36.4235C25.1152 36.4835 25.0054 36.5228 24.8911 36.5388C24.7768 36.5549 24.6605 36.5474 24.5492 36.5168C24.4379 36.4862 24.334 36.4332 24.244 36.361C24.1539 36.2889 24.0796 36.199 24.0255 36.0971L18.2421 26.1113C18.2085 26.0586 18.1643 26.0136 18.1122 25.9792C18.06 25.9448 18.0013 25.9218 17.9396 25.9117C17.878 25.9016 17.815 25.9046 17.7546 25.9206C17.6942 25.9365 17.6379 25.965 17.5893 26.0042L14.3202 28.8806C14.2521 28.9617 14.197 29.0529 14.157 29.1509L12.7137 38.0453C12.6865 38.2418 12.5908 38.4225 12.4434 38.5553C10.6023 40.4015 8.59798 42.1916 6.70078 43.9817C6.63702 44.0443 6.59367 44.1248 6.57642 44.2125C6.55917 44.3002 6.56881 44.3911 6.6041 44.4733C6.63938 44.5554 6.69865 44.625 6.77415 44.6729C6.84964 44.7207 6.93784 44.7447 7.02718 44.7416H27.723C27.8027 44.7433 27.8813 44.7231 27.9503 44.683C28.0192 44.643 28.0758 44.5847 28.1137 44.5146C28.1517 44.4445 28.1696 44.3652 28.1654 44.2856C28.1613 44.206 28.1352 44.1291 28.0902 44.0633L26.1522 39.9425C26.071 39.7764 26.0431 39.5892 26.0724 39.4067C26.1016 39.2241 26.1864 39.055 26.3154 38.9225L32.3844 32.6801C32.4377 32.6349 32.4763 32.5749 32.4954 32.5077C32.5145 32.4405 32.5131 32.3691 32.4915 32.3027L27.9423 16.5131C27.9181 16.4291 27.87 16.354 27.8037 16.297C27.7375 16.24 27.656 16.2035 27.5694 16.1922C27.4827 16.1808 27.3946 16.195 27.3159 16.2329C27.2372 16.2709 27.1713 16.3311 27.1263 16.406L22.3068 24.7547C22.2465 24.8551 22.167 24.9427 22.0729 25.0125C21.9788 25.0822 21.8718 25.1328 21.7582 25.1612C21.6445 25.1896 21.5264 25.1953 21.4105 25.1781C21.2946 25.1609 21.1832 25.121 21.0828 25.0607C20.9823 25.0004 20.8947 24.9209 20.825 24.8268C20.7552 24.7327 20.7047 24.6257 20.6763 24.5121C20.6479 24.3984 20.6421 24.2803 20.6594 24.1644C20.6766 24.0485 20.7165 23.9371 20.7768 23.8367L27.2334 12.7901C27.2895 12.7391 27.2895 12.683 27.2895 12.5759V12.5555ZM30.6402 44.7161H43.4922C43.569 44.7139 43.6441 44.6934 43.7113 44.6561C43.7784 44.6189 43.8357 44.5661 43.8782 44.5021C43.9207 44.4381 43.9472 44.3648 43.9554 44.2885C43.9637 44.2121 43.9535 44.1349 43.9257 44.0633L33.1392 20.0933L33.0321 19.9862L31.0278 17.7065C30.9574 17.6365 30.866 17.5916 30.7676 17.5785C30.6691 17.5655 30.5692 17.585 30.483 17.6342C30.3967 17.6834 30.329 17.7595 30.2902 17.8509C30.2513 17.9422 30.2435 18.0438 30.2679 18.14L34.3887 32.5118C34.4373 32.6623 34.4425 32.8235 34.4037 32.9768C34.365 33.1302 34.2837 33.2695 34.1694 33.3788L28.2126 39.4988C28.1396 39.559 28.0888 39.642 28.0685 39.7344C28.0481 39.8269 28.0594 39.9235 28.1004 40.0088L30.2169 44.456C30.2626 44.5321 30.3257 44.5964 30.4011 44.6433C30.4764 44.6903 30.5619 44.7188 30.6504 44.7263L30.6402 44.7161Z" fill="#134A85"/>
</svg>
