<svg width="51" height="51" viewBox="0 0 51 51" fill="none" xmlns="http://www.w3.org/2000/svg">
<g clip-path="url(#clip0_1_337)">
<path d="M42.0656 12.5856C40.693 11.6774 38.8456 11.9982 37.8595 13.3159L33.7006 18.874L35.9122 10.4234C36.3516 8.74438 35.3451 7.01282 33.6687 6.5636C32.0468 6.12902 30.3656 7.03822 29.8414 8.63342L27.4037 16.0513V7.62859C27.4037 5.72223 25.8528 4.17136 23.9465 4.17136C22.0401 4.17136 20.4893 5.72223 20.4893 7.62859V16.7389L17.8005 9.51444C17.4976 8.70055 16.8957 8.05391 16.1056 7.69353C15.3154 7.33316 14.4324 7.30258 13.6193 7.60747C11.9785 8.22264 11.1159 10.0683 11.6965 11.7218L16.6597 25.856C16.7854 26.2141 16.6734 26.6173 16.3811 26.8594C16.0412 27.1408 15.5499 27.1384 15.2127 26.8537L12.0512 24.1846C10.6412 22.9943 8.54168 23.0256 7.16771 24.2577C5.73936 25.5388 5.51584 27.6731 6.64797 29.2221L9.11492 32.5979C9.43943 33.042 10.0627 33.139 10.5068 32.8143C10.951 32.4897 11.0479 31.8666 10.7233 31.4224L8.25631 28.0467C7.73049 27.3271 7.83428 26.3357 8.49776 25.7407C9.13593 25.1685 10.1112 25.1538 10.7661 25.7068L13.9276 28.3758C15.0021 29.283 16.5683 29.2907 17.6516 28.3937C18.5833 27.6223 18.9401 26.3372 18.5393 25.1958L13.5761 11.0616C13.3519 10.423 13.6849 9.71026 14.3187 9.4726C14.6328 9.35487 14.974 9.36672 15.2789 9.50587C15.584 9.64502 15.8165 9.89473 15.9336 10.2091L20.5519 22.6181C20.72 23.07 21.1878 23.3364 21.6619 23.251C22.1363 23.1657 22.4815 22.7528 22.4815 22.2707V7.62859C22.4815 6.82078 23.1388 6.16348 23.9466 6.16348C24.7544 6.16348 25.4117 6.82078 25.4117 7.62859V22.2728C25.4117 22.7622 25.7671 23.179 26.2503 23.2564C26.7332 23.3335 27.2012 23.0486 27.354 22.5839L31.734 9.25526C31.9284 8.6638 32.5516 8.32643 33.1532 8.48769C33.7748 8.65424 34.1481 9.2963 33.9851 9.91894L30.4844 23.2948C30.3638 23.7555 30.5864 24.2373 31.0155 24.4442C31.4446 24.6512 31.9602 24.5251 32.2456 24.1437L39.4545 14.5093C39.8089 14.0357 40.473 13.9204 40.9661 14.2468C41.4682 14.5791 41.6159 15.2641 41.2955 15.7738L34.8844 25.9707C34.0747 27.2586 33.6467 28.7433 33.6467 30.2646V35.2177C33.6467 37.4742 32.8387 39.6611 31.3715 41.3756C31.2171 41.5561 31.1323 41.7858 31.1323 42.0232V49.0079H20.476V41.8584C20.476 41.5292 20.3133 41.2212 20.0414 41.0356C18.7521 40.1558 17.5163 39.1732 16.3685 38.115C15.964 37.7422 15.3339 37.7678 14.961 38.1722C14.5882 38.5767 14.6138 39.2068 15.0182 39.5797C16.1075 40.5839 17.2715 41.5241 18.4839 42.3795V50.004C18.4839 50.5541 18.9298 51 19.4799 51H32.1284C32.6786 51 33.1245 50.5541 33.1245 50.004V42.3818C34.7488 40.3528 35.639 37.8237 35.639 35.2178V30.2647C35.639 29.1191 35.9613 28.0009 36.571 27.0311L42.982 16.8342C43.8737 15.416 43.4625 13.51 42.0656 12.5856Z" fill="#134A85"/>
<path d="M19.9898 3.28595C20.195 3.28595 20.402 3.2228 20.5798 3.09171C21.631 2.31718 22.8779 1.93837 24.1851 1.99784C25.1116 2.03957 26.0196 2.3098 26.8111 2.77935C27.2842 3.05994 27.8953 2.90406 28.176 2.43083C28.4567 1.9577 28.3006 1.34661 27.8275 1.06592C26.7556 0.430036 25.5271 0.0641816 24.2747 0.00780445C22.5323 -0.0710837 20.8002 0.454937 19.3982 1.48795C18.9553 1.81426 18.8608 2.4378 19.1871 2.88065C19.3825 3.1457 19.6841 3.28595 19.9898 3.28595Z" fill="#134A85"/>
<path d="M39.5545 35.1485C39.3085 34.6565 38.7102 34.4571 38.2181 34.703C37.726 34.9491 37.5266 35.5474 37.7726 36.0395C38.1604 36.8149 38.1604 37.7407 37.7726 38.5162C37.1061 39.8494 37.1061 41.4414 37.7726 42.7746C38.1604 43.5501 38.1604 44.4759 37.7726 45.2513C37.1061 46.5846 37.1061 48.1766 37.7726 49.5098C37.9471 49.8588 38.2989 50.0606 38.6643 50.0606C38.8139 50.0606 38.966 50.0268 39.1089 49.9553C39.601 49.7092 39.8004 49.1109 39.5544 48.6188C39.1666 47.8434 39.1666 46.9176 39.5544 46.1421C40.221 44.8089 40.221 43.2169 39.5544 41.8837C39.1666 41.1082 39.1666 40.1824 39.5544 39.4069C40.2212 38.0737 40.2212 36.4817 39.5545 35.1485Z" fill="#134A85"/>
<path d="M45.6233 18.9331C45.0748 18.8966 44.6007 19.3146 44.5656 19.8635C44.5103 20.7287 44.0442 21.5287 43.3189 22.0036C42.0717 22.82 41.2704 24.1956 41.1752 25.6832C41.1199 26.5484 40.6539 27.3483 39.9286 27.8232C39.4683 28.1245 39.3394 28.7418 39.6407 29.2021C39.8318 29.4941 40.1502 29.6527 40.475 29.6527C40.6621 29.6527 40.8514 29.6 41.0197 29.49C42.2668 28.6735 43.0682 27.2979 43.1633 25.8104C43.2187 24.9452 43.6847 24.1452 44.41 23.6704C45.6572 22.8539 46.4586 21.4783 46.5537 19.9907C46.5888 19.4417 46.1723 18.9683 45.6233 18.9331Z" fill="#134A85"/>
<path d="M11.904 40.5784C11.1052 40.2418 10.5029 39.5386 10.2929 38.6974C9.93192 37.2511 8.89632 36.0421 7.52265 35.4632C6.72371 35.1264 6.12149 34.4233 5.91152 33.5821C5.77834 33.0484 5.23798 32.7235 4.70389 32.857C4.1702 32.9901 3.84548 33.5309 3.97876 34.0646C4.33973 35.5109 5.37534 36.7199 6.74901 37.2989C7.54795 37.6356 8.15017 38.3387 8.36014 39.18C8.72121 40.6263 9.75681 41.8353 11.1304 42.4142C11.9293 42.751 12.5315 43.4541 12.7415 44.2952C12.8545 44.748 13.2607 45.0504 13.7071 45.0504C13.787 45.0504 13.8682 45.0407 13.9491 45.0205C14.4828 44.8873 14.8075 44.3465 14.6743 43.8129C14.3133 42.3665 13.2778 41.1575 11.904 40.5784Z" fill="#134A85"/>
<path d="M7.6667 15.0366C8.13276 15.4655 8.37321 16.0977 8.30986 16.7278C8.18396 17.9786 8.66107 19.2333 9.58611 20.0845C9.77746 20.2606 10.0192 20.3476 10.2603 20.3476C10.5292 20.3476 10.7972 20.2394 10.9936 20.026C11.3661 19.6212 11.3398 18.991 10.935 18.6185C10.4689 18.1896 10.2285 17.5574 10.2919 16.9273C10.4178 15.6767 9.94061 14.4218 9.01557 13.5707C8.54951 13.1419 8.30906 12.5096 8.37251 11.8795C8.42759 11.3321 8.02847 10.8438 7.48114 10.7887C6.9341 10.7334 6.44553 11.1326 6.39035 11.6801C6.26454 12.9307 6.74176 14.1856 7.6667 15.0366Z" fill="#134A85"/>
<path d="M33.2362 4.23737C34.8684 4.23737 36.384 4.97426 37.3944 6.25918C37.5909 6.50909 37.8829 6.63958 38.1781 6.63958C38.3935 6.63958 38.6106 6.56995 38.793 6.42642C39.2254 6.08636 39.3003 5.46014 38.9604 5.02775C37.5699 3.25934 35.4835 2.24515 33.2363 2.24515C32.6862 2.24515 32.2402 2.69108 32.2402 3.24121C32.2402 3.79134 32.6861 4.23737 33.2362 4.23737Z" fill="#134A85"/>
<path d="M8.83924 7.33345C9.02182 7.47699 9.23876 7.54661 9.45421 7.54661C9.74924 7.54661 10.0414 7.41613 10.2379 7.16622C11.2483 5.8813 12.7638 5.14441 14.3961 5.14441C14.9462 5.14441 15.3921 4.69847 15.3921 4.14835C15.3921 3.59822 14.9462 3.15228 14.3961 3.15228C12.1488 3.15228 10.0625 4.16647 8.672 5.93488C8.33194 6.36717 8.40685 6.9934 8.83924 7.33345Z" fill="#134A85"/>
<path d="M46.9549 11.6231C45.9913 9.59031 44.182 8.13854 41.9907 7.64011C41.454 7.5178 40.9204 7.85397 40.7985 8.39045C40.6765 8.92683 41.0123 9.46062 41.5488 9.58264C43.1404 9.9447 44.4547 10.9994 45.1549 12.4764C45.3252 12.8357 45.6828 13.046 46.0556 13.046C46.1986 13.046 46.3439 13.0151 46.4815 12.9498C46.9786 12.7142 47.1906 12.1201 46.9549 11.6231Z" fill="#134A85"/>
<path d="M12.6119 36.59C13.1621 36.59 13.608 36.144 13.608 35.5939C13.608 35.0437 13.1621 34.5978 12.6119 34.5978C12.0618 34.5978 11.6158 35.0437 11.6158 35.5939C11.6158 36.144 12.0618 36.59 12.6119 36.59Z" fill="#134A85"/>
</g>
<defs>
<clipPath id="clip0_1_337">
<rect width="51" height="51" fill="white"/>
</clipPath>
</defs>
</svg>
