<svg width="51" height="51" viewBox="0 0 51 51" fill="none" xmlns="http://www.w3.org/2000/svg">
<g clip-path="url(#clip0_27_73)">
<path d="M44.1748 9.89325C43.5923 8.51386 42.4862 7.4078 41.1068 6.82528L48.2907 1.43442L47.3344 0.159424L39.0406 6.38302C38.9864 6.38142 38.933 6.37505 38.8788 6.37505C38.3951 6.37505 37.9122 6.43641 37.4428 6.55753C33.8991 7.47155 30.4949 8.8358 27.3042 10.6088L26.2921 1.50614C26.2475 1.10213 25.9065 0.796924 25.5 0.796924H15.9375C15.6507 0.796924 15.3853 0.951518 15.2443 1.20094C15.1024 1.45036 15.1064 1.75716 15.2546 2.00339L19.3115 8.76567H15.1407C14.8434 8.76567 14.5709 8.93142 14.4338 9.19439C14.2968 9.45816 14.3175 9.77611 14.488 10.0192L19.0693 16.5639C12.9596 22.1882 8.63578 29.3888 6.55753 37.442C6.43641 37.9114 6.37505 38.3943 6.37505 38.878C6.37505 38.933 6.38142 38.9856 6.38302 39.0398L0.159424 47.3336L1.43442 48.2907L6.82528 41.1068C7.4078 42.4862 8.51386 43.5923 9.89325 44.1748L2.70942 49.5657L3.66567 50.8407L11.9588 44.6171C12.0129 44.6187 12.0663 44.625 12.1213 44.625C12.605 44.625 13.0879 44.5637 13.5573 44.4426C17.3177 43.4712 20.8957 42.0041 24.2394 40.0805L23.2178 41.832C23.0736 42.079 23.0728 42.3826 23.2154 42.6305C23.358 42.8783 23.621 43.0313 23.9063 43.0313H25.9885L23.9469 49.1545C23.8657 49.3975 23.9071 49.6653 24.0569 49.8725C24.2067 50.0797 24.4474 50.2032 24.7032 50.2032H32.6719C32.8951 50.2032 33.107 50.1099 33.2584 49.9458C33.409 49.7824 33.4847 49.5625 33.4664 49.3402L32.6695 39.7777C32.6345 39.3641 32.2894 39.0469 31.875 39.0469H30.2813V35.8817C37.2731 30.0757 42.1691 22.3667 44.4426 13.5581C44.5637 13.0879 44.625 12.605 44.625 12.1213C44.625 12.0663 44.6187 12.0137 44.6171 11.9595L50.8407 3.66567L49.5657 2.70942L44.1748 9.89325ZM20.7188 10.3594C21.0057 10.3594 21.271 10.2048 21.4121 9.95541C21.5539 9.70599 21.5499 9.39919 21.4017 9.15296L17.3448 2.39067H24.7868L26.1646 14.7877L22.5652 13.5876C22.2759 13.4911 21.9571 13.5684 21.7436 13.786C21.53 14.0035 21.4599 14.3247 21.5619 14.6115L23.5557 20.1945L16.6707 10.3594H20.7188ZM19.9913 17.8811L25.6443 25.9567C25.7981 26.1766 26.0443 26.2969 26.2969 26.2969C26.4204 26.2969 26.5455 26.2682 26.6619 26.2085C27.0165 26.0252 27.1807 25.6084 27.0468 25.2323L23.613 15.618L26.8412 16.6946C27.0994 16.779 27.3831 16.7288 27.5942 16.5583C27.8054 16.3878 27.9154 16.1208 27.8851 15.8507L27.4946 12.3357C30.7347 10.4654 34.2107 9.03821 37.8405 8.10188C38.1799 8.01342 38.529 7.9688 38.8788 7.9688C39.584 7.9688 40.2383 8.16164 40.82 8.47322L28.1688 19.3171L29.2063 20.5275L42.0719 9.50039C42.1794 9.63108 42.2854 9.76097 42.3763 9.90361C34.9167 23.7828 23.6027 34.9215 9.60797 42.1627C9.5251 42.099 9.44461 42.0336 9.36731 41.9643L21.3563 25.9782L20.0813 25.0219L9.13622 39.6151L9.88369 37.6532C12.24 31.4686 15.8069 25.9606 20.4853 21.2822L19.3585 20.1554C14.5199 24.994 10.8312 30.6901 8.39433 37.0858L8.09391 37.8739C8.0963 37.8628 8.0971 37.8516 8.10028 37.8413C10.0837 30.1554 14.1908 23.276 19.9913 17.8811ZM31.1419 40.6407L31.8057 48.6094H25.8084L27.85 42.4862C27.9313 42.2432 27.8899 41.9754 27.7401 41.7683C27.5903 41.5611 27.3496 41.4375 27.0938 41.4375H25.2937L28.6875 35.6196V39.8438C28.6875 40.2845 29.0445 40.6407 29.4844 40.6407H31.1419ZM42.899 13.1596C40.8224 21.2089 36.4738 28.3074 30.2813 33.7891V32.6719C30.2813 32.3117 30.0398 31.9962 29.6924 31.9021C29.345 31.8089 28.9776 31.9595 28.7959 32.2703L25.9575 37.136C22.044 39.7761 17.7401 41.7173 13.1588 42.899C12.8202 42.9867 12.4711 43.0313 12.1213 43.0313C11.9022 43.0313 11.6918 42.9994 11.4822 42.9668C24.7773 35.8156 35.622 25.1757 43.0209 12.0233C43.0225 12.0568 43.0313 12.0878 43.0313 12.1213C43.0313 12.4711 42.9867 12.8202 42.899 13.1596Z" fill="#134A85"/>
</g>
<defs>
<clipPath id="clip0_27_73">
<rect width="51" height="51" fill="white"/>
</clipPath>
</defs>
</svg>
