<svg width="56" height="54" viewBox="0 0 56 54" fill="none" xmlns="http://www.w3.org/2000/svg">
<rect x="0.13916" y="0.515625" width="55.5645" height="53" rx="26.5" fill="#213C73"/>
<path d="M38.7392 33.0156H36.7861V31.0781C36.7878 31.0051 36.7749 30.9325 36.7482 30.8645C36.7215 30.7965 36.6815 30.7346 36.6306 30.6822C36.5797 30.6298 36.5189 30.5881 36.4517 30.5595C36.3845 30.5309 36.3122 30.516 36.2392 30.5156H34.4892C34.3384 30.5152 34.1935 30.5739 34.0855 30.679C33.9774 30.7841 33.9148 30.9274 33.9111 31.0781V33.0156H31.9267C31.7759 33.0152 31.631 33.0739 31.523 33.179C31.4149 33.2841 31.3523 33.4274 31.3486 33.5781V35.3281C31.3523 35.4788 31.4149 35.6221 31.523 35.7272C31.631 35.8324 31.7759 35.891 31.9267 35.8906H33.9111V37.8906C33.9148 38.0413 33.9774 38.1846 34.0855 38.2897C34.1935 38.3949 34.3384 38.4535 34.4892 38.4531H36.2392C36.3122 38.4527 36.3845 38.4378 36.4517 38.4092C36.5189 38.3806 36.5797 38.3389 36.6306 38.2866C36.6815 38.2342 36.7215 38.1722 36.7482 38.1042C36.7749 38.0363 36.7878 37.9636 36.7861 37.8906V35.8906H38.7392C38.8122 35.8902 38.8845 35.8753 38.9517 35.8467C39.0189 35.8181 39.0797 35.7764 39.1306 35.7241C39.1815 35.6717 39.2215 35.6097 39.2482 35.5417C39.2749 35.4738 39.2878 35.4011 39.2861 35.3281V33.5781C39.2878 33.5051 39.2749 33.4325 39.2482 33.3645C39.2215 33.2965 39.1815 33.2346 39.1306 33.1822C39.0797 33.1298 39.0189 33.0881 38.9517 33.0595C38.8845 33.0309 38.8122 33.016 38.7392 33.0156ZM38.4111 35.0156H36.4892C36.3384 35.0152 36.1935 35.0739 36.0855 35.179C35.9774 35.2841 35.9148 35.4274 35.9111 35.5781V37.5781H34.7861V35.5781C34.7878 35.5051 34.7749 35.4325 34.7482 35.3645C34.7215 35.2965 34.6815 35.2346 34.6306 35.1822C34.5797 35.1298 34.5189 35.0881 34.4517 35.0595C34.3845 35.0309 34.3122 35.016 34.2392 35.0156H32.2236V33.8906H34.2392C34.3122 33.8902 34.3845 33.8753 34.4517 33.8467C34.5189 33.8181 34.5797 33.7764 34.6306 33.7241C34.6815 33.6717 34.7215 33.6097 34.7482 33.5417C34.7749 33.4738 34.7878 33.4011 34.7861 33.3281V31.3906H35.9111V33.3281C35.9148 33.4788 35.9774 33.6221 36.0855 33.7272C36.1935 33.8324 36.3384 33.891 36.4892 33.8906H38.4111V35.0156Z" fill="white"/>
<path d="M35.4635 26.838C34.255 26.8384 33.0644 27.1311 31.9935 27.6912C30.9226 28.2513 30.0031 29.0622 29.3135 30.0546C29.1957 30.0184 29.0842 29.9831 28.9791 29.9489L28.5544 28.7445C29.8669 27.7612 30.2264 26.2258 30.3246 25.482C31.2072 25.2426 32.0177 24.2055 32.3425 22.8312C32.5175 22.0879 32.2612 21.3958 31.7046 21.109C31.5504 21.0296 31.3794 20.9881 31.2059 20.988C31.2346 20.7723 31.2646 20.5085 31.2957 20.1846C31.3683 19.4266 31.4144 18.6611 31.4144 18.4671C31.4144 18.3296 31.4172 18.1878 31.4201 18.0378C31.4432 16.841 31.4721 15.3516 30.1519 14.0163C28.9672 12.8181 27.2899 12.1575 25.5509 12.2056C23.8184 12.253 22.1939 12.9922 21.0936 14.2338C21.0599 14.272 21.0256 14.3104 20.9907 14.3491C20.3271 15.0906 19.4182 16.1062 19.4834 18.7069C19.4897 18.9615 19.7334 20.1281 19.9859 21.0172C19.8387 21.0318 19.696 21.0759 19.5662 21.1468C19.0319 21.4356 18.7869 22.1125 18.9566 22.8313C19.2816 24.208 20.0947 25.2463 20.9794 25.4831C21.0851 26.2125 21.4553 27.7327 22.7343 28.7168L22.1741 29.8688C21.7741 29.9942 21.3233 30.1184 20.858 30.2488C17.8506 31.0917 13.7241 32.246 13.7241 35.9962V39.9173C13.7241 40.8436 14.2196 41.8281 15.1089 41.8281H35.4897C35.4937 41.8281 35.4977 41.8276 35.5017 41.8275C37.4853 41.8161 39.3834 41.0189 40.7802 39.6105C42.177 38.202 42.9585 36.2973 42.9535 34.3137C42.9484 32.3301 42.1572 30.4294 40.7533 29.0282C39.3493 27.6269 37.4471 26.8393 35.4635 26.838ZM21.6429 14.9325C21.6786 14.8925 21.7139 14.853 21.7487 14.8137C22.6889 13.7526 24.0835 13.1206 25.5749 13.0799C27.0734 13.0383 28.5147 13.6044 29.5298 14.6312C30.5902 15.7036 30.5664 16.9345 30.5454 18.0204C30.5424 18.1749 30.5396 18.3208 30.5396 18.4667C30.5396 18.5595 30.5302 18.7519 30.5142 18.9967C30.3026 18.2103 30.0068 17.4507 29.5995 17.0066L29.5671 16.9418C29.5302 16.8679 29.4731 16.806 29.4024 16.7632C29.3317 16.7204 29.2503 16.6985 29.1677 16.7C29.0851 16.7015 29.0046 16.7264 28.9355 16.7718C28.8665 16.8172 28.8117 16.8812 28.7775 16.9564C28.0726 18.507 27.3742 18.4445 26.2174 18.3413C26.0831 18.3293 25.9464 18.3171 25.8076 18.3075C25.3674 18.2763 25.2081 18.5335 25.1601 18.645C25.0174 18.9763 25.2156 19.334 25.5784 19.7581C24.4235 19.6202 24.1307 18.7755 23.867 18.0135C23.6839 17.4846 23.4765 16.8851 22.8732 16.8851C22.5826 16.8794 22.294 16.936 22.027 17.051C21.76 17.166 21.5207 17.3369 21.3252 17.552C20.8769 18.0333 20.6242 18.7194 20.4836 19.3918C20.4267 19.159 20.3849 18.9228 20.3586 18.6846C20.3016 16.4311 21.0141 15.6349 21.6429 14.9325ZM21.8146 25.079C21.8093 24.9663 21.761 24.8599 21.6796 24.7818C21.5982 24.7036 21.4899 24.6597 21.3771 24.6591C21.3708 24.6591 21.3646 24.6591 21.358 24.6591C20.7172 24.6591 20.0407 23.6138 19.808 22.63C19.7189 22.2525 19.8359 21.9955 19.9822 21.9163C20.1476 21.8271 20.3241 21.9843 20.3922 22.0561C20.4494 22.1163 20.5225 22.159 20.6031 22.1792C20.6836 22.1994 20.7683 22.1962 20.8471 22.1701C20.9259 22.1439 20.9957 22.0959 21.0482 22.0316C21.1008 21.9673 21.1339 21.8893 21.1438 21.8069C21.1869 21.7318 21.2067 21.6457 21.2006 21.5593C21.1541 20.8883 21.2011 18.9673 21.9656 18.148C22.0738 18.028 22.2055 17.9317 22.3527 17.8651C22.4998 17.7985 22.6591 17.7631 22.8206 17.7611C22.8864 17.856 22.9741 18.1095 23.0399 18.2998C23.3642 19.2365 23.9677 20.9798 26.6422 20.5982C26.7242 20.5865 26.8012 20.5518 26.8642 20.498C26.9272 20.4443 26.9737 20.3738 26.9983 20.2947C27.0228 20.2156 27.0244 20.1311 27.0028 20.0512C26.9812 19.9712 26.9374 19.899 26.8764 19.843C26.6643 19.648 26.463 19.4416 26.2734 19.2247C27.3019 19.314 28.3511 19.3476 29.2182 17.9832C29.7662 19.011 30.0516 21.0546 30.1214 21.8662C30.1308 21.9753 30.1807 22.0768 30.2614 22.1509C30.342 22.2249 30.4474 22.2661 30.5569 22.2662C30.5694 22.2662 30.5819 22.2656 30.5948 22.2645C30.6741 22.2577 30.75 22.2294 30.8143 22.1827C30.8787 22.1359 30.9291 22.0725 30.9601 21.9993C31.0464 21.9139 31.1782 21.8218 31.3038 21.8863C31.4643 21.969 31.5801 22.2511 31.4909 22.6301C31.2583 23.6141 30.5818 24.6593 29.9409 24.6593H29.9299C29.845 24.6579 29.7615 24.6811 29.6894 24.726C29.6283 24.7641 29.5776 24.8168 29.5418 24.8793C29.506 24.9418 29.4862 25.0122 29.4842 25.0842C29.4655 25.442 29.2961 27.2713 27.8054 28.1977C27.803 28.1991 27.8007 28.2008 27.7984 28.2023C27.218 28.5603 26.495 28.742 25.6494 28.742C24.8062 28.742 24.0848 28.5562 23.5051 28.1897C22.0356 27.2619 21.839 25.4356 21.8145 25.079H21.8146ZM22.879 30.4201L23.4852 29.1736C24.1131 29.4677 24.8385 29.6168 25.6495 29.6168C26.4487 29.6168 27.1646 29.4752 27.7857 29.1961L28.2249 30.4416C28.2469 30.504 28.2827 30.5607 28.3297 30.6072C28.3767 30.6538 28.4337 30.689 28.4963 30.7104C28.6053 30.7476 28.7207 30.7855 28.8425 30.8242C28.6281 31.2268 28.4511 31.6482 28.3139 32.0832C27.909 32.5627 27.0593 33.2961 25.6495 33.2961C25.1738 33.3013 24.7023 33.2061 24.2658 33.0167C23.8293 32.8274 23.4377 32.5482 23.1164 32.1973C22.6549 31.7023 22.3937 31.1505 22.3056 30.7441C22.4129 30.7111 22.5181 30.6781 22.6209 30.6448C22.6768 30.6266 22.7284 30.5973 22.7728 30.5587C22.8171 30.5201 22.8533 30.4729 22.879 30.4201ZM14.5991 39.9173V35.9962C14.5991 32.9095 18.2038 31.9014 21.094 31.0913C21.2163 31.057 21.3407 31.0232 21.4597 30.9896C21.7763 32.3195 23.2024 34.1709 25.6472 34.1709C26.4851 34.1815 27.3078 33.9471 28.0142 33.4965C27.8471 34.9911 28.1333 36.5013 28.8357 37.8311C29.538 39.1608 30.6241 40.2486 31.9527 40.9531H15.1089C14.8304 40.9531 14.5991 40.3963 14.5991 39.9173ZM35.4635 40.9531C34.1542 40.9531 32.8743 40.5649 31.7856 39.8374C30.697 39.11 29.8485 38.0761 29.3475 36.8665C28.8464 35.6568 28.7153 34.3258 28.9708 33.0416C29.2262 31.7575 29.8567 30.5779 30.7825 29.6521C31.7083 28.7263 32.8879 28.0958 34.172 27.8403C35.4562 27.5849 36.7873 27.716 37.9969 28.217C39.2065 28.7181 40.2404 29.5666 40.9679 30.6552C41.6953 31.7439 42.0835 33.0238 42.0836 34.3331C42.0816 36.0882 41.3835 37.7709 40.1424 39.012C38.9014 40.2531 37.2186 40.9512 35.4635 40.9531Z" fill="white"/>
</svg>
