<svg width="51" height="51" viewBox="0 0 51 51" fill="none" xmlns="http://www.w3.org/2000/svg">
<g clip-path="url(#clip0_1_213)">
<path d="M20.9536 37.1649H18.2932C17.8804 37.1649 17.546 37.4994 17.546 37.9121C17.546 38.3247 17.8804 38.6592 18.2932 38.6592H20.9536C21.3664 38.6592 21.7008 38.3247 21.7008 37.9121C21.7008 37.4994 21.3663 37.1649 20.9536 37.1649Z" fill="#134A85"/>
<path d="M21.1122 12.9993C19.4908 13.9459 18.2662 13.0904 18.2041 13.0455C17.8758 12.8006 17.4107 12.866 17.1626 13.1928C16.913 13.5215 16.9773 13.9902 17.3058 14.2396C17.3609 14.2814 18.2542 14.9423 19.5885 14.9423C20.2542 14.9423 21.0298 14.7778 21.8655 14.2898C22.2219 14.0818 22.3421 13.6242 22.134 13.2679C21.9261 12.9114 21.4686 12.7914 21.1122 12.9993Z" fill="#134A85"/>
<path d="M19.6233 11.7482C20.036 11.7482 20.3705 11.4137 20.3705 11.0011V10.4244C20.3705 10.0118 20.036 9.67725 19.6233 9.67725C19.2106 9.67725 18.8762 10.0118 18.8762 10.4244V11.0011C18.8762 11.4138 19.2107 11.7482 19.6233 11.7482Z" fill="#134A85"/>
<path d="M36.6404 17.673H39.5569C40.441 17.673 41.1604 16.9536 41.1604 16.0695V13.5927H43.637C44.5212 13.5927 45.2406 12.8734 45.2406 11.9892V9.07276C45.2406 8.18863 44.5212 7.46928 43.637 7.46928H41.1604V4.99252C41.1604 4.10839 40.441 3.38904 39.5569 3.38904H36.6404C35.7562 3.38904 35.0368 4.10839 35.0368 4.99252V7.46918H32.5602C31.676 7.46918 30.9567 8.18853 30.9567 9.07266V11.9892C30.9567 12.8734 31.676 13.5927 32.5602 13.5927H35.0368V16.0695C35.0368 16.9536 35.7562 17.673 36.6404 17.673ZM32.5602 12.0984C32.5 12.0984 32.451 12.0494 32.451 11.9892V9.07276C32.451 9.01259 32.4999 8.96358 32.5602 8.96358H35.784C36.1967 8.96358 36.5311 8.62905 36.5311 8.21643V4.99252C36.5311 4.93235 36.5801 4.88334 36.6404 4.88334H39.5569C39.617 4.88334 39.6661 4.93235 39.6661 4.99252V8.21633C39.6661 8.62895 40.0005 8.96348 40.4132 8.96348H43.637C43.6972 8.96348 43.7463 9.01249 43.7463 9.07266V11.9892C43.7463 12.0494 43.6973 12.0984 43.637 12.0984H40.4132C40.0005 12.0984 39.6661 12.4329 39.6661 12.8456V16.0695C39.6661 16.1296 39.6171 16.1787 39.5569 16.1787H36.6404C36.5802 16.1787 36.5311 16.1296 36.5311 16.0695V12.8456C36.5311 12.4329 36.1967 12.0984 35.784 12.0984H32.5602Z" fill="#134A85"/>
<path d="M38.0986 0.000616258C34.0283 0.000616258 30.4902 2.32216 28.7382 5.71044C27.7671 2.41421 24.7155 0.000616258 21.109 0.000616258H18.1377C14.2175 -0.0509869 10.5422 3.14453 10.2204 7.20693H9.64183C8.1544 7.20693 6.94431 8.41702 6.94431 9.90454C6.94431 11.392 8.1544 12.6022 9.64183 12.6022H10.2204C10.4834 15.4104 12.2121 17.7984 14.6322 18.992C13.9245 19.3141 13.2743 19.7406 12.7028 20.254C9.83917 21.5509 7.80902 24.2775 7.3938 27.3993L6.86781 31.3601C6.70204 32.6073 6.921 33.8378 7.44421 34.9155C5.52762 34.8411 3.68774 35.9177 2.8308 37.7588C2.14821 39.2242 2.2294 40.9273 3.04817 42.3146C4.39235 44.59 6.89152 47.4024 11.1995 48.0417L12.7064 49.7681C13.4141 50.5788 14.422 50.9998 15.4369 50.9998C16.1895 50.9998 16.9459 50.7682 17.5863 50.2922C19.2243 49.086 19.5232 46.6681 18.2082 45.0685H21.0827C19.7889 46.6132 20.0414 49.0681 21.7044 50.2922C22.3449 50.7682 23.1012 50.9998 23.8538 50.9998C24.8688 50.9998 25.8768 50.5787 26.5844 49.7681L28.0914 48.0417C32.3995 47.4024 34.8987 44.5899 36.243 42.3142C37.061 40.9284 37.1421 39.2256 36.4603 37.7589C35.5966 35.9038 33.7351 34.8243 31.8022 34.9168C32.3259 33.8388 32.5452 32.6077 32.3793 31.36L31.8533 27.399C31.4381 24.277 29.4075 21.5501 26.5435 20.2534C25.972 19.7402 25.322 19.3138 24.6145 18.9918C26.3621 18.13 27.7482 16.6452 28.4834 14.8291C29.8664 17.9275 32.7058 20.2621 36.2238 20.8946C36.2686 20.9027 36.3131 20.9066 36.3569 20.9066C36.7117 20.9066 37.0265 20.653 37.0914 20.2915C37.1644 19.8854 36.8943 19.497 36.4882 19.4239C32.1854 18.6505 29.0625 14.9104 29.0625 10.5308C29.0625 5.54826 33.116 1.49462 38.0985 1.49462C43.0811 1.49462 47.1346 5.54816 47.1346 10.5308C47.1346 14.9042 44.0166 18.6434 39.7208 19.4217C39.3148 19.4953 39.0453 19.8841 39.1188 20.2901C39.1922 20.6962 39.5807 20.9658 39.9872 20.8921C44.9946 19.9849 48.6289 15.6273 48.6289 10.5308C48.629 4.7246 43.9051 0.000616258 38.0986 0.000616258ZM8.43872 9.90464C8.43872 9.24108 8.97846 8.70133 9.64193 8.70133H10.1843V11.108H9.64193C8.97846 11.1079 8.43872 10.5681 8.43872 9.90464ZM18.5049 19.8086H20.7419V21.5109C20.7419 22.1276 20.2401 22.6294 19.6234 22.6294C19.0066 22.6294 18.5048 22.1276 18.5048 21.5109V19.8086H18.5049ZM8.34906 31.557L8.87505 27.5963C9.05875 26.2151 9.62051 24.9268 10.4627 23.858C10.2826 24.5045 10.1843 25.1847 10.1843 25.8877C10.1843 25.8877 10.1843 35.7088 10.1846 35.782C8.8107 35.1759 8.13687 33.0503 8.34906 31.557ZM4.33477 41.5549C3.76653 40.5921 3.71065 39.4089 4.18544 38.3897C4.99615 36.6608 7.06475 35.9112 8.81697 36.7726C9.27333 37.1906 10.0178 37.729 10.7527 37.989C11.1347 38.3135 11.5034 38.6817 11.8579 39.0934C11.1426 39.1662 10.4523 39.4292 9.8576 39.8712C8.95505 40.5419 8.36868 41.5678 8.24864 42.6858C8.1286 43.8039 8.48384 44.9309 9.22322 45.7779L9.47158 46.0625C6.90506 45.0968 5.28982 43.1715 4.33477 41.5549ZM16.695 49.0931C15.8125 49.7489 14.5551 49.6139 13.8322 48.7857L10.3491 44.7954C9.87593 44.2533 9.65777 43.5609 9.73457 42.8455C9.81138 42.1301 10.1717 41.4999 10.7491 41.0707C11.8711 40.159 13.9441 40.55 14.5887 42.0529C14.9593 43.2395 16.3969 45.2107 17.1321 46.126C17.8295 47.0643 17.6335 48.3955 16.695 49.0931ZM17.0975 43.5744C16.7168 43.2171 16.147 41.867 15.9465 41.4289C15.5457 40.5569 14.8606 39.8707 14.0125 39.4676C13.3014 38.4101 12.5221 37.5231 11.6789 36.8144V35.6119H14.7943C15.207 35.6119 15.5414 35.2774 15.5414 34.8648C15.5414 34.4521 15.207 34.1176 14.7943 34.1176H11.6786V25.8878C11.6786 22.7888 14.01 20.2258 17.0105 19.8562V21.5109C17.0105 22.9516 18.1827 24.1237 19.6234 24.1237C21.0641 24.1237 22.2362 22.9516 22.2362 21.5109V19.8562C25.237 20.2259 27.5683 22.7888 27.5683 25.8879V34.1177H18.2932C17.8805 34.1177 17.5461 34.4522 17.5461 34.8649C17.5461 35.2775 17.8805 35.612 18.2932 35.612H27.5683V36.8515C26.742 37.554 25.9775 38.4286 25.2786 39.4677C24.4303 39.8708 23.7451 40.557 23.3444 41.4291C23.1364 41.8934 22.5667 43.216 22.1934 43.5746H17.0975V43.5744ZM25.4587 48.7856C24.7359 49.6138 23.4784 49.749 22.5958 49.093C21.6573 48.3955 21.4613 47.0643 22.1589 46.1258L23.8722 43.8207C23.8886 43.8579 24.6956 42.055 24.7023 42.0527C25.0249 41.3506 25.6392 40.8381 26.3879 40.6465C27.1365 40.4549 27.9216 40.6094 28.5418 41.0705C29.6514 41.8621 29.9514 43.6644 28.9418 44.7952L25.4587 48.7856ZM35.1055 38.3894C35.5798 39.4095 35.524 40.5929 34.9564 41.5546C34.0012 43.1714 32.386 45.0969 29.8192 46.0625C31.5527 44.4378 31.4497 41.3163 29.4331 39.8713C28.8386 39.4293 28.1482 39.1662 27.433 39.0934C27.7952 38.6726 28.1723 38.298 28.5632 37.9684C29.1282 37.7457 29.8593 37.2973 30.3927 36.8075C32.0303 35.9253 34.3243 36.5983 35.1055 38.3894ZM30.3722 27.5962L30.8982 31.5572C31.0504 33.1049 30.5584 35.035 29.0626 35.8059V25.8879C29.0626 25.1845 28.9641 24.5041 28.7838 23.8573C29.6264 24.9261 30.1884 26.2147 30.3722 27.5962ZM27.5683 11.855C27.5683 15.4166 24.6706 18.3142 21.109 18.3142H18.1377C14.5761 18.3142 11.6786 15.4166 11.6786 11.855V7.95418C11.6786 5.26185 13.3348 2.95007 15.6815 1.98136C15.7895 2.39947 15.9567 2.92646 16.2107 3.48035C16.9901 5.18016 18.2145 6.32868 19.7517 6.80168C19.8249 6.82419 19.8989 6.83485 19.9717 6.83485C20.291 6.83485 20.5868 6.62844 20.6855 6.30726C20.8069 5.91287 20.5856 5.49476 20.1912 5.37343C18.1845 4.75598 17.3997 2.66087 17.1221 1.57551C17.4885 1.50249 18.2895 1.48615 18.7901 1.49502C19.1825 2.81658 20.3338 4.67808 22.8095 5.10465C22.8524 5.11202 22.8951 5.11561 22.9372 5.11561C23.2942 5.11561 23.61 4.85889 23.6726 4.49518C23.7427 4.08853 23.4699 3.7021 23.0632 3.63197C21.4501 3.35403 20.7104 2.27624 20.3805 1.49492H21.1089C24.6705 1.49492 27.5682 4.39247 27.5682 7.95408V11.855H27.5683Z" fill="#134A85"/>
</g>
<defs>
<clipPath id="clip0_1_213">
<rect width="51" height="51" fill="white"/>
</clipPath>
</defs>
</svg>
