<svg width="51" height="51" viewBox="0 0 51 51" fill="none" xmlns="http://www.w3.org/2000/svg">
<path d="M37.2141 47.8125H22.3125C20.3574 47.8132 18.4803 47.0464 17.085 45.6769C16.9349 45.5268 16.8506 45.3233 16.8506 45.1111C16.8506 44.8989 16.9349 44.6954 17.085 44.5453C17.235 44.3953 17.4386 44.311 17.6508 44.311C17.863 44.311 18.0665 44.3953 18.2166 44.5453C19.3091 45.6194 20.7804 46.2205 22.3125 46.2188H37.2141C38.0292 46.2219 38.8358 46.0532 39.5814 45.7236C40.3269 45.3941 40.9947 44.9111 41.5411 44.3063C44.007 41.3858 45.5712 37.8117 46.0434 34.0186C46.0721 33.8164 46.0563 33.6104 45.9972 33.415C45.938 33.2195 45.8368 33.0393 45.7008 32.887C45.566 32.7334 45.4008 32.6094 45.2156 32.523C45.0304 32.4365 44.8293 32.3896 44.625 32.385H16.4953C16.284 32.385 16.0813 32.3011 15.9318 32.1516C15.7824 32.0022 15.6984 31.7995 15.6984 31.5881C15.6984 31.3768 15.7824 31.1741 15.9318 31.0247C16.0813 30.8752 16.284 30.7913 16.4953 30.7913H44.625C45.0587 30.8006 45.4855 30.902 45.8771 31.0889C46.2686 31.2757 46.616 31.5437 46.8961 31.875C47.1805 32.1987 47.3924 32.5795 47.5174 32.9918C47.6425 33.4042 47.6779 33.8385 47.6212 34.2656C47.104 38.3794 45.4043 42.2548 42.7284 45.4219C42.0263 46.1822 41.1731 46.7876 40.2236 47.1993C39.274 47.6109 38.249 47.8198 37.2141 47.8125Z" fill="#134A85"/>
<path d="M12.5348 47.8126C11.1785 47.8144 9.84058 47.4981 8.62871 46.8888C7.41684 46.2796 6.36482 45.3946 5.5572 44.3048C4.74959 43.2151 4.20892 41.9511 3.97866 40.6144C3.7484 39.2777 3.83497 37.9056 4.23141 36.6085C4.46406 35.9159 4.51618 35.1753 4.38282 34.4569L3.31501 29.2852C3.0103 27.8676 3.19793 26.3886 3.84695 25.092C4.49596 23.7954 5.56758 22.7588 6.88501 22.1532C7.66694 21.8118 8.51072 21.6348 9.36394 21.6332C10.2172 21.6316 11.0616 21.8055 11.8448 22.144C12.628 22.4826 13.3332 22.9785 13.9166 23.6011C14.5 24.2237 14.9492 24.9595 15.2363 25.763L17.093 30.9666C17.3395 31.6099 17.7486 32.1782 18.2803 32.6162C19.8013 33.9489 20.8055 35.7738 21.1172 37.7719C21.3158 39.0124 21.2425 40.2813 20.9022 41.4906C20.562 42.7 19.963 43.8209 19.1467 44.7759C18.3305 45.7309 17.3164 46.497 16.1747 47.0214C15.0331 47.5457 13.7911 47.8157 12.5348 47.8126ZM5.94469 34.1382C6.13297 35.1159 6.06712 36.1257 5.75344 37.0707C5.2684 38.6784 5.3689 40.406 6.03709 41.9466C6.70528 43.4872 7.8979 44.7412 9.40313 45.4857C10.2988 45.9339 11.2803 46.1844 12.2812 46.2201C13.2821 46.2558 14.279 46.076 15.2044 45.6929C16.6852 45.0906 17.919 44.0058 18.7059 42.6143C19.4928 41.2228 19.7865 39.6063 19.5394 38.0269C19.2887 36.396 18.4703 34.906 17.2284 33.8194C16.4932 33.2001 15.9305 32.4013 15.5948 31.5005L13.7302 26.2969C13.5168 25.6988 13.1826 25.1511 12.7482 24.6879C12.3138 24.2247 11.7886 23.8559 11.2054 23.6047C10.6222 23.3535 9.99344 23.2251 9.35843 23.2277C8.72341 23.2302 8.09573 23.3636 7.51454 23.6194C6.53422 24.0801 5.73938 24.86 5.26019 25.8315C4.78099 26.8029 4.64585 27.9082 4.87688 28.9665L5.94469 34.1382Z" fill="#134A85"/>
<path d="M12.487 44.9756C11.5541 44.9753 10.6342 44.7562 9.80127 44.3361C8.96829 43.916 8.24541 43.3064 7.69062 42.5564C7.13583 41.8063 6.76459 40.9366 6.60669 40.0172C6.4488 39.0977 6.50864 38.154 6.78142 37.2618C7.12596 36.1995 7.19452 35.0669 6.98064 33.9708L5.9447 28.9584C5.75577 28.1348 5.85336 27.2715 6.22135 26.5108C6.58935 25.7502 7.20575 25.1378 7.96876 24.7748C8.12284 24.7049 8.28285 24.6489 8.44689 24.6075C9.32291 24.3643 10.2584 24.4607 11.0665 24.8772C11.8746 25.2938 12.4957 26 12.8058 26.8547L14.6227 31.875C14.9992 32.8891 15.6304 33.7892 16.4555 34.4887C17.5048 35.4062 18.1963 36.665 18.4078 38.0428C18.6012 39.3721 18.3477 40.728 17.6871 41.8977C17.0266 43.0673 15.9963 43.9846 14.7581 44.5054C14.543 44.5931 14.3278 44.6648 14.1127 44.7286C13.5839 44.8816 13.0374 44.9647 12.487 44.9756ZM9.42704 26.0657C9.24669 26.066 9.06717 26.0902 8.89314 26.1375L8.61423 26.2411C8.18597 26.455 7.8431 26.8081 7.64184 27.2424C7.44059 27.6768 7.39289 28.1667 7.50658 28.6317L8.54251 33.644C8.81131 34.9996 8.72901 36.4013 8.30345 37.7161C8.07563 38.4681 8.05418 39.2675 8.24133 40.0307C8.42848 40.7938 8.81736 41.4926 9.36725 42.0539C9.91714 42.6152 10.6078 43.0184 11.367 43.2211C12.1261 43.4239 12.9258 43.4189 13.6824 43.2065C13.8417 43.1587 14.0011 43.1029 14.1605 43.0392C15.0679 42.6603 15.8235 41.9904 16.3082 41.1348C16.793 40.2793 16.9793 39.2868 16.838 38.3137C16.6813 37.3012 16.1736 36.376 15.4036 35.7C14.3729 34.8243 13.5875 33.6956 13.1245 32.4248L11.3156 27.3886C11.1748 27.0008 10.918 26.6658 10.5801 26.4291C10.2422 26.1924 9.8396 26.0655 9.42704 26.0657Z" fill="#134A85"/>
<path d="M12.4791 42.1626C11.9207 42.1664 11.3711 42.0235 10.8853 41.7482C10.1486 41.3385 9.60426 40.6537 9.37124 39.8437C9.25046 39.435 9.21284 39.0063 9.26059 38.5829C9.30834 38.1595 9.44051 37.75 9.64927 37.3785C9.85803 37.007 10.1391 36.6812 10.476 36.4203C10.8129 36.1593 11.1986 35.9686 11.6105 35.8593C12.0181 35.7413 12.4451 35.7059 12.8666 35.7552C13.288 35.8045 13.6954 35.9374 14.0648 36.1462C14.8111 36.5673 15.361 37.2661 15.5948 38.0905C15.8253 38.9158 15.719 39.7988 15.2992 40.5458C14.8794 41.2927 14.1804 41.8427 13.3556 42.0749C13.0685 42.1424 12.7738 42.1719 12.4791 42.1626ZM12.4791 37.2937C12.3281 37.2947 12.178 37.3161 12.0328 37.3574C11.8223 37.4154 11.626 37.5161 11.456 37.6532C11.286 37.7903 11.146 37.9608 11.0447 38.1543C10.8354 38.5337 10.7839 38.9803 10.9012 39.3974C10.9593 39.6079 11.06 39.8042 11.1971 39.9742C11.3341 40.1442 11.5047 40.2842 11.6981 40.3855C11.8849 40.4921 12.0914 40.5597 12.305 40.5844C12.5187 40.609 12.7351 40.5902 12.9412 40.529C13.1503 40.4699 13.3451 40.3688 13.5136 40.2318C13.6822 40.0947 13.821 39.9247 13.9214 39.7321C14.0293 39.5458 14.0983 39.3397 14.1243 39.126C14.1503 38.9124 14.1328 38.6957 14.0728 38.489C14.0117 38.2809 13.9098 38.087 13.7729 37.9187C13.6361 37.7505 13.4672 37.6111 13.2759 37.5088C13.0361 37.3697 12.7642 37.2955 12.487 37.2937H12.4791Z" fill="#134A85"/>
<path d="M43.3261 35.5247H19.0772C18.8658 35.5247 18.6631 35.4407 18.5137 35.2913C18.3643 35.1418 18.2803 34.9391 18.2803 34.7278C18.2803 34.5164 18.3643 34.3137 18.5137 34.1643C18.6631 34.0149 18.8658 33.9309 19.0772 33.9309H43.3261C43.5374 33.9309 43.7401 34.0149 43.8896 34.1643C44.039 34.3137 44.123 34.5164 44.123 34.7278C44.123 34.9391 44.039 35.1418 43.8896 35.2913C43.7401 35.4407 43.5374 35.5247 43.3261 35.5247Z" fill="#134A85"/>
<path d="M24.982 16.5511C24.7707 16.5511 24.568 16.4672 24.4186 16.3177C24.2691 16.1683 24.1852 15.9656 24.1852 15.7542L23.962 10.5666C23.9238 10.0755 23.7014 9.61694 23.3393 9.28294C22.9772 8.94894 22.5023 8.76416 22.0097 8.76564H17.9217C17.7104 8.76564 17.5077 8.68169 17.3582 8.53224C17.2088 8.3828 17.1248 8.18011 17.1248 7.96877C17.1248 7.75742 17.2088 7.55473 17.3582 7.40529C17.5077 7.25585 17.7104 7.17189 17.9217 7.17189H22.0097C22.923 7.16908 23.8018 7.52033 24.4616 8.15187C25.1214 8.7834 25.5107 9.64606 25.5478 10.5586L25.7789 15.7542C25.7789 15.9656 25.695 16.1683 25.5455 16.3177C25.3961 16.4672 25.1934 16.5511 24.982 16.5511Z" fill="#134A85"/>
<path d="M5.66577 24.7031C5.45443 24.7031 5.25174 24.6192 5.1023 24.4697C4.95285 24.3203 4.8689 24.1176 4.8689 23.9062L5.45062 10.5586C5.49161 9.64738 5.88215 8.78701 6.54107 8.15629C7.19999 7.52556 8.07661 7.173 8.98874 7.17188H13.0847C13.296 7.17188 13.4987 7.25583 13.6482 7.40527C13.7976 7.55472 13.8816 7.75741 13.8816 7.96875C13.8816 8.18009 13.7976 8.38278 13.6482 8.53223C13.4987 8.68167 13.296 8.76562 13.0847 8.76562H8.98874C8.49182 8.76481 8.01344 8.95428 7.65185 9.29513C7.29025 9.63597 7.07288 10.1023 7.04437 10.5984L6.46265 23.9062C6.46265 24.1176 6.37869 24.3203 6.22925 24.4697C6.0798 24.6192 5.87712 24.7031 5.66577 24.7031Z" fill="#134A85"/>
<path d="M17.9217 8.76562H13.0847C12.8733 8.76562 12.6707 8.68167 12.5212 8.53223C12.3718 8.38278 12.2878 8.18009 12.2878 7.96875V5.07609C12.2878 4.57521 12.4868 4.09484 12.841 3.74066C13.1951 3.38648 13.6755 3.1875 14.1764 3.1875H16.83C17.3309 3.1875 17.8113 3.38648 18.1654 3.74066C18.5196 4.09484 18.7186 4.57521 18.7186 5.07609V7.96875C18.7186 8.18009 18.6346 8.38278 18.4852 8.53223C18.3358 8.68167 18.1331 8.76562 17.9217 8.76562ZM13.8816 7.17188H17.1248V5.07609C17.1248 4.9979 17.0938 4.9229 17.0385 4.86761C16.9832 4.81231 16.9082 4.78125 16.83 4.78125H14.1764C14.0982 4.78125 14.0232 4.81231 13.9679 4.86761C13.9126 4.9229 13.8816 4.9979 13.8816 5.07609V7.17188Z" fill="#134A85"/>
<path d="M24.8545 13.6185H6.15189C5.94054 13.6185 5.73785 13.5346 5.58841 13.3851C5.43897 13.2357 5.35501 13.033 5.35501 12.8217C5.35501 12.6103 5.43897 12.4076 5.58841 12.2582C5.73785 12.1087 5.94054 12.0248 6.15189 12.0248H24.8545C25.0659 12.0248 25.2686 12.1087 25.418 12.2582C25.5675 12.4076 25.6514 12.6103 25.6514 12.8217C25.6514 13.033 25.5675 13.2357 25.418 13.3851C25.2686 13.5346 25.0659 13.6185 24.8545 13.6185Z" fill="#134A85"/>
<path d="M21.1012 32.385C20.9245 32.3925 20.7502 32.341 20.6059 32.2386C20.4616 32.1361 20.3555 31.9886 20.3044 31.8192L20.2406 31.62C18.6469 26.2171 20.4637 24.4879 23.6512 23.5556C24.99 23.1651 26.4005 22.8942 27.7312 23.5556C29.062 24.217 30.1219 25.8187 30.8789 28.4803C31.159 29.4471 31.3851 30.4288 31.5562 31.4207C31.5746 31.5238 31.5725 31.6295 31.55 31.7318C31.5275 31.834 31.485 31.9308 31.4251 32.0167C31.3651 32.1025 31.2889 32.1757 31.2006 32.2321C31.1124 32.2884 31.0139 32.3268 30.9108 32.3451C30.8077 32.3635 30.702 32.3613 30.5998 32.3388C30.4975 32.3163 30.4007 32.2739 30.3148 32.2139C30.229 32.154 30.1558 32.0777 30.0994 31.9895C30.0431 31.9012 30.0047 31.8027 29.9864 31.6996C29.8247 30.7643 29.6119 29.8386 29.3489 28.9265C28.7114 26.751 27.9384 25.4521 26.9981 24.9421C26.2012 24.5357 25.2769 24.6871 24.1055 25.0298C22.1531 25.6035 20.3123 26.1375 21.7706 31.1179L21.8264 31.3012C21.8624 31.4198 21.8701 31.5452 21.8491 31.6673C21.8281 31.7895 21.7789 31.9051 21.7054 32.0049C21.6319 32.1047 21.5362 32.1859 21.4258 32.2422C21.3153 32.2985 21.1933 32.3283 21.0694 32.3292L21.1012 32.385Z" fill="#134A85"/>
<path d="M24.8386 29.3648C24.6608 29.3719 24.4857 29.3193 24.3413 29.2153C24.1969 29.1113 24.0914 28.962 24.0417 28.7911C23.9822 28.5893 24.005 28.3721 24.105 28.187C24.205 28.0019 24.3742 27.8638 24.5756 27.803C26.216 27.3178 27.8881 26.9476 29.58 26.6953C29.6847 26.6796 29.7914 26.6847 29.8941 26.7102C29.9968 26.7358 30.0934 26.7813 30.1785 26.8442C30.2636 26.9071 30.3355 26.9861 30.39 27.0768C30.4446 27.1675 30.4807 27.268 30.4964 27.3727C30.5121 27.4773 30.507 27.584 30.4815 27.6867C30.456 27.7894 30.4104 27.886 30.3475 27.9711C30.2846 28.0562 30.2056 28.1281 30.1149 28.1827C30.0243 28.2372 29.9237 28.2734 29.8191 28.2891C28.2029 28.5322 26.6054 28.8863 25.0378 29.3489C24.9724 29.3626 24.9054 29.3679 24.8386 29.3648Z" fill="#134A85"/>
<path d="M21.946 25.9462C21.8096 25.942 21.676 25.9065 21.5555 25.8426C19.6563 24.7803 17.8349 23.5846 16.1049 22.2646C15.7674 22.0069 15.488 21.6808 15.2851 21.3078C15.0821 20.9348 14.9601 20.5231 14.9271 20.0998C14.894 19.6764 14.9505 19.2508 15.0931 18.8508C15.2356 18.4508 15.4609 18.0853 15.7542 17.7782C16.0483 17.4711 16.4042 17.2298 16.7985 17.0705C17.1928 16.9111 17.6163 16.8373 18.0413 16.8538C18.465 16.8715 18.8804 16.9778 19.2606 17.1659C19.6408 17.3539 19.9774 17.6195 20.2486 17.9456L20.7666 18.5831C20.8319 18.6656 20.8802 18.7602 20.9088 18.8614C20.9373 18.9627 20.9455 19.0686 20.933 19.1731C20.9204 19.2775 20.8872 19.3785 20.8354 19.4701C20.7836 19.5616 20.7142 19.642 20.6311 19.7067C20.465 19.8361 20.2544 19.8945 20.0454 19.8691C19.8363 19.8437 19.6458 19.7366 19.5155 19.5712L19.0294 18.9656C18.901 18.815 18.7425 18.693 18.5641 18.6073C18.3857 18.5216 18.1914 18.4742 17.9936 18.4682C17.7958 18.4621 17.5989 18.4975 17.4156 18.5721C17.2323 18.6466 17.0667 18.7587 16.9293 18.9011C16.7919 19.0436 16.6858 19.2131 16.6179 19.399C16.5499 19.5849 16.5216 19.7829 16.5348 19.9803C16.548 20.1778 16.6023 20.3703 16.6943 20.5455C16.7863 20.7207 16.914 20.8747 17.0691 20.9976C18.7298 22.275 20.4823 23.4283 22.3125 24.4481C22.4052 24.4988 22.4868 24.5674 22.5527 24.6499C22.6186 24.7325 22.6674 24.8273 22.6963 24.9289C22.7252 25.0305 22.7337 25.1368 22.7211 25.2417C22.7086 25.3465 22.6753 25.4479 22.6233 25.5398C22.5555 25.6605 22.4573 25.7615 22.3385 25.8328C22.2197 25.9041 22.0844 25.9432 21.946 25.9462Z" fill="#134A85"/>
<path d="M25.9144 24.7509C25.7831 24.7543 25.6534 24.7212 25.5398 24.6553C25.3542 24.5556 25.2156 24.3864 25.1544 24.1848C25.0932 23.9832 25.1143 23.7656 25.2131 23.5795C26.1995 21.7453 27.0621 19.8472 27.795 17.8978C27.8701 17.7052 27.9028 17.4986 27.8906 17.2922C27.8554 16.9469 27.6955 16.6264 27.441 16.3906C27.1864 16.1548 26.8546 16.0198 26.5077 16.011C26.1608 16.0022 25.8226 16.1202 25.5565 16.3428C25.2903 16.5654 25.1144 16.8775 25.0617 17.2204C25.0617 17.4675 24.998 17.7065 24.9741 17.9456C24.9519 18.1544 24.8483 18.346 24.6856 18.4788C24.523 18.6116 24.3145 18.6749 24.1055 18.6548C24.0006 18.6449 23.8988 18.6142 23.8058 18.5647C23.7129 18.5151 23.6307 18.4476 23.564 18.3661C23.4973 18.2846 23.4475 18.1907 23.4173 18.0898C23.3871 17.9889 23.3773 17.883 23.3883 17.7782C23.3883 17.5153 23.4441 17.2603 23.4839 16.9814C23.5778 16.2402 23.9438 15.5603 24.5108 15.0739C25.0778 14.5874 25.8054 14.329 26.5523 14.3488C27.2991 14.3687 28.0119 14.6654 28.5523 15.1813C29.0927 15.6973 29.422 16.3956 29.4764 17.1407C29.5164 17.5821 29.4537 18.0266 29.2931 18.4397C28.5395 20.4564 27.6475 22.4187 26.6236 24.3126C26.5574 24.444 26.456 24.5546 26.3309 24.6319C26.2057 24.7093 26.0615 24.7505 25.9144 24.7509Z" fill="#134A85"/>
<path d="M23.0217 25.4043C22.8834 25.4043 22.7475 25.3683 22.6274 25.2998C22.5072 25.2313 22.407 25.1328 22.3364 25.0138C21.0972 22.9743 20.0157 20.8431 19.1011 18.6388C18.9765 18.3478 18.9012 18.0381 18.878 17.7224C18.8239 16.9539 19.0663 16.1938 19.5554 15.5985C20.0446 15.0033 20.7432 14.6181 21.5076 14.5221C22.2721 14.4262 23.0443 14.6268 23.6653 15.0828C24.2864 15.5387 24.7091 16.2153 24.8466 16.9734C25.2394 19.3179 25.4551 21.6886 25.4921 24.0656C25.4921 24.2769 25.4081 24.4796 25.2587 24.629C25.1092 24.7785 24.9065 24.8624 24.6952 24.8624C24.4838 24.8624 24.2811 24.7785 24.1317 24.629C23.9823 24.4796 23.8983 24.2769 23.8983 24.0656C23.8614 21.7689 23.6537 19.4782 23.2767 17.2124C23.2173 16.8506 23.0201 16.5259 22.7264 16.3063C22.4327 16.0868 22.0655 15.9895 21.7016 16.0348C21.3378 16.0802 21.0056 16.2647 20.7748 16.5496C20.5441 16.8345 20.4326 17.1977 20.4638 17.5631C20.4754 17.7136 20.5103 17.8615 20.5674 18.0013C21.4601 20.1192 22.5096 22.1676 23.7071 24.1293C23.7808 24.2505 23.8209 24.3891 23.8232 24.531C23.8254 24.6728 23.7898 24.8126 23.72 24.9361C23.6501 25.0596 23.5486 25.1621 23.4258 25.2332C23.3031 25.3043 23.1636 25.3414 23.0217 25.3406V25.4043Z" fill="#134A85"/>
<path d="M40.7362 32.385C40.6676 32.396 40.5977 32.396 40.529 32.385C40.3268 32.3291 40.1548 32.1956 40.0503 32.0136C39.9459 31.8316 39.9175 31.6157 39.9712 31.4128C40.0989 30.9319 40.1632 30.4363 40.1625 29.9386C40.1609 28.7442 39.7726 27.5823 39.0557 26.6269C38.3388 25.6715 37.3318 24.9739 36.1855 24.6384C35.0391 24.3029 33.8149 24.3476 32.696 24.7658C31.5771 25.184 30.6237 25.9532 29.9784 26.9583C29.8592 27.1239 29.6809 27.2374 29.4805 27.2754C29.28 27.3135 29.0726 27.2732 28.9009 27.1628C28.7293 27.0525 28.6065 26.8805 28.5579 26.6823C28.5093 26.4842 28.5386 26.2749 28.6397 26.0977C29.4666 24.8005 30.6917 23.8062 32.1312 23.2638C33.5708 22.7215 35.1474 22.6602 36.6247 23.0892C38.102 23.5182 39.4005 24.4144 40.3257 25.6435C41.2508 26.8726 41.7527 28.3684 41.7562 29.9067C41.7589 30.5471 41.6759 31.185 41.5092 31.8033C41.462 31.9716 41.3608 32.1198 41.2211 32.2249C41.0814 32.33 40.911 32.3863 40.7362 32.385Z" fill="#134A85"/>
<path d="M40.8956 31.4925C40.6843 31.5094 40.4749 31.4417 40.3135 31.3042C40.1521 31.1667 40.0519 30.9707 40.035 30.7594C40.0181 30.548 40.0858 30.3386 40.2233 30.1772C40.3608 30.0158 40.5568 29.9157 40.7681 29.8987C41.4541 29.7835 42.1036 29.5092 42.6646 29.0978C43.2255 28.6864 43.6823 28.1493 43.9983 27.5296C44.3144 26.9099 44.4809 26.2248 44.4846 25.5292C44.4882 24.8335 44.3289 24.1467 44.0194 23.5237C43.9418 23.3648 43.9192 23.1846 43.9553 23.0115C43.9914 22.8384 44.084 22.6822 44.2186 22.5675C44.7884 22.0734 45.1815 21.4069 45.3382 20.6691C45.495 19.9314 45.4068 19.1627 45.0872 18.4795C45.0135 18.3225 44.9931 18.1457 45.0291 17.976C45.065 17.8062 45.1554 17.6529 45.2864 17.5392C45.6501 17.2416 45.9256 16.8503 46.0833 16.4077C46.206 16.0674 46.2599 15.7062 46.242 15.345C46.2241 14.9837 46.1347 14.6296 45.9789 14.3032C45.8231 13.9768 45.6041 13.6845 45.3346 13.4434C45.0651 13.2022 44.7503 13.0169 44.4086 12.8983C44.067 12.7797 43.7052 12.73 43.3442 12.7522C42.9832 12.7745 42.6302 12.8681 42.3056 13.0278C41.9811 13.1874 41.6914 13.4099 41.4535 13.6823C41.2156 13.9547 41.0341 14.2716 40.9195 14.6147C40.766 15.0578 40.7357 15.5343 40.8319 15.9933C40.8619 16.1628 40.8362 16.3375 40.7586 16.4912C40.681 16.6449 40.5558 16.7694 40.4016 16.8459C39.7283 17.1884 39.1847 17.7405 38.8527 18.419C38.5206 19.0974 38.4182 19.8654 38.5608 20.6072C38.602 20.7888 38.5783 20.979 38.4939 21.145C38.4095 21.3109 38.2696 21.442 38.0986 21.5156C37.0918 22.0063 36.3086 22.8606 35.9072 23.9062C35.8685 24.0036 35.8111 24.0924 35.7381 24.1676C35.6651 24.2427 35.578 24.3027 35.4818 24.3442C35.3855 24.3856 35.2821 24.4077 35.1773 24.4091C35.0726 24.4106 34.9686 24.3913 34.8712 24.3525C34.7739 24.3139 34.6851 24.2564 34.6099 24.1834C34.5348 24.1104 34.4747 24.0233 34.4333 23.9271C34.3919 23.8308 34.3698 23.7274 34.3684 23.6226C34.3669 23.5179 34.3862 23.4139 34.425 23.3166C34.9095 22.1017 35.7767 21.0778 36.8953 20.4C36.8331 19.6985 36.9228 18.9918 37.1583 18.3281C37.5178 17.268 38.2256 16.3608 39.1664 15.7542C39.1387 15.2136 39.2145 14.6727 39.3895 14.1605C39.7677 13.0774 40.559 12.1879 41.5906 11.6863C42.6223 11.1846 43.8106 11.1115 44.8959 11.483C45.4334 11.6683 45.929 11.958 46.3542 12.3353C46.7795 12.7127 47.1261 13.1703 47.3741 13.6818C47.6221 14.1934 47.7667 14.7489 47.7995 15.3165C47.8324 15.8841 47.7528 16.4526 47.5655 16.9894C47.3956 17.5052 47.1247 17.9819 46.7686 18.3919C47.1311 19.4535 47.1311 20.6054 46.7686 21.667C46.5381 22.3179 46.1805 22.9166 45.7167 23.4281C46.0301 24.262 46.155 25.155 46.0822 26.0429C46.0095 26.9307 45.741 27.7915 45.2961 28.5633C44.8512 29.335 44.2408 29.9987 43.5089 30.5065C42.777 31.0144 41.9417 31.3538 41.063 31.5005L40.8956 31.4925Z" fill="#134A85"/>
<path d="M39.788 27.03C39.6989 27.0284 39.6105 27.015 39.525 26.9901C39.3283 26.9182 39.1678 26.7716 39.0783 26.5822C38.9889 26.3928 38.9776 26.1758 39.0469 25.9781L41.3658 19.2764C41.3969 19.1739 41.4483 19.0787 41.517 18.9965C41.5857 18.9144 41.6703 18.8469 41.7657 18.7981C41.861 18.7494 41.9653 18.7204 42.0721 18.7128C42.1789 18.7052 42.2862 18.7193 42.3875 18.7541C42.4888 18.789 42.582 18.8439 42.6616 18.9155C42.7412 18.9872 42.8055 19.0742 42.8508 19.1713C42.896 19.2684 42.9211 19.3736 42.9248 19.4807C42.9284 19.5877 42.9104 19.6944 42.8719 19.7944L40.553 26.4961C40.4977 26.6542 40.3941 26.7908 40.2568 26.8867C40.1194 26.9825 39.9554 27.0327 39.788 27.03Z" fill="#134A85"/>
<path d="M31.7634 19.6828C31.642 19.6833 31.5221 19.656 31.4128 19.6031C31.2279 19.5048 31.0891 19.3377 31.0265 19.1378C30.9639 18.938 30.9824 18.7216 31.0781 18.5353C31.1665 18.3505 31.2677 18.1721 31.3809 18.0014C31.0548 17.369 30.8954 16.664 30.9177 15.9528C30.94 15.2417 31.1434 14.548 31.5084 13.9373C31.3118 13.5673 31.1823 13.1653 31.1259 12.75C31.035 11.7989 31.3257 10.8507 31.9339 10.114C32.5422 9.37724 33.4182 8.91228 34.3692 8.8214C35.3203 8.73052 36.2685 9.02117 37.0052 9.6294C37.742 10.2376 38.2069 11.1136 38.2978 12.0647C38.3403 12.4876 38.3025 12.9148 38.1862 13.3237C38.6623 13.8567 38.9936 14.5029 39.1485 15.2005C39.3033 15.8981 39.2766 16.6238 39.0708 17.3081C39.1668 17.4745 39.1995 17.6699 39.1629 17.8584C39.1263 18.047 39.0229 18.2159 38.8716 18.3343C38.7203 18.4526 38.5313 18.5123 38.3395 18.5024C38.1477 18.4925 37.9659 18.4136 37.8276 18.2803L37.6364 18.113C37.5009 18.0008 37.4063 17.847 37.3674 17.6754C37.3285 17.5039 37.3474 17.3243 37.4212 17.1647C37.6546 16.6546 37.7155 16.0824 37.5948 15.5346C37.474 14.9868 37.1781 14.4932 36.7519 14.1286C36.623 14.0169 36.5333 13.8669 36.496 13.7005C36.4587 13.5341 36.4758 13.3602 36.5447 13.2042C36.6692 12.9255 36.728 12.6218 36.7166 12.3167C36.7051 12.0117 36.6237 11.7133 36.4786 11.4447C36.3335 11.1761 36.1286 10.9444 35.8797 10.7675C35.6309 10.5907 35.3447 10.4734 35.0433 10.4248C34.7419 10.3761 34.4333 10.3974 34.1415 10.4869C33.8496 10.5765 33.5822 10.7319 33.3599 10.9412C33.1377 11.1506 32.9665 11.4082 32.8597 11.6941C32.7528 11.9801 32.7131 12.2868 32.7436 12.5906C32.7706 12.9317 32.8829 13.2606 33.0703 13.5469C33.1719 13.6841 33.2267 13.8503 33.2267 14.021C33.2267 14.1917 33.1719 14.3579 33.0703 14.4951C32.6508 15.0181 32.4533 15.6848 32.5205 16.3519C32.5612 16.8037 32.7237 17.2361 32.9906 17.603C33.0979 17.7423 33.156 17.9132 33.156 18.0891C33.156 18.2649 33.0979 18.4358 32.9906 18.5751C32.8163 18.7842 32.669 19.0145 32.5523 19.2605C32.4782 19.4017 32.3634 19.5175 32.2228 19.5928C32.0821 19.6681 31.9221 19.6995 31.7634 19.6828Z" fill="#134A85"/>
<path d="M27.3328 16.1606C27.1531 16.1595 26.979 16.0978 26.8388 15.9853C26.6746 15.8538 26.569 15.6627 26.5451 15.4537C26.5212 15.2447 26.581 15.0348 26.7113 14.8696C27.0466 14.443 27.4655 14.0893 27.9424 13.8303C28.4192 13.5714 28.944 13.4125 29.4844 13.3635C30.5325 13.2636 31.5783 13.5751 32.4009 14.2321C32.4828 14.2979 32.5509 14.3792 32.6012 14.4713C32.6515 14.5635 32.6832 14.6647 32.6943 14.7691C32.7054 14.8735 32.6958 14.9791 32.6659 15.0798C32.6361 15.1804 32.5867 15.2742 32.5205 15.3557C32.3879 15.5187 32.1962 15.6227 31.9873 15.6451C31.7783 15.6675 31.569 15.6065 31.4049 15.4753C30.8945 15.0699 30.2447 14.8827 29.5969 14.9543C28.9491 15.026 28.3558 15.3507 27.9464 15.8578C27.873 15.9506 27.7799 16.026 27.6738 16.0784C27.5676 16.1308 27.4512 16.1588 27.3328 16.1606Z" fill="#134A85"/>
<path d="M33.6281 24.4242C28.6556 24.4242 27.7631 21.2367 27.548 18.7744C27.5298 18.5691 27.5919 18.3649 27.7212 18.2044C27.8504 18.0439 28.0368 17.9398 28.2412 17.9138C30.6876 17.6189 32.5444 18.0174 33.7636 19.0932C34.9828 20.1689 35.429 21.5794 35.429 23.5796C35.4299 23.779 35.3558 23.9716 35.2215 24.1191C35.0873 24.2667 34.9026 24.3585 34.7039 24.3764C34.3214 24.4083 33.9708 24.4242 33.6281 24.4242ZM29.2294 19.4278C29.588 21.5396 30.6717 22.9022 33.8034 22.8305C33.7667 21.8693 33.3615 20.9591 32.6719 20.2885C31.6772 19.5706 30.4448 19.2625 29.2294 19.4278Z" fill="#134A85"/>
</svg>
