<svg width="42" height="52" viewBox="0 0 42 52" fill="none" xmlns="http://www.w3.org/2000/svg">
<path d="M38.7556 22.6491C38.7558 18.5165 38.7655 15.7382 39.2773 12.3063C39.3382 11.8982 39.0567 11.5181 38.6486 11.4572C38.2408 11.3964 37.8604 11.6779 37.7995 12.086C37.5147 13.9956 37.3808 15.6966 37.3176 17.5173H29.0172C22.1245 15.6179 16.2563 12.2145 11.5636 7.39556C12.9805 5.64891 14.6754 3.84697 16.6457 1.99414H40.1152C39.352 4.71318 38.8002 6.90608 38.3922 8.83621C38.3069 9.23993 38.5649 9.63627 38.9686 9.72164C39.3723 9.8068 39.7687 9.54891 39.8541 9.1452C40.3012 7.02969 40.9265 4.58528 41.8217 1.45237C41.8985 0.896246 41.6592 0.578891 41.1034 0.5H16.3504C16.1613 0.5 15.9791 0.571818 15.8408 0.700813C11.0921 5.13074 5.84553 10.8317 4.84725 17.5173H0.880005C0.467423 17.5173 0.132935 17.8517 0.132935 18.2643V22.8922C0.132935 23.3049 0.467423 23.6393 0.880005 23.6393H5.40616C6.49937 26.7369 8.88551 29.6462 12.5094 32.2987V40.0798C12.5094 40.4925 12.8439 40.8269 13.2565 40.8269C13.6691 40.8269 14.0035 40.4925 14.0035 40.0798V35.7585L24.1693 32.0516L29.8335 44.7236V50.0372L14.0035 50.0074V43.336C14.0035 42.9233 13.6691 42.5889 13.2565 42.5889C12.8439 42.5889 12.5094 42.9233 12.5094 43.336V50.7529C12.5094 51.165 12.843 51.4992 13.2551 51.5H38.007C38.2931 51.5003 38.5275 51.3834 38.7103 51.0557C40.5448 46.0262 41.7544 40.6086 41.8567 35.7931C42.0555 26.4316 39.3158 23.3851 38.7556 22.6491ZM21.6215 31.3904L21.1016 29.8514L28.9198 27.0005L29.5756 28.4898L21.6215 31.3904ZM30.9824 27.9769L30.3266 26.4876L37.7379 23.7861C38.0497 24.2216 38.3349 24.6943 38.5929 25.2027L30.9824 27.9769ZM10.636 8.584C14.4668 12.4766 19.0381 15.469 24.2749 17.5173H6.36001C6.8233 14.7493 8.25439 11.7626 10.636 8.584ZM7.00399 23.6393H14.6161C15.0287 23.6393 15.3632 23.3049 15.3632 22.8922C15.3632 22.4795 15.0287 22.1451 14.6161 22.1451H1.62708V19.0114H3.2267V19.8119C3.2267 20.2246 3.56119 20.5589 3.97377 20.5589C4.38635 20.5589 4.72084 20.2246 4.72084 19.8119V19.0114H9.41494V19.8119C9.41494 20.2246 9.74942 20.5589 10.162 20.5589C10.5746 20.5589 10.9091 20.2246 10.9091 19.8119V19.0114H15.6032V19.8119C15.6032 20.2246 15.9377 20.5589 16.3502 20.5589C16.7628 20.5589 17.0973 20.2246 17.0973 19.8119V19.0114H21.7913V19.8119C21.7913 20.2246 22.1258 20.5589 22.5384 20.5589C22.951 20.5589 23.2854 20.2246 23.2854 19.8119V19.0114H27.9795V19.8119C27.9795 20.2246 28.314 20.5589 28.7266 20.5589C29.1392 20.5589 29.4737 20.2246 29.4737 19.8119V19.0114H34.1678V19.8119C34.1678 20.2246 34.5023 20.5589 34.9148 20.5589C35.3274 20.5589 35.6619 20.2246 35.6619 19.8119V19.0114H37.2615V22.1451H17.8726C17.46 22.1451 17.1255 22.4795 17.1255 22.8922C17.1255 23.3049 17.46 23.6393 17.8726 23.6393H33.7786L13.3732 31.0792C10.2072 28.7585 8.06991 26.2611 7.00399 23.6393ZM14.0035 32.4395L19.6974 30.3633L20.2174 31.9023L14.0035 34.1681V32.4395ZM25.5767 31.5385L29.8336 29.9866V41.0621L25.5767 31.5385ZM40.3639 35.7327C40.1817 40.2394 39.1614 45.3037 37.4834 50.0517L31.3277 50.04V29.4418L39.1917 26.5748C40.1079 29.0326 40.5094 32.1306 40.3639 35.7327Z" fill="#134A85"/>
</svg>
