<svg width="51" height="51" viewBox="0 0 51 51" fill="none" xmlns="http://www.w3.org/2000/svg">
<g clip-path="url(#clip0_1_115)">
<path d="M19.7488 46.275L19.7243 46.2877C18.4157 46.9595 16.8532 46.9596 15.5459 46.2884C15.1779 46.152 14.722 46.1928 14.5137 46.5964C14.3051 47.0006 14.537 47.3962 14.8622 47.6168C15.503 47.9459 16.1897 48.1525 16.8884 48.2386V48.2389L16.9941 50.2909C17.0147 50.6898 17.3446 50.9995 17.7396 50.9995C17.7525 50.9995 17.7656 50.9992 17.7786 50.9985C18.1907 50.9773 18.5074 50.6261 18.4862 50.214L18.3845 48.2379C19.0822 48.1514 19.7681 47.9448 20.4082 47.6162C20.7327 47.3951 20.9636 47 20.7553 46.5964C20.5659 46.2297 20.1153 46.086 19.7488 46.275Z" fill="#134A85"/>
<path d="M18.2787 34.9966C18.1203 34.6213 17.6797 34.4373 17.3025 34.5932C16.9258 34.749 16.7443 35.1919 16.8981 35.5683C17.052 35.9451 17.4996 36.1271 17.8743 35.9728C18.2555 35.8157 18.4269 35.3749 18.2787 34.9966Z" fill="#134A85"/>
<path d="M49.2845 34.0921C45.2 31.1988 39.9507 29.4707 35.2408 29.4686L35.2317 12.6458C35.2317 8.07736 31.3301 3.93558 26.6833 3.93558H23.2046C22.2924 3.81525 21.247 3.28156 21.247 2.15769V0.747544C21.247 0.33487 20.9125 0.000488281 20.4999 0.000488281C20.0873 0.000488281 19.7529 0.33487 19.7529 0.747544V2.15769C19.7529 3.0924 20.132 3.9055 20.8492 4.50912C21.2764 4.8685 21.8152 5.13943 22.4083 5.29791V11.7984C22.4083 14.39 20.268 16.4983 17.6372 16.4983C15.0064 16.4983 12.8661 14.39 12.8661 11.7984V5.28247C14.4399 4.82786 15.424 3.6517 15.424 2.15769V0.747544C15.424 0.33487 15.0895 0.000488281 14.677 0.000488281C14.2644 0.000488281 13.9299 0.33487 13.9299 0.747544V2.15769C13.9299 3.51394 12.4692 3.86396 12.0578 3.93558H8.59115C6.97632 3.93558 5.29594 4.50205 3.95542 5.37939C3.61018 5.6054 3.51346 6.06837 3.73947 6.41361C4.05453 6.77439 4.39927 6.84641 4.7737 6.62956C5.59705 6.09059 6.51434 5.72612 7.47644 5.55061L4.68226 13.1572C3.6062 14.3747 3.01543 15.9283 3.01543 17.5498C3.01543 19.1032 3.55879 20.5938 4.55058 21.7867V27.1112C3.14671 28.9332 2.17215 30.7449 1.49701 32.4107V12.6458C1.49701 11.1669 1.94734 9.74578 2.79948 8.53585C3.03704 8.19848 2.95616 7.73252 2.61889 7.49495C2.28162 7.25739 1.81556 7.33817 1.57799 7.67554C0.547453 9.13857 0.00289961 10.8573 0.00289961 12.6458C0.00289961 21.7231 0.00230196 39.9981 0.00230196 39.9981C-0.00885407 40.4979 -0.0578608 45.3909 2.09127 50.5401C2.24108 50.899 2.71302 51.0903 3.06842 50.9417C3.44922 50.7828 3.62901 50.3454 3.47013 49.9646C1.85291 46.0898 1.55598 42.2815 1.50508 40.7327H20.8468L26.4359 49.2194C27.0992 50.2265 28.2149 50.8283 29.4209 50.8292H41.0437C42.2491 50.8283 43.3647 50.2265 44.028 49.2194L45.0855 47.6136C45.3124 47.2691 45.2171 46.8058 44.8725 46.5788C44.528 46.352 44.0645 46.4472 43.8376 46.7919L42.7801 48.3976C42.3938 48.9841 41.7443 49.3346 41.0431 49.3351H39.2507C39.1559 48.8237 38.9659 48.3456 38.6993 47.9196L43.66 36.1029C44.4203 34.7031 42.2731 33.3338 41.4212 34.7122L34.4 46.079C32.7839 46.4144 31.5151 47.7071 31.2131 49.3351H29.4213C28.7194 49.3346 28.0699 48.9841 27.6836 48.3976C25.5882 45.2159 23.4927 42.0342 21.3974 38.8525C20.6208 37.6733 20.9045 36.1177 22.0431 35.3111C25.8872 32.5882 30.8176 30.9625 35.2319 30.9625C39.6462 30.9625 44.5765 32.5882 48.4206 35.3111C49.5593 36.1177 49.843 37.6733 49.0663 38.8525L45.4713 44.3113C45.2444 44.6558 45.3397 45.1191 45.6844 45.3461C46.0288 45.5729 46.4922 45.4777 46.7192 45.133L50.3142 39.6742C51.5363 37.8189 51.0839 35.3669 49.2845 34.0921ZM41.4484 37.5117L37.576 46.7357C37.1509 46.4371 36.6668 46.2175 36.1448 46.098L41.4484 37.5117ZM35.232 47.488C36.4028 47.488 37.395 48.2678 37.7166 49.3353H32.7472C33.0689 48.2678 34.0611 47.488 35.232 47.488ZM33.7375 12.6461L33.7467 29.525C33.3403 29.5549 32.9315 29.5957 32.521 29.6492C31.9922 28.7293 31.3893 27.8706 30.724 27.09V21.7867C31.7158 20.5937 32.2592 19.1031 32.2592 17.5497C32.2592 15.9283 31.6684 14.3746 30.5923 13.1571L27.8019 5.56077C31.1782 6.20085 33.7375 9.13349 33.7375 12.6461ZM5.88193 14.058C5.94887 13.9857 6.00076 13.9008 6.03483 13.8083L9.1126 5.42969H11.3721V11.7984C11.3721 15.2137 14.1826 17.9924 17.6373 17.9924C21.092 17.9924 23.9025 15.2137 23.9025 11.7984V5.42969H26.162L29.2398 13.8083C29.2737 13.9008 29.3257 13.9857 29.3927 14.058C30.2777 15.0146 30.7651 16.2548 30.7651 17.5498C30.7651 18.8429 30.2791 20.0813 29.3965 21.0375C29.3903 21.0437 29.3842 21.05 29.3782 21.0564C28.3833 22.1234 26.9705 22.7353 25.502 22.7353C25.0894 22.7353 24.7549 23.0697 24.7549 23.4823C24.7549 23.895 25.0894 24.2294 25.502 24.2294C26.8354 24.2294 28.1325 23.8334 29.23 23.1162V26.6197H6.04459V23.1162C7.14206 23.8333 8.43915 24.2294 9.7726 24.2294C10.1852 24.2294 10.5197 23.895 10.5197 23.4823C10.5197 23.0697 10.1852 22.7353 9.7726 22.7353C8.30408 22.7353 6.89125 22.1233 5.89637 21.0564C5.89079 21.0503 5.88512 21.0445 5.87934 21.0387C4.99602 20.0824 4.50954 18.8436 4.50954 17.5498C4.50954 16.2548 4.99692 15.0146 5.88193 14.058ZM21.1795 34.0921C19.5177 35.2694 19.0059 37.4505 19.8997 39.2387H17.6873H1.49701V39.2354C1.55986 37.5017 2.0828 32.8157 5.66379 28.1139H29.6351C30.1057 28.6715 30.5418 29.2734 30.9388 29.9117C27.5047 30.5982 24.0538 32.0561 21.1795 34.0921Z" fill="#134A85"/>
<path d="M34.4849 33.963V35.7554C34.4849 36.1681 34.8194 36.5025 35.2319 36.5025C35.6445 36.5025 35.979 36.1681 35.979 35.7554V33.963C35.979 33.5503 35.6445 33.2159 35.2319 33.2159C34.8194 33.2159 34.4849 33.5503 34.4849 33.963Z" fill="#134A85"/>
<path d="M31.3746 33.592C30.9683 33.6636 30.697 34.0511 30.7687 34.4574L31.08 36.2226C31.1453 36.593 31.5752 36.8942 31.9455 36.8285C32.3518 36.7569 32.6231 36.3694 32.5514 35.9631L32.2401 34.1979C32.1685 33.7916 31.7814 33.52 31.3746 33.592Z" fill="#134A85"/>
<path d="M27.6411 34.6321C27.2535 34.7733 27.0535 35.202 27.1947 35.5897L27.8078 37.274C27.9402 37.6376 28.4055 37.8512 28.7653 37.7204C29.153 37.5793 29.3529 37.1506 29.2118 36.7629L28.5987 35.0786C28.4575 34.6909 28.0287 34.4911 27.6411 34.6321Z" fill="#134A85"/>
<path d="M24.1451 36.3049C23.7878 36.5112 23.6654 36.9681 23.8717 37.3254L24.768 38.8777C25.0705 39.2558 25.4107 39.347 25.7885 39.1511C26.1458 38.9448 26.2682 38.4879 26.0619 38.1306L25.1656 36.5783C24.9593 36.2209 24.5024 36.0987 24.1451 36.3049Z" fill="#134A85"/>
<path d="M38.2239 34.1979L37.9126 35.9631C37.841 36.3695 38.1123 36.757 38.5186 36.8285C38.8888 36.8941 39.3188 36.5929 39.384 36.2225L39.6953 34.4574C39.7669 34.051 39.4956 33.6635 39.0893 33.592C38.6833 33.5201 38.2955 33.7917 38.2239 34.1979Z" fill="#134A85"/>
<path d="M45.6961 38.8777L46.5924 37.3254C46.7987 36.9681 46.6763 36.5112 46.319 36.3049C45.9617 36.0987 45.5048 36.2209 45.2985 36.5783L44.4022 38.1306C44.1959 38.4879 44.3183 38.9448 44.6756 39.1511C45.0534 39.3469 45.3935 39.2557 45.6961 38.8777Z" fill="#134A85"/>
</g>
<defs>
<clipPath id="clip0_1_115">
<rect width="51" height="51" fill="white"/>
</clipPath>
</defs>
</svg>
