<svg width="51" height="51" viewBox="0 0 51 51" fill="none" xmlns="http://www.w3.org/2000/svg">
<path d="M17.5512 46.2646C17.1386 46.2646 16.8041 46.599 16.8041 47.0117V50.253C16.8041 50.6657 17.1386 51.0001 17.5512 51.0001C17.9638 51.0001 18.2982 50.6657 18.2982 50.253V47.0117C18.2982 46.599 17.9638 46.2646 17.5512 46.2646Z" fill="#134A85"/>
<path d="M21.4748 4.17861C21.8874 4.17861 22.2219 3.84422 22.2219 3.43154V0.74707C22.2219 0.334389 21.8874 0 21.4748 0C21.0622 0 20.7277 0.334389 20.7277 0.74707V3.43154C20.7277 3.84422 21.0622 4.17861 21.4748 4.17861Z" fill="#134A85"/>
<path d="M33.2861 28.0236C33.2605 27.9977 33.2337 27.9732 33.2077 27.9478C33.8934 26.9945 34.2646 25.8529 34.2646 24.6618C34.2646 23.4678 33.8924 22.3245 33.2049 21.3713C34.1853 20.4165 34.8219 19.1096 34.8933 17.6671C35.0175 15.1801 33.4585 12.8898 31.1018 12.0975C30.6057 11.9309 30.2724 11.4538 30.2724 10.9102V0.74707C30.2724 0.334389 29.9379 0 29.5253 0C29.1127 0 28.7782 0.334389 28.7782 0.74707V10.9102C28.7782 12.0965 29.5209 13.1428 30.626 13.5139C32.3508 14.0937 33.492 15.771 33.401 17.5929C33.2978 19.6785 31.582 21.3787 29.4949 21.4633C28.1748 21.5204 26.9028 20.9248 26.0932 19.8787C25.9443 19.6773 24.6365 17.971 22.7532 17.528C22.3514 17.4333 21.9493 17.6826 21.8548 18.0841C21.7604 18.4857 22.0093 18.8879 22.4109 18.9825C23.3142 19.1949 24.075 19.8635 24.5082 20.3204C23.7107 21.088 22.6272 21.5093 21.5051 21.4633C19.4179 21.3786 17.7023 19.6785 17.5991 17.5926C17.5081 15.771 18.6493 14.0937 20.3738 13.514C21.4792 13.1428 22.2219 12.0966 22.2219 10.9102V6.91787C22.2219 6.50519 21.8874 6.1708 21.4748 6.1708C21.0622 6.1708 20.7277 6.50519 20.7277 6.91787V10.9102C20.7277 11.4538 20.3944 11.9309 19.898 12.0976C17.5416 12.8898 15.9826 15.1801 16.1067 17.6668C16.1781 19.1095 16.8147 20.4164 17.7951 21.3713C17.1076 22.3245 16.7354 23.4678 16.7354 24.6618C16.7354 25.8493 17.1042 26.9878 17.7859 27.9392C16.8083 28.8892 16.1826 30.1932 16.1068 31.6408C16.0671 32.4014 16.1785 33.1428 16.4273 33.8335C15.8506 34.4797 15.5173 35.3086 15.4974 36.1785C15.4732 37.1579 15.8325 38.087 16.5079 38.7938C16.6989 38.9947 16.8041 39.2724 16.8041 39.5758V43.5253C16.8041 43.938 17.1386 44.2724 17.5512 44.2724C17.9638 44.2724 18.2982 43.938 18.2982 43.5253V39.5758C18.2982 38.8874 18.0469 38.2439 17.5892 37.7628C17.1892 37.3443 16.9768 36.7947 16.9912 36.2141C16.9985 35.892 17.0794 35.5795 17.2227 35.2965C17.349 35.4632 17.4844 35.6246 17.6308 35.7788C18.5295 36.7257 19.6949 37.3115 20.9663 37.4711C20.9025 37.5662 20.8319 37.6572 20.7529 37.7422C20.2827 38.248 20.0238 38.8929 20.0238 39.558V50.2529C20.0238 50.6656 20.3583 51 20.7708 51C21.1834 51 21.5179 50.6656 21.5179 50.2529V39.5579C21.5179 39.2715 21.6349 38.9879 21.8474 38.7592C22.1248 38.4606 22.3465 38.1204 22.5091 37.7539C22.5997 37.8099 22.6854 37.8747 22.7645 37.9491C23.0599 38.2262 23.2363 38.6023 23.2611 39.0076L23.9495 50.2984C23.9736 50.6947 24.3026 51 24.6945 51C24.7098 51 24.7252 50.9995 24.7407 50.9986C25.1525 50.9735 25.466 50.6192 25.4409 50.2075L24.7525 38.9165C24.7042 38.1289 24.3613 37.3983 23.7876 36.8601C23.2135 36.32 22.4636 36.0226 21.676 36.0226C20.5451 36.0226 19.4934 35.5707 18.7145 34.7501C17.936 33.9298 17.5397 32.8533 17.599 31.7188C17.7008 29.7758 19.2354 28.1294 21.1728 27.8883C21.2676 27.876 21.3676 27.8672 21.4774 27.8617C22.3452 27.8193 23.1894 27.4689 23.8547 26.8744C24.3067 26.4698 24.891 26.247 25.5 26.247C26.108 26.247 26.6926 26.4699 27.1457 26.8747C27.8087 27.4673 28.6525 27.8176 29.5222 27.8614L29.5658 27.8643C31.6223 27.9831 33.3072 29.6876 33.4017 31.7448C33.4854 33.5602 32.3442 35.2316 30.6266 35.8097C29.5209 36.1818 28.7781 37.2285 28.7781 38.4143V41.6744C28.7781 42.0871 29.1126 42.4214 29.5252 42.4214C29.9378 42.4214 30.2723 42.0871 30.2723 41.6744V38.4144C30.2723 37.8708 30.6063 37.3931 31.1032 37.2258C33.4495 36.4361 35.0085 34.1541 34.8944 31.6763C34.8314 30.3064 34.2602 29.0091 33.2861 28.0236ZM29.6221 26.3707C29.6153 26.3702 29.6083 26.3698 29.6014 26.3694C29.0625 26.3431 28.5576 26.1326 28.1412 25.7606C27.4137 25.1108 26.4757 24.7529 25.5 24.7529C24.5228 24.7529 23.5846 25.111 22.8587 25.7607C22.4422 26.1328 21.9394 26.3434 21.4036 26.3695C21.253 26.377 21.1144 26.3891 20.9841 26.4061C20.2649 26.4956 19.5919 26.7202 18.9881 27.0513C18.4958 26.3558 18.2295 25.5265 18.2295 24.6617C18.2295 23.7927 18.4975 22.9602 18.9931 22.264C19.7282 22.6728 20.5619 22.9204 21.4443 22.9563C22.9531 23.0152 24.4154 22.4613 25.4999 21.4413C26.5302 22.4104 27.9009 22.9609 29.3292 22.9609C29.4044 22.9609 29.48 22.9593 29.5554 22.9563C30.4379 22.9204 31.2716 22.6728 32.0067 22.264C32.5023 22.9603 32.7703 23.7927 32.7703 24.6617C32.7703 25.5285 32.5029 26.3596 32.0084 27.0561C31.288 26.6575 30.4864 26.421 29.6573 26.3731L29.6221 26.3707Z" fill="#134A85"/>
<path d="M29.5252 44.4119C29.1126 44.4119 28.7781 44.7463 28.7781 45.1589V50.253C28.7781 50.6656 29.1126 51 29.5252 51C29.9378 51 30.2723 50.6656 30.2723 50.253V45.1589C30.2723 44.7464 29.9378 44.4119 29.5252 44.4119Z" fill="#134A85"/>
<path d="M45.2219 23.7437H42.002C41.748 23.7437 41.5114 23.8727 41.3739 24.0862C41.2363 24.2999 41.2168 24.5686 41.3219 24.7998L41.848 25.9573H39.7883C39.3757 25.9573 39.0412 26.2917 39.0412 26.7043C39.0412 27.117 39.3757 27.4514 39.7883 27.4514H43.0081C43.2621 27.4514 43.4987 27.3223 43.6363 27.1089C43.7738 26.8952 43.7934 26.6264 43.6883 26.3953L43.1621 25.2378H45.2219C45.6344 25.2378 45.9689 24.9034 45.9689 24.4907C45.9689 24.078 45.6344 23.7437 45.2219 23.7437Z" fill="#134A85"/>
<path d="M37.1469 21.7993C37.2927 21.9451 37.484 22.018 37.6751 22.018C37.8663 22.018 38.0575 21.9451 38.2034 21.7993L40.4801 19.5225C40.6597 19.3428 40.7357 19.0843 40.6821 18.836C40.6283 18.5878 40.4521 18.3839 40.2142 18.2946L39.0238 17.8483L40.4801 16.3919C40.7719 16.1 40.7719 15.6271 40.4801 15.3353C40.1884 15.0437 39.7153 15.0437 39.4237 15.3353L37.1469 17.6121C36.9673 17.7918 36.8913 18.0503 36.945 18.2986C36.9988 18.5468 37.175 18.7507 37.4129 18.84L38.6033 19.2863L37.1469 20.7427C36.8552 21.0345 36.8552 21.5074 37.1469 21.7993Z" fill="#134A85"/>
<path d="M39.0239 33.1518L40.2143 32.7055C40.4522 32.6162 40.6284 32.4124 40.6822 32.1641C40.7359 31.9158 40.6598 31.6573 40.4802 31.4776L38.2035 29.2008C37.9117 28.9091 37.4387 28.9091 37.147 29.2008C36.8553 29.4927 36.8553 29.9656 37.147 30.2574L38.6034 31.7137L37.413 32.1601C37.1751 32.2493 36.9989 32.4531 36.9451 32.7015C36.8913 32.9497 36.9674 33.2083 37.147 33.388L39.4238 35.6647C39.5696 35.8106 39.7609 35.8835 39.952 35.8835C40.1432 35.8835 40.3344 35.8106 40.4802 35.6647C40.772 35.3729 40.772 34.8999 40.4802 34.6082L39.0239 33.1518Z" fill="#134A85"/>
<path d="M11.9588 26.7045C11.9588 26.2918 11.6243 25.9574 11.2117 25.9574H9.15201L9.67814 24.7999C9.78323 24.5687 9.76371 24.2999 9.62615 24.0863C9.48869 23.8728 9.25201 23.7438 8.99801 23.7438H5.77814C5.36556 23.7438 5.03107 24.0782 5.03107 24.4908C5.03107 24.9035 5.36556 25.2379 5.77814 25.2379H7.83786L7.31172 26.3954C7.20664 26.6266 7.22616 26.8954 7.36372 27.109C7.50118 27.3225 7.73785 27.4515 7.99186 27.4515H11.2117C11.6243 27.4515 11.9588 27.117 11.9588 26.7045Z" fill="#134A85"/>
<path d="M12.3967 19.2862L13.5871 18.8399C13.825 18.7506 14.0012 18.5468 14.055 18.2985C14.1088 18.0502 14.0327 17.7917 13.8531 17.612L11.5763 15.3352C11.2846 15.0435 10.8115 15.0435 10.5199 15.3352C10.2281 15.6271 10.2281 16.1 10.5199 16.3918L11.9762 17.8481L10.7858 18.2945C10.5479 18.3837 10.3717 18.5875 10.3179 18.8359C10.2642 19.0841 10.3403 19.3427 10.5199 19.5224L12.7966 21.7991C12.9425 21.945 13.1337 22.0179 13.3249 22.0179C13.516 22.0179 13.7073 21.945 13.8531 21.7991C14.1448 21.5073 14.1448 21.0343 13.8531 20.7426L12.3967 19.2862Z" fill="#134A85"/>
<path d="M13.8531 29.2008C13.5613 28.9091 13.0883 28.9091 12.7966 29.2008L10.5198 31.4776C10.3402 31.6573 10.2642 31.9158 10.3179 32.1641C10.3717 32.4123 10.5479 32.6162 10.7858 32.7055L11.9762 33.1518L10.5198 34.6082C10.2281 34.9 10.2281 35.373 10.5198 35.6647C10.6657 35.8106 10.8569 35.8835 11.0481 35.8835C11.2392 35.8835 11.4305 35.8106 11.5763 35.6647L13.8531 33.388C14.0327 33.2083 14.1087 32.9498 14.055 32.7015C14.0012 32.4532 13.825 32.2493 13.5871 32.1601L12.3967 31.7137L13.8531 30.2574C14.1448 29.9656 14.1448 29.4927 13.8531 29.2008Z" fill="#134A85"/>
</svg>
