<svg width="51" height="51" viewBox="0 0 51 51" fill="none" xmlns="http://www.w3.org/2000/svg">
<path d="M25.4956 1.43763C29.4034 1.43523 33.253 2.38676 36.7094 4.21009C36.9108 4.3169 37.0615 4.49998 37.1284 4.7179C37.1951 4.93565 37.1725 5.17098 37.0659 5.3722C36.9591 5.57344 36.7768 5.72422 36.559 5.79114C36.3411 5.858 36.1051 5.83546 35.9038 5.72864C21.3707 -2.1767 2.94485 8.93011 3.15181 25.5001C4.37641 55.1376 46.6146 55.1372 47.8393 25.5001C47.8419 21.8731 46.9589 18.3002 45.267 15.0919C45.1622 14.8908 45.1412 14.6562 45.2084 14.4396C45.2758 14.2231 45.4261 14.042 45.6264 13.9357C45.8267 13.8294 46.0608 13.8066 46.2778 13.8722C46.4949 13.9379 46.6778 14.0867 46.7856 14.2863C48.7171 17.9533 49.6679 22.0574 49.5473 26.2003C49.4267 30.3432 48.2387 34.3852 46.0971 37.9337C43.9555 41.4822 40.933 44.4168 37.3237 46.4542C33.7144 48.4916 29.6402 49.5626 25.4956 49.5626C-6.42151 48.2445 -6.42188 2.75638 25.4956 1.43763ZM25.4956 9.172C28.257 9.17371 30.9731 9.87571 33.3891 11.213C33.4878 11.2677 33.5747 11.3415 33.645 11.4298C33.7151 11.518 33.7672 11.6194 33.7983 11.7277C33.8294 11.8362 33.8384 11.9505 33.8256 12.0626C33.8128 12.1746 33.7788 12.2834 33.7241 12.382C33.6695 12.4808 33.5955 12.5675 33.5073 12.6378C33.419 12.7082 33.3179 12.761 33.2094 12.7921C33.101 12.8232 32.9875 12.8323 32.8754 12.8195C32.7634 12.8066 32.6547 12.7717 32.5561 12.7169C23.1078 7.26875 10.699 14.587 10.8862 25.5001C10.8905 29.3734 12.4316 33.0865 15.1704 35.8253C17.9092 38.5641 21.6224 40.1052 25.4956 40.1095C36.4089 40.2987 43.7258 27.8864 38.2788 18.4396C38.2237 18.341 38.1884 18.2324 38.1752 18.1202C38.1621 18.0079 38.1716 17.8941 38.2026 17.7853C38.2335 17.6766 38.2857 17.575 38.3559 17.4865C38.4262 17.3978 38.5138 17.3235 38.6127 17.2687C38.7115 17.214 38.8199 17.1789 38.9321 17.1661C39.0443 17.1535 39.1585 17.1632 39.267 17.1945C39.3757 17.2259 39.4775 17.2791 39.5659 17.3497C39.6541 17.4204 39.7282 17.5075 39.7827 17.6066C41.1582 20.0915 41.8605 22.8926 41.8217 25.7325C41.7829 28.5726 41.0039 31.3535 39.561 33.7999C38.118 36.2464 36.061 38.2738 33.5942 39.6818C31.1274 41.0897 28.3359 41.8299 25.4956 41.8283C3.83761 40.9334 3.83737 10.0672 25.4956 9.172ZM25.4956 16.9064C26.4753 16.9987 29.1524 16.9379 28.7749 18.4581C28.7006 18.6736 28.5432 18.8505 28.3383 18.9503C28.1335 19.0501 27.8975 19.0645 27.6821 18.9904C26.9786 18.748 26.2396 18.6247 25.4956 18.6251C23.6729 18.6272 21.925 19.3519 20.6362 20.6408C19.3474 21.9296 18.6227 23.6775 18.6206 25.5001C18.9653 34.6068 32.0258 34.6064 32.3706 25.5001C32.3733 24.7594 32.2523 24.0234 32.0131 23.3224C31.9764 23.2158 31.9614 23.1029 31.9682 22.9904C31.9751 22.8777 32.0037 22.7666 32.0532 22.6652C32.1026 22.5638 32.1718 22.4733 32.2563 22.3986C32.3408 22.3238 32.4396 22.2663 32.5463 22.2296C34.0596 21.8539 34.0015 24.5026 34.0893 25.5001C34.0867 27.7783 33.1806 29.9624 31.5698 31.5734C29.9587 33.1845 27.774 34.0913 25.4956 34.0939C14.0969 33.6231 14.0964 17.3776 25.4956 16.9064ZM42.3266 2.79017C42.4864 2.75646 42.653 2.76863 42.8061 2.82532C42.9592 2.88203 43.0925 2.98187 43.1918 3.11145C43.2911 3.24108 43.3518 3.39612 43.3666 3.55872L43.6567 7.33899L47.437 7.62903C47.5996 7.64385 47.7555 7.70452 47.8852 7.80384C48.0146 7.90307 48.1137 8.03666 48.1704 8.18958C48.2271 8.34276 48.2393 8.50926 48.2055 8.66907C48.1718 8.82875 48.0936 8.97577 47.9799 9.0929L41.725 15.3478C41.6375 15.4354 41.5317 15.503 41.4155 15.546C41.2993 15.589 41.1747 15.6063 41.0512 15.5968L36.9301 15.2814L26.103 26.1075C25.9408 26.2632 25.7242 26.3491 25.4995 26.3468C25.2746 26.3445 25.0598 26.2539 24.9008 26.0949C24.7419 25.9359 24.6512 25.721 24.6489 25.4962C24.6466 25.2715 24.7325 25.0549 24.8881 24.8927L35.7143 14.0656L35.3989 9.94446C35.3894 9.82094 35.4066 9.69638 35.4497 9.5802C35.4927 9.46402 35.5602 9.35817 35.6479 9.27063L41.9028 3.01673C42.02 2.90298 42.1668 2.82389 42.3266 2.79017ZM37.143 10.2072L37.4018 13.5939L40.7885 13.8527L45.4428 9.19935C41.4634 8.85052 42.1403 9.55496 41.7963 5.55286L37.143 10.2072Z" fill="url(#paint0_linear_4835_5860)"/>
<defs>
<linearGradient id="paint0_linear_4835_5860" x1="49.5576" y1="49.5624" x2="1.43296" y2="1.5626" gradientUnits="userSpaceOnUse">
<stop stop-color="#54BE95"/>
<stop offset="0.288462" stop-color="#2E7B9A"/>
<stop offset="1" stop-color="#224075"/>
</linearGradient>
</defs>
</svg>
