<svg width="51" height="51" viewBox="0 0 51 51" fill="none" xmlns="http://www.w3.org/2000/svg">
<path fill-rule="evenodd" clip-rule="evenodd" d="M48.2405 14.8676C48.0465 14.6536 47.7713 14.536 47.4774 14.536H47.3836C46.902 14.536 46.4954 14.8507 46.3828 15.318L43.8369 25.4881C43.4366 27.0851 42.7047 28.3648 41.5288 29.5157L38.8892 32.0978C39.0956 32.5488 39.1769 33.0511 39.127 33.5609C39.0457 34.3034 38.6892 34.9689 38.1074 35.4375L31.5021 40.7849C31.3645 40.8969 31.2019 40.95 31.0329 40.95C30.8203 40.95 30.6076 40.8563 30.4574 40.6748C30.2009 40.3565 30.251 39.8892 30.57 39.6315L37.1754 34.2834C37.4444 34.0651 37.6133 33.7536 37.6508 33.4052C37.6884 33.0567 37.5882 32.7164 37.3693 32.4469C36.9127 31.8877 36.0933 31.8014 35.5304 32.2542L27.9867 38.3623C27.2299 38.9735 26.6481 39.6929 26.2416 40.5009L26.3542 48.3166C26.398 48.3179 26.4417 48.3198 26.4855 48.3216C28.3307 48.3792 30.2135 48.3592 32.0401 48.3403C32.9533 48.3304 33.9042 48.3209 34.8362 48.3209C35.3053 48.3209 35.6994 47.9369 35.7057 47.4646C35.7495 44.6305 36.106 44.1638 38.0013 42.1678C38.3015 41.8507 38.6392 41.4916 39.0333 41.0688C39.9653 40.0555 40.8848 39.266 41.7793 38.5042C43.243 37.2532 44.6191 36.0716 45.7263 34.1013C47.6592 30.6397 48.0032 24.3834 48.2784 19.3568C48.3472 18.0244 48.416 16.7671 48.5098 15.6544C48.5344 15.3604 48.4406 15.0808 48.2405 14.8676ZM24.8651 48.321L24.7588 40.4872C24.4023 39.6753 23.9268 39.106 23.0073 38.3623L15.4637 32.2542C14.907 31.8014 14.0814 31.8877 13.6248 32.4469C13.4121 32.7164 13.312 33.0567 13.3433 33.4052C13.3809 33.7536 13.5497 34.0651 13.8187 34.2834L20.424 39.6315C20.7431 39.8892 20.793 40.3565 20.5367 40.6748C20.3928 40.8568 20.1739 40.9513 19.9613 40.9513C19.7923 40.9513 19.6297 40.8969 19.4921 40.7862L12.8868 35.4375C12.3112 34.9689 11.9485 34.3034 11.8672 33.5609C11.8171 33.0511 11.8984 32.5489 12.1112 32.0978L9.46533 29.5157C8.28943 28.3648 7.55757 27.085 7.15724 25.4881L4.61765 15.318C4.49877 14.8507 4.09844 14.536 3.61682 14.536H3.51668C3.22273 14.536 2.95376 14.6536 2.7536 14.8676C2.55343 15.0815 2.45965 15.3604 2.48463 15.6545C2.57841 16.7672 2.64721 18.0258 2.72238 19.3569C2.99759 24.3847 3.33536 30.6398 5.27446 34.1014C6.37531 36.0717 7.75774 37.2534 9.22146 38.5043C10.1097 39.2663 11.0292 40.0556 11.9675 41.0689C12.3553 41.4918 12.6931 41.8508 12.9933 42.1667C14.8885 44.1639 15.245 44.6305 15.2889 47.4647C15.2951 47.937 15.6892 48.321 16.1583 48.321H24.8651ZM49.9919 15.777C49.8981 16.8692 49.8293 18.1165 49.7541 19.4369C49.4727 24.6167 49.1224 31.0639 47.0207 34.8256C45.7884 37.028 44.3061 38.2934 42.7422 39.6326C41.8852 40.3669 40.997 41.1263 40.1213 42.0746C39.7272 42.505 39.3832 42.8684 39.0767 43.1893C37.3315 45.0321 37.2251 45.1422 37.1876 47.4884C37.1689 48.7663 36.1118 49.806 34.8357 49.806C33.9099 49.806 32.9654 49.8154 32.0523 49.8254C31.1327 49.8354 30.2007 49.8455 29.2562 49.8455C28.3179 49.8455 27.3796 49.8354 26.4414 49.806C26.2287 49.7985 26.0286 49.7891 25.8284 49.7747C25.7596 49.7947 25.6908 49.806 25.6157 49.806H16.1581C14.8821 49.806 13.8249 48.7665 13.8062 47.4884C13.7687 45.1422 13.6623 45.0321 11.9172 43.1881C11.6107 42.8684 11.2666 42.505 10.8725 42.0746C9.9968 41.1264 9.1086 40.367 8.25162 39.6326C6.68788 38.2934 5.20542 37.028 3.97945 34.8256C1.87153 31.0638 1.52115 24.618 1.23969 19.4381C1.16465 18.1176 1.09584 16.8691 1.00831 15.7769C0.951991 15.0757 1.18349 14.3765 1.65887 13.8617C2.13425 13.3475 2.8098 13.051 3.51668 13.051H3.61682C4.77399 13.051 5.77482 13.8354 6.05627 14.9575L8.59587 25.129C8.9274 26.4476 9.53414 27.5034 10.5036 28.4536L13.0682 30.9626C14.0628 30.2883 15.4201 30.3076 16.3959 31.0996L23.9457 37.2083C24.5587 37.7043 25.0842 38.2016 25.522 38.8271C25.941 38.2341 26.454 37.6924 27.0545 37.2083L34.5981 31.0996C35.1735 30.633 35.9054 30.4178 36.6435 30.496C37.1126 30.5454 37.5504 30.7061 37.9257 30.9626L40.4903 28.4536C41.4598 27.5034 42.0666 26.4476 42.3981 25.129L44.9377 14.9575C45.2191 13.8354 46.2262 13.051 47.3834 13.051H47.4772C48.184 13.051 48.8595 13.3475 49.3348 13.8617C49.8105 14.3777 50.0481 15.0758 49.9919 15.777ZM11.3917 17.549C14.6944 15.416 16.352 11.4197 15.5263 7.57592C19.3669 8.40352 23.364 6.74773 25.4969 3.44563C27.267 6.18158 30.3133 7.7873 33.4909 7.7873C34.1477 7.7873 34.8106 7.7185 35.4737 7.57592C34.6418 11.4197 36.2993 15.416 39.602 17.549C36.2993 19.6826 34.6417 23.6796 35.4737 27.5234C31.6268 26.696 27.6298 28.3511 25.4969 31.6543C23.733 28.9184 20.6866 27.3126 17.5028 27.3126C16.846 27.3126 16.183 27.3809 15.5263 27.5234C16.352 23.6797 14.6944 19.6828 11.3917 17.549ZM9.10235 17.549C9.10235 17.2582 9.27118 16.993 9.54015 16.8729C13.3808 15.1371 15.226 10.6885 13.7373 6.74403C13.631 6.47125 13.6998 6.16354 13.9062 5.95655C14.1126 5.75072 14.4192 5.68446 14.6944 5.78761C18.6351 7.2763 23.0887 5.43422 24.8213 1.59107C24.9402 1.32591 25.2029 1.15454 25.4969 1.15454C25.7908 1.15454 26.0535 1.32591 26.1724 1.59107C27.9113 5.43422 32.3587 7.2763 36.3057 5.78761C36.5747 5.68446 36.8812 5.75072 37.0876 5.95655C37.294 6.16365 37.3628 6.47136 37.2628 6.74403C35.7679 10.6885 37.6131 15.1371 41.4537 16.8729C41.7227 16.9931 41.8916 17.2582 41.8916 17.549C41.8916 17.8411 41.7227 18.1064 41.4537 18.2264C37.6131 19.9616 35.7679 24.4115 37.2628 28.3546C37.3629 28.628 37.2941 28.9357 37.0876 29.1428C36.8812 29.3486 36.5747 29.4149 36.3057 29.3118C32.3587 27.8225 27.9113 29.6658 26.1724 33.507C26.0535 33.7736 25.7908 33.9437 25.4969 33.9437C25.2028 33.9437 24.9402 33.7736 24.8213 33.507C23.0886 29.6658 18.635 27.8224 14.6944 29.3118C14.4192 29.415 14.1126 29.3486 13.9062 29.1428C13.6998 28.9358 13.631 28.628 13.7373 28.3546C15.226 24.4115 13.3808 19.9616 9.54015 18.2264C9.2713 18.1064 9.10235 17.8413 9.10235 17.549ZM18.0409 17.549C18.0409 13.4382 21.3874 10.0937 25.497 10.0937C29.6066 10.0937 32.9531 13.4383 32.9531 17.549C32.9531 21.6612 29.6066 25.0057 25.497 25.0057C21.3874 25.0058 18.0409 21.6612 18.0409 17.549ZM16.5584 17.549C16.5584 12.6194 20.568 8.60866 25.497 8.60866C30.426 8.60866 34.4355 12.6194 34.4355 17.549C34.4355 22.48 30.426 26.4907 25.497 26.4907C20.5679 26.4907 16.5584 22.48 16.5584 17.549ZM21.1809 18.5161C20.8869 18.2264 20.8869 17.7562 21.1809 17.4659C21.4686 17.1762 21.9377 17.1762 22.2255 17.4659L24.3022 19.5401L28.712 13.9836C28.9622 13.6628 29.4314 13.6084 29.7503 13.8635C30.0756 14.1181 30.1255 14.5853 29.8754 14.9062L24.9464 21.1156C24.8151 21.2807 24.6211 21.3827 24.4085 21.3945C24.396 21.3958 24.3835 21.3964 24.3647 21.3964C24.1707 21.3964 23.9831 21.3182 23.8392 21.1786L21.1809 18.5161Z" fill="url(#paint0_linear_4835_5867)" stroke="url(#paint1_linear_4835_5867)" stroke-width="0.11"/>
<defs>
<linearGradient id="paint0_linear_4835_5867" x1="50" y1="49.8454" x2="1.31006" y2="0.846432" gradientUnits="userSpaceOnUse">
<stop stop-color="#54BE95"/>
<stop offset="0.288462" stop-color="#2E7B9A"/>
<stop offset="1" stop-color="#224075"/>
</linearGradient>
<linearGradient id="paint1_linear_4835_5867" x1="50" y1="49.8454" x2="1.31006" y2="0.846432" gradientUnits="userSpaceOnUse">
<stop stop-color="#54BE95"/>
<stop offset="0.288462" stop-color="#2E7B9A"/>
<stop offset="1" stop-color="#224075"/>
</linearGradient>
</defs>
</svg>
