<svg width="47" height="47" viewBox="0 0 47 47" fill="none" xmlns="http://www.w3.org/2000/svg">
<path d="M41.9809 7.34388L36.3282 4.3457L35.6396 5.64325L41.4539 8.72698C41.5599 8.78322 41.678 8.81263 41.798 8.81263H45.47V7.34388H41.9809Z" fill="url(#paint0_linear_4934_5693)"/>
<path d="M41.7322 14.6905L37.3167 15.0919C36.2936 15.1825 35.2633 15.0345 34.307 14.6596C33.3507 14.2847 32.4945 13.693 31.8055 12.9312L29.5211 10.3927C29.1749 10.008 28.9753 9.51365 28.9571 8.99644C28.9389 8.47922 29.1034 7.97213 29.4218 7.56406L33.3131 10.1582C33.3933 10.2129 33.4836 10.2511 33.5786 10.2706C33.6737 10.2901 33.7717 10.2907 33.867 10.2721C33.9622 10.2535 34.0529 10.2163 34.1336 10.1625C34.2144 10.1087 34.2837 10.0394 34.3375 9.95864C34.3914 9.87789 34.4287 9.78727 34.4473 9.69202C34.4659 9.59677 34.4654 9.49877 34.4459 9.4037C34.4264 9.30863 34.3882 9.21837 34.3337 9.13813C34.2791 9.05789 34.2091 8.98928 34.1278 8.93624L29.7216 5.99874L29.7202 5.99773L29.7193 5.99718C29.5982 5.91701 29.456 5.8745 29.3108 5.875H21.2366C20.3956 5.87469 19.5811 5.58118 18.9333 5.04501C18.2854 4.50884 17.8447 3.76356 17.6872 2.9375H30.5387L34.1711 4.86413L34.8596 3.56658L31.0659 1.5544C30.9599 1.49814 30.8418 1.46873 30.7218 1.46875H16.8911C16.6981 1.46873 16.5128 1.5447 16.3754 1.68023C16.238 1.81575 16.1594 1.99994 16.1567 2.19294C16.1474 2.86597 16.2719 3.53414 16.523 4.15865C16.7741 4.78316 17.1467 5.35155 17.6194 5.83079C18.092 6.31003 18.6552 6.69057 19.2761 6.9503C19.8971 7.21002 20.5635 7.34377 21.2366 7.34375H27.841C27.5302 7.9988 27.4202 8.7312 27.525 9.44864C27.6298 10.1661 27.9446 10.8365 28.4297 11.3753L30.7142 13.9137C31.4744 14.7544 32.4023 15.4266 33.438 15.8872C34.4738 16.3477 35.5944 16.5863 36.728 16.5877C36.968 16.5877 37.2086 16.5768 37.4497 16.555L41.8319 16.1562H45.4704V14.6875H41.7985C41.7768 14.6875 41.7542 14.6885 41.7322 14.6905Z" fill="url(#paint1_linear_4934_5693)"/>
<path d="M25.7632 39.6562H22.7654V41.125H25.7632C26.6042 41.1253 27.4187 41.4188 28.0666 41.955C28.7144 42.4912 29.1551 43.2364 29.3126 44.0625H16.4611L5.54532 38.2731C5.43932 38.2169 5.32116 38.1875 5.20117 38.1875H1.5293V39.6562H5.0185L15.9339 45.4456C16.0399 45.5019 16.158 45.5313 16.278 45.5312H30.1092C30.3022 45.5313 30.4874 45.4553 30.6249 45.3198C30.7623 45.1842 30.8409 45.0001 30.8435 44.8071C30.8529 44.134 30.7284 43.4658 30.4773 42.8412C30.2261 42.2167 29.8534 41.6483 29.3807 41.169C28.908 40.6898 28.3448 40.3093 27.7238 40.0496C27.1028 39.7899 26.4363 39.6562 25.7632 39.6562Z" fill="url(#paint2_linear_4934_5693)"/>
<path d="M5.26763 32.3093L9.68306 31.908C10.7062 31.8173 11.7365 31.9652 12.6928 32.3401C13.6491 32.7151 14.5054 33.3068 15.1943 34.0687L17.4787 36.6072C17.825 36.9919 18.0248 37.4862 18.043 38.0035C18.0612 38.5208 17.8967 39.028 17.5783 39.4361L13.6867 36.842C13.6065 36.7873 13.5162 36.7491 13.4212 36.7296C13.3261 36.7101 13.2281 36.7096 13.1329 36.7281C13.0376 36.7467 12.947 36.7839 12.8662 36.8377C12.7854 36.8915 12.7161 36.9608 12.6623 37.0416C12.6084 37.1223 12.5711 37.2129 12.5525 37.3082C12.5339 37.4034 12.5344 37.5014 12.5539 37.5965C12.5734 37.6916 12.6116 37.7818 12.6662 37.8621C12.7208 37.9423 12.7907 38.0109 12.872 38.064L17.2782 41.0015L17.2796 41.0025L17.2806 41.0031C17.4007 41.0825 17.5414 41.1249 17.6854 41.1248H21.2967V39.6561H19.1587C19.4696 39.0011 19.5796 38.2687 19.4749 37.5512C19.3701 36.8337 19.0553 36.1634 18.5701 35.6246L16.2856 33.0862C15.4436 32.155 14.3971 31.4319 13.2283 30.9736C12.0595 30.5154 10.8004 30.3345 9.54987 30.4452L5.16794 30.8436H1.5293V32.3123H5.20117C5.22302 32.3123 5.2456 32.3113 5.26763 32.3093Z" fill="url(#paint3_linear_4934_5693)"/>
<path d="M26.4375 13.9531H20.5625C20.3677 13.9531 20.1809 14.0305 20.0432 14.1682C19.9055 14.3059 19.8281 14.4927 19.8281 14.6875V19.8281H18.3594V21.2969H20.5625C20.7573 21.2969 20.9441 21.2195 21.0818 21.0818C21.2195 20.9441 21.2969 20.7573 21.2969 20.5625V15.4219H25.7031V20.5625C25.7031 20.7573 25.7805 20.9441 25.9182 21.0818C26.0559 21.2195 26.2427 21.2969 26.4375 21.2969H31.5781V25.7031H26.4375C26.2427 25.7031 26.0559 25.7805 25.9182 25.9182C25.7805 26.0559 25.7031 26.2427 25.7031 26.4375V31.5781H21.2969V26.4375C21.2969 26.2427 21.2195 26.0559 21.0818 25.9182C20.9441 25.7805 20.7573 25.7031 20.5625 25.7031H15.4219V21.2969H16.8906V19.8281H14.6875C14.4927 19.8281 14.3059 19.9055 14.1682 20.0432C14.0305 20.1809 13.9531 20.3677 13.9531 20.5625V26.4375C13.9531 26.6323 14.0305 26.8191 14.1682 26.9568C14.3059 27.0945 14.4927 27.1719 14.6875 27.1719H19.8281V32.3125C19.8281 32.5073 19.9055 32.6941 20.0432 32.8318C20.1809 32.9695 20.3677 33.0469 20.5625 33.0469H26.4375C26.6323 33.0469 26.8191 32.9695 26.9568 32.8318C27.0945 32.6941 27.1719 32.5073 27.1719 32.3125V27.1719H32.3125C32.5073 27.1719 32.6941 27.0945 32.8318 26.9568C32.9695 26.8191 33.0469 26.6323 33.0469 26.4375V20.5625C33.0469 20.3677 32.9695 20.1809 32.8318 20.0432C32.6941 19.9055 32.5073 19.8281 32.3125 19.8281H27.1719V14.6875C27.1719 14.4927 27.0945 14.3059 26.9568 14.1682C26.8191 14.0305 26.6323 13.9531 26.4375 13.9531Z" fill="url(#paint4_linear_4934_5693)"/>
<path d="M9.54688 23.5C9.54524 25.0627 9.8074 26.6144 10.3223 28.0898L11.7089 27.6056C11.2484 26.2858 11.0141 24.8978 11.0156 23.5C11.0156 16.6161 16.6161 11.0156 23.5 11.0156C23.9637 11.0157 24.427 11.0412 24.8878 11.0922L25.0497 9.63261C24.5351 9.57558 24.0178 9.54695 23.5 9.54688C15.8062 9.54688 9.54688 15.8062 9.54688 23.5Z" fill="url(#paint5_linear_4934_5693)"/>
<path d="M23.4999 35.9844C23.0363 35.9843 22.573 35.9588 22.1121 35.9078L21.9502 37.3674C22.4648 37.4244 22.9822 37.453 23.4999 37.4531C31.1937 37.4531 37.453 31.1938 37.453 23.5C37.4547 21.9373 37.1925 20.3856 36.6776 18.9102L35.291 19.3944C35.7515 20.7142 35.9858 22.1022 35.9843 23.5C35.9843 30.3839 30.3838 35.9844 23.4999 35.9844Z" fill="url(#paint6_linear_4934_5693)"/>
<path d="M39.3734 18.5035C39.2547 18.5913 39.1653 18.7128 39.1168 18.8522C39.0683 18.9916 39.0628 19.1424 39.1013 19.2849C40.0442 22.7917 39.7804 26.5138 38.3521 29.8526C36.9238 33.1914 34.4141 35.9527 31.2266 37.6926L31.9301 38.982C35.1404 37.2298 37.7272 34.5237 39.3329 31.2378C40.9386 27.9518 41.4841 24.2482 40.8938 20.6388L42.9386 21.9193L43.7181 20.6745L40.2001 18.4714C40.075 18.393 39.9292 18.3542 39.7818 18.3599C39.6343 18.3657 39.492 18.4157 39.3734 18.5035Z" fill="url(#paint7_linear_4934_5693)"/>
<path d="M7.00938 27.9064C7.11932 27.9064 7.22786 27.8817 7.32698 27.8342C7.42611 27.7866 7.5133 27.7174 7.58212 27.6317C7.65094 27.546 7.69963 27.4459 7.72461 27.3388C7.74958 27.2318 7.75019 27.1204 7.7264 27.0131C6.93537 23.4563 7.36908 19.7366 8.95722 16.4572C10.5453 13.1779 13.1948 10.5312 16.4757 8.94639L15.8365 7.62451C12.4985 9.23984 9.75406 11.8655 7.99276 15.1288C6.23145 18.3922 5.54275 22.1274 6.0244 25.8042L3.28683 24.323L2.58789 25.6148L6.66 27.8179C6.76728 27.876 6.88737 27.9064 7.00938 27.9064Z" fill="url(#paint8_linear_4934_5693)"/>
<defs>
<linearGradient id="paint0_linear_4934_5693" x1="45.47" y1="8.81263" x2="42.1051" y2="1.40776" gradientUnits="userSpaceOnUse">
<stop stop-color="#54BE95"/>
<stop offset="0.288462" stop-color="#2E7B9A"/>
<stop offset="1" stop-color="#224075"/>
</linearGradient>
<linearGradient id="paint1_linear_4934_5693" x1="45.4704" y1="16.5877" x2="33.1519" y2="-7.29683" gradientUnits="userSpaceOnUse">
<stop stop-color="#54BE95"/>
<stop offset="0.288462" stop-color="#2E7B9A"/>
<stop offset="1" stop-color="#224075"/>
</linearGradient>
<linearGradient id="paint2_linear_4934_5693" x1="30.844" y1="45.5312" x2="27.3819" y2="31.7111" gradientUnits="userSpaceOnUse">
<stop stop-color="#54BE95"/>
<stop offset="0.288462" stop-color="#2E7B9A"/>
<stop offset="1" stop-color="#224075"/>
</linearGradient>
<linearGradient id="paint3_linear_4934_5693" x1="21.2967" y1="41.1248" x2="12.3234" y2="24.5647" gradientUnits="userSpaceOnUse">
<stop stop-color="#54BE95"/>
<stop offset="0.288462" stop-color="#2E7B9A"/>
<stop offset="1" stop-color="#224075"/>
</linearGradient>
<linearGradient id="paint4_linear_4934_5693" x1="33.0469" y1="33.0469" x2="13.9531" y2="13.9531" gradientUnits="userSpaceOnUse">
<stop stop-color="#54BE95"/>
<stop offset="0.288462" stop-color="#2E7B9A"/>
<stop offset="1" stop-color="#224075"/>
</linearGradient>
<linearGradient id="paint5_linear_4934_5693" x1="25.0497" y1="28.0898" x2="6.80015" y2="12.8322" gradientUnits="userSpaceOnUse">
<stop stop-color="#54BE95"/>
<stop offset="0.288462" stop-color="#2E7B9A"/>
<stop offset="1" stop-color="#224075"/>
</linearGradient>
<linearGradient id="paint6_linear_4934_5693" x1="37.453" y1="37.4531" x2="19.2035" y2="22.1955" gradientUnits="userSpaceOnUse">
<stop stop-color="#54BE95"/>
<stop offset="0.288462" stop-color="#2E7B9A"/>
<stop offset="1" stop-color="#224075"/>
</linearGradient>
<linearGradient id="paint7_linear_4934_5693" x1="43.7181" y1="38.982" x2="25.4409" y2="27.9112" gradientUnits="userSpaceOnUse">
<stop stop-color="#54BE95"/>
<stop offset="0.288462" stop-color="#2E7B9A"/>
<stop offset="1" stop-color="#224075"/>
</linearGradient>
<linearGradient id="paint8_linear_4934_5693" x1="16.4757" y1="27.9064" x2="-2.43384" y2="14.9583" gradientUnits="userSpaceOnUse">
<stop stop-color="#54BE95"/>
<stop offset="0.288462" stop-color="#2E7B9A"/>
<stop offset="1" stop-color="#224075"/>
</linearGradient>
</defs>
</svg>
