<svg width="51" height="51" viewBox="0 0 51 51" fill="none" xmlns="http://www.w3.org/2000/svg">
<path d="M28.8981 10.1993C28.8981 4.57643 24.3216 0 18.6988 0C13.0759 0 8.49945 4.57643 8.49945 10.1993C8.49945 10.4842 8.50941 10.7723 8.52765 11.0642C8.57754 12.2174 10.3164 12.1104 10.2242 10.9595C10.2082 10.7005 10.1977 10.4466 10.1977 10.1992C10.1977 5.49507 13.9929 1.69972 18.6971 1.69972C23.4013 1.69972 27.1966 5.49501 27.1966 10.1992C27.1966 11.2514 27.0527 12.3978 26.7816 13.5874C26.6392 13.6034 26.485 13.6281 26.345 13.6654V12.7491C26.3467 12.2795 25.9679 11.8975 25.4984 11.8958H23.7985C21.8763 11.8958 21.2005 9.93196 21.2005 9.93196C21.0812 9.56931 20.7352 9.33148 20.3539 9.34924C20.0026 9.3653 19.6985 9.5979 19.5886 9.93196C19.5886 9.93196 18.91 11.8958 16.9973 11.8958H11.8959C11.4264 11.8975 11.0475 12.2795 11.0493 12.7491V13.6587C9.34971 13.2453 7.6495 14.4386 7.6495 16.1356C7.6495 18.6212 9.39894 20.1762 11.4768 20.3753C11.9073 21.6109 12.6464 22.6964 13.5991 23.5493V28.0497C13.599 28.1409 13.6136 28.2319 13.6423 28.3186C14.434 30.272 16.2955 31.4494 18.7005 31.4494C21.1055 31.4494 22.9761 30.2644 23.757 28.3186C23.7862 28.2319 23.8015 28.1409 23.8018 28.0497V23.5527C24.7547 22.701 25.4958 21.6156 25.925 20.3803C27.889 20.1808 29.7481 18.6789 29.7481 16.1347C29.7159 15.1535 29.1701 14.3907 28.4433 13.9642C28.7355 12.6801 28.8981 11.4043 28.8981 10.1993ZM35.696 4.25136V5.09798H34.8494C33.4515 5.09798 32.2962 6.25485 32.2962 7.65276V13.5991C32.2962 18.4777 36.0309 22.4765 40.7973 22.9053V34.851C40.7973 36.2782 39.6781 37.3976 38.2508 37.3976H37.3544C36.9197 31.6902 32.1679 27.1982 26.3483 27.1982C25.1994 27.1821 25.1994 28.9138 26.3483 28.8981C31.2555 28.8981 35.2296 32.6079 35.6545 37.3976H27.0754C26.6949 35.9394 25.3751 34.851 23.8018 34.851C21.9342 34.851 20.4003 36.3766 20.4003 38.2442C20.4003 40.1118 21.9342 41.6456 23.8018 41.6456C25.3737 41.6456 26.6919 40.555 27.0737 39.0975H38.2508C40.5905 39.0975 42.4989 37.1906 42.4989 34.851V22.9053C47.2628 22.4733 51 18.4754 51 13.5991V7.65276C51 6.25485 49.8431 5.09798 48.4452 5.09798H47.5986V4.25136C47.5986 3.09474 45.8987 3.10049 45.8987 4.25136V7.65276C45.9231 8.76122 47.574 8.76122 47.5986 7.65276V6.79956H48.4452C48.9308 6.79956 49.3001 7.16724 49.3001 7.65276V13.5991C49.3001 17.8517 45.8965 21.2486 41.644 21.2486C37.3914 21.2486 33.9961 17.8517 33.9961 13.5991V7.65276C33.9961 7.16724 34.3638 6.79956 34.8494 6.79956H35.696V7.65276C35.696 8.78712 37.3976 8.78712 37.3976 7.65276V4.25136C37.3976 3.1258 35.696 3.08449 35.696 4.25136ZM20.4003 11.9059C20.9406 12.6328 22.0307 13.5958 23.8001 13.5958H24.6467V17.8505C24.6467 21.1613 22.0096 23.7984 18.6988 23.7984C15.388 23.7984 12.7508 21.1613 12.7508 17.8505V13.5958H16.9989C18.7711 13.5958 19.7901 12.6713 20.4003 11.9059ZM26.3118 18.5743C26.3793 17.5897 26.3466 16.5907 26.3466 15.5679C26.9788 14.9153 28.0449 15.4757 28.0415 16.1688C28.0354 17.4483 27.2622 18.2951 26.3118 18.5743ZM11.0875 18.5743C10.1371 18.2951 9.35772 17.4437 9.35772 16.1688C9.35772 15.3299 10.5439 14.9998 11.0509 15.5646C11.045 16.546 11.0362 17.6421 11.0875 18.5743ZM15.299 24.7048C16.3227 25.2122 17.4771 25.4983 18.6988 25.4983C19.9216 25.4983 21.0751 25.2117 22.1002 24.7048V27.8422C22.1002 27.8422 21.3937 29.7497 18.7004 29.7497C16.0071 29.7497 15.299 27.8422 15.299 27.8422V24.7048ZM11.0493 27.1982C4.94268 27.1982 0 32.1409 0 38.2475V50.1467C5.07558e-05 50.6161 0.380554 50.9966 0.849945 50.9967H6.82612H30.6246H36.5476C37.017 50.9966 37.3975 50.6161 37.3976 50.1467V41.6472C37.4136 40.4979 35.6815 40.4979 35.6977 41.6472V44.1987H31.4496V41.6456C31.4496 40.4425 29.7497 40.5385 29.7497 41.6456V49.2968H7.65116V41.6456C7.65116 40.4988 5.95127 40.4963 5.95127 41.6456V44.1987H1.69989V38.2475C1.69989 33.0533 5.85502 28.8981 11.0493 28.8981C12.1982 28.9141 12.1982 27.1824 11.0493 27.1982ZM23.8018 36.5443C24.7507 36.5443 25.5017 37.2953 25.5017 38.2442C25.5017 39.1931 24.7507 39.9457 23.8018 39.9457C22.8529 39.9457 22.1002 39.1931 22.1002 38.2442C22.1002 37.2953 22.8529 36.5443 23.8018 36.5443ZM1.69989 45.9003H5.95127V49.2968H1.69989V45.9003ZM31.4496 45.9003H35.6977V49.2968H31.4496V45.9003Z" fill="#134A85"/>
</svg>
