<svg width="51" height="51" viewBox="0 0 51 51" fill="none" xmlns="http://www.w3.org/2000/svg">
<g clip-path="url(#clip0_18_129)">
<path d="M23.8681 9.28479H13.4091C12.9965 9.28479 12.662 8.9503 12.662 8.53772C12.662 8.12514 12.9965 7.79065 13.4091 7.79065H23.8681C24.2807 7.79065 24.6152 8.12514 24.6152 8.53772C24.6152 8.9503 24.2807 9.28479 23.8681 9.28479Z" fill="#134A85"/>
<path d="M12.7304 17.6718C12.4386 17.3801 11.9656 17.3801 11.6739 17.6718L9.35621 19.9895L8.7461 19.3794C8.45434 19.0877 7.9813 19.0877 7.68964 19.3794C7.39789 19.6712 7.39789 20.1442 7.68964 20.4359L8.82808 21.5743C8.97391 21.7201 9.16516 21.7932 9.35631 21.7932C9.54746 21.7932 9.73871 21.7202 9.88454 21.5743L12.7305 18.7284C13.0221 18.4366 13.0221 17.9636 12.7304 17.6718Z" fill="#134A85"/>
<path d="M12.7304 25.1425C12.4386 24.8508 11.9656 24.8508 11.6739 25.1425L9.35621 27.4602L8.7461 26.8501C8.45434 26.5584 7.9813 26.5584 7.68964 26.8501C7.39789 27.1419 7.39789 27.6149 7.68964 27.9066L8.82808 29.045C8.97391 29.1908 9.16516 29.2639 9.35631 29.2639C9.54746 29.2639 9.73871 29.1909 9.88454 29.045L12.7305 26.1991C13.0221 25.9073 13.0221 25.4343 12.7304 25.1425Z" fill="#134A85"/>
<path d="M12.7304 32.6131C12.4386 32.3213 11.9656 32.3213 11.6739 32.6131L9.35621 34.9308L8.7461 34.3207C8.45434 34.0289 7.9813 34.0289 7.68964 34.3207C7.39789 34.6125 7.39789 35.0855 7.68964 35.3772L8.82808 36.5156C8.97391 36.6614 9.16516 36.7344 9.35631 36.7344C9.54746 36.7344 9.73871 36.6615 9.88454 36.5156L12.7305 33.6697C13.0221 33.3779 13.0221 32.9049 12.7304 32.6131Z" fill="#134A85"/>
<path d="M30.5545 45.0745C30.1419 45.0745 29.8074 44.74 29.8074 44.3274C29.8074 43.9833 29.5274 43.7034 29.1834 43.7034C28.8393 43.7034 28.5593 43.9834 28.5593 44.3274C28.5593 44.74 28.2248 45.0745 27.8123 45.0745C27.3997 45.0745 27.0652 44.74 27.0652 44.3274C27.0652 43.1594 28.0155 42.2092 29.1834 42.2092C30.3513 42.2092 31.3016 43.1595 31.3016 44.3274C31.3016 44.74 30.9671 45.0745 30.5545 45.0745Z" fill="#134A85"/>
<path d="M42.811 45.0745C42.3984 45.0745 42.0639 44.74 42.0639 44.3274C42.0639 43.9833 41.7839 43.7034 41.4399 43.7034C41.0958 43.7034 40.8158 43.9834 40.8158 44.3274C40.8158 44.74 40.4813 45.0745 40.0687 45.0745C39.6561 45.0745 39.3217 44.74 39.3217 44.3274C39.3217 43.1594 40.2719 42.2092 41.4399 42.2092C42.6078 42.2092 43.558 43.1595 43.558 44.3274C43.558 44.74 43.2236 45.0745 42.811 45.0745Z" fill="#134A85"/>
<path d="M35.3115 47.3397C34.5382 47.3397 33.8029 47.0048 33.294 46.4208C33.0229 46.1097 33.0553 45.6379 33.3664 45.3667C33.6775 45.0957 34.1493 45.128 34.4204 45.4391C34.6455 45.6974 34.9704 45.8455 35.3116 45.8455C35.6529 45.8455 35.9778 45.6974 36.2029 45.4391C36.4739 45.128 36.9458 45.0957 37.2569 45.3667C37.568 45.6378 37.6004 46.1096 37.3293 46.4208C36.8202 47.0048 36.0849 47.3397 35.3115 47.3397Z" fill="#134A85"/>
<path d="M49.9508 38.693C49.9861 38.3239 50.0039 37.9473 50.0039 37.5667C50.0039 34.9304 49.1558 32.2282 47.677 30.1532C47.4741 29.8684 47.2632 29.6 47.0449 29.3482C47.6716 28.4676 48.0117 27.4108 48.0117 26.3188C48.0117 24.6238 47.1844 23.0267 45.7985 22.0462C45.6977 21.9749 45.6488 21.8455 45.6741 21.7158C45.9766 20.1585 45.5657 18.569 44.5469 17.3549C43.5058 16.1137 41.9777 15.4345 40.3588 15.4897C40.2618 15.4943 40.1641 15.4467 40.0957 15.3663C39.346 14.4864 38.3972 13.8373 37.3535 13.4684V10.4699C37.3535 7.86107 35.2309 5.7385 32.6221 5.7385H27.7074C27.3109 4.71332 26.3147 3.98438 25.1514 3.98438H23.4749C23.4021 3.98438 23.3416 3.93268 23.3278 3.85946C22.9109 1.62313 20.9549 0 18.6768 0C16.3986 0 14.4427 1.62313 14.0259 3.85867C14.012 3.93268 13.9515 3.98438 13.8786 3.98438H12.2021C11.0388 3.98438 10.0426 4.71332 9.64607 5.7385H4.73145C2.12258 5.7385 0 7.86097 0 10.4699V46.2686C0 48.8774 2.12258 51 4.73145 51H27.3428H43.2803C47.537 51 51 47.537 51 43.2803V40.292C51 39.5773 50.5677 38.9617 49.9508 38.693ZM48.5098 37.5667C48.5098 37.8993 48.4943 38.2278 48.4636 38.5488H46.7449C46.7461 38.5044 46.7467 38.4599 46.7467 38.4154C46.7467 35.6801 44.5214 33.4548 41.7861 33.4548C40.8677 33.4548 39.9833 33.7049 39.2149 34.1721C38.6995 33.0098 37.9626 31.9667 37.0579 31.0969C38.3544 29.233 40.0527 28.1765 41.7861 28.1765C45.305 28.1765 48.5098 32.6523 48.5098 37.5667ZM39.7253 35.628C40.3188 35.1875 41.0362 34.9489 41.7861 34.9489C43.6974 34.9489 45.2525 36.5039 45.2525 38.4154C45.2525 38.4599 45.2516 38.5044 45.2499 38.5488H40.0325C40.0395 38.398 40.043 38.2467 40.043 38.0956C40.043 37.2432 39.9326 36.4162 39.7253 35.628ZM30.3311 31.372C26.6236 31.372 23.6074 34.3881 23.6074 38.0956C23.6074 38.2467 23.6125 38.3979 23.6227 38.5488H22.1256C22.1175 38.3982 22.1133 38.2469 22.1133 38.0956C22.1133 33.5643 25.7997 29.8778 30.3311 29.8778C34.8624 29.8778 38.5488 33.5643 38.5488 38.0956C38.5488 38.2469 38.5446 38.3982 38.5365 38.5488H37.0394C37.0496 38.3979 37.0547 38.2467 37.0547 38.0956C37.0547 34.3881 34.0385 31.372 30.3311 31.372ZM38.9584 16.3355C39.325 16.7655 39.8528 17.0021 40.4093 16.983C41.5675 16.9439 42.6586 17.4288 43.4023 18.3153C44.1301 19.1827 44.4235 20.3182 44.2075 21.4303C44.0699 22.1353 44.3558 22.8559 44.9357 23.2661C45.9262 23.9668 46.5176 25.108 46.5176 26.3188C46.5176 27.0171 46.323 27.695 45.9597 28.2824C44.6968 27.2387 43.2667 26.6824 41.7861 26.6824C39.6578 26.6824 37.6143 27.8526 36.0586 29.9289V29.2536C37.2179 27.1858 38.8454 25.5698 40.8987 24.449C41.2609 24.2513 41.3942 23.7975 41.1964 23.4353C40.9987 23.0732 40.5448 22.9398 40.1827 23.1376C38.567 24.0196 37.1868 25.1739 36.0586 26.5835V24.4464C36.9409 22.8732 38.0939 21.5585 39.4881 20.5369C39.8209 20.293 39.8931 19.8255 39.6492 19.4927C39.4053 19.1599 38.9378 19.0878 38.605 19.3316C37.6527 20.0294 36.8015 20.8471 36.0586 21.7762V18.4666C36.0586 18.054 35.7241 17.7195 35.3115 17.7195C34.8989 17.7195 34.5645 18.054 34.5645 18.4666V21.7769C33.8214 20.8475 32.97 20.0296 32.0174 19.3316C31.6845 19.0877 31.2172 19.1598 30.9732 19.4927C30.7294 19.8255 30.8014 20.2929 31.1343 20.5369C32.5288 21.5588 33.6821 22.8738 34.5645 24.4475V26.5843C33.4361 25.1743 32.0557 24.0198 30.4397 23.1376C30.0775 22.9398 29.6237 23.0732 29.426 23.4353C29.2283 23.7975 29.3617 24.2513 29.7237 24.449C31.7773 25.57 33.405 27.1863 34.5645 29.2547V29.3559C33.2843 28.7332 31.8477 28.3838 30.3311 28.3838C28.5696 28.3838 26.9161 28.8551 25.4902 29.6784C25.4296 29.3633 25.2852 29.0635 25.0616 28.8149C24.445 28.1285 24.1055 27.2421 24.1055 26.3189C24.1055 25.1081 24.6968 23.9669 25.6874 23.2662C26.2673 22.856 26.5532 22.1353 26.4157 21.4311C26.1996 20.3183 26.493 19.1827 27.2209 18.3153C27.9644 17.4288 29.0544 16.9428 30.2147 16.9831C30.7697 17.001 31.2981 16.7655 31.6648 16.3353C32.6122 15.2232 33.9073 14.6108 35.3115 14.6108C36.7157 14.6108 38.0109 15.2232 38.9584 16.3355ZM27.8906 7.23264H32.6221C34.4071 7.23264 35.8594 8.68494 35.8594 10.4699V13.1413C35.6779 13.1248 35.4951 13.1165 35.3115 13.1165C34.8214 13.1165 34.3371 13.1758 33.8672 13.2903V10.968C33.8672 10.0069 33.0852 9.22482 32.124 9.22482H27.8906V7.23264ZM4.73145 49.5059C2.94645 49.5059 1.49414 48.0536 1.49414 46.2686V10.4699C1.49414 8.68494 2.94645 7.23264 4.73145 7.23264H9.46289V9.22482H5.22949C4.26836 9.22482 3.48633 10.0069 3.48633 10.968V33.1151C3.48633 33.5277 3.82082 33.8622 4.2334 33.8622C4.64598 33.8622 4.98047 33.5277 4.98047 33.1151V10.968C4.98047 10.8307 5.09223 10.719 5.22949 10.719H9.73283C10.1756 11.6376 11.116 12.2729 12.2021 12.2729H16.9336C17.3462 12.2729 17.6807 11.9384 17.6807 11.5258C17.6807 11.1132 17.3462 10.7787 16.9336 10.7787H12.2021C11.5155 10.7787 10.957 10.2202 10.957 9.53361V6.72363C10.957 6.03703 11.5155 5.47852 12.2021 5.47852H13.8786C14.6689 5.47852 15.3484 4.91303 15.4945 4.13329C15.7796 2.60409 17.118 1.49414 18.6768 1.49414C20.2355 1.49414 21.5739 2.60409 21.8591 4.13399C22.0051 4.91303 22.6846 5.47852 23.4749 5.47852H25.1514C25.838 5.47852 26.3965 6.03703 26.3965 6.72363V9.53361C26.3965 10.2202 25.838 10.7787 25.1514 10.7787H20.4199C20.0073 10.7787 19.6729 11.1132 19.6729 11.5258C19.6729 11.9384 20.0073 12.2729 20.4199 12.2729H25.1514C26.2375 12.2729 27.1779 11.6375 27.6207 10.719H32.124C32.2613 10.719 32.373 10.8307 32.373 10.968V13.8669C31.6833 14.2405 31.0559 14.746 30.5276 15.3661C30.459 15.4466 30.3602 15.4915 30.2652 15.4897C28.7431 15.4369 27.3049 16.033 26.2733 17.1328H16.1935C15.7809 17.1328 15.4464 17.4673 15.4464 17.8799C15.4464 18.2925 15.7809 18.627 16.1935 18.627H25.2863C25.012 19.2546 24.8644 19.9305 24.8525 20.6191H16.1935C15.7809 20.6191 15.4464 20.9536 15.4464 21.3662C15.4464 21.7788 15.7809 22.1133 16.1935 22.1133H24.732C23.8764 22.7471 23.244 23.6202 22.9017 24.6035H16.1935C15.7809 24.6035 15.4464 24.938 15.4464 25.3506C15.4464 25.7632 15.7809 26.0977 16.1935 26.0977H22.6161C22.613 26.1712 22.6114 26.2449 22.6114 26.3188C22.6114 26.9286 22.7173 27.5269 22.9198 28.0898H16.1935C15.7809 28.0898 15.4464 28.4243 15.4464 28.8369C15.4464 29.2495 15.7809 29.584 16.1935 29.584H23.7557C23.8183 29.6622 23.8831 29.7388 23.9505 29.8137C24.0401 29.9134 24.0557 30.0557 23.9897 30.177C23.8298 30.4716 23.6989 30.7819 23.5992 31.1017C23.2836 31.4055 22.9885 31.7305 22.7162 32.0741H16.1935C15.7809 32.0741 15.4464 32.4086 15.4464 32.8212C15.4464 33.2338 15.7809 33.5683 16.1935 33.5683H21.7404C21.4087 34.1951 21.1437 34.8623 20.9547 35.5604H16.1935C15.7809 35.5604 15.4464 35.8949 15.4464 36.3075C15.4464 36.7201 15.7809 37.0546 16.1935 37.0546H20.6746C20.638 37.3966 20.6191 37.7439 20.6191 38.0955C20.6191 38.2999 20.6256 38.5046 20.6383 38.7081C20.0396 38.9844 19.623 39.5903 19.623 40.2919V43.2802C19.623 44.2443 19.8007 45.1678 20.1251 46.0194H5.22949C5.09223 46.0194 4.98047 45.9077 4.98047 45.7704V36.6014C4.98047 36.1888 4.64598 35.8543 4.2334 35.8543C3.82082 35.8543 3.48633 36.1888 3.48633 36.6014V45.7704C3.48633 46.7315 4.26836 47.5136 5.22949 47.5136H20.8901C21.3978 48.2848 22.0399 48.9601 22.7829 49.5058H4.73145V49.5059ZM49.5059 43.2803C49.5059 46.713 46.713 49.5059 43.2803 49.5059H27.3428C23.91 49.5059 21.1172 46.713 21.1172 43.2803V40.292C21.1172 40.1547 21.2289 40.043 21.3662 40.043H28.811C29.2236 40.043 29.5581 39.7085 29.5581 39.2959C29.5581 38.8833 29.2236 38.5488 28.811 38.5488H25.1211C25.1081 38.3981 25.1016 38.2468 25.1016 38.0956C25.1016 35.212 27.4475 32.8661 30.3311 32.8661C33.2146 32.8661 35.5605 35.212 35.5605 38.0956C35.5605 38.2467 35.554 38.3981 35.541 38.5488H32.2973C31.8848 38.5488 31.5503 38.8833 31.5503 39.2959C31.5503 39.7085 31.8848 40.043 32.2973 40.043H49.2568C49.3941 40.043 49.5059 40.1547 49.5059 40.292V43.2803Z" fill="#134A85"/>
<path d="M30.2812 36.1512C29.8687 36.1512 29.5342 35.8167 29.5342 35.4042V35.1069C29.5342 34.6944 29.8687 34.3599 30.2812 34.3599C30.6938 34.3599 31.0283 34.6944 31.0283 35.1069V35.4042C31.0283 35.8167 30.6938 36.1512 30.2812 36.1512Z" fill="#134A85"/>
<path d="M32.5442 37.1732C32.3309 37.1732 32.1192 37.0825 31.9715 36.9064C31.7063 36.5903 31.7475 36.1192 32.0636 35.8539L32.2913 35.6629C32.6073 35.3976 33.0786 35.4389 33.3437 35.7549C33.609 36.071 33.5678 36.5421 33.2517 36.8074L33.024 36.9984C32.884 37.116 32.7136 37.1732 32.5442 37.1732Z" fill="#134A85"/>
<path d="M28.118 37.173C27.9485 37.173 27.7781 37.1157 27.6381 36.9982L27.4104 36.8072C27.0944 36.5419 27.0531 36.0708 27.3184 35.7547C27.5835 35.4385 28.0548 35.3974 28.3709 35.6627L28.5986 35.8537C28.9146 36.119 28.9559 36.5901 28.6906 36.9062C28.5428 37.0823 28.3311 37.173 28.118 37.173Z" fill="#134A85"/>
<path d="M18.6768 5.47852C19.0894 5.47852 19.4238 5.14404 19.4238 4.73145C19.4238 4.31885 19.0894 3.98438 18.6768 3.98438C18.2642 3.98438 17.9297 4.31885 17.9297 4.73145C17.9297 5.14404 18.2642 5.47852 18.6768 5.47852Z" fill="#134A85"/>
</g>
<defs>
<clipPath id="clip0_18_129">
<rect width="51" height="51" fill="white"/>
</clipPath>
</defs>
</svg>
