<svg width="51" height="51" viewBox="0 0 51 51" fill="none" xmlns="http://www.w3.org/2000/svg">
<path fill-rule="evenodd" clip-rule="evenodd" d="M29.8831 39.884C28.3547 41.2857 26.7902 42.6872 25.2205 44.0883C24.4767 44.7536 23.3652 44.7536 22.622 44.0888C16.0234 38.1987 9.52609 32.3026 5.37979 26.4112C2.54089 22.3775 0.799988 18.3352 0.799988 14.3013C0.799988 8.41664 6.11379 3.59644 12.7098 3.59644C17.9002 3.59644 20.8233 5.61554 23.4605 9.67214C23.461 9.67284 23.4614 9.67354 23.4619 9.67424C23.5652 9.83454 23.7307 9.92304 23.9223 9.92304C24.1139 9.92304 24.2794 9.83254 24.3846 9.67134C27.0189 5.61534 29.942 3.59644 35.1321 3.59644C41.7281 3.59644 47.042 8.41664 47.042 14.3013C47.042 18.5092 45.1442 22.7275 42.0861 26.9366C46.7253 27.962 50.2 32.1025 50.2 37.0483C50.2 42.7635 45.5599 47.4036 39.8447 47.4036C35.1126 47.4036 31.1175 44.2226 29.8831 39.884ZM40.5093 26.714C43.6304 22.5731 45.642 18.443 45.642 14.3013C45.642 9.14304 40.9139 4.99644 35.1321 4.99644C30.5032 4.99644 27.9075 6.81713 25.5581 10.4349L25.5573 10.436C25.1858 11.0057 24.5993 11.323 23.9223 11.323C23.24 11.323 22.6534 11.0036 22.2867 10.4351C19.9347 6.81723 17.339 4.99644 12.7098 4.99644C6.92799 4.99644 2.19999 9.14304 2.19999 14.3013C2.19999 18.0723 3.87079 21.8347 6.52459 25.6054C10.6173 31.4207 17.041 37.2304 23.5543 43.0444L23.5548 43.0448C23.7644 43.2323 24.0776 43.2323 24.2872 43.0448L24.2877 43.0444C26.0678 41.4554 27.8408 39.8664 29.5617 38.2773C29.514 37.8742 29.4894 37.4641 29.4894 37.0483C29.4894 31.333 34.1294 26.693 39.8447 26.693C40.0679 26.693 40.2895 26.7 40.5093 26.714ZM39.8447 28.093C34.9021 28.093 30.8894 32.1057 30.8894 37.0483C30.8894 41.9908 34.9021 46.0036 39.8447 46.0036C44.7873 46.0036 48.8 41.9908 48.8 37.0483C48.8 32.1057 44.7873 28.093 39.8447 28.093ZM37.1368 39.7562H34.7787C34.3921 39.7562 34.0787 39.4428 34.0787 39.0562V35.0404C34.0787 34.6538 34.3921 34.3404 34.7787 34.3404H37.1368V31.9822C37.1368 31.5956 37.4502 31.2822 37.8368 31.2822H41.8526C42.2392 31.2822 42.5526 31.5956 42.5526 31.9822V34.3404H44.9107C45.2973 34.3404 45.6107 34.6538 45.6107 35.0404V39.0562C45.6107 39.4428 45.2973 39.7562 44.9107 39.7562H42.5526V42.1143C42.5526 42.5009 42.2392 42.8143 41.8526 42.8143H37.8368C37.4502 42.8143 37.1368 42.5009 37.1368 42.1143V39.7562ZM38.5368 39.0562V41.4143H41.1526V39.0562C41.1526 38.6696 41.466 38.3562 41.8526 38.3562H44.2107V35.7404H41.8526C41.466 35.7404 41.1526 35.427 41.1526 35.0404V32.6822H38.5368V35.0404C38.5368 35.427 38.2234 35.7404 37.8368 35.7404H35.4787V38.3562H37.8368C38.2234 38.3562 38.5368 38.6696 38.5368 39.0562ZM15.6255 25.6677L14.616 26.2726C14.0418 26.6167 13.3544 26.7186 12.7051 26.5559C12.0557 26.3932 11.4976 25.9792 11.1535 25.405C10.8094 24.8308 10.7075 24.1434 10.8702 23.4941C11.0329 22.8448 11.4469 22.2867 12.0211 21.9426L13.7646 20.8977C14.855 20.2442 16.1604 20.0507 17.3935 20.3596C18.6267 20.6686 19.6866 21.4548 20.34 22.5452L21.0016 23.6492C21.0703 23.7637 21.2187 23.8009 21.3332 23.7323L25.9475 20.9671L23.9905 17.7016C23.2765 16.5101 23.6636 14.9654 24.8551 14.2514C26.0465 13.5374 27.5912 13.9244 28.3052 15.1158L33.2042 23.2905C33.8475 24.3641 33.4988 25.756 32.4252 26.3993L24.9824 30.8596C23.7637 31.59 22.3048 31.8063 20.9265 31.461C19.5483 31.1157 18.3638 30.237 17.6334 29.0183L15.6255 25.6677ZM16.4665 24.3476L18.8343 28.2986C19.3738 29.1988 20.2488 29.8479 21.2668 30.103C22.2849 30.358 23.3625 30.1983 24.2628 29.6588L31.7056 25.1985C32.1159 24.9525 32.2492 24.4205 32.0033 24.0102L27.1044 15.8355C26.7878 15.3073 26.1029 15.1357 25.5747 15.4523C25.0465 15.7688 24.8748 16.4537 25.1914 16.9819L27.5082 20.8479C27.7069 21.1795 27.5992 21.6094 27.2676 21.8081L22.0529 24.9332C21.2751 25.3993 20.2668 25.1466 19.8008 24.3689L19.1392 23.2649C18.6766 22.493 17.9262 21.9364 17.0533 21.7177C16.1803 21.4989 15.2562 21.6359 14.4843 22.0986L12.7407 23.1434C12.485 23.2967 12.3006 23.5452 12.2282 23.8344C12.1557 24.1235 12.2011 24.4297 12.3544 24.6854C12.5076 24.9411 12.7562 25.1255 13.0453 25.1979C13.3345 25.2704 13.6406 25.225 13.8963 25.0718L15.5062 24.107C15.8378 23.9082 16.2678 24.016 16.4665 24.3476ZM39.9469 16.0134C41.1393 18.003 40.492 20.5865 38.5023 21.7788C36.5127 22.9712 33.9293 22.3239 32.7369 20.3342C31.5445 18.3446 32.1918 15.7611 34.1815 14.5688C36.1712 13.3764 38.7546 14.0237 39.9469 16.0134ZM38.7461 16.733C37.9509 15.4062 36.228 14.9745 34.9012 15.7697C33.5743 16.5648 33.1426 18.2877 33.9378 19.6146C34.7329 20.9414 36.4558 21.3731 37.7827 20.5779C39.1096 19.7828 39.5412 18.0599 38.7461 16.733Z" fill="#134A85"/>
</svg>
