<svg width="51" height="51" viewBox="0 0 51 51" fill="none" xmlns="http://www.w3.org/2000/svg">
<g clip-path="url(#clip0_1_445)">
<path d="M43.0313 27.8906L47.0157 31.875L43.8282 35.8594L39.8438 31.875L43.0313 27.8906Z" fill="#F6F6F6"/>
<path d="M43.2644 36.4231L39.28 32.4388C39.1412 32.3001 39.0584 32.115 39.0476 31.9191C39.0367 31.7232 39.0986 31.5301 39.2212 31.3769L42.4087 27.3926C42.4787 27.3049 42.5664 27.2331 42.6661 27.1817C42.7658 27.1303 42.8752 27.1005 42.9872 27.0943C43.0992 27.0881 43.2112 27.1056 43.316 27.1457C43.4207 27.1858 43.5158 27.2475 43.5951 27.3268L47.5795 31.3112C47.7183 31.4499 47.801 31.6349 47.8119 31.8309C47.8227 32.0268 47.7609 32.2199 47.6382 32.373L44.4507 36.3574C44.3807 36.445 44.293 36.5169 44.1933 36.5683C44.0936 36.6197 43.9842 36.6494 43.8723 36.6556C43.7603 36.6618 43.6482 36.6443 43.5435 36.6043C43.4387 36.5642 43.3436 36.5025 43.2644 36.4231ZM40.9116 31.8162L43.7624 34.664L45.9478 31.9318L43.097 29.0859L40.9116 31.8162Z" fill="#134A85"/>
<path d="M42.2344 24.7031L43.8282 27.0938L39.8438 33.4688H36.6563L35.8594 31.0781V27.0938L42.2344 24.7031Z" fill="#134A85"/>
<path d="M39.8438 34.2656H36.6563C36.489 34.2656 36.326 34.213 36.1903 34.1152C36.0546 34.0174 35.9532 33.8794 35.9003 33.7207C35.0267 31.101 35.0625 31.2574 35.0625 31.0781V27.0937C35.0626 26.9315 35.112 26.7732 35.2044 26.6399C35.2968 26.5066 35.4277 26.4046 35.5795 26.3477L41.9545 23.957C42.123 23.8937 42.3079 23.8893 42.4791 23.9445C42.6504 23.9996 42.798 24.1111 42.8978 24.2608L44.4916 26.6515C44.5766 26.7791 44.6229 26.9286 44.625 27.082C44.6271 27.2354 44.585 27.3861 44.5035 27.5161L40.5191 33.8911C40.4476 34.0056 40.348 34.1001 40.2299 34.1656C40.1117 34.2311 39.9789 34.2655 39.8438 34.2656ZM37.231 32.6719H39.4025L42.8799 27.1077L41.9226 25.6713L36.6563 27.6456V30.9486L37.231 32.6719Z" fill="#134A85"/>
<path d="M33.9668 27.6825L34.4141 26.786C34.9422 25.7277 35.1519 24.5389 35.0177 23.3639C34.8835 22.1888 34.4112 21.0779 33.658 20.1659C32.4818 18.7227 31.8507 16.9117 31.875 15.05C31.9229 10.7827 35.3853 7.2715 39.6515 7.17189C41.0133 7.13869 42.3608 7.45512 43.5655 8.09097C44.7702 8.72681 45.7917 9.66085 46.5326 10.8039C47.2735 11.9469 47.7091 13.2608 47.7976 14.6201C47.8862 15.9794 47.6249 17.3387 47.0386 18.5682C45.4565 22.0692 43.016 25.1141 39.9434 27.4205L39.1784 27.9903C38.525 28.4802 38.0513 29.1719 37.8307 29.9583C37.6101 30.7447 37.6549 31.5819 37.9582 32.3402C38.2866 33.1608 38.3839 34.0558 38.2396 34.9278C38.0952 35.7999 37.7147 36.6157 37.1394 37.2868L35.714 38.9473C33.6222 41.3927 29.853 41.0799 27.8448 38.6744L26.2969 36.8117C24.6633 34.8504 25.6823 31.8312 28.1835 31.2794L29.84 30.9118C30.7245 30.7137 31.5538 30.3211 32.2676 29.7625C32.9814 29.2039 33.5619 28.4934 33.9668 27.6825Z" fill="#F6F6F6"/>
<path d="M47.7229 13.9453C47.6061 14.7197 47.3755 15.4726 47.0386 16.1796C45.4562 19.6799 43.0157 22.724 39.9434 25.0298L39.1784 25.5996C38.5515 26.0694 38.0894 26.7255 37.8582 27.4739C37.627 28.2224 37.6387 29.0248 37.8915 29.7663C38.1316 29.058 38.5802 28.4389 39.1784 27.9902L39.9394 27.4195C43.0132 25.1141 45.4551 22.0699 47.0386 18.5692C47.7235 17.1309 47.9618 15.5204 47.7229 13.9453Z" fill="#DCDCDC"/>
<path d="M37.1394 34.8971L35.714 36.5566C35.26 37.0873 34.6965 37.5135 34.0622 37.8058C33.4279 38.0981 32.7378 38.2496 32.0394 38.25C31.2397 38.25 30.4497 38.0742 29.7256 37.7349C29.0014 37.3956 28.3607 36.9012 27.8488 36.2867L26.2969 34.421C26.0498 34.1239 25.8548 33.7871 25.7202 33.4249C25.5773 33.8072 25.504 34.2121 25.504 34.6202C25.5053 35.4214 25.7873 36.1968 26.3009 36.8116L27.8568 38.6773C29.857 41.0779 33.6222 41.4006 35.7259 38.9503L37.1514 37.2878C37.654 36.6967 38.0072 35.9934 38.1811 35.2372C38.355 34.481 38.3445 33.6941 38.1504 32.9428C37.9678 33.6632 37.6219 34.3319 37.1394 34.8971Z" fill="#DCDCDC"/>
<path d="M27.2362 39.1873L25.6813 37.3217C23.7011 34.946 24.8526 31.2027 28.0072 30.5014L29.6627 30.1339C30.4337 29.9639 31.1568 29.6235 31.7791 29.1376C32.4013 28.6517 32.9069 28.0326 33.2586 27.3259L33.7059 26.4294C34.1647 25.5082 34.3465 24.4736 34.2291 23.4511C34.1117 22.4287 33.7002 21.4622 33.0445 20.669C32.0102 19.3973 31.3532 17.8612 31.1481 16.2349C30.943 14.6087 31.198 12.9575 31.8841 11.4689C32.5702 9.98031 33.66 8.71389 35.0296 7.81348C36.3993 6.91306 37.994 6.41471 39.6326 6.37502C45.9758 6.2276 50.5737 12.7172 47.7647 18.8969C46.1241 22.5201 43.5973 25.6717 40.4175 28.061L39.6565 28.6317C39.1433 29.0166 38.7713 29.5599 38.598 30.1776C38.4248 30.7952 38.46 31.4527 38.6983 32.0483C39.0438 32.9097 39.1708 33.8431 39.0681 34.7654C38.9654 35.6878 38.6361 36.5704 38.1096 37.3346C38.0507 37.4219 37.9752 37.4967 37.8872 37.5546C37.7993 37.6125 37.7008 37.6524 37.5974 37.672C37.4939 37.6916 37.3876 37.6905 37.2846 37.6688C37.1816 37.6471 37.0839 37.6052 36.9972 37.5455C36.9104 37.4858 36.8364 37.4096 36.7793 37.3211C36.7222 37.2326 36.6833 37.1337 36.6646 37.0301C36.646 36.9265 36.6481 36.8202 36.6707 36.7174C36.6934 36.6146 36.7363 36.5173 36.7967 36.4312C37.1744 35.8831 37.4106 35.2501 37.4841 34.5886C37.5576 33.9271 37.4662 33.2576 37.2181 32.64C36.8509 31.7194 36.7971 30.7036 37.065 29.7493C37.3329 28.7951 37.9076 27.9557 38.7003 27.3607L39.4613 26.79C42.417 24.5697 44.7682 21.6431 46.2995 18.2783C46.3055 18.2634 46.3124 18.2485 46.3194 18.2335C46.849 17.1266 47.0857 15.9023 47.0068 14.6777C46.928 13.4531 46.5363 12.2693 45.8692 11.2394C45.2021 10.2095 44.2819 9.36794 43.1966 8.79531C42.1113 8.22268 40.8972 7.9381 39.6705 7.96877C38.3297 8.00113 37.0249 8.4088 35.9042 9.14547C34.7834 9.88214 33.8917 10.9183 33.3303 12.1363C32.7689 13.3543 32.5602 14.7053 32.728 16.0359C32.8958 17.3665 33.4334 18.6234 34.2796 19.6639C35.1295 20.6948 35.6623 21.9501 35.8134 23.2776C35.9646 24.6051 35.7276 25.948 35.1313 27.1436L34.684 28.0401C34.2268 28.9591 33.5694 29.7641 32.7603 30.3958C31.9512 31.0275 31.0109 31.47 30.0084 31.6907L28.3529 32.0583C26.3906 32.4946 25.6734 34.8235 26.9055 36.3017L28.4604 38.1683C29.9825 39.9912 32.7167 40.4414 34.5645 38.9582C34.6463 38.8928 34.7401 38.8442 34.8407 38.815C34.9412 38.7859 35.0465 38.7769 35.1506 38.7884C35.2546 38.8 35.3554 38.8319 35.4471 38.8824C35.5388 38.9329 35.6197 39.001 35.6851 39.0828C35.7505 39.1645 35.7992 39.2584 35.8283 39.3589C35.8575 39.4595 35.8665 39.5648 35.8549 39.6688C35.8434 39.7729 35.8114 39.8737 35.7609 39.9654C35.7104 40.0571 35.6424 40.138 35.5606 40.2034C33.0255 42.2344 29.3051 41.6706 27.2362 39.1873Z" fill="#134A85"/>
<path d="M50.2032 37.237C50.2032 38.5817 50.2141 39.8019 49.7948 41.6128L47.8125 50.2031H42.2344L43.8282 39.8438L42.597 36.7658C42.4878 36.493 42.4561 36.1953 42.5055 35.9056C42.5549 35.6159 42.6834 35.3455 42.8769 35.1243L46.2497 31.2714C46.4219 31.0746 46.6398 30.9232 46.8844 30.8306C47.1289 30.738 47.3924 30.7069 47.6518 30.7402C47.9111 30.7735 48.1583 30.87 48.3715 31.0214C48.5847 31.1727 48.7574 31.3742 48.8744 31.608C49.7482 33.3558 50.2031 35.283 50.2032 37.237Z" fill="#F6F6F6"/>
<path d="M42.4795 48.6094H48.1801L47.8125 50.2031H42.2344L42.4795 48.6094Z" fill="#DCDCDC"/>
<path d="M47.8125 51C47.6926 51.0001 47.5742 50.9731 47.4662 50.921C47.3581 50.869 47.2632 50.7932 47.1885 50.6994C47.1139 50.6056 47.0613 50.4961 47.0348 50.3791C47.0083 50.2621 47.0086 50.1407 47.0356 50.0238L49.0188 41.4375C49.4252 39.6744 49.4063 38.4492 49.4063 37.241C49.404 35.4106 48.9778 33.6057 48.1612 31.9676C48.1027 31.8508 48.0163 31.7502 47.9098 31.6746C47.8032 31.599 47.6797 31.5507 47.5501 31.5341C47.4205 31.5175 47.2888 31.5329 47.1666 31.5792C47.0444 31.6254 46.9354 31.701 46.8493 31.7993L43.4775 35.6532C43.3807 35.7638 43.3164 35.8989 43.2916 36.0438C43.2668 36.1886 43.2825 36.3375 43.3371 36.474L44.5683 39.5449C44.6208 39.6774 44.6373 39.8214 44.6161 39.9623L43.0223 50.3217C43.0064 50.4251 42.9702 50.5245 42.9158 50.6139C42.8615 50.7034 42.7901 50.7813 42.7056 50.8432C42.6212 50.9051 42.5254 50.9497 42.4237 50.9746C42.322 50.9994 42.2164 51.004 42.1129 50.9881C42.0094 50.9721 41.9101 50.9359 41.8206 50.8816C41.7311 50.8272 41.6532 50.7558 41.5914 50.6714C41.5295 50.5869 41.4848 50.4911 41.46 50.3894C41.4351 50.2877 41.4306 50.1821 41.4465 50.0786L43.0074 39.9344L41.8569 37.0587C41.692 36.6498 41.6439 36.2031 41.7181 35.7684C41.7924 35.3338 41.9859 34.9283 42.2773 34.5973L45.65 30.7435C45.9083 30.4484 46.2353 30.2215 46.602 30.0826C46.9687 29.9437 47.3639 29.8971 47.7529 29.947C48.1418 29.9969 48.5125 30.1417 48.8323 30.3687C49.1521 30.5957 49.4111 30.8978 49.5866 31.2485C50.514 33.1086 50.9978 35.1584 51 37.237C51 38.6385 51.006 39.9095 50.5717 41.7921L48.5885 50.3824C48.548 50.5579 48.4492 50.7145 48.3083 50.8266C48.1674 50.9388 47.9926 50.9999 47.8125 51Z" fill="#134A85"/>
<path d="M31.875 37.4531C31.4022 37.4531 30.94 37.3129 30.5469 37.0502C30.1538 36.7875 29.8473 36.4142 29.6664 35.9774C29.4855 35.5405 29.4381 35.0598 29.5304 34.5961C29.6226 34.1324 29.8503 33.7064 30.1846 33.3721C30.519 33.0377 30.9449 32.8101 31.4087 32.7178C31.8724 32.6256 32.3531 32.6729 32.7899 32.8539C33.2267 33.0348 33.6001 33.3412 33.8628 33.7343C34.1255 34.1275 34.2657 34.5897 34.2657 35.0625C34.2657 35.6965 34.0138 36.3046 33.5655 36.7529C33.1171 37.2013 32.5091 37.4531 31.875 37.4531ZM31.875 34.2656C31.7174 34.2656 31.5634 34.3124 31.4323 34.3999C31.3013 34.4875 31.1991 34.6119 31.1388 34.7576C31.0785 34.9032 31.0627 35.0634 31.0935 35.218C31.1242 35.3725 31.2001 35.5145 31.3116 35.626C31.423 35.7374 31.565 35.8133 31.7196 35.8441C31.8742 35.8748 32.0344 35.859 32.18 35.7987C32.3256 35.7384 32.4501 35.6363 32.5376 35.5052C32.6252 35.3742 32.6719 35.2201 32.6719 35.0625C32.6719 34.8512 32.588 34.6485 32.4385 34.499C32.2891 34.3496 32.0864 34.2656 31.875 34.2656Z" fill="#134A85"/>
<path d="M43.8282 18.3281C43.7048 18.3281 43.5832 18.2994 43.4728 18.2444C43.3624 18.1894 43.2663 18.1095 43.192 18.011C43.1178 17.9125 43.0674 17.7981 43.0449 17.6768C43.0223 17.5555 43.0282 17.4307 43.0622 17.3121C43.6419 15.2821 43.366 13.6266 42.2424 12.3894C41.7284 11.8304 41.0947 11.3949 40.3887 11.1154C40.2894 11.0823 40.1976 11.03 40.1185 10.9614C40.0395 10.8928 39.9747 10.8094 39.9279 10.7158C39.8811 10.6222 39.8532 10.5203 39.8457 10.4159C39.8383 10.3115 39.8515 10.2066 39.8846 10.1074C39.9177 10.0081 39.9701 9.91628 40.0386 9.83722C40.1072 9.75816 40.1907 9.69338 40.2843 9.64657C40.3779 9.59977 40.4798 9.57186 40.5842 9.56444C40.6886 9.55703 40.7934 9.57024 40.8927 9.60334C41.8584 9.96862 42.7248 10.5558 43.4218 11.3176C44.4667 12.4671 45.5185 14.5161 44.5942 17.7504C44.5466 17.9168 44.4461 18.0632 44.3079 18.1675C44.1697 18.2717 44.0013 18.3281 43.8282 18.3281Z" fill="#134A85"/>
<path d="M7.9688 27.8906L3.98442 31.875L7.17192 35.8594L11.1563 31.875L7.9688 27.8906Z" fill="#F6F6F6"/>
<path d="M6.54936 36.3574L3.36186 32.373C3.2392 32.2199 3.17736 32.0268 3.18821 31.8309C3.19905 31.6349 3.28181 31.4499 3.42063 31.3112L7.40501 27.3268C7.48426 27.2475 7.57938 27.1858 7.68413 27.1457C7.78888 27.1056 7.90091 27.0881 8.01289 27.0943C8.12486 27.1005 8.23427 27.1303 8.33395 27.1817C8.43364 27.2331 8.52135 27.3049 8.59135 27.3926L11.7789 31.3769C11.9015 31.5301 11.9634 31.7232 11.9525 31.9191C11.9417 32.115 11.8589 32.3001 11.7201 32.4388L7.73571 36.4231C7.65645 36.5025 7.56134 36.5642 7.45659 36.6043C7.35184 36.6443 7.23981 36.6618 7.12783 36.6556C7.01585 36.6494 6.90644 36.6197 6.80676 36.5683C6.70708 36.5169 6.61937 36.445 6.54936 36.3574ZM5.05522 31.9338L7.23766 34.664L10.0885 31.8142L7.90305 29.0859L5.05522 31.9338Z" fill="#134A85"/>
<path d="M27.0938 28.6875H23.9063L23.1094 24.7031H27.8907L27.0938 28.6875Z" fill="#134A85"/>
<path d="M27.0938 29.4844H23.9063C23.7222 29.4843 23.5438 29.4204 23.4014 29.3037C23.259 29.1869 23.1615 29.0244 23.1254 28.8439L22.3285 24.8595C22.3054 24.7439 22.3081 24.6247 22.3367 24.5103C22.3652 24.3959 22.4187 24.2893 22.4934 24.1981C22.5681 24.1069 22.6621 24.0335 22.7686 23.983C22.8752 23.9325 22.9916 23.9063 23.1094 23.9062H27.8907C28.0085 23.9063 28.1249 23.9325 28.2314 23.983C28.338 24.0335 28.432 24.1069 28.5067 24.1981C28.5814 24.2893 28.6349 24.3959 28.6634 24.5103C28.6919 24.6247 28.6947 24.7439 28.6716 24.8595L27.8747 28.8439C27.8386 29.0244 27.7411 29.1869 27.5987 29.3037C27.4563 29.4204 27.2779 29.4843 27.0938 29.4844ZM24.5597 27.8906H26.4404L26.9185 25.5H24.0816L24.5597 27.8906Z" fill="#134A85"/>
<path d="M8.76567 24.7031L7.17192 27.0938L11.1563 33.4688H14.3438L15.1407 31.0781V27.0938L8.76567 24.7031Z" fill="#134A85"/>
<path d="M14.3438 34.2656H11.1563C11.0212 34.2655 10.8884 34.2311 10.7702 34.1656C10.6521 34.1001 10.5525 34.0056 10.4809 33.8911L6.49657 27.5161C6.41514 27.3861 6.37296 27.2354 6.37508 27.082C6.3772 26.9286 6.42353 26.7791 6.50852 26.6515L8.10227 24.2608C8.20211 24.1111 8.34968 23.9996 8.52095 23.9445C8.69223 23.8893 8.87713 23.8937 9.04557 23.957L15.4206 26.3477C15.5724 26.4046 15.7033 26.5066 15.7957 26.6399C15.888 26.7732 15.9375 26.9315 15.9375 27.0937C15.9375 31.4228 15.9555 31.1548 15.8967 31.3301L15.0998 33.7207C15.0469 33.8794 14.9455 34.0174 14.8098 34.1152C14.6741 34.213 14.5111 34.2656 14.3438 34.2656ZM11.5976 32.6719H13.769L14.3438 30.9486V27.6456L9.07745 25.6713L8.1202 27.1077L11.5976 32.6719Z" fill="#134A85"/>
<path d="M17.0333 27.6825L16.586 26.786C16.0579 25.7277 15.8482 24.5389 15.9824 23.3638C16.1166 22.1888 16.5889 21.0779 17.342 20.1659C18.5182 18.7227 19.1494 16.9117 19.125 15.05C19.0772 10.7827 15.6148 7.2715 11.3485 7.17189C9.98652 7.13852 8.63868 7.45491 7.43378 8.09086C6.22887 8.72681 5.20713 9.66106 4.46617 10.8044C3.7252 11.9477 3.28974 13.2619 3.20139 14.6215C3.11304 15.9811 3.37475 17.3406 3.96151 18.5702C5.54389 22.0705 7.98436 25.1147 11.0567 27.4205L11.8177 27.9912C12.4711 28.4812 12.9448 29.1729 13.1654 29.9593C13.386 30.7457 13.3412 31.5828 13.0379 32.3412C12.7095 33.1618 12.6122 34.0568 12.7565 34.9288C12.9009 35.8009 13.2814 36.6167 13.8567 37.2878L15.2861 38.9473C17.3779 41.3927 21.1471 41.0799 23.1552 38.6743L24.7032 36.8117C26.3368 34.8503 25.3178 31.8312 22.8166 31.2793L21.1601 30.9118C20.2756 30.7137 19.4463 30.3211 18.7325 29.7625C18.0187 29.2039 17.4382 28.4934 17.0333 27.6825Z" fill="#F6F6F6"/>
<path d="M24.7032 34.421L23.1473 36.2867C22.6359 36.9007 21.9958 37.3948 21.2724 37.734C20.5489 38.0733 19.7597 38.2494 18.9607 38.25C18.2623 38.2496 17.5722 38.0981 16.9379 37.8058C16.3036 37.5135 15.7401 37.0873 15.2861 36.5566L13.8607 34.8942C13.3786 34.3298 13.0327 33.6621 12.8496 32.9428C12.6578 33.6953 12.6498 34.483 12.8265 35.2393C13.0031 35.9955 13.3592 36.6981 13.8647 37.2878L15.2861 38.9473C17.3859 41.3977 21.1501 41.0759 23.1552 38.6743L24.7032 36.8116C25.2168 36.1968 25.4988 35.4214 25.5 34.6202C25.5 34.2121 25.4268 33.8072 25.2839 33.4249C25.148 33.7874 24.9517 34.1242 24.7032 34.421Z" fill="#DCDCDC"/>
<path d="M13.1166 27.3976C12.8772 26.6822 12.4255 26.0568 11.8217 25.6046L11.0567 25.0298C7.98289 22.7245 5.54102 19.6803 3.95752 16.1796C3.62295 15.472 3.39374 14.7193 3.27719 13.9453C3.03807 15.5207 3.27643 17.1316 3.96151 18.5702C4.06112 18.5702 5.72459 23.4182 11.0607 27.4205L11.8217 27.9912C12.4199 28.4399 12.8685 29.059 13.1086 29.7673C13.3702 28.9995 13.373 28.1671 13.1166 27.3976Z" fill="#DCDCDC"/>
<path d="M14.6805 39.4692L13.2561 37.8068C12.5844 37.0261 12.1401 36.0758 11.9718 35.0597C11.8035 34.0437 11.9177 33.0009 12.3018 32.0454C12.54 31.4498 12.5753 30.7922 12.4021 30.1746C12.2288 29.5569 11.8568 29.0136 11.3436 28.6288C10.0377 27.6496 8.51466 26.537 6.72468 24.4213C6.5881 24.2598 6.52123 24.0508 6.53879 23.8401C6.55635 23.6294 6.6569 23.4342 6.81831 23.2977C6.97972 23.1611 7.18878 23.0942 7.3995 23.1118C7.61021 23.1293 7.80532 23.2299 7.9419 23.3913C9.56454 25.3088 10.9511 26.3417 12.2998 27.3538C13.0923 27.9488 13.6669 28.7883 13.9348 29.7424C14.2027 30.6966 14.149 31.7124 13.782 32.6331C13.5065 33.3184 13.4246 34.0663 13.545 34.7951C13.6655 35.5239 13.9839 36.2056 14.4653 36.7658L15.8907 38.4283C17.6488 40.4783 20.8314 40.2123 22.5397 38.1634L24.0946 36.2967C25.3267 34.8185 24.6105 32.4896 22.6472 32.0533L20.9917 31.6858C19.9892 31.465 19.0489 31.0226 18.2398 30.3908C17.4307 29.7591 16.7733 28.9541 16.3161 28.0351L15.8688 27.1386C15.2726 25.943 15.0357 24.6001 15.1868 23.2726C15.338 21.9451 15.8707 20.6899 16.7205 19.6589C17.4452 18.7678 17.9452 17.7157 18.1786 16.5911C18.4119 15.4664 18.3718 14.3022 18.0615 13.1964C17.7512 12.0905 17.1798 11.0753 16.3954 10.2363C15.6111 9.39721 14.6367 8.75882 13.5542 8.37479C12.4717 7.99077 11.3128 7.87235 10.175 8.0295C9.03727 8.18664 7.95387 8.61476 7.01601 9.27783C6.07816 9.9409 5.31327 10.8195 4.78571 11.8398C4.25815 12.86 3.98335 13.9921 3.98442 15.1406C3.9816 16.2093 4.21994 17.2648 4.68169 18.2285C5.00422 18.9447 5.36499 19.6429 5.76245 20.3203C5.86944 20.5026 5.89964 20.7199 5.8464 20.9245C5.79316 21.129 5.66085 21.3041 5.47856 21.4111C5.29628 21.5181 5.07896 21.5483 4.87441 21.495C4.66986 21.4418 4.49483 21.3095 4.38784 21.1272C3.96492 20.407 3.58055 19.6649 3.23636 18.9039C0.447294 12.8775 4.90581 6.2296 11.3675 6.37502C13.0063 6.41457 14.6012 6.91287 15.971 7.81334C17.3408 8.71381 18.4307 9.98036 19.1169 11.4692C19.803 12.9579 20.0579 14.6093 19.8527 16.2357C19.6474 17.8621 18.9902 19.3983 17.9556 20.67C17.2998 21.4632 16.8882 22.4296 16.7708 23.4521C16.6534 24.4746 16.8353 25.5092 17.2942 26.4304L17.7415 27.3269C18.0932 28.0336 18.5988 28.6527 19.221 29.1386C19.8433 29.6245 20.5664 29.9649 21.3374 30.1348L22.9929 30.5024C26.1465 31.1997 27.299 34.946 25.3188 37.3227L23.7639 39.1883C21.432 41.9864 17.089 42.2792 14.6805 39.4692Z" fill="#134A85"/>
<path d="M28.2493 11.9641L26.6744 12.4143C25.9068 12.6332 25.0933 12.6332 24.3257 12.4143L22.7508 11.9641C22.1719 11.7991 21.5647 11.7582 20.9688 11.844C20.373 11.9298 19.802 12.1404 19.2932 12.462C18.7843 12.7837 18.3491 13.2091 18.016 13.7105C17.6828 14.2119 17.4593 14.778 17.36 15.3717L17.1468 16.6507C17.0216 17.4009 17.0989 18.1709 17.3707 18.8813C17.6424 19.5917 18.0988 20.2167 18.6927 20.6918L19.9877 21.7288C20.4687 22.1133 20.8605 22.5976 21.1362 23.1482C21.4895 23.8551 22.0327 24.4496 22.705 24.865C23.3773 25.2804 24.152 25.5003 24.9422 25.5H26.0579C26.8479 25.5001 27.6224 25.2801 28.2945 24.8647C28.9666 24.4493 29.5097 23.8549 29.8629 23.1482C30.1388 22.5977 30.5307 22.1135 31.0114 21.7288L32.3064 20.6918C32.9003 20.2167 33.3567 19.5917 33.6284 18.8813C33.9002 18.1709 33.9775 17.4009 33.8523 16.6507L33.6391 15.3717C33.5389 14.7785 33.3148 14.2131 32.9815 13.7123C32.6482 13.2115 32.2132 12.7865 31.7047 12.465C31.1962 12.1435 30.6257 11.9328 30.0303 11.8465C29.435 11.7602 28.8281 11.8002 28.2493 11.9641Z" fill="#F6F6F6"/>
<path d="M33.7676 16.1477C33.535 17.0364 33.0222 17.8264 32.3054 18.4008L31.0104 19.4378C30.5294 19.8223 30.1376 20.3066 29.8619 20.8572C29.5088 21.5638 28.9658 22.1581 28.294 22.5734C27.6221 22.9888 26.8478 23.2089 26.0579 23.209H24.9422C24.1521 23.2091 23.3776 22.9891 22.7056 22.5737C22.0335 22.1583 21.4904 21.5639 21.1372 20.8572C20.8615 20.3066 20.4697 19.8223 19.9887 19.4378L18.6937 18.4008C17.9772 17.8263 17.4648 17.0362 17.2325 16.1477L17.1488 16.6457C17.0236 17.3959 17.1009 18.166 17.3726 18.8764C17.6444 19.5867 18.1008 20.2117 18.6947 20.6869L19.9897 21.7238C20.4707 22.1083 20.8625 22.5926 21.1382 23.1432C21.4906 23.8508 22.0333 24.4461 22.7052 24.8623C23.3771 25.2786 24.1518 25.4994 24.9422 25.5H26.0579C26.8479 25.5001 27.6224 25.2801 28.2945 24.8647C28.9666 24.4493 29.5097 23.855 29.8629 23.1482C30.1386 22.5976 30.5304 22.1133 31.0114 21.7288L32.3064 20.6919C32.9003 20.2167 33.3567 19.5917 33.6284 18.8813C33.9002 18.171 33.9775 17.4009 33.8523 16.6507L33.7676 16.1477Z" fill="#DCDCDC"/>
<path d="M26.0579 26.2969H24.9422C24.0031 26.3013 23.0815 26.0423 22.2821 25.5493C21.4827 25.0563 20.8376 24.3491 20.42 23.5078C20.1957 23.0608 19.8777 22.6674 19.4876 22.3544L18.1927 21.3174C17.4889 20.7531 16.9481 20.0115 16.6258 19.169C16.3035 18.3264 16.2114 17.4132 16.3589 16.5232L16.5741 15.2403C17.0791 12.2121 20.1192 10.3833 22.97 11.1971L24.5448 11.6473C25.1692 11.8257 25.831 11.8257 26.4553 11.6473L28.0301 11.1971C30.8809 10.3823 33.921 12.2121 34.426 15.2403L34.6392 16.5192C34.7873 17.4097 34.6955 18.3235 34.3732 19.1666C34.0508 20.0098 33.5097 20.7518 32.8054 21.3164L31.5105 22.3534C31.121 22.6669 30.8037 23.0606 30.5801 23.5078C30.1625 24.3491 29.5174 25.0563 28.718 25.5493C27.9186 26.0423 26.997 26.3013 26.0579 26.2969ZM18.1459 15.5032L17.9297 16.7822C17.8283 17.3925 17.8913 18.0188 18.1125 18.5966C18.3336 19.1744 18.7048 19.6827 19.1878 20.0693L20.4827 21.1062C21.0524 21.564 21.5171 22.1388 21.8454 22.7916C22.1311 23.3681 22.5727 23.8528 23.1202 24.1907C23.6676 24.5286 24.2989 24.7061 24.9422 24.7031H26.0579C26.6997 24.7045 27.329 24.5261 27.8747 24.1883C28.4205 23.8505 28.8607 23.3667 29.1458 22.7916C29.4741 22.1388 29.9388 21.564 30.5084 21.1062L31.8033 20.0693C32.2863 19.6827 32.6575 19.1744 32.8787 18.5966C33.0998 18.0188 33.1629 17.3925 33.0614 16.7822L32.8482 15.5032C32.7664 15.021 32.584 14.5614 32.3129 14.1543C32.0418 13.7472 31.6881 13.4017 31.2747 13.1403C30.8613 12.8788 30.3976 12.7073 29.9136 12.6368C29.4296 12.5663 28.9362 12.5984 28.4654 12.7311L26.8946 13.1803C25.9833 13.4417 25.0168 13.4417 24.1055 13.1803L22.5307 12.7311C22.0598 12.5981 21.5662 12.5657 21.082 12.6361C20.5977 12.7064 20.1337 12.8779 19.7201 13.1394C19.3065 13.4008 18.9526 13.7465 18.6814 14.1537C18.4102 14.561 18.2277 15.0208 18.1459 15.5032Z" fill="#134A85"/>
<path d="M3.18755 50.2031L1.20532 41.6128C0.933516 40.4369 0.796501 39.2338 0.796922 38.0269V37.235C0.796951 35.281 1.25189 33.3538 2.12571 31.6061C2.24268 31.3722 2.41538 31.1707 2.62859 31.0194C2.84181 30.868 3.08899 30.7715 3.34833 30.7382C3.60768 30.7049 3.87123 30.736 4.11574 30.8286C4.36025 30.9213 4.57822 31.0726 4.75042 31.2694L8.12319 35.1223C8.31666 35.3435 8.4452 35.6139 8.49459 35.9036C8.54399 36.1933 8.51232 36.491 8.40309 36.7638L7.17192 39.8438L8.76567 50.2031" fill="#F6F6F6"/>
<path d="M8.76567 50.2031H3.18754L2.81998 48.6094H8.52063L8.76567 50.2031Z" fill="#DCDCDC"/>
<path d="M3.18754 51C3.00762 50.9997 2.8331 50.9385 2.69239 50.8263C2.55168 50.7142 2.45306 50.5577 2.41258 50.3824L0.428361 41.7921C-0.0158966 39.8657 4.09095e-05 38.52 4.09095e-05 37.237C0.00270774 35.1594 0.486501 33.1107 1.4135 31.2515C1.58897 30.9008 1.84801 30.5986 2.16779 30.3717C2.48757 30.1447 2.85827 29.9999 3.24721 29.95C3.63616 29.9001 4.0314 29.9467 4.39812 30.0856C4.76483 30.2245 5.09175 30.4514 5.35006 30.7464L8.72283 34.6003C9.01414 34.9313 9.20772 35.3368 9.28195 35.7714C9.35617 36.206 9.30813 36.6528 9.14319 37.0617L7.9927 39.9374L9.55358 50.0816C9.58581 50.2906 9.5337 50.5038 9.40873 50.6743C9.28376 50.8449 9.09616 50.9588 8.88719 50.9911C8.67822 51.0233 8.46501 50.9712 8.29446 50.8462C8.12391 50.7212 8.00998 50.5336 7.97776 50.3247L6.38401 39.9653C6.36276 39.8244 6.37926 39.6804 6.43182 39.5479L7.66299 36.47C7.71754 36.3335 7.73329 36.1847 7.7085 36.0398C7.68372 35.8949 7.61936 35.7598 7.52254 35.6492L4.15076 31.7953C4.06465 31.6971 3.9557 31.6215 3.8335 31.5752C3.7113 31.529 3.5796 31.5135 3.45 31.5301C3.3204 31.5467 3.19688 31.595 3.09032 31.6706C2.98375 31.7462 2.89742 31.8468 2.83891 31.9637C2.0223 33.6017 1.59613 35.4067 1.59379 37.237C1.59379 38.4193 1.57088 39.6535 1.98127 41.4335L3.9635 50.0238C3.99046 50.1406 3.99074 50.262 3.96431 50.3789C3.93789 50.4958 3.88543 50.6052 3.81086 50.699C3.73629 50.7928 3.64151 50.8686 3.53359 50.9207C3.42567 50.9728 3.30739 50.9999 3.18754 51Z" fill="#134A85"/>
<path d="M19.125 37.4531C18.6522 37.4531 18.19 37.3129 17.7969 37.0502C17.4038 36.7875 17.0973 36.4142 16.9164 35.9774C16.7355 35.5405 16.6881 35.0598 16.7804 34.5961C16.8726 34.1324 17.1003 33.7064 17.4346 33.3721C17.769 33.0377 18.1949 32.8101 18.6587 32.7178C19.1224 32.6256 19.6031 32.6729 20.0399 32.8539C20.4767 33.0348 20.8501 33.3412 21.1128 33.7343C21.3755 34.1275 21.5157 34.5897 21.5157 35.0625C21.5157 35.6965 21.2638 36.3046 20.8155 36.7529C20.3671 37.2013 19.7591 37.4531 19.125 37.4531ZM19.125 34.2656C18.9674 34.2656 18.8134 34.3124 18.6823 34.3999C18.5513 34.4875 18.4491 34.6119 18.3888 34.7576C18.3285 34.9032 18.3127 35.0634 18.3435 35.218C18.3742 35.3725 18.4501 35.5145 18.5616 35.626C18.673 35.7374 18.815 35.8133 18.9696 35.8441C19.1242 35.8748 19.2844 35.859 19.43 35.7987C19.5756 35.7384 19.7001 35.6363 19.7876 35.5052C19.8752 35.3742 19.9219 35.2201 19.9219 35.0625C19.9219 34.8512 19.838 34.6485 19.6885 34.499C19.5391 34.3496 19.3364 34.2656 19.125 34.2656Z" fill="#134A85"/>
<path d="M26.8946 8.76562H24.1055C23.1153 8.76562 22.3125 9.56836 22.3125 10.5586V11.7539C22.3125 12.7441 23.1153 13.5469 24.1055 13.5469H26.8946C27.8848 13.5469 28.6875 12.7441 28.6875 11.7539V10.5586C28.6875 9.56836 27.8848 8.76562 26.8946 8.76562Z" fill="#F6F6F6"/>
<path d="M22.3125 11.1562H28.6875V13.5469H22.3125V11.1562Z" fill="#DCDCDC"/>
<path d="M26.8946 14.3438H24.1055C23.4186 14.3438 22.7599 14.0709 22.2742 13.5852C21.7885 13.0995 21.5157 12.4408 21.5157 11.7539V10.5586C21.5157 9.87172 21.7885 9.21299 22.2742 8.7273C22.7599 8.24161 23.4186 7.96875 24.1055 7.96875H26.8946C27.5814 7.96875 28.2402 8.24161 28.7259 8.7273C29.2116 9.21299 29.4844 9.87172 29.4844 10.5586V11.7539C29.4844 12.4408 29.2116 13.0995 28.7259 13.5852C28.2402 14.0709 27.5814 14.3438 26.8946 14.3438ZM24.1055 9.5625C23.8413 9.5625 23.588 9.66745 23.4012 9.85425C23.2144 10.0411 23.1094 10.2944 23.1094 10.5586V11.7539C23.1094 12.0181 23.2144 12.2714 23.4012 12.4583C23.588 12.6451 23.8413 12.75 24.1055 12.75H26.8946C27.1588 12.75 27.4121 12.6451 27.5989 12.4583C27.7857 12.2714 27.8907 12.0181 27.8907 11.7539V10.5586C27.8907 10.2944 27.7857 10.0411 27.5989 9.85425C27.4121 9.66745 27.1588 9.5625 26.8946 9.5625H24.1055Z" fill="#134A85"/>
<path d="M27.0938 5.57812H23.9063C23.4836 5.57813 23.0782 5.74604 22.7793 6.04492C22.4805 6.34381 22.3125 6.74919 22.3125 7.17188C22.3125 7.59456 22.4805 7.99994 22.7793 8.29883C23.0782 8.59771 23.4836 8.76562 23.9063 8.76562H27.0938C27.5165 8.76562 27.9219 8.59771 28.2207 8.29883C28.5196 7.99994 28.6875 7.59456 28.6875 7.17188C28.6875 6.74919 28.5196 6.34381 28.2207 6.04492C27.9219 5.74604 27.5165 5.57813 27.0938 5.57812Z" fill="#134A85"/>
<path d="M27.0938 9.5625H23.9063C23.2723 9.5625 22.6642 9.31063 22.2159 8.8623C21.7675 8.41397 21.5157 7.80591 21.5157 7.17188C21.5157 6.53784 21.7675 5.92978 22.2159 5.48145C22.6642 5.03312 23.2723 4.78125 23.9063 4.78125H27.0938C27.7278 4.78125 28.3359 5.03312 28.7842 5.48145C29.2326 5.92978 29.4844 6.53784 29.4844 7.17188C29.4844 7.80591 29.2326 8.41397 28.7842 8.8623C28.3359 9.31063 27.7278 9.5625 27.0938 9.5625ZM23.9063 6.375C23.695 6.375 23.4923 6.45896 23.3428 6.6084C23.1934 6.75784 23.1094 6.96053 23.1094 7.17188C23.1094 7.38322 23.1934 7.58591 23.3428 7.73535C23.4923 7.88479 23.695 7.96875 23.9063 7.96875H27.0938C27.3051 7.96875 27.5078 7.88479 27.6573 7.73535C27.8067 7.58591 27.8907 7.38322 27.8907 7.17188C27.8907 6.96053 27.8067 6.75784 27.6573 6.6084C27.5078 6.45896 27.3051 6.375 27.0938 6.375H23.9063Z" fill="#134A85"/>
<path d="M26.8946 0.796875H24.1055C23.1153 0.796875 22.3125 1.59961 22.3125 2.58984V3.78516C22.3125 4.77539 23.1153 5.57812 24.1055 5.57812H26.8946C27.8848 5.57812 28.6875 4.77539 28.6875 3.78516V2.58984C28.6875 1.59961 27.8848 0.796875 26.8946 0.796875Z" fill="#F6F6F6"/>
<path d="M26.8946 6.375H24.1055C23.4186 6.375 22.7599 6.10214 22.2742 5.61645C21.7885 5.13076 21.5157 4.47203 21.5157 3.78516V2.58984C21.5157 1.90297 21.7885 1.24424 22.2742 0.758548C22.7599 0.272858 23.4186 0 24.1055 0L26.8946 0C27.5814 0 28.2402 0.272858 28.7259 0.758548C29.2116 1.24424 29.4844 1.90297 29.4844 2.58984V3.78516C29.4844 4.47203 29.2116 5.13076 28.7259 5.61645C28.2402 6.10214 27.5814 6.375 26.8946 6.375ZM24.1055 1.59375C23.8413 1.59375 23.588 1.6987 23.4012 1.8855C23.2144 2.0723 23.1094 2.32566 23.1094 2.58984V3.78516C23.1094 3.91597 23.1352 4.04549 23.1852 4.16635C23.2353 4.2872 23.3087 4.39701 23.4012 4.4895C23.588 4.6763 23.8413 4.78125 24.1055 4.78125H26.8946C27.0254 4.78125 27.1549 4.75549 27.2758 4.70543C27.3966 4.65537 27.5064 4.582 27.5989 4.4895C27.6914 4.39701 27.7648 4.2872 27.8148 4.16635C27.8649 4.04549 27.8907 3.91597 27.8907 3.78516V2.58984C27.8907 2.32566 27.7857 2.0723 27.5989 1.8855C27.4121 1.6987 27.1588 1.59375 26.8946 1.59375H24.1055Z" fill="#134A85"/>
<path d="M22.3125 7.96875H19.9219C19.7106 7.96875 19.5079 7.88479 19.3584 7.73535C19.209 7.58591 19.125 7.38322 19.125 7.17188C19.125 6.96053 19.209 6.75784 19.3584 6.6084C19.5079 6.45896 19.7106 6.375 19.9219 6.375H22.3125C22.5239 6.375 22.7266 6.45896 22.876 6.6084C23.0255 6.75784 23.1094 6.96053 23.1094 7.17188C23.1094 7.38322 23.0255 7.58591 22.876 7.73535C22.7266 7.88479 22.5239 7.96875 22.3125 7.96875Z" fill="#134A85"/>
<path d="M31.0782 7.96875H28.6875C28.4762 7.96875 28.2735 7.88479 28.1241 7.73535C27.9746 7.58591 27.8907 7.38322 27.8907 7.17188C27.8907 6.96053 27.9746 6.75784 28.1241 6.6084C28.2735 6.45896 28.4762 6.375 28.6875 6.375H31.0782C31.2895 6.375 31.4922 6.45896 31.6416 6.6084C31.7911 6.75784 31.875 6.96053 31.875 7.17188C31.875 7.38322 31.7911 7.58591 31.6416 7.73535C31.4922 7.88479 31.2895 7.96875 31.0782 7.96875Z" fill="#134A85"/>
<path d="M7.17191 18.3281C6.99881 18.3281 6.83042 18.2717 6.69222 18.1675C6.55402 18.0632 6.45352 17.9168 6.40591 17.7504C5.48154 14.5161 6.53341 12.4711 7.57832 11.3176C8.27532 10.5559 9.14165 9.96863 10.1074 9.60335C10.3078 9.53611 10.5267 9.55123 10.7159 9.64538C10.9051 9.73953 11.0492 9.905 11.1164 10.1054C11.1837 10.3058 11.1686 10.5246 11.0744 10.7139C10.9803 10.9031 10.8148 11.0472 10.6144 11.1144C9.88988 11.4019 9.24201 11.8537 8.72183 12.4342C7.62613 13.6664 7.36914 15.307 7.94189 17.3151C7.97535 17.4338 7.98079 17.5587 7.95778 17.6799C7.93478 17.8011 7.88395 17.9153 7.80931 18.0135C7.73467 18.1117 7.63825 18.1912 7.52764 18.2458C7.41703 18.3004 7.29526 18.3286 7.17191 18.3281Z" fill="#134A85"/>
<path d="M23.9063 17.5312H23.1094C22.8981 17.5312 22.6954 17.4473 22.5459 17.2979C22.3965 17.1484 22.3125 16.9457 22.3125 16.7344C22.3125 16.523 22.3965 16.3203 22.5459 16.1709C22.6954 16.0215 22.8981 15.9375 23.1094 15.9375H23.9063C24.1176 15.9375 24.3203 16.0215 24.4698 16.1709C24.6192 16.3203 24.7032 16.523 24.7032 16.7344C24.7032 16.9457 24.6192 17.1484 24.4698 17.2979C24.3203 17.4473 24.1176 17.5312 23.9063 17.5312Z" fill="#134A85"/>
<path d="M23.9063 20.7188H23.1094C22.8981 20.7188 22.6954 20.6348 22.5459 20.4854C22.3965 20.3359 22.3125 20.1332 22.3125 19.9219C22.3125 19.7105 22.3965 19.5078 22.5459 19.3584C22.6954 19.209 22.8981 19.125 23.1094 19.125H23.9063C24.1176 19.125 24.3203 19.209 24.4698 19.3584C24.6192 19.5078 24.7032 19.7105 24.7032 19.9219C24.7032 20.1332 24.6192 20.3359 24.4698 20.4854C24.3203 20.6348 24.1176 20.7188 23.9063 20.7188Z" fill="#134A85"/>
<path d="M27.8907 17.5312H27.0938C26.8825 17.5312 26.6798 17.4473 26.5303 17.2979C26.3809 17.1484 26.2969 16.9457 26.2969 16.7344C26.2969 16.523 26.3809 16.3203 26.5303 16.1709C26.6798 16.0215 26.8825 15.9375 27.0938 15.9375H27.8907C28.102 15.9375 28.3047 16.0215 28.4541 16.1709C28.6036 16.3203 28.6875 16.523 28.6875 16.7344C28.6875 16.9457 28.6036 17.1484 28.4541 17.2979C28.3047 17.4473 28.102 17.5312 27.8907 17.5312Z" fill="#134A85"/>
<path d="M27.8907 20.7188H27.0938C26.8825 20.7188 26.6798 20.6348 26.5303 20.4854C26.3809 20.3359 26.2969 20.1332 26.2969 19.9219C26.2969 19.7105 26.3809 19.5078 26.5303 19.3584C26.6798 19.209 26.8825 19.125 27.0938 19.125H27.8907C28.102 19.125 28.3047 19.209 28.4541 19.3584C28.6036 19.5078 28.6875 19.7105 28.6875 19.9219C28.6875 20.1332 28.6036 20.3359 28.4541 20.4854C28.3047 20.6348 28.102 20.7188 27.8907 20.7188Z" fill="#134A85"/>
</g>
<defs>
<clipPath id="clip0_1_445">
<rect width="51" height="51" fill="white"/>
</clipPath>
</defs>
</svg>
