<svg width="51" height="51" viewBox="0 0 51 51" fill="none" xmlns="http://www.w3.org/2000/svg">
<g clip-path="url(#clip0_27_184)">
<path d="M40.7266 10.2338C38.5387 9.12355 35.955 8.87264 33.5899 9.59878C31.4509 10.2556 29.6485 11.6138 28.4462 13.4537C27.0069 13.0177 25.956 11.6801 25.956 10.1013C25.956 8.1687 27.5284 6.59638 29.4611 6.59638C29.9606 6.59638 30.3829 6.22643 30.4485 5.73128L31.0296 1.35169C31.0983 0.833126 30.7543 0.349626 30.2419 0.244838C29.4476 0.0823763 28.6306 0 27.8134 0C22.1994 0 17.4696 3.85754 16.1349 9.0612L14.3651 6.86273C14.0874 6.51789 13.6152 6.39756 13.2066 6.56769L10.5311 7.68072C10.0875 7.86519 9.83888 8.33993 9.93978 8.80958L10.7847 12.7426C10.7149 12.8189 10.6448 12.8948 10.5773 12.9734C10.4204 13.156 10.2726 13.3449 10.1298 13.537L6.73458 12.7242C6.26313 12.6111 5.77863 12.8544 5.58738 13.2999L4.21956 16.4862C4.032 16.9231 4.17932 17.4317 4.57148 17.7005L8.13418 20.1442C8.20211 21.4283 8.51359 22.6956 9.04689 23.8584C8.32114 25.7086 7.92659 27.7125 7.92659 29.7882C7.92659 41.4843 17.442 50.9997 29.138 50.9997C35.3714 50.9997 40.4427 45.9284 40.4427 39.695V24.5537C40.4427 24.5491 40.4427 24.5445 40.4426 24.5398C40.43 21.5058 39.1803 18.7584 37.1734 16.7762C37.6287 16.2353 38.2993 15.912 39.0297 15.9067C40.4677 15.8962 41.7149 14.969 42.1334 13.5995C42.5364 12.281 41.9445 10.8655 40.7266 10.2338ZM13.2817 8.69414L14.4717 10.1722C13.7774 10.4547 13.1162 10.8137 12.4998 11.2416L12.0616 9.20174L13.2817 8.69414ZM7.08699 14.8569L9.06332 15.3301C8.69597 16.1237 8.43051 16.9624 8.27692 17.8265L6.3729 16.5204L7.08699 14.8569ZM10.1114 19.6093C10.1114 17.6506 10.8134 15.7551 12.0882 14.2719C12.2459 14.0885 12.411 13.9128 12.5829 13.745C12.5835 13.7444 12.5842 13.7439 12.5848 13.7432C13.4855 12.8651 14.5749 12.2086 15.7615 11.8207C15.76 11.8986 15.7585 11.9766 15.7585 12.0549C15.7585 13.2581 15.9341 14.4388 16.281 15.5753C13.8007 16.956 11.7457 18.9565 10.2942 21.3434C10.173 20.7795 10.1114 20.2005 10.1114 19.6093ZM38.4506 24.5858V39.695C38.4506 44.8299 34.273 49.0075 29.138 49.0075C18.5405 49.0075 9.91876 40.3858 9.91876 29.7882C9.91876 23.3257 14.2752 17.6553 20.5129 15.999C21.0446 15.8579 21.3612 15.3123 21.2201 14.7807C21.0789 14.2491 20.5336 13.9322 20.0017 14.0736C19.3504 14.2465 18.7173 14.4583 18.1041 14.7052C17.8701 13.8462 17.7507 12.9587 17.7507 12.0551C17.7507 6.50653 22.2647 1.99237 27.8133 1.99237C28.1857 1.99237 28.5579 2.01279 28.9269 2.05333L28.579 4.67513C25.9656 5.09827 23.9639 7.37054 23.9639 10.1015C23.9639 13.1313 26.4298 15.5963 29.461 15.5963C34.4179 15.5962 38.4506 19.6289 38.4506 24.5858ZM39.7783 11.9863C40.1432 12.1756 40.3502 12.6182 40.2283 13.0173C40.0655 13.55 39.5781 13.9105 39.0153 13.9146C37.6836 13.9242 36.4611 14.5178 35.6359 15.5097C34.2164 14.5408 32.559 13.8961 30.771 13.6825C31.6709 12.6688 32.8391 11.9135 34.1748 11.5033C36.0436 10.9293 38.054 11.1111 39.7783 11.9863Z" fill="#134A85"/>
<path d="M34.4252 36.2134C33.0698 36.4243 31.7124 36.3542 30.3885 36.0071C29.8981 35.2191 29.5164 34.3595 29.2609 33.4501C29.3632 33.2228 29.4733 32.9979 29.5937 32.7764C31.5278 29.2163 31.5278 24.9654 29.5937 21.4053C29.3311 20.9219 28.7264 20.7429 28.2429 21.0055C27.7594 21.2682 27.5805 21.8729 27.843 22.3563C28.36 23.3079 28.71 24.3188 28.8951 25.3508C28.3815 26.7316 27.5821 27.9547 26.5677 28.9555C25.1968 28.9846 23.8592 28.7347 22.5888 28.2118C22.0799 28.0024 21.4979 28.2451 21.2885 28.7538C21.0791 29.2625 21.3218 29.8447 21.8305 30.054C22.568 30.3576 23.3244 30.5842 24.0951 30.7338C23.4247 31.0731 22.7104 31.3401 21.9611 31.5237C21.4268 31.6546 21.0996 32.1938 21.2305 32.7281C21.3419 33.1828 21.7491 33.4876 22.1972 33.4876C22.2756 33.4876 22.3554 33.4782 22.435 33.4587C24.9501 32.8426 27.1415 31.4513 28.7443 29.5291C28.543 30.3183 28.2427 31.0896 27.8429 31.8255C25.9088 35.3856 25.9088 39.6365 27.8429 43.1966C28.0234 43.5289 28.3657 43.7175 28.7191 43.7175C28.8797 43.7175 29.0426 43.6785 29.1937 43.5964C29.6772 43.3338 29.8561 42.729 29.5936 42.2456C28.6385 40.4876 28.2499 38.5274 28.4275 36.6049C29.5573 38.6135 31.2579 40.2727 33.3471 41.3508C33.4932 41.4262 33.6493 41.4618 33.8031 41.4618C34.1639 41.4618 34.5122 41.2651 34.6891 40.9222C34.9413 40.4334 34.7495 39.8326 34.2607 39.5803C33.5785 39.2283 32.9467 38.8013 32.3731 38.3122C32.546 38.3198 32.7189 38.325 32.892 38.325C33.5039 38.325 34.118 38.2773 34.7315 38.1819C35.275 38.0973 35.6472 37.5881 35.5626 37.0446C35.478 36.5009 34.9675 36.1294 34.4252 36.2134Z" fill="#134A85"/>
<path d="M45.6204 27.2132C45.7829 27.2132 45.9478 27.1734 46.1002 27.0893L48.9269 25.5318C49.2012 25.3807 49.3884 25.1094 49.4324 24.7993C49.4763 24.4892 49.372 24.1765 49.1505 23.955L48.8184 23.623L50.4844 22.7051C50.9662 22.4397 51.1416 21.8338 50.8762 21.352C50.6106 20.8702 50.0049 20.6948 49.523 20.9603L46.6963 22.5177C46.422 22.6689 46.2348 22.9402 46.1907 23.2503C46.1468 23.5604 46.2512 23.873 46.4726 24.0946L46.8047 24.4266L45.1388 25.3445C44.6569 25.6099 44.4815 26.2157 44.747 26.6976C44.9286 27.0271 45.2691 27.2132 45.6204 27.2132Z" fill="#134A85"/>
<path d="M50.4844 42.5869L48.8184 41.669L49.1505 41.337C49.372 41.1156 49.4763 40.8028 49.4324 40.4927C49.3884 40.1826 49.2011 39.9113 48.9269 39.7602L46.1002 38.2027C45.6181 37.9372 45.0126 38.1126 44.747 38.5944C44.4815 39.0763 44.6569 39.6821 45.1388 39.9475L46.8047 40.8654L46.4726 41.1974C46.2512 41.4189 46.1468 41.7316 46.1907 42.0417C46.2348 42.3518 46.4219 42.6232 46.6963 42.7743L49.523 44.3317C49.6755 44.4157 49.8403 44.4557 50.0028 44.4557C50.354 44.4557 50.6946 44.2694 50.8762 43.9401C51.1416 43.4582 50.9662 42.8524 50.4844 42.5869Z" fill="#134A85"/>
<path d="M5.86107 25.3442L4.1952 24.4263L4.5272 24.0943C4.74863 23.8729 4.85302 23.5601 4.8091 23.25C4.76517 22.94 4.5779 22.6686 4.30358 22.5175L1.47686 20.96C0.995053 20.6946 0.389229 20.8699 0.12377 21.3518C-0.141788 21.8336 0.0336237 22.4394 0.515534 22.7049L2.1814 23.6228L1.8494 23.9548C1.62797 24.1762 1.52358 24.489 1.56751 24.7991C1.61144 25.1092 1.7987 25.3805 2.07303 25.5316L4.89974 27.0891C5.05214 27.1731 5.217 27.213 5.37956 27.213C5.73078 27.213 6.07135 27.0267 6.25283 26.6974C6.51829 26.2155 6.34298 25.6097 5.86107 25.3442Z" fill="#134A85"/>
<path d="M4.89974 38.2027L2.07302 39.7602C1.7987 39.9113 1.61143 40.1826 1.5675 40.4927C1.52358 40.8028 1.62797 41.1155 1.8494 41.337L2.1814 41.669L0.51553 42.5869C0.0337197 42.8524 -0.141692 43.4582 0.123767 43.94C0.305255 44.2694 0.645819 44.4556 0.997042 44.4556C1.1596 44.4556 1.32446 44.4157 1.47686 44.3317L4.30358 42.7742C4.5779 42.6231 4.76516 42.3517 4.80909 42.0416C4.85302 41.7315 4.74863 41.4189 4.5272 41.1973L4.1952 40.8653L5.86107 39.9474C6.34288 39.682 6.51829 39.0762 6.25283 38.5944C5.98737 38.1126 5.38165 37.9372 4.89974 38.2027Z" fill="#134A85"/>
</g>
<defs>
<clipPath id="clip0_27_184">
<rect width="51" height="51" fill="white"/>
</clipPath>
</defs>
</svg>
