<svg width="51" height="51" viewBox="0 0 51 51" fill="none" xmlns="http://www.w3.org/2000/svg">
<g clip-path="url(#clip0_1_413)">
<path d="M16.6387 18.6739C16.6109 18.6421 16.583 18.6102 16.5551 18.5783C16.1829 18.1528 15.8538 17.6986 15.547 17.2308L14.5462 16.3965C13.574 15.5868 12.342 15.1406 11.0766 15.1406C9.38002 15.1406 7.75917 15.951 6.73917 17.3105L6.69295 17.3726C5.97417 18.3313 5.57812 19.5202 5.57812 20.7187C5.57812 23.7947 8.08111 26.2968 11.1562 26.2968C12.8775 26.2968 14.5661 25.7048 15.912 24.629L17.0842 23.6911C17.8133 23.1078 18.2381 22.2567 18.3026 21.3339C17.8906 20.3737 17.3376 19.4724 16.6387 18.6739Z" fill="#134A85" fill-opacity="0.45"/>
<path d="M44.3071 17.3726L44.2584 17.3081C43.2408 15.951 41.62 15.1406 39.9234 15.1406C38.658 15.1406 37.426 15.5868 36.4539 16.3965L35.453 17.2308C35.1462 17.6986 34.8171 18.1528 34.4449 18.5783C34.417 18.6102 34.3892 18.6421 34.3613 18.6739C33.6624 19.4732 33.1094 20.3745 32.6974 21.3347C32.7619 22.2567 33.1867 23.1085 33.9158 23.6919L35.088 24.6298C36.4339 25.7048 38.1225 26.2968 39.8438 26.2968C42.9189 26.2968 45.4219 23.7947 45.4219 20.7187C45.4219 19.5202 45.0258 18.3313 44.3071 17.3726Z" fill="#134A85" fill-opacity="0.45"/>
<path d="M41.8622 0.796882C40.7259 0.796882 39.6206 1.02399 38.5759 1.47183L34.829 3.07754L34.7963 3.04965C33.0623 1.56268 30.8375 0.727554 28.5704 0.772179H22.4336C20.1179 0.752257 17.9345 1.56268 16.2021 3.04965L16.1702 3.07754L12.4233 1.47183C11.3794 1.02399 10.2741 0.796882 9.13777 0.796882C4.5382 0.796882 0.796875 4.53901 0.796875 9.13777C0.796875 12.0384 1.8368 14.8474 3.723 17.0476L5.75264 19.4159C5.89369 18.8341 6.12558 18.2795 6.44273 17.7711L4.93345 16.01C3.29348 14.0991 2.39062 11.6583 2.39062 9.13777C2.39062 5.41716 5.41716 2.39063 9.13777 2.39063C10.0566 2.39063 10.9507 2.57391 11.7969 2.93649L14.9781 4.29994C14.629 4.72069 14.3127 5.16376 14.0417 5.63391L11.1682 4.40194C10.5227 4.12463 9.83981 3.98438 9.13777 3.98438C6.29611 3.98438 3.98438 6.29612 3.98438 9.13777C3.98438 11.2774 4.75097 13.3501 6.14311 14.9733L7.4723 16.5248C7.87631 16.1654 8.32973 15.8698 8.81822 15.6451L7.35356 13.9366C6.20845 12.601 5.57812 10.8973 5.57812 9.13777C5.57812 7.17507 7.17506 5.57813 9.13777 5.57813C9.62227 5.57813 10.0948 5.67535 10.5411 5.8658L13.3676 7.07705C12.9707 8.14248 12.7492 9.27723 12.7492 10.4415V10.5674C12.7492 13.7079 13.8879 16.7392 15.9495 19.0947L16.0387 19.1967C17.5145 20.8861 18.3281 23.0504 18.3281 25.2928V50.2031H32.6719V25.2928C32.6719 23.0504 33.4855 20.8861 34.9565 19.2031L35.0442 19.1035C37.1121 16.7408 38.25 13.7094 38.25 10.569V10.4423C38.25 9.27723 38.0293 8.14327 37.6316 7.07785L40.4581 5.8666C40.9052 5.67535 41.3777 5.57813 41.8622 5.57813C43.8249 5.57813 45.4219 7.17507 45.4219 9.13777C45.4219 10.8973 44.7915 12.601 43.6456 13.9358L42.1818 15.6443C42.6703 15.869 43.1237 16.1646 43.5277 16.524L44.8561 14.9733C46.249 13.3493 47.0156 11.2766 47.0156 9.13777C47.0156 6.29612 44.7039 3.98438 41.8622 3.98438C41.1602 3.98438 40.4773 4.12463 39.8318 4.40115L36.9583 5.63312C36.6873 5.16296 36.371 4.7199 36.0219 4.29915L39.2031 2.93649C40.0493 2.57391 40.9434 2.39063 41.8622 2.39063C45.5828 2.39063 48.6094 5.41716 48.6094 9.13777C48.6094 11.6583 47.7065 14.0991 46.0665 16.0108L44.5581 17.7711C44.8752 18.2795 45.1071 18.8341 45.2482 19.4159L47.277 17.0476C49.1632 14.8474 50.2031 12.0384 50.2031 9.13777C50.2031 4.53901 46.4618 0.796882 41.8622 0.796882ZM19.9219 29.3457C20.1673 29.6135 20.4311 29.8661 20.7251 30.0868L21.5156 30.6797V48.6094H19.9219V29.3457ZM21.8647 13.6186L18.5632 11.4176C17.9169 10.9873 17.5312 10.2661 17.5312 9.48919C17.5312 8.2118 18.5712 7.17188 19.8486 7.17188H19.9832C20.341 7.17188 20.6996 7.25635 21.02 7.41652L22.1244 7.96876C24.2099 9.01187 26.7901 9.01187 28.8764 7.96876L29.9808 7.41652C30.2996 7.25635 30.659 7.17188 31.0168 7.17188H31.1514C32.4288 7.17188 33.4688 8.2118 33.4688 9.48919C33.4688 10.2661 33.0831 10.9865 32.4368 11.4176L29.1353 13.6186C27.3583 14.8036 26.2969 16.7862 26.2969 18.9226V29.0859C26.2969 30.0478 26.9822 30.8526 27.8906 31.0375V34.2656H23.1094V31.0375C24.0178 30.8526 24.7031 30.0478 24.7031 29.0859V18.9226C24.7031 16.7862 23.6417 14.8036 21.8647 13.6186ZM27.8906 43.8281H23.1094V40.6406H27.8906V43.8281ZM27.8906 39.0469H23.1094V35.8594H27.8906V39.0469ZM23.1094 45.4219H27.8906V48.6094H23.1094V45.4219ZM31.0781 48.6094H29.4844V30.6805C29.4844 30.6805 29.4852 30.6805 29.4852 30.6797L30.2741 30.0868C30.5689 29.8661 30.8319 29.6135 31.0781 29.3457V48.6094ZM36.657 10.5682C36.657 13.323 35.6586 15.9805 33.8385 18.0604L33.7612 18.1488C32.0312 20.1275 31.0781 22.6639 31.0781 25.2928C31.0781 26.6706 30.4207 27.9855 29.3178 28.8126L28.5297 29.4047C28.2827 29.588 27.8906 29.3911 27.8906 29.0859V18.9226C27.8906 17.3209 28.6867 15.8339 30.0199 14.9446L33.3213 12.7436C34.4115 12.0169 35.0625 10.8001 35.0625 9.48919C35.0625 7.33285 33.3078 5.57813 31.1514 5.57813H31.0168C30.4127 5.57813 29.8071 5.72077 29.2676 5.99091L28.1632 6.54315C26.5184 7.36552 24.4824 7.36552 22.8368 6.54315L21.7324 5.99091C21.1929 5.72077 20.5873 5.57813 19.9832 5.57813H19.8486C17.6922 5.57813 15.9375 7.33285 15.9375 9.48919C15.9375 10.8001 16.5885 12.0169 17.6795 12.7436L20.9809 14.9446C22.3133 15.8339 23.1094 17.3209 23.1094 18.9226V29.0859C23.1094 29.3911 22.7125 29.5856 22.4719 29.4047L21.6814 28.811C20.5793 27.9855 19.9219 26.6698 19.9219 25.2928C19.9219 22.6647 18.9688 20.1275 17.234 18.1441L17.1551 18.0532C15.3414 15.9805 14.343 13.3222 14.343 10.5682V10.4423C14.3438 8.09148 15.3669 5.8658 17.1503 4.3358L17.2404 4.25851C18.6811 3.02255 20.5108 2.36593 22.428 2.36513H28.5775C30.4948 2.38266 32.3181 3.02255 33.7588 4.25851L33.8489 4.3358C35.6323 5.8658 36.6555 8.09148 36.6562 10.4423L36.657 10.5682Z" fill="#134A85"/>
<path d="M42.2344 20.7187C41.9515 20.7187 41.679 20.7737 41.4224 20.8677C41.4255 20.8175 41.4375 20.7697 41.4375 20.7187C41.4375 19.4007 40.3649 18.3281 39.0469 18.3281C37.7288 18.3281 36.6562 19.4007 36.6562 20.7187C36.6562 21.5674 37.1041 22.3101 37.7727 22.734C37.575 23.0823 37.4531 23.4783 37.4531 23.9062C37.4531 25.2243 38.5257 26.2968 39.8438 26.2968C40.5817 26.2968 41.2343 25.9542 41.6726 25.4267C41.8559 25.4713 42.0431 25.5 42.2344 25.5C43.5524 25.5 44.625 24.4274 44.625 23.1093C44.625 21.7913 43.5524 20.7187 42.2344 20.7187ZM39.0469 19.9218C39.4867 19.9218 39.8438 20.2796 39.8438 20.7187C39.8438 21.1578 39.4867 21.5156 39.0469 21.5156C38.607 21.5156 38.25 21.1578 38.25 20.7187C38.25 20.2796 38.607 19.9218 39.0469 19.9218ZM39.8438 24.7031C39.4039 24.7031 39.0469 24.3453 39.0469 23.9062C39.0469 23.4671 39.4039 23.1093 39.8438 23.1093C40.2836 23.1093 40.6406 23.4671 40.6406 23.9062C40.6406 24.3453 40.2836 24.7031 39.8438 24.7031ZM42.2344 23.9062C42.2344 23.3715 42.0519 22.8822 41.7539 22.4838C41.8901 22.377 42.0559 22.3125 42.2344 22.3125C42.6743 22.3125 43.0312 22.6703 43.0312 23.1093C43.0312 23.5484 42.6743 23.9062 42.2344 23.9062Z" fill="#134A85"/>
</g>
<defs>
<clipPath id="clip0_1_413">
<rect width="51" height="51" fill="white"/>
</clipPath>
</defs>
</svg>
