<svg width="64" height="64" viewBox="0 0 64 64" fill="none" xmlns="http://www.w3.org/2000/svg">
<path d="M24.249 37.2245L27.8076 33.7118C28.2012 33.3236 28.2051 32.6903 27.8174 32.2973C27.4278 31.9037 26.7949 31.9013 26.4033 32.288L22.8448 35.8007C21.918 36.7228 23.3142 38.1393 24.249 37.2245Z" fill="#134A85"/>
<path d="M23 42.0631C22.9786 40.7504 21.022 40.7473 21 42.0631V48.0313C21 48.5836 21.4473 49.0313 22 49.0313C22.5527 49.0313 23 48.5836 23 48.0313V42.0631Z" fill="#134A85"/>
<path d="M22 53C21.4473 53 21 53.4477 21 54V59C21 59.5522 21.4473 60 22 60C22.5527 60 23 59.5522 23 59V54C23 53.4477 22.5527 53 22 53Z" fill="#134A85"/>
<path d="M17 60C17.5527 60 18 59.5522 18 59V40.1299C18 37.7392 18.9756 35.4048 20.6767 33.7251L27.3359 27.1504C28.5727 25.9857 28.4854 23.8665 27.2031 22.7651C20.8206 17.1131 24.6431 6.40748 33.1495 6.01027C38.4699 5.65477 43.3394 10.2637 43.2167 15.6075C43.0157 15.829 45.4991 19.4551 45.7285 19.9121C45.7285 19.9121 44.2168 19.9121 44.2168 19.9121C43.6641 19.9121 43.2168 20.3598 43.2168 20.9121V25.5532C43.2168 26.0986 42.7734 26.5424 42.2275 26.5424H38.9121C38.626 26.5424 38.3535 26.665 38.1641 26.8789L35.3359 30.0654C34.3945 31.1269 34.3281 32.7211 35.1797 33.8569L37.6641 37.1694C39.1143 39.103 39.7305 41.5815 39.3545 43.9692L37.0117 58.8442C36.9258 59.3901 37.2988 59.9018 37.8447 59.9877C38.3784 60.0735 38.9046 59.7049 38.9883 59.1557L41.3311 44.2802C41.79 41.3618 41.0361 38.3325 39.2637 35.9692L36.7793 32.6572C36.4961 32.2783 36.5176 31.7465 36.832 31.3925L39.3613 28.5424H42.2275C43.876 28.5424 45.2168 27.2016 45.2168 25.5532V21.912H46.3359C47.5992 21.9531 48.452 20.4193 47.746 19.3671C47.7461 19.3671 45.2129 15.3149 45.2129 15.3149C45.1938 8.98388 39.3825 3.58163 33.0575 4.01226C22.7823 4.49866 18.1527 17.4168 25.8703 24.2563C26.3051 24.6266 26.3474 25.3311 25.9316 25.727C25.9316 25.727 19.2725 32.3022 19.2725 32.3022C17.1924 34.3549 16 37.2079 16 40.1298V58.9999C16 59.5522 16.4473 60 17 60Z" fill="#134A85"/>
</svg>
