<svg width="51" height="51" viewBox="0 0 51 51" fill="none" xmlns="http://www.w3.org/2000/svg">
<g clip-path="url(#clip0_1_518)">
<path d="M21.4388 30.0475C22.4753 28.0385 21.8522 25.5045 19.9369 24.2247L16.4988 21.9271L17.0919 18.8522L18.934 19.7676C19.7145 20.1563 20.6776 19.9091 21.1743 19.1934L23.7067 15.5476C24.0019 15.1235 23.9903 14.5591 23.6792 14.1451C23.3421 13.6934 23.2718 13.0922 23.4963 12.5752L23.5308 12.4954C24.9491 12.2178 26.0421 11.2771 26.3273 10.5641C27.3665 7.96588 27.0033 5.44905 25.3045 3.47709C22.8798 0.662125 18.0812 -0.663477 13.8944 0.325445C12.3918 0.680253 11.0996 1.29703 10.0526 2.14192C8.18431 1.57226 6.02318 1.8159 4.42485 2.80383C3.25842 3.5249 1.8113 4.97252 1.54126 7.77453C1.22868 11.0283 1.98332 13.5321 2.58975 15.5438C3.00532 16.9225 3.33353 18.0113 3.14078 18.8014C3.02972 19.2569 3.20175 19.7303 3.57907 20.0075C3.78257 20.157 4.02253 20.2326 4.26378 20.2326C4.47067 20.2326 4.67845 20.1769 4.86472 20.0647C6.38277 19.1468 7.68546 17.6132 8.47447 15.873C9.15869 16.6803 9.9206 17.1319 10.556 17.3249L10.1617 19.3729C9.66231 19.5734 9.2064 19.9025 8.84442 20.3526L8.58543 20.6743C7.93498 21.4827 7.57679 22.4993 7.57679 23.537V30.5379L5.15817 35.4158C4.66311 36.4134 4.60444 37.5377 4.99292 38.5816C5.37602 39.6111 6.17668 40.4455 7.18981 40.871L7.57669 41.0334V50.253C7.57669 50.6655 7.91118 50.9999 8.32366 50.9999C8.73624 50.9999 9.07063 50.6655 9.07063 50.253V41.6601C12.3367 43.0083 12.2024 43.0233 12.4696 43.0233C12.7615 43.0233 13.0388 42.8512 13.1587 42.5651C13.3183 42.1847 13.1393 41.7469 12.7589 41.5872L7.76794 39.4934C7.12466 39.2232 6.63638 38.7143 6.39303 38.0606C6.14998 37.4073 6.18664 36.704 6.49642 36.0797L8.99463 31.041L12.3918 32.7255L10.5905 36.3579C10.4106 36.7208 10.3886 37.1465 10.53 37.5259C10.6713 37.9046 10.9661 38.2114 11.3385 38.3675L16.9037 40.7021C17.1891 40.8223 17.508 40.8354 17.7997 40.7401L20.776 39.7767C20.9364 39.7245 21.0564 39.9295 20.9348 40.0448L20.312 40.633C20.0695 40.8635 19.9608 41.1976 20.0215 41.5267C20.082 41.8554 20.3023 42.1285 20.6089 42.2567L21.0504 42.4425C21.502 42.6318 21.7937 43.0703 21.7937 43.5594C21.7937 43.718 21.7617 43.8753 21.699 44.0252C21.4401 44.6407 20.7298 44.9313 20.1145 44.6729L15.9736 42.9358C15.5932 42.7766 15.1554 42.9553 14.9957 43.3357C14.8361 43.7161 15.0151 44.1539 15.3955 44.3135L19.5361 46.0504C19.8767 46.1936 20.2304 46.2613 20.5787 46.2613C21.6353 46.2613 22.6415 45.6377 23.0768 44.6026C23.2168 44.2676 23.2877 43.9166 23.2877 43.5593C23.2877 42.5658 22.7491 41.6661 21.8942 41.1935L21.9612 41.1301C22.5277 40.594 22.6411 39.7234 22.2316 39.0611C21.9282 38.5686 21.4023 38.2745 20.8245 38.2745C20.3748 38.2745 20.3338 38.3744 17.4118 39.295L11.9398 36.9994C15.171 30.4833 12.0531 36.7715 16.1271 28.5552C16.9574 26.8806 16.2705 24.8427 14.5959 24.0123C13.7845 23.61 12.8652 23.5477 12.0072 23.837C11.1491 24.1262 10.4551 24.7323 10.0529 25.5435L9.07043 27.5248V23.5368C9.07043 22.8386 9.31139 22.1545 9.74897 21.6109L10.0081 21.2889C10.575 20.5839 11.5756 20.4346 12.3237 20.9339L19.1065 25.4669C20.4702 26.3781 20.8545 28.2398 19.9642 29.6155C19.6848 30.0448 19.7743 30.613 20.1724 30.9369C24.5214 34.4775 26.3238 39.1202 26.1579 41.9356C26.0412 43.9163 25.0718 45.4985 23.276 46.6384C22.7805 46.9536 22.4846 47.4957 22.4846 48.0884V50.2528C22.4846 50.6654 22.8191 50.9998 23.2316 50.9998C23.6441 50.9998 23.9786 50.6654 23.9786 50.2528V48.0884C23.9786 48.0105 24.0165 47.9379 24.0771 47.8995C26.2695 46.5078 27.5047 44.4759 27.6492 42.0234C27.7697 39.9766 27.135 37.6644 25.8135 35.3368C24.7025 33.3796 23.1589 31.5153 21.4388 30.0475ZM11.3916 26.2072C11.6166 25.7536 12.0048 25.4147 12.4846 25.2529C12.9644 25.091 13.4786 25.1259 13.9324 25.3509C14.869 25.8153 15.2532 26.9551 14.7888 27.8917L13.0557 31.3871L9.65852 29.7026L11.3916 26.2072ZM4.68951 18.3766C4.70824 17.3951 4.38371 16.3186 4.02024 15.1126C3.45157 13.2262 2.74404 10.8786 3.02842 7.91757C3.19567 6.18258 3.95011 4.85369 5.21037 4.07464C6.23356 3.44222 7.55916 3.20455 8.81394 3.38953C8.10701 4.28213 7.59223 5.33211 7.2927 6.51846C6.36793 10.1793 6.76826 12.6579 7.48385 14.2746C6.99318 15.8935 5.96351 17.397 4.68951 18.3766ZM9.36567 14.5871C9.21377 14.3716 9.07481 14.1489 8.96455 13.913C8.95767 13.8981 8.9508 13.8834 8.94323 13.8688C7.82701 11.5811 8.3143 8.5745 8.74122 6.88432C9.63053 3.36214 12.5667 2.17419 14.2378 1.77954C17.8536 0.925491 22.1245 2.07459 24.1725 4.45196C25.5084 6.00278 25.8191 7.94307 24.941 10.0066C24.8735 10.1652 24.3112 10.7888 23.333 11.0105C22.2224 11.262 21.01 10.8676 19.8263 9.86902C19.5767 9.65874 19.2195 9.63444 18.9442 9.80945C18.3153 10.2088 17.6429 10.4999 17.1522 10.6847C16.8219 9.81314 16.1469 9.02124 15.0293 8.94275C13.8918 8.86157 12.8681 9.62717 12.5397 10.8017C12.235 11.8918 12.525 13.092 13.2965 13.934C13.3993 14.0461 13.5083 14.1487 13.6225 14.2415C12.8795 15.3499 11.9584 16.016 11.2124 15.9436C10.8574 15.9093 10.0688 15.5852 9.36567 14.5871ZM11.7232 19.1639L12.0746 17.3386C13.1397 17.049 14.1913 16.1635 15.0161 14.8377C15.2398 14.8616 15.4671 14.8557 15.7019 14.8116C16.1074 14.7356 16.3745 14.3453 16.2985 13.9399C16.2225 13.5343 15.8321 13.2668 15.4266 13.3433C14.9304 13.4361 14.542 13.0813 14.3981 12.9245C14.0646 12.5606 13.7794 11.9175 13.9788 11.2039C14.1374 10.6365 14.5683 10.4065 14.9247 10.433C15.4238 10.4681 15.7844 10.9588 15.8891 11.746C15.9192 11.9707 16.0567 12.1856 16.2752 12.3043C16.4486 12.3981 16.6458 12.4166 16.8259 12.3681C16.8816 12.353 18.0612 12.0271 19.2841 11.3448C20.2536 12.0651 21.157 12.4041 21.9478 12.525C21.7682 13.3224 21.9137 14.1688 22.3616 14.8649L19.9469 18.3412C19.87 18.452 19.7209 18.4902 19.5992 18.4297L17.1678 17.2216C16.8879 17.0814 16.5662 17.0806 16.2854 17.2191C16.0041 17.3579 15.8088 17.6143 15.7494 17.9225L15.1509 21.0264L13.1537 19.6917C12.7091 19.3949 12.219 19.2212 11.7232 19.1639Z" fill="#134A85"/>
<path d="M49.3434 22.3752C49.2516 21.9729 48.8513 21.7214 48.449 21.813C48.0467 21.9049 47.7951 22.3053 47.8869 22.7075C48.1288 23.7677 48.0789 24.8783 47.7427 25.9194C46.7538 28.9825 44.0839 31.0996 39.2368 34.9431C38.3828 35.6202 37.4998 36.3205 36.5326 37.0991C36.3625 37.2362 36.1157 37.2359 35.9457 37.099C34.9888 36.3279 34.1193 35.6363 33.2783 34.9674C28.2417 30.9611 25.7137 28.9502 24.7352 25.92C24.2365 24.3755 24.3691 22.7294 25.1085 21.2846C25.8479 19.8399 27.1057 18.7697 28.6501 18.271C31.1728 17.4567 33.9055 18.3539 35.451 20.5039C35.6333 20.7575 35.9279 20.909 36.2388 20.909C36.5497 20.909 36.8443 20.7576 37.0267 20.5039C38.5724 18.354 41.3051 17.4567 43.8272 18.2707C44.8447 18.5993 45.7585 19.19 46.4698 19.979C46.7459 20.2856 47.2184 20.3099 47.5248 20.0337C47.8312 19.7575 47.8557 19.2852 47.5794 18.9788C46.6922 17.9947 45.5534 17.2582 44.2861 16.849C41.364 15.9058 38.2144 16.8073 36.2388 19.0927C34.2633 16.8068 31.1134 15.9052 28.191 16.8493C26.2668 17.4706 24.6998 18.8039 23.7785 20.6039C22.8572 22.4038 22.6921 24.4549 23.3133 26.3791C24.4304 29.8386 27.0766 31.9434 32.3482 36.1367C33.1873 36.8042 34.055 37.4943 35.0082 38.2623C35.3648 38.5497 35.8019 38.6933 36.239 38.6933C36.6759 38.6933 37.1129 38.5499 37.4693 38.2628C38.4322 37.4877 39.3131 36.7892 40.1648 36.1139C45.2405 32.0891 48.0364 29.8721 49.1643 26.3786C49.5833 25.0815 49.6452 23.6973 49.3434 22.3752Z" fill="#134A85"/>
<path d="M35.1161 32.3382H37.3617C37.9284 32.3382 38.3895 31.8771 38.3895 31.3105V29.739H39.9609C40.5276 29.739 40.9886 29.278 40.9886 28.7113V26.4656C40.9886 25.8989 40.5275 25.4379 39.9609 25.4379H38.3895V23.8665C38.3895 23.2998 37.9284 22.8388 37.3617 22.8388H35.1161C34.5494 22.8388 34.0885 23.2999 34.0885 23.8665V25.4379H32.517C31.9503 25.4379 31.4893 25.899 31.4893 26.4656V28.7113C31.4893 29.278 31.9503 29.739 32.517 29.739H34.0885V31.3105C34.0885 31.8772 34.5494 32.3382 35.1161 32.3382ZM32.9834 28.245V26.932H34.5548C35.1215 26.932 35.5826 26.4709 35.5826 25.9043V24.3328H36.8956V25.9043C36.8956 26.471 37.3567 26.932 37.9234 26.932H39.4949V28.245H37.9232C37.3565 28.245 36.8954 28.7061 36.8954 29.2728V30.8442H35.5824V29.2728C35.5824 28.7061 35.1213 28.245 34.5546 28.245H32.9834Z" fill="#134A85"/>
</g>
<defs>
<clipPath id="clip0_1_518">
<rect width="51" height="51" fill="white"/>
</clipPath>
</defs>
</svg>
