<svg width="51" height="51" viewBox="0 0 51 51" fill="none" xmlns="http://www.w3.org/2000/svg">
<g clip-path="url(#clip0_27_28)">
<path d="M49.5973 26.0471V22.5216C49.5973 19.9834 47.5323 17.9183 44.9939 17.9183H36.3478C35.9351 17.9183 35.6007 18.2527 35.6007 18.6654C35.6007 19.0781 35.9351 19.4125 36.3478 19.4125H44.9939C46.7084 19.4125 48.1032 20.8073 48.1032 22.5216V25.9906H31.9949C31.6398 23.9601 29.8652 22.4115 27.7346 22.4115H26.5069V19.4125H32.6092C33.0219 19.4125 33.3563 19.0781 33.3563 18.6654C33.3563 18.2527 33.0219 17.9183 32.6092 17.9183H25.7599C25.1428 17.9183 24.5501 17.7302 24.0461 17.3743L20.0117 14.5256C18.6278 13.5486 16.8994 13.4129 15.4365 14.011C15.5879 11.3478 13.3704 8.97727 10.6595 8.9946C8.64293 8.9946 6.83911 10.2899 6.16198 12.1486C5.32457 12.2174 4.51614 12.5758 3.89797 13.1951C3.66011 13.1394 3.41138 13.1309 3.16356 13.1738C2.67727 13.2576 2.25264 13.5257 1.96796 13.9288L0.441056 16.0912C0.156374 16.4943 0.0458089 16.9842 0.12958 17.4706C0.213351 17.9569 0.481497 18.3815 0.884712 18.6662L1.13762 18.8448L0.336467 19.9794C0.0537775 20.38 -0.0560907 20.8665 0.0270824 21.3496C0.110256 21.8328 0.376709 22.2544 0.777135 22.5372L8.28294 27.8368C8.61992 28.0748 9.08609 27.9944 9.32415 27.6574C9.56211 27.3203 9.48183 26.8542 9.14475 26.6162L1.63895 21.3166C1.53854 21.2458 1.50856 21.1479 1.4996 21.096C1.49063 21.044 1.48625 20.9417 1.55707 20.8413L2.35822 19.7066L20.047 32.1961C20.173 32.2852 20.3235 32.3329 20.4779 32.3329H49.506V34.0629H19.6914L12.3805 28.901C12.0436 28.6631 11.5774 28.7432 11.3393 29.0804C11.1014 29.4174 11.1817 29.8835 11.5187 30.1216L17.1009 34.0629H2.3143C1.25386 34.0629 0.391052 34.9256 0.391052 35.9861V36.8581C0.391052 37.9185 1.25386 38.7814 2.3143 38.7814H4.22698C4.1209 39.0494 4.06203 39.3411 4.06203 39.6464C4.06203 40.9472 5.12037 42.0056 6.42116 42.0056C7.72195 42.0056 8.78029 40.9472 8.78029 39.6464C8.78029 39.3411 8.72132 39.0494 8.61533 38.7814H30.3902C30.8029 38.7814 31.1372 38.447 31.1372 38.0343C31.1372 37.6216 30.8029 37.2872 30.3902 37.2872H2.3143C2.07772 37.2872 1.88518 37.0947 1.88518 36.8581V35.9861C1.88518 35.7496 2.07772 35.557 2.3143 35.557H49.506V36.8581C49.506 37.0947 49.3134 37.2872 49.0768 37.2872H34.3844C33.9717 37.2872 33.6373 37.6216 33.6373 38.0343C33.6373 38.447 33.9717 38.7814 34.3844 38.7814H42.7757C42.6697 39.0494 42.6108 39.3411 42.6108 39.6464C42.6108 40.9472 43.669 42.0056 44.9699 42.0056C46.2708 42.0056 47.3291 40.9472 47.3291 39.6464C47.3291 39.3411 47.2701 39.0494 47.1642 38.7814H49.0768C50.1373 38.7814 51.0001 37.9186 51.0001 36.8581V27.8383C51 26.9731 50.4014 26.247 49.5973 26.0471ZM7.28616 39.6462C7.28616 40.1232 6.89808 40.5113 6.42116 40.5113C5.94423 40.5113 5.55616 40.1232 5.55616 39.6462C5.55616 39.1692 5.94423 38.7812 6.42116 38.7812C6.89808 38.7812 7.28616 39.1692 7.28616 39.6462ZM45.835 39.6462C45.835 40.1232 45.4469 40.5113 44.9699 40.5113C44.493 40.5113 44.1049 40.1232 44.1049 39.6462C44.1049 39.1692 44.493 38.7812 44.9699 38.7812C45.4469 38.7812 45.835 39.1692 45.835 39.6462ZM30.4666 25.9906H22.2539L19.3525 23.942L20.5549 22.2388L21.6949 23.0437C22.4936 23.6076 23.4325 23.9056 24.4102 23.9056H27.7345C29.0377 23.9057 30.1381 24.7903 30.4666 25.9906ZM19.1497 15.7463L23.1842 18.595C23.7355 18.9842 24.3575 19.2392 25.0127 19.3496V22.4116H24.4103C23.7429 22.4116 23.102 22.2081 22.5569 21.8232L18.1279 18.696C17.791 18.4581 17.3248 18.5383 17.0866 18.8754C16.8487 19.2125 16.929 19.6785 17.266 19.9166L19.3345 21.377L18.1321 23.0803L12.6688 19.2228C12.6688 19.2228 14.5816 16.5275 14.6549 16.4165C15.7249 15.0364 17.709 14.7289 19.1497 15.7463ZM7.67842 14.0172L10.5081 16.0151C11.2489 16.5382 11.5526 17.4528 11.3373 18.2827L9.96384 17.3129L5.26311 13.9939C5.50994 13.8262 5.79193 13.7117 6.09474 13.6595C6.65315 13.5635 7.21554 13.6904 7.67842 14.0172ZM10.6594 10.4887C12.4731 10.4887 13.9485 11.9641 13.9485 13.7778C13.9185 14.7669 13.5439 15.7122 12.639 16.405C12.3889 15.7773 11.9617 15.2125 11.3698 14.7945L8.54023 12.7966C8.27308 12.6079 7.9887 12.4615 7.69515 12.3544C8.23443 11.241 9.38491 10.4887 10.6594 10.4887ZM20.715 30.8387L1.74653 17.4456C1.64244 17.3722 1.61136 17.2708 1.60199 17.2169C1.59273 17.163 1.58815 17.0571 1.66166 16.9531L3.18836 14.7907C3.26187 14.6866 3.36317 14.6556 3.41706 14.6463C3.47095 14.6371 3.57693 14.6324 3.68092 14.706L21.5859 27.3481C21.7119 27.4371 21.8624 27.4848 22.0168 27.4848H49.1522C49.3472 27.4848 49.5058 27.6434 49.5058 27.8383V30.8388H20.715V30.8387Z" fill="#134A85"/>
</g>
<defs>
<clipPath id="clip0_27_28">
<rect width="51" height="51" fill="white"/>
</clipPath>
</defs>
</svg>
