<svg width="51" height="51" viewBox="0 0 51 51" fill="none" xmlns="http://www.w3.org/2000/svg">
<g clip-path="url(#clip0_27_276)">
<mask id="path-1-outside-1_27_276" maskUnits="userSpaceOnUse" x="24.3158" y="-0.98999" width="24" height="53" fill="black">
<rect fill="white" x="24.3158" y="-0.98999" width="24" height="53"/>
<path d="M47.922 14.2242V5.33908C47.9618 2.96838 44.9237 1.74318 43.32 3.47639C42.8917 1.47424 40.1525 0.727167 38.7778 2.26115C38.2798 0.11955 35.2417 -0.478107 33.9866 1.37463C32.6718 -1.00604 28.9564 -0.079669 28.9663 2.66955V8.91506L26.4263 11.4551C25.3405 12.5309 25.0218 14.1246 25.5995 15.5291C26.765 18.6768 28.528 21.6551 30.9685 23.976L30.0521 50.5617C30.0421 50.7908 30.2413 51 30.4704 50.9901H44.7046C44.9337 50.9901 45.1329 50.7908 45.123 50.5617C44.9536 45.7307 44.3659 28.4584 44.2066 23.9362C46.5773 21.3065 47.922 17.7703 47.922 14.2242ZM35.7497 29.5043C36.0386 30.2613 35.9987 30.4606 35.1521 30.6399C34.654 30.7594 34.0265 30.9088 33.5782 31.5363C32.5323 33.1401 34.3253 34.4151 31.4466 34.694L31.8151 23.8365C31.8151 23.727 31.7753 23.6074 31.6956 23.5278C30.5501 22.4022 29.4743 21.157 28.6177 19.7924C30.3708 19.4836 31.855 19.3641 31.9646 20.9279C31.9845 21.7049 32.1737 22.2328 32.5224 22.5615C33.4089 23.4779 35.1919 22.2129 35.5107 23.717C35.8394 24.9223 35.9191 25.8586 35.7597 26.5957C35.7099 26.8248 35.68 26.8945 35.6401 26.9742C35.2517 27.7711 35.5206 29.0262 35.7497 29.5043ZM31.4068 35.5108C33.1898 35.441 34.2157 34.5844 34.0364 33.1002C34.0165 32.6819 33.9966 32.3531 34.2456 32.0145C34.8732 31.1778 36.1581 31.6858 36.6362 30.61C37.0446 29.4545 35.9987 28.8469 36.3175 27.5719C36.8056 26.2869 36.7657 25.2211 36.3075 23.4979C35.9091 22.0237 34.7835 22.0735 34.0464 22.0934C33.0802 22.183 32.8212 21.934 32.7913 20.8981C32.7216 18.4975 30.0222 18.5473 28.1495 19.0354C27.4523 17.8899 26.8646 16.4654 26.3566 15.2104C25.9083 14.1246 26.1573 12.8795 26.9941 12.0428L28.9364 10.1004V14.0449C28.9364 14.274 29.1257 14.4633 29.3548 14.4633C29.5839 14.4633 29.7732 14.274 29.7732 14.0449V9.10432C29.7632 9.09435 29.7831 2.68947 29.7732 2.66955C29.7532 1.67346 30.6198 0.806854 31.6259 0.826776C32.7614 0.816815 33.5782 1.83283 33.4687 2.9385V10.1801C33.4687 10.4092 33.6579 10.5985 33.887 10.5985C34.1161 10.5985 34.3054 10.4092 34.3054 10.1801V2.92853C34.3054 2.43049 34.4946 1.97228 34.8433 1.62365C35.939 0.468183 38.0507 1.32482 38.0109 2.92853V10.1701C38.0109 10.708 38.8376 10.718 38.8476 10.1701V4.09396C38.9372 1.67346 42.4833 1.68342 42.553 4.11389V5.32912V10.1701C42.553 10.3992 42.7423 10.5885 42.9714 10.5885C43.2005 10.5885 43.3898 10.3992 43.3898 10.1701V5.33908C43.4595 2.91857 47.0255 2.89865 47.0853 5.33908C47.0952 5.59807 47.1052 15.1506 47.0554 15.041C44.8142 15.2004 43.5392 16.077 43.4894 17.5512C43.4296 19.1649 43.2901 19.2744 43.0112 19.4836C42.812 19.633 42.5431 19.8322 42.2343 20.2904C41.9853 20.649 41.5769 20.7387 41.1087 20.8383C40.3915 20.9877 39.3058 21.2168 39.5946 22.9799C39.8337 24.4143 40.1923 24.8924 40.4812 25.2709C40.6605 25.51 40.77 25.6494 40.8298 26.018C41.0191 27.1535 41.4972 29.7135 41.4972 29.7434C41.5271 29.8729 41.6068 29.9824 41.7263 30.0422L43.6089 30.9188L43.848 37.8117C42.5431 37.9612 41.796 38.6883 41.7661 39.9035C41.7462 40.4215 41.6466 40.7901 41.4773 40.9494C41.288 41.1287 40.9294 41.1188 40.511 41.0988C39.7739 41.069 38.6583 41.0192 38.2599 42.5033C37.8116 44.2166 37.7419 45.2924 38.2499 46.5774C38.6085 47.942 37.0446 49.1572 38.3894 50.1533H30.9087L31.4068 35.5108ZM46.9259 16.2164C46.647 18.1887 45.8999 20.0912 44.8241 21.7647C44.4157 22.3723 43.9775 22.96 43.4794 23.4979C43.4097 23.5776 43.3698 23.6871 43.3698 23.7967L43.579 29.9924L42.2741 29.3848C42.1546 28.7473 41.796 26.8248 41.6466 25.8885C41.547 25.3108 41.3378 25.0418 41.1386 24.7729C40.8896 24.4442 40.6107 24.0856 40.4015 22.8404C40.2421 21.8643 40.521 21.8045 41.2581 21.6451C41.796 21.5356 42.4634 21.3961 42.9017 20.7586C43.1407 20.41 43.33 20.2705 43.4993 20.141C45.2823 18.8561 42.7124 16.1965 46.9558 15.8678C46.9558 15.9873 46.9458 16.1069 46.9259 16.2164ZM40.6107 50.1533C40.0827 49.6354 38.9571 49.7449 38.6982 49.2867C38.6185 49.0975 38.6882 48.8983 38.8276 48.5197C39.0468 48.0416 39.3357 46.7865 38.9273 45.9797C38.5886 45.0533 38.7181 44.0971 39.0667 42.7324C39.2859 41.9356 39.6843 41.9156 40.4812 41.9455C41.7761 42.1049 42.6128 41.4674 42.6028 39.9434C42.6228 39.4453 42.7722 38.7979 43.8878 38.6485L44.2862 50.1533H40.6107Z"/>
</mask>
<path d="M47.922 14.2242V5.33908C47.9618 2.96838 44.9237 1.74318 43.32 3.47639C42.8917 1.47424 40.1525 0.727167 38.7778 2.26115C38.2798 0.11955 35.2417 -0.478107 33.9866 1.37463C32.6718 -1.00604 28.9564 -0.079669 28.9663 2.66955V8.91506L26.4263 11.4551C25.3405 12.5309 25.0218 14.1246 25.5995 15.5291C26.765 18.6768 28.528 21.6551 30.9685 23.976L30.0521 50.5617C30.0421 50.7908 30.2413 51 30.4704 50.9901H44.7046C44.9337 50.9901 45.1329 50.7908 45.123 50.5617C44.9536 45.7307 44.3659 28.4584 44.2066 23.9362C46.5773 21.3065 47.922 17.7703 47.922 14.2242ZM35.7497 29.5043C36.0386 30.2613 35.9987 30.4606 35.1521 30.6399C34.654 30.7594 34.0265 30.9088 33.5782 31.5363C32.5323 33.1401 34.3253 34.4151 31.4466 34.694L31.8151 23.8365C31.8151 23.727 31.7753 23.6074 31.6956 23.5278C30.5501 22.4022 29.4743 21.157 28.6177 19.7924C30.3708 19.4836 31.855 19.3641 31.9646 20.9279C31.9845 21.7049 32.1737 22.2328 32.5224 22.5615C33.4089 23.4779 35.1919 22.2129 35.5107 23.717C35.8394 24.9223 35.9191 25.8586 35.7597 26.5957C35.7099 26.8248 35.68 26.8945 35.6401 26.9742C35.2517 27.7711 35.5206 29.0262 35.7497 29.5043ZM31.4068 35.5108C33.1898 35.441 34.2157 34.5844 34.0364 33.1002C34.0165 32.6819 33.9966 32.3531 34.2456 32.0145C34.8732 31.1778 36.1581 31.6858 36.6362 30.61C37.0446 29.4545 35.9987 28.8469 36.3175 27.5719C36.8056 26.2869 36.7657 25.2211 36.3075 23.4979C35.9091 22.0237 34.7835 22.0735 34.0464 22.0934C33.0802 22.183 32.8212 21.934 32.7913 20.8981C32.7216 18.4975 30.0222 18.5473 28.1495 19.0354C27.4523 17.8899 26.8646 16.4654 26.3566 15.2104C25.9083 14.1246 26.1573 12.8795 26.9941 12.0428L28.9364 10.1004V14.0449C28.9364 14.274 29.1257 14.4633 29.3548 14.4633C29.5839 14.4633 29.7732 14.274 29.7732 14.0449V9.10432C29.7632 9.09435 29.7831 2.68947 29.7732 2.66955C29.7532 1.67346 30.6198 0.806854 31.6259 0.826776C32.7614 0.816815 33.5782 1.83283 33.4687 2.9385V10.1801C33.4687 10.4092 33.6579 10.5985 33.887 10.5985C34.1161 10.5985 34.3054 10.4092 34.3054 10.1801V2.92853C34.3054 2.43049 34.4946 1.97228 34.8433 1.62365C35.939 0.468183 38.0507 1.32482 38.0109 2.92853V10.1701C38.0109 10.708 38.8376 10.718 38.8476 10.1701V4.09396C38.9372 1.67346 42.4833 1.68342 42.553 4.11389V5.32912V10.1701C42.553 10.3992 42.7423 10.5885 42.9714 10.5885C43.2005 10.5885 43.3898 10.3992 43.3898 10.1701V5.33908C43.4595 2.91857 47.0255 2.89865 47.0853 5.33908C47.0952 5.59807 47.1052 15.1506 47.0554 15.041C44.8142 15.2004 43.5392 16.077 43.4894 17.5512C43.4296 19.1649 43.2901 19.2744 43.0112 19.4836C42.812 19.633 42.5431 19.8322 42.2343 20.2904C41.9853 20.649 41.5769 20.7387 41.1087 20.8383C40.3915 20.9877 39.3058 21.2168 39.5946 22.9799C39.8337 24.4143 40.1923 24.8924 40.4812 25.2709C40.6605 25.51 40.77 25.6494 40.8298 26.018C41.0191 27.1535 41.4972 29.7135 41.4972 29.7434C41.5271 29.8729 41.6068 29.9824 41.7263 30.0422L43.6089 30.9188L43.848 37.8117C42.5431 37.9612 41.796 38.6883 41.7661 39.9035C41.7462 40.4215 41.6466 40.7901 41.4773 40.9494C41.288 41.1287 40.9294 41.1188 40.511 41.0988C39.7739 41.069 38.6583 41.0192 38.2599 42.5033C37.8116 44.2166 37.7419 45.2924 38.2499 46.5774C38.6085 47.942 37.0446 49.1572 38.3894 50.1533H30.9087L31.4068 35.5108ZM46.9259 16.2164C46.647 18.1887 45.8999 20.0912 44.8241 21.7647C44.4157 22.3723 43.9775 22.96 43.4794 23.4979C43.4097 23.5776 43.3698 23.6871 43.3698 23.7967L43.579 29.9924L42.2741 29.3848C42.1546 28.7473 41.796 26.8248 41.6466 25.8885C41.547 25.3108 41.3378 25.0418 41.1386 24.7729C40.8896 24.4442 40.6107 24.0856 40.4015 22.8404C40.2421 21.8643 40.521 21.8045 41.2581 21.6451C41.796 21.5356 42.4634 21.3961 42.9017 20.7586C43.1407 20.41 43.33 20.2705 43.4993 20.141C45.2823 18.8561 42.7124 16.1965 46.9558 15.8678C46.9558 15.9873 46.9458 16.1069 46.9259 16.2164ZM40.6107 50.1533C40.0827 49.6354 38.9571 49.7449 38.6982 49.2867C38.6185 49.0975 38.6882 48.8983 38.8276 48.5197C39.0468 48.0416 39.3357 46.7865 38.9273 45.9797C38.5886 45.0533 38.7181 44.0971 39.0667 42.7324C39.2859 41.9356 39.6843 41.9156 40.4812 41.9455C41.7761 42.1049 42.6128 41.4674 42.6028 39.9434C42.6228 39.4453 42.7722 38.7979 43.8878 38.6485L44.2862 50.1533H40.6107Z" fill="#134A85"/>
<path d="M47.922 14.2242V5.33908C47.9618 2.96838 44.9237 1.74318 43.32 3.47639C42.8917 1.47424 40.1525 0.727167 38.7778 2.26115C38.2798 0.11955 35.2417 -0.478107 33.9866 1.37463C32.6718 -1.00604 28.9564 -0.079669 28.9663 2.66955V8.91506L26.4263 11.4551C25.3405 12.5309 25.0218 14.1246 25.5995 15.5291C26.765 18.6768 28.528 21.6551 30.9685 23.976L30.0521 50.5617C30.0421 50.7908 30.2413 51 30.4704 50.9901H44.7046C44.9337 50.9901 45.1329 50.7908 45.123 50.5617C44.9536 45.7307 44.3659 28.4584 44.2066 23.9362C46.5773 21.3065 47.922 17.7703 47.922 14.2242ZM35.7497 29.5043C36.0386 30.2613 35.9987 30.4606 35.1521 30.6399C34.654 30.7594 34.0265 30.9088 33.5782 31.5363C32.5323 33.1401 34.3253 34.4151 31.4466 34.694L31.8151 23.8365C31.8151 23.727 31.7753 23.6074 31.6956 23.5278C30.5501 22.4022 29.4743 21.157 28.6177 19.7924C30.3708 19.4836 31.855 19.3641 31.9646 20.9279C31.9845 21.7049 32.1737 22.2328 32.5224 22.5615C33.4089 23.4779 35.1919 22.2129 35.5107 23.717C35.8394 24.9223 35.9191 25.8586 35.7597 26.5957C35.7099 26.8248 35.68 26.8945 35.6401 26.9742C35.2517 27.7711 35.5206 29.0262 35.7497 29.5043ZM31.4068 35.5108C33.1898 35.441 34.2157 34.5844 34.0364 33.1002C34.0165 32.6819 33.9966 32.3531 34.2456 32.0145C34.8732 31.1778 36.1581 31.6858 36.6362 30.61C37.0446 29.4545 35.9987 28.8469 36.3175 27.5719C36.8056 26.2869 36.7657 25.2211 36.3075 23.4979C35.9091 22.0237 34.7835 22.0735 34.0464 22.0934C33.0802 22.183 32.8212 21.934 32.7913 20.8981C32.7216 18.4975 30.0222 18.5473 28.1495 19.0354C27.4523 17.8899 26.8646 16.4654 26.3566 15.2104C25.9083 14.1246 26.1573 12.8795 26.9941 12.0428L28.9364 10.1004V14.0449C28.9364 14.274 29.1257 14.4633 29.3548 14.4633C29.5839 14.4633 29.7732 14.274 29.7732 14.0449V9.10432C29.7632 9.09435 29.7831 2.68947 29.7732 2.66955C29.7532 1.67346 30.6198 0.806854 31.6259 0.826776C32.7614 0.816815 33.5782 1.83283 33.4687 2.9385V10.1801C33.4687 10.4092 33.6579 10.5985 33.887 10.5985C34.1161 10.5985 34.3054 10.4092 34.3054 10.1801V2.92853C34.3054 2.43049 34.4946 1.97228 34.8433 1.62365C35.939 0.468183 38.0507 1.32482 38.0109 2.92853V10.1701C38.0109 10.708 38.8376 10.718 38.8476 10.1701V4.09396C38.9372 1.67346 42.4833 1.68342 42.553 4.11389V5.32912V10.1701C42.553 10.3992 42.7423 10.5885 42.9714 10.5885C43.2005 10.5885 43.3898 10.3992 43.3898 10.1701V5.33908C43.4595 2.91857 47.0255 2.89865 47.0853 5.33908C47.0952 5.59807 47.1052 15.1506 47.0554 15.041C44.8142 15.2004 43.5392 16.077 43.4894 17.5512C43.4296 19.1649 43.2901 19.2744 43.0112 19.4836C42.812 19.633 42.5431 19.8322 42.2343 20.2904C41.9853 20.649 41.5769 20.7387 41.1087 20.8383C40.3915 20.9877 39.3058 21.2168 39.5946 22.9799C39.8337 24.4143 40.1923 24.8924 40.4812 25.2709C40.6605 25.51 40.77 25.6494 40.8298 26.018C41.0191 27.1535 41.4972 29.7135 41.4972 29.7434C41.5271 29.8729 41.6068 29.9824 41.7263 30.0422L43.6089 30.9188L43.848 37.8117C42.5431 37.9612 41.796 38.6883 41.7661 39.9035C41.7462 40.4215 41.6466 40.7901 41.4773 40.9494C41.288 41.1287 40.9294 41.1188 40.511 41.0988C39.7739 41.069 38.6583 41.0192 38.2599 42.5033C37.8116 44.2166 37.7419 45.2924 38.2499 46.5774C38.6085 47.942 37.0446 49.1572 38.3894 50.1533H30.9087L31.4068 35.5108ZM46.9259 16.2164C46.647 18.1887 45.8999 20.0912 44.8241 21.7647C44.4157 22.3723 43.9775 22.96 43.4794 23.4979C43.4097 23.5776 43.3698 23.6871 43.3698 23.7967L43.579 29.9924L42.2741 29.3848C42.1546 28.7473 41.796 26.8248 41.6466 25.8885C41.547 25.3108 41.3378 25.0418 41.1386 24.7729C40.8896 24.4442 40.6107 24.0856 40.4015 22.8404C40.2421 21.8643 40.521 21.8045 41.2581 21.6451C41.796 21.5356 42.4634 21.3961 42.9017 20.7586C43.1407 20.41 43.33 20.2705 43.4993 20.141C45.2823 18.8561 42.7124 16.1965 46.9558 15.8678C46.9558 15.9873 46.9458 16.1069 46.9259 16.2164ZM40.6107 50.1533C40.0827 49.6354 38.9571 49.7449 38.6982 49.2867C38.6185 49.0975 38.6882 48.8983 38.8276 48.5197C39.0468 48.0416 39.3357 46.7865 38.9273 45.9797C38.5886 45.0533 38.7181 44.0971 39.0667 42.7324C39.2859 41.9356 39.6843 41.9156 40.4812 41.9455C41.7761 42.1049 42.6128 41.4674 42.6028 39.9434C42.6228 39.4453 42.7722 38.7979 43.8878 38.6485L44.2862 50.1533H40.6107Z" stroke="#134A85" stroke-width="0.6" mask="url(#path-1-outside-1_27_276)"/>
<path d="M21.0779 25.2909H21.0781L21.0778 25.2848C20.6615 15.04 6.05372 15.0447 5.62747 25.2846L5.62734 25.2846V25.2909C5.62734 29.5475 9.09131 33.0112 13.3576 33.0112C17.6141 33.0112 21.0779 29.5473 21.0779 25.2909ZM13.3576 18.6973C16.9892 18.6973 19.9495 21.6566 19.9512 25.2878C19.5877 34.0368 7.12748 34.0368 6.76406 25.2878C6.76574 21.6566 9.72606 18.6973 13.3576 18.6973Z" fill="#134A85" stroke="#134A85" stroke-width="0.3"/>
<path d="M2.92787 25.2891C2.92875 19.5398 7.60677 14.8616 13.3367 14.8611C21.2648 14.7611 26.4303 23.7503 22.3444 30.5271L28.4416 42.6125C28.5449 42.801 28.5172 43.0123 28.4205 43.1695C28.3241 43.3263 28.1488 43.4462 27.9379 43.4402C27.9371 43.4402 27.9362 43.4401 27.9354 43.4401L27.9404 43.2902C27.8408 43.2902 27.7511 43.2603 27.6714 43.1906L2.92787 25.2891ZM2.92787 25.2891C2.76801 32.6888 10.9488 37.9586 17.6078 34.7918L27.5726 43.3035C27.5729 43.3036 27.5731 43.3038 27.5733 43.304L2.92787 25.2891ZM21.21 30.7525L21.2099 30.7525L21.2123 30.7572L26.1851 40.6094L18.0868 33.6933L18.0863 33.6929C17.9106 33.5442 17.6684 33.5181 17.4678 33.6117L17.4677 33.6116L17.4649 33.613C16.1713 34.25 14.7905 34.5733 13.3705 34.5738C1.03628 34.0708 1.035 16.5106 13.3607 15.9978C18.486 15.9995 22.6505 20.1651 22.6505 25.2908C22.6505 27.0247 22.1609 28.7199 21.2399 30.2001C21.1275 30.3706 21.133 30.5855 21.21 30.7525Z" fill="#134A85" stroke="#134A85" stroke-width="0.3"/>
<path d="M13.4318 21.2444L13.4318 21.2444L13.433 21.243C13.5104 21.1501 13.61 21.098 13.7088 21.0939C13.804 21.0899 13.9218 21.1294 14.0418 21.2659L14.0418 21.2659L14.0423 21.2666C14.154 21.3922 14.3059 21.4459 14.4511 21.4464C14.697 21.4525 14.8852 21.2936 14.968 21.1036C15.0515 20.9121 15.0387 20.6648 14.8595 20.4844C14.4197 20.0238 13.9691 19.9297 13.6705 19.9412L13.6763 20.0911L13.6712 19.9412C13.0131 19.9635 12.5974 20.46 12.5531 20.5154L12.5531 20.5154L12.5513 20.5178C12.4442 20.6573 12.4104 20.8123 12.436 20.9573C12.461 21.0989 12.5406 21.2215 12.6443 21.3073C12.748 21.3932 12.8831 21.4485 13.0264 21.4454C13.1735 21.4423 13.3179 21.3778 13.4318 21.2444Z" fill="#134A85" stroke="#134A85" stroke-width="0.3"/>
<path d="M7.83774 24.8936L7.84421 24.8995L7.85133 24.9046C7.98319 24.9992 8.10915 25.0454 8.23562 25.036C8.35932 25.0268 8.45584 24.966 8.53001 24.9097C8.55993 24.887 8.5901 24.8618 8.61775 24.8388C8.62425 24.8334 8.6306 24.8281 8.63679 24.823C8.67087 24.7947 8.70262 24.7692 8.7355 24.7466C8.79734 24.7039 8.85932 24.6741 8.93271 24.664C9.00295 24.6673 9.11262 24.7149 9.25566 24.8575C9.4755 25.0891 9.82845 25.084 10.0537 24.8721L10.054 24.8724L10.0623 24.8633C10.1451 24.7715 10.1988 24.6726 10.22 24.5678C10.2413 24.4625 10.2277 24.3614 10.1915 24.2693C10.1213 24.091 9.96629 23.9447 9.80514 23.8346C9.64065 23.7223 9.45092 23.6348 9.28407 23.5808C9.20053 23.5537 9.11949 23.534 9.04758 23.5244C8.98726 23.5163 8.91707 23.5129 8.85476 23.5296C8.43286 23.5801 8.05342 23.766 7.83356 24.01C7.722 24.1338 7.64319 24.2824 7.63562 24.4433C7.62779 24.6097 7.69742 24.7658 7.83774 24.8936Z" fill="#134A85" stroke="#134A85" stroke-width="0.3"/>
<path d="M17.5747 24.7044L17.5698 24.6987L17.5643 24.6936C17.3343 24.477 16.9828 24.4917 16.7678 24.7067C16.623 24.8515 16.5019 24.8998 16.4395 24.9018C16.3874 24.8977 16.3277 24.8729 16.2694 24.8351C16.2102 24.7967 16.167 24.7542 16.1523 24.7367C16.039 24.6006 15.8943 24.5337 15.7464 24.5285C15.6022 24.5236 15.4657 24.5775 15.3609 24.6628C15.2562 24.7481 15.1756 24.8708 15.1511 25.0132C15.1262 25.1577 15.1613 25.3115 15.2688 25.4496C15.3051 25.5012 15.4212 25.6355 15.6008 25.7621C15.7865 25.8931 16.05 26.0227 16.3738 26.0378C16.4358 26.0519 16.5048 26.0495 16.5682 26.0413C16.6423 26.0317 16.7246 26.0121 16.8086 25.9849C16.9764 25.9307 17.1636 25.8429 17.3247 25.73C17.4829 25.6192 17.6328 25.4725 17.7001 25.2944C17.7728 25.1016 17.7401 24.8947 17.5747 24.7044Z" fill="#134A85" stroke="#134A85" stroke-width="0.3"/>
<path d="M11.727 23.1012L11.7269 23.1011L11.7209 23.1024C11.6004 23.1295 11.4995 23.1792 11.4217 23.2522C11.3434 23.3256 11.2958 23.4157 11.2717 23.5115C11.225 23.6973 11.2657 23.906 11.3328 24.0887C11.4013 24.275 11.505 24.4556 11.6101 24.5954C11.6627 24.6654 11.7179 24.728 11.7718 24.777C11.8145 24.8159 11.8674 24.8565 11.9258 24.8787C12.1149 25.0042 12.3481 25.0656 12.5614 25.0876C12.781 25.1102 12.9982 25.0929 13.1513 25.0461C13.3198 24.9971 13.4378 24.8921 13.501 24.7595C13.5627 24.63 13.5676 24.484 13.532 24.3545C13.4964 24.225 13.4176 24.1022 13.2992 24.0218C13.1777 23.9393 13.0229 23.9075 12.853 23.9499C12.8243 23.9571 12.7635 23.9675 12.6958 23.9655C12.6282 23.9634 12.5688 23.9495 12.5268 23.9225C12.4632 23.8748 12.3971 23.771 12.3706 23.5775C12.3296 23.2653 12.032 23.0457 11.727 23.1012Z" fill="#134A85" stroke="#134A85" stroke-width="0.3"/>
<path d="M15.5819 27.784L15.582 27.7835L15.5692 27.7817C15.2718 27.7412 14.9738 27.9538 14.9322 28.2587L14.9319 28.2587L14.9312 28.2686C14.9191 28.4416 14.8479 28.5402 14.7668 28.5924C14.6816 28.6472 14.567 28.6627 14.4522 28.6321C14.2821 28.5864 14.126 28.6165 14.0032 28.6985C13.8835 28.7783 13.8036 28.9016 13.7672 29.0318C13.7308 29.162 13.7352 29.3091 13.7976 29.4398C13.8616 29.5738 13.9814 29.6793 14.1525 29.728C14.3081 29.7739 14.5241 29.7945 14.7442 29.773C14.9572 29.7522 15.1889 29.6906 15.3786 29.5596C15.4363 29.5373 15.4886 29.4971 15.531 29.4586C15.5849 29.4096 15.64 29.347 15.6927 29.277C15.7978 29.1372 15.9015 28.9566 15.9699 28.7702C16.037 28.5875 16.0778 28.3789 16.0311 28.1931C16.007 28.0973 15.9594 28.0071 15.8811 27.9338C15.8032 27.8608 15.7023 27.8111 15.5819 27.784Z" fill="#134A85" stroke="#134A85" stroke-width="0.3"/>
<path d="M11.4302 27.3762L11.4301 27.3759L11.4208 27.3788C11.36 27.3975 11.2518 27.3823 11.0715 27.2589C10.8132 27.0821 10.4611 27.1506 10.2853 27.4075L10.2851 27.4074L10.2806 27.4147C10.1703 27.5976 10.1611 27.7787 10.2347 27.9395C10.3035 28.09 10.4362 28.204 10.573 28.2867C10.7121 28.3709 10.8709 28.4321 11.0146 28.4706C11.1484 28.5064 11.2827 28.5261 11.3842 28.5194C11.7298 28.549 12.0536 28.3567 12.2777 28.1671C12.3946 28.0682 12.4928 27.9631 12.5635 27.8732C12.5988 27.8283 12.6287 27.7853 12.651 27.7471C12.6621 27.7281 12.6724 27.7083 12.6806 27.6888C12.6849 27.6785 12.6901 27.6649 12.6941 27.6492C12.7633 27.4963 12.7627 27.344 12.7085 27.2125C12.6535 27.0792 12.5479 26.9772 12.4269 26.9171C12.3059 26.857 12.1606 26.8344 12.0208 26.8713C11.8782 26.9088 11.7523 27.0055 11.6714 27.1623L11.6687 27.1669C11.6659 27.1716 11.6614 27.1791 11.6552 27.1884C11.6426 27.2072 11.6241 27.2328 11.6005 27.2595C11.5505 27.3159 11.4911 27.3617 11.4302 27.3762Z" fill="#134A85" stroke="#134A85" stroke-width="0.3"/>
</g>
<defs>
<clipPath id="clip0_27_276">
<rect width="51" height="51" fill="white"/>
</clipPath>
</defs>
</svg>
