<svg width="51" height="51" viewBox="0 0 51 51" fill="none" xmlns="http://www.w3.org/2000/svg">
<g clip-path="url(#clip0_1_94)">
<path d="M41.3365 9.49851L38.9768 8.45191C37.25 7.68572 35.274 7.8434 33.6913 8.87276C32.1174 9.89635 31.1777 11.6255 31.1777 13.4982V15.8466L28.5984 14.4804C28.2505 14.2961 28.0345 13.9372 28.0345 13.5435V2.57645C28.0345 1.18142 26.962 0.0506567 25.5928 0.00184814C24.8996 -0.0243491 24.2415 0.228758 23.7424 0.71037C23.2429 1.19238 22.9678 1.84024 22.9678 2.53432V13.5434C22.9678 13.9371 22.7518 14.2961 22.4038 14.4803L19.8223 15.8479V13.4982C19.8223 11.6255 18.8827 9.89635 17.3088 8.87276C15.7259 7.8433 13.75 7.68572 12.0233 8.45191L9.6635 9.49851C9.29395 9.66246 8.92639 9.84196 8.57099 10.0323C8.20741 10.2271 8.07045 10.68 8.26529 11.0436C8.46022 11.4072 8.91275 11.5441 9.27662 11.3493C9.59935 11.1764 9.93344 11.0132 10.2693 10.8642L12.629 9.81756C13.8917 9.25735 15.3368 9.3723 16.4942 10.1251C17.6425 10.8721 18.3281 12.1331 18.3281 13.4982V18.0744C16.6018 18.4857 15.2503 18.9866 14.1716 19.539C13.9349 19.2901 13.6889 19.0567 13.449 18.8298C13.0895 18.4898 12.7498 18.1688 12.4641 17.8186C12.1295 17.4082 11.8419 15.5631 12.638 14.1867C12.8446 13.8295 12.7226 13.3725 12.3655 13.1659C12.0084 12.9595 11.5512 13.0814 11.3447 13.4385C10.6546 14.6316 10.5041 16.1768 10.7311 17.3666C9.19624 18.2017 7.73098 18.0807 7.71803 18.08C7.30904 18.038 6.94148 18.3386 6.90064 18.7493C6.8597 19.1598 7.15942 19.5259 7.57001 19.5667C7.59083 19.5688 7.72411 19.5812 7.94335 19.5812C8.5692 19.5812 9.895 19.4795 11.3002 18.7548C11.3023 18.7574 11.3042 18.7603 11.3063 18.7628C11.6531 19.1881 12.0443 19.5579 12.4225 19.9155C12.5701 20.055 12.7135 20.1908 12.8515 20.3266C11.1728 21.4953 10.3756 22.7977 9.67516 23.9423C8.82778 25.3269 8.15841 26.4207 6.18584 27.0921C5.79527 27.225 5.58639 27.6494 5.71937 28.0401C5.82516 28.3509 6.11552 28.5466 6.4265 28.5466C6.50638 28.5466 6.58757 28.5338 6.66735 28.5066C7.36661 28.2686 7.94146 27.9791 8.42626 27.6538C8.60077 28.2853 8.7709 29.4545 8.09665 30.5262C7.79563 31.0049 7.34061 31.7281 4.84669 32.6361C4.45891 32.7772 4.2591 33.206 4.40024 33.5936C4.51071 33.897 4.79709 34.0854 5.10239 34.0854C5.18726 34.0854 5.27352 34.0708 5.35779 34.0402C7.68377 33.1933 8.5686 32.4241 9.10121 31.7057C10.3088 32.4516 10.88 33.7294 10.6402 35.2087C10.5741 35.616 10.8507 35.9996 11.2581 36.0656C11.2985 36.0721 11.3388 36.0754 11.3785 36.0754C11.7385 36.0754 12.0556 35.8146 12.1151 35.4477C12.4581 33.3324 11.582 31.4425 9.81152 30.3895C10.4321 28.6226 9.79847 26.9683 9.64318 26.6092C9.64109 26.6045 9.6385 26.6001 9.63641 26.5955C10.1668 26.0009 10.5612 25.3568 10.9496 24.7221C11.1768 24.3507 11.4056 23.977 11.6645 23.6065C12.9435 24.3421 13.555 25.6503 13.3083 27.1717C13.2423 27.579 13.5189 27.9626 13.9262 28.0286C13.9666 28.0352 14.007 28.0384 14.0466 28.0384C14.4066 28.0384 14.7238 27.7776 14.7832 27.4108C15.1165 25.3548 14.2983 23.5121 12.6268 22.4433C13.7037 21.3619 15.3383 20.3659 18.3281 19.6123V33.1056C18.3281 35.9424 16.0092 38.2501 13.1588 38.2501H6.66347C3.81305 38.2501 1.49414 35.9424 1.49414 33.1058V24.3206C1.49414 20.1135 3.30643 16.098 6.46644 13.3043C6.77563 13.031 6.80462 12.5589 6.53129 12.2497C6.25806 11.9405 5.78591 11.9116 5.47672 12.1849C1.99617 15.2622 0 19.6855 0 24.3206V33.1058C0 36.7663 2.98928 39.7442 6.66347 39.7442H13.1587C16.833 39.7442 19.8223 36.7663 19.8223 33.1058V21.5829L24.8299 18.9303C25.2504 18.7078 25.7521 18.7077 26.1724 18.9304L31.1777 21.5817V26.8822C26.3298 28.5687 22.8407 33.1835 22.8407 38.5988C22.8407 45.4369 28.404 51.0002 35.2421 51.0002C38.2582 51.0002 41.1672 49.9003 43.4333 47.903C43.7428 47.6302 43.7725 47.1581 43.4998 46.8485C43.2269 46.5389 42.755 46.5094 42.4454 46.782C40.4523 48.5385 37.8942 49.5059 35.2421 49.5059C29.2278 49.5059 24.3349 44.613 24.3349 38.5987C24.3349 32.5844 29.2278 27.6915 35.242 27.6915C41.2563 27.6915 46.1493 32.5844 46.1493 38.5987C46.1493 40.6392 45.5798 42.6302 44.5023 44.3565C44.2838 44.7065 44.3904 45.1673 44.7404 45.3858C45.0905 45.6043 45.5514 45.4976 45.7698 45.1476C46.9474 43.261 47.5899 41.0967 47.6388 38.872C49.7212 37.6906 51 35.5148 51 33.1058V24.3206C51 17.9204 47.2069 12.1024 41.3365 9.49851ZM26.5403 7.23578H24.462V5.02355H26.5403V7.23578ZM24.462 8.72992H26.5403V10.9421H24.462V8.72992ZM24.7799 1.78565C24.9846 1.58823 25.2549 1.48473 25.5397 1.49509C26.0915 1.51472 26.5403 1.99981 26.5403 2.57645V3.52941H24.462V2.53442C24.462 2.24943 24.5749 1.98348 24.7799 1.78565ZM19.8223 17.5388L20.7537 17.0454L21.7439 18.8742L19.8223 19.892V17.5388ZM24.1306 17.61L23.0644 18.1747L22.0741 16.3459L23.1031 15.8008C23.9413 15.3569 24.462 14.4919 24.462 13.5435V12.4363H26.5403V13.5435C26.5403 14.4919 27.061 15.3569 27.8991 15.8008L28.9264 16.345L27.9361 18.1739L26.8718 17.6101C26.0135 17.1553 24.9888 17.1556 24.1306 17.61ZM29.2566 18.8732L30.2468 17.0444L31.1776 17.5375V19.8908L29.2566 18.8732ZM49.5059 33.1058C49.5059 34.7037 48.7791 36.1698 47.5564 37.1333C46.8291 30.9835 41.5843 26.1973 35.2419 26.1973C34.361 26.1973 33.5013 26.2904 32.6718 26.4659V13.4982C32.6718 12.1331 33.3574 10.8721 34.5057 10.1252C35.6631 9.3724 37.1082 9.25765 38.3709 9.81765L40.7306 10.8643C46.0614 13.2288 49.5059 18.5107 49.5059 24.3206V33.1058Z" fill="#134A85"/>
<path d="M30.4526 34.9113C29.8903 34.7061 29.2816 34.7321 28.7389 34.9846C27.6184 35.5058 27.1308 36.8415 27.6522 37.962L29.3328 41.5746C29.5852 42.1173 30.034 42.5293 30.5964 42.7345C30.8471 42.8261 31.1069 42.8716 31.3661 42.8716C31.6882 42.8716 32.0094 42.8012 32.3102 42.6613C32.853 42.4088 33.2651 41.96 33.4703 41.3977C33.6756 40.8353 33.6496 40.2267 33.3969 39.684L31.7164 36.0714C31.4637 35.5286 31.0149 35.1166 30.4526 34.9113ZM32.0666 40.8853C31.9981 41.0727 31.8609 41.2223 31.6799 41.3065C31.4991 41.3908 31.2962 41.3996 31.1086 41.3309C30.9212 41.2625 30.7716 41.1252 30.6874 40.9443L29.0069 37.3318C28.833 36.9583 28.9956 36.5129 29.369 36.3392C29.4693 36.2926 29.5763 36.2692 29.6837 36.2692C29.7701 36.2692 29.8567 36.2843 29.9403 36.3148C30.1278 36.3833 30.2773 36.5205 30.3615 36.7015L32.0422 40.3141C32.1262 40.4951 32.135 40.698 32.0666 40.8853Z" fill="#134A85"/>
<path d="M38.7426 35.8293C39.9783 35.8293 40.9838 34.8239 40.9838 33.5881C40.9838 32.3524 39.9783 31.3469 38.7426 31.3469H34.7582C33.5224 31.3469 32.517 32.3524 32.517 33.5881C32.517 34.8239 33.5224 35.8293 34.7582 35.8293H38.7426ZM34.0111 33.5881C34.0111 33.1762 34.3462 32.8411 34.7582 32.8411H38.7426C39.1545 32.8411 39.4896 33.1762 39.4896 33.5881C39.4896 34.0001 39.1545 34.3352 38.7426 34.3352H34.7582C34.3463 34.3352 34.0111 34.0001 34.0111 33.5881Z" fill="#134A85"/>
<path d="M38.6924 44.7771C40.4133 44.7771 41.8135 43.377 41.8135 41.6561C41.8135 39.9351 40.4133 38.5349 38.6924 38.5349C36.9714 38.5349 35.5713 39.9351 35.5713 41.6561C35.5713 43.377 36.9714 44.7771 38.6924 44.7771ZM38.6924 40.0291C39.5895 40.0291 40.3194 40.7589 40.3194 41.6561C40.3194 42.5532 39.5895 43.283 38.6924 43.283C37.7953 43.283 37.0654 42.5532 37.0654 41.6561C37.0654 40.7589 37.7954 40.0291 38.6924 40.0291Z" fill="#134A85"/>
<path d="M44.1482 18.6677C44.0467 18.1471 43.842 17.6629 43.5552 17.2382L44.0198 16.7735C44.3116 16.4816 44.3116 16.0087 44.0198 15.7169C43.728 15.4253 43.255 15.4253 42.9633 15.7169L42.4985 16.1817C42.0739 15.8949 41.5897 15.6901 41.0691 15.5887V14.9325C41.0691 14.5198 40.7347 14.1854 40.322 14.1854C39.9094 14.1854 39.575 14.5198 39.575 14.9325V15.5887C39.0543 15.6902 38.5701 15.8949 38.1455 16.1818L37.6807 15.717C37.3888 15.4254 36.9159 15.4254 36.6241 15.717C36.3324 16.0089 36.3324 16.4818 36.6241 16.7736L37.0889 17.2384C36.8021 17.663 36.5973 18.1472 36.4959 18.6678H35.8397C35.427 18.6678 35.0927 19.0022 35.0927 19.4149C35.0927 19.8276 35.427 20.162 35.8397 20.162H36.4959C36.5974 20.6826 36.8021 21.1667 37.0889 21.5914L36.6242 22.0562C36.3325 22.348 36.3325 22.821 36.6242 23.1127C36.9125 23.4011 37.393 23.4003 37.6809 23.1127L38.1456 22.648C38.5703 22.9348 39.0544 23.1396 39.5751 23.2411V23.8973C39.5751 24.31 39.9095 24.6444 40.3221 24.6444C40.7348 24.6444 41.0692 24.31 41.0692 23.8973V23.2411C41.5899 23.1396 42.074 22.9349 42.4987 22.648L42.9634 23.1127C43.1093 23.2585 43.3006 23.3315 43.4917 23.3315C43.6829 23.3315 43.8741 23.2585 44.02 23.1127C44.3118 22.8209 44.3118 22.3479 44.02 22.0562L43.5554 21.5915C43.8421 21.1668 44.0469 20.6826 44.1483 20.162H44.8046C45.2172 20.162 45.5516 19.8276 45.5516 19.4149C45.5516 19.0022 45.2172 18.6678 44.8046 18.6678H44.1482V18.6677ZM40.3221 21.8195C38.9961 21.8195 37.9175 20.7408 37.9175 19.4148C37.9175 18.0889 38.9961 17.0101 40.3221 17.0101C41.6481 17.0101 42.7268 18.0888 42.7268 19.4148C42.7267 20.7408 41.648 21.8195 40.3221 21.8195Z" fill="#134A85"/>
</g>
<defs>
<clipPath id="clip0_1_94">
<rect width="51" height="51" fill="white"/>
</clipPath>
</defs>
</svg>
