<svg width="45" height="45" viewBox="0 0 45 45" fill="none" xmlns="http://www.w3.org/2000/svg">
<path d="M9.91367 27.5512C9.78736 27.5512 9.66125 27.5612 9.53653 27.5812C9.40226 27.3551 9.21575 27.1646 8.99264 27.0254C8.76953 26.8863 8.51632 26.8027 8.25423 26.7817C7.99215 26.7606 7.72883 26.8027 7.48636 26.9043C7.24388 27.006 7.02932 27.1643 6.86066 27.366C6.69199 27.5677 6.57414 27.8069 6.51699 28.0636C6.45984 28.3202 6.46504 28.5868 6.53217 28.8411C6.59931 29.0953 6.72641 29.3297 6.90282 29.5247C7.07923 29.7196 7.29981 29.8694 7.54607 29.9616C7.55433 30.428 7.70017 30.8815 7.96529 31.2653C8.23042 31.6491 8.60301 31.9461 9.03629 32.1188C9.46957 32.2916 9.94424 32.3326 10.4007 32.2366C10.8572 32.1405 11.2751 31.9118 11.6021 31.5791C11.929 31.2463 12.1504 30.8245 12.2384 30.3664C12.3264 29.9083 12.2771 29.4344 12.0968 29.0042C11.9164 28.574 11.613 28.2067 11.2246 27.9484C10.8362 27.69 10.3801 27.5521 9.91367 27.5521V27.5512Z" stroke="#134A85" stroke-width="1.2" stroke-linecap="round" stroke-linejoin="round"/>
<path d="M15.8641 39.3474C16.8014 39.3474 17.5612 38.5876 17.5612 37.6503C17.5612 36.713 16.8014 35.9531 15.8641 35.9531C14.9268 35.9531 14.167 36.713 14.167 37.6503C14.167 38.5876 14.9268 39.3474 15.8641 39.3474Z" stroke="#134A85" stroke-width="1.2" stroke-linecap="round" stroke-linejoin="round"/>
<path d="M23.0716 32.9153C22.7449 32.915 22.4218 32.8472 22.1225 32.716C21.8233 32.5848 21.5545 32.3931 21.333 32.1529C21.1115 31.9128 20.942 31.6294 20.8354 31.3205C20.7287 31.0117 20.6872 30.6842 20.7133 30.3585C20.7394 30.0328 20.8326 29.7161 20.9871 29.4282C21.1416 29.1403 21.3539 28.8875 21.6109 28.6857C21.8678 28.4839 22.1638 28.3374 22.4801 28.2556C22.7964 28.1737 23.1262 28.1582 23.4488 28.21C23.6643 27.8472 24.011 27.581 24.4172 27.4665C24.8234 27.352 25.2581 27.398 25.6313 27.5949" stroke="#134A85" stroke-width="1.2" stroke-linecap="round" stroke-linejoin="round"/>
<path d="M33.5686 43.496C39.0535 43.496 43.4999 39.0496 43.4999 33.5646C43.4999 28.0797 39.0535 23.6333 33.5686 23.6333C28.0836 23.6333 23.6372 28.0797 23.6372 33.5646C23.6372 39.0496 28.0836 43.496 33.5686 43.496Z" stroke="#134A85" stroke-width="1.2" stroke-linecap="round" stroke-linejoin="round"/>
<path d="M29.5354 32.1924H29.5564" stroke="#134A85" stroke-width="1.2" stroke-linecap="round" stroke-linejoin="round"/>
<path d="M32.4674 29.4829C32.7278 29.4832 32.9877 29.5042 33.2448 29.5457C33.5215 29.0796 33.906 28.6867 34.366 28.3998C34.8259 28.113 35.348 27.9406 35.8883 27.8971C36.4287 27.8537 36.9716 27.9404 37.4715 28.1501C37.9714 28.3598 38.4137 28.6863 38.7614 29.1022C39.109 29.5181 39.3519 30.0113 39.4697 30.5404C39.5874 31.0696 39.5765 31.6192 39.4379 32.1433C39.2994 32.6674 39.0372 33.1506 38.6733 33.5524C38.3095 33.9543 37.8546 34.263 37.3468 34.4527C37.2996 37.1074 35.1332 39.2449 32.4674 39.2449C29.7719 39.2449 27.587 37.0598 27.587 34.3643C27.587 31.6688 29.7719 29.4829 32.4674 29.4829Z" stroke="#134A85" stroke-width="1.2" stroke-linecap="round" stroke-linejoin="round"/>
<path d="M34.3544 34.4551H34.3753" stroke="#134A85" stroke-width="1.2" stroke-linecap="round" stroke-linejoin="round"/>
<path d="M34.2076 36.5713H34.2286" stroke="#134A85" stroke-width="1.2" stroke-linecap="round" stroke-linejoin="round"/>
<path d="M35.8212 32.9885H35.8421" stroke="#134A85" stroke-width="1.2" stroke-linecap="round" stroke-linejoin="round"/>
<path d="M33.7258 32.5693H33.7468" stroke="#134A85" stroke-width="1.2" stroke-linecap="round" stroke-linejoin="round"/>
<path d="M34.5638 30.6838H34.5848" stroke="#134A85" stroke-width="1.2" stroke-linecap="round" stroke-linejoin="round"/>
<path d="M36.6591 30.8931H36.68" stroke="#134A85" stroke-width="1.2" stroke-linecap="round" stroke-linejoin="round"/>
<path d="M30.3735 34.2874H30.3945" stroke="#134A85" stroke-width="1.2" stroke-linecap="round" stroke-linejoin="round"/>
<path d="M32.2592 35.1257H32.2801" stroke="#134A85" stroke-width="1.2" stroke-linecap="round" stroke-linejoin="round"/>
<path d="M31.8401 32.8206H31.861" stroke="#134A85" stroke-width="1.2" stroke-linecap="round" stroke-linejoin="round"/>
<path d="M31.4839 36.8855H31.5048" stroke="#134A85" stroke-width="1.2" stroke-linecap="round" stroke-linejoin="round"/>
<path d="M4.59181 28.3896C4.12374 26.6347 4.1405 25.5644 3.90039 23.7749" stroke="#134A85" stroke-width="1.2" stroke-linecap="round" stroke-linejoin="round"/>
<path d="M4.59645 28.3924C4.32784 28.6019 3.72546 28.3924 3.43779 28.2155C3.15012 28.0387 2.56576 27.4311 2.22089 26.1191C2.05641 25.4936 1.3344 23.4466 1.5347 22.8356C1.735 22.2247 2.40673 21.6426 2.9429 21.8312L2.53957 19.4678" stroke="#134A85" stroke-width="1.2" stroke-linecap="round" stroke-linejoin="round"/>
<path d="M8.13269 28.4312L8.1373 28.4416" stroke="#134A85" stroke-width="1.2" stroke-linecap="round" stroke-linejoin="round"/>
<path d="M27.3519 25.7286C27.3873 25.134 27.4181 24.5159 27.5177 23.7742" stroke="#134A85" stroke-width="1.2" stroke-linecap="round" stroke-linejoin="round"/>
<path d="M4.5918 28.3894C5.7339 31.5383 7.38934 34.0825 9.99747 36.2046C10.7647 36.829 13.2197 38.688 14.1026 39.1379C15.3143 39.7549 16.3167 39.7549 17.5283 39.1379C18.4112 38.6883 19.1861 38.0591 19.9533 37.4347C20.4845 37.0024 22.485 35.3038 23.4907 34.0258" stroke="#134A85" stroke-width="1.2" stroke-linecap="round" stroke-linejoin="round"/>
<path d="M28.6667 21.8312C29.2155 21.6427 29.9017 22.2253 30.1064 22.8369C30.2151 23.1613 30.0611 23.6511 29.8648 24.3572" stroke="#134A85" stroke-width="1.2" stroke-linecap="round" stroke-linejoin="round"/>
<path d="M7.86985 34.1741C7.86985 34.1741 8.60109 39.274 6.74158 43.4098" stroke="#134A85" stroke-width="1.2" stroke-linecap="round" stroke-linejoin="round"/>
<path d="M24.8788 43.4097C23.1747 40.0341 23.4844 34.0269 23.4844 34.0269" stroke="#134A85" stroke-width="1.2" stroke-linecap="round" stroke-linejoin="round"/>
<path d="M13.077 21.1486C13.077 21.1486 10.5489 20.2598 9.10652 20.7577C8.07483 21.1138 6.92896 21.7724 6.92896 21.7724" stroke="#134A85" stroke-width="1.2" stroke-linecap="round" stroke-linejoin="round"/>
<path d="M18.5651 21.1486C18.5651 21.1486 21.0932 20.2598 22.5355 20.7577C23.5672 21.1138 24.7131 21.7724 24.7131 21.7724" stroke="#134A85" stroke-width="1.2" stroke-linecap="round" stroke-linejoin="round"/>
<path d="M8.26636 24.5215C8.26636 24.5215 10.9227 26.3785 12.7562 24.5215" stroke="#134A85" stroke-width="1.2" stroke-linecap="round" stroke-linejoin="round"/>
<path d="M23.217 24.5215C23.217 24.5215 20.5607 26.3785 18.7272 24.5215" stroke="#134A85" stroke-width="1.2" stroke-linecap="round" stroke-linejoin="round"/>
<path d="M14.4019 29.8574C14.4019 29.8574 15.7428 31.4324 17.3402 29.8574" stroke="#134A85" stroke-width="1.2" stroke-linecap="round" stroke-linejoin="round"/>
<path d="M13.6854 33.6484C13.6854 33.6484 14.9426 34.0675 15.9141 34.0675C16.8697 34.0675 18.1661 33.7086 18.1661 33.6484" stroke="#134A85" stroke-width="1.2" stroke-linecap="round" stroke-linejoin="round"/>
<path d="M28.7076 18.9192L28.5819 21.7477" stroke="#134A85" stroke-width="1.2" stroke-linecap="round" stroke-linejoin="round"/>
<path d="M14.806 11.7218C16.2704 11.3998 20.3667 9.05837 20.0899 7.63236C20.0899 7.63236 21.3177 11.4113 23.4802 12.7904C26.3716 14.6342 27.4268 16.3342 28.6973 18.9503C28.7168 18.2899 28.8075 15.5091 28.8075 15.1196C28.8067 7.61351 22.9401 1.52856 15.3747 1.52856C7.80923 1.52856 1.94177 7.61351 1.94177 15.1196C1.94177 16.7097 2.25186 18.4667 2.53996 19.7564C3.63387 16.365 5.94323 13.6704 14.806 11.7218Z" stroke="#134A85" stroke-width="1.2" stroke-linecap="round" stroke-linejoin="round"/>
<path d="M18.2807 6.30078C18.2807 6.30078 18.1369 7.7689 14.1432 8.05364C10.1495 8.33838 6.1154 10.9017 5.40198 12.555" stroke="#134A85" stroke-width="1.2" stroke-linecap="round" stroke-linejoin="round"/>
<path d="M34.9623 23.7933C34.5006 23.7286 34.0348 23.6962 33.5686 23.6963C28.0837 23.6963 23.6372 28.1428 23.6372 33.6276C23.6342 35.4906 24.1578 37.3165 25.1475 38.8948C26.6824 41.3435 29.2558 43.075 32.2503 43.4722C32.6872 43.5302 33.1276 43.5592 33.5684 43.5592C34.9159 43.5609 36.2495 43.2875 37.4877 42.7557C41.0236 41.2354 43.4997 37.7209 43.4997 33.6278C43.4999 28.6157 39.7874 24.4715 34.9623 23.7933Z" stroke="#134A85" stroke-width="1.2" stroke-linecap="round" stroke-linejoin="round"/>
<path d="M15.3755 17.9651C15.9778 17.9651 16.466 17.4768 16.466 16.8745C16.466 16.2722 15.9778 15.7839 15.3755 15.7839C14.7732 15.7839 14.2849 16.2722 14.2849 16.8745C14.2849 17.4768 14.7732 17.9651 15.3755 17.9651Z" stroke="#134A85" stroke-width="1.2" stroke-linecap="round" stroke-linejoin="round"/>
</svg>
