<svg width="51" height="51" viewBox="0 0 51 51" fill="none" xmlns="http://www.w3.org/2000/svg">
<g clip-path="url(#clip0_27_52)">
<path d="M17.2152 14.5703C16.6547 14.0563 15.9426 13.8191 15.1556 13.8868C12.9344 14.0759 11.5547 15.7903 11.5547 18.3607C11.5547 20.281 13.1187 21.8433 15.041 21.8433C16.9634 21.8433 18.5273 20.281 18.5273 18.3607C18.5273 17.7539 18.4327 15.6871 17.2152 14.5703ZM15.041 19.8533C14.2171 19.8533 13.5469 19.1838 13.5469 18.3607C13.5469 17.2934 13.8554 15.9948 15.3249 15.8696C15.3573 15.8669 15.3884 15.8654 15.4181 15.8654C15.6019 15.8654 15.7399 15.9187 15.8678 16.036C16.2607 16.3964 16.5353 17.3525 16.5353 18.3607C16.5352 19.1838 15.8649 19.8533 15.041 19.8533Z" fill="#134A85"/>
<path d="M25.1016 27.8132C23.4538 27.8132 22.1133 29.1523 22.1133 30.7982C22.1133 32.4442 23.4538 33.7832 25.1016 33.7832C26.7493 33.7832 28.0898 32.4442 28.0898 30.7982C28.0898 29.1523 26.7493 27.8132 25.1016 27.8132ZM25.1016 31.7932C24.5523 31.7932 24.1055 31.3469 24.1055 30.7982C24.1055 30.2496 24.5523 29.8032 25.1016 29.8032C25.6508 29.8032 26.0977 30.2496 26.0977 30.7982C26.0977 31.3469 25.6508 31.7932 25.1016 31.7932Z" fill="#134A85"/>
<path d="M50.0999 21.1624C49.6984 21.1236 49.297 21.1037 48.9045 21.1037H48.8985C46.9471 21.1037 45.5695 21.6003 44.7567 22.0162C44.5439 22.125 44.3571 22.2344 44.1932 22.3395C43.7805 21.9423 43.3045 21.6096 42.7934 21.3664C42.3503 21.1555 41.8812 21.0113 41.4019 20.9336C41.4009 20.4629 41.5164 19.8809 41.7296 19.6113C42.2543 18.9224 43.273 18.9668 44.238 18.8075C45.9096 18.5834 47.5883 17.3067 47.6135 15.6253C47.6135 15.0761 47.1663 14.6303 46.6174 14.6303C46.3543 14.6303 46.1064 14.7309 45.9192 14.9159C45.7318 15.099 45.6272 15.3437 45.6213 15.6055C44.8281 18.0694 39.6008 15.55 39.4097 20.7586C39.4101 20.8726 39.4141 20.9818 39.4207 21.0861C39.1425 21.1994 38.8817 21.3548 38.6463 21.5495C38.3208 21.4676 37.8701 21.321 37.4664 21.082C36.3092 20.4491 35.7117 18.9232 36.4048 17.6987C38.3004 15.316 38.3343 13.6778 36.7553 11.5549C36.565 11.3022 36.2752 11.1579 35.9584 11.1579C35.7412 11.1579 35.534 11.2265 35.3608 11.3579C34.9215 11.6872 34.8327 12.313 35.1635 12.7508C37.7543 15.9977 32.0241 16.4288 34.9105 21.3882C35.4803 22.2112 36.517 22.9061 37.6068 23.3169C37.6408 23.3296 37.6233 23.3236 37.6066 23.3176C37.5751 23.4926 37.5581 23.6714 37.5581 23.8528C37.5581 24.5076 37.7663 25.1284 38.1598 25.6488C38.5393 26.1512 39.0781 26.5284 39.6778 26.7104C39.5971 26.8627 39.4089 27.1473 38.9207 27.3522C38.4814 27.5323 37.6319 27.7472 36.1168 27.7472C35.2152 27.7472 34.1545 27.6725 32.982 27.5253C32.3208 27.4421 31.6845 27.3187 31.0738 27.1574C29.9062 25.2276 27.8283 23.9064 25.4389 23.7924C24.7481 23.0273 24.1522 22.1613 23.6746 21.213C23.306 20.4837 23.0779 19.844 22.9514 19.4361C22.9315 19.3693 22.9106 19.3017 22.8916 19.2351C23.1694 18.9043 23.4021 18.5417 23.5882 18.1579L24.9883 18.3613L27.2685 20.1833C27.4468 20.3256 27.6619 20.4012 27.8901 20.4012C28.1949 20.4012 28.4786 20.2648 28.6689 20.0272C29.0116 19.5993 28.9418 18.9714 28.5135 18.6291L27.0616 17.4689L27.9637 16.8382C28.4139 16.5237 28.5235 15.9019 28.2087 15.4522C28.0224 15.1865 27.7177 15.0283 27.392 15.0283C27.1877 15.0283 26.9906 15.09 26.8221 15.2084L25.1527 16.3746L24.0997 16.2216C24.107 16.1094 24.1119 15.997 24.1118 15.8841C24.1118 15.2583 24.0022 14.6463 23.7861 14.0662C23.5779 13.5051 23.2761 12.9868 22.8886 12.527C22.7837 12.4022 22.6727 12.2831 22.5574 12.1693C22.5874 12.1601 22.6179 12.1509 22.6465 12.1419C23.5659 11.8454 24.2781 11.4484 24.825 10.927C24.8251 10.9269 24.8253 10.9267 24.8254 10.9266L27.7804 11.8941C27.881 11.927 27.9857 11.944 28.0902 11.944C28.5215 11.944 28.9019 11.6683 29.0365 11.2584C29.2078 10.7371 28.9219 10.1739 28.4009 10.0038L25.8312 9.16166C25.8888 8.90148 25.9192 8.63084 25.9187 8.35702C25.9176 7.48444 25.6448 6.5512 25.0829 5.50341C24.9095 5.18008 24.5729 4.97807 24.2044 4.97807C24.0419 4.97807 23.8796 5.0198 23.7353 5.0965C23.5002 5.22181 23.3288 5.43179 23.252 5.68549C23.1743 5.9402 23.2012 6.20884 23.3277 6.44372C23.8248 7.36909 23.9275 7.99494 23.9265 8.35702C23.9265 8.60186 23.8857 8.80775 23.799 9.00279C23.6605 9.31227 23.4045 9.57893 23.0161 9.81659C22.5032 10.134 21.7012 10.3936 20.8178 10.5271C20.4422 10.5861 20.0927 10.6189 19.8089 10.6374C19.6394 10.1644 19.4032 9.71788 19.1044 9.31118C18.7857 8.87748 18.4042 8.49627 17.9698 8.17792C17.5063 7.83915 16.9983 7.58295 16.4616 7.41302C16.5113 7.03709 16.6235 6.58148 16.8483 6.2198C17.0395 5.90633 17.2737 5.67942 17.5834 5.50739C17.9868 5.28546 18.5312 5.17749 19.1557 5.17659C19.1674 5.17659 19.1678 5.17649 19.1646 5.17639C19.4322 5.18008 19.7281 5.08156 19.9191 4.89549C20.1074 4.71341 20.214 4.46966 20.2209 4.20799C20.2349 3.65974 19.704 3.20144 19.1551 3.18749C18.2019 3.18749 17.3133 3.38123 16.6191 3.76632C16.1509 4.02301 15.7465 4.36926 15.4158 4.79509C15.1389 5.15129 14.9187 5.5552 14.7623 5.99408C14.6261 6.3721 14.5324 6.77024 14.4813 7.18402C14.3519 7.19348 14.2233 7.20633 14.0957 7.22516L11.9383 3.12364C11.7661 2.79423 11.4273 2.59033 11.0559 2.59033C10.8955 2.59033 10.7361 2.63018 10.5937 2.70478C10.1076 2.96038 9.91933 3.56342 10.1753 4.04901L10.4758 4.62047L8.74404 4.4848C8.46802 4.46388 8.19509 4.55742 7.99189 4.74448C7.80562 4.91462 7.69306 5.1474 7.67324 5.39812C7.65222 5.66378 7.73599 5.92047 7.90921 6.12248C8.08154 6.32449 8.32259 6.4479 8.58765 6.46882L11.5706 6.70261L12.1994 7.89862C11.8247 8.12025 11.4783 8.3875 11.1655 8.69858C10.6844 9.17919 10.3059 9.7383 10.0419 10.3613C9.76902 11.0059 9.62957 11.6904 9.62957 12.397C9.63704 12.7712 9.09158 12.8927 8.6772 12.8964C8.07058 12.8964 7.48298 13.0149 6.92906 13.2486C6.72814 13.3335 6.5348 13.4319 6.34993 13.5436L5.63882 12.3822C5.63623 12.3884 5.63354 12.3947 5.63872 12.382C6.05797 11.1487 6.18557 10.169 5.3612 8.86074C4.90111 8.21199 4.19079 7.6985 3.24958 7.33433C2.94677 7.21788 2.60103 7.25673 2.33218 7.43683C2.16285 7.55038 2.03435 7.71145 1.96064 7.9025C1.86402 8.15023 1.87 8.41987 1.97757 8.66371C2.08515 8.90656 2.28039 9.09353 2.52841 9.19005C3.10814 9.41597 3.50359 9.68561 3.73667 10.013C4.1646 10.5902 3.92822 11.5283 3.5763 12.0606C3.53347 12.1283 3.2974 12.4864 2.90394 12.781C2.45968 13.1104 2.00347 13.2646 1.46568 13.2666C1.35511 13.2666 1.03626 13.2377 0.994528 13.2377C0.493593 13.2377 0.0691572 13.6129 0.00739943 14.1104C-0.0593389 14.6546 0.329138 15.1521 0.874001 15.2197C1.07322 15.2446 1.27244 15.2566 1.46568 15.2566H1.47465C2.89259 15.2566 3.8842 14.581 4.37218 14.1512L4.89394 14.9603C4.43265 15.6749 4.18402 16.507 4.18402 17.3779C4.18402 18.2585 4.43992 19.1111 4.92412 19.8436C5.39627 20.557 6.05767 21.1181 6.83662 21.4664C7.01681 21.548 7.12748 21.742 7.13146 21.957C7.13226 22.2347 7.15537 22.5268 7.1989 22.7968C6.64487 22.7031 6.01634 22.6344 5.35244 22.6325C4.8515 22.6325 4.37437 22.6734 3.9351 22.753C3.82254 22.6028 3.70092 22.4564 3.57551 22.3182C3.26771 21.9808 2.94797 21.7072 2.59834 21.4813C2.14402 21.1868 1.57734 20.9889 1.0783 20.9052C0.590214 20.9052 0.0941592 21.2486 0.0134756 21.7302C-0.0761728 22.2714 0.291386 22.7848 0.833161 22.8754C1.06027 22.9131 1.29047 23.0068 1.51748 23.152C1.81093 23.3407 2.05557 23.598 2.20717 23.778L0.278536 25.7811C0.0941592 25.9721 -0.00435448 26.2239 0.00062599 26.4895C0.00560646 26.7552 0.114181 27.003 0.306327 27.188C0.492597 27.3672 0.737636 27.4656 0.99662 27.4656C1.27055 27.4656 1.52555 27.3572 1.7148 27.1602L4.01578 24.7699C4.41213 24.6723 4.85828 24.6218 5.34656 24.6218H5.35951C6.19424 24.6218 6.9931 24.7671 7.51605 24.8896C7.77783 24.9501 7.99757 25.0114 8.14977 25.0564C8.30765 25.2702 8.48167 25.4728 8.67252 25.6627C9.15463 26.1413 9.71443 26.5175 10.3381 26.7791C10.9825 27.0517 11.6678 27.189 12.375 27.189C13.0375 27.189 13.6813 27.0664 14.2919 26.8263C14.058 27.3419 13.874 28.0072 13.8771 28.8276C13.8771 29.0018 13.8861 29.1809 13.902 29.36L12.5702 31.0225C12.2277 31.4505 12.2974 32.0783 12.7257 32.4215C12.902 32.5619 13.1221 32.6394 13.3473 32.6394C13.6521 32.6394 13.9359 32.503 14.1261 32.2654L15.7199 30.2754C15.8942 30.0575 15.9699 29.7739 15.9252 29.4972C15.8883 29.2664 15.8693 29.0405 15.8693 28.8276C15.8754 27.8943 16.2111 27.3879 16.463 27.0895C16.5684 26.9672 16.6719 26.8739 16.7581 26.8051C17.031 26.8578 17.3137 26.9234 17.6065 27.0039C18.0203 27.1164 18.4536 27.2905 18.9204 27.5325C18.4163 28.4954 18.1294 29.589 18.1294 30.7487C18.1294 34.5891 21.2574 37.7137 25.1021 37.7137C27.4959 37.7137 29.6115 36.5019 30.8676 34.6608C31.9179 34.9036 33.0035 35.0275 34.0937 35.0275C34.4035 35.0275 34.7282 35.0176 35.045 34.9986C35.5928 34.9649 36.0123 34.4922 35.9794 33.945C35.9455 33.4008 35.4713 32.9789 34.9245 33.0117C34.6495 33.0286 34.3726 33.0375 34.1017 33.0375C33.3007 33.0366 32.5239 32.9625 31.7612 32.8159C31.9649 32.1626 32.0746 31.4683 32.0746 30.7488C32.0746 30.28 32.0273 29.8221 31.9385 29.3792C32.2006 29.4244 32.465 29.4658 32.7341 29.4995C33.9921 29.6567 35.1267 29.7373 36.1078 29.7373C38.101 29.7323 39.4775 29.4319 40.4408 28.7901C40.8781 28.4965 41.2188 28.1175 41.4269 27.6926C41.645 27.2498 41.6899 26.826 41.6899 26.5484C41.6869 26.1494 41.6057 25.7673 41.4563 25.428C41.4553 25.426 41.4553 25.4261 41.4555 25.4266C41.2908 25.0811 40.9343 24.8509 40.5523 24.8509C40.0005 24.8498 39.5512 24.4021 39.5502 23.8528C39.5512 23.3047 40.0005 22.8569 40.5523 22.8559C41.5286 22.8598 42.3602 23.2429 43.0246 23.9961C43.6631 24.7254 44.0287 25.7374 44.0277 26.7731C44.0237 28.0547 43.5017 29.2547 42.5166 30.2447C42.129 30.6327 42.1301 31.2635 42.5186 31.6516C42.7069 31.8385 42.9569 31.9421 43.2218 31.9421C43.4888 31.9421 43.7387 31.8386 43.9271 31.6497C44.6222 30.9572 45.1562 30.1661 45.5138 29.2995C45.8515 28.4836 46.0209 27.6338 46.0199 26.7732C46.0186 25.7746 45.7911 24.8106 45.3667 23.9539C45.4883 23.8803 45.6298 23.8027 45.7918 23.7255C46.6723 23.3067 47.7192 23.0947 48.9045 23.0938C49.2323 23.0938 49.6181 23.1131 49.9569 23.1451C50.203 23.1451 50.4882 23.056 50.6716 22.8908C50.8568 22.7237 50.9714 22.4959 50.9953 22.248C51.0481 21.7016 50.6457 21.214 50.0999 21.1624ZM18.1343 25.0855C17.1183 24.806 16.175 24.6647 15.3303 24.6647H15.3253C14.5056 24.6647 13.9597 24.8228 13.7864 24.8815C13.358 25.0785 12.8461 25.199 12.3749 25.199C11.5073 25.199 10.6905 24.8616 10.0749 24.2497C9.46242 23.6368 9.12465 22.8239 9.12365 21.9602V21.9483C9.12365 21.9364 9.12365 21.9263 9.12365 21.9154C9.11469 20.9363 8.53695 20.0469 7.65232 19.6498C6.75484 19.2469 6.17521 18.3544 6.17621 17.3773C6.1792 16.0062 7.3008 14.8879 8.6773 14.8859C9.4673 14.8839 10.1397 14.6829 10.6735 14.288C10.9673 14.069 11.2074 13.7875 11.3677 13.4741C11.5351 13.1497 11.6227 12.7766 11.6218 12.3966C11.6227 11.5329 11.9603 10.72 12.573 10.1071C13.1886 9.49515 14.0054 9.15778 14.872 9.15678H14.876C16.4528 9.15678 17.7975 10.2802 18.0715 11.8273C18.1112 12.0492 18.2269 12.2532 18.3972 12.4025C18.5675 12.5508 18.7848 12.6383 19.0108 12.6482C20.7549 12.7218 22.1216 14.1427 22.1196 15.8839C22.1196 16.7754 21.7601 17.6082 21.1096 18.228C20.8646 18.4608 20.7549 18.7983 20.8158 19.1296C20.8168 19.1325 20.8168 19.1364 20.8188 19.1425C20.8975 19.5375 21.5335 21.8419 23.1004 24.0777C23.127 24.1154 23.1132 24.0966 23.0997 24.0779C21.946 24.4241 20.9178 25.0613 20.0997 25.9039C19.4757 25.5615 18.8272 25.2792 18.1343 25.0855ZM25.102 35.7237C22.3558 35.7237 20.1215 33.4919 20.1215 30.7487C20.1215 28.0055 22.3557 25.7738 25.102 25.7738C27.8483 25.7738 30.0825 28.0056 30.0825 30.7487C30.0825 33.4919 27.8483 35.7237 25.102 35.7237Z" fill="#134A85"/>
<path d="M21.5228 39.8074C20.9731 39.8317 20.5474 40.2966 20.5717 40.8455L20.6804 43.2947L19.1668 43.3969C18.8971 43.4151 18.6463 43.5421 18.472 43.7487C18.2979 43.9553 18.2153 44.2237 18.2432 44.4924L18.5577 47.5176C18.6109 48.0293 19.0433 48.4099 19.5473 48.4099C19.5817 48.4099 19.6165 48.4081 19.6514 48.4044C20.1986 48.3476 20.596 47.8586 20.5392 47.3119L20.3314 45.3125L21.7858 45.2143C22.3257 45.1778 22.7377 44.7175 22.7137 44.1775L22.562 40.7571C22.5377 40.2085 22.0727 39.7826 21.5228 39.8074Z" fill="#134A85"/>
<path d="M18.3396 37.4482C18.1383 36.9369 17.5603 36.6849 17.0481 36.8863L13.8583 38.139C13.3547 38.3367 13.1013 38.8999 13.2876 39.4074L13.791 40.7791L11.7394 41.4585C11.2173 41.6314 10.9343 42.1944 11.1073 42.716C11.2459 43.1338 11.635 43.3983 12.0526 43.3983C12.1565 43.3983 12.2622 43.3818 12.3661 43.3475L15.3933 42.3451C15.6492 42.2603 15.8597 42.0756 15.9769 41.8331C16.094 41.5905 16.1078 41.311 16.015 41.0581L15.493 39.6353L17.7771 38.7383C18.289 38.5372 18.5409 37.9597 18.3396 37.4482Z" fill="#134A85"/>
<path d="M39.3733 34.1843C39.9234 34.1843 40.3694 33.7384 40.3694 33.1882C40.3694 32.6381 39.9234 32.1921 39.3733 32.1921C38.8232 32.1921 38.3772 32.6381 38.3772 33.1882C38.3772 33.7384 38.8232 34.1843 39.3733 34.1843Z" fill="#134A85"/>
</g>
<defs>
<clipPath id="clip0_27_52">
<rect width="51" height="51" fill="white"/>
</clipPath>
</defs>
</svg>
