<svg width="51" height="51" viewBox="0 0 51 51" fill="none" xmlns="http://www.w3.org/2000/svg">
<g clip-path="url(#clip0_27_357)">
<path d="M17.3847 6.79788C18.128 6.37759 18.5898 5.58599 18.5898 4.73206V0.74679C18.5898 0.334363 18.2554 0 17.843 0C17.4306 0 17.0962 0.334363 17.0962 0.74679V4.73206C17.0962 5.0486 16.925 5.34194 16.6495 5.49777L9.80922 9.36644C6.8602 11.0343 4.58269 13.5593 3.22293 16.6688C3.05764 17.0466 3.23 17.4869 3.60798 17.6521C3.70536 17.6947 3.80692 17.7149 3.90679 17.7149C4.19456 17.7149 4.46878 17.5476 4.59135 17.2671C5.82057 14.4563 7.87912 12.1739 10.5444 10.6665L17.3847 6.79788Z" fill="#134A85"/>
<path d="M3.51855 24.6093C3.33673 23.133 3.3911 21.6414 3.68026 20.176C3.76001 19.7713 3.49675 19.3786 3.09209 19.2988C2.68742 19.2187 2.29471 19.4823 2.21486 19.8869C1.89513 21.508 1.83499 23.1583 2.03622 24.7919L2.39886 27.7368V42.8074C2.39886 43.2198 2.73323 43.5542 3.14565 43.5542C3.55808 43.5542 3.89245 43.2198 3.89245 42.8074V27.691C3.89245 27.6604 3.89055 27.63 3.88687 27.5997L3.51855 24.6093Z" fill="#134A85"/>
<path d="M12.8268 45.0657C12.4162 45.0376 12.0586 45.3474 12.03 45.7589L11.721 50.2013C11.6923 50.6127 12.0026 50.9695 12.4141 50.998C12.4317 50.9992 12.4492 50.9999 12.4666 50.9999C12.8555 50.9999 13.1835 50.6987 13.2108 50.3049L13.5199 45.8625C13.5486 45.4511 13.2382 45.0944 12.8268 45.0657Z" fill="#134A85"/>
<path d="M13.1509 35.2506C12.669 33.223 12.4241 29.0479 12.4241 29.0479C12.4241 29.0476 12.4241 22.1836 12.4241 22.1836C12.4241 21.7711 12.0897 21.4368 11.6773 21.4368C11.2649 21.4368 10.9305 21.7711 10.9305 22.1836V32.9042C10.9305 34.3421 10.6299 35.7355 10.037 37.0457C9.86689 37.4214 10.0337 37.8639 10.4095 38.0339C10.5093 38.0791 10.614 38.1005 10.7169 38.1005C11.0012 38.1005 11.2728 37.9373 11.3977 37.6614C11.5867 37.2439 11.7488 36.8188 11.8858 36.3875L11.9495 36.6556C12.316 38.1975 12.4459 39.7809 12.3359 41.3618L12.2513 42.5763C12.2227 42.9877 12.533 43.3445 12.9445 43.3731C12.9621 43.3743 12.9796 43.375 12.997 43.375C13.3859 43.375 13.7139 43.0738 13.7412 42.68L13.8258 41.4655C13.9463 39.7338 13.8039 37.9994 13.4026 36.3103L13.1509 35.2506Z" fill="#134A85"/>
<path d="M33.6134 6.79788L37.5995 9.05239C37.7157 9.11811 37.842 9.14928 37.9666 9.14928C38.2269 9.14928 38.4799 9.01276 38.6173 8.77001C38.8203 8.41105 38.6939 7.95531 38.3349 7.75228L34.3486 5.49777C34.0731 5.34204 33.902 5.0486 33.902 4.73206V0.74679C33.902 0.334363 33.5678 0 33.1552 0C32.7427 0 32.4084 0.334363 32.4084 0.74679V4.73206C32.4084 5.58609 32.8703 6.37769 33.6134 6.79788Z" fill="#134A85"/>
<path d="M41.1888 9.3663L41.1138 9.32388C40.755 9.12095 40.2992 9.24731 40.0961 9.60637C39.8931 9.96532 40.0196 10.421 40.3786 10.624L40.4536 10.6664C45.4191 13.4747 48.1769 18.9476 47.4796 24.6093L47.1114 27.5995C47.1076 27.6298 47.1057 27.6603 47.1057 27.6908V42.8073C47.1057 43.2197 47.44 43.5541 47.8525 43.5541C48.265 43.5541 48.5993 43.2197 48.5993 42.8073V27.7367L48.9619 24.792C49.7334 18.5282 46.6823 12.4733 41.1888 9.3663Z" fill="#134A85"/>
<path d="M39.1896 48.9452C39.1611 48.5337 38.8032 48.2237 38.3928 48.252C37.9814 48.2807 37.671 48.6375 37.6997 49.0488L37.7871 50.305C37.8144 50.6988 38.1424 51 38.5313 51C38.5488 51 38.5664 50.9994 38.5839 50.9981C38.9953 50.9695 39.3057 50.6127 39.277 50.2014L39.1896 48.9452Z" fill="#134A85"/>
<path d="M38.5741 29.0478C38.5741 31.1337 38.3296 33.2206 37.8472 35.2506L37.5955 36.3101C37.432 36.998 37.3099 37.7073 37.2325 38.4186C37.1879 38.8286 37.484 39.1971 37.8941 39.2418C37.9215 39.2448 37.9489 39.2462 37.9758 39.2462C38.352 39.2462 38.6757 38.9627 38.7173 38.5803C38.788 37.9307 38.8995 37.2831 39.0487 36.6555L39.1123 36.3875C39.2494 36.8189 39.4115 37.2439 39.6005 37.6614C39.7254 37.9373 39.997 38.1005 40.2814 38.1005C40.3842 38.1005 40.4889 38.0791 40.5888 38.0339C40.9645 37.8639 41.1313 37.4215 40.9612 37.0457C40.3684 35.7357 40.0677 34.3423 40.0677 32.9042V22.1836C40.0677 21.7711 39.7334 21.4368 39.3209 21.4368C38.9084 21.4368 38.5741 21.7711 38.5741 22.1836V29.0478Z" fill="#134A85"/>
<path d="M20.6636 13.491C20.2512 13.491 19.9168 13.8253 19.9168 14.2378V18.0478C19.9168 19.3811 19.6215 20.7256 19.0629 21.936L18.4699 23.2205C18.2971 23.595 18.4606 24.0387 18.8351 24.2116C18.9364 24.2584 19.0428 24.2805 19.1475 24.2805C19.4298 24.2805 19.6999 24.1196 19.826 23.8465L20.4189 22.5619C21.0676 21.1565 21.4104 19.5956 21.4104 18.0478V14.2378C21.4104 13.8253 21.076 13.491 20.6636 13.491Z" fill="#134A85"/>
<path d="M31.1721 23.8465C31.2981 24.1196 31.5683 24.2805 31.8505 24.2805C31.9553 24.2805 32.0616 24.2583 32.163 24.2116C32.5375 24.0387 32.701 23.5951 32.5281 23.2205L31.9353 21.936C31.3767 20.7257 31.0813 19.3812 31.0813 18.0478V14.2378C31.0813 13.8253 30.7471 13.491 30.3346 13.491C29.922 13.491 29.5878 13.8253 29.5878 14.2378V18.0478C29.5878 19.5957 29.9306 21.1567 30.5792 22.5619L31.1721 23.8465Z" fill="#134A85"/>
<path d="M24.3515 10.4276C25.5933 10.4276 26.6036 9.41732 26.6036 8.17546C26.6036 6.9336 25.5933 5.92334 24.3515 5.92334C23.1096 5.92334 22.0994 6.9336 22.0994 8.17546C22.0994 9.41732 23.1096 10.4276 24.3515 10.4276ZM24.3515 7.41692C24.7698 7.41692 25.11 7.75716 25.11 8.17546C25.11 8.59376 24.7698 8.934 24.3515 8.934C23.9332 8.934 23.5929 8.59376 23.5929 8.17546C23.5929 7.75716 23.9332 7.41692 24.3515 7.41692Z" fill="#134A85"/>
<path d="M17.3824 19.409C17.3824 18.2172 16.4129 17.2476 15.221 17.2476C14.0292 17.2476 13.0597 18.2171 13.0597 19.409C13.0597 20.6007 14.0292 21.5703 15.221 21.5703C16.4129 21.5703 17.3824 20.6007 17.3824 19.409ZM15.2211 20.0767C14.8529 20.0767 14.5534 19.7772 14.5534 19.409C14.5534 19.0408 14.8529 18.7411 15.2211 18.7411C15.5893 18.7411 15.8889 19.0407 15.8889 19.409C15.8888 19.7772 15.5893 20.0767 15.2211 20.0767Z" fill="#134A85"/>
<path d="M35.1253 27.9553C35.1253 26.8689 34.2415 25.9851 33.1552 25.9851C32.0687 25.9851 31.1849 26.8689 31.1849 27.9553C31.1849 29.0418 32.0687 29.9256 33.1552 29.9256C34.2415 29.9256 35.1253 29.0418 35.1253 27.9553ZM33.1552 28.432C32.8923 28.432 32.6785 28.2182 32.6785 27.9553C32.6785 27.6925 32.8923 27.4787 33.1552 27.4787C33.4179 27.4787 33.6317 27.6925 33.6317 27.9553C33.6317 28.2182 33.4179 28.432 33.1552 28.432Z" fill="#134A85"/>
<path d="M23.8354 33.0167C25.1645 33.0167 26.2458 31.9353 26.2458 30.6062C26.2458 29.2772 25.1645 28.1958 23.8354 28.1958C22.5063 28.1958 21.4249 29.2772 21.4249 30.6062C21.4249 31.9353 22.5063 33.0167 23.8354 33.0167ZM23.8354 29.6894C24.3409 29.6894 24.7522 30.1007 24.7522 30.6062C24.7522 31.1118 24.3409 31.5231 23.8354 31.5231C23.3298 31.5231 22.9185 31.1118 22.9185 30.6062C22.9185 30.1007 23.3298 29.6894 23.8354 29.6894Z" fill="#134A85"/>
<path d="M18.163 38.428C16.9663 38.428 15.9928 39.4015 15.9928 40.5981C15.9928 41.7946 16.9663 42.7682 18.163 42.7682C19.3596 42.7682 20.3331 41.7947 20.3331 40.5981C20.3331 39.4014 19.3596 38.428 18.163 38.428ZM18.163 41.2746C17.7899 41.2746 17.4864 40.9711 17.4864 40.5981C17.4864 40.225 17.7899 39.9216 18.163 39.9216C18.5361 39.9216 18.8396 40.2251 18.8396 40.5981C18.8396 40.971 18.5361 41.2746 18.163 41.2746Z" fill="#134A85"/>
<path d="M29.6688 34.0483C28.4722 34.0483 27.4987 35.0219 27.4987 36.2185C27.4987 37.4152 28.4722 38.3887 29.6688 38.3887C30.8655 38.3887 31.839 37.4152 31.839 36.2185C31.839 35.0219 30.8655 34.0483 29.6688 34.0483ZM29.6688 36.8951C29.2957 36.8951 28.9922 36.5916 28.9922 36.2185C28.9922 35.8454 29.2957 35.5419 29.6688 35.5419C30.0419 35.5419 30.3454 35.8454 30.3454 36.2185C30.3454 36.5916 30.0419 36.8951 29.6688 36.8951Z" fill="#134A85"/>
<path d="M28.5101 44.5022H28.3695C28.3422 44.1366 28.2429 43.791 28.0852 43.4794L28.3293 43.2353C28.6209 42.9437 28.6209 42.4708 28.3293 42.1792C28.0375 41.8876 27.5648 41.8876 27.2731 42.1792L27.0733 42.3791C26.8635 42.25 26.6348 42.149 26.3927 42.0801V41.8225C26.3927 41.41 26.0584 41.0757 25.6459 41.0757C25.2335 41.0757 24.8991 41.41 24.8991 41.8225V42.0801C24.657 42.149 24.4283 42.25 24.2185 42.3791L24.0187 42.1792C23.7271 41.8876 23.2542 41.8876 22.9626 42.1792C22.671 42.4709 22.671 42.9438 22.9626 43.2353L23.2067 43.4794C23.0492 43.791 22.9498 44.1366 22.9224 44.5022H22.7818C22.3694 44.5022 22.035 44.8365 22.035 45.2489C22.035 45.6614 22.3694 45.9957 22.7818 45.9957H22.9224C22.9497 46.3613 23.0491 46.7069 23.2067 47.0185L22.9626 47.2626C22.671 47.5542 22.671 48.0271 22.9626 48.3187C23.1084 48.4644 23.2996 48.5374 23.4907 48.5374C23.6818 48.5374 23.8729 48.4645 24.0187 48.3187L24.2185 48.1188C24.4283 48.2479 24.6571 48.3489 24.8991 48.4178V48.6754C24.8991 49.0878 25.2335 49.4222 25.6459 49.4222C26.0584 49.4222 26.3927 49.0878 26.3927 48.6754V48.4178C26.6348 48.3489 26.8635 48.248 27.0733 48.1188L27.2731 48.3187C27.419 48.4644 27.6102 48.5374 27.8013 48.5374C27.9923 48.5374 28.1835 48.4645 28.3294 48.3187C28.621 48.027 28.621 47.5541 28.3294 47.2626L28.0853 47.0185C28.2429 46.7069 28.3422 46.3613 28.3696 45.9957H28.5102C28.9227 45.9957 29.257 45.6614 29.257 45.2489C29.257 44.8365 28.9225 44.5022 28.5101 44.5022ZM25.6459 47.0289C24.963 47.0289 24.4074 46.4733 24.4074 45.7904V44.7076C24.4074 44.0247 24.963 43.4691 25.6459 43.4691C26.3288 43.4691 26.8844 44.0247 26.8844 44.7076V45.7904C26.8844 46.4733 26.3288 47.0289 25.6459 47.0289Z" fill="#134A85"/>
<path d="M41.6578 43.0072H41.0031C40.9311 42.7256 40.8191 42.46 40.674 42.2162L41.138 41.7522C41.4297 41.4605 41.4297 40.9876 41.138 40.6961C40.8463 40.4045 40.3735 40.4045 40.0818 40.6961L39.6179 41.16C39.3742 41.0149 39.1085 40.9029 38.8269 40.8309V40.1762C38.8269 39.7638 38.4927 39.4294 38.0801 39.4294C37.6676 39.4294 37.3334 39.7638 37.3334 40.1762V40.8309C37.0518 40.9029 36.7862 41.0149 36.5424 41.16L36.0785 40.6961C35.7867 40.4045 35.3139 40.4045 35.0223 40.6961C34.7306 40.9877 34.7306 41.4606 35.0223 41.7522L35.4862 42.2161C35.3411 42.4599 35.2291 42.7255 35.1571 43.0071H34.5025C34.09 43.0071 33.7557 43.3414 33.7557 43.7539C33.7557 44.1663 34.09 44.5006 34.5025 44.5006H35.1571C35.2291 44.7822 35.3411 45.0479 35.4862 45.2916L35.0223 45.7556C34.7306 46.0472 34.7306 46.5201 35.0223 46.8116C35.1682 46.9574 35.3593 47.0304 35.5504 47.0304C35.7415 47.0304 35.9327 46.9575 36.0786 46.8116L36.5425 46.3477C36.7862 46.4928 37.0519 46.6048 37.3335 46.6768V47.3315C37.3335 47.7439 37.6677 48.0783 38.0803 48.0783C38.4928 48.0783 38.827 47.7439 38.827 47.3315V46.6768C39.1086 46.6048 39.3743 46.4928 39.618 46.3477L40.0819 46.8116C40.2278 46.9574 40.419 47.0304 40.6101 47.0304C40.8012 47.0304 40.9923 46.9575 41.1382 46.8116C41.4299 46.52 41.4299 46.0471 41.1382 45.7556L40.6742 45.2915C40.8193 45.0478 40.9313 44.7821 41.0033 44.5005H41.658C42.0705 44.5005 42.4048 44.1662 42.4048 43.7538C42.4048 43.3413 42.0702 43.0072 41.6578 43.0072ZM38.0801 42.2308C38.9199 42.2308 39.6032 42.9141 39.6032 43.754C39.6032 44.5938 38.9199 45.2771 38.0801 45.2771C37.2402 45.2771 36.5569 44.5938 36.5569 43.754C36.5569 42.9141 37.2402 42.2308 38.0801 42.2308Z" fill="#134A85"/>
</g>
<defs>
<clipPath id="clip0_27_357">
<rect width="51" height="51" fill="white"/>
</clipPath>
</defs>
</svg>
