<svg width="51" height="51" viewBox="0 0 51 51" fill="none" xmlns="http://www.w3.org/2000/svg">
<g clip-path="url(#clip0_1_126)">
<path d="M20.356 39.5646C20.356 40.0582 20.1984 40.5789 19.9318 40.954C16.3376 40.2897 12.9249 38.9947 9.78493 37.0989C9.32165 36.8191 8.71941 36.9606 8.42925 37.4177L7.47898 38.914C7.17089 39.3992 6.66657 39.7134 6.09531 39.7765C5.52385 39.8396 4.96335 39.6425 4.55695 39.2361C4.15054 38.8297 3.95361 38.2691 4.01657 37.6978C4.07952 37.1266 4.39389 36.6223 4.87908 36.3142L6.80293 35.0924C7.18224 34.8515 7.35327 34.3865 7.22059 33.9573C6.41446 31.3498 6.00566 28.6091 6.00566 25.8115C6.00566 23.014 6.41446 20.2732 7.22059 17.6656C7.35337 17.2364 7.18224 16.7715 6.80293 16.5305L4.87908 15.3088C4.39389 15.0007 4.07962 14.4964 4.01657 13.9251C3.95361 13.3539 4.15054 12.7932 4.55695 12.3868C4.96335 11.9804 5.52385 11.7834 6.09521 11.8464C6.66647 11.9093 7.17079 12.2238 7.47888 12.7089L8.42915 14.2052C8.71941 14.6622 9.32145 14.8039 9.78493 14.524C14.5148 11.6682 19.9491 10.1586 25.5001 10.1586C31.0512 10.1586 36.4853 11.6681 41.2152 14.524C41.6785 14.8038 42.2807 14.6622 42.5709 14.2052L43.5212 12.7089C43.8293 12.2238 44.3336 11.9094 44.9048 11.8465C45.4753 11.7835 46.0368 11.9804 46.4432 12.3868C46.8496 12.7932 47.0465 13.3539 46.9836 13.925C46.9206 14.4963 46.6063 15.0006 46.1211 15.3088L44.1972 16.5305C43.8179 16.7714 43.647 17.2363 43.7797 17.6656C44.1622 18.9028 44.4586 20.1871 44.661 21.4827C44.7459 22.0262 45.2565 22.3979 45.7987 22.3132C46.3423 22.2283 46.7141 21.7189 46.6293 21.1754C46.452 20.0388 46.2068 18.9101 45.8987 17.81L47.1893 16.9904C48.1875 16.3565 48.8344 15.3188 48.9639 14.1433C49.0935 12.9679 48.6881 11.8142 47.852 10.978C47.0158 10.1419 45.863 9.73706 44.6867 9.86615C43.5113 9.99574 42.4736 10.6426 41.8397 11.6408L41.4035 12.3276C36.7755 9.72112 31.5631 8.29482 26.229 8.17548L27.891 5.33622C28.0714 5.02813 28.0731 4.64723 27.8955 4.33754C27.718 4.02796 27.3883 3.83691 27.0314 3.83691H25.8635L27.4296 1.56094C27.7415 1.10772 27.6268 0.487549 27.1737 0.175673C26.7202 -0.136104 26.1003 -0.0215534 25.7884 0.431668L23.1482 4.26822C22.9385 4.57302 22.915 4.96897 23.0871 5.29638C23.2593 5.6238 23.5988 5.82889 23.9688 5.82889H25.2938L23.9026 8.20557C18.8724 8.4525 13.9733 9.86257 9.59677 12.3274L9.16068 11.6406C8.52677 10.6423 7.48894 9.99544 6.31355 9.86595C5.13797 9.73646 3.98439 10.1417 3.14827 10.9778C2.31205 11.814 1.90684 12.9678 2.03643 14.1432C2.16603 15.3186 2.81289 16.3563 3.81107 16.9902L5.10141 17.8097C4.37924 20.3866 4.01348 23.0744 4.01348 25.8113C4.01348 28.5482 4.37924 31.236 5.10141 33.8129L3.81107 34.6324C2.81289 35.2663 2.16593 36.304 2.03643 37.4794C1.90684 38.6548 2.31215 39.8086 3.14827 40.6448C3.98449 41.481 5.13807 41.8863 6.31365 41.7566C7.48904 41.627 8.52677 40.9803 9.16078 39.982L9.59667 39.2955C11.7833 40.5285 14.0873 41.4949 16.4826 42.1861L15.6061 42.3229C11.7068 42.9314 8.55546 45.938 7.76446 49.8044C7.7045 50.0976 7.7794 50.4021 7.96856 50.6339C8.15772 50.8657 8.44111 51.0002 8.74033 51.0002H42.2598C42.559 51.0002 42.8424 50.8657 43.0315 50.6339C43.2206 50.4021 43.2957 50.0976 43.2357 49.8044C42.4448 45.9381 39.2935 42.9314 35.3941 42.3229L34.5168 42.1859C36.9122 41.4949 39.2165 40.5288 41.4035 39.2955L41.8395 39.982C42.4733 40.9802 43.511 41.627 44.6864 41.7566C45.8618 41.8864 47.0157 41.481 47.8519 40.6448C48.6881 39.8086 49.0933 38.6549 48.9637 37.4795C48.8341 36.3041 48.1873 35.2664 47.1891 34.6324L45.8985 33.8128C46.2077 32.7083 46.4537 31.5747 46.6313 30.4329C46.7159 29.8893 46.3438 29.3801 45.8001 29.2955C45.2574 29.2108 44.7474 29.583 44.6628 30.1266C44.4604 31.4273 44.1632 32.7161 43.7795 33.9572C43.6468 34.3865 43.8178 34.8515 44.197 35.0924L46.1209 36.3142C46.6061 36.6223 46.9204 37.1266 46.9834 37.6978C47.0463 38.2691 46.8493 38.8298 46.4429 39.2361C46.0365 39.6425 45.4759 39.8397 44.9046 39.7765C44.3335 39.7135 43.8291 39.3992 43.521 38.914L42.5707 37.4177C42.2804 36.9607 41.6784 36.8191 41.215 37.0989C38.0745 38.9951 34.6622 40.2898 31.0681 40.954C30.8015 40.579 30.644 40.0583 30.644 39.5647C33.4176 37.8396 35.2682 34.7643 35.2682 31.2644V29.8941C36.3318 28.126 36.8937 26.1051 36.8937 24.0287C36.8937 17.7461 31.7825 12.635 25.4999 12.635C19.2173 12.635 14.1062 17.7461 14.1062 24.0287C14.1062 26.1051 14.6682 28.1261 15.7317 29.8942V31.2644C15.7318 34.7642 17.5823 37.8395 20.356 39.5646ZM16.1632 25.1252C16.121 24.7628 16.0985 24.3968 16.0985 24.0286C16.0985 18.8446 20.316 14.6271 25.5 14.6271C30.684 14.6271 34.9016 18.8446 34.9016 24.0286C34.9016 24.4147 34.8767 24.7982 34.8303 25.1777C34.655 25.0324 34.4336 24.9485 34.2003 24.9475C30.2982 24.9302 26.5509 23.4865 23.6486 20.882C23.4034 20.6619 23.065 20.5772 22.745 20.6562C20.0804 21.313 17.7604 22.8926 16.1632 25.1252ZM17.724 31.2644V26.3674C18.9487 24.617 20.7049 23.3415 22.7322 22.7253C25.7035 25.2322 29.3996 26.6976 33.2761 26.9125V31.2645C33.2761 35.5522 29.7877 39.0405 25.5001 39.0405C21.2125 39.0405 17.724 35.552 17.724 31.2644ZM29.7026 42.4401C28.5244 43.4034 27.0395 43.942 25.5 43.942C23.9605 43.942 22.4756 43.4034 21.2975 42.4401C21.776 41.891 22.1125 41.219 22.2602 40.4795C23.2746 40.8372 24.3648 41.0326 25.5001 41.0326C26.6353 41.0326 27.7255 40.8372 28.74 40.4795C28.8876 41.219 29.224 41.891 29.7026 42.4401ZM35.0868 44.2911C37.7529 44.7071 39.9765 46.542 40.9324 49.0079H10.0675C11.0235 46.542 13.2471 44.7071 15.9132 44.2911L18.7282 43.8518C19.0376 43.8035 19.3342 43.7229 19.6155 43.6149C21.2057 45.0966 23.3104 45.9341 25.5 45.9341C27.6896 45.9341 29.7942 45.0967 31.3845 43.6149C31.6658 43.7228 31.9623 43.8035 32.2717 43.8518L35.0868 44.2911Z" fill="#134A85"/>
<path d="M23.9835 29.6639C24.1599 29.1428 23.8806 28.5774 23.3596 28.4009C22.8386 28.2244 22.273 28.5038 22.0966 29.0249C22.0573 29.141 21.9722 29.1975 21.925 29.2208C21.8778 29.244 21.7813 29.2773 21.6653 29.2381C21.1445 29.0616 20.5788 29.341 20.4024 29.862C20.226 30.3831 20.5053 30.9486 21.0263 31.125C21.2735 31.2086 21.525 31.2484 21.7725 31.2484C22.745 31.2484 23.6547 30.635 23.9835 29.6639Z" fill="#134A85"/>
<path d="M28.1924 31.007C28.5185 31.1681 28.87 31.2495 29.2235 31.2495C29.4752 31.2495 29.7281 31.2082 29.9736 31.1251C30.4946 30.9487 30.774 30.3832 30.5976 29.8621C30.4212 29.3411 29.8555 29.0618 29.3347 29.2382C29.2182 29.2776 29.122 29.2443 29.0749 29.221C29.0277 29.1977 28.9427 29.1412 28.9034 29.025C28.727 28.504 28.1618 28.2247 27.6404 28.401C27.1194 28.5774 26.84 29.1428 27.0164 29.6639C27.2163 30.2539 27.6339 30.7309 28.1924 31.007Z" fill="#134A85"/>
<path d="M26.4152 35.3721C26.6098 35.5666 26.8647 35.6638 27.1196 35.6638C27.3745 35.6638 27.6294 35.5666 27.8239 35.3721C28.2129 34.9831 28.2129 34.3524 27.8239 33.9633C26.5425 32.682 24.4575 32.682 23.1761 33.9633C22.7872 34.3523 22.7872 34.983 23.1761 35.3721C23.5651 35.761 24.1958 35.761 24.5849 35.3721C24.8293 35.1275 25.1544 34.9929 25.5001 34.9929C25.8459 34.9929 26.1708 35.1275 26.4152 35.3721Z" fill="#134A85"/>
<path d="M38.2869 8.97181C38.4701 9.11754 38.6889 9.18836 38.9062 9.18836C39.1994 9.18836 39.4898 9.05957 39.6865 8.81224L42.5731 5.18257C42.7953 4.90317 42.8511 4.52635 42.7193 4.19465C42.5875 3.86295 42.2882 3.62717 41.9348 3.57647L41.0078 3.44369L42.6422 1.67144C43.0151 1.26703 42.9895 0.636898 42.5852 0.263961C42.181 -0.108977 41.5508 -0.0834769 41.1776 0.320937L38.2589 3.48583C38.008 3.75776 37.9288 4.14634 38.0527 4.49497C38.1767 4.8436 38.4837 5.09472 38.8499 5.14711L39.9326 5.3022L38.1274 7.5721C37.7848 8.00271 37.8563 8.62935 38.2869 8.97181Z" fill="#134A85"/>
<path d="M9.992 3.44364L9.06504 3.57642C8.71172 3.62702 8.4125 3.8628 8.28061 4.1946C8.14883 4.5263 8.20451 4.90312 8.42664 5.18252L11.3133 8.81219C11.51 9.05942 11.8004 9.18832 12.0936 9.18832C12.3109 9.18832 12.5296 9.11759 12.7129 8.97176C13.1434 8.62931 13.215 8.00266 12.8725 7.57215L11.0673 5.30216L12.1498 5.14706C12.5161 5.09457 12.8231 4.84345 12.947 4.49492C13.071 4.14629 12.9916 3.75781 12.7408 3.48578L9.82217 0.32089C9.44923 -0.0836241 8.819 -0.109124 8.41469 0.263913C8.01027 0.63685 7.98477 1.26708 8.35771 1.67139L9.992 3.44364Z" fill="#134A85"/>
<path d="M45.9906 26.8074C46.5407 26.8074 46.9867 26.3614 46.9867 25.8113C46.9867 25.2612 46.5407 24.8152 45.9906 24.8152C45.4405 24.8152 44.9945 25.2612 44.9945 25.8113C44.9945 26.3614 45.4405 26.8074 45.9906 26.8074Z" fill="#134A85"/>
</g>
<defs>
<clipPath id="clip0_1_126">
<rect width="51" height="51" fill="white"/>
</clipPath>
</defs>
</svg>
