<svg width="51" height="51" viewBox="0 0 51 51" fill="none" xmlns="http://www.w3.org/2000/svg">
<g clip-path="url(#clip0_1_267)">
<path d="M27.1817 13.0923C30.3008 13.3452 32.8276 14.3405 34.2964 15.8948C35.0611 16.7039 36.1059 17.2628 37.2385 17.4686L50.1193 19.809C50.1644 19.8171 50.2094 19.8211 50.2538 19.8211C50.6079 19.8211 50.9224 19.5682 50.9879 19.2074C51.0617 18.8014 50.7924 18.4126 50.3865 18.3388L37.5057 15.9985C36.684 15.8492 35.93 15.448 35.3824 14.8685C33.6597 13.0456 30.7902 11.8858 27.3026 11.603C26.8921 11.57 26.5309 11.8761 26.4976 12.2872C26.4641 12.6984 26.7705 13.0589 27.1817 13.0923Z" fill="#134A85"/>
<path d="M0.746238 19.821C0.790564 19.821 0.835488 19.817 0.88071 19.8089L13.769 17.4672C14.873 17.2666 15.893 16.7198 16.7187 15.8858C18.1527 14.4373 20.7445 13.4309 23.8294 13.1246C24.24 13.0838 24.5398 12.7179 24.499 12.3073C24.4583 11.8967 24.0922 11.5972 23.6818 11.6377C20.2565 11.9779 17.3316 13.143 15.657 14.8346C15.0482 15.4496 14.3029 15.8516 13.5019 15.9971L0.613558 18.3387C0.20765 18.4125 -0.0616941 18.8014 0.0121165 19.2073C0.077759 19.5682 0.392126 19.821 0.746238 19.821Z" fill="#134A85"/>
<path d="M38.3371 13.0326C38.4833 13.0326 38.631 12.9898 38.7605 12.9005L40.8734 11.4437C41.2131 11.2095 41.2986 10.7442 41.0644 10.4045C40.8302 10.0648 40.3648 9.9793 40.0252 10.2136L37.9122 11.6705C37.5726 11.9046 37.4871 12.3699 37.7213 12.7096C37.8663 12.9199 38.0997 13.0326 38.3371 13.0326Z" fill="#134A85"/>
<path d="M33.7941 8.80623C33.9228 8.89379 34.069 8.93572 34.2138 8.93572C34.4526 8.93572 34.6875 8.82137 34.832 8.60891L36.276 6.48713C36.5082 6.14597 36.4197 5.68129 36.0788 5.4492C35.7377 5.21711 35.273 5.30546 35.0408 5.64642L33.5969 7.7682C33.3646 8.10947 33.4531 8.57414 33.7941 8.80623Z" fill="#134A85"/>
<path d="M28.7222 6.58535C28.7789 6.5985 28.8358 6.60478 28.8917 6.60478C29.2313 6.60478 29.5386 6.37149 29.6187 6.02635L30.1986 3.52615C30.292 3.12423 30.0417 2.7228 29.6397 2.62957C29.2388 2.53643 28.8365 2.78655 28.7432 3.18848L28.1633 5.68867C28.07 6.09069 28.3203 6.49212 28.7222 6.58535Z" fill="#134A85"/>
<path d="M10.1265 11.4437L12.2394 12.9005C12.369 12.9898 12.5167 13.0326 12.6629 13.0326C12.9002 13.0326 13.1337 12.9198 13.2787 12.7096C13.5128 12.3699 13.4274 11.9046 13.0877 11.6705L10.9748 10.2136C10.6349 9.9793 10.1699 10.0648 9.93557 10.4045C9.70149 10.7442 9.78686 11.2095 10.1265 11.4437Z" fill="#134A85"/>
<path d="M16.168 8.609C16.3125 8.82137 16.5473 8.93582 16.7863 8.93582C16.931 8.93582 17.0772 8.89388 17.2059 8.80633C17.547 8.57424 17.6354 8.10956 17.4032 7.7684L15.9592 5.64662C15.7271 5.30555 15.2624 5.2172 14.9213 5.44939C14.5802 5.68148 14.4918 6.14616 14.7241 6.48732L16.168 8.609Z" fill="#134A85"/>
<path d="M21.3813 6.02628C21.4614 6.37142 21.7686 6.60471 22.1084 6.60471C22.1644 6.60471 22.2211 6.59843 22.2778 6.58528C22.6797 6.49205 22.9301 6.09062 22.8367 5.6887L22.2568 3.1885C22.1636 2.78658 21.7617 2.53676 21.3603 2.6296C20.9584 2.72283 20.7081 3.12426 20.8014 3.52618L21.3813 6.02628Z" fill="#134A85"/>
<path d="M0.880707 25.755L15.5019 23.0986C22.1361 21.8932 28.864 21.8932 35.498 23.0986L50.1192 25.755C50.1644 25.7631 50.2093 25.7671 50.2537 25.7671C50.6078 25.7671 50.9223 25.5142 50.9878 25.1534C51.0616 24.7474 50.7923 24.3587 50.3864 24.2848L35.7652 21.6285C28.9536 20.3909 22.0463 20.3909 15.2349 21.6285L0.613555 24.2848C0.207649 24.3587 -0.0616938 24.7475 0.0121164 25.1534C0.0860263 25.5594 0.475199 25.8282 0.880707 25.755Z" fill="#134A85"/>
<path d="M9.0182 46.896H0.747131C0.33445 46.896 6.10352e-05 47.2305 6.10352e-05 47.6431C6.10352e-05 48.0556 0.33445 48.3901 0.747131 48.3901H9.0182C9.43088 48.3901 9.76527 48.0556 9.76527 47.6431C9.76527 47.2305 9.43088 46.896 9.0182 46.896Z" fill="#134A85"/>
<path d="M50.2528 46.896H12.5091C12.0964 46.896 11.762 47.2305 11.762 47.6431C11.762 48.0556 12.0964 48.3901 12.5091 48.3901H50.2528C50.6655 48.3901 50.9999 48.0556 50.9999 47.6431C50.9999 47.2305 50.6655 46.896 50.2528 46.896Z" fill="#134A85"/>
<path d="M39.3618 39.8608C39.0244 40.0984 38.9434 40.5643 39.181 40.9017C39.4185 41.2391 39.8844 41.3202 40.2219 41.0825C42.7991 39.268 44.1613 37.0659 44.1613 34.7139C44.1613 31.8745 42.1574 29.2426 38.5187 27.3032C35.029 25.4432 30.4055 24.4188 25.5001 24.4188C20.5946 24.4188 15.9712 25.4432 12.4815 27.3032C8.84276 29.2426 6.83882 31.8745 6.83882 34.7139C6.83882 37.5535 8.84276 40.1853 12.4815 42.1246C15.9712 43.9846 20.5946 45.009 25.5001 45.009C29.7355 45.009 33.7214 44.2586 37.0269 42.8389C37.406 42.6762 37.5813 42.2368 37.4186 41.8577C37.2557 41.4787 36.8165 41.3032 36.4372 41.4661C33.3611 42.7872 29.4769 43.5149 25.5001 43.5149C20.8354 43.5149 16.4615 42.5528 13.1841 40.8061C10.0558 39.1387 8.33286 36.9751 8.33286 34.7139C8.33286 32.4527 10.0558 30.2892 13.1841 28.6217C16.4614 26.875 20.8353 25.913 25.5001 25.913C30.1649 25.913 34.5386 26.875 37.816 28.6217C40.9443 30.2891 42.6673 32.4527 42.6673 34.7139C42.6672 37.0446 40.8696 38.7993 39.3618 39.8608Z" fill="#134A85"/>
<path d="M32.8917 33.7159C32.8236 33.309 32.4391 33.0343 32.0316 33.1022L30.9387 33.285C31.0948 32.7533 31.1312 32.1767 31.0333 31.5969C30.8279 30.3809 30.0697 29.3702 29.0035 28.8899C27.861 28.3262 26.5235 28.4229 25.4216 29.1493C24.5719 29.7096 24.0094 30.5422 23.8241 31.4735C22.2443 31.4452 20.7806 32.4444 20.2696 34.009C19.7015 35.7478 20.5158 37.6565 22.1638 38.4489C22.7439 38.7279 23.3725 38.8457 23.9915 38.8066L23.555 39.8689C23.3982 40.2506 23.5805 40.687 23.9621 40.8438C24.0551 40.882 24.1512 40.9001 24.2458 40.9001C24.5398 40.9001 24.8185 40.7255 24.9371 40.4368L25.3885 39.338C25.8184 39.8065 26.3699 40.1621 26.9994 40.3597C27.3596 40.4729 27.7262 40.527 28.0884 40.527C29.4789 40.5269 30.8009 39.7296 31.4154 38.4163C31.9864 37.1959 31.8298 35.8127 31.1127 34.7709L32.278 34.576C32.685 34.5079 32.9597 34.1229 32.8917 33.7159ZM30.0622 37.783C29.6035 38.7635 28.4792 39.2582 27.4472 38.9343C26.7389 38.7119 26.1969 38.1535 25.9972 37.4405C25.8902 37.0266 25.3456 36.72 24.8904 37.0032C24.2577 37.3871 23.4804 37.4244 22.8112 37.1024C21.8356 36.6333 21.3535 35.5029 21.6898 34.4731C22.049 33.3733 23.2028 32.7441 24.3165 33.0406C24.548 33.1022 24.7954 33.0491 24.981 32.8975C25.1667 32.746 25.2685 32.5145 25.2546 32.2752C25.2115 31.5359 25.5814 30.8337 26.2441 30.3968C26.9006 29.9642 27.6879 29.9032 28.3509 30.2343C28.361 30.2392 28.371 30.244 28.3813 30.2486C28.9967 30.5221 29.4374 31.1192 29.5601 31.8458C29.6828 32.5732 29.4636 33.2815 28.9735 33.7406C28.6392 34.043 28.6483 34.6998 29.1295 34.9433C30.1419 35.4895 30.5516 36.737 30.0622 37.783Z" fill="#134A85"/>
<path d="M11.5585 34.7139C11.5585 35.996 12.6015 37.0389 13.8835 37.0389C15.1655 37.0389 16.2085 35.9959 16.2085 34.7139C16.2085 33.4319 15.1655 32.3889 13.8835 32.3889C12.6015 32.3889 11.5585 33.4319 11.5585 34.7139ZM14.7143 34.7139C14.7143 35.1721 14.3417 35.5447 13.8835 35.5447C13.4253 35.5447 13.0526 35.172 13.0526 34.7139C13.0526 34.2558 13.4253 33.8831 13.8835 33.8831C14.3417 33.8831 14.7143 34.2558 14.7143 34.7139Z" fill="#134A85"/>
<path d="M22.1999 30.3014C22.6125 30.3014 22.947 29.9669 22.947 29.5543C22.947 29.1417 22.6125 28.8073 22.1999 28.8073C21.7873 28.8073 21.4529 29.1417 21.4529 29.5543C21.4529 29.9669 21.7873 30.3014 22.1999 30.3014Z" fill="#134A85"/>
<path d="M23.713 35.8984C24.1256 35.8984 24.4601 35.564 24.4601 35.1514C24.4601 34.7388 24.1256 34.4043 23.713 34.4043C23.3004 34.4043 22.9659 34.7388 22.9659 35.1514C22.9659 35.564 23.3004 35.8984 23.713 35.8984Z" fill="#134A85"/>
<path d="M27.5051 32.781C27.9177 32.781 28.2522 32.4465 28.2522 32.0339C28.2522 31.6213 27.9177 31.2869 27.5051 31.2869C27.0925 31.2869 26.758 31.6213 26.758 32.0339C26.758 32.4465 27.0925 32.781 27.5051 32.781Z" fill="#134A85"/>
<path d="M28.1516 37.7351C28.5641 37.7351 28.8986 37.4006 28.8986 36.988C28.8986 36.5754 28.5641 36.241 28.1516 36.241C27.739 36.241 27.4045 36.5754 27.4045 36.988C27.4045 37.4006 27.739 37.7351 28.1516 37.7351Z" fill="#134A85"/>
<path d="M36.4609 37.0389C36.8735 37.0389 37.208 36.7045 37.208 36.2919C37.208 35.8793 36.8735 35.5448 36.4609 35.5448C36.0483 35.5448 35.7139 35.8793 35.7139 36.2919C35.7139 36.7045 36.0483 37.0389 36.4609 37.0389Z" fill="#134A85"/>
</g>
<defs>
<clipPath id="clip0_1_267">
<rect width="51" height="51" fill="white"/>
</clipPath>
</defs>
</svg>
