<svg width="51" height="51" viewBox="0 0 51 51" fill="none" xmlns="http://www.w3.org/2000/svg">
<g clip-path="url(#clip0_1_372)">
<path d="M36.1726 35.9308C36.3137 35.6182 36.6403 35.451 36.9678 35.5243C38.1799 35.7962 39.4902 35.4882 40.4739 34.7007C42.5059 33.0739 42.5107 29.9269 40.4689 28.2959C39.483 27.5084 38.171 27.2023 36.9595 27.4768C36.6369 27.55 36.314 27.384 36.174 27.0736C35.9365 26.5466 35.6113 26.0741 35.2074 25.6689C35.1188 25.5801 35.1193 25.418 35.2082 25.3287C35.6107 24.9252 35.9352 24.4543 36.1725 23.9294C36.3136 23.6168 36.6402 23.4496 36.9677 23.5229C39.4773 24.0858 41.9988 22.2089 41.9988 19.4984C41.9988 16.7972 39.4812 14.9053 36.9614 15.4751C36.6382 15.5484 36.3141 15.3832 36.1747 15.0735C35.8202 14.2869 35.2609 13.6122 34.5573 13.1219C34.4261 13.0305 34.3845 12.8398 34.499 12.7282C34.8524 12.3837 35.1456 11.9865 35.3707 11.5476C35.5336 11.2299 35.8705 11.0679 36.2091 11.1448C38.7194 11.7131 41.2488 9.83484 41.2488 7.12197C41.2488 4.42634 38.7394 2.53404 36.2226 3.0959C35.8799 3.17231 35.5318 3.01262 35.3764 2.70748C34.6728 1.32594 33.3334 0.405946 31.7937 0.246653C28.6173 -0.0820955 22.3827 -0.0820955 19.2063 0.246653C17.6666 0.406046 16.3273 1.32594 15.6237 2.70748C15.4681 3.01272 15.1196 3.17241 14.7774 3.096C13.5674 2.82603 12.2587 3.13495 11.2762 3.92236C9.24082 5.55354 9.24261 8.69737 11.2806 10.3254C12.2666 11.1131 13.5788 11.4192 14.7908 11.1449C15.1295 11.0681 15.4663 11.23 15.6292 11.5477C15.8543 11.9866 16.1475 12.3838 16.5009 12.7283C16.6155 12.8399 16.5738 13.0306 16.4425 13.122C15.739 13.6122 15.1796 14.287 14.8253 15.0736C14.6858 15.3831 14.3622 15.5485 14.0385 15.4752C12.8273 15.2013 11.5156 15.5079 10.5301 16.2954C8.48858 17.927 8.49486 21.0734 10.526 22.6994C11.5096 23.4869 12.8203 23.7947 14.032 23.523C14.3592 23.4496 14.6861 23.6168 14.8274 23.9296C15.0646 24.4545 15.3891 24.9254 15.7916 25.3289C15.8805 25.4182 15.8809 25.5803 15.7924 25.6692C15.3885 26.0743 15.0633 26.5469 14.8259 27.0739C14.686 27.3843 14.3633 27.5502 14.0403 27.4771C11.5251 26.9069 9.00103 28.7927 9.00103 31.4999C9.00103 34.2183 11.5347 36.0846 14.0321 35.5244C14.3597 35.4512 14.6862 35.6183 14.8274 35.9309C15.0646 36.4558 15.389 36.9267 15.7916 37.3302C15.8805 37.4195 15.8808 37.5817 15.7924 37.6705C15.3885 38.0757 15.0633 38.5483 14.8259 39.0751C14.6859 39.3855 14.3636 39.5514 14.0403 39.4783C12.8291 39.2038 11.5169 39.5099 10.5309 40.2974C8.52325 41.901 8.46138 45.0274 10.5049 46.6852C11.4755 47.4726 12.7748 47.7909 13.9812 47.5369C14.3399 47.4611 14.688 47.6237 14.8273 47.9321C15.5206 49.4664 16.952 50.5101 18.6563 50.7237C19.0647 50.7749 19.4391 50.4848 19.4905 50.0753C19.5419 49.6659 19.2516 49.2924 18.8421 49.241C17.6583 49.0926 16.6664 48.3733 16.1892 47.3168C15.7587 46.364 14.7247 45.8533 13.6729 46.0746C12.9034 46.2369 12.0707 46.0313 11.4463 45.5247C10.1745 44.4929 10.1691 42.4989 11.4635 41.465C12.0976 40.9585 12.9372 40.7605 13.7101 40.9356C14.7175 41.1638 15.7594 40.6397 16.188 39.6893C16.3513 39.3269 16.5743 39.0027 16.8505 38.7255C17.5239 38.0501 17.5235 36.9509 16.8495 36.2751C16.5742 35.999 16.352 35.6762 16.1891 35.3155C15.7525 34.3498 14.731 33.8362 13.7048 34.0663C12.1713 34.4104 10.4951 33.2941 10.4951 31.4998C10.4951 29.7176 12.1642 28.5839 13.71 28.9343C14.7174 29.1623 15.7593 28.6383 16.1879 27.6879C16.4807 27.0382 16.8166 26.7869 16.9907 26.5629C17.8443 26.9325 18.7198 27.0632 19.5606 26.9939C19.9719 26.9599 20.2777 26.5991 20.2437 26.1879C20.2097 25.7765 19.8477 25.4708 19.4376 25.5047C18.7065 25.5649 17.9723 25.4096 17.2957 25.0541C17.0886 24.2687 16.6227 24.2742 16.1891 23.3142C15.7527 22.3486 14.7319 21.8347 13.7048 22.065C12.932 22.2383 12.0925 22.0395 11.4597 21.5329C10.1687 20.4993 10.1709 18.4952 11.4629 17.4628C12.0965 16.9562 12.9362 16.758 13.7087 16.9327C14.7167 17.1606 15.7597 16.6371 16.1875 15.6875C16.4344 15.1393 16.8076 14.6888 17.2964 14.3482C18.2029 13.717 18.3275 12.4222 17.5438 11.6582C17.3066 11.427 17.1099 11.1604 16.9587 10.8659C16.4869 9.94572 15.46 9.46126 14.4604 9.6874C13.6881 9.86254 12.8475 9.66459 12.213 9.15772C10.9198 8.12475 10.9188 6.12337 12.2104 5.08832C12.8425 4.58184 13.6807 4.38221 14.4517 4.55435C15.461 4.77969 16.4898 4.29892 16.955 3.3856C17.4275 2.45773 18.3266 1.83989 19.36 1.73299C22.4586 1.41221 28.541 1.41221 31.6396 1.73299C32.673 1.83999 33.572 2.45773 34.0447 3.3857C34.5099 4.29892 35.5397 4.77949 36.5479 4.55435C38.0826 4.21215 39.7544 5.33458 39.7544 7.12207C39.7544 8.90737 38.082 10.0369 36.5393 9.6874C35.5404 9.46116 34.5128 9.94562 34.041 10.8658C33.8899 11.1604 33.6931 11.427 33.4559 11.6582C32.6717 12.4226 32.7974 13.7173 33.7032 14.3481C34.1921 14.6887 34.5652 15.1392 34.8122 15.6874C35.24 16.6368 36.2823 17.1603 37.291 16.9326C38.8252 16.5856 40.5046 17.7048 40.5046 19.4984C40.5046 21.2853 38.836 22.4105 37.2948 22.0649C36.2692 21.8348 35.247 22.3485 34.8108 23.3141C34.3791 24.2692 33.9102 24.2721 33.704 25.054C33.0276 25.4095 32.2937 25.565 31.562 25.5047C31.1514 25.4708 30.79 25.7765 30.756 26.1879C30.722 26.5991 31.0279 26.96 31.4392 26.9939C32.2834 27.0636 33.1589 26.9311 34.009 26.5629C34.1827 26.7864 34.5192 27.0386 34.8118 27.688C35.2403 28.6385 36.2827 29.1624 37.2897 28.9343C38.0626 28.7593 38.9022 28.9571 39.5364 29.4637C40.8288 30.496 40.8313 32.5004 39.54 33.5342C38.9073 34.0407 38.068 34.2397 37.2949 34.0663C36.2686 33.836 35.247 34.3498 34.8108 35.3154C34.6477 35.6761 34.4255 35.999 34.1502 36.2751C33.4762 36.9509 33.4758 38.0501 34.1492 38.7254C34.4254 39.0027 34.6485 39.3269 34.8117 39.6893C35.2402 40.6397 36.2826 41.1641 37.2896 40.9356C38.8264 40.5874 40.5045 41.7099 40.5045 43.5011C40.5045 45.2765 38.8581 46.3975 37.3269 46.0745C36.2762 45.8531 35.2411 46.3638 34.8107 47.3167C34.319 48.4048 33.2947 49.1278 32.0707 49.2507C29.5706 49.5019 25.3386 49.5781 21.7792 49.4361C21.3646 49.4202 21.0193 49.7407 21.0028 50.1529C20.9864 50.5651 21.3074 50.9128 21.7196 50.9293C24.8289 51.0533 29.3176 51.0292 32.22 50.7376C33.981 50.5607 35.4585 49.5119 36.1724 47.932C36.3116 47.6236 36.6595 47.4611 37.0185 47.5368C38.2251 47.7909 39.5242 47.4725 40.4948 46.6851C42.5384 45.0272 42.4765 41.9009 40.4688 40.2973C39.4829 39.5098 38.1713 39.2036 36.9593 39.4782C36.6368 39.5512 36.3138 39.3854 36.1739 39.075C35.9364 38.5481 35.6112 38.0755 35.2073 37.6703C35.1188 37.5816 35.1192 37.4194 35.2081 37.3301C35.6109 36.9266 35.9353 36.4557 36.1726 35.9308Z" fill="#134A85"/>
<path d="M19.1549 45.3141C19.324 46.5136 20.4455 47.3961 21.6872 47.221C22.911 47.0486 23.7664 45.9127 23.5941 44.6887C22.8245 39.2266 23.215 33.7961 25.5 28.7997C27.7892 33.8054 28.1741 39.2383 27.4062 44.6887C27.2338 45.9126 28.0892 47.0485 29.313 47.2209C30.5556 47.3962 31.6764 46.5127 31.8454 45.314C32.719 39.1126 32.1697 33.433 30.213 28.4327C29.5454 26.7268 28.8098 25.3235 28.075 24.0104C28.7736 22.7521 29.4857 21.3663 30.0756 19.7555C30.2176 19.368 30.0185 18.9388 29.631 18.7969C29.2435 18.655 28.8144 18.8541 28.6726 19.2415C28.2483 20.3998 27.7674 21.422 27.2067 22.4789C26.9092 21.9541 26.6175 21.4311 26.338 20.8949C28.6024 16.2665 29.09 11.199 28.1411 6.13453C28.1043 5.93837 28.1461 5.73963 28.2588 5.57496C28.6314 5.03073 29.4868 5.20288 29.6098 5.85928C30.2945 9.51316 30.2366 13.0444 29.5154 16.3383C29.427 16.7413 29.6823 17.1397 30.0854 17.228C30.4886 17.3163 30.8867 17.061 30.9751 16.658C31.7512 13.1142 31.7896 9.37818 31.0786 5.58402C30.8509 4.36925 29.6777 3.56641 28.4627 3.79384C27.2449 4.02207 26.4444 5.19202 26.6724 6.40978C27.4769 10.7028 27.1874 15.1616 25.5005 19.1334C23.8005 15.1294 23.5303 10.668 24.3283 6.40978C24.5564 5.19192 23.7558 4.02197 22.5379 3.79374C21.3235 3.56621 20.1498 4.36925 19.922 5.58402C19.2442 9.20135 19.2459 12.7684 19.9269 16.1861C20.5915 19.5213 21.7351 21.8687 22.9251 24.0106C22.2372 25.2394 21.4725 26.6821 20.7875 28.4327C18.8305 33.4331 18.2813 39.1128 19.1549 45.3141ZM21.3906 5.85948C21.4665 5.45462 21.8576 5.18674 22.2625 5.26265C22.6684 5.33876 22.9353 5.72867 22.8592 6.13463C22.252 9.37509 22.2515 12.5604 22.8576 15.6021C24.0113 21.3917 26.7809 23.7634 28.8212 28.9773C30.6831 33.7354 31.2027 39.1618 30.3654 45.1056C30.3089 45.5072 29.9294 45.7988 29.5212 45.7412C29.1133 45.6837 28.8282 45.3051 28.8857 44.8971C29.6867 39.2107 29.1969 34.0377 27.4296 29.5219C25.4725 24.52 22.5955 21.9335 21.3921 15.8941C20.7485 12.6645 20.748 9.28832 21.3906 5.85948ZM23.7899 25.5388C24.0799 26.0489 24.3714 26.5675 24.658 27.1054C21.8396 32.6811 21.2238 38.5758 22.1143 44.8971C22.1718 45.3051 21.8867 45.6837 21.4787 45.7412C21.0612 45.7999 20.6907 45.5034 20.6346 45.1056C19.7973 39.1618 20.3169 33.7354 22.1788 28.9773C22.6891 27.6728 23.2513 26.5389 23.7899 25.5388Z" fill="#134A85"/>
</g>
<defs>
<clipPath id="clip0_1_372">
<rect width="51" height="51" fill="white"/>
</clipPath>
</defs>
</svg>
