<svg width="51" height="51" viewBox="0 0 51 51" fill="none" xmlns="http://www.w3.org/2000/svg">
<g clip-path="url(#clip0_27_41)">
<path d="M50.3567 33.5771C49.8945 33.3114 49.3277 33.3561 48.9124 33.6909L46.0783 35.9779L42.0918 35.9089C41.3075 34.902 34.8872 26.5046 34.4738 26.0528C33.635 25.1408 31.94 24.7927 30.8334 25.3016L29.9101 25.6793C29.9101 25.6793 23.3913 20.9081 23.3297 20.884L21.2876 20.0667L21.8324 18.7972C22.0811 18.849 22.3332 18.8752 22.5856 18.8752C23.0532 18.8752 23.5213 18.786 23.9686 18.6074C24.8933 18.2382 25.6187 17.531 26.0116 16.616L27.1492 13.9656C27.7585 12.6234 27.0775 10.9181 25.7112 10.3649L22.7872 9.10951C21.573 8.57693 20.1169 8.79969 19.1142 9.66813C17.7856 9.03657 16.3211 8.79031 14.8492 8.95728L13.4069 9.12101C12.6714 9.20455 12.0274 9.64593 11.6843 10.3018C11.3412 10.9577 11.3457 11.7383 11.6965 12.3902L13.1155 15.0271C14.0776 16.7202 16.1897 16.4536 17.2002 14.9479C17.2007 14.9784 17.4166 16.334 17.4267 16.4016L16.5878 18.3561C15.6449 17.9861 14.5454 18.121 13.7299 18.7281L7.44333 23.328C6.61777 23.9325 5.97694 24.7517 5.59024 25.6966L3.33431 31.1965C3.17571 31.5831 3.36064 32.0251 3.74724 32.1837C4.13394 32.3422 4.57582 32.1574 4.73442 31.7707L6.99055 26.2702C7.27162 25.5836 7.73732 24.9884 8.33719 24.5492L10.0476 23.2977L11.3975 25.4877L11.2543 25.8213L9.91466 26.735C9.82114 26.7988 9.74315 26.8828 9.68635 26.9807L4.32653 36.2286C4.19033 36.4627 3.99925 36.6606 3.77226 36.803L2.79274 37.244C2.34481 37.446 1.82433 37.2584 1.60783 36.8173C1.39395 36.3818 1.5596 35.8576 1.98504 35.624L3.25925 34.9245C3.62557 34.7234 3.75944 34.2634 3.55838 33.897C3.35731 33.5307 2.89757 33.3967 2.53094 33.5979L1.25674 34.2975C0.12065 34.9212 -0.321739 36.3211 0.249483 37.4843C0.670484 38.3416 1.52147 38.8401 2.41482 38.84C2.74876 38.8399 3.08865 38.7703 3.41411 38.6237L4.4364 38.1635C4.46242 38.1518 4.48785 38.1385 4.51236 38.1239C4.97473 37.849 5.36284 37.4566 5.63513 36.9881L9.25557 30.7414L8.41195 34.5319C7.45473 38.2942 10.6609 42.2921 14.5416 42.1745H26.3922C26.8101 42.1745 27.1489 41.8358 27.1489 41.4179V37.1481L35.7042 37.3107V40.6612H29.9523C29.5345 40.6612 29.1957 40.9999 29.1957 41.4179C29.1957 41.8358 29.5345 42.1745 29.9523 42.1745H47.8971C49.0423 42.1745 49.9989 41.3527 50.1718 40.2199L50.985 34.8818C51.0654 34.355 50.8188 33.8429 50.3567 33.5771ZM12.4707 26.8232L17.1804 23.6111C18.1598 22.9621 18.664 21.7152 18.4317 20.5697L21.2756 21.7085C21.6401 21.8652 21.8644 22.2361 21.834 22.6312L21.6281 25.2713C21.5771 25.9248 21.3529 26.5544 20.9798 27.0923L17.1434 32.6263L11.0945 30.0296L12.4707 26.8232ZM21.4639 29.0502L22.2234 27.9547C22.4225 27.6676 22.5912 27.3619 22.7283 27.0429C22.9953 27.2446 23.7847 27.841 24.0389 28.0331L21.4639 29.0502ZM23.1302 25.4498C23.132 25.4295 23.1353 25.4094 23.1369 25.3891L23.3427 22.7483C23.3429 22.7452 23.3428 22.7421 23.343 22.7389L25.3259 24.1937L23.9557 26.0737L23.1302 25.4498ZM19.9104 31.291L27.2891 28.3763L28.8715 32.7032L24.0267 35.575L22.1736 35.54C21.5064 35.5276 20.8752 35.3039 20.3483 34.8929L18.4427 33.4084L19.9104 31.291ZM26.9021 35.6298L31.3141 33.0147L33.3053 35.7515L26.9021 35.6298ZM37.1275 31.9443C37.8802 32.937 40.0383 35.7328 40.1423 35.8669L35.1644 35.7715L33.8331 33.8629L37.1275 31.9443ZM31.423 26.6954C31.4354 26.6904 31.4475 26.6849 31.4596 26.6794C31.9698 26.4384 32.9641 26.6469 33.3588 27.076C33.596 27.3352 34.2895 28.1902 36.2092 30.728L32.9346 32.6349L32.1007 31.5595C31.8668 31.2578 31.445 31.1776 31.1168 31.3725L30.196 31.9183L28.6942 27.8119L31.423 26.6954ZM27.4579 26.6826C27.457 26.683 27.456 26.6832 27.4551 26.6835L25.6875 27.3818L25.1634 26.9858L26.5463 25.0886L28.2676 26.3513L27.4579 26.6826ZM21.7128 17.1805C21.7114 17.1799 21.71 17.1795 21.7086 17.1789C21.7071 17.1783 21.7059 17.1774 21.7045 17.1768C21.3203 17.0121 20.8755 17.1897 20.7107 17.5737L19.8968 19.4697L18.0894 18.6938L18.836 16.9544L21.4529 14.6458C22.2076 14.8243 23.0181 14.8978 23.868 14.8657C24.3445 14.8483 24.7849 14.7995 25.17 14.7395L24.6208 16.0192C24.1392 17.1411 22.8348 17.6619 21.7128 17.1805ZM20.4305 10.5861C20.9775 10.2857 21.6191 10.2548 22.1901 10.4999L25.1112 11.7543C25.6144 11.9613 25.9281 12.5206 25.8449 13.0578C25.4281 13.1652 24.687 13.3215 23.8116 13.3536C22.9688 13.3858 22.181 13.2956 21.4704 13.0854C21.2208 13.0117 20.9506 13.0713 20.7553 13.2436L18.7411 15.0204C18.6073 14.3284 18.6676 13.6101 18.9498 12.9621L19.5539 11.5532C19.7324 11.1379 20.0356 10.8033 20.4305 10.5861ZM15.6057 14.452C15.2947 14.8153 14.6617 14.7381 14.448 14.31L13.029 11.6731C12.9148 11.4608 12.9134 11.2167 13.0251 11.0032C13.1368 10.7898 13.3382 10.6518 13.5776 10.6245L15.02 10.4608C16.1064 10.3373 17.1881 10.4928 18.1857 10.9096C18.1786 10.9254 18.1702 10.9402 18.1634 10.9561L17.6095 12.248L15.6057 14.452ZM14.6235 19.9491C16.2119 18.7984 17.9441 21.2465 16.3279 22.3608L12.7511 24.8001L11.2726 22.4014L14.6235 19.9491ZM25.6355 40.6612H14.5414C11.5783 40.7393 9.17163 37.7266 9.88893 34.8606L10.6407 31.4823L17.0255 34.2228L19.4178 36.0865C20.1935 36.6915 21.1623 37.0347 22.1452 37.0531L25.6355 37.1194V40.6612ZM37.2174 40.6612V37.3381L40.2826 37.3912L39.9251 37.9075C39.6872 38.251 39.773 38.7224 40.1166 38.9604C40.248 39.0513 40.3981 39.0949 40.5466 39.0949C40.7865 39.0949 41.0225 38.981 41.1694 38.7689L42.1013 37.4227L45.5832 37.483V40.6613H37.2174V40.6612ZM48.6758 39.9918C48.6175 40.3734 48.2827 40.6612 47.8971 40.6612H47.0964V37.101L49.3992 35.2428L48.6758 39.9918Z" fill="#134A85"/>
<path d="M43.4972 31.2627C43.5491 31.2734 43.6007 31.2786 43.6517 31.2786C44.0028 31.2786 44.3177 31.0328 44.3918 30.6754L45.0845 27.3365C45.1693 26.9273 44.9064 26.5269 44.4973 26.4419C44.0885 26.3576 43.6877 26.6199 43.6028 27.0291L42.9101 30.368C42.8252 30.7772 43.0881 31.1778 43.4972 31.2627Z" fill="#134A85"/>
<path d="M46.1007 32.3929C46.2252 32.4705 46.3635 32.5076 46.5002 32.5076C46.7528 32.5076 46.9996 32.3812 47.1431 32.1511L48.1279 30.5712C48.349 30.2165 48.2407 29.7498 47.8861 29.5289C47.5314 29.3079 47.0648 29.4162 46.8438 29.7706L45.8589 31.3505C45.6379 31.7052 45.7461 32.1719 46.1007 32.3929Z" fill="#134A85"/>
<path d="M39.7989 30.6273C39.855 31.0027 40.1778 31.2723 40.5463 31.2723C40.5834 31.2723 40.6212 31.2696 40.659 31.2639C41.0723 31.2022 41.3573 30.817 41.2956 30.4038L41.0206 28.5625C40.9589 28.1493 40.5742 27.8647 40.1605 27.9259C39.7472 27.9876 39.4622 28.3728 39.5239 28.786L39.7989 30.6273Z" fill="#134A85"/>
</g>
<defs>
<clipPath id="clip0_27_41">
<rect width="51" height="51" fill="white"/>
</clipPath>
</defs>
</svg>
