<svg width="51" height="51" viewBox="0 0 51 51" fill="none" xmlns="http://www.w3.org/2000/svg">
<path d="M48.1802 32.4878C48.711 32.088 49.0416 31.4785 49.0873 30.8155L49.5034 24.7837C49.6704 22.3599 48.1704 20.152 45.8557 19.4144L16.1245 9.94076C14.3161 9.36462 12.3562 9.45148 10.6061 10.1856C8.85586 10.9196 7.42049 12.2567 6.56415 13.9505L3.14107 20.7217C2.81804 21.3607 2.80987 22.0976 3.11876 22.7436C3.42765 23.3895 4.00628 23.8458 4.70634 23.9956L6.79505 24.4425L6.34601 30.1246C6.32937 30.3353 6.39711 30.544 6.53437 30.7047C6.67153 30.8655 6.86706 30.9652 7.07774 30.9818L36.6881 33.322C36.2542 34.8572 35.3792 36.2661 34.1236 37.3423L34.1037 37.3593H15.9375V36.8075C15.9375 35.7936 15.1126 34.9687 14.0986 34.9687H8.21388C7.19986 34.9687 6.37499 35.7936 6.37499 36.8075V37.3593H2.39062C2.14518 37.3593 1.91359 37.4724 1.76248 37.6658C1.61147 37.8593 1.55798 38.1115 1.61755 38.3495L2.13143 40.4053C2.38693 41.427 3.30085 42.1406 4.35402 42.1406H46.6458C47.6989 42.1406 48.6129 41.427 48.8684 40.4052L49.3822 38.3495C49.4418 38.1114 49.3883 37.8593 49.2373 37.6658C49.0862 37.4724 48.8546 37.3593 48.6092 37.3593H47.0154V32.9382C47.4336 32.8989 47.8375 32.746 48.1802 32.4878ZM7.99763 29.4557L8.36728 24.7788L36.999 30.9039C37.0046 31.1855 36.9953 31.4664 36.9724 31.7457L7.99763 29.4557ZM38.5918 31.2445L45.4219 32.7057V37.3593H36.3303C37.7593 35.6317 38.5513 33.4663 38.5918 31.2445ZM7.96874 36.8075C7.96874 36.6724 8.07871 36.5625 8.21388 36.5625H14.0986C14.2338 36.5625 14.3437 36.6724 14.3437 36.8075V37.3593H7.96874V36.8075ZM47.5888 38.953L47.3224 40.0185C47.2446 40.3295 46.9664 40.5467 46.6459 40.5467H4.35412C4.03358 40.5467 3.75537 40.3295 3.67757 40.0186L3.41122 38.953H47.5888ZM46.6559 31.3397L5.03973 22.4371C4.82666 22.3914 4.65056 22.2526 4.55652 22.0561C4.46249 21.8595 4.46498 21.6352 4.5633 21.4407L7.98637 14.6695C9.41158 11.8503 12.6304 10.5002 15.6406 11.4593L45.3719 20.9331C46.9846 21.4469 48.0298 22.9854 47.9134 24.6741L47.4973 30.7059C47.4784 30.9821 47.3162 31.1434 47.2213 31.2148C47.1264 31.2863 46.9267 31.3978 46.6559 31.3397Z" fill="#134A85"/>
<path d="M42.2343 22.2186C40.4767 22.2186 39.0468 23.6485 39.0468 25.4061C39.0468 27.1637 40.4767 28.5936 42.2343 28.5936C43.992 28.5936 45.4218 27.1637 45.4218 25.4061C45.4218 23.6485 43.992 22.2186 42.2343 22.2186ZM42.2343 26.9999C41.3556 26.9999 40.6406 26.2849 40.6406 25.4061C40.6406 24.5274 41.3556 23.8124 42.2343 23.8124C43.1131 23.8124 43.8281 24.5274 43.8281 25.4061C43.8281 26.2849 43.1131 26.9999 42.2343 26.9999Z" fill="#134A85"/>
<path d="M12.3363 27.2572L9.86219 27.0098C9.42511 26.9664 9.03384 27.2855 8.99001 27.7235C8.94618 28.1614 9.26573 28.5519 9.70361 28.5957L12.1777 28.8431C12.2047 28.8458 12.2314 28.8471 12.258 28.8471C12.6624 28.8471 13.0089 28.5404 13.0499 28.1294C13.0937 27.6915 12.7742 27.3011 12.3363 27.2572Z" fill="#134A85"/>
</svg>
