<svg width="51" height="51" viewBox="0 0 75 75" fill="none" xmlns="http://www.w3.org/2000/svg"><g clip-path="url(#clip0_4620_55)"><path d="M72.5253 17.195C66.7306 13.3873 60.1344 11.4568 52.9198 11.4568C39.5773 11.4568 29.0742 15.5266 24.9866 18.3975H2.19691C1.48513 18.3975 0.814513 18.7445 0.403324 19.3256C-0.00801093 19.9069 -0.112017 20.6547 0.124999 21.3261L1.41745 24.9882C1.72698 25.8651 2.55976 26.4541 3.48966 26.4541H10.0375C10.6444 26.4541 11.1361 25.9622 11.1361 25.3555C11.1361 24.7487 10.6444 24.2568 10.0375 24.2568H3.48951L2.19706 20.5946H6.52106V21.1848C6.52106 21.7916 7.01281 22.2835 7.61971 22.2835C8.22661 22.2835 8.71836 21.7916 8.71836 21.1848V20.5946H15.6602V21.1848C15.6602 21.7916 16.152 22.2835 16.7589 22.2835C17.3658 22.2835 17.8575 21.7916 17.8575 21.1848V20.5946H23.7065L22.2111 24.2568H14.4327C13.8258 24.2568 13.334 24.7487 13.334 25.3555C13.334 25.9622 13.8258 26.4541 14.4327 26.4541H22.7959L39.5468 31.2261V37.3243C39.5468 37.9302 39.054 38.423 38.4482 38.423H37.8099C35.9926 38.423 34.514 39.9015 34.514 41.7189V44.5555C34.514 45.144 34.3561 45.7227 34.0572 46.2296L32.6911 48.5465C31.113 51.2234 30.889 54.5322 32.0923 57.3971L32.7217 58.896C33.0455 59.667 33.7648 60.181 34.5992 60.2375C34.6501 60.2409 34.7005 60.2426 34.7509 60.2426C35.5274 60.2426 36.2415 59.8378 36.6404 59.1613L49.616 37.154C50.3543 38.2761 50.9114 39.5269 51.2444 40.8657L52.3804 45.4314C52.5269 46.0202 53.1234 46.378 53.7118 46.2322C54.3007 46.0857 54.6593 45.4897 54.5128 44.9008L53.3768 40.3352C52.1457 35.3867 48.3341 31.4448 43.4299 30.0476L35.3901 27.7573V24.8685H56.8446C57.4515 24.8685 57.9432 24.3766 57.9432 23.7699C57.9432 23.1631 57.4515 22.6712 56.8446 22.6712H35.3898V16.1822C40.1279 14.7573 46.1664 13.6539 52.9198 13.6539C59.6982 13.6539 65.8884 15.4632 71.3187 19.0313C72.248 19.6419 72.8029 20.6714 72.8029 21.7851V22.6712H61.2395C60.6326 22.6712 60.1408 23.1631 60.1408 23.7699C60.1408 24.3766 60.6326 24.8685 61.2395 24.8685H72.8029V25.4253C72.8029 26.5671 72.1973 27.6455 71.2224 28.2397L63.8555 32.7302C63.5284 32.9296 63.3285 33.2851 63.3285 33.6683V57.6504C63.3285 59.0038 62.517 60.2044 61.2612 60.7089L59.8725 61.2667C59.5728 61.3872 59.2499 61.3722 58.9629 61.2256C58.6758 61.0788 58.4747 60.8257 58.3969 60.5126L55.5152 48.9305C55.3687 48.3416 54.7718 47.9835 54.1838 48.1296C53.5949 48.2761 53.2363 48.8722 53.3828 49.4611L56.2645 61.0431C56.4948 61.9684 57.1138 62.7482 57.963 63.1822C58.433 63.4224 58.9473 63.5434 59.4629 63.5434C59.8792 63.5434 60.2963 63.4646 60.6916 63.3058L62.0803 62.748C64.1735 61.9072 65.5258 59.9063 65.5258 57.6506V34.2855L72.3659 30.116C73.9907 29.1256 75 27.3284 75 25.4253V21.7851C75 19.9293 74.0748 18.2134 72.5253 17.195ZM48.1421 35.327L34.7472 58.0455L34.1177 56.5466C33.1818 54.3183 33.356 51.7448 34.5836 49.6628L35.9497 47.3458C36.4476 46.501 36.7108 45.5362 36.7108 44.5558V41.7192C36.7108 41.1134 37.2036 40.6206 37.8095 40.6206H38.4477C40.2651 40.6206 41.7437 39.1421 41.7437 37.3246V31.8522L42.8274 32.161C44.8749 32.744 46.6961 33.852 48.1421 35.327ZM33.1925 27.1313L24.43 24.635L26.2401 20.2015C27.6657 19.1977 30.0592 17.9955 33.1925 16.8967V27.1313Z" fill="#233877"></path></g><defs><clipPath id="clip0_4620_55"><rect width="75" height="75" fill="white"></rect></clipPath></defs></svg>