<svg width="51" height="51" viewBox="0 0 51 51" fill="none" xmlns="http://www.w3.org/2000/svg">
<path fill-rule="evenodd" clip-rule="evenodd" d="M31.5601 18.5648L27.978 23.1049C27.9427 23.1555 27.9008 23.2025 27.8514 23.2445C27.5448 23.5066 27.0831 23.4713 26.8205 23.1641L24.8719 20.8941C24.6099 20.587 24.6464 20.1259 24.9529 19.8633C25.2588 19.6 25.7211 19.6358 25.9831 19.943L27.3533 21.54L30.415 17.6601C30.664 17.3443 31.1238 17.2912 31.4403 17.5402C31.756 17.7898 31.8098 18.2496 31.5601 18.5648ZM20.1836 44.9666C21.8745 45.4437 23.6569 45.6989 25.5004 45.6989C26.0789 45.6989 26.6511 45.6723 27.2173 45.6234V37.8901L22.0772 33.2123L18.3438 33.2234C17.9396 33.2234 17.6132 32.8958 17.6132 32.4929C17.6132 32.09 17.9396 31.7631 18.3438 31.7631L22.3115 31.7513C22.5031 31.7377 22.6996 31.8001 22.8542 31.9398L23.3652 32.4051L23.3807 30.7204L20.9754 28.9806L16.0238 27.0753C15.6475 26.9313 15.459 26.5092 15.6036 26.1328C15.7469 25.7565 16.1685 25.568 16.5455 25.7119L20.4508 27.2156L19.9835 23.6564C19.9315 23.2565 20.214 22.8901 20.6139 22.8381C21.0138 22.7856 21.3802 23.068 21.4328 23.4679L22.0187 27.9282L24.5439 29.7544L24.5427 29.7569C24.7274 29.8903 24.8467 30.1085 24.8449 30.3527L24.8121 33.7227L27.2174 35.9105V26.6068C25.6643 26.438 24.2713 25.7373 23.2243 24.6903C22.0142 23.4808 21.2671 21.8097 21.2671 19.9643C21.2671 18.119 22.0143 16.4478 23.2243 15.2377C24.4343 14.0295 26.1043 13.2805 27.9503 13.2805C29.7957 13.2805 31.4668 14.0295 32.6757 15.2377C33.8858 16.4478 34.6329 18.1189 34.6329 19.9643C34.6329 21.8098 33.8858 23.4808 32.6757 24.6903C31.6288 25.7373 30.2351 26.438 28.6833 26.6068V32.1306L31.3191 30.6078L31.4001 28.6302C31.4094 28.4089 31.5145 28.2142 31.6757 28.0863L31.6751 28.0858L34.2238 26.0587C34.5389 25.8065 34.9995 25.8591 35.2516 26.1761C35.5031 26.4914 35.45 26.9518 35.1347 27.2033L32.8469 29.024L32.7869 30.49L35.2929 31.1741C35.6817 31.2797 35.9116 31.6809 35.8059 32.0702C35.6989 32.459 35.2984 32.6888 34.9098 32.5832L32.1361 31.8255L28.6833 33.8192V45.4392C30.7425 45.1024 32.6942 44.4424 34.4834 43.5141C34.0656 42.5277 33.7065 41.5413 33.5026 40.5735C33.2436 39.3517 33.23 38.1645 33.6373 37.0483C33.6553 36.9896 33.6812 36.9328 33.7158 36.8796L37.4016 31.0128C39.3213 27.3016 39.4992 23.4111 38.459 20.0794C37.773 17.8848 36.5611 15.9343 34.9722 14.4399C33.3937 12.9561 31.4433 11.9234 29.2685 11.552C26.4021 11.0613 23.1321 11.722 19.7899 14.0118C17.3925 15.6539 16.6293 17.8553 15.7418 20.412C15.5143 21.069 15.2789 21.747 15.0187 22.4206C14.9933 22.5028 14.952 22.5819 14.8957 22.653L10.3978 28.3709L14.1028 29.0445C14.4353 29.0828 14.709 29.3455 14.748 29.6916C14.8723 30.7948 14.9668 31.8269 15.0471 32.7014C15.2442 34.8545 15.3431 35.9324 15.7287 36.3186C16.081 36.669 17.0142 36.643 18.885 36.588C19.6167 36.5676 20.477 36.5423 21.5165 36.5386C21.9194 36.5386 22.247 36.8655 22.247 37.2685L22.2563 40.8659C22.2606 42.0803 21.8862 43.0413 21.2657 43.8584C20.9566 44.2658 20.5902 44.6285 20.1836 44.9666ZM27.9502 25.1826C29.3908 25.1826 30.6954 24.5979 31.6398 23.6536C32.5835 22.7099 33.1669 21.4053 33.1669 19.9647C33.1669 18.5241 32.5835 17.2194 31.6398 16.2752C30.6954 15.3314 29.3909 14.7468 27.9502 14.7468C26.509 14.7468 25.2049 15.3314 24.2612 16.2752C23.3163 17.2195 22.7322 18.5241 22.7322 19.9647C22.7322 21.4053 23.3163 22.7099 24.2612 23.6536C25.2049 24.5979 26.509 25.1826 27.9502 25.1826ZM40.3495 41.0143C44.1497 37.2136 46.5 31.9634 46.5 26.1646C46.5 20.3664 44.1497 15.1162 40.3495 11.3155C36.5493 7.51458 31.2992 5.16429 25.5003 5.16429C23.8502 5.16429 22.2427 5.35592 20.6976 5.71742C19.3374 6.03637 18.0291 6.48745 16.7825 7.05732L18.0099 4.93201C18.2126 4.58286 18.0933 4.13537 17.7435 3.93329C17.3943 3.73053 16.9468 3.84987 16.7441 4.19902L14.1484 8.69573C14.0872 8.80328 14.0514 8.92812 14.0514 9.06217C14.0514 9.46453 14.3777 9.79201 14.7812 9.79201H19.9726C20.3762 9.79201 20.7025 9.46442 20.7025 9.06217C20.7025 8.65857 20.3761 8.33165 19.9726 8.33165H17.5154C18.6346 7.83049 19.8094 7.42869 21.0288 7.1432C22.4627 6.8082 23.9589 6.63026 25.5002 6.63026C30.8949 6.63026 35.7779 8.81686 39.3129 12.3525C42.848 15.8869 45.0339 20.7705 45.0339 26.1646C45.0339 31.5593 42.848 36.4429 39.3129 39.9773C38.245 41.0459 37.0535 41.9896 35.7624 42.7882C35.4059 41.9334 35.1049 41.0868 34.9337 40.2765C34.7309 39.318 34.7081 38.4089 34.9924 37.5931L38.6455 31.78C38.6616 31.7565 38.6758 31.7324 38.6894 31.7058C40.8105 27.6219 41.0058 23.3273 39.8556 19.6439C39.0955 17.2095 37.7457 15.0409 35.9738 13.3753C34.1908 11.6986 31.9814 10.5306 29.5149 10.1085C26.295 9.55849 22.6493 10.2785 18.9647 12.8031C16.1725 14.7164 15.3351 17.1323 14.3617 19.9375C14.1515 20.5413 13.9359 21.1655 13.6794 21.8311L8.49735 28.4198L8.49802 28.421C8.42696 28.5118 8.37621 28.6213 8.35342 28.7437C8.28292 29.1404 8.54686 29.5205 8.94428 29.5909L13.3526 30.3931C13.4577 31.3664 13.5293 32.1525 13.5918 32.8336C13.8222 35.3433 13.9379 36.5998 14.6931 37.3545C15.486 38.148 16.6313 38.1146 18.9253 38.0485C19.4741 38.0331 20.0952 38.0152 20.7886 38.0053L20.7967 40.866C20.7991 41.7281 20.5378 42.4049 20.1039 42.9772C19.7022 43.5056 19.1422 43.966 18.497 44.4049C15.9198 43.4148 13.6048 41.8951 11.6871 39.9775C8.15258 36.443 5.96608 31.5594 5.96608 26.1647C5.96608 24.184 6.25719 22.2791 6.79977 20.4882C7.36279 18.6316 8.19648 16.8913 9.25268 15.3116C9.47766 14.9766 9.38796 14.5218 9.05239 14.298C8.71739 14.0737 8.26372 14.1633 8.03885 14.4989C6.90418 16.1941 6.00931 18.0667 5.40296 20.0654C4.8158 22.0023 4.5 24.0504 4.5 26.1646C4.5 31.9634 6.85029 37.2136 10.6512 41.0143C14.4507 44.8139 19.7008 47.1655 25.5003 47.1655C26.3476 47.1655 27.1831 47.1137 28.0052 47.016C28.0225 47.0141 28.0404 47.0123 28.0577 47.0098C32.8351 46.4295 37.1161 44.2473 40.3495 41.0143Z" fill="#134A85"/>
</svg>
