<svg width="51" height="51" viewBox="0 0 51 51" fill="none" xmlns="http://www.w3.org/2000/svg">
<path d="M47.8125 2.39062C46.714 2.39062 45.8203 3.10542 45.8203 3.98438V10.3817C45.8203 11.9511 45.1446 13.4074 43.968 14.4274C41.0092 9.24455 33.8485 5.57812 25.5 5.57812C17.1515 5.57812 9.99042 9.24455 7.03202 14.4274C5.85584 13.407 5.17969 11.9487 5.17969 10.3813V3.98438C5.17969 3.10542 4.28599 2.39062 3.1875 2.39062C2.08901 2.39062 1.19531 3.10542 1.19531 3.98438V9.65613C1.19531 13.0723 2.8803 16.2351 5.70523 18.1436C5.62355 18.6624 5.57812 19.1887 5.57812 19.7227C5.57812 26.1917 11.4459 33.876 18.6584 36.8531C19.184 37.0698 19.5234 37.5711 19.5234 38.1301C19.5234 39.3345 19.8936 40.4896 20.5936 41.4698C21.1969 42.3141 21.5156 43.309 21.5156 44.3465V48.2109C21.5156 48.4313 21.6941 48.6094 21.9141 48.6094C22.134 48.6094 22.3125 48.4313 22.3125 48.2109V44.3465C22.3125 43.142 21.9424 41.9869 21.2423 41.0068C20.6391 40.1625 20.3203 39.1676 20.3203 38.1301C20.3203 37.2471 19.7872 36.4566 18.962 36.116C11.1873 32.9074 6.375 25.1083 6.375 19.7223C6.375 12.3623 14.9546 6.3746 25.5 6.3746C36.0454 6.3746 44.625 12.3623 44.625 19.7223C44.625 25.1083 39.8127 32.9074 32.038 36.116C31.2128 36.4562 30.6797 37.2471 30.6797 38.1301C30.6797 39.1676 30.3609 40.1625 29.7577 41.0068C29.0576 41.9869 28.6875 43.1416 28.6875 44.3465V48.2109C28.6875 48.4313 28.866 48.6094 29.0859 48.6094C29.3059 48.6094 29.4844 48.4313 29.4844 48.2109V44.3465C29.4844 43.309 29.8031 42.3141 30.4064 41.4698C31.1064 40.4896 31.4766 39.3349 31.4766 38.1301C31.4766 37.5711 31.8164 37.0698 32.3416 36.8531C39.5541 33.876 45.4219 26.1917 45.4219 19.7227C45.4219 19.1768 45.3737 18.6393 45.2884 18.1094C45.3402 18.0986 45.3908 18.0815 45.437 18.0496C48.1719 16.1339 49.8047 12.9962 49.8047 9.65653V3.98477C49.8047 3.10582 48.911 2.39062 47.8125 2.39062ZM3.1875 3.1875C3.83536 3.1875 4.38281 3.55247 4.38281 3.98438C4.38281 4.41628 3.83536 4.78125 3.1875 4.78125C2.53964 4.78125 1.99219 4.41628 1.99219 3.98438C1.99219 3.55247 2.53964 3.1875 3.1875 3.1875ZM1.99219 9.65613V5.25101C2.32608 5.45341 2.73727 5.57773 3.1875 5.57773C3.63773 5.57773 4.04892 5.45302 4.38281 5.25101V7.56991C4.38281 7.66913 3.95887 7.96835 3.1875 7.96835C2.96756 7.96835 2.78906 8.14645 2.78906 8.36679C2.78906 8.58713 2.96756 8.76523 3.1875 8.76523C3.6453 8.76523 4.0537 8.67877 4.38281 8.53453V10.3813C4.38281 12.2448 5.21037 13.9776 6.65072 15.1534C6.31802 15.8435 6.05864 16.5575 5.87895 17.2906C3.43891 15.5152 1.99219 12.6946 1.99219 9.65573V9.65613ZM47.8125 3.1875C48.4604 3.1875 49.0078 3.55247 49.0078 3.98438C49.0078 4.41628 48.4604 4.78125 47.8125 4.78125C47.1646 4.78125 46.6172 4.41628 46.6172 3.98438C46.6172 3.55247 47.1646 3.1875 47.8125 3.1875ZM45.1211 17.291C44.941 16.5571 44.6816 15.8427 44.3481 15.1518C45.7888 13.976 46.6168 12.2472 46.6168 10.3817V8.53493C46.9459 8.67916 47.3543 8.76562 47.8121 8.76562C48.032 8.76562 48.2105 8.58752 48.2105 8.36719C48.2105 8.14685 48.032 7.96875 47.8121 7.96875C47.0407 7.96875 46.6168 7.66952 46.6168 7.57031V5.25141C46.9507 5.45381 47.3619 5.57812 47.8121 5.57812C48.2623 5.57812 48.6735 5.45341 49.0074 5.25141V9.65653C49.0074 12.6779 47.5563 15.5171 45.1207 17.2914L45.1211 17.291Z" fill="#134A85"/>
<path d="M40.6406 19.7227C40.6406 14.7346 33.5656 10.3594 25.5 10.3594C17.4344 10.3594 10.3594 14.7346 10.3594 19.7227C10.3594 23.8863 14.6382 30.1804 20.7777 32.5547C22.4364 33.1962 23.5078 34.7481 23.5078 36.508V48.2109C23.5078 48.4313 23.6863 48.6094 23.9062 48.6094C24.1262 48.6094 24.3047 48.4313 24.3047 48.2109V36.508C24.3047 35.0294 23.6672 33.6767 22.5994 32.7408L22.8994 32.2001C23.1592 31.7304 23.2034 31.1718 23.0197 30.6669C22.8771 30.2737 22.605 29.9474 22.2444 29.7358C22.2264 28.762 21.5567 27.7974 20.5339 27.3189C19.9255 27.0332 19.2501 26.9507 18.6389 27.0758C18.5182 26.1953 17.8823 25.3629 16.9463 24.9274C16.7021 24.8143 16.4431 24.733 16.1722 24.6844C16.1742 23.878 15.7817 23.0632 15.0924 22.4834C14.8737 22.2974 14.629 22.1432 14.3625 22.0216C14.5003 21.381 14.4083 20.6817 14.0939 20.049C13.9776 19.8195 13.8393 19.6095 13.6815 19.4226C13.9369 19.2824 14.1716 19.1015 14.3816 18.8895C15.1745 19.3963 17.4065 20.5175 20.447 19.5035C23.9043 18.3512 25.4861 18.3289 25.4996 18.3289C25.5151 18.3289 27.0969 18.3516 30.5546 19.5035C31.4439 19.8 32.2639 19.9139 32.999 19.9139C34.7772 19.9139 36.0586 19.2481 36.6196 18.8895C36.8292 19.1011 37.0643 19.282 37.3196 19.4222C37.1615 19.6099 37.0232 19.8199 36.9057 20.0514C36.5925 20.6817 36.5005 21.381 36.6383 22.0212C36.3722 22.1428 36.1279 22.2966 35.9104 22.4814C35.2195 23.0628 34.8266 23.8776 34.8286 24.684C34.5577 24.7326 34.2987 24.8139 34.0545 24.927C33.1185 25.3625 32.4826 26.1949 32.3619 27.0754C31.7507 26.9511 31.0757 27.0336 30.4677 27.3185C29.4453 27.7966 28.7756 28.76 28.7564 29.7334C28.401 29.9406 28.1253 30.2697 27.9811 30.6669C27.7978 31.1718 27.8416 31.7304 28.1018 32.2001L28.4014 32.7408C27.3336 33.6767 26.6961 35.0294 26.6961 36.508V48.2109C26.6961 48.4313 26.8746 48.6094 27.0945 48.6094C27.3145 48.6094 27.493 48.4313 27.493 48.2109V36.508C27.493 34.7481 28.5644 33.1962 30.2231 32.5547C36.3626 30.1804 40.6414 23.8863 40.6414 19.7227H40.6406ZM30.8056 18.7473C27.1997 17.5452 25.5677 17.5312 25.5 17.5312C25.4323 17.5312 23.8003 17.5452 20.1944 18.7473C17.5285 19.6358 15.5809 18.6975 14.8681 18.254C15.1327 17.807 15.2829 17.3145 15.2944 16.82C15.3032 16.8121 15.3124 16.8049 15.3211 16.7969C15.8347 16.8615 16.3706 16.7858 16.8854 16.5754C17.6177 16.2674 18.1939 15.7152 18.4847 15.0585C18.9895 15.2131 19.5481 15.2299 20.0928 15.1016C20.861 14.9223 21.5132 14.484 21.9113 13.8875C21.9922 13.8724 22.073 13.8577 22.1543 13.8437C22.683 14.2143 23.348 14.3995 24.0457 14.3669C24.5649 14.3414 25.0713 14.19 25.5004 13.9358C25.9295 14.19 26.4363 14.3414 26.9563 14.3669C27.6524 14.3987 28.3178 14.2139 28.8465 13.8437C28.9278 13.8577 29.009 13.8724 29.0895 13.8875C29.4876 14.484 30.1398 14.9223 30.9072 15.1016C31.4519 15.2295 32.0105 15.2131 32.5157 15.0585C32.8065 15.7148 33.3831 16.2674 34.119 16.577C34.6302 16.7858 35.1661 16.8615 35.6793 16.7969C35.688 16.8049 35.6968 16.8121 35.706 16.82C35.7175 17.3149 35.8677 17.8074 36.1323 18.2544C35.4183 18.6983 33.4715 19.6362 30.8056 18.7473ZM29.0457 32.2611L28.7983 31.814C28.6496 31.5459 28.6245 31.2271 28.7293 30.9391C28.8289 30.6649 29.0294 30.4586 29.3071 30.351C29.478 30.2864 29.5828 30.1135 29.5613 29.9318C29.4752 29.2011 29.9864 28.4229 30.8052 28.04C31.3973 27.7619 32.0643 27.74 32.5886 27.9819C32.7209 28.0424 32.8759 28.0269 32.9926 27.94C33.1094 27.8532 33.1699 27.7097 33.15 27.5659C33.0476 26.8252 33.5572 26.0375 34.3895 25.6506C34.6617 25.5243 34.9617 25.4506 35.2804 25.4319C35.3944 25.4251 35.4996 25.3705 35.5705 25.2809C35.6414 25.1912 35.6701 25.0761 35.6498 24.9637C35.5343 24.3186 35.8375 23.5835 36.424 23.0903C36.6578 22.8914 36.934 22.74 37.2439 22.6404C37.3479 22.6069 37.4336 22.5324 37.481 22.434C37.5284 22.3356 37.5336 22.2225 37.495 22.1201C37.2953 21.5909 37.3404 20.9662 37.6173 20.4088C37.748 20.151 37.9125 19.9286 38.107 19.7478C38.1982 19.6629 38.2444 19.5402 38.2321 19.4163C38.2229 19.325 38.2094 19.2298 38.191 19.1342C38.1655 18.9999 38.0731 18.8883 37.9456 18.8381C37.5794 18.6939 37.2503 18.4441 36.9937 18.115C36.6535 17.6795 36.4793 17.1639 36.504 16.6623C36.5096 16.5439 36.4626 16.4292 36.3754 16.3495C36.2702 16.2531 36.1606 16.1602 36.047 16.0674C35.9554 15.9925 35.8347 15.9614 35.7191 15.9849C35.3 16.0658 34.8505 16.016 34.4234 15.8415C33.7859 15.5733 33.3126 15.0693 33.1572 14.4936C33.1265 14.3804 33.048 14.2864 32.9416 14.2366L32.8683 14.2023C32.7615 14.1521 32.6388 14.1521 32.5316 14.2015C32.1033 14.3999 31.5909 14.4442 31.0881 14.3262C30.4781 14.1836 29.9525 13.813 29.6832 13.3353C29.6262 13.2345 29.5286 13.1636 29.4154 13.1409C29.215 13.0998 29.0102 13.0628 28.8054 13.0301C28.6947 13.0118 28.5799 13.0425 28.4919 13.1134C28.0994 13.4305 27.5555 13.6031 26.9929 13.5716C26.53 13.5485 26.0833 13.3951 25.7355 13.1389C25.5948 13.0353 25.4032 13.0353 25.2625 13.1389C24.9147 13.3951 24.468 13.5485 24.0063 13.5716C23.4437 13.5983 22.8982 13.4305 22.5057 13.1134C22.4181 13.0425 22.3041 13.0118 22.1922 13.0301C21.9874 13.0628 21.783 13.1002 21.5822 13.1409C21.469 13.164 21.3714 13.2345 21.3144 13.3353C21.0447 13.813 20.5195 14.1836 19.9087 14.3262C19.4075 14.4454 18.8943 14.3999 18.466 14.2015C18.3588 14.1521 18.2361 14.1521 18.1293 14.2023L18.056 14.2366C17.9496 14.2864 17.8711 14.38 17.8404 14.4936C17.685 15.0693 17.2117 15.5733 16.5786 15.8399C16.1471 16.016 15.698 16.065 15.2785 15.9849C15.1625 15.9614 15.0426 15.9925 14.9506 16.0674C14.837 16.1602 14.7274 16.2531 14.6223 16.3495C14.535 16.4292 14.488 16.5439 14.4936 16.6623C14.5183 17.1639 14.3441 17.6795 14.0039 18.115C13.7477 18.4437 13.4186 18.6935 13.0524 18.8377C12.9253 18.8879 12.8329 18.9995 12.807 19.1338C12.789 19.2294 12.7751 19.3246 12.7659 19.4159C12.7536 19.5402 12.7998 19.6625 12.891 19.7474C13.0855 19.9283 13.25 20.1506 13.3795 20.4056C13.6576 20.9654 13.7031 21.5905 13.503 22.1197C13.4644 22.2221 13.4696 22.3352 13.517 22.4336C13.5644 22.532 13.6501 22.6065 13.7541 22.64C14.064 22.7396 14.3398 22.891 14.5756 23.0914C15.1605 23.5831 15.4638 24.3182 15.3482 24.9633C15.3283 25.0757 15.357 25.1908 15.4275 25.2805C15.498 25.3701 15.6036 25.4247 15.7176 25.4315C16.0367 25.4502 16.3363 25.5235 16.6085 25.6502C17.4408 26.0371 17.9504 26.8244 17.848 27.5655C17.8281 27.7093 17.8886 27.8532 18.0054 27.9396C18.1221 28.0269 18.2771 28.0424 18.4094 27.9815C18.9337 27.7396 19.6007 27.7615 20.1936 28.0396C21.0116 28.4225 21.5232 29.2007 21.4371 29.9314C21.416 30.1123 21.5351 30.29 21.7049 30.3554C21.9694 30.4578 22.1699 30.6641 22.2695 30.9383C22.3743 31.2267 22.3492 31.5451 22.2009 31.8132L21.9531 32.2603C21.6754 32.0858 21.3798 31.9332 21.0642 31.8109C15.3928 29.6178 11.1551 23.6198 11.1551 19.7219C11.1551 15.1586 17.8576 11.1555 25.4988 11.1555C33.14 11.1555 39.8426 15.1586 39.8426 19.7219C39.8426 23.6198 35.6048 29.6178 29.9334 31.8109C29.6175 31.9332 29.3218 32.0858 29.0445 32.2603L29.0457 32.2611Z" fill="#134A85"/>
<path d="M19.5234 23.1094C19.5234 23.9883 20.2382 24.7031 21.1172 24.7031C21.9961 24.7031 22.7109 23.9883 22.7109 23.1094C22.7109 22.2304 21.9961 21.5156 21.1172 21.5156C20.2382 21.5156 19.5234 22.2304 19.5234 23.1094ZM21.9141 23.1094C21.9141 23.5489 21.5567 23.9062 21.1172 23.9062C20.6777 23.9062 20.3203 23.5489 20.3203 23.1094C20.3203 22.6699 20.6777 22.3125 21.1172 22.3125C21.5567 22.3125 21.9141 22.6699 21.9141 23.1094Z" fill="#134A85"/>
<path d="M23.5078 27.0938C23.5078 28.1922 24.4015 29.0859 25.5 29.0859C26.5985 29.0859 27.4922 28.1922 27.4922 27.0938C27.4922 25.9953 26.5985 25.1016 25.5 25.1016C24.4015 25.1016 23.5078 25.9953 23.5078 27.0938ZM26.6953 27.0938C26.6953 27.7528 26.159 28.2891 25.5 28.2891C24.841 28.2891 24.3047 27.7528 24.3047 27.0938C24.3047 26.4347 24.841 25.8984 25.5 25.8984C26.159 25.8984 26.6953 26.4347 26.6953 27.0938Z" fill="#134A85"/>
<path d="M29.0859 21.5156C29.0859 20.6367 28.3711 19.9219 27.4922 19.9219C26.6132 19.9219 25.8984 20.6367 25.8984 21.5156C25.8984 22.3946 26.6132 23.1094 27.4922 23.1094C28.3711 23.1094 29.0859 22.3946 29.0859 21.5156ZM26.6953 21.5156C26.6953 21.0761 27.0527 20.7188 27.4922 20.7188C27.9317 20.7188 28.2891 21.0761 28.2891 21.5156C28.2891 21.9551 27.9317 22.3125 27.4922 22.3125C27.0527 22.3125 26.6953 21.9551 26.6953 21.5156Z" fill="#134A85"/>
</svg>
