<svg width="51" height="51" viewBox="0 0 51 51" fill="none" xmlns="http://www.w3.org/2000/svg">
<path d="M18.207 3.31505C18.207 2.90705 17.85 2.55005 17.442 2.55005C17.034 2.55005 16.677 2.90705 16.677 3.31505V4.94705C16.677 9.63905 15.198 10.149 12.291 11.169C11.934 11.271 11.628 11.424 11.22 11.526C7.29301 13.005 2.75401 15.402 2.75401 21.114V47.634C2.75401 48.042 3.11101 48.399 3.51901 48.399C3.92701 48.399 4.28401 48.042 4.28401 47.634V21.114C4.28401 17.34 6.52801 14.943 11.73 12.954C12.087 12.801 12.444 12.699 12.75 12.597C15.81 11.577 18.207 10.71 18.207 4.94705V3.31505Z" fill="#134A85"/>
<path d="M39.78 11.5773C39.423 11.4243 39.066 11.3223 38.709 11.2203C35.802 10.2003 34.323 9.69029 34.323 4.99829V3.31529C34.323 2.90729 33.966 2.55029 33.558 2.55029C33.15 2.55029 32.793 2.90729 32.793 3.31529V4.94729C32.793 10.7103 35.19 11.5773 38.199 12.6483C38.505 12.7503 38.862 12.9033 39.219 13.0053C44.472 14.9433 46.665 17.3913 46.665 21.1653V47.6853C46.665 48.0933 47.022 48.4503 47.43 48.4503C47.838 48.4503 48.195 48.0933 48.195 47.6853V21.1653C48.246 15.4533 43.707 13.0563 39.78 11.5773Z" fill="#134A85"/>
<path d="M10.251 21.6241C9.84297 21.6241 9.48597 21.9811 9.48597 22.3891C9.48597 22.7971 9.84297 23.1541 10.251 23.1541C11.679 23.1541 12.903 24.3271 12.903 25.8061V47.7361C12.903 48.1441 13.26 48.5011 13.668 48.5011C14.076 48.5011 14.433 48.1441 14.433 47.7361V25.8061C14.382 23.4601 12.546 21.6241 10.251 21.6241Z" fill="#134A85"/>
<path d="M40.749 21.6241C38.454 21.6241 36.567 23.5111 36.567 25.8061V47.7361C36.567 48.1441 36.924 48.5011 37.332 48.5011C37.74 48.5011 38.097 48.1441 38.097 47.7361V25.8061C38.097 24.3781 39.27 23.1541 40.749 23.1541C41.157 23.1541 41.514 22.7971 41.514 22.3891C41.514 21.9811 41.208 21.6241 40.749 21.6241Z" fill="#134A85"/>
<path d="M22.032 15.8101C22.185 15.9631 22.338 16.0141 22.542 16.0141C22.746 16.0141 22.95 15.9121 23.103 15.7591C23.409 15.4531 23.358 14.9431 23.052 14.6881C21.522 13.2601 19.686 12.6481 17.595 12.6991C17.187 12.6991 16.83 13.0561 16.881 13.5151C16.932 13.9741 17.238 14.2801 17.697 14.2291C19.329 14.1271 20.757 14.6371 22.032 15.8101Z" fill="#134A85"/>
<path d="M33.405 12.6992C31.314 12.5972 29.478 13.2602 27.948 14.6882C27.642 14.9942 27.591 15.4532 27.897 15.7592C28.05 15.9122 28.254 16.0142 28.458 16.0142C28.662 16.0142 28.815 15.9632 28.968 15.8102C30.192 14.6882 31.671 14.1782 33.354 14.2292C33.762 14.2292 34.119 13.9232 34.17 13.5152C34.17 13.0562 33.864 12.6992 33.405 12.6992Z" fill="#134A85"/>
<path d="M25.5 22.3381C23.766 22.3381 22.338 23.7661 22.338 25.5001C22.338 27.2341 23.766 28.6621 25.5 28.6621C27.234 28.6621 28.662 27.2341 28.662 25.5001C28.662 23.7661 27.234 22.3381 25.5 22.3381ZM25.5 27.1321C24.582 27.1321 23.868 26.4181 23.868 25.5001C23.868 24.5821 24.582 23.8681 25.5 23.8681C26.418 23.8681 27.132 24.5821 27.132 25.5001C27.132 26.4181 26.418 27.1321 25.5 27.1321Z" fill="#134A85"/>
<path d="M32.487 25.5002C32.487 21.6242 29.325 18.5132 25.5 18.5132C21.624 18.5132 18.513 21.6752 18.513 25.5002C18.513 29.3252 21.624 32.4872 25.5 32.4872C29.376 32.4872 32.487 29.3762 32.487 25.5002ZM25.5 30.9572C22.491 30.9572 20.043 28.5092 20.043 25.5002C20.043 22.4912 22.491 20.0432 25.5 20.0432C28.509 20.0432 30.957 22.4912 30.957 25.5002C30.957 28.5092 28.509 30.9572 25.5 30.9572Z" fill="#134A85"/>
<path d="M31.875 37.1282C31.824 36.9242 31.62 36.7712 31.416 36.6692C31.212 36.5672 30.957 36.6182 30.753 36.7202L29.631 37.3322L28.764 34.8842C28.611 34.4762 28.203 34.2722 27.795 34.4252C27.387 34.5782 27.183 34.9862 27.336 35.3942L28.509 38.7092C28.56 38.9132 28.764 39.0662 28.968 39.1682C29.172 39.2702 29.427 39.2192 29.631 39.1172L30.753 38.5052L31.62 40.9532C31.722 41.2592 32.028 41.4632 32.334 41.4632C32.436 41.4632 32.487 41.4632 32.589 41.4122C32.997 41.2592 33.201 40.8512 33.048 40.4432L31.875 37.1282Z" fill="#134A85"/>
<path d="M23.154 34.3742C22.746 34.2212 22.338 34.4252 22.185 34.8332L21.318 37.2812L20.196 36.7202C19.992 36.6182 19.788 36.6182 19.533 36.6692C19.329 36.7712 19.176 36.9242 19.074 37.1282L17.901 40.4432C17.748 40.8512 17.952 41.2592 18.36 41.4122C18.462 41.4632 18.513 41.4632 18.615 41.4632C18.921 41.4632 19.227 41.2592 19.329 40.9532L20.196 38.5052L21.267 39.1172C21.471 39.2192 21.675 39.2192 21.93 39.1682C22.134 39.0662 22.287 38.9132 22.389 38.7092L23.562 35.3942C23.766 34.9352 23.562 34.5272 23.154 34.3742Z" fill="#134A85"/>
</svg>
