<svg width="51" height="51" viewBox="0 0 51 51" fill="none" xmlns="http://www.w3.org/2000/svg">
<path d="M38.4163 17.2772C37.7519 16.6238 36.8196 15.817 35.4997 15.3777C33.7546 14.797 32.0961 14.6515 30.9506 14.9792C30.7613 15.033 30.586 15.1057 30.4236 15.1914C30.5113 13.6176 31.2365 13.0458 32.1389 12.3326L32.2355 12.2569C33.146 11.5357 34.3941 10.5476 34.3941 7.9767V6.97363C34.3941 6.64393 34.1261 6.37598 33.7964 6.37598H27.0907C26.761 6.37598 26.493 6.64393 26.493 6.97363V8.55941C26.493 9.10428 26.0498 9.54754 25.498 9.54754C24.9531 9.54754 24.5098 9.10428 24.5098 8.55941V6.97363C24.5098 6.64393 24.2419 6.37598 23.9122 6.37598H17.2065C16.8768 6.37598 16.6088 6.64393 16.6088 6.97363V7.9767C16.6088 10.5476 17.8559 11.5357 18.7673 12.2569L18.864 12.3336C19.7664 13.0468 20.4916 13.6186 20.5792 15.1924C20.4179 15.1057 20.2426 15.034 20.0523 14.9802C18.9068 14.6525 17.2483 14.7979 15.5031 15.3787C14.1833 15.8179 13.251 16.6248 12.5866 17.2782C10.4779 19.3521 9.8045 22.2896 10.69 25.5498C11.463 28.3956 12.5567 30.4067 13.9413 31.5263C14.4901 31.9706 15.54 32.5972 16.6457 32.9966C17.5182 33.3113 18.4864 33.4986 19.1947 33.4986C19.3291 33.4986 19.4547 33.4916 19.5682 33.4777C19.9188 33.4349 20.2714 33.3542 20.5892 33.1789V34.4688C19.8023 36.1044 19.8023 37.8127 20.5892 39.5479V44.0273C20.5892 44.1857 20.652 44.3381 20.7645 44.4497C20.8771 44.5622 21.0285 44.625 21.1869 44.625H29.82C30.1497 44.625 30.4177 44.357 30.4177 44.0273V39.5479C31.2046 37.8127 31.2046 36.1054 30.4177 34.4688V33.1789C30.7354 33.3542 31.088 33.4349 31.4387 33.4777C32.1489 33.5654 33.3233 33.3711 34.3612 32.9966C35.4669 32.5972 36.5167 31.9706 37.0656 31.5263C38.4502 30.4067 39.5439 28.3956 40.3158 25.5498C41.1974 22.2886 40.524 19.3511 38.4163 17.2772ZM21.7815 17.2752V17.0402H29.2194V17.2752V19.3989C29.2194 20.0743 28.6695 20.6241 27.9942 20.6241H23.0067C22.3314 20.6241 21.7815 20.0743 21.7815 19.3989V17.2752ZM19.6031 11.3953L19.5074 11.3196C18.6309 10.6253 17.8021 9.96889 17.8021 7.9767V7.57129H23.3125V8.55941C23.3125 9.76369 24.2917 10.7429 25.5029 10.7429C26.7072 10.7429 27.6864 9.76369 27.6864 8.55941V7.57129H33.1968V7.9767C33.1968 9.96889 32.369 10.6253 31.4914 11.3196L31.3968 11.3943C30.3758 12.2011 29.2184 13.1146 29.2184 15.5221V15.8438H21.7805V15.5221C21.7815 13.1155 20.6241 12.2021 19.6031 11.3953ZM21.7815 27.3278C21.7815 26.6525 22.3314 26.1026 23.0067 26.1026H27.9942C28.6695 26.1026 29.2194 26.6525 29.2194 27.3278V29.4276H21.7815V27.3278ZM29.4256 38.8178H21.5743C21.0673 37.5677 21.0643 36.3793 21.5654 35.2059H29.4345C29.9356 36.3793 29.9326 37.5677 29.4256 38.8178ZM21.7815 34.0106V30.6229H29.2194V34.0106H21.7815ZM21.7815 43.4287V40.0131H29.2194V43.4287H21.7815ZM39.1594 25.236C38.4541 27.8348 37.4949 29.6388 36.3106 30.597C35.8543 30.9655 34.922 31.5224 33.9518 31.872C32.9985 32.2156 32.0184 32.3441 31.5801 32.2913C31.0332 32.2246 30.4137 32.1489 30.4137 30.1936V27.3278C30.4137 25.993 29.3279 24.9073 27.9932 24.9073H23.0057C21.671 24.9073 20.5852 25.993 20.5852 27.3278V30.1936V30.1986C20.5842 32.1479 19.9656 32.2246 19.4188 32.2913C18.9805 32.3451 18.0004 32.2166 17.0471 31.872C16.0769 31.5224 15.1446 30.9655 14.6883 30.597C13.504 29.6388 12.5447 27.8348 11.8395 25.236C11.2966 23.2379 11.1303 20.3821 13.4203 18.1299C14.271 17.2932 15.029 16.7941 15.8767 16.5122C16.8847 16.1765 17.8629 16.0022 18.6717 16.0022C19.0672 16.0022 19.4218 16.0441 19.7196 16.1287C20.2934 16.2931 20.5842 16.6786 20.5842 17.2752V19.3989C20.5842 20.7337 21.67 21.8194 23.0047 21.8194H27.9922C29.3269 21.8194 30.4127 20.7337 30.4127 19.3989V17.2752C30.4127 16.6786 30.7035 16.2931 31.2773 16.1287C32.1837 15.8697 33.6211 16.0122 35.1202 16.5122C35.9679 16.7941 36.7259 17.2932 37.5766 18.1299C39.8676 20.3821 39.7013 23.2369 39.1594 25.236ZM32.3471 25.2788C31.4347 25.2788 30.6926 24.5368 30.6926 23.6243C30.6926 23.2946 30.9605 23.0267 31.2902 23.0267C31.6199 23.0267 31.8879 23.2946 31.8879 23.6243C31.8879 23.8773 32.0941 24.0835 32.3471 24.0835C32.6001 24.0835 32.8063 23.8773 32.8063 23.6243C32.8063 23.2946 33.0742 23.0267 33.404 23.0267C33.7337 23.0267 34.0016 23.2946 34.0016 23.6243C34.0016 24.5368 33.2595 25.2788 32.3471 25.2788ZM41.3398 20.0374C41.2691 19.7147 41.4733 19.3959 41.795 19.3252L43.836 18.877L43.4157 18.0572C43.326 17.8819 43.328 17.6747 43.4217 17.5013C43.5153 17.328 43.6876 17.2125 43.8829 17.1906L47.2855 16.819C47.6142 16.7832 47.9091 17.0202 47.9449 17.3479C47.9808 17.6757 47.7437 17.9715 47.416 18.0074L44.877 18.2843L45.2555 19.0214C45.3401 19.1867 45.3431 19.381 45.2644 19.5493C45.1857 19.7177 45.0333 19.8382 44.8521 19.878L42.053 20.4926C42.0102 20.5026 41.9664 20.5066 41.9245 20.5066C41.6486 20.5076 41.4016 20.3173 41.3398 20.0374ZM49.4988 23.9232C49.45 24.2499 49.1452 24.474 48.8185 24.4252L46.2934 24.0447L46.4707 24.8545C46.5106 25.0358 46.4637 25.2251 46.3442 25.3665C46.2307 25.502 46.0623 25.5797 45.887 25.5797C45.879 25.5797 45.8701 25.5797 45.8621 25.5787L42.9993 25.4571C42.6696 25.4432 42.4136 25.1643 42.4276 24.8346C42.4415 24.5049 42.7214 24.2499 43.0501 24.2628L45.1379 24.3515L44.9407 23.451C44.8989 23.2588 44.9537 23.0586 45.0881 22.9151C45.2226 22.7717 45.4188 22.7029 45.6131 22.7328L48.9968 23.2428C49.3235 23.2926 49.5486 23.5964 49.4988 23.9232ZM46.7446 30.6966C46.6211 31.0024 46.2735 31.1508 45.9667 31.0273L43.598 30.073L43.583 30.9018C43.58 31.0871 43.4904 31.2604 43.342 31.371C43.2374 31.4487 43.1129 31.4885 42.9854 31.4885C42.9306 31.4885 42.8758 31.4815 42.823 31.4656L40.0658 30.6856C39.7481 30.596 39.5638 30.2653 39.6534 29.9475C39.7431 29.6298 40.0738 29.4455 40.3915 29.5352L42.4017 30.1039L42.4186 29.1825C42.4226 28.9863 42.5222 28.804 42.6866 28.6945C42.8509 28.5859 43.0571 28.565 43.2394 28.6387L46.4139 29.9177C46.7197 30.0432 46.8681 30.3908 46.7446 30.6966ZM3.05596 17.3489C3.09182 17.0212 3.38766 16.7832 3.71537 16.82L7.11803 17.1916C7.31327 17.2125 7.48559 17.329 7.57922 17.5023C7.67285 17.6757 7.67485 17.8838 7.5852 18.0582L7.16485 18.878L9.20584 19.3262C9.52858 19.3969 9.73178 19.7157 9.66106 20.0384C9.5993 20.3173 9.35227 20.5086 9.07834 20.5086C9.03551 20.5086 8.99268 20.5036 8.94985 20.4946L6.15082 19.88C5.96953 19.8402 5.81713 19.7187 5.73844 19.5513C5.65975 19.384 5.66274 19.1887 5.74741 19.0234L6.12592 18.2863L3.58688 18.0094C3.25717 17.9725 3.0201 17.6777 3.05596 17.3489ZM4.70649 24.0447L2.18139 24.4252C1.85467 24.474 1.55086 24.2499 1.50106 23.9232C1.45225 23.5964 1.67637 23.2926 2.00309 23.2428L5.38682 22.7328C5.58106 22.7039 5.77729 22.7717 5.91176 22.9151C6.04623 23.0586 6.10102 23.2588 6.05918 23.451L5.86196 24.3515L7.94977 24.2628C8.27848 24.2499 8.55838 24.5049 8.57233 24.8346C8.58627 25.1643 8.33028 25.4432 8.00057 25.4571L5.1378 25.5787C5.12983 25.5787 5.12086 25.5797 5.11289 25.5797C4.93659 25.5797 4.76924 25.502 4.65569 25.3665C4.53616 25.2251 4.48934 25.0358 4.52918 24.8545L4.70649 24.0447ZM11.3464 29.9485C11.4361 30.2663 11.2518 30.596 10.9341 30.6866L8.17688 31.4666C8.12309 31.4815 8.0683 31.4895 8.01451 31.4895C7.88801 31.4895 7.7625 31.4487 7.65791 31.372C7.5095 31.2614 7.41985 31.0881 7.41686 30.9028L7.40192 30.074L5.03321 31.0283C4.72741 31.1518 4.37877 31.0034 4.25526 30.6976C4.13174 30.3918 4.28016 30.0432 4.58596 29.9196L7.76051 28.6407C7.9428 28.567 8.14998 28.5879 8.31334 28.6964C8.4777 28.805 8.57731 28.9873 8.58129 29.1845L8.59823 30.1059L10.6083 29.5371C10.9261 29.4465 11.2568 29.6308 11.3464 29.9485ZM37.2419 19.0792C37.2419 19.9916 36.4998 20.7337 35.5874 20.7337C34.675 20.7337 33.9329 19.9916 33.9329 19.0792C33.9329 18.7495 34.2008 18.4815 34.5305 18.4815C34.8602 18.4815 35.1282 18.7495 35.1282 19.0792C35.1282 19.3322 35.3344 19.5384 35.5874 19.5384C35.8404 19.5384 36.0466 19.3322 36.0466 19.0792C36.0466 18.7495 36.3145 18.4815 36.6442 18.4815C36.9739 18.4815 37.2419 18.7495 37.2419 19.0792ZM35.8245 28.1685C35.8245 29.0809 35.0824 29.823 34.1699 29.823C33.2575 29.823 32.5154 29.0809 32.5154 28.1685C32.5154 27.8388 32.7834 27.5709 33.1131 27.5709C33.4428 27.5709 33.7107 27.8388 33.7107 28.1685C33.7107 28.4215 33.9169 28.6277 34.1699 28.6277C34.423 28.6277 34.6291 28.4215 34.6291 28.1685C34.6291 27.8388 34.8971 27.5709 35.2268 27.5709C35.5565 27.5709 35.8245 27.8388 35.8245 28.1685ZM20.3073 23.6243C20.3073 24.5368 19.5652 25.2788 18.6528 25.2788C17.7404 25.2788 16.9983 24.5368 16.9983 23.6243C16.9983 23.2946 17.2662 23.0267 17.5959 23.0267C17.9256 23.0267 18.1936 23.2946 18.1936 23.6243C18.1936 23.8773 18.3998 24.0835 18.6528 24.0835C18.9058 24.0835 19.112 23.8773 19.112 23.6243C19.112 23.2946 19.3799 23.0267 19.7097 23.0267C20.0394 23.0267 20.3073 23.2936 20.3073 23.6243ZM15.4125 20.7347C14.5001 20.7347 13.758 19.9926 13.758 19.0802C13.758 18.7505 14.0259 18.4825 14.3556 18.4825C14.6854 18.4825 14.9533 18.7505 14.9533 19.0802C14.9533 19.3332 15.1595 19.5394 15.4125 19.5394C15.6655 19.5394 15.8717 19.3332 15.8717 19.0802C15.8717 18.7505 16.1397 18.4825 16.4694 18.4825C16.7991 18.4825 17.067 18.7505 17.067 19.0802C17.067 19.9916 16.3249 20.7347 15.4125 20.7347ZM18.4855 28.1685C18.4855 29.0809 17.7434 29.823 16.8309 29.823C15.9185 29.823 15.1764 29.0809 15.1764 28.1685C15.1764 27.8388 15.4444 27.5709 15.7741 27.5709C16.1038 27.5709 16.3717 27.8388 16.3717 28.1685C16.3717 28.4215 16.5779 28.6277 16.8309 28.6277C17.0839 28.6277 17.2901 28.4215 17.2901 28.1685C17.2901 27.8388 17.5581 27.5709 17.8878 27.5709C18.2175 27.5709 18.4855 27.8388 18.4855 28.1685Z" fill="#134A85"/>
</svg>
