<svg width="51" height="51" viewBox="0 0 51 51" fill="none" xmlns="http://www.w3.org/2000/svg">
<path d="M48.4102 17.9297C48.4102 11.741 46.6789 7.32687 43.1176 4.43541C39.4415 1.45081 33.6787 0 25.5 0C17.3213 0 11.5585 1.45081 7.88239 4.43541C4.32106 7.32687 2.58984 11.741 2.58984 17.9297C2.58984 23.3569 5.63779 28.3859 10.9751 31.8046L10.5366 35.9539C10.535 35.9691 10.5337 35.9845 10.5328 35.9998C10.3129 39.7222 11.6595 43.3292 14.3244 46.1563C17.2261 49.2345 21.2895 51 25.4725 51C29.8191 51 34.1468 49.0744 37.0493 45.8491C39.5913 43.0244 40.7843 39.5102 40.4084 35.9539L39.9734 31.8374C45.3414 28.418 48.4102 23.3704 48.4102 17.9297ZM44.9357 9.95865C43.9758 9.88992 42.8525 9.77108 41.4375 9.55612V5.64576C42.9695 6.78977 44.1252 8.21947 44.9357 9.95865ZM15.808 8.36002C14.1769 8.71971 12.7753 9.0015 11.5547 9.22263V4.42305C12.9764 3.70826 14.6318 3.15961 16.5352 2.76595V8.20881C16.2895 8.25682 16.0472 8.30722 15.808 8.36002ZM18.5273 2.4229C20.3257 2.16999 22.3146 2.03123 24.5039 1.99936V7.46542C22.3166 7.497 20.3372 7.63406 18.5273 7.8804V2.4229ZM26.4961 1.99936C28.6853 2.03123 30.6743 2.16999 32.4727 2.4229V7.8805C30.6629 7.63416 28.6835 7.497 26.4961 7.46552V1.99936ZM34.4648 2.76605C36.3682 3.15971 38.0236 3.70836 39.4453 4.42315V9.22263C38.2247 9.0014 36.8231 8.71971 35.192 8.36002C34.9528 8.30732 34.7105 8.25692 34.4648 8.20881V2.76605ZM9.5625 5.64576V9.55612C8.14745 9.77118 7.02415 9.89002 6.06422 9.95865C6.87484 8.21947 8.03051 6.78977 9.5625 5.64576ZM35.5684 44.5164C33.0376 47.3288 29.2634 49.0078 25.4725 49.0078C21.836 49.0078 18.3009 47.4703 15.774 44.7898C13.4948 42.3718 12.3397 39.3007 12.5201 36.1398L13.5138 26.7376C13.7868 24.1539 15.4785 22.6113 18.0391 22.6113C19.2051 22.6113 19.978 23.066 20.9566 23.6418C21.9079 24.2014 22.9645 24.823 24.4763 25.0303V37.5622C24.4763 38.1123 24.9223 38.5583 25.4724 38.5583C26.0226 38.5583 26.4685 38.1123 26.4685 37.5622V25.0293C27.4132 24.8983 28.1848 24.605 28.8474 24.276C28.9857 24.5396 29.1653 24.786 29.3849 25.0054C30.0675 25.6882 31.0092 25.9856 31.9221 25.8528C32.4741 26.5921 33.35 27.0477 34.3152 27.0477C35.2804 27.0477 36.1564 26.5921 36.7083 25.8528C36.9106 25.8821 37.1142 25.8904 37.316 25.878C37.3733 26.1386 37.4106 26.4104 37.4272 26.6918C37.4281 26.7072 37.4293 26.7225 37.431 26.7376L38.4271 36.1632C38.743 39.1505 37.7276 42.117 35.5684 44.5164ZM30.6133 17.7163C30.4124 17.3294 30.4848 16.8621 30.7937 16.5533C31.1024 16.2445 31.5699 16.172 31.9568 16.373C32.2179 16.5085 32.5254 16.5218 32.797 16.4092C33.0687 16.2968 33.2767 16.0699 33.3655 15.7896C33.497 15.3739 33.8788 15.0946 34.3154 15.0946C34.752 15.0946 35.1338 15.3739 35.2654 15.7896C35.3542 16.0699 35.5621 16.2968 35.8339 16.4092C36.1055 16.5218 36.413 16.5086 36.6741 16.373C37.0611 16.1722 37.5283 16.2446 37.8371 16.5534C38.1459 16.8622 38.2184 17.3295 38.0175 17.7164C37.882 17.9774 37.8687 18.285 37.9813 18.5566C38.0937 18.8284 38.3206 19.0363 38.6009 19.1252C39.0166 19.2567 39.2959 19.6385 39.2959 20.0752C39.2959 20.5119 39.0166 20.8936 38.6009 21.0251C38.3206 21.1139 38.0937 21.3219 37.9812 21.5937C37.8686 21.8655 37.8818 22.1729 38.0174 22.4339C38.2183 22.8208 38.1459 23.2882 37.837 23.597C37.5282 23.9058 37.0609 23.9783 36.6741 23.7774C36.4132 23.6419 36.1056 23.6285 35.8339 23.741C35.5621 23.8536 35.3541 24.0804 35.2653 24.3608C35.1338 24.7764 34.752 25.0557 34.3153 25.0557C33.8786 25.0557 33.4969 24.7764 33.3654 24.3608C33.2766 24.0805 33.0685 23.8536 32.7968 23.741C32.5254 23.6286 32.2178 23.6416 31.9566 23.7774C31.5698 23.9784 31.1024 23.9059 30.7935 23.597C30.4848 23.2882 30.4123 22.8208 30.6132 22.4339C30.7487 22.1729 30.7621 21.8654 30.6495 21.5937C30.5369 21.322 30.3101 21.1139 30.0297 21.0251C29.6141 20.8937 29.3348 20.5119 29.3348 20.0752C29.3348 19.6386 29.6141 19.2568 30.0297 19.1252C30.31 19.0364 30.5369 18.8284 30.6494 18.5566C30.7621 18.2849 30.7488 17.9774 30.6133 17.7163ZM39.7367 29.5973L39.4146 26.5503C39.3828 26.0396 39.3005 25.5474 39.1691 25.0793C39.195 25.0551 39.2205 25.0305 39.2457 25.0053C39.9283 24.3228 40.2256 23.3812 40.093 22.4681C40.8323 21.9162 41.288 21.0402 41.288 20.0749C41.288 19.1097 40.8324 18.2337 40.093 17.6817C40.2255 16.7686 39.9282 15.827 39.2457 15.1444C38.5632 14.4619 37.6215 14.1648 36.7084 14.2971C36.1564 13.5577 35.2805 13.1021 34.3152 13.1021C33.35 13.1021 32.4741 13.5577 31.9221 14.2971C31.0092 14.1645 30.0674 14.4619 29.3849 15.1444C28.7023 15.827 28.4051 16.7686 28.5376 17.6817C27.7983 18.2337 27.3426 19.1097 27.3426 20.0749C27.3426 20.9464 27.714 21.745 28.3302 22.2982C27.5315 22.7389 26.6859 23.094 25.4724 23.1092C23.948 23.0902 22.9856 22.524 21.9668 21.9245C20.9266 21.3127 19.7477 20.6191 18.0391 20.6191C14.4659 20.6191 11.912 22.9386 11.5327 26.5284L11.2121 29.5614C6.97883 26.5473 4.58203 22.3759 4.58203 17.9297C4.58203 15.6976 4.81771 13.7264 5.30988 11.9994C7.54252 11.8921 10.54 11.5618 16.2369 10.3055C18.8094 9.73821 21.9259 9.45054 25.4999 9.45054C29.0739 9.45054 32.1904 9.73821 34.763 10.3055C40.4598 11.5619 43.4573 11.8922 45.69 11.9995C46.1823 13.7264 46.418 15.6976 46.418 17.9297C46.418 22.3904 44.0009 26.5803 39.7367 29.5973Z" fill="#134A85"/>
<path d="M34.9307 19.6548C35.4809 19.6548 35.9268 19.2088 35.9268 18.6587C35.9268 18.1085 35.4809 17.6626 34.9307 17.6626H34.93C34.3799 17.6626 33.9342 18.1085 33.9342 18.6587C33.9342 19.2088 34.3807 19.6548 34.9307 19.6548Z" fill="#134A85"/>
<path d="M20.0914 29.1918C20.0914 28.6416 19.6455 28.1957 19.0953 28.1957H19.0946C18.5445 28.1957 18.0988 28.6416 18.0988 29.1918C18.0988 29.7419 18.5452 30.1879 19.0953 30.1879C19.6455 30.1879 20.0914 29.7419 20.0914 29.1918Z" fill="#134A85"/>
<path d="M20.6636 41.3939H20.6629C20.1127 41.3939 19.6671 41.8399 19.6671 42.39C19.6671 42.9402 20.1134 43.3861 20.6636 43.3861C21.2137 43.3861 21.6597 42.9402 21.6597 42.39C21.6597 41.8399 21.2137 41.3939 20.6636 41.3939Z" fill="#134A85"/>
<path d="M31.7949 31.9808H31.7942C31.2441 31.9808 30.7984 32.4268 30.7984 32.9769C30.7984 33.5271 31.2448 33.973 31.7949 33.973C32.3451 33.973 32.791 33.5271 32.791 32.9769C32.791 32.4268 32.3451 31.9808 31.7949 31.9808Z" fill="#134A85"/>
</svg>
