<svg width="51" height="51" viewBox="0 0 51 51" fill="none" xmlns="http://www.w3.org/2000/svg">
<path fill-rule="evenodd" clip-rule="evenodd" d="M2.0376 34.2386C1.9002 33.9328 1.8211 33.5844 1.8205 33.2102V33.209C1.8205 31.927 2.7472 30.9428 3.7817 30.9428H12.7613L10.8549 28.5875L10.8538 28.5861C10.1695 27.7364 10.1688 26.3465 10.851 25.4942C10.8514 25.4937 10.8519 25.4931 10.8523 25.4926C11.2453 25.0046 11.771 24.775 12.2895 24.775C12.808 24.775 13.3337 25.0046 13.7267 25.4926C13.7277 25.4938 13.7286 25.495 13.7296 25.4962C13.7296 25.4962 19.5157 32.7735 19.6878 32.9874C25.8204 31.4464 31.6336 31.1202 37.389 32.3313C38.4789 26.9465 40.4707 23.6688 43.0354 21.8519C44.8601 20.5593 46.9854 19.9902 49.3309 19.9554C49.5168 19.9526 49.6962 20.0239 49.8294 20.1535C49.9627 20.2832 50.0389 20.4605 50.0412 20.6464L50.1999 33.1703C50.2013 33.2782 50.1777 33.385 50.131 33.4823C47.0728 39.8492 43.2432 41.457 38.4283 43.2935C38.4192 43.297 38.41 43.3003 38.4007 43.3034C33.0778 45.0817 26.0799 44.5625 19.4306 43.3441C19.3841 43.3554 19.3446 43.3863 19.3056 43.4267C18.4346 44.328 17.3119 44.8617 16.0987 44.8617C16.0987 44.8617 5.6222 44.8691 5.6236 44.8691C4.5907 44.8718 3.6606 43.8874 3.6606 42.6047C3.6606 42.2695 3.7237 41.9549 3.8353 41.6731C3.0014 41.4337 2.3346 40.5622 2.3344 39.4746C2.3339 39.1557 2.3907 38.8552 2.4922 38.5838C1.5725 38.4317 0.801999 37.5112 0.799999 36.3427V36.3415C0.799999 35.3692 1.3309 34.5703 2.0376 34.2386ZM2.7603 37.2059L11.5823 37.2077C11.9686 37.2078 12.2822 37.5216 12.2821 37.9079C12.282 38.2943 11.9683 38.6078 11.5819 38.6077L4.2941 38.6059C4.1563 38.6059 4.0398 38.6922 3.9491 38.8051C3.8119 38.9759 3.734 39.2138 3.7344 39.4728V39.474C3.7344 39.7322 3.8125 39.9693 3.9497 40.1395C4.0405 40.2522 4.1571 40.3381 4.2949 40.3384H11.5828C11.9691 40.3388 12.2825 40.6527 12.2821 41.039C12.2818 41.4254 11.9678 41.7388 11.5815 41.7384C11.5815 41.7384 5.6456 41.7365 5.6221 41.7366C5.484 41.7369 5.3673 41.8234 5.2762 41.9366C5.1389 42.1075 5.0606 42.3454 5.0606 42.6047C5.0606 42.863 5.1391 43.1004 5.2765 43.2709C5.367 43.3832 5.4828 43.4694 5.6199 43.4691H5.6213L16.0977 43.4617H16.0982C16.9343 43.4617 17.6989 43.0748 18.2988 42.4539C18.6393 42.1015 19.026 41.9395 19.4697 41.9395C19.5123 41.9395 19.5547 41.9434 19.5966 41.9511C26.0218 43.135 32.7942 43.6954 37.9432 41.9802C42.3879 40.2846 45.9613 38.8295 48.798 33.0228L48.6505 21.3839C46.8761 21.5047 45.2554 21.9949 43.8447 22.9943C41.3922 24.7317 39.5962 27.97 38.6296 33.2955C38.5953 33.484 38.4853 33.6503 38.3252 33.7555C38.1651 33.8607 37.9688 33.8957 37.7822 33.8523C31.9211 32.4885 26.0099 32.8072 19.75 34.4161C19.693 34.4307 19.6345 34.4381 19.5757 34.4381C19.3418 34.4381 19.0244 34.3159 18.7292 34.0335C18.3989 33.7176 12.6352 26.3693 12.634 26.3678C12.537 26.2485 12.417 26.175 12.2895 26.175C12.1613 26.175 12.0407 26.2493 11.9434 26.3698C11.6487 26.7389 11.6481 27.34 11.944 27.7078L14.7815 31.2133C14.9102 31.3723 14.9629 31.5797 14.9258 31.7808C14.9258 31.7808 14.4407 34.3941 16.2094 36.3106C16.4714 36.5945 16.4537 37.0377 16.1698 37.2997C15.8858 37.5618 15.4426 37.544 15.1806 37.2601C13.6297 35.5796 13.4444 33.4768 13.4771 32.3428H3.7817C3.6436 32.3428 3.5271 32.4292 3.4362 32.5421C3.2989 32.7127 3.2206 32.9501 3.2205 33.2084C3.221 33.4675 3.2994 33.7052 3.4369 33.8757C3.5276 33.9881 3.6438 34.0738 3.7813 34.0734H3.7825L11.5815 34.0661C11.9678 34.0657 12.2818 34.3791 12.2821 34.7654C12.2825 35.1518 11.9691 35.4657 11.5828 35.4661C11.5828 35.4661 2.7623 35.4734 2.761 35.4734C2.6232 35.4746 2.5066 35.5607 2.4157 35.6737C2.2784 35.8444 2.2001 36.0819 2.2 36.3409C2.2006 36.5994 2.2791 36.8371 2.4166 37.0077C2.5072 37.12 2.623 37.2061 2.7603 37.2059ZM21.5017 36.4899L28.8975 35.9712C29.1509 35.9534 29.3942 36.0744 29.5329 36.2873C29.6716 36.5002 29.6841 36.7715 29.5655 36.9962L29.271 37.554L30.0508 38.4671C30.2243 38.6702 30.267 38.9544 30.161 39.1996C30.055 39.4448 29.8186 39.6082 29.5518 39.6209L21.7646 39.9912C21.5706 40.8429 20.8499 41.5142 19.9332 41.6032C18.7882 41.7144 17.7683 40.875 17.6571 39.73C17.6117 39.2624 17.7248 38.8156 17.9526 38.4431C17.6574 38.1214 17.4605 37.7047 17.4151 37.237C17.3039 36.092 18.1433 35.0721 19.2883 34.9609C20.3151 34.8612 21.2412 35.5259 21.5017 36.4899ZM27.7572 37.4546L20.9087 37.9349C20.6973 37.9497 20.4906 37.868 20.3465 37.7126C20.2024 37.5573 20.1364 37.345 20.1671 37.1353C20.175 37.0815 20.1764 37.0259 20.1709 36.9695C20.1344 36.5935 19.7996 36.3179 19.4236 36.3544C19.0476 36.3909 18.772 36.7258 18.8085 37.1017C18.835 37.374 19.018 37.5936 19.2597 37.6803C19.5144 37.7719 19.6936 38.0021 19.7198 38.2715C19.7459 38.5409 19.6144 38.8013 19.382 38.9401C19.1616 39.0717 19.0241 39.3224 19.0506 39.5947C19.0871 39.9706 19.422 40.2463 19.7979 40.2097C20.1739 40.1732 20.4495 39.8384 20.413 39.4624C20.4118 39.4501 20.4103 39.438 20.4085 39.4259C20.3791 39.2301 20.434 39.031 20.5596 38.8779C20.6852 38.7249 20.8697 38.6322 21.0675 38.6228L28.0588 38.2903L27.8979 38.1019C27.7434 37.9211 27.6934 37.6772 27.7572 37.4546ZM38.8801 34.5336C39.0598 33.6622 39.789 32.9704 40.7205 32.8799C41.8656 32.7687 42.8855 33.6081 42.9966 34.7531C43.0403 35.2027 42.9375 35.633 42.7272 35.9965C43.0035 36.3128 43.1872 36.7153 43.2308 37.1648C43.342 38.3098 42.5026 39.3297 41.3576 39.4409C40.5307 39.5212 39.7692 39.1056 39.3679 38.4372L31.9643 39.3885C31.7246 39.4193 31.486 39.3242 31.3331 39.1371L30.2777 37.8456C30.0981 37.6258 30.069 37.3194 30.204 37.0697L30.7489 36.0618C30.8532 35.8689 31.0418 35.7361 31.2585 35.7028L38.8801 34.5336ZM31.8149 37.0338L31.6586 37.3229L32.1713 37.9504L39.7173 36.9808C40.0749 36.9349 40.4089 37.1681 40.489 37.5197C40.5643 37.8502 40.876 38.0811 41.2223 38.0475C41.5983 38.011 41.8739 37.6761 41.8374 37.3001C41.8124 37.0434 41.6483 36.8337 41.4272 36.7377C41.1939 36.6364 41.0338 36.4165 41.0093 36.1633C40.9847 35.9101 41.0994 35.6635 41.3089 35.5192C41.5073 35.3825 41.6281 35.1451 41.6032 34.8884C41.5667 34.5125 41.2318 34.2369 40.8558 34.2734C40.4799 34.3099 40.2043 34.6448 40.2408 35.0207C40.2416 35.0292 40.2426 35.0377 40.2437 35.0461C40.2943 35.4241 40.033 35.7731 39.656 35.8309L31.8149 37.0338ZM24.9126 8.81173C24.7025 8.48753 24.795 8.05373 25.1192 7.84353C25.4434 7.63343 25.8772 7.72593 26.0874 8.05013C28.2992 11.4621 27.9314 15.0924 27.523 18.6615C27.1523 21.9014 26.7312 25.0877 28.7627 27.9401C28.9868 28.2548 28.9133 28.6922 28.5986 28.9164C28.2839 29.1405 27.8464 29.067 27.6223 28.7523C25.3745 25.5962 25.7219 22.0871 26.1321 18.5024C26.5046 15.2469 26.9301 11.9238 24.9126 8.81173ZM30.7603 12.5768C30.6207 12.2165 30.7998 11.8107 31.16 11.6711C31.5203 11.5315 31.9261 11.7106 32.0657 12.0709C33.5695 15.9516 32.5059 18.2435 31.4416 20.4677C30.5249 22.3835 29.5976 24.2404 30.964 27.3551C31.1192 27.7088 30.958 28.1221 30.6042 28.2773C30.2504 28.4325 29.8371 28.2713 29.6819 27.9175C28.0848 24.2771 29.1072 22.1027 30.1788 19.8634C31.1027 17.9325 32.0658 15.9458 30.7603 12.5768ZM18.2944 12.9453C18.0086 12.6854 17.9875 12.2423 18.2474 11.9564C18.5073 11.6706 18.9504 11.6495 19.2362 11.9094C22.2745 14.6718 22.5907 17.7116 22.861 20.6981C23.1011 23.3503 23.2887 25.9602 25.9478 28.1735C26.2448 28.4207 26.2852 28.8624 26.038 29.1594C25.7909 29.4563 25.3491 29.4967 25.0522 29.2496C22.0417 26.7438 21.7385 23.827 21.4667 20.8243C21.2252 18.1561 21.0089 15.4133 18.2944 12.9453Z" fill="#134A85"/>
</svg>
