<svg width="51" height="51" viewBox="0 0 51 51" fill="none" xmlns="http://www.w3.org/2000/svg">
<path d="M43.5047 25.906L44.6179 17.3718C44.7932 16.0277 44.5239 14.6632 43.851 13.4864C43.1782 12.3097 42.1388 11.3855 40.8914 10.8549C39.6441 10.3243 38.2574 10.2164 36.9431 10.5477C35.6287 10.879 34.4588 11.6313 33.612 12.6898L33.0146 13.4366C32.8858 13.599 32.6985 13.7046 32.4929 13.7307C32.2872 13.7568 32.0795 13.7014 31.9142 13.5763L30.6 12.5906C30.5013 12.5162 30.4211 12.4199 30.3658 12.3093C30.3105 12.1987 30.2815 12.0768 30.2812 11.9531V9.66799C30.2816 9.53046 30.3175 9.39534 30.3852 9.27566C30.453 9.15598 30.5505 9.05577 30.6682 8.98469L31.5574 8.45109C32.3815 7.95343 33.0636 7.25193 33.5379 6.41417C34.0123 5.57641 34.2629 4.63061 34.2656 3.66789V1.59375H32.6719V3.66789C32.6699 4.35556 32.4909 5.03113 32.1521 5.62954C31.8133 6.22794 31.326 6.72901 30.7374 7.08447L29.8482 7.61807C29.495 7.83135 29.2027 8.13199 28.9994 8.49103C28.7961 8.85006 28.6887 9.2554 28.6875 9.66799V11.9531C28.6884 12.3241 28.7752 12.6898 28.9411 13.0217C29.107 13.3535 29.3475 13.6423 29.6438 13.8656L30.958 14.8513C31.4539 15.2266 32.077 15.3928 32.694 15.3145C33.3109 15.2362 33.8727 14.9195 34.2591 14.4322L34.8566 13.6854C35.486 12.8986 36.3556 12.3394 37.3326 12.0931C38.3096 11.8468 39.3404 11.927 40.2676 12.3214C41.1948 12.7159 41.9674 13.4029 42.4676 14.2776C42.9677 15.1522 43.1679 16.1666 43.0376 17.1657L42.0047 25.084C40.3743 24.3276 38.6017 23.9268 36.8045 23.9081L36.6529 22.2404L35.0658 22.3846L35.2117 23.9895C33.6021 24.1716 32.0419 24.6591 30.615 25.4258L25.9075 23.7667C25.935 23.6825 25.9615 23.5979 25.986 23.5122L26.2662 22.5314L24.7338 22.0936L24.4535 23.0744C24.4379 23.129 24.4207 23.1828 24.4035 23.2366L24.1711 23.1547C24.0294 23.1047 23.8764 23.0959 23.7298 23.1292C23.5832 23.1624 23.449 23.2365 23.3428 23.3428C23.2365 23.449 23.1624 23.5832 23.1291 23.7298C23.0959 23.8764 23.1047 24.0294 23.1547 24.1711L23.4501 25.0092C22.9306 25.6575 22.2724 26.1813 21.524 26.542C20.7755 26.9028 19.9558 27.0913 19.125 27.0938V28.6875C20.9595 28.6835 22.7223 27.9743 24.0484 26.7066L24.4534 27.8559C24.1191 29.0118 23.4192 30.0283 22.4585 30.7528C21.4979 31.4774 20.3283 31.8712 19.125 31.875V33.4688C20.3499 33.4646 21.5533 33.1467 22.6204 32.5454C23.6876 31.9441 24.5829 31.0795 25.2211 30.034L25.4259 30.615C24.9271 31.542 24.5455 32.5275 24.2899 33.5488C24.0004 34.4528 23.4308 35.2412 22.6634 35.7998C21.896 36.3585 20.9707 36.6585 20.0215 36.6562V38.25C21.4412 38.2524 22.8168 37.7567 23.9087 36.8492C23.9175 37.4587 23.97 38.0667 24.0656 38.6686C23.7247 39.4872 23.1495 40.1868 22.4123 40.6794C21.675 41.1721 20.8086 41.4358 19.9219 41.4375V43.0312C20.8169 43.0296 21.7005 42.831 22.5101 42.4494C23.3197 42.0678 24.0354 41.5127 24.6063 40.8234C24.9223 41.734 25.341 42.6057 25.8541 43.4216C25.1582 44.2915 24.2762 44.9942 23.2729 45.4783C22.2696 45.9624 21.1706 46.2154 20.0566 46.2188H19.9219V47.8125H20.0566C21.3352 47.8085 22.5984 47.5339 23.7632 47.0066C24.928 46.4794 25.9679 45.7114 26.8146 44.7534C28.5374 46.8509 30.8851 48.3433 33.5156 49.0127C36.1461 49.6822 38.9216 49.4939 41.4375 48.4751V49.4062H43.0312V47.6947C44.9287 46.6 46.512 45.0346 47.6281 43.1496C48.7443 41.2647 49.3556 39.1238 49.4032 36.9337C49.4508 34.7436 48.933 32.5782 47.8998 30.6465C46.8666 28.7148 45.3529 27.0821 43.5047 25.906ZM36.6562 47.8125C34.699 47.812 32.7763 47.2966 31.0811 46.3183C29.386 45.3399 27.9779 43.9329 26.9983 42.2385C26.0187 40.544 25.502 38.6217 25.5 36.6644C25.498 34.7072 26.0109 32.7838 26.987 31.0874C27.0445 30.9878 27.0798 30.877 27.0904 30.7625C27.101 30.648 27.0866 30.5326 27.0484 30.4241L25.2241 25.2479C25.2295 25.239 25.2349 25.2302 25.2403 25.2213L30.4241 27.0484C30.5326 27.0867 30.648 27.101 30.7625 27.0904C30.877 27.0798 30.9879 27.0445 31.0875 26.987C32.57 26.1332 34.229 25.6318 35.9363 25.5215C37.6435 25.4113 39.3533 25.6951 40.9333 26.351C42.5134 27.007 43.9214 28.0176 45.0486 29.3045C46.1758 30.5915 46.9919 32.1205 47.4338 33.7733C47.8758 35.426 47.9317 37.1582 47.5973 38.836C47.263 40.5139 46.5472 42.0923 45.5054 43.4493C44.4637 44.8064 43.1238 45.9057 41.5894 46.6623C40.0549 47.4188 38.3671 47.8124 36.6562 47.8125Z" fill="#134A85"/>
<path d="M46.05 37.7596C45.9755 37.6642 45.8802 37.5869 45.7713 37.5338C45.6625 37.4807 45.543 37.4531 45.4219 37.4531H44.5866C44.4338 35.8045 43.804 34.236 42.7743 32.9394C41.7446 31.6429 40.3595 30.6743 38.7883 30.152L36.9083 29.5253C36.7447 29.4707 36.5678 29.4707 36.4042 29.5253L34.5243 30.152C32.9531 30.6742 31.568 31.6428 30.5382 32.9394C29.5085 34.236 28.8787 35.8045 28.7259 37.4531H27.8906C27.7695 37.4531 27.65 37.4807 27.5412 37.5338C27.4324 37.587 27.3371 37.6642 27.2625 37.7596C27.188 37.8551 27.1362 37.9663 27.1111 38.0847C27.086 38.2032 27.0882 38.3258 27.1176 38.4433L27.3109 39.2164C27.5255 40.0789 28.0227 40.8448 28.7233 41.3917C29.4238 41.9387 30.2874 42.2354 31.1762 42.2344H42.1363C43.0251 42.2354 43.8887 41.9387 44.5893 41.3917C45.2898 40.8448 45.7871 40.0789 46.0016 39.2164L46.1949 38.4433C46.2243 38.3258 46.2265 38.2032 46.2014 38.0847C46.1763 37.9663 46.1245 37.8551 46.05 37.7596ZM35.0283 31.6639L36.6563 31.1212L38.2843 31.6639C39.5381 32.0806 40.6467 32.8469 41.4796 33.8726C42.3124 34.8982 42.8348 36.1405 42.9852 37.4531H30.3273C30.4777 36.1405 31.0001 34.8982 31.833 33.8726C32.6659 32.8469 33.7745 32.0806 35.0283 31.6639ZM42.1363 40.6406H31.1762C30.6817 40.6412 30.1992 40.4882 29.7954 40.2027C29.3916 39.9172 29.0865 39.5133 28.9222 39.0469H44.3903C44.226 39.5133 43.9209 39.9172 43.5171 40.2027C43.1133 40.4882 42.6308 40.6412 42.1363 40.6406Z" fill="#134A85"/>
<path d="M35.8594 33.4688H34.2656V35.0625H35.8594V33.4688Z" fill="#134A85"/>
<path d="M39.0469 34.2656H37.4531V35.8594H39.0469V34.2656Z" fill="#134A85"/>
<path d="M12.5393 11.9531C13.2318 11.9515 13.9157 12.1065 14.5398 12.4064C15.1639 12.7064 15.7121 13.1436 16.1434 13.6854L16.7409 14.4322C17.1273 14.9195 17.6891 15.2363 18.306 15.3146C18.923 15.3929 19.5461 15.2266 20.042 14.8513L21.3562 13.8656C21.6525 13.6424 21.893 13.3535 22.0589 13.0217C22.2248 12.6899 22.3116 12.3241 22.3125 11.9531V9.66799C22.3113 9.25541 22.2039 8.85007 22.0006 8.49104C21.7973 8.13202 21.505 7.83139 21.1518 7.61813L20.2626 7.08448C19.674 6.72901 19.1867 6.22794 18.8479 5.62954C18.5091 5.03113 18.3301 4.35556 18.3281 3.66789V1.59375H16.7344V3.66789C16.7371 4.63061 16.9877 5.57641 17.4621 6.41417C17.9364 7.25193 18.6185 7.95343 19.4426 8.45109L20.3318 8.98469C20.4495 9.05577 20.547 9.15598 20.6148 9.27566C20.6825 9.39534 20.7184 9.53046 20.7188 9.66799V11.9531C20.7185 12.0768 20.6895 12.1987 20.6342 12.3093C20.5789 12.4199 20.4987 12.5162 20.4 12.5906L19.0858 13.5763C18.9205 13.7014 18.7128 13.7568 18.5072 13.7307C18.3015 13.7046 18.1142 13.5991 17.9854 13.4366L17.388 12.6898C16.5412 11.6313 15.3713 10.879 14.057 10.5477C12.7426 10.2164 11.3559 10.3243 10.1086 10.8549C8.86124 11.3855 7.82182 12.3097 7.14897 13.4864C6.47611 14.6631 6.20679 16.0277 6.38211 17.3718L7.96875 29.5362V49.4062H9.5625V29.4844C9.56251 29.4499 9.56027 29.4155 9.55579 29.3813L7.96243 17.1657C7.8775 16.5147 7.93245 15.853 8.1236 15.2249C8.31474 14.5968 8.63769 14.0167 9.07088 13.5233C9.50408 13.03 10.0375 12.6347 10.6356 12.3639C11.2338 12.0932 11.8828 11.9531 12.5393 11.9531Z" fill="#134A85"/>
<path d="M15.543 26.6879L15.9342 22.3846L14.3471 22.2404L12.7533 39.7716C12.7491 39.8176 12.7489 39.8639 12.7527 39.9099L13.5496 49.4724L15.1379 49.34L14.3468 39.8468L15.1627 30.8713L15.3318 31.4208C16.2621 34.4426 16.7348 37.5867 16.7344 40.7485V49.4062H18.3281V40.7485C18.3286 37.4278 17.8321 34.1258 16.8551 30.9521L15.543 26.6879Z" fill="#134A85"/>
<path d="M24.5896 16.3475L23.2229 15.5276C22.6421 16.5063 21.7427 17.2557 20.6753 17.6506C19.608 18.0454 18.4374 18.0616 17.3595 17.6966L14.5957 16.7753L14.0918 18.2873L16.8555 19.2085C18.2778 19.6827 19.8193 19.6576 21.2254 19.1374C22.6316 18.6173 23.8183 17.6331 24.5896 16.3475Z" fill="#134A85"/>
<path d="M20.7188 21.5156H19.125V23.1094H20.7188V21.5156Z" fill="#134A85"/>
<path d="M29.7746 19.1374C31.181 19.6557 32.7218 19.6808 34.1444 19.2085L36.9082 18.2873L36.4043 16.7753L33.6404 17.6966C32.5626 18.0617 31.392 18.0454 30.3246 17.6506C29.2572 17.2558 28.3579 16.5063 27.7771 15.5276L26.4104 16.3475C27.1832 17.6319 28.3694 18.6156 29.7746 19.1374Z" fill="#134A85"/>
<path d="M31.875 21.5156H30.2812V23.1094H31.875V21.5156Z" fill="#134A85"/>
</svg>
