<svg width="51" height="51" viewBox="0 0 51 51" fill="none" xmlns="http://www.w3.org/2000/svg">
<g clip-path="url(#clip0_1_503)">
<path fill-rule="evenodd" clip-rule="evenodd" d="M11.9881 30.1735C10.3235 30.1735 8.53361 29.6493 6.88388 28.5891C3.9196 26.684 1.89922 23.399 1.19638 19.3405C0.376795 14.6046 1.50128 9.54314 4.13187 6.13142C5.44263 4.43128 7.0304 3.18198 8.72277 2.51849C10.6701 1.75558 12.6733 1.76514 14.6767 2.54727C14.6815 2.54917 14.6863 2.55116 14.6902 2.55305C18.0908 3.96412 19.5116 7.60345 18.3093 11.8247C18.3083 11.8281 18.3074 11.8319 18.3059 11.8352C18.1028 12.5065 17.9357 13.1767 17.807 13.8277L16.4387 13.5574C16.5761 12.8631 16.7542 12.1501 16.9692 11.4376C18.1748 7.20202 16.311 4.73898 14.1624 3.84349C9.64594 2.08479 6.41571 5.45288 5.23654 6.98298C2.83685 10.0951 1.81565 14.7389 2.57089 19.1022C3.2066 22.7718 5.00554 25.724 7.63812 27.4159C10.5803 29.3066 13.9921 29.2293 15.7493 27.2321C17.0154 25.7936 17.34 23.9164 16.7134 21.6535C16.4863 20.8849 16.3178 20.0903 16.2122 19.2918L17.595 19.1088C17.6915 19.8382 17.8451 20.5631 18.0521 21.2646C18.0545 21.2685 18.0555 21.2722 18.0564 21.2756C19.0055 24.6984 17.895 26.9051 16.796 28.1534C15.6168 29.4944 13.8836 30.1732 11.9881 30.1732V30.1735Z" fill="#134A85"/>
<path fill-rule="evenodd" clip-rule="evenodd" d="M39.0121 30.1736C37.1175 30.1736 35.3843 29.4947 34.2036 28.1537C33.106 26.9054 31.9956 24.6987 32.9448 21.2759C32.9458 21.2726 32.9467 21.2688 32.9477 21.2649C33.1637 20.5351 33.3212 19.7789 33.4167 19.0189L34.8004 19.1927C34.6957 20.0258 34.5234 20.8535 34.2876 21.6539C33.6611 23.9167 33.9847 25.7935 35.2507 27.2324C37.0089 29.2297 40.4207 29.307 43.3628 27.4163C45.9944 25.7243 47.7943 22.7721 48.43 19.1025C49.1848 14.7392 48.164 10.0954 45.7644 6.9833C44.5847 5.4531 41.3545 2.08511 36.8375 3.84381C34.6899 4.7392 32.827 7.20274 34.0312 11.4379C34.2338 12.1087 34.4038 12.7799 34.5363 13.4328L33.1709 13.7117C33.0456 13.0986 32.8852 12.4673 32.6947 11.8354C32.6937 11.832 32.6928 11.8282 32.6918 11.8248C31.4886 7.60357 32.9087 3.96424 36.3105 2.55317C36.3148 2.55128 36.3196 2.54929 36.3234 2.54739C38.328 1.76526 40.3305 1.7557 42.277 2.51861C43.9703 3.18211 45.5581 4.43141 46.8694 6.13154C49.499 9.54326 50.6234 14.6047 49.8039 19.3406C49.1014 23.3991 47.0815 26.6841 44.1159 28.5893C42.4676 29.6494 40.6778 30.1737 39.0122 30.1737L39.0121 30.1736Z" fill="#134A85"/>
<path fill-rule="evenodd" clip-rule="evenodd" d="M25.3148 34.5087C24.7189 34.5087 24.1601 34.2787 23.7419 33.8606C23.3222 33.4419 23.0903 32.8816 23.0903 32.2838V24.9509C23.0903 21.2501 22.0523 18.368 20.0055 16.3846C18.7313 15.1516 17.0787 14.2605 15.0627 13.7165C13.9752 14.7772 12.3048 16.3424 6.75567 16.4149C6.37019 16.424 6.05423 16.1119 6.04944 15.7269C6.04417 15.3418 6.35196 15.0259 6.73745 15.0206C10.6701 14.9692 12.3597 14.1641 13.3794 13.3571C11.976 13.1286 10.4272 13.0407 8.73671 13.0949C8.35022 13.1073 8.02948 12.8049 8.01743 12.4198C8.00537 12.0352 8.30739 11.7131 8.69198 11.7011C10.3584 11.6478 11.9021 11.7265 13.3184 11.9368C12.4792 10.9396 11.5218 10.362 10.419 10.182C10.0387 10.1201 9.78191 9.76186 9.84337 9.38165C9.90532 9.00184 10.2639 8.74405 10.6432 8.80601C12.5387 9.11519 14.066 10.2719 15.3052 12.3388C17.6069 12.9408 19.5034 13.9577 20.9759 15.3832C23.3045 17.6393 24.4851 20.858 24.4851 24.9511V32.284C24.4851 32.5093 24.5715 32.7185 24.7271 32.8741C24.8827 33.0292 25.0915 33.1147 25.3157 33.1147H25.3176C25.8357 33.1147 26.1971 32.7733 26.1971 32.284V24.9511C26.1971 20.858 27.3782 17.6394 29.7073 15.3832C31.1798 13.9577 33.0753 12.9409 35.377 12.3393C36.6163 10.2719 38.144 9.11519 40.039 8.80601C40.4192 8.74405 40.7779 9.00194 40.8398 9.38165C40.9013 9.76186 40.6435 10.1201 40.2642 10.182C39.1613 10.362 38.2031 10.9396 37.3633 11.9368C38.7807 11.7266 40.3237 11.6474 41.9912 11.7011C42.3758 11.7131 42.6777 12.0352 42.6658 12.4198C42.6528 12.8049 42.3307 13.1064 41.9466 13.0949C40.2561 13.0411 38.7072 13.1285 37.3038 13.3571C38.3226 14.1637 40.0132 14.9693 43.9458 15.0206C44.3299 15.0259 44.6386 15.3419 44.6338 15.7269C44.6291 16.1119 44.3112 16.4206 43.9276 16.4149C38.3784 16.3424 36.708 14.7772 35.6201 13.7165C33.6031 14.2605 31.9505 15.1511 30.6778 16.3846C28.6296 18.3679 27.5921 21.2501 27.5921 24.9509V32.2838C27.5921 33.5317 26.5939 34.5087 25.3187 34.5087H25.3149H25.3148ZM27.5349 50.6019C27.9205 50.6019 28.2326 50.2898 28.2326 49.9042V47.5771C28.2326 46.7998 28.7117 46.1458 29.4526 45.9115C31.085 45.3944 32.4749 44.5796 33.4697 43.5546C34.5385 42.4537 35.1036 41.1627 35.1036 39.8212C35.1036 37.6779 33.6829 35.7196 31.2065 34.4477C30.5684 34.1197 30.2016 33.5201 30.2016 32.8028V25.1036C30.2016 22.7956 31.3684 20.9664 33.4022 20.0839C34.1502 19.7598 34.9481 19.5946 35.7331 19.5803C36.0558 21.0119 36.5671 23.1302 39.2145 24.2115C39.5712 24.3574 39.9774 24.1865 40.1238 23.8298C40.2693 23.4736 40.0979 23.0664 39.7411 22.921C37.9843 22.2027 37.498 20.9429 37.2003 19.7345C38.04 19.9323 38.8068 20.3174 39.4045 20.8767C39.6854 21.1397 40.1266 21.1254 40.3898 20.844C40.6528 20.5631 40.639 20.1219 40.3571 19.8588C39.7224 19.2644 38.9585 18.8221 38.1246 18.5408C39.1209 18.1673 40.3974 18.0876 41.8628 18.3219C42.2435 18.3824 42.6012 18.1241 42.6617 17.7439C42.7226 17.3636 42.4638 17.0059 42.0831 16.9449C39.5361 16.5373 37.4053 16.9752 36.0361 18.1784C34.9721 18.1543 33.8784 18.3578 32.8476 18.8049C30.2803 19.9183 28.8073 22.2142 28.8073 25.1036V32.8028C28.8073 34.0429 29.4665 35.1213 30.5694 35.6879C32.5643 36.713 33.7089 38.2191 33.7089 39.8213C33.7089 41.8143 31.8729 43.6829 29.0325 44.5822C27.6997 45.0038 26.8378 46.1795 26.8378 47.5772V49.2072H23.8448V47.5772C23.8448 46.1795 22.9839 45.0038 21.6511 44.5822C18.8102 43.6829 16.9747 41.8143 16.9747 39.8213C16.9747 38.2192 18.1183 36.713 20.1132 35.6879C21.217 35.1213 21.8753 34.043 21.8753 32.8028V25.1036C21.8753 22.2142 20.4033 19.9182 17.835 18.8049C16.8052 18.3578 15.7115 18.1543 14.6475 18.1784C13.2782 16.9752 11.1475 16.5378 8.59944 16.9449C8.22013 17.0058 7.96085 17.3635 8.02191 17.7439C8.08237 18.1241 8.44007 18.3825 8.81938 18.3219C10.2847 18.0876 11.5618 18.1673 12.5581 18.5408C11.7242 18.8221 10.9603 19.2644 10.3256 19.8588C10.0447 20.1218 10.0298 20.5631 10.2939 20.844C10.557 21.1254 10.9977 21.1397 11.2791 20.8767C11.8668 20.3264 12.6187 19.9447 13.4416 19.7441C13.0988 21.061 12.7243 22.1927 10.9416 22.9211C10.5849 23.0666 10.4144 23.4737 10.5599 23.8299C10.7053 24.1866 11.1125 24.3575 11.4692 24.2116C13.9985 23.1783 14.4695 21.3457 14.8487 19.8727C14.8746 19.7733 14.8996 19.6759 14.9245 19.5799C15.7177 19.5914 16.5253 19.7566 17.2805 20.084C19.3143 20.9664 20.481 22.7956 20.481 25.1037V32.8029C20.481 33.5202 20.1151 34.1198 19.4766 34.4478C17.0001 35.7196 15.58 37.678 15.58 39.8213C15.58 41.1627 16.1446 42.4538 17.2139 43.5547C18.2087 44.5798 19.5981 45.3945 21.23 45.9116C21.9709 46.1459 22.45 46.7998 22.45 47.5772V49.9043C22.45 50.2898 22.763 50.602 23.1476 50.602H27.535L27.5349 50.6019Z" fill="#2E3760"/>
<path fill-rule="evenodd" clip-rule="evenodd" d="M20.0445 12.8442C19.8275 12.8442 19.6119 12.7429 19.4765 12.5517C19.2523 12.2387 19.3253 11.8033 19.6392 11.579C21.5612 10.2068 22.5368 7.98343 22.5368 4.97114V1.09554C22.5368 0.710453 22.8494 0.398376 23.234 0.398376C23.6185 0.398376 23.9311 0.710453 23.9311 1.09554V4.97114C23.9311 8.45966 22.7601 11.0648 20.4488 12.7146C20.3264 12.8019 20.1847 12.8442 20.0445 12.8442ZM30.6388 12.8442C30.4982 12.8442 30.357 12.8019 30.2346 12.7146C27.9238 11.0648 26.7509 8.45976 26.7509 4.97114V1.09554C26.7509 0.710453 27.0638 0.398376 27.4485 0.398376C27.8332 0.398376 28.1456 0.710453 28.1456 1.09554V4.97114C28.1456 7.98343 29.1208 10.2068 31.0446 11.579C31.3581 11.8033 31.4306 12.2387 31.2064 12.5517C31.0705 12.7428 30.8559 12.8442 30.6389 12.8442H30.6388Z" fill="#2E3760"/>
</g>
<defs>
<clipPath id="clip0_1_503">
<rect width="51" height="51" fill="white"/>
</clipPath>
</defs>
</svg>
