<svg width="51" height="51" viewBox="0 0 51 51" fill="none" xmlns="http://www.w3.org/2000/svg">
<path d="M38.7402 21.7199L38.6254 21.691C38.5982 21.691 34.7692 21.1269 32.0121 20.6135C33.6185 18.7498 34.5687 16.1279 34.5687 13.0902C34.5687 7.00576 30.7551 2.59009 25.5005 2.59009C20.2459 2.59009 16.4323 7.00576 16.4323 13.0902C16.4323 16.1279 17.3832 18.7493 18.9889 20.6135C16.2386 21.1269 12.4023 21.6904 12.366 21.6904L12.2512 21.7194C9.72589 22.4038 7.08524 23.8977 5.63057 26.2668C5.56412 26.3651 5.52493 26.4298 5.51413 26.4469C5.49766 26.4753 5.48744 26.5042 5.47437 26.5332C4.87229 27.6067 4.50876 28.8501 4.50024 30.2718V47.454C4.50024 47.9788 4.92966 48.4082 5.45449 48.4082C5.97933 48.4082 6.40931 47.9788 6.40931 47.454V47.4443V30.273C6.40476 29.5351 6.52973 28.8728 6.7467 28.2775C8.09231 29.0267 10.566 30.273 12.1365 30.273C13.9263 30.273 15.9546 30.273 15.9546 27.4091C15.9546 27.0387 16.0563 26.5071 16.154 25.9936C16.3437 24.9996 16.5522 23.9068 16.2523 23.0263C17.436 22.8349 18.7282 22.6162 19.8108 22.4072C20.1556 22.3402 20.4902 22.2788 20.8179 22.2209C22.1607 23.099 23.7499 23.5915 25.5 23.5915C27.2511 23.5915 28.841 23.099 30.1843 22.2192C30.5359 22.2823 30.8739 22.3459 31.1891 22.4072C31.468 22.4612 31.7622 22.5157 32.0655 22.5708C30.0065 23.7761 27.2557 25.5812 26.5553 26.9831C25.6863 28.72 26.5383 32.9556 28.4252 34.3154C28.6973 34.5125 29.2062 34.7982 29.856 34.7982C30.4461 34.7982 31.1516 34.5631 31.9025 33.8122C33.1862 32.5285 34.7346 32.107 35.9791 31.7679C37.3315 31.3999 38.864 30.9824 38.864 29.3187C38.864 27.9805 39.3843 25.3114 39.6473 24.0493C41.6512 24.882 44.6139 26.7184 44.5912 30.2735V36.0104C44.5912 36.5358 45.0212 36.9652 45.546 36.9652C46.0708 36.9652 46.5002 36.5358 46.5002 36.0104V30.2735C46.4718 25.5091 42.4816 22.7315 38.7402 21.7199ZM35.477 29.9253C34.0916 30.3025 32.195 30.8194 30.5524 32.4615C29.9503 33.063 29.6947 32.8773 29.5407 32.7659C28.3888 31.9355 27.8123 28.7371 28.2627 27.8362C28.8023 26.757 32.3245 24.5458 34.8317 23.2115L37.7337 23.8704C37.4474 25.2666 36.9538 27.8896 36.9498 29.3766C36.8385 29.555 36.0188 29.7777 35.477 29.9253ZM25.5 21.6819C24.4168 21.6819 23.412 21.4337 22.5174 20.9804C22.0897 20.764 21.6875 20.5004 21.3143 20.1943C19.4774 18.6874 18.3408 16.1472 18.3408 13.0908C18.3408 8.1128 21.3518 4.49972 25.5 4.49972C29.6487 4.49972 32.6591 8.1128 32.6591 13.0908C32.6591 16.1478 31.5225 18.6879 29.6856 20.1948C29.3124 20.501 28.9103 20.7645 28.4826 20.9804C27.5879 21.4337 26.5831 21.6819 25.5 21.6819ZM14.2779 25.6358C14.1631 26.2373 14.045 26.8587 14.045 27.4091C14.045 28.3639 14.045 28.3639 12.1359 28.3639C11.1675 28.3639 9.20787 27.4556 7.74753 26.6502C8.58534 25.7028 10.3456 24.1589 13.2782 23.5722C14.1955 23.3876 14.404 23.5677 14.4057 23.5699C14.6306 23.792 14.3926 25.0376 14.2779 25.6358ZM46.5002 39.8279C46.5002 40.3533 46.0708 40.7827 45.546 40.7827C45.0212 40.7827 44.5912 40.3533 44.5912 39.8279C44.5912 39.3031 45.0212 38.8737 45.546 38.8737C46.0708 38.8731 46.5002 39.3031 46.5002 39.8279ZM46.5002 43.6461V47.4551C46.5002 47.9799 46.0708 48.4094 45.546 48.4094C45.0212 48.4094 44.5912 47.9799 44.5912 47.4551V43.6461C44.5912 43.1212 45.0212 42.6912 45.546 42.6912C46.0708 42.6918 46.5002 43.1212 46.5002 43.6461ZM40.773 34.0911V47.4551C40.773 47.9822 40.3459 48.4094 39.8182 48.4094C39.2906 48.4094 38.864 47.9822 38.864 47.4551V34.0911C38.864 33.564 39.2906 33.1368 39.8182 33.1368C40.3459 33.1368 40.773 33.564 40.773 34.0911ZM21.5262 38.3932C21.0366 36.9805 20.3652 35.0459 17.8637 35.0459C15.7428 35.0459 13.7814 36.4443 12.3495 37.4656C12.2813 37.5139 12.2092 37.5656 12.1359 37.6173V34.0911C12.1359 33.564 11.7094 33.1368 11.1817 33.1368C10.654 33.1368 10.2269 33.564 10.2269 34.0911V39.2219V45.3069V47.4545C10.2269 47.9816 10.654 48.4088 11.1817 48.4088C11.7094 48.4088 12.1359 47.9816 12.1359 47.4545V46.2612H19.7728C21.3371 46.2612 22.5952 45.4762 23.141 44.1612C23.7068 42.7958 23.3841 41.1241 22.3566 40.0977C21.9914 39.7319 21.7653 39.0821 21.5262 38.3932ZM12.1359 39.8938C12.5176 39.691 12.9414 39.3883 13.4583 39.0202C14.68 38.1483 16.3534 36.955 17.8637 36.955C18.9088 36.955 19.2031 37.5213 19.7233 39.0191C20.0216 39.8808 20.3311 40.7725 21.0065 41.4479C21.495 41.9364 21.6495 42.7702 21.3768 43.4314C21.1269 44.0346 20.5725 44.3527 19.7728 44.3527H12.1359V39.8938ZM31.2272 37.9092C29.0858 37.9092 27.409 39.1673 27.409 40.7731C27.409 42.3788 29.0858 43.637 31.2272 43.637C33.3685 43.637 35.0459 42.3788 35.0459 40.7731C35.0459 39.1673 33.3685 37.9092 31.2272 37.9092ZM31.2272 41.7279C30.0622 41.7279 29.3181 41.1627 29.3181 40.7731C29.3181 40.384 30.0622 39.8183 31.2272 39.8183C32.3927 39.8183 33.1362 40.3834 33.1362 40.7731C33.1362 41.1622 32.3927 41.7279 31.2272 41.7279Z" fill="#134A85"/>
</svg>
