<svg width="51" height="51" viewBox="0 0 51 51" fill="none" xmlns="http://www.w3.org/2000/svg">
<path d="M28.9481 47.1607C28.7614 46.7926 28.3118 46.6459 27.9439 46.8324C27.5759 47.0191 27.429 47.4687 27.6157 47.8367C28.4645 49.5099 29.3488 50.6613 29.386 50.7095C29.5331 50.9001 29.7541 50.9999 29.9775 50.9999C30.1369 50.9999 30.2975 50.9491 30.4334 50.8443C30.7599 50.5924 30.8205 50.1234 30.5688 49.7967C30.5605 49.7858 29.7298 48.7011 28.9481 47.1607Z" fill="#134A85"/>
<path d="M32.9503 30.4864L34.0095 30.1352C35.4674 29.6518 36.5205 28.4087 36.7577 26.891L37.2344 23.8402C37.3485 23.1102 37.1383 22.3695 36.6579 21.8081C36.3377 21.434 35.9202 21.1671 35.4588 21.03C35.3839 20.062 35.1412 19.1154 34.7497 18.2353V17.5512C34.7497 15.0558 34.0777 12.6102 32.8065 10.4787C32.5952 10.1244 32.1366 10.0086 31.7822 10.2197C31.4278 10.4311 31.3119 10.8897 31.5232 11.244C32.3619 12.6502 32.9071 14.2104 33.1343 15.8285C33.0906 15.7831 33.0482 15.7364 33.0035 15.692C30.7387 13.445 26.8041 10.7664 20.9217 10.7664C15.0393 10.7664 11.1047 13.445 8.83987 15.692C8.79514 15.7364 8.75291 15.783 8.70918 15.8284C9.54978 9.84031 14.7057 5.21754 20.9219 5.21754C24.1337 5.21754 27.175 6.44532 29.4856 8.67468C29.7824 8.96106 30.2554 8.95269 30.542 8.65576C30.8284 8.35882 30.82 7.88587 30.523 7.5994C29.7855 6.88779 28.9815 6.26762 28.1257 5.74397C27.3672 2.39521 24.3921 0 20.9216 0C17.4475 0 14.4696 2.40009 13.7149 5.75443C9.74691 8.18759 7.09411 12.5652 7.09411 17.5512V18.2342C6.70225 19.1146 6.4595 20.0616 6.3845 21.03C5.92301 21.1671 5.50544 21.434 5.1853 21.8081C4.70488 22.3695 4.49471 23.1102 4.60876 23.8402L5.08549 26.891C5.32266 28.4087 6.37573 29.6518 7.83371 30.1352L8.89415 30.4868C9.05662 31.8725 9.3932 33.2303 9.89951 34.5247C10.0149 34.8196 10.2969 34.9998 10.5955 34.9998C10.686 34.9998 10.7781 34.9832 10.8674 34.9483C11.2516 34.798 11.4414 34.3647 11.2911 33.9804C10.8114 32.7544 10.4976 31.4658 10.358 30.1507L9.49111 21.966C10.4795 21.1034 14.4066 18.0837 20.9215 18.0837C27.4375 18.0837 31.3649 21.1045 32.3517 21.9656L31.4855 30.1505C31.3928 31.0256 31.2245 31.8826 30.9827 32.717C30.7205 32.7447 30.481 32.9105 30.3717 33.1707C30.2483 33.4648 30.3277 33.7925 30.5454 34.0002C30.391 34.3933 30.2189 34.7805 30.0301 35.1613C29.8827 35.1323 29.7306 35.1168 29.575 35.1168C29.1624 35.1168 28.8279 35.4513 28.8279 35.8639C28.8279 36.2764 29.1624 36.6109 29.575 36.6109C30.0507 36.6109 30.4379 36.998 30.4379 37.4738C30.4379 37.9497 30.0508 38.3368 29.575 38.3368C29.0991 38.3368 28.712 37.9497 28.712 37.4738C28.712 37.0613 28.3775 36.7268 27.965 36.7268C27.5524 36.7268 27.2179 37.0613 27.2179 37.4738C27.2179 37.9273 27.3469 38.3509 27.5696 38.7107C27.2623 39.0389 26.941 39.3542 26.6083 39.6511C26.3452 39.5468 26.0342 39.5966 25.8164 39.805C25.6129 39.9996 25.5437 40.2816 25.6107 40.5359L23.7303 42.2019C23.3452 42.5432 22.9055 42.809 22.424 42.9918C21.9422 43.1744 21.4367 43.267 20.9217 43.267C19.8866 43.267 18.8887 42.8886 18.1121 42.2019L15.2651 39.6786C14.3436 38.8624 13.526 37.9321 12.835 36.9137C12.6033 36.5722 12.1386 36.4832 11.7974 36.715C11.4559 36.9467 11.367 37.4113 11.5986 37.7526C12.3596 38.8741 13.2598 39.8983 14.2743 40.7969L14.4186 40.9248C14.3722 42.0104 14.2259 43.7277 13.7729 45.0858C12.9226 47.6369 11.298 49.7649 11.2742 49.7959C11.0221 50.1224 11.0823 50.5914 11.4087 50.8437C11.5447 50.9488 11.7054 50.9997 11.865 50.9997C12.0884 50.9997 12.3095 50.8999 12.4567 50.7093C12.5297 50.6148 14.2555 48.3631 15.1904 45.5584C15.5493 44.4824 15.7356 43.2326 15.8319 42.1775L17.1217 43.3206C18.1722 44.2496 19.5217 44.7611 20.9216 44.7611C21.6182 44.7611 22.3017 44.6359 22.9538 44.3887C23.6055 44.1413 24.2001 43.7818 24.7211 43.3201L26.0105 42.1777C26.0743 42.8789 26.1761 43.6474 26.3384 44.3955C26.4143 44.7453 26.7238 44.9843 27.0678 44.9843C27.1203 44.9843 27.1736 44.9787 27.227 44.9672C27.6302 44.8797 27.8862 44.4819 27.7986 44.0786C27.5512 42.9385 27.459 41.7147 27.4245 40.9248L27.5693 40.7965C27.9688 40.4419 28.3536 40.0639 28.7193 39.6692C28.9847 39.773 29.273 39.8306 29.5748 39.8306C30.8744 39.8306 31.9318 38.7732 31.9318 37.4735C31.9318 36.8703 31.7037 36.3195 31.3296 35.9021C32.1845 34.2019 32.7288 32.3837 32.9503 30.4864ZM20.9216 1.49414C23.2125 1.49414 25.2319 2.80261 26.2037 4.76691C24.5485 4.08299 22.7602 3.7234 20.9218 3.7234C19.0504 3.7234 17.265 4.09783 15.6356 4.77448C16.6061 2.806 18.6278 1.49414 20.9216 1.49414ZM35.7581 23.6096L35.2814 26.6603C35.1311 27.6225 34.4635 28.4106 33.5391 28.7171L33.1251 28.8543L33.8062 22.4189H34.7389C35.0407 22.4189 35.3263 22.5504 35.5225 22.7797C35.7189 23.0089 35.8047 23.3115 35.7581 23.6096ZM6.5618 26.6604L6.08507 23.6096C6.03845 23.3115 6.12432 23.009 6.32055 22.7797C6.51678 22.5505 6.80236 22.4189 7.10417 22.4189H8.03662L8.71834 28.8544L8.30407 28.7171C7.37969 28.4106 6.71211 27.6225 6.5618 26.6604ZM8.41005 20.9247H7.89208C8.06391 19.3539 8.77153 17.8644 9.89214 16.7527C11.9576 14.7034 15.5479 12.2606 20.9216 12.2606C26.2953 12.2606 29.8855 14.7034 31.951 16.7527C33.0716 17.8644 33.7793 19.3539 33.9511 20.9247H33.4332C32.4112 19.994 28.1763 16.5896 20.9216 16.5896C13.6668 16.5896 9.43204 19.994 8.41005 20.9247Z" fill="#134A85"/>
<path d="M24.4088 37.6836C24.4177 37.8402 24.4341 37.998 24.4576 38.1525C24.5138 38.5224 24.8323 38.7875 25.1953 38.7875C25.2327 38.7875 25.2704 38.7847 25.3085 38.7789C25.7164 38.7168 25.9968 38.3359 25.9348 37.928C25.9183 37.8196 25.9068 37.7087 25.9005 37.5986C25.877 37.1867 25.5236 36.8718 25.1121 36.8953C24.7002 36.9187 24.3853 37.2717 24.4088 37.6836Z" fill="#134A85"/>
<path d="M28.1091 34.0811C28.1849 34.0811 28.2621 34.0695 28.3381 34.0451C28.4427 34.0114 28.55 33.9824 28.6572 33.9588C29.0601 33.87 29.3149 33.4715 29.2262 33.0686C29.1374 32.6656 28.7389 32.4108 28.336 32.4996C28.1829 32.5333 28.0297 32.5747 27.8804 32.6227C27.4876 32.7491 27.2717 33.17 27.3981 33.5627C27.5 33.8794 27.7933 34.0811 28.1091 34.0811Z" fill="#134A85"/>
<path d="M25.3928 35.7863C25.5155 35.8625 25.6516 35.8988 25.7862 35.8988C26.036 35.8988 26.2801 35.7736 26.4215 35.5458C26.4796 35.4524 26.5428 35.3605 26.6094 35.2728C26.8588 34.9442 26.7947 34.4755 26.4661 34.2261C26.1375 33.9766 25.6688 34.0407 25.4194 34.3694C25.3246 34.4941 25.2348 34.6247 25.1523 34.7575C24.9347 35.1079 25.0423 35.5685 25.3928 35.7863Z" fill="#134A85"/>
<path d="M33.5245 40.3668C33.2328 40.075 32.7597 40.075 32.468 40.3668C32.1762 40.6585 32.1762 41.1315 32.468 41.4232L33.2729 42.2283C33.4188 42.3741 33.61 42.4471 33.8012 42.4471C33.9924 42.4471 34.1836 42.3742 34.3295 42.2283C34.6212 41.9365 34.6212 41.4636 34.3295 41.1718L33.5245 40.3668Z" fill="#134A85"/>
<path d="M35.5516 36.7268H34.4132C34.0006 36.7268 33.6661 37.0613 33.6661 37.4739C33.6661 37.8865 34.0006 38.2209 34.4132 38.2209H35.5516C35.9642 38.2209 36.2987 37.8865 36.2987 37.4739C36.2987 37.0613 35.9642 36.7268 35.5516 36.7268Z" fill="#134A85"/>
<path d="M29.5751 44.1978C29.9877 44.1978 30.3221 43.8633 30.3221 43.4507V42.3123C30.3221 41.8997 29.9877 41.5652 29.5751 41.5652C29.1625 41.5652 28.828 41.8997 28.828 42.3123V43.4507C28.828 43.8633 29.1625 44.1978 29.5751 44.1978Z" fill="#134A85"/>
<path d="M46.2027 23.9415C45.9109 23.6497 45.4379 23.6497 45.1462 23.9415L38.9295 30.1582C38.4946 30.0347 37.9604 30.0607 37.3623 30.241C36.6626 30.452 35.9702 30.8406 35.5556 31.2553C35.1105 31.7004 34.8652 32.2924 34.8652 32.922C34.8652 33.5515 35.1104 34.1435 35.5556 34.5886C36.0151 35.048 36.6187 35.2778 37.2223 35.2778C37.8259 35.2778 38.4295 35.048 38.889 34.5886C39.5731 33.9044 40.3024 32.332 39.986 31.2148L46.2027 24.998C46.4944 24.7063 46.4944 24.2332 46.2027 23.9415ZM37.8324 33.5322C37.4959 33.8685 36.9485 33.8685 36.6122 33.5322C36.2774 33.211 36.2775 32.633 36.6122 32.3118C37.0479 31.8763 37.9378 31.568 38.3609 31.568C38.4398 31.568 38.5025 31.5787 38.543 31.6013C38.6867 31.8587 38.3493 33.0152 37.8324 33.5322Z" fill="#134A85"/>
</svg>
