<svg width="75" height="75" viewBox="0 0 75 75" fill="none" xmlns="http://www.w3.org/2000/svg">
<g clip-path="url(#clip0_1_186)">
<path d="M59.2135 17.7564C61.2192 22.4468 61.1472 27.5348 58.9938 33.3113C55.433 42.8615 57.0467 64.8116 57.9057 73.8054C57.9594 74.3682 57.5468 74.868 56.984 74.9218C56.9509 74.9249 56.9181 74.9265 56.8854 74.9265C56.3639 74.9265 55.9182 74.5298 55.8676 74.0001C54.9952 64.8652 53.3663 42.5445 57.0754 32.5958C61.3346 21.1715 56.0809 14.9558 50.3348 9.56836C47.9157 7.30122 45.2179 4.69585 42.3165 1.82432C41.9147 1.42676 41.9113 0.778566 42.3091 0.376759C42.7068 -0.0251937 43.3548 -0.0284164 43.7568 0.369142C46.645 3.22764 49.3293 5.82012 51.735 8.07466C54.4315 10.6031 57.4554 13.6444 59.2135 17.7564ZM24.9161 32.3924L1.68352 16.1553C1.22019 15.8313 0.581953 15.9447 0.258076 16.408C-0.0658008 16.8713 0.0472852 17.5096 0.510762 17.8334L23.2993 33.7603L22.8045 73.8904C22.7975 74.4557 23.2501 74.9194 23.8154 74.9265C23.8198 74.9265 23.824 74.9266 23.8283 74.9266C24.3877 74.9265 24.8446 74.4766 24.8515 73.9154L25.3529 33.2439C25.3574 32.9054 25.1937 32.5865 24.9161 32.3924ZM5.47321 1.95147L34.6265 21.1876C34.5972 21.4881 34.5824 21.7904 34.5824 22.0919C34.5824 26.7924 38.0553 30.6166 42.3238 30.6166C46.5947 30.6166 50.0694 26.7924 50.0694 22.0919C50.0694 19.6639 49.0662 17.2488 47.3861 15.6316C45.9901 14.2879 44.2696 13.5779 42.392 13.5667L22.2038 0.242726C21.7321 -0.0688461 21.0969 0.0613785 20.7857 0.533205C20.4744 1.00503 20.6043 1.64004 21.0761 1.95132L41.5279 15.449C41.7063 15.5666 41.916 15.6278 42.1308 15.6174C43.9519 15.5489 45.2207 16.3887 45.9662 17.1063C47.2535 18.3454 48.0221 20.209 48.0221 22.0916C48.0221 25.6632 45.4658 28.5688 42.3237 28.5688C39.184 28.5688 36.6296 25.6632 36.6296 22.0916C36.6296 21.6794 36.665 21.2654 36.7349 20.8608C36.8042 20.4601 36.6294 20.0563 36.2899 19.8324L6.6007 0.242726C6.12888 -0.0688461 5.49387 0.0613785 5.18259 0.533205C4.87131 1.00503 5.00139 1.64019 5.47321 1.95147ZM54.9616 28.5126C54.6129 28.5126 54.1656 28.4152 53.6885 28.0629C52.6284 27.2796 51.7714 25.4276 51.4517 23.2295C51.0526 20.4835 51.5418 17.3856 53.5593 17.0729C53.9276 17.0156 54.496 17.0436 55.1141 17.5002C56.1725 18.2821 57.0285 20.1343 57.3483 22.3342C57.7517 25.079 57.2657 28.1777 55.2448 28.4909C55.1604 28.504 55.0653 28.5126 54.9616 28.5126ZM54.929 26.4376C55.202 26.1297 55.6366 24.7666 55.3227 22.6301C55.0154 20.5157 54.2206 19.3437 53.8752 19.1262C53.6023 19.4345 53.1671 20.7977 53.4778 22.9351C53.7851 25.0494 54.5828 26.2211 54.929 26.4376ZM47.3405 32.2245C46.3279 32.2147 45.0536 32.3165 44.188 33.2063C43.7061 33.7025 43.2867 33.9647 42.9754 33.9647C42.975 33.9647 42.9747 33.9647 42.9742 33.9647C42.7489 33.9642 42.4897 33.8133 42.2027 33.5155C41.4763 32.7624 40.4529 32.3947 39.3206 32.4828C37.9736 32.5865 36.7027 33.3105 35.9209 34.42C35.1631 35.4965 34.9998 36.8667 35.4143 38.1709C33.2351 38.7721 31.6607 40.4599 31.6607 42.444C31.6607 43.5098 32.111 44.5255 32.9348 45.3321C33.6804 47.563 33.9445 49.8147 34.1844 52.3027V73.9028C34.1844 74.4683 34.6428 74.9265 35.2081 74.9265C35.7734 74.9265 36.2317 74.4681 36.2317 73.9028V52.2535C36.2317 52.2208 36.2301 52.1881 36.227 52.1555C35.9644 49.4249 35.6748 46.9579 34.7859 44.4183C34.7272 44.2506 34.6259 44.101 34.4919 43.9844C33.9864 43.5442 33.7079 42.9971 33.7079 42.4439C33.7079 41.1095 35.2926 39.9823 37.1683 39.9823C39.0441 39.9823 40.6287 41.1095 40.6287 42.4439C40.6287 42.9996 40.3511 43.546 39.8469 43.9824C39.7117 44.0993 39.6096 44.2497 39.5506 44.4183C38.6619 46.9582 38.3721 49.425 38.1096 52.1555C38.1066 52.188 38.105 52.2207 38.105 52.2535V73.903C38.105 74.4684 38.5633 74.9266 39.1286 74.9266C39.6939 74.9266 40.1522 74.4683 40.1522 73.903V52.3025C40.3571 50.1769 40.581 48.2237 41.1066 46.3083C44.2596 54.3582 44.4716 67.8476 43.615 73.7561C43.5338 74.3156 43.9217 74.8349 44.4811 74.9159C44.5309 74.9232 44.5804 74.9268 44.6294 74.9268C45.1296 74.9268 45.5673 74.5594 45.6411 74.0499C46.5277 67.9349 46.4418 52.5485 42.3391 44.0071C42.5601 43.5136 42.6761 42.9857 42.6761 42.444C42.6761 40.0553 40.3951 38.0956 37.5228 37.9455C37.1266 37.1231 37.1431 36.2408 37.595 35.5988C38.0223 34.9923 38.7439 34.5806 39.4779 34.524C39.7747 34.5013 40.3315 34.5245 40.7288 34.9362C41.4148 35.6484 42.1689 36.0103 42.97 36.012H42.9756C43.8782 36.012 44.7552 35.5607 45.6561 34.6332C46.0205 34.2584 46.9977 34.2672 47.3245 34.2718C47.8769 34.2747 48.3155 34.4726 48.7049 34.8948C51.3621 37.7767 50.5158 48.942 49.8359 57.9136C49.3331 64.5463 48.8582 70.8113 49.6188 74.1316C49.7273 74.6058 50.1489 74.9269 50.6156 74.9269C50.6913 74.9269 50.7681 74.9186 50.845 74.901C51.3961 74.7747 51.7404 74.2257 51.6142 73.6746C50.9231 70.6569 51.3865 64.5422 51.8771 58.0685C52.6605 47.7321 53.4707 37.0437 50.2098 33.5073C49.4308 32.6621 48.4637 32.2305 47.3405 32.2245ZM60.024 10.4052C60.1917 10.5091 60.3778 10.5586 60.5616 10.5586C60.9044 10.5584 61.2394 10.3863 61.433 10.0734L64.0681 5.81499L65.737 7.03023C65.966 7.19678 66.254 7.26123 66.5323 7.20791C66.8106 7.15459 67.0542 6.98833 67.2055 6.74868L70.4257 1.64297C70.7272 1.1647 70.5841 0.532619 70.1059 0.231154C69.6279 -0.070311 68.9957 0.0729508 68.6941 0.550783L66.0578 4.73101L64.3813 3.51021C64.151 3.34248 63.8614 3.27861 63.5818 3.33311C63.3023 3.38789 63.0581 3.55679 62.9083 3.79893L59.6924 8.9959C59.3947 9.47681 59.5432 10.1077 60.024 10.4052ZM62.6242 16.5365L66.5471 13.4254L67.7058 15.1324C67.8647 15.3665 68.1137 15.5244 68.3932 15.5687C68.6729 15.6133 68.9584 15.5389 69.1818 15.365L73.9435 11.6559C74.3894 11.3086 74.4694 10.6654 74.1219 10.2193C73.7746 9.77315 73.1314 9.69331 72.6854 10.0409L68.7858 13.0784L67.6217 11.3634C67.4619 11.128 67.2111 10.9696 66.9297 10.9266C66.648 10.8834 66.3616 10.9595 66.1387 11.1365L61.352 14.9326C60.9091 15.2839 60.8348 15.9277 61.1861 16.3707C61.3882 16.6255 61.687 16.7583 61.9888 16.7583C62.2117 16.7583 62.4362 16.6857 62.6242 16.5365ZM74.532 39.2411L69.7703 35.532C69.5469 35.3581 69.2614 35.2837 68.9818 35.3284C68.7022 35.3725 68.4533 35.5304 68.2944 35.7646L67.1357 37.4716L63.2128 34.3605C62.77 34.0091 62.126 34.0833 61.7748 34.5265C61.4235 34.9693 61.4978 35.6133 61.9407 35.9646L66.7273 39.7607C66.9502 39.9377 67.237 40.0131 67.5183 39.9706C67.7997 39.9275 68.0505 39.7692 68.2103 39.5338L69.3744 37.8188L73.2738 40.8563C73.4607 41.0019 73.6822 41.0725 73.9021 41.0725C74.2068 41.0725 74.5085 40.9368 74.7104 40.6778C75.0578 40.2318 74.9778 39.5886 74.532 39.2411ZM68.9818 27.4337C68.7022 27.4778 68.4533 27.6357 68.2944 27.87L67.1357 29.577L63.2128 26.4659C62.77 26.1145 62.126 26.1886 61.7748 26.6319C61.4235 27.0747 61.4978 27.7187 61.9407 28.0699L66.7273 31.8661C66.9502 32.0432 67.237 32.1188 67.5183 32.076C67.7997 32.0329 68.0505 31.8746 68.2103 31.6392L69.3744 29.9241L73.2738 32.9616C73.4607 33.1072 73.6822 33.1778 73.9021 33.1778C74.2068 33.1778 74.5085 33.0422 74.7104 32.7832C75.0578 32.3372 74.9778 31.6939 74.532 31.3466L69.7703 27.6375C69.5468 27.4635 69.2614 27.3891 68.9818 27.4337Z" fill="#233877"/>
</g>
<defs>
<clipPath id="clip0_1_186">
<rect width="75" height="75" fill="white"/>
</clipPath>
</defs>
</svg>
