<svg width="75" height="75" viewBox="0 0 75 75" fill="none" xmlns="http://www.w3.org/2000/svg">
<path d="M59.3048 4.88878C49.7641 -0.993614 39.0931 -0.507821 31.8229 0.932606C21.3188 3.02573 14.5461 7.89684 11.6928 15.4174C11.2492 16.5871 10.9084 17.7789 10.5789 18.9323C10.3495 19.731 10.1203 20.5321 9.85713 21.3221C9.68136 21.7911 9.47593 22.2485 9.24187 22.692C8.48211 23.8954 8.1018 25.2944 8.14922 26.7113C8.40282 27.8154 9.0498 28.7929 9.9724 29.4659C10.5863 30.0222 10.9887 30.4117 10.9924 30.7665C10.9395 30.9677 10.8586 31.1608 10.7518 31.3401C10.5505 31.6908 10.406 32.0704 10.3234 32.4651C10.1527 33.948 9.53849 35.3471 8.55906 36.4844C4.62578 40.6707 3.50303 42.1123 3.63959 43.6057C3.85354 44.6445 4.5224 45.5367 5.46659 46.0425C5.88009 46.3246 6.31636 46.5726 6.77098 46.7843C7.30974 47.0576 8.21325 47.5125 8.27463 47.8389C8.35671 48.2573 8.30855 48.6904 8.13674 49.0814C7.95011 49.4684 7.76083 49.8034 7.59299 50.0927C7.10563 50.9471 6.36746 52.239 7.52412 53.1996C7.79358 53.4357 8.25715 53.7943 8.67947 54.1157C8.36655 54.6587 8.22602 55.282 8.27595 55.9047C8.34276 56.3884 8.60884 56.8237 9.01147 57.1076C9.29209 57.3043 9.58915 57.4786 9.88855 57.6417C10.6229 58.0559 10.9098 58.2499 11.0088 58.6308C11.1026 59.0978 11.0664 59.5809 10.9035 60.0291C10.4869 61.4815 10.5573 63.028 11.104 64.4379C11.7452 66.7889 14.1455 68.2281 16.556 67.7067C20.1242 66.8565 23.643 65.8157 27.0965 64.5887C28.8271 65.6062 30.4698 68.0789 31.6539 71.48C32.1759 72.9836 33.6067 73.9954 35.2176 73.9997H60.4864C61.787 73.9985 62.9946 73.3343 63.6793 72.2431C64.364 71.152 64.4283 69.7894 63.8496 68.6402C62.2856 65.2054 61.3116 61.5379 60.9676 57.7876C60.5231 54.0892 61.0854 50.3406 62.5965 46.9276C63.498 45.0809 64.61 43.3417 65.9108 41.7437C66.6326 40.7831 67.3782 39.7878 68.0497 38.7468C70.1933 35.2787 71.335 31.2985 71.3514 27.2365C71.7128 18.1895 67.1099 9.65065 59.3048 4.88878ZM68.8503 27.1182C68.8612 30.75 67.8534 34.3141 65.9383 37.4156C65.3117 38.3824 64.6276 39.2998 63.8996 40.2691C62.4837 42.0161 61.2765 43.9181 60.3021 45.9376C58.6111 49.7531 57.9817 53.9444 58.4789 58.0797C58.8541 62.1151 59.913 66.0598 61.6115 69.7494C61.8006 70.1323 61.7765 70.5845 61.5479 70.9459C61.3193 71.3072 60.9181 71.5268 60.4862 71.5273H35.2174C34.6754 71.5226 34.1963 71.179 34.0245 70.6717C33.2091 68.0469 31.8028 65.6378 29.9107 63.6246L30.848 63.2995C31.7728 62.9793 32.4708 62.7382 32.8216 62.6281C38.1808 60.964 40.8623 58.5556 40.7884 55.4673C40.7721 54.7845 40.198 54.2439 39.5059 54.26C38.8139 54.2761 38.266 54.8426 38.2823 55.5254C38.3124 56.8001 37.2585 58.6582 32.0659 60.2704C31.7 60.383 30.9758 60.6351 30.0172 60.9665C29.1163 61.2793 28.0124 61.6649 26.7882 62.0792H26.7807C23.2656 63.3454 19.6812 64.4163 16.0446 65.2861C14.8738 65.5096 13.7346 64.7757 13.4709 63.6283C13.0791 62.662 13.0349 61.5925 13.3456 60.598C13.6047 59.7667 13.6374 58.8829 13.4409 58.035C13.0819 56.9005 12.2404 55.9763 11.1354 55.5031C11.0468 55.4537 10.9578 55.403 10.8684 55.3509C11.0023 55.08 11.1631 54.8228 11.3483 54.5832C11.5564 54.3207 11.6481 53.9863 11.6028 53.656C11.5575 53.3256 11.379 53.0275 11.1076 52.8288C10.8069 52.6087 10.0927 52.0796 9.57887 51.6741C9.64274 51.5579 9.71543 51.4268 9.78063 51.3144C9.9724 50.9792 10.1928 50.5924 10.4072 50.1509C10.8082 49.286 10.926 48.3193 10.7442 47.3853C10.4535 45.8695 8.98989 45.1315 7.91736 44.5912C7.58932 44.4378 7.27317 44.261 6.97127 44.0621C6.67758 43.8609 6.4005 43.6367 6.14294 43.392C6.16423 42.6786 8.92087 39.7449 10.4032 38.1685C11.7202 36.68 12.5555 34.8367 12.8016 32.8758C12.8547 32.7334 12.9185 32.5949 12.992 32.4616C13.3058 31.9396 13.482 31.3483 13.5045 30.7418C13.3791 29.4927 12.7083 28.3592 11.6675 27.6374C11.1664 27.18 10.6852 26.7473 10.6313 26.3665C10.699 25.4469 10.9935 24.5578 11.4896 23.7764C11.779 23.2315 12.0301 22.6677 12.2414 22.0889C12.5158 21.2655 12.7539 20.4321 12.9932 19.5989C13.324 18.4442 13.6373 17.3536 14.0433 16.2793C16.5694 9.6179 22.7194 5.26982 32.3164 3.36215C39.1467 2.0059 49.1335 1.53358 57.9763 6.99074C65.0132 11.2777 69.1676 18.9692 68.8502 27.1232V27.1182H68.8503Z" fill="#233877"/>
<path d="M42.4048 7.23792C31.3323 7.23792 22.3562 16.0943 22.3562 27.0192C22.3562 37.9441 31.3323 46.8005 42.4048 46.8005C53.4774 46.8005 62.4534 37.9441 62.4534 27.0192C62.4404 16.0997 53.4721 7.25081 42.4048 7.23792ZM42.4048 44.328C32.7163 44.328 24.8622 36.5786 24.8622 27.0192C24.8622 17.4598 32.7164 9.71049 42.4048 9.71049C52.0932 9.71049 59.9475 17.4598 59.9475 27.0192C59.9372 36.5743 52.0891 44.3177 42.4048 44.328Z" fill="#233877"/>
<path d="M48.6701 20.8375V16.2012C48.668 14.6658 47.407 13.4215 45.8507 13.4195H38.9591C37.4028 13.4215 36.1418 14.6658 36.1397 16.2012V20.8375H31.4408C29.8846 20.8395 28.6235 22.0838 28.6215 23.6193V30.419C28.6235 31.9545 29.8846 33.1988 31.4408 33.2008H36.1397V37.8371C36.1418 39.3725 37.4028 40.6168 38.9591 40.6188H45.8507C47.407 40.6168 48.668 39.3725 48.6701 37.8371V33.2008H53.369C54.9252 33.1988 56.1863 31.9545 56.1883 30.419V23.6193C56.1863 22.0838 54.9252 20.8395 53.369 20.8375H48.6701ZM53.6822 23.6193V30.419C53.6822 30.5897 53.542 30.7281 53.369 30.7281H47.4171C46.725 30.7281 46.1641 31.2817 46.1641 31.9644V37.8369C46.1641 38.0076 46.0239 38.1459 45.8509 38.1459H38.9592C38.7862 38.1459 38.646 38.0076 38.646 37.8369V31.9644C38.646 31.2815 38.0849 30.7281 37.393 30.7281H31.4411C31.2681 30.7281 31.1279 30.5897 31.1279 30.419V23.6193C31.1279 23.4486 31.2681 23.3102 31.4411 23.3102H37.393C38.0851 23.3102 38.646 22.7566 38.646 22.0739V16.2014C38.646 16.0307 38.7862 15.8924 38.9592 15.8924H45.8509C46.0239 15.8924 46.1641 16.0307 46.1641 16.2014V22.0739C46.1641 22.7568 46.7252 23.3102 47.4171 23.3102H53.369C53.542 23.3102 53.6822 23.4486 53.6822 23.6193Z" fill="#233877"/>
</svg>
