<svg width="75" height="75" viewBox="0 0 75 75" fill="none" xmlns="http://www.w3.org/2000/svg">
<g clip-path="url(#clip0_1_160)">
<path d="M73.3655 35.8845C73.9724 35.8845 74.4642 35.3928 74.4642 34.7859V22.0048C74.4642 17.7659 71.6104 14.0152 67.5235 12.8834L48.0598 7.90516C46.7951 7.593 45.9118 6.46449 45.9118 5.16078V1.09863C45.9118 0.491747 45.42 0 44.8132 0C44.2063 0 43.7145 0.491747 43.7145 1.09863V5.16063C43.7145 7.47757 45.285 9.48353 47.5329 10.0383L51.3415 10.9796V14.2469H46.6486C45.5586 14.2469 44.4764 14.6048 43.6013 15.2549L42.5664 16.0236C42.0793 16.3854 41.9777 17.0735 42.3395 17.5605C42.5551 17.8507 42.8865 18.0042 43.2222 18.0041C43.45 18.0041 43.6795 17.9336 43.8764 17.7874L44.9113 17.0187C45.4101 16.6482 46.0271 16.4442 46.6485 16.4442H51.2255C50.7904 18.9509 49.1523 21.1467 46.8064 22.2483L41.9476 24.532C39.119 25.861 35.8751 25.8609 33.0471 24.532C32.0638 24.0626 28.7427 22.5235 27.8865 22.0977V16.4443C28.5344 16.4004 29.3786 16.5208 30.083 17.0184L31.1172 17.7874C31.3142 17.9339 31.544 18.0044 31.772 18.0044C32.1074 18.0044 32.4388 17.8513 32.6544 17.5614C33.0165 17.0745 32.9153 16.3863 32.4284 16.0242L31.394 15.2551C30.5355 14.593 29.1228 14.1709 27.8865 14.247V9.91331C29.9052 9.22396 31.2802 7.3286 31.2802 5.16063V1.09863C31.2802 0.491747 30.7885 0 30.1816 0C29.5747 0 29.083 0.491747 29.083 1.09863V5.16063C29.083 6.46434 28.1997 7.59286 26.9362 7.90472L21.0999 9.347C20.73 9.45774 20.2618 9.78587 20.2651 10.4134V27.5356C19.202 27.5671 18.3463 28.4396 18.3463 29.5101V32.0566C18.3463 33.1272 19.2019 33.9997 20.2651 34.0312V38.9274C18.1788 39.3238 16.4619 40.8891 15.917 43.0045L15.4703 44.738L15.7532 39.4036C15.7614 39.2508 15.7375 39.0981 15.683 38.9551C15.3116 37.9776 15.0274 36.96 14.8384 35.929C14.6493 34.9063 14.5535 33.8541 14.5535 32.802V13.2284L16.5671 12.7309C17.1561 12.5853 17.5156 11.9897 17.37 11.4009C17.2243 10.8118 16.6286 10.4521 16.0399 10.5978L7.47173 12.884C3.38541 14.0147 0.531311 17.7654 0.531311 22.0056V34.5235C0.531311 36.7606 0.874084 38.9714 1.55055 41.1009C0.874084 42.8478 0.531311 44.6829 0.531311 46.5623V73.9012C0.531311 74.5081 1.02306 74.9998 1.62994 74.9998C2.23683 74.9998 2.72857 74.5081 2.72857 73.9012V65.3114C3.10079 65.452 3.50377 65.5297 3.92461 65.5297H60.6162L62.1099 74.09C62.203 74.624 62.6669 75 63.1909 75C63.2536 75 63.3172 74.9947 63.381 74.9836C63.9787 74.8793 64.3789 74.3101 64.2746 73.7124L62.8355 65.4649C69.0867 64.9589 74.6496 59.1199 74.4642 52.6052L74.463 39.9263C74.463 39.3195 73.9711 38.8278 73.3642 38.8278C73.3594 38.8278 73.3548 38.8284 73.35 38.8285H61.684C62.317 36.8807 62.6384 34.8582 62.6384 32.802V30.1939C62.6384 30.1901 62.639 30.1864 62.639 30.1826V13.8127L66.9375 15.001C70.0754 15.8701 72.2669 18.75 72.2669 22.0047V34.7857C72.2669 35.3926 72.7587 35.8845 73.3655 35.8845ZM22.4623 11.2737L25.6892 10.4757V27.5326H22.4623V11.2737ZM20.5435 29.73H27.474V31.8371H20.5435V29.73ZM22.4623 34.0344H25.6892V43.0429C25.6892 43.9331 24.9657 44.6573 24.0764 44.6573C23.3591 44.6514 22.4733 44.0529 22.4622 43.0429V34.0344H22.4623ZM3.75997 40.7869C3.07559 38.7651 2.72857 36.6578 2.72857 34.5234V22.0054C2.72857 18.7498 4.91997 15.8698 8.05766 15.0017L12.3558 13.8126V30.1826C12.3558 30.1864 12.3564 30.1901 12.3564 30.1939V32.802C12.3564 33.9877 12.4645 35.174 12.6776 36.3267C12.876 37.41 13.1683 38.4814 13.547 39.5155L13.147 47.0624H10.43C9.22573 47.0624 8.07304 47.5755 7.26636 48.471L6.22852 49.6254C5.45464 49.8534 3.35362 50.4099 2.72843 50.6214V46.5623C2.72843 44.837 3.06636 43.1551 3.73257 41.5635C3.83629 41.3167 3.84581 41.0406 3.75997 40.7869ZM2.72857 62.1497V61.2078H4.90957C4.98208 61.2078 5.0543 61.2006 5.12549 61.1864L8.80517 60.4489C9.40019 60.3298 9.78574 59.7506 9.6665 59.1558C9.54741 58.5608 8.9685 58.1751 8.37348 58.2945L4.80059 59.0107H2.72857V57.1342H4.90957C4.98208 57.1342 5.0543 57.127 5.12549 57.1128L8.80517 56.3753C9.40019 56.2562 9.78574 55.677 9.6665 55.0823C9.54741 54.4872 8.9685 54.1021 8.37348 54.2209L4.80059 54.9371H2.72857V53.7809C2.73619 53.254 3.09259 52.7883 3.60045 52.6454L6.86089 51.7304L8.93921 52.2017C9.02109 52.2203 9.10268 52.2292 9.18325 52.2292C9.68496 52.2292 10.138 51.8832 10.2538 51.3731C10.3879 50.7815 10.017 50.1929 9.42539 50.0587L8.90097 49.9398C9.29091 49.5077 9.84814 49.26 10.4301 49.26H14.3057L12.3911 56.6907C12.3681 56.7802 12.3564 56.8723 12.3564 56.9647V63.3324H3.92461C3.26954 63.3324 2.73634 62.803 2.72857 62.1497ZM72.2653 52.6068C72.2568 58.5519 67.3872 63.3525 61.5115 63.3324H14.5536V57.1039L18.0448 43.5528C18.3379 42.4149 19.1922 41.5413 20.2651 41.1925V43.0429C20.2268 44.944 21.9337 46.8894 24.0766 46.8545C26.1775 46.8545 27.8866 45.1446 27.8866 43.0429V41.0258H72.2654V52.6068H72.2653ZM27.8865 38.8285V34.0246C28.8867 33.9272 29.6712 33.082 29.6712 32.0567V29.5102C29.6712 28.4849 28.8868 27.6398 27.8865 27.5425V24.5345L32.1127 26.5206C35.5346 28.1285 39.4597 28.1288 42.8823 26.5206L47.7409 24.2371C51.1824 22.6347 53.5594 18.9764 53.5389 15.1084V11.5238L60.4413 13.2294V32.8022C60.4413 34.8667 60.0762 36.8933 59.3581 38.8287H27.8865V38.8285Z" fill="#233877"/>
<path d="M12.7542 68.4472C12.1553 68.3418 11.5873 68.7429 11.483 69.3407L10.7203 73.7125C10.616 74.3102 11.0162 74.8794 11.6138 74.9837C11.6779 74.9949 11.7413 75.0001 11.804 75.0001C12.328 75.0001 12.7919 74.6241 12.885 74.0902L13.6478 69.7183C13.7519 69.1205 13.3519 68.5515 12.7542 68.4472Z" fill="#233877"/>
</g>
<defs>
<clipPath id="clip0_1_160">
<rect width="75" height="75" fill="white"/>
</clipPath>
</defs>
</svg>
