<svg width="75" height="75" viewBox="0 0 75 75" fill="none" xmlns="http://www.w3.org/2000/svg">
<g clip-path="url(#clip0_1_153)">
<path d="M53.4047 16.9192C53.3927 16.9085 53.3794 16.8965 53.3661 16.8845C53.3688 16.8872 53.3821 16.9018 53.4047 16.9192Z" fill="#233877"/>
<path d="M75 37.5C75 20.6554 63.8045 5.95962 47.6851 1.43158C47.5678 0.753105 47.4745 0.079963 47.4318 -0.577183C47.3065 -2.39667 45.7856 -3.82159 43.9688 -3.82159H31.0165C29.201 -3.82159 27.6801 -2.39667 27.5521 -0.555856C27.5188 0.0759642 27.4308 0.745107 27.3135 1.42758C11.1968 5.96096 -3.05176e-05 20.6608 -3.05176e-05 37.5C-3.05176e-05 54.3352 11.1928 69.0337 27.3055 73.5697C27.4268 74.2482 27.5201 74.916 27.5561 75.5918C27.6814 77.4033 29.2023 78.8216 31.0165 78.8216H43.9688C45.7829 78.8216 47.3052 77.4033 47.4331 75.5852C47.4758 74.9293 47.5664 74.2602 47.6851 73.5724C63.8032 69.039 75 54.3392 75 37.5ZM58.3914 48.4902C57.4276 44.9765 55.2722 42.2786 52.1531 40.6818C49.6365 39.4154 46.6934 39.1595 44.0874 39.9833C40.0219 41.2443 34.5355 40.7911 31.0711 40.0206C28.6971 39.4968 25.8646 39.1648 22.8415 40.6844C19.713 42.2773 17.5616 44.9779 16.6219 48.4889C15.8981 51.1068 16.0381 53.7967 16.9911 56.1387C12.4258 51.1308 9.78919 44.546 9.78919 37.5C9.78919 30.4513 12.4284 23.8639 16.9978 18.856C16.0407 21.1833 15.8968 23.8865 16.6192 26.5298C17.5656 30.0514 19.717 32.7453 22.8361 34.3142C25.8193 35.8445 28.6731 35.5112 31.0685 34.9807C34.5488 34.2196 40.0446 33.7784 44.0888 35.0447C45.0898 35.3553 46.1375 35.5072 47.1892 35.5072C48.8941 35.5072 50.6096 35.1047 52.1558 34.3182C55.2682 32.7427 57.425 30.0528 58.39 26.5391C58.3914 26.5338 58.3927 26.5284 58.394 26.5244C59.0965 23.8519 58.9459 21.146 57.9968 18.8453C62.5688 23.8505 65.2094 30.4407 65.2094 37.5013C65.2094 44.562 62.5702 51.1508 58.0021 56.1547C58.9472 53.838 59.0952 51.1454 58.3914 48.4902ZM31.0165 -1.23833H43.9688C44.442 -1.23833 44.8219 -0.875765 44.8552 -0.402566C44.9205 0.586486 45.0605 1.6062 45.2724 2.6299C45.2778 2.66856 45.2844 2.70855 45.2938 2.7472L45.4017 3.2404C45.6523 4.2761 46.0069 5.31847 46.4081 6.35684C46.6054 6.86737 46.7933 7.37922 47.0239 7.88708C47.7251 9.42531 48.5821 10.9382 49.5752 12.3831C50.1337 13.1896 50.7242 13.9693 51.3294 14.6985C51.364 14.7398 51.4 14.7798 51.4387 14.8158C51.6813 15.1064 51.9119 15.3649 52.1211 15.6022L53.2115 16.7459C53.2488 16.7859 53.3101 16.8392 53.3648 16.8845L53.3661 16.8819C53.3795 16.8952 53.3928 16.9098 53.4061 16.9218C53.4048 16.9205 53.4048 16.9205 53.4021 16.9192C53.4034 16.9205 53.4048 16.9205 53.4061 16.9218C53.4594 16.9725 53.5154 17.0205 53.5767 17.0631C54.5551 17.7989 55.1456 18.7866 55.4722 19.4944C56.3373 21.3419 56.4879 23.6013 55.8961 25.8606C55.115 28.6892 53.4648 30.7592 50.9841 32.0149C49.0767 32.9853 46.8373 33.1919 44.8539 32.5787C42.7425 31.9162 40.3392 31.6563 37.9732 31.6563C35.2753 31.6563 32.6267 31.9936 30.51 32.4574C27.7108 33.0772 25.8286 32.9466 24.0025 32.0109C21.5152 30.7606 19.869 28.6905 19.1079 25.854C18.4987 23.6226 18.6453 21.3646 19.5171 19.5011C20.0263 18.4307 20.6488 17.6323 21.4179 17.0618C21.4912 17.0138 21.5605 16.9565 21.6218 16.8952C21.9457 16.5713 22.2403 16.2687 22.5975 15.8981L22.8388 15.6449C23.0747 15.3583 23.3227 15.0717 23.5973 14.7625C23.6186 14.7385 23.6412 14.7131 23.6612 14.6865C24.1238 14.116 24.7249 13.3562 25.3221 12.4791C25.3514 12.4431 25.3794 12.4045 25.4061 12.3658C25.4061 12.3645 25.4074 12.3645 25.4087 12.3631C27.4348 9.43197 28.8384 6.36218 29.5769 3.25906C29.6142 3.11243 29.6502 2.96714 29.6795 2.82052C29.6915 2.78319 29.7022 2.74321 29.7102 2.70455C29.9368 1.62752 30.0781 0.577155 30.1301 -0.395902C30.1634 -0.869101 30.5526 -1.23833 31.0165 -1.23833ZM2.5819 37.5C2.5819 22.3163 12.3458 8.98143 26.5884 4.32009C26.5644 4.3934 26.5391 4.46405 26.5151 4.53736C26.3311 5.07987 26.1352 5.60772 25.9233 6.11025C25.9073 6.1489 25.8926 6.19156 25.8753 6.23021C25.6473 6.76206 25.4061 7.26325 25.1608 7.74445C25.1075 7.84975 25.0542 7.95506 24.9995 8.05769C24.7583 8.51623 24.5157 8.95477 24.2744 9.35732C24.2411 9.41464 24.2078 9.46529 24.1731 9.51994C23.9438 9.8985 23.7172 10.2504 23.5 10.5743C23.4786 10.6063 23.456 10.641 23.4346 10.673C13.4162 15.9261 7.20725 26.1765 7.20725 37.5C7.20725 48.8208 13.4122 59.0672 23.4266 64.3217C23.8119 64.8895 24.1731 65.4627 24.5077 66.0412C24.6023 66.2052 24.6849 66.3704 24.7743 66.5344C25.0262 66.9929 25.2634 67.4528 25.4821 67.9167C25.5794 68.1246 25.674 68.3326 25.7646 68.5405C25.9619 68.9924 26.1432 69.4469 26.3098 69.9041C26.3778 70.0907 26.4511 70.276 26.5151 70.4626C26.5378 70.5319 26.5537 70.6026 26.5764 70.6719C12.3405 66.0079 2.5819 52.677 2.5819 37.5ZM43.9688 76.2383H31.0165C30.5526 76.2383 30.1634 75.8757 30.1327 75.4332C30.0781 74.3935 29.9341 73.3645 29.7075 72.3501C29.6742 72.1541 29.6275 71.9609 29.5849 71.7916C28.8478 68.6685 27.4535 65.604 25.4421 62.6835C25.3994 62.6062 25.3474 62.5355 25.2901 62.4716C24.7596 61.7078 24.2051 60.9773 23.6426 60.3002C23.6026 60.2522 23.5613 60.2082 23.5146 60.1682C22.3949 58.8513 21.5885 58.0941 21.5552 58.0621C21.5178 58.0275 21.4779 57.9942 21.4365 57.9635C20.6581 57.3903 20.0316 56.5892 19.5251 55.5215C18.648 53.6367 18.5014 51.3827 19.1132 49.166C19.8716 46.3335 21.5192 44.2541 24.0065 42.9891C25.8553 42.0587 27.7361 41.9267 30.5126 42.5426C34.2849 43.381 40.3018 43.8595 44.8579 42.4479C46.8333 41.8254 49.0713 42.0214 50.9855 42.9851C53.4701 44.2567 55.123 46.3388 55.8974 49.1633C56.4919 51.3987 56.3413 53.6581 55.4735 55.5215C55.4735 55.5229 55.4735 55.5242 55.4722 55.5255C55.147 56.232 54.5484 57.229 53.5554 57.9688C53.5194 57.9955 53.4834 58.0248 53.4501 58.0541C53.4141 58.0875 52.5797 58.8606 51.4453 60.2162C51.408 60.2509 51.3707 60.2895 51.3374 60.3295C50.7242 61.0533 50.1404 61.8184 49.5992 62.6062C47.5584 65.576 46.1468 68.6658 45.4111 71.7489C45.3737 71.8875 45.3444 72.0275 45.3164 72.1755C45.3151 72.1808 45.3151 72.1875 45.3137 72.1928C45.3017 72.2274 45.2938 72.2634 45.2858 72.2994C45.0618 73.3844 44.9205 74.4028 44.8552 75.4092C44.8232 75.8837 44.442 76.2383 43.9688 76.2383ZM48.4169 70.6759C48.4435 70.5959 48.4595 70.5173 48.4875 70.4373C48.5448 70.2693 48.6115 70.1014 48.6741 69.9334C48.8487 69.4589 49.0394 68.9844 49.2473 68.5112C49.3353 68.3126 49.4232 68.1153 49.5165 67.918C49.7498 67.4248 50.0044 66.9343 50.275 66.4451C50.3523 66.3051 50.4216 66.1625 50.5029 66.0225C50.8308 65.4534 51.1921 64.8869 51.5693 64.3244C61.5851 59.0845 67.7927 48.8408 67.7927 37.5C67.7927 26.1472 61.5691 15.8928 51.5266 10.653C51.504 10.6196 51.4813 10.585 51.4587 10.5503C51.2307 10.2064 50.9935 9.83586 50.7509 9.4293C50.7389 9.41064 50.7282 9.39331 50.7162 9.37332C50.4763 8.96944 50.2337 8.52689 49.9937 8.06702C49.9378 7.95906 49.8818 7.85109 49.8258 7.74045C49.5859 7.26592 49.3499 6.77139 49.126 6.24754C49.098 6.18356 49.074 6.11425 49.046 6.04893C48.8461 5.57173 48.6595 5.07188 48.4835 4.55869C48.4569 4.47871 48.4289 4.4014 48.4022 4.32009C62.6515 8.97477 72.418 22.3083 72.418 37.5C72.418 52.681 62.6568 66.0132 48.4169 70.6759Z" fill="#233877"/>
</g>
<defs>
<clipPath id="clip0_1_153">
<rect width="75" height="75" fill="white"/>
</clipPath>
</defs>
</svg>
