<svg width="78" height="78" viewBox="0 0 78 78" fill="none" xmlns="http://www.w3.org/2000/svg">
<g clip-path="url(#clip0_1_181)">
<path d="M55.0852 74.4442C55.2133 75.0181 54.852 75.5871 54.2783 75.715C54.2001 75.7326 54.1221 75.7409 54.0453 75.7409C53.5577 75.7409 53.118 75.404 53.0074 74.9081C52.5626 72.915 52.2279 70.7954 52.0129 68.6084C51.9553 68.0232 52.3831 67.5022 52.9681 67.4448C53.5552 67.3866 54.0743 67.815 54.1317 68.4C54.3383 70.5015 54.6593 72.535 55.0852 74.4442ZM16.2785 27.361C16.6594 26.9129 16.605 26.2413 16.1573 25.8602C15.7095 25.4795 15.0376 25.5336 14.6565 25.9815C13.8138 26.9727 13.0959 28.0615 12.4622 29.3104C7.50888 39.0808 3.94708 49.4204 0.122952 61.9392C-0.0488915 62.5015 0.267831 63.0966 0.82998 63.2684C0.933726 63.3001 1.03839 63.3152 1.14152 63.3152C1.59734 63.3152 2.01902 63.0198 2.15918 62.5614C5.95101 50.1483 9.47701 39.9071 14.361 30.2736C14.918 29.1759 15.5452 28.2233 16.2785 27.361ZM32.0135 8.22875C31.4255 8.22875 30.9489 8.70543 30.9489 9.29332V14.1622C30.6741 14.448 30.3783 14.7425 30.0529 15.0545C29.6283 15.4614 29.6141 16.1352 30.0209 16.5597C30.2299 16.7778 30.5096 16.8877 30.7896 16.8877C31.0545 16.8877 31.3198 16.7894 31.526 16.5917C31.9966 16.1407 32.4111 15.7216 32.7931 15.3112C32.9763 15.1142 33.0781 14.8552 33.0781 14.5862V9.29332C33.0783 8.70543 32.6016 8.22875 32.0135 8.22875ZM23.8257 42.1085C23.8141 42.0593 23.8002 42.0104 23.7813 41.9621C23.7803 41.9592 23.7789 41.9563 23.7778 41.9534C23.7775 41.9526 23.7772 41.9519 23.7769 41.9511C23.1863 40.4481 22.4931 38.9182 21.716 37.4041C21.4473 36.8808 20.8056 36.675 20.2828 36.9431C19.7598 37.2115 19.5533 37.8534 19.8218 38.3764C20.5096 39.7162 21.1272 41.0672 21.6625 42.3981C18.9711 51.1994 15.0603 58.914 9.01206 67.3584C8.66974 67.8363 8.77973 68.5014 9.25764 68.8437C9.73569 69.1862 10.4005 69.0759 10.743 68.5982C16.1213 61.0891 19.8513 54.1357 22.5483 46.5158C24.5624 57.3634 24.6792 66.5304 22.9148 74.4445C22.787 75.0184 23.1483 75.5872 23.7222 75.7152C23.8002 75.7326 23.8781 75.7409 23.9548 75.7409C24.4425 75.7409 24.8823 75.4037 24.9929 74.9078C27.0357 65.7451 26.6553 55.0213 23.8301 42.1234C23.8292 42.1182 23.8267 42.1135 23.8257 42.1085ZM66.1358 63.1868C65.8154 62.6942 65.1562 62.5545 64.6628 62.8752C64.1701 63.1959 64.0305 63.8554 64.3512 64.3482C65.2389 65.7123 66.1891 67.102 67.2561 68.5968C67.4639 68.8879 67.7912 69.043 68.1234 69.043C68.3373 69.043 68.5536 68.9787 68.741 68.845C69.2195 68.5032 69.3306 67.8384 68.9892 67.3599C67.94 65.8901 67.0067 64.5251 66.1358 63.1868ZM77.8771 61.9392C74.0529 49.4204 70.491 39.0808 65.5384 29.3114C63.9193 26.1095 61.5799 23.7457 58.3862 22.0849C53.9186 19.7622 50.2664 17.513 47.0556 14.1625V9.29332C47.0556 8.70528 46.579 8.22875 45.9911 8.22875C45.4032 8.22875 44.9265 8.70543 44.9265 9.29332V14.5861C44.9265 14.8554 45.0287 15.1148 45.2123 15.3118C48.9051 19.274 53.2544 21.8166 57.4041 23.9739C60.227 25.4419 62.2081 27.4433 63.639 30.2732C68.5232 39.9071 72.0492 50.1483 75.841 62.5614C75.9812 63.0201 76.4028 63.3152 76.8587 63.3152C76.9616 63.315 77.0666 63.3001 77.1702 63.2684C77.7322 63.0966 78.0489 62.5015 77.8771 61.9392ZM39 13.0949C38.412 13.0949 37.9354 13.5716 37.9354 14.1595V72.5726C37.9354 73.1607 38.4121 73.6372 39 73.6372C39.5879 73.6372 40.0646 73.1605 40.0646 72.5726V14.1595C40.0646 13.5714 39.5881 13.0949 39 13.0949ZM57.7173 36.9431C57.1944 36.6751 56.5524 36.8809 56.2842 37.4042C55.5193 38.8951 54.8273 40.4249 54.2277 41.9514C54.2275 41.9517 54.2274 41.9522 54.2272 41.9526C54.226 41.9557 54.2246 41.9589 54.2234 41.9621C54.2044 42.0107 54.1905 42.0597 54.1789 42.1091C54.1779 42.1138 54.1757 42.1181 54.1747 42.1229C53.6169 44.6657 53.1459 47.1731 52.7746 49.5758C52.6847 50.1568 53.083 50.7007 53.664 50.7904C53.7192 50.7991 53.7739 50.8032 53.8279 50.8032C54.3441 50.803 54.7975 50.4269 54.8788 49.901C55.0503 48.7912 55.2437 47.6582 55.4573 46.5092C55.6317 47.001 55.8095 47.4861 55.99 47.9641C56.1979 48.5139 56.8117 48.7913 57.3623 48.5835C57.9123 48.3756 58.1895 47.7612 57.9817 47.2112C57.4012 45.675 56.8521 44.0568 56.3442 42.3996C56.887 41.0486 57.5011 39.6967 58.1786 38.3762C58.4468 37.8531 58.2403 37.2115 57.7173 36.9431ZM29.5742 20.9476C29.5742 24.6193 26.587 27.6066 22.9151 27.6066C19.2458 27.6066 16.2606 24.6194 16.2606 20.9476C16.2606 17.2781 19.2459 14.2929 22.9151 14.2929C26.5869 14.2929 29.5742 17.2783 29.5742 20.9476ZM27.4449 20.9476C27.4449 18.4522 25.4129 16.4221 22.9151 16.4221C20.4199 16.4221 18.3897 18.4522 18.3897 20.9476C18.3897 23.4453 20.4199 25.4773 22.9151 25.4773C25.4129 25.4773 27.4449 23.4453 27.4449 20.9476ZM5.45118 17.1399L9.25703 19.5966C9.43055 19.7086 9.63118 19.7668 9.83426 19.7668C9.91789 19.7668 10.002 19.7569 10.0847 19.7368C10.3682 19.6682 10.6111 19.4863 10.7565 19.2336L11.5468 17.8619L13.2606 19.3508C13.7047 19.7363 14.3768 19.6891 14.7626 19.2452C15.148 18.8013 15.1008 18.129 14.657 17.7432L11.9675 15.4072C11.7273 15.1988 11.4069 15.1075 11.0929 15.1611C10.7794 15.2137 10.5056 15.404 10.3469 15.6796L9.47061 17.2004L6.60564 15.3511C6.11159 15.0323 5.453 15.1741 5.13384 15.6683C4.81529 16.162 4.95728 16.8211 5.45118 17.1399ZM14.2271 11.2403C14.3601 11.4997 14.5936 11.6932 14.8733 11.7756C15.153 11.8579 15.4541 11.8224 15.7065 11.6766L17.077 10.8858L17.8191 13.0293C17.9714 13.4697 18.3839 13.746 18.825 13.746C18.9403 13.7459 19.0579 13.727 19.1732 13.6871C19.7288 13.4948 20.0233 12.8885 19.8311 12.3329L18.6675 8.97127C18.5637 8.67115 18.3311 8.43304 18.0335 8.32213C17.7363 8.21092 17.4044 8.23865 17.1294 8.39739L15.6113 9.27337L14.0572 6.2431C13.7889 5.71995 13.1471 5.51337 12.6241 5.78165C12.101 6.04993 11.8944 6.6916 12.1627 7.21475L14.2271 11.2403ZM23.9798 8.83142L25.5491 9.04257L24.8243 11.1897C24.6361 11.7468 24.9353 12.3509 25.4923 12.539C25.6053 12.5771 25.7201 12.5952 25.8331 12.5952C26.2772 12.5952 26.6916 12.3151 26.8416 11.871L27.9796 8.50053C28.0814 8.19919 28.043 7.86845 27.8754 7.59835C27.7078 7.32824 27.428 7.14726 27.1131 7.10475L25.3741 6.87075L26.0002 3.51965C26.1082 2.94166 25.7272 2.38575 25.1492 2.27759C24.5712 2.16958 24.015 2.55044 23.9072 3.12858L23.0754 7.58083C23.0219 7.86769 23.0883 8.16385 23.2594 8.40028C23.4303 8.63657 23.6908 8.79242 23.9798 8.83142ZM59.9189 60.844C59.4587 62.5606 58.3568 63.9966 56.816 64.8874C55.7706 65.491 54.6279 65.7778 53.4996 65.7778C51.1976 65.7778 48.9555 64.5839 47.724 62.4508C46.8337 60.9106 46.5968 59.1155 47.0575 57.3969C47.5179 55.6785 48.6204 54.243 50.1615 53.3545C51.7 52.4663 53.4932 52.2302 55.2106 52.6898C56.929 53.1499 58.3646 54.2516 59.2527 55.7924C60.1427 57.3328 60.3793 59.1268 59.9189 60.844ZM57.4086 56.8569L57.4079 56.8558C56.8041 55.8084 55.8282 55.0594 54.6597 54.7465C54.2699 54.6421 53.8741 54.5905 53.481 54.5905C52.6966 54.5905 51.9226 54.7961 51.2253 55.1988C50.1766 55.8033 49.4269 56.7795 49.1137 57.9481C48.8003 59.117 48.9615 60.3376 49.5673 61.3856C50.8162 63.5481 53.5901 64.292 55.7508 63.0437C56.7991 62.4375 57.5492 61.4604 57.8625 60.2925C58.1757 59.1248 58.0143 57.9045 57.4086 56.8569ZM66.4926 70.4491L63.4576 68.891L64.3339 67.3727C64.4926 67.0976 64.5202 66.7661 64.4091 66.4684C64.2982 66.1709 64.0601 65.9382 63.76 65.8345L60.3982 64.6709C59.8434 64.4789 59.2363 64.773 59.044 65.3287C58.8518 65.8843 59.1463 66.4906 59.7019 66.6829L61.8455 67.4248L61.0545 68.7951C60.9089 69.0476 60.8731 69.3488 60.9555 69.6281C61.0378 69.9077 61.2312 70.1412 61.4905 70.2744L65.5203 72.3432C65.6757 72.4231 65.8419 72.461 66.0055 72.461C66.392 72.461 66.7648 72.2498 66.9534 71.8824C67.2222 71.3592 67.0157 70.7176 66.4926 70.4491ZM70.656 59.4415L67.2522 59.6102V57.8541C67.2522 57.5363 67.11 57.2351 66.8651 57.033C66.6198 56.8308 66.2977 56.7486 65.9851 56.8089L62.4897 57.4856C61.9125 57.5974 61.5353 58.1559 61.647 58.7331C61.759 59.3104 62.3162 59.688 62.8945 59.5759L65.123 59.1446V60.729C65.123 61.0204 65.2426 61.2992 65.4537 61.5002C65.6522 61.6889 65.915 61.7936 66.1877 61.7936C66.2053 61.7936 66.2228 61.7931 66.2404 61.7922L70.7615 61.5681C71.3488 61.539 71.8013 61.0393 71.7722 60.452C71.7428 59.8649 71.2445 59.4159 70.656 59.4415ZM59.4852 52.6887C59.6874 52.8665 59.938 52.9538 60.1875 52.9538C60.4831 52.9538 60.7771 52.8315 60.9875 52.592L62.4847 50.8888L63.4536 52.1402C63.632 52.3706 63.8969 52.5178 64.187 52.5474C64.4775 52.5774 64.7662 52.4867 64.9876 52.2972L68.427 49.3533C68.8737 48.9709 68.926 48.299 68.5436 47.8523C68.1612 47.4055 67.4892 47.3535 67.0425 47.7357L64.4525 49.9525L63.3785 48.5653C63.184 48.314 62.8875 48.1629 62.5699 48.1529C62.2504 48.141 61.9468 48.2755 61.7372 48.5141L59.3883 51.1863C59.0003 51.628 59.0436 52.3006 59.4852 52.6887Z" fill="#233877"/>
</g>
<defs>
<clipPath id="clip0_1_181">
<rect width="78" height="78" fill="white"/>
</clipPath>
</defs>
</svg>
