<svg width="75" height="75" viewBox="0 0 75 75" fill="none" xmlns="http://www.w3.org/2000/svg">
<path d="M11.1891 72.6563C11.6266 72.6565 12.0628 72.6085 12.4898 72.5133L14.0625 72.1641V73.8282H16.4062V71.6426L41.5301 66.0598C43.6795 65.585 45.8966 65.4997 48.0762 65.8078L54.0305 66.6598C55.5483 66.8706 57.0907 66.8258 58.5938 66.5274V73.8282H60.9375V65.8489C61.8629 65.4941 62.747 65.0399 63.5742 64.4942L67.4473 61.916C67.6445 61.7848 67.7973 61.5968 67.8855 61.377L69.2707 57.9117C69.9702 56.1603 70.324 54.2899 70.3125 52.4039C70.3142 51.9862 70.2335 51.5723 70.0751 51.1858C69.9166 50.7993 69.6835 50.4479 69.3891 50.1516C69.3234 50.086 69.2461 50.0344 69.1746 49.9758L71.4762 42.15C73.0367 36.8471 73.8288 31.3477 73.8281 25.8199C73.8254 23.2983 73.239 20.8115 72.1148 18.5543C71.0644 16.4589 69.587 14.6065 67.7776 13.1164C65.9682 11.6263 63.867 10.5315 61.609 9.90237L47.748 6.05745L45.6199 0.735962L43.4426 1.60784L45.7863 7.46721C45.8535 7.63444 45.9583 7.78393 46.0927 7.90405C46.227 8.02417 46.3873 8.11168 46.5609 8.15979L48.6809 8.74573C47.599 10.6383 46.0543 12.2253 44.1917 13.358C42.3291 14.4907 40.2094 15.1321 38.0313 15.222C35.8531 15.312 33.6878 14.8475 31.7381 13.8722C29.7884 12.8969 28.1182 11.4427 26.884 9.64573L26.4715 8.70823L28.4367 8.16213C28.6104 8.11403 28.7706 8.02651 28.905 7.90639C29.0393 7.78627 29.1442 7.63679 29.2113 7.46956L31.5551 1.61018L29.3801 0.735962L27.2531 6.05745L25.4496 6.56252C24.8596 5.62998 24.0436 4.86168 23.0771 4.329C22.1107 3.79632 21.0254 3.51654 19.9219 3.51565H16.4062C15.163 3.51565 13.9708 4.00951 13.0917 4.88859C12.2126 5.76766 11.7188 6.95995 11.7188 8.20315V8.49846C11.0282 8.964 10.4576 9.58619 10.0533 10.3143C9.64906 11.0423 9.42266 11.8557 9.39258 12.6879C9.07656 13.0274 8.81666 13.4151 8.62266 13.8364C6.28116 15.9003 4.40578 18.439 3.12113 21.2837C1.83649 24.1284 1.17202 27.2139 1.17188 30.3352V49.6489C1.18019 56.4822 2.77097 63.2207 5.81953 69.3364C6.31481 70.3363 7.08043 71.1774 8.02953 71.7642C8.97863 72.351 10.0732 72.6601 11.1891 72.6563ZM37.5 17.5781C40.2834 17.577 43.0134 16.8137 45.3938 15.3711C47.7743 13.9286 49.7143 11.8618 51.0035 9.39495L60.982 12.1664C62.9242 12.7074 64.7316 13.649 66.2879 14.9306C67.8442 16.2123 69.1149 17.8055 70.0184 19.6078C70.9794 21.5378 71.4811 23.6639 71.4844 25.8199C71.4831 28.3737 71.3057 30.9242 70.9535 33.4535C67.0558 30.6897 62.4855 29.0268 57.723 28.6395L56.9953 28.5797C57.2756 26.0942 57.418 23.595 57.4219 21.0938H55.0781C55.0703 25.165 54.6834 29.2267 53.9227 33.2262C53.2816 33.0305 52.6336 32.8489 51.9762 32.6965C45.8705 31.2783 40.1441 28.5554 35.1902 24.7149L32.5945 22.6957L29.2969 15.1524C31.7425 16.7298 34.5898 17.5718 37.5 17.5781ZM16.4062 5.8594H19.9219C20.7391 5.85943 21.5385 6.09766 22.2224 6.54493C22.9063 6.9922 23.4451 7.62912 23.7727 8.37776L30.5695 23.9074C30.6472 24.0858 30.768 24.2421 30.9211 24.3621L33.75 26.5641C38.9721 30.6133 45.0087 33.4845 51.4453 34.9805C55.0535 35.8077 58.4474 37.3849 61.4063 39.6094L62.8125 37.7344C60.7709 36.2017 58.5345 34.9473 56.1621 34.0043C56.3613 32.9754 56.5418 31.9442 56.693 30.9071L57.5309 30.9762C62.2679 31.3653 66.7861 33.1384 70.5234 36.075C70.1848 37.8994 69.7546 39.7056 69.2344 41.4867L66.9504 49.2305C66.3021 49.2579 65.6774 49.4815 65.1591 49.8718C64.6407 50.2621 64.2532 50.8006 64.0477 51.416L62.3238 56.591L59.8008 57.852C58.9114 58.2911 57.9398 58.5389 56.9487 58.5792C55.9576 58.6196 54.9691 58.4517 54.0469 58.0864L50.8371 56.7973L51.1969 56.0742L53.8664 55.4074C54.6023 55.2134 55.2428 54.7592 55.6695 54.129C56.0961 53.4988 56.2799 52.7354 56.1868 51.9801C56.0937 51.2248 55.73 50.5288 55.1631 50.0211C54.5962 49.5134 53.8645 49.2283 53.1035 49.2188H50.3906C49.4962 49.2182 48.6124 49.4125 47.8007 49.7881C46.9889 50.1637 46.2688 50.7116 45.6902 51.3938L41.2793 47.7176C36.2484 43.5277 31.8488 38.6335 28.2164 33.1864C25.6431 29.3281 22.6956 25.733 19.4168 22.4531L17.7199 20.7563C16.4372 19.4776 14.7018 18.7567 12.8906 18.75V21.0938C13.7194 21.1003 14.5303 21.3351 15.2344 21.7723V22.2656C15.2344 22.5764 15.1109 22.8745 14.8911 23.0943C14.6714 23.3141 14.3733 23.4375 14.0625 23.4375H13.8164C12.996 23.4376 12.2055 23.1291 11.6019 22.5735C10.9983 22.0178 10.6256 21.2555 10.5579 20.4379C10.4902 19.6202 10.7324 18.807 11.2363 18.1596C11.7403 17.5122 12.4693 17.0779 13.2785 16.943L16.5984 16.3899L16.2141 14.0789L12.8906 14.6321C12.0437 14.7783 11.2417 15.1176 10.5469 15.6235C10.5561 15.1447 10.7347 14.6847 11.0509 14.3251C11.3671 13.9656 11.8006 13.7297 12.2742 13.6594L17.7422 12.8789L17.4094 10.5586L12.177 11.3063C12.3998 10.95 12.6957 10.6451 13.0452 10.4117C13.3947 10.1784 13.7898 10.0219 14.2043 9.95276L17.768 9.35862L17.3836 7.04768L14.1527 7.58557C14.2878 7.09096 14.5814 6.6543 14.9884 6.34252C15.3955 6.03073 15.8935 5.86102 16.4062 5.8594ZM4.52461 24.116C5.37511 21.5708 6.73697 19.2263 8.52656 17.2266C8.5656 17.3547 8.61137 17.4806 8.66367 17.6039L8.75391 17.7856C8.34397 18.6387 8.1578 19.582 8.21289 20.5269C8.26799 21.4717 8.56254 22.387 9.06885 23.1867C9.57515 23.9863 10.2766 24.6441 11.1071 25.0979C11.9376 25.5518 12.87 25.787 13.8164 25.7813H14.0625C14.7521 25.7811 15.4263 25.5781 16.0014 25.1977C16.5765 24.8172 17.027 24.276 17.2969 23.6414L17.7598 24.1043C20.9293 27.2751 23.7786 30.7505 26.2664 34.4801C30.0231 40.1168 34.5739 45.1816 39.7781 49.5176L44.1879 53.1914L42.7816 54.8707C42.4232 55.3022 41.9741 55.6494 41.4664 55.8878C40.9587 56.1261 40.4047 56.2498 39.8438 56.25C33.6686 56.2493 27.504 55.7398 21.4125 54.7266L18.0035 54.1582C19.2826 50.5191 19.9314 46.6883 19.9219 42.8309C19.9217 41.578 19.8525 40.3261 19.7145 39.0809L18.743 30.3375L16.4133 30.5953L17.3848 39.3399C17.4176 39.6305 17.434 39.9258 17.4574 40.2235C13.0126 38.4832 8.28868 37.5648 3.51562 37.5129V30.3352C3.51534 28.2214 3.85604 26.1213 4.52461 24.116ZM3.51562 39.8567C8.35108 39.9157 13.1283 40.9201 17.5781 42.8133C17.5781 42.8449 17.5781 42.8754 17.5781 42.9082C17.5823 46.9282 16.8149 50.9115 15.3176 54.6422C15.2525 54.8049 15.2247 54.9802 15.2363 55.1551C15.2479 55.3299 15.2986 55.5 15.3846 55.6527C15.4706 55.8054 15.5898 55.9368 15.7333 56.0374C15.8769 56.1379 16.0412 56.205 16.2141 56.2336L21.0281 57.0364C27.2466 58.0714 33.5397 58.5923 39.8438 58.5938C40.7497 58.5942 41.6446 58.3949 42.4647 58.0101C43.2848 57.6252 44.01 57.0643 44.5887 56.3672L47.4469 52.9371C47.8064 52.5058 48.2566 52.159 48.7654 51.9214C49.2742 51.6838 49.8291 51.5613 50.3906 51.5625H53.1035C53.299 51.5632 53.4875 51.6351 53.6337 51.7649C53.7798 51.8946 53.8737 52.0732 53.8976 52.2672C53.9214 52.4612 53.8737 52.6572 53.7633 52.8186C53.6529 52.9799 53.4875 53.0954 53.298 53.1434L50.107 53.9414C49.9428 53.9823 49.7893 54.0582 49.6572 54.164C49.5251 54.2698 49.4175 54.403 49.3418 54.5543L48.1699 56.8981C48.0974 57.0431 48.0558 57.2017 48.0477 57.3637C48.0396 57.5257 48.0652 57.6876 48.123 57.8391C48.1807 57.9907 48.2692 58.1286 48.383 58.2442C48.4968 58.3598 48.6333 58.4505 48.784 58.5106L53.1773 60.2684C54.4077 60.7531 55.7259 60.9751 57.0472 60.9202C58.3685 60.8653 59.6637 60.5347 60.8496 59.9496L63.8051 58.4766C64.0826 58.337 64.2934 58.093 64.391 57.7981L66.266 52.1637C66.3282 51.9815 66.4479 51.8244 66.607 51.716C66.7661 51.6076 66.9561 51.5537 67.1484 51.5625C67.2551 51.5615 67.3609 51.5817 67.4597 51.622C67.5584 51.6622 67.6482 51.7217 67.7238 51.7969C67.8107 51.8909 67.8772 52.002 67.9189 52.123C67.9607 52.244 67.9769 52.3724 67.9664 52.5C67.9677 54.0534 67.6709 55.5925 67.0922 57.034L65.8441 60.1641L62.2746 62.5442C59.9466 64.0927 57.1301 64.7305 54.3621 64.336L48.409 63.4852C45.9509 63.1368 43.4503 63.2329 41.0262 63.7688L11.9812 70.2258C11.185 70.3955 10.3551 70.2978 9.62008 69.9478C8.88507 69.5977 8.28609 69.015 7.91602 68.2899C5.03006 62.4991 3.52394 56.1189 3.51562 49.6489V39.8567Z" fill="#233877"/>
</svg>
