<svg width="75" height="75" viewBox="0 0 75 75" fill="none" xmlns="http://www.w3.org/2000/svg">
<g clip-path="url(#clip0_1_183)">
<path d="M68.6868 62.9128L57.6438 61.9926C56.8834 61.9292 56.134 61.7648 55.4168 61.5041L55.1626 61.4117C54.7859 61.2746 54.4091 61.131 54.0342 60.9826C54.2053 60.601 54.2752 60.1764 54.2242 59.7565C54.1487 59.1343 53.818 58.5617 53.3165 58.1855L49.4297 55.2705C48.4353 54.5247 47.0402 54.694 46.253 55.656L45.5784 56.4804C41.9447 53.9873 38.7334 50.9632 36.0231 47.4788C35.7407 47.1158 35.6198 46.6469 35.6916 46.1924L35.7413 45.8782H36.9539C38.8428 45.8782 40.3898 44.4 40.4757 42.5128L41.5261 19.4042C41.5547 18.7767 41.322 18.1563 40.8882 17.7019C40.707 17.5122 40.494 17.3587 40.2631 17.2414L42.342 4.0752C42.5031 3.05537 42.2106 2.02017 41.5399 1.23516C40.8691 0.450146 39.8921 0 38.8596 0H22.9671C22.3602 0 21.8685 0.491895 21.8685 1.09863C21.8685 1.70537 22.3602 2.19727 22.9671 2.19727H38.8595C39.2541 2.19727 39.6127 2.3625 39.8692 2.66265C40.1256 2.96265 40.2328 3.34263 40.1713 3.73242L38.0783 16.9869H12.0873L11.3831 3.59502C11.3638 3.22764 11.4927 2.87813 11.746 2.61123C11.9992 2.34434 12.3414 2.19727 12.7095 2.19727H17.8402C18.447 2.19727 18.9388 1.70537 18.9388 1.09863C18.9388 0.491895 18.447 0 17.8402 0H12.7095C11.7468 0 10.8146 0.400488 10.1519 1.09893C9.48938 1.79736 9.1384 2.74937 9.18909 3.7106L9.88826 17.0068C9.06062 17.0936 8.29978 17.4656 7.71575 18.0768C7.04426 18.7796 6.69885 19.7014 6.74294 20.6723L6.97468 25.7728C7.00222 26.3789 7.51096 26.8479 8.12209 26.8204C8.72825 26.7929 9.19729 26.2792 9.1696 25.673L9.09534 24.0375H39.116L38.4438 38.8271H9.76755L9.40266 30.7998C9.37512 30.1937 8.86213 29.7249 8.25525 29.7523C7.6491 29.7798 7.18005 30.2936 7.20774 30.8997L7.7884 43.6707C7.84084 44.8301 8.7344 45.7541 9.86599 45.8663C8.92483 49.553 7.38074 53.0247 5.26345 56.2022L5.0657 56.4987C2.91985 59.7186 2.48494 63.7562 3.90217 67.3L3.9738 67.4795C5.80032 72.046 10.1585 74.9972 15.077 74.9981L17.4316 74.9985H17.4331C19.1613 74.9985 20.8689 74.7214 22.5082 74.175L25.1843 73.2831C26.5996 72.8112 28.0739 72.572 29.5658 72.572C30.5201 72.572 31.4736 72.6721 32.4076 72.8678L32.7857 73.6712C33.1652 74.4776 33.9863 74.9988 34.8776 74.9988H42.1536H42.1574L48.0561 74.9788C50.4149 74.9733 52.6775 74.2472 54.5998 72.8785L54.6625 72.8338C55.0432 72.5626 55.5061 72.4595 55.9658 72.5435C56.4256 72.6274 56.8221 72.8873 57.0839 73.2773C57.8078 74.3563 59.0153 75.0004 60.3139 75.0003H60.3161C60.6546 75.0001 63.3789 74.9999 65.9682 74.9996C69.2496 74.9991 71.9193 72.329 71.9193 69.0475V66.4264C71.9193 64.6071 70.4994 63.0639 68.6868 62.9128ZM48.1113 57.0283L51.998 59.9432C52.024 59.9626 52.0391 59.9889 52.0431 60.0211C52.047 60.0535 52.0387 60.0825 52.018 60.1077L42.4065 71.8563L40.0076 66.7589L47.9537 57.0472C47.9928 56.9996 48.0619 56.9914 48.1113 57.0283ZM34.2887 48.8278C37.1001 52.4424 40.4254 55.5848 44.183 58.1858L38.9708 64.5561L30.181 45.878H33.5175C33.3609 46.9213 33.6408 47.9947 34.2887 48.8278ZM18.5305 43.6808V41.0247H29.6805V43.6808H18.5305ZM8.99543 21.8405L8.93787 20.5727C8.92131 20.2069 9.05124 19.8598 9.30437 19.5951C9.55735 19.3302 9.89836 19.1845 10.2646 19.1845H39.0168C39.0174 19.1845 39.018 19.1846 39.0186 19.1846C39.0196 19.1846 39.0206 19.1845 39.0218 19.1845H39.2165C39.249 19.1845 39.277 19.1965 39.2994 19.2199C39.3218 19.2435 39.3325 19.2719 39.331 19.3044L39.2157 21.8407L8.99543 21.8405ZM38.2806 42.4129C38.2482 43.1238 37.6655 43.6808 36.9537 43.6808H31.8778V41.0247H38.3437L38.2806 42.4129ZM16.3333 41.0247V43.6808H11.2601C11.2594 43.6808 11.2586 43.6808 11.2579 43.6808H10.0979C10.0364 43.6808 9.98611 43.6327 9.98332 43.5713L9.8676 41.0247H16.3333ZM29.5658 70.3746C27.8371 70.3746 26.1293 70.6518 24.4894 71.1984L21.8134 72.0904C20.3984 72.5621 18.9246 72.8013 17.4331 72.8013C17.4328 72.8013 17.4322 72.8013 17.4319 72.8013L15.0772 72.801C11.0623 72.8004 7.50481 70.3913 6.01418 66.6645L5.94182 66.4835C4.79353 63.6123 5.14963 60.3353 6.89397 57.7176L7.09172 57.4211C9.44924 53.8834 11.1411 50.0039 12.1281 45.878H19.7067L31.2788 70.4682C30.7098 70.4073 30.138 70.3746 29.5658 70.3746ZM34.8778 72.8014C34.8335 72.8014 34.7928 72.7755 34.7739 72.7355L34.1661 71.4441C34.1654 71.4425 34.1647 71.4409 34.1639 71.4393L22.1349 45.878H27.7528L40.4228 72.8013H34.8778V72.8014ZM69.722 69.0472C69.722 71.1173 68.0379 72.8017 65.9679 72.802C63.3783 72.8023 60.6537 72.8026 60.3151 72.8027C60.3148 72.8027 60.3145 72.8027 60.314 72.8027C59.749 72.8027 59.2236 72.5224 58.9072 72.0507C58.3134 71.1656 57.4088 70.573 56.3604 70.3815C55.312 70.1903 54.2565 70.4253 53.3872 71.044L53.3245 71.0887C51.7758 72.1916 49.9523 72.7768 48.0499 72.7812L44.4785 72.7934L52.6574 62.7958C53.2374 63.0346 53.8243 63.2631 54.4114 63.4765L54.6656 63.5689C55.566 63.8963 56.5065 64.1027 57.461 64.1823L68.504 65.1025C69.1869 65.1593 69.7218 65.7407 69.7218 66.426V69.0472H69.722Z" fill="#233877"/>
</g>
<defs>
<clipPath id="clip0_1_183">
<rect width="75" height="75" fill="white"/>
</clipPath>
</defs>
</svg>
