<svg width="75" height="75" viewBox="0 0 75 75" fill="none" xmlns="http://www.w3.org/2000/svg">
<g clip-path="url(#clip0_1_164)">
<path d="M23.6078 43.2511C23.9057 43.5489 24.3401 43.6641 24.7469 43.5526C25.1531 43.441 25.4682 43.1199 25.5722 42.7116L26.1173 40.5705L29.8887 44.342C30.1175 44.5708 30.4173 44.6852 30.7173 44.6852C31.0173 44.6852 31.3172 44.5708 31.5458 44.342C32.0036 43.8844 32.0036 43.1425 31.5458 42.6848L26.3181 37.457C26.0203 37.1592 25.5857 37.044 25.179 37.1555C24.7728 37.2671 24.4578 37.5882 24.3537 37.9965L23.8087 40.1376L19.5646 35.8934C19.107 35.4358 18.365 35.4358 17.9074 35.8934C17.4496 36.3511 17.4496 37.0929 17.9074 37.5507L23.6077 43.2513L23.6078 43.2511Z" fill="#233877"/>
<path d="M13.4823 50.8899L21.3655 52.5768C21.4471 52.5942 21.5291 52.6027 21.6107 52.6027C21.941 52.6027 22.2606 52.4628 22.4855 52.2107C22.7659 51.8962 22.8558 51.4554 22.721 51.0563L22.0148 48.9627L27.2304 50.0788C27.8629 50.2141 28.4861 49.8109 28.6216 49.178C28.7569 48.5452 28.3537 47.9224 27.7208 47.7869L20.4913 46.2399C20.0793 46.1518 19.6518 46.2914 19.3712 46.6059C19.0907 46.9204 19.0009 47.3612 19.1357 47.7604L19.8419 49.8539L13.9726 48.598C13.3395 48.462 12.7167 48.8657 12.5814 49.4987C12.446 50.1315 12.8495 50.7544 13.4823 50.8899Z" fill="#233877"/>
<path d="M29.9703 34.4449C30.3357 34.6539 30.7857 34.6503 31.1484 34.4358L33.0498 33.3104L33.0407 38.644C33.0396 39.2912 33.5634 39.8168 34.2105 39.818H34.2126C34.8589 39.818 35.3833 39.2946 35.3845 38.6481L35.3971 31.2549C35.3978 30.8336 35.1724 30.4443 34.8064 30.2354C34.4408 30.0262 33.9908 30.0299 33.6283 30.2445L31.7269 31.3699L31.737 25.3677C31.7382 24.7205 31.2144 24.195 30.5672 24.1938H30.5651C29.9188 24.1938 29.3944 24.7172 29.3933 25.3636L29.3796 33.4254C29.3789 33.8467 29.6043 34.236 29.9703 34.4449Z" fill="#233877"/>
<path d="M55.144 59.5717C54.8092 59.613 54.467 59.6339 54.1271 59.6339H54.1129C53.4658 59.6339 52.9482 60.1586 52.9482 60.8058C52.9482 61.453 53.48 61.9777 54.1271 61.9777C54.5626 61.9777 55.0014 61.9507 55.431 61.8978C56.0735 61.8185 56.5298 61.2335 56.4505 60.5912C56.3713 59.949 55.7861 59.4918 55.144 59.5717Z" fill="#233877"/>
<path d="M61.9371 48.9138C62.0972 49.4105 62.5572 49.7268 63.0523 49.7268C63.1712 49.7268 63.2925 49.7085 63.4118 49.6701C64.0279 49.4718 64.3665 48.8114 64.1681 48.1954C64.0327 47.7753 63.8694 47.3602 63.6826 46.9614C63.408 46.3755 62.71 46.1234 62.1242 46.3976C61.5381 46.6723 61.2855 47.37 61.5602 47.9561C61.7052 48.2655 61.8319 48.5877 61.937 48.9138H61.9371Z" fill="#233877"/>
<path d="M63.555 52.0569C62.9187 51.9347 62.3052 52.3513 62.1832 52.9868C62.1187 53.3227 62.0322 53.658 61.9257 53.9832C61.7247 54.5984 62.0603 55.2601 62.6755 55.4612C62.7964 55.5008 62.9191 55.5195 63.0398 55.5195C63.5329 55.5195 63.9918 55.2057 64.1536 54.7115C64.2904 54.2929 64.4018 53.8612 64.4849 53.4287C64.6069 52.7931 64.1906 52.1789 63.555 52.0569Z" fill="#233877"/>
<path d="M52.951 43.3008C52.9995 43.3008 53.0486 43.2977 53.0979 43.2915C53.4365 43.2492 53.7828 43.2277 54.127 43.2277H54.1553C54.8024 43.2277 55.3271 42.703 55.3271 42.0558C55.3271 41.4086 54.8024 40.8839 54.1553 40.8839H54.127C53.6858 40.8839 53.2416 40.9114 52.8069 40.9659C52.1647 41.0462 51.7093 41.632 51.7895 42.2742C51.8638 42.867 52.3684 43.3008 52.951 43.3008Z" fill="#233877"/>
<path d="M59.7312 57.4216C59.4812 57.6557 59.2137 57.8763 58.9362 58.0774C58.4123 58.4572 58.2954 59.19 58.6752 59.7139C58.9045 60.0302 59.2622 60.1981 59.625 60.1981C59.8633 60.1981 60.1042 60.1256 60.3117 59.975C60.6681 59.7167 61.0115 59.4333 61.3327 59.1327C61.8053 58.6904 61.8299 57.9488 61.3875 57.4762C60.9453 57.0038 60.2038 56.9792 59.7311 57.4216H59.7312Z" fill="#233877"/>
<path d="M58.0986 44.2512C58.3976 44.417 58.6894 44.6036 58.9658 44.8059C59.1744 44.9585 59.4167 45.0322 59.6569 45.0322C60.018 45.0322 60.3741 44.866 60.6036 44.5523C60.9858 44.0301 60.8723 43.2968 60.3501 42.9146C59.9949 42.6546 59.6197 42.4147 59.2352 42.2014C58.6693 41.8874 57.9561 42.0918 57.642 42.6582C57.3283 43.2242 57.5327 43.9374 58.0988 44.2512H58.0986Z" fill="#233877"/>
<path d="M44.8452 53.2059C44.2293 53.4053 43.8918 54.0661 44.0912 54.6818C44.227 55.1009 44.3908 55.5156 44.5783 55.9146C44.7778 56.3391 45.1995 56.5883 45.6395 56.5883C45.8067 56.5883 45.9763 56.5524 46.1373 56.4766C46.7229 56.2012 46.9746 55.5033 46.6994 54.9175C46.5536 54.6075 46.4263 54.2854 46.321 53.9597C46.1218 53.3439 45.4605 53.0064 44.8452 53.2059Z" fill="#233877"/>
<path d="M44.0958 48.1655C43.9594 48.5843 43.8486 49.0162 43.7663 49.4487C43.6452 50.0845 44.0624 50.6981 44.6981 50.8191C44.7722 50.8331 44.8461 50.84 44.9187 50.84C45.4702 50.84 45.9617 50.4489 46.0686 49.8871C46.1328 49.5511 46.2188 49.2158 46.3245 48.8903C46.5248 48.2748 46.188 47.6137 45.5726 47.4135C44.9574 47.2137 44.2959 47.55 44.0958 48.1655Z" fill="#233877"/>
<path d="M47.7123 45.7662C47.9997 45.7662 48.288 45.6611 48.5142 45.4488C48.7642 45.214 49.0312 44.9931 49.3081 44.7918C49.8315 44.4111 49.9472 43.6783 49.5666 43.1549C49.1859 42.6315 48.4535 42.5155 47.9297 42.8963C47.5742 43.1549 47.2311 43.4388 46.91 43.7402C46.4382 44.1832 46.4147 44.9247 46.8577 45.3967C47.0884 45.6425 47.4 45.7665 47.7124 45.7665L47.7123 45.7662Z" fill="#233877"/>
<path d="M47.661 58.3194C47.2796 58.8423 47.3944 59.5753 47.9174 59.9568C48.2725 60.2157 48.6478 60.4549 49.0327 60.6678C49.2125 60.7673 49.407 60.8143 49.5987 60.8143C50.0112 60.8143 50.4114 60.5959 50.6253 60.2093C50.9385 59.643 50.7333 58.9299 50.1668 58.6167C49.8671 58.4509 49.5749 58.2647 49.2983 58.063C48.7755 57.6817 48.0423 57.7966 47.6609 58.3194H47.661Z" fill="#233877"/>
<path d="M70.3314 14.1786C70.367 14.1819 70.4023 14.1835 70.4375 14.1835C71.0375 14.1835 71.5487 13.7253 71.6033 13.1163C72.2019 6.44822 72.7087 1.33855 72.7137 1.28772C72.7777 0.643772 72.3075 0.0698464 71.6634 0.00583275C71.0178 -0.0581809 70.4454 0.412034 70.3813 1.05613C70.3764 1.1071 69.8685 6.22702 69.2689 12.9069C69.2109 13.5515 69.6867 14.1209 70.3314 14.1786Z" fill="#233877"/>
<path d="M74.552 60.7311C74.3221 59.9341 73.8979 58.7569 73.3607 57.2669C73.2245 56.8888 73.0821 56.4936 72.9356 56.0845C71.8433 53.0334 69.5703 46.6846 69.5703 43.0137C69.5703 39.8652 69.8785 34.2734 70.4865 26.3936C70.6898 23.758 70.9273 20.8617 71.1924 17.785C71.2479 17.1402 70.7703 16.5724 70.1254 16.5167C69.4833 16.4621 68.9128 16.9389 68.8573 17.5837C68.5918 20.6674 68.3536 23.5708 68.1497 26.2132C67.5371 34.1527 67.2265 39.8052 67.2265 43.0137C67.2265 46.5974 68.9098 51.7935 70.7288 56.8745C70.8759 57.2854 71.0188 57.6822 71.1558 58.0616C71.6578 59.4544 72.0913 60.6571 72.3001 61.3808C73.0928 64.1288 72.8553 68.5481 71.0892 70.8955C70.1978 72.0803 69.0259 72.6563 67.5064 72.6563C58.2847 72.6563 52.7128 71.711 47.3246 70.7969C46.948 70.7331 46.5713 70.6692 46.1938 70.6056C42.3596 69.9605 39.6029 70.5495 36.4103 71.2317C33.2852 71.8995 29.7432 72.6564 23.996 72.6564C19.6282 72.6564 17.1035 72.0996 15.9873 71.7677C14.9435 71.4574 13.8144 71.5267 12.8083 71.963C11.7768 72.4102 10.8416 72.6566 10.1751 72.6566H6.18867C4.02495 72.6566 2.2648 70.8963 2.2648 68.7327C2.2648 67.586 2.76401 66.5004 3.63442 65.7541C4.50483 65.0077 5.65356 64.6799 6.78721 64.8548L8.46226 65.1133C10.0355 65.3565 11.681 64.9931 13.0954 64.0912C14.4335 63.2379 15.8306 62.4834 17.3663 61.7846C17.9553 61.5166 18.2158 60.8218 17.9479 60.2328C17.6799 59.6436 16.985 59.3832 16.3958 59.6514C14.7587 60.3961 13.2671 61.2019 11.8352 62.115C10.9009 62.7106 9.82998 62.9526 8.81953 62.797L7.14448 62.5384C5.33525 62.2591 3.49907 62.7826 2.10864 63.9749C0.718359 65.1671 -0.0791016 66.9013 -0.0791016 68.7327C-0.0791016 72.1887 2.73252 75.0003 6.18853 75.0003H10.175C11.1833 75.0003 12.3829 74.7019 13.7404 74.1133C14.2421 73.896 14.8027 73.861 15.3192 74.0143C16.8316 74.4642 19.5647 75.0003 23.9958 75.0003C29.9906 75.0003 33.8215 74.1818 36.8999 73.5239C40.1001 72.8401 42.4119 72.346 45.8045 72.917C46.181 72.9804 46.5565 73.044 46.9323 73.1079C52.4164 74.0382 58.0869 75.0002 67.5062 75.0002C69.7487 75.0002 71.6353 74.0681 72.9618 72.3047C75.2757 69.229 75.508 64.0462 74.5518 60.7313L74.552 60.7311Z" fill="#233877"/>
<path d="M33.7617 54.4405C32.6134 54.935 31.3604 55.4255 29.978 55.6629C26.7016 56.2257 23.6331 56.9808 20.8573 57.907C20.2434 58.1118 19.9118 58.7757 20.1166 59.3896C20.2803 59.8805 20.7375 60.1909 21.2281 60.1909C21.351 60.1909 21.4761 60.1714 21.5991 60.1302C24.2625 59.2415 27.2151 58.5157 30.3747 57.973C31.9984 57.6941 33.4077 57.1449 34.6888 56.5931C37.6948 55.2982 38.1879 52.7807 38.7098 50.1152C38.9234 49.0244 39.1444 47.8964 39.5477 46.7337C40.1659 44.9514 41.1995 43.6566 42.1992 42.4043C43.5312 40.7359 44.9085 39.0106 44.9382 36.4137C45.0946 22.7814 42.3785 1.24 42.3511 1.02408C42.2695 0.382044 41.6827 -0.072058 41.0408 0.00938732C40.3988 0.0909791 39.9445 0.677649 40.026 1.31969C40.0534 1.534 42.7493 22.9172 42.5947 36.3869C42.5739 38.1781 41.6003 39.3979 40.3674 40.9422C39.2968 42.2835 38.0833 43.8035 37.3333 45.9656C36.8761 47.2841 36.6284 48.549 36.4097 49.6648C35.8989 52.2734 35.549 53.6706 33.7616 54.4406L33.7617 54.4405Z" fill="#233877"/>
</g>
<defs>
<clipPath id="clip0_1_164">
<rect width="75" height="75" fill="white"/>
</clipPath>
</defs>
</svg>
