<svg width="51" height="51" viewBox="0 0 51 51" fill="none" xmlns="http://www.w3.org/2000/svg">
<g clip-path="url(#clip0_3561_13185)">
<path d="M5.17383 28.4573L6.16059 27.3313L9.53378 30.2873L8.54702 31.4133L5.17383 28.4573Z" fill="#134A85"/>
<path d="M3.41992 33.6631L7.89657 33.367L7.99538 34.8612L3.51874 35.1573L3.41992 33.6631Z" fill="#134A85"/>
<path d="M5.93945 40.0779L8.89548 36.7047L10.0214 37.6914L7.0654 41.0646L5.93945 40.0779Z" fill="#134A85"/>
<path d="M47.1615 46.8851C47.8848 44.6579 47.6735 42.421 46.5504 40.4163C46.3028 39.9742 45.9899 39.5544 45.6208 39.1685L40.2543 33.557L38.8294 26.0002C39.0278 24.2914 38.9234 22.553 38.5103 20.8459L37.9311 18.4524L39.1427 15.3626L42.5823 16.6497L45.4792 9.62607L45.4989 9.57227C46.1032 7.71485 45.948 5.73337 45.0619 3.99274C44.1758 2.25211 42.6649 0.96067 40.8075 0.356471C38.8975 -0.264995 36.7914 -0.0673557 35.0294 0.898383L35.7491 2.21139C37.1711 1.43181 38.8031 1.27869 40.3443 1.78028C41.8214 2.2608 43.023 3.28783 43.7277 4.672C43.8814 4.97405 44.0058 5.28558 44.104 5.6028L40.5053 4.14247L39.9235 5.57605C39.7145 6.09121 39.3248 6.50226 38.841 6.74293C38.6097 5.96295 38.0344 5.30085 37.2522 4.98343C36.5776 4.70963 35.8369 4.71502 35.1664 4.99831C34.4959 5.28159 33.9759 5.80923 33.7021 6.4838C33.4905 7.00535 33.4481 7.5812 33.5732 8.12421L32.9213 8.7861C32.6381 7.71495 32.6667 6.58342 33.0156 5.51107C33.332 4.53815 33.8992 3.66504 34.6555 2.98598L33.6552 1.87181C32.7031 2.72655 31.9896 3.82475 31.5917 5.04782C31.0566 6.69272 31.1201 8.44822 31.764 10.0415L29.9275 12.3965C28.7343 11.7318 27.3349 11.5319 25.9875 11.8542L18.7255 13.5923L19.0203 14.8246L14.8024 15.8081L15.1424 17.2661L19.3688 16.2806L20.3986 20.6396L15.0092 21.7999L12.0133 20.8093L11.5433 22.2309L14.4655 23.1971L18.0699 29.3078L14.4562 37.3838L14.3584 37.1017C13.7321 34.053 14.8987 31.0589 14.9102 31.0298L15.0813 30.602L8.92613 23.6256C8.16352 22.7612 7.91767 21.5897 8.26873 20.4917C8.61979 19.3937 9.49948 18.5818 10.6221 18.32L13.6452 17.6151L13.3052 16.1571L10.2822 16.862C8.64135 17.2446 7.35559 18.4311 6.84263 20.0358C6.32966 21.6406 6.68881 23.3529 7.80348 24.6163L13.3626 30.9172C13.0237 31.9532 12.3085 34.6421 12.903 37.4562L12.9127 37.5022L14.2794 41.4453L16.1751 37.2084C16.1837 37.6582 16.2093 38.1288 16.259 38.6126C16.3197 39.2052 16.4124 39.7738 16.5355 40.3182L13.8088 50.9872L36.4126 50.9997L33.831 39.7307L34.2754 38.6357C34.7313 39.3766 35.2638 40.0684 35.8697 40.702L35.9267 40.7617L42.4046 45.0817C42.5402 45.2503 42.8274 45.7122 43.2487 46.9241C43.3837 47.3123 43.6826 47.8732 43.6826 47.8732H46.6251C46.6251 47.8735 47.0299 47.2902 47.1615 46.8851ZM33.1929 10.644L35.3207 8.48355L35.1088 8.0156C34.9685 7.70577 34.9617 7.3618 35.0894 7.04697C35.2128 6.74303 35.4471 6.50526 35.7492 6.37759C36.0514 6.24992 36.3851 6.24743 36.6891 6.371C37.191 6.57463 37.5038 7.09259 37.4497 7.63071L37.3582 8.54184L38.2693 8.45051L38.3052 8.44662C39.6499 8.27813 40.8016 7.39394 41.3109 6.13923L41.3296 6.09291L44.3618 7.32337C44.3598 7.91309 44.2685 8.50521 44.0836 9.08266L41.7503 14.7398L38.4522 13.4889C38.0817 13.3385 37.7919 13.0529 37.6363 12.6846C37.4807 12.3163 37.4777 11.9094 37.6281 11.5389L36.2407 10.9758C35.94 11.7169 35.9458 12.5307 36.2572 13.2674C36.5487 13.957 37.0752 14.5016 37.7492 14.8151L36.8012 17.2328L31.179 13.2265L33.1929 10.644ZM16.1395 23.0883L20.7598 22.0936L20.8533 22.484L18.7867 27.5764L16.1395 23.0883ZM15.7367 49.4903L17.4268 42.877C18.2966 44.6404 19.6062 46.0136 21.3195 46.9369L22.3219 49.4903H15.7367ZM34.5334 49.5027H23.9354L22.5059 45.8614L22.2492 45.7328C19.6332 44.4225 18.1203 41.9888 17.7524 38.4992C17.5729 36.7954 17.7219 35.2351 17.8573 34.3114L26.0832 37.6496L21.7599 41.3477L22.7332 42.4854L27.6454 38.2834L32.4057 40.2153L34.5334 49.5027ZM44.6629 46.4326C44.0949 44.7987 43.6939 44.2593 43.4419 43.9957L43.3849 43.936L36.8958 39.6085C36.1227 38.788 35.4882 37.8586 35.0028 36.8432L36.1464 34.0251L34.759 33.462L32.6364 38.6928L18.2592 32.8583L21.8013 24.1301L28.5395 22.5174L28.191 21.0612L22.385 22.4508L20.5499 14.6952L26.3359 13.3104C27.4903 13.0342 28.6984 13.2837 29.6505 13.995L29.6599 13.9824L36.4861 18.8466L37.055 21.1981C37.7101 23.9055 37.5028 26.7009 36.4553 29.282L35.3306 32.0536L36.7179 32.6166C36.7179 32.6166 37.9271 29.6263 37.9687 29.5166L38.8651 34.271L44.5387 40.2035C44.8208 40.4983 45.058 40.8162 45.2441 41.1483C46.1707 42.8024 46.3367 44.577 45.7373 46.4228L44.6629 46.4326Z" fill="#134A85"/>
</g>
<defs>
<clipPath id="clip0_3561_13185">
<rect width="51" height="51" fill="white"/>
</clipPath>
</defs>
</svg>
