<svg width="51" height="51" viewBox="0 0 51 51" fill="none" xmlns="http://www.w3.org/2000/svg">
<path d="M12.6328 20.7566H14.9023" stroke="#134A85" stroke-width="1.49414" stroke-miterlimit="10" stroke-linecap="round" stroke-linejoin="round"/>
<path d="M12.6328 27.8794H14.9023" stroke="#134A85" stroke-width="1.49414" stroke-miterlimit="10" stroke-linecap="round" stroke-linejoin="round"/>
<path d="M34.6959 20.9756L33.8049 21.7295C33.4736 22.0098 31.4705 22.4237 31.1021 22.4237C30.4235 22.4237 29.8733 21.8736 29.8733 21.1949V20.6132C29.8733 19.2671 28.782 18.1758 27.4359 18.1758H10.9832C10.2883 18.1758 9.69039 18.7098 9.65772 19.4039C9.62286 20.145 10.2133 20.7568 10.9468 20.7568H12.6326V27.8793H10.9832C10.2883 27.8793 9.69049 28.4133 9.65772 29.1074C9.62286 29.8485 10.2133 30.4603 10.9468 30.4603H27.4358C28.7819 30.4603 29.8732 29.369 29.8732 28.0229V25.9061C29.8732 25.2274 30.4234 24.6773 31.102 24.6773L34.0291 24.8184C34.6536 24.8184 35.1598 25.3246 35.1598 25.9491C35.1598 26.655 35.7321 27.2273 36.438 27.2273C37.1439 27.2273 37.7162 26.655 37.7162 25.9491V22.3764C37.7162 21.363 36.8946 20.5414 35.8812 20.5414C35.4472 20.5414 35.0272 20.6952 34.6959 20.9756Z" stroke="#134A85" stroke-width="1.49414" stroke-miterlimit="10" stroke-linecap="round" stroke-linejoin="round"/>
<path d="M12.6328 3.98218H14.9023" stroke="#134A85" stroke-width="1.49414" stroke-miterlimit="10" stroke-linecap="round" stroke-linejoin="round"/>
<path d="M12.6328 11.1047H14.9023" stroke="#134A85" stroke-width="1.49414" stroke-miterlimit="10" stroke-linecap="round" stroke-linejoin="round"/>
<path d="M34.6651 4.11702L33.7483 4.89278C33.4075 5.18124 31.4705 5.64931 31.102 5.64931C30.4234 5.64931 29.8732 5.09917 29.8732 4.42053V3.83881C29.8732 2.49269 28.7819 1.40137 27.4358 1.40137H10.9832C10.2883 1.40137 9.69039 1.93537 9.65772 2.62945C9.62286 3.37054 10.2133 3.98235 10.9468 3.98235H12.6326V11.1049H10.9832C10.2883 11.1049 9.69049 11.6389 9.65772 12.333C9.62286 13.0741 10.2133 13.6859 10.9468 13.6859H27.4358C28.7819 13.6859 29.8732 12.5946 29.8732 11.2485V9.13155C29.8732 8.45291 30.4234 7.90277 31.102 7.90277L33.979 8.07091C34.6215 8.07091 35.1425 8.59177 35.1425 9.23435C35.1425 9.9607 35.7313 10.5495 36.4576 10.5495C37.184 10.5495 37.7728 9.9607 37.7728 9.23435V5.55837C37.7728 4.51565 36.9275 3.67027 35.8847 3.67027C35.4381 3.67027 35.006 3.82855 34.6651 4.11702Z" stroke="#134A85" stroke-width="1.49414" stroke-miterlimit="10" stroke-linecap="round" stroke-linejoin="round"/>
<path d="M13.9434 39.8002L16.5975 39.2505" stroke="#134A85" stroke-width="1.49414" stroke-miterlimit="10" stroke-linecap="round" stroke-linejoin="round"/>
<path d="M15.3867 46.775L17.8058 46.2739" stroke="#134A85" stroke-width="1.49414" stroke-miterlimit="10" stroke-linecap="round" stroke-linejoin="round"/>
<path d="M36.0376 35.6236L35.3646 36.4832C35.1144 36.8028 32.7275 37.612 32.3667 37.6867C31.7021 37.8244 31.0518 37.3973 30.9142 36.7327L30.7962 36.163C30.5232 34.8449 29.2333 33.9976 27.9151 34.2706L11.8045 37.6074C11.1241 37.7484 10.6469 38.3926 10.7557 39.0789C10.8719 39.8116 11.5742 40.2909 12.2923 40.1422L13.943 39.8003L15.3876 46.7749L13.7725 47.1094C13.0921 47.2503 12.6149 47.8945 12.7236 48.5808C12.8398 49.3135 13.5421 49.7929 14.2602 49.6441L30.4066 46.2999C31.7248 46.0268 32.572 44.7369 32.2989 43.4188L31.8696 41.346C31.732 40.6814 32.1591 40.0311 32.8237 39.8935L36.1559 39.2696C36.7279 39.1512 37.2875 39.5187 37.4059 40.0907C37.5398 40.7372 38.1725 41.1527 38.819 41.0189C39.4654 40.885 39.881 40.2523 39.7471 39.6058L39.0694 36.3338C38.8771 35.4057 37.9689 34.8091 37.0407 35.0014C36.6433 35.0834 36.2878 35.304 36.0376 35.6236Z" stroke="#134A85" stroke-width="1.49414" stroke-miterlimit="10" stroke-linecap="round" stroke-linejoin="round"/>
<path d="M12.9437 30.4602C12.9437 30.4602 12.8853 30.8562 12.8888 31.5627C12.896 33.0476 14.196 34.1955 15.6704 34.0189L20.912 33.3915" stroke="#134A85" stroke-width="1.49414" stroke-miterlimit="10" stroke-linecap="round" stroke-linejoin="round"/>
<path d="M12.6328 13.6858V14.6202C12.6328 15.3202 13.2002 15.8876 13.9001 15.8876H25.5886" stroke="#134A85" stroke-width="1.49414" stroke-miterlimit="10" stroke-linecap="round" stroke-linejoin="round"/>
<path d="M32.918 1.99902V5.25685" stroke="#134A85" stroke-width="1.49414" stroke-miterlimit="10" stroke-linecap="round" stroke-linejoin="round"/>
<path d="M32.918 10.4368V21.8531" stroke="#134A85" stroke-width="1.49414" stroke-miterlimit="10" stroke-linecap="round" stroke-linejoin="round"/>
<path d="M35.2988 41.6985C35.2988 41.6985 35.5455 44.0665 37.4215 47.8892" stroke="#134A85" stroke-width="1.49414" stroke-miterlimit="10" stroke-linecap="round" stroke-linejoin="round"/>
<path d="M40.3789 26.7224L42.7036 23.6646" stroke="#134A85" stroke-width="1.49414" stroke-miterlimit="10" stroke-linecap="round" stroke-linejoin="round"/>
<path d="M40.3789 32.7217L43.4366 35.0465" stroke="#134A85" stroke-width="1.49414" stroke-miterlimit="10" stroke-linecap="round" stroke-linejoin="round"/>
<path d="M41.9395 29.7629H45.0752" stroke="#134A85" stroke-width="1.49414" stroke-miterlimit="10" stroke-linecap="round" stroke-linejoin="round"/>
<path d="M34.6236 36.8622C34.7153 36.4597 34.9406 36.0962 35.2728 35.851C36.5759 34.8892 37.421 33.4423 37.421 31.6985C37.421 29.5768 36.17 27.7473 34.3652 26.9075" stroke="#134A85" stroke-width="1.49414" stroke-miterlimit="10" stroke-linecap="round" stroke-linejoin="round"/>
<path d="M26.2402 34.6174L29.2039 33.9775C30.0048 33.8045 30.8353 33.7883 31.6353 33.9653C31.8612 34.0153 32.0996 34.0324 32.345 34.0112C33.4766 33.9137 34.3832 32.9848 34.4558 31.8513C34.5424 30.4998 33.4719 29.3767 32.139 29.3767C31.7256 29.3767 31.3375 29.4849 31.0014 29.6743C30.1276 30.167 29.1558 30.4602 28.1527 30.4602H26.3654" stroke="#134A85" stroke-width="1.49414" stroke-miterlimit="10" stroke-linecap="round" stroke-linejoin="round"/>
</svg>
