<svg width="51" height="51" viewBox="0 0 51 51" fill="none" xmlns="http://www.w3.org/2000/svg">
<path d="M9.44176 40.1912C9.28479 40.6731 9.54916 41.1918 10.0311 41.3488C10.1229 41.3781 10.2184 41.3937 10.3147 41.3937C10.7131 41.3937 11.0638 41.1385 11.1877 40.7594C11.2639 40.5263 11.2437 40.2775 11.1327 40.059C11.0216 39.8405 10.8316 39.6781 10.5984 39.6028C10.5066 39.5725 10.4102 39.5569 10.3147 39.5569C9.91543 39.5569 9.56477 39.8121 9.44176 40.1912Z" fill="#134A85"/>
<path d="M46.3039 7.97195C46.427 7.69867 46.4089 7.38261 46.2554 7.12512C46.1021 6.86763 45.8327 6.70129 45.5338 6.67954C43.5258 6.53294 41.8818 5.78929 40.5607 5.19178C40.1263 4.99534 39.716 4.80972 39.3288 4.66046C38.9276 4.50551 38.4447 4.30043 37.9336 4.08333C35.8635 3.2041 33.0282 2 30.6822 2C23.2698 2 17.2394 8.03042 17.2394 15.4428C17.2394 17.6386 17.7162 19.95 18.5923 22.0471C17.8816 22.4285 17.2423 22.9446 16.7083 23.581C14.9564 25.6689 14.764 28.5528 16.003 30.8097C15.6908 31.0048 15.3828 31.2182 15.0804 31.4502C13.5079 32.6565 12.1255 34.307 11.0818 36.2219C10.8403 36.6661 11.0046 37.2252 11.4499 37.4666C11.5839 37.5401 11.7353 37.5786 11.8877 37.5786C12.2246 37.5786 12.534 37.395 12.6946 37.0994C13.6016 35.4306 14.8454 33.9416 16.1976 32.9071C16.4995 32.6758 16.8065 32.4679 17.1167 32.2822C17.2393 32.4032 17.3661 32.5213 17.5003 32.634C18.702 33.6423 20.1675 34.1346 21.6256 34.1345C23.0817 34.1344 24.5294 33.6414 25.6997 32.6829C26.2488 33.0754 26.7555 33.5434 27.2168 34.0894C28.7452 35.9088 29.5861 38.4654 29.5861 41.289V47.1641H9.63861C9.73591 46.5958 9.90115 45.7026 10.1325 44.6653C10.1857 44.4267 10.1426 44.1807 10.0113 43.9732C9.88004 43.7667 9.67533 43.6234 9.43666 43.5702C9.16861 43.5096 8.88128 43.5766 8.66648 43.7465C8.50216 43.8768 8.3865 44.0613 8.3406 44.266C7.87611 46.3489 7.66405 47.8938 7.65488 47.9599C7.61907 48.2216 7.69894 48.4869 7.87335 48.6861C8.04777 48.8853 8.30021 49 8.56458 49H30.504C30.7454 49 30.9822 48.9018 31.1529 48.731C31.3236 48.5603 31.422 48.3235 31.422 48.082V41.289C31.422 39.6773 31.1829 38.1388 30.7123 36.7175C33.5829 34.3806 35.0023 31.9757 35.5426 30.8921H40.2675C41.5612 30.8921 42.5367 29.9611 42.5367 28.7266V23.5116H43.4905C44.5691 23.5116 45.5514 22.5294 45.5514 21.4508C45.5514 21.1678 45.5514 21.0725 43.8891 17.8689C43.2511 16.6393 42.6061 15.4174 42.3966 15.021C42.3034 14.4682 42.1857 13.934 42.0478 13.4213C44.6844 11.5044 46.2154 8.16849 46.3039 7.97195ZM19.0753 15.4428C19.0753 9.04276 24.2822 3.83594 30.6822 3.83594C32.6546 3.83594 35.2909 4.95559 37.2159 5.77313C37.7415 5.99638 38.2379 6.20715 38.6678 6.3733C39.0069 6.50402 39.3942 6.67917 39.8041 6.8646C40.961 7.38794 42.3432 8.01298 44.0358 8.33225C43.0628 9.99066 40.9682 12.9138 38.292 12.9138C36.9735 12.9138 35.8409 12.7078 34.8416 12.526L34.6152 12.485C34.291 12.4265 33.9599 12.5463 33.7484 12.799L31.6836 15.265C31.1551 15.0175 30.5776 14.8891 29.978 14.8891C27.7524 14.8891 25.9417 16.6998 25.9417 18.9254C25.9417 19.7756 26.2114 20.5986 26.6993 21.278L25.6348 22.6881C24.3402 21.6549 22.7264 21.1648 21.0706 21.3101C20.8169 21.3323 20.5673 21.3706 20.3217 21.4212C19.5155 19.5246 19.0753 17.4293 19.0753 15.4428ZM18.6803 31.2276C16.7416 29.6008 16.4879 26.7 18.1147 24.7613C18.9027 23.8222 20.0093 23.2461 21.2306 23.1392C21.3672 23.1273 21.5032 23.1213 21.6385 23.1213C22.7147 23.1213 23.7467 23.4956 24.581 24.1956C25.5201 24.9836 26.0962 26.0903 26.203 27.3116C26.3099 28.5329 25.9347 29.7228 25.1466 30.662C23.52 32.6005 20.6191 32.8543 18.6803 31.2276ZM40.6086 15.463C40.6245 15.5625 40.6567 15.6586 40.7038 15.7477C41.9619 18.1223 43.3278 20.7608 43.6781 21.5252C43.6287 21.5954 43.5428 21.6683 43.4904 21.6758H41.6187C41.1118 21.6758 40.7007 22.0868 40.7007 22.5938V28.7267C40.7007 29.0135 40.4293 29.0563 40.2674 29.0563H34.9533C34.5736 29.0563 34.2332 29.2899 34.0967 29.6441C34.0857 29.6726 33.0513 32.2861 29.9696 34.9439C29.5897 34.2068 29.1397 33.5264 28.623 32.9098C28.1219 32.3088 27.5609 31.7791 26.9466 31.3219C27.7791 30.1011 28.1624 28.6431 28.0319 27.1514C27.9327 26.0177 27.5432 24.9557 26.9098 24.0463L28.002 22.5995L29.3516 23.858C29.5286 24.0229 29.7532 24.1046 29.9774 24.1046C30.2231 24.1046 30.4683 24.0066 30.6489 23.8127C30.9947 23.442 30.9744 22.8611 30.6037 22.5154L28.5092 20.5623C28.5082 20.5614 28.5071 20.5605 28.5061 20.5596C28.5035 20.5572 28.5013 20.5545 28.4986 20.5521C28.0404 20.1381 27.7776 19.5452 27.7776 18.9254C27.7776 17.7122 28.7647 16.7251 29.978 16.7251C30.4702 16.7251 30.9343 16.8832 31.3202 17.1825C31.7105 17.485 32.27 17.4248 32.5866 17.0464L34.8135 14.3867C35.8152 14.5668 36.9444 14.7497 38.292 14.7497C39.0364 14.7497 39.7363 14.5992 40.3889 14.3441C40.4738 14.7057 40.5472 15.0795 40.6086 15.463Z" fill="#134A85"/>
<path d="M23.4013 25.6018C22.8378 25.129 22.1237 24.904 21.3912 24.968C20.6584 25.032 19.9944 25.3777 19.5215 25.9413C19.0487 26.5047 18.8235 27.2186 18.8877 27.9515C18.9518 28.6843 19.2975 29.3482 19.861 29.821C20.376 30.2532 21.0041 30.4641 21.6289 30.4641C22.4154 30.4641 23.1968 30.1298 23.7407 29.4816C24.7168 28.3184 24.5646 26.5779 23.4013 25.6018ZM22.3344 28.3015C22.1768 28.4893 21.9554 28.6045 21.7112 28.6259C21.4671 28.6471 21.2291 28.5723 21.0411 28.4146C20.8533 28.257 20.7381 28.0356 20.7167 27.7914C20.6954 27.5471 20.7703 27.3091 20.928 27.1213C21.0856 26.9335 21.3069 26.8183 21.5512 26.7969C21.5784 26.7945 21.6057 26.7933 21.6328 26.7933C21.848 26.7933 22.0544 26.8682 22.2213 27.0081C22.4091 27.1658 22.5243 27.3871 22.5457 27.6314C22.567 27.8756 22.492 28.1137 22.3344 28.3015Z" fill="#134A85"/>
<path d="M7.86477 24.7823C7.92076 25.2473 8.31604 25.5905 8.77512 25.5905C8.80477 25.5905 8.8346 25.5891 8.86471 25.5862L12.0086 25.2814C12.5132 25.2325 12.8826 24.7838 12.8337 24.2792C12.7847 23.7746 12.3361 23.4044 11.8314 23.4541L9.58018 23.6723L9.41292 22.2842C9.38327 22.038 9.25531 21.8144 9.05813 21.664C8.86095 21.5137 8.61144 21.4495 8.36607 21.4861L5.39983 21.9286C4.89844 22.0034 4.55255 22.4706 4.62736 22.972C4.70218 23.4734 5.16979 23.8189 5.67073 23.7444L7.70311 23.4412L7.86477 24.7823Z" fill="#134A85"/>
<path d="M9.89444 18.8324C9.98486 19.0638 10.1652 19.2487 10.3943 19.3448C10.6234 19.4408 10.8816 19.4401 11.1101 19.3425L12.3957 18.7934L13.3323 20.8521C13.4862 21.1903 13.8197 21.3902 14.1684 21.3902C14.2956 21.3902 14.4247 21.3636 14.548 21.3075C15.0095 21.0976 15.2133 20.5533 15.0034 20.0918L13.6955 17.2167C13.489 16.7629 12.9582 16.557 12.4993 16.7527L11.2598 17.2821L10.535 15.4269C10.3505 14.9546 9.81798 14.7215 9.34586 14.906C8.87366 15.0905 8.6404 15.6229 8.82491 16.0951L9.89444 18.8324Z" fill="#134A85"/>
</svg>
