<svg width="51" height="51" viewBox="0 0 51 51" fill="none" xmlns="http://www.w3.org/2000/svg">
<path d="M37.3132 21.7833C38.0758 20.7262 38.551 19.4523 38.6138 18.0813C38.7551 15.0078 36.9071 12.2512 34.0158 11.2221C33.0699 10.8844 32.4343 9.99485 32.4343 9.00855V0.746895C32.4343 0.33431 32.0999 0 31.6874 0H26.9939C26.5814 0 26.247 0.33431 26.247 0.746895C26.247 1.15948 26.5814 1.49379 26.9939 1.49379H30.9405V9.00855C30.9405 10.6246 31.9746 12.0795 33.5143 12.629C35.783 13.4365 37.2325 15.6001 37.1216 18.0127C36.9943 20.7877 34.7209 23.061 31.9458 23.1884C28.881 23.3297 26.248 20.8251 26.248 17.7543C26.248 17.3417 25.9136 17.0074 25.5011 17.0074C25.0886 17.0074 24.7542 17.3417 24.7542 17.7543C24.7542 20.8263 22.1212 23.3281 19.0563 23.1884C16.2813 23.0611 14.008 20.7878 13.8806 18.0126C13.7697 15.6001 15.2193 13.4366 17.4885 12.6288C19.0276 12.0794 20.0616 10.6245 20.0616 9.00845V1.49379H23.7383C24.1508 1.49379 24.4852 1.15948 24.4852 0.746895C24.4852 0.33431 24.1508 0 23.7383 0H19.3147C18.9022 0 18.5678 0.33431 18.5678 0.746895V9.00855C18.5678 9.99475 17.9323 10.8844 16.9869 11.2219C14.0949 12.2512 12.2469 15.0078 12.3883 18.0812C12.4513 19.4517 12.926 20.7253 13.6881 21.7822C12.0588 22.2124 10.834 23.8258 10.834 25.4941C10.834 27.2709 12.0474 28.7688 13.6889 29.2049C11.0523 32.8593 12.7391 38.2542 16.9862 39.7661C17.9322 40.1038 18.5677 40.9933 18.5677 41.9796V43.2155C18.5677 43.628 18.9021 43.9624 19.3146 43.9624C19.7271 43.9624 20.0615 43.628 20.0615 43.2155V41.9796C20.0615 40.3635 19.0274 38.9087 17.4878 38.3591C15.3129 37.5843 13.7744 35.2857 13.8804 32.9754C14.0077 30.2005 16.2811 27.9271 19.0562 27.7997C22.1211 27.6617 24.754 30.1609 24.754 33.2339C24.754 33.6464 25.0884 33.9807 25.5009 33.9807C25.9134 33.9807 26.2478 33.6464 26.2478 33.2339C26.2478 30.1617 28.8809 27.6602 31.9457 27.7997C34.7207 27.927 36.994 30.2004 37.1214 32.9753C37.2276 35.2951 35.6974 37.5842 33.5135 38.3592C31.9744 38.9087 30.9404 40.3635 30.9404 41.9796V43.2155C30.9404 43.628 31.2748 43.9624 31.6873 43.9624C32.0998 43.9624 32.4342 43.628 32.4342 43.2155V41.9796C32.4342 40.9934 33.0698 40.1038 34.0145 39.7665C38.2756 38.2545 39.9774 32.8991 37.3139 29.206C38.9432 28.7758 40.168 27.1624 40.168 25.494C40.1681 23.7172 38.9547 22.2194 37.3132 21.7833ZM36.0765 27.8849C36.0765 27.8849 33.5449 26.3777 32.0145 26.3074C29.3144 26.1837 26.7342 27.6709 25.5011 30.0918C24.2678 27.6703 21.6882 26.1847 18.9878 26.3074C17.4574 26.3777 16.0472 26.9605 14.9258 27.8849C13.6693 27.4347 12.3279 27.3282 12.3279 25.494C12.3279 23.6583 13.6684 23.5537 14.9258 23.1032C16.0472 24.0275 17.4574 24.6104 18.9877 24.6806C21.688 24.8055 24.2682 23.3169 25.5011 20.8962C26.6796 23.2101 29.0997 24.6884 31.6836 24.6882C33.2012 24.6882 34.9255 24.0518 36.0765 23.1031C37.3329 23.5533 38.5062 23.6675 38.6744 25.4939C38.7959 26.8135 37.8746 27.8841 36.0765 27.8849Z" fill="#134A85"/>
<path d="M31.8024 20.0746C31.3903 20.0935 31.0716 20.443 31.0907 20.8551C31.1091 21.2555 31.4394 21.5676 31.8362 21.5676C31.8477 21.5676 31.8594 21.5673 31.8711 21.5668C33.8166 21.4773 35.4106 19.8832 35.5001 17.9378C35.578 16.2438 34.5609 14.7247 32.9692 14.1577C32.5812 14.0195 32.1535 14.222 32.015 14.6105C31.8766 14.9991 32.0793 15.4263 32.4679 15.5648C33.4366 15.9099 34.0554 16.836 34.0079 17.8692C33.9536 19.0515 32.9848 20.0202 31.8024 20.0746Z" fill="#134A85"/>
<path d="M31.6859 45.7229C31.2734 45.7229 30.939 46.0572 30.939 46.4698V49.5062H20.0602V46.4698C20.0602 46.0572 19.7258 45.7229 19.3133 45.7229C18.9008 45.7229 18.5664 46.0572 18.5664 46.4698V50.2531C18.5664 50.6657 18.9008 51 19.3133 51H31.6859C32.0984 51 32.4328 50.6657 32.4328 50.2531V46.4698C32.4328 46.0572 32.0984 45.7229 31.6859 45.7229Z" fill="#134A85"/>
<path d="M19.1981 30.9134C19.6102 30.8944 19.9289 30.545 19.9098 30.1329C19.8909 29.7208 19.5411 29.4027 19.1294 29.4212C17.1839 29.5107 15.5898 31.1048 15.5003 33.0502C15.4224 34.7441 16.4395 36.2633 18.0312 36.8304C18.4118 36.9574 18.7298 36.8066 18.9854 36.3776C19.1238 35.989 18.9211 35.5617 18.5325 35.4232C17.5638 35.0782 16.945 34.152 16.9925 33.1188C17.0469 31.9365 18.0157 30.9677 19.1981 30.9134Z" fill="#134A85"/>
<path d="M45.6079 24.7471H42.5145C42.102 24.7471 41.7676 25.0814 41.7676 25.494C41.7676 25.9066 42.102 26.2409 42.5145 26.2409H45.6079C46.0204 26.2409 46.3548 25.9066 46.3548 25.494C46.3548 25.0814 46.0204 24.7471 45.6079 24.7471Z" fill="#134A85"/>
<path d="M43.4959 22.4757L45.6832 20.2884C45.9749 19.9966 45.9749 19.5238 45.6832 19.2321C45.3915 18.9405 44.9186 18.9405 44.627 19.2321L42.4397 21.4194C42.148 21.7112 42.1422 22.1899 42.4397 22.4757C42.7047 22.7305 43.1944 22.7803 43.4959 22.4757Z" fill="#134A85"/>
<path d="M43.4957 28.5124C43.204 28.2208 42.7311 28.2208 42.4395 28.5124C42.1478 28.8042 42.1478 29.277 42.4395 29.5687L44.6268 31.756C44.9788 32.0476 45.331 32.0476 45.683 31.756C45.9747 31.4642 45.9747 30.9914 45.683 30.6997L43.4957 28.5124Z" fill="#134A85"/>
<path d="M8.48682 24.7471H5.39338C4.98089 24.7471 4.64648 25.0814 4.64648 25.494C4.64648 25.9066 4.98089 26.2409 5.39338 26.2409H8.48682C8.89931 26.2409 9.23372 25.9066 9.23372 25.494C9.23372 25.0814 8.89931 24.7471 8.48682 24.7471Z" fill="#134A85"/>
<path d="M7.50568 22.4757C7.85772 22.7673 8.20986 22.7673 8.56189 22.4757C8.85358 22.1839 8.85358 21.7111 8.56189 21.4194L6.37458 19.2321C6.0829 18.9405 5.60996 18.9405 5.31838 19.2321C5.02669 19.5239 5.02669 19.9967 5.31838 20.2884L7.50568 22.4757Z" fill="#134A85"/>
<path d="M7.50568 28.5124L5.31838 30.6997C5.02669 30.9915 5.02669 31.4643 5.31838 31.756C5.67041 32.0476 6.02255 32.0476 6.37458 31.756L8.56189 29.5687C8.85358 29.2769 8.85358 28.8041 8.56189 28.5124C8.2703 28.2208 7.79737 28.2208 7.50568 28.5124Z" fill="#134A85"/>
</svg>
