<svg width="51" height="51" viewBox="0 0 51 51" fill="none" xmlns="http://www.w3.org/2000/svg">
<g clip-path="url(#clip0_3561_13130)">
<path d="M34.0565 36.1C34.0565 36.0478 34.0459 35.9992 34.0352 35.9488C34.0285 35.917 34.0328 35.8856 34.0218 35.8542C34.0171 35.8413 34.0069 35.833 34.0018 35.8205C33.9818 35.7722 33.9524 35.7312 33.9224 35.6879C33.8965 35.6504 33.8743 35.612 33.8427 35.5804C33.8117 35.5494 33.7739 35.5274 33.737 35.5019C33.6929 35.4715 33.6511 35.4415 33.6017 35.4213C33.5897 35.4164 33.5818 35.4062 33.5693 35.4019L30.2009 34.2159L32.7119 30.7554C32.9224 30.4645 32.8947 30.0649 32.6454 29.8068C32.3967 29.5471 31.9969 29.5049 31.7001 29.7056L28.7078 31.7132L28.9067 28.5026C28.9316 28.0948 28.6215 27.7434 28.2131 27.7179C27.8022 27.7121 27.4534 28.0037 27.4279 28.4115L27.1364 33.1169C27.119 33.398 27.2631 33.6647 27.5072 33.8046C27.7514 33.9445 28.0546 33.9335 28.2884 33.7775L29.0699 33.2528L28.4195 34.1492C28.2824 34.3389 28.2425 34.5812 28.312 34.8046C28.3814 35.0278 28.5527 35.2047 28.7733 35.2824L31.0954 36.1002L28.7733 36.9181C28.5527 36.9956 28.3816 37.1726 28.312 37.3958C28.2427 37.619 28.2824 37.8613 28.4195 38.0511L29.0693 38.9462L28.2882 38.4223C28.0544 38.2655 27.7518 38.254 27.507 38.395C27.2629 38.535 27.1188 38.8016 27.1362 39.0827L27.4277 43.7888C27.452 44.1815 27.7784 44.4834 28.1664 44.4834C28.1815 44.4834 28.197 44.483 28.2127 44.4824C28.6211 44.4569 28.9312 44.1052 28.9063 43.6976L28.7074 40.487L31.6997 42.4946C31.9965 42.6941 32.3969 42.6531 32.645 42.3934C32.8945 42.1354 32.9222 41.7357 32.7115 41.4448L30.2005 37.9844L33.5689 36.7983C33.582 36.7936 33.5903 36.7832 33.6028 36.7781C33.6701 36.7504 33.7321 36.7136 33.7888 36.6671C33.8117 36.6486 33.831 36.6288 33.8512 36.6078C33.8918 36.5655 33.9259 36.5188 33.9561 36.4666C33.9716 36.4399 33.9875 36.4148 33.9995 36.3862C34.0057 36.3719 34.0161 36.3609 34.0212 36.346C34.0322 36.3146 34.0279 36.2832 34.0346 36.2514C34.0452 36.201 34.0556 36.1524 34.0559 36.1002L34.0565 36.1Z" fill="#134A85"/>
<path d="M23.4945 33.8045C23.7387 33.6645 23.8827 33.3979 23.8654 33.1168L23.5743 28.4113C23.5488 28.0035 23.2097 27.7091 22.7891 27.7177C22.3805 27.7432 22.0704 28.0943 22.0953 28.5025L22.2944 31.7131L19.3015 29.7055C19.0037 29.5048 18.6042 29.547 18.3562 29.8067C18.1067 30.0647 18.0789 30.4644 18.2897 30.7553L20.8007 34.2157L17.4323 35.4018C17.4204 35.4061 17.4127 35.4159 17.401 35.4203C17.3496 35.4416 17.3054 35.4726 17.2595 35.5048C17.2252 35.5291 17.1893 35.5497 17.1599 35.5791C17.1269 35.6119 17.1034 35.6517 17.0767 35.6908C17.0481 35.7331 17.0194 35.7731 17 35.8202C16.9949 35.8326 16.9843 35.8412 16.9798 35.854C16.969 35.8855 16.9731 35.9169 16.9665 35.9487C16.9559 35.9991 16.9455 36.0476 16.9453 36.0999C16.9453 36.1521 16.9559 36.2006 16.9665 36.251C16.9733 36.2829 16.969 36.3143 16.9798 36.3457C16.9851 36.3606 16.9955 36.3716 17.0016 36.3859C17.0137 36.4144 17.0296 36.4393 17.0451 36.4663C17.0753 36.5183 17.1093 36.5652 17.1499 36.6074C17.1701 36.6284 17.1895 36.6482 17.2123 36.6668C17.2691 36.7133 17.3309 36.75 17.3984 36.7778C17.4108 36.7831 17.4192 36.7935 17.4323 36.798L20.8007 37.984L18.2897 41.4445C18.0791 41.7354 18.1069 42.135 18.3562 42.3931C18.6042 42.6517 19.0037 42.6931 19.3015 42.4942L22.2944 40.4863L22.0953 43.6974C22.0704 44.1056 22.3805 44.4567 22.7891 44.4822C22.8048 44.4828 22.8203 44.4832 22.8354 44.4832C23.2236 44.4832 23.55 44.1815 23.5743 43.7886L23.8654 39.0826C23.8827 38.8014 23.7387 38.5348 23.4945 38.3949C23.2493 38.2533 22.9472 38.2653 22.7134 38.4222L21.9323 38.9461L22.582 38.0509C22.7191 37.8612 22.7591 37.6189 22.6895 37.3957C22.6202 37.1725 22.4488 36.9954 22.2283 36.9179L19.9062 36.1001L22.2283 35.2822C22.4488 35.2047 22.62 35.0276 22.6895 34.8045C22.7589 34.5813 22.7191 34.3389 22.582 34.149L21.9317 33.2526L22.7134 33.7773C22.9472 33.934 23.2493 33.9456 23.4945 33.8045Z" fill="#134A85"/>
<path d="M15.4386 31.859C15.2517 31.002 15.091 30.2617 14.9908 29.3802C14.8894 28.4946 14.8664 27.5793 14.9225 26.659C14.9455 26.2755 14.6707 25.9373 14.2901 25.8816C13.9047 25.8314 13.5489 26.0725 13.4622 26.4461C13.2644 27.2933 13.1267 28.1429 13.0536 28.9712L13.0136 29.4936C12.9808 29.9642 12.961 30.249 12.8384 30.6219C12.6811 31.1003 12.4108 31.5485 12.0359 31.9539C11.908 32.0916 11.8376 32.2731 11.8386 32.4616C11.841 32.7964 11.8433 33.2996 11.8386 33.9127C11.8288 35.4667 11.786 36.8027 11.7686 37.1579C11.6842 38.8542 11.0061 40.3544 9.97383 42.6402C8.64375 45.5835 7.97545 47.0611 7.09274 48.3094C6.94749 48.5152 6.50502 49.1404 6.22656 50.0409C6.10579 50.432 6.32489 50.8461 6.71534 50.9669C6.78817 50.9893 6.86161 50.9997 6.93403 50.9997C7.25043 50.9997 7.54317 50.7955 7.6415 50.4781C7.8504 49.8026 8.17843 49.3387 8.30165 49.1639C9.26657 47.8002 9.95405 46.2791 11.3304 43.2344C12.3863 40.8968 13.1489 39.2079 13.2472 37.2317C13.2658 36.8696 13.3096 35.5069 13.3194 33.9229C13.3229 33.4551 13.3225 33.0495 13.3213 32.7325C13.5551 32.452 13.7546 32.1554 13.9196 31.8453C13.9445 31.9581 13.9688 32.072 13.9937 32.1866C14.3062 33.6175 15.0149 38.0761 14.5542 41.4764C14.5542 41.4768 14.5545 41.4774 14.5542 41.4778C14.5542 41.4786 14.5536 41.479 14.5536 41.4798C14.4941 41.9321 14.3535 42.245 14.0122 42.9709C13.3751 44.3236 12.8661 45.3613 12.6619 45.7765C12.1424 46.8442 11.919 47.9193 11.7437 50.2029C11.7125 50.6107 12.0173 50.9662 12.4253 50.9975C12.4445 50.9991 12.4635 50.9997 12.4826 50.9997C12.8661 50.9997 13.1909 50.7047 13.2203 50.3161C13.398 48.0044 13.6201 47.1918 14.0343 46.341C14.1968 46.0107 14.7099 44.965 15.3523 43.6006C15.7126 42.8352 15.93 42.3725 16.0216 41.6759C16.0216 41.6757 16.0216 41.6755 16.0216 41.6753C16.0216 41.6749 16.0216 41.6747 16.0216 41.6743C16.0218 41.6732 16.022 41.6726 16.022 41.6718C16.022 41.6714 16.022 41.6712 16.022 41.6708C16.5108 38.0588 15.7685 33.3721 15.4382 31.8586L15.4386 31.859Z" fill="#134A85"/>
<path d="M20.7554 0H20.7456C20.341 0 20.0101 0.324972 20.0048 0.730524L19.9736 3.33193C19.9875 3.53654 19.9695 3.73789 19.9204 3.9323C19.91 3.97514 19.8041 4.36662 19.4141 4.82929C19.0964 5.20588 18.526 5.55227 17.7172 5.85827C17.0993 6.09246 16.6792 6.1763 16.044 6.3036L15.6331 6.38704C13.9501 6.73506 13.1054 6.90989 12.3267 7.23302C10.1843 8.1243 9.00577 9.90338 8.59899 10.6264C7.86255 11.9311 7.72179 13.0721 7.50841 14.802C7.3191 16.3318 7.35908 17.695 7.38111 18.4279C7.40192 19.1348 7.44068 19.555 7.4725 19.8953C7.50943 20.2996 7.53207 20.5436 7.50372 21.0473C7.46496 21.7397 7.37764 22.0502 7.25688 22.48C7.15161 22.8566 7.01962 23.3243 6.9011 24.1271C6.6667 25.7073 6.71301 26.9535 6.77156 28.5314C6.79992 29.304 6.85418 30.0861 6.93415 30.8593C6.82542 30.9807 6.70342 31.1206 6.57368 31.2785C5.51023 32.5694 4.73442 33.9829 4.26685 35.4797C3.91454 36.608 3.81274 37.5462 3.6271 39.2553C3.51654 40.2802 3.49042 40.9122 3.4686 41.4536C3.44187 42.1019 3.4229 42.5699 3.26786 43.4524C3.24705 43.5734 3.24114 43.5895 3.15219 43.9365C3.05856 44.3021 2.88026 44.9961 2.52265 46.4241C2.12179 48.0263 1.85904 48.7827 1.66768 49.335C1.57792 49.594 1.50163 49.815 1.43206 50.0528C1.31762 50.4455 1.54386 50.8562 1.93594 50.9706C2.0053 50.9908 2.07487 51.0002 2.14362 51.0002C2.4641 51.0002 2.7597 50.7903 2.85415 50.467C2.91678 50.2523 2.98614 50.0541 3.06712 49.8203C3.26806 49.2419 3.54265 48.4496 3.95983 46.7839C4.3156 45.3606 4.49329 44.6695 4.58692 44.3045C4.69688 43.8759 4.70096 43.8557 4.72707 43.7076C4.89884 42.7296 4.9221 42.1662 4.94862 41.5138C4.96942 40.9969 4.9937 40.3934 5.1008 39.4081C5.28073 37.7459 5.37151 36.912 5.68118 35.9211C6.09142 34.6076 6.77646 33.3626 7.71649 32.2202C7.92375 31.9693 8.10756 31.7673 8.2424 31.6263C8.39397 31.4672 8.4668 31.2497 8.44252 31.0323C8.34705 30.1857 8.283 29.3256 8.25158 28.4772C8.19609 26.9751 8.15203 25.7895 8.36623 24.3441C8.47149 23.6344 8.5792 23.2511 8.68324 22.8804C8.81278 22.42 8.93498 21.9845 8.98292 21.1307C9.0176 20.5171 8.98639 20.1827 8.94763 19.7594C8.91805 19.4402 8.88153 19.0458 8.86154 18.3841C8.84134 17.6911 8.80299 16.4014 8.97904 14.9803C9.18447 13.3188 9.29728 12.4038 9.89031 11.3528C10.149 10.8932 11.1308 9.33422 12.8958 8.60044C13.544 8.33095 14.3428 8.16612 15.9334 7.83707L16.3349 7.75547C16.9916 7.6243 17.5105 7.52066 18.2423 7.24302C19.3045 6.84114 20.0585 6.36337 20.5473 5.7832C21.1246 5.09837 21.3131 4.46801 21.3574 4.29338C21.4441 3.94985 21.4759 3.59305 21.4532 3.29236L21.4861 0.750516C21.4912 0.341088 21.1638 0.005304 20.7554 0Z" fill="#134A85"/>
<path d="M49.5302 49.9514C49.183 49.1932 49.0529 48.723 48.4772 46.4239C48.1198 44.9965 47.9421 44.3031 47.8478 43.9369C47.7587 43.5883 47.7536 43.572 47.7322 43.4512C47.5771 42.5703 47.5581 42.1017 47.5314 41.454C47.5094 40.9128 47.4835 40.2806 47.3729 39.2551C47.1883 37.5495 47.0865 36.6096 46.7336 35.4801C46.2654 33.9809 45.4892 32.5674 44.4263 31.2783C44.2968 31.121 44.1752 30.9805 44.0659 30.8591C44.1452 30.0939 44.2001 29.3119 44.2297 28.5231C44.2874 26.9466 44.3333 25.7013 44.0995 24.1269C43.9804 23.3241 43.849 22.8564 43.7431 22.4804C43.6224 22.0506 43.5349 21.7401 43.4961 21.0471C43.4677 20.5434 43.4904 20.2992 43.5273 19.8951C43.5591 19.5548 43.5979 19.1346 43.6187 18.4283C43.6395 17.7511 43.6817 16.3426 43.4914 14.7986C43.278 13.0721 43.1373 11.9316 42.4014 10.6264C41.993 9.90277 40.8121 8.12267 38.6731 7.23302C37.8957 6.90968 37.0509 6.73506 35.3667 6.38642L34.9558 6.3036C34.3206 6.1763 33.9012 6.09246 33.2826 5.85827C32.4732 5.55166 31.9028 5.20588 31.5864 4.82929C31.1959 4.36662 31.0898 3.97494 31.0788 3.92986C31.0303 3.73789 31.0123 3.53654 31.028 3.27236L30.995 0.730524C30.9899 0.321504 30.678 0.014484 30.2445 0C29.836 0.005304 29.5086 0.341088 29.5137 0.750108L29.5484 3.23238C29.5241 3.59264 29.556 3.94944 29.642 4.29073C29.6865 4.4676 29.8758 5.09816 30.4525 5.78238C30.9397 6.36235 31.6937 6.83971 32.7575 7.24282C33.4901 7.52046 34.0085 7.62389 34.6658 7.75526L35.0668 7.83625C36.6584 8.16592 37.4573 8.33136 38.1042 8.60023C39.8665 9.333 40.8512 10.893 41.1109 11.3532C41.7029 12.4034 41.8157 13.3185 42.0216 14.9836C42.198 16.4116 42.1574 17.7435 42.1385 18.3839C42.1183 19.0454 42.0818 19.44 42.0524 19.7592C42.0136 20.1825 41.9824 20.5169 42.0171 21.1305C42.065 21.9849 42.1876 22.4202 42.3174 22.8813C42.4216 23.2513 42.5291 23.635 42.6344 24.3445C42.848 25.7836 42.8043 26.9686 42.749 28.4764C42.7166 29.3364 42.6523 30.1957 42.5575 31.0315C42.5326 31.2495 42.6062 31.467 42.7578 31.6261C42.8927 31.7673 43.0765 31.9684 43.2831 32.2194C44.2238 33.3605 44.9088 34.6057 45.3197 35.9215C45.6297 36.9128 45.7201 37.7492 45.8998 39.4148C46.0063 40.3934 46.0306 40.9973 46.052 41.5144C46.0785 42.1662 46.1012 42.7296 46.2729 43.7076C46.2995 43.8567 46.3035 43.8769 46.4135 44.3051C46.5067 44.6701 46.6844 45.3612 47.04 46.7839C47.6348 49.1587 47.7858 49.7001 48.1832 50.5683C48.3076 50.8403 48.5759 51.0004 48.8572 51.0004C48.9602 51.0004 49.0649 50.979 49.1651 50.9333C49.5365 50.7632 49.7003 50.3235 49.5302 49.9519V49.9514Z" fill="#134A85"/>
<path d="M43.9078 48.3095C43.022 47.058 42.3533 45.5767 41.0185 42.6226C39.9934 40.3531 39.3157 38.8533 39.2313 37.1583C39.2139 36.8031 39.1717 35.4671 39.1613 33.913C39.1572 33.3006 39.1591 32.7967 39.1613 32.462C39.1625 32.2735 39.0919 32.0919 38.964 31.9542C38.5891 31.5487 38.3196 31.1011 38.1623 30.6223C38.0391 30.2482 38.0195 29.963 37.9863 29.4909L37.9465 28.9721C37.8728 28.1398 37.7358 27.2904 37.5379 26.4458C37.4506 26.0723 37.0883 25.824 36.71 25.8826C36.3288 25.9381 36.0546 26.2759 36.0776 26.66C36.1337 27.5756 36.1111 28.4911 36.0099 29.3812C35.9438 29.9618 35.8363 30.4811 35.7288 31.0046C35.6686 31.2984 35.6078 31.5933 35.5534 31.8998C34.6674 36.8739 34.4989 39.818 34.9903 41.737C35.0821 42.3692 35.2808 42.8219 35.6482 43.6018C36.2608 44.905 36.7574 45.9176 36.9418 46.2936L37.006 46.4254C37.3798 47.1912 37.6013 48.0031 37.7796 50.3167C37.8092 50.7053 38.1338 51.0003 38.5173 51.0003C38.5364 51.0003 38.5554 50.9997 38.5746 50.998C38.9826 50.9668 39.2874 50.611 39.2562 50.2034C39.0809 47.9182 38.8575 46.843 38.3386 45.7777L38.2721 45.6418C38.0893 45.2687 37.5962 44.2648 36.9883 42.9714C36.6256 42.2005 36.5034 41.9147 36.4467 41.481C36.4446 41.4653 36.4348 41.4533 36.432 41.438C36.4287 41.4219 36.4336 41.4062 36.4293 41.39C35.993 39.714 36.1725 36.8674 37.0113 32.1588C37.0309 32.0489 37.0519 31.9395 37.0727 31.832C37.2388 32.1472 37.4412 32.4479 37.6784 32.7331C37.6772 33.0501 37.6772 33.4548 37.6801 33.9222C37.6905 35.5075 37.7339 36.8702 37.7525 37.2323C37.8508 39.2068 38.6134 40.8951 39.6697 43.235C41.042 46.2726 41.7305 47.7973 42.6972 49.1632C42.8217 49.3391 43.1507 49.8071 43.358 50.4778C43.4559 50.7959 43.7491 51.0001 44.0657 51.0001C44.1375 51.0001 44.2115 50.9897 44.2837 50.9672C44.6748 50.8469 44.8935 50.4321 44.7731 50.0419C44.4971 49.1467 44.0695 48.5394 43.9076 48.3097L43.9078 48.3095Z" fill="#134A85"/>
<path d="M25.8687 4.55002C25.8923 4.55002 25.9166 4.5488 25.9403 4.54655C26.3477 4.50779 26.6461 4.14651 26.6067 3.73912L26.4886 2.55755C26.4458 2.15098 26.0796 1.8509 25.6753 1.89823C25.2685 1.94045 24.9735 2.3048 25.0157 2.71137L25.1326 3.88029C25.1691 4.2632 25.4919 4.55002 25.8687 4.55002Z" fill="#134A85"/>
<path d="M25.4047 32.6383C25.421 32.6393 25.4375 32.6399 25.4539 32.6399C25.8411 32.6399 26.1666 32.3398 26.1921 31.9481C26.2454 31.1472 26.3056 30.3767 26.3704 29.6244C26.4057 29.2172 26.1038 28.8586 25.6964 28.8233C25.2799 28.7961 24.9304 29.0905 24.8951 29.4971C24.8292 30.2588 24.7678 31.0395 24.7146 31.851C24.6872 32.2588 24.9963 32.6115 25.4047 32.6383Z" fill="#134A85"/>
<path d="M26.0119 5.40645C25.6039 5.43766 25.2991 5.79344 25.3303 6.20103C25.3854 6.92176 25.4397 7.699 25.4892 8.53071C25.5131 8.92341 25.8393 9.22655 26.2281 9.22655C26.2432 9.22655 26.2583 9.22594 26.2732 9.22533C26.6816 9.20044 26.9923 8.84997 26.968 8.44176C26.917 7.6019 26.8628 6.8165 26.8067 6.08781C26.7755 5.68124 26.4201 5.37014 26.0117 5.40645H26.0119Z" fill="#134A85"/>
<path d="M26.3197 10.09C25.9105 10.1079 25.5943 10.4537 25.612 10.8621C25.6449 11.6075 25.6745 12.3866 25.6981 13.1969C25.7098 13.5982 26.0388 13.9158 26.4376 13.9158C26.4452 13.9158 26.4527 13.9158 26.4595 13.9152C26.8685 13.9036 27.1902 13.5625 27.1781 13.1541C27.1543 12.3356 27.1249 11.5496 27.0919 10.7972C27.0745 10.389 26.7412 10.0696 26.3195 10.0898L26.3197 10.09Z" fill="#134A85"/>
<path d="M26.1378 24.1531C25.7294 24.1241 25.3702 24.4163 25.3325 24.8228L25.1109 27.1548C25.0715 27.5619 25.3702 27.9234 25.7774 27.9622C25.801 27.9646 25.8255 27.9657 25.8486 27.9657C26.2258 27.9657 26.5487 27.6788 26.585 27.2959L26.8078 24.9583C26.8447 24.5511 26.545 24.1908 26.1376 24.1531H26.1378Z" fill="#134A85"/>
<path d="M26.4431 19.4729C26.0416 19.4468 25.6881 19.7695 25.6685 20.1779C25.6308 20.9803 25.5829 21.75 25.5274 22.4995C25.4978 22.9073 25.804 23.2622 26.2118 23.2924C26.2303 23.2936 26.2489 23.2942 26.2669 23.2942C26.6516 23.2942 26.9762 22.9976 27.0051 22.6084C27.0606 21.846 27.1098 21.0635 27.1486 20.2475C27.1677 19.8393 26.8517 19.4927 26.4433 19.4731L26.4431 19.4729Z" fill="#134A85"/>
<path d="M26.4796 14.7823C26.0705 14.7877 25.7431 15.123 25.7482 15.532C25.7523 15.857 25.7545 16.1757 25.7539 16.4902C25.7539 16.9582 25.7498 17.4123 25.7423 17.8558C25.7354 18.2646 26.0618 18.6018 26.4708 18.6088H26.4828C26.8861 18.6088 27.2164 18.2854 27.2233 17.8807C27.2309 17.4295 27.235 16.9664 27.235 16.4915C27.2356 16.171 27.2331 15.8454 27.2293 15.5135C27.2235 15.1053 26.9249 14.775 26.4796 14.7823Z" fill="#134A85"/>
<path d="M25.3299 42.0192C25.3385 42.0192 25.3478 42.0192 25.3564 42.0186C25.7656 42.0041 26.0849 41.6612 26.0704 41.2528C26.0443 40.5045 26.0247 39.7271 26.0143 38.9231C26.009 38.5143 25.6198 38.1793 25.2646 38.192C24.8556 38.1973 24.5282 38.5333 24.5333 38.9415C24.5437 39.7571 24.5635 40.546 24.5906 41.3046C24.6045 41.7043 24.9331 42.019 25.3299 42.019V42.0192Z" fill="#134A85"/>
<path d="M25.2633 37.3265H25.2718C25.6768 37.3265 26.0072 37.0009 26.0123 36.5948C26.0221 35.7839 26.0419 35.0117 26.0707 34.2698C26.0864 33.8616 25.7682 33.5172 25.3591 33.5017C24.9687 33.4779 24.6066 33.8034 24.5909 34.2131C24.5619 34.9668 24.5411 35.7527 24.5313 36.5774C24.5266 36.9858 24.854 37.3212 25.2633 37.3265Z" fill="#134A85"/>
<path d="M25.6015 46.7061C25.6211 46.7061 25.6415 46.7055 25.6617 46.7039C26.0689 46.6709 26.3733 46.3141 26.3402 45.9063C26.2819 45.1782 26.2268 44.402 26.1795 43.5813C26.1558 43.1731 25.8007 42.8665 25.3971 42.8848C24.9887 42.9085 24.6768 43.2585 24.7005 43.6667C24.7492 44.4991 24.8041 45.2867 24.8637 46.0254C24.8949 46.4124 25.2188 46.7061 25.6013 46.7061H25.6015Z" fill="#134A85"/>
<path d="M25.7437 47.5997C25.337 47.6419 25.0414 48.0062 25.0842 48.4128C25.1277 48.831 25.1721 49.2243 25.2144 49.5934C25.2582 49.9706 25.5783 50.2486 25.9492 50.2486C25.9775 50.2486 26.0065 50.247 26.0355 50.2439C26.4416 50.1972 26.7331 49.8298 26.6862 49.4232C26.644 49.0601 26.6005 48.6715 26.5571 48.259C26.5142 47.8518 26.1405 47.5564 25.7437 47.5997Z" fill="#134A85"/>
</g>
<defs>
<clipPath id="clip0_3561_13130">
<rect width="51" height="51" fill="white"/>
</clipPath>
</defs>
</svg>
