<svg width="51" height="51" viewBox="0 0 51 51" fill="none" xmlns="http://www.w3.org/2000/svg">
<path d="M8.61948 12.4151L19.6627 7.61002C19.9977 7.46414 20.2144 7.13363 20.2144 6.76815V2.91226C20.1692 1.69545 18.4231 1.69637 18.3783 2.91226V6.16635L7.88686 10.7314C3.81257 12.5043 1.28302 15.2127 2.18089 22.6687L4.28088 40.1071L3.55533 47.9971C3.50887 48.5021 3.8806 48.949 4.38544 48.9954C4.88249 49.0438 5.33922 48.6716 5.38375 48.1653L6.1183 40.1781C6.12417 40.1136 6.12335 40.0486 6.11564 39.9843L4.00399 22.4492C3.62648 19.3144 3.87977 17.0216 4.77865 15.4399C5.49484 14.1795 6.64352 13.275 8.61948 12.4151Z" fill="#134A85"/>
<path d="M43.1148 10.7314L32.6232 6.16645V2.91226C32.5781 1.69545 30.8319 1.69637 30.7871 2.91226V6.76815C30.7871 7.13354 31.0038 7.46414 31.3389 7.61002L42.3821 12.4151C44.358 13.2749 45.5067 14.1795 46.223 15.4399C47.1217 17.0216 47.3751 19.3143 46.9976 22.4492L44.8861 39.9843C44.8784 40.0486 44.8774 40.1136 44.8834 40.1781L45.6179 48.1653C45.6624 48.6717 46.119 49.0438 46.6162 48.9954C47.121 48.949 47.4927 48.5021 47.4463 47.9971L46.7208 40.1071L48.8207 22.6687C49.7184 15.2128 47.189 12.5043 43.1148 10.7314Z" fill="#134A85"/>
<path d="M11.2248 21.1358C11.2248 20.6289 10.8137 20.2178 10.3067 20.2178C9.79978 20.2178 9.38867 20.6289 9.38867 21.1358C9.38867 26.134 10.2328 30.0473 10.9777 33.5C12.2231 38.6059 12.3256 41.9497 10.8559 46.3613C10.7126 46.843 10.5645 47.341 10.4299 47.8436C10.2986 48.3334 10.5892 48.8368 11.079 48.968C11.5557 49.0996 12.0738 48.8128 12.2034 48.3188C12.9624 45.5452 13.7813 43.6224 13.7954 39.9574C13.4941 33.6039 11.0953 28.5731 11.2248 21.1358Z" fill="#134A85"/>
<path d="M41.612 21.1359C41.5711 19.9289 39.8242 19.9108 39.7759 21.1359C39.7759 25.9382 38.9536 29.75 38.2282 33.1129C36.9085 38.4646 36.8356 42.2599 38.3851 46.8849C38.5311 47.3763 38.6691 47.8404 38.7974 48.3188C38.9268 48.8125 39.4452 49.0999 39.9217 48.968C40.4115 48.8368 40.7022 48.3334 40.5709 47.8436C40.4362 47.341 40.2881 46.843 40.1448 46.3613C39.6024 44.5374 39.0414 42.6514 39.0414 39.9573C39.0414 38.0505 39.4963 35.9418 40.023 33.5C40.7678 30.0475 41.612 26.1342 41.612 21.1359Z" fill="#134A85"/>
<path d="M24.2104 28.9388C25.9013 23.8914 27.6498 18.6723 23.457 12.3353C23.1772 11.9123 22.6075 11.7963 22.1848 12.0762C21.762 12.356 21.6459 12.9256 21.9257 13.3484C25.6243 18.9384 24.0918 23.5127 22.4693 28.3557C19.9681 35.0851 19.0383 41.7211 22.8859 48.5173C23.1277 48.9678 23.6921 49.1279 24.1297 48.8893C24.5758 48.6486 24.7425 48.0917 24.5017 47.6455C20.4561 40.1465 22.2797 34.7025 24.2104 28.9388Z" fill="#134A85"/>
<path d="M28.121 30.2364C30.1225 24.2618 32.1922 18.0837 26.8917 10.0726C26.1828 9.08263 24.7267 10.0471 25.3604 11.0857C30.1666 18.3498 28.3271 23.8403 26.3798 29.6531C25.5521 32.1239 24.6962 34.679 24.4869 37.443C24.2476 40.6057 24.9116 43.5898 26.5171 46.566C26.7591 47.0166 27.3235 47.1766 27.761 46.9381C28.2072 46.6974 28.3738 46.1405 28.1331 45.6942C24.9311 39.7585 26.4806 35.1332 28.121 30.2364Z" fill="#134A85"/>
<path d="M35.8663 27.7678L33.5875 27.1573C33.0976 27.0259 32.5945 27.3168 32.4632 27.8065C32.3319 28.2963 32.6225 28.7997 33.1123 28.9308L35.3911 29.5414C36.5721 29.8143 37.0336 28.129 35.8663 27.7678Z" fill="#134A85"/>
<path d="M32.9971 25.2045C33.0757 25.2045 33.1557 25.1943 33.2352 25.1729L35.5139 24.5624C36.0037 24.4312 36.2944 23.9278 36.1631 23.438C36.0318 22.9483 35.5284 22.6576 35.0388 22.7888L32.76 23.3994C31.7267 23.7002 31.935 25.1854 32.9971 25.2045Z" fill="#134A85"/>
<path d="M31.8154 30.4731C31.4569 30.1148 30.8758 30.1147 30.5169 30.4731C30.1584 30.8316 30.1584 31.4129 30.5169 31.7715L32.1851 33.4398C32.5437 33.7983 33.1248 33.7983 33.4835 33.4398C33.842 33.0813 33.842 32.4999 33.4835 32.1413L31.8154 30.4731Z" fill="#134A85"/>
<path d="M18.2682 25.7675C18.7447 25.8993 19.263 25.612 19.3925 25.1183C19.5238 24.6286 19.2331 24.1252 18.7433 23.9939L16.4647 23.3834C15.2777 23.112 14.8267 24.7992 15.9895 25.1569L18.2682 25.7675Z" fill="#134A85"/>
<path d="M18.622 27.752L16.3433 28.3625C15.1752 28.7244 15.6384 30.4091 16.8185 30.136L19.0972 29.5255C19.587 29.3943 19.8776 28.8909 19.7464 28.4011C19.6152 27.9115 19.1115 27.6207 18.622 27.752Z" fill="#134A85"/>
<path d="M21.3396 22.4518C21.6981 22.0933 21.6981 21.512 21.3396 21.1534L19.6714 19.4853C18.7789 18.657 17.545 19.8922 18.373 20.7837L20.0412 22.4518C20.3998 22.8102 20.9811 22.8102 21.3396 22.4518Z" fill="#134A85"/>
</svg>
