<svg width="51" height="51" viewBox="0 0 51 51" fill="none" xmlns="http://www.w3.org/2000/svg">
<path d="M19.2459 15.1561C19.4517 15.0835 19.5598 14.8585 19.4872 14.6526C19.4147 14.4468 19.1896 14.3387 18.9838 14.4113L14.5016 15.9838C13.6724 16.274 12.7647 16.0327 12.1901 15.3693L10.6502 13.5909C10.3422 13.2356 10.1586 12.781 10.1334 12.3116L9.92756 8.435C9.9246 8.27952 9.88758 7.30519 9.93496 6.90539C10.3081 3.92022 12.661 1.62655 15.6565 1.32596C19.1733 0.97058 22.3243 3.54411 22.6812 7.06235C22.8263 8.50311 22.4961 9.90685 21.7261 11.1225C21.6832 11.1847 21.6565 11.2706 21.6565 11.3461L21.661 15.544C21.6624 16.5006 22.1348 17.392 22.927 17.9251C23.4364 18.2686 23.928 18.6447 24.3914 19.043C24.3944 19.0445 24.3974 19.0475 24.3988 19.0489C24.4048 19.0534 24.9941 19.5391 25.653 20.3135C27.0434 21.9512 27.3322 23.7162 27.3351 23.7325C27.3381 23.7488 27.3411 23.7651 27.3455 23.7799C27.8638 25.6071 27.9378 27.6269 27.5587 29.6244C27.4566 30.1604 28.2399 30.2685 28.3346 29.771C28.7344 27.6624 28.6574 25.5242 28.1111 23.5859C28.0681 23.3372 27.7172 21.5247 26.2542 19.8012C25.5701 18.9942 24.9645 18.4907 24.9023 18.4389C24.4181 18.0213 23.9013 17.6274 23.3682 17.2676C22.7937 16.8797 22.4502 16.2341 22.4487 15.5396L22.4443 11.4542C23.272 10.1082 23.6259 8.56382 23.466 6.97795C23.0662 3.02585 19.5272 0.135442 15.5766 0.535242C13.9433 0.699605 12.4034 1.42369 11.238 2.57422C10.0949 3.70403 9.35599 5.19661 9.15313 6.78397C9.0628 7.31259 9.05984 7.94339 9.13684 8.47498L9.34266 12.3486C9.37672 12.9927 9.62845 13.6146 10.0505 14.1033L11.5904 15.8816C12.1576 16.5361 12.9586 16.8915 13.7878 16.8915C14.1121 16.8915 14.4409 16.8367 14.7607 16.7257L16.24 16.2074V18.7943C16.24 19.2814 16.0963 19.7508 15.8268 20.1536C15.1146 21.2153 13.7908 23.3653 12.9261 25.8367C12.0672 28.2932 11.9621 32.1461 12.5618 39.1352C12.8091 42.0552 13.1511 45.0596 13.5746 48.0641C13.6028 48.261 13.7716 48.4032 13.9655 48.4032C13.9833 48.4032 14.0026 48.4017 14.0218 48.3987C14.238 48.3676 14.3875 48.1692 14.3579 47.953C13.9359 44.9634 13.5954 41.9738 13.3495 39.0671C12.7602 32.1979 12.8535 28.4398 13.6724 26.0973C14.509 23.7103 15.7928 21.624 16.4828 20.5934C16.8411 20.0603 17.0307 19.4384 17.0307 18.7943V15.9305L19.2459 15.1561Z" fill="#134A85" stroke="#134A85" stroke-width="0.691491"/>
<path d="M20.2065 22.6174C21.477 22.6174 22.5106 23.6509 22.5121 24.9214V28.3834C22.5121 28.601 22.6883 28.7787 22.9074 28.7787C23.1251 28.7787 23.3028 28.6025 23.3028 28.3834V24.9214C23.3013 23.2156 21.9138 21.8281 20.208 21.8281H20.2065C18.5022 21.8296 17.1148 23.2171 17.1133 24.9214V48.3467C17.1133 48.5644 17.2895 48.7421 17.5086 48.7421C17.7263 48.7421 17.904 48.5659 17.904 48.3467V24.9229C17.9025 23.6524 18.9361 22.6188 20.2065 22.6174Z" fill="#134A85" stroke="#134A85" stroke-width="0.691491"/>
<path d="M41.5176 46.142H38.9308L37.2738 44.3651C37.9668 43.7521 38.4051 42.8562 38.4051 41.8582C38.4051 40.8661 37.9579 39.9288 37.2116 39.2995C38.0971 38.531 38.6124 37.4175 38.6124 36.2255C38.6124 35.0379 38.103 33.9674 37.2901 33.2211L38.109 32.457L40.6855 32.4096C40.9031 32.4052 41.0764 32.226 41.0734 32.0083C41.069 31.7907 40.8868 31.6159 40.6721 31.6204L38.3474 31.6633V29.3075C38.3474 29.0898 38.1712 28.9121 37.952 28.9121C37.7343 28.9121 37.5567 29.0883 37.5567 29.3075V31.8943L36.649 32.7413C36.0315 32.3652 35.3074 32.1475 34.533 32.1475C33.9436 32.1475 33.3632 32.2778 32.8316 32.5222C32.2141 31.61 31.1865 31.0562 30.0656 31.0562C28.2206 31.0562 26.7191 32.5577 26.7191 34.4027C26.7191 34.4634 26.7206 34.5256 26.725 34.5863C26.6125 34.5745 26.5 34.5671 26.3859 34.5671C25.8203 34.5671 25.2872 34.7092 24.8193 34.958L23.0913 33.1041L23.0439 30.5291C23.0395 30.3114 22.8588 30.1382 22.6426 30.1411C22.425 30.1456 22.2517 30.3247 22.2547 30.5424L22.2976 32.8672H19.9403C19.7226 32.8672 19.5449 33.0434 19.5449 33.2625C19.5449 33.4817 19.7211 33.6579 19.9403 33.6579H22.5271L24.1648 35.414C23.4748 36.0271 23.0395 36.92 23.0395 37.9135C23.0395 38.7753 23.3667 39.5883 23.9501 40.2057C23.1683 40.9683 22.727 42.0063 22.727 43.1169C22.727 44.2496 23.1905 45.2758 23.9383 46.0147L22.9314 46.9535L20.3549 47.0008C20.1372 47.0053 19.964 47.1845 19.9669 47.4021C19.9714 47.6183 20.1461 47.7901 20.3608 47.7901H20.3682L22.693 47.7471V50.103C22.693 50.3207 22.8692 50.4984 23.0883 50.4984C23.306 50.4984 23.4837 50.3221 23.4837 50.103V47.5161L24.5557 46.5166C25.2014 46.9446 25.9743 47.1948 26.805 47.1948C27.4669 47.1948 28.114 47.0334 28.6944 46.7299C29.3104 47.3118 30.1293 47.6405 30.9851 47.6405C32.5518 47.6405 33.8726 46.5774 34.2339 45.1011C34.5019 45.1692 34.7773 45.2032 35.0586 45.2032C35.6213 45.2032 36.15 45.0626 36.6164 44.8168L38.3651 46.6928L38.4125 49.2679C38.417 49.484 38.5917 49.6558 38.8064 49.6558H38.8138C39.0315 49.6514 39.2047 49.4722 39.2018 49.2545L39.1588 46.9298H41.5162C41.7338 46.9298 41.9115 46.7536 41.9115 46.5344C41.9115 46.3182 41.7353 46.142 41.5176 46.142ZM34.0784 44.2185C33.84 44.1178 33.5587 44.2866 33.5335 44.5443C33.4061 45.8592 32.3119 46.8513 30.9896 46.8513C30.3988 46.8513 29.8331 46.6469 29.383 46.2797C30.3336 45.5083 30.8889 44.3592 30.8889 43.1154C30.8889 42.4787 30.7452 41.8671 30.4624 41.3015C30.3647 41.106 30.1278 41.0275 29.9323 41.1253C29.7369 41.223 29.6584 41.4599 29.7561 41.6554C29.9841 42.1114 30.0996 42.603 30.0996 43.1169C30.0996 44.2541 29.5236 45.2965 28.5597 45.9036C28.037 46.2338 27.4328 46.4071 26.8109 46.4071C24.997 46.4071 23.5207 44.9308 23.5207 43.1169C23.5207 42.0966 23.9812 41.1519 24.7867 40.5241C25.265 40.148 25.8396 39.9125 26.4452 39.8459C26.6614 39.8222 26.8183 39.6268 26.7946 39.4106C26.7709 39.1944 26.5755 39.0374 26.3593 39.0611C25.7181 39.1322 25.1066 39.3543 24.5735 39.7082C24.1012 39.2314 23.8346 38.5932 23.8346 37.9121C23.8346 36.5024 24.9807 35.3548 26.3904 35.3548C26.6317 35.3548 26.8657 35.3874 27.0863 35.4525C27.3677 35.5355 27.649 35.2704 27.5809 34.9831C27.5365 34.7921 27.5128 34.5967 27.5128 34.4012C27.5128 32.9916 28.6604 31.844 30.07 31.844C30.9081 31.844 31.6781 32.2482 32.1534 32.919C31.0991 33.6801 30.458 34.9136 30.458 36.227C30.458 36.5942 30.5068 36.9585 30.6046 37.3109C30.6623 37.5211 30.88 37.644 31.0903 37.5863C31.3005 37.5285 31.4234 37.3109 31.3657 37.1006C31.2872 36.8163 31.2472 36.5216 31.2472 36.2255C31.2472 35.0572 31.8751 33.9674 32.8864 33.3795C33.3854 33.0893 33.957 32.9353 34.5374 32.9353C36.3513 32.9353 37.8262 34.4116 37.8262 36.2255C37.8262 37.339 37.2679 38.3681 36.335 38.9797C36.0952 39.1366 36.1055 39.5068 36.3513 39.6504C37.1332 40.1065 37.6188 40.952 37.6188 41.8568C37.6188 43.2664 36.4728 44.414 35.0631 44.414C34.721 44.4155 34.3894 44.3503 34.0784 44.2185Z" fill="#134A85" stroke="#134A85" stroke-width="0.691491"/>
<path d="M24.327 11.857C25.2732 12.128 26.2016 12.4864 27.0871 12.9187C28.017 13.3733 28.9129 13.9197 29.748 14.5401C29.8191 14.5935 29.902 14.6186 29.9834 14.6186C30.1034 14.6186 30.2233 14.5638 30.3003 14.4587C30.4306 14.284 30.3936 14.0367 30.2189 13.9064C29.3452 13.2563 28.4079 12.6863 27.4336 12.2095C26.5066 11.7564 25.5353 11.3817 24.5447 11.0974C24.3359 11.0367 24.1167 11.1581 24.056 11.3684C23.9968 11.5787 24.1182 11.7963 24.327 11.857Z" fill="#134A85" stroke="#134A85" stroke-width="0.691491"/>
<path d="M35.7554 27.0982C35.7688 28.1006 35.7081 29.112 35.5748 30.1055C35.5467 30.3217 35.6977 30.5202 35.9139 30.5498C35.9317 30.5527 35.9494 30.5527 35.9672 30.5527C36.1627 30.5527 36.3315 30.4091 36.3581 30.2107C36.4958 29.1786 36.5595 28.1288 36.5462 27.0893C36.5314 25.9817 36.4307 24.8652 36.2441 23.7724C36.2071 23.5577 36.0042 23.4126 35.7895 23.4496C35.5748 23.4866 35.4297 23.6895 35.4667 23.9042C35.6444 24.9555 35.7421 26.0305 35.7554 27.0982Z" fill="#134A85" stroke="#134A85" stroke-width="0.691491"/>
<path d="M33.4444 18.5082C33.9493 19.3152 34.3625 20.1815 34.6734 21.0817C34.7297 21.2446 34.8822 21.3483 35.0466 21.3483C35.0895 21.3483 35.1324 21.3409 35.1754 21.3261C35.3812 21.255 35.4908 21.0299 35.4197 20.8241C35.091 19.8675 34.6512 18.948 34.1137 18.0892C33.5836 17.2407 32.9557 16.4515 32.248 15.7437C32.094 15.5897 31.8437 15.5897 31.6897 15.7437C31.5357 15.8977 31.5357 16.1479 31.6897 16.3019C32.3546 16.9682 32.9454 17.7101 33.4444 18.5082Z" fill="#134A85" stroke="#134A85" stroke-width="0.691491"/>
</svg>
