<svg width="51" height="51" viewBox="0 0 51 51" fill="none" xmlns="http://www.w3.org/2000/svg">
<path d="M29.5488 14.6505C29.8799 14.5821 30.1466 14.3372 30.2429 14.0132C30.3393 13.6891 30.2497 13.3383 30.0098 13.1002C27.1335 10.2446 26.4738 7.02641 27.9929 3.26173C28.1196 2.94787 28.0633 2.58977 27.8463 2.32999C27.6296 2.07029 27.2876 1.95077 26.9558 2.01925L17.0656 4.06376C15.7555 4.33456 14.5872 4.99935 13.696 5.94477C13.2567 4.36237 11.669 3.33048 10.0127 3.64011C8.2202 3.97536 7.10643 5.76356 7.46398 7.50789L7.54714 7.91354L3.94907 8.65728C3.45318 8.75972 3.13391 9.24451 3.23571 9.74067L4.1613 14.2546C4.21023 14.4934 4.35215 14.7029 4.55566 14.8369C4.75927 14.971 5.00767 15.0185 5.24634 14.9692L12.7006 13.4282C13.5887 15.0837 15.1721 16.2725 16.9865 16.6769V20.2073C16.04 20.4697 15.1736 20.9443 14.4474 21.5891C14.1474 19.9485 12.6445 18.8051 10.9826 18.9655C9.17094 19.1393 7.89891 20.8183 8.1016 22.5918L8.1486 23.0026L4.49976 23.423C3.99643 23.481 3.63531 23.9359 3.69277 24.4392L4.21601 29.0178C4.27357 29.5209 4.72842 29.8833 5.23312 29.8255L12.7942 28.9542C13.6882 31.0519 15.6499 32.5347 17.9044 32.8195V36.2505C17.0687 36.4317 16.2812 36.7766 15.5859 37.2645C15.4738 35.6203 14.1067 34.2926 12.4424 34.261C10.6393 34.2268 9.16755 35.7088 9.16755 37.5345V37.9472H5.49566C4.98876 37.9472 4.57769 38.3583 4.57769 38.8652V43.4738C4.57769 43.9808 4.98876 44.3918 5.49566 44.3918H13.1054C13.9017 47.1039 16.3796 49.0002 19.2653 49.0002H29.363C29.7013 49.0002 30.012 48.8143 30.1719 48.5162C30.3317 48.2181 30.3148 47.8564 30.1278 47.5745C27.8838 44.1949 27.8838 40.9092 30.1278 37.5294C30.3148 37.2477 30.3318 36.8858 30.1719 36.5877C30.012 36.2897 29.7012 36.1037 29.363 36.1037H27.0842V31.9465L29.4681 31.6718C29.804 31.6331 30.0915 31.4128 30.2162 31.0985C30.341 30.7843 30.283 30.4269 30.0651 30.1683C27.4521 27.0677 27.0793 23.8033 28.9248 20.1888C29.0787 19.8875 29.0543 19.5259 28.8615 19.248C28.6685 18.9699 28.3375 18.8215 28.0023 18.8594L26.1664 19.0709V15.3498L29.5488 14.6505ZM14.0849 12.0514C13.9226 11.6302 13.4798 11.3921 13.0427 11.4827L5.77509 12.9851L5.21835 10.2696L8.81642 9.52586C9.31231 9.42333 9.63158 8.93864 9.52978 8.44247L9.26246 7.13905C9.09007 6.29874 9.69556 5.42116 10.6031 5.42116C11.2515 5.42116 11.8177 5.88648 11.9492 6.52777L12.3535 8.4993C12.4349 8.89614 12.7667 9.19282 13.1703 9.22918C13.5729 9.26571 13.9533 9.03319 14.1045 8.65719C14.6825 7.21854 15.9284 6.17344 17.4373 5.8616L25.7602 4.14105C24.8593 7.45786 25.4807 10.4859 27.6141 13.1756C26.4153 13.4234 20.0734 14.7344 19.2869 14.8971C17.0517 15.3593 14.8715 14.0918 14.0849 12.0514ZM27.765 47.1643H19.2653C17.0156 47.1643 15.1127 45.5485 14.7405 43.3223C14.6666 42.8799 14.2837 42.5556 13.8352 42.5556H6.41373V39.783H10.0856C10.5925 39.783 11.0036 39.372 11.0036 38.865V37.5343C11.0036 36.7548 11.635 36.0962 12.3823 36.0962L12.4075 36.0964C13.1518 36.1106 13.7575 36.7323 13.7575 37.4825V39.4955C13.7575 39.9006 14.0231 40.2578 14.4109 40.3745C14.7992 40.4911 15.2175 40.3399 15.441 40.002C16.2958 38.7106 17.7254 37.9395 19.2653 37.9395H27.765C26.2155 41.0064 26.2155 44.0976 27.765 47.1643ZM25.2483 36.1037H19.7405V32.7927L25.2483 32.1581V36.1037ZM27.6715 30.0307L19.2261 31.0038C16.9663 31.2644 14.9017 29.8181 14.2954 27.7055C14.1814 27.3084 13.8185 27.0407 13.4137 27.0407C13.3137 27.0407 13.782 26.9944 5.93583 27.8963L5.62097 25.1418L9.26981 24.7214C9.77313 24.6634 10.1343 24.2086 10.0768 23.7053L9.9257 22.3832C9.83822 21.6176 10.3822 20.8674 11.1579 20.793C11.9111 20.7211 12.5705 21.2691 12.6556 22.0149L12.8841 24.0147C12.9301 24.4172 13.2345 24.742 13.6333 24.8138C14.0321 24.8853 14.4307 24.6877 14.6144 24.3266C15.317 22.9453 16.6501 22.0155 18.1803 21.8392C19.1747 21.7247 25.692 20.9737 26.6234 20.8664C25.4327 24.0901 25.7841 27.1614 27.6715 30.0307ZM24.3303 19.2824L18.8225 19.9171V16.8096C19.1027 16.7889 19.3826 16.752 19.6586 16.695L24.3303 15.7292V19.2824Z" fill="#134A85"/>
<path d="M47.7764 24.5376C47.6914 22.3904 46.7907 20.389 45.2401 18.902C41.9088 15.7072 36.5994 15.8519 33.4527 19.258C30.3861 22.5771 30.5607 27.7185 33.8021 30.8267C35.4296 32.3873 37.5928 33.2095 39.8478 33.1196C44.3997 32.9393 47.9564 29.0895 47.7764 24.5376ZM39.7752 31.2851C36.2013 31.4255 33.2406 28.6652 33.1003 25.1184C32.9562 21.4811 35.8572 18.4384 39.5263 18.4384C42.9868 18.4384 45.8048 21.1494 45.9419 24.6101C46.0819 28.1505 43.3155 31.1449 39.7752 31.2851Z" fill="#134A85"/>
<path d="M39.7013 23.6321L41.048 21.6805C41.336 21.2632 41.2312 20.6916 40.8139 20.4036C40.3967 20.1159 39.825 20.2206 39.537 20.6378L37.7992 23.1562C37.5674 23.492 37.5852 23.9405 37.8427 24.2569L39.3395 26.0964L37.9928 28.0485C37.7049 28.4658 37.8098 29.0374 38.2271 29.3254C38.6452 29.6139 39.2167 29.5074 39.504 29.091L41.2417 26.5723C41.4733 26.2365 41.4556 25.7881 41.1981 25.4717L39.7013 23.6321Z" fill="#134A85"/>
</svg>
