<svg width="51" height="51" viewBox="0 0 51 51" fill="none" xmlns="http://www.w3.org/2000/svg">
<path d="M32.4958 11.2285L38.5223 13.668C40.3923 14.4245 41.6588 16.218 41.7353 18.2325L42.3303 33.3285C42.3558 34.0425 42.4748 34.7565 42.6703 35.4365C42.8573 36.091 42.9508 36.7625 42.9508 37.434V45.05C42.9508 45.5175 43.3333 45.9 43.8008 45.9C44.2683 45.9 44.6508 45.5175 44.6508 45.05V37.4425C44.6508 36.6095 44.5318 35.7765 44.3023 34.9775C44.1408 34.4165 44.0473 33.847 44.0303 33.2605L43.4353 18.1645C43.3248 15.4785 41.6503 13.0985 39.1598 12.087L33.1333 9.64746C32.1898 9.26496 31.5098 8.44046 31.3228 7.43746L31.0168 5.79696C30.9318 5.33796 30.4898 5.03196 30.0223 5.11696C29.5633 5.20196 29.2573 5.64396 29.3423 6.11146L29.6483 7.75196C29.9458 9.32446 31.0083 10.625 32.4958 11.2285Z" fill="#134A85"/>
<path d="M7.19125 45.9C7.65875 45.9 8.04125 45.5175 8.04125 45.05V37.4425C8.04125 36.7625 8.13475 36.091 8.32175 35.445C8.51725 34.7565 8.62775 34.0425 8.66175 33.337L9.25675 18.241C9.33325 16.2265 10.5997 14.433 12.4697 13.6765L18.4962 11.237C19.9837 10.6335 21.0462 9.33301 21.3437 7.76051L21.6497 6.12001C21.7347 5.66101 21.4287 5.21901 20.9697 5.12551C20.5107 5.04051 20.0687 5.34651 19.9752 5.80551L19.6692 7.44601C19.4822 8.44901 18.8022 9.27351 17.8587 9.65601L11.8322 12.0955C9.35025 13.09 7.66725 15.4785 7.56525 18.1645L6.97025 33.2605C6.94475 33.8385 6.85125 34.4165 6.69825 34.9775C6.46875 35.7765 6.34975 36.6095 6.34975 37.4425V45.05C6.34125 45.5175 6.72375 45.9 7.19125 45.9Z" fill="#134A85"/>
<path d="M38.5818 26.4605V20.7655C38.5818 20.298 38.1993 19.9155 37.7318 19.9155C37.2643 19.9155 36.8818 20.298 36.8818 20.7655V26.4605C36.8818 27.642 36.7713 28.8235 36.5503 29.988L34.8843 38.879C34.6463 40.1455 34.5273 41.429 34.5273 42.721V45.05C34.5273 45.5175 34.9098 45.9 35.3773 45.9C35.8448 45.9 36.2273 45.5175 36.2273 45.05V42.7125C36.2273 41.531 36.3378 40.3495 36.5588 39.185L36.6098 38.9045L37.9868 45.2285C38.0718 45.628 38.4288 45.9 38.8198 45.9C38.8793 45.9 38.9388 45.8915 38.9983 45.883C39.4573 45.781 39.7463 45.3305 39.6443 44.8715L37.4088 34.612L38.2163 30.3025C38.4628 29.036 38.5818 27.744 38.5818 26.4605Z" fill="#134A85"/>
<path d="M15.7246 45.9C16.1921 45.9 16.5746 45.5175 16.5746 45.05V42.7125C16.5746 41.429 16.4556 40.137 16.2176 38.8705L14.5516 29.9795C14.3391 28.8235 14.2286 27.6335 14.2286 26.452V20.757C14.2286 20.2895 13.8461 19.907 13.3786 19.907C12.9111 19.907 12.5286 20.2895 12.5286 20.757V26.452C12.5286 27.7355 12.6476 29.0275 12.8856 30.2855L13.6931 34.595L11.4576 44.8545C11.3556 45.3135 11.6531 45.764 12.1036 45.866C12.1631 45.883 12.2226 45.883 12.2821 45.883C12.6731 45.883 13.0216 45.611 13.1151 45.2115L14.4921 38.8875L14.5431 39.168C14.7556 40.324 14.8661 41.514 14.8661 42.6955V45.05C14.8746 45.5175 15.2571 45.9 15.7246 45.9Z" fill="#134A85"/>
<path d="M26.3329 15.5039C26.4519 15.5634 26.5879 15.5974 26.7154 15.5974C27.0299 15.5974 27.3274 15.4274 27.4804 15.1299L28.0499 13.9824C28.2624 13.5659 28.0924 13.0559 27.6674 12.8434C27.2424 12.6309 26.7409 12.8009 26.5284 13.2259L25.9589 14.3649C25.7464 14.7814 25.9164 15.2914 26.3329 15.5039Z" fill="#134A85"/>
<path d="M25.126 20.3236C25.16 20.3236 25.194 20.3321 25.2195 20.3321C25.6445 20.3321 26.01 20.0091 26.061 19.5756C26.146 18.8021 26.316 18.0371 26.5455 17.2976C26.69 16.8471 26.4435 16.3711 25.993 16.2266C25.5425 16.0821 25.0665 16.3286 24.922 16.7791C24.65 17.6206 24.463 18.4961 24.361 19.3801C24.3185 19.8476 24.6585 20.2641 25.126 20.3236Z" fill="#134A85"/>
<path d="M24.6417 24.5566C24.7012 24.9816 25.0667 25.2961 25.4832 25.2961C25.5172 25.2961 25.5597 25.2961 25.5937 25.2876C26.0612 25.2281 26.3842 24.8031 26.3247 24.3356L26.0782 22.4656C26.0527 22.2786 26.0357 22.0916 26.0187 21.8961C25.9847 21.4286 25.5682 21.0801 25.1007 21.1141C24.6332 21.1481 24.2847 21.5646 24.3187 22.0321C24.3357 22.2446 24.3612 22.4656 24.3867 22.6781L24.6417 24.5566Z" fill="#134A85"/>
<path d="M25.4662 40.0349C25.5682 40.0774 25.6787 40.0944 25.7807 40.0944C26.1207 40.0944 26.4352 39.8904 26.5712 39.5589C26.9027 38.7344 27.1492 37.8759 27.3107 37.0004C27.3957 36.5414 27.0897 36.0994 26.6307 36.0059C26.1717 35.9209 25.7297 36.2269 25.6362 36.6859C25.4917 37.4509 25.2792 38.1989 24.9902 38.9214C24.8202 39.3634 25.0327 39.8564 25.4662 40.0349Z" fill="#134A85"/>
<path d="M26.1286 30.2515C26.1626 30.2515 26.2051 30.2515 26.2391 30.243C26.7066 30.1835 27.0296 29.7585 26.9701 29.291L26.6471 26.8175C26.5876 26.35 26.1626 26.0185 25.6951 26.0865C25.2276 26.146 24.9046 26.571 24.9641 27.0385L25.2871 29.512C25.3466 29.937 25.7121 30.2515 26.1286 30.2515Z" fill="#134A85"/>
<path d="M27.4289 32.742L27.3014 31.7645C27.2419 31.297 26.8169 30.9655 26.3494 31.0335C25.8819 31.093 25.5589 31.518 25.6184 31.9855L25.7459 32.963C25.8054 33.422 25.8394 33.898 25.8479 34.374C25.8564 34.8415 26.2304 35.2155 26.6979 35.2155H26.7064C27.1739 35.207 27.5479 34.8245 27.5479 34.357C27.5309 33.813 27.4969 33.269 27.4289 32.742Z" fill="#134A85"/>
<path d="M23.885 43.3499C24.1315 43.3499 24.378 43.2394 24.548 43.0269C24.8285 42.6699 25.1005 42.3044 25.347 41.9219C25.602 41.5309 25.4915 41.0039 25.092 40.7489C24.6925 40.4939 24.174 40.6044 23.919 41.0039C23.7065 41.3354 23.4685 41.6584 23.222 41.9729C22.933 42.3384 22.9925 42.8739 23.358 43.1714C23.511 43.2904 23.698 43.3499 23.885 43.3499Z" fill="#134A85"/>
</svg>
