<svg width="51" height="51" viewBox="0 0 51 51" fill="none" xmlns="http://www.w3.org/2000/svg">
<path d="M37.2439 9.58671C36.4597 8.63898 35.4764 7.87547 34.364 7.35038C33.2516 6.82528 32.0373 6.55148 30.8071 6.54839V2H29.291V7.30645C29.291 7.5075 29.3709 7.70032 29.513 7.84248C29.6552 7.98465 29.848 8.06452 30.0491 8.06452H30.8071C31.8659 8.06703 32.9096 8.31474 33.8566 8.78822C34.8035 9.2617 35.628 9.94808 36.2652 10.7935C36.3358 10.8877 36.4274 10.9641 36.5326 11.0167C36.6379 11.0694 36.754 11.0968 36.8717 11.0968C39.6855 11.0998 42.3831 12.2189 44.3728 14.2085C46.3624 16.1982 47.4816 18.8959 47.4846 21.7097V49H49.0007V21.7097C48.997 18.5585 47.7684 15.5321 45.5746 13.2699C43.3808 11.0078 40.3935 9.68703 37.2439 9.58671Z" fill="#134A85"/>
<path d="M42.1298 25.7667L40.7092 25.2361L38.435 31.3006C38.4037 31.385 38.3875 31.4743 38.3872 31.5644V33.6597C38.3845 34.6569 38.151 35.64 37.705 36.532C37.157 37.6352 36.8716 38.8502 36.8711 40.082V48.9999H38.3872V40.082C38.39 39.0848 38.6235 38.1017 39.0695 37.2097C39.3912 36.5527 39.6207 35.8546 39.7517 35.1349C40.3523 37.1005 40.6588 39.1441 40.6614 41.1994V48.9999H42.1775V41.1979C42.1712 37.8519 41.4156 34.5499 39.9663 31.5341L42.1298 25.7667Z" fill="#134A85"/>
<path d="M20.9516 8.06452C21.1527 8.06452 21.3455 7.98465 21.4876 7.84248C21.6298 7.70032 21.7097 7.5075 21.7097 7.30645V2H20.1935V6.54839C18.9634 6.55148 17.7491 6.82528 16.6367 7.35038C15.5242 7.87547 14.541 8.63898 13.7568 9.58671C10.6072 9.68703 7.61991 11.0078 5.42609 13.2699C3.23226 15.5321 2.00371 18.5585 2 21.7097V49H3.51613V21.7097C3.51914 18.8959 4.63825 16.1982 6.6279 14.2085C8.61755 12.2189 11.3152 11.0998 14.129 11.0968C14.2467 11.0968 14.3628 11.0694 14.468 11.0167C14.5733 10.9641 14.6649 10.8877 14.7355 10.7935C15.3727 9.94808 16.1972 9.2617 17.1441 8.78822C18.0911 8.31474 19.1348 8.06703 20.1935 8.06452H20.9516Z" fill="#134A85"/>
<path d="M12.6126 33.6598V31.5645C12.6127 31.4734 12.5965 31.3831 12.5648 31.2977L10.2906 25.2332L8.87002 25.7638L11.0335 31.5312C9.58379 34.5479 8.8282 37.851 8.82227 41.198V49H10.3384V41.198C10.341 39.1427 10.6476 37.0991 11.2481 35.1335C11.3791 35.8531 11.6087 36.5513 11.9303 37.2083C12.3766 38.1007 12.6101 39.0844 12.6126 40.0821V49H14.1287V40.0821C14.1282 38.8503 13.8428 37.6353 13.2948 36.5321C12.8489 35.6401 12.6153 34.6571 12.6126 33.6598Z" fill="#134A85"/>
<path d="M28.5318 45.2097C28.5318 45.0087 28.452 44.8159 28.3098 44.6737C28.1676 44.5315 27.9748 44.4517 27.7738 44.4517H23.2254C23.0243 44.4517 22.8315 44.5315 22.6893 44.6737C22.5472 44.8159 22.4673 45.0087 22.4673 45.2097V45.9678H20.9512V47.4839H22.4673V48.242C22.4673 48.443 22.5472 48.6359 22.6893 48.778C22.8315 48.9202 23.0243 49 23.2254 49H27.7738C27.9748 49 28.1676 48.9202 28.3098 48.778C28.452 48.6359 28.5318 48.443 28.5318 48.242V47.4839H30.0479V45.9678H28.5318V45.2097ZM27.0157 47.4839H23.9834V45.9678H27.0157V47.4839Z" fill="#134A85"/>
<path d="M28.5318 39.1453C28.5318 38.9442 28.452 38.7514 28.3098 38.6092C28.1676 38.4671 27.9748 38.3872 27.7738 38.3872H23.2254C23.0243 38.3872 22.8315 38.4671 22.6893 38.6092C22.5472 38.7514 22.4673 38.9442 22.4673 39.1453V39.9033H20.9512V41.4195H22.4673V42.1775C22.4673 42.3786 22.5472 42.5714 22.6893 42.7136C22.8315 42.8557 23.0243 42.9356 23.2254 42.9356H27.7738C27.9748 42.9356 28.1676 42.8557 28.3098 42.7136C28.452 42.5714 28.5318 42.3786 28.5318 42.1775V41.4195H30.0479V39.9033H28.5318V39.1453ZM27.0157 41.4195H23.9834V39.9033H27.0157V41.4195Z" fill="#134A85"/>
<path d="M28.5318 33.0806C28.5318 32.8795 28.452 32.6867 28.3098 32.5445C28.1676 32.4024 27.9748 32.3225 27.7738 32.3225H23.2254C23.0243 32.3225 22.8315 32.4024 22.6893 32.5445C22.5472 32.6867 22.4673 32.8795 22.4673 33.0806V33.8386H20.9512V35.3548H22.4673V36.1128C22.4673 36.3139 22.5472 36.5067 22.6893 36.6489C22.8315 36.791 23.0243 36.8709 23.2254 36.8709H27.7738C27.9748 36.8709 28.1676 36.791 28.3098 36.6489C28.452 36.5067 28.5318 36.3139 28.5318 36.1128V35.3548H30.0479V33.8386H28.5318V33.0806ZM27.0157 35.3548H23.9834V33.8386H27.0157V35.3548Z" fill="#134A85"/>
<path d="M29.2896 27.7742H27.9858L27.7508 26.8327C27.7098 26.6686 27.6152 26.5229 27.482 26.4188C27.3488 26.3147 27.1845 26.2581 27.0154 26.2581H23.9832C23.8141 26.2581 23.6499 26.3147 23.5166 26.4188C23.3834 26.5229 23.2888 26.6686 23.2479 26.8327L23.0129 27.7742H21.709V29.2903H22.6338L22.4898 29.8649C22.4619 29.9767 22.4599 30.0933 22.4838 30.2059C22.5077 30.3185 22.557 30.4242 22.6279 30.515C22.6988 30.6057 22.7894 30.6791 22.8929 30.7296C22.9963 30.7801 23.11 30.8064 23.2251 30.8064H27.7735C27.8886 30.8064 28.0023 30.7801 28.1058 30.7296C28.2092 30.6791 28.2999 30.6057 28.3707 30.515C28.4416 30.4242 28.4909 30.3185 28.5148 30.2059C28.5387 30.0933 28.5367 29.9767 28.5088 29.8649L28.3648 29.2903H29.2896V27.7742ZM24.1962 29.2903L24.5752 27.7742H26.4234L26.8024 29.2903H24.1962Z" fill="#134A85"/>
<path d="M29.2896 21.7097H27.9858L27.7508 20.7682C27.7098 20.6041 27.6152 20.4585 27.482 20.3544C27.3488 20.2502 27.1845 20.1937 27.0154 20.1936H23.9832C23.8141 20.1937 23.6499 20.2502 23.5166 20.3544C23.3834 20.4585 23.2888 20.6041 23.2479 20.7682L23.0129 21.7097H21.709V23.2259H22.6338L22.4898 23.8005C22.4619 23.9122 22.4599 24.0288 22.4838 24.1414C22.5077 24.2541 22.557 24.3598 22.6279 24.4505C22.6988 24.5413 22.7894 24.6147 22.8929 24.6652C22.9963 24.7157 23.11 24.742 23.2251 24.742H27.7735C27.8886 24.742 28.0023 24.7157 28.1058 24.6652C28.2092 24.6147 28.2999 24.5413 28.3707 24.4505C28.4416 24.3598 28.4909 24.2541 28.5148 24.1414C28.5387 24.0288 28.5367 23.9122 28.5088 23.8005L28.3648 23.2259H29.2896V21.7097ZM24.1962 23.2259L24.5752 21.7097H26.4234L26.8024 23.2259H24.1962Z" fill="#134A85"/>
<path d="M29.2896 15.6453H27.9858L27.7508 14.7038C27.7098 14.5397 27.6152 14.394 27.482 14.2899C27.3488 14.1858 27.1845 14.1292 27.0154 14.1292H23.9832C23.8141 14.1292 23.6499 14.1858 23.5166 14.2899C23.3834 14.394 23.2888 14.5397 23.2479 14.7038L23.0129 15.6453H21.709V17.1614H22.6338L22.4898 17.736C22.4619 17.8477 22.4599 17.9644 22.4838 18.077C22.5077 18.1896 22.557 18.2953 22.6279 18.3861C22.6988 18.4768 22.7894 18.5502 22.8929 18.6007C22.9963 18.6512 23.11 18.6775 23.2251 18.6775H27.7735C27.8886 18.6775 28.0023 18.6512 28.1058 18.6007C28.2092 18.5502 28.2999 18.4768 28.3707 18.3861C28.4416 18.2953 28.4909 18.1896 28.5148 18.077C28.5387 17.9644 28.5367 17.8477 28.5088 17.736L28.3648 17.1614H29.2896V15.6453ZM24.1962 17.1614L24.5752 15.6453H26.4234L26.8024 17.1614H24.1962Z" fill="#134A85"/>
<path d="M21.709 9.58058V11.0967H22.6338L22.4898 11.6713C22.4619 11.783 22.4599 11.8997 22.4838 12.0123C22.5077 12.1249 22.557 12.2306 22.6279 12.3214C22.6988 12.4121 22.7894 12.4855 22.8929 12.536C22.9963 12.5865 23.11 12.6128 23.2251 12.6128H27.7735C27.8886 12.6128 28.0023 12.5865 28.1058 12.536C28.2092 12.4855 28.2999 12.4121 28.3707 12.3214C28.4416 12.2306 28.4909 12.1249 28.5148 12.0123C28.5387 11.8997 28.5367 11.783 28.5088 11.6713L28.3648 11.0967H29.2896V9.58058H27.9858L27.7508 8.63907C27.7098 8.475 27.6152 8.32932 27.482 8.2252C27.3488 8.12108 27.1845 8.0645 27.0154 8.06445H23.9832C23.8141 8.0645 23.6499 8.12108 23.5166 8.2252C23.3834 8.32932 23.2888 8.475 23.2479 8.63907L23.0129 9.58058H21.709ZM24.5752 9.58058H26.4234L26.8024 11.0967H24.1962L24.5752 9.58058Z" fill="#134A85"/>
<path d="M32.546 16.6251L29.5137 19.6575L30.5857 20.7295L33.6181 17.6972L32.546 16.6251Z" fill="#134A85"/>
<path d="M34.597 21.7097H30.8066V23.2258H34.597V21.7097Z" fill="#134A85"/>
<path d="M30.5857 24.2063L29.5137 25.2783L32.546 28.3107L33.6181 27.2386L30.5857 24.2063Z" fill="#134A85"/>
<path d="M18.4568 16.6254L17.3848 17.6975L20.4171 20.7298L21.4892 19.6578L18.4568 16.6254Z" fill="#134A85"/>
<path d="M20.1927 21.7097H16.4023V23.2258H20.1927V21.7097Z" fill="#134A85"/>
<path d="M20.4171 24.2057L17.3848 27.238L18.4568 28.3101L21.4892 25.2778L20.4171 24.2057Z" fill="#134A85"/>
</svg>
