<svg width="51" height="51" viewBox="0 0 51 51" fill="none" xmlns="http://www.w3.org/2000/svg">
<path d="M39.9916 39.3473C38.5888 39.2904 37.269 39.8756 36.3701 40.9553C36.318 41.0181 36.2486 41.0541 36.1798 41.0541H35.5761C35.0405 41.0541 34.584 40.6897 34.4657 40.1671L34.1261 38.6749C33.9602 37.9461 33.5079 37.3518 32.904 36.9942C33.1878 36.6841 33.4152 36.3212 33.5717 35.9205C34.4879 36.1737 35.4522 36.3097 36.4478 36.3097C42.4083 36.3097 47.2575 31.4605 47.2575 25.5001C47.2575 23.5489 46.7315 21.6367 45.7363 19.9702C45.5249 19.6159 45.0661 19.5006 44.7119 19.7118C44.3577 19.9234 44.242 20.3821 44.4535 20.7363C45.3104 22.1711 45.7632 23.8184 45.7632 25.5C45.7632 30.6365 41.5843 34.8155 36.4477 34.8155C31.3112 34.8155 27.1322 30.6366 27.1322 25.5C27.1322 20.3634 31.3111 16.1845 36.4477 16.1845C38.5986 16.1845 40.6967 16.935 42.3555 18.2977C42.6742 18.5596 43.1452 18.5137 43.407 18.1947C43.669 17.876 43.6228 17.4051 43.304 17.1433C41.3787 15.5615 38.9438 14.6904 36.4478 14.6904C35.4521 14.6904 34.4877 14.8264 33.5714 15.0796C33.4169 14.6859 33.1907 14.3207 32.9034 14.0062C33.5077 13.6487 33.9601 13.0542 34.1261 12.3252L34.466 10.832C34.5841 10.3104 35.0406 9.9459 35.5762 9.9459H36.1788C36.248 9.9459 36.3174 9.98176 36.371 10.0467C37.224 11.0702 38.4759 11.6573 39.8056 11.6573C42.2467 11.6573 44.2522 9.67127 44.2761 7.22975C44.2988 4.84012 42.3766 2.81745 39.9917 2.72083C38.5882 2.66405 37.2691 3.24916 36.3702 4.32882C36.3181 4.39168 36.2487 4.42764 36.1799 4.42764H35.5762C35.0406 4.42764 34.5841 4.06327 34.4658 3.54052L34.1263 2.04966C33.8517 0.842895 32.7959 0 31.5587 0H21.6645C21.2519 0 20.9175 0.334389 20.9175 0.74707C20.9175 1.15975 21.2519 1.49414 21.6645 1.49414H31.5587C32.0937 1.49414 32.5504 1.85881 32.6691 2.38126L33.0085 3.87132C33.2816 5.07858 34.3374 5.92178 35.5759 5.92178H36.1796C36.6941 5.92178 37.1823 5.68909 37.5187 5.28418C38.1169 4.5656 38.9942 4.17423 39.9305 4.21388C41.5178 4.27812 42.7968 5.62464 42.7816 7.2154C42.7658 8.84083 41.4306 10.1632 39.8053 10.1632C38.9203 10.1632 38.0867 9.77208 37.5203 9.09234C37.1836 8.68534 36.6946 8.45186 36.1785 8.45186H35.5759C34.3373 8.45186 33.2816 9.29505 33.0088 10.5013L32.6691 11.9935C32.5504 12.5151 32.0937 12.8795 31.5587 12.8795H16.4571C15.9221 12.8795 15.4655 12.5151 15.3468 11.994L15.0081 10.5015C14.7337 9.29475 13.678 8.45186 12.4409 8.45186H11.8383C11.3233 8.45186 10.8344 8.68484 10.497 9.09055C9.92966 9.77228 9.09623 10.1632 8.21051 10.1632C6.58498 10.1632 5.25012 8.84103 5.23517 7.2156C5.22003 5.62464 6.49902 4.27812 8.08669 4.21388C9.02192 4.17423 9.89978 4.5656 10.4975 5.28348C10.8345 5.68909 11.3227 5.92178 11.8372 5.92178H12.4409C13.6781 5.92178 14.7338 5.07888 15.0081 3.87192L15.3467 2.38106C15.4655 1.85881 15.9221 1.49414 16.4571 1.49414H18.1782C18.5909 1.49414 18.9253 1.15975 18.9253 0.74707C18.9253 0.334389 18.5909 0 18.1782 0H16.4571C15.22 0 14.1642 0.842795 13.8897 2.04986L13.5512 3.54081C13.4325 4.06297 12.9759 4.42764 12.4409 4.42764H11.8372C11.7685 4.42764 11.699 4.39168 11.6463 4.32813C10.748 3.24906 9.43032 2.66425 8.02573 2.72083C5.64048 2.81745 3.71832 4.84002 3.74093 7.22955C3.76364 9.67107 5.76848 11.6573 8.21041 11.6573C9.54119 11.6573 10.7933 11.0701 11.6456 10.0459C11.6984 9.98235 11.7687 9.9459 11.8382 9.9459H12.4408C12.9758 9.9459 13.4324 10.3106 13.5511 10.8324L13.8898 12.3252C14.056 13.0548 14.5091 13.6496 15.1142 14.007C14.55 14.6234 14.2052 15.4437 14.2052 16.3432C14.2052 17.2427 14.55 18.0631 15.1142 18.6795C14.5088 19.0372 14.0556 19.6326 13.8896 20.3629L13.5516 21.8539C13.433 22.3759 12.9762 22.7403 12.4407 22.7403H11.837C11.7682 22.7403 11.6989 22.7047 11.6462 22.6409C10.7477 21.5623 9.43012 20.9767 8.02503 21.0333C5.63969 21.1308 3.71762 23.1539 3.74044 25.5429C3.76325 27.984 5.76848 29.9698 8.21051 29.9698C9.53959 29.9698 10.7914 29.383 11.645 28.3597C11.6982 28.2957 11.7685 28.2592 11.8379 28.2592H12.4406C12.9761 28.2592 13.4329 28.6237 13.5514 29.1453L13.8896 30.6369C14.0555 31.367 14.5086 31.9623 15.1139 32.3199C14.5496 32.9362 14.2048 33.7564 14.2048 34.6558C14.2048 35.5555 14.5497 36.3761 15.114 36.9926C14.509 37.3501 14.0558 37.9451 13.8895 38.675L13.5511 40.167C13.4324 40.6891 12.9758 41.0538 12.4408 41.0538H11.8371C11.7684 41.0538 11.6989 41.0178 11.6462 40.9543C10.7479 39.8752 9.42873 39.2895 8.02563 39.347C5.64038 39.4436 3.71822 41.4662 3.74083 43.8557C3.76354 46.2972 5.76838 48.2835 8.21031 48.2835C9.54019 48.2835 10.792 47.6964 11.6455 46.6722C11.6983 46.6085 11.7686 46.5721 11.8381 46.5721H12.4407C12.9757 46.5721 13.4323 46.9367 13.551 47.4587L13.8895 48.9501C14.1643 50.1572 15.22 51 16.4571 51H31.5587C32.7959 51 33.8517 50.1571 34.1259 48.9506L34.4658 47.4585C34.5839 46.9368 35.0404 46.5724 35.576 46.5724H36.1786C36.2478 46.5724 36.3172 46.6082 36.3711 46.6735C37.2249 47.6968 38.4768 48.2838 39.8055 48.2838C42.2466 48.2838 44.2521 46.2977 44.276 43.8562C44.2986 41.4665 42.3764 39.4438 39.9916 39.3473ZM28.3808 18.3132H17.669C16.583 18.3132 15.6993 17.4295 15.6993 16.3435C15.6993 15.2575 16.583 14.3738 17.669 14.3738H30.3473C30.8731 14.3738 31.3678 14.5788 31.7398 14.951C31.9203 15.1315 32.0618 15.3458 32.16 15.5782C30.708 16.2079 29.4203 17.1476 28.3808 18.3132ZM12.4407 26.7653H11.838C11.3239 26.7653 10.8353 26.9979 10.4976 27.403C9.92887 28.0849 9.09524 28.4759 8.21061 28.4759C6.58488 28.4759 5.24982 27.154 5.23468 25.529C5.21944 23.9382 6.49852 22.5914 8.08599 22.5265C9.02113 22.4868 9.89958 22.8788 10.4971 23.5961C10.8335 24.0018 11.3219 24.2346 11.837 24.2346H12.4407C13.6787 24.2346 14.7345 23.3917 15.0086 22.1846L15.3467 20.6936C15.4653 20.1718 15.9221 19.8072 16.4576 19.8072H17.669H27.2626C26.2335 21.4615 25.6381 23.4124 25.6381 25.4999C25.6381 27.5874 26.2335 29.5383 27.2626 31.1926H17.6693H16.4576C15.9221 31.1926 15.4653 30.828 15.3468 30.3065L15.0085 28.8149C14.7345 27.6082 13.6787 26.7653 12.4407 26.7653ZM39.8054 46.7895C38.9211 46.7895 38.0874 46.3982 37.5204 45.7186C37.1837 45.3116 36.6947 45.0781 36.1786 45.0781H35.576C34.3374 45.0781 33.2817 45.9213 33.0089 47.1275L32.6691 48.6189C32.5505 49.1411 32.0938 49.5058 31.5588 49.5058H16.4571C15.9221 49.5058 15.4655 49.1411 15.3467 48.6191L15.0081 47.1278C14.7337 45.921 13.678 45.0781 12.4409 45.0781H11.8383C11.3233 45.0781 10.8344 45.3111 10.4973 45.7164C9.92907 46.3984 9.09563 46.7894 8.21051 46.7894C6.58498 46.7894 5.25012 45.4672 5.23517 43.8418C5.22003 42.2508 6.49902 40.9043 8.08669 40.84C9.02153 40.8008 9.89978 41.1918 10.4975 41.9096C10.8345 42.3153 11.3227 42.5479 11.8372 42.5479H12.4409C13.6781 42.5479 14.7338 41.7051 15.0082 40.498L15.3466 39.0063C15.4655 38.4847 15.9221 38.1202 16.4571 38.1202H20.8766C21.2893 38.1202 21.6237 37.7858 21.6237 37.3731C21.6237 36.9605 21.2893 36.6261 20.8766 36.6261H17.6693C16.5829 36.6261 15.699 35.7422 15.699 34.6558C15.699 33.57 16.5829 32.6865 17.6693 32.6865H28.3808C29.4209 33.8527 30.7093 34.7926 32.1623 35.4226C31.8627 36.1357 31.1577 36.6261 30.3476 36.6261H24.3631C23.9504 36.6261 23.616 36.9605 23.616 37.3731C23.616 37.7858 23.9504 38.1202 24.3631 38.1202H31.5588C32.0938 38.1202 32.5505 38.4845 32.6692 39.0062L33.0086 40.4975C33.2817 41.7048 34.3375 42.5479 35.576 42.5479H36.1797C36.6942 42.5479 37.1824 42.3153 37.5188 41.9103C38.1169 41.1918 38.9936 40.7997 39.9306 40.84C41.5179 40.9043 42.7969 42.2508 42.7817 43.8416C42.7659 45.4672 41.4307 46.7895 39.8054 46.7895Z" fill="#134A85"/>
<path d="M33.6156 32.1194C33.7818 32.2354 33.9713 32.2925 34.1598 32.2925C34.3943 32.2925 34.6269 32.204 34.81 32.0308L40.4299 26.7153C40.7587 26.4044 40.935 25.9666 40.9136 25.5144C40.8922 25.0623 40.6752 24.6432 40.3184 24.3644L38.3938 22.8616L39.6086 20.0323C39.788 19.6146 39.6528 19.1409 39.2799 18.8807C38.9069 18.6206 38.4156 18.6569 38.0856 18.9694L32.4659 24.2849C32.1371 24.5958 31.9608 25.0336 31.9822 25.4859C32.0036 25.938 32.2205 26.357 32.5774 26.6357L34.502 28.1386L33.2873 30.9676C33.1076 31.3853 33.2427 31.8591 33.6156 32.1194ZM33.4969 25.4581C33.4911 25.4536 33.476 25.4417 33.4747 25.4151C33.4734 25.3884 33.4874 25.3753 33.4927 25.3703L37.1938 21.8695L36.7936 22.8013C36.6598 23.1132 36.7529 23.4759 37.0204 23.6848L39.3988 25.542C39.4046 25.5465 39.4198 25.5585 39.4211 25.5851C39.4224 25.6117 39.4084 25.6248 39.4031 25.6298L35.702 29.1305L36.1022 28.1987C36.236 27.8868 36.1429 27.5241 35.8755 27.3152L33.4969 25.4581Z" fill="#134A85"/>
<path d="M8.71387 17.0906H9.72012C10.1328 17.0906 10.4672 16.7562 10.4672 16.3435C10.4672 15.9308 10.1328 15.5964 9.72012 15.5964H8.71387C8.30119 15.5964 7.9668 15.9308 7.9668 16.3435C7.9668 16.7562 8.30119 17.0906 8.71387 17.0906Z" fill="#134A85"/>
<path d="M11.5433 14.595C11.6892 14.7408 11.8805 14.8137 12.0716 14.8137C12.2628 14.8137 12.454 14.7408 12.5999 14.595C12.8917 14.3031 12.8917 13.8302 12.5999 13.5384L11.8203 12.7588C11.5284 12.4671 11.0555 12.4671 10.7637 12.7588C10.472 13.0506 10.472 13.5236 10.7637 13.8153L11.5433 14.595Z" fill="#134A85"/>
<path d="M10.7637 19.9282C10.9097 20.0741 11.1009 20.147 11.2921 20.147C11.4832 20.147 11.6745 20.0741 11.8204 19.9282L12.6 19.1486C12.8918 18.8567 12.8918 18.3838 12.6 18.092C12.3082 17.8004 11.8352 17.8004 11.5435 18.092L10.7638 18.8717C10.472 19.1635 10.472 19.6365 10.7637 19.9282Z" fill="#134A85"/>
<path d="M8.71387 35.4036H9.72012C10.1328 35.4036 10.4672 35.0692 10.4672 34.6565C10.4672 34.2438 10.1328 33.9094 9.72012 33.9094H8.71387C8.30119 33.9094 7.9668 34.2438 7.9668 34.6565C7.9668 35.0692 8.30119 35.4036 8.71387 35.4036Z" fill="#134A85"/>
<path d="M11.5433 32.908C11.6892 33.0538 11.8805 33.1267 12.0716 33.1267C12.2628 33.1267 12.454 33.0538 12.5999 32.908C12.8917 32.6161 12.8917 32.1432 12.5999 31.8514L11.8203 31.0718C11.5284 30.7801 11.0555 30.7801 10.7637 31.0718C10.472 31.3636 10.472 31.8366 10.7637 32.1283L11.5433 32.908Z" fill="#134A85"/>
<path d="M10.7637 38.2412C10.9097 38.387 11.1009 38.46 11.2921 38.46C11.4832 38.46 11.6745 38.387 11.8204 38.2412L12.6 37.4616C12.8918 37.1697 12.8918 36.6968 12.6 36.405C12.3082 36.1134 11.8352 36.1134 11.5435 36.405L10.7638 37.1847C10.472 37.4764 10.472 37.9494 10.7637 38.2412Z" fill="#134A85"/>
</svg>
