<svg width="51" height="51" viewBox="0 0 51 51" fill="none" xmlns="http://www.w3.org/2000/svg">
<path d="M10.2869 21.7445L8.78114 21.9377L8.71586 21.009C8.64188 20.3075 7.86812 20.2109 7.52955 20.4511L5.37712 21.9804C5.29183 22.0413 5.24396 22.1466 5.26136 22.2572C5.2866 22.4112 5.43283 22.5157 5.58688 22.4904L7.05868 22.2476L7.12309 23.158C7.20229 23.789 7.98475 23.9404 8.30766 23.6924L10.4235 22.0726C10.474 22.0335 10.5027 21.9699 10.494 21.902C10.4801 21.8028 10.3878 21.7314 10.2869 21.7445Z" fill="#134A85"/>
<path d="M10.8877 18.3665L9.42288 17.9469L9.72751 17.0679C9.89026 16.4691 9.29319 15.9964 8.85801 16.0887L6.27301 16.6405C6.17117 16.6623 6.08414 16.7406 6.05715 16.8494C6.01973 17.0008 6.11199 17.1549 6.26343 17.1923L7.71608 17.5535L7.41754 18.4152C7.13989 19.162 7.89886 19.4718 8.29401 19.3726L10.8799 18.7233C10.9417 18.7076 10.9939 18.6606 11.0122 18.5954C11.0418 18.4961 10.9852 18.3943 10.8877 18.3665Z" fill="#134A85"/>
<path d="M13.3011 14.1042C14.1044 13.6629 13.617 12.9849 13.2471 12.7952L10.8867 11.5845C10.7935 11.5366 10.6769 11.5427 10.5873 11.6097C10.4628 11.7037 10.4376 11.8813 10.5316 12.0057L11.4359 13.2086L10.6665 13.683C9.94755 14.3079 10.3705 14.8075 10.7405 14.9807L13.1636 16.1165C13.221 16.1435 13.2915 16.14 13.3481 16.1008C13.4316 16.0425 13.4525 15.9276 13.3942 15.8441L12.5177 14.5881L13.3011 14.1042Z" fill="#134A85"/>
<path d="M41.3571 21.7445L42.8629 21.9377L42.9281 21.009C43.0021 20.3075 43.7759 20.2109 44.1145 20.4511L46.2669 21.9804C46.3522 22.0413 46.4001 22.1466 46.3826 22.2572C46.3574 22.4112 46.2112 22.5157 46.0571 22.4904L44.5853 22.2476L44.5209 23.158C44.4417 23.789 43.6593 23.9404 43.3364 23.6924L41.2205 22.0726C41.17 22.0335 41.1413 21.9699 41.15 21.902C41.163 21.8028 41.2562 21.7314 41.3571 21.7445Z" fill="#134A85"/>
<path d="M40.7582 18.3665L42.223 17.9469L41.9184 17.0679C41.7556 16.4691 42.3527 15.9964 42.7879 16.0887L45.3729 16.6405C45.4747 16.6623 45.5618 16.7406 45.5888 16.8494C45.6262 17.0008 45.5339 17.1549 45.3825 17.1923L43.929 17.5535L44.2275 18.4152C44.5051 19.162 43.7462 19.4718 43.351 19.3726L40.7652 18.7233C40.7034 18.7076 40.6511 18.6606 40.6329 18.5954C40.6033 18.4961 40.6598 18.3943 40.7582 18.3665Z" fill="#134A85"/>
<path d="M38.3448 14.1042C37.5414 13.6629 38.0288 12.9849 38.3987 12.7952L40.7592 11.5845C40.8523 11.5366 40.9689 11.5427 41.0586 11.6097C41.183 11.7037 41.2083 11.8813 41.1143 12.0057L40.21 13.2086L40.9794 13.683C41.6983 14.3079 41.2753 14.8075 40.9054 14.9807L38.4823 16.1165C38.4248 16.1435 38.3543 16.14 38.2978 16.1008C38.2142 16.0425 38.1933 15.9276 38.2516 15.8441L39.1281 14.5881L38.3448 14.1042Z" fill="#134A85"/>
<path d="M46.4498 27.1798C44.8135 25.5348 42.6289 24.6296 40.2963 24.6296H35.9009C35.9357 24.7515 35.9444 24.882 35.9444 25.0126V25.5174C35.9444 25.822 35.8835 26.1093 35.7617 26.3704H40.2963C42.1589 26.3704 43.9083 27.0928 45.2139 28.4157C46.5369 29.7213 47.2593 31.4707 47.2593 33.3333V47.2593H41.1667V34.6389C41.1667 33.4378 40.1919 32.463 38.9907 32.463C37.7896 32.463 36.8148 33.4378 36.8148 34.6389V47.2593H14.1852V34.6389C14.1852 33.4378 13.2104 32.463 12.0093 32.463C10.8081 32.463 9.83333 33.4378 9.83333 34.6389V47.2593H3.74074V33.3333C3.74074 31.4707 4.46315 29.7213 5.78611 28.407C7.09167 27.0928 8.84111 26.3704 10.7037 26.3704H15.2644C15.073 25.9265 15.0381 25.4391 15.0556 25.0126C15.0556 24.882 15.0643 24.7515 15.0991 24.6296H10.7037C8.37111 24.6296 6.18648 25.5348 4.55889 27.1798C2.90519 28.8161 2 31.0007 2 33.3333V48.1296C2 48.6083 2.39167 49 2.87037 49H10.7037C11.1824 49 11.5741 48.6083 11.5741 48.1296V34.6389C11.5741 34.3952 11.7656 34.2037 12.0093 34.2037C12.253 34.2037 12.4444 34.3952 12.4444 34.6389V48.1296C12.4444 48.6083 12.8361 49 13.3148 49H37.6852C38.1639 49 38.5556 48.6083 38.5556 48.1296V34.6389C38.5556 34.3952 38.747 34.2037 38.9907 34.2037C39.2344 34.2037 39.4259 34.3952 39.4259 34.6389V48.1296C39.4259 48.6083 39.8176 49 40.2963 49H48.1296C48.6083 49 49 48.6083 49 48.1296V33.3333C49 31.0007 48.0948 28.8161 46.4498 27.1798Z" fill="#134A85"/>
<path d="M25.5011 20.2778C19.7418 20.2778 15.0566 15.5926 15.0566 9.83333V2.87037C15.0566 2.38906 15.4466 2 15.927 2H35.0752C35.5556 2 35.9455 2.38906 35.9455 2.87037V9.83333C35.9455 15.5926 31.2603 20.2778 25.5011 20.2778ZM16.7974 3.74074V9.83333C16.7974 14.6326 20.7019 18.537 25.5011 18.537C30.3003 18.537 34.2048 14.6326 34.2048 9.83333V3.74074H16.7974Z" fill="#134A85"/>
<path d="M35.3285 19.2249C35.7202 18.8245 35.9465 18.2674 35.9465 17.693V12.7232C35.9465 12.4795 35.8508 12.2706 35.6941 12.1052C35.4156 13.376 34.9021 14.551 34.2058 15.6041V17.693C34.2058 17.8149 34.1622 17.9193 34.0926 17.9976C33.4659 18.6243 32.7609 19.1813 32.0037 19.66C31.4815 19.9908 30.9419 20.2954 30.3761 20.5217C30.0454 20.6523 29.7234 21.2528 29.9235 21.6706C30.115 22.1145 30.6372 22.3147 31.0724 22.1145C31.1072 22.1058 31.4641 21.9404 31.5946 21.8795V24.3513C31.6051 24.978 32.1578 25.3975 32.7958 25.1521C33.1178 25.0215 33.4311 24.8736 33.7358 24.7256C33.875 24.6473 33.9969 24.6995 34.0491 24.7343C34.2319 24.891 34.2058 25.5176 34.2058 25.5176C34.2058 25.6395 34.1361 25.7526 34.023 25.8049L32.9524 26.3445C28.2872 28.6858 22.7169 28.6858 18.0517 26.3358L16.9811 25.8049C16.868 25.7526 16.7983 25.6395 16.7983 25.5176C16.8071 25.4045 16.8941 24.8213 16.955 24.7343C16.9811 24.656 17.1465 24.6212 17.2596 24.7169C17.573 24.8736 17.8863 25.0215 18.1909 25.1521C19.4617 25.7004 20.7933 26.1008 22.1511 26.3532C22.6995 26.4315 23.1869 26.0224 23.2304 25.5786C23.2652 25.126 22.9519 24.7169 22.508 24.6386C21.4809 24.4645 20.4452 24.1686 19.4095 23.7682V21.8795C19.8795 22.1058 20.3669 22.3147 20.8543 22.4887C21.3069 22.6454 21.8117 22.4104 21.9683 21.9578C22.0728 21.54 21.9074 21.0178 21.4374 20.8437C21.4113 20.835 19.7576 20.13 19.0526 19.6949C19.0352 19.6862 19.0178 19.6774 19.0004 19.66C18.2432 19.19 17.5469 18.633 16.9289 18.0063C16.8419 17.928 16.7983 17.8062 16.7983 17.6669V15.6041C16.1021 14.551 15.5885 13.376 15.31 12.1052C15.1534 12.2706 15.0576 12.4795 15.0576 12.7232V17.6669C15.0576 18.2587 15.2926 18.8332 15.693 19.2423C16.2935 19.8428 16.955 20.3824 17.6687 20.8699V23.0197C17.1204 22.863 16.5372 22.95 16.0324 23.2547C15.4232 23.6376 15.0576 24.2904 15.0576 25.0128C15.0315 25.8136 15.1621 26.8058 16.2065 27.3715C17.0595 27.9112 20.7933 29.7476 25.5021 29.8434C30.0367 29.8521 34.7976 27.3715 34.7976 27.3715C35.5026 27.0147 35.9465 26.3097 35.9465 25.5176V25.0128C35.9465 24.2904 35.5809 23.6376 34.9717 23.2547C34.4756 22.95 33.8924 22.8717 33.3354 23.0197V20.8699C34.0491 20.3824 34.7193 19.8341 35.3285 19.2249Z" fill="#134A85"/>
</svg>
