<svg width="51" height="51" viewBox="0 0 51 51" fill="none" xmlns="http://www.w3.org/2000/svg">
<path d="M47.1749 10.2889C47.3928 10.2889 47.609 10.1939 47.7566 10.0111L48.064 9.63053C48.3233 9.30959 48.2732 8.83923 47.9521 8.57995C47.631 8.32066 47.1606 8.37087 46.9015 8.69181L46.5941 9.07242C46.3349 9.39336 46.385 9.86371 46.706 10.123C46.8443 10.2347 47.0101 10.2889 47.1749 10.2889Z" fill="#134A85"/>
<path d="M50.9884 9.02715C50.9094 8.0197 50.4329 7.11536 49.6467 6.48055C48.8605 5.84574 47.8766 5.57062 46.8746 5.70529C45.8732 5.84016 44.9967 6.3662 44.4066 7.18648L43.1275 8.96439C42.8866 9.29928 42.9628 9.76615 43.2977 10.0071C43.6322 10.2479 44.0994 10.1719 44.3404 9.83697L45.6194 8.05915C45.9673 7.57565 46.4839 7.26567 47.0741 7.18608C47.6642 7.10669 48.2446 7.26885 48.708 7.64298C49.1714 8.01711 49.4523 8.55022 49.4988 9.14399C49.5453 9.73776 49.3512 10.3081 48.9517 10.75L42.0741 18.3597L39.6289 16.3852L42.6309 12.2128C42.8718 11.878 42.7956 11.4111 42.4607 11.1701C42.126 10.9293 41.6589 11.0053 41.418 11.3403L38.3215 15.6441C37.9626 16.143 38 16.8122 38.3817 17.2669L34.6585 21.8777C33.0282 20.0898 30.7507 19.0784 28.3016 19.0784C26.5915 19.0784 24.996 19.5793 23.6544 20.4422C17.1934 19.2326 10.5851 21.271 5.93519 25.9207L0.609108 31.2469C0.21635 31.6396 0 32.162 0 32.7175C0 33.2731 0.21635 33.7955 0.609207 34.1884L5.26691 38.8462C5.41274 38.9921 5.60399 39.065 5.79514 39.065C5.98629 39.065 6.17754 38.9921 6.32337 38.8462C6.61512 38.5544 6.61512 38.0814 6.32337 37.7897L3.9724 35.4387C4.29752 34.9997 4.67932 34.5695 5.08901 34.3416C5.74773 33.9753 6.15702 33.2921 6.15702 32.5588V32.541C6.15702 31.7441 5.69962 31.0201 4.9917 30.6963C4.65183 30.5411 4.32272 30.2943 4.00886 29.96L6.99164 26.9773C10.9859 22.9831 16.5426 21.0722 22.1021 21.7173C21.6883 22.1464 21.3186 22.6183 21.0001 23.1255C20.6632 23.0902 20.3224 23.0723 19.983 23.0723C14.6645 23.0723 10.3377 27.3991 10.3377 32.7176C10.3377 38.0361 14.6645 42.3629 19.983 42.3629C23.9267 42.3629 27.4955 39.9308 28.9476 36.2834C30.3808 36.1762 31.7613 35.7134 32.9741 34.9288C33.3205 34.7047 33.4196 34.2421 33.1955 33.8958C32.9713 33.5492 32.5089 33.4504 32.1625 33.6743C31.0107 34.4195 29.6756 34.8135 28.3015 34.8135C24.3753 34.8135 21.181 31.6193 21.181 27.693C21.181 23.7668 24.3753 20.5725 28.3015 20.5725C30.4022 20.5725 32.3501 21.4729 33.7063 23.0566L31.3818 25.9352C31.2208 26.1347 31.1732 26.4028 31.2558 26.6455C31.3385 26.8882 31.5399 27.0715 31.7892 27.1311C32.3621 27.2683 32.942 27.3348 33.5184 27.3348C34.1549 27.3348 34.7863 27.2536 35.3973 27.0964C35.4137 27.2946 35.422 27.4939 35.422 27.693C35.422 29.2066 34.9518 30.6529 34.0625 31.8755C33.8198 32.2092 33.8936 32.6765 34.2272 32.9192C34.3599 33.0157 34.5137 33.0623 34.6661 33.0623C34.8968 33.0623 35.1246 32.9556 35.2708 32.7546C35.7861 32.0461 36.185 31.2757 36.461 30.4641L38.3003 32.3033C38.4109 32.4139 38.472 32.5611 38.472 32.7176C38.472 32.8741 38.4111 33.0213 38.3003 33.1319L32.9742 38.458C26.2884 45.1441 15.7245 45.6916 8.4021 39.7315C8.08216 39.471 7.61161 39.5193 7.35113 39.8392C7.09065 40.1593 7.13896 40.6298 7.45901 40.8902C11.0019 43.7739 15.4145 45.3334 19.979 45.3334C25.2729 45.3334 30.3024 43.243 34.0308 39.5145L39.3568 34.1884C39.7497 33.7956 39.9661 33.2732 39.9661 32.7175C39.9661 32.162 39.7498 31.6395 39.3569 31.2466L36.8608 28.7505C36.8582 28.7479 36.8556 28.7453 36.853 28.7428C36.8949 28.3968 36.9161 28.0464 36.9161 27.6928C36.9161 27.3149 36.8914 26.9366 36.8425 26.5631C37.8089 26.0902 38.6788 25.4094 39.3753 24.5469L40.3652 23.321C40.6481 22.9709 40.786 22.5307 40.7534 22.0818L40.667 20.8834C40.662 20.8134 40.6834 20.7447 40.7274 20.6902L41.4748 19.7647C41.6683 19.867 41.8803 19.9174 42.0917 19.9173C42.4538 19.9173 42.8138 19.7695 43.0739 19.4815L50.0601 11.7517C50.7379 11.0022 51.0674 10.0346 50.9884 9.02715ZM4.37073 32.0552C4.54824 32.1363 4.66299 32.327 4.66299 32.5408V32.5586C4.66299 32.7529 4.55083 32.9312 4.36296 33.0357C3.79211 33.3531 3.30781 33.8576 2.90658 34.3726L1.66576 33.1318C1.55509 33.0212 1.49413 32.874 1.49413 32.7175C1.49413 32.561 1.55509 32.4138 1.66576 32.3032L2.95231 31.0167C3.39128 31.4768 3.86622 31.8248 4.37073 32.0552ZM19.9832 40.8687C15.4886 40.8687 11.832 37.2121 11.832 32.7175C11.832 28.223 15.4886 24.5663 19.9832 24.5663C20.0794 24.5663 20.1759 24.568 20.2722 24.5714C19.8945 25.5397 19.6871 26.5926 19.6871 27.6929C19.6871 27.8018 19.6892 27.9102 19.6932 28.0181C17.2315 28.1684 15.2748 30.2187 15.2748 32.7175C15.2748 35.3137 17.387 37.426 19.9832 37.426C21.6501 37.426 23.1651 36.5559 24.0099 35.1604C25.0083 35.7365 26.1324 36.1181 27.33 36.253C25.9839 39.0433 23.1243 40.8687 19.9832 40.8687ZM22.7813 34.3015C22.2154 35.3029 21.1541 35.9318 19.9831 35.9318C18.2108 35.9318 16.7688 34.4898 16.7688 32.7174C16.7688 30.98 18.1545 29.5602 19.8787 29.5049C20.2892 31.4143 21.3342 33.0906 22.7813 34.3015ZM39.5653 19.7515C39.2826 20.1016 39.1447 20.5416 39.177 20.9907L39.2635 22.1894C39.2686 22.2593 39.2472 22.3277 39.2031 22.3823L38.2132 23.6083C37.0307 25.0729 35.2213 25.8842 33.38 25.8393L39.5289 18.2245L40.2973 18.8451L39.5653 19.7515Z" fill="#134A85"/>
</svg>
