<svg width="51" height="51" viewBox="0 0 51 51" fill="none" xmlns="http://www.w3.org/2000/svg">
<path d="M49.5059 25.5004C49.5059 32.241 44.0224 37.7245 37.2818 37.7245C33.2426 37.7245 29.4684 35.7313 27.1854 32.3934C26.9991 32.1205 27.0688 31.7489 27.3418 31.5626C27.6147 31.3764 27.9862 31.4461 28.1725 31.719C30.2324 34.7312 33.6381 36.5302 37.2828 36.5302C43.363 36.5292 48.3105 31.5816 48.3105 25.5004C48.3105 19.4193 43.3629 14.4717 37.2818 14.4717C33.6381 14.4717 30.2324 16.2696 28.1715 19.2828C27.9853 19.5547 27.6137 19.6254 27.3408 19.4392C27.0679 19.2529 26.9981 18.8814 27.1844 18.6084C29.4674 15.2705 33.2416 13.2773 37.2808 13.2773C44.0224 13.2763 49.5059 18.7598 49.5059 25.5004ZM30.2783 23.053C31.1608 23.053 31.8013 24.082 31.8013 25.5004C31.8013 26.9188 31.1608 27.9478 30.2783 27.9478C29.3957 27.9478 28.7552 26.9188 28.7552 25.5004C28.7552 24.082 29.3957 23.053 30.2783 23.053ZM30.606 25.5004C30.606 24.829 30.4008 24.4037 30.2783 24.2752C30.1547 24.4037 29.9505 24.829 29.9505 25.5004C29.9505 26.1718 30.1557 26.5971 30.2783 26.7256C30.4008 26.5971 30.606 26.1718 30.606 25.5004ZM24.5477 28.9499C23.9043 30.7229 22.7717 31.8794 21.4539 31.8794C20.0036 31.8794 18.7774 30.4789 18.1817 28.3961L14.4175 28.0683L8.87022 31.6632C8.77359 31.726 8.66104 31.7589 8.54549 31.7589H2.0918C1.76209 31.7589 1.49414 31.4909 1.49414 31.1612C1.49414 30.8315 1.76209 30.5636 2.0918 30.5636H8.36918L13.9403 26.9527C14.0519 26.88 14.1844 26.8471 14.3169 26.8591L17.9177 27.1729C17.838 26.6419 17.7952 26.0811 17.7952 25.5004C17.7952 24.9197 17.838 24.3599 17.9177 23.828L14.3169 24.1417C14.2999 24.1437 14.282 24.1437 14.2651 24.1437C14.1505 24.1437 14.037 24.1109 13.9403 24.0481L8.36918 20.4373H2.0918C1.76209 20.4373 1.49414 20.1693 1.49414 19.8396C1.49414 19.5099 1.76209 19.242 2.0918 19.242H8.54648C8.66203 19.242 8.77459 19.2748 8.87121 19.3376L14.4175 22.9325L18.1817 22.6048C18.7774 20.5219 20.0046 19.1214 21.4539 19.1214C22.7707 19.1214 23.9043 20.2769 24.5477 22.0509L27.802 21.768C28.1506 20.8845 28.6208 20.0617 29.1895 19.3187C29.2164 19.2738 29.2473 19.233 29.2832 19.1981C31.1508 16.8334 34.0415 15.3134 37.2818 15.3134C42.8998 15.3134 47.4698 19.8834 47.4698 25.5014C47.4698 31.1194 42.8998 35.6895 37.2818 35.6895C34.0405 35.6895 31.1469 34.1674 29.2802 31.8007C29.2473 31.7678 29.2194 31.73 29.1935 31.6891C28.6228 30.9451 28.1516 30.1203 27.802 29.2348L24.5477 28.9499ZM30.6169 19.4701C32.628 20.8048 33.8503 23.053 33.8503 25.5004C33.8503 27.9468 32.628 30.196 30.6169 31.5308C32.2635 33.3496 34.6421 34.4931 37.2828 34.4931C39.3387 34.4931 41.2363 33.7989 42.7523 32.6334L42.086 32.2479C40.7004 31.9023 39.6615 31.0397 38.9064 30.3215C38.6674 30.0944 38.6574 29.7159 38.8855 29.4768C39.1136 29.2378 39.4911 29.2278 39.7302 29.4559C40.3099 30.0077 41.0062 30.5924 41.8738 30.9281C42.0013 30.2358 42.0053 29.5386 41.8828 28.8134C41.828 28.4877 42.0461 28.1799 42.3718 28.1241C42.6966 28.0683 43.0054 28.2885 43.0611 28.6132C43.2205 29.5525 43.1986 30.4869 42.9994 31.3953L43.6956 31.7977C45.2904 30.1741 46.2755 27.9508 46.2755 25.5004C46.2755 25.1329 46.2526 24.7693 46.2098 24.4137C45.5613 24.4973 44.9567 24.7553 44.3361 25.2076C44.2296 25.2853 44.107 25.3221 43.9845 25.3221C43.8002 25.3221 43.6179 25.2364 43.5014 25.0761C43.3072 24.8091 43.3659 24.4356 43.6329 24.2413C44.3919 23.6885 45.1679 23.3588 45.9877 23.2393C45.5095 21.4005 44.4626 19.7898 43.0472 18.6045L41.8379 19.0298C42.2145 20.007 42.2045 20.9612 41.8021 21.8736C41.7035 22.0978 41.4843 22.2302 41.2552 22.2302C41.1745 22.2302 41.0929 22.2143 41.0142 22.1794C40.7123 22.046 40.5749 21.6933 40.7084 21.3915C41.0082 20.7112 40.9893 20.0329 40.6476 19.2778C39.9762 19.3147 39.5071 19.6294 39.1883 20.252C39.0827 20.4582 38.8726 20.5767 38.6564 20.5767C38.5648 20.5767 38.4711 20.5558 38.3845 20.511C38.0906 20.3606 37.9751 20 38.1255 19.7061C38.6953 18.5945 39.6664 18.0337 40.9325 18.0805L41.8519 17.7568C40.5121 16.9639 38.9503 16.5067 37.2838 16.5067C34.6412 16.5077 32.2635 17.6522 30.6169 19.4701ZM29.1567 21.6495L30.4715 21.535C30.8002 21.5071 31.0901 21.7501 31.119 22.0788C31.1479 22.4075 30.9038 22.6974 30.5751 22.7263L28.6755 22.8916C28.4245 23.7174 28.2891 24.594 28.2891 25.5004C28.2891 26.4069 28.4245 27.2834 28.6755 28.1092L30.5751 28.2745C30.9038 28.3034 31.1469 28.5933 31.119 28.922C31.0901 29.2507 30.8022 29.4938 30.4715 29.4659L29.1567 29.3513C29.3629 29.7836 29.6019 30.197 29.8719 30.5885C31.6001 29.4818 32.6539 27.5763 32.6539 25.5004C32.6539 23.4246 31.5991 21.519 29.8719 20.4124C29.6019 20.8038 29.3629 21.2172 29.1567 21.6495ZM24.8804 23.2223C25.0308 23.9266 25.1135 24.6936 25.1135 25.5004C25.1135 26.3072 25.0308 27.0742 24.8804 27.7785L27.4045 27.9986C27.2023 27.1987 27.0938 26.362 27.0938 25.5004C27.0938 24.6388 27.2013 23.8021 27.4045 23.0022L24.8804 23.2223ZM19.4726 22.4932L23.3066 22.1595C22.8215 21.006 22.1163 20.3177 21.4539 20.3177C20.7307 20.3167 19.9557 21.1385 19.4726 22.4932ZM19.1479 27.2794L23.6791 27.6739C23.8296 27.0254 23.9182 26.2943 23.9182 25.5004C23.9182 24.7055 23.8296 23.9744 23.6791 23.3269L19.1479 23.7214C19.0483 24.2672 18.9905 24.8639 18.9905 25.5004C18.9905 26.1379 19.0483 26.7336 19.1479 27.2794ZM23.3066 28.8413L19.4726 28.5076C19.9557 29.8613 20.7307 30.6831 21.4549 30.6831C22.1163 30.6831 22.8215 29.9958 23.3066 28.8413Z" fill="#134A85"/>
</svg>
