<svg width="51" height="51" viewBox="0 0 51 51" fill="none" xmlns="http://www.w3.org/2000/svg">
<path d="M47.4978 28.5053C48.4952 26.4007 48.959 24.2456 48.959 21.8441C48.959 18.8723 48.22 16.1639 46.7627 13.7943L45.4914 14.5761C46.802 16.7072 47.4666 19.1524 47.4666 21.844C47.4666 24.6152 46.7788 27.0337 45.2701 29.4674V23.7962C45.2701 19.945 42.5181 16.7253 38.8775 15.9982C40.2338 14.2733 40.9927 12.1242 40.9984 9.90788C42.48 10.972 43.7155 12.142 44.6801 13.3993L45.8643 12.4908C44.5866 10.8253 42.8886 9.30848 40.8139 7.97852C40.3906 5.81404 39.2439 3.84021 37.5602 2.39035C35.7701 0.848957 33.4815 0 31.116 0C28.7525 0 26.4653 0.847862 24.6758 2.38727C22.993 3.83493 21.8456 5.80618 21.4203 7.96818C19.4057 9.25654 17.7482 10.7211 16.4787 12.3313L15.2786 11.3059L14.309 12.4406L15.8592 13.765C15.9915 13.876 16.0726 14.0321 16.0875 14.2042C16.1025 14.3762 16.0496 14.5437 15.9387 14.676L13.8904 17.1151C13.6611 17.3876 13.2525 17.4231 12.9845 17.198L9.77399 14.4551L12.6534 11.0262L13.1095 11.4159L14.0791 10.2812L10.5114 7.23305L11.4633 6.09951L10.3204 5.13971L8.45667 7.35902L6.59557 5.79593L7.76334 4.40528L6.62035 3.44548L1.44531 9.60808L2.5883 10.5679L3.71606 9.22489L5.57716 10.7878L3.62552 13.1119L4.7685 14.0717L5.71219 12.9479L12.0197 18.3369C12.4198 18.6729 12.908 18.837 13.3937 18.8369C13.4386 18.8369 13.4834 18.8351 13.5282 18.8322C13.3501 19.8014 13.2589 20.8088 13.2589 21.844C13.2589 24.2273 13.7154 26.3679 14.6971 28.4574C13.3933 29.2545 12.5602 30.6947 12.5602 32.2551C12.5602 34.7066 14.5546 36.7011 17.0061 36.7011H17.4189C17.8306 38.1277 18.5107 39.5006 19.4567 40.8063L20.6654 39.9307C19.1889 37.8926 18.4404 35.6823 18.4404 33.361V27.9621C18.4404 25.5408 19.4965 23.3623 21.1713 21.8604L22.7342 23.1182L23.6699 21.9553L22.4106 20.9419C23.6458 20.1956 25.0923 19.7653 26.6377 19.7653H31.1157C33.5078 19.7653 35.7968 18.9071 37.5961 17.3421C41.0293 17.4888 43.7772 20.3276 43.7772 23.7962V33.361C43.7772 36.7324 42.1217 39.9923 39.1155 42.54C36.6548 44.6256 33.4371 46.0268 31.1088 46.0268C28.5734 46.0268 24.4782 44.3128 21.5569 41.0371L20.443 42.0304C21.3773 43.0781 22.4681 44.0266 23.6622 44.8376V50.9768H25.1547V45.7489C25.3527 45.8571 25.5523 45.9626 25.7541 46.0631C27.6405 47.0022 29.5422 47.5193 31.1088 47.5193C32.8874 47.5193 35.0242 46.8636 37.0629 45.7481V50.9998H38.5554V44.8353C39.0819 44.4779 39.5934 44.0915 40.0806 43.6787C42.4339 41.6843 44.0424 39.2799 44.7906 36.7011H45.1083C47.5598 36.7011 49.5543 34.7066 49.5543 32.2551C49.5544 30.7107 48.7679 29.3112 47.4978 28.5053ZM5.63577 6.93892L7.45498 8.46658L6.49517 9.60957L4.67597 8.08191L5.63577 6.93892ZM9.5516 8.37604L11.5186 10.0566L8.63916 13.4855L6.67219 11.8049L9.5516 8.37604ZM16.6713 18.2557L15.6218 17.3744L16.5816 16.2314L17.6311 17.1128L16.6713 18.2557ZM17.0062 35.2086C15.3777 35.2086 14.0528 33.8837 14.0528 32.2552C14.0528 31.2503 14.5735 30.3212 15.3944 29.7827C15.8382 30.5456 16.3548 31.3071 16.9479 32.0767V33.3612C16.9479 33.985 16.9967 34.601 17.0905 35.2086H17.0062ZM16.948 27.9623V29.4676C15.4394 27.0339 14.7515 24.6153 14.7515 21.8442C14.7515 20.8056 14.8519 19.8003 15.0472 18.8409L16.8544 20.3585L17.8425 19.1819L19.9956 20.9146C18.1205 22.6824 16.948 25.1879 16.948 27.9623ZM31.116 18.273H26.638C24.6178 18.273 22.7402 18.8948 21.1859 19.9565L18.8027 18.0386L19.734 16.9296L17.446 15.0082C17.5562 14.7139 17.6026 14.397 17.5745 14.0747C17.5577 13.8812 17.5136 13.6948 17.4484 13.5175C18.6895 11.866 20.3838 10.3668 22.4907 9.05783L22.5749 9.00559C24.3252 7.93275 26.2352 7.20807 28.2542 6.85285L27.9955 5.3829C26.3449 5.67334 24.7611 6.19016 23.2671 6.9228C23.7601 5.61772 24.5753 4.4427 25.6491 3.51891C27.168 2.21214 29.1095 1.49254 31.116 1.49254C33.1242 1.49254 35.0669 2.21314 36.5863 3.5216C38.0902 4.81663 39.0894 6.6028 39.3999 8.55116L39.4097 8.61245C39.473 9.03037 39.5062 9.45713 39.5062 9.88271C39.5062 12.1738 38.5571 14.3815 36.8991 15.9604L36.8107 16.0422C35.2557 17.4807 33.2332 18.273 31.116 18.273ZM45.1244 35.2082C45.2204 34.5985 45.27 33.9819 45.27 33.3612V32.0767C45.8508 31.3232 46.3579 30.5775 46.7955 29.8306C47.5803 30.3745 48.0618 31.2704 48.0618 32.2552C48.0618 33.8784 46.7456 35.1996 45.1244 35.2082Z" fill="#134A85"/>
<path d="M29.6635 6.66871C30.1404 6.62702 30.6266 6.60582 31.1087 6.60582V5.11328C30.5834 5.11328 30.0532 5.13637 29.5332 5.18194L29.6635 6.66871Z" fill="#134A85"/>
<path d="M21.3269 29.3411C21.837 30.0898 22.6824 30.537 23.5885 30.537H27.5644V29.0445H23.5885C23.1767 29.0445 22.7924 28.8413 22.5606 28.5009L22.0412 27.7383L20.8076 28.5785L21.3269 29.3411Z" fill="#134A85"/>
<path d="M40.7961 29.3411L41.3155 28.5785L40.082 27.7383L39.5626 28.5009C39.3306 28.8413 38.9464 29.0445 38.5345 29.0445H34.5586V30.537H38.5345C39.4405 30.5369 40.286 30.0899 40.7961 29.3411Z" fill="#134A85"/>
<path d="M27.915 38.879C28.945 39.1203 30.0042 39.241 31.0639 39.241C32.1194 39.241 33.1754 39.1212 34.2023 38.8816L34.2141 38.8788L33.872 37.426L33.8617 37.4284C32.0278 37.8563 30.0892 37.8554 28.2555 37.4258L27.915 38.879Z" fill="#134A85"/>
<path d="M27.998 33.0432L28.7271 34.3456C29.2253 34.0666 29.6795 33.7321 30.0772 33.3514L29.0448 32.2734C28.7383 32.567 28.3861 32.826 27.998 33.0432Z" fill="#134A85"/>
<path d="M25.5645 35.253C26.1204 35.2179 26.6665 35.1262 27.1877 34.9801L26.7849 33.543C26.3643 33.6609 25.9222 33.735 25.4707 33.7635L25.5645 35.253Z" fill="#134A85"/>
<path d="M22.3232 34.7392C22.8688 34.9507 23.4055 35.0971 23.9185 35.1741L24.1403 33.6982C23.7359 33.6374 23.306 33.5195 22.8627 33.3477L22.3232 34.7392Z" fill="#134A85"/>
<path d="M19.6143 32.7767C19.944 33.1942 20.3482 33.5731 20.8498 33.9351L21.7232 32.7249C21.3352 32.4448 21.0284 32.1591 20.7853 31.8516L19.6143 32.7767Z" fill="#134A85"/>
<path d="M22.4345 24.0352C21.9088 24.2343 21.4114 24.4937 20.9561 24.8063L21.8007 26.0368C22.1578 25.7917 22.5489 25.5878 22.9631 25.431L22.4345 24.0352Z" fill="#134A85"/>
<path d="M25.5763 25.0635L25.6854 23.575C25.1483 23.5356 24.5953 23.5537 24.042 23.6287L24.2424 25.1077C24.6934 25.0465 25.1423 25.0317 25.5763 25.0635Z" fill="#134A85"/>
<path d="M26.8828 25.3057C27.2912 25.427 27.6976 25.603 28.091 25.8285L28.8336 24.5338C28.3402 24.2508 27.827 24.0292 27.308 23.875L26.8828 25.3057Z" fill="#134A85"/>
<path d="M30.1563 25.543L29.1309 26.6275C29.4084 26.8898 29.6667 27.236 29.878 27.6287L31.1924 26.9216C30.9024 26.3826 30.5538 25.9188 30.1563 25.543Z" fill="#134A85"/>
</svg>
