<svg width="51" height="51" viewBox="0 0 51 51" fill="none" xmlns="http://www.w3.org/2000/svg">
<g clip-path="url(#clip0_71_8822)">
<path d="M36.9883 26.7946C38.9061 26.7952 40.781 26.227 42.3758 25.1619C43.9706 24.0969 45.2138 22.5828 45.9481 20.8112C46.6823 19.0396 46.8747 17.09 46.5009 15.209C46.1272 13.328 45.2039 11.6001 43.8481 10.2439C42.4922 8.88762 40.7646 7.96391 38.8837 7.58957C37.0028 7.21523 35.0532 7.40708 33.2814 8.14085C31.5095 8.87461 29.9951 10.1173 28.9296 11.7119C27.8641 13.3064 27.2954 15.1811 27.2954 17.0988C27.2983 19.6689 28.3203 22.133 30.1374 23.9506C31.9545 25.7682 34.4182 26.791 36.9883 26.7946ZM36.9883 8.7979C38.6302 8.79736 40.2354 9.28375 41.6008 10.1955C42.9663 11.1073 44.0306 12.4036 44.6593 13.9203C45.288 15.4371 45.4528 17.1062 45.1328 18.7166C44.8128 20.327 44.0224 21.8064 42.8616 22.9675C41.7008 24.1287 40.2218 24.9196 38.6115 25.2401C37.0012 25.5606 35.332 25.3964 33.815 24.7682C32.2981 24.14 31.0015 23.076 30.0892 21.7109C29.177 20.3457 28.6901 18.7407 28.6901 17.0988C28.6924 14.8984 29.5674 12.7888 31.123 11.2326C32.6786 9.67633 34.7879 8.80059 36.9883 8.7974V8.7979ZM43.8434 35.845L37.6269 34.1794C36.6855 33.926 35.9616 33.6258 35.4882 32.984C34.0125 30.9854 31.9797 29.2356 30.0138 27.5436C28.2287 26.007 26.5426 24.5559 25.6954 23.2264C25.2356 22.5042 24.1267 22.3023 23.2318 22.4227C22.1452 22.5686 21.3343 23.1797 21.0629 24.058C20.6798 25.2973 21.3632 26.8992 23.0968 28.8358L8.7195 24.9826C8.68245 24.9727 8.6442 24.9648 8.60625 24.9564C8.27292 24.4689 8.00635 23.939 7.81366 23.3807C7.76708 23.2425 7.67837 23.1225 7.56 23.0373C7.44162 22.9522 7.29955 22.9063 7.15374 22.9062H7.15285C7.00717 22.9061 6.86515 22.9517 6.74672 23.0366C6.62829 23.1214 6.5394 23.2412 6.49254 23.3791C6.1819 24.252 5.70599 25.0569 5.09083 25.7498C4.04494 26.9666 4.05998 28.6908 5.12659 29.7609C5.39241 30.027 5.70837 30.2377 6.05618 30.3808C6.40399 30.524 6.77674 30.5967 7.15285 30.5948C7.17068 30.5948 7.18841 30.5938 7.20624 30.5935C7.20923 30.5944 7.21202 30.5956 7.215 30.5964L14.1687 32.4614C13.7819 32.8284 13.5048 33.2957 13.3684 33.8112C13.2417 34.2866 13.2377 34.7863 13.3567 35.2636C13.4758 35.741 13.714 36.1803 14.0491 36.5405C13.4194 36.9425 12.9693 37.5721 12.7925 38.2979C12.6158 39.0238 12.7261 39.7898 13.1005 40.4363C13.2864 40.7599 13.5329 41.0446 13.8264 41.275C13.4015 41.6074 13.0777 42.0516 12.8912 42.5578C12.7048 43.064 12.6631 43.6121 12.7708 44.1406C12.8786 44.6692 13.1316 45.1573 13.5013 45.55C13.871 45.9428 14.3429 46.2248 14.864 46.3643L15.2818 46.4779L28.1911 49.9367C28.2314 49.9474 28.2725 49.9546 28.3141 49.958C29.6567 50.069 30.2266 49.8086 30.832 49.4572C31.2526 49.2128 31.6166 49.0012 32.9496 49.1431L39.7899 50.9759C39.8783 50.9996 39.9706 51.0057 40.0614 50.9937C40.1522 50.9818 40.2398 50.9521 40.3191 50.9063C40.3984 50.8605 40.4679 50.7995 40.5237 50.7268C40.5794 50.6541 40.6203 50.5712 40.644 50.4827L44.3363 36.6986C44.36 36.6101 44.3661 36.5179 44.3542 36.4271C44.3422 36.3363 44.3125 36.2488 44.2667 36.1695C44.221 36.0901 44.16 36.0206 44.0874 35.9649C44.0147 35.9091 43.9318 35.8682 43.8434 35.8445V35.845ZM6.14789 26.6595C6.52408 26.226 6.86006 25.7592 7.15165 25.2649C7.4427 25.759 7.77828 26.2255 8.15422 26.6586C8.72937 27.3278 8.74431 28.2175 8.18988 28.7745C7.91304 29.0468 7.54027 29.1996 7.15189 29.1997C6.76352 29.1998 6.39065 29.0474 6.11362 28.7752C5.5584 28.2182 5.57324 27.3281 6.14789 26.6595ZM14.1565 38.5927C14.2604 38.2111 14.5093 37.8854 14.8502 37.6848C15.191 37.4843 15.5967 37.425 15.9806 37.5195L19.7483 38.5271C19.7507 38.5278 19.753 38.5288 19.7555 38.5295L20.364 38.6937C20.558 38.7429 20.7403 38.8303 20.9003 38.9506C21.0602 39.0709 21.1947 39.2218 21.2959 39.3945C21.397 39.5672 21.4629 39.7582 21.4896 39.9566C21.5163 40.155 21.5033 40.3567 21.4514 40.55C21.3995 40.7433 21.3097 40.9244 21.1873 41.0827C21.0648 41.241 20.9122 41.3734 20.7381 41.4722C20.5641 41.5711 20.3721 41.6343 20.1734 41.6584C19.9747 41.6824 19.7732 41.6667 19.5806 41.6122L19.578 41.6116L16.5883 40.8097L16.5832 40.808L15.2242 40.4435C14.8377 40.3389 14.5083 40.0854 14.3083 39.7385C14.1082 39.3916 14.0537 38.9796 14.1567 38.5927H14.1565ZM21.4347 45.1187C21.3295 45.5043 21.0764 45.8328 20.7303 46.0327C20.3842 46.2327 19.9732 46.288 19.5866 46.1866C19.5816 46.1852 19.5766 46.1846 19.5716 46.1834L15.6453 45.1313L15.227 45.0176C14.845 44.9093 14.521 44.655 14.3251 44.3098C14.1291 43.9645 14.0768 43.556 14.1797 43.1726C14.2825 42.7891 14.5321 42.4615 14.8745 42.2606C15.2169 42.0597 15.6246 42.0017 16.0095 42.099L20.367 43.2681C20.7536 43.3728 21.0829 43.6263 21.2829 43.9732C21.483 44.3201 21.5375 44.7321 21.4344 45.1191L21.4347 45.1187ZM21.2867 37.0365C21.1152 37.1365 20.9256 37.2014 20.7288 37.2275C20.532 37.2536 20.332 37.2403 20.1404 37.1884L16.3859 36.1843C16.379 36.1822 16.3722 36.1795 16.365 36.1776L16.3591 36.176L15.7845 36.0225C15.3977 35.9179 15.0681 35.6644 14.8678 35.3174C14.6675 34.9704 14.6128 34.5581 14.7157 34.1709C14.8203 33.7854 15.0729 33.4569 15.4186 33.2568C15.7644 33.0568 16.1751 33.0014 16.5615 33.1029H16.5632C16.5677 33.1041 16.5721 33.1046 16.5766 33.1057L20.9215 34.2686C21.2105 34.3454 21.4703 34.5063 21.6677 34.7309C21.8652 34.9555 21.9915 35.2337 22.0306 35.5303C22.0698 35.8268 22.02 36.1282 21.8875 36.3964C21.7551 36.6645 21.546 36.8873 21.2867 37.0365ZM39.4769 49.4478L33.2583 47.7823C33.2243 47.773 33.1897 47.7664 33.1548 47.7624C31.4575 47.5739 30.806 47.859 30.1308 48.2512C29.7534 48.4703 29.4535 48.6442 28.4897 48.5728L21.9802 46.8287C22.4521 46.3798 22.7592 45.7851 22.8519 45.1405C22.9446 44.4958 22.8175 43.8387 22.4911 43.2751C22.305 42.9516 22.0584 42.667 21.7648 42.4367C22.0817 42.1891 22.3436 41.8783 22.5338 41.524C22.724 41.1698 22.8385 40.7798 22.8699 40.379C22.9013 39.9781 22.8489 39.5751 22.7162 39.1955C22.5834 38.816 22.3731 38.4682 22.0986 38.1743C22.5723 37.8702 22.9474 37.4351 23.1785 36.9218C23.4096 36.4085 23.4867 35.8392 23.4004 35.283C23.3141 34.7268 23.0682 34.2076 22.6924 33.7884C22.3167 33.3693 21.8274 33.0683 21.2838 32.922L16.9273 31.756C16.9225 31.7547 16.9179 31.7541 16.9131 31.7529L9.23877 29.6947C9.99271 28.8885 10.1771 27.7404 9.78662 26.7127L24.6307 30.6908C24.1037 33.4781 24.3706 35.7203 25.4268 37.3617C26.4098 38.8893 28.0782 39.9122 30.3857 40.4021C30.5667 40.4405 30.7555 40.4054 30.9106 40.3046C31.0658 40.2038 31.1745 40.0455 31.2129 39.8646C31.2513 39.6836 31.2163 39.4948 31.1155 39.3397C31.0147 39.1845 30.8564 39.0758 30.6754 39.0374C28.7181 38.6219 27.3849 37.8268 26.5998 36.6069C25.6814 35.1797 25.5164 33.0994 26.1094 30.4235C26.1126 30.409 26.1145 30.3946 26.1168 30.3802C26.1532 30.2548 26.1535 30.1217 26.1179 29.9961C26.0822 29.8705 26.0119 29.7574 25.9151 29.6698C22.2602 26.3777 22.2879 24.8886 22.3835 24.511C22.4875 24.0996 22.8876 23.9215 23.205 23.8445C23.8405 23.6901 24.419 23.8714 24.5222 23.9814C25.4809 25.4826 27.2406 26.9972 29.1034 28.6006C31.0108 30.2423 32.9832 31.9399 34.3655 33.8124C35.121 34.8359 36.205 35.2408 37.2647 35.5257L42.8083 37.0111L39.4769 49.4478ZM32.1939 19.7073H34.3794V21.8954C34.3794 21.987 34.3974 22.0777 34.4325 22.1623C34.4675 22.2469 34.5189 22.3237 34.5836 22.3885C34.6483 22.4532 34.7252 22.5046 34.8098 22.5396C34.8944 22.5747 34.9851 22.5927 35.0766 22.5927H38.9024C38.994 22.5927 39.0847 22.5747 39.1693 22.5396C39.2539 22.5046 39.3307 22.4532 39.3955 22.3885C39.4602 22.3237 39.5116 22.2469 39.5466 22.1623C39.5817 22.0777 39.5997 21.987 39.5997 21.8954V19.7073H41.7853C41.9703 19.7073 42.1476 19.6339 42.2784 19.5031C42.4091 19.3723 42.4826 19.195 42.4826 19.01V15.187C42.4826 15.0021 42.4091 14.8248 42.2784 14.694C42.1476 14.5632 41.9703 14.4898 41.7853 14.4898H39.6V12.3015C39.6 12.1165 39.5265 11.9392 39.3958 11.8084C39.265 11.6777 39.0877 11.6042 38.9027 11.6042H35.0767C34.8918 11.6042 34.7145 11.6777 34.5837 11.8084C34.4529 11.9392 34.3795 12.1165 34.3795 12.3015V14.4896H32.1939C32.009 14.4896 31.8317 14.563 31.7009 14.6938C31.5701 14.8246 31.4967 15.0019 31.4967 15.1868V19.0098C31.4967 19.1014 31.5147 19.1921 31.5497 19.2767C31.5847 19.3614 31.6361 19.4382 31.7008 19.503C31.7656 19.5678 31.8425 19.6192 31.9271 19.6542C32.0117 19.6893 32.1024 19.7073 32.1939 19.7073ZM32.8912 15.8843H35.0765C35.2615 15.8843 35.4388 15.8108 35.5696 15.6801C35.7003 15.5493 35.7738 15.372 35.7738 15.187V12.9987H38.2048V15.1868C38.2048 15.3718 38.2782 15.5491 38.409 15.6799C38.5398 15.8106 38.7171 15.8841 38.902 15.8841H41.0875V18.3123H38.902C38.7171 18.3123 38.5398 18.3857 38.409 18.5165C38.2782 18.6473 38.2048 18.8246 38.2048 19.0095V21.1977H35.7742V19.0098C35.7742 18.8249 35.7007 18.6476 35.57 18.5168C35.4392 18.386 35.2619 18.3126 35.0769 18.3126H32.8912V15.8843ZM10.6056 12.6756C11.0476 12.5561 11.4277 12.273 11.6687 11.8837C11.9097 11.4944 11.9938 11.028 11.9037 10.579C11.8137 10.1301 11.5563 9.73217 11.1838 9.46591C10.8113 9.19965 10.3515 9.08498 9.89759 9.14513C9.44368 9.20528 9.02961 9.43576 8.7393 9.78985C8.449 10.1439 8.30417 10.5952 8.33418 11.0521C8.36418 11.509 8.56678 11.9374 8.9009 12.2504C9.23502 12.5635 9.67568 12.7379 10.1336 12.7381C10.293 12.7382 10.4517 12.7171 10.6056 12.6756ZM9.72666 11.0282C9.71224 10.9743 9.70872 10.9179 9.71631 10.8626C9.72391 10.8072 9.74246 10.7539 9.77088 10.7058C9.79817 10.658 9.8347 10.6161 9.87834 10.5825C9.92198 10.5489 9.97186 10.5244 10.0251 10.5103C10.0789 10.4957 10.135 10.492 10.1903 10.4993C10.2455 10.5066 10.2987 10.5249 10.3468 10.553L10.3478 10.5536C10.4201 10.5956 10.4783 10.6581 10.5151 10.7332C10.5519 10.8082 10.5656 10.8925 10.5546 10.9753C10.5436 11.0582 10.5083 11.1359 10.4532 11.1987C10.398 11.2616 10.3255 11.3067 10.2448 11.3284C10.1913 11.3428 10.1354 11.3465 10.0805 11.3391C10.0255 11.3318 9.97261 11.3136 9.92478 11.2855C9.8764 11.2579 9.83398 11.2209 9.79998 11.1767C9.76597 11.1326 9.74105 11.0821 9.72666 11.0282ZM5.61548 21.3671L8.24128 22.8834C8.4014 22.9758 8.5917 23.0009 8.77032 22.9531C8.94894 22.9053 9.10124 22.7885 9.19374 22.6284L10.3331 20.6567C10.3354 20.653 10.3381 20.6498 10.3402 20.646C10.3424 20.6422 10.3452 20.6361 10.348 20.631L11.7924 18.1308C13.2189 18.4169 14.6993 18.2487 16.0254 17.6501C17.3515 17.0514 18.4567 16.0523 19.1857 14.7932L23.0175 8.15771C23.3372 7.60064 23.4233 6.93965 23.2569 6.31929C23.0905 5.69894 22.6852 5.16972 22.1297 4.84739L14.292 0.324425C13.7355 0.0034628 13.0744 -0.0836208 12.4538 0.0822851C11.8332 0.248191 11.3038 0.653533 10.9817 1.20935L7.15026 7.84453C6.42732 9.1066 6.1167 10.563 6.26178 12.0102C6.40687 13.4574 7.00041 14.8231 7.95948 15.9166L5.36038 20.4142C5.31453 20.4935 5.28476 20.5811 5.27277 20.6719C5.26078 20.7628 5.2668 20.855 5.29049 20.9435C5.31418 21.032 5.35507 21.115 5.41084 21.1877C5.4666 21.2603 5.53614 21.3213 5.61548 21.3671ZM9.48032 19.3444L8.06238 18.5256L9.01036 16.8851C9.44809 17.2144 9.92407 17.4895 10.4279 17.7045L9.48032 19.3444ZM7.81067 12.7553C7.61869 12.0517 7.5682 11.317 7.66212 10.5937C7.75604 9.87047 7.9925 9.17303 8.35782 8.5418L12.1893 1.90672C12.3261 1.67096 12.5509 1.49912 12.8144 1.42892C13.0778 1.35873 13.3583 1.3959 13.5943 1.53229L21.4324 6.05595C21.6675 6.19334 21.8389 6.41782 21.9095 6.68073C21.9801 6.94364 21.9442 7.22379 21.8097 7.46044L17.9782 14.0957C17.557 14.8256 16.9753 15.4501 16.277 15.9218C15.5787 16.3935 14.7822 16.7002 13.9479 16.8185C13.1136 16.9368 12.2632 16.8637 11.4614 16.6046C10.6595 16.3456 9.92704 15.9075 9.31955 15.3235C9.30879 15.3126 9.29823 15.3017 9.28668 15.2915C8.57573 14.5941 8.06593 13.718 7.81097 12.7553H7.81067ZM7.36482 19.7333L8.78276 20.552L8.33451 21.3269L6.91647 20.5082L7.36482 19.7333ZM15.9412 12.1721L15.9387 12.1707C15.6271 11.9914 15.2693 11.9085 14.9106 11.9324C14.5519 11.9564 14.2083 12.0861 13.9233 12.3052C13.6383 12.5244 13.4246 12.823 13.3093 13.1635C13.194 13.5041 13.1821 13.8711 13.2753 14.2183C13.38 14.6039 13.6083 14.9444 13.9252 15.1876C14.2421 15.4308 14.6301 15.5632 15.0296 15.5646C15.1898 15.5644 15.3493 15.5432 15.504 15.5014C15.851 15.4081 16.1626 15.214 16.3994 14.9437C16.6362 14.6734 16.7875 14.339 16.8343 13.9827C16.8811 13.6264 16.8212 13.2643 16.6622 12.942C16.5033 12.6197 16.2524 12.3518 15.9412 12.1721ZM15.3962 13.959C15.3689 14.0068 15.3324 14.0487 15.2887 14.0822C15.2451 14.1158 15.1952 14.1404 15.142 14.1545C15.0878 14.169 15.0312 14.1726 14.9755 14.1651C14.9199 14.1575 14.8663 14.139 14.8179 14.1105C14.7701 14.0832 14.7282 14.0466 14.6946 14.003C14.661 13.9594 14.6365 13.9095 14.6224 13.8563C14.6055 13.7935 14.6033 13.7277 14.616 13.664C14.6287 13.6002 14.6559 13.5403 14.6955 13.4888C14.7351 13.4372 14.786 13.3955 14.8444 13.3669C14.9027 13.3383 14.9669 13.3235 15.0319 13.3236C15.1063 13.3234 15.1794 13.3429 15.2438 13.38C15.3083 13.4172 15.3617 13.4708 15.3987 13.5354C15.4358 13.5999 15.455 13.6731 15.4546 13.7475C15.4541 13.8219 15.434 13.8949 15.3962 13.959ZM10.4153 7.8541L17.5446 11.9707C17.7047 12.0631 17.895 12.0882 18.0736 12.0404C18.2522 11.9926 18.4045 11.8758 18.4971 11.7158L20.8518 7.64173C20.8977 7.56241 20.9275 7.47483 20.9395 7.384C20.9514 7.29317 20.9454 7.20086 20.9217 7.11236C20.898 7.02386 20.8571 6.94089 20.8013 6.86821C20.7455 6.79553 20.676 6.73455 20.5966 6.68877L13.4646 2.57221C13.3853 2.5264 13.2977 2.49667 13.2069 2.48471C13.1161 2.47275 13.0238 2.47879 12.9354 2.5025C12.8469 2.52621 12.764 2.56711 12.6913 2.62288C12.6187 2.67865 12.5577 2.74818 12.5119 2.82751L10.1604 6.90153C10.0678 7.06165 10.0427 7.25197 10.0905 7.43061C10.1383 7.60925 10.2551 7.76158 10.4153 7.8541ZM13.3713 4.12871L19.295 7.5479L17.6383 10.4145L11.7167 6.99487L13.3713 4.12871Z" fill="#134A85"/>
</g>
<defs>
<clipPath id="clip0_71_8822">
<rect width="51" height="51" fill="white"/>
</clipPath>
</defs>
</svg>
