<svg width="51" height="51" viewBox="0 0 51 51" fill="none" xmlns="http://www.w3.org/2000/svg">
<g clip-path="url(#clip0_71_8833)">
<path d="M33.3789 39.5036C30.7826 40.4002 28.1317 40.8547 25.5 40.8547C20.4714 40.8547 16.0543 39.184 12.5321 37.1424L13.2645 36.6134H13.8279C14.2406 36.6134 14.5749 36.2789 14.5749 35.8664C14.5749 35.4538 14.2406 35.1193 13.8279 35.1193H13.0229C12.8659 35.1193 12.7128 35.1688 12.5855 35.2607L11.1515 36.2964C9.97966 35.5384 8.92629 34.7554 8.007 34.0068C6.07348 32.4319 4.51609 30.8467 3.39568 29.5915L4.4121 29.0833L6.56535 30.5474C6.68927 30.6317 6.83569 30.6767 6.98551 30.6767H9.29983C9.71251 30.6767 10.0469 30.3422 10.0469 29.9296C10.0469 29.5171 9.71251 29.1826 9.29983 29.1826H7.2156L5.94359 28.3176L6.21303 28.1829C6.3486 28.1151 6.46037 28.0076 6.53348 27.8747L7.64024 25.8623C7.83906 25.5008 7.70728 25.0465 7.34569 24.8477C6.98411 24.6489 6.52999 24.7808 6.33107 25.1423L5.33647 26.9507L4.12931 27.5543C4.12811 27.5549 4.12692 27.5555 4.12572 27.5561L2.39312 28.4224C2.08702 28.0498 1.84646 27.7413 1.67493 27.5152C2.72432 26.1352 6.35229 21.6816 11.8172 18.3072L12.3473 18.982L12.1797 20.4894C12.1342 20.8995 12.4297 21.2688 12.8397 21.3143C12.8677 21.3174 12.8956 21.3189 12.9232 21.3189C13.2988 21.3189 13.6224 21.0363 13.6647 20.6543L13.866 18.8431C13.8876 18.6485 13.832 18.4531 13.7109 18.2992L13.1185 17.545C13.5609 17.3 14.0135 17.0629 14.4767 16.8363C14.8474 16.655 15.0009 16.2076 14.8195 15.8369C14.6382 15.4664 14.1908 15.3129 13.8201 15.4941C5.36576 19.6296 0.342756 26.7867 0.132979 27.0893C-0.0443262 27.3452 -0.0443262 27.6843 0.132979 27.9402C0.235078 28.0876 2.68308 31.5894 7.02884 35.137C9.58641 37.2247 12.271 38.8896 15.0081 40.0853C18.4468 41.5873 21.9766 42.3489 25.4999 42.3489C28.2979 42.3489 31.1129 41.8668 33.8665 40.916C34.2565 40.7813 34.4634 40.356 34.3288 39.966C34.1943 39.5759 33.7692 39.3688 33.3789 39.5036Z" fill="#134A85"/>
<path d="M50.8668 27.0884C50.7647 26.9411 48.3167 23.4392 43.9709 19.8916C41.4134 17.8039 38.7288 16.139 35.9916 14.9433C32.553 13.4413 29.0232 12.6797 25.4999 12.6797C22.7019 12.6797 19.8869 13.1618 17.1333 14.1127C16.7433 14.2473 16.5363 14.6727 16.671 15.0626C16.8056 15.4526 17.2307 15.6597 17.621 15.525C20.2173 14.6284 22.8682 14.1739 25.4999 14.1739C31.1413 14.1739 36.0144 16.2759 39.7162 18.6462L39.2602 19.4214H38.4801C38.0674 19.4214 37.733 19.7559 37.733 20.1685C37.733 20.5811 38.0674 20.9156 38.4801 20.9156H39.6875C39.9523 20.9156 40.1972 20.7754 40.3315 20.5473L40.9588 19.4811C41.6941 19.9983 42.374 20.5178 42.9929 21.022C46.3247 23.7356 48.5423 26.4821 49.3249 27.5135C49.1531 27.7395 48.912 28.0481 48.6051 28.4207L45.6635 26.9498L44.6689 25.1414C44.5628 24.9484 44.3769 24.8121 44.1608 24.7689L41.6453 24.2658C41.2407 24.185 40.8471 24.4472 40.7662 24.8519C40.6853 25.2565 40.9477 25.65 41.3523 25.7309L43.5272 26.1659L44.4666 27.8739C44.5396 28.0068 44.6514 28.1143 44.787 28.1821L45.0565 28.3168L43.7845 29.1818H41.7C41.2874 29.1818 40.953 29.5163 40.953 29.9288C40.953 30.3414 41.2874 30.6759 41.7 30.6759H44.0144C44.1642 30.6759 44.3106 30.6309 44.4345 30.5466L46.5878 29.0825L47.6011 29.5892C45.6884 31.7278 42.4991 34.8303 38.3302 37.2303L37.5382 36.7354L37.892 35.4618C38.0023 35.0643 37.7696 34.6525 37.3721 34.5421C36.9741 34.4314 36.5627 34.6645 36.4523 35.0619L35.9492 36.8731C35.8606 37.192 35.9924 37.5311 36.2731 37.7065L36.817 38.0465C36.7195 38.0955 36.6217 38.1443 36.5234 38.1924C36.1526 38.3737 35.9991 38.8212 36.1805 39.1918C36.3102 39.4568 36.5758 39.6108 36.8522 39.6108C36.9622 39.6108 37.0742 39.5863 37.1799 39.5347C45.6343 35.3992 50.6574 28.2422 50.8671 27.9395C51.0442 27.6834 51.0442 27.3443 50.8668 27.0884Z" fill="#134A85"/>
<path d="M25.5 39.1308C31.9041 39.1308 37.1142 33.9206 37.1142 27.5165C37.1142 21.1124 31.9041 15.9023 25.5 15.9023C19.0959 15.9023 13.8857 21.1125 13.8857 27.5166C13.8857 33.9207 19.0959 39.1308 25.5 39.1308ZM25.5 17.3965C31.0802 17.3965 35.6201 21.9364 35.6201 27.5166C35.6201 33.0968 31.0803 37.6366 25.5 37.6366C19.9197 37.6366 15.3799 33.0967 15.3799 27.5165C15.3799 21.9363 19.9198 17.3965 25.5 17.3965Z" fill="#134A85"/>
<path d="M25.5 33.7969C28.9635 33.7969 31.7813 30.9792 31.7813 27.5156C31.7813 24.0521 28.9635 21.2344 25.5 21.2344C25.0081 21.2344 24.5182 21.2916 24.0438 21.4042C23.6424 21.4996 23.3943 21.9023 23.4897 22.3038C23.5851 22.7051 23.9877 22.9535 24.3892 22.8579C24.7506 22.772 25.1243 22.7285 25.5 22.7285C28.1397 22.7285 30.2871 24.876 30.2871 27.5156C30.2871 30.1553 28.1397 32.3028 25.5 32.3028C22.8604 32.3028 20.7129 30.1553 20.7129 27.5156C20.7129 26.3791 21.118 25.2775 21.8537 24.4137C22.1213 24.0996 22.0835 23.6281 21.7693 23.3605C21.4552 23.093 20.9836 23.1308 20.7162 23.4449C19.7506 24.5788 19.2188 26.0244 19.2188 27.5156C19.2188 30.9792 22.0366 33.7969 25.5 33.7969Z" fill="#134A85"/>
<path d="M8.8753 15.4005C14.2096 11.9168 19.8029 10.1504 25.5 10.1504C31.1971 10.1504 36.7905 11.9168 42.1247 15.4005C42.2507 15.4829 42.3925 15.5222 42.5325 15.5222C42.7764 15.5222 43.0154 15.403 43.1587 15.1836C43.3843 14.8381 43.2872 14.3751 42.9416 14.1496C37.3605 10.5044 31.4922 8.65625 25.5 8.65625C19.5078 8.65625 13.6396 10.5044 8.0584 14.1495C7.71286 14.3751 7.61584 14.838 7.84136 15.1835C8.06697 15.5289 8.53005 15.6262 8.8753 15.4005Z" fill="#134A85"/>
</g>
<defs>
<clipPath id="clip0_71_8833">
<rect width="51" height="51" fill="white"/>
</clipPath>
</defs>
</svg>
