<svg width="51" height="51" viewBox="0 0 51 51" fill="none" xmlns="http://www.w3.org/2000/svg">
<g clip-path="url(#clip0_71_8850)">
<path d="M47.2612 17.9494C48.1058 18.6816 48.9137 19.4638 49.6788 20.2985L50.8917 19.1868C49.9923 18.2056 49.0362 17.2911 48.0286 16.4426C48.4262 15.4236 48.6401 14.3105 48.6401 13.162H46.9949C46.9949 13.9235 46.879 14.6635 46.6644 15.3581C46.11 14.9431 45.5402 14.5486 44.9577 14.1716C45.2145 13.3295 45.3498 12.4351 45.3498 11.5169H43.7046C43.7046 12.1232 43.6317 12.7152 43.4949 13.2818C42.9155 12.9511 42.3251 12.6365 41.7212 12.3415C41.9433 11.553 42.0595 10.7219 42.0595 9.87171H40.4142C40.4142 10.4813 40.3406 11.0776 40.2015 11.6481C40.1858 11.6415 40.1706 11.6344 40.155 11.6278C39.5619 11.3768 38.9617 11.1462 38.3562 10.9316C38.6258 10.072 38.7691 9.15891 38.7691 8.22656H37.124C37.124 8.98489 37.0072 9.72519 36.7915 10.4215C33.737 9.51112 30.5426 9.04914 27.2531 9.04914C25.8592 9.04914 24.4573 9.1347 23.0863 9.30354L23.2873 10.9363C24.5918 10.7758 25.9262 10.6943 27.2531 10.6943C30.3328 10.6943 33.3111 11.1151 36.1261 11.9266C35.8001 12.4744 35.4007 12.9684 34.937 13.3881C32.5291 12.7212 30.0268 12.3637 27.4909 12.3426C27.4118 12.3405 27.3326 12.3394 27.2531 12.3394C25.2767 12.3394 23.3991 12.9653 21.8229 14.1494L22.8109 15.4648C24.0998 14.4966 25.6358 13.9848 27.2531 13.9848C27.4325 13.9848 27.6098 13.9934 27.7861 14.0061C26.4728 14.8939 25.6079 16.3967 25.6079 18.0978C25.6079 20.8192 27.8219 23.0332 30.5434 23.0332C32.2444 23.0332 33.7472 22.1683 34.635 20.855C34.6477 21.0312 34.6563 21.2087 34.6563 21.3881C34.6563 25.4702 31.3353 28.7913 27.2531 28.7913C23.1709 28.7913 19.8498 25.4702 19.8498 21.3881H18.2046C18.2046 23.9105 19.2426 26.1947 20.9132 27.8373L21.5876 31.8827L22.4985 32.1863C22.2079 32.4676 21.9689 32.8017 21.7972 33.1732C16.9053 32.17 12.337 29.8072 8.68597 26.4105L10.4873 25.6899L11.7622 27.6023L13.131 26.6898L11.8599 24.7831L13.0283 23.6147L11.865 22.4515L10.3392 23.9773L7.41595 25.1466C7.33826 25.0639 7.25996 24.9817 7.18317 24.898L7.02817 24.7288C6.80913 24.49 6.68851 24.1799 6.68851 23.8558C6.68851 23.5316 6.80913 23.2216 7.02827 22.9826L7.2247 22.7685L6.01584 21.6526L5.81553 21.8709C5.31768 22.414 5.04346 23.119 5.04346 23.8558C5.04346 24.5926 5.31768 25.2974 5.81553 25.8406L5.97052 26.0097C9.77032 30.1549 14.7668 33.1205 20.2064 34.496C19.4863 35.1 19.0273 36.0058 19.0273 37.0171C19.0273 38.5475 20.0775 39.8371 21.495 40.2034V48.5332C21.495 49.8939 22.6021 51.0009 23.9628 51.0009C25.3234 51.0009 26.4305 49.8939 26.4305 48.5332V41.9525C26.4305 41.499 26.7995 41.1299 27.2531 41.1299C27.7066 41.1299 28.0756 41.499 28.0756 41.9525V43.5977C28.0756 44.9583 29.1827 46.0654 30.5434 46.0654C31.904 46.0654 33.0111 44.9583 33.0111 43.5977V41.9522C34.778 41.9266 36.2172 40.559 36.2978 38.8175C36.3274 38.178 36.1745 37.5571 35.8607 37.016C36.2153 36.4004 36.3647 35.6787 36.2758 34.9576C36.2348 34.6253 36.142 34.3075 36.0065 34.0121C40.808 32.4851 45.1207 29.735 48.5358 26.0095L48.6908 25.8405C49.1885 25.2974 49.4628 24.5925 49.4628 23.8557C49.4628 23.1189 49.1885 22.414 48.6907 21.8709L48.5357 21.7017C47.7719 20.8685 46.9615 20.087 46.1128 19.3556C46.5465 18.9345 46.9312 18.4622 47.2612 17.9494ZM42.9212 14.8359C42.6413 15.3824 42.2904 15.8837 41.8754 16.3252C41.3108 15.9939 40.7363 15.6808 40.1512 15.3888C40.5315 14.9221 40.8598 14.412 41.1316 13.8682C41.7397 14.17 42.3363 14.4931 42.9212 14.8359ZM37.7259 12.4369C38.3726 12.6628 39.0104 12.9081 39.6367 13.1765C39.3579 13.7242 39.008 14.2271 38.5941 14.6699C37.9706 14.4034 37.3385 14.1578 36.6976 13.9357C37.0925 13.4794 37.4372 12.9762 37.7259 12.4369ZM33.8337 18.0975C33.8337 19.9117 32.3576 21.3877 30.5434 21.3877C28.7291 21.3877 27.2531 19.9117 27.2531 18.0975C27.2531 16.2832 28.7291 14.8072 30.5434 14.8072C30.5746 14.8072 30.6083 14.8082 30.6426 14.8094C32.0074 15.5157 33.1252 16.6333 33.8314 17.9981C33.8326 18.0326 33.8337 18.0664 33.8337 18.0975ZM27.253 30.4362C32.2422 30.4362 36.3014 26.3771 36.3014 21.3877C36.3014 18.7265 35.1464 16.3302 33.3116 14.673C37.2922 15.5851 41.0353 17.3826 44.2385 19.9356C43.1957 20.311 42.3955 21.1989 42.1432 22.2939C40.6835 22.6303 39.5918 23.9404 39.5918 25.5006V25.5748C38.1818 25.8871 37.1241 27.1472 37.1241 28.6498C37.1241 29.491 37.4517 30.2818 38.0463 30.8766L38.4761 31.3065C37.3044 31.8362 36.0921 32.284 34.847 32.6456C34.4193 32.3554 33.9222 32.1627 33.3895 32.1027C32.7034 32.0254 32.0325 32.1579 31.4495 32.4736C30.8343 31.7215 29.9004 31.2587 28.8982 31.2587C28.139 31.2587 27.4175 31.5184 26.8418 31.9801C26.3023 31.5475 25.6347 31.2922 24.9281 31.2618L23.0476 30.635L22.8206 29.2737C24.1314 30.0134 25.6436 30.4362 27.253 30.4362ZM34.2371 37.5655C34.5263 37.8886 34.6746 38.3061 34.6544 38.7411C34.6137 39.6193 33.8697 40.3072 32.9606 40.3072H31.3659V43.5975C31.3659 44.051 30.9969 44.42 30.5434 44.42C30.0898 44.42 29.7208 44.051 29.7208 43.5975V41.9523C29.7208 40.5916 28.6137 39.4846 27.2531 39.4846C25.8924 39.4846 24.7853 40.5916 24.7853 41.9523V48.533C24.7853 48.9865 24.4163 49.3556 23.9628 49.3556C23.5092 49.3556 23.1402 48.9865 23.1402 48.533V38.662H22.3176C21.4105 38.662 20.6725 37.9239 20.6725 37.0169C20.6725 36.1098 21.4106 35.3717 22.3176 35.3717H23.1402V34.5491C23.1402 33.642 23.8783 32.904 24.7853 32.904C25.3376 32.904 25.8502 33.1793 26.1567 33.6405L26.8418 34.6715L27.5269 33.6405C27.8333 33.1793 28.346 32.904 28.8982 32.904C29.5811 32.904 30.2007 33.3338 30.4397 33.9735L30.904 35.2157L31.8106 34.2478C32.1699 33.8643 32.6779 33.678 33.2052 33.7376C33.9471 33.8212 34.5518 34.4189 34.6431 35.159C34.7028 35.644 34.5588 36.109 34.2372 36.4683L33.746 37.017L34.2371 37.5655ZM47.3228 22.8134L47.4777 22.9825C47.6969 23.2215 47.8175 23.5314 47.8175 23.8557C47.8175 24.1799 47.6969 24.4899 47.4777 24.7288L47.3228 24.8979C45.2192 27.1927 42.7541 29.0946 40.0355 30.5397L39.2095 29.7136C38.9254 29.4295 38.769 29.0518 38.769 28.6501C38.769 27.8208 39.4438 27.1461 40.273 27.1461H41.2368V25.5009C41.2368 24.5938 41.9749 23.8558 42.882 23.8558H43.7045V23.0332C43.7045 22.1261 44.4427 21.3881 45.3497 21.3881H45.9134C46.399 21.8444 46.8697 22.3191 47.3228 22.8134ZM43.2929 17.2121C43.6897 16.7534 44.0346 16.2498 44.3221 15.7105C44.8869 16.0862 45.4379 16.4836 45.9765 16.8991C45.6583 17.4253 45.2712 17.9 44.8232 18.3074C44.3244 17.9252 43.8142 17.56 43.2929 17.2121Z" fill="#134A85"/>
<path d="M4.98498 17.6735L6.18418 16.4743C7.24921 17.3267 8.55319 17.8917 9.9788 18.05V19.742H8.33375V21.3871H13.2692V19.742H11.624V18.05C13.0497 17.8916 14.3536 17.3268 15.4189 16.4743L16.6181 17.6735L15.4548 18.8368L16.6182 20.0001L20.108 16.5102L18.9446 15.3469L17.7814 16.5103L16.5823 15.3111C17.4348 14.246 17.9997 12.9419 18.158 11.5162H19.8499V13.1614H21.495V8.22584H19.8499V9.87099H18.1579C17.9995 8.44538 17.4347 7.14139 16.5822 6.07617L17.7813 4.87697L18.9445 6.04031L20.1079 4.87707L16.6181 1.38716L15.4547 2.5504L16.618 3.71374L15.4189 4.91283C14.3537 4.06048 13.0498 3.49539 11.624 3.33711V1.64515H13.2692V0H8.33375V1.64515H9.9789V3.33711C8.55329 3.49549 7.2493 4.06038 6.18408 4.91283L4.98498 3.71364L6.14822 2.5503L4.98488 1.38706L1.49497 4.87707L2.65831 6.04031L3.82155 4.87697L5.02074 6.07617C4.16839 7.14129 3.6033 8.44528 3.44502 9.87099H1.75306V8.22584H0.10791V13.1613H1.75306V11.5161H3.44502C3.6034 12.9417 4.16829 14.2457 5.02074 15.311L3.82165 16.5102L2.65841 15.3468L1.49497 16.5101L4.98479 20L6.14812 18.8367L4.98498 17.6735ZM5.86593 9.04842C6.77307 9.04842 7.51108 9.78652 7.51108 10.6936C7.51108 11.6006 6.77297 12.3387 5.86593 12.3387C5.65326 12.3387 5.44448 12.2969 5.24975 12.218C5.11617 11.7322 5.04336 11.2213 5.04336 10.6936C5.04336 10.1658 5.11617 9.65494 5.24975 9.16914C5.44448 9.09025 5.65336 9.04842 5.86593 9.04842ZM11.624 15.629C11.624 14.7219 12.3622 13.9839 13.2692 13.9839C13.8978 13.9839 14.4636 14.3475 14.7382 14.8898C13.9381 15.641 12.9243 16.1658 11.7986 16.3633C11.6852 16.1368 11.624 15.8859 11.624 15.629ZM15.8514 7.9301C15.5793 8.11996 15.2555 8.22584 14.9143 8.22584C14.0072 8.22584 13.2692 7.48774 13.2692 6.58069C13.2692 6.23953 13.3752 5.9157 13.5649 5.64367C14.5273 6.1723 15.3226 6.96787 15.8514 7.9301ZM10.8015 4.93545C11.2109 4.93545 11.6103 4.97917 11.9958 5.06075C11.7546 5.52304 11.624 6.04141 11.624 6.58059C11.624 8.39488 13.1001 9.87089 14.9143 9.87089C15.4535 9.87089 15.9719 9.7403 16.4342 9.49915C16.5159 9.88464 16.5595 10.284 16.5595 10.6935C16.5595 11.7276 16.2841 12.6982 15.8047 13.5379C15.1932 12.8009 14.2711 12.3386 13.2692 12.3386C11.4549 12.3386 9.9789 13.8146 9.9789 15.6289C9.9789 15.8918 10.0111 16.1517 10.0722 16.4037C8.42001 16.1938 6.98454 15.282 6.07501 13.9763C7.79218 13.8681 9.15633 12.4374 9.15633 10.6934C9.15633 8.9493 7.79218 7.51881 6.07491 7.41054C7.11623 5.9161 8.84594 4.93545 10.8015 4.93545Z" fill="#134A85"/>
<path d="M23.9628 26.3222C25.3235 26.3222 26.4306 25.2152 26.4306 23.8544C26.4306 22.4937 25.3235 21.3867 23.9628 21.3867C22.6022 21.3867 21.4951 22.4937 21.4951 23.8544C21.4951 25.2152 22.6022 26.3222 23.9628 26.3222ZM23.9628 23.0319C24.4164 23.0319 24.7854 23.4009 24.7854 23.8544C24.7854 24.308 24.4164 24.677 23.9628 24.677C23.5093 24.677 23.1403 24.308 23.1403 23.8544C23.1403 23.4009 23.5092 23.0319 23.9628 23.0319Z" fill="#134A85"/>
<path d="M15.7371 25.5V27.2533L14.5483 26.4607L13.6357 27.8296L16.3107 29.6129H19.85V27.9677H17.3822V25.5H15.7371Z" fill="#134A85"/>
</g>
<defs>
<clipPath id="clip0_71_8850">
<rect width="51" height="51" fill="white"/>
</clipPath>
</defs>
</svg>
