<svg width="51" height="51" viewBox="0 0 51 51" fill="none" xmlns="http://www.w3.org/2000/svg">
<path d="M40.4592 18.6158C40.762 17.1517 41.0303 14.993 40.6269 12.925C40.2074 10.7749 39.0649 8.7319 36.4789 7.65511L36.4788 7.65505C36.3421 7.59798 36.2348 7.48828 36.1801 7.35102L36.18 7.35083C36.1283 7.22034 35.446 5.55121 34.0002 4.03537C32.5576 2.52281 30.3645 1.17112 27.2758 1.63779L27.2757 1.63781C26.6148 1.73697 25.8886 1.82005 25.1238 1.90755L25.0655 1.91422L25.0654 1.91423C21.696 2.29771 17.755 2.74945 14.8026 4.80315C11.8697 6.84336 9.88447 10.4887 10.4911 17.338L40.4592 18.6158ZM40.4592 18.6158C39.7468 18.3132 38.9493 18.3319 38.1235 18.6668C38.0298 17.6779 37.9636 16.6094 37.9636 15.3754C37.9636 14.1228 37.5355 13.1003 36.6843 12.351L36.6843 12.351C35.7427 11.5229 34.384 11.135 32.9526 10.9919C31.5178 10.8485 29.9889 10.9493 28.6861 11.1172C26.5724 11.3897 24.4286 11.3897 22.3148 11.1172L22.3148 11.1172C21.0121 10.9495 19.483 10.8488 18.0482 10.9922C16.6168 11.1353 15.2581 11.5231 14.3167 12.351L14.3167 12.351C13.465 13.1003 13.0374 14.1228 13.0374 15.3754C13.0374 16.6094 12.9708 17.6776 12.8771 18.6669C12.1819 18.385 11.5053 18.3257 10.8811 18.4957C10.1995 18.6814 9.59755 19.136 9.11087 19.8368C8.56192 20.6272 8.31039 21.7209 8.3354 22.8576C8.36045 23.9962 8.66302 25.1934 9.24023 26.1995L9.36244 26.1294L9.24024 26.1995C10.0237 27.5649 11.2049 28.3657 12.5316 28.4112C12.6531 29.2221 12.8226 30.0952 13.0588 31.0613L13.0586 31.0613L13.0611 31.0695C13.0844 31.146 14.5004 35.6266 17.7153 38.9672L16.4885 43.5604C16.1966 44.6536 15.2865 45.4766 14.1699 45.6568L14.1699 45.6568L7.8853 46.674L7.8851 46.6741C7.5866 46.7228 7.38298 47.0039 7.43128 47.303L7.43132 47.3032C7.47519 47.5725 7.70772 47.7638 7.97222 47.7638C8.00068 47.7638 8.03031 47.7617 8.0605 47.7567L8.06034 47.7567L8.03637 47.6086L8.06103 47.7566L40.4592 18.6158ZM33.0218 40.1075C32.7296 40.186 32.5557 40.4858 32.634 40.7787L33.061 40.2523L33.0222 40.1074C33.0221 40.1074 33.0219 40.1074 33.0218 40.1075ZM37.1053 6.72951C36.832 6.13341 35.9536 4.40004 34.3735 2.90499C32.7406 1.35995 30.3516 0.0644696 27.1124 0.55184L27.1123 0.551847C26.4549 0.650973 25.7215 0.734737 24.9415 0.823663C24.9414 0.823664 24.9414 0.823666 24.9414 0.823667L24.9258 0.825446C21.6109 1.20261 17.4046 1.6812 14.191 3.90183C10.9536 6.13894 8.75086 10.121 9.39863 17.4346L9.39864 17.4347C9.42522 17.7331 9.6855 17.9635 9.99423 17.9325C10.2951 17.9052 10.518 17.6396 10.4911 17.338L37.1053 6.72951ZM14.3448 46.7395C14.3448 46.7395 14.3449 46.7395 14.3449 46.7395L14.3448 46.7395ZM15.939 46.0967C18.7316 49.0449 21.9469 50.5525 25.5003 50.5525C29.0537 50.5525 32.2686 49.0445 35.0616 46.0963C35.5314 46.4173 36.0706 46.6444 36.6557 46.7391L42.9395 47.7562C42.9397 47.7562 42.9399 47.7562 42.94 47.7563C42.9702 47.7613 42.9999 47.7634 43.0283 47.7634C43.2927 47.7634 43.5259 47.5718 43.5693 47.3026C43.6175 47.0034 43.4147 46.7219 43.1153 46.6736C43.1152 46.6736 43.1152 46.6736 43.1152 46.6736L15.939 46.0967ZM40.8313 25.6151C40.4827 26.2356 39.7632 27.1719 38.6112 27.3003C38.8633 24.8187 38.6317 22.9383 38.3752 20.8808C38.3315 20.5299 38.2878 20.1765 38.2457 19.8162C38.8073 19.5234 39.3044 19.435 39.741 19.5278C40.1992 19.6252 40.6175 19.9277 40.9891 20.4626C41.4043 21.0605 41.6041 21.9249 41.5777 22.8603C41.5512 23.7936 41.2997 24.7811 40.8313 25.6151ZM12.625 20.8803L12.6249 20.8804C12.3692 22.9362 12.1376 24.8152 12.3906 27.3008C11.2538 27.1772 10.5408 26.2627 10.1913 25.6538C9.7198 24.8319 9.46348 23.8334 9.43291 22.886C9.40225 21.9361 9.59886 21.0566 10.0115 20.4621C10.3827 19.9275 10.8011 19.6265 11.2592 19.5304C11.696 19.4387 12.1931 19.5281 12.7541 19.8206C12.7123 20.179 12.6687 20.5311 12.625 20.8803ZM16.8265 36.158C15.0245 33.5598 14.173 30.9499 14.1177 30.7771C13.0451 26.384 13.3538 23.9049 13.7135 21.016L13.7135 21.0159L13.7141 21.0111C13.92 19.3578 14.1339 17.6405 14.1339 15.3754C14.1339 14.4216 14.4339 13.7088 15.0407 13.1747C16.0334 12.3018 17.7172 12.0168 19.4683 12.0168C20.3969 12.0168 21.3329 12.097 22.174 12.2056L22.1741 12.2056C24.381 12.4897 26.6188 12.4897 28.8261 12.2056L28.8261 12.2056C30.036 12.0495 31.4394 11.9526 32.7347 12.067C34.0344 12.1818 35.2007 12.5074 35.9598 13.1747C36.567 13.7087 36.8667 14.4215 36.8667 15.3754C36.8667 17.6404 37.0806 19.3578 37.2864 21.0111L37.287 21.0159L37.2873 21.018C37.6468 23.9054 37.9554 26.3838 36.8896 30.7512C36.851 30.8741 35.9994 33.5219 34.1742 36.1552C32.3197 38.8307 29.4837 41.4589 25.4999 41.4589C21.5161 41.4589 18.6802 38.8307 16.8265 36.158Z" fill="#134A85" stroke="#134A85" stroke-width="0.3"/>
<path d="M25.9783 29.3255H27.1767V29.6505C27.1767 29.9537 27.4224 30.1989 27.7251 30.1989C28.0278 30.1989 28.2735 29.9537 28.2735 29.6505V29.3255H31.161V29.6505C31.161 29.9537 31.4068 30.1989 31.7095 30.1989C32.0122 30.1989 32.2579 29.9537 32.2579 29.6505V29.3255H33.4562C35.1025 29.3255 36.4415 27.9866 36.4415 26.3403V21.1036C36.4415 19.4573 35.1025 18.1183 33.4562 18.1183H32.2579V17.793C32.2579 17.4897 32.0122 17.2445 31.7095 17.2445C31.4068 17.2445 31.161 17.4897 31.161 17.793V18.1183H28.2735V17.793C28.2735 17.4897 28.0278 17.2445 27.7251 17.2445C27.4224 17.2445 27.1767 17.4897 27.1767 17.793V18.1183H25.9783C24.332 18.1183 22.9931 19.4573 22.9931 21.1036V26.3403C22.9931 27.9866 24.332 29.3255 25.9783 29.3255ZM28.2731 28.2287V27.3333H31.1606V28.2287H28.2731ZM28.2731 21.2074H31.1606V26.2365H28.2731V21.2074ZM27.1763 26.2365H26.0817V21.2074H27.1763V26.2365ZM32.2575 21.2074H33.352V26.2365H32.2575V21.2074ZM33.4558 19.2152C34.497 19.2152 35.3442 20.0624 35.3442 21.1036V26.3403C35.3442 27.3814 34.497 28.2287 33.4558 28.2287H32.2575V27.3333H33.4558C34.0036 27.3333 34.4489 26.8881 34.4489 26.3403V21.1036C34.4489 20.5558 34.0036 20.1105 33.4558 20.1105H32.2575V19.2152H33.4558ZM31.1606 19.2152V20.1105H28.2731V19.2152H31.1606ZM24.0895 21.1036C24.0895 20.0624 24.9368 19.2152 25.9779 19.2152H27.1763V20.1105H25.9779C25.4301 20.1105 24.9849 20.5558 24.9849 21.1036V26.3403C24.9849 26.8881 25.4301 27.3333 25.9779 27.3333H27.1763V28.2287H25.9779C24.9368 28.2287 24.0895 27.3814 24.0895 26.3403V21.1036Z" fill="#134A85" stroke="#134A85" stroke-width="0.3"/>
</svg>
