<svg width="51" height="51" viewBox="0 0 51 51" fill="none" xmlns="http://www.w3.org/2000/svg">
<path d="M23.7859 28.5366V16.0737C23.7859 13.7083 21.8658 11.7887 19.5004 11.7887H18.4773C18.5834 11.3792 18.6436 10.9492 18.6436 10.503C18.6436 7.90403 16.7209 5.78906 14.3581 5.78906C11.9952 5.78906 10.0725 7.90403 10.0725 10.503C10.0725 10.9492 10.1332 11.3792 10.2388 11.7887H9.20657C8.31509 11.7887 7.45829 12.0621 6.7295 12.5853C6.34394 12.8597 6.2501 13.3998 6.52397 13.7762C6.5459 13.8078 6.57293 13.8338 6.59843 13.8613C6.88352 14.1643 7.37771 14.2265 7.72349 13.9822C8.16107 13.665 8.67464 13.5023 9.21473 13.5023H11.0543C11.8412 14.5483 13.0295 15.2164 14.3571 15.2164C15.6846 15.2164 16.8734 14.5483 17.6598 13.5023H19.4994C20.9136 13.5023 22.0708 14.659 22.0708 16.0732V28.0725V28.8523C22.079 29.0323 21.9933 29.2633 21.8306 29.4515C21.7628 29.5336 21.6888 29.5984 21.6138 29.652C21.5078 29.7269 21.3996 29.7759 21.2992 29.7861C20.931 29.8371 20.6224 29.8458 20.4164 29.8458C20.3949 29.8458 20.3776 29.8447 20.3567 29.8447V17.7878C20.3567 17.314 19.9732 16.9305 19.4994 16.9305C19.0261 16.9305 18.6426 17.314 18.6426 17.7878V30.6439V43.5H15.2144V30.6439C15.2144 30.1701 14.8308 29.7866 14.3571 29.7866C13.8838 29.7866 13.5003 30.1701 13.5003 30.6439V43.5H10.0725V30.6439V17.7878C10.0725 17.314 9.68903 16.9305 9.21575 16.9305C8.74247 16.9305 8.35844 17.314 8.35844 17.7878V29.7866H7.50113C7.02938 29.7866 6.64382 29.401 6.64382 28.9298V19.6641C6.64382 19.1934 6.25775 18.8073 5.78651 18.8073C5.31476 18.8073 4.9292 19.1934 4.9292 19.6641V28.9298C4.9292 30.343 6.08588 31.5007 7.50062 31.5007H8.35793V44.3573C8.35793 44.5883 8.4431 44.8025 8.6063 44.9657C8.76899 45.1284 8.98319 45.2141 9.21473 45.2141H13.5003C13.7996 45.2141 14.1 45.1371 14.3571 44.9826C14.6141 45.1376 14.914 45.2141 15.2144 45.2141H19.4994C19.7309 45.2141 19.9451 45.1279 20.1083 44.9657C20.271 44.8025 20.3567 44.5883 20.3567 44.3573V31.5604C20.7423 31.5522 21.1538 31.5354 21.5475 31.4834C22.287 31.3533 22.9143 30.9219 23.3157 30.3262C23.6059 30.6332 23.7849 31.0463 23.7849 31.5007V44.3573C23.7849 44.8311 24.1684 45.2141 24.6422 45.2141C25.1155 45.2141 25.499 44.8311 25.499 44.3573V31.5012C25.5 30.2354 24.8085 29.1307 23.7859 28.5366ZM14.3581 13.5023C13.6599 13.5023 13.026 13.1744 12.5619 12.645C12.3466 12.3992 12.1697 12.109 12.0386 11.7882C11.879 11.3975 11.7867 10.963 11.7867 10.5025C11.7867 8.84855 12.9403 7.50266 14.3581 7.50266C15.7759 7.50266 16.9295 8.84855 16.9295 10.5025C16.9295 10.963 16.8377 11.398 16.6781 11.7882C16.547 12.109 16.37 12.3992 16.1543 12.645C15.6897 13.1744 15.0568 13.5023 14.3581 13.5023ZM45.8404 19.2286C46.1464 18.8996 46.1464 18.3907 45.8404 18.0617C45.5063 17.7016 37.5646 9.30092 26.5149 9.22085C26.4701 9.21983 26.4257 9.21728 26.3808 9.21728C26.3798 9.21728 26.3798 9.21728 26.3788 9.21728C26.3772 9.21728 26.3757 9.21728 26.3747 9.21728C26.3686 9.21728 26.3625 9.21728 26.3568 9.21728C25.8836 9.21728 25.4995 9.6008 25.4995 10.0746C25.4995 10.5479 25.8836 10.9314 26.3568 10.9314C26.364 10.9314 26.3711 10.9319 26.3778 10.9319C26.3961 10.9319 26.4145 10.9329 26.4328 10.9329C30.5241 10.9742 33.9431 14.3142 34.0665 18.406C34.1303 20.5133 33.3586 22.5053 31.8934 24.016C30.4282 25.5266 28.4616 26.3584 26.3579 26.3589H26.3568C25.8836 26.3589 25.4995 26.7424 25.4995 27.2162C25.4995 27.69 25.8836 28.073 26.3568 28.073C37.4896 28.073 45.5053 19.5902 45.8404 19.2286ZM33.124 25.2094C34.9146 23.3632 35.8581 20.9289 35.7801 18.3534C35.7062 15.9064 34.6673 13.6813 33.0414 12.0386C38.4918 13.8221 42.533 17.2712 43.9916 18.6446C42.5381 20.013 38.5214 23.4427 33.1006 25.2318C33.1087 25.2241 33.1164 25.2175 33.124 25.2094ZM30.6424 18.6451C30.6424 16.2879 28.7289 14.3698 26.3737 14.3606C26.3681 14.3606 26.363 14.3596 26.3574 14.3596C25.8841 14.3596 25.5 13.9766 25.5 13.5028C25.5 13.029 25.8841 12.6455 26.3574 12.6455C26.364 12.6455 26.3701 12.6465 26.3762 12.6465C29.6759 12.6567 32.357 15.3434 32.357 18.6451C32.357 21.952 29.6673 24.6427 26.3609 24.6443C26.3599 24.6443 26.3589 24.6448 26.3574 24.6448C25.8841 24.6448 25.5 24.2613 25.5 23.7875C25.5 23.3142 25.8841 22.9307 26.3574 22.9307H26.363C28.7227 22.9271 30.6424 21.0059 30.6424 18.6451ZM40.0702 27.2157C36.7619 27.2157 34.0706 29.9075 34.0706 33.2148C34.0706 36.5227 36.7619 39.2145 40.0702 39.2145C43.3786 39.2145 46.0699 36.5227 46.0699 33.2148C46.0699 29.9075 43.3786 27.2157 40.0702 27.2157ZM40.0702 37.5009C37.7074 37.5009 35.7847 35.5782 35.7847 33.2153C35.7847 30.8525 37.7074 28.9303 40.0702 28.9303C42.4331 28.9303 44.3558 30.853 44.3558 33.2153C44.3558 35.5782 42.4331 37.5009 40.0702 37.5009ZM42.6417 33.2153C42.6417 33.6891 42.2581 34.0726 41.7849 34.0726H38.3566C37.8834 34.0726 37.4993 33.6891 37.4993 33.2153C37.4993 32.7421 37.8828 32.3585 38.3566 32.3585H41.7849C42.2576 32.358 42.6417 32.7415 42.6417 33.2153ZM4.93022 16.2359C4.93022 15.7647 5.31578 15.3791 5.78753 15.3791C5.81099 15.3791 5.83343 15.3842 5.85689 15.3862C6.29549 15.4225 6.64484 15.7886 6.64484 16.2364C6.64484 16.7087 6.25877 17.0937 5.78753 17.0937C5.31527 17.0932 4.93022 16.7082 4.93022 16.2359Z" fill="#134A85"/>
</svg>
