<svg width="51" height="51" viewBox="0 0 51 51" fill="none" xmlns="http://www.w3.org/2000/svg">
<path d="M39.1912 30.2254L39.1912 30.2253L34.4728 27.4285L34.4812 27.2787C34.4803 27.2787 34.4794 27.2786 34.4785 27.2786C34.446 27.2768 34.4129 27.2758 34.3794 27.2758C34.3459 27.2758 34.3128 27.2768 34.2802 27.2786C33.6896 27.2908 33.0824 27.412 32.474 27.6379C31.967 27.8261 31.4578 28.0871 30.9601 28.4128C30.1169 28.9647 29.5936 29.514 29.5675 29.5416L29.5675 29.5416C29.3862 29.7334 29.3862 30.0335 29.5675 30.2253L29.5676 30.2254C29.5936 30.2529 30.1168 30.8022 30.9601 31.3541C31.4578 31.6798 31.967 31.9408 32.474 32.129C33.1165 32.3675 33.7576 32.4896 34.3794 32.4896C35.0011 32.4896 35.6423 32.3675 36.2848 32.129C36.7917 31.9408 37.301 31.6799 37.7987 31.3541C38.6419 30.8022 39.1651 30.2529 39.1912 30.2254ZM38.0994 29.8833C37.4404 30.4505 36.004 31.494 34.3794 31.494C33.2441 31.494 32.2016 30.9748 31.5195 30.5304L31.5195 30.5304C31.1644 30.2991 30.8707 30.0658 30.6593 29.8836C31.0647 29.5347 31.7703 29.0003 32.636 28.6438C32.6025 28.7806 32.5847 28.9235 32.5847 29.0704C32.5847 30.0601 33.3897 30.8651 34.3794 30.8651C35.3691 30.8651 36.174 30.0601 36.174 29.0704C36.174 28.924 36.1564 28.7814 36.123 28.6449C36.553 28.8216 36.9334 29.0372 37.2393 29.2365L37.3212 29.1108L37.2393 29.2365C37.5944 29.4678 37.8881 29.7011 38.0994 29.8833ZM35.1785 29.0704C35.1785 29.5109 34.8199 29.8695 34.3794 29.8695C33.9389 29.8695 33.5803 29.5109 33.5803 29.0704C33.5803 28.6487 33.9091 28.302 34.3238 28.2734L34.324 28.2734C34.3434 28.2731 34.3614 28.2729 34.3794 28.2729C34.3971 28.2729 34.415 28.273 34.4329 28.2733C34.8486 28.3009 35.1785 28.648 35.1785 29.0704Z" fill="#134A85" stroke="#134A85" stroke-width="0.3"/>
<path d="M24.5279 16.2464L24.3883 16.3014L15.8293 13.1355C15.6906 14.4525 15.3698 15.4514 14.5318 16.6053C13.6874 17.7679 12.3168 19.0893 10.0664 21.0422C8.7002 22.2278 7.59799 23.5354 6.79231 24.9294L6.9182 25.0022L6.79231 24.9294C6.00663 26.2889 5.49729 27.7394 5.27937 29.2406C5.06604 30.7101 5.1312 32.232 5.47189 33.7635C5.80782 35.2737 6.41252 36.7974 7.26766 38.2925L7.39379 38.2204L7.26766 38.2925C9.23879 41.7387 12.324 43.7773 13.9839 44.6849L14.0559 44.5533L13.9839 44.6849C14.2969 44.856 14.6418 44.9401 14.9863 44.9401C15.4307 44.9401 15.8746 44.8 16.2486 44.5258C16.2867 44.5578 16.3234 44.5883 16.3582 44.6171C16.7198 44.9166 17.1693 45.0707 17.6235 45.0706C17.9263 45.0706 18.2315 45.0022 18.5146 44.8626L18.5146 44.8626C20.6783 43.7942 22.4067 42.4703 23.7943 40.8145C24.8835 39.5147 25.7658 38.006 26.5717 36.0716C27.0257 34.982 27.3078 33.6206 27.4144 32.029C27.5146 30.5325 27.4593 28.8549 27.251 27.0431C26.845 23.5108 25.8779 19.6772 24.5279 16.2464ZM18.074 43.9698C17.7369 44.1361 17.3407 44.1027 17.0459 43.8911C18.7428 42.4715 20.0555 40.9047 21.0404 39.1244C21.9262 37.5234 22.5502 35.7427 23.0057 33.5252C23.2618 32.2784 23.2801 30.7784 23.0648 29.0695C22.8623 27.4618 22.4574 25.6937 21.8623 23.8145C21.5847 22.9376 21.2694 22.0491 20.9211 21.1588C21.9592 20.4377 22.6816 19.8048 23.2273 19.136C23.5552 18.7341 23.8266 18.3092 24.0583 17.829C25.1391 20.8553 25.9132 24.1219 26.2621 27.1568C26.6746 30.7454 26.4516 33.7717 25.6528 35.6887L25.7783 35.741L25.6528 35.6887C24.4728 38.5212 22.6547 41.7081 18.074 43.9698ZM15.6766 43.7105L15.7675 43.8298L15.6766 43.7105C15.32 43.982 14.8428 44.0199 14.4615 43.8114C12.8878 42.951 9.97848 41.027 8.13177 37.7982C6.45506 34.8668 5.8588 31.9479 6.29908 29.2259C6.73932 26.5041 8.21829 23.9641 10.7189 21.794C12.7796 20.0057 14.3615 18.535 15.3276 17.2098C15.9498 16.3564 16.3497 15.5345 16.5912 14.5702C17.8269 16.6446 18.9306 18.875 19.8274 21.1017C19.8376 21.1401 19.8525 21.1775 19.8721 21.2132C20.2611 22.1864 20.6103 23.1581 20.9133 24.115C22.0949 27.8469 22.4845 31.1153 22.0305 33.3249C21.3774 36.5042 20.1473 40.1688 15.9957 43.4625C15.9699 43.4792 15.9451 43.4985 15.922 43.5206C15.8412 43.5841 15.7595 43.6474 15.6766 43.7105Z" fill="#134A85" stroke="#134A85" stroke-width="0.3"/>
<path d="M19.4801 34.9444L19.4801 34.9444L19.5066 34.241C19.5066 34.241 19.5066 34.241 19.5066 34.241C19.3197 34.0394 19.0047 34.0275 18.8032 34.2144L18.9052 34.3244L18.8032 34.2144L18.8022 34.2153C17.2507 35.6542 15.3386 37.4274 13.2893 40.0306C12.6135 38.8786 11.9823 37.5327 11.6022 36.0112C12.576 34.966 13.8664 33.7739 15.2635 32.6312C16.5501 31.5789 17.7268 30.7415 18.2642 30.4876L18.2642 30.4876C18.5128 30.3702 18.6191 30.0735 18.5016 29.8249L18.366 29.889L18.5016 29.8249C18.3842 29.5764 18.0875 29.4701 17.839 29.5875L17.839 29.5875C17.2077 29.8857 15.9782 30.7605 14.6332 31.8606C13.894 32.4652 12.5853 33.5765 11.3648 34.8194C11.1998 33.7099 11.179 32.5184 11.3709 31.2506C11.4749 30.5628 11.6251 29.9135 11.809 29.297C13.3407 27.9012 15.0621 26.3607 16.4538 25.3566L16.4538 25.3566C16.6767 25.1957 16.7271 24.8846 16.5662 24.6617L16.5662 24.6617C16.4054 24.4388 16.0943 24.3884 15.8713 24.5493C14.864 25.276 13.7028 26.2632 12.5676 27.2723C13.1269 26.0266 13.7881 24.9159 14.4116 23.8692L14.421 23.8534C15.2651 22.4363 16.0109 21.1841 16.2977 19.906C16.3579 19.6378 16.1893 19.3716 15.9211 19.3114L15.921 19.3114C15.6529 19.2512 15.3866 19.4198 15.3264 19.688L15.4727 19.7209L15.3264 19.688C15.0754 20.8061 14.3815 21.9743 13.5563 23.3598L13.5549 23.3622C12.9591 24.3625 12.2794 25.5037 11.7026 26.7715C11.3971 27.443 11.1411 28.1048 10.9321 28.7648C10.8692 28.8536 10.8387 28.9586 10.8409 29.063C10.6408 29.7409 10.4901 30.4176 10.3866 31.1017C10.2193 32.2075 10.1942 33.3255 10.3122 34.4248C10.3668 34.933 10.4529 35.4444 10.5693 35.9552C10.5722 35.9711 10.5759 35.9874 10.5806 36.0038C10.6899 36.4755 10.8248 36.9469 10.9854 37.4149C11.5376 39.0244 12.3969 40.637 13.6091 42.3439C13.7063 42.4807 13.8599 42.5535 14.0153 42.5535C14.115 42.5535 14.2159 42.5236 14.3032 42.4615C14.5273 42.3024 14.58 41.9916 14.4208 41.7675C14.2344 41.505 14.0423 41.2262 13.8491 40.9315C15.9287 38.2382 17.8088 36.4943 19.4801 34.9444Z" fill="#134A85" stroke="#134A85" stroke-width="0.3"/>
<path d="M25.1128 14.9902L25.1129 14.9902C25.177 14.985 25.2421 14.9824 25.3067 14.9824C26.0789 14.9824 26.7073 14.354 26.7073 13.5818V13.4603H25.5294C25.127 13.4603 24.7998 13.1332 24.7998 12.7308V8.38737C24.7998 6.96228 25.959 5.80312 27.384 5.80312H41.0899C42.515 5.80312 43.6742 6.96228 43.6742 8.38737V12.7308C43.6742 13.1332 43.347 13.4603 42.9445 13.4603H41.7666V13.5818C41.7666 14.354 42.3951 14.9824 43.1672 14.9824C44.4886 14.9824 45.5633 16.0572 45.5633 17.3785V42.0475C45.5633 42.8581 45.2474 43.6208 44.6743 44.1939C44.1011 44.767 43.3384 45.083 42.5279 45.083H25.9461C25.252 45.083 24.5735 44.8427 24.0352 44.4062C23.5052 43.9763 23.1318 43.3748 22.9836 42.7117L23.11 42.6835L22.9836 42.7117C22.9237 42.4434 23.0926 42.1773 23.3609 42.1174M25.1128 14.9902L23.3936 42.2638M25.1128 14.9902C24.8388 15.0122 24.6345 15.2522 24.6565 15.5262M25.1128 14.9902L24.6565 15.5262M23.3609 42.1174L23.3936 42.2638M23.3609 42.1174C23.3609 42.1174 23.3609 42.1174 23.3609 42.1174L23.3936 42.2638M23.3609 42.1174C23.6291 42.0574 23.8952 42.2264 23.9552 42.4947L23.8088 42.5274L23.9552 42.4947C24.1612 43.4168 24.9991 44.0875 25.9461 44.0875H42.5279C43.6526 44.0875 44.5678 43.1722 44.5678 42.0475V40.5048M23.3936 42.2638C23.5809 42.2219 23.7669 42.3399 23.8088 42.5274C24.0301 43.5183 24.929 44.2375 25.9461 44.2375H42.5279C43.7354 44.2375 44.7178 43.2551 44.7178 42.0475V40.5048H44.5678M44.5678 40.5048V40.3548H25.6655C25.4735 40.3548 25.3178 40.1991 25.3178 40.007C25.3178 39.815 25.4735 39.6593 25.6655 39.6593H44.5678V39.5093M44.5678 40.5048H25.6655C25.3906 40.5048 25.1678 40.282 25.1678 40.007C25.1678 39.7321 25.3906 39.5093 25.6655 39.5093H44.5678M44.5678 39.5093H44.7178V20.2875H44.5678M44.5678 39.5093V20.2875M44.5678 20.2875V20.1375H26.809C26.6169 20.1375 26.4612 19.9818 26.4612 19.7898C26.4612 19.5977 26.6169 19.442 26.809 19.442H44.5678V19.2921M44.5678 20.2875H26.809C26.5341 20.2875 26.3112 20.0647 26.3112 19.7898C26.3112 19.5149 26.5341 19.2921 26.809 19.2921H44.5678M44.5678 19.2921H44.7178V17.3785C44.7178 16.5235 44.0222 15.8279 43.1672 15.8279C41.9287 15.8279 40.9211 14.8203 40.9211 13.5818V13.4604H40.7711M44.5678 19.2921V17.3785C44.5678 16.6064 43.9394 15.9779 43.1672 15.9779C41.8459 15.9779 40.7711 14.9032 40.7711 13.5818V13.4604M40.7711 13.4604V13.3104H27.7028V13.4604M40.7711 13.4604H27.7028M27.7028 13.4604H27.5528L25.1926 15.9825C25.2302 15.9795 25.2686 15.9779 25.3067 15.9779C26.628 15.9779 27.7028 14.9032 27.7028 13.5818V13.4604ZM24.6565 15.5262C24.6775 15.7867 24.8953 15.9841 25.1523 15.9841M24.6565 15.5262L25.1523 15.9841M25.1523 15.9841C25.1656 15.9841 25.179 15.9836 25.1925 15.9825L25.1523 15.9841ZM41.6166 13.4603V13.3103H41.7666L41.6166 13.4603ZM25.7953 8.38737C25.7953 7.51146 26.5081 6.79862 27.384 6.79862H41.0899C41.9658 6.79862 42.6786 7.51146 42.6786 8.38737V12.4648H41.2691H41.2691H41.2691H41.2691H41.2691H41.2691H41.269H41.269H41.269H41.269H41.269H41.269H41.269H41.2689H41.2689H41.2689H41.2689H41.2689H41.2688H41.2688H41.2688H41.2688H41.2688H41.2688H41.2688H41.2687H41.2687H41.2687H41.2687H41.2687H41.2687H41.2687H41.2686H39.8881V10.3715C39.8881 10.0966 39.6653 9.87379 39.3904 9.87379C39.1155 9.87379 38.8926 10.0966 38.8926 10.3715V12.4649H34.7347V8.70521C34.7347 8.43031 34.5119 8.20747 34.237 8.20747C33.9621 8.20747 33.7392 8.43031 33.7392 8.70521V12.4648H29.5813V10.3715C29.5813 10.0966 29.3585 9.87379 29.0836 9.87379C28.8087 9.87379 28.5858 10.0966 28.5858 10.3715V12.4649H25.7953L25.7953 8.38737Z" fill="#134A85" stroke="#134A85" stroke-width="0.3"/>
<path d="M38.8144 34.309L38.9205 34.4151C38.3309 35.0046 37.644 35.4677 36.8792 35.7912C36.0871 36.1263 35.2457 36.2961 34.3792 36.2961C33.5127 36.2961 32.6714 36.1263 31.8792 35.7912C31.1144 35.4677 30.4275 35.0046 29.838 34.4151C29.2484 33.8256 28.7853 33.1387 28.4618 32.3738C28.1268 31.5817 27.9569 30.7404 27.9569 29.8738C27.9569 29.0073 28.1268 28.166 28.4618 27.3738L28.4618 27.3738L38.8144 34.309ZM38.8144 34.309L38.9205 34.4151C39.51 33.8256 39.9731 33.1387 40.2966 32.3738C40.6317 31.5817 40.8015 30.7404 40.8015 29.8738C40.8015 29.0073 40.6317 28.166 40.2966 27.3738C39.9731 26.609 39.51 25.9221 38.9205 25.3326C38.3309 24.7431 37.644 24.2799 36.8792 23.9565C36.0871 23.6214 35.2457 23.4516 34.3792 23.4516C33.5127 23.4516 32.6714 23.6214 31.8792 23.9565L31.8792 23.9565M38.8144 34.309L31.8792 23.9565M31.8792 23.9565C31.1144 24.2799 30.4275 24.7431 29.838 25.3326L31.8792 23.9565ZM34.3792 24.447C37.3714 24.447 39.806 26.8816 39.806 29.8738C39.806 32.8661 37.3714 35.3006 34.3792 35.3006C31.387 35.3006 28.9524 32.8661 28.9524 29.8738C28.9524 26.8816 31.387 24.447 34.3792 24.447Z" fill="#134A85" stroke="#134A85" stroke-width="0.3"/>
</svg>
