<svg width="51" height="51" viewBox="0 0 51 51" fill="none" xmlns="http://www.w3.org/2000/svg">
<g clip-path="url(#clip0_71_8811)">
<path d="M50.9999 29.9644C50.9999 30.3449 50.6912 30.6536 50.3107 30.6536H44.1285L44.576 31.0166C44.8717 31.2562 44.917 31.6906 44.6774 31.9858C44.541 32.154 44.3422 32.2411 44.1417 32.2411C43.9891 32.2411 43.8357 32.1909 43.7083 32.0872L41.7507 30.4997C41.5891 30.3687 41.4954 30.1722 41.4954 29.9644C41.4954 29.7566 41.5891 29.5597 41.7507 29.4291L43.7083 27.8421C44.0027 27.6021 44.4379 27.647 44.6775 27.9435C44.9171 28.2392 44.8718 28.6731 44.5761 28.9127L44.129 29.2753H50.3108C50.6912 29.2752 50.9999 29.5839 50.9999 29.9644ZM50.3107 24.345H44.1289L44.576 23.9824C44.8717 23.7428 44.917 23.3089 44.6774 23.0132C44.4379 22.7166 44.0026 22.6717 43.7082 22.9118L41.7506 24.4988C41.589 24.6293 41.4953 24.8263 41.4953 25.0341C41.4953 25.2418 41.589 25.4384 41.7506 25.5694L43.7082 27.1568C43.8356 27.2605 43.9891 27.3107 44.1416 27.3107C44.3422 27.3107 44.5409 27.2237 44.6773 27.0554C44.9169 26.7602 44.8716 26.3259 44.5759 26.0862L44.1284 25.7233H50.3106C50.6911 25.7233 50.9998 25.4146 50.9998 25.0341C50.9998 24.6535 50.6912 24.345 50.3107 24.345ZM41.4953 20.1044C41.4953 20.3122 41.589 20.5087 41.7506 20.6397L43.7082 22.2267C43.8356 22.3304 43.9891 22.3806 44.1416 22.3806C44.3422 22.3806 44.5414 22.2935 44.6773 22.1253C44.9169 21.8296 44.8716 21.3957 44.5759 21.1561L44.1288 20.7935H50.3106C50.6911 20.7935 50.9998 20.4848 50.9998 20.1043C50.9998 19.7238 50.6911 19.4151 50.3106 19.4151H44.1289L44.576 19.0525C44.8717 18.813 44.917 18.3791 44.6774 18.0833C44.4379 17.7872 44.0026 17.7419 43.7082 17.9819L41.7506 19.5689C41.5891 19.7002 41.4953 19.8967 41.4953 20.1044ZM41.6995 31.5415C41.9768 31.8022 41.9903 32.2383 41.7296 32.5156C41.0723 33.2147 40.3279 33.8227 39.5144 34.3261C36.1011 40.5863 29.5785 44.467 22.4444 44.467C17.936 44.467 13.5428 42.888 10.0735 40.0209C9.76702 39.7678 9.46958 39.5002 9.17773 39.2274C7.80491 40.5863 6.65741 42.488 5.7172 44.9542C5.61261 45.2293 5.35063 45.398 5.07332 45.398C4.99164 45.398 4.90867 45.3837 4.82789 45.3527C4.47208 45.2172 4.29398 44.8188 4.42945 44.4634C6.2532 39.6794 8.95639 36.7413 12.4744 35.7002C11.0423 34.3607 9.88007 32.7376 9.07682 30.9206C7.6788 33.8465 5.00509 36.7482 1.09214 39.5682C0.970114 39.6561 0.829166 39.6983 0.689614 39.6983C0.475553 39.6983 0.26468 39.599 0.130108 39.412C-0.0924196 39.1033 -0.0224939 38.6726 0.286295 38.4499C2.29173 37.0045 3.94764 35.5477 5.25441 34.0879C5.15998 33.9086 5.06047 33.73 4.97331 33.5511C3.67162 30.8863 3.01161 28.0204 3.01161 25.034C3.01161 14.3188 11.7292 5.60156 22.4444 5.60156C29.5781 5.60156 36.1012 9.48224 39.5144 15.7424C40.327 16.2454 41.0714 16.8538 41.7291 17.5524C41.9903 17.8297 41.9767 18.2658 41.6999 18.5265C41.4226 18.7881 40.9869 18.775 40.7258 18.4973C40.1115 17.8449 39.4112 17.2827 38.6444 16.8263C38.5362 16.7622 38.4474 16.6693 38.3882 16.558C35.241 10.6501 29.1317 6.97976 22.4444 6.97976C12.4893 6.97976 4.39 15.0786 4.39 25.0338C4.39 27.8069 5.0022 30.4672 6.20927 32.9408C7.22598 31.6164 7.94954 30.2915 8.37776 28.9722C8.02624 27.7183 7.8342 26.3984 7.8342 25.0339C7.8342 16.9776 14.3882 10.4236 22.4445 10.4236C28.0427 10.4236 33.1388 13.6393 35.578 18.649C37.5716 18.6927 39.0694 21.4206 39.0694 25.0339C39.0694 28.6471 37.5716 31.3754 35.578 31.4192C33.1387 36.4289 28.0426 39.6447 22.4445 39.6447C19.2115 39.6447 16.2217 38.5873 13.799 36.8026C12.4858 37.0373 11.2972 37.5405 10.2297 38.3263C10.4656 38.5431 10.7056 38.7552 10.9513 38.9581C14.1742 41.6215 18.2559 43.0883 22.4445 43.0883C29.1318 43.0883 35.2411 39.418 38.3883 33.5096C38.4475 33.3984 38.5364 33.3054 38.6445 33.2413C39.4122 32.785 40.1121 32.2232 40.7255 31.5712C40.9865 31.2934 41.4231 31.2809 41.6995 31.5415ZM35.53 20.0237C34.5101 20.0237 33.3696 22.1667 33.3696 25.0343C33.3696 27.9023 34.5101 30.0452 35.53 30.0452C36.5499 30.0452 37.6909 27.9022 37.6909 25.0343C37.6908 22.1666 36.5498 20.0237 35.53 20.0237ZM31.9912 25.0342C31.9912 23.3255 32.329 21.8191 32.8928 20.6957L16.5136 25.0347L32.893 29.3732C32.3291 28.2497 31.9912 26.7432 31.9912 25.0342ZM22.4443 38.2666C27.3936 38.2666 31.9125 35.4934 34.1807 31.1403L13.6459 25.7009C13.3435 25.6207 13.133 25.3473 13.133 25.0347C13.133 24.7219 13.3435 24.4487 13.6459 24.3684L34.1807 18.9286C31.9126 14.5755 27.3936 11.8023 22.4443 11.8023C15.1481 11.8023 9.21239 17.7381 9.21239 25.0343C9.21239 32.3304 15.1481 38.2666 22.4443 38.2666Z" fill="#134A85"/>
</g>
<defs>
<clipPath id="clip0_71_8811">
<rect width="51" height="51" fill="white"/>
</clipPath>
</defs>
</svg>
