<svg width="51" height="51" viewBox="0 0 51 51" fill="none" xmlns="http://www.w3.org/2000/svg">
<path d="M3.18711 47.0156C3.44469 47.0156 3.6976 46.8911 3.85091 46.6608C7.75523 40.7184 9.9087 37.0019 12.3082 31.7761C15.8032 23.6641 15.8069 19.5455 14.1652 19.9491C13.7418 20.0472 13.4764 20.4736 13.5683 20.8993C13.5764 20.9377 14.0259 23.4177 11.4925 29.6258C10.7536 27.8176 10.3598 25.8716 10.3598 23.9062C10.6197 7.16322 33.4404 2.94937 39.6267 18.4796C37.4769 19.1022 35.8598 21.6528 35.8598 24.7031C35.8598 27.4491 37.1752 29.7732 39.0042 30.6687C36.4419 35.7718 31.2513 39.0469 25.5004 39.0469C22.6179 39.0469 19.8664 38.2057 17.4575 36.6779C19.9693 33.3084 22.7724 30.9357 22.8234 30.8929C23.621 30.2209 22.6046 29.0064 21.8024 29.6696C21.4008 30.0042 11.9535 37.9714 11.9535 46.2188C11.9629 47.2495 13.538 47.2713 13.5473 46.2187C13.5473 44.3838 14.1017 42.5351 14.9338 40.7862C18.0946 42.7707 21.7242 43.8281 25.5004 43.8281C32.4544 43.8281 38.9227 40.1644 42.5274 34.2236C42.7001 34.2516 42.8682 34.2656 43.0316 34.2656C50.2642 34.0842 50.4055 15.9353 43.3772 15.1577C42.7702 13.922 42.0418 12.7562 41.2044 11.6862C40.9336 11.3368 40.4309 11.2792 40.0869 11.5485C39.7399 11.8193 39.6776 12.3204 39.95 12.6667C40.8138 13.7726 41.5531 14.9904 42.1492 16.2861C42.2783 16.5686 42.5616 16.7499 42.8729 16.7499C45.2047 16.5925 46.9841 20.3262 47.0161 24.703C47.016 29.0221 45.1919 32.6719 43.0316 32.6719C42.5208 32.64 41.7747 32.2655 41.4457 32.9179C38.1928 38.664 32.0824 42.2344 25.5004 42.2344C21.9837 42.2344 18.6058 41.2377 15.6742 39.3682C15.9417 38.902 16.2264 38.4481 16.5202 38.0049C24.6431 43.4743 36.6181 40 40.6113 31.0738C46.6183 30.9314 47.0527 19.5552 41.2955 18.4164C34.8749 0.749891 9.08332 5.10887 8.76601 23.9064C8.76601 26.5752 9.42962 29.2083 10.6516 31.5705C10.3931 32.1403 10.1003 32.7484 9.79527 33.3709C8.07633 30.5204 7.17226 27.2757 7.17226 23.9062C7.17226 13.7998 15.3939 5.57812 25.5004 5.57812C29.0505 5.57812 32.4933 6.60223 35.4551 8.53995C35.8208 8.77963 36.3158 8.67847 36.557 8.3096C36.7983 7.94073 36.6955 7.44736 36.3267 7.20612C33.1065 5.09875 29.3618 3.98438 25.5004 3.98438C14.5153 3.98438 5.57851 12.9212 5.57851 23.9062C5.57851 27.8958 6.75514 31.7205 8.96484 35.0107C7.39492 38.0296 5.32443 41.5773 2.52486 45.7767C2.16728 46.2799 2.57058 47.0349 3.18711 47.0156ZM43.8285 24.7032C43.635 31.0192 37.6465 31.0183 37.4535 24.7031C37.647 18.3871 43.6355 18.3879 43.8285 24.7032Z" fill="#134A85"/>
<path d="M8.80692 42.7791C8.48971 43.7527 9.97101 44.284 10.3182 43.2833C10.3753 43.1141 15.5897 27.8651 26.7851 22.7362C28.3825 24.3694 29.7165 27.15 27.9483 31.5793C27.7316 32.0895 28.1393 32.6817 28.6876 32.6719C29.8288 32.5728 29.9276 30.2878 30.1921 29.534C30.3312 29.5728 33.3828 31.2158 33.4688 31.0781C34.2712 31.105 34.5775 29.9146 33.8251 29.5684C33.8252 29.5684 30.6377 27.9747 30.6377 27.9747C30.5506 27.9313 30.4587 27.9117 30.3673 27.9019C30.4357 25.2609 29.4238 23.356 28.372 22.1044C29.0477 21.866 29.7384 21.656 30.4541 21.4969C30.8836 21.4012 31.1544 20.9755 31.0595 20.546C30.9646 20.118 30.5459 19.8487 30.1085 19.9405C27.7148 20.4795 25.4877 21.4487 23.4427 22.7345C23.5739 20.8196 23.5137 18.5047 22.856 16.5141C22.8761 16.5111 24.4523 14.9196 24.4697 14.9071C25.2121 14.1934 24.0625 13.0337 23.3429 13.7803L22.1718 14.9514C21.7547 14.2908 21.0251 13.019 20.1554 13.7803C19.8441 14.0916 19.8441 14.5959 20.1554 14.9071C22.2941 17.0458 21.9622 21.9789 21.7386 23.9046C12.9995 30.4925 9.01538 42.1537 8.80692 42.7791Z" fill="#134A85"/>
<path d="M37.6167 9.8206C37.6212 10.8626 39.206 10.8626 39.2104 9.8206C39.2059 8.7785 37.6211 8.7786 37.6167 9.8206Z" fill="#134A85"/>
</svg>
