<svg width="51" height="51" viewBox="0 0 51 51" fill="none" xmlns="http://www.w3.org/2000/svg">
<g clip-path="url(#clip0_71_8861)">
<path d="M43.3495 29.2745C43.6712 27.5983 43.8342 25.8851 43.8342 24.1712V20.6909C43.8342 20.1409 43.3882 19.6948 42.8381 19.6948C42.2881 19.6948 41.842 20.1409 41.842 20.6909V24.1712C41.842 25.6961 41.7011 27.2197 41.4262 28.7131C40.7217 28.5745 39.9942 28.5011 39.2497 28.5011C38.6065 28.5011 37.976 28.5562 37.3621 28.6604C38.0953 27.7811 38.7721 26.8327 39.3831 25.8189C39.5736 25.5026 39.5736 25.107 39.3831 24.7907C35.534 18.4037 29.0938 14.5906 22.1556 14.5906C15.2174 14.5906 8.7772 18.4035 4.9282 24.7905C4.73764 25.1068 4.73764 25.5024 4.9282 25.8187C8.7773 32.2057 15.2174 36.0187 22.1556 36.0187C24.6059 36.0187 26.9934 35.5411 29.2272 34.6445C28.443 36.1777 28.0001 37.9134 28.0001 39.7505C28.0001 41.9051 28.6095 43.9198 29.6642 45.6324C27.3441 47.0197 24.8281 48.0152 22.1681 48.5945C16.6475 47.3908 11.6545 44.3206 8.0899 39.933C4.48135 35.4914 2.49404 29.8937 2.49404 24.1711V7.99231C9.47297 7.81829 16.242 5.81644 22.168 2.17133C28.094 5.81644 34.863 7.81819 41.8419 7.99231V11.7259C41.8419 12.2759 42.288 12.722 42.838 12.722C43.3881 12.722 43.8341 12.2759 43.8341 11.7259V7.00867C43.8341 6.45862 43.3881 6.01257 42.838 6.01257C35.6765 6.01257 28.7141 3.98741 22.7034 0.156138C22.3768 -0.0520459 21.9592 -0.0520459 21.6326 0.156138C15.6221 3.98741 8.65966 6.01257 1.49805 6.01257C0.948004 6.01257 0.501953 6.45862 0.501953 7.00867V24.1711C0.501953 30.3498 2.64764 36.3936 6.54376 41.1893C10.4398 45.9849 15.9162 49.3227 21.9641 50.5881C22.0314 50.6022 22.0997 50.6092 22.1681 50.6092C22.2365 50.6092 22.3049 50.6022 22.3721 50.5881C25.3921 49.9561 28.2437 48.8292 30.8611 47.2372C32.9226 49.5448 35.9193 51 39.2497 51C45.4527 51 50.4993 45.9535 50.4993 39.7505C50.4993 34.9934 47.531 30.9167 43.3495 29.2745ZM37.3568 25.3046C35.5959 28.0476 33.3008 30.2314 30.6884 31.7279C32.0386 29.9387 32.8403 27.7137 32.8403 25.3046C32.8403 22.8955 32.0386 20.6704 30.6884 18.8812C33.3009 20.3778 35.596 22.5617 37.3568 25.3046ZM17.4152 18.5981C18.4993 18.5981 19.3812 19.4801 19.3812 20.5641C19.3812 21.6482 18.4993 22.5301 17.4152 22.5301C16.3311 22.5301 15.4491 21.6482 15.4491 20.5641C15.4491 19.4801 16.3311 18.5981 17.4152 18.5981ZM21.2842 21.3985C21.5684 21.3355 21.86 21.3034 22.1556 21.3034C24.3619 21.3034 26.1568 23.0984 26.1568 25.3046C26.1568 27.5108 24.3619 29.3057 22.1556 29.3057C19.9495 29.3057 18.1545 27.5108 18.1545 25.3046C18.1545 25.009 18.1864 24.7173 18.2495 24.433C19.7635 24.1069 20.9579 22.9125 21.2842 21.3985ZM6.95445 25.3046C8.71534 22.5617 11.0104 20.3778 13.6229 18.8812C12.2727 20.6703 11.4709 22.8955 11.4709 25.3046C11.4709 27.7137 12.2727 29.9387 13.6229 31.7279C11.0103 30.2314 8.71524 28.0476 6.95445 25.3046ZM22.1556 33.9971C17.3625 33.9971 13.463 30.0977 13.463 25.3046C13.463 24.3087 13.6319 23.3518 13.9415 22.4601C14.4304 23.3523 15.2528 24.0368 16.2401 24.3443C16.1892 24.6601 16.1623 24.9808 16.1623 25.3046C16.1623 28.6094 18.8509 31.2979 22.1556 31.2979C25.4605 31.2979 28.149 28.6094 28.149 25.3046C28.149 21.9998 25.4605 19.3112 22.1556 19.3112C21.8318 19.3112 21.5113 19.3382 21.1954 19.3891C20.8879 18.4019 20.2033 17.5794 19.3111 17.0905C20.2028 16.7808 21.1598 16.612 22.1556 16.612C26.9487 16.612 30.8482 20.5114 30.8482 25.3046C30.8482 30.0976 26.9487 33.9971 22.1556 33.9971ZM39.2497 49.0079C34.1452 49.0079 29.9923 44.855 29.9923 39.7505C29.9923 34.6459 34.1451 30.4931 39.2497 30.4931C44.3543 30.4931 48.5071 34.6459 48.5071 39.7505C48.5071 44.855 44.3542 49.0079 39.2497 49.0079Z" fill="#134A85"/>
<path d="M40.0546 36.2645L38.1392 38.1799C36.9738 37.0179 35.0803 37.0188 33.9162 38.1831C32.7512 39.3481 32.7512 41.2439 33.9162 42.4092L36.0261 44.5191C36.5905 45.0835 37.3409 45.3943 38.1392 45.3943C38.9375 45.3943 39.6879 45.0835 40.2523 44.5191L44.2807 40.4906C45.4457 39.3256 45.4457 37.4297 44.2807 36.2645C43.1157 35.0993 41.2198 35.0993 40.0546 36.2645ZM42.8721 39.082L38.8437 43.1104C38.6555 43.2986 38.4055 43.4022 38.1393 43.4022C37.8732 43.4022 37.623 43.2986 37.435 43.1104L35.3251 41.0006C34.9368 40.6122 34.9368 39.9801 35.3251 39.5917C35.5132 39.4036 35.7633 39.3 36.0294 39.3C36.2954 39.3 36.5457 39.4036 36.7337 39.5916L37.4349 40.2929C37.6216 40.4797 37.8751 40.5847 38.1392 40.5847C38.4034 40.5847 38.6568 40.4797 38.8436 40.293L41.4633 37.6732C41.8515 37.2848 42.4836 37.2847 42.8721 37.6731C43.2604 38.0615 43.2604 38.6936 42.8721 39.082Z" fill="#134A85"/>
<path d="M42.8384 17.2031C43.3885 17.2031 43.8345 16.7572 43.8345 16.207C43.8345 15.6569 43.3885 15.2109 42.8384 15.2109C42.2883 15.2109 41.8423 15.6569 41.8423 16.207C41.8423 16.7572 42.2883 17.2031 42.8384 17.2031Z" fill="#134A85"/>
</g>
<defs>
<clipPath id="clip0_71_8861">
<rect width="51" height="51" fill="white"/>
</clipPath>
</defs>
</svg>
