<svg width="39" height="51" viewBox="0 0 39 51" fill="none" xmlns="http://www.w3.org/2000/svg">
<path d="M33.4395 32.504C32.9989 32.5096 32.5607 32.5692 32.1347 32.6817C30.6818 33.1701 29.0855 32.573 28.3097 31.2511C28.3057 31.2412 28.3012 31.2316 28.2961 31.2222C27.9599 30.5862 27.4912 30.0297 26.9217 29.5902C27.0224 29.2529 27.0773 28.9035 27.0849 28.5515C27.0858 27.7425 26.9015 26.9441 26.546 26.2174C27.4537 25.7128 28.426 25.3342 29.436 25.092C29.4598 25.0844 29.5142 25.1014 29.606 25.1668C30.8066 25.985 32.3306 26.1671 33.6902 25.6547C34.9549 25.1796 35.9291 24.1468 36.3295 22.8565C36.7078 21.5528 36.4488 20.1471 35.6308 19.0638C34.794 17.9724 33.4972 17.3322 32.122 17.3315C31.7196 17.3221 31.3182 17.3748 30.932 17.4879C29.6652 17.9028 28.2777 17.4146 27.5498 16.2979C27.5388 16.2724 27.526 16.2469 27.5133 16.2214C27.1871 15.6233 26.7318 15.1053 26.1805 14.705C26.3011 14.353 26.3642 13.9839 26.3675 13.6119C26.3676 12.8755 26.2096 12.1476 25.9042 11.4776C26.6751 11.039 27.5013 10.7057 28.3607 10.4865C28.4101 10.4856 28.4583 10.5022 28.4967 10.5332C29.5845 11.2897 30.9739 11.465 32.2155 11.0024C33.398 10.5647 34.2996 9.58735 34.6405 8.37335C34.9966 7.13585 34.7487 5.80291 33.9716 4.77615C33.2198 3.77453 32.0399 3.18583 30.7875 3.1875C30.4146 3.18975 30.0435 3.238 29.6825 3.33115C28.5725 3.71686 27.3454 3.25491 26.7653 2.23295C26.666 2.04103 26.5808 1.84218 26.5103 1.63795C26.1938 0.673194 25.3002 0.0154232 24.285 0H14.714C13.7034 0.0132649 12.8123 0.665768 12.4946 1.6252C12.42 1.83844 12.3297 2.04584 12.2243 2.2457C11.6334 3.26819 10.3959 3.72184 9.28417 3.3235C7.70273 2.90148 6.02278 3.47343 5.02737 4.77275C4.24925 5.80205 4.00198 7.13798 4.36012 8.3776C4.70182 9.58707 5.60074 10.5605 6.77922 10.9973C8.01623 11.4617 9.40224 11.2909 10.4895 10.54C10.549 10.5009 10.6068 10.4797 10.5881 10.4746C11.4665 10.6875 12.3067 11.0353 13.0786 11.5056C12.7831 12.1681 12.6307 12.8856 12.6315 13.6111C12.6347 13.9834 12.6979 14.3527 12.8185 14.705C12.2661 15.1051 11.8104 15.6238 11.4848 16.2231C11.4721 16.2486 11.4593 16.2741 11.4483 16.2996C10.7335 17.408 9.3651 17.9007 8.10777 17.5023C7.70888 17.3818 7.2936 17.3245 6.87697 17.3324C5.50081 17.3323 4.20296 17.9725 3.36562 19.0647C2.54421 20.1554 2.28759 21.5706 2.67372 22.8803C3.07841 24.1609 4.0504 25.1837 5.30872 25.653C6.68445 26.1698 8.22615 25.9793 9.43462 25.143C9.4727 25.1076 9.52387 25.0897 9.57572 25.0937C10.5834 25.3312 11.5502 25.7171 12.4445 26.2386C12.098 26.9604 11.9188 27.7509 11.92 28.5515C11.9278 28.9035 11.9829 29.2529 12.0841 29.5902C11.515 30.0294 11.0469 30.5856 10.7113 31.2213L10.7011 31.2392C9.9216 32.5811 8.30064 33.1826 6.83447 32.674C6.4179 32.566 5.98978 32.509 5.55947 32.504C3.27344 32.4916 1.30603 34.1167 0.886445 36.3639C0.466864 38.6111 1.71533 40.8367 3.85182 41.65C5.3241 42.1862 6.96409 41.9852 8.26332 41.1094C8.34509 41.0396 8.45238 41.0072 8.55912 41.0201C9.71077 41.2957 10.8151 41.7409 11.8359 42.341C11.4302 43.158 11.2198 44.058 11.2213 44.9701C11.2213 48.705 16.0434 51 19.4995 51C22.9556 51 27.7776 48.705 27.7776 44.9735C27.7778 44.06 27.5688 43.1586 27.1665 42.3385C28.1965 41.7393 29.3088 41.2943 30.4679 41.0176C30.5606 41.0182 30.6504 41.0499 30.7229 41.1077C32.0292 41.9899 33.6795 42.1916 35.1599 41.65C37.2946 40.8326 38.5392 38.6055 38.1166 36.359C37.694 34.1126 35.7253 32.4899 33.4395 32.504ZM36.3711 38.1191C36.1041 39.0023 35.446 39.7138 34.5861 40.0486C33.6223 40.4147 32.5405 40.2878 31.6876 39.7086C31.2162 39.36 30.6156 39.2357 30.0446 39.3686C28.7339 39.6833 27.4762 40.1879 26.3114 40.8663C25.5373 41.3186 25.2439 42.2919 25.639 43.0967C25.9278 43.6798 26.0777 44.3219 26.0768 44.9727C26.0785 47.3697 22.4804 49.3 19.4995 49.3C16.5185 49.3 12.9205 47.3697 12.9205 44.9735C12.9197 44.3227 13.0699 43.6806 13.3591 43.0975C13.7548 42.2924 13.4605 41.3183 12.685 40.8671C11.5295 40.1925 10.2815 39.6905 8.98072 39.3771C8.39798 39.233 7.78135 39.3561 7.29857 39.7129C6.45287 40.285 5.38233 40.4117 4.42642 40.0528C2.91682 39.4566 2.14317 37.7784 2.67014 36.2432C3.1971 34.708 4.8383 33.8588 6.39587 34.3153C8.62723 35.0365 11.0573 34.0814 12.2005 32.034V32.0297L12.2073 32.0161C12.3861 31.6825 12.6203 31.3819 12.9001 31.127C13.1865 31.4819 13.5124 31.803 13.8716 32.0841C14.2411 32.3737 14.7754 32.3091 15.065 31.9396C15.3547 31.5702 15.29 31.0358 14.9205 30.7462C14.4874 30.4211 14.1279 30.008 13.8657 29.5341C13.852 29.5071 13.8367 29.481 13.8198 29.4559C13.7951 29.4032 13.773 29.3531 13.7552 29.3037C13.6674 29.0621 13.6198 28.8077 13.6141 28.5507C13.6133 28.002 13.7368 27.4603 13.9753 26.9663C14.3657 26.1543 14.0622 25.1787 13.28 24.7316C12.2432 24.1546 11.1329 23.7212 9.97947 23.443C9.44783 23.3152 8.8869 23.4311 8.44947 23.7592C7.69473 24.2687 6.73902 24.3785 5.88842 24.0533C5.13455 23.7735 4.55082 23.1631 4.30487 22.3975C4.06676 21.6066 4.22125 20.7495 4.72052 20.0914C5.23216 19.4181 6.03129 19.0253 6.87697 19.0315C7.13021 19.025 7.38291 19.0582 7.62582 19.1301C9.67349 19.7627 11.8873 18.9031 12.9715 17.0544C12.9851 17.0306 12.997 17.0059 13.0072 16.9804C13.1802 16.679 13.4063 16.4112 13.6744 16.19C13.9222 16.4763 14.195 16.74 14.4896 16.9779C14.8529 17.2755 15.3887 17.2222 15.6864 16.8589C15.984 16.4956 15.9307 15.9597 15.5674 15.6621C15.2114 15.3889 14.9066 15.0548 14.6672 14.6753C14.6555 14.6499 14.6425 14.6252 14.6281 14.6013C14.4406 14.3063 14.339 13.9648 14.3349 13.6153C14.3346 13.1264 14.4378 12.6429 14.6375 12.1967C14.9954 11.3945 14.6953 10.4514 13.9396 10.0037C13.0039 9.47365 11.9997 9.07495 10.9553 8.81875C10.455 8.73353 9.94132 8.85131 9.52812 9.146C8.8954 9.58745 8.08464 9.68557 7.36487 9.4078C6.69923 9.1586 6.19221 8.60707 5.99977 7.92285C5.78776 7.19714 5.92978 6.41396 6.38312 5.8089C6.81351 5.23103 7.49095 4.88964 8.21147 4.8875C8.42453 4.88918 8.63669 4.91513 8.84387 4.96485C10.724 5.58461 12.7786 4.77378 13.7288 3.03705C13.8731 2.76335 13.9967 2.47922 14.0986 2.18705C14.1774 1.90909 14.4253 1.71285 14.714 1.7H24.285C24.5779 1.71443 24.828 1.91643 24.9038 2.1998C25.0035 2.48297 25.1237 2.75853 25.2633 3.0243C26.2037 4.75893 28.2464 5.57757 30.1245 4.9725C31.0469 4.71385 32.034 5.0423 32.6175 5.8021C33.0692 6.40357 33.2127 7.18203 33.0051 7.905C32.8128 8.59365 32.303 9.14894 31.6332 9.3993C30.9095 9.67625 30.0954 9.57424 29.4623 9.1273C29.0355 8.83316 28.5082 8.72346 27.9995 8.823C26.9695 9.08074 25.9795 9.47766 25.0568 10.0028C24.3053 10.4538 24.0102 11.3958 24.37 12.195C24.5688 12.6396 24.6714 13.1214 24.6709 13.6085C24.6667 13.958 24.5652 14.2995 24.3776 14.5945C24.3632 14.62 24.3487 14.6464 24.336 14.6736L24.3275 14.6863C24.0916 15.064 23.7889 15.3955 23.4341 15.6647C23.0708 15.9623 23.0175 16.4981 23.3151 16.8615C23.6128 17.2248 24.1486 17.2781 24.5119 16.9804C24.8065 16.7426 25.0796 16.4792 25.3279 16.1934C25.5951 16.415 25.8208 16.6824 25.9943 16.983C26.0045 17.0084 26.0164 17.0332 26.03 17.0569C27.1258 18.9158 29.3601 19.7717 31.4173 19.1208C31.6474 19.0567 31.8858 19.028 32.1245 19.0358C32.9705 19.0293 33.77 19.4221 34.2818 20.0957C34.7787 20.7458 34.9365 21.5935 34.7068 22.3788C34.4594 23.1562 33.8659 23.7752 33.0995 24.055C32.2646 24.3752 31.3264 24.273 30.5801 23.7805C30.1385 23.4375 29.5655 23.3126 29.0212 23.4405C27.8664 23.7206 26.755 24.1561 25.7172 24.735C24.9332 25.1835 24.6298 26.1623 25.0228 26.9756C25.2598 27.4686 25.3824 28.0087 25.3815 28.5558C25.3761 28.8095 25.3296 29.0607 25.2438 29.2995C25.2234 29.3548 25.2013 29.4075 25.1766 29.4602C25.1564 29.4897 25.1382 29.5207 25.1222 29.5528C24.8658 30.0272 24.5083 30.4396 24.075 30.7607C23.7205 31.0546 23.6645 31.5773 23.9488 31.9397C24.233 32.302 24.7541 32.3721 25.1239 32.0977C25.4852 31.8154 25.8132 31.4929 26.1014 31.1364C26.3756 31.3877 26.6054 31.6834 26.7814 32.011C26.7857 32.0204 26.7908 32.0297 26.7959 32.0391C27.9321 34.0805 30.3502 35.0378 32.5759 34.3273C32.8583 34.2536 33.1485 34.2137 33.4403 34.2083C34.4059 34.2023 35.3171 34.6541 35.8968 35.4263C36.4777 36.1959 36.6541 37.1974 36.3711 38.1191Z" fill="#134A85"/>
<path d="M22.0491 3.40002C21.5797 3.40002 21.1991 3.78058 21.1991 4.25002C21.2894 7.15466 20.7076 10.0409 19.4991 12.6837C18.2906 10.0409 17.7088 7.15466 17.7991 4.25002C17.7991 3.78058 17.4186 3.40002 16.9491 3.40002C16.4797 3.40002 16.0991 3.78058 16.0991 4.25002C16.0034 7.87462 16.8489 11.4621 18.5531 14.6625C16.8491 17.863 16.0036 21.4505 16.0991 25.075C16.0038 28.6996 16.8493 32.287 18.5531 35.4875C16.8495 38.6882 16.004 42.2755 16.0991 45.9C16.0991 46.3695 16.4797 46.75 16.9491 46.75C17.4186 46.75 17.7991 46.3695 17.7991 45.9C17.7088 42.9954 18.2906 40.1091 19.4991 37.4663C20.7076 40.1091 21.2894 42.9954 21.1991 45.9C21.1991 46.3695 21.5797 46.75 22.0491 46.75C22.5186 46.75 22.8991 46.3695 22.8991 45.9C22.9946 42.2755 22.1491 38.688 20.4452 35.4875C22.1494 32.2871 22.9948 28.6996 22.8991 25.075C22.9942 21.4505 22.1487 17.8632 20.4452 14.6625C22.149 11.462 22.9944 7.87457 22.8991 4.25002C22.8991 3.78058 22.5186 3.40002 22.0491 3.40002ZM19.4991 33.5087C18.2906 30.8659 17.7088 27.9797 17.7991 25.075C17.7088 22.1704 18.2906 19.2842 19.4991 16.6413C20.7076 19.2842 21.2894 22.1704 21.1991 25.075C21.2894 27.9797 20.7076 30.8659 19.4991 33.5087Z" fill="#134A85"/>
</svg>
