<svg width="51" height="51" viewBox="0 0 51 51" fill="none" xmlns="http://www.w3.org/2000/svg">
<path d="M22.1332 21.1605C21.9588 20.8172 21.8694 20.4498 21.868 20.0697L21.8623 15.2097C23.0922 13.7301 23.7688 11.8917 23.7688 10.0149C23.7688 5.31945 19.6579 1.49927 14.605 1.49927C12.5183 1.49927 10.4756 2.16883 8.85424 3.38454C7.25837 4.5818 6.12779 6.25854 5.67244 8.10835V8.10976C5.67102 8.11544 5.6696 8.11969 5.6696 8.12537C5.51924 8.73819 5.44264 10.0518 5.44405 10.0702L5.20716 14.6933C5.16886 15.4466 5.40434 16.2012 5.87246 16.8183L7.60734 19.1093C8.3081 20.0342 9.42308 20.5576 10.5976 20.5576C10.8856 20.5576 11.1792 20.5264 11.4686 20.4612L14.049 19.8838V23.948C14.049 24.5367 13.8617 25.1084 13.5057 25.5992C12.5949 26.8603 10.9012 29.4151 9.79615 32.3516C8.2315 36.5037 9.28548 47.6891 9.33087 48.1628C9.38194 48.6934 10.2558 48.6395 10.2033 48.0905C10.1919 47.9756 9.12093 36.6058 10.6232 32.6197C11.697 29.7684 13.3468 27.2802 14.2334 26.0517C14.6859 25.4247 14.9242 24.697 14.9242 23.9466V19.6852L17.3882 19.1334C17.6237 19.0809 17.7684 18.861 17.7116 18.6426C17.6549 18.4241 17.418 18.2894 17.1839 18.3419L11.2643 19.6682C10.1423 19.9193 8.98758 19.515 8.3237 18.6383L6.58882 16.3474C6.23277 15.8778 6.05403 15.3033 6.0824 14.7302L6.31788 10.117C6.3193 10.1028 6.38881 8.84742 6.52641 8.28992C6.52782 8.28425 6.52924 8.27857 6.53066 8.27432C7.40307 4.76338 10.7225 2.3121 14.6079 2.3121C19.1784 2.3121 22.8964 5.7663 22.8964 10.0135C22.8964 11.781 22.2708 13.4421 21.0849 14.8167C21.0239 14.8862 20.9885 14.9827 20.9885 15.0721L20.9942 20.0711C20.9942 20.5662 21.1161 21.0641 21.3431 21.5095C21.5091 21.728 21.7034 21.7932 21.9261 21.7024C22.1446 21.606 22.2368 21.3634 22.1332 21.1605Z" fill="#134A85" stroke="#134A85" stroke-width="0.912"/>
<path d="M20.6935 27.666C20.4637 27.6347 20.2282 27.6191 19.9927 27.6191C17.3287 27.6191 15.1611 29.6321 15.1611 32.1075V48.1259C15.1611 48.35 15.3569 48.533 15.5995 48.533C15.8406 48.533 16.0378 48.3514 16.0378 48.1259V32.1075C16.0378 30.0818 17.8124 28.432 19.9927 28.432C20.1856 28.432 20.3785 28.4447 20.5672 28.4703C20.8055 28.5029 21.0282 28.3483 21.0637 28.127C21.0977 27.9043 20.9318 27.6986 20.6935 27.666Z" fill="#134A85" stroke="#134A85" stroke-width="0.912"/>
<path d="M24.3856 39.0913C24.1444 39.0913 23.9473 39.2729 23.9473 39.4984V48.1261C23.9473 48.3503 24.143 48.5333 24.3856 48.5333C24.6267 48.5333 24.8239 48.3517 24.8239 48.1261V39.4984C24.8239 39.2729 24.6282 39.0913 24.3856 39.0913Z" fill="#134A85" stroke="#134A85" stroke-width="0.912"/>
<path d="M45.7997 30.3769C45.7997 24.2984 40.4773 19.3533 33.9335 19.3533C27.3912 19.3533 22.0674 24.2984 22.0674 30.3769C22.0674 36.4555 27.3912 41.4006 33.9335 41.4006C40.4773 41.4006 45.7997 36.4555 45.7997 30.3769ZM22.944 30.3769C22.944 24.7466 27.8749 20.1661 33.9349 20.1661C39.995 20.1661 44.9244 24.7466 44.9244 30.3769C44.9244 36.0072 39.995 40.5877 33.9349 40.5877C27.8749 40.5863 22.944 36.0058 22.944 30.3769Z" fill="#134A85" stroke="#134A85" stroke-width="0.912"/>
<path d="M38.6855 35.9007C39.0586 36.1716 39.5154 36.3149 39.9849 36.3149C40.1254 36.3149 40.2672 36.3022 40.4077 36.2752C41.0134 36.1617 41.534 35.8099 41.8361 35.3092C42.3397 34.4736 42.083 33.3828 41.2418 32.7699L39.0685 31.1882C38.9395 31.0946 38.8586 30.9599 38.8387 30.8095C38.8189 30.6591 38.8643 30.5102 38.965 30.3896L41.5737 27.2985C42.0801 26.6957 41.9652 25.8204 41.3184 25.3466L39.3097 23.8841C38.6614 23.4145 37.7181 23.5195 37.2088 24.121L34.5746 27.2446L27.3031 28.0632C26.5598 28.1468 25.8959 28.4944 25.4349 29.042C24.9725 29.5895 24.7682 30.2719 24.859 30.9613L25.2023 33.5899C25.2916 34.2779 25.6647 34.8921 26.2506 35.3191C26.8364 35.7461 27.567 35.9348 28.3103 35.8525L37.2046 34.8212L38.6855 35.9007ZM28.2025 35.0453C27.6946 35.1021 27.1925 34.973 26.7896 34.6793C26.3868 34.3857 26.1314 33.9644 26.0704 33.492L25.8605 31.8777L29.3586 31.1797L32.1418 32.9941C32.2468 33.0579 32.3574 33.0806 32.4737 33.0607L36.9549 32.2876C37.1932 32.2465 37.3493 32.0337 37.3053 31.8138C37.2613 31.5925 37.0329 31.4478 36.7946 31.4876L32.4936 32.2295L31.8482 31.8082L35.8371 30.3229C35.9165 30.2931 35.9861 30.2421 36.0343 30.1768L38.1366 27.3425C38.2742 27.1581 38.2231 26.9042 38.0245 26.7765C37.8259 26.6488 37.5521 26.6957 37.4159 26.8801L35.3888 29.6151L30.9928 31.2521L29.7047 30.4123C29.6054 30.347 29.4806 30.3243 29.3614 30.347L25.7555 31.0677L25.7285 30.8634C25.6661 30.3882 25.8066 29.9201 26.1243 29.5441C26.4421 29.1682 26.8974 28.9285 27.4095 28.8717L34.8569 28.0334C34.9718 28.0206 35.0853 27.961 35.1562 27.8759L37.8982 24.626C38.1096 24.3763 38.5026 24.3323 38.7707 24.5267L40.7765 25.9878C41.046 26.185 41.0928 26.5481 40.8829 26.7978L38.2742 29.8874C38.0288 30.1782 37.9209 30.54 37.9678 30.906C38.016 31.2734 38.2146 31.5996 38.5267 31.828L40.6999 33.4111C41.2049 33.7785 41.3652 34.424 41.0701 34.9134C40.8914 35.2113 40.5935 35.4113 40.2332 35.4794C39.8743 35.5461 39.5069 35.4666 39.2232 35.2609L37.6046 34.0821C37.5053 34.0083 37.3847 33.9814 37.2684 33.9942L28.2025 35.0453Z" fill="#134A85" stroke="#134A85" stroke-width="0.912"/>
<path d="M23.6122 20.4485L23.9512 21.6742C24.0888 22.1707 24.9513 22.0232 24.7995 21.4727L24.4605 20.2471C24.1966 19.291 24.8208 18.3136 25.8492 18.0682L33.1179 16.3432C33.2313 16.3163 33.3235 16.2539 33.3945 16.1546L35.6627 12.6011C35.8372 12.3287 36.2188 12.2379 36.5139 12.3996L38.7041 13.6054C38.9992 13.77 39.097 14.1246 38.9225 14.397C38.2544 15.4467 36.9139 17.5419 36.9139 17.5419L37.6671 17.9576C37.6671 17.9576 39.0077 15.8609 39.6758 14.8112C40.0943 14.1544 39.8602 13.3004 39.1509 12.9061L36.9579 11.6989C36.2472 11.3102 35.328 11.5286 34.9081 12.1868L32.732 15.5957L25.6308 17.2809C24.1356 17.6355 23.2292 19.0569 23.6122 20.4485Z" fill="#134A85" stroke="#134A85" stroke-width="0.912"/>
<path d="M43.3058 40.7283L42.6902 40.1495C42.6902 40.1495 40.6844 41.988 39.68 42.9072C39.3963 43.1668 39.2403 43.5129 39.2374 43.8832C39.2346 44.252 39.3878 44.5996 39.6673 44.8606L41.6078 46.6848C42.0589 47.1118 42.1284 47.7715 41.7695 48.2197C41.5511 48.4949 41.2291 48.6595 40.8617 48.6836C40.4971 48.7077 40.1425 48.5857 39.89 48.3488L38.4416 46.9842C38.3608 46.9076 38.2487 46.8593 38.1253 46.8593L28.9856 46.8352C28.4735 46.8324 27.994 46.6465 27.6351 46.3089C27.2748 45.9713 27.0791 45.5216 27.0833 45.045C27.0833 45.045 27.1755 42.0022 27.2124 41.788C27.2507 41.5667 27.089 41.3567 26.8507 41.3213C26.6124 41.2844 26.3868 41.4362 26.3485 41.6575C26.3088 41.8816 26.2081 45.0407 26.2081 45.0407C26.2024 45.7358 26.489 46.3898 27.0138 46.882C27.5373 47.3743 28.2366 47.6466 28.9828 47.6495L37.9437 47.6736L39.2672 48.9205C39.6644 49.2922 40.2049 49.4993 40.7695 49.4993C40.8205 49.4993 40.873 49.4979 40.9255 49.4936C41.5412 49.4525 42.1057 49.1631 42.4731 48.702C43.0859 47.936 42.9824 46.8239 42.232 46.1118L40.29 44.2861C40.1751 44.1783 40.1127 44.0364 40.1141 43.8846C40.1155 43.7328 40.1793 43.591 40.2957 43.4846C41.3 42.5668 43.3058 40.7283 43.3058 40.7283Z" fill="#134A85" stroke="#134A85" stroke-width="0.912"/>
</svg>
