<svg width="51" height="51" viewBox="0 0 51 51" fill="none" xmlns="http://www.w3.org/2000/svg">
<path d="M29.6361 14.4196C29.9743 14.3497 30.2466 14.0996 30.3449 13.7687C30.4434 13.4377 30.3519 13.0794 30.1069 12.8362C27.1695 9.91992 26.4957 6.63323 28.0472 2.78844C28.1765 2.46791 28.1191 2.10219 27.8974 1.83688C27.6761 1.57166 27.3269 1.4496 26.988 1.51953L16.8874 3.60754C15.5495 3.8841 14.3564 4.56304 13.4462 5.52857C12.9976 3.91251 11.3761 2.85866 9.68459 3.17488C7.85395 3.51726 6.71649 5.34351 7.08164 7.12495L7.16658 7.53923L3.49198 8.2988C2.98555 8.40342 2.65949 8.89852 2.76346 9.40524L3.70873 14.0152C3.7587 14.2591 3.90364 14.473 4.11148 14.6099C4.31941 14.7468 4.5731 14.7954 4.81685 14.745L12.4297 13.1713C13.3366 14.862 14.9537 16.076 16.8066 16.489V20.0945C15.8401 20.3626 14.9552 20.8473 14.2136 21.5058C13.9072 19.8303 12.3724 18.6625 10.6751 18.8264C8.82491 19.0038 7.52583 20.7185 7.73282 22.5298L7.78082 22.9493L4.05439 23.3787C3.54036 23.438 3.17155 23.9025 3.23024 24.4165L3.76461 29.0925C3.82339 29.6063 4.28791 29.9765 4.80335 29.9174L12.5252 29.0276C13.4382 31.1699 15.4416 32.6842 17.7441 32.9752V36.4791C16.8906 36.6641 16.0863 37.0164 15.3763 37.5147C15.2618 35.8355 13.8656 34.4796 12.1659 34.4473C10.3245 34.4123 8.82144 35.9258 8.82144 37.7904V38.2119H5.07147C4.55379 38.2119 4.13398 38.6318 4.13398 39.1494V43.8561C4.13398 44.3739 4.55379 44.7936 5.07147 44.7936H12.843C13.6563 47.5634 16.1868 49.5001 19.1339 49.5001H29.4464C29.7918 49.5001 30.1092 49.3102 30.2725 49.0058C30.4357 48.7014 30.4184 48.3319 30.2274 48.0441C27.9357 44.5926 27.9357 41.2369 30.2274 37.7852C30.4184 37.4975 30.4358 37.1279 30.2725 36.8235C30.1092 36.5191 29.7917 36.3292 29.4464 36.3292H27.1191V32.0835L29.5537 31.803C29.8967 31.7634 30.1904 31.5385 30.3178 31.2175C30.4452 30.8966 30.3859 30.5316 30.1634 30.2675C27.4949 27.101 27.1141 23.7671 28.9989 20.0757C29.156 19.7679 29.1311 19.3986 28.9342 19.1148C28.7371 18.8309 28.3991 18.6793 28.0567 18.718L26.1818 18.934V15.1337L29.6361 14.4196ZM13.8434 11.7651C13.6777 11.335 13.2254 11.0918 12.779 11.1843L5.35684 12.7186L4.78825 9.94542L8.46285 9.18586C8.96928 9.08114 9.29534 8.58614 9.19137 8.07942L8.91838 6.74826C8.74232 5.89007 9.36069 4.99382 10.2875 4.99382C10.9497 4.99382 11.528 5.46904 11.6622 6.12398L12.0751 8.13745C12.1583 8.54273 12.4972 8.84574 12.9093 8.88286C13.3205 8.92017 13.709 8.6827 13.8634 8.2987C14.4537 6.82945 15.7261 5.7621 17.267 5.44364L25.767 3.68648C24.8469 7.07386 25.4815 10.1663 27.6603 12.9133C26.436 13.1663 19.9592 14.5052 19.156 14.6714C16.8733 15.1434 14.6467 13.8489 13.8434 11.7651ZM27.8144 47.6251H19.1339C16.8364 47.6251 14.893 45.9749 14.513 43.7014C14.4374 43.2495 14.0464 42.9184 13.5883 42.9184H6.00906V40.0868H9.75903C10.2767 40.0868 10.6965 39.667 10.6965 39.1493V37.7903C10.6965 36.9941 11.3413 36.3215 12.1045 36.3215L12.1303 36.3218C12.8904 36.3362 13.509 36.9712 13.509 37.7373V39.7931C13.509 40.2069 13.7802 40.5716 14.1763 40.6909C14.5729 40.8099 15.0001 40.6555 15.2283 40.3104C16.1013 38.9916 17.5613 38.2041 19.1339 38.2041H27.8144C26.232 41.3362 26.232 44.4932 27.8144 47.6251ZM25.2441 36.3292H19.6192V32.9477L25.2441 32.2996V36.3292ZM27.7189 30.1269L19.0939 31.1208C16.786 31.3869 14.6776 29.9099 14.0584 27.7523C13.9419 27.3468 13.5713 27.0734 13.1579 27.0734C13.0557 27.0734 13.534 27.026 5.521 27.9471L5.19944 25.1341L8.92588 24.7047C9.4399 24.6455 9.80871 24.181 9.75003 23.667L9.59572 22.3168C9.50637 21.5348 10.0619 20.7687 10.8541 20.6928C11.6233 20.6193 12.2967 21.1789 12.3836 21.9406L12.6171 23.9829C12.664 24.394 12.9749 24.7257 13.3822 24.7991C13.7895 24.8721 14.1966 24.6703 14.3841 24.3015C15.1017 22.8908 16.4631 21.9412 18.0258 21.7612C19.0414 21.6442 25.6973 20.8773 26.6485 20.7677C25.4325 24.06 25.7914 27.1966 27.7189 30.1269ZM24.3067 19.15L18.6817 19.7982V16.6246C18.9679 16.6035 19.2538 16.5658 19.5356 16.5076L24.3067 15.5212V19.15Z" fill="#134A85"/>
<path d="M48.2517 24.5171C48.1649 22.3242 47.245 20.2803 45.6615 18.7616C42.2594 15.4988 36.837 15.6466 33.6234 19.1252C30.4916 22.5149 30.6699 27.7657 33.9803 30.94C35.6423 32.5339 37.8515 33.3735 40.1545 33.2817C44.8032 33.0976 48.4356 29.1659 48.2517 24.5171ZM40.0803 31.4082C36.4304 31.5516 33.4068 28.7325 33.2636 25.1103C33.1164 21.3956 36.079 18.2882 39.8262 18.2882C43.3603 18.2882 46.2382 21.0568 46.3782 24.5912C46.5212 28.2069 43.696 31.265 40.0803 31.4082Z" fill="#134A85"/>
<path d="M40.005 23.5922L41.3804 21.5991C41.6744 21.1729 41.5674 20.5891 41.1412 20.295C40.7151 20.0011 40.1313 20.1081 39.8371 20.5342L38.0624 23.1061C37.8257 23.4491 37.8439 23.9071 38.1068 24.2303L39.6355 26.1089L38.2601 28.1025C37.9661 28.5287 38.0733 29.1125 38.4994 29.4066C38.9264 29.7013 39.5101 29.5925 39.8035 29.1673L41.5782 26.5949C41.8147 26.252 41.7966 25.794 41.5336 25.4709L40.005 23.5922Z" fill="#134A85"/>
</svg>
