<svg width="51" height="51" viewBox="0 0 51 51" fill="none" xmlns="http://www.w3.org/2000/svg">
<path d="M44.4512 25.6218H42.0422V23.2129C42.0422 22.5873 41.533 22.0781 40.9083 22.0781H38.3854C37.7598 22.0781 37.2514 22.5873 37.2514 23.2129V25.6218H34.8424C34.2169 25.6218 33.7085 26.131 33.7085 26.7558V29.2787C33.7085 29.9042 34.2177 30.4134 34.8424 30.4134H37.2514V32.8224C37.2514 33.4471 37.7606 33.9563 38.3854 33.9563H40.9083C41.5338 33.9563 42.0422 33.4471 42.0422 32.8224V30.4134H44.4512C45.0767 30.4134 45.5851 29.9042 45.5851 29.2787V26.7558C45.5851 26.131 45.0759 25.6218 44.4512 25.6218ZM43.9914 28.8197H41.5824C40.9569 28.8197 40.4485 29.3289 40.4485 29.9536V32.3626H38.8444V29.9536C38.8444 29.3289 38.3352 28.8197 37.7104 28.8197H35.3014V27.2156H37.7104C38.336 27.2156 38.8444 26.7064 38.8444 26.0808V23.6719H40.4485V26.0808C40.4485 26.7064 40.9577 27.2156 41.5824 27.2156H43.9914V28.8197Z" fill="#134A85"/>
<path d="M43.8472 19.213L48.87 12.3599C48.87 12.3599 48.8715 12.3575 48.8723 12.3567C49.5003 11.4897 49.5784 10.3637 49.0747 9.4178C48.5735 8.4735 47.5981 7.8886 46.5263 7.94517L31.8208 8.4472C31.0184 8.47749 30.3171 8.84803 29.8318 9.40903C29.1059 8.52291 28.0165 7.94438 26.7846 7.94438H15.1669C7.68267 7.94438 1.59375 14.0325 1.59375 21.516V36.0541C1.59375 37.6965 2.53805 39.1006 4.05689 39.7182C4.55494 39.9214 5.06813 40.0202 5.57255 40.0202C6.60928 40.0202 7.61175 39.6034 8.38392 38.8105L17.4555 29.4983C17.8133 29.1325 18.2875 28.8886 18.7919 28.8113L21.8208 28.3444C23.2305 30.1581 24.943 32.3821 26.3288 34.1847V42.2578C26.3288 42.6985 26.6858 43.0547 27.1256 43.0547H30.2573C30.6972 43.0547 31.0542 42.6985 31.0542 42.2578V34.0891L31.5029 33.4045C33.299 36.098 36.3686 37.7786 39.6525 37.7786C45.0314 37.7786 49.4062 33.3998 49.4062 28.0169C49.4062 25.9697 48.7783 24.0126 47.595 22.3606C46.6403 21.0107 45.331 19.9222 43.8472 19.2114V19.213ZM30.7434 11.2195C30.7434 10.5924 31.2542 10.0633 31.8782 10.0394L46.5797 9.53733H46.6228C47.069 9.53733 47.4571 9.76922 47.6675 10.1653C47.885 10.5757 47.8539 11.0442 47.5838 11.4188L42.3045 18.6217C42.2009 18.5922 42.0933 18.5763 41.9889 18.55C41.8375 18.5125 41.6861 18.4767 41.5331 18.4464C41.322 18.405 41.1076 18.3739 40.8932 18.346C40.7363 18.3261 40.5801 18.3038 40.4215 18.291C40.1856 18.2727 39.9465 18.2703 39.7067 18.2695C39.5688 18.2695 39.4326 18.2607 39.2939 18.2663C38.9138 18.2814 38.5313 18.3149 38.1448 18.3763C37.7711 18.4336 37.4061 18.5189 37.0467 18.6177C36.9893 18.6337 36.932 18.6472 36.8754 18.6639C36.5359 18.7643 36.2052 18.8839 35.8817 19.0185C35.8179 19.0448 35.7558 19.0719 35.6928 19.0998C35.3701 19.2425 35.0553 19.3995 34.7517 19.5748C34.7111 19.5987 34.672 19.625 34.6314 19.6489C34.3278 19.8306 34.0337 20.0258 33.7524 20.2386C33.7357 20.2513 33.7182 20.2625 33.7022 20.2744C33.4146 20.4944 33.1436 20.7342 32.8822 20.9844C32.8424 21.0227 32.8018 21.0601 32.7627 21.0984C32.5117 21.347 32.275 21.61 32.0519 21.8857C32.0176 21.9279 31.985 21.971 31.9515 22.0132C31.7268 22.3001 31.5148 22.5981 31.3236 22.9105C31.3124 22.928 31.3028 22.9471 31.2925 22.9647C31.102 23.2794 30.9299 23.6062 30.7753 23.9432C30.7665 23.9624 30.7546 23.9791 30.7466 23.9982C30.7442 23.9671 30.7434 23.9361 30.7434 23.905V11.2195ZM29.9816 25.8876C30.0215 25.9259 30.0637 25.9617 30.1059 25.9976C30.0247 26.3785 29.9633 26.7753 29.9274 27.1945L28.5457 29.307L27.1639 27.5212L27.3862 27.4869C28.4739 27.318 29.3816 26.7195 29.9816 25.8876ZM18.5489 27.2359C17.7066 27.365 16.9145 27.773 16.3152 28.3842L7.242 37.6981C6.42122 38.5404 5.36934 38.5316 4.65694 38.2416C3.94612 37.9531 3.1867 37.2263 3.1867 36.0541V21.516C3.1867 14.9115 8.56003 9.53813 15.1653 9.53813H26.783C28.0859 9.53813 29.1457 10.598 29.1457 11.9009V23.5711C29.1457 24.7481 28.3018 25.7322 27.1408 25.9123L23.6728 26.447L22.0392 26.6972C22.0344 26.6972 22.0304 26.7004 22.0248 26.7012L18.5473 27.2375L18.5489 27.2359ZM29.5904 33.4133C29.5059 33.5432 29.4597 33.6954 29.4597 33.8508V41.4609H27.9217V33.9137C27.9217 33.7376 27.8635 33.5671 27.7568 33.4284C26.5144 31.8116 24.9733 29.809 23.6226 28.0671L23.8433 28.0328L25.3637 27.7993L27.9687 31.1653C28.1265 31.3701 28.3703 31.4992 28.6309 31.4753C28.8883 31.4649 29.1258 31.3311 29.2668 31.1159L30.0621 29.9007C30.0717 29.9509 30.0884 29.9995 30.0988 30.0497C30.129 30.1923 30.1673 30.3326 30.204 30.4736C30.255 30.6697 30.3068 30.8641 30.3697 31.0569C30.4159 31.1988 30.4693 31.339 30.5227 31.4793C30.5641 31.5893 30.5968 31.7024 30.643 31.8108L29.5912 33.4149L29.5904 33.4133ZM39.6517 36.1856C36.5216 36.1856 33.6225 34.3608 32.2671 31.5398C31.7419 30.437 31.4758 29.252 31.4758 28.0177C31.4758 27.8487 31.4829 27.6885 31.4909 27.5212C31.5292 26.9243 31.6184 26.3833 31.7666 25.8605C32.6089 22.7615 35.2075 20.4426 38.3895 19.9517C38.6947 19.9031 38.9951 19.8792 39.2939 19.864C39.3704 19.86 39.4469 19.8561 39.5226 19.8545C39.8031 19.8489 40.0796 19.8561 40.3537 19.8792C40.4542 19.8879 40.553 19.9047 40.6518 19.9166C40.8454 19.9405 41.0383 19.9692 41.2287 20.0075C41.3307 20.0274 41.4319 20.0489 41.5331 20.0728C41.7993 20.1366 42.0638 20.2091 42.3228 20.2999L42.3467 20.3071C43.923 20.8553 45.3247 21.9128 46.2968 23.2858C47.289 24.6684 47.8125 26.3052 47.8125 28.0177C47.8125 32.5216 44.1509 36.1856 39.6517 36.1856Z" fill="#134A85"/>
<path d="M5.34619 27.2227C4.90632 27.2227 4.54932 27.5789 4.54932 28.0195V29.073C4.54932 29.5137 4.90632 29.8699 5.34619 29.8699C5.78607 29.8699 6.14307 29.5137 6.14307 29.073V28.0195C6.14307 27.5789 5.78607 27.2227 5.34619 27.2227Z" fill="#134A85"/>
<path d="M9.91946 12.6117C9.70032 12.7448 4.54932 15.9395 4.54932 21.3128V25.1585C4.54932 25.5992 4.90632 25.9554 5.34619 25.9554C5.78607 25.9554 6.14307 25.5992 6.14307 25.1585V21.3128C6.14307 16.8447 10.702 14.0007 10.7482 13.9728C11.1227 13.7433 11.2415 13.2532 11.0128 12.8779C10.7841 12.5033 10.2948 12.3838 9.91866 12.6117H9.91946Z" fill="#134A85"/>
</svg>
