<svg width="51" height="51" viewBox="0 0 51 51" fill="none" xmlns="http://www.w3.org/2000/svg">
<path d="M39.9926 39.3473C38.5898 39.2904 37.2699 39.8756 36.3711 40.9553C36.319 41.0181 36.2495 41.0541 36.1808 41.0541H35.5771C35.0415 41.0541 34.585 40.6897 34.4667 40.1671L34.1271 38.6749C33.9612 37.9461 33.5089 37.3518 32.9049 36.9942C33.1887 36.6841 33.4161 36.3212 33.5726 35.9205C34.4888 36.1737 35.4532 36.3097 36.4487 36.3097C42.4093 36.3097 47.2585 31.4605 47.2585 25.5001C47.2585 23.5489 46.7325 21.6367 45.7373 19.9702C45.5259 19.6159 45.0671 19.5006 44.7128 19.7118C44.3586 19.9234 44.243 20.3821 44.4545 20.7363C45.3114 22.1711 45.7642 23.8184 45.7642 25.5C45.7642 30.6365 41.5853 34.8155 36.4486 34.8155C31.3122 34.8155 27.1332 30.6366 27.1332 25.5C27.1332 20.3634 31.3121 16.1845 36.4486 16.1845C38.5996 16.1845 40.6977 16.935 42.3565 18.2977C42.6751 18.5596 43.1462 18.5137 43.408 18.1947C43.6699 17.876 43.6238 17.4051 43.305 17.1433C41.3797 15.5615 38.9448 14.6904 36.4487 14.6904C35.4531 14.6904 34.4886 14.8264 33.5723 15.0796C33.4178 14.6859 33.1917 14.3207 32.9043 14.0062C33.5087 13.6487 33.9611 13.0542 34.1271 12.3252L34.467 10.832C34.5851 10.3104 35.0416 9.9459 35.5772 9.9459H36.1798C36.2489 9.9459 36.3184 9.98176 36.372 10.0467C37.225 11.0702 38.4769 11.6573 39.8066 11.6573C42.2477 11.6573 44.2531 9.67127 44.277 7.22975C44.2998 4.84012 42.3776 2.81745 39.9927 2.72083C38.5892 2.66405 37.27 3.24916 36.3712 4.32882C36.3191 4.39168 36.2496 4.42764 36.1809 4.42764H35.5772C35.0416 4.42764 34.5851 4.06327 34.4668 3.54052L34.1273 2.04966C33.8526 0.842895 32.7969 0 31.5597 0H21.6655C21.2528 0 20.9185 0.334389 20.9185 0.74707C20.9185 1.15975 21.2528 1.49414 21.6655 1.49414H31.5597C32.0947 1.49414 32.5513 1.85881 32.6701 2.38126L33.0094 3.87132C33.2826 5.07858 34.3384 5.92178 35.5769 5.92178H36.1806C36.6951 5.92178 37.1833 5.68909 37.5197 5.28418C38.1179 4.5656 38.9952 4.17423 39.9315 4.21388C41.5188 4.27812 42.7978 5.62464 42.7826 7.2154C42.7668 8.84083 41.4316 10.1632 39.8063 10.1632C38.9213 10.1632 38.0877 9.77208 37.5212 9.09234C37.1846 8.68534 36.6956 8.45186 36.1795 8.45186H35.5769C34.3383 8.45186 33.2826 9.29505 33.0097 10.5013L32.6701 11.9935C32.5513 12.5151 32.0947 12.8795 31.5597 12.8795H16.458C15.923 12.8795 15.4664 12.5151 15.3478 11.994L15.0091 10.5015C14.7347 9.29475 13.6789 8.45186 12.4419 8.45186H11.8393C11.3243 8.45186 10.8354 8.68484 10.498 9.09055C9.93064 9.77228 9.09721 10.1632 8.21148 10.1632C6.58596 10.1632 5.25109 8.84103 5.23615 7.2156C5.22101 5.62464 6.49999 4.27812 8.08767 4.21388C9.0229 4.17423 9.90076 4.5656 10.4985 5.28348C10.8355 5.68909 11.3237 5.92178 11.8382 5.92178H12.4419C13.679 5.92178 14.7348 5.07888 15.0091 3.87192L15.3477 2.38106C15.4664 1.85881 15.923 1.49414 16.458 1.49414H18.1792C18.5919 1.49414 18.9263 1.15975 18.9263 0.74707C18.9263 0.334389 18.5919 0 18.1792 0H16.458C15.221 0 14.1651 0.842795 13.8907 2.04986L13.5521 3.54081C13.4335 4.06297 12.9769 4.42764 12.4419 4.42764H11.8382C11.7694 4.42764 11.7 4.39168 11.6473 4.32813C10.7489 3.24906 9.4313 2.66425 8.02671 2.72083C5.64146 2.81745 3.7193 4.84002 3.74191 7.22955C3.76462 9.67107 5.76946 11.6573 8.21138 11.6573C9.54216 11.6573 10.7943 11.0701 11.6466 10.0459C11.6994 9.98235 11.7696 9.9459 11.8392 9.9459H12.4418C12.9768 9.9459 13.4334 10.3106 13.552 10.8324L13.8908 12.3252C14.057 13.0548 14.5101 13.6496 15.1152 14.007C14.551 14.6234 14.2062 15.4437 14.2062 16.3432C14.2062 17.2427 14.551 18.0631 15.1152 18.6795C14.5098 19.0372 14.0566 19.6326 13.8906 20.3629L13.5525 21.8539C13.434 22.3759 12.9772 22.7403 12.4417 22.7403H11.838C11.7691 22.7403 11.6999 22.7047 11.6472 22.6409C10.7486 21.5623 9.4311 20.9767 8.02601 21.0333C5.64066 21.1308 3.7186 23.1539 3.74141 25.5429C3.76422 27.984 5.76946 29.9698 8.21148 29.9698C9.54057 29.9698 10.7924 29.383 11.646 28.3597C11.6992 28.2957 11.7694 28.2592 11.8389 28.2592H12.4416C12.9771 28.2592 13.4339 28.6237 13.5523 29.1453L13.8906 30.6369C14.0565 31.367 14.5096 31.9623 15.1149 32.3199C14.5506 32.9362 14.2058 33.7564 14.2058 34.6558C14.2058 35.5555 14.5507 36.3761 15.115 36.9926C14.51 37.3501 14.0568 37.9451 13.8905 38.675L13.552 40.167C13.4334 40.6891 12.9768 41.0538 12.4418 41.0538H11.8381C11.7693 41.0538 11.6999 41.0178 11.6472 40.9543C10.7488 39.8752 9.42971 39.2895 8.02661 39.347C5.64136 39.4436 3.7192 41.4662 3.74181 43.8557C3.76452 46.2972 5.76936 48.2835 8.21128 48.2835C9.54117 48.2835 10.793 47.6964 11.6465 46.6722C11.6993 46.6085 11.7695 46.5721 11.8391 46.5721H12.4417C12.9767 46.5721 13.4333 46.9367 13.5519 47.4587L13.8905 48.9501C14.1652 50.1572 15.221 51 16.458 51H31.5597C32.7969 51 33.8526 50.1571 34.1269 48.9506L34.4668 47.4585C34.5849 46.9368 35.0414 46.5724 35.577 46.5724H36.1796C36.2487 46.5724 36.3182 46.6082 36.372 46.6735C37.2259 47.6968 38.4778 48.2838 39.8065 48.2838C42.2476 48.2838 44.253 46.2977 44.2769 43.8562C44.2996 41.4665 42.3774 39.4438 39.9926 39.3473ZM28.3818 18.3132H17.67C16.5839 18.3132 15.7003 17.4295 15.7003 16.3435C15.7003 15.2575 16.5839 14.3738 17.67 14.3738H30.3483C30.8741 14.3738 31.3688 14.5788 31.7408 14.951C31.9213 15.1315 32.0627 15.3458 32.161 15.5782C30.709 16.2079 29.4213 17.1476 28.3818 18.3132ZM12.4417 26.7653H11.839C11.3249 26.7653 10.8363 26.9979 10.4986 27.403C9.92984 28.0849 9.09621 28.4759 8.21158 28.4759C6.58586 28.4759 5.25079 27.154 5.23565 25.529C5.22041 23.9382 6.4995 22.5914 8.08697 22.5265C9.0221 22.4868 9.90056 22.8788 10.4981 23.5961C10.8345 24.0018 11.3229 24.2346 11.838 24.2346H12.4417C13.6796 24.2346 14.7355 23.3917 15.0096 22.1846L15.3477 20.6936C15.4662 20.1718 15.923 19.8072 16.4585 19.8072H17.67H27.2636C26.2345 21.4615 25.639 23.4124 25.639 25.4999C25.639 27.5874 26.2345 29.5383 27.2636 31.1926H17.6703H16.4585C15.923 31.1926 15.4662 30.828 15.3478 30.3065L15.0095 28.8149C14.7355 27.6082 13.6796 26.7653 12.4417 26.7653ZM39.8064 46.7895C38.9221 46.7895 38.0884 46.3982 37.5213 45.7186C37.1847 45.3116 36.6957 45.0781 36.1796 45.0781H35.577C34.3384 45.0781 33.2827 45.9213 33.0098 47.1275L32.6701 48.6189C32.5514 49.1411 32.0948 49.5058 31.5598 49.5058H16.458C15.923 49.5058 15.4664 49.1411 15.3477 48.6191L15.0091 47.1278C14.7347 45.921 13.6789 45.0781 12.4419 45.0781H11.8393C11.3243 45.0781 10.8354 45.3111 10.4983 45.7164C9.93004 46.3984 9.09661 46.7894 8.21148 46.7894C6.58596 46.7894 5.25109 45.4672 5.23615 43.8418C5.22101 42.2508 6.49999 40.9043 8.08767 40.84C9.0225 40.8008 9.90076 41.1918 10.4985 41.9096C10.8355 42.3153 11.3237 42.5479 11.8382 42.5479H12.4419C13.679 42.5479 14.7348 41.7051 15.0092 40.498L15.3476 39.0063C15.4664 38.4847 15.923 38.1202 16.458 38.1202H20.8776C21.2903 38.1202 21.6247 37.7858 21.6247 37.3731C21.6247 36.9605 21.2903 36.6261 20.8776 36.6261H17.6703C16.5838 36.6261 15.7 35.7422 15.7 34.6558C15.7 33.57 16.5838 32.6865 17.6703 32.6865H28.3818C29.4219 33.8527 30.7103 34.7926 32.1633 35.4226C31.8636 36.1357 31.1587 36.6261 30.3486 36.6261H24.364C23.9514 36.6261 23.617 36.9605 23.617 37.3731C23.617 37.7858 23.9514 38.1202 24.364 38.1202H31.5598C32.0948 38.1202 32.5514 38.4845 32.6702 39.0062L33.0095 40.4975C33.2827 41.7048 34.3385 42.5479 35.577 42.5479H36.1807C36.6952 42.5479 37.1834 42.3153 37.5197 41.9103C38.1179 41.1918 38.9946 40.7997 39.9316 40.84C41.5189 40.9043 42.7978 42.2508 42.7827 43.8416C42.7669 45.4672 41.4317 46.7895 39.8064 46.7895Z" fill="#134A85"/>
<path d="M33.6166 32.1187C33.7827 32.2347 33.9723 32.2917 34.1608 32.2917C34.3952 32.2917 34.6279 32.2033 34.811 32.0301L40.4309 26.7146C40.7597 26.4036 40.936 25.9658 40.9146 25.5137C40.8932 25.0616 40.6762 24.6424 40.3194 24.3637L38.3947 22.8609L39.6096 20.0316C39.789 19.6138 39.6538 19.1402 39.2809 18.8799C38.9078 18.6198 38.4166 18.6562 38.0866 18.9687L32.4669 24.2841C32.1381 24.5951 31.9618 25.0329 31.9832 25.4851C32.0046 25.9372 32.2215 26.3563 32.5784 26.635L34.503 28.1378L33.2883 30.9668C33.1086 31.3846 33.2437 31.8583 33.6166 32.1187ZM33.4979 25.4573C33.4921 25.4528 33.4769 25.441 33.4756 25.4144C33.4743 25.3877 33.4884 25.3746 33.4937 25.3696L37.1948 21.8688L36.7946 22.8005C36.6607 23.1124 36.7539 23.4752 37.0213 23.6841L39.3998 25.5413C39.4056 25.5458 39.4208 25.5577 39.4221 25.5843C39.4234 25.6109 39.4094 25.6241 39.4041 25.6291L35.703 29.1297L36.1031 28.198C36.237 27.8861 36.1439 27.5233 35.8764 27.3144L33.4979 25.4573Z" fill="#134A85"/>
<path d="M8.71484 17.0918H9.7211C10.1338 17.0918 10.4682 16.7574 10.4682 16.3447C10.4682 15.932 10.1338 15.5977 9.7211 15.5977H8.71484C8.30216 15.5977 7.96777 15.932 7.96777 16.3447C7.96777 16.7574 8.30216 17.0918 8.71484 17.0918Z" fill="#134A85"/>
<path d="M11.5447 14.594C11.6907 14.7398 11.8819 14.8127 12.0731 14.8127C12.2642 14.8127 12.4555 14.7398 12.6014 14.594C12.8932 14.3021 12.8932 13.8292 12.6014 13.5374L11.8218 12.7578C11.5299 12.4661 11.057 12.4661 10.7652 12.7578C10.4734 13.0497 10.4734 13.5226 10.7652 13.8144L11.5447 14.594Z" fill="#134A85"/>
<path d="M10.7652 19.9299C10.9111 20.0758 11.1024 20.1487 11.2935 20.1487C11.4847 20.1487 11.6759 20.0758 11.8218 19.9299L12.6015 19.1503C12.8932 18.8584 12.8932 18.3855 12.6015 18.0937C12.3096 17.8021 11.8367 17.8021 11.5449 18.0937L10.7653 18.8734C10.4734 19.1652 10.4734 19.6382 10.7652 19.9299Z" fill="#134A85"/>
<path d="M8.71484 35.4043H9.7211C10.1338 35.4043 10.4682 35.0699 10.4682 34.6572C10.4682 34.2445 10.1338 33.9102 9.7211 33.9102H8.71484C8.30216 33.9102 7.96777 34.2445 7.96777 34.6572C7.96777 35.0699 8.30216 35.4043 8.71484 35.4043Z" fill="#134A85"/>
<path d="M11.5447 32.9065C11.6907 33.0523 11.8819 33.1252 12.0731 33.1252C12.2642 33.1252 12.4555 33.0523 12.6014 32.9065C12.8932 32.6146 12.8932 32.1417 12.6014 31.8499L11.8218 31.0703C11.5299 30.7786 11.057 30.7786 10.7652 31.0703C10.4734 31.3622 10.4734 31.8351 10.7652 32.1269L11.5447 32.9065Z" fill="#134A85"/>
<path d="M10.7652 38.2424C10.9111 38.3883 11.1024 38.4612 11.2935 38.4612C11.4847 38.4612 11.6759 38.3883 11.8218 38.2424L12.6015 37.4628C12.8932 37.1709 12.8932 36.698 12.6015 36.4062C12.3096 36.1146 11.8367 36.1146 11.5449 36.4062L10.7653 37.1859C10.4734 37.4776 10.4734 37.9506 10.7652 38.2424Z" fill="#134A85"/>
</svg>
