<svg width="51" height="51" viewBox="0 0 51 51" fill="none" xmlns="http://www.w3.org/2000/svg">
<g clip-path="url(#clip0_71_8779)">
<path d="M39.514 28.6875L37.1457 31.0558L35.8452 24.5525L34.9096 19.2501C34.4857 16.8483 33.2848 14.7613 31.5994 13.2098L34.5009 9.72825C34.8634 9.29316 35.0626 8.74252 35.0626 8.17673C35.0626 7.25316 34.5495 6.42281 33.7231 6.00923L33.4546 5.87536C33.0665 5.68092 32.6314 5.57812 32.1963 5.57812C31.2201 5.57812 30.3284 6.07219 29.8104 6.90014L27.6924 10.2892L29.3275 5.38448C29.4319 5.06892 29.4845 4.74141 29.4845 4.4107C29.4845 3.37795 28.9713 2.41931 28.1123 1.84636L27.0883 1.16344C26.7289 0.923578 26.3098 0.796875 25.8771 0.796875C24.8053 0.796875 23.9 1.56347 23.7239 2.62092L22.8139 8.0827L22.4139 2.88469C22.3238 1.71408 21.3333 0.796875 20.1595 0.796875C19.9149 0.796875 19.675 0.835922 19.4447 0.913219L18.6359 1.18256C17.4987 1.56108 16.7345 2.62172 16.7345 3.82022C16.7345 3.97322 16.7473 4.12622 16.772 4.27763L18.1147 12.3348C17.525 12.75 16.9784 13.2281 16.4795 13.7596L14.9439 12.2241C14.5407 11.8208 14.2945 11.2853 14.2507 10.7172L13.6522 2.93569C13.5606 1.73639 12.5461 0.796875 11.3437 0.796875C11.1532 0.796875 10.9636 0.819984 10.7819 0.866203L9.11162 1.28377C7.9689 1.56905 7.17202 2.58984 7.17202 3.76763C7.17202 3.978 7.19752 4.18678 7.24852 4.38839L8.54584 9.57605C8.59843 9.78563 8.49962 9.99998 8.30598 10.0964C8.15059 10.1745 7.9673 10.1578 7.82705 10.0534L5.74881 8.49469C5.29618 8.15522 4.73518 7.96875 4.1694 7.96875C3.28806 7.96875 2.46887 8.40703 1.97959 9.14095L1.22096 10.2789C0.943649 10.6949 0.797024 11.1802 0.797024 11.6806C0.797024 12.644 1.33252 13.5102 2.19395 13.9413L5.47388 15.5813C6.19745 15.9431 6.73454 16.5694 6.99512 17.3161C3.38687 18.6509 0.797024 22.1667 0.797024 26.2937C0.777899 31.1012 2.60195 35.7255 5.93368 39.3138C9.55707 43.2161 14.0865 46.3279 19.0311 48.3113L23.0243 49.9123C23.508 50.1051 24.018 50.2031 24.5407 50.2031C25.3424 50.2031 26.1265 49.9226 26.7465 49.4158L27.1417 49.0939C32.1341 45.0083 35.7575 39.3306 37.3696 33.0863L40.1738 30.2812H50.2033V28.6875H39.514ZM31.1619 7.74563C31.4855 7.22686 32.1955 7.02764 32.7414 7.30097L33.0107 7.43564C33.2936 7.57669 33.4689 7.86037 33.4689 8.17673C33.4689 8.37037 33.4012 8.55844 33.2769 8.70745L30.3531 12.2161C29.8885 11.9013 29.4024 11.6176 28.8916 11.3778L31.1619 7.74563ZM25.2961 2.88309C25.3623 2.48306 25.8667 2.26552 26.2038 2.48944L27.2278 3.17236C27.6429 3.44887 27.8908 3.91186 27.8908 4.4107C27.8908 4.57087 27.8653 4.72945 27.8143 4.88086L25.944 10.4917C25.4101 10.4104 24.8674 10.3594 24.3128 10.3594C24.2236 10.3594 24.1367 10.3737 24.0474 10.3753L25.2961 2.88309ZM18.3442 4.01625C18.3339 3.95091 18.3283 3.88556 18.3283 3.82022C18.3283 3.30863 18.6542 2.8568 19.1403 2.69423L19.9499 2.42409C20.3444 2.295 20.7938 2.58984 20.8257 3.00661L21.4225 10.7706C20.789 10.9475 20.1746 11.1802 19.5865 11.4678L18.3442 4.01625ZM24.3128 11.9531C26.8293 11.9531 29.1347 12.9699 30.8049 14.6442L29.969 14.7836C28.3904 15.0466 26.8955 15.7136 25.6444 16.7145C24.3431 17.7552 22.7095 18.3281 21.0432 18.3281H20.9117C19.2072 18.3281 17.5848 17.7448 16.2755 16.681C16.4413 16.4037 16.6158 16.1303 16.8023 15.8642C18.5163 13.4146 21.3237 11.9531 24.3128 11.9531ZM6.18709 14.1557L2.90635 12.5157C2.5884 12.3563 2.39077 12.036 2.39077 11.6806C2.39077 11.4957 2.44496 11.3164 2.54776 11.1626L3.30638 10.0255C3.62274 9.54975 4.33595 9.42942 4.79335 9.77048L6.8708 11.3292C7.49715 11.7993 8.31952 11.8734 9.01918 11.5236C9.88538 11.0901 10.3269 10.1315 10.0926 9.19116L8.79526 4.0027C8.77534 3.92541 8.76577 3.84652 8.76577 3.76763C8.76577 3.32297 9.0662 2.93808 9.49731 2.8305L11.1699 2.41294C11.5819 2.30616 12.0306 2.6257 12.0632 3.05841L12.6617 10.8399C12.7342 11.7874 13.1446 12.6799 13.8172 13.3516L15.4651 14.9996C14.9527 15.7375 14.5176 16.5144 14.1471 17.3177L12.1557 16.9193C11.5453 16.7965 10.9189 16.7344 10.295 16.7344H10.1906C9.62321 16.7344 9.07098 16.7941 8.5307 16.893C8.14979 15.7136 7.31865 14.7215 6.18709 14.1557ZM10.1906 18.3281H10.295C10.8137 18.3281 11.3349 18.3799 11.8433 18.4811L13.547 18.8222C13.0259 20.3705 12.7501 21.9993 12.7501 23.6648V24.0967C12.7501 26.6714 10.7683 28.6875 8.23745 28.6875C6.22215 28.6875 4.32638 27.9026 2.90077 26.4778L2.40671 25.9821C2.57007 21.7348 5.99424 18.3281 10.1906 18.3281ZM26.1329 47.8595L25.7376 48.1823C25.1527 48.6596 24.3104 48.709 23.6163 48.4317L19.6248 46.8323C14.8969 44.9358 10.5667 41.9602 7.1019 38.2293C4.50329 35.4315 2.91751 31.9475 2.50791 28.2596C4.12716 29.5673 6.12732 30.2812 8.23745 30.2812C11.605 30.2812 14.3439 27.5073 14.3439 24.0967V23.6648C14.3439 21.7324 14.7567 19.8541 15.5336 18.1193C17.0788 19.2836 18.9506 19.9219 20.9125 19.9219H21.044C23.0705 19.9219 25.0579 19.2246 26.6405 17.9584C27.6788 17.128 28.9203 16.5734 30.2312 16.3551L31.9564 16.0674C32.6306 17.089 33.1159 18.2548 33.3398 19.5266L34.2459 24.6609L31.9501 32.6974L28.6653 18.7385L26.4548 28.6875H24.6228C24.2522 26.8714 22.6434 25.5 20.7189 25.5C18.5219 25.5 16.7345 27.2874 16.7345 29.4844C16.7345 31.6814 18.5219 33.4688 20.7189 33.4688C22.6426 33.4688 24.2522 32.0973 24.6228 30.2812H27.733L28.71 25.8857L31.8002 39.0206L34.9256 28.0819L35.838 32.644C34.316 38.5799 30.8759 43.9779 26.1329 47.8595ZM23.1095 29.4844C23.1095 30.8024 22.0369 31.875 20.7189 31.875C19.4009 31.875 18.3283 30.8024 18.3283 29.4844C18.3283 28.1663 19.4009 27.0938 20.7189 27.0938C22.0369 27.0938 23.1095 28.1663 23.1095 29.4844Z" fill="#134A85"/>
</g>
<defs>
<clipPath id="clip0_71_8779">
<rect width="51" height="51" fill="white"/>
</clipPath>
</defs>
</svg>
