<svg width="51" height="51" viewBox="0 0 51 51" fill="none" xmlns="http://www.w3.org/2000/svg">
<g clip-path="url(#clip0_71_8799)">
<path d="M50.9845 23.3776C50.878 21.9953 50.2531 20.7602 49.2252 19.8996C48.2629 19.094 47.0537 18.7185 45.82 18.8423C44.1374 19.011 42.6554 20.1117 41.9248 21.6963L40.3957 21.8314L38.8864 21.4083C38.7691 21.3755 38.6745 21.2826 38.6332 21.1599C38.1947 19.8551 37.5687 18.623 36.7711 17.4944L37.3052 16.0583L38.991 14.2351C39.9498 14.2029 40.8414 13.7803 41.4808 13.0433C42.6377 11.7097 42.5896 9.66606 41.3711 8.39068C40.7024 7.69077 39.8015 7.30713 38.838 7.31744C37.8867 7.3252 36.9709 7.73008 36.3253 8.42846C35.6928 9.11244 35.369 10.0046 35.4092 10.923L33.7233 12.7465L32.3106 13.4018C30.2035 12.1702 27.8108 11.504 25.3633 11.4685L24.4397 9.99539L24.1139 8.3766C25.4117 7.3154 26.0181 5.6671 25.6713 4.0433C25.1509 1.60658 22.6417 0.0193297 20.0784 0.505571C18.7878 0.750172 17.6898 1.46784 16.9865 2.52608C16.3277 3.51745 16.1002 4.69686 16.3459 5.84698C16.6734 7.38043 17.785 8.61742 19.2973 9.1693L19.6572 10.9577L19.3709 12.7008C18.0671 13.284 16.8646 14.0572 15.7873 15.0049L14.7284 14.8163L13.5319 13.9136C13.361 13.0049 12.8364 12.205 12.0571 11.6821C10.6027 10.7061 8.64687 10.9731 7.50778 12.303C6.87811 13.0382 6.58859 13.9714 6.69262 14.9304C6.79521 15.8761 7.28952 16.747 8.04874 17.3198C8.83379 17.912 9.83221 18.138 10.7878 17.9543L11.7904 18.7107L12.2401 19.6309C12.26 19.6716 12.2606 19.7186 12.2417 19.7596C11.384 21.6244 10.9492 23.6154 10.9492 25.6771C10.9492 26.0587 10.9651 26.4466 10.9962 26.8301C11.001 26.8893 10.9776 26.9434 10.9335 26.9747L9.24041 28.1811L7.3079 28.789C6.12134 27.871 4.55236 27.5937 3.10823 28.0709C3.07934 28.0805 3.05086 28.0909 3.02248 28.1014L2.99859 28.1101C2.60076 28.2535 2.39444 28.6922 2.53767 29.09C2.6809 29.4877 3.11936 29.6942 3.5175 29.5509L3.55333 29.5378C3.56538 29.5334 3.57743 29.5289 3.58937 29.5249C4.64403 29.1761 5.79966 29.4355 6.60543 30.2017C6.74989 30.339 6.93946 30.4124 7.13302 30.4124C7.20979 30.4124 7.28727 30.4009 7.36272 30.3771L9.81567 29.6054C9.89234 29.5813 9.96471 29.5453 10.0303 29.4986L11.8221 28.2219C12.3025 27.8797 12.5709 27.2988 12.5225 26.7057C12.4947 26.3634 12.4806 26.0174 12.4806 25.677C12.4806 23.8377 12.8683 22.062 13.633 20.3993C13.8446 19.939 13.8385 19.4139 13.6161 18.9585L13.0858 17.8736C13.0329 17.7652 12.9553 17.6711 12.8591 17.5985L11.4177 16.5111C11.2191 16.3612 10.9599 16.3172 10.7231 16.3932C10.1253 16.5847 9.47041 16.474 8.9711 16.0973C8.54162 15.7734 8.27323 15.3003 8.21514 14.7651C8.15716 14.2306 8.31907 13.7099 8.67096 13.299C9.29472 12.5708 10.4074 12.419 11.2041 12.9536C11.6952 13.2832 12.0051 13.8094 12.0544 14.3974C12.0726 14.6144 12.1824 14.8135 12.3563 14.9447L13.9528 16.1491C14.0489 16.2217 14.1609 16.2705 14.2795 16.2916L15.888 16.5783C16.1248 16.6205 16.3671 16.5491 16.5431 16.3857C17.6637 15.3459 18.9445 14.5253 20.3501 13.9468C20.5957 13.8457 20.7713 13.6248 20.8142 13.3628L21.1911 11.0679C21.2061 10.9767 21.2044 10.8834 21.1862 10.7928L20.7094 8.42284C20.6515 8.13506 20.4342 7.90567 20.1499 7.83247C18.9658 7.52743 18.0822 6.64407 17.8437 5.52734C17.6849 4.78374 17.8335 4.0189 18.2623 3.37371C18.7354 2.66165 19.4819 2.17735 20.364 2.01013C22.1172 1.67814 23.8262 2.73342 24.1742 4.36314C24.4234 5.5302 23.9042 6.72411 22.8514 7.40483C22.5873 7.57562 22.4545 7.89056 22.5165 8.19886L22.9664 10.4346C22.9847 10.5252 23.0192 10.6118 23.0683 10.6902L24.1742 12.4544C24.3878 12.795 24.7552 12.9984 25.1591 12.9984H25.1595C27.464 12.9984 29.7224 13.6264 31.6907 14.8147C32.0207 15.0139 32.4256 15.0365 32.774 14.8751L34.505 14.072C34.5957 14.03 34.6773 13.9706 34.7451 13.8973L36.7664 11.711C36.925 11.5395 36.9966 11.305 36.9609 11.074C36.8701 10.4877 37.0483 9.90229 37.4499 9.46811C37.815 9.07314 38.3126 8.85324 38.8508 8.84875C39.387 8.84865 39.8905 9.05731 40.2642 9.44861C40.9426 10.1586 40.969 11.2968 40.3243 12.0398C39.9201 12.5057 39.3351 12.7462 38.7193 12.7C38.4864 12.6823 38.2581 12.7723 38.0996 12.9438L36.0783 15.1301C36.0104 15.2034 35.9576 15.2893 35.9228 15.3829L35.2657 17.1499C35.1306 17.513 35.1869 17.9177 35.416 18.2324C36.1776 19.2788 36.7718 20.4279 37.1819 21.6479C37.3847 22.2516 37.8675 22.7133 38.4734 22.8831L40.1173 23.3438C40.2063 23.3688 40.2991 23.3773 40.3913 23.3692L42.5262 23.1807C42.8266 23.1541 43.0833 22.9539 43.1823 22.6691C43.6243 21.3958 44.7198 20.4918 45.9731 20.3661C46.7928 20.2838 47.5991 20.5353 48.2426 21.074C48.9518 21.6677 49.3835 22.5277 49.4581 23.4954C49.5073 24.1349 49.3917 24.777 49.1238 25.3525C48.9454 25.7358 49.1114 26.1912 49.4948 26.3698C49.8784 26.5482 50.3337 26.3822 50.5121 25.9988C50.8903 25.1851 51.0538 24.2788 50.9845 23.3776Z" fill="#134A85"/>
<path d="M47.131 27.1671C46.9161 27.2378 46.6943 27.285 46.472 27.3073C45.147 27.4399 43.9086 26.7062 43.3158 25.4376C43.1795 25.146 42.8752 24.9705 42.5547 24.9991L40.5505 25.1761C40.4583 25.1843 40.3685 25.209 40.2852 25.2492L38.7724 25.9791C38.1993 26.2555 37.8038 26.8017 37.7147 27.4399C37.5819 28.3896 37.3401 29.3244 36.996 30.2179C36.7906 30.7513 36.8312 31.3407 37.1075 31.8347L37.6464 32.7982C37.7052 32.9033 37.788 32.9932 37.8881 33.0602L39.3876 34.0662C39.5941 34.2048 39.8553 34.2343 40.0877 34.1455C40.6738 33.9212 41.3338 33.9954 41.8534 34.3439C42.3 34.6435 42.5943 35.1011 42.6819 35.6321C42.7694 36.1626 42.6367 36.6915 42.308 37.1213C41.7255 37.883 40.6231 38.0962 39.7979 37.6065C39.2893 37.3046 38.9506 36.7963 38.8689 36.212C38.8386 35.9963 38.718 35.8036 38.5371 35.6823L36.8763 34.5682C36.7763 34.501 36.6617 34.4584 36.5422 34.4439L35.4969 34.3168C34.9123 34.2456 34.3293 34.4407 33.898 34.8518C33.0609 35.6494 32.1209 36.3288 31.1042 36.8709C30.5129 37.1862 30.1193 37.8014 30.077 38.4762L29.9444 40.5939C29.9395 40.6728 29.9467 40.7521 29.9661 40.8288L30.6233 43.4367C30.6903 43.703 30.895 43.913 31.1594 43.9869C32.0511 44.2363 32.7453 44.9477 32.971 45.8433C33.1428 46.5252 33.0342 47.2307 32.6649 47.8295C32.296 48.428 31.7139 48.842 31.0259 48.9952C29.7434 49.2811 28.4199 48.5278 28.0136 47.2806C27.7067 46.3384 27.9546 45.3227 28.6603 44.6298C28.8544 44.4393 28.9328 44.1601 28.8663 43.8964L28.2051 41.2725C28.1858 41.1959 28.1547 41.1226 28.1129 41.0554L27.0936 39.4158C26.6805 38.7511 25.9607 38.3545 25.1604 38.3545C25.1599 38.3545 25.1594 38.3545 25.1587 38.3545C24.3308 38.3545 23.502 38.2735 22.6951 38.1139C21.926 37.9615 21.1481 38.2072 20.6144 38.7704L19.2667 40.1927C19.2123 40.2501 19.167 40.3156 19.1326 40.3868L17.624 43.5169C17.5218 43.729 17.5228 43.9763 17.6268 44.1874C17.8911 44.7244 17.8941 45.3405 17.6351 45.8779C17.4013 46.3629 16.9895 46.719 16.4756 46.8806C15.9621 47.0421 15.4193 46.9846 14.9473 46.719C14.117 46.2517 13.7498 45.1949 14.1112 44.3132C14.3522 43.7253 14.8447 43.3057 15.4624 43.162C15.6881 43.1095 15.878 42.9575 15.9787 42.7487L17.4971 39.5985C17.5314 39.5273 17.5546 39.4511 17.5655 39.3728L17.863 37.258C17.9552 36.6029 17.6959 35.9394 17.1865 35.5264C16.039 34.5958 15.0702 33.4854 14.3068 32.2259C13.9723 31.6741 13.3598 31.3274 12.7081 31.3213L10.5969 31.3012C10.5164 31.3002 10.4366 31.3123 10.3599 31.3364L8.04842 32.0636C7.75942 32.1545 7.55116 32.4073 7.51726 32.7083C7.38435 33.8896 6.56663 34.8831 5.43397 35.2394C3.87194 35.7308 2.18688 34.8645 1.67839 33.308C1.47626 32.6893 1.48279 32.0326 1.69748 31.4091C1.83509 31.0092 1.62255 30.5735 1.22267 30.4359C0.822693 30.2981 0.387087 30.5109 0.249474 30.9107C-0.0744487 31.8519 -0.0837387 32.8453 0.222727 33.7835C0.844846 35.6878 2.6325 36.908 4.54357 36.9079C4.99112 36.9079 5.44581 36.8409 5.89347 36.7001C7.44009 36.2132 8.59755 34.9408 8.95373 33.3837L10.7041 32.833L12.694 32.8519C12.8196 32.8531 12.936 32.9171 12.9976 33.019C13.8526 34.4297 14.9376 35.6734 16.2223 36.7153C16.317 36.7919 16.3648 36.918 16.347 37.0442L16.0661 39.0409L14.7469 41.7782C13.823 42.1052 13.071 42.8144 12.6947 43.7322C12.0346 45.3423 12.6803 47.2001 14.1967 48.0534C15.0412 48.5287 16.014 48.631 16.9352 48.3413C17.8436 48.0557 18.6017 47.4001 19.015 46.5426C19.423 45.6962 19.4689 44.7417 19.154 43.8703L20.4608 41.159L21.7265 39.8234C21.8967 39.6437 22.1477 39.5662 22.3983 39.6158C23.3028 39.7947 24.2317 39.8856 25.1681 39.8856H25.1688C25.4283 39.8856 25.6619 40.0121 25.7936 40.2241L26.75 41.7624L27.2817 43.8722C26.3964 44.9527 26.1173 46.4016 26.5581 47.7548C27.1134 49.4599 28.7424 50.5863 30.4842 50.5862C30.7742 50.5862 31.0675 50.5549 31.3592 50.49C32.4542 50.2461 33.3811 49.5867 33.9689 48.6331C34.5569 47.6792 34.7299 46.5556 34.4561 45.4692C34.1343 44.1917 33.2148 43.1498 32.0072 42.6607L31.4805 40.5704L31.6057 38.5719C31.6149 38.4234 31.6991 38.2893 31.825 38.2222C32.9641 37.6147 34.0171 36.8537 34.9547 35.9604C35.0534 35.8664 35.1838 35.8216 35.3124 35.8371L36.1758 35.9421L37.4204 36.7771C37.6415 37.6749 38.2096 38.4445 39.0167 38.9235C40.523 39.8173 42.4609 39.4425 43.5245 38.0515C44.1127 37.2825 44.35 36.3348 44.1929 35.3829C44.038 34.4443 43.4963 33.6021 42.7065 33.0723C41.8899 32.5245 40.8805 32.3543 39.9365 32.5905L38.8936 31.8908L38.4443 31.0874C38.3909 30.9918 38.3839 30.8756 38.4252 30.7684C38.8113 29.7658 39.0825 28.7172 39.2314 27.652C39.2495 27.5218 39.3268 27.4121 39.4379 27.3585L40.8247 26.6894L42.1863 26.5691C43.1326 28.1354 44.8213 29.0122 46.6249 28.8312C46.9578 28.7978 47.2891 28.7274 47.6098 28.6219C48.0115 28.4897 48.2298 28.0569 48.0976 27.6552C47.9654 27.2532 47.5326 27.035 47.131 27.1671Z" fill="#134A85"/>
<path d="M27.6193 15.2411C26.8165 15.0526 25.9889 14.957 25.1594 14.957C19.2479 14.957 14.4385 19.7664 14.4385 25.6779C14.4385 31.5895 19.2478 36.3988 25.1594 36.3988C31.0709 36.3988 35.8803 31.5895 35.8803 25.6779C35.8803 21.9818 34.0132 18.5934 30.8859 16.6137C30.5285 16.3875 30.0555 16.4939 29.8294 16.8511C29.6032 17.2084 29.7096 17.6813 30.0669 17.9076C32.7482 19.6049 34.3489 22.5097 34.3489 25.6779C34.3489 30.745 30.2266 34.8675 25.1594 34.8675C20.0922 34.8675 15.9698 30.7451 15.9698 25.6779C15.9698 20.6107 20.0922 16.4883 25.1594 16.4883C25.8712 16.4883 26.581 16.5703 27.2692 16.7319C27.6809 16.8289 28.0929 16.5733 28.1896 16.1617C28.2863 15.7499 28.0309 15.3379 27.6193 15.2411Z" fill="#134A85"/>
<path d="M8.40833 8.34206C10.3938 8.34206 12.0091 6.72684 12.0091 4.74134C12.0091 2.75585 10.3938 1.14062 8.40833 1.14062C6.42284 1.14062 4.80762 2.75595 4.80762 4.74144C4.80762 6.72684 6.42284 8.34206 8.40833 8.34206ZM8.40833 2.67203C9.54936 2.67203 10.4777 3.60042 10.4777 4.74144C10.4777 5.88247 9.54936 6.81085 8.40833 6.81085C7.26731 6.81085 6.33892 5.88247 6.33892 4.74144C6.33892 3.60042 7.26731 2.67203 8.40833 2.67203Z" fill="#134A85"/>
<path d="M7.63346 39.4766C6.17872 39.4766 4.99512 40.6601 4.99512 42.1148C4.99512 43.5695 6.17861 44.7531 7.63346 44.7531C9.0882 44.7531 10.2717 43.5696 10.2717 42.1148C10.2717 40.6602 9.0882 39.4766 7.63346 39.4766ZM7.63346 43.2218C7.02308 43.2218 6.52642 42.7253 6.52642 42.1148C6.52642 41.5044 7.02298 41.0079 7.63346 41.0079C8.24384 41.0079 8.74039 41.5044 8.74039 42.1148C8.74039 42.7253 8.24384 43.2218 7.63346 43.2218Z" fill="#134A85"/>
<path d="M42.0151 41.6641C40.072 41.6641 38.4912 43.2448 38.4912 45.1879C38.4912 47.131 40.0719 48.7118 42.0151 48.7118C43.9582 48.7118 45.5389 47.131 45.5389 45.1879C45.5389 43.2448 43.9581 41.6641 42.0151 41.6641ZM42.0151 47.1803C40.9164 47.1803 40.0225 46.2866 40.0225 45.1878C40.0225 44.089 40.9163 43.1953 42.0151 43.1953C43.1138 43.1953 44.0076 44.089 44.0076 45.1878C44.0076 46.2866 43.1137 47.1803 42.0151 47.1803Z" fill="#134A85"/>
<path d="M25.4404 22.9309C25.4404 21.0908 23.9434 19.5938 22.1032 19.5938C20.2631 19.5938 18.7661 21.0908 18.7661 22.9309C18.7661 24.771 20.2631 26.268 22.1032 26.268C23.9434 26.268 25.4404 24.7709 25.4404 22.9309ZM22.1032 24.7367C21.1075 24.7367 20.2974 23.9266 20.2974 22.9309C20.2974 21.9351 21.1075 21.1251 22.1032 21.1251C23.099 21.1251 23.9091 21.9351 23.9091 22.9309C23.9091 23.9266 23.099 24.7367 22.1032 24.7367Z" fill="#134A85"/>
<path d="M24.1678 33.4342C25.5551 33.4342 26.6837 32.3055 26.6837 30.9183C26.6837 29.531 25.5551 28.4023 24.1678 28.4023C22.7805 28.4023 21.6519 29.531 21.6519 30.9183C21.6519 32.3056 22.7804 33.4342 24.1678 33.4342ZM24.1678 29.9338C24.7107 29.9338 25.1524 30.3755 25.1524 30.9184C25.1524 31.4613 24.7107 31.903 24.1678 31.903C23.6249 31.903 23.1832 31.4613 23.1832 30.9184C23.1832 30.3755 23.6248 29.9338 24.1678 29.9338Z" fill="#134A85"/>
<path d="M27.4282 25.6768C27.4282 26.9094 28.431 27.9122 29.6636 27.9122C30.8962 27.9122 31.899 26.9094 31.899 25.6768C31.899 24.4442 30.8962 23.4414 29.6636 23.4414C28.431 23.4414 27.4282 24.4441 27.4282 25.6768ZM29.6636 24.9726C30.0519 24.9726 30.3677 25.2885 30.3677 25.6767C30.3677 26.0649 30.0519 26.3808 29.6636 26.3808C29.2754 26.3808 28.9595 26.0649 28.9595 25.6767C28.9595 25.2885 29.2753 24.9726 29.6636 24.9726Z" fill="#134A85"/>
</g>
<defs>
<clipPath id="clip0_71_8799">
<rect width="51" height="51" fill="white"/>
</clipPath>
</defs>
</svg>
