<svg width="52" height="52" viewBox="0 0 52 52" fill="none" xmlns="http://www.w3.org/2000/svg">
<g clip-path="url(#clip0_71_8756)">
<path d="M41.3074 34.0125C41.2955 34.016 41.2835 34.0199 41.2717 34.024L28.8794 38.3833C28.6361 37.1935 27.9366 35.9845 26.7024 35.4349L18.3301 31.6927C16.2896 30.7821 14.5312 31.1383 13.0797 31.607L7.89009 33.287L7.64883 32.462C7.53229 32.064 7.26241 31.7286 6.89856 31.5295C6.5347 31.3304 6.10668 31.2841 5.70864 31.4006L1.62685 32.5949C1.22906 32.7117 0.89375 32.9814 0.6943 33.3449C0.494851 33.7083 0.447505 34.136 0.562622 34.5343L4.93338 49.4757C5.04955 49.874 5.31913 50.2098 5.68284 50.4094C6.04655 50.609 6.47463 50.656 6.87298 50.54L10.9613 49.3447C11.358 49.2271 11.692 48.9573 11.8902 48.5941C12.0884 48.2309 12.1347 47.804 12.019 47.4068L11.6962 46.3036L13.27 45.8909L20.4694 48.524C21.5498 48.9186 22.6743 49.2771 23.8235 49.2771C24.6067 49.2823 25.3795 49.0985 26.0765 48.7413L42.1011 40.5524C42.1064 40.5497 42.1118 40.5469 42.1171 40.544C42.2604 40.466 42.4105 40.3894 42.5696 40.3082C43.7886 39.6857 45.6309 38.7449 44.8921 36.2214C44.4079 34.5672 42.7999 33.577 41.3074 34.0125ZM10.669 47.9265C10.6477 47.9664 10.6116 47.9963 10.5684 48.0096L6.4844 49.2038C6.44051 49.2157 6.39371 49.2101 6.35382 49.1883C6.31393 49.1665 6.28404 49.13 6.27044 49.0866L1.89978 34.1452C1.88749 34.1011 1.89311 34.0539 1.91542 34.0138C1.93648 33.9744 1.97229 33.9449 2.01503 33.9318L2.01652 33.9313L6.1019 32.7359C6.11682 32.7316 6.13228 32.7294 6.14782 32.7294C6.1767 32.7296 6.20507 32.737 6.2304 32.7509C6.24997 32.7614 6.26726 32.7757 6.28126 32.7929C6.29527 32.8101 6.30571 32.83 6.31198 32.8513L10.6838 47.7997C10.69 47.8207 10.6919 47.8428 10.6893 47.8646C10.6868 47.8864 10.6798 47.9074 10.669 47.9265ZM41.9376 39.0683C41.7802 39.1487 41.6176 39.2318 41.4606 39.3173L25.4444 47.5013C24.1402 48.1657 22.8576 47.9138 20.948 47.2165L13.5441 44.5082C13.4108 44.4594 13.2658 44.4524 13.1284 44.4883L11.3056 44.9664L8.28046 34.6229L13.5076 32.9309C15.2308 32.3744 16.4638 32.3839 17.762 32.9633L26.1349 36.705C26.9868 37.0847 27.5835 38.1651 27.5859 39.3322C27.5859 39.3353 27.5865 39.3383 27.5865 39.3412C27.5865 39.3442 27.5859 39.3479 27.5859 39.3512C27.5858 39.6852 27.5256 40.0165 27.408 40.3292C26.858 41.7812 25.4358 41.8333 24.3842 41.4376L18.7485 39.3234C18.6629 39.2913 18.5719 39.2764 18.4805 39.2794C18.3892 39.2825 18.2993 39.3036 18.2161 39.3414C18.1329 39.3792 18.0579 39.433 17.9955 39.4998C17.9331 39.5665 17.8844 39.6449 17.8523 39.7305C17.8202 39.8161 17.8053 39.9072 17.8083 39.9985C17.8114 40.0899 17.8325 40.1797 17.8703 40.2629C17.9081 40.3461 17.9619 40.4211 18.0287 40.4835C18.0954 40.5459 18.1738 40.5946 18.2594 40.6267L23.8947 42.7414C24.4053 42.939 24.9475 43.0427 25.4949 43.0475C26.9479 43.0475 28.1714 42.2458 28.7098 40.8245C28.8305 40.5058 28.9108 40.1733 28.9489 39.8347L41.7137 35.3441C42.4537 35.1396 43.2943 35.7167 43.5565 36.6125C43.9531 37.9664 43.274 38.3857 41.9376 39.0683ZM26.6754 14.7138C24.8725 14.9873 23.2533 15.8494 21.9389 17.2484C20.4774 18.8036 19.4744 20.9712 19.1146 23.3516L18.7334 25.8701C18.6408 26.4307 18.6743 27.0048 18.8315 27.5508C18.9887 28.0968 19.2657 28.6009 19.6422 29.0264C21.452 31.1303 28.0506 31.2947 30.0397 31.2947H30.0453C31.5066 31.2947 38.8893 31.1841 40.7453 29.0271C41.122 28.6016 41.3991 28.0975 41.5565 27.5515C41.7138 27.0054 41.7474 26.4311 41.6548 25.8705L41.2737 23.3518C40.9139 20.9712 39.9107 18.8036 38.4492 17.2484C37.1349 15.8499 35.5158 14.9872 33.7128 14.7138C34.0263 14.4535 34.3144 14.1641 34.5732 13.8494C35.8196 12.3363 36.4783 10.2037 36.4783 7.68259C36.4783 6.01593 35.8162 4.41753 34.6377 3.23902C33.4592 2.06052 31.8608 1.39844 30.1941 1.39844C28.5275 1.39844 26.9291 2.06052 25.7506 3.23902C24.572 4.41753 23.91 6.01593 23.91 7.68259C23.91 10.2039 24.5687 12.3363 25.815 13.8494C26.0737 14.1642 26.3617 14.4538 26.675 14.7142L26.6754 14.7138ZM39.8968 23.5603L40.2781 26.0795C40.3402 26.4416 40.3196 26.8131 40.2179 27.1661C40.1162 27.5191 39.9361 27.8446 39.6909 28.1182L39.6901 28.1191C38.9286 29.0049 35.3709 29.9021 30.0447 29.9029H30.0379C25.4418 29.9029 21.601 29.1694 20.6966 28.1181C20.4513 27.8445 20.271 27.519 20.1692 27.1659C20.0674 26.8128 20.0468 26.4413 20.1089 26.0791L20.4907 23.5603C21.0584 19.803 23.584 16.0116 27.946 16.0116H32.4414C36.8033 16.0115 39.3288 19.8029 39.8968 23.5603ZM30.1936 2.79088C31.4906 2.79233 32.734 3.30815 33.6512 4.2252C34.5683 5.14225 35.0843 6.38563 35.0858 7.68259C35.0858 12.4484 32.5499 14.619 30.1937 14.619C27.8376 14.619 25.3016 12.4488 25.3016 7.68259C25.3032 6.38566 25.8191 5.14231 26.7362 4.22527C27.6533 3.30823 28.8967 2.79238 30.1936 2.79088ZM5.25213 34.9382C5.27544 35.0273 5.28086 35.1201 5.26806 35.2112C5.25526 35.3024 5.22451 35.3901 5.17758 35.4693C5.13065 35.5485 5.06848 35.6176 4.99466 35.6726C4.92085 35.7276 4.83685 35.7674 4.74755 35.7898C4.65824 35.8121 4.56539 35.8165 4.47437 35.8027C4.38335 35.7889 4.29598 35.7571 4.21731 35.7093C4.13863 35.6615 4.07022 35.5986 4.01604 35.5242C3.96185 35.4498 3.92296 35.3653 3.90163 35.2758L3.89884 35.2644C3.87668 35.1758 3.8722 35.0836 3.88567 34.9932C3.89913 34.9028 3.93027 34.8159 3.9773 34.7375C4.02433 34.6592 4.08634 34.5908 4.15979 34.5364C4.23323 34.482 4.31668 34.4426 4.40535 34.4204C4.49403 34.3983 4.5862 34.3938 4.6766 34.4073C4.76701 34.4207 4.85388 34.4519 4.93225 34.4989C5.01062 34.5459 5.07896 34.6079 5.13337 34.6814C5.18778 34.7548 5.22718 34.8383 5.24934 34.927L5.25213 34.9382ZM39.8495 9.16677V15.1883C39.8516 15.3714 39.9259 15.5463 40.0562 15.6751C40.1865 15.8038 40.3623 15.876 40.5455 15.876C40.7286 15.876 40.9044 15.8038 41.0347 15.6751C41.165 15.5463 41.2393 15.3714 41.2415 15.1883V9.16677C41.6831 9.02082 42.0674 8.73936 42.3398 8.36242C42.6122 7.98547 42.7589 7.53223 42.7589 7.06716C42.7589 6.60208 42.6122 6.14884 42.3398 5.7719C42.0674 5.39495 41.6831 5.11349 41.2415 4.96754V3.76356C41.2393 3.58041 41.165 3.4055 41.0347 3.27676C40.9044 3.14802 40.7286 3.07582 40.5455 3.07582C40.3623 3.07582 40.1865 3.14802 40.0562 3.27676C39.9259 3.4055 39.8516 3.58041 39.8495 3.76356V4.96774C39.4079 5.11369 39.0236 5.39515 38.7511 5.7721C38.4787 6.14904 38.3321 6.60228 38.3321 7.06736C38.3321 7.53243 38.4787 7.98567 38.7511 8.36262C39.0236 8.73956 39.4079 9.02102 39.8495 9.16697V9.16677ZM40.5454 6.24682C40.7077 6.2468 40.8663 6.2949 41.0012 6.38503C41.1362 6.47517 41.2413 6.60329 41.3034 6.75319C41.3655 6.90309 41.3818 7.06805 41.3502 7.22719C41.3185 7.38634 41.2404 7.53253 41.1257 7.64727C41.0109 7.76201 40.8648 7.84016 40.7056 7.87182C40.5465 7.90348 40.3815 7.88724 40.2316 7.82515C40.0817 7.76306 39.9536 7.65791 39.8634 7.523C39.7733 7.38808 39.7251 7.22947 39.7251 7.06721C39.7255 6.84976 39.812 6.64131 39.9658 6.48756C40.1195 6.33382 40.328 6.24731 40.5454 6.24702V6.24682ZM10.5293 19.8573C11.0597 19.858 11.5683 20.0689 11.9433 20.444C12.3184 20.8191 12.5293 21.3276 12.5299 21.858C12.5299 22.0426 12.6032 22.2197 12.7338 22.3502C12.8643 22.4807 13.0414 22.5541 13.226 22.5541C13.4106 22.5541 13.5876 22.4807 13.7182 22.3502C13.8487 22.2197 13.922 22.0426 13.922 21.858C13.9226 21.3276 14.1336 20.8191 14.5086 20.444C14.8837 20.0689 15.3922 19.858 15.9226 19.8573C16.0147 19.8585 16.1061 19.8413 16.1915 19.8068C16.2769 19.7723 16.3546 19.7212 16.4202 19.6565C16.4857 19.5917 16.5377 19.5146 16.5732 19.4296C16.6087 19.3446 16.627 19.2534 16.627 19.1613C16.627 19.0692 16.6087 18.978 16.5732 18.893C16.5377 18.808 16.4857 18.7309 16.4202 18.6662C16.3546 18.6015 16.2769 18.5504 16.1915 18.5159C16.1061 18.4814 16.0147 18.4642 15.9226 18.4653C15.3922 18.4647 14.8837 18.2538 14.5086 17.8787C14.1336 17.5037 13.9226 16.9952 13.922 16.4648C13.922 16.2801 13.8487 16.1031 13.7182 15.9726C13.5876 15.842 13.4106 15.7687 13.226 15.7687C13.0414 15.7687 12.8643 15.842 12.7338 15.9726C12.6032 16.1031 12.5299 16.2801 12.5299 16.4648C12.5293 16.9951 12.3183 17.5036 11.9433 17.8787C11.5682 18.2537 11.0597 18.4647 10.5293 18.4653C10.4372 18.4642 10.3458 18.4814 10.2604 18.5159C10.175 18.5504 10.0973 18.6015 10.0318 18.6662C9.96625 18.7309 9.91423 18.808 9.87873 18.893C9.84322 18.978 9.82494 19.0692 9.82494 19.1613C9.82494 19.2534 9.84322 19.3446 9.87873 19.4296C9.91423 19.5146 9.96625 19.5917 10.0318 19.6565C10.0973 19.7212 10.175 19.7723 10.2604 19.8068C10.3458 19.8413 10.4372 19.8585 10.5293 19.8573ZM13.226 18.5214C13.41 18.7621 13.6252 18.9773 13.866 19.1614C13.6252 19.3454 13.41 19.5607 13.226 19.8015C13.0419 19.5607 12.8267 19.3454 12.5859 19.1614C12.8266 18.9773 13.0419 18.7621 13.226 18.5214ZM49.9838 5.78384V3.76356C49.9838 3.57895 49.9105 3.4019 49.7799 3.27137C49.6494 3.14083 49.4724 3.06749 49.2877 3.06749C49.1031 3.06749 48.9261 3.14083 48.7955 3.27137C48.665 3.4019 48.5917 3.57895 48.5917 3.76356V5.78384C48.1501 5.92979 47.7658 6.21125 47.4934 6.5882C47.2209 6.96514 47.0743 7.41838 47.0743 7.88346C47.0743 8.34853 47.2209 8.80177 47.4934 9.17872C47.7658 9.55566 48.1501 9.83712 48.5917 9.98307V15.1885C48.5917 15.3731 48.665 15.5501 48.7955 15.6807C48.9261 15.8112 49.1031 15.8845 49.2877 15.8845C49.4724 15.8845 49.6494 15.8112 49.7799 15.6807C49.9105 15.5501 49.9838 15.3731 49.9838 15.1885V9.98297C50.4254 9.837 50.8096 9.55553 51.082 9.1786C51.3544 8.80167 51.501 8.34846 51.501 7.88341C51.501 7.41836 51.3544 6.96514 51.082 6.58821C50.8096 6.21128 50.4254 5.92981 49.9838 5.78384ZM49.2877 8.70379C49.1255 8.70381 48.9669 8.65571 48.8319 8.56557C48.697 8.47543 48.5918 8.34731 48.5297 8.1974C48.4676 8.04749 48.4514 7.88253 48.483 7.72338C48.5147 7.56423 48.5928 7.41805 48.7075 7.30331C48.8223 7.18857 48.9685 7.11043 49.1276 7.07878C49.2868 7.04713 49.4517 7.06339 49.6016 7.12549C49.7515 7.1876 49.8797 7.29276 49.9698 7.42769C50.0599 7.56261 50.108 7.72124 50.108 7.88351C50.1077 8.10097 50.0212 8.30944 49.8675 8.46321C49.7137 8.61698 49.5052 8.7035 49.2877 8.70379ZM15.2788 12.7811C15.9784 12.7819 16.6491 13.0602 17.1438 13.5549C17.6385 14.0496 17.9168 14.7203 17.9176 15.4199C17.9165 15.5121 17.9337 15.6035 17.9681 15.6889C18.0026 15.7743 18.0537 15.852 18.1185 15.9175C18.1832 15.983 18.2603 16.0351 18.3453 16.0706C18.4303 16.1061 18.5215 16.1243 18.6136 16.1243C18.7057 16.1243 18.7969 16.1061 18.8819 16.0706C18.9669 16.0351 19.044 15.983 19.1087 15.9175C19.1735 15.852 19.2245 15.7743 19.259 15.6889C19.2935 15.6035 19.3107 15.5121 19.3096 15.4199C19.3108 14.72 19.5896 14.049 20.0848 13.5543C20.58 13.0596 21.2513 12.7815 21.9512 12.7811C22.1344 12.7789 22.3093 12.7046 22.4381 12.5743C22.5668 12.444 22.639 12.2682 22.639 12.0851C22.639 11.9019 22.5668 11.7261 22.4381 11.5958C22.3093 11.4655 22.1344 11.3912 21.9512 11.3891C21.2509 11.3883 20.5794 11.1097 20.0842 10.6145C19.589 10.1193 19.3104 9.44787 19.3096 8.74752C19.3107 8.65541 19.2935 8.56401 19.259 8.4786C19.2245 8.39319 19.1735 8.31547 19.1087 8.24995C19.044 8.18443 18.9669 8.13241 18.8819 8.09691C18.7969 8.0614 18.7057 8.04312 18.6136 8.04312C18.5215 8.04312 18.4303 8.0614 18.3453 8.09691C18.2603 8.13241 18.1832 8.18443 18.1185 8.24995C18.0537 8.31547 18.0026 8.39319 17.9681 8.4786C17.9337 8.56401 17.9165 8.65541 17.9176 8.74752C17.9171 9.44749 17.6391 10.1187 17.1444 10.6139C16.6497 11.1091 15.9788 11.3879 15.2788 11.3891C15.1867 11.388 15.0953 11.4051 15.0099 11.4396C14.9245 11.4741 14.8468 11.5252 14.7812 11.5899C14.7157 11.6547 14.6637 11.7318 14.6282 11.8168C14.5927 11.9018 14.5744 11.993 14.5744 12.0851C14.5744 12.1772 14.5927 12.2684 14.6282 12.3534C14.6637 12.4384 14.7157 12.5155 14.7812 12.5802C14.8468 12.645 14.9245 12.696 15.0099 12.7305C15.0953 12.765 15.1867 12.7822 15.2788 12.7811ZM18.6138 11.0107C18.9012 11.4333 19.2656 11.7978 19.688 12.0853C19.2657 12.3724 18.9013 12.7366 18.6138 13.1587C18.3267 12.7366 17.9625 12.3725 17.5404 12.0853C17.9626 11.7978 18.3268 11.4332 18.6138 11.0107ZM45.6132 9.87559V3.76356C45.6132 3.57895 45.5398 3.4019 45.4093 3.27137C45.2787 3.14083 45.1017 3.06749 44.9171 3.06749C44.7325 3.06749 44.5554 3.14083 44.4249 3.27137C44.2943 3.4019 44.221 3.57895 44.221 3.76356V9.87559C43.7796 10.0221 43.3956 10.3039 43.1234 10.681C42.8512 11.0582 42.7047 11.5114 42.7047 11.9765C42.7047 12.4416 42.8512 12.8949 43.1234 13.272C43.3956 13.6491 43.7796 13.9309 44.221 14.0774V15.1885C44.221 15.3731 44.2943 15.5501 44.4249 15.6807C44.5554 15.8112 44.7325 15.8845 44.9171 15.8845C45.1017 15.8845 45.2787 15.8112 45.4093 15.6807C45.5398 15.5501 45.6132 15.3731 45.6132 15.1885V14.0775C46.0546 13.931 46.4386 13.6492 46.7108 13.2721C46.983 12.895 47.1294 12.4417 47.1294 11.9766C47.1294 11.5115 46.983 11.0583 46.7108 10.6811C46.4386 10.304 46.0546 10.0221 45.6132 9.87559ZM44.9171 12.7981C44.7544 12.7984 44.5953 12.7504 44.46 12.6603C44.3246 12.5701 44.2191 12.4418 44.1567 12.2916C44.0943 12.1413 44.0779 11.976 44.1095 11.8164C44.1412 11.6569 44.2195 11.5103 44.3345 11.3953C44.4495 11.2803 44.596 11.202 44.7556 11.1703C44.9151 11.1386 45.0805 11.155 45.2307 11.2174C45.3809 11.2798 45.5092 11.3853 45.5994 11.5207C45.6896 11.656 45.7376 11.8151 45.7374 11.9778C45.7372 12.1953 45.6506 12.4039 45.4967 12.5578C45.3428 12.7116 45.1342 12.798 44.9166 12.7981H44.9171Z" fill="#134A85"/>
</g>
<defs>
<clipPath id="clip0_71_8756">
<rect width="51" height="51" fill="white" transform="translate(0.5 0.5)"/>
</clipPath>
</defs>
</svg>
