<svg width="51" height="51" viewBox="0 0 51 51" fill="none" xmlns="http://www.w3.org/2000/svg">
<g clip-path="url(#clip0_71_8763)">
<path d="M50.9949 11.993C50.9298 10.5341 49.687 9.40034 48.2308 9.46509C47.91 9.48053 47.6259 9.28051 47.5313 8.98188C47.1643 7.82263 46.4027 6.62482 45.387 5.60921C44.3712 4.59349 43.1734 3.83188 42.0144 3.46492C41.7157 3.37039 41.517 3.08262 41.5312 2.76536C41.5627 2.05863 41.3172 1.38198 40.8398 0.859832C39.9006 -0.211068 38.1282 -0.288764 37.0975 0.692787C36.5754 1.17022 36.2705 1.82236 36.239 2.52919C36.2382 2.95243 36.0729 5.10738 36.1658 5.4825L29.6293 12.019L29.4834 11.4743C29.3793 11.0854 28.9796 10.8543 28.5906 10.9588C28.2017 11.063 27.9709 11.4628 28.0752 11.8516L28.2605 12.543L27.5691 12.3577C27.18 12.2532 26.7804 12.4842 26.6763 12.8732C26.5721 13.2622 26.8028 13.6619 27.1918 13.766L27.7365 13.9119L21.9215 19.7269C21.0085 20.6399 20.3089 21.7695 19.8984 22.9939L17.5793 29.9091C17.4767 30.2152 17.3017 30.4979 17.0732 30.7264L9.29806 38.5014C8.71166 39.077 8.9061 39.9746 9.52208 40.4438L6.57723 43.388L6.44236 43.2531C5.93087 42.7417 5.09843 42.7414 4.58654 43.2532L3.02576 44.8141C2.62593 44.7153 2.18565 44.8206 1.87378 45.1323L0.355232 46.6509C-0.118411 47.1246 -0.118411 47.8954 0.355232 48.3691L2.62692 50.6407C3.07905 51.1124 3.89306 51.1122 4.34538 50.6409L5.86393 49.1223C6.17551 48.8105 6.2806 48.3703 6.18198 47.9706L7.74296 46.4097C8.25455 45.8981 8.25455 45.0655 7.74296 44.5539L7.60809 44.419L10.5525 41.4747L10.7765 41.6986C11.2501 42.1722 12.021 42.1721 12.4948 41.6986L20.2697 33.9236C20.4981 33.6951 20.7808 33.5201 21.0871 33.4173L28.0022 31.0982C29.0071 30.7613 29.9481 30.2292 30.758 29.5445C30.9125 31.3099 30.9238 33.3466 30.911 35.1265C30.911 36.0769 30.3137 36.9412 29.4248 37.2773L20.9698 40.4748C20.6447 40.5977 20.3529 40.7808 20.1048 41.0081C19.6213 41.0297 19.1516 41.1887 18.7536 41.4746C18.2729 41.8851 17.6545 42.0532 17.0299 41.9985L15.6424 41.5219C15.2807 41.3978 14.8916 41.3946 14.5469 41.5131C13.4462 41.8916 12.7066 42.9276 12.7066 44.0908C12.7066 44.931 13.0885 45.6834 13.6876 46.1843C13.3911 46.5552 13.2131 47.0251 13.2131 47.5359C13.2131 48.7315 14.1859 49.7043 15.3815 49.7043H26.7117C27.582 49.7043 28.4625 49.6646 29.3291 49.5863C31.4296 49.4464 35.7241 48.8264 37.7758 49.1313L42.4285 49.6384C43.5815 49.7641 44.719 49.5865 45.7182 49.1248C47.9475 48.0949 49.3879 45.8434 49.3879 43.3885C49.3879 42.5487 49.2255 41.7329 48.9047 40.9634C47.8084 38.3323 47.2477 35.4367 47.2382 32.3571C47.1955 30.5616 47.6103 28.5772 47.9812 26.82C48.0608 26.4255 47.8056 26.0409 47.4109 25.9612C47.0163 25.8815 46.6318 26.1368 46.5521 26.5315L46.3935 27.3166L42.7897 27.734L31.8654 24.3393L31.7177 22.1687C31.6946 21.8291 31.8098 21.5053 32.0421 21.2566C32.2744 21.008 32.5897 20.8712 32.9299 20.8712H46.2102C46.9554 20.8523 47.5671 21.6001 47.4012 22.3267L47.1905 23.3707C47.1108 23.7652 47.3661 24.1498 47.7607 24.2295C48.1555 24.3094 48.5399 24.0539 48.6196 23.6592L48.8303 22.6153C49.1956 21.0167 47.8494 19.3716 46.2102 19.4132H40.9315L45.5144 14.8301C45.9736 14.9265 48.228 14.7443 48.4671 14.7575C49.8908 14.7234 51.088 13.414 50.9949 11.993ZM3.48625 49.438L1.55811 47.51L2.73301 46.3352L4.66105 48.2632L3.48625 49.438ZM5.27524 46.8154L4.18083 45.721L5.5146 44.3872L6.60901 45.4816L5.27524 46.8154ZM30.2384 28.0439C29.484 28.7985 28.5505 29.3765 27.5388 29.7159L20.6236 32.0349C20.1047 32.209 19.626 32.5055 19.2389 32.8924L11.6358 40.4956L10.5005 39.3603L18.1038 31.7572C18.4909 31.37 18.7874 30.8911 18.9613 30.3724L21.2803 23.4573C21.6196 22.4456 22.1977 21.5121 22.9521 20.7578L36.8494 6.8606C36.8677 6.88012 37.8788 7.89295 37.8788 7.89295L31.8377 13.9341C31.2947 13.9857 30.7659 14.2188 30.351 14.6337C29.9362 15.0486 29.703 15.5773 29.6515 16.1202L23.9832 21.7886C23.3874 22.3844 22.9309 23.1216 22.6628 23.9209L21.026 28.8012C20.7662 29.4937 21.5056 30.231 22.1951 29.9701L27.0751 28.3334C27.8744 28.0653 28.6116 27.6087 29.2075 27.013L30.4981 25.7223L30.6294 27.6529L30.2384 28.0439ZM33.7555 19.413L31.3821 17.0395C31.003 16.6604 31.003 16.0437 31.3821 15.6646C31.761 15.2856 32.3779 15.2854 32.7569 15.6646L35.3316 18.2393C35.647 18.5546 35.7031 19.0379 35.4854 19.4129L33.7555 19.413ZM36.6303 17.5283C36.5511 17.416 36.4626 17.3084 36.3625 17.2083L33.7878 14.6336C33.6876 14.5334 33.5804 14.4445 33.4684 14.3655L38.9098 8.92401L42.0721 12.0863L36.6303 17.5283ZM46.0951 28.8188C45.883 29.9862 45.7765 31.1759 45.7803 32.3616C45.7858 34.0976 45.9585 35.7797 46.2927 37.3966L32.3688 33.0695C32.3677 32.189 32.3373 31.2982 32.2786 30.4192L46.0951 28.8188ZM29.6767 48.091L24.9381 40.5329L25.4829 40.3269L34.1841 47.6844L29.6767 48.091ZM27.0431 39.7368L28.6592 39.1257L29.4503 41.7724L27.0431 39.7368ZM15.0211 42.8918C15.6253 42.9585 16.6035 43.4593 17.3688 43.4593C18.0303 43.4593 18.6655 43.2737 19.2215 42.9231C19.2205 42.9521 19.2182 45.3611 19.2182 45.3611H15.435C14.7345 45.3611 14.1647 44.7913 14.1647 44.0908C14.1647 43.5498 14.5089 43.068 15.0211 42.8918ZM15.3816 48.2462C14.9898 48.2462 14.6712 47.9276 14.6712 47.5358C14.6712 47.144 14.9898 46.8253 15.3816 46.8253H19.8327C20.289 46.8674 20.6868 46.5683 20.6762 46.0838V43.0099C20.6762 42.4924 21.0016 42.0216 21.4858 41.8384L23.547 41.059L28.0328 48.2138C27.8575 48.2738 16.0039 48.2368 15.3816 48.2462ZM45.1068 47.801C44.9252 47.8849 44.7368 47.9556 44.5436 48.0145L38.667 39.8385C38.432 39.5113 37.9761 39.437 37.6496 39.672C37.3226 39.907 37.2481 40.3625 37.4831 40.6894L42.8903 48.2123C42.7894 48.2073 42.6881 48.2001 42.5866 48.1889L37.9339 47.6818C37.3998 47.6236 36.8619 47.5916 36.3237 47.5842L31.4869 43.4943L30.0261 38.6069C31.4313 38.0353 32.3693 36.6487 32.3693 35.1264V34.5964L33.3154 34.8904L35.7523 38.2809C35.9886 38.6101 36.4464 38.6808 36.7697 38.4473C37.0966 38.2123 37.1713 37.7568 36.9362 37.4299L35.6272 35.6087L46.6978 39.049C46.9385 39.8949 47.2247 40.7209 47.5592 41.524C48.574 43.8615 47.4369 46.7665 45.1068 47.801ZM39.2108 28.1485L32.1799 28.9629L31.9715 25.8988L39.2108 28.1485ZM30.9768 20.2611C30.4732 20.8002 30.2131 21.5315 30.2632 22.2675L30.3669 23.7917L28.1765 25.9821C27.7393 26.4194 27.1982 26.7545 26.6117 26.9513L22.7499 28.2464L24.045 24.3847C24.2418 23.7982 24.5768 23.257 25.0142 22.8198L30.083 17.7511C30.1619 17.8633 30.2509 17.9704 30.3511 18.0706L31.9012 19.6208C31.5542 19.7655 31.2374 19.9821 30.9768 20.2611ZM38.8843 19.3981C38.8796 19.4029 38.8755 19.4082 38.8709 19.4131H37.0251C37.0423 19.3289 37.0537 19.244 37.0618 19.1589L43.1032 13.1175C43.1032 13.1175 44.1159 14.1285 44.1354 14.1469L38.8843 19.3981ZM49.5385 12.0581C49.5801 12.697 49.0422 13.2854 48.402 13.3008L46.0035 13.408C45.6698 13.4232 45.344 13.2961 45.1082 13.0603L37.9358 5.88781C37.7 5.65214 37.5734 5.32602 37.5881 4.99302L37.6953 2.59403C37.7046 1.56517 39.0975 1.06045 39.7636 1.84367C39.9783 2.07845 40.0887 2.38266 40.0746 2.70031C40.0311 3.67559 40.6477 4.56142 41.5743 4.85487C42.5146 5.1525 43.5025 5.78661 44.3561 6.64016C45.2095 7.49352 45.8435 8.48144 46.1413 9.42186C46.4347 10.3485 47.3172 10.9664 48.2958 10.9216C48.9497 10.8936 49.5092 11.4022 49.5385 12.0581Z" fill="#134A85"/>
</g>
<defs>
<clipPath id="clip0_71_8763">
<rect width="51" height="51" fill="white"/>
</clipPath>
</defs>
</svg>
