<svg width="51" height="51" viewBox="0 0 51 51" fill="none" xmlns="http://www.w3.org/2000/svg">
<g clip-path="url(#clip0_71_8782)">
<path d="M1.17086 26.1742C1.22614 26.1866 1.28133 26.1926 1.33571 26.1926C1.67737 26.1926 1.98566 25.9567 2.06385 25.6095C2.39057 24.1588 3.24123 22.8783 4.45915 22.0041C5.19865 21.4676 6.06007 21.1109 6.95635 20.9528C7.28068 21.9079 8.02396 22.6705 8.97293 23.0139C9.0577 23.0449 9.14426 23.0595 9.22953 23.0595C9.53423 23.0595 9.82051 22.8716 9.93117 22.5688C10.0728 22.1813 9.8736 21.7523 9.48612 21.6106C8.52778 21.2602 8.03332 20.1953 8.38375 19.237C8.47917 18.9758 8.62719 18.7457 8.82362 18.553C9.11806 18.2639 9.12245 17.791 8.83338 17.4965C8.54432 17.2022 8.07137 17.1978 7.77693 17.4868C7.24113 18.0079 6.8923 18.722 6.80196 19.4634C5.96544 19.598 5.15472 19.8737 4.40915 20.2755C4.31004 19.896 4.25864 19.5049 4.25864 19.1052C4.25864 17.1582 5.48831 15.4053 7.31863 14.7436C7.69953 14.606 7.90134 14.1898 7.77354 13.8055C7.68519 13.5395 7.64036 13.2626 7.64036 12.9823C7.64036 11.5394 8.81465 10.3655 10.2581 10.3655C11.3094 10.3589 12.2831 11.0101 12.6787 11.9856C12.7975 12.2738 13.076 12.448 13.3697 12.448C13.4645 12.448 13.5609 12.4298 13.6542 12.3915C14.0356 12.2342 14.2173 11.7975 14.0601 11.4161C13.6186 10.3452 12.7568 9.52502 11.6926 9.13007C11.9217 6.95143 13.6651 5.21783 15.8478 5.00437C15.8047 5.85453 15.9853 6.71047 16.3729 7.47149C15.8169 8.03916 15.4836 8.77766 15.4287 9.57911C15.4005 9.9908 15.7114 10.3473 16.123 10.3755C16.1403 10.3767 16.1576 10.3773 16.1748 10.3773C16.5641 10.3773 16.8923 10.0755 16.9193 9.68121C16.9531 9.18805 17.1768 8.73761 17.5495 8.41279C17.922 8.08796 18.3984 7.92749 18.892 7.96146C19.1695 7.98049 19.4317 8.05848 19.6715 8.19335C20.0312 8.39566 20.4867 8.26816 20.6889 7.90857C20.8912 7.54898 20.7636 7.09347 20.4042 6.89116C19.9693 6.64652 19.4948 6.50508 18.9941 6.47081C18.5265 6.43894 18.0671 6.50448 17.6385 6.65798C17.3278 5.97456 17.25 5.19393 17.4294 4.4615L17.4307 4.45642C17.985 2.68428 19.6034 1.49465 21.4634 1.49465C22.5263 1.49465 23.5237 1.88352 24.3033 2.59383V25.4196C24.0895 25.6962 23.8256 25.9248 23.5166 26.0997C22.9036 26.4464 22.1921 26.5337 21.5132 26.3454C20.8345 26.157 20.2697 25.7157 19.9228 25.1026C19.7197 24.7435 19.2639 24.6171 18.9047 24.8201C18.5457 25.0233 18.4192 25.479 18.6223 25.8382C19.1655 26.7987 20.0504 27.4901 21.1138 27.7851C21.4808 27.8869 21.8539 27.9373 22.2246 27.9373C22.9281 27.9373 23.6232 27.756 24.2522 27.4002C24.2695 27.3903 24.286 27.3794 24.3033 27.3694V38.6338C24.3033 39.0463 24.6377 39.3808 25.0503 39.3808C25.4629 39.3808 25.7974 39.0463 25.7974 38.6338V27.3696C26.4348 27.7462 27.1541 27.9366 27.8752 27.937C28.246 27.937 28.6191 27.8866 28.9861 27.7848C30.0494 27.4898 30.9342 26.7984 31.4775 25.8379C31.6806 25.4788 31.5542 25.023 31.195 24.8198C30.8358 24.6167 30.38 24.7431 30.1769 25.1023C29.8302 25.7154 29.2654 26.1567 28.5865 26.3451C27.9077 26.5333 27.1962 26.4462 26.5831 26.0993C26.2746 25.9247 26.011 25.6965 25.7973 25.4204V2.59333C26.6229 1.8376 27.7134 1.44385 28.8398 1.49943C29.2524 1.51925 29.6028 1.20269 29.6234 0.790611C29.644 0.378528 29.3266 0.0277054 28.9146 0.00708639C27.5048 -0.0628391 26.1293 0.386796 25.05 1.26445C24.0371 0.444669 22.7875 0.000213365 21.4633 0.000213365C19.1329 0.000213365 17.0822 1.3802 16.1951 3.48842C13.1162 3.54161 10.5831 5.87665 10.2178 8.87159C7.96897 8.8932 6.14633 10.7289 6.14633 12.9823C6.14633 13.19 6.16197 13.3968 6.19315 13.601C4.11799 14.6217 2.7646 16.7565 2.7646 19.1051C2.7646 19.8123 2.88294 20.5 3.11712 21.1569C1.85328 22.2222 0.970049 23.6667 0.606376 25.2812C0.515533 25.6837 0.76834 26.0835 1.17086 26.1742Z" fill="#134A85"/>
<path d="M9.42382 27.2775C9.23407 27.2775 9.04192 27.2648 8.84878 27.2385C8.43988 27.183 8.06346 27.4693 8.00788 27.8781C7.95229 28.2869 8.23857 28.6634 8.64747 28.719C8.91014 28.7546 9.17231 28.7724 9.43289 28.7724C10.8345 28.7761 12.2176 28.245 13.2687 27.2893C14.1983 27.8556 14.945 28.7162 15.1469 29.8084C15.2191 30.1622 15.5305 30.4061 15.8781 30.4061C15.9276 30.4061 15.9779 30.4012 16.0283 30.3909C16.4326 30.3083 16.6934 29.9138 16.6109 29.5095C16.3333 28.0992 15.4521 26.9101 14.2441 26.148C14.6961 25.4494 14.9929 24.6541 15.1084 23.805C15.2246 22.9515 15.1516 22.1052 14.8914 21.2898C14.766 20.8967 14.3456 20.6795 13.9526 20.8052C13.5595 20.9306 13.3425 21.351 13.468 21.744C13.6601 22.3462 13.7139 22.9719 13.6279 23.6037C13.3386 25.7303 11.513 27.2777 9.42382 27.2775Z" fill="#134A85"/>
<path d="M18.0217 16.317C17.9372 16.2764 17.8516 16.2372 17.764 16.2012C16.5919 15.7193 15.3024 15.7226 14.1329 16.2107C13.7521 16.3696 13.5723 16.8071 13.7312 17.1879C13.89 17.5687 14.3277 17.7486 14.7083 17.5896C15.5095 17.2553 16.3929 17.253 17.1959 17.5831C17.9988 17.9132 18.6251 18.5363 18.9595 19.3375C19.1475 19.7882 19.2309 20.2616 19.2073 20.7446C19.1872 21.1567 19.505 21.5071 19.9171 21.5272C19.9295 21.5278 19.9418 21.5281 19.9541 21.5281C20.35 21.5281 20.6802 21.2171 20.6996 20.8173C20.7341 20.1107 20.6125 19.4192 20.3383 18.7621C20.0845 18.154 19.7148 17.6171 19.2542 17.1731L19.3509 17.0583C20.375 15.8427 20.6309 14.1764 20.0188 12.7095C19.8599 12.3287 19.4225 12.1489 19.0416 12.3078C18.6608 12.4667 18.481 12.9042 18.6399 13.285C19.0355 14.2331 18.8701 15.31 18.2082 16.0957L18.0217 16.317Z" fill="#134A85"/>
<path d="M21.6799 34.0689C21.8532 33.6945 21.6902 33.2504 21.3158 33.0771C20.9416 32.9038 20.4973 33.0668 20.324 33.4412C19.8228 34.5238 18.93 35.3465 17.81 35.7576C16.69 36.1688 15.4769 36.1191 14.3943 35.6178C13.7854 35.3359 13.2613 34.9337 12.8365 34.4223C12.5729 34.105 12.1019 34.0614 11.7844 34.325C11.467 34.5886 11.4234 35.0596 11.6871 35.3771C12.2549 36.0607 12.9546 36.5979 13.7664 36.9738C14.584 37.3512 15.4558 37.5396 16.3318 37.5272C16.2963 39.6507 17.4607 41.6246 19.4078 42.5119C19.5094 42.5589 19.6161 42.5812 19.7212 42.5812C20.0033 42.5812 20.2733 42.4207 20.3996 42.1478C20.5729 41.7734 20.41 41.3293 20.0355 41.156C18.5341 40.4852 17.7513 38.9266 17.8186 37.3215C19.5234 36.8636 20.9428 35.6738 21.6799 34.0689Z" fill="#134A85"/>
<path d="M36.1468 20.8051C35.7536 20.6796 35.3333 20.8967 35.2079 21.2897C34.9478 22.105 34.8747 22.9513 34.9909 23.8049C35.1082 24.6678 35.4137 25.4592 35.8587 26.1456C34.6492 26.908 33.7661 28.0976 33.4884 29.5096C33.4059 29.9139 33.6667 30.3084 34.071 30.391C34.1214 30.4013 34.1717 30.4063 34.2212 30.4063C34.5688 30.4063 34.8802 30.1623 34.9524 29.8085C35.1544 28.7151 35.9026 27.8544 36.833 27.2877C37.8631 28.217 39.2212 28.7719 40.6745 28.7718C40.931 28.7718 41.1909 28.7545 41.4519 28.719C41.8607 28.6634 42.1471 28.2869 42.0915 27.8781C42.036 27.4693 41.6596 27.1831 41.2506 27.2385C38.9312 27.5545 36.787 25.9234 36.4716 23.6037C36.3856 22.9718 36.4395 22.3462 36.6315 21.744C36.7568 21.3509 36.5397 20.9305 36.1468 20.8051Z" fill="#134A85"/>
<path d="M29.7606 18.7622C29.4864 19.4195 29.3647 20.111 29.3993 20.8176C29.4188 21.2173 29.749 21.5282 30.1449 21.5282C30.1572 21.5282 30.1696 21.5279 30.1819 21.5273C30.594 21.5072 30.9118 21.1568 30.8916 20.7447C30.868 20.2617 30.9514 19.7882 31.1395 19.3376C31.4738 18.5364 32.1001 17.9134 32.9031 17.5832C33.706 17.2531 34.5893 17.2554 35.3906 17.5896C35.7714 17.7486 36.2088 17.5688 36.3678 17.1879C36.5266 16.8071 36.3468 16.3696 35.966 16.2108C34.713 15.6852 33.3001 15.724 32.0773 16.317C31.2948 15.5121 31.0118 14.3308 31.4591 13.2849C31.618 12.9041 31.4381 12.4666 31.0573 12.3078C30.6766 12.149 30.239 12.3288 30.0801 12.7096C29.4446 14.2234 29.7497 15.9537 30.8448 17.1732C30.3841 17.6172 30.0144 18.1541 29.7606 18.7622Z" fill="#134A85"/>
<path d="M46.7177 32.98C48.5854 31.5478 49.68 29.3506 49.68 26.9624C49.68 24.723 48.6813 22.5952 46.9816 21.1592C47.2158 20.5024 47.3343 19.8145 47.3343 19.1071C47.3343 16.7584 45.981 14.6236 43.9057 13.603C43.9369 13.3988 43.9525 13.1921 43.9525 12.9842C43.9525 10.7306 42.1298 8.89479 39.8811 8.87357C39.5158 5.87823 36.9824 3.543 33.9028 3.4904C33.6012 2.77939 33.1557 2.13184 32.5951 1.59455C32.2973 1.30897 31.8243 1.31893 31.5389 1.61686C31.2533 1.91469 31.2633 2.38763 31.5612 2.67311C32.0756 3.16628 32.4584 3.78475 32.6694 4.46199L32.6695 4.46229C32.8491 5.19531 32.7713 5.97595 32.4607 6.65936C32.0321 6.50587 31.5728 6.44032 31.1051 6.4724C30.6043 6.50666 30.1299 6.64811 29.695 6.89275C29.3354 7.09505 29.2079 7.55057 29.4102 7.91015C29.6124 8.26964 30.0678 8.39734 30.4276 8.19494C30.6674 8.06007 30.9296 7.98207 31.2072 7.96305C32.2246 7.89382 33.1101 8.66469 33.1798 9.6828C33.2067 10.0953 33.5696 10.4067 33.9762 10.3771C34.3879 10.3489 34.6987 9.99238 34.6705 9.5807C34.6156 8.77924 34.2823 8.04074 33.7263 7.47307C34.114 6.71206 34.2945 5.85612 34.2513 5.00605C36.4339 5.21962 38.1773 6.95331 38.4064 9.13186C37.3423 9.52691 36.4806 10.347 36.039 11.4179C35.8817 11.7993 36.0634 12.236 36.4449 12.3933C36.538 12.4317 36.6345 12.4498 36.7294 12.4498C37.0229 12.4498 37.3014 12.2756 37.4204 11.9873C37.8164 11.0115 38.7897 10.3607 39.8419 10.3673C41.2847 10.3673 42.4586 11.5412 42.4586 12.984C42.4586 13.2643 42.4138 13.5413 42.3254 13.8072C42.1976 14.1916 42.3994 14.6078 42.7803 14.7454C44.6106 15.4071 45.8403 17.1599 45.8403 19.107C45.8403 19.5067 45.7888 19.8978 45.6898 20.2772C44.944 19.8753 44.133 19.5995 43.2962 19.465C43.2083 18.7261 42.857 18.008 42.3221 17.4885C42.0276 17.1995 41.5546 17.204 41.2657 17.4983C40.9767 17.7928 40.9811 18.2658 41.2755 18.5548C41.4719 18.7474 41.6199 18.9776 41.7154 19.2388C42.0658 20.1971 41.5713 21.2619 40.613 21.6124C40.2256 21.7541 40.0263 22.1831 40.168 22.5706C40.2787 22.8734 40.5649 23.0613 40.8696 23.0613C40.9548 23.0613 41.0416 23.0466 41.1262 23.0157C42.1115 22.6553 42.825 21.877 43.1409 20.9542C44.0305 21.1096 44.8817 21.4642 45.62 21.9897C45.6268 21.995 45.6328 22.0008 45.6399 22.0058C47.2343 23.1505 48.1863 25.0033 48.1863 26.9621C48.1863 29.0395 47.1548 30.9372 45.4197 32.0695C43.9122 31.1787 42.1556 30.6665 40.2814 30.6665C36.6467 30.6665 33.4534 32.5905 31.6652 35.4731C30.8385 35.0162 30.1765 34.3095 29.7752 33.4427C29.6018 33.0683 29.1576 32.9052 28.7834 33.0787C28.4089 33.252 28.2459 33.696 28.4193 34.0705C28.96 35.2382 29.8551 36.1885 30.9731 36.7978C30.4434 38.0255 30.1491 39.3779 30.1491 40.7979C30.1491 44.0483 31.688 46.9458 34.0751 48.8011C33.2484 49.2654 32.3213 49.5077 31.3494 49.5077C28.5064 49.5077 26.1259 47.3887 25.7972 44.5733V42.1217C25.7972 41.7091 25.4627 41.3746 25.0501 41.3746C24.6375 41.3746 24.3031 41.7091 24.3031 42.1217V44.5734C23.9734 47.3888 21.5929 49.5077 18.7509 49.5077C15.7185 49.5077 13.2438 47.0819 13.1617 44.0694C13.8123 43.7544 14.3773 43.2691 14.785 42.6657C15.016 42.3239 14.9262 41.8595 14.5843 41.6284C14.2424 41.3974 13.778 41.4872 13.547 41.8291C13.2214 42.3103 12.7397 42.6758 12.1899 42.8538C10.7621 43.3463 9.12823 42.4108 8.82243 40.9357C8.66126 40.1504 8.8821 39.3064 9.41012 38.7035C9.68046 38.3918 9.64699 37.92 9.33532 37.6496C9.02364 37.3792 8.55179 37.4128 8.28145 37.7244C7.69884 38.3961 7.3526 39.2374 7.28865 40.1198C5.51053 39.4579 4.25875 37.7289 4.25875 35.7725C4.25875 35.084 4.41015 34.4119 4.70061 33.7968C5.44569 34.1593 6.24007 34.3952 7.0716 34.498C7.47323 34.5503 7.85583 34.2593 7.90473 33.8482C7.95534 33.4387 7.66448 33.0658 7.25498 33.0151C6.38151 32.9063 5.55605 32.6179 4.80829 32.152C3.53469 31.3636 2.59787 30.1443 2.17034 28.7188C2.05181 28.3236 1.63534 28.0993 1.2402 28.2177C0.845047 28.3363 0.620727 28.7527 0.739162 29.1479C1.20195 30.6912 2.14325 32.0399 3.42193 33.0104C2.99023 33.864 2.76461 34.806 2.76461 35.7725C2.76461 37.2498 3.29782 38.677 4.26602 39.791C5.11688 40.7702 6.25262 41.452 7.50311 41.743C8.10565 43.4515 9.84641 44.6129 11.6849 44.4658C11.9666 48.117 15.0281 51.0017 18.7509 51.0017C21.4759 51.0017 23.8667 49.4641 25.0498 47.1698C26.2326 49.4641 28.6234 51.0017 31.3494 51.0017C32.8156 51.0017 34.2525 50.5406 35.443 49.6981C36.8816 50.4832 38.5303 50.9299 40.2813 50.9299C42.3918 50.9299 44.4142 50.2875 46.1299 49.0722C46.4666 48.8337 46.5461 48.3674 46.3077 48.0308C46.0692 47.6941 45.6029 47.6145 45.2663 47.853C43.8044 48.8885 42.0807 49.4357 40.2813 49.4357C35.5182 49.4357 31.6432 45.5608 31.6432 40.7977C31.6432 36.0352 35.5182 32.1606 40.2813 32.1606C45.0438 32.1606 48.9184 36.0352 48.9184 40.7977C48.9184 42.4946 48.4273 44.1359 47.498 45.5439C47.2707 45.8883 47.3656 46.3517 47.7101 46.579C48.0543 46.8062 48.5178 46.7113 48.7451 46.3669C49.836 44.7139 50.4126 42.7881 50.4126 40.7977C50.4122 37.6539 48.9724 34.8397 46.7177 32.98Z" fill="#134A85"/>
<path d="M38.5646 46.5936H41.9969C42.4094 46.5936 42.7439 46.2591 42.7439 45.8465V43.258H45.3325C45.7451 43.258 46.0796 42.9235 46.0796 42.5109V39.0788C46.0796 38.6662 45.7451 38.3317 45.3325 38.3317H42.7439V35.7432C42.7439 35.3306 42.4094 34.9961 41.9969 34.9961H38.5646C38.152 34.9961 37.8176 35.3306 37.8176 35.7432V38.3317H35.229C34.8164 38.3317 34.4819 38.6662 34.4819 39.0788V42.5109C34.4819 42.9235 34.8164 43.258 35.229 43.258H37.8176V45.8465C37.8176 46.2591 38.152 46.5936 38.5646 46.5936ZM35.9761 41.7639V39.8259H38.5646C38.9772 39.8259 39.3117 39.4914 39.3117 39.0788V36.4902H41.2498V39.0788C41.2498 39.4914 41.5843 39.8259 41.9969 39.8259H44.5854V41.7639H41.9969C41.5843 41.7639 41.2498 42.0983 41.2498 42.5109V45.0995H39.3117V42.5109C39.3117 42.0983 38.9772 41.7639 38.5646 41.7639H35.9761Z" fill="#134A85"/>
</g>
<defs>
<clipPath id="clip0_71_8782">
<rect width="51" height="51" fill="white"/>
</clipPath>
</defs>
</svg>
